<svg width="125" height="120" viewBox="0 0 125 120" fill="none" xmlns="http://www.w3.org/2000/svg">
<path d="M77.6794 81.7964C80.1185 83.4162 82.961 84.2724 85.8997 84.2724C89.8699 84.2724 93.5778 82.7252 96.34 79.9161C99.0839 77.1256 100.595 73.3984 100.595 69.4215C100.595 65.4435 99.0852 61.7087 96.3438 58.9056C93.578 56.0776 89.8689 54.5203 85.8997 54.5203C83.0633 54.5203 80.3045 55.322 77.9214 56.8389C76.9972 57.427 76.7249 58.6531 77.313 59.5773C77.9013 60.501 79.127 60.7736 80.0513 60.1855C81.7969 59.0744 83.8191 58.4872 85.8997 58.4872C91.9156 58.4872 96.628 63.2902 96.628 69.4215C96.628 75.5247 91.9156 80.3054 85.8997 80.3054C83.7443 80.3054 81.6606 79.6783 79.874 78.4919C78.9613 77.8859 77.7302 78.1341 77.1243 79.0468C76.5184 79.9594 76.7668 81.1906 77.6794 81.7964Z" fill="#603C93"/>
<path d="M62.0989 80.3054C59.9435 80.3054 57.8598 79.6782 56.0732 78.4918C55.1604 77.8858 53.9295 78.134 53.3235 79.0468C52.7176 79.9593 52.966 81.1905 53.8786 81.7963C56.3177 83.4162 59.1602 84.2723 62.0989 84.2723C66.0691 84.2723 69.777 82.7251 72.5392 79.916C75.2831 77.1256 76.7942 73.3983 76.7942 69.4215C76.7942 65.4434 75.2844 61.7086 72.543 58.9056C69.7772 56.0776 66.0681 54.5203 62.0989 54.5203C59.2625 54.5203 56.5037 55.3219 54.1206 56.8388C53.1964 57.4269 52.9241 58.6531 53.5122 59.5772C54.1002 60.5009 55.326 60.7736 56.2505 60.1854C57.9961 59.0743 60.0183 58.4872 62.0989 58.4872C68.1148 58.4872 72.8273 63.2902 72.8273 69.4215C72.8272 75.5246 68.1148 80.3054 62.0989 80.3054Z" fill="#603C93"/>
<path d="M124.827 76.3605C124.763 74.1828 123.793 72.1037 122.164 70.6561C119.025 67.8658 114.239 68.0058 111.276 70.9698L94.8224 87.2727H84.7296C83.6341 87.2727 82.7461 88.1608 82.7461 89.2562C82.7461 90.3515 83.6341 91.2396 84.7296 91.2396H95.6256H95.6346H95.6387C95.6466 91.2396 95.6543 91.2385 95.6622 91.2384C95.7192 91.2378 95.7762 91.2354 95.833 91.2298C95.8554 91.2276 95.8772 91.2234 95.8994 91.2206C95.9414 91.2151 95.9834 91.2097 96.025 91.2014C96.0516 91.1961 96.0774 91.1889 96.1037 91.1825C96.1403 91.1738 96.177 91.1653 96.2132 91.1544C96.2397 91.1464 96.2654 91.1365 96.2914 91.1274C96.3266 91.1152 96.3617 91.1034 96.3963 91.0891C96.421 91.0788 96.4449 91.0668 96.4692 91.0556C96.5036 91.0397 96.538 91.0242 96.5717 91.0062C96.5957 90.9934 96.6185 90.979 96.6418 90.9652C96.6739 90.9463 96.7061 90.928 96.7373 90.9072C96.7633 90.8898 96.7878 90.8706 96.8129 90.8521C96.8396 90.8324 96.8668 90.8136 96.8927 90.7925C96.927 90.7644 96.9592 90.7341 96.9915 90.7039C97.0057 90.6906 97.0208 90.6789 97.0348 90.6651L114.074 73.7814C115.561 72.294 117.957 72.2238 119.529 73.6211C120.356 74.3564 120.83 75.3707 120.862 76.4769C120.895 77.5832 120.481 78.6233 119.705 79.4001L101.184 97.7651C101.183 97.766 101.183 97.767 101.182 97.768C101.135 97.8142 101.091 97.8624 101.049 97.9129C101.033 97.933 101.019 97.9544 101.003 97.975C100.98 98.0059 100.955 98.0363 100.934 98.0686C100.914 98.0972 100.898 98.127 100.88 98.1564C100.865 98.1825 100.848 98.208 100.833 98.2349C100.817 98.2646 100.804 98.2952 100.79 98.3256C100.776 98.3539 100.762 98.3817 100.75 98.4107C100.738 98.4393 100.729 98.4686 100.718 98.4977C100.706 98.5296 100.694 98.5612 100.684 98.594C100.675 98.6224 100.669 98.6514 100.662 98.6801C100.653 98.714 100.643 98.7475 100.636 98.782C100.629 98.8191 100.625 98.8565 100.619 98.8939C100.616 98.9207 100.61 98.9468 100.607 98.9739C100.601 99.0389 100.598 99.1042 100.598 99.1696C100.598 99.1709 100.597 99.1722 100.597 99.1736V118.017C100.597 119.112 101.485 120 102.581 120C103.676 120 104.564 119.112 104.564 118.017V100L122.504 82.2112C124.044 80.6705 124.891 78.5381 124.827 76.3605Z" fill="#603C93"/>
<path d="M46.0514 87.2727H28.0973L13.6395 71.0587C13.6143 71.0304 13.5883 71.003 13.5615 70.9761C10.5914 68.006 5.8055 67.8656 2.66625 70.656C1.03796 72.1034 0.067305 74.1826 0.0033783 76.3602C-0.0598113 78.5115 0.765941 80.6187 2.2711 82.1547L19.2745 101.894V118.016C19.2745 119.112 20.1625 120 21.258 120C22.3535 120 23.2415 119.112 23.2415 118.016V101.157C23.2415 100.682 23.0709 100.222 22.7608 99.8624L5.23203 79.5139C5.19994 79.4768 5.16653 79.4407 5.13179 79.4059C4.34926 78.6233 3.93608 77.5832 3.96864 76.4769C4.00108 75.3706 4.47456 74.3564 5.30176 73.6211C6.86056 72.2351 9.23057 72.2933 10.7202 73.7453L25.728 90.5762C26.1043 90.9982 26.6429 91.2396 27.2084 91.2396H46.0514C48.7856 91.2396 51.0101 93.464 51.0101 96.1983V118.016C51.0101 119.112 51.898 120 52.9935 120C54.089 120 54.977 119.112 54.977 118.016V96.1983C54.977 91.2767 50.973 87.2727 46.0514 87.2727Z" fill="#603C93"/>
<path d="M70.8448 87.2727H57.9522C56.8567 87.2727 55.9688 88.1608 55.9688 89.2562C55.9688 90.3515 56.8567 91.2396 57.9522 91.2396H70.8448C73.579 91.2396 75.8035 93.464 75.8035 96.1983V118.017C75.8035 119.112 76.6914 120 77.7869 120C78.8824 120 79.7704 119.112 79.7704 118.017V96.1983C79.7704 91.2767 75.7664 87.2727 70.8448 87.2727Z" fill="#603C93"/>
<path d="M37.1221 54.5454C28.9195 54.5454 22.2461 61.2188 22.2461 69.4214C22.2461 77.6241 28.9195 84.2975 37.1221 84.2975C45.3247 84.2975 51.9982 77.6241 51.9982 69.4214C51.9982 61.2188 45.3248 54.5454 37.1221 54.5454ZM37.1221 80.3305C31.1068 80.3305 26.213 75.4367 26.213 69.4214C26.213 63.4061 31.1068 58.5124 37.1221 58.5124C43.1374 58.5124 48.0312 63.4061 48.0312 69.4214C48.0312 75.4367 43.1374 80.3305 37.1221 80.3305Z" fill="#603C93"/>
<path d="M49.1632 28.4674L47.0693 41.2895C46.9499 42.0207 47.2481 42.7577 47.8425 43.2001C48.4369 43.6424 49.2282 43.717 49.8947 43.3925L61.9194 37.5412L73.944 43.3925C74.2194 43.5267 74.5162 43.5925 74.8117 43.5925C75.2309 43.5925 75.6476 43.4596 75.9963 43.2001C76.5907 42.7577 76.8889 42.0207 76.7695 41.2895L74.6756 28.4674L84.13 19.2543C84.6667 18.7316 84.8628 17.951 84.6373 17.2365C84.4116 16.5222 83.8028 15.9959 83.0632 15.876L69.825 13.7298L63.7038 1.11741C63.3721 0.433885 62.6791 0 61.9194 0C61.1597 0 60.4667 0.433885 60.1349 1.11741L54.0138 13.7298L40.7755 15.876C40.0359 15.9959 39.4271 16.5222 39.2015 17.2365C38.9759 17.951 39.1721 18.7316 39.7087 19.2543L49.1632 28.4674ZM55.6657 17.4805C56.3033 17.3771 56.8507 16.9699 57.1328 16.3888L61.9194 6.52615L66.706 16.3888C66.9881 16.9699 67.5354 17.3771 68.173 17.4805L78.5412 19.1616L71.1674 26.3471C70.7037 26.7989 70.4897 27.4485 70.594 28.0872L72.2374 38.1503L62.7873 33.5519C62.5133 33.4185 62.2163 33.3519 61.9193 33.3519C61.6224 33.3519 61.3254 33.4185 61.0514 33.5519L51.6013 38.1503L53.2447 28.0872C53.349 27.4485 53.135 26.7989 52.6713 26.3471L45.2975 19.1616L55.6657 17.4805Z" fill="#603C93"/>
<path d="M92.012 39.2057L90.4384 48.2098C90.3086 48.9519 90.6106 49.7034 91.2177 50.1494C91.8248 50.5956 92.6323 50.6596 93.3017 50.3138L101.586 46.0396L109.871 50.3138C110.157 50.4618 110.469 50.5347 110.78 50.5347C111.195 50.5347 111.607 50.4046 111.955 50.1495C112.562 49.7035 112.864 48.9519 112.734 48.2098L111.16 39.2058L117.833 32.8227C118.382 32.2978 118.583 31.5058 118.351 30.7828C118.118 30.0598 117.494 29.5329 116.742 29.4257L107.489 28.1061L103.358 19.8913C103.021 19.2216 102.336 18.7991 101.586 18.7991C100.836 18.7991 100.151 19.2216 99.8141 19.8913L95.6829 28.1061L86.4301 29.4257C85.6784 29.5329 85.0538 30.0598 84.8216 30.7828C84.5895 31.5057 84.7903 32.2978 85.3391 32.8227L92.012 39.2057ZM97.2692 31.8871C97.9121 31.7953 98.4694 31.3948 98.7611 30.8147L101.586 25.1973L104.411 30.8147C104.703 31.3949 105.26 31.7954 105.903 31.8871L112.142 32.7769L107.653 37.071C107.175 37.5283 106.956 38.1939 107.07 38.8457L108.138 44.9564L102.496 42.0451C102.21 41.8979 101.898 41.8243 101.586 41.8243C101.274 41.8243 100.962 41.8979 100.677 42.0451L95.034 44.9564L96.1019 38.8457C96.2158 38.1939 95.9973 37.5283 95.5192 37.071L91.0301 32.7769L97.2692 31.8871Z" fill="#603C93"/>
<path d="M12.676 39.2057L11.1025 48.2098C10.9727 48.9519 11.2746 49.7034 11.8818 50.1494C12.4889 50.5956 13.2964 50.6596 13.9657 50.3138L22.2502 46.0396L30.5347 50.3138C30.8213 50.4618 31.1332 50.5347 31.4438 50.5347C31.8588 50.5347 32.2715 50.4046 32.6186 50.1495C33.2258 49.7035 33.5277 48.9519 33.3979 48.2098L31.8244 39.2058L38.4973 32.8227C39.046 32.2978 39.2469 31.5058 39.0147 30.7828C38.7825 30.0598 38.1579 29.5329 37.4062 29.4257L28.1534 28.1061L24.0222 19.8913C23.6854 19.2216 22.9998 18.7991 22.2502 18.7991C21.5006 18.7991 20.815 19.2216 20.4782 19.8913L16.347 28.1061L7.09413 29.4257C6.34245 29.5329 5.7179 30.0598 5.48571 30.7828C5.25352 31.5057 5.45435 32.2978 6.00312 32.8227L12.676 39.2057ZM17.9332 31.8871C18.5762 31.7953 19.1334 31.3948 19.4252 30.8147L22.2502 25.1973L25.0751 30.8147C25.3669 31.3949 25.9241 31.7954 26.5671 31.8871L32.8062 32.7769L28.3172 37.071C27.839 37.5283 27.6205 38.1939 27.7344 38.8457L28.8023 44.9564L23.1596 42.0451C22.8744 41.8979 22.5623 41.8243 22.2502 41.8243C21.9381 41.8243 21.626 41.8979 21.3408 42.0451L15.6981 44.9564L16.766 38.8457C16.8799 38.1939 16.6614 37.5283 16.1832 37.071L11.6941 32.7769L17.9332 31.8871Z" fill="#603C93"/>
</svg>
