<svg width="145" height="145" viewBox="0 0 145 145" fill="none" xmlns="http://www.w3.org/2000/svg">
<path d="M104.125 43.3981V41.9452C106.549 41.1636 108.294 39.0594 108.294 36.5898C108.294 33.8003 106.071 31.4752 103.154 30.9994C102.997 30.9415 102.831 30.9117 102.664 30.9116C100.868 30.9116 99.4099 29.6939 99.4099 28.1985C99.4099 26.7032 100.868 25.4883 102.664 25.4883C104.459 25.4883 105.918 26.7032 105.918 28.1985H108.693C108.693 25.6327 106.748 23.4719 104.128 22.8743V21.0165H101.35V22.8432C98.6565 23.3926 96.6373 25.5846 96.6373 28.1985C96.6373 30.8748 98.7557 33.1121 101.545 33.5794C101.706 33.6436 101.879 33.6763 102.052 33.6757C103.964 33.6757 105.519 34.9784 105.519 36.5785C105.519 38.1786 103.964 39.4814 102.052 39.4814C100.141 39.4814 98.5829 38.1786 98.5829 36.5785H95.8047C95.8047 39.4927 98.2346 41.9027 101.35 42.2199V43.3867L104.125 43.3981Z" fill="#603C93"/>
<path d="M142.533 121.777L130.072 115.547C129.86 115.441 129.625 115.39 129.389 115.4C129.152 115.411 128.922 115.481 128.72 115.606C128.519 115.73 128.352 115.904 128.237 116.111C128.122 116.318 128.061 116.55 128.061 116.787V121.338H112.683V66.7113C112.683 66.3433 112.537 65.9903 112.277 65.7301C112.017 65.4698 111.664 65.3236 111.296 65.3236H103.635V61.7978L110.052 61.6023C112.507 61.5205 114.91 60.8749 117.075 59.7154C119.241 58.5559 121.11 56.9137 122.539 54.9159L126.22 49.7248C126.364 49.5234 126.451 49.2873 126.472 49.041C126.494 48.7948 126.449 48.5472 126.343 48.324C126.236 48.1008 126.072 47.91 125.868 47.7714C125.663 47.6328 125.425 47.5514 125.178 47.5356L118.99 47.1392C116.209 46.9673 113.432 47.5272 110.934 48.7629C108.437 49.9987 106.307 51.8672 104.757 54.1824L103.624 55.8816V47.6914C107.612 47.3341 111.308 45.4522 113.944 42.4377C116.579 39.4232 117.95 35.5083 117.771 31.5082C117.592 27.5082 115.877 23.7312 112.984 20.9639C110.09 18.1965 106.24 16.6521 102.236 16.6521C98.232 16.6521 94.3822 18.1965 91.4884 20.9639C88.5946 23.7312 86.8797 27.5082 86.7008 31.5082C86.522 35.5083 87.893 39.4232 90.5283 42.4377C93.1637 45.4522 96.8602 47.3341 100.848 47.6914V57.3571L98.7271 54.1824C97.1765 51.8674 95.0465 49.9991 92.5491 48.7633C90.0518 47.5276 87.2744 46.9676 84.4933 47.1392L78.3053 47.5356C78.0586 47.5514 77.8206 47.6328 77.616 47.7714C77.4113 47.91 77.2473 48.1008 77.141 48.324C77.0348 48.5472 76.9901 48.7948 77.0115 49.041C77.033 49.2873 77.1199 49.5234 77.2632 49.7248L80.9448 54.9159C82.3762 56.9171 84.2496 58.5613 86.4195 59.721C88.5895 60.8806 90.9976 61.5244 93.4567 61.6023L100.865 61.8261V65.3236H93.199C92.831 65.3236 92.478 65.4698 92.2178 65.7301C91.9575 65.9903 91.8113 66.3433 91.8113 66.7113V121.333H88.8433V77.6231C88.8426 77.2548 88.6958 76.9019 88.4351 76.6417C88.1744 76.3816 87.8211 76.2354 87.4528 76.2354H69.3561C68.9883 76.2362 68.6358 76.3826 68.3757 76.6427C68.1156 76.9028 67.9692 77.2553 67.9684 77.6231V121.333H65.0005V91.1234C65.0005 90.7554 64.8543 90.4024 64.594 90.1422C64.3338 89.8819 63.9808 89.7357 63.6128 89.7357H45.5161C45.1481 89.7357 44.7951 89.8819 44.5348 90.1422C44.2746 90.4024 44.1284 90.7554 44.1284 91.1234V121.333H41.1604V104.624C41.1597 104.255 41.0128 103.902 40.7522 103.642C40.4915 103.382 40.1382 103.236 39.7699 103.236H21.6732C21.3054 103.237 20.9529 103.383 20.6928 103.643C20.4327 103.903 20.2863 104.256 20.2855 104.624V121.333H10.7104V29.6061H15.5249C15.7616 29.6058 15.9944 29.5452 16.2012 29.4298C16.4079 29.3144 16.5818 29.1482 16.7063 28.9468C16.8308 28.7454 16.9018 28.5156 16.9127 28.2791C16.9235 28.0426 16.8737 27.8072 16.7681 27.5953L10.5377 15.1485C10.4226 14.9177 10.2454 14.7235 10.026 14.5878C9.80664 14.452 9.55379 14.3801 9.29583 14.3801C9.03787 14.3801 8.78501 14.452 8.56565 14.5878C8.34629 14.7235 8.1691 14.9177 8.05398 15.1485L1.82351 27.5953C1.71719 27.8069 1.66678 28.0422 1.6771 28.2788C1.68741 28.5154 1.7581 28.7454 1.88243 28.9469C2.00677 29.1485 2.18061 29.3149 2.38742 29.4302C2.59423 29.5456 2.82713 29.6061 3.06394 29.6061H7.92937V122.72C7.929 122.903 7.96462 123.084 8.03419 123.252C8.10376 123.421 8.20592 123.574 8.33482 123.703C8.46371 123.833 8.61682 123.935 8.78536 124.005C8.95391 124.075 9.13459 124.111 9.31707 124.111H128.075V129.231C128.075 129.414 128.111 129.594 128.181 129.763C128.251 129.931 128.354 130.085 128.483 130.214C128.612 130.342 128.765 130.445 128.934 130.514C129.103 130.584 129.284 130.619 129.466 130.619C129.681 130.619 129.894 130.569 130.086 130.472L142.547 124.241C142.778 124.127 142.972 123.95 143.108 123.731C143.244 123.511 143.316 123.259 143.316 123.001C143.316 122.743 143.244 122.49 143.108 122.271C142.972 122.052 142.778 121.875 142.547 121.76L142.533 121.777ZM107.073 55.723C108.276 53.9294 109.9 52.4588 111.805 51.4405C113.709 50.4222 115.834 49.8875 117.993 49.8834C118.277 49.8834 118.543 49.8834 118.82 49.9089L122.522 50.1468L120.276 53.3073C119.096 54.9563 117.553 56.3118 115.765 57.2689C113.978 58.226 111.994 58.7591 109.967 58.827L104.898 58.9799L107.073 55.723ZM93.536 58.8383C91.5095 58.7704 89.5258 58.2373 87.7383 57.2802C85.9507 56.3231 84.4073 54.9676 83.2274 53.3187L80.9958 50.1468L84.6972 49.9089C86.9925 49.768 89.2847 50.2306 91.3456 51.2506C93.4066 52.2707 95.1645 53.8126 96.4445 55.723L98.6195 58.9799L93.536 58.8383ZM5.3324 26.8278L9.3114 18.8755L13.2762 26.8278H5.3324ZM38.3822 121.333H23.0637V106.014H38.3822V121.333ZM62.2251 121.333H46.9038V92.514H62.2251V121.333ZM86.0651 121.333H70.7467V79.0137H86.0651V121.333ZM89.4635 32.2059C89.4635 29.679 90.2129 27.2089 91.6168 25.108C93.0207 23.007 95.0161 21.3696 97.3506 20.4028C99.6851 19.4359 102.254 19.1831 104.732 19.6762C107.21 20.1694 109.487 21.3864 111.273 23.1734C113.06 24.9603 114.276 27.2369 114.769 29.7153C115.262 32.1936 115.008 34.7624 114.041 37.0967C113.074 39.431 111.436 41.4261 109.334 42.8295C107.233 44.2329 104.763 44.9817 102.236 44.9812C98.8511 44.9737 95.6072 43.6249 93.2148 41.2304C90.8224 38.8359 89.4765 35.5907 89.472 32.2059H89.4635ZM109.899 121.333H94.5895V68.0905H109.911L109.899 121.333ZM130.857 126.983V119.03L138.812 122.995L130.857 126.983Z" fill="#603C93"/>
</svg>
