<svg width="1237" height="1090" viewBox="0 0 1237 1090" fill="none" xmlns="http://www.w3.org/2000/svg">
<path d="M0.5 -19H1253V1090H427L0.5 -19Z" fill="#B68B60"/>
<path d="M708.082 683.105L862.748 592.964C865.411 591.399 865.432 587.556 862.748 585.991L763.093 527.219" stroke="#FFB06D" stroke-miterlimit="10"/>
<path d="M797.871 780.828L939.506 698.535" stroke="#B5E9FE" stroke-miterlimit="10"/>
<path d="M547.66 624.739L689.295 542.466" stroke="#B5E9FE" stroke-miterlimit="10"/>
<path d="M786.406 773.773L928.041 691.48" stroke="#C0966A" stroke-miterlimit="10"/>
<path d="M826.128 750.7C828.262 751.94 828.262 753.932 826.148 755.152C824.034 756.392 820.578 756.392 818.443 755.152C816.309 753.912 816.309 751.919 818.423 750.7C820.537 749.46 823.993 749.46 826.128 750.7Z" fill="#C0966A"/>
<path d="M837.772 743.93C839.907 745.17 839.907 747.162 837.793 748.382C835.678 749.622 832.222 749.622 830.088 748.382C827.953 747.142 827.953 745.15 830.068 743.93C832.182 742.69 835.638 742.69 837.772 743.93Z" fill="#C0966A"/>
<path d="M849.425 737.16C851.559 738.4 851.559 740.393 849.445 741.612C847.331 742.852 843.875 742.852 841.74 741.612C839.606 740.372 839.606 738.38 841.72 737.16C843.834 735.92 847.29 735.92 849.425 737.16Z" fill="#C0966A"/>
<path d="M713.246 666.882L839.065 593.554C841.728 591.988 841.748 588.146 839.065 586.581L739.41 527.808" stroke="#C0966A" stroke-miterlimit="10"/>
<path d="M810.792 609.187C812.927 610.427 812.927 612.419 810.812 613.639C808.698 614.879 805.242 614.879 803.107 613.639C800.973 612.399 800.973 610.407 803.087 609.187C805.201 607.947 808.657 607.947 810.792 609.187Z" fill="#C0966A"/>
<path d="M822.436 602.417C824.571 603.657 824.571 605.65 822.457 606.869C820.342 608.109 816.887 608.109 814.752 606.869C812.617 605.629 812.617 603.637 814.732 602.417C816.846 601.177 820.302 601.177 822.436 602.417Z" fill="#C0966A"/>
<path d="M834.089 595.647C836.223 596.888 836.223 598.88 834.109 600.1C831.995 601.34 828.539 601.34 826.404 600.1C824.27 598.86 824.27 596.867 826.384 595.647C828.498 594.407 831.954 594.407 834.089 595.647Z" fill="#C0966A"/>
<path d="M822.069 571.517C824.204 572.757 824.204 574.749 822.09 575.969C819.975 577.209 816.519 577.209 814.385 575.969C812.25 574.729 812.25 572.736 814.364 571.517C816.479 570.277 819.935 570.277 822.069 571.517Z" fill="#C0966A"/>
<path d="M810.425 564.747C812.559 565.987 812.559 567.979 810.445 569.199C808.331 570.439 804.875 570.439 802.74 569.199C800.606 567.959 800.606 565.967 802.72 564.747C804.834 563.507 808.29 563.507 810.425 564.747Z" fill="#C0966A"/>
<path d="M788.38 639.518L597.101 751.005C592.689 753.566 587.241 753.566 582.85 751.005L514.543 711.017" stroke="#C0966A" stroke-miterlimit="10"/>
<path d="M572.038 740.535C574.173 741.775 574.173 743.768 572.058 744.987C569.944 746.228 566.488 746.228 564.353 744.987C562.219 743.747 562.219 741.755 564.333 740.535C566.447 739.295 569.903 739.295 572.038 740.535Z" fill="#C0966A"/>
<path d="M560.393 733.766C562.528 735.006 562.528 736.998 560.414 738.218C558.3 739.458 554.844 739.458 552.709 738.218C550.574 736.978 550.574 734.985 552.689 733.766C554.803 732.526 558.259 732.526 560.393 733.766Z" fill="#C0966A"/>
<path d="M809.34 787.882L950.975 705.589" stroke="#FFB06D" stroke-miterlimit="10"/>
<path d="M908.741 730.126C910.876 731.367 910.876 733.359 908.761 734.579C906.647 735.819 903.191 735.819 901.057 734.579C898.922 733.339 898.922 731.346 901.036 730.126C903.151 728.886 906.607 728.886 908.741 730.126Z" fill="#FFB06D"/>
<path d="M920.386 723.357C922.52 724.597 922.52 726.589 920.406 727.809C918.292 729.049 914.836 729.049 912.701 727.809C910.567 726.569 910.567 724.576 912.681 723.357C914.795 722.117 918.251 722.117 920.386 723.357Z" fill="#FFB06D"/>
<path d="M932.061 716.587C934.196 717.827 934.196 719.819 932.082 721.039C929.968 722.279 926.512 722.279 924.377 721.039C922.242 719.799 922.242 717.807 924.357 716.587C926.471 715.347 929.927 715.347 932.061 716.587Z" fill="#FFB06D"/>
<path d="M780.37 630.939L597.12 737.75C592.709 740.311 587.26 740.311 582.869 737.75L514.562 697.762" stroke="#FFB06D" stroke-miterlimit="10"/>
<path d="M648.675 707.581C650.809 708.821 650.809 710.814 648.695 712.033C646.581 713.274 643.125 713.274 640.99 712.033C638.856 710.793 638.856 708.801 640.97 707.581C643.084 706.341 646.54 706.341 648.675 707.581Z" fill="#FFB06D"/>
<path d="M660.319 700.812C662.454 702.052 662.454 704.044 660.34 705.264C658.225 706.504 654.769 706.504 652.635 705.264C650.5 704.024 650.5 702.031 652.614 700.812C654.729 699.571 658.185 699.571 660.319 700.812Z" fill="#FFB06D"/>
<path d="M671.972 694.042C674.106 695.282 674.106 697.274 671.992 698.494C669.878 699.734 666.422 699.734 664.287 698.494C662.152 697.254 662.153 695.262 664.267 694.042C666.381 692.802 669.837 692.802 671.972 694.042Z" fill="#FFB06D"/>
<path d="M559.129 631.813L700.764 549.52" stroke="#FFB06D" stroke-miterlimit="10"/>
<path d="M660.757 572.96C662.891 574.2 662.891 576.192 660.777 577.412C658.663 578.652 655.207 578.652 653.072 577.412C650.938 576.172 650.938 574.179 653.052 572.96C655.166 571.72 658.622 571.72 660.757 572.96Z" fill="#FFB06D"/>
<path d="M672.401 566.19C674.536 567.43 674.536 569.422 672.422 570.642C670.307 571.882 666.851 571.882 664.717 570.642C662.582 569.402 662.582 567.41 664.696 566.19C666.811 564.95 670.267 564.95 672.401 566.19Z" fill="#FFB06D"/>
<path d="M684.054 559.42C686.188 560.66 686.188 562.653 684.074 563.872C681.96 565.112 678.504 565.112 676.369 563.872C674.235 562.632 674.235 560.64 676.349 559.42C678.463 558.18 681.919 558.18 684.054 559.42Z" fill="#FFB06D"/>
<path d="M754.961 692.334L938.21 585.523C942.622 582.962 948.07 582.962 952.461 585.523L1020.77 625.511" stroke="#FFB06D" stroke-miterlimit="10"/>
<path d="M853.706 634.782C855.841 636.022 855.841 638.014 853.726 639.234C851.612 640.474 848.156 640.474 846.021 639.234C843.887 637.994 843.887 636.001 846.001 634.782C848.115 633.542 851.571 633.542 853.706 634.782Z" fill="#FFB06D"/>
<path d="M865.35 628.012C867.485 629.252 867.485 631.244 865.371 632.464C863.257 633.704 859.801 633.704 857.666 632.464C855.531 631.224 855.531 629.232 857.646 628.012C859.76 626.772 863.216 626.772 865.35 628.012Z" fill="#FFB06D"/>
<path d="M877.026 621.242C879.161 622.482 879.161 624.475 877.047 625.694C874.932 626.934 871.476 626.934 869.342 625.694C867.207 624.454 867.207 622.462 869.321 621.242C871.436 620.002 874.892 620.002 877.026 621.242Z" fill="#FFB06D"/>
<path d="M746.93 683.775L938.209 572.289C942.621 569.727 948.069 569.727 952.46 572.289L1020.77 612.277" stroke="#B5E9FE" stroke-miterlimit="10"/>
<path d="M819.526 641.552C821.661 642.792 821.661 644.784 819.547 646.004C817.432 647.244 813.976 647.244 811.842 646.004C809.707 644.764 809.707 642.771 811.821 641.552C813.936 640.311 817.392 640.311 819.526 641.552Z" fill="#B5E9FE"/>
<path d="M831.171 634.782C833.305 636.022 833.305 638.014 831.191 639.234C829.077 640.454 825.621 640.474 823.486 639.234C821.352 637.994 821.352 636.002 823.466 634.782C825.58 633.542 829.036 633.542 831.171 634.782Z" fill="#B5E9FE"/>
<path d="M842.823 628.012C844.958 629.252 844.958 631.244 842.843 632.464C840.729 633.704 837.273 633.704 835.139 632.464C833.004 631.224 833.004 629.232 835.118 628.012C837.233 626.772 840.689 626.772 842.823 628.012Z" fill="#B5E9FE"/>
<path d="M788.382 670.907L662.564 744.235C659.9 745.8 659.88 749.643 662.564 751.208L762.218 809.98" stroke="#C0966A" stroke-miterlimit="10"/>
<path d="M691.311 763.772C693.446 765.012 693.446 767.004 691.332 768.224C689.218 769.464 685.762 769.464 683.627 768.224C681.492 766.984 681.492 764.991 683.607 763.772C685.721 762.532 689.177 762.532 691.311 763.772Z" fill="#C0966A"/>
<path d="M679.663 757.002C681.798 758.242 681.798 760.234 679.683 761.454C677.569 762.694 674.113 762.694 671.978 761.454C669.844 760.214 669.844 758.222 671.958 757.002C674.072 755.762 677.528 755.762 679.663 757.002Z" fill="#C0966A"/>
<path d="M697.62 724.109C699.755 725.349 699.755 727.341 697.64 728.561C695.526 729.801 692.07 729.801 689.936 728.561C687.801 727.321 687.801 725.329 689.915 724.109C692.029 722.869 695.485 722.869 697.62 724.109Z" fill="#C0966A"/>
<path d="M709.265 717.339C711.399 718.579 711.399 720.572 709.285 721.791C707.171 723.031 703.715 723.031 701.58 721.791C699.445 720.551 699.445 718.559 701.56 717.339C703.674 716.099 707.13 716.099 709.265 717.339Z" fill="#C0966A"/>
<path d="M720.917 710.569C723.052 711.81 723.051 713.802 720.937 715.022C718.823 716.262 715.367 716.262 713.232 715.022C711.098 713.782 711.098 711.789 713.212 710.569C715.326 709.329 718.782 709.329 720.917 710.569Z" fill="#C0966A"/>
<path d="M793.55 654.684L638.884 744.825C636.221 746.39 636.2 750.232 638.884 751.798L738.539 810.57" stroke="#B5E9FE" stroke-miterlimit="10"/>
<path d="M656.729 734.03C658.864 735.27 658.864 737.262 656.75 738.482C654.635 739.722 651.179 739.722 649.045 738.482C646.91 737.242 646.91 735.25 649.025 734.03C651.139 732.79 654.595 732.79 656.729 734.03Z" fill="#B5E9FE"/>
<path d="M668.393 727.26C670.528 728.5 670.528 730.493 668.414 731.712C666.3 732.953 662.844 732.953 660.709 731.712C658.574 730.472 658.574 728.48 660.689 727.26C662.803 726.02 666.259 726.02 668.393 727.26Z" fill="#B5E9FE"/>
<path d="M680.05 720.491C682.184 721.731 682.184 723.723 680.07 724.943C677.956 726.183 674.5 726.183 672.365 724.943C670.231 723.703 670.231 721.71 672.345 720.491C674.459 719.251 677.915 719.251 680.05 720.491Z" fill="#B5E9FE"/>
<path d="M536.191 617.685L677.826 535.411" stroke="#C0966A" stroke-miterlimit="10"/>
<path d="M623.323 567.064C625.458 568.304 625.458 570.297 623.343 571.516C621.229 572.757 617.773 572.757 615.639 571.516C613.504 570.276 613.504 568.284 615.618 567.064C617.733 565.824 621.189 565.824 623.323 567.064Z" fill="#C0966A"/>
<path d="M634.968 560.295C637.102 561.535 637.102 563.527 634.988 564.747C632.874 565.987 629.418 565.987 627.283 564.747C625.149 563.507 625.149 561.514 627.263 560.295C629.377 559.054 632.833 559.054 634.968 560.295Z" fill="#C0966A"/>
<path d="M646.62 553.525C648.755 554.765 648.755 556.757 646.64 557.977C644.526 559.217 641.07 559.217 638.936 557.977C636.801 556.737 636.801 554.745 638.915 553.525C641.029 552.285 644.485 552.285 646.62 553.525Z" fill="#C0966A"/>
<path d="M564.859 353.951C564.859 352.915 565.591 351.654 566.486 351.146C567.38 350.638 568.112 351.044 568.112 352.081C568.112 353.118 567.38 354.378 566.486 354.887C565.591 355.395 564.859 354.988 564.859 353.951Z" fill="white"/>
<path d="M564.859 333.236C564.859 332.199 565.591 330.938 566.486 330.43C567.38 329.922 568.112 330.329 568.112 331.365C568.112 332.402 567.38 333.663 566.486 334.171C565.591 334.679 564.859 334.272 564.859 333.236Z" fill="white"/>
<path d="M564.859 312.54C564.859 311.504 565.591 310.243 566.486 309.735C567.38 309.227 568.112 309.633 568.112 310.67C568.112 311.707 567.38 312.967 566.486 313.476C565.591 313.984 564.859 313.577 564.859 312.54Z" fill="white"/>
<path d="M564.859 291.825C564.859 290.788 565.591 289.527 566.486 289.019C567.38 288.511 568.112 288.918 568.112 289.954C568.112 290.991 567.38 292.252 566.486 292.76C565.591 293.268 564.859 292.861 564.859 291.825Z" fill="white"/>
<path d="M564.859 271.129C564.859 270.093 565.591 268.832 566.486 268.324C567.38 267.816 568.112 268.222 568.112 269.259C568.112 270.296 567.38 271.556 566.486 272.065C565.591 272.573 564.859 272.166 564.859 271.129Z" fill="white"/>
<path d="M564.859 250.414C564.859 249.377 565.591 248.116 566.486 247.608C567.38 247.1 568.112 247.506 568.112 248.543C568.112 249.58 567.38 250.84 566.486 251.349C565.591 251.857 564.859 251.45 564.859 250.414Z" fill="white"/>
<path d="M564.859 229.718C564.859 228.681 565.591 227.421 566.486 226.913C567.38 226.405 568.112 226.811 568.112 227.848C568.112 228.885 567.38 230.145 566.486 230.653C565.591 231.162 564.859 230.755 564.859 229.718Z" fill="white"/>
<path d="M653.355 403.474C653.355 402.437 654.087 401.177 654.982 400.669C655.876 400.16 656.608 400.567 656.608 401.604C656.608 402.641 655.876 403.901 654.982 404.409C654.087 404.917 653.355 404.511 653.355 403.474Z" fill="white"/>
<path d="M653.355 382.758C653.355 381.722 654.087 380.461 654.982 379.953C655.876 379.445 656.608 379.851 656.608 380.888C656.608 381.925 655.876 383.185 654.982 383.694C654.087 384.202 653.355 383.795 653.355 382.758Z" fill="white"/>
<path d="M653.355 362.063C653.355 361.026 654.087 359.766 654.982 359.258C655.876 358.749 656.608 359.156 656.608 360.193C656.608 361.23 655.876 362.49 654.982 362.998C654.087 363.506 653.355 363.1 653.355 362.063Z" fill="white"/>
<path d="M653.355 341.367C653.355 340.331 654.087 339.07 654.982 338.562C655.876 338.054 656.608 338.46 656.608 339.497C656.608 340.534 655.876 341.794 654.982 342.303C654.087 342.811 653.355 342.404 653.355 341.367Z" fill="white"/>
<path d="M653.355 320.652C653.355 319.615 654.087 318.355 654.982 317.846C655.876 317.338 656.608 317.745 656.608 318.782C656.608 319.818 655.876 321.079 654.982 321.587C654.087 322.095 653.355 321.689 653.355 320.652Z" fill="white"/>
<path d="M653.355 299.957C653.355 298.92 654.087 297.659 654.982 297.151C655.876 296.643 656.608 297.05 656.608 298.086C656.608 299.123 655.876 300.384 654.982 300.892C654.087 301.4 653.355 300.993 653.355 299.957Z" fill="white"/>
<path d="M653.355 279.241C653.355 278.204 654.087 276.944 654.982 276.435C655.876 275.927 656.608 276.334 656.608 277.371C656.608 278.407 655.876 279.668 654.982 280.176C654.087 280.684 653.355 280.278 653.355 279.241Z" fill="white"/>
<path d="M956.789 356.533C956.789 355.496 957.521 354.235 958.415 353.727C959.31 353.219 960.042 353.626 960.042 354.662C960.042 355.699 959.31 356.96 958.415 357.468C957.521 357.976 956.789 357.569 956.789 356.533Z" fill="white"/>
<path d="M956.789 335.817C956.789 334.781 957.521 333.52 958.415 333.012C959.31 332.504 960.042 332.91 960.042 333.947C960.042 334.984 959.31 336.244 958.415 336.753C957.521 337.261 956.789 336.854 956.789 335.817Z" fill="white"/>
<path d="M956.789 315.122C956.789 314.085 957.521 312.825 958.415 312.317C959.31 311.808 960.042 312.215 960.042 313.252C960.042 314.289 959.31 315.549 958.415 316.057C957.521 316.565 956.789 316.159 956.789 315.122Z" fill="white"/>
<path d="M956.789 294.406C956.789 293.37 957.521 292.109 958.415 291.601C959.31 291.093 960.042 291.499 960.042 292.536C960.042 293.573 959.31 294.833 958.415 295.341C957.521 295.85 956.789 295.443 956.789 294.406Z" fill="white"/>
<path d="M956.789 273.711C956.789 272.674 957.521 271.414 958.415 270.905C959.31 270.397 960.042 270.804 960.042 271.84C960.042 272.877 959.31 274.138 958.415 274.646C957.521 275.154 956.789 274.748 956.789 273.711Z" fill="white"/>
<path d="M956.789 252.995C956.789 251.958 957.521 250.698 958.415 250.19C959.31 249.681 960.042 250.088 960.042 251.125C960.042 252.162 959.31 253.422 958.415 253.93C957.521 254.439 956.789 254.032 956.789 252.995Z" fill="white"/>
<path d="M956.789 232.3C956.789 231.263 957.521 230.003 958.415 229.494C959.31 228.986 960.042 229.393 960.042 230.43C960.042 231.466 959.31 232.727 958.415 233.235C957.521 233.743 956.789 233.337 956.789 232.3Z" fill="white"/>
<path d="M933.477 321.566C933.477 320.53 934.208 319.269 935.103 318.761C935.997 318.253 936.729 318.659 936.729 319.696C936.729 320.733 935.997 321.993 935.103 322.502C934.208 323.01 933.477 322.603 933.477 321.566Z" fill="white"/>
<path d="M933.477 300.871C933.477 299.834 934.208 298.574 935.103 298.066C935.997 297.557 936.729 297.964 936.729 299.001C936.729 300.038 935.997 301.298 935.103 301.806C934.208 302.315 933.477 301.908 933.477 300.871Z" fill="white"/>
<path d="M933.477 280.155C933.477 279.119 934.208 277.858 935.103 277.35C935.997 276.842 936.729 277.248 936.729 278.285C936.729 279.322 935.997 280.582 935.103 281.09C934.208 281.599 933.477 281.192 933.477 280.155Z" fill="white"/>
<path d="M933.477 259.46C933.477 258.423 934.208 257.163 935.103 256.654C935.997 256.146 936.729 256.553 936.729 257.59C936.729 258.626 935.997 259.887 935.103 260.395C934.208 260.903 933.477 260.497 933.477 259.46Z" fill="white"/>
<path d="M933.477 238.744C933.477 237.707 934.208 236.447 935.103 235.939C935.997 235.431 936.729 235.837 936.729 236.874C936.729 237.911 935.997 239.171 935.103 239.679C934.208 240.188 933.477 239.781 933.477 238.744Z" fill="white"/>
<path d="M933.477 218.049C933.477 217.012 934.208 215.752 935.103 215.244C935.997 214.735 936.729 215.142 936.729 216.179C936.729 217.216 935.997 218.476 935.103 218.984C934.208 219.492 933.477 219.086 933.477 218.049Z" fill="white"/>
<path d="M933.477 197.354C933.477 196.317 934.208 195.056 935.103 194.548C935.997 194.04 936.729 194.447 936.729 195.483C936.729 196.52 935.997 197.781 935.103 198.289C934.208 198.797 933.477 198.391 933.477 197.354Z" fill="white"/>
<path d="M674.195 346.653C674.195 345.616 674.927 344.356 675.822 343.847C676.716 343.339 677.448 343.746 677.448 344.783C677.448 345.819 676.716 347.08 675.822 347.588C674.927 348.096 674.195 347.69 674.195 346.653Z" fill="white"/>
<path d="M674.195 325.938C674.195 324.901 674.927 323.64 675.822 323.132C676.716 322.624 677.448 323.03 677.448 324.067C677.448 325.104 676.716 326.365 675.822 326.873C674.927 327.381 674.195 326.974 674.195 325.938Z" fill="white"/>
<path d="M674.195 305.242C674.195 304.205 674.927 302.945 675.822 302.437C676.716 301.929 677.448 302.335 677.448 303.372C677.448 304.409 676.716 305.669 675.822 306.177C674.927 306.686 674.195 306.279 674.195 305.242Z" fill="white"/>
<path d="M674.195 284.547C674.195 283.51 674.927 282.249 675.822 281.741C676.716 281.233 677.448 281.64 677.448 282.676C677.448 283.713 676.716 284.974 675.822 285.482C674.927 285.99 674.195 285.584 674.195 284.547Z" fill="white"/>
<path d="M674.195 263.831C674.195 262.794 674.927 261.534 675.822 261.026C676.716 260.517 677.448 260.924 677.448 261.961C677.448 262.998 676.716 264.258 675.822 264.766C674.927 265.274 674.195 264.868 674.195 263.831Z" fill="white"/>
<path d="M674.195 243.136C674.195 242.099 674.927 240.839 675.822 240.33C676.716 239.822 677.448 240.229 677.448 241.266C677.448 242.302 676.716 243.563 675.822 244.071C674.927 244.579 674.195 244.173 674.195 243.136Z" fill="white"/>
<path d="M674.195 222.42C674.195 221.383 674.927 220.123 675.822 219.615C676.716 219.106 677.448 219.513 677.448 220.55C677.448 221.587 676.716 222.847 675.822 223.355C674.927 223.864 674.195 223.457 674.195 222.42Z" fill="white"/>
<path d="M607.306 664.951C614.93 669.342 614.97 676.478 607.388 680.889L488.704 749.867C481.142 754.258 468.822 754.258 461.199 749.867L341.743 680.889C334.12 676.498 334.079 669.362 341.662 664.951L460.345 595.973C467.907 591.582 480.227 591.582 487.851 595.973L607.306 664.951Z" fill="#1A1885"/>
<path d="M599.397 663.121L487.85 727.931C480.735 732.058 469.167 732.058 462.011 727.931L349.752 663.121C346.154 661.048 344.345 658.303 344.365 655.579L344.324 667.817C344.324 670.541 346.113 673.265 349.712 675.359L461.971 740.17C469.126 744.296 480.694 744.296 487.809 740.17L599.357 675.359C602.894 673.306 604.663 670.623 604.663 667.919L604.703 655.681C604.703 658.364 602.935 661.068 599.397 663.121Z" fill="url(#paint0_linear_563_22684)"/>
<path d="M599.32 648.138C606.476 652.265 606.516 658.974 599.401 663.101L487.853 727.911C480.738 732.038 469.171 732.038 462.015 727.911L349.756 663.101C342.6 658.974 342.559 652.265 349.674 648.138L461.222 583.328C468.337 579.201 479.905 579.201 487.061 583.328L599.32 648.138Z" fill="#6498FF"/>
<path d="M544.961 700.609C544.961 699.775 545.55 698.759 546.282 698.332C547.014 697.905 547.604 698.25 547.604 699.084C547.604 699.917 547.014 700.934 546.282 701.361C545.55 701.788 544.961 701.442 544.961 700.609Z" fill="#C0966A"/>
<path d="M558.238 692.944C558.238 692.111 558.828 691.095 559.56 690.668C560.292 690.241 560.881 690.586 560.881 691.42C560.881 692.253 560.292 693.27 559.56 693.697C558.828 694.124 558.238 693.778 558.238 692.944Z" fill="#C0966A"/>
<path d="M572.141 684.914C572.141 684.081 572.73 683.064 573.462 682.637C574.194 682.211 574.783 682.556 574.783 683.39C574.783 684.223 574.194 685.24 573.462 685.667C572.73 686.093 572.141 685.748 572.141 684.914Z" fill="#C0966A"/>
<path d="M585.395 677.25C585.395 676.417 585.984 675.4 586.716 674.973C587.448 674.546 588.037 674.892 588.037 675.725C588.037 676.559 587.448 677.575 586.716 678.002C585.984 678.429 585.395 678.084 585.395 677.25Z" fill="#C0966A"/>
<path d="M599.405 630.269L487.858 695.079C480.742 699.206 469.175 699.206 462.019 695.079L349.76 630.269C346.162 628.195 344.352 625.451 344.373 622.726L344.332 634.965C344.332 637.689 346.121 640.413 349.719 642.507L461.978 707.317C469.134 711.444 480.702 711.444 487.817 707.317L599.364 642.507C602.902 640.454 604.67 637.77 604.67 635.066L604.711 622.828C604.711 625.512 602.942 628.215 599.405 630.269Z" fill="url(#paint1_linear_563_22684)"/>
<path d="M599.324 615.306C606.479 619.433 606.52 626.142 599.405 630.269L487.857 695.079C480.742 699.206 469.175 699.206 462.019 695.079L349.76 630.269C342.604 626.142 342.563 619.433 349.678 615.306L461.226 550.496C468.341 546.369 479.909 546.369 487.064 550.496L599.324 615.306Z" fill="#6498FF"/>
<path d="M599.405 597.416L487.858 662.227C480.742 666.353 469.175 666.353 462.019 662.227L349.76 597.416C346.162 595.343 344.352 592.598 344.373 589.874L344.332 602.112C344.332 604.837 346.121 607.561 349.719 609.655L461.978 674.465C469.134 678.592 480.702 678.592 487.817 674.465L599.364 609.655C602.902 607.601 604.67 604.918 604.67 602.214L604.711 589.976C604.711 592.659 602.942 595.363 599.405 597.416Z" fill="url(#paint2_linear_563_22684)"/>
<path d="M599.324 582.454C606.479 586.581 606.52 593.289 599.405 597.416L487.857 662.227C480.742 666.353 469.175 666.353 462.019 662.227L349.76 597.416C342.604 593.289 342.563 586.581 349.678 582.454L461.226 517.644C468.341 513.517 479.909 513.517 487.064 517.644L599.324 582.454Z" fill="#6498FF"/>
<path d="M599.405 564.584L487.858 629.395C480.742 633.521 469.175 633.521 462.019 629.395L349.76 564.584C346.162 562.511 344.352 559.766 344.373 557.042L344.332 569.281C344.332 572.005 346.121 574.729 349.719 576.823L461.978 641.633C469.134 645.76 480.702 645.76 487.817 641.633L599.364 576.823C602.902 574.769 604.67 572.086 604.67 569.382L604.711 557.144C604.711 559.827 602.942 562.531 599.405 564.584Z" fill="url(#paint3_linear_563_22684)"/>
<path d="M599.324 549.622C606.479 553.749 606.52 560.458 599.405 564.584L487.857 629.395C480.742 633.521 469.175 633.521 462.019 629.395L349.76 564.584C342.604 560.458 342.563 553.749 349.678 549.622L461.226 484.812C468.341 480.685 479.909 480.685 487.064 484.812L599.324 549.622Z" fill="#6498FF"/>
<path d="M416.489 611.586C415.879 611.22 415.371 610.285 415.371 609.451C415.371 608.618 415.879 608.252 416.489 608.598C417.099 608.963 417.607 609.899 417.607 610.732C417.607 611.566 417.099 611.932 416.489 611.586Z" fill="#6399FF"/>
<path d="M427.591 617.99C426.981 617.624 426.473 616.689 426.473 615.855C426.473 615.022 426.981 614.656 427.591 615.001C428.201 615.367 428.709 616.302 428.709 617.136C428.709 617.969 428.201 618.335 427.591 617.99Z" fill="#6399FF"/>
<path d="M438.688 624.414C438.079 624.048 437.57 623.113 437.57 622.279C437.57 621.446 438.079 621.08 438.688 621.425C439.298 621.791 439.807 622.747 439.807 623.56C439.807 624.373 439.298 624.759 438.688 624.414Z" fill="#6399FF"/>
<path d="M449.794 630.818C449.184 630.452 448.676 629.496 448.676 628.683C448.676 627.87 449.184 627.484 449.794 627.829C450.404 628.195 450.912 629.13 450.912 629.964C450.912 630.797 450.404 631.163 449.794 630.818Z" fill="#6399FF"/>
<path d="M538.008 606.016C538.008 605.182 538.597 604.166 539.329 603.739C540.061 603.312 540.651 603.657 540.651 604.491C540.651 605.324 540.061 606.341 539.329 606.768C538.597 607.195 538.008 606.849 538.008 606.016Z" fill="#C0966A"/>
<path d="M551.285 598.372C551.285 597.538 551.875 596.522 552.607 596.095C553.338 595.668 553.928 596.014 553.928 596.847C553.928 597.681 553.338 598.697 552.607 599.124C551.875 599.551 551.285 599.205 551.285 598.372Z" fill="#C0966A"/>
<path d="M565.188 590.342C565.188 589.508 565.777 588.492 566.509 588.065C567.241 587.638 567.83 587.983 567.83 588.817C567.83 589.65 567.241 590.667 566.509 591.094C565.777 591.521 565.188 591.175 565.188 590.342Z" fill="#C0966A"/>
<path d="M578.441 582.678C578.441 581.844 579.031 580.828 579.763 580.401C580.495 579.974 581.084 580.319 581.084 581.153C581.084 581.986 580.495 583.003 579.763 583.43C579.031 583.857 578.441 583.511 578.441 582.678Z" fill="#C0966A"/>
<path d="M416.474 643.463C415.864 643.097 415.355 642.161 415.355 641.328C415.355 640.494 415.864 640.129 416.474 640.474C417.083 640.84 417.592 641.795 417.592 642.609C417.592 643.422 417.083 643.808 416.474 643.463Z" fill="#B5E9FE"/>
<path d="M427.575 649.887C426.965 649.521 426.457 648.565 426.457 647.752C426.457 646.939 426.965 646.553 427.575 646.898C428.185 647.264 428.693 648.199 428.693 649.033C428.693 649.866 428.185 650.232 427.575 649.887Z" fill="#B5E9FE"/>
<path d="M438.673 656.29C438.063 655.924 437.555 654.989 437.555 654.156C437.555 653.322 438.063 652.956 438.673 653.302C439.283 653.668 439.791 654.603 439.791 655.437C439.791 656.27 439.283 656.636 438.673 656.29Z" fill="#B5E9FE"/>
<path d="M449.778 662.694C449.168 662.328 448.66 661.393 448.66 660.56C448.66 659.726 449.168 659.36 449.778 659.706C450.388 660.072 450.896 661.027 450.896 661.841C450.896 662.654 450.388 663.04 449.778 662.694Z" fill="#B5E9FE"/>
<path d="M878.646 833.685C886.27 838.076 886.31 845.212 878.727 849.623L760.044 918.601C752.482 922.992 740.162 922.992 732.539 918.601L613.083 849.623C605.459 845.232 605.419 838.096 613.002 833.685L731.685 764.707C739.247 760.316 751.567 760.316 759.19 764.707L878.646 833.685Z" fill="#1A1885"/>
<path d="M870.737 830.9L759.19 895.71C752.074 899.837 740.507 899.837 733.351 895.71L621.092 830.9C617.494 828.826 615.684 826.082 615.705 823.357L615.664 835.596C615.664 838.32 617.453 841.044 621.051 843.138L733.31 907.948C740.466 912.075 752.034 912.075 759.149 907.948L870.697 843.138C874.234 841.085 876.003 838.401 876.003 835.697L876.043 823.459C876.043 826.143 874.274 828.846 870.737 830.9Z" fill="url(#paint4_linear_563_22684)"/>
<path d="M870.659 815.917C877.815 820.044 877.856 826.752 870.741 830.879L759.193 895.689C752.078 899.816 740.511 899.816 733.355 895.689L621.096 830.879C613.94 826.752 613.899 820.044 621.014 815.917L732.562 751.107C739.677 746.98 751.244 746.98 758.4 751.107L870.659 815.917Z" fill="#A4D4ED"/>
<path d="M680.821 873.327C680.211 872.961 679.703 872.006 679.703 871.192C679.703 870.379 680.211 869.993 680.821 870.339C681.431 870.704 681.939 871.64 681.939 872.473C681.939 873.307 681.431 873.673 680.821 873.327Z" fill="#B5E9FE"/>
<path d="M691.895 879.731C691.286 879.365 690.777 878.43 690.777 877.596C690.777 876.763 691.286 876.397 691.895 876.742C692.505 877.108 693.014 878.043 693.014 878.877C693.014 879.71 692.505 880.076 691.895 879.731Z" fill="#B5E9FE"/>
<path d="M703.001 886.134C702.391 885.768 701.883 884.833 701.883 884C701.883 883.166 702.391 882.8 703.001 883.146C703.611 883.512 704.119 884.467 704.119 885.281C704.119 886.094 703.611 886.48 703.001 886.134Z" fill="#B5E9FE"/>
<path d="M714.095 892.538C713.485 892.172 712.977 891.217 712.977 890.404C712.977 889.591 713.485 889.204 714.095 889.55C714.705 889.895 715.213 890.851 715.213 891.684C715.213 892.518 714.705 892.884 714.095 892.538Z" fill="#B5E9FE"/>
<path d="M824.125 865.378C824.125 864.545 824.715 863.528 825.446 863.101C826.178 862.674 826.768 863.02 826.768 863.853C826.768 864.687 826.178 865.703 825.446 866.13C824.715 866.557 824.125 866.212 824.125 865.378Z" fill="#C0966A"/>
<path d="M837.402 857.734C837.402 856.901 837.992 855.884 838.724 855.457C839.456 855.03 840.045 855.376 840.045 856.21C840.045 857.043 839.456 858.06 838.724 858.486C837.992 858.913 837.402 858.568 837.402 857.734Z" fill="#C0966A"/>
<path d="M851.305 849.704C851.305 848.871 851.894 847.854 852.626 847.427C853.358 847 853.948 847.346 853.948 848.179C853.948 849.013 853.358 850.029 852.626 850.456C851.894 850.883 851.305 850.538 851.305 849.704Z" fill="#C0966A"/>
<path d="M864.559 842.04C864.559 841.206 865.148 840.19 865.88 839.763C866.612 839.336 867.201 839.682 867.201 840.515C867.201 841.349 866.612 842.365 865.88 842.792C865.148 843.219 864.559 842.873 864.559 842.04Z" fill="#C0966A"/>
<path d="M1146.81 662.918C1154.43 667.309 1154.47 674.445 1146.89 678.856L1028.2 747.834C1020.64 752.225 1008.32 752.225 1000.7 747.834L881.243 678.856C873.62 674.465 873.579 667.329 881.162 662.918L999.845 593.94C1007.41 589.549 1019.73 589.549 1027.35 593.94L1146.81 662.918Z" fill="#1A1885"/>
<path d="M1138.9 660.621L1027.35 725.431C1020.23 729.558 1008.67 729.558 1001.51 725.431L889.252 660.621C885.654 658.547 883.845 655.803 883.865 653.078L883.824 665.317C883.824 668.041 885.613 670.765 889.212 672.859L1001.47 737.669C1008.63 741.796 1020.19 741.796 1027.31 737.669L1138.86 672.859C1142.39 670.806 1144.16 668.122 1144.16 665.418L1144.2 653.18C1144.2 655.864 1142.43 658.567 1138.9 660.621Z" fill="url(#paint5_linear_563_22684)"/>
<path d="M1138.82 645.638C1145.98 649.765 1146.02 656.473 1138.9 660.6L1027.35 725.41C1020.24 729.537 1008.67 729.537 1001.51 725.41L889.256 660.6C882.1 656.473 882.059 649.765 889.174 645.638L1000.72 580.828C1007.84 576.701 1019.4 576.701 1026.56 580.828L1138.82 645.638Z" fill="#6498FF"/>
<path d="M1088.4 697.742C1088.4 696.909 1088.99 695.892 1089.72 695.465C1090.45 695.038 1091.04 695.384 1091.04 696.217C1091.04 697.051 1090.45 698.067 1089.72 698.494C1088.99 698.921 1088.4 698.576 1088.4 697.742Z" fill="#C0966A"/>
<path d="M1101.68 690.078C1101.68 689.244 1102.27 688.228 1103 687.801C1103.73 687.374 1104.32 687.72 1104.32 688.553C1104.32 689.387 1103.73 690.403 1103 690.83C1102.27 691.257 1101.68 690.911 1101.68 690.078Z" fill="#C0966A"/>
<path d="M1115.58 682.068C1115.58 681.235 1116.17 680.218 1116.9 679.791C1117.63 679.364 1118.22 679.71 1118.22 680.543C1118.22 681.377 1117.63 682.393 1116.9 682.82C1116.17 683.247 1115.58 682.902 1115.58 682.068Z" fill="#C0966A"/>
<path d="M1128.83 674.404C1128.83 673.57 1129.42 672.554 1130.15 672.127C1130.89 671.7 1131.47 672.046 1131.47 672.879C1131.47 673.713 1130.89 674.729 1130.15 675.156C1129.42 675.583 1128.83 675.237 1128.83 674.404Z" fill="#C0966A"/>
<path d="M1138.91 627.768L1027.36 692.578C1020.24 696.705 1008.67 696.705 1001.52 692.578L889.26 627.768C885.662 625.695 883.852 622.95 883.873 620.226L883.832 632.464C883.832 635.188 885.621 637.913 889.219 640.006L1001.48 704.817C1008.63 708.943 1020.2 708.943 1027.32 704.817L1138.86 640.006C1142.4 637.953 1144.17 635.27 1144.17 632.566L1144.21 620.328C1144.21 623.011 1142.44 625.715 1138.91 627.768Z" fill="url(#paint6_linear_563_22684)"/>
<path d="M1138.82 612.806C1145.98 616.933 1146.02 623.641 1138.9 627.768L1027.36 692.578C1020.24 696.705 1008.67 696.705 1001.52 692.578L889.26 627.768C882.104 623.641 882.063 616.933 889.178 612.806L1000.73 547.996C1007.84 543.869 1019.41 543.869 1026.56 547.996L1138.82 612.806Z" fill="#6498FF"/>
<path d="M1138.91 594.936L1027.36 659.746C1020.24 663.873 1008.67 663.873 1001.52 659.746L889.26 594.936C885.662 592.863 883.852 590.118 883.873 587.394L883.832 599.632C883.832 602.356 885.621 605.081 889.219 607.175L1001.48 671.985C1008.63 676.112 1020.2 676.112 1027.32 671.985L1138.86 607.175C1142.4 605.121 1144.17 602.438 1144.17 599.734L1144.21 587.496C1144.21 590.179 1142.44 592.883 1138.91 594.936Z" fill="url(#paint7_linear_563_22684)"/>
<path d="M1138.82 579.953C1145.98 584.08 1146.02 590.789 1138.9 594.916L1027.36 659.726C1020.24 663.853 1008.67 663.853 1001.52 659.726L889.26 594.916C882.104 590.789 882.063 584.08 889.178 579.953L1000.73 515.143C1007.84 511.016 1019.41 511.016 1026.56 515.143L1138.82 579.953Z" fill="#6498FF"/>
<path d="M1037.72 660.458C1037.72 659.624 1038.31 658.608 1039.04 658.181C1039.78 657.754 1040.37 658.1 1040.37 658.933C1040.37 659.767 1039.78 660.783 1039.04 661.21C1038.31 661.637 1037.72 661.291 1037.72 660.458Z" fill="#C0966A"/>
<path d="M1050.98 652.794C1050.98 651.96 1051.57 650.944 1052.3 650.517C1053.03 650.09 1053.62 650.435 1053.62 651.269C1053.62 652.102 1053.03 653.119 1052.3 653.546C1051.57 653.973 1050.98 653.627 1050.98 652.794Z" fill="#C0966A"/>
<path d="M1064.88 644.763C1064.88 643.93 1065.47 642.913 1066.2 642.487C1066.94 642.06 1067.53 642.405 1067.53 643.239C1067.53 644.072 1066.94 645.089 1066.2 645.516C1065.47 645.943 1064.88 645.597 1064.88 644.763Z" fill="#C0966A"/>
<path d="M1078.15 637.099C1078.15 636.266 1078.74 635.249 1079.47 634.822C1080.21 634.395 1080.8 634.741 1080.8 635.575C1080.8 636.408 1080.21 637.425 1079.47 637.851C1078.74 638.278 1078.15 637.933 1078.15 637.099Z" fill="#C0966A"/>
<path d="M1138.91 594.936L1027.36 659.746C1020.24 663.873 1008.67 663.873 1001.52 659.746L889.26 594.936C885.662 592.863 883.852 590.118 883.873 587.394L883.832 599.632C883.832 602.356 885.621 605.081 889.219 607.175L1001.48 671.985C1008.63 676.112 1020.2 676.112 1027.32 671.985L1138.86 607.175C1142.4 605.121 1144.17 602.438 1144.17 599.734L1144.21 587.496C1144.21 590.179 1142.44 592.883 1138.91 594.936Z" fill="url(#paint8_linear_563_22684)"/>
<path d="M1138.82 579.953C1145.98 584.08 1146.02 590.789 1138.9 594.916L1027.36 659.726C1020.24 663.853 1008.67 663.853 1001.52 659.726L889.26 594.916C882.104 590.789 882.063 584.08 889.178 579.953L1000.73 515.143C1007.84 511.016 1019.41 511.016 1026.56 515.143L1138.82 579.953Z" fill="#6498FF"/>
<path opacity="0.72" d="M1038.85 585.951C1040.27 586.764 1040.27 588.106 1038.85 588.919L1016.67 601.808C1015.25 602.621 1012.95 602.621 1011.53 601.808L989.204 588.919C987.781 588.106 987.781 586.764 989.204 585.951L1011.38 573.062C1012.81 572.249 1015.1 572.249 1016.53 573.062L1038.85 585.951Z" fill="url(#paint9_linear_563_22684)"/>
<path d="M1037.72 660.458C1037.72 659.624 1038.31 658.608 1039.04 658.181C1039.78 657.754 1040.37 658.1 1040.37 658.933C1040.37 659.767 1039.78 660.783 1039.04 661.21C1038.31 661.637 1037.72 661.291 1037.72 660.458Z" fill="#C0966A"/>
<path d="M1050.98 652.794C1050.98 651.96 1051.57 650.944 1052.3 650.517C1053.03 650.09 1053.62 650.435 1053.62 651.269C1053.62 652.102 1053.03 653.119 1052.3 653.546C1051.57 653.973 1050.98 653.627 1050.98 652.794Z" fill="#C0966A"/>
<path d="M1064.88 644.763C1064.88 643.93 1065.47 642.913 1066.2 642.487C1066.94 642.06 1067.53 642.405 1067.53 643.239C1067.53 644.072 1066.94 645.089 1066.2 645.516C1065.47 645.943 1064.88 645.597 1064.88 644.763Z" fill="#C0966A"/>
<path d="M1078.15 637.099C1078.15 636.266 1078.74 635.249 1079.47 634.822C1080.21 634.395 1080.8 634.741 1080.8 635.575C1080.8 636.408 1080.21 637.425 1079.47 637.851C1078.74 638.278 1078.15 637.933 1078.15 637.099Z" fill="#C0966A"/>
<path d="M944.493 634.985C943.883 634.619 943.375 633.684 943.375 632.851C943.375 632.017 943.883 631.651 944.493 631.997C945.103 632.363 945.611 633.298 945.611 634.131C945.611 634.965 945.103 635.331 944.493 634.985Z" fill="#6399FF"/>
<path d="M955.595 641.409C954.985 641.043 954.477 640.108 954.477 639.275C954.477 638.441 954.985 638.075 955.595 638.421C956.205 638.787 956.713 639.742 956.713 640.555C956.713 641.369 956.205 641.755 955.595 641.409Z" fill="#6399FF"/>
<path d="M966.692 647.813C966.082 647.447 965.574 646.492 965.574 645.678C965.574 644.865 966.082 644.479 966.692 644.825C967.302 645.191 967.81 646.146 967.81 646.959C967.81 647.772 967.302 648.159 966.692 647.813Z" fill="#6399FF"/>
<path d="M977.798 654.217C977.188 653.851 976.68 652.895 976.68 652.082C976.68 651.269 977.188 650.883 977.798 651.228C978.408 651.594 978.916 652.529 978.916 653.363C978.916 654.197 978.408 654.562 977.798 654.217Z" fill="#6399FF"/>
<path d="M944.493 666.963C943.883 666.597 943.375 665.662 943.375 664.829C943.375 663.995 943.883 663.629 944.493 663.975C945.103 664.341 945.611 665.276 945.611 666.11C945.611 666.943 945.103 667.309 944.493 666.963Z" fill="#6399FF"/>
<path d="M955.595 673.367C954.985 673.001 954.477 672.066 954.477 671.233C954.477 670.399 954.985 670.033 955.595 670.379C956.205 670.745 956.713 671.7 956.713 672.513C956.713 673.327 956.205 673.713 955.595 673.367Z" fill="#6399FF"/>
<path d="M966.692 679.771C966.082 679.405 965.574 678.449 965.574 677.636C965.574 676.823 966.082 676.437 966.692 676.783C967.302 677.148 967.81 678.084 967.81 678.917C967.81 679.751 967.302 680.116 966.692 679.771Z" fill="#6399FF"/>
<path d="M977.798 686.175C977.188 685.809 976.68 684.874 976.68 684.04C976.68 683.207 977.188 682.841 977.798 683.186C978.408 683.552 978.916 684.487 978.916 685.321C978.916 686.154 978.408 686.52 977.798 686.175Z" fill="#6399FF"/>
<path d="M878.646 504.531C886.27 508.923 886.31 516.058 878.727 520.47L760.044 589.447C752.482 593.839 740.162 593.839 732.539 589.447L613.083 520.47C605.459 516.079 605.419 508.943 613.002 504.531L731.685 435.554C739.247 431.163 751.567 431.163 759.19 435.554L878.646 504.531Z" fill="#1A1885"/>
<path d="M870.737 503.291L759.19 568.102C752.074 572.228 740.507 572.228 733.351 568.102L621.092 503.291C617.494 501.218 615.684 498.473 615.705 495.749L615.664 507.987C615.664 510.712 617.453 513.436 621.051 515.53L733.31 580.34C740.466 584.467 752.034 584.467 759.149 580.34L870.697 515.53C874.234 513.476 876.003 510.793 876.003 508.089L876.043 495.851C876.043 498.534 874.274 501.238 870.737 503.291Z" fill="url(#paint10_linear_563_22684)"/>
<path d="M870.659 488.329C877.815 492.456 877.856 499.164 870.741 503.291L759.193 568.102C752.078 572.228 740.511 572.228 733.355 568.102L621.096 503.291C613.94 499.164 613.899 492.456 621.014 488.329L732.562 423.519C739.677 419.392 751.244 419.392 758.4 423.519L870.659 488.329Z" fill="#6498FF"/>
<path d="M870.745 470.459L759.197 535.269C752.082 539.396 740.515 539.396 733.359 535.269L621.1 470.459C617.502 468.386 615.692 465.641 615.713 462.917L615.672 475.155C615.672 477.879 617.461 480.604 621.059 482.698L733.318 547.508C740.474 551.635 752.042 551.635 759.157 547.508L870.704 482.698C874.242 480.644 876.01 477.961 876.01 475.257L876.051 463.019C876.051 465.702 874.282 468.406 870.745 470.459Z" fill="url(#paint11_linear_563_22684)"/>
<path d="M870.663 455.476C877.819 459.603 877.86 466.312 870.745 470.439L759.197 535.249C752.082 539.376 740.514 539.376 733.359 535.249L621.099 470.439C613.944 466.312 613.903 459.603 621.018 455.476L732.566 390.666C739.681 386.539 751.248 386.539 758.404 390.666L870.663 455.476Z" fill="#6498FF"/>
<path d="M807.694 680.004C807.748 660.648 780.113 644.879 745.97 644.784C711.827 644.688 684.105 660.302 684.051 679.659C683.997 699.015 711.632 714.784 745.775 714.879C779.918 714.974 807.64 699.36 807.694 680.004Z" fill="#1A1885"/>
<path d="M784.44 639.336C805.908 651.473 806.03 671.111 784.684 683.248C763.359 695.384 728.677 695.384 707.209 683.248C685.741 671.111 685.619 651.473 706.965 639.336C728.29 627.199 762.972 627.199 784.44 639.336Z" fill="#FFB06D"/>
<path d="M794.523 632.953L794.401 674.384C794.422 667.126 789.644 659.848 780.069 654.319C761.02 643.321 730.16 643.321 711.254 654.319C701.862 659.787 697.145 666.943 697.125 674.12L697.247 632.688C697.247 625.512 701.963 618.356 711.376 612.887C730.282 601.91 761.142 601.91 780.191 612.887C789.766 618.417 794.544 625.695 794.523 632.953Z" fill="url(#paint12_linear_563_22684)"/>
<path d="M800.622 632.973L800.501 674.404C800.48 682.475 795.195 690.525 784.623 696.685C763.338 709.045 728.595 709.045 707.188 696.685C696.414 690.464 691.027 682.271 691.047 674.099L691.169 632.668C691.149 640.84 696.536 649.033 707.31 655.254C728.717 667.614 763.481 667.614 784.745 655.254C795.317 649.114 800.602 641.043 800.622 632.973Z" fill="url(#paint13_linear_563_22684)"/>
<path d="M784.483 610.387C805.889 622.747 806.011 642.873 784.727 655.254C763.442 667.614 728.699 667.614 707.292 655.254C685.885 642.894 685.763 622.768 707.048 610.387C728.333 598.027 763.076 598.027 784.483 610.387ZM711.581 652.753C730.61 663.731 761.47 663.731 780.396 652.753C799.303 641.776 799.201 623.886 780.173 612.908C761.124 601.91 730.264 601.91 711.358 612.908C692.431 623.906 692.533 641.775 711.581 652.774" fill="#FFD0A8"/>
<path opacity="0.72" d="M787.558 451.085L787.09 615.083C787.09 621.182 783.065 627.28 775.035 631.956C758.893 641.348 732.628 641.348 716.364 631.956C708.192 627.24 704.105 621.039 704.105 614.839L704.573 450.841C704.573 457.022 708.639 463.222 716.811 467.959C733.075 477.351 759.341 477.351 775.482 467.959C783.492 463.303 787.517 457.205 787.537 451.085H787.558Z" fill="url(#paint14_linear_563_22684)"/>
<path opacity="0.4" d="M775.297 433.989C791.56 443.381 791.642 458.587 775.5 467.959C759.358 477.351 733.093 477.351 716.829 467.959C700.566 458.567 700.484 443.36 716.646 433.968C732.788 424.596 759.054 424.596 775.317 433.968L775.297 433.989Z" fill="url(#paint15_linear_563_22684)"/>
<path opacity="0.4" d="M775.297 415.549C791.56 424.942 791.642 440.148 775.5 449.52C759.358 458.912 733.093 458.912 716.829 449.52C700.566 440.128 700.484 424.921 716.646 415.529C732.788 406.157 759.054 406.157 775.317 415.529L775.297 415.549Z" fill="url(#paint16_linear_563_22684)"/>
<path opacity="0.4" d="M775.297 197.049C791.56 206.441 791.642 221.648 775.5 231.02C759.358 240.412 733.093 240.412 716.829 231.02C700.566 221.627 700.484 206.421 716.646 197.029C732.788 187.657 759.054 187.657 775.317 197.029L775.297 197.049Z" fill="url(#paint17_linear_563_22684)"/>
<path opacity="0.4" d="M759.75 250.963C767.353 255.354 767.394 262.469 759.852 266.86C752.31 271.251 740.01 271.251 732.427 266.86C724.844 262.469 724.783 255.354 732.346 250.963C739.888 246.572 752.167 246.572 759.77 250.963H759.75Z" fill="url(#paint18_linear_563_22684)"/>
<path d="M745.545 397.538L766.159 385.564L766.098 409.613L745.484 421.587L745.545 397.538Z" fill="url(#paint19_linear_563_22684)"/>
<path d="M724.625 385.462L745.239 373.468L766.158 385.564L745.544 397.538L724.625 385.462Z" fill="url(#paint20_linear_563_22684)"/>
<path d="M745.547 397.538L745.486 421.588L724.547 409.512L724.628 385.462L745.547 397.538Z" fill="url(#paint21_linear_563_22684)"/>
<path d="M878.281 251.938L898.895 239.944L898.834 288.064L878.199 300.038L878.281 251.938Z" fill="url(#paint22_linear_563_22684)"/>
<path d="M857.355 239.842L877.97 227.868L898.888 239.944L878.274 251.938L857.355 239.842Z" fill="url(#paint23_linear_563_22684)"/>
<path d="M878.278 251.938L878.196 300.038L857.277 287.962L857.359 239.842L878.278 251.938Z" fill="url(#paint24_linear_563_22684)"/>
<path d="M821.957 308.597L867.78 281.965" stroke="#C0966A" stroke-width="2" stroke-linecap="round" stroke-linejoin="round"/>
<path d="M811.604 314.96L832.238 302.965L832.157 327.015L811.543 339.009L811.604 314.96Z" fill="url(#paint25_linear_563_22684)"/>
<path d="M790.684 302.864L811.298 290.89L832.237 302.965L811.603 314.96L790.684 302.864Z" fill="url(#paint26_linear_563_22684)"/>
<path d="M811.601 314.96L811.54 339.009L790.621 326.913L790.682 302.864L811.601 314.96Z" fill="url(#paint27_linear_563_22684)"/>
<path d="M754.25 348.056L800.073 321.425" stroke="#C0966A" stroke-width="2" stroke-linecap="round" stroke-linejoin="round"/>
<path d="M746.014 350.801L766.628 338.827L766.567 362.876L745.953 374.85L746.014 350.801Z" fill="url(#paint28_linear_563_22684)"/>
<path d="M725.09 338.725L745.704 326.751L766.623 338.827L746.009 350.801L725.09 338.725Z" fill="url(#paint29_linear_563_22684)"/>
<path d="M746.011 350.801L745.95 374.85L725.031 362.775L725.092 338.725L746.011 350.801Z" fill="url(#paint30_linear_563_22684)"/>
<path d="M746.336 338.826V324.169" stroke="#C0966A" stroke-width="2" stroke-linecap="round" stroke-linejoin="round"/>
<path d="M746.518 303.819L767.132 291.825L767.071 315.875L746.457 327.869L746.518 303.819Z" fill="url(#paint31_linear_563_22684)"/>
<path d="M725.594 291.723L746.208 279.749L767.127 291.825L746.513 303.819L725.594 291.723Z" fill="url(#paint32_linear_563_22684)"/>
<path d="M746.515 303.819L746.454 327.869L725.535 315.773L725.596 291.723L746.515 303.819Z" fill="url(#paint33_linear_563_22684)"/>
<path d="M855.283 438.827L1008.85 350.15C1010.34 349.296 1011.68 349.215 1012.65 349.763L1015.52 351.431C1014.54 350.861 1013.2 350.943 1011.72 351.817L858.15 440.494C855.182 442.201 852.803 446.328 852.823 449.723L853.128 557.388C853.128 559.075 853.738 560.254 854.694 560.823L851.827 559.156C850.872 558.608 850.262 557.408 850.262 555.721L849.957 448.056C849.957 444.661 852.336 440.534 855.283 438.827Z" fill="white"/>
<path d="M858.147 440.494C855.179 442.201 852.8 446.328 852.82 449.723L853.125 557.388C853.125 560.783 855.524 562.145 858.492 560.437L1012.06 471.781C1015.03 470.073 1017.41 465.926 1017.39 462.551L1017.08 354.887C1017.08 351.492 1014.68 350.129 1011.72 351.837L858.147 440.494Z" fill="url(#paint34_linear_563_22684)"/>
<path d="M882.447 447.426C880.454 448.585 878.828 451.39 878.828 453.688V474.098L886.065 469.91V449.5C886.065 447.182 884.439 446.247 882.447 447.406V447.426Z" fill="#C0966A"/>
<path d="M878.828 489.447C878.828 491.764 880.454 492.699 882.447 491.541C884.439 490.382 886.065 487.576 886.065 485.279V469.93L878.828 474.118V489.467V489.447Z" fill="#2B2B2B"/>
<path d="M895.619 442.791C893.626 443.949 892 446.755 892 449.052V466.495L899.237 461.006V443.563C899.237 442.567 897.611 441.632 895.619 442.77V442.791Z" fill="#1A1885"/>
<path d="M892 470.805C892 473.122 893.626 474.057 895.619 472.899C897.611 471.74 899.237 468.934 899.237 466.637V462.348L892 466.536V470.825V470.805Z" fill="#1A1885"/>
<path d="M905.16 470.215C905.16 472.533 906.787 473.468 908.779 472.309C910.771 471.15 912.397 468.345 912.397 466.048V454.744L905.16 458.932V470.235V470.215Z" fill="#2B2B2B"/>
<path d="M908.779 428.194C906.787 429.353 905.16 432.159 905.16 434.456V458.912L912.397 454.724V430.268C912.397 427.95 910.771 427.015 908.779 428.174V428.194Z" fill="#C0966A"/>
<path d="M918.324 474.464C918.324 476.782 919.951 479.018 921.943 477.859C923.935 476.7 925.561 473.895 925.561 471.598V447.141L918.324 451.329V474.484V474.464Z" fill="#1A1885"/>
<path d="M921.943 433.744C919.951 434.903 918.324 437.708 918.324 440.006V451.309L925.561 447.121V434.517C925.561 432.199 923.935 432.585 921.943 433.724V433.744Z" fill="#1A1885"/>
<path d="M931.48 462.022C931.48 464.34 933.107 465.275 935.099 464.116C937.091 462.958 938.718 460.152 938.718 457.855V439.558L931.48 443.746V462.043V462.022Z" fill="#2B2B2B"/>
<path d="M935.099 420.002C933.107 421.16 931.48 423.966 931.48 426.263V443.706L938.718 439.518V422.075C938.718 419.758 937.091 418.822 935.099 419.981V420.002Z" fill="#C0966A"/>
<path d="M944.633 449.438C944.633 451.756 946.259 452.691 948.251 451.532C950.244 450.374 951.87 446.267 951.87 443.97V431.955L944.633 436.143V449.459V449.438Z" fill="#1A1885"/>
<path d="M948.251 407.418C946.259 408.576 944.633 411.382 944.633 412.378V434.801L951.87 431.935V409.512C951.87 407.194 950.244 406.259 948.251 407.418Z" fill="#1A1885"/>
<path d="M957.809 434.192C957.809 436.489 959.435 437.444 961.427 436.285C963.42 435.127 965.046 432.321 965.046 430.024V424.332L957.809 428.52V434.212V434.192Z" fill="#2B2B2B"/>
<path d="M961.427 394.529C959.435 395.688 957.809 398.493 957.809 400.79V428.499L965.046 424.311V396.603C965.046 394.285 963.42 393.35 961.427 394.509V394.529Z" fill="#C0966A"/>
<path d="M974.576 392.211C972.583 393.37 970.957 396.175 970.957 398.473V420.896L978.194 415.407V392.984C978.194 391.988 976.568 391.052 974.576 392.191V392.211Z" fill="#1A1885"/>
<path d="M970.957 434.232C970.957 436.55 972.583 437.485 974.576 436.326C976.568 435.167 978.194 431.061 978.194 428.763V416.749L970.957 420.937V434.252V434.232Z" fill="#1A1885"/>
<path d="M991.366 397.842C991.366 395.525 989.74 394.59 987.748 395.748C985.755 396.907 984.129 399.713 984.129 402.01V413.313L991.366 409.125V397.822V397.842Z" fill="#C0966A"/>
<path d="M984.129 413.313V424.616C984.129 426.934 985.755 427.869 987.748 426.71C989.74 425.551 991.366 422.746 991.366 420.449V409.146L984.129 413.333V413.313Z" fill="#2B2B2B"/>
<path d="M997.556 407.438L872.652 479.567V476.659L997.556 404.551V407.438Z" fill="url(#paint35_linear_563_22684)"/>
<path d="M872.652 523.031L882.451 511.22L912.396 497.01L923.72 482.474L961.431 474.464L987.758 445.515" stroke="#1A1885" stroke-width="0.68" stroke-miterlimit="10"/>
<path d="M921.949 483.511C921.949 482.433 922.701 481.112 923.657 480.563C924.592 480.014 925.365 480.461 925.365 481.539C925.365 482.616 924.612 483.938 923.657 484.487C922.722 485.036 921.949 484.588 921.949 483.511Z" fill="#1A1885"/>
<path d="M872.652 534.09L892.006 502.763L899.243 502.011L908.778 506.829L918.333 492.476L936.995 486.845L957.812 464.767L972.673 470.927L978.203 459.38L997.556 439.843" stroke="#C0966A" stroke-width="0.68" stroke-miterlimit="10"/>
<path d="M890.297 503.739C890.297 502.661 891.049 501.34 892.005 500.791C892.94 500.242 893.712 500.689 893.712 501.767C893.712 502.844 892.94 504.165 892.005 504.714C891.069 505.263 890.297 504.816 890.297 503.739Z" fill="#1A1885"/>
<path d="M956.105 465.743C956.105 464.665 956.878 463.344 957.813 462.795C958.748 462.246 959.521 462.693 959.521 463.771C959.521 464.848 958.769 466.17 957.813 466.719C956.858 467.268 956.105 466.82 956.105 465.743Z" fill="#1A1885"/>
<path d="M970.965 471.903C970.965 470.826 971.717 469.504 972.673 468.955C973.608 468.406 974.38 468.854 974.38 469.931C974.38 471.008 973.608 472.33 972.673 472.879C971.737 473.428 970.965 472.98 970.965 471.903Z" fill="#1A1885"/>
<path d="M907.066 507.804C907.066 506.727 907.819 505.405 908.774 504.857C909.73 504.308 910.482 504.755 910.482 505.832C910.482 506.91 909.709 508.231 908.774 508.78C907.839 509.329 907.066 508.882 907.066 507.804Z" fill="#1A1885"/>
<path d="M631.885 416.058L478.316 327.381C476.832 326.527 475.491 326.446 474.515 326.995L471.648 328.662C472.624 328.092 473.966 328.174 475.45 329.028L629.018 417.705C631.987 419.412 634.365 423.539 634.345 426.934L634.04 534.599C634.04 536.286 633.43 537.465 632.474 538.034L635.341 536.367C636.296 535.818 636.906 534.619 636.906 532.932L637.211 425.267C637.211 421.872 634.833 417.745 631.885 416.038V416.058Z" fill="white"/>
<path d="M629.018 417.725C631.986 419.433 634.364 423.559 634.344 426.954L634.039 534.619C634.039 538.014 631.64 539.376 628.672 537.668L475.104 449.012C472.136 447.304 469.757 443.157 469.777 439.782L470.082 332.118C470.082 328.723 472.481 327.361 475.449 329.068L629.018 417.725Z" fill="url(#paint36_linear_563_22684)"/>
<path d="M598.263 449.235C591.433 447.731 585.436 449.052 578.829 448.382C572.221 447.711 564.212 444.356 558.235 436.387C552.421 428.662 549.331 417.704 542.561 412.033C534.632 405.405 527.903 411.016 519.853 407.621C515.787 405.893 511.721 401.99 507.838 398.168C503.976 394.326 497.633 386.214 493.526 383.449C492.632 382.84 491.778 382.372 490.965 381.965V436.59L613.145 507.134V456.534C608.164 452.874 603.061 450.313 598.243 449.256L598.263 449.235Z" fill="url(#paint37_linear_563_22684)"/>
<path d="M588.646 465.905C580.535 462.734 573.765 465.438 565.776 462.978C555.834 459.908 545.568 449.378 536.481 438.766C527.394 428.154 518.367 416.566 508.223 409.471C502.287 405.324 495.842 403.331 491.004 404.368V436.59L613.184 507.133V485.95C605.235 478.001 597.001 469.178 588.666 465.905H588.646Z" fill="url(#paint38_linear_563_22684)"/>
<path d="M506.738 370.093V445.678" stroke="#C0966A" stroke-width="0.34" stroke-linecap="round" stroke-linejoin="round"/>
<path d="M524.613 380.42V456.005" stroke="#C0966A" stroke-width="0.34" stroke-linecap="round" stroke-linejoin="round"/>
<path d="M542.5 390.747V466.332" stroke="#C0966A" stroke-width="0.34" stroke-linecap="round" stroke-linejoin="round"/>
<path d="M560.367 401.075V476.639" stroke="#C0966A" stroke-width="0.34" stroke-linecap="round" stroke-linejoin="round"/>
<path d="M578.258 411.402V486.967" stroke="#C0966A" stroke-width="0.34" stroke-linecap="round" stroke-linejoin="round"/>
<path d="M596.125 421.709V497.294" stroke="#C0966A" stroke-width="0.34" stroke-linecap="round" stroke-linejoin="round"/>
<path d="M454.652 455.537V461.352" stroke="#FAB08B" stroke-width="2.98" stroke-linecap="round" stroke-linejoin="round"/>
<path d="M449.369 463.568C449.369 463.568 440.16 470.48 438.899 477.92C437.781 484.486 440.871 488.532 447.925 496.095" stroke="white" stroke-width="2.98" stroke-linecap="round" stroke-linejoin="round"/>
<path d="M456.263 501.502C455.654 502.417 454.454 502.722 453.458 502.254L449.555 500.404C447.928 499.632 447.379 497.599 448.396 496.115C449.412 494.631 451.506 494.407 452.807 495.647L455.938 498.615C456.731 499.367 456.873 500.587 456.243 501.502H456.263Z" fill="#FAB08B"/>
<path d="M457.069 573.936C457.069 573.936 459.123 575.969 460.465 575.623C462.477 575.115 470.141 572.94 472.642 569.87C475.142 566.78 472.337 565.885 470.06 566.434C463.656 568 461.461 568.894 459.224 569.504C457.13 570.073 456.195 572.655 457.049 573.936H457.069Z" fill="#070D30"/>
<path d="M446.155 567.898C446.155 567.898 448.209 569.931 449.55 569.585C451.563 569.077 459.227 566.902 461.728 563.832C464.228 560.762 461.423 559.848 459.146 560.396C452.742 561.962 450.547 562.856 448.31 563.466C446.216 564.035 445.281 566.617 446.135 567.898H446.155Z" fill="#070D30"/>
<path d="M460.203 570.358L461.951 559.502" stroke="#D6E9F4" stroke-width="2.09" stroke-linecap="round" stroke-linejoin="round"/>
<path d="M449.676 563.893L452.278 553.2" stroke="#D6E9F4" stroke-width="2.09" stroke-linecap="round" stroke-linejoin="round"/>
<path d="M446.618 499.327C450.908 499.266 460.158 501.197 465.037 501.868C466.805 505.243 467.476 508.862 466.683 512.379C468.228 520.714 468.107 526.02 468.188 535.168C468.249 544.316 466.805 556.514 464.935 566.069C464.59 567.858 463.675 568.284 462.191 568.325C461.601 568.345 460.686 568.203 460.158 568.061C458.816 567.695 457.779 566.922 458.125 565.235C460.036 556.005 461.743 543.97 461.418 535.229C461.093 526.487 460.686 522.055 458.857 514.29C457.698 514.005 456.559 513.639 455.36 513.11C456.376 519.717 456.132 522.604 456.397 530.146C456.661 537.689 456.661 552.245 454.689 560.498C454.242 562.409 453.185 563.141 451.477 563.304C451.192 563.324 450.786 563.304 450.542 563.243C448.102 562.43 447.757 560.458 448.102 558.547C449.647 550.13 450.095 538.583 449.688 530.451C449.281 522.34 442.695 499.368 446.659 499.327H446.618Z" fill="#1A1885"/>
<path d="M443.532 500.059C443.491 501.848 444.366 503.535 445.87 504.531C449.367 506.89 455.181 509.959 458.393 510.407C466.159 511.504 466.789 506.422 466.789 506.422C466.789 506.422 466.565 475.989 465.467 469.687C464.878 466.332 462.276 464.625 459.531 462.815C459.186 462.592 458.86 462.368 458.535 462.185C456.462 460.904 454.083 460.132 451.664 460.152C451.013 460.152 450.424 460.213 449.875 460.335C447.13 460.843 445.931 462.49 445.016 463.832C444.447 464.665 444.122 465.641 444.101 466.658L443.512 500.059H443.532Z" fill="#C0966A"/>
<path d="M464.842 446.552C466.611 451.594 465.046 457.367 461.142 458.729C460.573 458.932 459.984 459.034 459.374 459.014C456.589 459.014 453.681 456.981 451.831 453.992C451.364 453.22 450.957 452.386 450.652 451.492C450.612 451.37 450.571 451.248 450.53 451.126C450.449 450.862 450.368 450.597 450.307 450.333C449.534 447.162 450.225 444.275 451.933 442.364C452.482 441.754 453.133 441.246 453.864 440.86C454.149 440.717 454.454 440.575 454.759 440.473C457.788 439.416 461.102 440.595 463.257 443.523C463.887 444.377 464.436 445.393 464.822 446.531L464.842 446.552Z" fill="#FAB08B"/>
<path d="M449.877 443.197C453.008 434.375 461.323 438.217 463.417 442.445C463.823 443.258 463.457 443.909 462.644 444.336C462.441 445.19 462.055 446.206 461.343 446.592C459.981 447.345 463.051 449.235 462.197 450.089C461.343 450.943 460.306 449.134 459.229 450.089C457.806 451.35 461.099 453.301 459.432 454.155C457.765 455.029 456.484 458.851 452.581 458.018C448.678 457.184 447.58 452.183 447.214 449.073C446.848 445.962 448.739 443.848 449.898 443.177L449.877 443.197Z" fill="#070D30"/>
<path d="M462.174 451.065C462.662 452.285 462.336 453.708 461.401 454.074C460.466 454.46 459.246 453.626 458.758 452.427C458.27 451.227 458.697 450.069 459.633 449.703C460.568 449.316 461.665 449.865 462.153 451.065H462.174Z" fill="#FAB08B"/>
<path d="M462.844 470.947C462.844 470.947 472.134 477.737 479.636 476.782C486.243 475.928 489.211 471.801 494.395 462.856" stroke="white" stroke-width="2.98" stroke-linecap="round" stroke-linejoin="round"/>
<path d="M497.099 453.301C498.136 453.627 498.807 454.663 498.644 455.761L498.014 460.03C497.75 461.819 495.961 462.937 494.253 462.389C492.546 461.86 491.712 459.908 492.505 458.302L494.436 454.44C494.924 453.464 496.063 452.976 497.099 453.301Z" fill="#FAB08B"/>
<path d="M1048.41 445.576V451.39" stroke="#FAB08B" stroke-width="2.98" stroke-linecap="round" stroke-linejoin="round"/>
<path d="M1053.7 453.626C1053.7 453.626 1062.9 460.538 1064.17 467.979C1065.28 474.545 1062.19 478.591 1055.14 486.154" stroke="white" stroke-width="2.98" stroke-linecap="round" stroke-linejoin="round"/>
<path d="M1046.8 491.541C1047.41 492.456 1048.61 492.761 1049.61 492.293L1053.51 490.443C1055.14 489.671 1055.69 487.638 1054.67 486.154C1053.65 484.67 1051.56 484.446 1050.26 485.686L1047.13 488.654C1046.34 489.406 1046.19 490.626 1046.82 491.541H1046.8Z" fill="#FAB08B"/>
<path d="M1045.99 563.995C1045.99 563.995 1043.94 566.028 1042.6 565.682C1040.59 565.174 1032.92 562.999 1030.42 559.929C1027.92 556.839 1030.73 555.945 1033 556.493C1039.41 558.059 1041.6 558.953 1043.84 559.563C1045.93 560.132 1046.87 562.714 1046.01 563.995H1045.99Z" fill="#070D30"/>
<path d="M1056.9 557.937C1056.9 557.937 1054.84 559.97 1053.5 559.624C1051.49 559.116 1043.82 556.941 1041.32 553.871C1038.82 550.781 1041.63 549.886 1043.91 550.435C1050.31 552.001 1052.51 552.895 1054.74 553.505C1056.84 554.074 1057.77 556.656 1056.92 557.937H1056.9Z" fill="#070D30"/>
<path d="M1042.87 560.397L1041.12 549.541" stroke="#D6E9F4" stroke-width="2.09" stroke-linecap="round" stroke-linejoin="round"/>
<path d="M1053.4 553.932L1050.8 543.239" stroke="#D6E9F4" stroke-width="2.09" stroke-linecap="round" stroke-linejoin="round"/>
<path d="M1056.44 489.366C1052.15 489.305 1042.9 491.236 1038.02 491.907C1036.24 495.282 1035.58 498.9 1036.38 502.417C1034.83 510.752 1034.95 516.058 1034.87 525.206C1034.81 534.355 1036.26 546.552 1038.13 556.107C1038.47 557.896 1039.41 558.323 1040.87 558.364C1041.46 558.384 1042.37 558.242 1042.9 558.099C1044.24 557.733 1045.28 556.961 1044.94 555.274C1043.03 546.044 1041.32 534.009 1041.64 525.267C1041.97 516.526 1042.37 512.094 1044.2 504.328C1045.36 504.044 1046.5 503.678 1047.7 503.149C1046.68 509.756 1046.93 512.643 1046.66 520.185C1046.4 527.727 1046.4 542.283 1048.37 550.537C1048.82 552.448 1049.88 553.18 1051.58 553.342C1051.87 553.363 1052.27 553.342 1052.52 553.281C1054.96 552.468 1055.3 550.496 1054.96 548.585C1053.41 540.169 1052.97 528.622 1053.37 520.49C1053.78 512.379 1060.37 489.406 1056.4 489.366H1056.44Z" fill="#1A1885"/>
<path d="M1059.53 490.097C1059.57 491.886 1058.7 493.574 1057.19 494.57C1053.7 496.928 1047.88 499.998 1044.67 500.445C1036.9 501.543 1036.27 496.461 1036.27 496.461C1036.27 496.461 1036.5 466.027 1037.59 459.725C1038.18 456.371 1040.79 454.663 1043.53 452.854C1043.88 452.63 1044.2 452.407 1044.53 452.224C1046.6 450.943 1048.96 450.17 1051.4 450.191C1052.05 450.191 1052.64 450.252 1053.19 450.374C1055.93 450.882 1057.13 452.529 1058.05 453.87C1058.62 454.704 1058.94 455.68 1058.96 456.696L1059.55 490.097H1059.53Z" fill="#C0966A"/>
<path d="M1038.23 436.611C1036.46 441.652 1038.02 447.426 1041.93 448.788C1042.5 448.991 1043.09 449.093 1043.7 449.073C1046.48 449.073 1049.39 447.04 1051.24 444.051C1051.71 443.279 1052.11 442.445 1052.42 441.551C1052.46 441.429 1052.5 441.307 1052.54 441.185C1052.62 440.92 1052.7 440.656 1052.76 440.392C1053.54 437.221 1052.84 434.334 1051.14 432.423C1050.59 431.813 1049.94 431.305 1049.21 430.918C1048.92 430.776 1048.62 430.634 1048.31 430.532C1045.28 429.475 1041.97 430.654 1039.81 433.582C1039.18 434.435 1038.63 435.452 1038.25 436.59L1038.23 436.611Z" fill="#FAB08B"/>
<path d="M1053.19 433.236C1050.06 424.413 1041.74 428.255 1039.65 432.484C1039.24 433.297 1039.61 433.948 1040.42 434.375C1040.62 435.228 1041.01 436.245 1041.72 436.631C1043.08 437.383 1040.01 439.274 1040.87 440.128C1041.72 440.982 1042.76 439.172 1043.84 440.128C1045.26 441.388 1041.96 443.34 1043.63 444.194C1045.3 445.068 1046.58 448.89 1050.48 448.056C1054.39 447.223 1055.48 442.222 1055.85 439.111C1056.22 436.001 1054.33 433.887 1053.17 433.216L1053.19 433.236Z" fill="#070D30"/>
<path d="M1040.89 441.104C1040.41 442.323 1040.73 443.746 1041.67 444.112C1042.6 444.499 1043.82 443.665 1044.31 442.466C1044.8 441.246 1044.37 440.107 1043.43 439.741C1042.5 439.355 1041.4 439.904 1040.91 441.104H1040.89Z" fill="#FAB08B"/>
<path d="M1031.15 498.453C1030.28 497.803 1029.99 496.603 1030.5 495.627L1032.49 491.805C1033.33 490.22 1035.38 489.752 1036.82 490.809C1038.27 491.887 1038.41 494.001 1037.11 495.241L1034.02 498.25C1033.23 499.022 1032.01 499.104 1031.13 498.433L1031.15 498.453Z" fill="#FAB08B"/>
<path d="M1041.68 458.343C1041.68 458.343 1031.25 463.202 1028.47 470.216C1026.03 476.416 1028.2 481.01 1033.55 489.874" stroke="white" stroke-width="2.98" stroke-linecap="round" stroke-linejoin="round"/>
<path d="M513.552 524.17L522.232 519.128L522.212 529.252L513.531 534.294L513.552 524.17Z" fill="#070D30"/>
<path d="M504.742 519.067L513.423 514.025L522.225 519.128L513.545 524.17L504.742 519.067Z" fill="#1A1885"/>
<path d="M513.546 524.17L513.526 534.294L504.703 529.211L504.744 519.067L513.546 524.17Z" fill="#111057"/>
<path d="M533.36 536.814L542.041 531.773L542.021 541.897L533.34 546.938L533.36 536.814Z" fill="#070D30"/>
<path d="M524.559 531.732L533.239 526.69L542.042 531.773L533.361 536.814L524.559 531.732Z" fill="#1A1885"/>
<path d="M533.363 536.814L533.342 546.938L524.52 541.856L524.56 531.732L533.363 536.814Z" fill="#111057"/>
<path d="M554.88 548.545L563.56 543.503L563.54 553.627L554.859 558.669L554.88 548.545Z" fill="#070D30"/>
<path d="M546.07 543.462L554.751 538.4L563.554 543.503L554.873 548.545L546.07 543.462Z" fill="#1A1885"/>
<path d="M554.875 548.545L554.854 558.669L546.031 553.587L546.072 543.463L554.875 548.545Z" fill="#111057"/>
<path d="M996.609 564.117L939.707 597.172C936.76 598.88 931.982 598.88 929.035 597.172L907.221 584.588C905.737 583.735 904.985 582.596 904.985 581.478V589.325C904.964 590.443 905.696 591.582 907.201 592.435L929.014 605.019C931.982 606.727 936.76 606.727 939.707 605.019L996.609 571.964C998.073 571.11 998.805 570.012 998.805 568.894V561.047C998.805 562.165 998.094 563.263 996.63 564.117H996.609Z" fill="url(#paint39_linear_563_22684)"/>
<path d="M996.575 557.936C999.543 559.644 999.543 562.429 996.616 564.117L939.714 597.172C936.766 598.88 931.989 598.88 929.041 597.172L907.227 584.588C904.259 582.881 904.259 580.116 907.187 578.408L964.089 545.353C967.016 543.645 971.814 543.645 974.762 545.353L996.575 557.936Z" fill="url(#paint40_linear_563_22684)"/>
<path d="M932.558 587.353C931.684 586.845 931.684 586.011 932.558 585.503C933.432 584.995 934.876 584.995 935.77 585.503C936.644 586.011 936.644 586.845 935.77 587.353C934.896 587.861 933.452 587.861 932.558 587.353Z" fill="#1A1885"/>
<path d="M942.538 581.579C941.664 581.071 941.664 580.238 942.538 579.729C943.413 579.221 944.856 579.221 945.751 579.729C946.645 580.238 946.625 581.071 945.751 581.579C944.876 582.088 943.433 582.088 942.538 581.579Z" fill="#FFB06D"/>
<path d="M952.523 575.826C951.649 575.318 951.649 574.485 952.523 573.976C953.397 573.468 954.84 573.468 955.735 573.976C956.609 574.485 956.609 575.318 955.735 575.826C954.861 576.335 953.417 576.335 952.523 575.826Z" fill="#1A1885"/>
<path d="M962.48 570.073C961.606 569.565 961.606 568.731 962.48 568.223C963.354 567.715 964.797 567.715 965.692 568.223C966.566 568.731 966.566 569.565 965.692 570.073C964.818 570.581 963.374 570.581 962.48 570.073Z" fill="#C0966A"/>
<path d="M819.4 417.542L834.993 408.495L834.932 448.666L819.359 457.713L819.4 417.542Z" fill="#323657"/>
<path d="M803.582 408.414L819.175 399.347L834.991 408.495L819.398 417.542L803.582 408.414Z" fill="#B5E9FE"/>
<path d="M819.4 417.542L819.359 457.713L803.543 448.585L803.584 408.414L819.4 417.542Z" fill="#82D7FA"/>
<path d="M721.633 746.248C721.633 746.248 731.31 752.489 738.73 751.086C745.276 749.846 748 745.557 752.635 736.307" stroke="white" stroke-width="2.98" stroke-linecap="round" stroke-linejoin="round"/>
<path d="M754.79 726.61C755.847 726.874 756.559 727.87 756.478 728.968L756.112 733.257C755.949 735.046 754.241 736.287 752.493 735.839C750.745 735.412 749.809 733.522 750.521 731.855L752.208 727.89C752.635 726.874 753.733 726.325 754.81 726.61H754.79Z" fill="#FAB08B"/>
<path d="M707.745 851.452C707.745 851.452 706.77 854.177 707.684 855.254C709.067 856.86 714.576 862.817 718.601 863.752C722.626 864.687 722.22 861.759 720.654 859.95C716.284 854.847 714.474 853.262 712.889 851.513C711.405 849.867 708.558 850.131 707.745 851.452Z" fill="#070D30"/>
<path d="M710.812 851.961L711.28 840.983" stroke="#D6E9F4" stroke-width="2.13" stroke-linecap="round" stroke-linejoin="round"/>
<path d="M721.063 847.59C721.063 847.59 720.027 850.517 721.246 850.965C723.076 851.615 730.496 853.12 734.765 852.957C738.547 852.815 736.737 849.725 734.684 848.993C728.89 846.899 726.735 846.452 724.662 845.781C722.73 845.15 721.104 846.167 721.043 847.59H721.063Z" fill="#070D30"/>
<path d="M723.465 845.577L723.851 834.599" stroke="#D6E9F4" stroke-width="2.13" stroke-linecap="round" stroke-linejoin="round"/>
<path d="M727.304 790.464C727.528 790.119 727.65 789.793 727.67 789.468C727.853 786.561 728.646 780.726 726.674 780.137C724.702 779.547 706.954 785.382 706.954 785.382C706.954 785.382 704.616 791.989 707.462 796.116L709.068 818.824L707.544 848.261C707.483 849.623 708.52 850.802 709.902 850.863L712.057 850.965C713.419 851.026 714.598 849.989 714.659 848.606L716.204 818.742V797.153C717.221 796.665 718.42 796.096 719.64 795.506L721.754 813.132L720.25 842.02C720.168 843.687 721.449 845.11 723.116 845.191L724.194 845.252C725.861 845.333 727.284 844.053 727.365 842.386L728.89 813.05L727.304 790.424V790.464Z" fill="#1A1885"/>
<path d="M727.976 781.642C728.016 783.431 727.142 785.118 725.638 786.114C722.141 788.472 716.327 791.542 713.115 791.989C705.349 793.087 704.719 788.005 704.719 788.005C704.719 788.005 704.942 757.572 706.04 751.269C706.63 747.915 709.232 746.207 711.976 744.398C712.322 744.174 712.647 743.951 712.972 743.768C715.046 742.487 717.425 741.715 719.844 741.735C720.494 741.735 721.084 741.796 721.633 741.918C724.377 742.426 725.577 744.073 726.492 745.415C727.061 746.248 727.386 747.224 727.406 748.24L727.996 781.642H727.976Z" fill="#C0966A"/>
<path d="M713.141 742.487C713.141 742.487 713.141 741.775 716.597 741.389L716.861 744.865L713.405 744.418L713.141 742.487Z" fill="#98E1ED"/>
<path d="M716.855 737.12V742.934" stroke="#FAB08B" stroke-width="2.98" stroke-linecap="round" stroke-linejoin="round"/>
<path d="M713.138 742.487L712.812 745.557C712.812 745.557 714.175 748.586 714.927 749.663L718.057 745.272C718.057 745.272 716.269 744.987 713.138 742.467V742.487Z" fill="white"/>
<path d="M719.995 743.341C719.995 743.341 719.304 744.865 717.84 745.272L721.519 747.386C721.519 747.386 721.397 743.605 720.889 742.222C720.889 742.222 720.462 741.755 719.995 743.341Z" fill="white"/>
<path d="M813.768 814.006L834.382 802.011L834.321 826.061L813.707 838.056L813.768 814.006Z" fill="url(#paint41_linear_563_22684)"/>
<path d="M792.848 801.91L813.462 789.936L834.381 802.011L813.767 814.006L792.848 801.91Z" fill="url(#paint42_linear_563_22684)"/>
<path d="M813.77 814.006L813.709 838.055L792.77 825.959L792.851 801.91L813.77 814.006Z" fill="url(#paint43_linear_563_22684)"/>
<path d="M757.457 846.614L803.28 819.983" stroke="#C0966A" stroke-width="2" stroke-linecap="round" stroke-linejoin="round"/>
<path d="M747.12 852.957L767.734 840.983L767.653 865.033L747.039 877.007L747.12 852.957Z" fill="url(#paint44_linear_563_22684)"/>
<path d="M726.176 840.881L746.79 828.887L767.729 840.983L747.115 852.957L726.176 840.881Z" fill="url(#paint45_linear_563_22684)"/>
<path d="M747.117 852.957L747.036 877.007L726.117 864.931L726.178 840.881L747.117 852.957Z" fill="url(#paint46_linear_563_22684)"/>
<path d="M747.906 840.983V779.609" stroke="#C0966A" stroke-width="2" stroke-linecap="round" stroke-linejoin="round"/>
<path d="M748.088 759.238L768.702 747.244L768.641 771.294L748.027 783.288L748.088 759.238Z" fill="url(#paint47_linear_563_22684)"/>
<path d="M727.168 747.142L747.782 735.168L768.701 747.244L748.087 759.238L727.168 747.142Z" fill="url(#paint48_linear_563_22684)"/>
<path d="M748.09 759.238L748.029 783.288L727.09 771.192L727.171 747.142L748.09 759.238Z" fill="url(#paint49_linear_563_22684)"/>
<path d="M747.978 740.779L756.638 735.717L756.618 745.862L747.938 750.903L747.978 740.779Z" fill="#070D30"/>
<path d="M739.156 735.677L747.837 730.635L756.64 735.717L747.979 740.779L739.156 735.677Z" fill="#1A1885"/>
<path d="M747.98 740.78L747.939 750.904L739.137 745.801L739.157 735.677L747.98 740.78Z" fill="#111057"/>
<path d="M725.624 729.395C727.372 734.437 725.786 740.21 721.883 741.572C721.314 741.776 720.724 741.857 720.114 741.857C717.329 741.857 714.422 739.804 712.592 736.815C712.125 736.043 711.718 735.209 711.413 734.315C711.373 734.193 711.332 734.071 711.291 733.949C711.21 733.684 711.129 733.42 711.068 733.156C710.315 729.984 711.007 727.098 712.714 725.187C713.263 724.577 713.914 724.069 714.646 723.682C714.93 723.54 715.235 723.398 715.54 723.296C718.569 722.259 721.883 723.459 724.038 726.386C724.668 727.24 725.197 728.256 725.603 729.395H725.624Z" fill="#FAB08B"/>
<path d="M724.197 725.288C722.124 721.039 713.829 717.197 710.658 726C710.658 726 705.901 730.533 711.41 734.315C711.41 734.315 712.731 737.262 714.053 735.778C715.374 734.294 712.772 730.737 712.792 729.801C712.792 729.435 713.057 728.826 713.606 728.277C714.175 728.765 715.151 729.273 716.879 729.456C718.912 729.659 719.135 728.541 718.871 727.443C722.429 728.134 725.092 727.037 724.218 725.268L724.197 725.288Z" fill="#070D30"/>
<path d="M712.764 733.989C713.678 734.904 713.963 736.347 713.251 737.059C712.54 737.77 711.097 737.506 710.182 736.591C709.267 735.676 709.206 734.457 709.917 733.725C710.629 733.013 711.849 733.074 712.784 733.989H712.764Z" fill="#FAB08B"/>
<path d="M708.255 753.221C708.255 753.221 707.319 764.707 712.056 770.582C716.224 775.766 721.306 776.152 731.654 775.888" stroke="white" stroke-width="2.98" stroke-linecap="round" stroke-linejoin="round"/>
<path d="M741.216 773.205C741.48 774.262 740.931 775.36 739.935 775.807L735.971 777.514C734.324 778.226 732.434 777.291 731.986 775.542C731.539 773.794 732.779 772.086 734.568 771.924L738.858 771.538C739.955 771.436 740.952 772.147 741.216 773.225V773.205Z" fill="#FAB08B"/>
<defs>
<linearGradient id="paint0_linear_563_22684" x1="229.687" y1="699.429" x2="231.72" y2="699.429" gradientUnits="userSpaceOnUse">
<stop stop-color="#66D2FE"/>
<stop offset="0.34" stop-color="#51A7DD"/>
<stop offset="0.78" stop-color="#3973B7"/>
<stop offset="1" stop-color="#3060A8"/>
</linearGradient>
<linearGradient id="paint1_linear_563_22684" x1="229.694" y1="666.577" x2="231.727" y2="666.577" gradientUnits="userSpaceOnUse">
<stop stop-color="#66D2FE"/>
<stop offset="0.34" stop-color="#51A7DD"/>
<stop offset="0.78" stop-color="#3973B7"/>
<stop offset="1" stop-color="#3060A8"/>
</linearGradient>
<linearGradient id="paint2_linear_563_22684" x1="229.694" y1="633.745" x2="231.727" y2="633.745" gradientUnits="userSpaceOnUse">
<stop offset="0.479167" stop-color="#6498FF"/>
<stop offset="1" stop-color="#3060A8"/>
</linearGradient>
<linearGradient id="paint3_linear_563_22684" x1="229.694" y1="600.893" x2="231.727" y2="600.893" gradientUnits="userSpaceOnUse">
<stop stop-color="#66D2FE"/>
<stop offset="0.34" stop-color="#51A7DD"/>
<stop offset="0.78" stop-color="#3973B7"/>
<stop offset="1" stop-color="#3060A8"/>
</linearGradient>
<linearGradient id="paint4_linear_563_22684" x1="615.664" y1="867.208" x2="876.043" y2="867.208" gradientUnits="userSpaceOnUse">
<stop stop-color="#66D2FE"/>
<stop offset="0.34" stop-color="#51A7DD"/>
<stop offset="0.78" stop-color="#3973B7"/>
<stop offset="1" stop-color="#3060A8"/>
</linearGradient>
<linearGradient id="paint5_linear_563_22684" x1="769.187" y1="696.929" x2="771.22" y2="696.929" gradientUnits="userSpaceOnUse">
<stop stop-color="#66D2FE"/>
<stop offset="0.34" stop-color="#51A7DD"/>
<stop offset="0.78" stop-color="#3973B7"/>
<stop offset="1" stop-color="#3060A8"/>
</linearGradient>
<linearGradient id="paint6_linear_563_22684" x1="769.194" y1="664.076" x2="771.227" y2="664.076" gradientUnits="userSpaceOnUse">
<stop stop-color="#66D2FE"/>
<stop offset="0.34" stop-color="#51A7DD"/>
<stop offset="0.78" stop-color="#3973B7"/>
<stop offset="1" stop-color="#3060A8"/>
</linearGradient>
<linearGradient id="paint7_linear_563_22684" x1="883.832" y1="631.245" x2="1144.21" y2="631.245" gradientUnits="userSpaceOnUse">
<stop stop-color="#66D2FE"/>
<stop offset="0.34" stop-color="#51A7DD"/>
<stop offset="0.78" stop-color="#3973B7"/>
<stop offset="1" stop-color="#3060A8"/>
</linearGradient>
<linearGradient id="paint8_linear_563_22684" x1="769.194" y1="631.245" x2="771.227" y2="631.245" gradientUnits="userSpaceOnUse">
<stop stop-color="#66D2FE"/>
<stop offset="0.34" stop-color="#51A7DD"/>
<stop offset="0.78" stop-color="#3973B7"/>
<stop offset="1" stop-color="#3060A8"/>
</linearGradient>
<linearGradient id="paint9_linear_563_22684" x1="988.167" y1="587.435" x2="1039.93" y2="587.435" gradientUnits="userSpaceOnUse">
<stop stop-color="#FF5A72"/>
<stop offset="0.15" stop-color="#FF6871"/>
<stop offset="0.72" stop-color="#FF9C6E"/>
<stop offset="1" stop-color="#FFB06D"/>
</linearGradient>
<linearGradient id="paint10_linear_563_22684" x1="501.027" y1="539.6" x2="503.059" y2="539.6" gradientUnits="userSpaceOnUse">
<stop stop-color="#66D2FE"/>
<stop offset="0.34" stop-color="#51A7DD"/>
<stop offset="0.78" stop-color="#3973B7"/>
<stop offset="1" stop-color="#3060A8"/>
</linearGradient>
<linearGradient id="paint11_linear_563_22684" x1="501.034" y1="506.768" x2="503.067" y2="506.768" gradientUnits="userSpaceOnUse">
<stop stop-color="#66D2FE"/>
<stop offset="0.34" stop-color="#51A7DD"/>
<stop offset="0.78" stop-color="#3973B7"/>
<stop offset="1" stop-color="#3060A8"/>
</linearGradient>
<linearGradient id="paint12_linear_563_22684" x1="639.43" y1="560.743" x2="801.049" y2="694.896" gradientUnits="userSpaceOnUse">
<stop stop-color="#FFE62A"/>
<stop offset="1" stop-color="#F4617E"/>
</linearGradient>
<linearGradient id="paint13_linear_563_22684" x1="634.775" y1="566.353" x2="796.374" y2="700.527" gradientUnits="userSpaceOnUse">
<stop stop-color="#FFE62A"/>
<stop offset="1" stop-color="#F4617E"/>
</linearGradient>
<linearGradient id="paint14_linear_563_22684" x1="704.126" y1="544.926" x2="787.558" y2="544.926" gradientUnits="userSpaceOnUse">
<stop stop-color="#FF5A72"/>
<stop offset="0.15" stop-color="#FF6871"/>
<stop offset="0.72" stop-color="#FF9C6E"/>
<stop offset="1" stop-color="#FFB06D"/>
</linearGradient>
<linearGradient id="paint15_linear_563_22684" x1="704.591" y1="450.964" x2="787.555" y2="450.964" gradientUnits="userSpaceOnUse">
<stop stop-color="#FF5A72"/>
<stop offset="0.15" stop-color="#FF6871"/>
<stop offset="0.72" stop-color="#FF9C6E"/>
<stop offset="1" stop-color="#FFB06D"/>
</linearGradient>
<linearGradient id="paint16_linear_563_22684" x1="704.591" y1="432.545" x2="787.555" y2="432.545" gradientUnits="userSpaceOnUse">
<stop stop-color="#FF5A72"/>
<stop offset="0.15" stop-color="#FF6871"/>
<stop offset="0.72" stop-color="#FF9C6E"/>
<stop offset="1" stop-color="#FFB06D"/>
</linearGradient>
<linearGradient id="paint17_linear_563_22684" x1="704.591" y1="214.024" x2="787.555" y2="214.024" gradientUnits="userSpaceOnUse">
<stop stop-color="#FF5A72"/>
<stop offset="0.15" stop-color="#FF6871"/>
<stop offset="0.72" stop-color="#FF9C6E"/>
<stop offset="1" stop-color="#FFB06D"/>
</linearGradient>
<linearGradient id="paint18_linear_563_22684" x1="726.674" y1="258.911" x2="765.463" y2="258.911" gradientUnits="userSpaceOnUse">
<stop stop-color="#FF5A72"/>
<stop offset="0.15" stop-color="#FF6871"/>
<stop offset="0.72" stop-color="#FF9C6E"/>
<stop offset="1" stop-color="#FFB06D"/>
</linearGradient>
<linearGradient id="paint19_linear_563_22684" x1="628.488" y1="326.486" x2="816.536" y2="440.331" gradientUnits="userSpaceOnUse">
<stop stop-color="#FFE62A"/>
<stop offset="1" stop-color="#F42C53"/>
</linearGradient>
<linearGradient id="paint20_linear_563_22684" x1="633.692" y1="317.887" x2="821.739" y2="431.732" gradientUnits="userSpaceOnUse">
<stop stop-color="#FFE62A"/>
<stop offset="1" stop-color="#F4617E"/>
</linearGradient>
<linearGradient id="paint21_linear_563_22684" x1="622.94" y1="335.655" x2="810.988" y2="449.5" gradientUnits="userSpaceOnUse">
<stop stop-color="#FFB82A"/>
<stop offset="1" stop-color="#F4617E"/>
</linearGradient>
<linearGradient id="paint22_linear_563_22684" x1="795.967" y1="213.943" x2="1082.35" y2="387.332" gradientUnits="userSpaceOnUse">
<stop stop-color="#FFBC2A"/>
<stop offset="1" stop-color="#F4617E"/>
</linearGradient>
<linearGradient id="paint23_linear_563_22684" x1="832.96" y1="212.56" x2="1021.01" y2="326.405" gradientUnits="userSpaceOnUse">
<stop stop-color="#FFE62A"/>
<stop offset="1" stop-color="#F4617E"/>
</linearGradient>
<linearGradient id="paint24_linear_563_22684" x1="806.677" y1="232.951" x2="1058.82" y2="385.605" gradientUnits="userSpaceOnUse">
<stop stop-color="#FFD12A"/>
<stop offset="1" stop-color="#F4617E"/>
</linearGradient>
<linearGradient id="paint25_linear_563_22684" x1="694.547" y1="243.908" x2="882.594" y2="357.753" gradientUnits="userSpaceOnUse">
<stop stop-color="#FFE62A"/>
<stop offset="1" stop-color="#F42C53"/>
</linearGradient>
<linearGradient id="paint26_linear_563_22684" x1="699.75" y1="235.289" x2="887.797" y2="349.133" gradientUnits="userSpaceOnUse">
<stop stop-color="#FFE62A"/>
<stop offset="1" stop-color="#F4617E"/>
</linearGradient>
<linearGradient id="paint27_linear_563_22684" x1="688.995" y1="253.057" x2="877.041" y2="366.901" gradientUnits="userSpaceOnUse">
<stop stop-color="#FFB82A"/>
<stop offset="1" stop-color="#F4617E"/>
</linearGradient>
<linearGradient id="paint28_linear_563_22684" x1="695.516" y1="320.042" x2="883.563" y2="433.887" gradientUnits="userSpaceOnUse">
<stop stop-color="#FFBC2A"/>
<stop offset="1" stop-color="#F4617E"/>
</linearGradient>
<linearGradient id="paint29_linear_563_22684" x1="700.715" y1="311.443" x2="888.762" y2="425.288" gradientUnits="userSpaceOnUse">
<stop stop-color="#FFE62A"/>
<stop offset="1" stop-color="#F4617E"/>
</linearGradient>
<linearGradient id="paint30_linear_563_22684" x1="689.963" y1="329.211" x2="878.01" y2="443.055" gradientUnits="userSpaceOnUse">
<stop stop-color="#FFD12A"/>
<stop offset="1" stop-color="#F4617E"/>
</linearGradient>
<linearGradient id="paint31_linear_563_22684" x1="669.002" y1="256.696" x2="857.049" y2="370.54" gradientUnits="userSpaceOnUse">
<stop stop-color="#FFAD2A"/>
<stop offset="1" stop-color="#F4617E"/>
</linearGradient>
<linearGradient id="paint32_linear_563_22684" x1="674.201" y1="248.096" x2="862.248" y2="361.941" gradientUnits="userSpaceOnUse">
<stop stop-color="#FFE62A"/>
<stop offset="1" stop-color="#F4617E"/>
</linearGradient>
<linearGradient id="paint33_linear_563_22684" x1="663.449" y1="265.864" x2="851.496" y2="379.709" gradientUnits="userSpaceOnUse">
<stop stop-color="#FFCD2A"/>
<stop offset="1" stop-color="#F4617E"/>
</linearGradient>
<linearGradient id="paint34_linear_563_22684" x1="856.602" y1="422.279" x2="1131.5" y2="540.799" gradientUnits="userSpaceOnUse">
<stop stop-color="white"/>
<stop offset="0.23" stop-color="#CAD6E8"/>
<stop offset="0.6" stop-color="#7797C6"/>
<stop offset="0.87" stop-color="#436FB0"/>
<stop offset="1" stop-color="#3060A8"/>
</linearGradient>
<linearGradient id="paint35_linear_563_22684" x1="872.652" y1="442.059" x2="997.556" y2="442.059" gradientUnits="userSpaceOnUse">
<stop stop-color="#FFE62A"/>
<stop offset="1" stop-color="#F42C53"/>
</linearGradient>
<linearGradient id="paint36_linear_563_22684" x1="450.363" y1="367.897" x2="747.172" y2="558.994" gradientUnits="userSpaceOnUse">
<stop stop-color="white"/>
<stop offset="0.23" stop-color="#CAD6E8"/>
<stop offset="0.6" stop-color="#7797C6"/>
<stop offset="0.87" stop-color="#436FB0"/>
<stop offset="1" stop-color="#3060A8"/>
</linearGradient>
<linearGradient id="paint37_linear_563_22684" x1="490.985" y1="444.539" x2="613.165" y2="444.539" gradientUnits="userSpaceOnUse">
<stop stop-color="#985CFD"/>
<stop offset="0.6" stop-color="#775D95"/>
<stop offset="0.87" stop-color="#435FA2"/>
<stop offset="1" stop-color="#3060A8"/>
</linearGradient>
<linearGradient id="paint38_linear_563_22684" x1="3156.93" y1="1957.14" x2="3279.11" y2="2027.68" gradientUnits="userSpaceOnUse">
<stop stop-color="#323657"/>
</linearGradient>
<linearGradient id="paint39_linear_563_22684" x1="904.964" y1="583.673" x2="998.785" y2="583.673" gradientUnits="userSpaceOnUse">
<stop stop-color="#66D2FE"/>
<stop offset="0.43" stop-color="#4791C3"/>
<stop offset="0.81" stop-color="#2E5D94"/>
<stop offset="1" stop-color="#254A82"/>
</linearGradient>
<linearGradient id="paint40_linear_563_22684" x1="923.613" y1="553.342" x2="1045.59" y2="630.594" gradientUnits="userSpaceOnUse">
<stop stop-color="white"/>
<stop offset="0.23" stop-color="#CAD6E8"/>
<stop offset="0.6" stop-color="#7797C6"/>
<stop offset="0.87" stop-color="#436FB0"/>
<stop offset="1" stop-color="#3060A8"/>
</linearGradient>
<linearGradient id="paint41_linear_563_22684" x1="763.249" y1="783.227" x2="951.297" y2="897.072" gradientUnits="userSpaceOnUse">
<stop stop-color="#FFBC2A"/>
<stop offset="1" stop-color="#F4617E"/>
</linearGradient>
<linearGradient id="paint42_linear_563_22684" x1="768.452" y1="774.628" x2="956.5" y2="888.472" gradientUnits="userSpaceOnUse">
<stop stop-color="#FFE62A"/>
<stop offset="1" stop-color="#F4617E"/>
</linearGradient>
<linearGradient id="paint43_linear_563_22684" x1="757.701" y1="792.396" x2="945.748" y2="906.24" gradientUnits="userSpaceOnUse">
<stop stop-color="#FFD12A"/>
<stop offset="1" stop-color="#F4617E"/>
</linearGradient>
<linearGradient id="paint44_linear_563_22684" x1="630.043" y1="781.906" x2="818.09" y2="895.751" gradientUnits="userSpaceOnUse">
<stop stop-color="#FFE62A"/>
<stop offset="1" stop-color="#F42C53"/>
</linearGradient>
<linearGradient id="paint45_linear_563_22684" x1="635.263" y1="773.306" x2="823.31" y2="887.151" gradientUnits="userSpaceOnUse">
<stop stop-color="#FFE62A"/>
<stop offset="1" stop-color="#F4617E"/>
</linearGradient>
<linearGradient id="paint46_linear_563_22684" x1="624.511" y1="791.074" x2="812.558" y2="904.919" gradientUnits="userSpaceOnUse">
<stop stop-color="#FFB82A"/>
<stop offset="1" stop-color="#F4617E"/>
</linearGradient>
<linearGradient id="paint47_linear_563_22684" x1="670.552" y1="712.115" x2="858.599" y2="825.96" gradientUnits="userSpaceOnUse">
<stop stop-color="#FFAD2A"/>
<stop offset="1" stop-color="#F4617E"/>
</linearGradient>
<linearGradient id="paint48_linear_563_22684" x1="675.775" y1="703.515" x2="863.823" y2="817.36" gradientUnits="userSpaceOnUse">
<stop stop-color="#FFE62A"/>
<stop offset="1" stop-color="#F4617E"/>
</linearGradient>
<linearGradient id="paint49_linear_563_22684" x1="665.024" y1="721.283" x2="853.071" y2="835.128" gradientUnits="userSpaceOnUse">
<stop stop-color="#FFB82A"/>
<stop offset="1" stop-color="#F4617E"/>
</linearGradient>
</defs>
</svg>
