<svg width="579" height="541" viewBox="0 0 579 541" fill="none" xmlns="http://www.w3.org/2000/svg">
<g filter="url(#filter0_d_433_11175)">
<path d="M514.213 436.663C513.566 437.061 512.77 437.044 512.124 436.663L491.53 423.978C491.198 423.763 491.198 423.282 491.53 423.066L514.097 409.37C514.495 409.138 514.976 409.138 515.373 409.37L536.614 422.453C536.846 422.602 536.846 422.934 536.614 423.066L514.213 436.646V436.663Z" fill="url(#paint0_linear_433_11175)"/>
</g>
<g filter="url(#filter1_d_433_11175)">
<path d="M531.807 516.567C531.16 516.965 530.364 516.948 529.717 516.567L509.124 503.882C508.792 503.667 508.792 503.186 509.124 502.97L531.691 489.274C532.089 489.042 532.586 489.042 532.967 489.274L554.208 502.357C554.44 502.506 554.44 502.838 554.208 502.97L531.807 516.55V516.567Z" fill="url(#paint1_linear_433_11175)"/>
</g>
<g filter="url(#filter2_d_433_11175)">
<path d="M376.889 527.079C376.558 527.278 376.143 527.278 375.828 527.079L365.316 520.613C365.15 520.513 365.15 520.248 365.316 520.148L376.84 513.168C377.039 513.052 377.287 513.052 377.486 513.168L388.33 519.85C388.446 519.916 388.446 520.099 388.33 520.165L376.889 527.096V527.079Z" fill="url(#paint2_linear_433_11175)"/>
</g>
<g filter="url(#filter3_d_433_11175)">
<path d="M62.9456 398.626C62.0336 399.19 60.8729 399.173 59.961 398.626L30.5794 380.536C30.0985 380.238 30.0985 379.541 30.5794 379.243L62.7798 359.727C63.3435 359.379 64.0399 359.395 64.6037 359.727L94.8972 378.381C95.2288 378.58 95.2288 379.06 94.8972 379.259L62.9456 398.643V398.626Z" fill="url(#paint3_linear_433_11175)"/>
</g>
<g filter="url(#filter4_d_433_11175)">
<path d="M452.032 180.818C451.568 181.1 450.988 181.1 450.524 180.818L435.667 171.682C435.418 171.532 435.418 171.184 435.667 171.035L451.95 161.169C452.231 161.003 452.596 161.003 452.878 161.169L468.199 170.604C468.365 170.703 468.365 170.952 468.199 171.051L452.049 180.851L452.032 180.818Z" fill="url(#paint4_linear_433_11175)"/>
</g>
<g filter="url(#filter5_d_433_11175)">
<path d="M92.4731 274.069C92.1249 274.285 91.6772 274.285 91.329 274.069L80.1368 267.172C79.9544 267.056 79.9544 266.79 80.1368 266.674L92.4067 259.229C92.6223 259.097 92.8876 259.097 93.1032 259.229L104.644 266.343C104.776 266.426 104.776 266.608 104.644 266.674L92.4731 274.053V274.069Z" fill="url(#paint5_linear_433_11175)"/>
</g>
<g filter="url(#filter6_d_433_11175)">
<path d="M138.704 270.289C138.24 270.571 137.66 270.571 137.196 270.289L122.339 261.153C122.09 261.004 122.09 260.655 122.339 260.506L138.621 250.64C138.903 250.475 139.268 250.475 139.55 250.64L154.871 260.075C155.037 260.175 155.037 260.423 154.871 260.523L138.721 270.322L138.704 270.289Z" fill="url(#paint6_linear_433_11175)"/>
</g>
<path d="M273.032 490.336L214.252 526.167C212.544 527.212 210.389 527.212 208.698 526.167L86.7938 451.138C85.4175 450.292 85.4175 448.286 86.7938 447.441L169.649 396.57C170.843 395.84 170.843 394.099 169.649 393.37L71.6719 332.799" stroke="url(#paint7_linear_433_11175)" stroke-width="0.5" stroke-miterlimit="10"/>
<path d="M73.5926 333.956L73.5147 334.089C73.0748 334.619 72.0938 334.804 71.1447 334.243C70.1161 333.634 69.8328 332.586 70.2106 331.941C70.586 331.301 71.6439 331.046 72.6558 331.653L72.6584 331.655C73.6871 332.263 73.9703 333.312 73.5926 333.956Z" fill="url(#paint8_linear_433_11175)" stroke="url(#paint9_linear_433_11175)"/>
<path d="M101.969 436.281C102.918 435.72 103.899 435.905 104.339 436.435L104.417 436.568C104.795 437.212 104.511 438.261 103.483 438.869L103.483 438.869L103.48 438.871C102.468 439.478 101.41 439.223 101.035 438.582C100.657 437.938 100.94 436.889 101.969 436.281Z" fill="url(#paint10_linear_433_11175)" stroke="url(#paint11_linear_433_11175)"/>
<path d="M397.988 276.805L480.844 225.935C482.037 225.205 482.037 223.464 480.844 222.735L412.563 180.486" stroke="url(#paint12_linear_433_11175)" stroke-width="0.5" stroke-miterlimit="10"/>
<path d="M414.593 181.507L414.505 181.656C414.128 182.288 413.064 182.551 412.058 181.948L412.055 181.946C411.026 181.338 410.743 180.289 411.121 179.645C411.495 179.006 412.553 178.747 413.585 179.358C414.536 179.921 414.85 180.86 414.593 181.507Z" fill="url(#paint13_linear_433_11175)" stroke="url(#paint14_linear_433_11175)"/>
<path d="M494.914 388.263L577.77 337.392C578.963 336.663 578.963 334.922 577.77 334.192L509.489 291.944" stroke="url(#paint15_linear_433_11175)" stroke-width="0.5" stroke-miterlimit="10"/>
<path d="M511.413 293.117L511.335 293.25C510.895 293.78 509.914 293.965 508.965 293.404C507.936 292.795 507.653 291.747 508.031 291.102C508.406 290.462 509.464 290.207 510.476 290.814L510.479 290.816C511.507 291.424 511.791 292.473 511.413 293.117Z" fill="url(#paint16_linear_433_11175)" stroke="url(#paint17_linear_433_11175)"/>
<path d="M299.29 192.325L216.434 243.195C215.241 243.925 215.241 245.666 216.434 246.396L284.715 288.644" stroke="url(#paint18_linear_433_11175)" stroke-width="0.5" stroke-miterlimit="10"/>
<path d="M282.342 287.234C282.905 286.289 284.315 286.074 285.492 286.77C286.669 287.467 287.167 288.793 286.603 289.755C286.039 290.716 284.63 290.915 283.453 290.219C282.275 289.523 281.778 288.196 282.342 287.234Z" fill="url(#paint19_linear_433_11175)"/>
<path d="M124.379 381.614L65.5997 417.445C63.8918 418.49 61.7363 418.49 60.0451 417.445L1 381.1" stroke="url(#paint20_linear_433_11175)" stroke-width="0.5" stroke-miterlimit="10"/>
<path d="M123.735 380.37C124.76 379.763 125.823 380.028 126.2 380.658C126.576 381.303 126.293 382.35 125.265 382.958C124.233 383.568 123.175 383.31 122.8 382.671C122.423 382.027 122.706 380.978 123.735 380.37Z" fill="url(#paint21_linear_433_11175)" stroke="url(#paint22_linear_433_11175)"/>
<path d="M507.254 266.973L448.475 302.804C446.767 303.849 444.611 303.849 442.92 302.804L383.875 266.459" stroke="url(#paint23_linear_433_11175)" stroke-width="0.5" stroke-miterlimit="10"/>
<path d="M506.61 265.728C507.635 265.122 508.698 265.387 509.075 266.017C509.451 266.661 509.168 267.709 508.14 268.317C507.108 268.927 506.05 268.669 505.675 268.03C505.298 267.385 505.581 266.337 506.61 265.728Z" fill="url(#paint24_linear_433_11175)" stroke="url(#paint25_linear_433_11175)"/>
<path d="M336.289 483.637L395.069 447.805C396.777 446.761 398.932 446.761 400.623 447.805L459.669 484.151" stroke="url(#paint26_linear_433_11175)" stroke-width="0.5" stroke-miterlimit="10"/>
<path d="M359.535 426.25L418.315 390.419C420.023 389.374 422.178 389.374 423.886 390.419L545.79 465.448C547.166 466.293 547.166 468.3 545.79 469.145L503.326 495.211" stroke="url(#paint27_linear_433_11175)" stroke-width="0.5" stroke-miterlimit="10"/>
<path d="M504.378 496.273C503.429 496.834 502.448 496.649 502.008 496.119L501.93 495.986C501.555 495.345 501.848 494.294 502.867 493.683C503.879 493.076 504.937 493.331 505.312 493.971C505.69 494.616 505.407 495.664 504.378 496.273Z" fill="url(#paint28_linear_433_11175)" stroke="url(#paint29_linear_433_11175)"/>
<path d="M517.195 447.517L517.106 447.665C516.729 448.298 515.665 448.561 514.659 447.957L514.656 447.955C513.628 447.347 513.345 446.298 513.722 445.654C514.097 445.015 515.155 444.757 516.187 445.367C517.138 445.93 517.452 446.869 517.195 447.517Z" fill="url(#paint30_linear_433_11175)" stroke="url(#paint31_linear_433_11175)"/>
<path d="M74.9961 398.46L133.776 362.629C135.484 361.584 137.639 361.584 139.33 362.629L366.507 502.423C367.883 503.269 367.883 505.275 366.507 506.121L324.043 532.186" stroke="url(#paint32_linear_433_11175)" stroke-width="0.5" stroke-miterlimit="10"/>
<path d="M322.221 533.231C322.784 534.176 324.194 534.392 325.371 533.695C326.548 532.999 327.046 531.672 326.482 530.711C325.918 529.749 324.509 529.55 323.332 530.246C322.154 530.943 321.657 532.269 322.221 533.231Z" fill="url(#paint33_linear_433_11175)"/>
<path d="M338.271 484.897C337.707 485.842 336.298 486.058 335.121 485.362C333.943 484.665 333.446 483.339 334.01 482.377C334.573 481.432 335.983 481.216 337.16 481.913C338.337 482.609 338.835 483.936 338.271 484.897Z" fill="url(#paint34_linear_433_11175)"/>
<path d="M531.621 503.385L472.841 539.217C471.134 540.261 468.978 540.261 467.287 539.217L344.305 463.524C343.128 462.795 341.652 462.795 340.475 463.524L275.395 503.733" stroke="url(#paint35_linear_433_11175)" stroke-width="0.5" stroke-miterlimit="10"/>
<path d="M274.625 502.373C275.651 501.766 276.713 502.031 277.091 502.661C277.467 503.306 277.183 504.353 276.156 504.961C275.13 505.567 274.067 505.302 273.69 504.672C273.314 504.028 273.597 502.981 274.625 502.373Z" fill="url(#paint36_linear_433_11175)" stroke="url(#paint37_linear_433_11175)"/>
<path d="M43.9648 450.889V415.754" stroke="url(#paint38_linear_433_11175)" stroke-width="0.5" stroke-miterlimit="10" stroke-linecap="round"/>
<path d="M376.797 233.562V198.427" stroke="url(#paint39_linear_433_11175)" stroke-width="0.5" stroke-miterlimit="10" stroke-linecap="round"/>
<path d="M517.766 263.789V228.654" stroke="url(#paint40_linear_433_11175)" stroke-width="0.5" stroke-miterlimit="10" stroke-linecap="round"/>
<path d="M501.254 368.449V333.313" stroke="url(#paint41_linear_433_11175)" stroke-width="0.5" stroke-miterlimit="10" stroke-linecap="round"/>
<path d="M105.105 334.474V299.339" stroke="url(#paint42_linear_433_11175)" stroke-width="0.5" stroke-miterlimit="10" stroke-linecap="round"/>
<path d="M116.145 351.105V315.97" stroke="url(#paint43_linear_433_11175)" stroke-width="0.5" stroke-miterlimit="10" stroke-linecap="round"/>
<path d="M562.949 402.738V367.603" stroke="url(#paint44_linear_433_11175)" stroke-width="0.5" stroke-miterlimit="10" stroke-linecap="round"/>
<path d="M257.426 537.724V502.589" stroke="url(#paint45_linear_433_11175)" stroke-width="0.5" stroke-miterlimit="10" stroke-linecap="round"/>
<path d="M51.4297 470.488V435.353" stroke="url(#paint46_linear_433_11175)" stroke-width="0.5" stroke-miterlimit="10" stroke-linecap="round"/>
<path d="M154.992 206.154V171.035" stroke="url(#paint47_linear_433_11175)" stroke-width="0.5" stroke-miterlimit="10" stroke-linecap="round"/>
<path d="M367.562 206.154V171.035" stroke="url(#paint48_linear_433_11175)" stroke-width="0.5" stroke-miterlimit="10" stroke-linecap="round"/>
<g style="mix-blend-mode:screen">
<path d="M262.653 390.534C259.951 392.176 256.568 392.159 253.882 390.501L167.462 337.293C166.036 336.414 166.052 334.358 167.462 333.496L262.173 276.059C263.831 275.064 265.887 275.064 267.545 276.076L356.651 330.926C357.613 331.523 357.613 332.932 356.651 333.529L262.67 390.518L262.653 390.534Z" fill="url(#paint49_linear_433_11175)"/>
</g>
<path d="M357.263 317.196V174.898L166.398 177.568V320.877C166.398 320.877 166.398 320.911 166.398 320.927V320.96C166.398 321.673 166.763 322.386 167.46 322.817L253.88 376.026C256.566 377.684 259.949 377.684 262.651 376.059L356.633 319.07C357.296 318.672 357.495 317.876 357.263 317.23V317.196Z" fill="url(#paint50_linear_433_11175)"/>
<g filter="url(#filter7_d_433_11175)">
<path d="M262.653 233.23C259.951 234.872 256.568 234.855 253.882 233.197L167.462 179.989C166.036 179.11 166.052 177.054 167.462 176.191L262.173 118.755C263.831 117.76 265.887 117.76 267.545 118.771L356.651 173.621C357.613 174.218 357.613 175.628 356.651 176.225L262.67 233.214L262.653 233.23Z" fill="url(#paint51_linear_433_11175)"/>
</g>
<g style="mix-blend-mode:screen">
<path d="M400.321 466.194C397.619 467.835 394.236 467.819 391.55 466.161L305.13 412.952C303.704 412.073 303.72 410.017 305.13 409.155L399.84 351.718C401.499 350.724 403.555 350.724 405.213 351.735L494.319 406.585C495.281 407.182 495.281 408.591 494.319 409.188L400.338 466.177L400.321 466.194Z" fill="url(#paint52_linear_433_11175)"/>
</g>
<path d="M494.931 392.873V291.331L304.066 294V396.537C304.066 396.537 304.066 396.57 304.066 396.587V396.62C304.066 397.333 304.431 398.046 305.128 398.477L391.548 451.686C394.234 453.344 397.617 453.344 400.319 451.719L494.3 394.73C494.964 394.332 495.163 393.536 494.931 392.889V392.873Z" fill="url(#paint53_linear_433_11175)"/>
<g filter="url(#filter8_d_433_11175)">
<path d="M400.321 349.662C397.619 351.304 394.236 351.287 391.55 349.629L305.13 296.421C303.704 295.542 303.72 293.486 305.13 292.624L399.84 235.187C401.499 234.192 403.555 234.192 405.213 235.204L494.319 290.054C495.281 290.65 495.281 292.06 494.319 292.657L400.338 349.646L400.321 349.662Z" fill="url(#paint54_linear_433_11175)"/>
</g>
<g style="mix-blend-mode:screen">
<path d="M225.993 500.384C223.291 502.026 219.908 502.009 217.222 500.351L130.802 447.142C129.376 446.264 129.392 444.208 130.802 443.345L225.512 385.909C227.17 384.914 229.227 384.914 230.885 385.925L319.991 440.775C320.953 441.372 320.953 442.782 319.991 443.378L226.01 500.367L225.993 500.384Z" fill="url(#paint55_linear_433_11175)"/>
</g>
<path d="M320.602 427.046V374.352L237.515 375.512L230.883 371.433C229.241 370.422 227.168 370.422 225.51 371.417L218.298 375.794L129.738 377.038V430.727C129.738 430.727 129.738 430.76 129.738 430.777V430.81C129.738 431.523 130.103 432.236 130.799 432.667L217.22 485.876C219.906 487.534 223.288 487.534 225.991 485.909L319.972 428.92C320.636 428.522 320.835 427.726 320.602 427.079V427.046Z" fill="url(#paint56_linear_433_11175)"/>
<g filter="url(#filter9_d_433_11175)">
<path d="M225.993 432.103C223.291 433.745 219.908 433.728 217.222 432.07L130.802 378.862C129.376 377.983 129.392 375.927 130.802 375.065L225.512 317.628C227.17 316.633 229.227 316.633 230.885 317.645L319.991 372.495C320.953 373.092 320.953 374.501 319.991 375.098L226.01 432.087L225.993 432.103Z" fill="url(#paint57_linear_433_11175)"/>
</g>
<path d="M197.884 309.934C197.884 309.934 196.938 310.083 196.557 310.133C196.176 310.183 194.286 310.166 193.208 310.034C192.13 309.918 191.135 311.045 190.339 311.493C189.543 311.94 185.796 312.504 185.597 312.753C185.398 313.002 185.68 313.3 186.045 313.466C186.41 313.632 188.814 313.267 189.543 313.25C190.273 313.234 192.13 312.836 192.229 312.919C192.329 313.002 191.948 313.184 191.284 313.267C190.621 313.35 190.223 313.897 190.273 314.278C190.323 314.66 192.412 314.345 193.506 314.079C194.601 313.814 195.529 313.4 196.474 313.167C197.419 312.935 198.398 312.902 198.398 312.902" fill="#F2CFA4"/>
<path d="M210.219 383.322C210.335 383.007 211.114 382.261 211.114 382.261L222.688 379.956C222.688 379.956 222.737 381.332 222.754 381.465C222.787 381.597 221.494 382.31 220.847 382.625C220.2 382.924 219.885 382.99 219.885 382.99L219.322 382.791C219.023 382.857 218.609 382.99 218.227 383.173C217.564 383.521 216.47 384.267 215.359 384.715C214.248 385.162 212.921 385.494 211.611 385.146C210.302 384.797 210.003 383.852 210.185 383.322H210.219Z" fill="#1A1401"/>
<path d="M217.714 376.507C217.714 376.507 217.018 376.805 215.376 378.447C213.735 380.089 210.7 381.846 210.219 382.808C209.821 383.637 210.219 384.449 211.695 384.897C213.171 385.345 215.575 384.284 217.067 383.272C218.56 382.261 221.876 381.68 222.473 380.652C223.07 379.641 222.323 377.916 222.058 377.502C221.776 377.071 221.179 375.695 217.731 376.507H217.714Z" fill="black"/>
<path d="M228.908 387.401C228.908 387.401 228.212 388.777 228.278 389.705C228.311 390.269 228.726 391.529 229.339 391.994C229.853 392.375 231.445 392.988 234.131 391.347C236.817 389.722 236.088 386.273 236.038 385.776C236.005 385.278 235.922 383.769 236.038 383.007" fill="#1A1401"/>
<path d="M236.081 382.742C236.081 382.742 235.948 383.571 235.932 385.395C235.932 387.218 235.981 388.445 235.053 389.755C233.892 391.38 231.471 392.342 230.062 391.762C228.122 390.982 228.304 388.777 228.702 387.567C229.084 386.373 230.46 385.196 230.709 383.919C230.974 382.642 230.46 380.055 233.063 379.707C235.335 379.409 236.495 380.47 236.081 382.742Z" fill="black"/>
<path d="M221.545 373.539C221.545 373.539 221.263 376.341 221.346 377.12C221.413 377.9 218.113 378.364 217.218 377.336C217.218 377.336 217.068 375.545 217.035 374.318" fill="#F2CFA4"/>
<path d="M214.961 352.249C215.508 355.433 216.487 375.38 216.487 375.38C219.836 376.955 222.323 375.048 222.323 375.048C222.323 375.048 223.733 360.805 223.782 360.407C224.346 356.212 224.097 351.039 223.749 349.729C223.384 348.419 224.263 339.1 225.308 335.651C225.789 334.076 226.17 333.032 226.485 331.987C226.866 330.76 227.132 329.55 227.331 327.51C227.679 323.73 225.872 320.281 225.872 320.281C225.872 320.281 214.862 319.485 214.596 322.304C214.265 325.786 213.701 345.086 214.961 352.249Z" fill="#1B115E"/>
<path d="M235.768 377.552C235.768 377.552 235.486 380.354 235.569 381.133C235.635 381.912 232.336 382.377 231.44 381.349C231.44 381.349 231.291 379.558 231.258 378.331" fill="#F2CFA4"/>
<path d="M234.578 324.509C234.578 324.509 236.667 328.008 236.6 331.771C236.534 335.519 236.484 336.48 235.705 339.896C234.926 343.312 236.716 352.465 237.181 353.774C237.645 355.101 238.076 359.296 237.844 363.474C237.612 367.52 236.418 379.061 236.418 379.061C236.418 379.061 233.997 381.05 230.515 379.376C230.515 379.376 228.84 358.981 227.746 355.88C225.342 349.049 223.021 335.701 222.589 333.181C221.362 329.881 221.81 326.814 221.81 325.023C221.81 323.232 234.594 324.476 234.594 324.476L234.578 324.509Z" fill="#1B115E"/>
<path d="M215.261 305.341C212.227 305.822 196.641 309.884 196.641 309.884L197.072 313.433C197.072 313.433 216.239 312.604 216.687 312.289C217.135 311.974 217.135 310.183 217.135 310.183" fill="#E3F6FF"/>
<path d="M212.026 296.354C212.026 296.354 218.542 297.78 218.874 299.007C219.089 299.82 217.63 306.287 215.458 311.642C213.667 310.846 211.993 310.067 210.766 309.337C211.114 306.253 212.026 296.338 212.026 296.338" fill="#E3F6FF"/>
<path d="M213.456 286.97C213.456 286.97 211.963 292.756 211.582 301.246C211.582 301.246 211.781 301.528 216.44 302.804" fill="#E3F6FF"/>
<path d="M214.917 317.678C214.702 319.253 214.503 320.729 214.353 322.005C214.271 322.702 214.635 323.382 215.282 323.663C218.963 325.288 228.746 327.179 232.394 327.179C232.51 327.179 232.609 327.179 232.692 327.179C235.163 327.079 235.743 325.985 235.859 325.239C235.859 324.99 235.859 324.758 235.842 324.526C235.776 323.481 235.627 322.42 235.328 321.359C235.262 321.093 235.196 320.812 235.113 320.546C235.03 320.231 234.931 319.933 234.864 319.618C234.814 319.468 234.781 319.319 234.748 319.17C234.715 319.021 234.682 318.888 234.649 318.739C233.836 314.759 235.246 311.095 236.605 307.447C236.987 306.436 237.351 305.408 237.666 304.38C238.33 302.191 238.993 300.002 239.523 297.797C239.573 297.582 239.64 297.349 239.689 297.117C239.971 296.023 240.27 294.829 240.203 293.718C240.071 293.353 239.905 293.022 239.756 292.707C239.523 292.226 239.308 291.811 239.076 291.447C238.545 290.584 238.081 290.021 237.733 289.689C237.517 289.49 237.318 289.308 237.103 289.142C236.754 288.843 236.406 288.578 236.058 288.346C235.793 288.147 235.544 287.981 235.312 287.832C235.212 287.766 235.113 287.699 235.013 287.633C234.997 287.633 234.98 287.616 234.964 287.6C234.964 287.6 234.931 287.6 234.914 287.583C234.831 287.533 234.748 287.467 234.682 287.417C234.516 287.301 234.35 287.202 234.184 287.102C234.019 287.003 233.836 286.903 233.67 286.804C233.405 286.655 233.09 286.489 232.758 286.323C232.029 285.958 231.1 285.527 229.774 285.013L228.895 284.681C228.713 284.615 228.53 284.565 228.331 284.499C227.419 284.217 226.491 284.002 225.562 283.803C224.12 283.488 222.644 283.256 221.251 282.99C221.002 282.99 220.77 282.99 220.522 283.007C219.726 283.057 218.615 283.272 217.62 283.504C215.514 283.985 213.757 285.544 213.243 287.616C213.16 287.915 213.126 288.23 213.093 288.561C212.911 291.529 216.194 308.309 214.917 317.678Z" fill="white"/>
<path d="M222.115 285.046C222.115 285.046 220.391 286.704 221.767 287.948L222.58 286.207L221.8 285.51" fill="#D5AB80"/>
<path d="M229.061 278.895L228.862 285.627C228.862 285.627 223.805 289.573 221.765 287.948C221.732 286.754 221.749 283.902 221.765 282.261L223.689 281.879L229.044 278.911L229.061 278.895Z" fill="#E2B888"/>
<path d="M218.083 273.721C218.083 273.721 217.768 276.971 218.431 279.956C219.111 282.924 219.31 283.604 220.503 284.134C221.697 284.665 222.775 284.715 224.798 283.421C226.821 282.128 227.915 280.022 227.915 280.022C227.915 280.022 228.197 280.205 228.927 279.392C230.054 278.115 230.27 277.485 230.27 275.761C230.27 274.036 229.839 271.864 228.495 269.609C227.152 267.354 223.024 268.067 221.15 269.029C219.276 269.991 218.431 271.798 218.083 273.738V273.721Z" fill="#F2CFA4"/>
<path d="M217.867 274.119C219.807 275.811 223.571 274.119 223.571 274.119L223.654 275.114C224.035 276.706 225.146 276.855 225.676 277.137C226.207 277.435 226.323 279.044 226.323 279.044L227.003 278.978C227.003 278.978 226.986 277.435 227.218 276.673C227.467 275.893 228.744 275.297 229.457 276.424C230.037 277.336 229.49 278.447 229.059 279.259C229.059 279.259 230.286 279.624 230.601 274.633C230.601 274.633 230.7 272.146 230.435 270.72C230.137 269.112 227.683 266.907 225.096 266.923C225.096 266.923 221.763 266.708 220.072 268.664C218.016 271.035 217.585 270.985 217.005 270.422C216.209 271.234 216.557 272.959 217.883 274.119H217.867Z" fill="black"/>
<path d="M232.004 316.135C231.938 316.716 231.904 318.424 232.004 319.236C232.352 322.005 232.883 324.476 232.385 327.162C232.501 327.162 232.601 327.162 232.684 327.162C235.154 327.062 235.735 325.968 235.851 325.222C235.851 324.973 235.851 324.741 235.834 324.509C235.768 323.464 235.619 322.403 235.32 321.342C235.254 321.077 235.171 320.811 235.104 320.546C235.022 320.231 234.922 319.916 234.856 319.617C234.806 319.468 234.773 319.319 234.74 319.17C234.707 319.021 234.673 318.888 234.64 318.739C233.828 314.759 235.237 311.095 236.597 307.447C236.381 305.441 236.149 303.036 236.149 302.788C236.149 302.373 231.938 297.465 231.938 297.465C231.938 297.465 233.015 306.436 232.004 316.135Z" fill="#E3F6FF"/>
<path d="M250.793 333.695L231.459 345.384L229.387 344.124L248.72 332.435L250.793 333.695Z" fill="#6095B8"/>
<path d="M231.48 345.384V359.213L250.797 347.523V333.695L231.48 345.384Z" fill="#6095B8"/>
<path d="M231.48 345.384V351.718L250.797 340.029V333.695L231.48 345.384Z" fill="#5990AE"/>
<path d="M238.191 346.744V348.667L238.457 348.8L244.061 345.119L244.326 343.328L244.061 343.196L238.191 346.744Z" fill="#497790"/>
<path d="M238.453 346.877V348.8L244.323 345.252V343.328L238.453 346.877Z" fill="#3D5E73"/>
<path d="M231.459 345.384V359.213L229.387 357.953V344.124L231.459 345.384Z" fill="#4B79A1"/>
<path d="M243.245 333.827C242.946 333.661 242.581 333.661 242.283 333.827L238.105 336.348C237.408 336.762 236.977 337.525 236.977 338.337V340.559C236.977 340.559 236.944 340.99 237.441 340.941C237.872 340.891 237.939 340.559 237.939 340.559V338.337C237.939 337.856 238.187 337.425 238.602 337.177L242.498 334.789C242.615 334.723 242.747 334.789 242.747 334.922V337.077C242.747 337.077 242.714 337.508 243.212 337.458C243.643 337.409 243.709 337.077 243.709 337.077V334.623C243.709 334.275 243.527 333.96 243.228 333.794L243.245 333.827Z" fill="#3D5E73"/>
<path d="M237.925 336.48L239.086 335.784L239.168 335.734C239.318 335.651 239.467 335.618 239.566 335.651C239.666 335.701 239.848 336.033 239.948 336.381C239.998 336.53 240.014 336.663 240.031 336.795C240.031 337.276 239.915 337.741 239.749 338.172C240.495 338.105 241.44 337.707 242.286 337.326C243.231 336.878 243.48 336.497 243.496 336.331C243.496 336.298 243.496 336.248 243.496 336.199C243.463 335.966 243.397 335.618 243.297 335.22C243.297 335.204 243.297 335.187 243.297 335.171C243.297 335.154 243.297 335.137 243.297 335.121C243.032 333.977 242.634 332.418 242.667 331.771L239.467 329.848C239.467 329.848 239.367 331.937 239.334 333.148C239.334 333.695 238.223 334.673 238.058 334.856C238.024 334.889 237.975 335.021 237.908 335.22C237.875 335.635 237.991 336.514 237.991 336.514L237.925 336.48Z" fill="#F2CFA4"/>
<path d="M243.131 303.832C243.131 303.832 244.624 310.631 244.624 311.775C244.624 312.919 240.827 314.909 238.638 314.378C237.776 313.897 234.891 307.149 234.891 307.149" fill="white"/>
<path d="M231.192 295.592C231.192 298.626 233.497 303.617 234.873 307.165C238.455 306.436 240.66 305.424 241.871 304.711C240.826 300.798 239.251 295.691 238.455 293.121C238.19 292.259 237.725 291.48 237.095 290.866C237.046 290.866 236.996 290.866 236.946 290.866C234.708 290.817 231.159 292.359 231.176 295.625L231.192 295.592Z" fill="white"/>
<path d="M228.89 284.681L229.768 285.013C231.095 285.527 232.023 285.958 232.753 286.323C233.101 286.489 233.4 286.655 233.665 286.804C233.847 286.903 234.013 287.003 234.179 287.102C234.345 287.202 234.511 287.301 234.676 287.417C234.759 287.467 234.842 287.517 234.909 287.566C234.909 287.566 234.942 287.583 234.958 287.6C234.958 287.6 234.991 287.616 235.008 287.633C235.107 287.699 235.207 287.749 235.306 287.832C235.539 287.981 235.787 288.163 236.053 288.346C236.384 288.578 236.732 288.843 237.097 289.142C237.147 289.175 237.213 289.225 237.263 289.274C237.263 289.274 237.28 289.291 237.313 289.324C237.313 289.324 237.362 289.357 237.379 289.374C237.412 289.39 237.462 289.44 237.512 289.49C237.578 289.54 237.628 289.606 237.711 289.672C238.059 290.021 238.523 290.584 239.054 291.446C239.286 291.811 239.501 292.226 239.734 292.707C239.883 293.022 240.049 293.353 240.181 293.718C240.181 293.735 240.861 295.542 241.16 296.603C241.193 296.752 241.242 296.885 241.276 297.018C241.475 297.714 241.674 298.444 241.889 299.206C242.304 300.715 242.735 302.307 243.1 303.849C243.1 303.849 242.735 304.214 241.856 304.728C241.226 302.357 240.397 299.555 239.667 297.134C239.203 295.559 238.656 294.116 238.258 293.121C236.782 289.44 229.47 285.958 228.84 285.627C228.84 285.079 228.856 284.681 228.856 284.681H228.89Z" fill="white"/>
<path d="M244.622 311.791C245.003 312.538 244.92 319.899 243.942 325.603C242.964 331.307 243.047 332.236 243.047 332.236L239.034 332.07C239.034 332.07 239.183 327.361 238.868 324.36C238.553 321.276 238.039 313.665 238.039 313.665" fill="white"/>
<path d="M222.806 286.97L222.574 288.545L223.818 288.445L222.806 286.97Z" fill="#7EB9F5"/>
<path d="M222.162 286.87V288.661L221.383 287.948L222.162 286.87Z" fill="#7EB9F5"/>
<path d="M223.154 287.765C223.154 287.765 222.491 287.865 221.811 287.301L221.23 288.478L221.413 289.971L222.424 290.385L223.469 289.108" fill="black"/>
<path d="M229.648 284.963L228.868 283.521C228.868 283.521 226.381 286.041 222.816 286.97L223.446 289.191C223.446 289.191 227.641 288.163 229.648 284.963Z" fill="#E3F6FF"/>
<path d="M221.74 285.179C221.74 285.179 221.723 286.356 222.154 286.87L221.226 288.661C221.226 288.661 220.264 286.555 221.74 285.179Z" fill="#E3F6FF"/>
<path d="M222.436 290.352L223.199 311.642C223.199 311.642 220.894 318.092 220.28 318.125C219.667 318.159 217.976 309.852 217.992 307.182C218.009 304.513 221.425 289.971 221.425 289.971" fill="black"/>
<path d="M239.283 338.139C239.416 338.155 239.565 338.155 239.731 338.139C240.477 338.072 241.422 337.674 242.268 337.293C243.213 336.845 243.461 336.464 243.478 336.298V336.265C243.478 336.265 243.478 336.215 243.478 336.166C243.428 335.933 243.329 335.386 243.279 335.187C243.279 335.171 243.279 335.154 243.279 335.138C243.279 335.104 243.279 335.088 243.279 335.088L239.996 336.364L238.686 337.16C238.686 337.16 238.57 338.023 239.333 338.139H239.283Z" fill="#F2CFA4"/>
<path d="M421.388 225.371L420.559 227.958C420.559 227.958 417.873 227.328 412.65 225.719C412.451 225.653 412.236 225.587 412.02 225.52C409.931 224.874 407.808 224.078 405.935 223.282C402.768 221.972 400.33 220.695 399.999 220.264C399.02 218.987 396.633 214.295 396.633 214.295L405.189 215.787C405.189 215.787 405.819 216.152 406.764 216.699C407.261 216.981 407.825 217.329 408.438 217.678C410.097 218.672 412.053 219.833 413.347 220.662C415.933 222.337 421.372 225.338 421.372 225.338L421.388 225.371Z" fill="#1B6FC9"/>
<path d="M413.029 225.255L412.648 225.719C412.449 225.653 412.233 225.587 412.018 225.52C409.929 224.874 407.806 224.078 405.933 223.282C405.75 222.502 405.568 221.64 405.618 221.375C405.701 220.944 406.48 217.694 406.762 216.699C407.259 216.981 407.823 217.329 408.436 217.677C408.238 218.805 407.757 222.038 408.304 222.9C408.95 223.945 413.029 225.238 413.029 225.238V225.255Z" fill="#6499FF"/>
<path d="M395.494 292.889C395.494 292.889 394.831 293.95 394.765 294.05C394.699 294.166 395.693 295.326 396.207 295.807C396.738 296.288 397.434 296.719 397.434 296.719L397.683 296.504C397.683 296.504 397.915 296.62 398.446 297.15C398.977 297.681 399.872 298.659 400.8 299.405C401.729 300.151 402.89 300.864 404.233 300.931C405.576 300.997 406.156 300.168 406.123 299.621C406.106 299.289 405.576 298.344 405.576 298.344" fill="#3C3C82"/>
<path d="M400.986 290.932C400.986 290.932 401.566 291.413 402.644 293.469C403.722 295.525 406.093 298.079 406.258 299.14C406.391 300.035 405.761 300.699 404.252 300.682C402.71 300.682 400.754 298.958 399.626 297.565C398.515 296.172 395.448 294.365 395.249 293.486C395 292.342 396.194 290.932 396.575 290.617C396.973 290.302 397.935 289.158 400.986 290.949V290.932Z" fill="white"/>
<path d="M401.743 290.7L401.311 292.309C401.311 292.309 400.797 292.723 399.637 292.375C398.741 292.11 397.465 291.413 397.266 290.253C397.266 290.253 397.398 289.739 397.581 289.042" fill="#E2BD9B"/>
<path d="M411.838 267.951C410.495 272.262 401.641 291.247 401.641 291.247C401.326 291.247 401.044 291.247 400.762 291.247C398.739 291.065 397.297 289.921 397.297 289.921C397.297 289.921 398.441 280.834 399.552 276.639C400.663 272.444 403.614 268.316 403.05 266.973C402.785 266.326 401.575 262.778 400.398 259.263C400.398 259.213 400.364 259.163 400.348 259.097C400.348 259.097 400.348 259.064 400.348 259.047C399.088 255.3 397.877 251.668 397.877 251.668L397.943 248.501L398.109 240.576L407.129 236.944C407.229 237.127 407.312 237.326 407.411 237.541C410.528 244.522 413.165 263.789 411.855 267.984L411.838 267.951Z" fill="black"/>
<path d="M401.06 261.219C399.8 257.472 397.844 251.652 397.844 251.652L397.91 248.485L399.651 246.843C399.651 246.843 399.601 250.325 399.867 253.111C400.182 256.659 400.712 260.108 401.06 261.219Z" fill="black"/>
<path d="M400.609 303.981L387.924 300.765C387.924 300.765 387.875 301.461 387.924 301.677C387.974 301.892 390.213 302.705 390.561 302.887C390.66 302.937 390.71 302.937 390.743 302.92L391.042 302.854C391.34 303.07 391.854 303.418 392.368 303.749C393.181 304.28 394.358 304.993 395.452 305.358C396.016 305.54 397.823 306.137 399.332 305.772C400.526 305.49 400.825 304.496 400.592 303.965L400.609 303.981Z" fill="#3C3C82"/>
<path d="M389.02 295.973C389.02 295.973 387.876 296.454 387.793 300.185C387.793 300.185 387.81 300.798 388.207 301.13C388.605 301.445 389.965 301.793 390.894 302.357C391.839 302.92 394.226 304.794 396.515 305.341C398.803 305.888 400.146 305.292 400.56 304.827C400.975 304.363 400.759 303.352 399.897 302.755C399.035 302.158 395.254 298.56 394.674 297.764C393.928 296.719 392.883 296.056 392.784 295.874C392.684 295.708 389.832 296.371 389.02 295.973Z" fill="white"/>
<path d="M388.789 292.74C388.789 292.74 389.071 295.592 388.988 296.388C388.905 297.183 392.288 297.648 393.2 296.603C393.2 296.603 393.349 294.779 393.382 293.536" fill="#F2CFA4"/>
<path d="M387.296 238.818C387.296 238.818 385.173 242.383 385.24 246.23C385.306 250.044 385.853 250.989 386.649 254.471C387.445 257.953 387.594 267.421 387.13 268.764C386.649 270.107 386.566 274.517 386.815 278.779C387.047 282.907 388.224 294.796 388.224 294.796C388.224 294.796 390.397 296.587 393.945 294.879C393.945 294.879 394.79 274.269 395.901 271.102C398.355 264.137 398.588 250.392 399.549 247.706C400.494 245.02 400.345 241.206 400.345 239.382C400.345 237.558 387.312 238.835 387.312 238.835L387.296 238.818Z" fill="black"/>
<path d="M407.337 231.854C407.552 233.463 407.751 234.955 407.917 236.265C408 236.978 407.618 237.658 406.955 237.956C403.191 239.614 393.226 241.554 389.512 241.538C389.396 241.538 389.297 241.538 389.197 241.538C386.677 241.438 386.08 240.327 385.964 239.565C385.964 239.316 385.964 239.067 385.98 238.835C386.047 237.774 386.196 236.679 386.511 235.602C386.577 235.32 386.66 235.055 386.726 234.789C386.809 234.474 386.909 234.159 386.992 233.844C387.041 233.678 387.075 233.529 387.108 233.38C387.141 233.231 387.174 233.081 387.207 232.949C388.036 228.886 386.594 225.156 385.218 221.442C384.836 220.414 384.455 219.369 384.123 218.324C383.443 216.102 382.78 213.864 382.233 211.609C382.183 211.393 382.117 211.161 382.067 210.929C381.769 209.802 381.47 208.591 381.553 207.464C381.702 207.099 381.852 206.751 382.017 206.436C382.25 205.938 382.482 205.524 382.697 205.142C383.228 204.264 383.709 203.683 384.057 203.352C384.272 203.153 384.488 202.97 384.704 202.788C385.068 202.489 385.417 202.224 385.765 201.975C386.03 201.776 386.279 201.594 386.527 201.445C386.627 201.379 386.726 201.312 386.826 201.246C386.843 201.246 386.859 201.229 386.876 201.213C386.876 201.213 386.909 201.213 386.925 201.196C387.008 201.146 387.091 201.08 387.174 201.03C387.34 200.914 387.506 200.815 387.672 200.715C387.837 200.616 388.02 200.516 388.202 200.4C388.484 200.234 388.782 200.069 389.131 199.903C389.877 199.538 390.822 199.09 392.182 198.576L393.077 198.245C393.259 198.178 393.458 198.112 393.657 198.062C394.586 197.78 395.531 197.548 396.476 197.349C397.952 197.034 399.444 196.802 400.87 196.52C401.119 196.52 401.368 196.52 401.616 196.537C402.429 196.587 403.573 196.819 404.568 197.034C406.707 197.532 408.497 199.107 409.028 201.229C409.111 201.544 409.161 201.859 409.177 202.191C409.36 205.209 406.01 222.32 407.32 231.871L407.337 231.854Z" fill="white"/>
<path d="M399.789 198.211C399.789 198.211 403.056 199.753 403.653 205.209C404.249 210.664 404.216 221.889 404.316 225.753C404.415 229.616 404.996 242.118 405.311 242.748C405.626 243.378 408.544 241.853 410.086 240.294C410.086 240.294 407.234 229.467 407.284 224.725C407.334 219.999 408.909 208.575 409.207 205.839C409.506 203.103 410.285 198.692 406.173 197.399C402.061 196.106 399.109 196.388 399.109 196.388" fill="#1B6FC9"/>
<path d="M399.996 198.576C399.996 198.576 401.754 200.267 400.345 201.528L399.516 199.753L400.311 199.04" fill="#D5AB80"/>
<path d="M392.91 192.325L393.109 199.19C393.109 199.19 398.266 203.202 400.338 201.544C400.372 200.334 400.355 197.432 400.338 195.741L398.382 195.343L392.91 192.309V192.325Z" fill="#E2B888"/>
<path d="M404.104 187.052C404.104 187.052 404.435 190.369 403.756 193.403C403.076 196.437 402.86 197.117 401.633 197.664C400.406 198.195 399.312 198.261 397.256 196.935C395.2 195.608 394.072 193.469 394.072 193.469C394.072 193.469 393.774 193.668 393.044 192.839C391.9 191.546 391.668 190.899 391.668 189.142C391.668 187.384 392.116 185.162 393.475 182.874C394.851 180.569 399.046 181.315 400.953 182.294C402.86 183.272 403.722 185.129 404.087 187.086L404.104 187.052Z" fill="#F2CFA4"/>
<path d="M404.696 188.462C404.696 188.462 404.696 188.462 404.663 188.462C403.569 188.959 400.501 188.727 399.341 187.616C398.478 187.55 398.429 188.445 398.429 188.445C398.047 190.07 396.92 190.219 396.373 190.501C395.842 190.816 395.709 192.441 395.709 192.441L395.03 192.375C395.03 192.375 395.03 190.816 394.814 190.02C394.549 189.224 393.255 188.628 392.526 189.772C391.929 190.7 392.476 191.828 392.94 192.657V193.254C392.343 192.723 391.315 191.33 391.067 187.948C391.1 186.737 390.039 185.643 391.249 183.736C391.946 182.658 393.073 182.741 393.272 182.41C394.864 179.707 397.666 179.127 399.855 179.923C400.418 180.121 401.314 180.486 401.861 181.431C401.861 181.431 403.552 181.746 403.967 183.206C407.581 185.162 407.167 187.566 404.73 188.445L404.696 188.462Z" fill="black"/>
<path d="M389.915 230.279C389.981 230.876 390.015 232.617 389.915 233.446C389.567 236.265 389.02 238.785 389.517 241.521C389.401 241.521 389.302 241.521 389.202 241.521C386.682 241.421 386.085 240.31 385.969 239.548C385.969 239.299 385.969 239.05 385.985 238.818C386.052 237.757 386.201 236.663 386.516 235.585C386.582 235.303 386.665 235.038 386.731 234.772C386.814 234.441 386.914 234.126 386.997 233.827C387.047 233.661 387.08 233.512 387.113 233.363C387.146 233.214 387.179 233.064 387.212 232.932C388.041 228.869 386.599 225.139 385.223 221.425C385.438 219.385 385.67 216.931 385.67 216.682C385.67 216.251 389.965 211.26 389.965 211.26C389.965 211.26 388.854 220.397 389.899 230.295L389.915 230.279Z" fill="#DA9C30"/>
<path d="M397.608 222.602C397.608 224.36 397.608 228.24 397.542 232.219C397.542 232.601 397.542 232.999 397.509 233.38C397.409 237.89 397.16 242.251 396.646 243.461C395.867 245.235 391.125 244.622 387.444 243.428C386.234 243.03 385.089 242.582 384.144 242.135C384.144 242.135 386.482 234.242 386.432 230.445C386.399 228.19 385.504 224.741 384.526 221.574C383.862 219.419 383.166 217.396 382.685 215.953C381.491 212.421 379.485 206.966 384.061 202.987C384.061 202.987 388.306 199.505 393.081 198.195C393.081 198.195 392.999 199.024 393.629 200.765C393.96 201.677 394.424 202.871 395.37 204.313C397.857 208.144 397.592 218.673 397.592 222.586L397.608 222.602Z" fill="#1B6FC9"/>
<path d="M389.424 232.219C389.374 229.748 388.927 226.034 388.993 222.685C388.993 222.022 389.01 221.358 389.026 220.712C389.026 219.435 389.209 218.175 389.557 216.964C390.751 212.653 389.988 210.896 389.988 210.896L387.103 215.638C387.103 215.638 387.103 215.804 387.103 216.086L385.246 217.213C385.246 217.213 384.931 219.153 384.549 221.574C385.528 224.741 386.423 228.19 386.456 230.445C386.506 234.242 384.168 242.134 384.168 242.134C385.113 242.582 386.257 243.03 387.468 243.428C387.749 242.201 388.794 237.674 389.242 234.938C389.358 234.225 389.905 233.645 390.618 233.512C390.618 233.512 390.635 233.512 390.651 233.512C391.547 233.38 396.222 233.38 397.549 233.38C397.549 232.982 397.565 232.6 397.582 232.219H389.457H389.424Z" fill="#6499FF"/>
<path d="M379.071 217.213C379.071 217.213 377.098 226.598 377.098 227.775C377.098 228.952 380.248 229.533 382.47 228.986C384.692 228.438 386.847 219.568 386.847 219.568" fill="#F2CFA4"/>
<path d="M390.729 209.337C390.729 212.438 388.374 217.512 386.981 221.126C383.334 220.38 381.079 219.352 379.852 218.622C380.929 214.626 382.521 209.42 383.334 206.8C383.615 205.921 384.08 205.142 384.71 204.495C384.76 204.495 384.809 204.495 384.859 204.495C387.147 204.446 390.762 206.004 390.745 209.337H390.729Z" fill="#E9AC38"/>
<path d="M380.828 212.222C380.911 211.542 381.011 210.912 381.093 210.332C381.011 210.912 380.928 211.542 380.828 212.222Z" fill="#CD6158"/>
<path d="M381.544 207.364C381.544 207.364 381.544 207.463 381.527 207.513C381.527 207.513 381.544 207.414 381.56 207.364H381.544Z" fill="#CD6158"/>
<path d="M381.508 207.53C381.508 207.53 381.524 207.414 381.541 207.364C381.541 207.397 381.541 207.463 381.524 207.513L381.508 207.53Z" fill="#CD6158"/>
<path d="M400.33 229.45C400.33 229.45 401.06 229.682 401.01 230.611C400.961 231.34 400.397 233.28 398.589 233.164C396.285 233.015 397.711 229.699 399.236 229.185" fill="#6499FF"/>
<path d="M403.187 230.113C402.624 230.146 401.164 229.881 401.164 229.881L399.805 232.866C400.468 233.015 400.949 233.91 401.695 234.093C402.441 234.275 403.071 234.325 403.071 234.325C403.071 234.325 402.706 234.673 402.988 235.021C403.27 235.369 404.58 235.568 405.177 235.651C405.774 235.734 406.437 235.187 406.885 234.607C407.333 234.026 407.664 232.468 407.449 232.07C407.233 231.672 406.387 230.826 406.387 230.826C405.31 230.18 404.547 230.047 404.547 230.047C404.547 230.047 403.37 230.08 403.171 230.097L403.187 230.113Z" fill="#F2CFA4"/>
<path d="M409.953 233.313C410.915 233.545 411.263 233.147 411.114 232.965C410.964 232.766 406.769 230.66 406.123 230.395C405.708 230.229 405.244 230.179 404.564 230.063L404.332 230.13C404.332 230.13 405.111 230.909 405.708 232.02L407.665 232.468C407.665 232.468 408.991 233.081 409.953 233.313Z" fill="#F2CFA4"/>
<path d="M427.771 214.427L426.776 213.681C426.776 213.681 426.61 213.598 426.511 213.665L412.914 221.392C412.549 221.607 412.251 221.906 412.052 222.27L402.103 240.924C402.004 241.106 402.07 241.289 402.186 241.388L403.181 242.134L404.541 240.377L415.948 233.894C416.23 233.744 416.446 233.512 416.595 233.23L426.079 215.422L427.771 214.427Z" fill="white"/>
<path d="M427.853 214.743L417.59 233.993C417.441 234.275 417.225 234.507 416.943 234.656L403.645 242.217C403.297 242.416 402.916 242.035 403.098 241.687L413.047 223.033C413.246 222.668 413.544 222.353 413.909 222.154L427.505 214.427C427.721 214.311 427.953 214.544 427.837 214.759L427.853 214.743Z" fill="url(#paint58_linear_433_11175)"/>
<path d="M422.548 224.724C422.548 224.724 421.321 225.272 420.442 225.786C419.928 226.018 418.452 226.731 418.369 227.278C418.336 227.493 418.469 227.576 418.651 227.593C418.17 227.875 417.739 228.223 417.689 228.505C417.64 228.82 417.921 228.87 418.236 228.82C418.17 228.903 418.137 228.986 418.12 229.052C418.071 229.35 418.319 229.4 418.601 229.367C418.668 229.815 419.646 229.467 419.828 229.4C419.928 229.367 420.608 229.102 420.707 229.069C421.669 228.754 423.592 225.238 422.564 224.691L422.548 224.724Z" fill="#F2CFA4"/>
<path d="M378.314 220.994C378.314 220.994 376.324 229.566 377.286 230.843C379.16 233.363 400.765 232.849 400.765 232.849L402.688 230.279L384.366 225.404" fill="#F2CFA4"/>
<path d="M381.809 206.087C381.809 206.087 379.919 211.493 378.228 217.727C376.537 223.962 375.077 229.881 376.503 231.721C377.465 232.965 398.589 233.147 398.589 233.147C398.589 233.147 397.644 233.147 398.473 230.892C398.855 229.864 399.8 229.301 400.33 229.45L395.273 227.742L385.49 224.973C385.49 224.973 389.437 216.019 390.431 212.819C391.443 209.619 391.012 206.883 388.906 205.49C386.8 204.097 383.467 203.302 381.793 206.087H381.809Z" fill="#1B6FC9"/>
<g filter="url(#filter10_d_433_11175)">
<g style="mix-blend-mode:hard-light" opacity="0.6">
<path d="M367.075 66.6574V151.403L275.066 94.7456V10L367.075 66.6574Z" fill="url(#paint59_linear_433_11175)"/>
</g>
<path d="M363.043 70.4875V143.842L278.828 91.9931V64.5183C281.581 61.5172 284.93 58.9968 288.777 58.0849C302.655 54.7687 304.695 80.005 316.948 84.3492C327.593 88.1131 345.567 63.54 363.043 70.4709V70.4875Z" fill="url(#paint60_linear_433_11175)"/>
<path d="M278.383 16.5659V92.2417L363.493 144.638V68.962L278.383 16.5659ZM312.987 38.9171L328.955 48.7497V122.32L312.987 112.487V38.9171ZM312.092 111.94L296.124 102.107V28.5374L312.092 38.37V111.94ZM329.834 49.2969L345.801 59.1294V132.699L329.834 122.867V49.2969ZM279.262 18.1743L295.229 28.0068V101.577L279.262 91.7443V18.1743ZM362.581 143.046L346.68 133.263V59.6932L362.581 69.476V143.046Z" fill="url(#paint61_linear_433_11175)"/>
</g>
<g filter="url(#filter11_d_433_11175)">
<g style="mix-blend-mode:hard-light" opacity="0.6">
<path d="M490.82 197.979V286.771L403.504 340.327V251.553L490.82 197.979Z" fill="url(#paint62_linear_433_11175)"/>
</g>
<path d="M487.285 210.448V284.864L487.086 284.98L407.148 334.027V333.048L486.456 284.4V210.946L487.285 210.448Z" fill="url(#paint63_linear_433_11175)"/>
<path d="M427.43 249.414V314.461L413.867 322.768V257.721L427.43 249.414Z" fill="url(#paint64_linear_433_11175)"/>
<path d="M445.867 258.749V303.153L432.32 311.46V267.072L445.867 258.749Z" fill="url(#paint65_linear_433_11175)"/>
<path d="M464.304 238.852V291.845L450.758 300.152V247.159L464.304 238.852Z" fill="url(#paint66_linear_433_11175)"/>
<path d="M482.729 252V280.536L469.199 288.843V260.307L482.729 252Z" fill="url(#paint67_linear_433_11175)"/>
</g>
<g style="mix-blend-mode:hard-light" opacity="0.6">
<path d="M545.968 243.792V262.446L527.613 273.705V255.051L545.968 243.792Z" fill="url(#paint68_linear_433_11175)"/>
</g>
<g style="mix-blend-mode:hard-light" opacity="0.6">
<path d="M279.382 307.049V325.703L261.043 336.961V318.308L279.382 307.049Z" fill="url(#paint69_linear_433_11175)"/>
</g>
<g style="mix-blend-mode:hard-light" opacity="0.6">
<path d="M227.862 74.0359V99.0898L203.223 114.212V89.1578L227.862 74.0359Z" fill="url(#paint70_linear_433_11175)"/>
</g>
<g style="mix-blend-mode:hard-light" opacity="0.6">
<path d="M133.017 161.02V173.506L120.73 181.033V168.548L133.017 161.02Z" fill="url(#paint71_linear_433_11175)"/>
</g>
<g style="mix-blend-mode:hard-light" opacity="0.6">
<path d="M92.2817 413.085V425.554L80.0117 433.081V420.613L92.2817 413.085Z" fill="url(#paint72_linear_433_11175)"/>
</g>
<g style="mix-blend-mode:hard-light" opacity="0.6">
<path d="M400.872 91.0314V103.517L388.602 111.045V98.5592L400.872 91.0314Z" fill="url(#paint73_linear_433_11175)"/>
</g>
<g style="mix-blend-mode:hard-light" opacity="0.6">
<path d="M101.554 210.78V229.433L83.1992 240.692V222.038L101.554 210.78Z" fill="url(#paint74_linear_433_11175)"/>
</g>
<g filter="url(#filter12_d_433_11175)">
<g style="mix-blend-mode:hard-light" opacity="0.6">
<path d="M135.656 254.255V341.322L221.281 393.851V306.784L135.656 254.255Z" fill="url(#paint75_linear_433_11175)"/>
</g>
<path d="M148.805 324.327V328.804L208.115 365.183V360.706L148.805 324.327Z" fill="url(#paint76_linear_433_11175)"/>
<path d="M148.805 332.667V337.144L208.115 373.523V369.062L148.805 332.667Z" fill="url(#paint77_linear_433_11175)"/>
<path d="M173.777 290.949C173.777 290.949 168.537 295.509 153.531 286.224C153.531 286.224 155.189 316.451 173.777 332.02C192.364 339.416 194.022 311.261 194.022 311.261C179.016 301.992 173.777 290.949 173.777 290.949Z" fill="url(#paint78_linear_433_11175)"/>
</g>
<path d="M279.053 184.598V184.681C279.053 185.046 278.937 185.394 278.705 185.676C277.66 186.886 275.223 187.4 274.709 187.5C274.676 187.5 274.642 187.5 274.626 187.5C273.233 187.715 271.691 187.798 271.011 187.864C270.166 187.947 269.668 188.096 269.668 188.096V188.246C269.403 188.312 268.524 188.528 267.761 188.561C267.032 188.577 266.153 188.478 265.689 188.096C265.175 187.649 265.125 187.085 265.125 187.085V186.72V186.554L266.932 186.422L267.828 186.355L268.657 186.306L269.419 186.256L279.053 184.565V184.598Z" fill="#101049"/>
<path d="M271.212 182.691C271.212 182.691 272.953 183.338 274.213 183.338C275.473 183.338 277.927 183.305 278.557 183.752C278.872 183.968 279.054 184.233 279.054 184.548C279.054 186.239 275.058 187.267 272.671 187.45C270.283 187.632 270.15 187.616 269.006 187.798C267.879 187.98 266.685 188.08 265.972 187.715C264.728 187.102 264.645 185.245 265.408 184.001C266.171 182.774 271.195 182.691 271.195 182.691H271.212Z" fill="#FBFBF9"/>
<path d="M266.02 181.133C266.02 181.133 265.937 183.023 265.904 183.354C265.887 183.686 265.705 183.985 265.755 184.3C265.838 184.78 266.517 185.543 268.623 185.328C270.165 185.162 271.475 184.183 271.691 183.57C271.873 183.056 271.475 182.956 271.392 182.774C271.276 182.459 271.392 179.657 271.177 180.619" fill="#E8CAAF"/>
<path d="M268.377 175.893C268.377 175.893 268.559 176.672 268.31 177.468C268.062 178.264 267.614 178.811 267.083 179.392C266.569 179.972 265.707 180.668 265.11 181.016C264.513 181.365 263.585 182.061 263.452 182.177C262.971 182.625 262.275 183.719 262.275 183.719V184.051C262.275 184.051 261.595 184.896 260.633 185.344C259.92 185.676 258.594 185.941 257.533 185.527C256.422 185.095 256.239 184.001 256.206 183.769C256.173 183.537 256.206 182.658 256.206 182.658" fill="#101049"/>
<path d="M261.015 177.087C261.015 177.087 263.32 176.357 264.63 175.412C266.42 174.119 267.73 174.45 268.178 175.213C268.626 175.992 268.808 178.562 264.994 180.784C263.486 181.663 262.822 182.393 262.358 183.122C261.993 183.669 261.33 184.366 260.567 184.731C259.921 185.046 259.208 185.129 258.578 185.079C255.958 184.863 255.411 182.21 256.687 180.204C257.964 178.198 261.032 177.07 261.032 177.07L261.015 177.087Z" fill="#FBFBF9"/>
<path d="M257.034 178.264L256.934 180.237C256.934 180.237 256.669 180.685 256.768 181.083C256.901 181.613 258.41 182.641 260.483 181.547C262.804 180.32 262.423 179.508 262.439 179.408C262.207 178.563 262.224 178.364 262.224 177.7" fill="#E8CAAF"/>
<path d="M254.944 159.992C254.646 166.293 256.702 178.845 256.702 178.845C256.702 178.845 257.912 180.818 262.571 178.198C262.571 178.198 263.284 159.345 264.08 154.023C264.312 152.448 264.578 151.055 264.942 149.695C265.805 146.561 266.601 143.61 266.816 139.431C266.965 136.447 266.435 130.362 265.854 125.006C265.274 119.601 264.644 114.925 264.644 114.925C264.644 114.925 259.885 115.074 256.486 111.725C256.486 111.725 250.915 119.269 254.463 127.211C255.276 129.035 255.723 131.008 255.873 133.015C256.072 135.684 256.337 139.349 256.47 142.532C256.685 147.705 257.067 149.181 256.834 149.778C256.602 150.375 255.226 153.691 254.944 159.992Z" fill="black"/>
<path d="M261.461 131.837C263.036 135.883 264.694 145.318 264.959 149.678C265.822 146.545 266.617 143.61 266.833 139.415C266.982 136.43 266.452 130.345 265.871 124.989C264.081 123.597 260.864 121.026 260.864 121.026C260.864 121.026 259.886 127.792 261.477 131.837H261.461Z" fill="black"/>
<path d="M274.841 114.261C274.841 114.261 276.864 122.088 277.245 130.262C277.626 138.437 275.802 150.143 275.421 152.912C275.04 155.681 274.144 160.009 273.365 166.923C272.635 173.423 272.072 181.73 272.072 181.73C272.072 181.73 267.363 184.416 265.522 182.078C265.522 182.078 264.378 163.673 264.909 157.969C265.439 152.265 266.616 151.867 266.467 149.994C266.318 148.12 264.627 133.86 263.731 132.517C262.836 131.174 258.177 124.044 262.687 114.593C262.687 114.593 267.86 115.886 274.841 114.261Z" fill="black"/>
<path d="M266.461 93.5682L266.875 93.3858L267.257 93.5185L277.653 77.551C277.869 77.2359 278.283 77.1199 278.615 77.3022L300.004 89.108L300.585 88.8261L300.883 89.738C300.966 89.937 300.966 90.1526 300.85 90.3515L290.122 106.833C289.89 107.198 289.426 107.314 289.044 107.098L267.108 94.9776C266.925 94.8781 266.826 94.7123 266.809 94.5299L266.494 93.5517L266.461 93.5682Z" fill="#F8FAFF"/>
<path d="M266.744 93.9001L288.681 106.021C289.046 106.22 289.526 106.104 289.759 105.755L300.486 89.2739C300.685 88.9589 300.586 88.5444 300.254 88.362L278.268 76.2247C277.936 76.0423 277.522 76.1418 277.306 76.4568L266.529 93.0213C266.33 93.3197 266.429 93.7343 266.744 93.9001Z" fill="url(#paint79_linear_433_11175)"/>
<path d="M267.786 93.7343L288.38 105.109C288.728 105.308 289.176 105.192 289.391 104.86L299.456 89.4066C299.655 89.1082 299.556 88.7102 299.241 88.5444L278.614 77.1532C278.299 76.9874 277.901 77.0703 277.718 77.3854L267.604 92.9218C267.422 93.2037 267.521 93.585 267.803 93.7508L267.786 93.7343Z" stroke="#F8FAFF" stroke-width="0.15" stroke-miterlimit="10"/>
<path d="M290.488 98.7415C290.488 98.7415 290.969 98.2109 291.069 97.8793C291.168 97.5477 291.234 97.0503 291.632 96.5363C292.047 96.0223 293.208 93.9994 293.456 94.1486C293.688 94.2812 293.937 94.8782 293.738 95.6575C293.556 96.4368 293.224 96.9508 293.208 97.1498C293.208 97.3487 294.551 97.3819 295.38 97.1166C295.827 96.9674 297.17 95.873 297.502 95.5082C297.817 95.5082 297.386 97.8959 297.187 98.6255C297.038 99.2224 295.131 101.129 295.131 101.129" fill="#E8CAAF"/>
<path d="M267.779 90.6169L270.217 88.2624C270.548 87.9473 270.913 87.6986 271.328 87.5162C271.692 87.3504 272.173 87.1183 272.472 86.8696C273.052 86.4053 273.483 85.3441 273.699 84.8964C273.931 84.4487 275.208 83.2218 275.34 82.8901C275.473 82.5585 275.423 81.9284 274.975 81.9616C274.611 81.9947 272.704 83.5368 272.604 83.686L273.533 82.2601C273.533 82.2601 271.643 82.4259 270.548 83.0062C269.454 83.5865 269.172 85.1286 268.741 85.4934C268.31 85.8747 265.375 88.1629 265.375 88.1629" fill="#E8CAAF"/>
<path d="M272.622 66.5245C272.622 66.5245 273.401 69.4096 271.478 71.2004C269.554 72.9911 270.4 67.2707 270.4 67.2707" fill="#2D166D"/>
<path d="M260.829 87.8315L267.478 87.0687L268.473 87.4169C268.473 87.4169 268.058 83.7857 268.373 81.0167C268.44 80.4529 268.937 80.055 269.451 80.2871C270.413 80.7182 271.043 80.5524 271.043 80.5524C272.187 79.8062 272.253 74.9977 272.154 72.693C272.038 70.2721 271.822 67.586 271.822 67.586C271.176 66.8067 265.157 67.5529 263.167 68.9457C261.161 70.3219 261.293 78.3803 261.36 79.8891C261.443 81.398 261.36 84.9795 261.36 84.9795L260.812 87.848L260.829 87.8315Z" fill="#E8CAAF"/>
<path d="M256.933 105.822C257.232 110.017 255.093 114.146 255.093 114.146C255.093 114.146 259.653 117.727 266.849 118.689C272.155 119.402 275.521 117.313 275.521 117.313C275.521 117.313 274.675 113.101 274.327 109.669C274.211 108.541 274.144 107.497 274.178 106.684C274.244 105.324 274.592 102.788 274.907 100.151C275.338 96.5531 275.736 92.7395 275.272 91.3301C274.476 88.8761 268.424 85.0459 268.424 85.0459C268.424 85.0459 261.178 85.5433 261.344 83.4541C261.344 83.4541 257.431 82.8738 255.623 83.7194C253.816 84.565 253.518 89.5062 254.081 93.668C254.629 97.8133 256.635 101.627 256.933 105.838V105.822Z" fill="#FBFBF9"/>
<path d="M268.478 96.0222C268.478 96.0222 269.606 101.428 271.131 105.855C271.131 105.855 271.745 105.888 272.607 105.855L274.332 109.652C274.215 108.524 274.149 107.48 274.182 106.667C274.249 105.308 274.597 102.771 274.912 100.134L274.63 99.1726L268.445 96.0222H268.478Z" fill="#E8E8E8"/>
<path d="M272.254 102.622C272.254 102.622 275.04 108.193 276.167 109.901C277.56 112.023 278.289 112.819 280.893 110.929C280.893 110.929 290.675 101.958 291.587 101.859C292.499 101.776 292.649 101.925 293.66 101.776C294.671 101.627 295.136 101.129 295.136 101.129C295.136 101.129 293.246 98.4929 292.964 96.8845C292.217 97.3654 290.825 98.5261 289.913 99.0567C288.968 99.6204 283.114 102.738 280.047 104.495C279.798 103.931 278.787 100.947 278.571 100.416C278.571 100.433 272.42 102.721 272.271 102.638L272.254 102.622Z" fill="#E8CAAF"/>
<path d="M275.288 91.3134L279.301 101.245C279.301 101.245 275.901 104.777 272.204 104.777C272.204 104.777 268.341 97.4981 268.125 94.1985" fill="#FBFBF9"/>
<path d="M261.395 82.2103L261.047 83.3876C261.047 83.3876 261.047 84.598 262.39 85.1452C264.678 86.0571 268.094 85.5929 268.923 85.3441L268.425 83.7524C268.425 83.7524 263.733 84.4322 261.395 82.2269V82.2103Z" fill="#FBFBF9"/>
<path d="M257.132 69.7912C257.762 65.4801 260.813 61.8157 268.092 63.0427C269.618 63.2914 272.984 64.6179 272.635 67.3538C272.304 70.0896 269.336 69.3103 269.336 72.3612C269.336 74.467 269.618 74.4505 268.805 74.2183C267.329 73.8038 267.247 76.4402 267.296 79.5906C267.329 82.3762 267.644 86.8365 268.905 88.4117C268.656 88.7101 257.63 85.9245 256.303 84.8799C256.121 82.7576 256.568 73.638 257.132 69.7912Z" fill="black"/>
<defs>
<filter id="filter0_d_433_11175" x="481.281" y="399.196" width="65.5078" height="47.7588" filterUnits="userSpaceOnUse" color-interpolation-filters="sRGB">
<feFlood flood-opacity="0" result="BackgroundImageFix"/>
<feColorMatrix in="SourceAlpha" type="matrix" values="0 0 0 0 0 0 0 0 0 0 0 0 0 0 0 0 0 0 127 0" result="hardAlpha"/>
<feOffset/>
<feGaussianBlur stdDeviation="5"/>
<feColorMatrix type="matrix" values="0 0 0 0 0.670588 0 0 0 0 0.882353 0 0 0 0 1 0 0 0 0.75 0"/>
<feBlend mode="normal" in2="BackgroundImageFix" result="effect1_dropShadow_433_11175"/>
<feBlend mode="normal" in="SourceGraphic" in2="effect1_dropShadow_433_11175" result="shape"/>
</filter>
<filter id="filter1_d_433_11175" x="498.875" y="479.1" width="65.5078" height="47.7588" filterUnits="userSpaceOnUse" color-interpolation-filters="sRGB">
<feFlood flood-opacity="0" result="BackgroundImageFix"/>
<feColorMatrix in="SourceAlpha" type="matrix" values="0 0 0 0 0 0 0 0 0 0 0 0 0 0 0 0 0 0 127 0" result="hardAlpha"/>
<feOffset/>
<feGaussianBlur stdDeviation="5"/>
<feColorMatrix type="matrix" values="0 0 0 0 0.670588 0 0 0 0 0.882353 0 0 0 0 1 0 0 0 0.75 0"/>
<feBlend mode="normal" in2="BackgroundImageFix" result="effect1_dropShadow_433_11175"/>
<feBlend mode="normal" in="SourceGraphic" in2="effect1_dropShadow_433_11175" result="shape"/>
</filter>
<filter id="filter2_d_433_11175" x="355.191" y="503.081" width="43.2266" height="34.1478" filterUnits="userSpaceOnUse" color-interpolation-filters="sRGB">
<feFlood flood-opacity="0" result="BackgroundImageFix"/>
<feColorMatrix in="SourceAlpha" type="matrix" values="0 0 0 0 0 0 0 0 0 0 0 0 0 0 0 0 0 0 127 0" result="hardAlpha"/>
<feOffset/>
<feGaussianBlur stdDeviation="5"/>
<feColorMatrix type="matrix" values="0 0 0 0 0.670588 0 0 0 0 0.882353 0 0 0 0 1 0 0 0 0.75 0"/>
<feBlend mode="normal" in2="BackgroundImageFix" result="effect1_dropShadow_433_11175"/>
<feBlend mode="normal" in="SourceGraphic" in2="effect1_dropShadow_433_11175" result="shape"/>
</filter>
<filter id="filter3_d_433_11175" x="20.2188" y="349.472" width="84.9258" height="59.5707" filterUnits="userSpaceOnUse" color-interpolation-filters="sRGB">
<feFlood flood-opacity="0" result="BackgroundImageFix"/>
<feColorMatrix in="SourceAlpha" type="matrix" values="0 0 0 0 0 0 0 0 0 0 0 0 0 0 0 0 0 0 127 0" result="hardAlpha"/>
<feOffset/>
<feGaussianBlur stdDeviation="5"/>
<feColorMatrix type="matrix" values="0 0 0 0 0.670588 0 0 0 0 0.882353 0 0 0 0 1 0 0 0 0.75 0"/>
<feBlend mode="normal" in2="BackgroundImageFix" result="effect1_dropShadow_433_11175"/>
<feBlend mode="normal" in="SourceGraphic" in2="effect1_dropShadow_433_11175" result="shape"/>
</filter>
<filter id="filter4_d_433_11175" x="425.48" y="151.045" width="52.8438" height="39.9843" filterUnits="userSpaceOnUse" color-interpolation-filters="sRGB">
<feFlood flood-opacity="0" result="BackgroundImageFix"/>
<feColorMatrix in="SourceAlpha" type="matrix" values="0 0 0 0 0 0 0 0 0 0 0 0 0 0 0 0 0 0 127 0" result="hardAlpha"/>
<feOffset/>
<feGaussianBlur stdDeviation="5"/>
<feColorMatrix type="matrix" values="0 0 0 0 0.670588 0 0 0 0 0.882353 0 0 0 0 1 0 0 0 0.75 0"/>
<feBlend mode="normal" in2="BackgroundImageFix" result="effect1_dropShadow_433_11175"/>
<feBlend mode="normal" in="SourceGraphic" in2="effect1_dropShadow_433_11175" result="shape"/>
</filter>
<filter id="filter5_d_433_11175" x="70" y="249.13" width="44.7422" height="35.1012" filterUnits="userSpaceOnUse" color-interpolation-filters="sRGB">
<feFlood flood-opacity="0" result="BackgroundImageFix"/>
<feColorMatrix in="SourceAlpha" type="matrix" values="0 0 0 0 0 0 0 0 0 0 0 0 0 0 0 0 0 0 127 0" result="hardAlpha"/>
<feOffset/>
<feGaussianBlur stdDeviation="5"/>
<feColorMatrix type="matrix" values="0 0 0 0 0.670588 0 0 0 0 0.882353 0 0 0 0 1 0 0 0 0.75 0"/>
<feBlend mode="normal" in2="BackgroundImageFix" result="effect1_dropShadow_433_11175"/>
<feBlend mode="normal" in="SourceGraphic" in2="effect1_dropShadow_433_11175" result="shape"/>
</filter>
<filter id="filter6_d_433_11175" x="112.152" y="240.516" width="52.8438" height="39.9843" filterUnits="userSpaceOnUse" color-interpolation-filters="sRGB">
<feFlood flood-opacity="0" result="BackgroundImageFix"/>
<feColorMatrix in="SourceAlpha" type="matrix" values="0 0 0 0 0 0 0 0 0 0 0 0 0 0 0 0 0 0 127 0" result="hardAlpha"/>
<feOffset/>
<feGaussianBlur stdDeviation="5"/>
<feColorMatrix type="matrix" values="0 0 0 0 0.670588 0 0 0 0 0.882353 0 0 0 0 1 0 0 0 0.75 0"/>
<feBlend mode="normal" in2="BackgroundImageFix" result="effect1_dropShadow_433_11175"/>
<feBlend mode="normal" in="SourceGraphic" in2="effect1_dropShadow_433_11175" result="shape"/>
</filter>
<filter id="filter7_d_433_11175" x="156.398" y="108.011" width="210.973" height="136.44" filterUnits="userSpaceOnUse" color-interpolation-filters="sRGB">
<feFlood flood-opacity="0" result="BackgroundImageFix"/>
<feColorMatrix in="SourceAlpha" type="matrix" values="0 0 0 0 0 0 0 0 0 0 0 0 0 0 0 0 0 0 127 0" result="hardAlpha"/>
<feOffset/>
<feGaussianBlur stdDeviation="5"/>
<feColorMatrix type="matrix" values="0 0 0 0 0.494118 0 0 0 0 0.356863 0 0 0 0 0.290196 0 0 0 1 0"/>
<feBlend mode="normal" in2="BackgroundImageFix" result="effect1_dropShadow_433_11175"/>
<feBlend mode="normal" in="SourceGraphic" in2="effect1_dropShadow_433_11175" result="shape"/>
</filter>
<filter id="filter8_d_433_11175" x="294.066" y="224.443" width="210.973" height="136.44" filterUnits="userSpaceOnUse" color-interpolation-filters="sRGB">
<feFlood flood-opacity="0" result="BackgroundImageFix"/>
<feColorMatrix in="SourceAlpha" type="matrix" values="0 0 0 0 0 0 0 0 0 0 0 0 0 0 0 0 0 0 127 0" result="hardAlpha"/>
<feOffset/>
<feGaussianBlur stdDeviation="5"/>
<feColorMatrix type="matrix" values="0 0 0 0 0.494118 0 0 0 0 0.356863 0 0 0 0 0.290196 0 0 0 1 0"/>
<feBlend mode="normal" in2="BackgroundImageFix" result="effect1_dropShadow_433_11175"/>
<feBlend mode="normal" in="SourceGraphic" in2="effect1_dropShadow_433_11175" result="shape"/>
</filter>
<filter id="filter9_d_433_11175" x="119.738" y="306.884" width="210.973" height="136.44" filterUnits="userSpaceOnUse" color-interpolation-filters="sRGB">
<feFlood flood-opacity="0" result="BackgroundImageFix"/>
<feColorMatrix in="SourceAlpha" type="matrix" values="0 0 0 0 0 0 0 0 0 0 0 0 0 0 0 0 0 0 127 0" result="hardAlpha"/>
<feOffset/>
<feGaussianBlur stdDeviation="5"/>
<feColorMatrix type="matrix" values="0 0 0 0 0.495833 0 0 0 0 0.35728 0 0 0 0 0.291302 0 0 0 1 0"/>
<feBlend mode="normal" in2="BackgroundImageFix" result="effect1_dropShadow_433_11175"/>
<feBlend mode="normal" in="SourceGraphic" in2="effect1_dropShadow_433_11175" result="shape"/>
</filter>
<filter id="filter10_d_433_11175" x="265.066" y="0" width="112.008" height="161.403" filterUnits="userSpaceOnUse" color-interpolation-filters="sRGB">
<feFlood flood-opacity="0" result="BackgroundImageFix"/>
<feColorMatrix in="SourceAlpha" type="matrix" values="0 0 0 0 0 0 0 0 0 0 0 0 0 0 0 0 0 0 127 0" result="hardAlpha"/>
<feOffset/>
<feGaussianBlur stdDeviation="5"/>
<feColorMatrix type="matrix" values="0 0 0 0 0.670588 0 0 0 0 0.882353 0 0 0 0 1 0 0 0 0.75 0"/>
<feBlend mode="normal" in2="BackgroundImageFix" result="effect1_dropShadow_433_11175"/>
<feBlend mode="normal" in="SourceGraphic" in2="effect1_dropShadow_433_11175" result="shape"/>
</filter>
<filter id="filter11_d_433_11175" x="393.504" y="187.979" width="107.316" height="162.348" filterUnits="userSpaceOnUse" color-interpolation-filters="sRGB">
<feFlood flood-opacity="0" result="BackgroundImageFix"/>
<feColorMatrix in="SourceAlpha" type="matrix" values="0 0 0 0 0 0 0 0 0 0 0 0 0 0 0 0 0 0 127 0" result="hardAlpha"/>
<feOffset/>
<feGaussianBlur stdDeviation="5"/>
<feColorMatrix type="matrix" values="0 0 0 0 0.670588 0 0 0 0 0.882353 0 0 0 0 1 0 0 0 0.75 0"/>
<feBlend mode="normal" in2="BackgroundImageFix" result="effect1_dropShadow_433_11175"/>
<feBlend mode="normal" in="SourceGraphic" in2="effect1_dropShadow_433_11175" result="shape"/>
</filter>
<filter id="filter12_d_433_11175" x="125.656" y="244.255" width="105.625" height="159.596" filterUnits="userSpaceOnUse" color-interpolation-filters="sRGB">
<feFlood flood-opacity="0" result="BackgroundImageFix"/>
<feColorMatrix in="SourceAlpha" type="matrix" values="0 0 0 0 0 0 0 0 0 0 0 0 0 0 0 0 0 0 127 0" result="hardAlpha"/>
<feOffset/>
<feGaussianBlur stdDeviation="5"/>
<feColorMatrix type="matrix" values="0 0 0 0 0.670588 0 0 0 0 0.882353 0 0 0 0 1 0 0 0 0.75 0"/>
<feBlend mode="normal" in2="BackgroundImageFix" result="effect1_dropShadow_433_11175"/>
<feBlend mode="normal" in="SourceGraphic" in2="effect1_dropShadow_433_11175" result="shape"/>
</filter>
<linearGradient id="paint0_linear_433_11175" x1="529.628" y1="428.975" x2="504.542" y2="409.357" gradientUnits="userSpaceOnUse">
<stop stop-color="#623E91"/>
<stop offset="1" stop-color="#BC89FF"/>
</linearGradient>
<linearGradient id="paint1_linear_433_11175" x1="547.222" y1="508.879" x2="522.136" y2="489.261" gradientUnits="userSpaceOnUse">
<stop stop-color="#623E91"/>
<stop offset="1" stop-color="#BC89FF"/>
</linearGradient>
<linearGradient id="paint2_linear_433_11175" x1="384.763" y1="523.161" x2="371.973" y2="513.145" gradientUnits="userSpaceOnUse">
<stop stop-color="#623E91"/>
<stop offset="1" stop-color="#BC89FF"/>
</linearGradient>
<linearGradient id="paint3_linear_433_11175" x1="84.9309" y1="387.667" x2="49.1629" y2="359.671" gradientUnits="userSpaceOnUse">
<stop stop-color="#623E91"/>
<stop offset="1" stop-color="#BC89FF"/>
</linearGradient>
<linearGradient id="paint4_linear_433_11175" x1="463.156" y1="175.284" x2="445.085" y2="161.117" gradientUnits="userSpaceOnUse">
<stop stop-color="#623E91"/>
<stop offset="1" stop-color="#BC89FF"/>
</linearGradient>
<linearGradient id="paint5_linear_433_11175" x1="100.85" y1="269.89" x2="87.2048" y2="259.224" gradientUnits="userSpaceOnUse">
<stop stop-color="#623E91"/>
<stop offset="1" stop-color="#BC89FF"/>
</linearGradient>
<linearGradient id="paint6_linear_433_11175" x1="149.828" y1="264.755" x2="131.757" y2="250.588" gradientUnits="userSpaceOnUse">
<stop stop-color="#623E91"/>
<stop offset="1" stop-color="#BC89FF"/>
</linearGradient>
<linearGradient id="paint7_linear_433_11175" x1="69.1953" y1="410.78" x2="277.844" y2="424.022" gradientUnits="userSpaceOnUse">
<stop stop-color="#1B6FC9" stop-opacity="0.67"/>
<stop offset="1" stop-color="#1B6FC9"/>
</linearGradient>
<linearGradient id="paint8_linear_433_11175" x1="69.5637" y1="332.949" x2="74.2727" y2="332.949" gradientUnits="userSpaceOnUse">
<stop stop-color="#6499FF"/>
<stop offset="1" stop-color="#382955"/>
</linearGradient>
<linearGradient id="paint9_linear_433_11175" x1="69.489" y1="332.526" x2="74.3663" y2="332.855" gradientUnits="userSpaceOnUse">
<stop stop-color="#1B6FC9" stop-opacity="0.67"/>
<stop offset="1" stop-color="#1B6FC9"/>
</linearGradient>
<linearGradient id="paint10_linear_433_11175" x1="100.388" y1="437.575" x2="105.097" y2="437.575" gradientUnits="userSpaceOnUse">
<stop stop-color="#9AFFFF"/>
<stop offset="1" stop-color="#B0FFFD"/>
</linearGradient>
<linearGradient id="paint11_linear_433_11175" x1="100.313" y1="437.157" x2="105.191" y2="437.486" gradientUnits="userSpaceOnUse">
<stop stop-color="#1B6FC9" stop-opacity="0.67"/>
<stop offset="1" stop-color="#1B6FC9"/>
</linearGradient>
<linearGradient id="paint12_linear_433_11175" x1="396.958" y1="219.173" x2="483.844" y2="223.796" gradientUnits="userSpaceOnUse">
<stop stop-color="#1B6FC9" stop-opacity="0.67"/>
<stop offset="1" stop-color="#1B6FC9"/>
</linearGradient>
<linearGradient id="paint13_linear_433_11175" x1="410.457" y1="180.652" x2="415.166" y2="180.652" gradientUnits="userSpaceOnUse">
<stop stop-color="#9AFFFF"/>
<stop offset="1" stop-color="#B0FFFD"/>
</linearGradient>
<linearGradient id="paint14_linear_433_11175" x1="410.399" y1="180.229" x2="415.293" y2="180.561" gradientUnits="userSpaceOnUse">
<stop stop-color="#1B6FC9" stop-opacity="0.67"/>
<stop offset="1" stop-color="#1B6FC9"/>
</linearGradient>
<linearGradient id="paint15_linear_433_11175" x1="493.884" y1="330.63" x2="580.77" y2="335.254" gradientUnits="userSpaceOnUse">
<stop stop-color="#1B6FC9" stop-opacity="0.67"/>
<stop offset="1" stop-color="#1B6FC9"/>
</linearGradient>
<linearGradient id="paint16_linear_433_11175" x1="507.384" y1="292.11" x2="512.093" y2="292.11" gradientUnits="userSpaceOnUse">
<stop stop-color="#6499FF"/>
<stop offset="1" stop-color="#382955"/>
</linearGradient>
<linearGradient id="paint17_linear_433_11175" x1="507.309" y1="291.687" x2="512.187" y2="292.016" gradientUnits="userSpaceOnUse">
<stop stop-color="#1B6FC9" stop-opacity="0.67"/>
<stop offset="1" stop-color="#1B6FC9"/>
</linearGradient>
<linearGradient id="paint18_linear_433_11175" x1="257.323" y1="191.977" x2="257.323" y2="289.009" gradientUnits="userSpaceOnUse">
<stop stop-color="#9AFFFF" stop-opacity="0"/>
<stop offset="1" stop-color="#B0FFFD"/>
</linearGradient>
<linearGradient id="paint19_linear_433_11175" x1="286.835" y1="288.495" x2="282.11" y2="288.495" gradientUnits="userSpaceOnUse">
<stop stop-color="#9AFFFF"/>
<stop offset="1" stop-color="#B0FFFD"/>
</linearGradient>
<linearGradient id="paint20_linear_433_11175" x1="-0.517483" y1="396.013" x2="122.746" y2="421.078" gradientUnits="userSpaceOnUse">
<stop stop-color="#1B6FC9" stop-opacity="0.67"/>
<stop offset="1" stop-color="#1B6FC9"/>
</linearGradient>
<linearGradient id="paint21_linear_433_11175" x1="122.17" y1="381.664" x2="126.879" y2="381.664" gradientUnits="userSpaceOnUse">
<stop stop-color="#9AFFFF"/>
<stop offset="1" stop-color="#B0FFFD"/>
</linearGradient>
<linearGradient id="paint22_linear_433_11175" x1="122.079" y1="381.246" x2="126.973" y2="381.577" gradientUnits="userSpaceOnUse">
<stop stop-color="#1B6FC9" stop-opacity="0.67"/>
<stop offset="1" stop-color="#1B6FC9"/>
</linearGradient>
<linearGradient id="paint23_linear_433_11175" x1="382.358" y1="281.371" x2="505.621" y2="306.437" gradientUnits="userSpaceOnUse">
<stop stop-color="#1B6FC9" stop-opacity="0.67"/>
<stop offset="1" stop-color="#1B6FC9"/>
</linearGradient>
<linearGradient id="paint24_linear_433_11175" x1="505.029" y1="267.022" x2="509.738" y2="267.022" gradientUnits="userSpaceOnUse">
<stop stop-color="#9AFFFF"/>
<stop offset="1" stop-color="#B0FFFD"/>
</linearGradient>
<linearGradient id="paint25_linear_433_11175" x1="504.954" y1="266.605" x2="509.848" y2="266.936" gradientUnits="userSpaceOnUse">
<stop stop-color="#1B6FC9" stop-opacity="0.67"/>
<stop offset="1" stop-color="#1B6FC9"/>
</linearGradient>
<linearGradient id="paint26_linear_433_11175" x1="334.772" y1="461.935" x2="458.035" y2="487" gradientUnits="userSpaceOnUse">
<stop stop-color="#1B6FC9" stop-opacity="0.67"/>
<stop offset="1" stop-color="#1B6FC9"/>
</linearGradient>
<linearGradient id="paint27_linear_433_11175" x1="357.232" y1="432.04" x2="549.81" y2="452.945" gradientUnits="userSpaceOnUse">
<stop stop-color="#1B6FC9" stop-opacity="0.67"/>
<stop offset="1" stop-color="#1B6FC9"/>
</linearGradient>
<linearGradient id="paint28_linear_433_11175" x1="505.976" y1="494.995" x2="501.25" y2="494.995" gradientUnits="userSpaceOnUse">
<stop stop-color="#9AFFFF"/>
<stop offset="1" stop-color="#B0FFFD"/>
</linearGradient>
<linearGradient id="paint29_linear_433_11175" x1="501.212" y1="494.556" x2="506.086" y2="494.885" gradientUnits="userSpaceOnUse">
<stop stop-color="#1B6FC9" stop-opacity="0.67"/>
<stop offset="1" stop-color="#1B6FC9"/>
</linearGradient>
<linearGradient id="paint30_linear_433_11175" x1="513.075" y1="446.661" x2="517.784" y2="446.661" gradientUnits="userSpaceOnUse">
<stop stop-color="#9AFFFF"/>
<stop offset="1" stop-color="#B0FFFD"/>
</linearGradient>
<linearGradient id="paint31_linear_433_11175" x1="513" y1="446.239" x2="517.895" y2="446.57" gradientUnits="userSpaceOnUse">
<stop stop-color="#1B6FC9" stop-opacity="0.67"/>
<stop offset="1" stop-color="#1B6FC9"/>
</linearGradient>
<linearGradient id="paint32_linear_433_11175" x1="71.398" y1="430.263" x2="372.427" y2="461.899" gradientUnits="userSpaceOnUse">
<stop stop-color="#1B6FC9" stop-opacity="0.67"/>
<stop offset="1" stop-color="#1B6FC9"/>
</linearGradient>
<linearGradient id="paint33_linear_433_11175" x1="326.698" y1="531.971" x2="321.988" y2="531.971" gradientUnits="userSpaceOnUse">
<stop stop-color="#9AFFFF"/>
<stop offset="1" stop-color="#B0FFFD"/>
</linearGradient>
<linearGradient id="paint34_linear_433_11175" x1="333.794" y1="483.637" x2="338.52" y2="483.637" gradientUnits="userSpaceOnUse">
<stop stop-color="#9AFFFF"/>
<stop offset="1" stop-color="#B0FFFD"/>
</linearGradient>
<linearGradient id="paint35_linear_433_11175" x1="272.243" y1="493.913" x2="528.206" y2="546.02" gradientUnits="userSpaceOnUse">
<stop stop-color="#1B6FC9" stop-opacity="0.67"/>
<stop offset="1" stop-color="#1B6FC9"/>
</linearGradient>
<linearGradient id="paint36_linear_433_11175" x1="273.044" y1="503.65" x2="277.753" y2="503.65" gradientUnits="userSpaceOnUse">
<stop stop-color="#9AFFFF"/>
<stop offset="1" stop-color="#B0FFFD"/>
</linearGradient>
<linearGradient id="paint37_linear_433_11175" x1="272.969" y1="503.247" x2="277.864" y2="503.579" gradientUnits="userSpaceOnUse">
<stop stop-color="#1B6FC9" stop-opacity="0.67"/>
<stop offset="1" stop-color="#1B6FC9"/>
</linearGradient>
<linearGradient id="paint38_linear_433_11175" x1="-nan" y1="-nan" x2="-nan" y2="-nan" gradientUnits="userSpaceOnUse">
<stop stop-color="#9AFFFF" stop-opacity="0"/>
<stop offset="1" stop-color="#B0FFFD"/>
</linearGradient>
<linearGradient id="paint39_linear_433_11175" x1="-nan" y1="-nan" x2="-nan" y2="-nan" gradientUnits="userSpaceOnUse">
<stop stop-color="#9AFFFF" stop-opacity="0"/>
<stop offset="1" stop-color="#B0FFFD"/>
</linearGradient>
<linearGradient id="paint40_linear_433_11175" x1="-nan" y1="-nan" x2="-nan" y2="-nan" gradientUnits="userSpaceOnUse">
<stop stop-color="#9AFFFF" stop-opacity="0"/>
<stop offset="1" stop-color="#B0FFFD"/>
</linearGradient>
<linearGradient id="paint41_linear_433_11175" x1="-nan" y1="-nan" x2="-nan" y2="-nan" gradientUnits="userSpaceOnUse">
<stop stop-color="#9AFFFF" stop-opacity="0"/>
<stop offset="1" stop-color="#B0FFFD"/>
</linearGradient>
<linearGradient id="paint42_linear_433_11175" x1="-nan" y1="-nan" x2="-nan" y2="-nan" gradientUnits="userSpaceOnUse">
<stop stop-color="#9AFFFF" stop-opacity="0"/>
<stop offset="1" stop-color="#B0FFFD"/>
</linearGradient>
<linearGradient id="paint43_linear_433_11175" x1="-nan" y1="-nan" x2="-nan" y2="-nan" gradientUnits="userSpaceOnUse">
<stop stop-color="#9AFFFF" stop-opacity="0"/>
<stop offset="1" stop-color="#B0FFFD"/>
</linearGradient>
<linearGradient id="paint44_linear_433_11175" x1="-nan" y1="-nan" x2="-nan" y2="-nan" gradientUnits="userSpaceOnUse">
<stop stop-color="#9AFFFF" stop-opacity="0"/>
<stop offset="1" stop-color="#B0FFFD"/>
</linearGradient>
<linearGradient id="paint45_linear_433_11175" x1="-nan" y1="-nan" x2="-nan" y2="-nan" gradientUnits="userSpaceOnUse">
<stop stop-color="#9AFFFF" stop-opacity="0"/>
<stop offset="1" stop-color="#B0FFFD"/>
</linearGradient>
<linearGradient id="paint46_linear_433_11175" x1="-nan" y1="-nan" x2="-nan" y2="-nan" gradientUnits="userSpaceOnUse">
<stop stop-color="#9AFFFF" stop-opacity="0"/>
<stop offset="1" stop-color="#B0FFFD"/>
</linearGradient>
<linearGradient id="paint47_linear_433_11175" x1="-nan" y1="-nan" x2="-nan" y2="-nan" gradientUnits="userSpaceOnUse">
<stop stop-color="#9AFFFF" stop-opacity="0"/>
<stop offset="1" stop-color="#B0FFFD"/>
</linearGradient>
<linearGradient id="paint48_linear_433_11175" x1="-nan" y1="-nan" x2="-nan" y2="-nan" gradientUnits="userSpaceOnUse">
<stop stop-color="#9AFFFF" stop-opacity="0"/>
<stop offset="1" stop-color="#B0FFFD"/>
</linearGradient>
<linearGradient id="paint49_linear_433_11175" x1="167.808" y1="333.529" x2="352.703" y2="333.529" gradientUnits="userSpaceOnUse">
<stop stop-color="#93693F"/>
<stop offset="0.932292" stop-color="#D3B08B"/>
</linearGradient>
<linearGradient id="paint50_linear_433_11175" x1="167.808" y1="276.075" x2="352.686" y2="276.075" gradientUnits="userSpaceOnUse">
<stop stop-color="#93693F"/>
<stop offset="0.932292" stop-color="#D3B08B"/>
</linearGradient>
<linearGradient id="paint51_linear_433_11175" x1="167.808" y1="176.225" x2="352.703" y2="176.225" gradientUnits="userSpaceOnUse">
<stop stop-color="#93693F"/>
<stop offset="0.932292" stop-color="#D3B08B"/>
</linearGradient>
<linearGradient id="paint52_linear_433_11175" x1="305.476" y1="409.189" x2="490.371" y2="409.189" gradientUnits="userSpaceOnUse">
<stop stop-color="#93693F"/>
<stop offset="0.932292" stop-color="#D3B08B"/>
</linearGradient>
<linearGradient id="paint53_linear_433_11175" x1="305.476" y1="372.124" x2="490.354" y2="372.124" gradientUnits="userSpaceOnUse">
<stop stop-color="#93693F"/>
<stop offset="0.932292" stop-color="#D3B08B"/>
</linearGradient>
<linearGradient id="paint54_linear_433_11175" x1="305.476" y1="292.657" x2="490.371" y2="292.657" gradientUnits="userSpaceOnUse">
<stop stop-color="#93693F"/>
<stop offset="0.932292" stop-color="#D3B08B"/>
</linearGradient>
<linearGradient id="paint55_linear_433_11175" x1="131.148" y1="443.379" x2="316.042" y2="443.379" gradientUnits="userSpaceOnUse">
<stop stop-color="#93693F"/>
<stop offset="0.932292" stop-color="#D3B08B"/>
</linearGradient>
<linearGradient id="paint56_linear_433_11175" x1="131.148" y1="428.892" x2="316.026" y2="428.892" gradientUnits="userSpaceOnUse">
<stop stop-color="#93693F"/>
<stop offset="0.932292" stop-color="#D3B08B"/>
</linearGradient>
<linearGradient id="paint57_linear_433_11175" x1="131.148" y1="375.098" x2="316.042" y2="375.098" gradientUnits="userSpaceOnUse">
<stop stop-color="#93693F"/>
<stop offset="0.932292" stop-color="#D3B08B"/>
</linearGradient>
<linearGradient id="paint58_linear_433_11175" x1="403.065" y1="228.322" x2="427.887" y2="228.322" gradientUnits="userSpaceOnUse">
<stop stop-color="#66BBF2"/>
<stop offset="1" stop-color="#7AF4FD"/>
</linearGradient>
<linearGradient id="paint59_linear_433_11175" x1="352.599" y1="110.753" x2="278.042" y2="87.6106" gradientUnits="userSpaceOnUse">
<stop stop-color="#623E91"/>
<stop offset="1" stop-color="#BC89FF"/>
</linearGradient>
<linearGradient id="paint60_linear_433_11175" x1="349.794" y1="119.103" x2="288.364" y2="90.4255" gradientUnits="userSpaceOnUse">
<stop stop-color="#623E91"/>
<stop offset="1" stop-color="#BC89FF"/>
</linearGradient>
<linearGradient id="paint61_linear_433_11175" x1="350.103" y1="107.82" x2="281.396" y2="86.0387" gradientUnits="userSpaceOnUse">
<stop stop-color="#623E91"/>
<stop offset="1" stop-color="#BC89FF"/>
</linearGradient>
<linearGradient id="paint62_linear_433_11175" x1="477.082" y1="299.406" x2="405.629" y2="278.497" gradientUnits="userSpaceOnUse">
<stop stop-color="#623E91"/>
<stop offset="1" stop-color="#BC89FF"/>
</linearGradient>
<linearGradient id="paint63_linear_433_11175" x1="474.677" y1="298.501" x2="409.701" y2="278.401" gradientUnits="userSpaceOnUse">
<stop stop-color="#623E91"/>
<stop offset="1" stop-color="#BC89FF"/>
</linearGradient>
<linearGradient id="paint64_linear_433_11175" x1="425.297" y1="301.681" x2="413.34" y2="300.626" gradientUnits="userSpaceOnUse">
<stop stop-color="#623E91"/>
<stop offset="1" stop-color="#BC89FF"/>
</linearGradient>
<linearGradient id="paint65_linear_433_11175" x1="443.736" y1="296.307" x2="431.879" y2="294.853" gradientUnits="userSpaceOnUse">
<stop stop-color="#623E91"/>
<stop offset="1" stop-color="#BC89FF"/>
</linearGradient>
<linearGradient id="paint66_linear_433_11175" x1="462.173" y1="282.529" x2="450.271" y2="281.275" gradientUnits="userSpaceOnUse">
<stop stop-color="#623E91"/>
<stop offset="1" stop-color="#BC89FF"/>
</linearGradient>
<linearGradient id="paint67_linear_433_11175" x1="480.601" y1="278.252" x2="468.938" y2="276.209" gradientUnits="userSpaceOnUse">
<stop stop-color="#623E91"/>
<stop offset="1" stop-color="#BC89FF"/>
</linearGradient>
<linearGradient id="paint68_linear_433_11175" x1="543.081" y1="265.106" x2="528.061" y2="260.709" gradientUnits="userSpaceOnUse">
<stop stop-color="#623E91"/>
<stop offset="1" stop-color="#B280F3"/>
</linearGradient>
<linearGradient id="paint69_linear_433_11175" x1="276.496" y1="328.362" x2="261.488" y2="323.973" gradientUnits="userSpaceOnUse">
<stop stop-color="#623E91"/>
<stop offset="1" stop-color="#B280F3"/>
</linearGradient>
<linearGradient id="paint70_linear_433_11175" x1="223.986" y1="102.662" x2="203.822" y2="96.7629" gradientUnits="userSpaceOnUse">
<stop stop-color="#623E91"/>
<stop offset="1" stop-color="#B280F3"/>
</linearGradient>
<linearGradient id="paint71_linear_433_11175" x1="131.084" y1="175.28" x2="121.031" y2="172.336" gradientUnits="userSpaceOnUse">
<stop stop-color="#623E91"/>
<stop offset="1" stop-color="#B280F3"/>
</linearGradient>
<linearGradient id="paint72_linear_433_11175" x1="90.3513" y1="427.333" x2="80.3108" y2="424.394" gradientUnits="userSpaceOnUse">
<stop stop-color="#623E91"/>
<stop offset="1" stop-color="#B280F3"/>
</linearGradient>
<linearGradient id="paint73_linear_433_11175" x1="398.941" y1="105.291" x2="388.899" y2="102.354" gradientUnits="userSpaceOnUse">
<stop stop-color="#623E91"/>
<stop offset="1" stop-color="#B280F3"/>
</linearGradient>
<linearGradient id="paint74_linear_433_11175" x1="98.6666" y1="232.093" x2="83.6468" y2="227.696" gradientUnits="userSpaceOnUse">
<stop stop-color="#623E91"/>
<stop offset="1" stop-color="#B280F3"/>
</linearGradient>
<linearGradient id="paint75_linear_433_11175" x1="207.809" y1="353.721" x2="137.74" y2="333.218" gradientUnits="userSpaceOnUse">
<stop stop-color="#623E91"/>
<stop offset="1" stop-color="#BC89FF"/>
</linearGradient>
<linearGradient id="paint76_linear_433_11175" x1="198.784" y1="353.438" x2="163.171" y2="328.775" gradientUnits="userSpaceOnUse">
<stop stop-color="#623E91"/>
<stop offset="1" stop-color="#BC89FF"/>
</linearGradient>
<linearGradient id="paint77_linear_433_11175" x1="198.784" y1="361.778" x2="163.171" y2="337.115" gradientUnits="userSpaceOnUse">
<stop stop-color="#623E91"/>
<stop offset="1" stop-color="#BC89FF"/>
</linearGradient>
<linearGradient id="paint78_linear_433_11175" x1="187.652" y1="319.737" x2="156.871" y2="307.096" gradientUnits="userSpaceOnUse">
<stop stop-color="#623E91"/>
<stop offset="1" stop-color="#BC89FF"/>
</linearGradient>
<linearGradient id="paint79_linear_433_11175" x1="295.214" y1="97.4981" x2="271.785" y2="84.7639" gradientUnits="userSpaceOnUse">
<stop stop-color="#3660CD"/>
<stop offset="0.75" stop-color="#62ADEF"/>
<stop offset="1" stop-color="#72C9FC"/>
</linearGradient>
</defs>
</svg>
