<svg width="145" height="145" viewBox="0 0 145 145" fill="none" xmlns="http://www.w3.org/2000/svg">
<path d="M98.1758 35.6261C94.1321 31.9813 89.3562 29.2427 84.1681 27.5938C78.9799 25.9448 73.4993 25.4237 68.0933 26.0651C59.6593 27.0745 51.7906 30.8269 45.6974 36.7449C39.6041 42.663 35.624 50.419 34.369 58.8199C33.2317 66.5938 34.5084 74.5295 38.0266 81.5544C41.5448 88.5793 47.135 94.3547 54.0415 98.1C55.1066 98.6826 55.9953 99.5412 56.6143 100.586C57.2333 101.63 57.5598 102.822 57.5595 104.036V117.655C57.5638 119.056 58.0017 120.422 58.813 121.564C59.6243 122.706 60.7693 123.569 62.0908 124.034V125.53C62.0908 128.29 63.1874 130.938 65.1394 132.89C67.0914 134.842 69.7389 135.938 72.4995 135.938C75.2601 135.938 77.9076 134.842 79.8596 132.89C81.8116 130.938 82.9082 128.29 82.9082 125.53V124.036C84.2297 123.57 85.3747 122.707 86.186 121.565C86.9973 120.423 87.4352 119.057 87.4395 117.656V104.038C87.4334 102.831 87.7528 101.644 88.3641 100.604C88.9754 99.5631 89.856 98.7065 90.9131 98.1242C91.1792 97.9846 91.4148 97.7933 91.6062 97.5617C91.7977 97.3301 91.9411 97.0627 92.0283 96.7752C92.1154 96.4876 92.1444 96.1855 92.1137 95.8866C92.083 95.5877 91.9931 95.2979 91.8493 95.034C91.7055 94.7702 91.5107 94.5376 91.2761 94.3498C91.0415 94.1619 90.772 94.0227 90.4831 93.94C90.1942 93.8574 89.8917 93.833 89.5933 93.8684C89.2949 93.9038 89.0065 93.9981 88.7449 94.146C86.9725 95.1176 85.4948 96.5491 84.4677 98.2899C83.4405 100.031 82.9017 102.016 82.9082 104.038V106.91H62.0908V104.036C62.0912 102.009 61.546 100.019 60.5124 98.2748C59.4788 96.5308 57.995 95.0971 56.2164 94.124C49.9071 90.6806 44.8519 85.3254 41.7776 78.8282C38.7032 72.3309 37.768 65.0263 39.1064 57.9641C40.4447 50.9019 43.9877 44.4459 49.2261 39.524C54.4644 34.6021 61.1284 31.4678 68.2602 30.5715C75.392 29.6753 82.6243 31.0633 88.9176 34.536C95.2109 38.0088 100.241 43.3874 103.285 49.8989C106.329 56.4103 107.231 63.7192 105.859 70.7751C104.488 77.831 100.915 84.2705 95.6542 89.168C95.2141 89.5773 94.9546 90.1446 94.9328 90.7453C94.911 91.3459 95.1287 91.9306 95.538 92.3707C95.9473 92.8108 96.5146 93.0703 97.1152 93.0921C97.7159 93.1139 98.3005 92.8962 98.7406 92.4869C102.66 88.8425 105.775 84.4205 107.888 79.5036C110.001 74.5866 111.065 69.2829 111.012 63.9314C110.959 58.5799 109.789 53.2985 107.579 48.4246C105.368 43.5507 102.167 39.1916 98.1758 35.6261ZM72.4995 131.406C70.9412 131.405 69.4472 130.785 68.3453 129.683C67.2434 128.581 66.6236 127.087 66.622 125.529V124.452H78.377V125.529C78.3754 127.087 77.7556 128.581 76.6537 129.683C75.5518 130.785 74.0578 131.405 72.4995 131.406ZM82.9082 111.442V117.655C82.9075 118.256 82.6685 118.832 82.2438 119.257C81.8191 119.681 81.2432 119.92 80.6426 119.921H64.3564C63.7557 119.92 63.1799 119.681 62.7552 119.257C62.3305 118.832 62.0915 118.256 62.0908 117.655V111.442H82.9082Z" fill="#603C93"/>
<path d="M72.5 20.9516C73.1009 20.9516 73.6772 20.7129 74.102 20.288C74.5269 19.8631 74.7656 19.2868 74.7656 18.686V11.3281C74.7656 10.7272 74.5269 10.151 74.102 9.72609C73.6772 9.3012 73.1009 9.0625 72.5 9.0625C71.8991 9.0625 71.3228 9.3012 70.898 9.72609C70.4731 10.151 70.2344 10.7272 70.2344 11.3281V18.686C70.2344 19.2868 70.4731 19.8631 70.898 20.288C71.3228 20.7129 71.8991 20.9516 72.5 20.9516Z" fill="#603C93"/>
<path d="M114.151 27.6433L108.948 32.8461C108.536 33.2734 108.307 33.8457 108.313 34.4398C108.318 35.0338 108.556 35.6021 108.976 36.0221C109.396 36.4422 109.964 36.6805 110.558 36.6856C111.152 36.6908 111.725 36.4624 112.152 36.0497L117.355 30.8469C117.768 30.4196 117.996 29.8473 117.991 29.2533C117.986 28.6593 117.747 28.091 117.327 27.6709C116.907 27.2509 116.339 27.0126 115.745 27.0074C115.151 27.0023 114.579 27.2306 114.151 27.6433Z" fill="#603C93"/>
<path d="M133.67 70.2344H126.312C125.712 70.2344 125.135 70.4731 124.71 70.898C124.286 71.3228 124.047 71.8991 124.047 72.5C124.047 73.1009 124.286 73.6772 124.71 74.102C125.135 74.5269 125.712 74.7656 126.312 74.7656H133.67C134.271 74.7656 134.847 74.5269 135.272 74.102C135.697 73.6772 135.936 73.1009 135.936 72.5C135.936 71.8991 135.697 71.3228 135.272 70.898C134.847 70.4731 134.271 70.2344 133.67 70.2344Z" fill="#603C93"/>
<path d="M112.152 108.95C111.725 108.538 111.152 108.309 110.558 108.314C109.964 108.32 109.396 108.558 108.976 108.978C108.556 109.398 108.318 109.966 108.313 110.56C108.307 111.154 108.536 111.727 108.948 112.154L114.151 117.357C114.579 117.769 115.151 117.998 115.745 117.993C116.339 117.987 116.907 117.749 117.327 117.329C117.747 116.909 117.986 116.341 117.991 115.747C117.996 115.153 117.768 114.58 117.355 114.153L112.152 108.95Z" fill="#603C93"/>
<path d="M32.8466 36.0497C33.2739 36.4624 33.8462 36.6908 34.4402 36.6856C35.0343 36.6805 35.6025 36.4422 36.0226 36.0221C36.4426 35.6021 36.6809 35.0338 36.6861 34.4398C36.6912 33.8457 36.4629 33.2734 36.0502 32.8461L30.8474 27.6433C30.4201 27.2306 29.8478 27.0023 29.2538 27.0074C28.6597 27.0126 28.0915 27.2509 27.6714 27.6709C27.2513 28.091 27.0131 28.6593 27.0079 29.2533C27.0027 29.8473 27.2311 30.4196 27.6438 30.8469L32.8466 36.0497Z" fill="#603C93"/>
<path d="M18.686 70.2344H11.3281C10.7272 70.2344 10.151 70.4731 9.72609 70.898C9.3012 71.3228 9.0625 71.8991 9.0625 72.5C9.0625 73.1009 9.3012 73.6772 9.72609 74.102C10.151 74.5269 10.7272 74.7656 11.3281 74.7656H18.686C19.2868 74.7656 19.8631 74.5269 20.288 74.102C20.7129 73.6772 20.9516 73.1009 20.9516 72.5C20.9516 71.8991 20.7129 71.3228 20.288 70.898C19.8631 70.4731 19.2868 70.2344 18.686 70.2344Z" fill="#603C93"/>
<path d="M32.8466 108.95L27.6438 114.153C27.2311 114.58 27.0027 115.153 27.0079 115.747C27.0131 116.341 27.2513 116.909 27.6714 117.329C28.0915 117.749 28.6597 117.987 29.2538 117.993C29.8478 117.998 30.4201 117.769 30.8474 117.357L36.0502 112.154C36.4629 111.727 36.6912 111.154 36.6861 110.56C36.6809 109.966 36.4426 109.398 36.0226 108.978C35.6025 108.558 35.0343 108.32 34.4402 108.314C33.8462 108.309 33.2739 108.538 32.8466 108.95Z" fill="#603C93"/>
<path d="M86.6071 51.7587C86.1822 51.3339 85.606 51.0952 85.0052 51.0952C84.4044 51.0952 83.8282 51.3339 83.4033 51.7587L67.2806 67.8813L61.5989 62.2007C61.174 61.7759 60.5978 61.5373 59.997 61.5373C59.3962 61.5373 58.82 61.7759 58.3951 62.2007L51.9877 68.6081C51.5629 69.033 51.3242 69.6092 51.3242 70.21C51.3242 70.8109 51.5629 71.3871 51.9877 71.8119L55.2921 75.1164C55.7188 75.5324 56.2922 75.7635 56.8881 75.7597C57.4839 75.756 58.0544 75.5176 58.4757 75.0962C58.8971 74.6748 59.1355 74.1044 59.1393 73.5085C59.1431 72.9126 58.9119 72.3392 58.4959 71.9125L56.7933 70.2101L59.9971 67.0063L65.6788 72.6869C66.1037 73.1117 66.6799 73.3503 67.2806 73.3503C67.8814 73.3503 68.4576 73.1117 68.8824 72.6869L85.0051 56.5643L88.2089 59.7672L67.2806 80.6955L64.1489 77.5646C63.7239 77.1397 63.1475 76.9011 62.5466 76.9012C61.9456 76.9013 61.3693 77.1402 60.9445 77.5652C60.5196 77.9902 60.281 78.5665 60.2811 79.1675C60.2812 79.7684 60.52 80.3447 60.9451 80.7695L65.6788 85.5022C66.1037 85.9269 66.6799 86.1656 67.2806 86.1656C67.8814 86.1656 68.4576 85.9269 68.8824 85.5022L93.0145 61.3699C93.4393 60.945 93.678 60.3688 93.678 59.768C93.678 59.1672 93.4393 58.591 93.0145 58.1661L86.6071 51.7587Z" fill="#603C93"/>
</svg>
