<svg width="119" height="120" viewBox="0 0 119 120" fill="none" xmlns="http://www.w3.org/2000/svg">
<path d="M15.4138 62.0344H27.4339C28.1976 62.0344 28.8182 61.4039 28.8182 60.6281V35.4141C28.8182 34.6383 28.1976 34.0078 27.4339 34.0078H15.4138C14.6501 34.0078 14.0295 34.6383 14.0295 35.4141V60.6281C14.0295 61.4039 14.6501 62.0344 15.4138 62.0344ZM16.7981 36.8203H26.0497V59.2219H16.7981V36.8203ZM115.587 87.7641C115.492 87.15 115.013 86.6719 114.406 86.5875L111.446 86.1797C110.945 84.2391 110.193 82.3898 109.199 80.6625L111.007 78.2484C111.379 77.7539 111.386 77.0695 111.024 76.568C109.455 74.3836 107.57 72.4687 105.42 70.875C104.926 70.5094 104.252 70.5164 103.765 70.8914L101.389 72.7289C99.6886 71.7187 97.8683 70.9523 95.958 70.4461L95.5565 67.4391C95.4735 66.8226 95.0028 66.3352 94.3984 66.2391C93.5424 66.1031 92.6818 66.0164 91.819 65.9672V33.4523C91.819 30.1289 89.1566 27.4242 85.885 27.4242H80.8324V3.75C80.8324 2.97422 80.2118 2.34375 79.4482 2.34375H67.428C66.6644 2.34375 66.0437 2.97422 66.0437 3.75V27.4242H63.4944V12.9961C63.4944 12.2203 62.8737 11.5898 62.1101 11.5898H50.0899C49.3263 11.5898 48.7057 12.2203 48.7057 12.9961V27.4242H46.1563V23.3625C46.1563 22.5867 45.5357 21.9562 44.772 21.9562H32.7519C31.9882 21.9562 31.3676 22.5867 31.3676 23.3625V27.4242H8.9769C5.7054 27.4242 3.04297 30.1289 3.04297 33.4523V87.5789C3.04297 90.9023 5.7054 93.607 8.9769 93.607H32.2512V98.9883H15.2131C13.7619 98.9883 12.5829 100.188 12.5829 101.66V105.581C12.5829 107.055 13.7642 108.253 15.2131 108.253H70.7987C72.1599 109.927 73.7172 111.422 75.4499 112.706C75.9436 113.072 76.6173 113.067 77.1041 112.69L79.4805 110.852C81.1808 111.862 83.0011 112.629 84.9137 113.135L85.3152 116.14C85.3982 116.756 85.8689 117.244 86.4734 117.34C87.7884 117.548 89.115 117.654 90.4393 117.654C91.7636 117.654 93.0879 117.548 94.403 117.34C95.0074 117.244 95.4781 116.756 95.5611 116.14L95.9626 113.135C97.8729 112.627 99.6932 111.862 101.394 110.85L103.77 112.687C104.257 113.065 104.93 113.072 105.424 112.704C107.574 111.11 109.462 109.195 111.028 107.011C111.388 106.509 111.381 105.825 111.012 105.33L109.203 102.916C110.198 101.189 110.952 99.3398 111.45 97.3969L114.41 96.9891C115.017 96.9047 115.497 96.4266 115.592 95.8125C116.005 93.1406 116.005 90.4289 115.592 87.7594L115.587 87.7641ZM68.8123 5.15625H78.0639V59.2219H68.8123V5.15625ZM51.4742 14.4023H60.7258V59.2219H51.4742V14.4023ZM34.1361 24.7687H43.3877V59.2219H34.1361V24.7687ZM8.9769 30.2367H31.3676V60.6281C31.3676 61.4039 31.9882 62.0344 32.7519 62.0344H44.772C45.5357 62.0344 46.1563 61.4039 46.1563 60.6281V30.2367H48.7057V60.6281C48.7057 61.4039 49.3263 62.0344 50.0899 62.0344H62.1101C62.8737 62.0344 63.4944 61.4039 63.4944 60.6281V30.2367H66.0437V60.6281C66.0437 61.4039 66.6644 62.0344 67.428 62.0344H79.4482C80.2118 62.0344 80.8324 61.4039 80.8324 60.6281V30.2367H85.885C87.6292 30.2367 89.0504 31.6781 89.0504 33.4523V65.9672C88.1876 66.0141 87.327 66.1031 86.4711 66.2391C85.8666 66.3352 85.3959 66.8226 85.3129 67.4391L84.9114 70.4461C83.0011 70.9547 81.1808 71.7187 79.4805 72.7289L77.1041 70.8914C76.6173 70.5141 75.9436 70.507 75.4499 70.875C73.2997 72.4687 71.4124 74.3859 69.8459 76.568C69.486 77.0695 69.4929 77.7539 69.862 78.2484L71.4401 80.3555H5.81152V33.4523C5.81152 31.6805 7.23041 30.2367 8.9769 30.2367ZM5.81152 87.5789V83.1656H70.4342C70.0258 84.1406 69.6867 85.1461 69.4214 86.1797L66.4636 86.5875C65.8569 86.6719 65.377 87.15 65.2824 87.7641C65.1278 88.7695 65.0309 89.782 64.9917 90.7945H8.9769C7.23272 90.7945 5.81152 89.3531 5.81152 87.5789ZM65.0378 93.607C65.0886 94.3453 65.167 95.0836 65.2824 95.8172C65.377 96.4312 65.8569 96.9094 66.4636 96.9937L69.4214 97.4016C69.5598 97.9383 69.719 98.468 69.8966 98.9883H62.6107V93.607H65.0378ZM35.0175 93.607H59.8422V98.9883H35.0175V93.607ZM69.8597 105.333C69.8344 105.368 69.8136 105.405 69.7905 105.441H15.3515V101.801H71.071C71.2602 102.178 71.4586 102.551 71.6685 102.919L69.8597 105.333ZM112.987 94.35L110.133 94.7437C109.554 94.8234 109.088 95.2641 108.966 95.843C108.483 98.1305 107.607 100.282 106.361 102.241C106.045 102.738 106.068 103.385 106.421 103.856L108.165 106.184C107.113 107.52 105.918 108.734 104.603 109.802L102.31 108.03C101.846 107.672 101.209 107.646 100.718 107.97C98.7911 109.237 96.6732 110.128 94.4214 110.618C93.8516 110.742 93.4178 111.216 93.3394 111.804L92.9518 114.703C91.2768 114.893 89.588 114.893 87.913 114.703L87.5254 111.804C87.447 111.216 87.0132 110.742 86.4434 110.618C84.1916 110.128 82.0737 109.237 80.1449 107.972C79.6558 107.651 79.019 107.674 78.5553 108.033L76.2643 109.805C74.9493 108.736 73.7542 107.522 72.7021 106.186L74.4463 103.859C74.7993 103.387 74.8247 102.741 74.5063 102.244C73.2581 100.287 72.3814 98.1328 71.8992 95.8477C71.777 95.2687 71.3109 94.8281 70.7318 94.7484L67.8779 94.3547C67.691 92.6531 67.691 90.9375 67.8779 89.2359L70.7318 88.8422C71.3109 88.7625 71.777 88.3219 71.8992 87.743C72.3814 85.4555 73.2581 83.3016 74.504 81.3445C74.8201 80.8477 74.797 80.2008 74.444 79.7297L72.6998 77.4023C73.7519 76.0664 74.947 74.8523 76.262 73.7836L78.553 75.5555C79.0167 75.9141 79.6535 75.9398 80.1449 75.6164C82.0714 74.3484 84.1893 73.4578 86.4411 72.968C87.0109 72.8437 87.4447 72.3703 87.5231 71.782L87.9107 68.8828C89.5857 68.693 91.2745 68.693 92.9495 68.8828L93.3371 71.782C93.4155 72.3703 93.8493 72.8437 94.4191 72.968C96.6709 73.4578 98.7888 74.3484 100.715 75.6164C101.204 75.9398 101.841 75.9141 102.307 75.5555L104.6 73.7836C105.918 74.8547 107.111 76.0664 108.163 77.4023L106.416 79.732C106.063 80.2031 106.038 80.85 106.356 81.3469C107.604 83.3039 108.481 85.4555 108.963 87.743C109.086 88.3219 109.552 88.7625 110.131 88.8422L112.985 89.2359C113.171 90.9375 113.171 92.6531 112.985 94.3547L112.987 94.35ZM90.4324 79.8562C87.2947 79.8562 84.3439 81.0984 82.1267 83.3508C77.5471 88.0031 77.5471 95.5734 82.1267 100.228C84.4177 102.555 87.4262 103.718 90.4324 103.718C93.4386 103.718 96.4494 102.555 98.7381 100.228C101.027 97.9008 102.178 94.9781 102.178 91.7906C102.178 88.6031 100.955 85.6055 98.7381 83.3531C96.5186 81.0984 93.5701 79.8586 90.4324 79.8586V79.8562ZM96.7816 98.2406C93.2817 101.796 87.5854 101.796 84.0832 98.2406C80.5833 94.6852 80.5833 88.8984 84.0832 85.3406C85.7789 83.618 88.033 82.6687 90.4324 82.6687C92.8318 82.6687 95.0859 83.618 96.7816 85.3406C98.4774 87.0633 99.4117 89.3531 99.4117 91.7906C99.4117 94.2281 98.4774 96.518 96.7816 98.2406ZM14.0295 67.5328C14.0295 66.757 14.6501 66.1266 15.4138 66.1266H42.7256C43.4892 66.1266 44.1099 66.757 44.1099 67.5328C44.1099 68.3086 43.4892 68.9391 42.7256 68.9391H15.4138C14.6501 68.9391 14.0295 68.3086 14.0295 67.5328ZM14.0295 74.3719C14.0295 73.5961 14.6501 72.9656 15.4138 72.9656H50.3437C51.1074 72.9656 51.728 73.5961 51.728 74.3719C51.728 75.1477 51.1074 75.7781 50.3437 75.7781H15.4138C14.6501 75.7781 14.0295 75.1477 14.0295 74.3719Z" fill="#623E91"/>
</svg>
