<svg width="119" height="120" viewBox="0 0 119 120" fill="none" xmlns="http://www.w3.org/2000/svg">
<path d="M79.9258 64.4028C79.9204 62.675 79.2419 61.0196 78.0386 59.7986C78.1778 59.201 78.248 58.5889 78.2477 57.9748C78.213 56.7524 77.9211 55.5516 77.3916 54.4533C76.8621 53.355 76.1073 52.3845 75.1779 51.6072C74.2485 50.8298 73.1661 50.2636 72.0034 49.9465C70.8407 49.6295 69.6246 49.5689 68.437 49.769C67.4985 48.2576 66.1973 47.0132 64.6555 46.1528C63.1138 45.2923 61.3821 44.844 59.623 44.8499C57.5578 44.8285 55.5342 45.441 53.8172 46.6072C52.1002 47.7733 50.7697 49.4389 49.9998 51.3858C48.4504 51.6341 47.0362 52.4276 46.0043 53.6277C44.9724 54.8277 44.3885 56.358 44.3545 57.9511C42.9333 58.3134 41.6695 59.1421 40.7592 60.3087C39.849 61.4752 39.3432 62.9144 39.3203 64.4028C39.3611 66.2168 40.1082 67.9404 41.3978 69.1957C42.6875 70.4511 44.4145 71.1358 46.2002 71.0999H73.0459C74.8316 71.1358 76.5586 70.4511 77.8482 69.1957C79.1379 67.9404 79.885 66.2168 79.9258 64.4028ZM69.8375 60.2811C68.416 60.8142 67.1901 61.7781 66.3257 63.0425C65.4614 64.3068 65.0004 65.8105 65.0052 67.3498H46.2002C45.3935 67.3856 44.6055 67.0959 44.0082 66.5438C43.4108 65.9917 43.0526 65.2221 43.0117 64.4028C43.0326 63.7662 43.2529 63.153 43.6406 62.6524C44.0284 62.1519 44.5633 61.7902 45.1675 61.62V61.7204C46.1305 61.7376 47.0476 62.142 47.7176 62.8449C48.3876 63.5479 48.7559 64.492 48.7417 65.4704H52.4331C52.435 64.0438 52.0365 62.6462 51.2843 61.4416C50.5321 60.2369 49.4574 59.2751 48.1862 58.6689C48.1091 58.445 48.062 58.2116 48.046 57.9749C48.0767 57.1811 48.4085 56.43 48.9719 55.879C49.5353 55.328 50.2867 55.0197 51.0687 55.0187C51.1336 55.0279 51.276 55.0416 51.3409 55.0434C51.775 55.0643 52.202 54.926 52.5441 54.6538C52.8862 54.3815 53.1206 53.9935 53.2046 53.5603C53.5607 52.1158 54.3903 50.8375 55.5569 49.9358C56.7236 49.0342 58.1576 48.563 59.623 48.5999C60.6677 48.5955 61.6988 48.8401 62.6335 49.3139C63.5682 49.7878 64.3805 50.4777 65.0051 51.3284V52.9395C65.0178 53.7632 64.7085 54.5585 64.1449 55.1509C63.5813 55.7434 62.8095 56.0846 61.9986 56.0998H59.623V59.8498H61.9987C63.6781 59.8327 65.2905 59.1778 66.5187 58.014C67.7469 56.8502 68.5021 55.2617 68.6356 53.5609C68.9808 53.475 69.3343 53.4281 69.6897 53.421C70.9286 53.3728 72.1359 53.8247 73.0478 54.678C73.9597 55.5313 74.5021 56.7166 74.5563 57.9748C74.5562 58.5597 74.4353 59.1379 74.2012 59.6722C74.0239 60.0801 73.9957 60.5388 74.1215 60.9659C74.2474 61.393 74.5192 61.7605 74.888 62.0023C75.2922 62.2559 75.6274 62.6086 75.8626 63.028C76.0979 63.4474 76.2257 63.9201 76.2344 64.4028C76.1935 65.2221 75.8353 65.9917 75.238 66.5438C74.6406 67.0959 73.8526 67.3857 73.0459 67.3499H68.6965C68.6904 66.5812 68.9169 65.8293 69.3454 65.1957C69.7738 64.5622 70.3835 64.0776 71.092 63.8077L69.8375 60.2811Z" fill="#623E91"/>
<path d="M10.0756 89.0625C13.4101 94.9256 20.5406 98.0456 30.3982 98.0447C31.878 98.0447 33.4179 97.9742 35.0178 97.8332C36.0875 97.7383 37.1889 97.5782 38.288 97.4218C43.3276 110.146 50.9507 118.125 59.6266 118.125C64.265 118.125 68.7762 115.758 72.7571 111.313C73.3224 111.516 73.9169 111.624 74.5166 111.631C75.9846 111.63 77.3921 111.036 78.4302 109.982C79.4682 108.927 80.0521 107.498 80.0537 106.006C80.0485 104.66 79.5637 103.361 78.689 102.349C79.4746 100.789 80.2119 99.144 80.9009 97.4138C82.0222 97.5744 83.1447 97.7364 84.2354 97.8332C85.8342 97.9752 87.3741 98.0457 88.8551 98.0447C98.7108 98.0447 105.843 94.9246 109.178 89.0625C113.01 82.3206 111.236 72.9703 104.185 62.7356C103.559 61.828 102.863 60.9252 102.168 60.0224C103.864 57.8322 105.401 55.5196 106.766 53.1028C106.945 53.1304 107.126 53.149 107.307 53.1583C108.463 53.1627 109.591 52.7981 110.531 52.1162C111.472 51.4342 112.179 50.4692 112.55 49.3574C112.922 48.2457 112.941 47.0433 112.604 45.9202C112.267 44.797 111.591 43.8098 110.672 43.0979C111.698 38.9978 111.164 34.6556 109.178 30.9375C105.344 24.1937 96.483 21.0764 84.2354 22.1668C83.1658 22.2617 82.0644 22.4218 80.9652 22.5782C75.9257 9.85382 68.3026 1.875 59.6266 1.875C50.9566 1.875 43.3383 9.84317 38.2986 22.5523C35.6652 22.1727 33.0087 21.9823 30.349 21.9825C29.8683 20.8605 29.039 19.9294 27.9878 19.3318C26.9366 18.7342 25.7217 18.5031 24.5289 18.6738C23.3361 18.8446 22.2313 19.4077 21.3836 20.2771C20.5359 21.1465 19.9921 22.2741 19.8354 23.4874C15.7791 24.6427 12.2967 27.3011 10.0756 30.9375C6.24363 37.6794 8.01724 47.0297 15.0684 57.2644C15.699 58.1794 16.401 59.0898 17.1019 60C16.4011 60.9101 15.699 61.8206 15.0684 62.7356C8.01724 72.9703 6.24363 82.3206 10.0756 89.0625ZM37.1695 78.7754C39.9174 80.7198 42.7864 82.5914 45.7839 84.3484C48.788 86.1116 51.8254 87.7039 54.8642 89.1522C50.2955 90.9105 45.5862 92.2659 40.7885 93.2034C39.1852 88.5059 37.9746 83.6795 37.1695 78.7754ZM36.428 73.5973C35.3674 64.5643 35.3674 55.4353 36.428 46.4023C43.6044 40.9475 51.3937 36.3788 59.6319 32.7923C63.7445 34.5851 67.7489 36.6242 71.6237 38.8989C75.4984 41.1762 79.2386 43.6817 82.8253 46.4027C83.357 50.915 83.6226 55.4555 83.6208 60C83.6211 64.5419 83.3595 69.08 82.8374 73.5909C79.2486 76.3171 75.5042 78.8252 71.6237 81.102C67.7453 83.3722 63.7395 85.4101 59.627 87.2052C55.5141 85.4098 51.5081 83.3716 47.6296 81.1011C43.7548 78.8239 40.0146 76.3183 36.428 73.5973ZM74.5166 107.881C74.1516 107.881 73.7947 107.771 73.4912 107.565C73.1877 107.359 72.9511 107.066 72.8114 106.724C72.6717 106.381 72.6352 106.004 72.7064 105.64C72.7776 105.277 72.9534 104.943 73.2115 104.68C73.4696 104.418 73.7985 104.24 74.1565 104.167C74.5146 104.095 74.8857 104.132 75.2229 104.274C75.5602 104.416 75.8484 104.656 76.0513 104.964C76.2541 105.273 76.3623 105.635 76.3623 106.006C76.3618 106.503 76.1672 106.98 75.8212 107.331C75.4752 107.683 75.006 107.881 74.5166 107.881ZM75.4845 100.481C74.4288 100.284 73.3394 100.404 72.3501 100.828C71.3609 101.251 70.515 101.959 69.9163 102.864C69.3175 103.769 68.992 104.832 68.9798 105.922C68.9676 107.013 69.2692 108.083 69.8475 109.002C68.6036 110.568 67.0527 111.855 65.2931 112.78C63.5336 113.705 61.6039 114.248 59.6266 114.375C52.8062 114.375 46.5444 107.521 42.1275 96.7574C48.1238 95.5231 53.9854 93.6902 59.627 91.2852C65.282 93.6962 71.1582 95.5321 77.1696 96.7658C76.6372 98.0562 76.0755 99.2944 75.4845 100.481ZM78.5261 93.2155C73.7074 92.278 68.9777 90.9185 64.3898 89.1524C67.4283 87.7043 70.4655 86.1122 73.4694 84.3494C76.4776 82.5853 79.3626 80.7191 82.109 78.7766C81.3222 83.6845 80.1235 88.5151 78.5261 93.2155ZM105.98 87.1875C102.905 92.5964 95.2879 95.051 84.5562 94.097C83.792 94.0292 82.9988 93.9032 82.2179 93.8022C84.1599 87.903 85.5286 81.8249 86.3046 75.6547C91.1876 71.8955 95.6922 67.6545 99.7526 62.9938C100.225 63.6246 100.724 64.2534 101.16 64.8862C107.343 73.8593 109.055 81.7795 105.98 87.1875ZM86.8826 49.6335C90.6691 52.7783 94.1816 56.249 97.381 60.0071C94.1701 63.7601 90.6529 67.2308 86.8669 70.3822C87.1555 66.9832 87.3122 63.5131 87.3122 60C87.3122 56.4506 87.1597 52.9915 86.8826 49.6335ZM109.152 47.5333C109.152 47.9041 109.044 48.2666 108.841 48.575C108.639 48.8833 108.35 49.1236 108.013 49.2655C107.676 49.4074 107.305 49.4446 106.947 49.3722C106.589 49.2999 106.26 49.1213 106.002 48.8591C105.743 48.5969 105.568 48.2628 105.496 47.899C105.425 47.5353 105.462 47.1583 105.601 46.8157C105.741 46.4731 105.978 46.1803 106.281 45.9743C106.585 45.7682 106.942 45.6583 107.307 45.6583C107.796 45.6588 108.265 45.8565 108.611 46.208C108.957 46.5595 109.152 47.0361 109.152 47.5333ZM84.5562 25.903C95.3078 24.9518 102.905 27.4054 105.98 32.8116C107.448 35.6035 107.864 38.8431 107.151 41.9243C106.069 41.9525 105.019 42.3032 104.131 42.9327C103.244 43.5622 102.558 44.4427 102.159 45.465C101.76 46.4872 101.665 47.606 101.887 48.6823C102.108 49.7587 102.636 50.7451 103.405 51.5191C102.299 53.439 101.074 55.2857 99.7382 57.0482C95.6913 52.3885 91.2009 48.1465 86.3325 44.3841C85.5752 38.1984 84.2168 32.1041 82.2774 26.1904C83.0381 26.0928 83.8114 25.9691 84.5562 25.903ZM82.0835 41.224C79.3361 39.2799 76.468 37.4084 73.4712 35.6515C70.4678 33.8878 67.4391 32.2831 64.4143 30.8381C68.9752 29.0844 73.676 27.7322 78.4649 26.7965C80.0681 31.4938 81.2786 36.3201 82.0835 41.224ZM59.6266 5.625C66.4471 5.625 72.709 12.4792 77.1257 23.2426C71.1387 24.4747 65.2859 26.3037 59.6525 28.7033C54.0101 26.2853 48.1454 24.4425 42.1445 23.2019C46.5606 12.4623 52.815 5.625 59.6266 5.625ZM40.7903 26.7912C45.585 27.7387 50.2924 29.0959 54.8623 30.8482C51.8242 32.2963 48.7873 33.888 45.7839 35.6506C42.7864 37.4079 39.9176 39.2798 37.1696 41.2243C37.9749 36.3184 39.1861 31.4903 40.7903 26.7912ZM25.2973 22.3691C25.7532 22.3721 26.1921 22.5453 26.5305 22.8558C26.8688 23.1662 27.083 23.5923 27.1322 24.0527L27.1504 24.0508C27.1446 24.1151 27.1422 24.1795 27.143 24.244C27.1432 24.713 26.9702 25.165 26.6583 25.5108C26.3465 25.8566 25.9183 26.0711 25.4584 26.1119C24.9985 26.1527 24.5402 26.0169 24.174 25.7313C23.8078 25.4456 23.5604 25.0309 23.4805 24.569L23.4746 24.5539L23.4768 24.5534C23.4592 24.4513 23.4507 24.3477 23.4516 24.244C23.4521 23.7469 23.6467 23.2703 23.9928 22.9188C24.3388 22.5673 24.8079 22.3696 25.2973 22.3691ZM13.2732 32.8116C14.9385 30.086 17.5342 28.0795 20.5641 27.1756C21.1287 28.1137 21.9514 28.8633 22.9306 29.332C23.9098 29.8007 25.0026 29.9679 26.0742 29.813C27.1458 29.6581 28.1494 29.1879 28.961 28.4604C29.7727 27.7329 30.3569 26.7799 30.6416 25.719C32.7619 25.7393 34.8791 25.8916 36.9811 26.1749C35.0388 32.0935 33.6787 38.1931 32.9208 44.3842C28.0561 48.1437 23.5687 52.3821 19.5241 57.0377C19.0437 56.3964 18.5363 55.7571 18.093 55.1138C11.9105 46.1407 10.1982 38.2205 13.2732 32.8116ZM32.3706 70.3665C28.5865 67.2236 25.0761 63.7553 21.8783 60C25.076 56.2446 28.5864 52.7762 32.3706 49.6333C32.0935 52.9914 31.9411 56.4505 31.9411 60C31.9411 63.5494 32.0935 67.0085 32.3706 70.3665ZM18.0929 64.8862C18.5362 64.2431 19.0436 63.6036 19.524 62.9624C23.5686 67.6179 28.056 71.8562 32.9207 75.6155C33.6781 81.8013 35.0364 87.8958 36.9759 93.8097C36.2151 93.9073 35.4419 94.031 34.697 94.0971C23.9527 95.0529 16.3481 92.5956 13.2732 87.1876C10.1982 81.7795 11.9105 73.8592 18.0929 64.8862Z" fill="#623E91"/>
</svg>
