<svg width="119" height="120" viewBox="0 0 119 120" fill="none" xmlns="http://www.w3.org/2000/svg">
<path d="M58.7416 17.0344C58.444 16.732 58.2595 16.3125 58.2595 15.8508C58.2595 15.3891 58.444 14.9695 58.7416 14.6672C59.0393 14.3648 59.4499 14.1773 59.9067 14.1773C60.3636 14.1773 60.7742 14.3648 61.0718 14.6672C61.3695 14.9695 61.554 15.3891 61.554 15.8508C61.554 16.3125 61.3695 16.732 61.0718 17.0344C60.7742 17.3367 60.3636 17.5242 59.9067 17.5242C59.4499 17.5242 59.0393 17.3367 58.7416 17.0344ZM72.2199 20.8734C72.6144 21.1055 73.062 21.1523 73.468 21.0398C73.8741 20.9297 74.2409 20.6602 74.467 20.2594C74.6954 19.8586 74.7416 19.4039 74.6308 18.9914C74.5224 18.5789 74.2571 18.2062 73.8626 17.9766C73.468 17.7445 73.0205 17.6977 72.6144 17.8102C72.2084 17.9203 71.8415 18.1898 71.6154 18.5906C71.387 18.9914 71.3409 19.4461 71.4516 19.8586C71.5601 20.2734 71.8254 20.6437 72.2199 20.8734ZM82.2305 30.8109C82.6366 30.9211 83.0865 30.8742 83.4787 30.6445C83.8732 30.4125 84.1362 30.0422 84.247 29.6297C84.3554 29.2172 84.3092 28.7602 84.0832 28.3617C83.857 27.9633 83.4902 27.6938 83.0842 27.5812C82.6781 27.4711 82.2282 27.518 81.836 27.7477C81.4415 27.9797 81.1785 28.35 81.0677 28.7625C80.9593 29.175 81.0054 29.632 81.2315 30.0305C81.4599 30.4313 81.8245 30.6984 82.2305 30.8109ZM37.9798 27.7453C37.5853 27.5133 37.1377 27.4664 36.7316 27.5789C36.3256 27.6891 35.9587 27.9586 35.7326 28.3594C35.5042 28.7602 35.4581 29.2148 35.5688 29.6273C35.6773 30.0398 35.9426 30.4125 36.3371 30.6422C36.7316 30.8719 37.1792 30.9211 37.5853 30.8086C37.9913 30.6961 38.3582 30.4289 38.5843 30.0281C38.8127 29.6273 38.8588 29.1727 38.7481 28.7602C38.6373 28.3477 38.372 27.9773 37.9798 27.7453ZM47.1968 17.8102C46.7907 17.7 46.3408 17.7469 45.9486 17.9766C45.5541 18.2086 45.2911 18.5789 45.1803 18.9914C45.0719 19.4039 45.118 19.8609 45.3441 20.2594C45.5726 20.6602 45.9371 20.9273 46.3431 21.0398C46.7492 21.15 47.1991 21.1031 47.5913 20.8734C47.9858 20.6414 48.2488 20.2711 48.3596 19.8586C48.468 19.4461 48.4219 18.9891 48.1958 18.5906C47.9697 18.1898 47.6051 17.9227 47.1968 17.8102ZM75 26.8195C74.444 26.2852 73.5696 26.3086 73.0435 26.8734L60.472 40.35L55.0987 32.9203C54.6465 32.2945 53.779 32.1609 53.163 32.6203C52.547 33.0797 52.4155 33.9609 52.8677 34.5867L59.2215 43.3711C59.4638 43.7062 59.8421 43.9148 60.2505 43.943C60.2782 43.9453 60.3082 43.9453 60.3359 43.9453C60.7142 43.9453 61.0788 43.7883 61.3395 43.507L75.0507 28.8094C75.5791 28.2445 75.556 27.3539 75 26.8195ZM106.232 96.2109C104.261 98.4492 101.659 99.6328 98.7034 99.6328H88.7689C89.235 101.18 89.5603 102.773 89.7402 104.4C90.1232 107.869 89.1173 111.077 86.8263 113.679C84.5353 116.28 81.513 117.656 78.0777 117.656H41.7358C38.3005 117.656 35.2735 116.28 32.9849 113.679C30.6962 111.077 29.688 107.869 30.0733 104.4C30.2532 102.773 30.5808 101.18 31.0446 99.6328H21.1101C18.1546 99.6328 15.5522 98.4492 13.5819 96.2109C11.6116 93.9727 10.7464 91.2117 11.0764 88.2281C11.6831 82.7391 14.2602 77.6672 18.3323 73.9406C21.7238 70.8398 25.925 68.8922 30.387 68.3086C25.2144 65.9625 21.5992 60.6891 21.5992 54.5742C21.5992 54.0258 21.6292 53.482 21.6868 52.9477C20.7963 49.568 20.3418 46.0688 20.3418 42.5367C20.3395 20.3742 38.0905 2.34375 59.9067 2.34375C81.723 2.34375 99.474 20.3742 99.474 42.5391C99.474 46.0687 99.0195 49.5703 98.129 52.95C98.1866 53.4844 98.2166 54.0258 98.2166 54.5766C98.2166 60.6937 94.6013 65.9648 89.4288 68.3109C93.8907 68.8945 98.092 70.8422 101.484 73.943C105.556 77.6672 108.133 82.7414 108.739 88.2305C109.069 91.2117 108.202 93.9727 106.232 96.2109ZM74.4693 64.3758C74.4693 56.2195 67.9379 49.582 59.9067 49.582C51.8779 49.582 45.3441 56.2172 45.3441 64.3758C45.3441 72.5344 51.8756 79.1695 59.9067 79.1695C67.9356 79.1695 74.4693 72.532 74.4693 64.3758ZM42.9609 68.0555C42.7878 68.1422 42.6102 68.2266 42.4349 68.3086C42.6379 68.3344 42.8386 68.3648 43.0393 68.3977C43.0116 68.2852 42.984 68.1703 42.9609 68.0555ZM69.419 49.6711C71.4447 43.6898 77.028 39.5367 83.4141 39.5367C85.8619 39.5367 88.1714 40.1461 90.2063 41.2195C89.5257 24.8391 76.1951 11.7258 59.9067 11.7258C43.6184 11.7258 30.2878 24.8391 29.6072 41.2195C31.6421 40.1461 33.9515 39.5367 36.3994 39.5367C42.7855 39.5367 48.3688 43.6898 50.3945 49.6711C53.1261 47.8406 56.3953 46.7719 59.9067 46.7719C63.4182 46.7719 66.6874 47.8406 69.419 49.6711ZM76.7742 68.3977C76.9749 68.3648 77.1756 68.3344 77.3786 68.3086C77.201 68.2289 77.0256 68.1445 76.8526 68.0555C76.8295 68.1703 76.8018 68.2852 76.7742 68.3977ZM95.4481 54.5742C95.4481 47.8336 90.0494 42.3492 83.4141 42.3492C77.8862 42.3492 73.0989 46.1742 71.7539 51.5461C75.1246 54.7594 77.2356 59.3203 77.2356 64.3758C77.2356 64.6031 77.2264 64.8305 77.2194 65.0555C79.0859 66.1969 81.2108 66.7992 83.4141 66.7992C90.0494 66.7992 95.4481 61.3148 95.4481 54.5742ZM23.4149 47.3602C24.2893 45.7453 25.4475 44.3109 26.8179 43.125C26.8156 42.9281 26.8064 42.7336 26.8064 42.5391C26.8064 23.9977 41.655 8.91563 59.9044 8.91563C78.1538 8.91563 93.0025 24 93.0025 42.5391C93.0025 42.7336 92.9956 42.9305 92.991 43.125C94.3637 44.3109 95.5219 45.7453 96.394 47.3602C96.597 45.7664 96.7008 44.1562 96.7008 42.5391C96.7055 21.9258 80.1979 5.15625 59.9067 5.15625C39.6155 5.15625 23.108 21.9258 23.108 42.5391C23.108 44.1562 23.2142 45.7664 23.4149 47.3602ZM36.3994 66.7992C38.6027 66.7992 40.7276 66.1969 42.594 65.0555C42.5848 64.8305 42.5779 64.6031 42.5779 64.3758C42.5779 59.3203 44.6889 54.7594 48.0596 51.5461C46.7146 46.1742 41.9273 42.3492 36.3994 42.3492C29.7641 42.3492 24.3654 47.8336 24.3654 54.5742C24.3654 61.3148 29.7641 66.7992 36.3994 66.7992ZM32.0643 96.8203C33.5524 93.3398 35.7719 90.1852 38.6096 87.5906C42.8524 83.7094 48.1727 81.3609 53.7929 80.8477C49.4393 79.1742 45.9186 75.7688 44.0475 71.4633C42.5871 71.1117 41.0829 70.9359 39.5694 70.9359H33.2271C23.2765 70.9359 14.9362 78.5062 13.8242 88.5445C13.5819 90.7406 14.1933 92.6906 15.6422 94.3383C17.091 95.9859 18.9298 96.8227 21.1054 96.8227H32.0643V96.8203ZM86.9901 104.714C85.6543 92.6508 75.6298 83.5523 63.6743 83.5523H56.1392C44.1814 83.5523 34.1592 92.6508 32.8234 104.714C32.5257 107.402 33.2756 109.788 35.0497 111.804C36.8239 113.82 39.0734 114.844 41.7381 114.844H78.0777C80.7401 114.844 82.9896 113.822 84.7661 111.804C86.5402 109.788 87.2878 107.402 86.9901 104.714ZM105.987 88.5422C104.875 78.5039 96.5347 70.9336 86.5841 70.9336H80.2418C78.7283 70.9336 77.2264 71.1117 75.7636 71.4609C73.8926 75.7664 70.3719 79.1719 66.0183 80.8453C71.6385 81.3586 76.9587 83.707 81.2015 87.5883C84.0393 90.1852 86.2611 93.3375 87.7469 96.818H98.7011C100.877 96.818 102.716 95.9812 104.164 94.3336C105.618 92.6883 106.229 90.7383 105.987 88.5422Z" fill="#623E91"/>
</svg>
