<svg width="80" height="80" viewBox="0 0 80 80" fill="none" xmlns="http://www.w3.org/2000/svg">
<path fill-rule="evenodd" clip-rule="evenodd" d="M52.8494 80H27.6205C27.2263 80 26.8858 79.7271 26.7962 79.345C25.6674 74.8692 23.1946 73.3773 18.5001 74.3234C13.0708 75.415 9.64842 75.2331 8.03577 73.7412C7.48031 73.2317 6.85317 72.2856 6.99651 70.7027C6.99651 70.63 7.01443 70.5754 7.03235 70.5208C7.74908 68.3557 7.767 66.9365 7.10402 66.5908C7.05027 66.5726 6.99651 66.5363 6.96068 66.4999C5.86766 65.6083 5.24052 64.6623 5.15093 63.6798C5.09718 63.1703 5.16885 62.6791 5.38387 62.1878C4.98967 61.9695 4.70297 61.6602 4.48795 61.2781C4.07583 60.514 4.09375 59.5315 4.55963 58.3125C4.84632 57.33 4.72089 57.0207 4.66714 56.9479C4.54171 56.7478 3.96832 56.6386 3.46661 56.5476C3.14408 56.493 2.80363 56.4203 2.46319 56.3293C1.44184 56.0382 1.0118 55.3832 0.832621 54.8738C0.223399 53.1635 1.33433 50.2524 4.36252 45.7221C5.40179 43.9936 5.49138 42.5563 4.64922 41.3191C4.6313 41.3009 4.6313 41.2827 4.61338 41.2645C1.42393 35.788 3.50245 28.0919 6.99651 22.8883C11.0998 16.7751 16.9591 12.645 23.9114 10.9529C30.2007 9.42459 37.0455 10.025 43.2094 12.6086C43.6394 12.7905 43.8544 13.3 43.6753 13.7548C43.4961 14.2097 42.9944 14.4098 42.5464 14.2279C32.1538 9.86125 17.0487 11.0257 8.41206 23.8708C5.24052 28.6013 3.28743 35.5151 6.06476 40.3366C7.30112 42.156 7.21153 44.2847 5.79599 46.6318C5.79599 46.65 5.77807 46.65 5.77807 46.6682C2.21233 52.0173 2.24817 53.7639 2.42735 54.2552C2.4811 54.4007 2.5707 54.5463 2.91114 54.6372C3.17992 54.71 3.48453 54.7646 3.77122 54.8192C4.6313 54.9829 5.61681 55.1649 6.13644 56.02C6.54856 56.6932 6.56647 57.5847 6.20811 58.8401C6.20811 58.8583 6.19019 58.8947 6.19019 58.9129C5.92142 59.6043 5.86766 60.1501 6.01101 60.423C6.15435 60.6777 6.53064 60.8051 6.83525 60.8597C7.13986 60.9142 7.3728 61.1326 7.48031 61.4237C7.58782 61.7148 7.53406 62.0423 7.33696 62.2788C6.99651 62.7155 6.83525 63.0975 6.87109 63.4796C6.92484 63.9527 7.30113 64.5167 7.98202 65.0807C10.1681 66.2997 9.11087 69.7021 8.69875 70.9756C8.645 71.849 8.94961 72.231 9.18255 72.4494C9.98887 73.1953 12.1928 73.8139 18.1417 72.6131C23.4993 71.5397 26.8141 73.3773 28.2655 78.2715H51.5593C50.305 75.1239 49.3733 71.9217 48.8357 68.9561C48.5311 67.2458 48.4774 65.6629 48.6924 64.1346C48.764 63.6616 49.1941 63.3341 49.66 63.4068C50.1258 63.4796 50.4484 63.9163 50.3946 64.3893C50.1975 65.7175 50.2334 67.1003 50.52 68.6286C51.1113 71.849 52.1864 75.3605 53.6378 78.7992C53.7453 79.0721 53.7274 79.3814 53.5662 79.6179C53.4049 79.8544 53.1361 80 52.8494 80Z" fill="#603C93"/>
<path fill-rule="evenodd" clip-rule="evenodd" d="M58.9204 49.9795C58.9025 49.9795 58.8667 49.9795 58.8488 49.9795C58.3829 49.9432 58.0245 49.5247 58.0603 49.0334C58.5262 43.4114 60.766 40.4822 62.9341 37.6621C65.2097 34.7146 67.342 31.9309 67.6108 26.036C67.8437 20.796 65.2993 15.7562 60.981 12.8997C56.1252 9.69754 49.8538 9.69754 45.0158 12.8997C40.6796 15.7562 38.1352 20.796 38.3861 26.036C38.6369 31.5124 40.7871 34.4781 43.0807 37.6075C45.2667 40.6095 47.5244 43.7207 47.9544 49.0334C47.9903 49.5065 47.6319 49.9432 47.166 49.9795C46.7002 50.0159 46.2701 49.6702 46.2343 49.179C45.8401 44.3575 43.8332 41.592 41.683 38.6445C39.3537 35.4242 36.9347 32.1128 36.6659 26.1087C36.3971 20.2502 39.2461 14.6282 44.0841 11.426C49.5133 7.84173 56.5194 7.84173 61.9307 11.426C66.7686 14.6282 69.6176 20.2502 69.3489 26.1087C69.0622 32.5677 66.6432 35.6971 64.3138 38.7355C62.1995 41.4828 60.2105 44.0664 59.7805 49.179C59.7447 49.6339 59.3684 49.9795 58.9204 49.9795Z" fill="#603C93"/>
<path fill-rule="evenodd" clip-rule="evenodd" d="M47.6857 49.9067C46.7719 49.9067 46.0193 50.6709 46.0193 51.617C46.0193 52.5631 46.7719 53.3273 47.7036 53.3273H58.3292C59.2609 53.3273 60.0135 52.5631 60.0135 51.617C60.0135 50.6891 59.2609 49.9249 58.3471 49.9249L47.6857 49.9067ZM58.3113 55.0557H47.6857C45.8043 55.0557 44.2812 53.5092 44.2812 51.5988C44.2812 49.6884 45.8043 48.1419 47.6678 48.1419H58.3113C60.1748 48.1419 61.6978 49.6884 61.6978 51.5806C61.7158 53.491 60.1927 55.0557 58.3113 55.0557Z" fill="#603C93"/>
<path fill-rule="evenodd" clip-rule="evenodd" d="M56.106 65.1535H49.9063C47.9173 65.1535 46.3047 63.516 46.3047 61.4965V59.2768C46.3047 58.7855 46.681 58.4034 47.1648 58.4034C47.6486 58.4034 48.0248 58.7855 48.0248 59.2768V61.4965C48.0248 62.5517 48.867 63.4069 49.9063 63.4069H56.106C57.1453 63.4069 57.9874 62.5517 57.9874 61.4965V59.2768C57.9874 58.7855 58.3637 58.4034 58.8475 58.4034C59.3313 58.4034 59.7076 58.7855 59.7076 59.2768V61.4965C59.7076 63.4978 58.0949 65.1535 56.106 65.1535Z" fill="#603C93"/>
<path fill-rule="evenodd" clip-rule="evenodd" d="M51.0227 49.9067C50.5389 49.9067 50.1626 49.5246 50.1626 49.0334V39.5542L47.2778 36.9342C46.9194 36.6067 46.9015 36.0609 47.2061 35.697C47.5286 35.3331 48.0662 35.315 48.4245 35.6243L51.5782 38.5171C51.7573 38.6809 51.8649 38.9174 51.8649 39.1721V49.0334C51.8828 49.5064 51.5065 49.9067 51.0227 49.9067Z" fill="#603C93"/>
<path fill-rule="evenodd" clip-rule="evenodd" d="M54.9851 49.9067C54.5013 49.9067 54.125 49.5247 54.125 49.0334V39.1721C54.125 38.9174 54.2325 38.6809 54.4117 38.5172L57.5653 35.6243C57.9237 35.2968 58.4612 35.3332 58.7838 35.6971C59.1063 36.0609 59.0704 36.6068 58.7121 36.9343L55.8452 39.5542V49.0334C55.8452 49.5065 55.4689 49.9067 54.9851 49.9067Z" fill="#603C93"/>
<path fill-rule="evenodd" clip-rule="evenodd" d="M53.0085 6.6227C52.5247 6.6227 52.1484 6.24062 52.1484 5.74937V0.873323C52.1484 0.382079 52.5247 0 53.0085 0C53.4923 0 53.8686 0.382079 53.8686 0.873323V5.74937C53.8686 6.24062 53.4744 6.6227 53.0085 6.6227Z" fill="#603C93"/>
<path fill-rule="evenodd" clip-rule="evenodd" d="M64.0126 9.78848C63.8692 9.78848 63.7259 9.75209 63.5825 9.67931C63.1704 9.44279 63.0271 8.89696 63.26 8.47849L65.6611 4.25743C65.894 3.83897 66.4315 3.69341 66.8258 3.92994C67.2379 4.16646 67.3812 4.71229 67.1483 5.13076L64.7472 9.35182C64.586 9.64292 64.2993 9.78848 64.0126 9.78848Z" fill="#603C93"/>
<path fill-rule="evenodd" clip-rule="evenodd" d="M71.8954 18.4307C71.5908 18.4307 71.3041 18.267 71.1428 17.9941C70.9099 17.5756 71.0532 17.048 71.4654 16.7933L75.6224 14.3552C76.0345 14.1187 76.5541 14.2643 76.7871 14.6827C77.02 15.1012 76.8767 15.6288 76.4646 15.8835L72.3075 18.3216C72.1821 18.3943 72.0387 18.4307 71.8954 18.4307Z" fill="#603C93"/>
<path fill-rule="evenodd" clip-rule="evenodd" d="M78.5841 30.2206H73.782C73.2982 30.2206 72.9219 29.8386 72.9219 29.3473C72.9219 28.8561 73.3161 28.474 73.782 28.474H78.5841C79.0678 28.474 79.4441 28.8561 79.4441 29.3473C79.4441 29.8386 79.0678 30.2206 78.5841 30.2206Z" fill="#603C93"/>
<path fill-rule="evenodd" clip-rule="evenodd" d="M42.0074 9.78848C41.7028 9.78848 41.4161 9.62473 41.2548 9.35182L38.8538 5.13076C38.6208 4.71229 38.7642 4.18466 39.1763 3.92994C39.5884 3.69341 40.108 3.83897 40.3589 4.25743L42.7599 8.47849C42.9929 8.89696 42.8495 9.42459 42.4374 9.67931C42.2941 9.75209 42.1507 9.78848 42.0074 9.78848Z" fill="#603C93"/>
<path fill-rule="evenodd" clip-rule="evenodd" d="M34.1071 18.4307C33.9638 18.4307 33.8204 18.3944 33.6771 18.3216L29.52 15.8654C29.1079 15.6288 28.9646 15.083 29.1975 14.6645C29.4304 14.2461 29.968 14.1005 30.3801 14.337L34.5372 16.7751C34.9493 17.0116 35.0926 17.5574 34.8597 17.9759C34.6984 18.267 34.4117 18.4307 34.1071 18.4307Z" fill="#603C93"/>
<path fill-rule="evenodd" clip-rule="evenodd" d="M32.2403 30.2206H27.4382C26.9544 30.2206 26.5781 29.8386 26.5781 29.3473C26.5781 28.8561 26.9544 28.474 27.4382 28.474H32.2403C32.7062 28.474 33.1004 28.8561 33.1004 29.3473C33.1004 29.8386 32.7062 30.2206 32.2403 30.2206Z" fill="#603C93"/>
<path fill-rule="evenodd" clip-rule="evenodd" d="M58.3347 60.2046H47.6912C45.8277 60.2046 44.3047 58.6581 44.3047 56.7477C44.3047 54.8373 45.8277 53.2908 47.7092 53.2908C48.193 53.2908 48.5692 53.6729 48.5692 54.1642C48.5692 54.6372 48.193 55.0375 47.7092 55.0375C46.7774 55.0375 46.0248 55.8016 46.0248 56.7477C46.0248 57.6938 46.7774 58.458 47.6912 58.458H58.3347C59.2485 58.458 60.0011 57.6938 60.0011 56.7659C60.0011 55.8198 59.2485 55.0557 58.3168 55.0557C57.8509 55.0557 57.4567 54.6736 57.4567 54.1824C57.4567 53.6911 57.8509 53.309 58.3168 53.309C60.1982 53.309 61.7213 54.8555 61.7213 56.7659C61.7213 58.6581 60.1982 60.2046 58.3347 60.2046Z" fill="#603C93"/>
</svg>
