<svg width="79" height="80" viewBox="0 0 79 80" fill="none" xmlns="http://www.w3.org/2000/svg">
<path d="M58.2086 30.3154L64.8917 23.5063C65.2198 23.172 65.3421 22.6822 65.2111 22.2286C65.0801 21.7759 64.7164 21.432 64.2634 21.332L60.465 20.4982L60.8433 20.1127C61.338 19.6087 61.338 18.7918 60.8433 18.2878C60.3487 17.7838 59.5468 17.7838 59.0521 18.2878L58.6738 18.6733L57.8554 14.8032C57.7573 14.3416 57.4198 13.9711 56.9754 13.8376C56.5302 13.7041 56.0503 13.8288 55.7223 14.163L49.0531 20.958C46.1137 19.4266 42.8359 18.6185 39.5104 18.6185C27.951 18.6185 18.5464 28.2004 18.5464 39.9779C18.5464 51.7553 27.951 61.3373 39.5104 61.3373C51.0699 61.3373 60.4745 51.7553 60.4745 39.9779C60.4745 36.6135 59.6917 33.2943 58.2086 30.3154ZM61.4578 23.3551L55.7561 29.1642L52.6328 28.4781L58.3344 22.6689L61.4578 23.3551ZM55.869 17.6618L56.5424 20.844L50.8408 26.6531L50.1673 23.4709L55.869 17.6618ZM43.8617 39.977C43.8617 42.4218 41.91 44.4104 39.5104 44.4104C37.1109 44.4104 35.1592 42.4209 35.1592 39.977C35.1592 37.5322 37.1109 35.5437 39.5104 35.5437C40.262 35.5437 40.9701 35.7391 41.5872 36.0821L38.6374 39.0875C38.1427 39.5915 38.1427 40.4085 38.6374 40.9125C38.8847 41.1645 39.2084 41.29 39.533 41.29C39.8576 41.29 40.1813 41.1636 40.4286 40.9125L43.3645 37.9213C43.6812 38.5367 43.8617 39.2352 43.8617 39.977ZM43.4243 34.2112C42.3127 33.4251 40.9641 32.9627 39.5113 32.9627C35.7154 32.9627 32.6268 36.1096 32.6268 39.977C32.6268 43.8445 35.7154 46.9913 39.5113 46.9913C43.3072 46.9913 46.3958 43.8445 46.3958 39.977C46.3958 38.5199 45.9575 37.1662 45.2086 36.0432L48.4265 32.7647C49.9747 34.747 50.9033 37.2528 50.9033 39.977C50.9033 46.3768 45.7935 51.5829 39.5122 51.5829C33.2309 51.5829 28.1211 46.3768 28.1211 39.977C28.1211 33.5772 33.2309 28.3711 39.5122 28.3711C42.2085 28.3711 44.6879 29.3331 46.6414 30.9344L43.4243 34.2112ZM39.5104 58.7555C29.3473 58.7555 21.0796 50.3318 21.0796 39.977C21.0796 29.6222 29.3473 21.1985 39.5104 21.1985C42.2918 21.1985 45.0359 21.8404 47.5205 23.0615C47.5205 23.1499 47.5283 23.2392 47.5465 23.3277L48.7094 28.8256L48.4395 29.1006C46.0209 27.036 42.9054 25.7901 39.5104 25.7901C31.8328 25.7901 25.5862 32.1546 25.5862 39.977C25.5862 47.7995 31.8328 54.1639 39.5104 54.1639C47.1881 54.1639 53.4347 47.7995 53.4347 39.977C53.4347 36.541 52.2293 33.3862 50.2272 30.9291L50.5006 30.6505L55.8967 31.8354C55.9757 31.853 56.0555 31.861 56.1354 31.8628C57.32 34.3818 57.9422 37.1617 57.9422 39.977C57.9422 50.3318 49.6735 58.7555 39.5104 58.7555ZM78.7926 40C78.7926 31.7567 76.3679 23.8874 71.7719 17.1693C72.7777 15.9358 73.3834 14.3531 73.3834 12.628C73.3834 8.70399 70.2497 5.51117 66.3983 5.51117C64.7052 5.51117 63.1517 6.12834 61.9411 7.15312C55.3474 2.47044 47.6237 0 39.533 0C31.4423 0 23.7186 2.47044 17.1249 7.15312C15.9143 6.12834 14.3609 5.51117 12.6677 5.51117C8.81631 5.51117 5.6826 8.70399 5.6826 12.628C5.6826 14.3531 6.28834 15.9358 7.29415 17.1693C2.69814 23.8874 0.273438 31.7567 0.273438 40C0.273438 48.2433 2.69814 56.1126 7.29415 62.8307C6.28834 64.0642 5.6826 65.6469 5.6826 67.372C5.6826 71.296 8.81631 74.4888 12.6677 74.4888C14.3609 74.4888 15.9143 73.8717 17.1249 72.8469C23.7186 77.5296 31.4423 80 39.533 80C47.6237 80 55.3474 77.5296 61.9411 72.8469C63.1517 73.8717 64.7052 74.4888 66.3983 74.4888C70.2497 74.4888 73.3834 71.296 73.3834 67.372C73.3834 65.6469 72.7777 64.0642 71.7719 62.8307C76.3679 56.1118 78.7926 48.2433 78.7926 40ZM66.3983 8.09125C68.8534 8.09125 70.8502 10.1267 70.8502 12.6272C70.8502 15.1277 68.8534 17.1631 66.3983 17.1631C63.9432 17.1631 61.9463 15.1277 61.9463 12.6272C61.9463 10.1267 63.9432 8.09125 66.3983 8.09125ZM12.6677 8.09125C15.1228 8.09125 17.1197 10.1267 17.1197 12.6272C17.1197 15.1277 15.1228 17.1631 12.6677 17.1631C10.2126 17.1631 8.21578 15.1277 8.21578 12.6272C8.21578 10.1267 10.2126 8.09125 12.6677 8.09125ZM12.6677 71.9079C10.2126 71.9079 8.21578 69.8725 8.21578 67.372C8.21578 64.8706 10.2126 62.8361 12.6677 62.8361C15.1228 62.8361 17.1197 64.8706 17.1197 67.372C17.1197 69.8733 15.1228 71.9079 12.6677 71.9079ZM18.7547 70.8575C19.3257 69.8265 19.6537 68.6372 19.6537 67.372C19.6537 63.4479 16.52 60.2551 12.6686 60.2551C11.4259 60.2551 10.2595 60.5884 9.24762 61.1702C5.02999 54.9278 2.80662 47.6359 2.80662 40C2.80662 32.3641 5.02999 25.0722 9.24676 18.8298C10.2586 19.4116 11.425 19.7458 12.6677 19.7458C16.5191 19.7458 19.6529 16.553 19.6529 12.6289C19.6529 11.3628 19.3257 10.1744 18.7547 9.14344C24.8815 4.84626 32.0385 2.58096 39.533 2.58096C47.0275 2.58096 54.1845 4.84626 60.3114 9.14255C59.7403 10.1735 59.4123 11.3628 59.4123 12.628C59.4123 16.5521 62.546 19.7449 66.3974 19.7449C67.6401 19.7449 68.8065 19.4116 69.8184 18.8289C74.036 25.0722 76.2594 32.3641 76.2594 40C76.2594 47.6359 74.036 54.9278 69.8193 61.1702C68.8074 60.5884 67.6401 60.2551 66.3983 60.2551C62.5469 60.2551 59.4132 63.4479 59.4132 67.372C59.4132 68.6381 59.7403 69.8265 60.3122 70.8575C54.1845 75.1537 47.0275 77.419 39.533 77.419C32.0385 77.419 24.8815 75.1537 18.7547 70.8575ZM66.3983 71.9079C63.9432 71.9079 61.9463 69.8725 61.9463 67.372C61.9463 64.8706 63.9432 62.8361 66.3983 62.8361C68.8534 62.8361 70.8502 64.8706 70.8502 67.372C70.8502 69.8733 68.8534 71.9079 66.3983 71.9079Z" fill="#603C93"/>
</svg>
