<svg width="75" height="80" viewBox="0 0 75 80" fill="none" xmlns="http://www.w3.org/2000/svg">
<path fill-rule="evenodd" clip-rule="evenodd" d="M63.1519 42.6738C62.0547 41.5585 60.6111 40.8645 59.0669 40.7098C57.5227 40.5552 55.9736 40.9495 54.6834 41.8257C53.3932 42.7018 52.4418 44.0056 51.9913 45.5148C51.5408 47.0239 51.6191 48.6452 52.2129 50.1023C52.8066 51.5594 53.879 52.7622 55.2474 53.5057C56.6158 54.2492 58.1955 54.4874 59.7174 54.1798C61.2393 53.8722 62.6091 53.0378 63.5935 51.8187C64.5779 50.5996 65.116 49.0713 65.1161 47.4942C65.1174 46.5988 64.9446 45.712 64.6075 44.8847C64.2704 44.0574 63.7757 43.306 63.1519 42.6738ZM58.4102 38.5484C60.4466 38.5482 62.4202 39.2657 63.9945 40.5787C65.5689 41.8917 66.6466 43.7189 67.044 45.749C67.4415 47.7791 67.1341 49.8865 66.1742 51.712C65.2144 53.5376 63.6614 54.9683 61.78 55.7606C59.8986 56.5528 57.8051 56.6574 55.8563 56.0566C53.9075 55.4559 52.2239 54.1869 51.0924 52.4658C49.961 50.7448 49.4517 48.6783 49.6512 46.6183C49.8508 44.5584 50.7469 42.6325 52.1869 41.1689C53.0032 40.3368 53.9732 39.6769 55.0412 39.2272C56.1092 38.7775 57.2541 38.5468 58.4102 38.5484ZM54.6715 48.5333C54.4512 48.3635 54.3062 48.1116 54.2686 47.8331C54.2309 47.5547 54.3037 47.2724 54.4708 47.0484C54.6379 46.8245 54.8857 46.6772 55.1597 46.6389C55.4337 46.6007 55.7114 46.6746 55.9317 46.8444L57.784 48.2756L60.7041 44.5778C60.7902 44.4691 60.8966 44.3787 61.017 44.3118C61.1375 44.2449 61.2698 44.2028 61.4063 44.1879C61.5428 44.1729 61.6809 44.1855 61.8127 44.2248C61.9444 44.2641 62.0672 44.3293 62.1742 44.4169C62.2811 44.5044 62.37 44.6125 62.4358 44.735C62.5016 44.8575 62.5431 44.9919 62.5578 45.1307C62.5725 45.2694 62.5601 45.4098 62.5215 45.5437C62.4828 45.6776 62.4186 45.8024 62.3324 45.9111L58.7775 50.4107C58.6071 50.6252 58.3611 50.7637 58.0919 50.7969C57.8226 50.8301 57.5512 50.7553 57.3353 50.5884L54.6715 48.5333ZM49.5904 7.81156C49.5501 7.77681 49.5127 7.73875 49.4785 7.69778L45.4959 3.63822V11.4507C45.4958 11.4972 45.5137 11.5419 45.5457 11.5751C45.5611 11.5904 45.5793 11.6024 45.5992 11.6105C45.6192 11.6186 45.6405 11.6226 45.662 11.6222H53.3291L49.5887 7.81067L49.5904 7.81156ZM61.82 30.112L73.3709 33.1822C73.5953 33.2411 73.7942 33.3739 73.9366 33.5597C74.079 33.7456 74.1568 33.9742 74.1579 34.2098V47.5102C74.2652 51.1003 73.2385 54.6309 71.2282 57.5849C69.3602 60.24 66.4069 62.6764 61.8217 64.5778V77.3333C61.8217 78.0406 61.5453 78.7189 61.0533 79.219C60.5613 79.719 59.8939 80 59.1981 80H8.78892C8.09309 80 7.42577 79.719 6.93375 79.219C6.44172 78.7189 6.16531 78.0406 6.16531 77.3333V74.0604H3.45162C2.76049 74.0562 2.09891 73.775 1.61061 73.2779C1.12231 72.7807 0.846733 72.1078 0.84375 71.4053V2.65867C0.845813 1.95557 1.12098 1.28176 1.60938 0.783845C2.09778 0.285932 2.75989 0.00421635 3.45162 8.96908e-07H44.449C44.6001 -0.000198702 44.7494 0.0329182 44.8867 0.0970659C45.0239 0.161214 45.1458 0.254865 45.244 0.371557L50.7037 5.936H59.1999C59.8957 5.936 60.563 6.21695 61.055 6.71705C61.5471 7.21715 61.8235 7.89542 61.8235 8.60267V30.1138L61.82 30.112ZM56.8981 29.6071V12.6871C56.8982 12.4067 56.7891 12.1376 56.5946 11.9387L52.7965 8.06845H59.2034C59.3421 8.06983 59.4748 8.12647 59.5729 8.22619C59.671 8.32591 59.7267 8.46076 59.7281 8.60178V29.5547L58.6918 29.28C58.5149 29.2297 58.3282 29.2279 58.1504 29.2747L56.9007 29.6071H56.8981ZM58.0909 65.696C57.6828 65.5668 57.2852 65.4347 56.8981 65.2996V71.4044C56.8953 72.1069 56.62 72.7799 56.1318 73.2772C55.6437 73.7746 54.9822 74.056 54.2911 74.0604H8.2642V77.3333C8.26556 77.4743 8.32129 77.6092 8.41939 77.7089C8.5175 77.8086 8.65018 77.8653 8.78892 77.8667H59.1999C59.3386 77.8653 59.4713 77.8086 59.5694 77.7089C59.6675 77.6092 59.7232 77.4743 59.7246 77.3333V65.3689C59.3958 65.4821 59.0596 65.5926 58.7162 65.7004C58.5124 65.7652 58.2939 65.7652 58.0901 65.7004L58.0909 65.696ZM21.0386 21.2276H47.4697C47.7357 21.2101 47.9853 21.0903 48.1676 20.8926C48.35 20.6949 48.4514 20.4341 48.4514 20.1631C48.4514 19.8921 48.35 19.6313 48.1676 19.4336C47.9853 19.2359 47.7357 19.1162 47.4697 19.0987H21.0386C20.7725 19.1162 20.523 19.2359 20.3406 19.4336C20.1583 19.6313 20.0568 19.8921 20.0568 20.1631C20.0568 20.4341 20.1583 20.6949 20.3406 20.8926C20.523 21.0903 20.7725 21.2101 21.0386 21.2276ZM10.2765 21.2276H16.184C16.3272 21.237 16.4708 21.2164 16.6059 21.1672C16.741 21.118 16.8647 21.0411 16.9694 20.9413C17.0741 20.8415 17.1576 20.721 17.2147 20.5872C17.2717 20.4533 17.3012 20.309 17.3012 20.1631C17.3012 20.0172 17.2717 19.8729 17.2147 19.7391C17.1576 19.6052 17.0741 19.4847 16.9694 19.3849C16.8647 19.2852 16.741 19.2083 16.6059 19.159C16.4708 19.1098 16.3272 19.0893 16.184 19.0987H10.2765C10.1333 19.0893 9.98969 19.1098 9.85459 19.159C9.7195 19.2083 9.59577 19.2852 9.49107 19.3849C9.38636 19.4847 9.3029 19.6052 9.24585 19.7391C9.18879 19.8729 9.15936 20.0172 9.15936 20.1631C9.15936 20.309 9.18879 20.4533 9.24585 20.5872C9.3029 20.721 9.38636 20.8415 9.49107 20.9413C9.59577 21.0411 9.7195 21.118 9.85459 21.1672C9.98969 21.2164 10.1333 21.237 10.2765 21.2276ZM10.2765 29.7387H47.4697C47.748 29.7387 48.015 29.6263 48.2118 29.4262C48.4086 29.2262 48.5191 28.9549 48.5191 28.672C48.5191 28.3891 48.4086 28.1178 48.2118 27.9178C48.015 27.7177 47.748 27.6053 47.4697 27.6053H10.2765C9.99818 27.6053 9.73125 27.7177 9.53444 27.9178C9.33763 28.1178 9.22706 28.3891 9.22706 28.672C9.22706 28.9549 9.33763 29.2262 9.53444 29.4262C9.73125 29.6263 9.99818 29.7387 10.2765 29.7387ZM10.2765 38.2498H31.5689C31.8349 38.2323 32.0844 38.1125 32.2668 37.9148C32.4491 37.7171 32.5506 37.4563 32.5506 37.1853C32.5506 36.9143 32.4491 36.6535 32.2668 36.4558C32.0844 36.2581 31.8349 36.1384 31.5689 36.1209H10.2765C10.1333 36.1115 9.98969 36.132 9.85459 36.1813C9.7195 36.2305 9.59577 36.3074 9.49107 36.4071C9.38636 36.5069 9.3029 36.6274 9.24585 36.7613C9.18879 36.8951 9.15936 37.0395 9.15936 37.1853C9.15936 37.3312 9.18879 37.4755 9.24585 37.6094C9.3029 37.7432 9.38636 37.8638 9.49107 37.9635C9.59577 38.0633 9.7195 38.1402 9.85459 38.1894C9.98969 38.2386 10.1333 38.2592 10.2765 38.2498ZM45.8763 53.76C45.1006 51.7724 44.7207 49.6481 44.7586 47.5102V35.0276L58.4102 31.3991L60.4216 31.9324C60.4762 31.9522 60.5324 31.9671 60.5895 31.9769L72.0591 35.0258V47.5102C72.1623 50.6574 71.2738 53.7559 69.5229 56.3538C67.7957 58.8089 64.9753 61.0711 60.4732 62.8373C60.4216 62.8525 60.3713 62.8718 60.3228 62.8951C59.7147 63.1322 59.0765 63.3582 58.4084 63.5733C52.6881 61.7236 49.273 59.1653 47.2948 56.3556C46.7417 55.5694 46.2759 54.7233 45.906 53.8329C45.8974 53.8087 45.8875 53.7849 45.8763 53.7618V53.76ZM21.363 55.2711H44.2496C44.6301 56.0799 45.0796 56.8532 45.5929 57.5822C47.4338 60.1991 50.3303 62.6036 54.8027 64.4924V71.4027C54.8028 71.5431 54.7484 71.6779 54.6514 71.7778C54.6038 71.826 54.5474 71.8642 54.4852 71.8901C54.4231 71.9161 54.3565 71.9292 54.2893 71.9289H3.45162C3.38445 71.9292 3.31787 71.9161 3.25573 71.8901C3.19359 71.8642 3.13711 71.826 3.08956 71.7778C3.04127 71.7285 3.00305 71.6699 2.97708 71.6056C2.95112 71.5412 2.93793 71.4722 2.93827 71.4027V2.65867C2.93793 2.58909 2.95112 2.52014 2.97708 2.45576C3.00305 2.39139 3.04127 2.33287 3.08956 2.28356C3.13711 2.23533 3.19359 2.19715 3.25573 2.17121C3.31787 2.14528 3.38445 2.1321 3.45162 2.13245H43.4013V11.4507C43.4039 12.0596 43.6427 12.6429 44.0661 13.0739C44.4894 13.5048 45.0629 13.7485 45.662 13.752H54.8027V30.1644L43.5343 33.1609C43.2915 33.2043 43.0715 33.3332 42.9129 33.525C42.7543 33.7168 42.6671 33.9592 42.6667 34.2098V36.1209H36.4234C36.2802 36.1115 36.1366 36.132 36.0015 36.1813C35.8664 36.2305 35.7427 36.3074 35.638 36.4071C35.5333 36.5069 35.4498 36.6274 35.3928 36.7613C35.3357 36.8951 35.3063 37.0395 35.3063 37.1853C35.3063 37.3312 35.3357 37.4755 35.3928 37.6094C35.4498 37.7432 35.5333 37.8638 35.638 37.9635C35.7427 38.0633 35.8664 38.1402 36.0015 38.1894C36.1366 38.2386 36.2802 38.2592 36.4234 38.2498H42.6597V44.632H10.2765C9.99818 44.632 9.73125 44.7444 9.53444 44.9444C9.33763 45.1445 9.22706 45.4158 9.22706 45.6987C9.22706 45.9816 9.33763 46.2529 9.53444 46.4529C9.73125 46.653 9.99818 46.7653 10.2765 46.7653H42.6597V47.5138C42.6391 49.42 42.8991 51.3186 43.4311 53.1467H21.363C21.0847 53.1467 20.8178 53.259 20.6209 53.4591C20.4241 53.6591 20.3136 53.9304 20.3136 54.2133C20.3136 54.4962 20.4241 54.7675 20.6209 54.9676C20.8178 55.1676 21.0847 55.28 21.363 55.28V55.2711ZM10.2765 55.2711H16.5111C16.7894 55.2711 17.0563 55.1587 17.2531 54.9587C17.45 54.7587 17.5605 54.4873 17.5605 54.2044C17.5605 53.9216 17.45 53.6502 17.2531 53.4502C17.0563 53.2502 16.7894 53.1378 16.5111 53.1378H10.2765C9.99818 53.1378 9.73125 53.2502 9.53444 53.4502C9.33763 53.6502 9.22706 53.9216 9.22706 54.2044C9.22706 54.4873 9.33763 54.7587 9.53444 54.9587C9.73125 55.1587 9.99818 55.2711 10.2765 55.2711ZM10.2765 63.7822H47.4697C47.748 63.7822 48.015 63.6698 48.2118 63.4698C48.4086 63.2698 48.5191 62.9985 48.5191 62.7156C48.5191 62.4327 48.4086 62.1614 48.2118 61.9613C48.015 61.7613 47.748 61.6489 47.4697 61.6489H10.2765C9.99818 61.6489 9.73125 61.7613 9.53444 61.9613C9.33763 62.1614 9.22706 62.4327 9.22706 62.7156C9.22706 62.9985 9.33763 63.2698 9.53444 63.4698C9.73125 63.6698 9.99818 63.7822 10.2765 63.7822Z" fill="#603C93"/>
</svg>
