<svg width="970" height="1120" viewBox="0 0 970 1120" fill="none" xmlns="http://www.w3.org/2000/svg">
<path d="M431 0H980V1120H431L346 565L431 0Z" fill="#B68B60"/>
<path d="M431 0H980V1120H431L346 565L431 0Z" fill="#B68B60"/>
<path d="M431 0H980V1120H431L346 565L431 0Z" fill="#B68B60"/>
<path d="M0.5 0H549.5L352 596L549.5 1120H0.5V0Z" fill="#B68B60"/>
<path d="M0.5 0H549.5L352 596L549.5 1120H0.5V0Z" fill="#603C93"/>
<path style="mix-blend-mode:overlay" d="M408 86H527.483V546.674L408 476.807V86Z" fill="url(#paint0_linear_731_16737)"/>
<path style="mix-blend-mode:overlay" d="M558.824 168.209H678.307V628.884L558.824 559.016V168.209Z" fill="url(#paint1_linear_731_16737)"/>
<path style="mix-blend-mode:overlay" d="M711.742 253.511H831.225V714.159L711.742 644.318V253.511Z" fill="url(#paint2_linear_731_16737)"/>
<path d="M515.597 934.649L109.934 696.595L325.56 570.059L731.223 808.113L515.597 934.649ZM206.205 696.595L515.597 878.163L634.977 808.113L325.56 626.545L206.179 696.595H206.205Z" fill="#120F4C"/>
<path d="M528.403 717.329L480.293 689.086L636.203 597.601L797.635 692.334L855.255 658.53L903.39 686.773L797.635 748.82L636.203 654.087L528.403 717.329Z" fill="#120F4C"/>
<path d="M745.462 955.669L588.555 863.612L636.69 835.369L745.462 899.183L922.053 795.563L970.189 823.807L745.462 955.669Z" fill="#120F4C"/>
<path d="M124.231 878.719L11.5714 811.585L40.8082 778.441L115.674 823.016L157.372 775.691L299.542 860.476L346.94 806.708L384.712 829.243L308.099 916.179L165.928 831.393L124.231 878.719Z" fill="#120F4C"/>
<path d="M217.761 661.57L62.2852 570.345L291 436.118L498.957 558.159L450.847 586.402L291 492.604L158.531 570.345L265.896 633.353L217.761 661.57Z" fill="#120F4C"/>
<path d="M196.724 586.792L192.812 584.531V333.304L308.537 265.385L312.448 267.672L273.771 374.357L196.724 586.792Z" fill="#5F3917"/>
<path d="M196.724 586.792L192.812 584.531V333.304L273.771 377.942L196.724 586.792Z" fill="#39210A"/>
<path d="M312.447 518.899L196.723 586.792V335.59L312.447 267.672V518.899Z" fill="url(#paint3_linear_731_16737)"/>
<path d="M224.333 447.42L214.594 453.137V373.188L224.333 367.471V447.42Z" fill="#8234CE"/>
<path d="M241.896 437.105L232.156 442.821V377.735L241.896 371.992V437.105Z" fill="#F236CA"/>
<path d="M259.484 426.79L249.719 432.506V380.307L259.484 374.591V426.79Z" fill="#EF2070"/>
<path d="M277.046 416.475L267.281 422.191V351.206L277.046 345.49V416.475Z" fill="#FFC024"/>
<path d="M294.605 406.16L284.84 411.902V374.539L294.605 368.823V406.16Z" fill="#E5DB28"/>
<path d="M295.293 429.388L215.152 476.417V467.947L295.293 420.918V429.388Z" fill="white"/>
<path d="M295.293 443.029L215.152 490.058V481.588L295.293 434.559V443.029Z" fill="white"/>
<path d="M295.293 456.67L215.152 503.699V495.229L295.293 448.2V456.67Z" fill="white"/>
<path d="M295.293 470.311L215.152 517.34V508.87L295.293 461.841V470.311Z" fill="white"/>
<path d="M512.073 862.495L232.922 698.674V683.084L608.293 790.471V806.06L512.073 862.495Z" fill="#5F3917"/>
<path d="M512.073 862.495L232.922 698.674V683.084L512.277 834.537L512.073 862.495Z" fill="#39210B"/>
<path d="M512.073 846.905L232.922 683.084L329.116 626.649L608.293 790.471L512.073 846.905Z" fill="#C0966A"/>
<path d="M500.977 829.237L255.672 685.292V671.599L585.514 765.943V779.636L500.977 829.237Z" fill="#5F3917"/>
<path d="M500.977 829.237L255.672 685.292V671.599L501.156 804.657L500.977 829.237Z" fill="#39210B"/>
<path d="M500.977 815.544L255.672 671.6L340.21 621.998L585.514 765.943L500.977 815.544Z" fill="#C0966A"/>
<path d="M495.812 803.592L274.051 673.444V661.077L572.246 746.352V758.746L495.812 803.592Z" fill="#5F3917"/>
<path d="M495.812 803.592L274.051 673.444V661.077L495.991 781.377L495.812 803.592Z" fill="#39210B"/>
<path d="M495.812 791.224L274.051 661.077L350.485 616.23L572.246 746.352L495.812 791.224Z" fill="#C0966A"/>
<path d="M492.414 777.869L299.539 664.688V653.905L558.878 728.086V738.869L492.414 777.869Z" fill="#5F3917"/>
<path d="M492.414 777.869L299.539 664.688V653.905L492.567 758.538L492.414 777.869Z" fill="#39210A"/>
<path d="M492.414 767.086L299.539 653.905L366.004 614.905L558.878 728.086L492.414 767.086Z" fill="#C0966A"/>
<path d="M481.596 538.984C481.596 538.984 485.533 532.176 491.284 531.942C497.036 531.734 500.436 561.095 500.768 577.438C501.075 593.755 480.267 612.515 480.267 612.515C480.267 612.515 474.873 609.189 473.288 606.357C471.703 603.525 486.376 581.491 485.43 570.085C484.485 558.679 480.65 552.079 481.596 538.984Z" fill="url(#paint4_linear_731_16737)"/>
<path d="M592.746 700.544V691.632L599.035 694.854L610.104 688.358C613.708 686.254 619.537 686.254 623.141 688.358L734.29 753.601L740.63 750.457V759.265C740.758 760.746 739.888 762.253 737.946 763.397L723.272 772.023C719.668 774.127 713.84 774.127 710.235 772.023L595.431 704.65C593.513 703.532 592.619 702.025 592.746 700.57V700.544Z" fill="#45296A"/>
<path d="M734.314 753.601L740.654 750.457V759.265C740.782 760.746 739.913 762.253 737.97 763.397L723.297 772.023C721.558 773.036 719.258 773.556 716.957 773.582V743.416L734.314 753.601Z" fill="#623E91"/>
<path d="M723.295 762.591C719.691 764.722 713.862 764.722 710.258 762.591L595.453 695.218C591.849 693.087 591.849 689.683 595.453 687.553L610.127 678.927C613.731 676.822 619.559 676.822 623.164 678.927L737.968 746.3C741.573 748.404 741.573 751.834 737.968 753.965L723.295 762.565V762.591Z" fill="#7777FC"/>
<path d="M688.509 739.363L696.536 734.738V693.113L644.898 662.817L688.509 739.363Z" fill="#623E91"/>
<path d="M636.898 709.041L688.511 739.363V697.738L636.898 667.442V709.041Z" fill="#45296A"/>
<path d="M551.848 447.628L559.363 443.263C559.517 443.133 559.696 443.029 559.875 442.977C560.59 442.691 561.536 442.821 562.559 443.419L778.645 570.215C780.971 571.566 782.837 574.892 782.837 577.594V746.248C782.837 747.599 782.377 748.561 781.61 749.002C781.508 749.054 781.38 749.106 781.252 749.158L773.788 753.523L772.229 745.313L774.452 746.248L562.559 621.895C560.232 620.543 558.366 617.218 558.366 614.515V452.227L551.848 447.628Z" fill="#45296A"/>
<path d="M559.363 443.263C559.517 443.133 559.696 443.029 559.875 442.977C560.59 442.691 561.536 442.821 562.559 443.419L778.645 570.215C779.642 570.812 780.562 571.774 781.278 572.891L636.845 665.494L562.559 621.921C560.232 620.569 558.366 617.244 558.366 614.541V452.253L551.848 447.654L559.363 443.289V443.263Z" fill="#45296A"/>
<path d="M550.594 619.036C550.594 621.765 552.46 625.064 554.786 626.416L770.872 753.211C773.199 754.563 775.065 753.471 775.065 750.743V582.089C775.065 579.361 773.199 576.061 770.872 574.71L554.786 447.914C552.46 446.563 550.594 447.654 550.594 450.382V619.036Z" fill="#623E91"/>
<path style="mix-blend-mode:overlay" d="M554.66 606.669L770.976 733.62V581.803L554.66 454.851V606.669Z" fill="url(#paint5_linear_731_16737)"/>
<path d="M556.782 456.099V605.006L770.976 730.71V733.62L554.66 606.669V454.851L556.782 456.099Z" fill="#7777FC"/>
<path d="M705.254 676.978L720.029 685.63V564.655L705.254 556.002V676.978Z" fill="#8234CE"/>
<path d="M678.664 661.388L693.44 670.041V571.54L678.664 562.888V661.388Z" fill="#F236CA"/>
<path d="M652.078 645.773L666.854 654.451V575.437L652.078 566.785V645.773Z" fill="#EF2070"/>
<path d="M625.52 630.183L640.27 638.835V531.423L625.52 522.744V630.183Z" fill="#FFC024"/>
<path d="M598.934 614.593L613.684 623.246V566.733L598.934 558.055V614.593Z" fill="#E5DB28"/>
<path d="M658.828 573.645L632.779 529.396L607.318 563.667L605.273 562.108L633.01 524.771L660.107 570.787L686.283 566.188L712.307 559.068L712.971 561.589L686.82 568.708L658.828 573.645Z" fill="#203FC4"/>
<path d="M608.469 564.759C608.469 566.811 607.037 567.669 605.274 566.629C603.51 565.59 602.078 563.096 602.078 561.017C602.078 558.938 603.51 558.107 605.274 559.146C607.037 560.186 608.443 562.68 608.469 564.759Z" fill="white"/>
<path d="M636.074 529.344C636.074 531.397 634.643 532.254 632.879 531.215C631.115 530.175 629.684 527.681 629.684 525.602C629.684 523.524 631.115 522.692 632.879 523.732C634.643 524.771 636.049 527.265 636.074 529.344Z" fill="white"/>
<path d="M662.305 573.852C662.305 575.905 660.873 576.763 659.109 575.723C657.346 574.684 655.914 572.19 655.914 570.111C655.914 568.032 657.346 567.201 659.109 568.24C660.873 569.279 662.279 571.774 662.305 573.852Z" fill="white"/>
<path d="M688.84 569.669C688.84 571.722 687.408 572.579 685.645 571.54C683.881 570.501 682.449 568.006 682.449 565.928C682.449 563.849 683.881 563.018 685.645 564.057C687.408 565.096 688.814 567.591 688.84 569.669Z" fill="white"/>
<path d="M715.352 562.056C715.352 564.109 713.92 564.966 712.156 563.927C710.392 562.888 708.961 560.393 708.961 558.315C708.961 556.236 710.392 555.405 712.156 556.444C713.92 557.483 715.326 559.978 715.352 562.056Z" fill="white"/>
<g style="mix-blend-mode:screen">
<path d="M390.82 428.219L607.137 555.171V403.354L390.82 276.402V428.219Z" fill="url(#paint6_linear_731_16737)" style="mix-blend-mode:overlay"/>
</g>
<path d="M426.375 437.313L575.179 524.641V523.394L426.375 436.066V437.313Z" fill="white"/>
<path d="M426.375 423.464L575.179 510.766V509.519L426.375 422.191V423.464Z" fill="white"/>
<path d="M426.375 409.589L575.179 496.918V495.67L426.375 408.342V409.589Z" fill="white"/>
<path d="M426.375 395.715L575.179 483.043V481.796L426.375 394.468V395.715Z" fill="white"/>
<path d="M426.375 381.84L575.179 469.168V467.921L426.375 380.593V381.84Z" fill="white"/>
<path d="M426.375 367.991L575.179 455.319V454.046L426.375 366.718V367.991Z" fill="white"/>
<path d="M426.375 354.116L575.179 441.444V440.197L426.375 352.869V354.116Z" fill="white"/>
<path d="M426.375 339.384L575.179 426.712V425.465L426.375 338.137V339.384Z" fill="white"/>
<path d="M426.375 325.535L575.179 412.863V411.616L426.375 324.288V325.535Z" fill="white"/>
<path d="M426.375 311.66L575.179 398.988V397.741L426.375 310.413V311.66Z" fill="white"/>
<path d="M568.71 519.6L534.711 499.646L551.71 399.066L568.71 519.6Z" fill="#E5DB28"/>
<path d="M534.71 499.646L500.711 479.691L517.711 406.471L534.71 499.646Z" fill="#E5DB28"/>
<path d="M500.714 479.691L466.715 459.736L483.714 344.684L500.714 479.691Z" fill="#E5DB28"/>
<path d="M449.714 341.644L466.714 459.736L432.715 439.781L449.714 341.644Z" fill="#E5DB28"/>
<path d="M568.71 519.6L534.711 499.646L551.71 434.975L568.71 519.6Z" fill="#EF2070"/>
<path d="M534.71 499.646L500.711 479.691L517.711 425.023L534.71 499.646Z" fill="#EF2070"/>
<path d="M500.714 479.691L466.715 459.736L483.714 380.281L500.714 479.691Z" fill="#EF2070"/>
<path d="M449.714 366.562L466.714 459.736L432.715 439.781L449.714 366.562Z" fill="#EF2070"/>
<path d="M568.71 519.6L534.711 499.646L551.71 466.751L568.71 519.6Z" fill="#F236CA"/>
<path d="M534.71 499.646L500.711 479.691L517.711 434.195L534.71 499.646Z" fill="#F236CA"/>
<path d="M500.714 479.691L466.715 459.736L483.714 399.118L500.714 479.691Z" fill="#F236CA"/>
<path d="M449.714 400.08L466.714 459.736L432.715 439.781L449.714 400.08Z" fill="#F236CA"/>
<path d="M568.71 519.6L534.711 499.646L551.71 486.55L568.71 519.6Z" fill="#8234CE"/>
<path d="M534.71 499.646L500.711 479.691L517.711 455.241L534.71 499.646Z" fill="#8234CE"/>
<path d="M500.714 479.691L466.715 459.736L483.714 419.255L500.714 479.691Z" fill="#8234CE"/>
<path d="M449.714 412.032L466.714 459.736L432.715 439.781L449.714 412.032Z" fill="#8234CE"/>
<path d="M408.609 685.63C408.609 685.63 407.791 692.048 408.354 693.529C408.916 695.01 412.316 694.698 413.594 694.334C417.761 693.139 427.782 688.073 427.526 683.889C427.424 682.175 424.893 682.356 420.803 684.279C416.713 686.228 414.412 685.89 413.875 684.695C413.338 683.5 408.609 685.63 408.609 685.63Z" fill="#2D2D2D"/>
<path d="M379.34 682.59C379.34 682.59 378.522 689.008 379.084 690.489C379.647 691.97 383.046 691.658 384.299 691.295C388.466 690.099 398.487 685.059 398.231 680.849C398.129 679.135 395.598 679.316 391.508 681.239C387.418 683.188 385.117 682.85 384.58 681.655C384.043 680.46 379.314 682.59 379.314 682.59H379.34Z" fill="#2D2D2D"/>
<path d="M352.757 482.939C352.757 482.939 344.142 498.632 343.094 531.319C344.858 537.581 362.42 533.995 364.362 531.319C366.305 528.642 364.362 522.926 364.362 522.926H356.617L358.943 507.207L352.731 482.939H352.757Z" fill="url(#paint7_linear_731_16737)"/>
<path d="M377.835 682.772C377.451 677.082 374.46 621.115 374.282 619.374C372.569 603.083 357.87 589.026 356.975 585.571C353.805 572.969 356.975 555.976 356.975 555.976L385.938 557.197C385.938 557.197 392.662 584.999 392.994 616.464C393.045 622.362 386.961 676.744 386.91 682.486L377.835 682.746V682.772Z" fill="url(#paint8_linear_731_16737)"/>
<path d="M396.448 623.142C393.968 617.27 382.132 598.432 379.653 592.898C368.021 570.578 370.782 557.431 370.782 557.431L406.98 555.976C406.98 555.976 413.319 601.342 416.157 612.904C416.617 614.749 415.186 684.435 415.595 685.968L408.207 686.695L396.473 623.168L396.448 623.142Z" fill="url(#paint9_linear_731_16737)"/>
<path d="M410.094 463.427L385.887 507.004L418.52 525.732L442.727 482.155L410.094 463.427Z" fill="#E8E8E8"/>
<path d="M410.353 464.338L386.805 506.712L418.411 524.857L441.959 482.484L410.353 464.338Z" fill="url(#paint10_linear_731_16737)"/>
<path d="M388.599 449.629C388.599 449.629 394.377 449.395 396.805 456.098C397.137 457.034 397.265 458.099 396.984 459.06C396.473 460.931 397.189 463.763 397.956 465.842C399.362 469.739 396.652 476.443 394.121 479.717C391.002 480.86 388.676 478.47 388.676 478.47L386.708 485.511L371.293 481.51C371.293 481.51 373.159 475.923 371.293 467.271C369.452 458.645 370.143 454.332 375.664 451.447C381.212 448.563 388.599 449.629 388.599 449.629Z" fill="url(#paint11_linear_731_16737)"/>
<path d="M394.375 439.132C394.375 439.132 390.311 441.912 377.861 442.795C365.386 443.679 364.977 452.461 366.665 456.93C362.983 458.333 370.934 472.052 370.908 477.404C377.989 479.951 383.434 476.625 383.434 476.625C383.434 476.625 385.965 472.416 384.405 467.661C382.821 462.932 385.76 458.333 387.601 459.606C388.01 459.892 388.572 467.401 388.879 467.453C389.058 467.505 389.646 467.479 389.799 467.453C390.362 467.323 389.646 465.4 390.234 462.178C390.515 460.645 392.509 457.372 392.407 456.514C392.279 455.319 390.975 451.941 390.975 451.941L393.659 451.5C393.659 451.5 396.625 451.811 396.574 448.927C396.522 443.757 394.375 439.132 394.375 439.132Z" fill="#1D1D1B"/>
<path d="M408.153 498.165C408.153 498.165 401.302 489.954 387.038 484.55C380.289 481.977 372.748 481.12 372.748 481.12C372.748 481.12 359.89 479.795 353.525 482.393C349.92 483.874 347.287 501.776 351.94 513.572C356.592 525.369 359.685 539.191 356.132 545.817C352.579 552.469 350.406 571.774 350.406 571.774C350.406 571.774 355.774 575.281 366.153 577.334C366.153 577.334 369.45 560.004 369.859 560.004C370.09 560.004 371.572 578.399 371.572 578.399C382.36 579.776 396.42 578.893 411.86 570.994C410.326 562.264 404.165 545.375 402.504 537.217C400.842 529.084 408.128 498.139 408.128 498.139" fill="url(#paint12_linear_731_16737)"/>
<path d="M423.054 519.418C423.054 519.418 422.543 514.949 423.054 512.195C423.565 509.441 422.492 507.856 421.801 506.869C421.137 505.881 422.287 503.231 424.409 505.596C426.531 507.96 426.837 510.74 426.837 510.74L432.257 500.997C432.257 500.997 436.781 510.922 429.087 523.939C424.051 526.564 423.028 519.418 423.028 519.418H423.054Z" fill="url(#paint13_linear_731_16737)"/>
<path d="M411.297 513.39C413.138 507.908 411.834 501.698 407.693 497.723C406.824 496.891 405.852 496.164 404.728 495.592C398.03 492.24 393.429 497.983 393.147 510.35C392.892 522.718 394.144 540.776 401.174 552.261C405.469 558.86 422.596 555.95 431.416 524.225C429.192 521.003 421.216 518.847 421.216 518.847C421.216 518.847 413.342 539.217 410.326 536.515C406.389 533.007 408.767 520.821 411.272 513.364" fill="url(#paint14_linear_731_16737)"/>
<g style="mix-blend-mode:multiply">
<path d="M429.956 699.583C415.948 707.794 393.273 707.794 379.264 699.583C365.256 691.373 365.256 678.043 379.264 669.833C393.273 661.622 415.948 661.622 429.956 669.833C443.965 678.043 443.965 691.373 429.956 699.583Z" fill="#EAEAEA"/>
</g>
<path d="M465.26 496.138C465.26 496.138 459.355 491.539 457.259 489.123C456.518 488.291 451.328 491.305 451.328 491.305C451.328 491.305 443.838 487.876 442.279 487.096C440.694 486.291 438.726 487.434 442.535 490.292C446.344 493.15 449.386 494.865 450.74 495.644C452.121 496.398 451.252 497.801 451.252 497.801C451.252 497.801 448.695 495.748 447.545 494.371C446.395 492.994 445.065 494.813 447.238 497.437C449.411 500.061 451.073 500.997 454.805 501.75C458.537 502.504 461.17 504.738 462.551 505.778C463.931 506.843 465.286 496.164 465.286 496.164" fill="url(#paint15_linear_731_16737)"/>
<path d="M499.003 531.63C495.424 529.786 486.094 525.031 484.177 523.576C469.963 512.923 465.311 509.441 460.249 505.232C459.15 504.297 458.664 502.816 459.073 501.412C459.943 498.269 463.547 494.059 465.362 494.995C478.246 501.568 485.301 507.726 498.799 515.755C512.756 520.874 539.01 520.016 539.01 520.016L536.607 537.892C536.607 537.892 524.618 544.778 499.029 531.63" fill="url(#paint16_linear_731_16737)"/>
<path d="M483.894 723.201C483.894 723.201 484.712 729.619 484.15 731.1C483.588 732.581 480.188 732.269 478.909 731.906C474.743 730.71 464.722 725.644 464.977 721.46C465.08 719.746 467.61 719.927 471.701 721.85C475.791 723.799 478.091 723.461 478.628 722.266C479.165 721.071 483.894 723.201 483.894 723.201Z" fill="#2D2D2D"/>
<path d="M513.162 720.161C513.162 720.161 513.98 726.579 513.417 728.06C512.855 729.541 509.455 729.229 508.202 728.866C504.036 727.67 494.015 722.63 494.27 718.421C494.373 716.706 496.903 716.888 500.994 718.81C505.084 720.759 507.384 720.421 507.921 719.226C508.458 718.031 513.187 720.161 513.187 720.161H513.162Z" fill="#2D2D2D"/>
<path d="M514.668 720.343C515.052 714.653 524.817 662.791 524.996 661.051C526.708 644.759 534.633 626.623 535.502 623.142C538.672 610.54 535.502 593.547 535.502 593.547L506.539 594.769C506.539 594.769 507.408 621.349 507.101 652.814C507.05 658.712 505.517 714.315 505.568 720.057L514.643 720.317L514.668 720.343Z" fill="url(#paint17_linear_731_16737)"/>
<path d="M499.152 661.051C502.603 652.84 510.988 634.626 512.854 630.495C524.485 608.176 521.724 595.028 521.724 595.028L485.527 593.573C485.527 593.573 480.619 638.575 480.619 650.631C480.619 652.528 477.321 722.032 476.938 723.539L484.325 724.267L499.152 661.051Z" fill="url(#paint18_linear_731_16737)"/>
<path d="M503.905 487.226C503.905 487.226 498.128 486.992 495.7 493.696C495.367 494.631 495.239 495.696 495.521 496.658C496.032 498.529 495.316 501.361 494.549 503.439C493.143 507.337 495.853 514.04 498.384 517.314C501.502 518.457 503.829 516.067 503.829 516.067L505.797 523.108L521.212 519.107C521.212 519.107 519.346 513.521 521.212 504.868C523.052 496.242 522.362 491.929 516.84 489.045C511.293 486.161 503.905 487.226 503.905 487.226Z" fill="url(#paint19_linear_731_16737)"/>
<path d="M498.131 476.703C498.131 476.703 502.195 479.483 514.645 480.366C527.12 481.25 527.529 490.032 525.841 494.501C529.523 495.904 521.572 509.623 521.572 514.975C514.491 517.522 509.046 514.196 509.046 514.196C509.046 514.196 506.516 509.987 508.075 505.232C509.66 500.503 506.72 495.904 504.88 497.177C504.471 497.463 503.908 504.972 503.601 505.024C503.422 505.076 502.835 505.05 502.681 505.024C502.119 504.894 502.834 502.971 502.247 499.75C501.965 498.217 499.971 494.943 500.074 494.085C500.201 492.89 501.505 489.512 501.505 489.512L498.821 489.071C498.821 489.071 495.856 489.382 495.907 486.498C495.958 481.328 498.105 476.703 498.105 476.703" fill="#1D1D1B"/>
<path d="M484.379 535.762C484.379 535.762 491.23 527.551 505.494 522.147C512.243 519.574 519.784 518.717 519.784 518.717C519.784 518.717 532.642 517.392 539.007 519.99C542.612 521.471 545.245 539.373 540.592 551.17C535.94 562.966 532.847 576.789 536.4 583.44C539.953 590.092 542.126 609.397 542.126 609.397C542.126 609.397 536.758 612.905 526.379 614.957C526.379 614.957 523.081 597.627 522.672 597.627C522.442 597.627 520.96 616.048 520.96 616.048C510.172 617.426 496.112 616.542 480.672 608.643C482.206 599.913 488.366 583.024 490.028 574.866C491.69 566.733 484.404 535.788 484.404 535.788" fill="url(#paint20_linear_731_16737)"/>
<g style="mix-blend-mode:multiply">
<path d="M462.577 737.154C476.585 745.365 499.26 745.365 513.269 737.154C527.252 728.944 527.277 715.614 513.269 707.404C499.26 699.193 476.585 699.193 462.577 707.404C448.568 715.614 448.568 728.944 462.577 737.154Z" fill="#EAEAEA"/>
</g>
<path d="M475.539 604.954C475.539 604.954 462.092 622.258 474.414 630.547C475.436 630.391 476.715 624.831 476.357 620.933C476.459 618.985 477.456 618.699 477.303 622.752C477.149 626.805 479.808 623.116 479.654 619.764C479.527 616.412 478.095 615.347 479.91 612.255C481.751 609.163 475.513 604.98 475.513 604.98L475.539 604.954Z" fill="url(#paint21_linear_731_16737)"/>
<defs>
<linearGradient id="paint0_linear_731_16737" x1="452.761" y1="546.778" x2="483.629" y2="87.1834" gradientUnits="userSpaceOnUse">
<stop stop-color="#FF8200"/>
<stop offset="0.9" stop-color="white" stop-opacity="0"/>
</linearGradient>
<linearGradient id="paint1_linear_731_16737" x1="603.585" y1="628.988" x2="634.453" y2="169.393" gradientUnits="userSpaceOnUse">
<stop stop-color="#FF8200"/>
<stop offset="0.9" stop-color="white" stop-opacity="0"/>
</linearGradient>
<linearGradient id="paint2_linear_731_16737" x1="756.503" y1="714.263" x2="787.368" y2="254.694" gradientUnits="userSpaceOnUse">
<stop stop-color="#FF8200"/>
<stop offset="0.9" stop-color="white" stop-opacity="0"/>
</linearGradient>
<linearGradient id="paint3_linear_731_16737" x1="147.156" y1="536.437" x2="365.512" y2="321.607" gradientUnits="userSpaceOnUse">
<stop stop-color="#A77D69"/>
<stop offset="1" stop-color="#ECDDB8"/>
</linearGradient>
<linearGradient id="paint4_linear_731_16737" x1="500.76" y1="572.254" x2="473.152" y2="572.254" gradientUnits="userSpaceOnUse">
<stop stop-color="#634BDB"/>
<stop offset="1" stop-color="#623E91"/>
</linearGradient>
<linearGradient id="paint5_linear_731_16737" x1="635.698" y1="733.683" x2="641.966" y2="454.454" gradientUnits="userSpaceOnUse">
<stop stop-color="white"/>
<stop offset="0.9" stop-color="white" stop-opacity="0"/>
</linearGradient>
<linearGradient id="paint6_linear_731_16737" x1="471.858" y1="555.234" x2="478.126" y2="276.004" gradientUnits="userSpaceOnUse">
<stop stop-color="#C0966A"/>
<stop offset="0.9" stop-color="#A77D69"/>
</linearGradient>
<linearGradient id="paint7_linear_731_16737" x1="365.217" y1="508.884" x2="343.081" y2="508.884" gradientUnits="userSpaceOnUse">
<stop stop-color="#634BDB"/>
<stop offset="1" stop-color="#623E91"/>
</linearGradient>
<linearGradient id="paint8_linear_731_16737" x1="392.979" y1="619.415" x2="355.545" y2="619.415" gradientUnits="userSpaceOnUse">
<stop stop-color="#634BDB"/>
<stop offset="1" stop-color="#623E91"/>
</linearGradient>
<linearGradient id="paint9_linear_731_16737" x1="416.23" y1="621.377" x2="370.469" y2="621.377" gradientUnits="userSpaceOnUse">
<stop stop-color="#634BDB"/>
<stop offset="1" stop-color="#623E91"/>
</linearGradient>
<linearGradient id="paint10_linear_731_16737" x1="441.999" y1="494.672" x2="386.859" y2="494.672" gradientUnits="userSpaceOnUse">
<stop stop-color="white"/>
<stop offset="0.72" stop-color="#EFEFEF"/>
<stop offset="1" stop-color="#E8E8E8"/>
</linearGradient>
<linearGradient id="paint11_linear_731_16737" x1="398.313" y1="467.479" x2="370.347" y2="467.479" gradientUnits="userSpaceOnUse">
<stop stop-color="#FFE2C4"/>
<stop offset="1" stop-color="#FFB870"/>
</linearGradient>
<linearGradient id="paint12_linear_731_16737" x1="411.834" y1="529.89" x2="349.409" y2="529.89" gradientUnits="userSpaceOnUse">
<stop stop-color="#634BDB"/>
<stop offset="1" stop-color="#623E91"/>
</linearGradient>
<linearGradient id="paint13_linear_731_16737" x1="433.56" y1="512.767" x2="421.597" y2="512.767" gradientUnits="userSpaceOnUse">
<stop stop-color="#FFE2C4"/>
<stop offset="1" stop-color="#FFB870"/>
</linearGradient>
<linearGradient id="paint14_linear_731_16737" x1="431.4" y1="524.917" x2="393.095" y2="524.917" gradientUnits="userSpaceOnUse">
<stop stop-color="#634BDB"/>
<stop offset="1" stop-color="#623E91"/>
</linearGradient>
<linearGradient id="paint15_linear_731_16737" x1="444.016" y1="497.075" x2="467.945" y2="494.837" gradientUnits="userSpaceOnUse">
<stop stop-color="#FFE2C4"/>
<stop offset="1" stop-color="#FFB870"/>
</linearGradient>
<linearGradient id="paint16_linear_731_16737" x1="538.977" y1="517.292" x2="458.883" y2="517.292" gradientUnits="userSpaceOnUse">
<stop stop-color="#634BDB"/>
<stop offset="1" stop-color="#623E91"/>
</linearGradient>
<linearGradient id="paint17_linear_731_16737" x1="536.898" y1="656.986" x2="505.548" y2="656.986" gradientUnits="userSpaceOnUse">
<stop stop-color="#634BDB"/>
<stop offset="1" stop-color="#623E91"/>
</linearGradient>
<linearGradient id="paint18_linear_731_16737" x1="521.992" y1="658.962" x2="476.911" y2="658.962" gradientUnits="userSpaceOnUse">
<stop stop-color="#634BDB"/>
<stop offset="1" stop-color="#623E91"/>
</linearGradient>
<linearGradient id="paint19_linear_731_16737" x1="494.166" y1="505.05" x2="522.132" y2="505.05" gradientUnits="userSpaceOnUse">
<stop stop-color="#FFE2C4"/>
<stop offset="1" stop-color="#FFB870"/>
</linearGradient>
<linearGradient id="paint20_linear_731_16737" x1="543.061" y1="567.513" x2="480.635" y2="567.513" gradientUnits="userSpaceOnUse">
<stop stop-color="#634BDB"/>
<stop offset="1" stop-color="#623E91"/>
</linearGradient>
<linearGradient id="paint21_linear_731_16737" x1="471.124" y1="616.514" x2="481.475" y2="619.686" gradientUnits="userSpaceOnUse">
<stop stop-color="#FFE2C4"/>
<stop offset="1" stop-color="#FFB870"/>
</linearGradient>
</defs>
</svg>
