<svg width="100" height="100" viewBox="0 0 100 100" fill="none" xmlns="http://www.w3.org/2000/svg">
<g clip-path="url(#clip0_557_104573)">
<path d="M75.6702 52.1484C63.3374 52.1484 53.1906 61.8385 52.2095 74.1211H47.8244C47.4145 68.9895 45.4043 64.3111 42.3035 60.6023L60.4398 42.1682C62.2619 43.7434 64.2951 45.0195 66.5078 45.9705C69.4096 47.2188 72.4918 47.8516 75.6702 47.8516C78.8485 47.8516 81.9307 47.2188 84.8323 45.9707C87.6359 44.7656 90.1532 43.041 92.315 40.8438C94.4768 38.6465 96.1735 36.0879 97.3591 33.2383C98.587 30.2891 99.2096 27.1562 99.2096 23.9258C99.2096 21.0527 98.7139 18.2402 97.7337 15.5723C97.4552 14.8105 96.7306 14.3008 95.9333 14.3008C95.7047 14.3008 95.4798 14.3418 95.2627 14.4238C94.7823 14.6055 94.3999 14.9668 94.1864 15.4414C93.9733 15.916 93.9539 16.4473 94.1328 16.9355C94.9514 19.168 95.3665 21.5195 95.3665 23.9258C95.3665 28.151 94.0844 32.1768 91.7114 35.5471C89.56 31.7207 86.311 28.8219 82.4933 27.2371C84.7821 25.2652 86.2389 22.3244 86.2389 19.043C86.2389 13.1197 81.4978 8.30078 75.6702 8.30078C69.8425 8.30078 65.1014 13.1197 65.1014 19.043C65.1014 22.3236 66.5574 25.2639 68.8454 27.2359C65.0272 28.8197 61.7776 31.7176 59.6258 35.543C57.2548 32.1732 55.9739 28.1492 55.9739 23.9258C55.9739 18.5801 58.0242 13.5527 61.7425 9.76953C65.4646 5.99023 70.4108 3.90625 75.6702 3.90625C78.4294 3.90625 81.0986 4.47461 83.6025 5.5957C83.8483 5.70508 84.1098 5.76172 84.3767 5.76172C85.1376 5.76172 85.8296 5.30469 86.1369 4.5957C86.5635 3.60938 86.1215 2.45508 85.153 2.02148C82.1574 0.679688 78.9695 0 75.674 0H75.6702C72.4918 0 69.4096 0.632813 66.5078 1.88086C63.7042 3.08594 61.1871 4.81055 59.0253 7.00781C56.8636 9.20508 55.1668 11.7637 53.9812 14.6133C52.7533 17.5625 52.1307 20.6953 52.1307 23.9258C52.1307 27.1562 52.7533 30.2891 53.9812 33.2383C54.917 35.4873 56.1724 37.5541 57.7223 39.4061L39.586 57.8402C35.9369 54.6885 31.3343 52.6453 26.2855 52.2287V47.7715C38.3696 46.7742 47.9032 36.4609 47.9032 23.9258C47.9032 10.733 37.3435 0 24.3637 0C11.3839 0 0.824219 10.733 0.824219 23.9258C0.824219 36.4609 10.3578 46.7742 22.4421 47.7715V52.2287C10.3578 53.2258 0.824219 63.5391 0.824219 76.0742C0.824219 89.267 11.3839 100 24.3637 100C36.6965 100 46.8432 90.31 47.8244 78.0273H52.2097C53.1906 90.31 63.3374 100 75.6702 100C88.6499 100 99.2096 89.267 99.2096 76.0742C99.2096 62.8814 88.6499 52.1484 75.6702 52.1484ZM68.9446 19.043C68.9446 15.2736 71.9617 12.207 75.6702 12.207C79.3786 12.207 82.3957 15.2736 82.3957 19.043C82.3957 22.7984 79.4005 25.8553 75.7109 25.8779C75.6967 25.8779 75.6824 25.8771 75.6682 25.8771C75.6546 25.8771 75.6411 25.8779 75.6277 25.8779C71.9388 25.8543 68.9446 22.7979 68.9446 19.043ZM75.6279 29.784C75.6421 29.784 75.6559 29.7852 75.6702 29.7852C75.6838 29.7852 75.6973 29.7842 75.7107 29.7842C81.3894 29.8014 86.4772 33.2486 88.9847 38.6771C85.3394 42.0789 80.6463 43.9453 75.6702 43.9453C70.6925 43.9453 65.9959 42.0775 62.3516 38.6736C64.8599 33.2465 69.9484 29.8004 75.6279 29.784ZM17.6381 19.043C17.6381 15.2736 20.6552 12.207 24.3637 12.207C28.0722 12.207 31.0893 15.2736 31.0893 19.043C31.0893 22.7984 28.0941 25.8553 24.4044 25.8779C24.3902 25.8779 24.376 25.8771 24.3618 25.8771C24.3481 25.8771 24.3347 25.8779 24.3212 25.8779C20.6324 25.8543 17.6381 22.7979 17.6381 19.043ZM24.3637 29.7852C24.3773 29.7852 24.3908 29.7842 24.4042 29.7842C30.08 29.8014 35.1653 33.2449 37.674 38.6686C34.1659 41.9432 29.4909 43.9453 24.3637 43.9453C19.2346 43.9453 14.5578 41.9416 11.0494 38.6646C13.5592 33.2426 18.645 29.8004 24.3214 29.784C24.3356 29.7842 24.3495 29.7852 24.3637 29.7852ZM24.3637 3.90625C35.2243 3.90625 44.06 12.8869 44.06 23.9258C44.06 28.2514 42.703 32.2605 40.3994 35.5375C38.248 31.7158 35.0012 28.8205 31.1869 27.2371C33.4757 25.265 34.9324 22.3244 34.9324 19.043C34.9324 13.1197 30.1913 8.30078 24.3637 8.30078C18.5361 8.30078 13.795 13.1197 13.795 19.043C13.795 22.3236 15.2509 25.2639 17.539 27.2359C13.724 28.8184 10.4769 31.7127 8.32476 35.5332C6.02308 32.257 4.6674 28.2494 4.6674 23.9258C4.6674 12.8869 13.5031 3.90625 24.3637 3.90625ZM24.3637 96.0938C13.5031 96.0938 4.6674 87.1131 4.6674 76.0742C4.6674 65.0354 13.5031 56.0547 24.3637 56.0547C35.2243 56.0547 44.06 65.0354 44.06 76.0742C44.06 87.1131 35.2243 96.0938 24.3637 96.0938ZM62.3558 90.8131C64.8714 85.3793 69.9751 81.9336 75.6682 81.9336C81.3615 81.9336 86.4656 85.3809 88.9804 90.8168C85.4726 94.0916 80.7973 96.0938 75.6702 96.0938C70.541 96.0938 65.8643 94.09 62.3558 90.8131ZM75.6702 78.0273C71.9617 78.0273 68.9446 74.9607 68.9446 71.1914C68.9446 67.4221 71.9617 64.3555 75.6702 64.3555C79.3786 64.3555 82.3957 67.4221 82.3957 71.1914C82.3957 74.9607 79.3786 78.0273 75.6702 78.0273ZM91.7058 87.6861C89.5544 83.8646 86.3071 80.9697 82.4922 79.3867C84.7818 77.4146 86.2389 74.4734 86.2389 71.1914C86.2389 65.2682 81.4978 60.4492 75.6702 60.4492C69.8425 60.4492 65.1014 65.2682 65.1014 71.1914C65.1014 74.4729 66.558 77.4133 68.8466 79.3854C65.0311 80.9674 61.7834 83.8613 59.6312 87.6816C57.3295 84.4055 55.9739 80.3979 55.9739 76.0742C55.9739 65.0354 64.8095 56.0547 75.6702 56.0547C86.5308 56.0547 95.3665 65.0354 95.3665 76.0742C95.3665 80.3998 94.0094 84.4092 91.7058 87.6861Z" fill="#623E91"/>
<path d="M34.5591 65.6601C33.6761 65.0619 32.4832 65.3043 31.8944 66.2017L21.8437 81.5252L16.755 74.8752C16.1031 74.0236 14.896 73.8703 14.0584 74.5326C13.2206 75.1949 13.0697 76.4219 13.7213 77.2734L20.4469 86.0625C20.8116 86.5392 21.372 86.8166 21.9636 86.8166C21.9871 86.8166 22.0105 86.8162 22.0339 86.8152C22.6512 86.7924 23.2199 86.4693 23.5626 85.9469L35.0921 68.3687C35.6807 67.4711 35.442 66.2584 34.5591 65.6601Z" fill="#623E91"/>
<path d="M91.3942 10.7988C92.4555 10.7988 93.3158 9.92438 93.3158 8.8457C93.3158 7.76702 92.4555 6.89258 91.3942 6.89258C90.333 6.89258 89.4727 7.76702 89.4727 8.8457C89.4727 9.92438 90.333 10.7988 91.3942 10.7988Z" fill="#623E91"/>
</g>
<defs>
<clipPath id="clip0_557_104573">
<rect width="98.3854" height="100" fill="white" transform="translate(0.824219)"/>
</clipPath>
</defs>
</svg>
