<svg width="119" height="120" viewBox="0 0 119 120" fill="none" xmlns="http://www.w3.org/2000/svg">
<path d="M109.463 109.8H107.274V44.1C107.274 43.1057 106.481 42.3 105.503 42.3H91.5487C90.5704 42.3 89.7777 43.1057 89.7777 44.1V109.8H82.9176V65.1C82.9176 64.1057 82.125 63.3 81.1467 63.3H67.1925C66.2142 63.3 65.4216 64.1057 65.4216 65.1V109.8H58.5615V59.4C58.5615 58.4057 57.7688 57.6 56.7905 57.6H42.8369C41.8586 57.6 41.066 58.4057 41.066 59.4V109.8H34.2059V78C34.2059 77.0057 33.4132 76.2 32.435 76.2H18.4808C17.5025 76.2 16.7098 77.0057 16.7098 78V109.8H14.5209C13.5427 109.8 12.75 110.606 12.75 111.6C12.75 112.594 13.5427 113.4 14.5209 113.4H18.4808H32.435H42.8369H56.7905H67.1925H81.1467H91.5487H105.503H109.463C110.441 113.4 111.234 112.594 111.234 111.6C111.234 110.606 110.441 109.8 109.463 109.8ZM20.2517 109.8V79.8H30.664V109.8H20.2517ZM44.6079 109.8V61.2H55.0196V109.8H44.6079ZM68.9634 109.8V66.9H79.3758V109.8H68.9634ZM93.3196 109.8V45.9H103.732V109.8H93.3196Z" fill="#623E91"/>
<path d="M56.4395 40.5082C56.2875 36.9222 53.3779 34.05 49.813 34.05C46.1512 34.05 43.172 37.0781 43.172 40.8C43.172 41.6707 43.3406 42.5008 43.6373 43.2656L29.5022 54.0587C28.3807 53.1792 26.9802 52.65 25.4574 52.65C21.7956 52.65 18.8164 55.6781 18.8164 59.4C18.8164 63.1219 21.7956 66.15 25.4574 66.15C29.1192 66.15 32.0984 63.1219 32.0984 59.4C32.0984 58.5291 31.9299 57.6989 31.6331 56.934L45.7679 46.1411C46.8895 47.0208 48.2901 47.55 49.813 47.55C52.3294 47.55 54.5234 46.1198 55.6498 44.0173L67.5427 46.7918C67.6947 50.3778 70.6043 53.25 74.1692 53.25C77.8309 53.25 80.8102 50.2219 80.8102 46.5C80.8102 45.4864 80.583 44.528 80.1874 43.6644L94.791 31.0774C95.8559 31.8164 97.1414 32.25 98.5253 32.25C102.187 32.25 105.166 29.2219 105.166 25.5C105.166 21.7781 102.187 18.75 98.5253 18.75C94.8635 18.75 91.8843 21.7781 91.8843 25.5C91.8843 26.5108 92.1103 27.4668 92.5037 28.3285L77.8974 40.9179C76.8337 40.1816 75.5503 39.75 74.1692 39.75C71.6528 39.75 69.4588 41.1802 68.3324 43.2827L56.4395 40.5082ZM25.4574 62.55C23.7487 62.55 22.3583 61.1367 22.3583 59.4C22.3583 57.6633 23.7487 56.25 25.4574 56.25C27.1661 56.25 28.5566 57.6633 28.5566 59.4C28.5566 61.1367 27.1661 62.55 25.4574 62.55ZM49.813 43.95C48.1043 43.95 46.7139 42.5367 46.7139 40.8C46.7139 39.0633 48.1043 37.65 49.813 37.65C51.5217 37.65 52.9121 39.0633 52.9121 40.8C52.9121 42.5367 51.5217 43.95 49.813 43.95ZM98.5253 22.35C100.234 22.35 101.624 23.7633 101.624 25.5C101.624 27.2367 100.234 28.65 98.5253 28.65C96.8166 28.65 95.4262 27.2367 95.4262 25.5C95.4262 23.7633 96.8166 22.35 98.5253 22.35ZM74.1692 43.35C75.8778 43.35 77.2683 44.7633 77.2683 46.5C77.2683 48.2367 75.8778 49.65 74.1692 49.65C72.4605 49.65 71.07 48.2367 71.07 46.5C71.07 44.7633 72.4605 43.35 74.1692 43.35Z" fill="#623E91"/>
<path d="M15.063 37.4672C15.063 39.1857 16.0724 40.7215 17.6346 41.3789C18.1535 41.5975 18.6959 41.7035 19.2332 41.7035C20.3153 41.7035 21.376 41.2734 22.1744 40.4613L30.1056 32.4H51.0386C53.3353 32.4 55.2042 30.5004 55.2042 28.166V10.834C55.2042 8.49961 53.3353 6.6 51.0386 6.6H11.26C8.96269 6.6 7.09375 8.49961 7.09375 10.834V28.166C7.09375 30.5004 8.96269 32.4 11.26 32.4H15.063V37.4672ZM11.26 28.8C10.9158 28.8 10.6356 28.5158 10.6356 28.166V10.834C10.6356 10.4842 10.9158 10.2 11.26 10.2H51.0386C51.3828 10.2 51.6623 10.4842 51.6623 10.834V28.166C51.6623 28.5158 51.3828 28.8 51.0386 28.8H29.3723C28.9025 28.8 28.4522 28.9898 28.1202 29.3273L19.6702 37.916C19.4136 38.1773 19.1341 38.1129 18.9899 38.0531C18.8464 37.9928 18.6048 37.8357 18.6048 37.4672V30.6C18.6048 29.6057 17.8122 28.8 16.8339 28.8H11.26Z" fill="#623E91"/>
<path d="M86.2419 28.5773C87.2162 28.493 87.9391 27.6217 87.8561 26.6309C87.8249 26.2611 87.8036 25.8803 87.8036 25.5C87.8036 19.4854 92.6126 14.5922 98.5232 14.5922C104.441 14.5922 109.255 19.4854 109.255 25.5C109.255 31.5146 104.441 36.4078 98.5232 36.4078C97.5737 36.4078 96.63 36.2801 95.718 36.0275C94.7755 35.7662 93.8013 36.3322 93.5442 37.2914C93.287 38.2506 93.8439 39.2396 94.7876 39.501C96.0022 39.8373 97.2595 40.0078 98.5232 40.0078C106.394 40.0078 112.797 33.4998 112.797 25.5C112.797 17.5002 106.394 10.9922 98.5232 10.9922C90.6595 10.9922 84.2617 17.5002 84.2617 25.5C84.2617 25.9834 84.2877 26.4674 84.3269 26.9367C84.4099 27.927 85.2544 28.6564 86.2419 28.5773Z" fill="#623E91"/>
<path d="M19.2953 24.6C20.0747 24.6 20.8299 24.276 21.385 23.724C21.9281 23.1598 22.2469 22.3916 22.2469 21.6C22.2469 20.8078 21.9281 20.0396 21.385 19.476C20.2753 18.3598 18.3038 18.3598 17.2056 19.476C16.6504 20.0396 16.3438 20.8078 16.3438 21.6C16.3438 22.3916 16.6504 23.1598 17.2056 23.724C17.7607 24.276 18.5159 24.6 19.2953 24.6Z" fill="#623E91"/>
<path d="M31.1508 24.6C31.9302 24.6 32.6854 24.276 33.2405 23.724C33.7836 23.1598 34.1023 22.3916 34.1023 21.6C34.1023 20.8078 33.7836 20.0396 33.2405 19.476C32.1423 18.3598 30.1708 18.3598 29.0611 19.476C28.518 20.0396 28.1992 20.8078 28.1992 21.6C28.1992 22.3916 28.518 23.1598 29.0611 23.724C29.6162 24.276 30.3714 24.6 31.1508 24.6Z" fill="#623E91"/>
<path d="M43.0023 24.6C43.7817 24.6 44.5369 24.276 45.0921 23.724C45.6351 23.1598 45.9539 22.3916 45.9539 21.6C45.9539 20.8078 45.6351 20.0396 45.0921 19.476C43.9939 18.3598 42.0108 18.3598 40.9126 19.476C40.3696 20.0396 40.0508 20.8078 40.0508 21.6C40.0508 22.3916 40.3696 23.1598 40.9126 23.724C41.4672 24.276 42.2229 24.6 43.0023 24.6Z" fill="#623E91"/>
</svg>
