<svg width="119" height="120" viewBox="0 0 119 120" fill="none" xmlns="http://www.w3.org/2000/svg">
<path d="M30.0391 106.765C30.0391 107.824 30.9072 108.529 31.7753 108.529C32.6434 108.529 33.5115 107.647 33.5115 106.765C33.5115 105.882 32.817 105 31.7753 105C30.7335 105 30.0391 105.706 30.0391 106.765Z" fill="#623E91"/>
<path d="M21.3594 106.765C21.3594 107.824 22.2275 108.529 23.0956 108.529C23.9637 108.529 24.8318 107.647 24.8318 106.765C24.8318 105.882 24.1373 105 23.0956 105C22.2275 105 21.3594 105.706 21.3594 106.765Z" fill="#623E91"/>
<path d="M12.8516 106.765C12.8516 107.824 13.7197 108.529 14.5878 108.529C15.4559 108.529 16.324 107.647 16.324 106.765C16.324 105.882 15.6295 105 14.5878 105C13.7197 105 12.8516 105.706 12.8516 106.765Z" fill="#623E91"/>
<path d="M101.746 106.765C101.746 107.824 102.614 108.529 103.482 108.529C104.35 108.529 105.219 107.647 105.219 106.765C105.219 105.882 104.524 105 103.482 105C102.614 105 101.746 105.706 101.746 106.765Z" fill="#623E91"/>
<path d="M93.2383 106.765C93.2383 107.824 94.1064 108.529 94.9745 108.529C95.8426 108.529 96.7107 107.647 96.7107 106.765C96.7107 105.882 96.0162 105 94.9745 105C93.9328 105 93.2383 105.706 93.2383 106.765Z" fill="#623E91"/>
<path d="M84.5586 106.765C84.5586 107.824 85.4267 108.529 86.2948 108.529C87.1629 108.529 88.031 107.647 88.031 106.765C88.031 105.882 87.3365 105 86.2948 105C85.4267 105 84.5586 105.706 84.5586 106.765Z" fill="#623E91"/>
<path d="M113.725 109.412V98.8235C113.725 97.7647 113.031 97.0588 111.989 97.0588H107.648V42.3529C107.648 38.4706 104.523 35.2941 100.704 35.2941H90.9808V31.4118C90.9808 30.3529 90.2863 29.6471 89.2446 29.6471H84.3832C83.6887 27 82.8206 24.5294 81.4316 22.2353L84.904 18.7059C85.5985 18 85.5985 16.9412 84.904 16.2353L78.4801 9.70588C78.1328 9.35294 77.7856 9.17647 77.2647 9.17647C76.7438 9.17647 76.3966 9.35294 76.0494 9.70588L72.5769 13.2353C70.3198 11.8235 67.8892 10.7647 65.2848 10.2353V5.29412C65.2848 4.23529 64.5903 3.52941 63.5486 3.52941H54.3467C53.305 3.52941 52.6105 4.23529 52.6105 5.29412V10.2353C50.0062 10.9412 47.5755 11.8235 45.3184 13.2353L41.846 9.70588C41.1515 9 40.1097 9 39.4153 9.70588L32.9913 16.2353C32.2968 16.9412 32.2968 18 32.9913 18.7059L36.4637 22.2353C35.0747 24.5294 34.033 27 33.5121 29.6471H28.6507C27.609 29.6471 26.9145 30.3529 26.9145 31.4118V35.2941H17.1917C13.3721 35.2941 10.2469 38.4706 10.2469 42.3529V97.0588H6.07996C5.03824 97.0588 4.34375 97.7647 4.34375 98.8235V109.412C4.34375 113.294 7.46893 116.471 11.2886 116.471H106.954C110.6 116.471 113.725 113.294 113.725 109.412ZM30.3869 33.3529H34.9011C35.7692 33.3529 36.4637 32.8235 36.6373 31.9412C37.1582 28.7647 38.3735 25.7647 40.1097 23.2941C40.6306 22.5882 40.457 21.7059 39.9361 21L36.8109 17.6471L40.8042 13.5882L44.103 16.9412C44.6239 17.4706 45.6656 17.6471 46.3601 17.1176C48.9644 15.3529 51.7424 14.1176 54.8676 13.5882C55.7357 13.4118 56.2565 12.7059 56.2565 11.8235V7.05882H61.986V11.6471C61.986 12.5294 62.5069 13.2353 63.375 13.4118C66.5002 13.9412 69.4518 15.1765 71.8824 16.9412C72.5769 17.4706 73.445 17.2941 74.1395 16.7647L77.4383 13.4118L81.4316 17.4706L78.1328 20.8235C77.6119 21.3529 77.4383 22.4118 77.9592 23.1176C79.6954 25.7647 80.9108 28.5882 81.4316 31.7647C81.6052 32.6471 82.2997 33.1765 83.1678 33.1765H87.682V35.2941H74.6604C74.3131 26.8235 67.3683 20.1176 59.0345 20.1176C50.527 20.1176 43.7558 26.8235 43.2349 35.2941H30.3869V33.3529ZM13.8929 42.3529C13.8929 40.4118 15.4555 38.8235 17.3653 38.8235H54.6939C55.7357 38.8235 56.4301 38.1176 56.4301 37.0588C56.4301 36 55.7357 35.2941 54.6939 35.2941H46.881C47.2282 28.7647 52.6105 23.6471 59.2081 23.6471C65.8057 23.6471 71.0143 28.7647 71.3616 35.2941H64.9376C63.8959 35.2941 63.2014 36 63.2014 37.0588C63.2014 38.1176 63.8959 38.8235 64.9376 38.8235H100.877C102.787 38.8235 104.35 40.4118 104.35 42.3529V97.0588H70.3199C69.4517 97.0588 68.7573 97.5882 68.5836 98.4706L68.0628 101.118C67.7155 102.706 66.3266 103.941 64.764 103.941H53.305C51.7424 103.941 50.3534 102.706 50.0062 101.118L49.4853 98.4706C49.3117 97.5882 48.6172 97.0588 47.7491 97.0588H13.8929V42.3529ZM7.81618 109.412V100.588H46.3601L46.7074 102C47.4018 105.176 50.1798 107.471 53.4786 107.471H64.9376C68.2364 107.471 71.0143 105.176 71.7088 102L72.0561 100.588H110.6V109.412C110.6 111.353 109.037 112.941 107.128 112.941H11.115C9.37877 112.941 7.81618 111.353 7.81618 109.412Z" fill="#623E91"/>
<path d="M92.8917 92.6471C93.9334 92.6471 94.6279 91.9412 94.6279 90.8823C94.6279 89.8235 93.9334 89.1176 92.8917 89.1176H90.2873V54C90.2873 52.9412 89.5929 52.2353 88.5511 52.2353H80.3909C79.3492 52.2353 78.6547 52.9412 78.6547 54V89.1176H73.2725V67.0588C73.2725 66 72.578 65.2941 71.5363 65.2941H63.3761C62.3343 65.2941 61.6398 66 61.6398 67.0588V89.1176H56.2576V60.5294C56.2576 59.4706 55.5631 58.7647 54.5214 58.7647H46.3612C45.3194 58.7647 44.625 59.4706 44.625 60.5294V89.1176H39.2427V75.3529C39.2427 74.2941 38.5482 73.5882 37.5065 73.5882H29.3463C28.3045 73.5882 27.6101 74.2941 27.6101 75.3529V89.1176H25.0057C23.964 89.1176 23.2695 89.8235 23.2695 90.8823C23.2695 91.9412 23.964 92.6471 25.0057 92.6471C33.3396 92.6471 98.1003 92.6471 92.8917 92.6471ZM82.1272 55.7647H86.8149V89.1176H82.1272V55.7647ZM65.1123 68.8235H69.8V89.1176H65.1123V68.8235ZM31.0825 89.1176V77.1176H35.7703V89.1176H31.0825ZM48.0974 89.1176V62.2941H52.7852V89.1176H48.0974Z" fill="#623E91"/>
</svg>
