<svg width="79" height="72" viewBox="0 0 79 72" fill="none" xmlns="http://www.w3.org/2000/svg">
<path fill-rule="evenodd" clip-rule="evenodd" d="M23.2646 50.6671C32.0934 58.7927 42.3658 65.5937 51.6407 69.0994C58.2615 71.6016 64.4247 72.4129 69.3226 71.0912C69.5472 71.0306 69.7613 70.9364 69.9542 70.8143C69.9542 70.8143 75.1842 67.4672 77.5515 63.1309C79.3693 59.8001 79.6751 55.9599 75.7642 52.3955C67.5786 44.9332 59.9233 43.4 56.9656 42.9607C56.2465 42.854 55.3787 42.9366 54.4244 43.2404C53.0125 43.6893 51.2621 44.689 49.5676 45.6522C48.7483 46.1184 47.9427 46.5712 47.2057 46.9047C46.8967 47.0441 46.4591 47.1806 46.2314 47.2479C41.3757 44.2661 37.682 40.9026 36.3344 39.6106C36.2374 39.4847 36.1224 39.3665 35.9906 39.2588C35.9906 39.2588 35.9516 39.228 35.8789 39.1675C35.8124 39.1012 35.7787 39.0656 35.7787 39.0656C35.6606 38.9454 35.5309 38.8407 35.3928 38.7522C33.9756 37.5237 30.2861 34.1564 27.0152 29.7298C27.089 29.5221 27.2388 29.1232 27.3917 28.8416C27.7576 28.1696 28.2542 27.4352 28.7656 26.6883C29.8221 25.1436 30.9188 23.5479 31.4112 22.2607C31.7444 21.3908 31.8351 20.5996 31.718 19.9441C31.2362 17.2477 29.5543 10.2689 21.3687 2.80658C17.4588 -0.758762 13.2463 -0.479995 9.59268 1.17723C4.83609 3.33528 1.16452 8.10316 1.16452 8.10316C1.03061 8.27908 0.927275 8.47421 0.860845 8.67896C-0.589013 13.1441 0.300936 18.7627 3.04565 24.7985C6.8912 33.2538 14.3514 42.6184 23.2646 50.6671ZM32.7704 42.0013C31.5715 40.9891 27.0384 37.0133 23.1423 31.6561C22.7163 31.0717 22.5107 30.3594 22.5897 29.525C22.6562 28.8252 22.9577 27.9755 23.4565 27.0603C24.2948 25.5213 25.7415 23.6728 26.6978 22.055C26.9024 21.7089 27.0817 21.3764 27.2135 21.0649C27.2883 20.8861 27.36 20.5977 27.3727 20.5439C26.9414 18.1551 25.3745 12.1232 18.2623 5.63847C15.3889 3.01902 12.2341 4.1437 9.79619 5.73941C7.39522 7.31204 5.57104 9.40953 4.97633 10.1353C3.91662 13.8131 4.87511 18.3628 7.1042 23.2643C10.7209 31.2159 17.7382 39.9894 26.0947 47.5834L26.5597 48.0035C26.5892 48.0313 26.6188 48.0592 26.6472 48.0871C34.9773 55.7051 44.6012 62.1024 53.3236 65.3995C58.7002 67.4316 63.6898 68.3054 67.7272 67.3384C68.5223 66.7962 70.8231 65.1333 72.5471 62.9454C74.2975 60.723 75.5312 57.8468 72.6578 55.2274C65.5445 48.7436 58.9279 47.3152 56.3076 46.922C56.2486 46.9336 55.9322 46.9989 55.7361 47.0672C55.3945 47.1873 55.0296 47.3508 54.65 47.5372C52.8754 48.4091 50.8477 49.728 49.1596 50.4922C48.1557 50.9469 47.2236 51.2218 46.456 51.2823C45.5407 51.3544 44.7594 51.167 44.1183 50.7786C38.2419 47.2268 33.8807 43.0943 32.7704 42.0013ZM35.2314 4.03892C45.2328 4.13025 55.2026 7.65041 62.8272 14.6004C70.4509 21.5513 74.3122 30.6401 74.4124 39.7577C74.425 40.8632 75.4183 41.7514 76.6309 41.7408C77.8435 41.7293 78.8178 40.8228 78.8063 39.7173C78.6945 29.5885 74.404 19.4903 65.9336 11.7685C57.4633 4.04662 46.3864 0.135217 35.2757 0.0333226C34.0631 0.0227486 33.0688 0.91096 33.0561 2.01642C33.0445 3.12188 34.0188 4.02739 35.2314 4.03892ZM39.9448 14.4197C45.4954 15.3319 50.8077 17.7418 55.094 21.6503C59.3813 25.5579 62.0248 30.4007 63.0255 35.4608C63.2395 36.549 64.3836 37.2728 65.5762 37.0767C66.7698 36.8806 67.5638 35.8386 67.3487 34.7505C66.1951 28.9127 63.1467 23.3258 58.2014 18.8175C53.2561 14.3091 47.1277 11.5301 40.724 10.4785C39.5304 10.2824 38.3874 11.0062 38.1723 12.0943C37.9572 13.1815 38.7512 14.2245 39.9448 14.4197Z" fill="#623E91"/>
</svg>
