<svg width="1024" height="890" viewBox="0 0 1024 890" fill="none" xmlns="http://www.w3.org/2000/svg">
<path d="M0 476C0 387.082 72.0822 315 161 315H1042V890H0V476Z" fill="#B78C63"/>
<g style="mix-blend-mode:multiply" opacity="0.41">
<path d="M170.015 348.641L243.95 347L229.903 367.659L450.961 519.36L576.64 456.542L747.647 611.326L863.606 564.682L951.195 648L860.537 587.744L740.879 638.591L576.404 502.264L446.24 563.161L208.773 398.688L196.3 417.025L170.015 348.641Z" fill="#A77D69"/>
</g>
<path d="M925.72 718.683V696.806H934.831C935.367 695.129 936.026 693.537 936.81 692.028L930.378 685.49L945.591 670.025L952.022 676.563C953.547 675.767 955.113 675.096 956.721 674.551V665.289H978.241V674.551C979.89 675.096 981.456 675.767 982.94 676.563L989.372 670.025L1004.58 685.49L998.153 692.028C998.936 693.579 999.595 695.171 1000.13 696.806H1009.24V718.683H1000.13C999.595 720.36 998.936 721.953 998.153 723.461L1004.58 729.999L989.372 745.465L982.94 738.926C981.415 739.723 979.849 740.393 978.241 740.938V750.2H956.721V740.938C955.072 740.393 953.506 739.723 952.022 738.926L945.591 745.465L930.378 729.999L936.81 723.461C936.026 721.911 935.367 720.318 934.831 718.683H925.72ZM967.44 729.79C979.395 729.79 989.083 719.941 989.083 707.787C989.083 695.632 979.395 685.783 967.44 685.783C955.485 685.783 945.797 695.632 945.797 707.787C945.797 719.941 955.485 729.79 967.44 729.79Z" fill="#DFC7AF"/>
<g opacity="0.56">
<path d="M114.795 663.067V637.417H125.473C126.091 635.489 126.874 633.603 127.781 631.801L120.237 624.132L138.046 606.026L145.591 613.696C147.363 612.774 149.218 611.977 151.115 611.349V600.494H176.345V611.349C178.241 611.977 180.096 612.774 181.869 613.696L189.413 606.026L207.222 624.132L199.678 631.801C200.585 633.603 201.368 635.489 201.987 637.417H212.664V663.067H201.987C201.368 664.995 200.585 666.881 199.678 668.683L207.222 676.353L189.413 694.458L181.869 686.788C180.096 687.711 178.241 688.507 176.345 689.135V699.991H151.115V689.135C149.218 688.507 147.363 687.711 145.591 686.788L138.046 694.458L120.237 676.353L127.781 668.683C126.874 666.881 126.091 664.995 125.473 663.067H114.795ZM163.73 676.059C177.746 676.059 189.124 664.492 189.124 650.242C189.124 635.992 177.746 624.425 163.73 624.425C149.713 624.425 138.335 635.992 138.335 650.242C138.335 664.492 149.713 676.059 163.73 676.059Z" fill="#FFF5EB"/>
<path d="M78.5165 596.219V586.705H82.4741C82.7215 585.993 83.01 585.28 83.3398 584.609L80.5365 581.759L87.1326 575.054L89.9359 577.904C90.5955 577.568 91.2551 577.275 91.9971 577.023V573H101.355V577.023C102.056 577.275 102.757 577.568 103.417 577.904L106.22 575.054L112.816 581.759L110.013 584.609C110.342 585.28 110.631 585.951 110.878 586.705H114.836V596.219H110.878C110.631 596.931 110.342 597.644 110.013 598.314L112.816 601.164L106.22 607.87L103.417 605.02C102.757 605.355 102.097 605.649 101.355 605.9V609.924H91.9971V605.9C91.2963 605.649 90.5955 605.355 89.9359 605.02L87.1326 607.87L80.5365 601.164L83.3398 598.314C83.01 597.644 82.7215 596.973 82.4741 596.219H78.5165ZM96.6556 601.038C101.85 601.038 106.055 596.764 106.055 591.483C106.055 586.202 101.85 581.927 96.6556 581.927C91.4612 581.927 87.2563 586.202 87.2563 591.483C87.2563 596.764 91.4612 601.038 96.6556 601.038Z" fill="#FFF5EB"/>
</g>
<path opacity="0.56" d="M697.579 129.582L708.009 113.446L714.729 117.931C715.924 116.967 717.161 116.129 718.48 115.374L716.872 107.369L735.465 103.471L737.073 111.476C738.557 111.644 740.041 111.937 741.525 112.315L745.936 105.483L761.808 116.087L757.397 122.918C758.345 124.134 759.169 125.391 759.911 126.732L767.785 125.097L771.619 143.999L763.745 145.634C763.58 147.143 763.292 148.652 762.921 150.16L769.641 154.645L759.211 170.781L752.491 166.296C751.295 167.26 750.059 168.098 748.739 168.853L750.347 176.858L731.755 180.755L730.147 172.75C728.663 172.583 727.179 172.289 725.694 171.912L721.283 178.744L705.412 168.14L709.823 161.309C708.875 160.093 708.05 158.836 707.308 157.495L699.434 159.129L695.6 140.227L703.474 138.593C703.639 137.084 703.928 135.575 704.299 134.066L697.579 129.582ZM723.097 158.375C731.92 164.284 743.792 161.812 749.605 152.801C755.418 143.832 752.986 131.761 744.122 125.852C735.3 119.942 723.427 122.415 717.614 131.426C711.802 140.395 714.234 152.465 723.097 158.375ZM794.582 156.195L801.137 146.053L805.342 148.861C806.084 148.274 806.867 147.729 807.691 147.268L806.661 142.239L818.369 139.766L819.399 144.796C820.348 144.921 821.254 145.089 822.203 145.341L824.965 141.066L834.941 147.729L832.179 152.004C832.756 152.759 833.292 153.555 833.746 154.393L838.693 153.346L841.125 165.248L836.178 166.296C836.054 167.26 835.889 168.182 835.642 169.146L839.847 171.954L833.292 182.097L829.087 179.288C828.345 179.875 827.562 180.42 826.737 180.881L827.768 185.91L816.06 188.383L815.03 183.354C814.081 183.228 813.174 183.06 812.226 182.809L809.464 187.084L799.488 180.42L802.25 176.145C801.673 175.391 801.137 174.594 800.683 173.756L795.736 174.804L793.304 162.901L798.251 161.853C798.374 160.89 798.539 159.968 798.787 159.004L794.582 156.195ZM810.618 174.301C816.184 178.031 823.646 176.439 827.273 170.822C830.942 165.164 829.376 157.579 823.852 153.89C818.328 150.202 810.825 151.753 807.197 157.369C803.569 162.985 805.094 170.613 810.618 174.301Z" fill="white"/>
<path d="M342.627 286.538C339.37 234.82 477.516 216.966 584.083 232.976C667.317 245.466 687.641 211.224 687.641 211.224C687.641 211.224 683.436 230.378 674.778 236.706C674.778 236.706 689.661 242.951 698.812 235.156C688.135 249.741 682.446 269.481 553.947 251.208C425.448 232.892 340.277 276.312 343.905 306.949L342.585 286.538H342.627Z" fill="#FF9E00"/>
<path d="M400.798 340.143C403.189 344.585 516.847 406.488 516.847 406.488L642.172 348.399L629.969 329.917L526.824 372.792C526.824 372.792 448.166 319.607 410.61 291.442C390.162 276.103 381.835 310.26 381.835 310.26L400.798 340.143Z" fill="#4E3274"/>
<path d="M641.015 349.657L665.297 367.888L641.592 321.786L630.255 331.719L641.015 349.657Z" fill="#061B33"/>
<path d="M212.442 159.799C223.12 179.581 249.05 220.78 260.635 229.875C272.219 238.969 337.355 263.11 353.556 256.111C365.017 251.207 369.717 230.294 342.59 226.103C309.239 220.906 273.002 209.967 273.002 209.967L224.604 151.92L212.401 159.799H212.442Z" fill="#623E91"/>
<path d="M212.438 159.8C205.306 151.543 201.06 145.089 207.12 141.484C213.221 137.88 222.373 141.233 224.641 151.92" fill="#FFB8B8"/>
<path d="M433.898 352.926C426.643 364.368 399.558 376.312 387.273 372.708C383.439 372.708 338.503 281.97 341.513 239.515C343.368 213.446 361.96 217.386 368.598 222.038C388.839 236.078 416.46 329.456 433.898 352.926Z" fill="#4E3274"/>
<path d="M342.582 199.615C359.237 214.536 364.184 226.816 360.062 229.749C355.939 232.683 331.163 209.422 331.163 209.422L342.623 199.615H342.582Z" fill="#FFB8B8"/>
<path d="M324.613 168.098C310.762 196.472 329.065 224.594 343.865 209.464C350.791 202.381 360.974 190.101 361.345 183.899C362.994 155.944 340.238 136.078 324.613 168.098Z" fill="#FFB8B8"/>
<path d="M343.035 175.977C329.184 170.026 310.138 163.152 307.994 155.692C317.434 152.339 354.784 126.271 364.225 158.458C374.655 160.261 375.892 171.032 367.193 185.24C360.309 196.472 347.735 205.986 347.735 205.986L351.239 194.753C351.239 194.753 361.793 186.832 357.464 179.791C352.476 171.66 345.632 184.611 345.632 184.611L342.994 176.019L343.035 175.977Z" fill="black"/>
<path d="M427.391 320.696C425.907 321.576 390.906 351.291 390.906 351.291C390.906 351.291 326.801 254.896 350.464 217.553C367.655 190.437 427.391 320.696 427.391 320.696Z" fill="white"/>
<path d="M414.934 328.031C410.152 329.581 323.62 409.422 323.62 409.422L360.063 566.002L379.398 558.667L355.529 427.863C355.529 427.863 455.953 366.631 462.714 346.723C471 322.289 447.378 314.829 447.378 314.829L414.934 328.073V328.031Z" fill="#623E91"/>
<path d="M360.104 566.002L349.798 579.078L337.843 586.79H353.714L386.859 571.869L379.439 558.667L360.104 566.002Z" fill="#061B33"/>
<path d="M357.596 209.213C363.12 215.877 365.511 217.721 363.862 215.96L344.157 234.569L342.631 226.145L357.596 209.213Z" fill="white"/>
<path d="M482.047 318.182C477.842 331.09 443.955 365.08 431.175 364.661C427.423 365.583 357.918 283.479 350.456 241.61C345.88 215.919 364.802 215.122 372.429 217.847C397.329 226.732 446.634 291.359 482.047 318.182Z" fill="#623E91"/>
<path d="M528.434 305.231L530.247 302.633C530.247 302.633 520.601 295.634 519.611 288.341C519.281 286.036 519.9 283.94 521.425 282.012C527.032 274.971 535.277 275.977 547.315 285.198L549.211 282.641C544.264 278.827 529.134 267.26 518.993 280.001C516.89 282.599 516.066 285.575 516.519 288.76C517.715 297.436 528.021 304.896 528.475 305.231H528.434Z" fill="#535353"/>
<path d="M604.328 299.489C603.545 295.55 563.721 263.404 562.732 263.949C561.742 264.535 509.222 329.372 509.222 329.372C509.222 329.372 548.798 363.487 553.745 362.481C558.692 361.476 605.07 303.429 604.287 299.447L604.328 299.489Z" fill="#252525"/>
<path d="M583.141 276.061L525.013 345.382C525.013 345.382 507.163 330.629 506.627 328.072C506.091 325.516 558.406 260.093 562.404 260.093C566.403 260.093 583.141 276.061 583.141 276.061Z" fill="#060606"/>
<path d="M555.594 302.884C557.325 302.842 565.117 309.045 565.529 310.595C565.982 312.146 562.602 316.253 560.664 316.882C558.727 317.511 551.801 311.266 550.729 309.967C549.657 308.668 553.862 302.926 555.594 302.842V302.884Z" fill="#535353"/>
<path d="M520.303 269.565C504.472 253.764 467.905 221.954 454.219 216.631C440.532 211.308 371.356 207.411 357.793 218.852C348.229 226.941 351.527 241.862 378.983 242.406C409.778 242.993 448.035 239.347 448.035 239.347L510.903 280.713L520.344 269.565H520.303Z" fill="#623E91"/>
<path d="M520.303 269.564C529.455 275.39 535.392 280.294 530.61 285.533C525.827 290.771 516.098 290.269 510.904 280.713" fill="#FFB8B8"/>
<path d="M156.669 233.856C157.287 233.856 157.864 233.521 158.194 232.934L288.218 31.6777C288.837 30.7556 288.548 29.4983 287.641 28.8696C286.734 28.241 285.497 28.4924 284.879 29.4564L154.855 230.713C154.236 231.635 154.525 232.893 155.432 233.521C155.803 233.773 156.256 233.856 156.669 233.856Z" fill="#FF9E00"/>
<path d="M298.727 16.1706L203.125 0.160522L259.604 76.0614L298.727 16.1706Z" fill="#FFB700"/>
<path d="M353.756 221.702L361.177 243.706L356.89 250.956L369.34 263.865L374.781 292.867C374.781 292.867 356.683 270.152 351.489 248.903C349.428 240.562 347.49 227.905 353.756 221.702Z" fill="#4E3274"/>
<path d="M343.618 240.185C348.565 262.23 352.275 286.413 385.214 312.859C385.214 312.859 396.675 316.337 397.582 314.619C398.489 312.901 390.821 305.818 390.821 305.818C390.821 305.818 356.068 280.923 347.328 240.059C346.38 235.575 343.577 240.143 343.577 240.143L343.618 240.185Z" fill="#B74DA6"/>
<path d="M348.275 230.671C348.275 230.671 342.833 231.551 342.38 235.197C341.802 239.682 345.059 244.711 346.378 245.005C349.924 245.759 348.316 230.671 348.316 230.671H348.275Z" fill="#B74DA6"/>
<path d="M344.03 275.977C337.104 308.5 396.098 356.363 490.751 362.649C584.621 368.852 651.282 392.28 668.844 439.388C652.848 435.155 645.551 430.587 647.242 437.167C648.849 443.37 649.633 450.956 648.561 460.973C627.371 419.606 622.878 396.346 473.477 382.599C317.399 368.265 342.01 283.982 344.03 275.977Z" fill="#FFB700"/>
<path d="M527.072 617.301C507.924 617.301 492.401 601.52 492.401 582.053C492.401 562.587 507.924 546.806 527.072 546.806C546.22 546.806 561.742 562.587 561.742 582.053C561.742 601.52 546.22 617.301 527.072 617.301Z" fill="#FFF5EB"/>
<path d="M527.074 555.272C525.879 559.715 525.301 564.199 524.889 568.642C524.518 573.085 524.353 577.569 524.394 582.012L527.074 579.287C523.199 579.329 519.324 579.497 515.449 579.958C511.573 580.377 507.698 580.964 503.823 582.012C507.698 583.101 511.573 583.646 515.449 584.065C519.324 584.484 523.199 584.652 527.074 584.736H529.713V582.012C529.754 577.569 529.589 573.085 529.218 568.642C528.847 564.199 528.228 559.715 527.033 555.272H527.074Z" fill="#623E91"/>
<path d="M58.0066 501.231C39.8502 488.97 35.0059 463.968 47.1866 445.388C59.3674 426.808 83.9605 421.686 102.117 433.947C120.273 446.208 125.118 471.21 112.937 489.79C100.756 508.37 76.1631 513.493 58.0066 501.231Z" fill="#FFF5EB"/>
<path d="M57.6633 473.616C49.6658 466.33 49.0444 453.752 56.3007 445.599C63.557 437.446 75.946 436.735 83.9829 444.007C91.2441 450.613 92.3569 461.579 87.0756 469.65L103.536 484.594C104.699 485.659 104.806 487.513 103.745 488.698C102.684 489.884 100.852 490.006 99.689 488.94L83.2283 473.997C75.867 480.164 64.9764 480.248 57.7153 473.642L57.6633 473.616ZM81.069 468.121C86.203 462.339 85.7556 453.481 80.0835 448.327C74.4114 443.172 65.6592 443.693 60.5252 449.475C55.3912 455.257 55.8386 464.115 61.5107 469.269C67.1828 474.423 75.935 473.903 81.069 468.121Z" fill="#623E91"/>
<path d="M731.176 524.514C709.736 515.933 699.199 491.307 707.64 469.511C716.081 447.715 740.303 437.002 761.743 445.583C783.182 454.165 793.72 478.79 785.279 500.586C776.838 522.383 752.615 533.095 731.176 524.514Z" fill="#FFF5EB"/>
<path d="M731.497 486.664C728.652 483.185 727.127 478.743 727.127 474.216C727.127 468.558 729.518 463.194 733.681 459.422C737.845 455.692 743.411 453.931 748.976 454.602C757.386 455.65 764.229 462.272 765.672 470.696C766.662 476.479 765.219 482.096 761.632 486.58C758.046 491.023 756.19 495.968 756.19 500.788V503.093H756.685V512.607H736.485V503.093H736.938V500.788C736.938 495.884 735.083 490.981 731.538 486.622L731.497 486.664ZM758.499 484.024C761.344 480.503 762.457 476.019 761.673 471.45C760.56 464.87 754.995 459.547 748.481 458.709C744.029 458.164 739.7 459.506 736.32 462.523C733.022 465.499 731.125 469.774 731.125 474.258C731.125 477.863 732.321 481.299 734.588 484.065C738.711 489.179 740.896 495.004 740.896 500.83V501.668H742.916C741.432 496.764 738.876 487.125 740.566 484.107C740.978 483.353 741.555 483.06 741.926 482.934C742.586 482.724 743.328 482.934 744.029 483.269C744.689 482.389 745.596 481.886 746.709 481.844C747.698 481.802 748.605 482.347 749.223 483.311C749.347 483.269 749.429 483.185 749.553 483.143C750.543 482.724 751.532 482.85 752.315 483.521C754.335 485.281 752.109 494.711 750.13 501.668H752.068V500.83C752.068 495.004 754.253 489.221 758.417 484.024H758.499ZM748.069 501.668C750.213 494.166 751.862 486.119 750.996 484.987C750.914 484.904 750.749 484.778 750.378 484.987C750.254 485.029 750.13 485.113 750.007 485.197C750.213 486.203 750.213 487.335 749.512 487.963C749.058 488.382 748.399 488.466 747.739 488.173C747.162 487.921 746.832 487.376 746.874 486.706C746.874 486.077 747.203 485.365 747.698 484.694C747.616 484.527 747.533 484.401 747.451 484.233C747.327 484.065 747.08 483.772 746.832 483.772C746.667 483.772 746.09 483.772 745.637 484.526C746.09 485.029 746.42 485.532 746.585 486.035C746.956 487.125 746.503 488.047 745.431 488.382C744.853 488.55 744.235 488.382 743.782 487.963C743.122 487.293 743.04 486.119 743.246 485.071C742.875 484.862 742.627 484.778 742.545 484.778C742.504 484.778 742.421 484.862 742.38 484.987C741.226 487.125 743.205 495.591 745.06 501.668H747.987H748.069Z" fill="#623E91"/>
<path d="M925.464 558.669C912.008 558.669 901.1 547.579 901.1 533.899C901.1 520.219 912.008 509.13 925.464 509.13C938.92 509.13 949.828 520.219 949.828 533.899C949.828 547.579 938.92 558.669 925.464 558.669Z" fill="#FFF5EB"/>
<path d="M901.097 553.849C905.137 550.203 909.136 546.766 913.011 543.12C916.185 540.06 919.401 537 922.493 533.857C921.957 533.312 921.421 532.809 920.926 532.265C917.917 529.037 915.237 525.433 913.011 521.577C910.826 517.721 909.053 513.53 908.352 509.13C910.867 512.776 913.382 516.171 916.02 519.482C918.659 522.751 921.462 525.894 924.307 528.996C924.801 529.498 925.296 530.043 925.791 530.546C932.716 523.505 939.436 516.296 946.609 509.13C944.342 514.117 941.374 518.685 938.158 523.086C935.355 526.9 932.263 530.504 929.006 533.941C930.367 535.324 931.727 536.707 933.129 538.048C936.179 541.024 939.271 543.916 942.487 546.933C938.282 545.592 934.407 543.455 930.82 540.94C929.13 539.725 927.481 538.467 925.873 537.084C922.534 540.312 918.988 543.329 915.237 546.011C910.826 549.197 906.085 551.879 901.055 553.807L901.097 553.849Z" fill="#623E91"/>
<path d="M399.305 586.789H270.229C260.664 586.789 252.914 594.669 252.914 604.392V837.711H416.578V604.392C416.578 594.669 408.828 586.789 399.263 586.789H399.305Z" fill="#3C1B68"/>
<path d="M630.461 654.811H501.385C491.821 654.811 484.07 662.69 484.07 672.413V837.711H647.734V672.413C647.734 662.69 639.984 654.811 630.42 654.811H630.461Z" fill="#4E3274"/>
<path d="M861.609 697.854H732.533C722.969 697.854 715.219 705.733 715.219 715.456V837.711H878.883V715.456C878.883 705.733 871.133 697.854 861.568 697.854H861.609Z" fill="#623E91"/>
<g filter="url(#filter0_d_803_16902)">
<path d="M201.802 847.518L937.795 844.249C941.341 844.249 944.227 841.273 944.227 837.669C944.227 834.065 941.341 831.131 937.795 831.131L201.802 834.4C198.256 834.4 195.371 837.375 195.371 840.98C195.371 844.584 198.256 847.518 201.802 847.518Z" fill="#311C4D"/>
</g>
<defs>
<filter id="filter0_d_803_16902" x="175.367" y="815.131" width="788.859" height="56.3872" filterUnits="userSpaceOnUse" color-interpolation-filters="sRGB">
<feFlood flood-opacity="0" result="BackgroundImageFix"/>
<feColorMatrix in="SourceAlpha" type="matrix" values="0 0 0 0 0 0 0 0 0 0 0 0 0 0 0 0 0 0 127 0" result="hardAlpha"/>
<feOffset dy="4"/>
<feGaussianBlur stdDeviation="10"/>
<feComposite in2="hardAlpha" operator="out"/>
<feColorMatrix type="matrix" values="0 0 0 0 0.245833 0 0 0 0 0.245833 0 0 0 0 0.245833 0 0 0 1 0"/>
<feBlend mode="normal" in2="BackgroundImageFix" result="effect1_dropShadow_803_16902"/>
<feBlend mode="normal" in="SourceGraphic" in2="effect1_dropShadow_803_16902" result="shape"/>
</filter>
</defs>
</svg>
