<svg width="119" height="120" viewBox="0 0 119 120" fill="none" xmlns="http://www.w3.org/2000/svg">
<g clip-path="url(#clip0_557_95703)">
<path d="M55.7762 15.1224L63.1307 20.5296L60.3099 29.2944C60.0878 29.988 60.3288 30.7464 60.9099 31.176C61.2005 31.3896 61.5407 31.4976 61.8809 31.4976C62.2235 31.4976 62.566 31.3896 62.8566 31.176L70.1898 25.74L77.523 31.176C78.1018 31.6056 78.8886 31.6056 79.4697 31.1784C80.0509 30.7488 80.2919 29.9904 80.0698 29.2968L77.249 20.532L84.6034 15.1248C85.1846 14.6976 85.428 13.9368 85.2059 13.2456C84.9838 12.5544 84.3483 12.084 83.6325 12.084H83.6301L74.551 12.1008L71.7633 3.324C71.5435 2.6304 70.908 2.16 70.1898 2.16C69.4716 2.16 68.8361 2.6304 68.6164 3.324L65.8287 12.1008L56.7496 12.084H56.7472C56.0314 12.084 55.3959 12.552 55.1738 13.2456C54.9517 13.9344 55.195 14.6952 55.7762 15.1224ZM67.0264 15.4608H67.0288C67.747 15.4608 68.3825 14.9904 68.6022 14.2968L70.1875 9.3072L71.7727 14.2968C71.9924 14.9904 72.6279 15.4608 73.3461 15.4608H73.3485L78.5106 15.4512L74.3289 18.5256C73.7477 18.9528 73.5021 19.716 73.7265 20.4096L75.3306 25.392L71.1632 22.3008C70.8726 22.0848 70.53 21.9792 70.1875 21.9792C69.8449 21.9792 69.5023 22.0872 69.2118 22.3008L65.0443 25.392L66.6484 20.4096C66.8729 19.716 66.6295 18.9552 66.046 18.5256L61.8644 15.4512L67.0264 15.4608ZM22.5311 15.1224L29.8856 20.5296L27.0647 29.2944C26.8427 29.988 27.0836 30.7464 27.6648 31.176C28.246 31.6056 29.0327 31.6032 29.6115 31.1736L36.9447 25.7376L44.2779 31.1736C44.5685 31.3896 44.9111 31.4952 45.2536 31.4952C45.5938 31.4952 45.9364 31.3872 46.2246 31.1736C46.8058 30.744 47.0468 29.9856 46.8247 29.292L44.0039 20.5272L51.3583 15.12C51.9395 14.6928 52.1829 13.932 51.9608 13.2408C51.7387 12.5496 51.1032 12.0792 50.3874 12.0792H50.385L41.3059 12.096L38.5182 3.3192C38.2984 2.6256 37.6629 2.1552 36.9447 2.1552C36.2265 2.1552 35.591 2.6256 35.3713 3.3192L32.5836 12.096L23.5045 12.0792H23.5021C22.7863 12.0792 22.1507 12.5472 21.9287 13.2408C21.7066 13.9344 21.9499 14.6952 22.5311 15.1224ZM33.7837 15.4608H33.7861C34.5043 15.4608 35.1398 14.9904 35.3595 14.2968L36.9447 9.3072L38.53 14.2968C38.7497 14.9904 39.3852 15.4608 40.1034 15.4608H40.1058L45.2678 15.4512L41.0862 18.5256C40.505 18.9528 40.2593 19.716 40.4838 20.4096L42.0879 25.392L37.9181 22.3008C37.3369 21.8712 36.5502 21.8712 35.969 22.3008L31.7992 25.392L33.4033 20.4096C33.6278 19.716 33.3844 18.9552 32.8009 18.5256L28.6193 15.4512L33.7837 15.4608ZM118.451 13.2408C118.229 12.5496 117.593 12.0792 116.878 12.0792H116.875L107.796 12.096L105.008 3.3192C104.789 2.6256 104.153 2.1552 103.435 2.1552C102.717 2.1552 102.081 2.6256 101.862 3.3192L99.0738 12.096L89.9947 12.0792H89.9923C89.2765 12.0792 88.641 12.5472 88.4189 13.2408C88.1968 13.9344 88.4401 14.6928 89.0213 15.12L96.3758 20.5272L93.555 29.292C93.3329 29.9856 93.5739 30.744 94.155 31.1736C94.7362 31.6032 95.5229 31.6008 96.1017 31.1712L103.435 25.7352L110.768 31.1712C111.059 31.3872 111.401 31.4928 111.744 31.4928C112.084 31.4928 112.427 31.3848 112.715 31.1712C113.296 30.7416 113.537 29.9832 113.315 29.2896L110.494 20.5248L117.849 15.1176C118.427 14.6952 118.673 13.9344 118.451 13.2408ZM107.576 18.5256C106.995 18.9528 106.75 19.716 106.974 20.4096L108.578 25.392L104.408 22.3008C103.827 21.8712 103.04 21.8712 102.459 22.3008L98.2894 25.392L99.8935 20.4096C100.118 19.716 99.8746 18.9552 99.2911 18.5256L95.1095 15.4512L100.272 15.4608H100.274C100.992 15.4608 101.628 14.9904 101.847 14.2968L103.433 9.3072L105.018 14.2968C105.238 14.9904 105.873 15.4608 106.591 15.4608H106.594L111.756 15.4512L107.576 18.5256ZM115.212 39.468H41.7571C41.6579 39.468 41.5611 39.4776 41.4666 39.4944C37.2424 36.3096 31.9032 34.5696 26.2261 34.5696C19.8827 34.5696 13.9552 36.7368 9.53972 40.6704C4.53359 45.1296 1.88759 51.4632 1.88759 58.9848C1.88759 65.94 4.15086 71.8776 8.45061 76.2576L0.628374 90.024C0.309436 90.5856 0.335424 91.2816 0.696886 91.8168C1.05835 92.3496 1.68914 92.6256 2.31992 92.5248L9.06486 91.4376L12.7055 95.9784C13.0197 96.372 13.4922 96.5976 13.9883 96.5976C14.0332 96.5976 14.0757 96.5952 14.1206 96.5928C14.6616 96.5496 15.1483 96.2376 15.42 95.7576L22.5807 83.1576C22.8902 83.1984 23.2021 83.232 23.5139 83.2632V116.165C23.5139 117.094 24.2534 117.845 25.1677 117.845H115.212C116.126 117.845 116.866 117.094 116.866 116.165V41.148C116.866 40.2192 116.124 39.468 115.212 39.468ZM113.558 52.6848H49.8841C49.036 48.9336 47.3988 45.6072 45.0245 42.828H113.558V52.6848ZM26.2261 37.932C36.3541 37.932 47.257 44.52 47.257 58.9848C47.257 73.4496 36.3565 80.0376 26.2261 80.0376C16.0957 80.0376 5.19509 73.4496 5.19509 58.9848C5.19509 44.52 16.0957 37.932 26.2261 37.932ZM41.4477 78.4896L47.224 88.6512L42.9644 87.9648C42.3808 87.8712 41.7949 88.0992 41.4217 88.5624L38.6953 91.9632L33.2947 82.4592C36.2785 81.6408 39.0426 80.2992 41.4477 78.4896ZM13.7544 91.9632L11.0281 88.5624C10.6548 88.0992 10.0689 87.8688 9.48539 87.9648L5.2258 88.6512L11.0021 78.4896C13.4071 80.2992 16.1713 81.6408 19.1575 82.4592L13.7544 91.9632ZM26.8214 114.482V83.388C27.8515 83.3664 28.8697 83.2896 29.8714 83.1552L37.0321 95.7552C37.3038 96.2328 37.7905 96.5448 38.3315 96.5904C38.3764 96.5928 38.4189 96.5952 38.4638 96.5952C38.9576 96.5952 39.4301 96.3696 39.7467 95.976L43.3873 91.4352L50.1322 92.5224C50.763 92.6256 51.3938 92.3496 51.7552 91.8144C52.1167 91.2816 52.1427 90.5832 51.8238 90.0216L44.0015 76.2576C48.3013 71.8776 50.5645 65.94 50.5645 58.9848C50.5645 57.9816 50.5149 57.0024 50.4228 56.0448H113.558V114.482H26.8214ZM103.522 100.433C103.522 101.362 102.783 102.113 101.869 102.113H64.1938C63.2795 102.113 62.5401 101.362 62.5401 100.433C62.5401 99.504 63.2795 98.7528 64.1938 98.7528H101.869C102.781 98.7528 103.522 99.504 103.522 100.433ZM103.522 70.3584C103.522 71.2872 102.783 72.0384 101.869 72.0384H64.1938C63.2795 72.0384 62.5401 71.2872 62.5401 70.3584C62.5401 69.4296 63.2795 68.6784 64.1938 68.6784H101.869C102.781 68.6784 103.522 69.432 103.522 70.3584ZM103.522 90.408C103.522 91.3368 102.783 92.088 101.869 92.088H64.1938C63.2795 92.088 62.5401 91.3368 62.5401 90.408C62.5401 89.4792 63.2795 88.728 64.1938 88.728H101.869C102.781 88.728 103.522 89.4792 103.522 90.408ZM103.522 80.3832C103.522 81.312 102.783 82.0632 101.869 82.0632H64.1938C63.2795 82.0632 62.5401 81.312 62.5401 80.3832C62.5401 79.4544 63.2795 78.7032 64.1938 78.7032H101.869C102.781 78.7032 103.522 79.4568 103.522 80.3832ZM14.1064 72.3048C17.3171 75.1656 21.6215 76.74 26.2237 76.74C30.8282 76.74 35.1303 75.1656 38.341 72.3048C41.9887 69.0552 43.9165 64.4496 43.9165 58.9848C43.9165 53.52 41.9887 48.9144 38.341 45.6648C35.1303 42.804 30.8258 41.2296 26.2237 41.2296C21.6192 41.2296 17.3171 42.804 14.1064 45.6648C10.4587 48.9144 8.53094 53.52 8.53094 58.9848C8.53094 64.4496 10.4587 69.0552 14.1064 72.3048ZM26.2261 44.5896C30.0273 44.5896 33.5569 45.8688 36.1627 48.192C39.0733 50.784 40.6113 54.5184 40.6113 58.9848C40.6113 68.8752 33.1529 73.38 26.2261 73.38C19.2969 73.38 11.8408 68.8752 11.8408 58.9848C11.8384 49.0944 19.2969 44.5896 26.2261 44.5896Z" fill="#603C93"/>
</g>
<defs>
<clipPath id="clip0_557_95703">
<rect width="118.125" height="120" fill="white" transform="translate(0.40625)"/>
</clipPath>
</defs>
</svg>
