<svg width="119" height="120" viewBox="0 0 119 120" fill="none" xmlns="http://www.w3.org/2000/svg">
<path d="M72.4728 54.375H103.92C111.044 54.375 116.84 48.4875 116.84 41.25C116.84 34.0125 111.044 28.125 103.92 28.125C102.822 28.125 101.744 28.2638 100.695 28.5394C97.8919 21.5831 91.1218 16.875 83.6172 16.875C82.7977 16.875 81.9911 16.9406 81.1956 17.0456C76.9616 7.785 67.9342 1.875 57.7773 1.875C46.1697 1.875 36.1679 9.61687 32.984 20.8856C15.795 22.9275 2.40625 37.7906 2.40625 55.7906C2.40625 67.2562 7.92675 78.0262 17.1719 84.6019C19.4827 86.2444 20.8633 88.9388 20.8633 91.8038V92.22C18.7204 92.9962 17.1719 95.0587 17.1719 97.5C17.1719 99.9694 18.7573 102.051 20.9408 102.804C21.716 111.382 28.8312 118.125 37.4746 118.125C46.118 118.125 53.2332 111.382 54.0084 102.804C56.1919 102.051 57.7773 99.9694 57.7773 97.5C57.7773 95.0587 56.2288 92.9962 54.0859 92.22V91.8038C54.0859 88.9388 55.4665 86.2444 57.7773 84.6019C67.0225 78.0262 72.543 67.2562 72.543 55.7906C72.543 55.3125 72.4913 54.8494 72.4728 54.375ZM37.4746 114.375C30.9796 114.375 25.603 109.474 24.7023 103.125H50.2469C49.3462 109.474 43.9696 114.375 37.4746 114.375ZM52.2402 99.375H22.709C21.692 99.375 20.8633 98.535 20.8633 97.5C20.8633 96.465 21.692 95.625 22.709 95.625H52.2402C53.2572 95.625 54.0859 96.465 54.0859 97.5C54.0859 98.535 53.2572 99.375 52.2402 99.375ZM22.2623 63.0188C22.1793 62.8219 22.0981 62.6231 22.0187 62.4188C21.417 60.8456 20.1471 59.6344 18.5359 59.0981C17.72 58.8262 17.1719 58.0556 17.1719 57.1838V55.3162C17.1719 54.4444 17.72 53.6756 18.5359 53.4019C20.1471 52.8656 21.417 51.6544 22.0187 50.0794C22.0962 49.8787 22.1774 49.6781 22.2605 49.4831C22.9175 47.9456 22.8603 46.1888 22.0999 44.6606C21.7123 43.8825 21.86 42.9431 22.4672 42.3262L23.7666 41.0063C24.3757 40.3875 25.2948 40.2375 26.0645 40.6331C27.5687 41.4056 29.3 41.4637 30.8098 40.7962C31.0054 40.71 31.2029 40.6275 31.4004 40.5506C32.9489 39.9375 34.1413 38.6475 34.671 37.0125C34.9386 36.1819 35.6972 35.625 36.5555 35.625H38.3938C39.252 35.625 40.0088 36.1819 40.2782 37.0125C40.8079 38.6475 41.9984 39.9375 43.547 40.5487C43.7445 40.6275 43.942 40.71 44.1357 40.7944C45.6474 41.4619 47.3787 41.4038 48.8829 40.6312C49.6489 40.2375 50.5736 40.3875 51.1808 41.0044L52.4802 42.3244C53.0874 42.9412 53.2351 43.8806 52.8475 44.6588C52.087 46.1869 52.0298 47.9437 52.6869 49.4794C52.77 49.6763 52.8512 49.8769 52.9305 50.0812C53.5322 51.6544 54.8021 52.8638 56.4134 53.4019C57.2292 53.6738 57.7773 54.4444 57.7773 55.3162V57.1838C57.7773 58.0556 57.2292 58.8244 56.4115 59.0981C54.8021 59.6344 53.5322 60.8456 52.9287 62.4225C52.8512 62.6231 52.7718 62.8219 52.6887 63.0169C52.0317 64.5544 52.0889 66.3131 52.8493 67.8394C53.2369 68.6175 53.0893 69.555 52.4802 70.1719L51.1808 71.4938C50.5736 72.1069 49.6526 72.2569 48.8829 71.865C47.3805 71.0944 45.6511 71.0344 44.1376 71.7C43.942 71.7881 43.7426 71.8706 43.5451 71.9494C41.9966 72.5606 40.8061 73.8525 40.2764 75.4875C40.0106 76.3181 39.252 76.875 38.3938 76.875H36.5555C35.6972 76.875 34.9405 76.3163 34.671 75.4894C34.1431 73.8525 32.9508 72.5625 31.4059 71.9531C31.2066 71.8725 31.0073 71.79 30.8116 71.7038C30.1139 71.3962 29.3701 71.2425 28.6226 71.2425C27.7496 71.2425 26.8747 71.4506 26.0626 71.8669C25.293 72.2588 24.3701 72.1087 23.7666 71.4956L22.4654 70.1737C21.8581 69.5569 21.7105 68.6194 22.0981 67.8412C22.8603 66.3131 22.9194 64.5563 22.2623 63.0188ZM44.3443 75.8231L41.4706 91.875H39.3203V80.5462C41.382 80.2012 43.1169 78.7256 43.7851 76.6575C43.8958 76.3181 44.1007 76.0481 44.3443 75.8231ZM31.1641 76.6613C31.8323 78.7294 33.5673 80.2031 35.6289 80.5481V91.875H33.4787L30.6049 75.8231C30.8485 76.0481 31.0553 76.32 31.1641 76.6613ZM55.6622 81.5287C52.3639 83.8725 50.3945 87.7144 50.3945 91.8038V91.875H45.2229L48.1391 75.5831C50.1177 76.1944 52.2901 75.6694 53.7906 74.1469L55.09 72.825C56.8287 71.0606 57.2513 68.3775 56.1421 66.1481C55.8781 65.6194 55.8541 65.0212 56.0719 64.5094C56.1753 64.2675 56.2749 64.0219 56.3691 63.7762C56.5684 63.2531 57.0058 62.8462 57.5651 62.6587C59.8999 61.8806 61.4688 59.6794 61.4688 57.1838V55.3162C61.4688 52.8206 59.8999 50.6194 57.5632 49.8394C57.0058 49.6537 56.5703 49.2469 56.3709 48.7256C56.2768 48.4781 56.179 48.2325 56.0738 47.9888C55.856 47.4769 55.8818 46.8806 56.1439 46.3519C57.2532 44.1244 56.8305 41.4394 55.0918 39.675L53.7925 38.355C52.0557 36.5887 49.4145 36.1613 47.2199 37.2863C46.7013 37.5544 46.1143 37.5806 45.6068 37.3575C45.3705 37.2525 45.1287 37.1531 44.887 37.0556C44.372 36.8531 43.9696 36.4087 43.7869 35.8406C43.0173 33.4688 40.8504 31.875 38.3938 31.875H36.5555C34.0988 31.875 31.932 33.4687 31.1641 35.8425C30.9814 36.4087 30.5809 36.8512 30.0641 37.0537C29.8223 37.1494 29.5824 37.2487 29.3424 37.3556C28.8404 37.5769 28.2516 37.5525 27.7311 37.2844C25.5366 36.1594 22.8972 36.5869 21.1586 38.3531L19.8592 39.6731C18.1206 41.4375 17.6979 44.1225 18.8072 46.35C19.0711 46.8787 19.0951 47.475 18.8773 47.9888C18.7739 48.2306 18.6743 48.4762 18.5801 48.72C18.3808 49.245 17.9434 49.6519 17.3841 49.8375C15.0493 50.6194 13.4805 52.8206 13.4805 55.3162V57.1838C13.4805 59.6794 15.0493 61.8806 17.386 62.6606C17.9434 62.8481 18.379 63.2531 18.5783 63.7744C18.6724 64.0238 18.7721 64.2694 18.8773 64.5131C19.0951 65.0231 19.0693 65.6212 18.8072 66.15C17.6979 68.3775 18.1206 71.0606 19.8592 72.8269L21.1604 74.1488C22.661 75.6731 24.8334 76.1981 26.812 75.585L29.7263 91.875H24.5547V91.8038C24.5547 87.7144 22.5853 83.8744 19.2889 81.5306C11.0294 75.6562 6.09766 66.0337 6.09766 55.7906C6.09766 38.4694 19.9718 24.375 37.0224 24.375H37.925C54.9774 24.375 68.8516 38.4694 68.8516 55.7906C68.8516 66.0337 63.9198 75.6562 55.6622 81.5287ZM44.6193 21.2981C47.0833 16.3519 52.0834 13.125 57.7773 13.125V9.375C50.2173 9.375 43.6319 13.9256 40.7895 20.7731C39.8426 20.6925 38.8921 20.625 37.9268 20.625H37.0243C36.991 20.625 36.9597 20.6306 36.9264 20.6306C40.0125 11.6888 48.2683 5.625 57.7773 5.625C66.2344 5.625 73.7796 10.4044 77.5319 17.955C73.0561 19.5338 69.2798 22.7962 67.0797 27.2887L70.3853 28.9594C72.901 23.8181 77.9712 20.625 83.6172 20.625C90.1381 20.625 95.9649 25.0688 97.7848 31.4325L98.368 33.4669L100.286 32.6325C101.439 32.13 102.661 31.875 103.92 31.875C109.009 31.875 113.148 36.0806 113.148 41.25C113.148 46.4194 109.009 50.625 103.92 50.625H72.1258C69.9793 35.9175 58.8737 24.1481 44.6193 21.2981Z" fill="#623E91"/>
<path d="M83.6172 24.375V28.125C87.6888 28.125 91 31.4887 91 35.625H94.6914C94.6914 29.4206 89.7246 24.375 83.6172 24.375Z" fill="#623E91"/>
<path d="M37.4746 69.375C44.599 69.375 50.3945 63.4856 50.3945 56.25C50.3945 49.0125 44.599 43.125 37.4746 43.125C30.3502 43.125 24.5547 49.0125 24.5547 56.25C24.5547 63.4856 30.3502 69.375 37.4746 69.375ZM37.4746 46.875C42.5632 46.875 46.7031 51.0806 46.7031 56.25C46.7031 61.4194 42.5632 65.625 37.4746 65.625C32.386 65.625 28.2461 61.4194 28.2461 56.25C28.2461 51.0806 32.386 46.875 37.4746 46.875Z" fill="#623E91"/>
<path d="M37.4746 61.875C40.5274 61.875 43.0117 59.3512 43.0117 56.25C43.0117 53.1487 40.5274 50.625 37.4746 50.625C34.4218 50.625 31.9375 53.1487 31.9375 56.25C31.9375 59.3512 34.4218 61.875 37.4746 61.875ZM37.4746 54.375C38.4916 54.375 39.3203 55.2169 39.3203 56.25C39.3203 57.2831 38.4916 58.125 37.4746 58.125C36.4576 58.125 35.6289 57.2831 35.6289 56.25C35.6289 55.2169 36.4576 54.375 37.4746 54.375Z" fill="#623E91"/>
<path d="M91 58.125H94.6914V61.875H91V58.125Z" fill="#623E91"/>
<path d="M94.6895 65.625H90.998V76.875H85.4609V91.875H100.227V76.875H94.6895V65.625ZM96.5352 80.625V88.125H89.1523V80.625H96.5352Z" fill="#623E91"/>
<path d="M78.0801 65.625H74.3887V95.625H68.8516V110.625H83.6172V95.625H78.0801V65.625ZM79.9258 99.375V106.875H72.543V99.375H79.9258Z" fill="#623E91"/>
<path d="M74.3906 58.125H78.082V61.875H74.3906V58.125Z" fill="#623E91"/>
<path d="M111.303 65.625H107.611V95.625H102.074V110.625H116.84V95.625H111.303V65.625ZM113.148 99.375V106.875H105.766V99.375H113.148Z" fill="#623E91"/>
<path d="M107.609 58.125H111.301V61.875H107.609V58.125Z" fill="#623E91"/>
</svg>
