<svg width="119" height="120" viewBox="0 0 119 120" fill="none" xmlns="http://www.w3.org/2000/svg">
<g clip-path="url(#clip0_557_104642)">
<path d="M58.0606 19.1604V6.4015L55.7736 8.72509C55.4274 9.07676 54.9579 9.27433 54.4683 9.27433C53.9787 9.27433 53.5092 9.07676 53.163 8.72509C52.8169 8.37342 52.6224 7.89645 52.6224 7.39911C52.6224 6.90178 52.8169 6.42481 53.163 6.07314L58.6012 0.548919C58.7726 0.374799 58.976 0.236679 59.2 0.142445C59.4239 0.0482116 59.6639 -0.000289917 59.9063 -0.000289917C60.1487 -0.000289917 60.3887 0.0482116 60.6127 0.142445C60.8366 0.236679 61.0401 0.374799 61.2115 0.548919L66.6496 6.07314C66.9958 6.42481 67.1903 6.90178 67.1903 7.39911C67.1903 7.89645 66.9958 8.37342 66.6496 8.72509C66.3034 9.07676 65.8339 9.27433 65.3443 9.27433C64.8548 9.27433 64.3853 9.07676 64.0391 8.72509L61.752 6.4015V19.1604C61.752 19.6577 61.5576 20.1346 61.2114 20.4862C60.8653 20.8379 60.3958 21.0354 59.9063 21.0354C59.4168 21.0354 58.9473 20.8379 58.6012 20.4862C58.2551 20.1346 58.0606 19.6577 58.0606 19.1604ZM100.365 28.5867C100.854 28.5867 101.324 28.3892 101.67 28.0376C102.016 27.6859 102.211 27.209 102.211 26.7117V18.8991C102.211 18.4018 102.016 17.9249 101.67 17.5732C101.324 17.2216 100.854 17.0241 100.365 17.0241H92.674C92.1845 17.0241 91.715 17.2216 91.3689 17.5732C91.0228 17.9249 90.8283 18.4018 90.8283 18.8991C90.8283 19.3964 91.0228 19.8733 91.3689 20.2249C91.715 20.5765 92.1845 20.7741 92.674 20.7741H95.9088L87.0278 29.7961C86.6816 30.1477 86.4872 30.6247 86.4872 31.122C86.4872 31.6193 86.6816 32.0962 87.0278 32.4478C87.3739 32.7995 87.8434 32.997 88.3329 32.997C88.8224 32.997 89.2919 32.7995 89.6381 32.4478L98.5191 23.4258V26.7117C98.5191 27.209 98.7136 27.6859 99.0597 28.0376C99.4059 28.3892 99.8753 28.5867 100.365 28.5867ZM112.99 53.1492C112.644 52.7976 112.175 52.6 111.685 52.6C111.196 52.6 110.726 52.7976 110.38 53.1492C110.034 53.5009 109.839 53.9779 109.839 54.4752C109.839 54.9725 110.034 55.4495 110.38 55.8012L112.667 58.1248H100.108C99.6181 58.1248 99.1486 58.3223 98.8025 58.674C98.4563 59.0256 98.2619 59.5025 98.2619 59.9998C98.2619 60.4971 98.4563 60.974 98.8025 61.3256C99.1486 61.6772 99.6181 61.8748 100.108 61.8748H112.667L110.38 64.1981C110.034 64.5498 109.839 65.0268 109.839 65.5241C109.839 66.0215 110.034 66.4984 110.38 66.8501C110.726 67.2018 111.196 67.3993 111.685 67.3993C112.175 67.3993 112.644 67.2018 112.99 66.8501L118.428 61.3256C118.6 61.1515 118.736 60.9448 118.828 60.7173C118.921 60.4898 118.969 60.246 118.969 59.9998C118.969 59.7535 118.921 59.5097 118.828 59.2822C118.736 59.0547 118.6 58.848 118.428 58.6739L112.99 53.1492ZM90.8285 101.1C90.8285 101.598 91.023 102.075 91.3691 102.426C91.7153 102.778 92.1847 102.975 92.6742 102.975H100.365C100.854 102.975 101.324 102.778 101.67 102.426C102.016 102.075 102.211 101.598 102.211 101.1V93.2876C102.211 92.7903 102.016 92.3134 101.67 91.9618C101.324 91.6101 100.854 91.4126 100.365 91.4126C99.8753 91.4126 99.4059 91.6101 99.0597 91.9618C98.7136 92.3134 98.5191 92.7903 98.5191 93.2876V96.5738L89.6381 87.5517C89.2919 87.2001 88.8224 87.0025 88.3329 87.0025C87.8434 87.0025 87.3739 87.2001 87.0278 87.5517C86.6816 87.9034 86.4872 88.3803 86.4872 88.8776C86.4872 89.3749 86.6816 89.8518 87.0278 90.2035L95.9088 99.2255H92.6742C92.1847 99.2255 91.7153 99.423 91.3691 99.7747C91.023 100.126 90.8285 100.603 90.8285 101.1ZM59.9063 98.9642C59.4168 98.9642 58.9473 99.1617 58.6012 99.5133C58.2551 99.865 58.0606 100.342 58.0606 100.839V113.598L55.7736 111.274C55.6022 111.1 55.3987 110.962 55.1747 110.868C54.9507 110.774 54.7107 110.725 54.4683 110.725C54.2259 110.725 53.9859 110.774 53.7619 110.868C53.5379 110.962 53.3345 111.1 53.163 111.274C52.9916 111.449 52.8557 111.655 52.7629 111.883C52.6701 112.11 52.6224 112.354 52.6224 112.6C52.6224 112.847 52.6701 113.091 52.7629 113.318C52.8557 113.546 52.9916 113.752 53.163 113.926L58.6012 119.451C58.7726 119.625 58.976 119.763 59.2 119.857C59.4239 119.951 59.6639 120 59.9063 120C60.1487 120 60.3887 119.951 60.6127 119.857C60.8366 119.763 61.0401 119.625 61.2115 119.451L66.6496 113.926C66.821 113.752 66.957 113.546 67.0497 113.318C67.1425 113.091 67.1903 112.847 67.1903 112.6C67.1903 112.354 67.1425 112.11 67.0497 111.883C66.957 111.655 66.821 111.449 66.6496 111.274C66.4782 111.1 66.2747 110.962 66.0507 110.868C65.8268 110.774 65.5868 110.725 65.3443 110.725C65.1019 110.725 64.8619 110.774 64.6379 110.868C64.414 110.962 64.2105 111.1 64.0391 111.274L61.752 113.598V100.839C61.752 100.342 61.5576 99.865 61.2114 99.5133C60.8653 99.1617 60.3958 98.9642 59.9063 98.9642ZM32.7849 87.5517C32.6135 87.3776 32.41 87.2395 32.1861 87.1453C31.9621 87.051 31.7221 87.0025 31.4797 87.0025C31.2373 87.0025 30.9973 87.051 30.7734 87.1453C30.5494 87.2395 30.346 87.3776 30.1746 87.5517L21.2935 96.5738V93.2878C21.2935 92.7905 21.0991 92.3136 20.7529 91.962C20.4068 91.6104 19.9373 91.4128 19.4478 91.4128C18.9583 91.4128 18.4888 91.6104 18.1427 91.962C17.7966 92.3136 17.6021 92.7905 17.6021 93.2878V101.1C17.6021 101.598 17.7966 102.075 18.1427 102.426C18.4888 102.778 18.9583 102.975 19.4478 102.975H27.1386C27.6281 102.975 28.0976 102.778 28.4437 102.426C28.7899 102.075 28.9843 101.598 28.9843 101.1C28.9843 100.603 28.7899 100.126 28.4437 99.7747C28.0976 99.423 27.6281 99.2255 27.1386 99.2255H23.9038L32.7849 90.2035C32.9563 90.0293 33.0922 89.8226 33.185 89.5951C33.2777 89.3677 33.3255 89.1238 33.3255 88.8776C33.3255 88.6314 33.2777 88.3875 33.185 88.16C33.0922 87.9325 32.9563 87.7258 32.7849 87.5517ZM6.82228 66.8501C6.99369 67.0242 7.19718 67.1623 7.42114 67.2566C7.64509 67.3508 7.88513 67.3993 8.12754 67.3993C8.36995 67.3993 8.60998 67.3508 8.83394 67.2566C9.0579 67.1623 9.26139 67.0242 9.4328 66.8501C9.60421 66.676 9.74018 66.4692 9.83294 66.2417C9.92571 66.0142 9.97345 65.7704 9.97345 65.5241C9.97345 65.2779 9.92571 65.034 9.83294 64.8065C9.74018 64.579 9.60421 64.3723 9.4328 64.1981L7.14551 61.8748H19.7051C20.1946 61.8748 20.664 61.6772 21.0102 61.3256C21.3563 60.974 21.5508 60.4971 21.5508 59.9998C21.5508 59.5025 21.3563 59.0256 21.0102 58.674C20.664 58.3223 20.1946 58.1248 19.7051 58.1248H7.14551L9.4328 55.8014C9.77897 55.4497 9.97345 54.9728 9.97345 54.4754C9.97345 53.9781 9.77897 53.5011 9.4328 53.1495C9.08662 52.7978 8.61711 52.6002 8.12754 52.6002C7.63797 52.6002 7.16846 52.7978 6.82228 53.1495L1.38438 58.6739C1.21298 58.848 1.07702 59.0547 0.984255 59.2822C0.891494 59.5097 0.84375 59.7535 0.84375 59.9998C0.84375 60.246 0.891494 60.4898 0.984255 60.7173C1.07702 60.9448 1.21298 61.1515 1.38438 61.3256L6.82228 66.8501ZM32.7849 29.7954L23.9038 20.7741H27.1384C27.6279 20.7741 28.0974 20.5765 28.4435 20.2249C28.7896 19.8733 28.9841 19.3964 28.9841 18.8991C28.9841 18.4018 28.7896 17.9249 28.4435 17.5732C28.0974 17.2216 27.6279 17.0241 27.1384 17.0241H19.4478C18.9583 17.0241 18.4888 17.2216 18.1427 17.5732C17.7966 17.9249 17.6021 18.4018 17.6021 18.8991V26.712C17.6021 27.2092 17.7966 27.6862 18.1427 28.0378C18.4888 28.3894 18.9583 28.587 19.4478 28.587C19.9373 28.587 20.4068 28.3894 20.7529 28.0378C21.0991 27.6862 21.2935 27.2092 21.2935 26.712V23.4258L30.1746 32.4478C30.346 32.6219 30.5494 32.7601 30.7734 32.8543C30.9973 32.9485 31.2373 32.997 31.4797 32.997C31.7221 32.997 31.9621 32.9485 32.1861 32.8543C32.41 32.7601 32.6135 32.6219 32.7849 32.4478C32.9563 32.2737 33.0922 32.067 33.185 31.8395C33.2777 31.612 33.3255 31.3682 33.3255 31.122C33.3255 30.8757 33.2777 30.6319 33.185 30.4044C33.0922 30.1769 32.9563 29.9702 32.7849 29.7961V29.7954ZM72.0347 78.979L61.0758 85.2565C60.8006 85.4141 60.4902 85.4972 60.1742 85.498C59.8583 85.4988 59.5475 85.4173 59.2715 85.2611C58.9955 85.1049 58.7636 84.8794 58.5979 84.6061C58.4323 84.3328 58.3385 84.0209 58.3255 83.7003L58.0025 75.7439C56.1183 76.3088 54.1437 76.7899 52.0785 77.1872C51.7831 77.2441 51.4786 77.2269 51.1913 77.137C50.904 77.0472 50.6427 76.8874 50.43 76.6716L43.4205 69.5508C43.208 69.3347 43.0507 69.0692 42.9623 68.7773C42.8738 68.4854 42.8569 68.176 42.9129 67.876C43.3038 65.7788 43.7773 63.7728 44.3337 61.8581L36.5016 61.53C36.186 61.5168 35.8789 61.4215 35.6098 61.2532C35.3408 61.085 35.1188 60.8493 34.965 60.5689C34.8113 60.2885 34.731 59.9727 34.7318 59.6517C34.7326 59.3308 34.8146 59.0154 34.9697 58.7358L41.1491 47.603C41.2921 47.3454 41.493 47.1258 41.7355 46.9622C41.978 46.7986 42.2551 46.6955 42.5443 46.6615L52.2976 45.5131C52.4914 45.4901 52.6875 45.4987 52.8786 45.5386C53.8783 44.3948 54.954 43.322 56.0982 42.3277C63.0948 36.2606 72.3939 33.4348 83.7376 33.9209C84.1997 33.9408 84.6376 34.1362 84.9646 34.4684C85.2916 34.8007 85.4839 35.2456 85.5035 35.715C85.9845 47.2388 83.2002 56.6852 77.2282 63.7931C76.2797 64.92 75.2584 65.9815 74.1711 66.9706L72.9624 77.5622C72.9289 77.8561 72.8274 78.1378 72.6661 78.3842C72.5049 78.6305 72.2885 78.8346 72.0347 78.9797V78.979ZM49.3397 58.6437C52.2025 59.359 54.818 60.8568 56.9025 62.9747C58.9871 65.0925 60.4612 67.7496 61.1651 70.658C74.9363 65.0215 82.0296 53.7699 81.86 37.6214C65.9598 37.4435 54.8874 44.6529 49.3397 58.6437ZM45.553 58.1562C46.6548 55.1437 48.0865 52.2667 49.8212 49.5792L43.9013 50.2765L39.6645 57.9099L45.553 58.1562ZM52.3438 73.3123C54.201 72.9245 55.9733 72.4625 57.6606 71.9264C57.1429 69.5481 55.9673 67.3695 54.272 65.6469C52.5768 63.9243 50.4325 62.7294 48.0915 62.2029C47.5644 63.9173 47.1095 65.7181 46.7268 67.6055L52.3438 73.3123ZM69.4032 76.182L70.0895 70.1679C67.4436 71.93 64.6111 73.3845 61.6454 74.5038L61.8879 80.4849L69.4032 76.182ZM68.8656 50.8226C67.9914 49.9366 67.4467 48.7701 67.3244 47.5218C67.2021 46.2736 67.5098 45.0209 68.1949 43.9772C68.88 42.9336 69.9002 42.1637 71.0816 41.7987C72.263 41.4336 73.5324 41.4961 74.6735 41.9755C75.8147 42.4549 76.7568 43.3214 77.3393 44.4275C77.9219 45.5335 78.1088 46.8106 77.8683 48.041C77.6277 49.2714 76.9746 50.3789 76.0201 51.1749C75.0657 51.9708 73.8691 52.4058 72.6343 52.4058C71.9343 52.408 71.2408 52.2693 70.5939 51.9975C69.947 51.7258 69.3596 51.3264 68.8656 50.8226ZM70.9958 46.9941C70.9958 47.379 71.1272 47.7521 71.3676 48.0497C71.608 48.3473 71.9425 48.551 72.3142 48.6261C72.6858 48.7012 73.0716 48.6431 73.4059 48.4617C73.7401 48.2803 74.002 47.9867 74.1471 47.6311C74.2922 47.2754 74.3114 46.8797 74.2014 46.5113C74.0915 46.1429 73.8592 45.8246 73.5442 45.6106C73.2291 45.3967 72.8508 45.3003 72.4737 45.338C72.0965 45.3756 71.7439 45.5449 71.4759 45.817C71.3232 45.9712 71.2021 46.1546 71.1197 46.3567C71.0373 46.5587 70.9952 46.7754 70.9958 46.9941ZM36.7554 85.3172C36.9979 85.3175 37.238 85.2692 37.462 85.175C37.686 85.0808 37.8895 84.9426 38.0608 84.7683L45.2113 77.5043C45.5575 77.1526 45.7519 76.6757 45.7519 76.1783C45.7519 75.681 45.5575 75.204 45.2113 74.8524C44.8651 74.5007 44.3956 74.3031 43.906 74.3031C43.4165 74.3031 42.947 74.5007 42.6008 74.8524L35.4508 82.1163C35.1926 82.3786 35.0168 82.7127 34.9456 83.0764C34.8744 83.4401 34.9109 83.8171 35.0506 84.1597C35.1903 84.5024 35.4269 84.7952 35.7304 85.0012C36.034 85.2073 36.3908 85.3172 36.7559 85.3172H36.7554ZM37.4074 76.2795L40.7066 72.9279C40.878 72.7538 41.014 72.5471 41.1067 72.3196C41.1995 72.0921 41.2472 71.8483 41.2472 71.602C41.2472 71.3558 41.1995 71.112 41.1067 70.8845C41.014 70.657 40.878 70.4503 40.7066 70.2762C40.5352 70.1021 40.3318 69.964 40.1078 69.8697C39.8839 69.7755 39.6439 69.727 39.4015 69.727C39.1591 69.727 38.9191 69.7755 38.6951 69.8697C38.4712 69.964 38.2677 70.1021 38.0963 70.2762L34.7971 73.6277C34.451 73.9794 34.2565 74.4563 34.2565 74.9536C34.2565 75.4509 34.451 75.9278 34.7971 76.2795C35.1433 76.6311 35.6128 76.8287 36.1023 76.8287C36.5918 76.8287 37.0613 76.6311 37.4074 76.2795ZM45.2609 86.1324C45.5034 86.1327 45.7435 86.0843 45.9675 85.9901C46.1915 85.8959 46.395 85.7576 46.5663 85.5832L49.8655 82.2317C50.2116 81.88 50.4061 81.403 50.406 80.9057C50.406 80.4084 50.2115 79.9315 49.8653 79.5798C49.5192 79.2282 49.0497 79.0306 48.5601 79.0307C48.0706 79.0307 47.6011 79.2283 47.2549 79.5799L43.9558 82.9315C43.6976 83.1937 43.5218 83.5278 43.4506 83.8915C43.3794 84.2553 43.4159 84.6323 43.5556 84.9749C43.6953 85.3175 43.9319 85.6104 44.2354 85.8164C44.539 86.0224 44.8958 86.1324 45.2609 86.1324Z" fill="#623E91"/>
</g>
<defs>
<clipPath id="clip0_557_104642">
<rect width="118.125" height="120" fill="white" transform="translate(0.84375)"/>
</clipPath>
</defs>
</svg>
