<svg width="877" height="507" viewBox="0 0 877 507" fill="none" xmlns="http://www.w3.org/2000/svg">
<path d="M823.944 316.833C815.64 384.79 765.738 439.703 700.996 454.544C699.919 454.856 698.689 455.09 697.613 455.325C697.305 455.325 697.074 455.481 696.767 455.481C686.694 457.512 676.314 458.605 665.703 458.605C658.937 458.605 652.401 458.215 645.865 457.356C645.711 457.356 645.635 457.356 645.558 457.356C644.558 457.356 643.712 457.121 642.79 456.965C573.588 446.889 518.765 391.742 508 321.754L645.942 284.652L670.701 313.318L695.998 284.417L728.446 292.697L823.944 316.99V316.833Z" fill="black"/>
<path d="M696.691 455.481C686.618 457.512 676.238 458.605 665.627 458.605C658.86 458.605 652.325 458.215 645.789 457.356L666.165 336.596H676.622L696.691 455.481Z" fill="#623E91"/>
<path d="M670.34 311.904L657.4 325.049C656.83 325.629 656.83 326.568 657.4 327.148L670.34 340.294C670.911 340.873 671.836 340.873 672.406 340.293L685.346 327.148C685.917 326.568 685.917 325.629 685.346 325.049L672.406 311.904C671.836 311.324 670.911 311.324 670.34 311.904Z" fill="#623E91"/>
<path d="M625.871 267.858L674.543 308.632C674.543 308.632 625.871 361.826 625.871 359.248C625.871 356.67 614.414 292.619 614.414 292.619L625.871 267.858Z" fill="#B3B3B3"/>
<path d="M716.836 267.858L668.164 308.632C668.164 308.632 716.836 361.826 716.836 359.248C716.836 356.67 728.293 292.619 728.293 292.619L716.836 267.858Z" fill="#B3B3B3"/>
<path d="M614.493 293.322L645.48 457.199C644.48 457.199 643.634 456.965 642.712 456.809L587.273 353.233L604.497 336.361L587.273 327.144L614.493 293.322Z" fill="#2F2F2F"/>
<path d="M738.283 335.658L755.43 352.53L700.914 454.622C699.838 454.934 698.608 455.168 697.531 455.403L728.288 292.619L755.353 326.441L738.206 335.658H738.283Z" fill="#2F2F2F"/>
<path d="M464.783 336.127H44.4984C20.2778 336.127 0.59375 316.208 0.59375 291.525C0.59375 266.92 20.2009 246.924 44.4984 246.924H464.783V336.049V336.127Z" fill="#B68B60"/>
<path d="M664.929 76.4849C547.978 76.4849 453.172 172.796 453.172 291.603C453.172 410.411 547.978 506.722 664.929 506.722C781.88 506.722 876.686 410.411 876.686 291.603C876.686 172.796 781.88 76.4849 664.929 76.4849ZM664.929 453.294C577.043 453.294 505.765 380.885 505.765 291.603C505.765 202.322 577.043 129.913 664.929 129.913C752.815 129.913 824.093 202.322 824.093 291.603C824.093 380.885 752.815 453.294 664.929 453.294Z" fill="#B68B60"/>
<path opacity="0.2" d="M665.203 453.318C753.362 453.318 824.829 380.717 824.829 291.159C824.829 201.601 753.362 129 665.203 129C577.045 129 505.578 201.601 505.578 291.159C505.578 380.717 577.045 453.318 665.203 453.318Z" fill="url(#paint0_radial_477_15621)"/>
<path opacity="0.24" d="M523.911 291.291C522.835 246.064 545.825 205.915 581.041 183.654" stroke="white" stroke-width="0.9" stroke-miterlimit="10" stroke-linecap="round"/>
<path d="M133.685 94.2016C133.762 93.7329 133.838 93.1861 133.838 92.7175C133.838 92.0926 133.685 91.5458 133.531 90.9209C133.531 90.7647 133.454 90.5304 133.454 90.296C133.454 89.9836 133.608 89.9055 133.915 89.9836C134.223 90.0617 134.454 90.296 134.607 90.5304C134.838 90.9209 134.992 91.3115 135.222 91.702C135.376 91.9363 135.53 92.0926 135.761 92.1707C135.991 92.2488 136.299 92.1707 136.53 92.0145C136.76 91.8582 136.914 91.6239 137.068 91.3896C137.991 90.1398 138.913 88.89 139.913 87.7184C140.067 87.484 140.374 87.3278 140.605 87.484C140.759 87.5621 140.759 87.7965 140.682 87.9527C140.682 88.2651 140.451 88.4995 140.22 88.8119C139.682 89.5149 139.221 90.2179 138.683 90.9209C138.375 91.3115 138.144 91.702 137.991 92.1707C138.144 92.405 138.452 92.2488 138.606 92.1707C139.99 91.2334 140.835 89.7492 142.066 88.6557C142.066 88.6557 142.22 88.4995 142.296 88.4995C142.527 88.4995 142.758 88.7338 142.681 88.9681C142.681 89.2025 142.527 89.4368 142.373 89.593C141.451 90.7647 140.528 92.0145 139.528 93.1861C139.605 93.2643 139.759 93.1861 139.913 93.1861C141.143 92.5613 141.989 91.2334 143.219 90.5304C143.296 90.5304 143.45 90.3741 143.527 90.4522C143.68 90.4522 143.757 90.6866 143.757 90.8428C143.757 90.999 143.68 91.1552 143.604 91.3115C142.758 92.5612 141.451 93.3424 140.605 94.514C140.912 94.6702 141.22 94.514 141.451 94.2797C141.835 93.9673 142.296 93.7329 142.758 93.4986C142.912 93.4986 143.142 93.4205 143.142 93.4986C143.142 93.4986 143.142 93.6548 143.142 93.7329C142.604 94.514 141.758 95.0608 140.989 95.6076C139.759 96.4668 138.529 97.6385 137.145 98.2634C135.914 98.8883 134.915 100.06 133.992 101.075C133.915 101.232 133.762 101.31 133.608 101.388C133.531 101.388 133.377 101.388 133.3 101.466C132.839 101.466 132.378 101.31 132.07 100.997C131.762 100.685 131.532 100.294 131.378 99.8256C131.378 99.6694 131.301 99.5132 131.378 99.3569C131.378 99.2007 131.532 99.1226 131.609 99.0445C132.147 98.4977 132.839 98.0291 133.146 97.2479C133.377 96.7793 133.454 96.2325 133.531 95.6857C133.531 95.1389 133.685 94.6703 133.762 94.1235L133.685 94.2016Z" fill="#FFC8A3"/>
<path d="M113.008 124.743C113.008 124.743 121.697 127.086 137.844 98.4193C136.691 95.6854 135.46 95.0605 133 95.6073C127.925 101.466 112.778 106.074 107.318 113.573C102.167 120.603 113.008 124.665 113.008 124.665V124.743Z" fill="#93693F"/>
<g opacity="0.42">
<path d="M113.006 124.743C116.158 124.821 118.849 122.79 121.156 120.837C123.54 118.807 125.539 116.463 127.461 114.042C131.306 109.121 134.535 103.731 137.688 98.4195V98.5757C137.303 97.6383 136.765 96.6229 135.996 96.0761C135.15 95.4512 134.074 95.6075 133.074 95.8418C129.537 99.513 124.847 101.7 120.464 104.2C116.081 106.699 111.468 109.043 108.008 112.792C111.468 109.043 116.081 106.621 120.387 104.122C124.77 101.622 129.383 99.3568 132.844 95.6074C133.843 95.3731 134.996 95.2169 135.996 95.8418C136.919 96.4667 137.38 97.4821 137.841 98.4195V98.5757C134.843 104.043 131.383 109.277 127.538 114.198C125.539 116.619 123.54 118.963 121.156 120.994C118.773 122.868 116.081 124.977 112.929 124.821L113.006 124.743Z" fill="black"/>
</g>
<path d="M96.9403 243.706C96.9403 243.706 103.86 242.457 104.86 246.362H90.7891L91.7117 243.706H96.9403Z" fill="#468AB5"/>
<path d="M71.0341 243.706C71.0341 243.706 77.9542 242.457 78.9538 246.362H64.8828L65.8055 243.706H71.0341Z" fill="#468AB5"/>
<path d="M91.7926 143.334C95.2526 144.661 97.4825 148.02 97.6363 151.691C97.6363 162.08 100.404 185.123 96.1753 200.199C93.7148 209.103 93.3304 228.319 96.9442 243.628H91.7157C91.7157 243.628 85.6413 228.241 84.0266 218.789C83.3346 214.727 83.4115 206.76 85.2569 201.292C87.3329 195.043 80.3358 162.08 80.3358 162.08C80.3358 162.08 74.7997 158.643 76.0299 151.691C77.414 143.88 84.2573 140.443 91.7926 143.334Z" fill="#3C3C3C"/>
<path opacity="0.15" d="M93.2503 244.175C91.1742 238.473 87.791 228.24 86.5608 219.57C84.7154 206.916 89.6364 198.089 89.1751 188.169C88.7137 178.249 87.1759 154.035 87.1759 154.035C84.7923 145.833 81.486 151.223 78.1797 160.518C79.2562 161.846 80.3326 162.549 80.3326 162.549C80.3326 162.549 87.3297 195.59 85.2536 201.761C83.4083 207.307 83.3314 215.196 84.0234 219.258C85.6381 228.709 91.7125 244.097 91.7125 244.097H93.2503V244.175Z" fill="black"/>
<path opacity="0.29" d="M76.0299 151.691C76.7989 147.083 79.49 144.037 83.1808 142.865C83.8728 143.177 84.6417 143.49 85.3337 143.88C88.4863 145.677 90.1778 149.426 89.7934 153.097C88.9476 160.362 84.4879 176.531 79.7207 189.419C79.5669 177.624 80.3358 162.08 80.3358 162.08C80.3358 162.08 74.7997 158.643 76.0299 151.691Z" fill="black"/>
<path d="M85.5625 144.115C88.6382 146.067 90.176 149.817 89.6378 153.488C88.0999 163.018 85.7163 187.544 76.8739 199.886C71.876 207.619 70.4919 227.928 71.0302 243.706H65.7247C65.7247 243.706 62.8798 225.194 63.1873 215.586C63.3411 211.447 63.1104 203.792 65.9554 198.714C69.1848 193.012 69.5693 160.127 69.5693 160.127C69.5693 160.127 65.5709 156.144 68.1083 149.582C70.9533 142.24 78.7961 139.818 85.5625 144.115Z" fill="#3C3C3C"/>
<path opacity="0.15" d="M72.2604 150.363C71.7222 148.723 71.0302 147.395 70.3382 146.224C69.4155 147.317 68.6466 148.567 68.1083 149.973C65.5709 156.612 69.5693 160.518 69.5693 160.518C69.5693 160.518 69.1848 193.481 65.9554 199.105C63.0335 204.104 63.3411 211.837 63.1873 215.977C62.8798 225.585 65.7247 244.097 65.7247 244.097H67.3394C65.4171 228.709 65.1096 206.838 68.4928 198.636C71.876 190.434 72.4911 170.829 71.9529 160.518C67.4932 153.722 72.2604 150.207 72.2604 150.207V150.363Z" fill="black"/>
<g opacity="0.22">
<path d="M81.1771 154.425C79.6393 158.643 76.1792 161.846 72.2578 163.642C75.9486 161.455 79.2549 158.331 81.1771 154.425Z" fill="black"/>
</g>
<g opacity="0.22">
<path d="M68.4922 149.114C69.4149 146.692 71.0296 144.505 73.2594 143.177C75.4892 141.849 78.1804 141.537 80.7178 142.084C83.1783 142.631 85.7157 143.724 87.4842 145.677C89.2527 147.63 90.0216 150.364 89.7909 152.941C88.33 163.252 87.0229 173.641 84.1779 183.717C82.717 188.716 80.9485 193.715 78.2573 198.09C75.1048 202.308 73.8745 207.463 72.9519 212.54C71.1834 222.773 70.8758 233.318 71.1065 243.707C70.7989 233.318 71.1065 222.851 72.7981 212.54C73.7208 207.463 74.951 202.151 78.0266 197.933C80.7178 193.481 82.4094 188.56 83.8703 183.561C86.7922 173.563 88.0993 163.174 89.6372 152.863C89.9447 150.285 89.0989 147.63 87.4073 145.677C85.7157 143.724 83.1783 142.631 80.7178 142.084C75.643 140.756 70.1838 144.036 68.4922 149.036V149.114Z" fill="black"/>
</g>
<g opacity="0.41">
<path d="M96.9469 243.706C98.4078 243.472 99.9456 243.394 101.483 243.706C102.944 243.941 104.559 244.8 105.02 246.362V246.518H104.944C100.253 246.597 95.5629 246.518 90.8725 246.518H90.7188V246.362L91.6414 243.706H96.87H96.9469ZM96.9469 243.706H91.7183L90.8725 246.362V246.206C95.486 246.128 100.176 246.128 104.867 246.206V246.362C104.405 244.878 102.867 244.019 101.407 243.706C99.9456 243.394 98.4078 243.394 96.87 243.706H96.9469Z" fill="black"/>
</g>
<g opacity="0.41">
<path d="M71.0329 243.706C72.4938 243.472 74.0316 243.394 75.5694 243.706C77.0303 243.941 78.645 244.8 79.1064 246.362V246.518H79.0295C74.3391 246.597 69.6488 246.518 64.9585 246.518H64.8047V246.362L65.7274 243.706H70.956H71.0329ZM71.0329 243.706H65.8043L64.9585 246.362V246.206C69.5719 246.128 74.2623 246.128 78.9526 246.206V246.362C78.4913 244.878 76.9534 244.019 75.4925 243.706C74.0316 243.394 72.4938 243.394 70.956 243.706H71.0329Z" fill="black"/>
</g>
<g opacity="0.21">
<path d="M87.8747 163.096C87.6441 161.299 87.5672 159.503 87.8747 157.706L88.5668 152.316L88.0285 157.706C87.6441 159.503 87.6441 161.299 87.7979 163.096H87.8747Z" fill="black"/>
</g>
<g opacity="0.22">
<path d="M97.7882 163.096C96.9424 160.127 96.0966 157.081 94.3281 154.66C96.4811 156.925 97.4038 160.127 97.7882 163.096Z" fill="black"/>
</g>
<path d="M107.16 80.454C107.16 80.454 117.309 101.466 119.539 122.165C112.926 127.399 106.006 123.103 106.006 123.103C106.006 123.103 93.2424 84.1252 93.8575 82.0162C94.3957 79.9072 107.16 80.454 107.16 80.454Z" fill="#93693F"/>
<path d="M92.2482 71.0805L85.7125 66.7844L79.4844 70.4557L83.7903 75.5329L94.3243 76.6265L92.2482 71.0805Z" fill="#E1E1E1"/>
<path d="M95.8666 150.754C95.8666 150.754 86.2553 154.425 75.875 150.754C87.9469 137.241 90.5611 138.803 90.5611 138.803L95.8666 150.754Z" fill="white"/>
<path d="M89.1702 144.427C88.632 147.317 88.632 148.801 88.0938 152.316" stroke="#E1E1E1" stroke-width="0.05" stroke-miterlimit="10"/>
<path d="M67.7188 149.582C67.7188 149.582 87.6335 158.8 98.3213 149.27L98.6289 147.317C98.6289 147.317 89.7864 157.472 68.1801 147.317C67.7956 149.192 67.7188 149.582 67.7188 149.582Z" fill="#8C6740"/>
<path opacity="0.29" d="M93.8603 82.0943C94.3986 80.0634 106.086 80.454 107.086 80.5321C107.086 80.5321 107.086 80.5321 107.162 80.5321C107.393 81.0007 109.085 84.5938 111.238 90.0616C111.545 92.8736 111.776 96.5449 111.776 101.466C111.776 103.965 109.546 105.45 108.854 106.621C108.546 110.917 107.162 117.479 106.009 123.103C104.164 118.416 105.086 116.229 105.086 116.229C105.086 116.229 93.2452 84.0471 93.7834 82.0162L93.8603 82.0943Z" fill="black"/>
<path opacity="0.29" d="M68.7952 148.879C68.949 148.176 69.2566 147.552 68.7183 147.552C69.0259 145.989 69.2566 144.427 69.4872 142.865L99.3977 143.021C98.2444 147.864 97.4755 151.535 97.7062 152.863C97.7062 152.863 96.4759 154.894 93.2465 154.425C92.6314 153.8 90.7091 150.442 88.8637 145.443C86.8646 151.145 83.3276 154.738 80.6364 156.534C77.407 157.003 71.2557 156.3 67.7188 153.176C67.7188 151.691 68.4877 150.285 68.7952 148.879Z" fill="black"/>
<path d="M59.9531 82.641C63.1056 80.1415 76.254 72.5647 79.022 72.799C84.0199 71.8617 86.4036 72.4084 91.9397 73.5801C97.4758 75.0642 106.011 79.3604 107.164 80.4539C107.164 80.4539 110.24 82.5629 110.24 100.372C110.24 102.872 108.01 104.356 107.318 105.528C106.318 120.213 97.5527 147.552 98.1678 151.77C98.1678 151.77 96.9376 153.8 93.7082 153.332C93.0931 152.707 91.1708 149.348 89.3254 144.349C87.3262 150.051 83.5586 152.629 81.0981 155.441C77.638 155.988 70.7178 155.128 67.4115 151.223C73.3321 125.758 68.9493 101.153 59.9531 82.4848V82.641Z" fill="#93693F"/>
<path d="M87.7109 139.662C87.7109 140.053 88.0185 140.443 88.4798 140.443C88.9412 140.443 89.2487 140.131 89.2487 139.662C89.2487 139.194 88.9412 138.881 88.4798 138.881C88.0185 138.881 87.7109 139.194 87.7109 139.662Z" fill="#CFB094"/>
<path d="M89.25 130.679C89.25 131.07 89.5576 131.461 90.0189 131.461C90.4803 131.461 90.7878 131.148 90.7878 130.679C90.7878 130.211 90.4803 129.898 90.0189 129.898C89.5576 129.898 89.25 130.211 89.25 130.679Z" fill="#CFB094"/>
<path d="M90.2455 121.072C90.6701 121.072 91.0144 120.722 91.0144 120.291C91.0144 119.859 90.6701 119.51 90.2455 119.51C89.8208 119.51 89.4766 119.859 89.4766 120.291C89.4766 120.722 89.8208 121.072 90.2455 121.072Z" fill="#CFB094"/>
<g opacity="0.3">
<path d="M85.0965 141.537C80.9444 141.303 76.8692 140.521 72.794 139.74C72.102 140.365 71.6406 141.381 71.6406 142.396C75.2545 143.177 78.9452 144.115 82.7129 144.115C78.9452 144.193 75.2545 143.255 71.6406 142.474V142.396C71.6406 141.381 72.102 140.287 72.8709 139.584C76.9461 140.443 81.0213 141.303 85.1734 141.537H85.0965Z" fill="black"/>
</g>
<g opacity="0.35">
<path d="M89.3203 144.427C90.0123 140.209 90.5506 135.991 91.0119 131.695C91.5502 127.477 92.0884 123.181 92.0884 118.885C92.3191 127.477 90.8581 135.991 89.3203 144.427Z" fill="black"/>
</g>
<g opacity="0.56">
<path d="M67.4115 151.301C72.5632 128.414 69.872 103.809 59.9531 82.5629C70.2565 103.653 72.9477 128.414 67.4115 151.301Z" fill="black"/>
</g>
<g opacity="0.35">
<path d="M98.1626 151.848C97.163 153.254 95.3176 153.722 93.7029 153.488C91.7037 150.754 90.4735 147.63 89.2432 144.505H89.4739C88.705 146.692 87.5516 148.801 86.0138 150.598C84.5529 152.394 82.7075 153.879 81.1697 155.597C78.7092 155.909 76.1718 155.597 73.7882 154.972C71.4046 154.269 69.0978 153.176 67.4062 151.301C69.0978 153.176 71.4046 154.269 73.7882 154.894C76.1718 155.519 78.7092 155.753 81.0928 155.363C84.2453 152.004 87.7823 148.879 89.3201 144.349V144.036L89.5508 144.349C90.7042 147.473 91.9344 150.676 93.8567 153.332C95.4714 153.566 97.3168 153.176 98.3164 151.77L98.1626 151.848Z" fill="black"/>
</g>
<g opacity="0.35">
<path d="M107.16 80.4539C108.544 82.1723 108.929 84.5157 109.313 86.6247C109.698 88.8118 109.928 90.9989 110.082 93.186C110.236 95.3731 110.313 97.6383 110.313 99.8255C110.62 102.247 108.698 103.965 107.468 105.606C106.853 113.417 105.007 121.15 103.162 128.805L100.317 140.287C99.4712 144.115 98.241 147.942 98.1641 151.848C98.1641 147.864 99.3943 144.115 100.24 140.209L102.931 128.727C104.623 121.072 106.468 113.339 107.16 105.528C108.467 103.809 110.313 102.247 110.082 99.9036C110.082 97.7165 110.082 95.4512 109.928 93.2641C109.851 91.077 109.621 88.8899 109.236 86.7028C108.852 84.5937 108.467 82.2504 107.083 80.532L107.16 80.4539Z" fill="black"/>
</g>
<path d="M80.5592 60.5355C80.5592 60.5355 81.4819 68.6591 78.4062 76.3921C82.6352 79.5165 87.4794 81.3912 90.2474 80.4539C92.7848 79.5947 93.4769 76.1578 93.4769 76.1578C93.4769 76.1578 91.0932 69.2059 91.6315 61.3947C87.9407 59.6763 80.4823 60.4574 80.4823 60.4574L80.5592 60.5355Z" fill="#FFC8A3"/>
<g opacity="0.05">
<path d="M81.0222 77.4076C80.0995 75.6892 79.6382 74.3613 79.4844 73.1896C79.7919 72.0961 79.9457 71.0806 80.1764 70.0652C81.5604 71.5493 88.7882 79.048 90.9411 77.0171C92.6327 75.3767 92.5558 72.9553 92.402 71.7836C92.9403 74.5175 93.5554 76.236 93.5554 76.236C93.5554 76.236 92.8634 79.6729 90.326 80.5321C88.2499 81.2351 85.0205 80.3759 81.7142 78.5793C81.4835 78.1888 81.3297 77.7982 81.0991 77.4076H81.0222Z" fill="black"/>
</g>
<path d="M94.7873 74.3612C94.7873 74.3612 104.476 92.1706 91.7885 120.837C88.0209 104.512 77.6406 72.8771 77.6406 72.8771C77.6406 72.8771 79.3322 72.0178 81.6389 72.799C83.4843 74.205 88.3285 79.2822 90.2507 80.4539C92.7881 76.5483 94.7873 74.2831 94.7873 74.2831V74.3612Z" fill="white"/>
<path d="M90.25 80.5321C92.8643 93.811 92.8643 107.48 91.7878 120.916C92.1723 114.198 92.2492 107.402 92.0185 100.685C91.8647 93.9672 91.4034 87.1716 90.25 80.5321Z" fill="#E1E1E1"/>
<path opacity="0.29" d="M89.4025 85.7654C89.4025 85.7654 87.1727 84.047 86.25 79.9852C90.7097 82.4066 92.4013 79.126 92.4013 79.126C92.4013 79.126 93.0933 82.3285 91.863 85.5311C91.863 85.5311 94.8618 96.701 95.0155 111.386L88.8643 112.401C89.4794 102.481 90.6328 92.0143 89.4025 85.7654Z" fill="black"/>
<path d="M89.25 112.089C89.8651 102.091 91.0954 91.9364 89.942 85.6093C90.9416 82.9536 92.3256 85.2969 92.3256 85.2969C92.3256 85.2969 95.1706 96.5449 95.3244 111.386L91.7874 120.916L89.25 112.089Z" fill="#513179"/>
<path opacity="0.11" d="M89.9437 85.6093C90.2512 84.6719 90.6357 84.3595 91.0201 84.3595C91.0201 84.5938 91.097 84.8282 91.097 85.0625C91.097 85.0625 92.5579 100.997 90.405 112.558L88.8672 112.87C89.4823 102.872 91.097 91.9363 89.9437 85.6093Z" fill="black"/>
<path d="M92.7878 78.8917C92.7878 78.8917 91.1731 82.1724 86.8672 79.751C87.713 83.8127 89.8659 85.6093 89.8659 85.6093C89.8659 85.6093 90.558 84.5938 92.2495 85.2968C93.4029 82.0943 92.7878 78.8917 92.7878 78.8917Z" fill="#623E91"/>
<path opacity="0.11" d="M92.6299 79.126C92.6299 79.126 92.6299 79.2822 92.6299 79.3603C92.6299 79.3603 92.553 80.2976 91.4765 80.9225C90.0156 81.7818 89.7849 83.7345 91.0152 84.8281C91.0152 84.8281 91.169 84.9843 91.2458 84.9843C90.4 84.9843 90.0925 85.5311 90.0925 85.5311C90.0925 85.5311 87.9395 83.8127 87.0938 79.6728C90.6307 81.7036 92.3223 79.7509 92.8606 79.0479L92.6299 79.126Z" fill="black"/>
<path opacity="0.29" d="M91.8672 120.837C91.8672 120.837 101.632 100.685 93.4819 78.8916C92.8668 77.3294 94.4046 75.7672 95.9424 76.3139C95.9424 76.3139 102.555 88.3431 102.709 88.6555C102.863 88.968 99.4794 91.1551 99.4794 91.1551C99.4794 91.1551 102.863 95.2169 103.093 95.6855C103.247 96.0761 96.4806 115.604 91.8672 120.837Z" fill="black"/>
<path d="M91.7812 120.916C91.7812 120.916 102.008 96.7792 93.2422 73.7363C94.088 73.9707 96.4716 75.0642 96.4716 75.0642C96.4716 75.0642 101.623 87.0934 101.777 87.4058C101.931 87.7182 99.2397 89.9054 99.2397 89.9054C99.2397 89.9054 101.931 93.9672 102.008 94.4358C102.162 94.8264 95.3182 115.76 91.7812 120.994V120.916Z" fill="#93693F"/>
<path opacity="0.29" d="M77.5602 95.9201L80.0976 92.327L75.7148 89.4369C75.7148 89.4369 73.3312 77.3296 73.4081 75.6893C73.485 75.4549 76.5606 74.0489 77.0219 73.9708C77.2526 74.5957 91.093 97.0918 91.8619 120.916C87.2484 104.434 77.6371 95.9201 77.6371 95.9201H77.5602Z" fill="black"/>
<path d="M78.0992 94.6701L80.6366 91.077L76.2539 88.1869C76.2539 88.1869 73.8702 76.0796 73.9471 74.4393C74.024 74.2049 77.0997 72.7989 77.561 72.7208C77.7917 73.3457 91.1707 97.0915 91.8627 120.915C87.2492 104.434 78.1761 94.6701 78.1761 94.6701H78.0992Z" fill="#93693F"/>
<g opacity="0.27">
<path d="M99.2462 89.8273L101.476 93.4204L102.014 94.2796C102.014 94.2796 101.861 94.9826 101.784 95.3732L101.169 97.4041L98.5542 105.45C96.5551 110.683 94.6328 116.073 91.7109 120.916C94.5559 115.995 96.3244 110.605 98.1698 105.293L100.938 97.3259L101.553 95.2951C101.553 95.2951 101.784 94.5921 101.784 94.2796L101.245 93.3423L99.0925 89.7491L99.2462 89.8273Z" fill="black"/>
</g>
<g opacity="0.27">
<path d="M96.4766 74.9861L100.014 82.7191L101.628 86.7028C102.243 87.4058 101.398 88.1088 100.936 88.4993L99.3215 89.8272L100.859 88.4212C101.321 87.8745 102.09 87.4839 101.474 86.7809L99.706 82.8753L96.5535 74.9861H96.4766Z" fill="black"/>
</g>
<g opacity="0.27">
<path d="M91.7906 120.916C89.0225 111.386 84.3322 102.325 77.9502 94.7483H77.8733V94.5139L80.4107 90.9208V91.077L76.1048 88.1869C75.259 83.5784 74.3363 79.0479 73.875 74.4393C74.3363 79.0479 75.4128 83.5784 76.2586 88.1869L80.6414 90.9208H80.7952L80.7183 91.077L78.2578 94.6702V94.4358C81.5641 98.1852 84.1784 102.481 86.4851 106.856C88.7149 111.308 90.5603 115.995 91.8674 120.759L91.7906 120.916Z" fill="black"/>
</g>
<path opacity="0.19" d="M90.246 80.532H88.0931L86.4015 85.7655C86.4015 85.7655 79.7889 77.4857 79.4813 75.2205C79.1737 73.0333 79.3275 72.4084 79.3275 72.4084L90.246 80.532Z" fill="black"/>
<path d="M90.2467 80.5321L87.863 79.4385L86.1714 84.1252L80.9429 77.0952C79.5588 75.2205 79.0206 72.799 79.482 70.5338L90.2467 80.6102V80.5321Z" fill="white"/>
<path opacity="0.19" d="M95.3248 79.9852C95.3248 79.9852 95.171 82.8753 94.7866 84.2813C93.9408 83.2659 91.7878 80.1414 91.7878 80.1414L90.25 80.532L92.326 77.8762L95.3248 79.9852Z" fill="black"/>
<path d="M90.25 80.532L91.8647 78.8917L94.7097 83.2659L95.2479 79.0479C95.6324 76.2359 94.6328 73.502 92.7105 71.4711L92.2492 71.0024L93.0181 74.4393L90.25 80.4539V80.532Z" fill="white"/>
<g opacity="0.14">
<path d="M93.4025 72.3304C93.7101 73.7364 93.5563 75.2206 92.9412 76.5485L91.8647 78.8918L90.25 80.454L93.0181 74.4395L92.2492 70.9244L92.7105 71.3931C92.7105 71.3931 93.1718 71.8618 93.4025 72.1742V72.3304Z" fill="black"/>
</g>
<path d="M58.2647 85.2968C55.7273 92.4831 50.8063 106.543 47.5 123.181C54.1895 128.336 61.7248 124.196 61.7248 124.196C61.7248 124.196 77.3336 95.4513 66.3382 80.9226C65.7231 80.9226 65.108 80.9226 64.5698 80.9226C61.7248 80.9226 59.2643 82.6411 58.2647 85.3749V85.2968Z" fill="#93693F"/>
<g opacity="0.35">
<path d="M61.6484 124.196C65.0316 117.401 67.7228 110.214 69.1069 102.794C70.6447 95.5294 70.7216 87.2496 66.2619 80.9226C70.7984 87.1715 70.9522 95.5294 69.4913 102.872C67.9535 110.371 65.1854 117.479 61.6484 124.196Z" fill="black"/>
</g>
<path d="M83.945 163.408H48.8828V188.404H83.945V163.408Z" fill="#292929"/>
<path d="M83.9453 188.404L85.4062 187.623V162.705L83.9453 163.408V188.404Z" fill="black"/>
<path opacity="0.1" d="M48.8828 188.404C48.8828 188.404 76.7942 184.42 83.945 163.408V188.404H48.8828Z" fill="black"/>
<path d="M47.4219 163.408H84.8677C84.8677 163.408 81.3307 175.203 64.7992 174.812C47.6525 174.422 47.4988 163.408 47.4988 163.408H47.4219Z" fill="#1A1A1A"/>
<path d="M84.8677 163.408L85.4059 162.627H49.0366L47.4219 163.408H84.8677Z" fill="black"/>
<path d="M63.956 172.625L63.6484 172.86V177.546C63.6484 177.546 64.648 179.421 66.1858 177.546V172.625H63.956Z" fill="#B9B9B9"/>
<path d="M63.6484 172.782V177.546C63.6484 177.546 64.5711 179.343 65.8783 177.546V172.782H63.6484Z" fill="#838383"/>
<path d="M69.1049 155.128C69.72 155.91 70.412 157.003 70.6427 157.394C70.6427 157.472 70.7196 157.628 70.7196 157.706C70.7196 158.175 69.9507 158.019 68.7204 156.925C68.5667 156.769 68.4129 156.612 68.2591 156.456C67.9515 156.456 67.4902 156.222 66.7982 155.753C65.0297 155.285 65.1835 154.035 66.3368 154.269C67.1826 154.503 67.1826 153.488 67.644 153.722C67.7978 153.722 68.7204 154.582 69.028 155.05L69.1049 155.128Z" fill="#FFC8A3"/>
<path d="M72.0303 157.55C70.6463 156.847 65.7253 156.066 62.9572 157.472C60.5736 158.409 59.8047 162.627 59.8047 162.627C59.8047 162.627 60.266 162.627 61.0349 162.627C61.0349 162.627 61.727 159.19 63.6492 158.409C65.6484 157.628 70.1081 157.94 71.2614 158.565C72.1841 159.034 73.645 160.752 73.4144 162.549C74.1833 162.549 74.6446 162.549 74.6446 162.549C74.9522 160.362 73.1837 158.097 72.1072 157.55H72.0303Z" fill="black"/>
<path opacity="0.1" d="M51.1875 170.594C52.264 171.532 53.648 172.391 55.4165 173.172L80.4829 163.486H70.6409L51.2644 170.594H51.1875Z" fill="black"/>
<path d="M68.1828 158.8C68.1828 158.8 68.6441 158.878 68.8748 158.8C69.1824 158.8 70.0282 158.331 69.413 158.019C69.3361 158.019 69.1824 158.019 69.1055 158.019C68.8748 158.019 68.7979 157.784 68.6441 157.55C68.4903 157.394 68.3366 157.237 68.1828 157.003C67.8752 156.613 67.5677 156.144 67.0294 156.222C66.5681 156.222 66.645 156.847 66.7987 157.159C67.1063 157.706 67.4908 158.331 67.9521 158.722C67.9521 158.722 68.029 158.722 68.1059 158.8H68.1828Z" fill="#FFC8A3"/>
<path d="M65.802 158.018C66.0327 158.643 66.1865 159.815 67.1092 159.659C67.8012 159.503 67.3399 158.722 67.1861 158.331C67.0323 157.94 66.8785 157.55 66.5709 157.315C65.9558 156.847 65.5714 157.472 65.802 158.097V158.018Z" fill="#FFC8A3"/>
<path d="M63.2656 157.706C63.2656 158.175 63.2656 158.565 63.2656 159.034C63.2656 159.503 63.3425 160.206 64.0345 160.206C64.8034 160.206 64.419 158.956 64.419 158.487C64.5728 156.769 63.4194 156.534 63.2656 157.628V157.706Z" fill="#FFC8A3"/>
<path d="M65.2586 160.206C65.2586 160.206 65.8737 160.128 66.0275 159.893C66.1813 159.581 65.9506 159.034 65.8737 158.722C65.7968 158.331 65.6431 157.784 65.3355 157.55C65.1048 157.394 64.7973 157.394 64.6435 157.706C64.4897 158.019 64.5666 158.409 64.6435 158.722C64.6435 159.112 64.8741 160.049 65.3355 160.206H65.2586Z" fill="#FFC8A3"/>
<path d="M65.7997 159.737C65.7997 159.737 64.9539 159.737 64.877 159.737C64.877 159.737 64.5694 159.112 64.4926 159.112C64.4926 159.112 64.4926 159.659 64.4926 159.737C63.8005 159.737 64.1081 159.424 63.5699 158.8C62.9547 158.175 63.4161 155.831 63.4161 154.582C63.3392 152.16 64.6463 152.629 65.7997 152.316C66.9531 152.004 69.1829 154.66 69.0291 156.612C69.0291 156.612 69.0291 156.612 69.0291 156.691C68.7216 156.534 68.2602 156.3 68.2602 156.378C68.2602 156.456 68.1064 156.691 68.7984 157.472C68.6447 157.862 68.3371 158.097 67.9526 158.409L67.2606 157.784C67.2606 157.784 67.4144 158.253 67.6451 158.721C67.3375 159.034 66.9531 159.112 66.6455 159.346C66.6455 159.346 66.1841 158.565 66.1073 158.565C66.1073 158.565 66.1842 159.424 66.261 159.581C65.9535 159.737 66.261 159.503 65.9535 159.581L65.7997 159.737Z" fill="#FFC8A3"/>
<path d="M47.4219 123.181C47.4219 123.181 50.2668 146.224 63.0307 155.988C65.9525 155.832 67.029 154.894 67.3366 152.395C63.7227 145.521 65.5681 131.773 61.4929 124.04C57.4177 116.307 47.4219 123.181 47.4219 123.181Z" fill="#93693F"/>
<path opacity="0.15" d="M69.877 89.8274C69.877 89.8274 68.5698 111.464 58.8047 123.181C63.5719 130.68 61.0345 147.864 66.7244 153.722C66.8013 153.801 66.8782 153.879 66.9551 153.957C67.1089 153.488 67.2627 153.019 67.3396 152.395C63.7257 145.599 65.4942 132.007 61.5727 124.274C61.5727 124.274 72.1068 104.903 69.8001 89.9836L69.877 89.8274Z" fill="black"/>
<g opacity="0.42">
<path d="M47.4219 123.181C48.4215 129.274 50.1131 135.288 52.5736 140.99C54.9572 146.692 58.2635 152.082 63.1076 155.988C58.1866 152.238 54.7265 146.849 52.266 141.146C49.8824 135.366 48.3446 129.352 47.4988 123.181H47.4219Z" fill="black"/>
</g>
<path opacity="0.14" d="M90.2491 80.5322L87.8655 79.4386L79.4844 70.4558L90.2491 80.5322Z" fill="black"/>
<g opacity="0.3">
<path d="M91.7878 141.849C94.0946 142.006 96.4782 142.318 98.6311 141.693C98.9387 142.396 99.2462 143.255 98.9387 144.036C96.7088 144.583 94.479 144.193 92.2492 144.036C94.479 144.271 96.7088 144.505 98.8618 144.036C99.0925 143.333 98.8618 142.552 98.5542 141.849H98.6311C96.3244 142.396 94.0177 142.006 91.7109 141.849H91.7878Z" fill="black"/>
</g>
<path d="M79.7904 44.1321C84.7114 38.7424 93.5539 40.3828 96.0913 47.3347C96.3988 48.1158 96.5526 50.2248 96.5526 51.084C96.6295 53.5055 98.5518 63.6599 93.477 67.956C90.632 70.3775 86.0186 71.0024 82.6354 69.4402C78.5602 67.4874 74.7925 61.2385 75.5614 55.6145C76.0228 52.0994 77.5606 46.6317 79.7904 44.2102V44.1321Z" fill="#FFC8A3"/>
<path d="M93.3995 44.6789C93.3995 44.6789 93.784 44.6789 94.0147 44.6789C95.0142 44.9133 95.6294 45.7725 95.9369 46.7098C96.1676 47.3347 96.2445 47.9596 96.3983 48.6626C96.3983 48.8188 96.3983 49.0531 96.3983 49.2094C98.3205 47.0222 99.6277 43.7416 98.5512 40.8515C97.7823 38.8987 95.7831 38.8206 93.7071 38.1957C85.8642 32.806 82.2504 38.8987 78.9441 38.8987C72.9466 40.539 73.2541 46.9441 74.6382 49.9905C76.0222 53.0368 78.6365 54.1304 78.6365 53.7398C78.8672 51.3965 78.7903 49.1312 79.7899 46.9441C80.7125 44.9132 82.5579 43.4291 84.7878 43.8197C85.9411 44.054 86.9407 44.6789 88.0172 44.9913C89.0167 45.2257 90.0163 45.3038 90.939 44.9913C91.7079 44.757 92.5537 44.6008 93.3995 44.6008V44.6789Z" fill="#5E2F10"/>
<path d="M91.8645 36.7897C92.864 37.4927 93.9405 38.0395 95.0939 38.5081C95.0939 38.5081 100.092 40.1485 101.399 36.4772C103.167 40.0703 101.399 43.4291 99.7842 44.757C99.7842 44.757 101.014 44.6008 101.706 43.8197C101.014 46.3193 97.785 48.8188 96.6317 48.975C96.5548 49.0532 96.4779 49.1313 96.401 49.2875C96.5548 49.1313 96.4779 48.8969 96.401 48.7407C96.2472 48.1158 96.1703 47.4128 95.9397 46.7879C95.6321 45.8506 95.017 44.9914 94.0174 44.757C93.7867 44.757 93.6329 44.757 93.4023 44.757C92.5565 44.757 91.7107 44.9914 90.9418 45.1476C90.0191 45.3819 88.9426 45.3819 88.0199 45.1476C86.8666 44.8351 85.9439 44.2103 84.7905 43.9759C82.4838 43.5073 80.7153 45.0695 79.7926 47.1004C79.6388 47.4909 79.485 47.8034 79.4082 48.1939C78.3317 47.8034 76.2556 47.3347 74.0258 48.0377C69.9506 36.3991 83.1758 31.0094 91.9413 36.9459L91.8645 36.7897Z" fill="#42210B"/>
<path opacity="0.22" d="M98.6328 45.1475C103.554 40.8514 101.401 36.399 101.401 36.399C103.092 39.8359 101.555 43.0385 100.017 44.5226C100.017 44.5226 99.4786 45.2256 98.6328 45.1475Z" fill="black"/>
<path opacity="0.22" d="M73.1797 43.4292C73.1797 43.4292 73.4104 44.1322 73.9486 44.5228C75.4095 45.6944 77.4087 45.5382 78.7158 44.2103C80.1768 42.6481 82.2528 40.6172 84.5595 41.7108C88.481 43.6635 91.6335 43.4292 94.786 42.2575C95.9394 41.7889 96.7852 42.2575 97.2465 42.9605C97.9385 43.8198 98.7843 45.4601 98.2461 48.194C97.5541 48.6626 97.0158 48.9751 96.6314 48.9751C96.6314 48.9751 96.6314 49.0532 96.5545 49.1313C96.5545 49.1313 96.5545 49.2094 96.4776 49.2876C96.4776 49.2876 96.4776 49.2875 96.4776 49.2094C96.4776 49.2094 96.4776 49.1313 96.4776 49.0532C96.4776 48.9751 96.4776 48.8189 96.4776 48.7407C96.3238 48.0377 96.17 47.2567 95.9394 46.6318C95.6318 45.7725 95.0167 44.9914 94.094 44.8352C93.8633 44.8352 93.7095 44.8352 93.4789 44.8352C92.6331 44.8352 91.7873 45.0695 91.0184 45.2258C90.0957 45.4601 89.0192 45.4601 88.0965 45.2258C86.9431 44.9133 86.0205 44.2884 84.8671 44.0541C82.5604 43.5854 80.7919 45.1477 79.8692 47.1785C79.7154 47.5691 79.5616 47.8815 79.4847 48.2721C78.4083 47.8815 76.3322 47.4129 74.1024 48.1159C73.7179 46.9442 73.1797 45.2258 73.3335 43.6635L73.1797 43.4292Z" fill="black"/>
<path d="M96.0156 47.0223C96.0156 47.0223 99.9371 45.46 101.014 42.5699C102.09 39.6798 101.475 37.5708 101.475 37.5708" stroke="#2E1708" stroke-width="0.02" stroke-miterlimit="10"/>
<path d="M79.6413 47.2564C79.6413 47.2564 73.3362 46.7097 73.7976 41.5543" stroke="#2E1708" stroke-width="0.02" stroke-miterlimit="10"/>
<path d="M80.5652 45.5382C80.5652 45.5382 75.0291 43.4292 75.1828 38.6644" stroke="#2E1708" stroke-width="0.02" stroke-miterlimit="10"/>
<path d="M77.0234 36.4772C77.0234 36.4772 77.4848 42.8042 82.252 44.2883" stroke="#2E1708" stroke-width="0.02" stroke-miterlimit="10"/>
<path d="M80.3367 34.9149C80.3367 34.9149 80.1829 39.9921 84.335 43.8977" stroke="#2E1708" stroke-width="0.02" stroke-miterlimit="10"/>
<path d="M86.8689 44.6789C86.8689 44.6789 83.6395 36.3209 84.024 34.3682" stroke="#2E1708" stroke-width="0.02" stroke-miterlimit="10"/>
<path d="M89.0201 45.2257C89.0201 45.2257 89.4046 40.8514 87.9437 36.7896C87.4823 35.5399 86.8672 34.6025 86.8672 34.6025" stroke="#2E1708" stroke-width="0.02" stroke-miterlimit="10"/>
<path d="M91.4835 44.9913C91.4835 44.9913 92.2524 41.7888 91.868 39.5235C91.4835 37.2583 90.9453 36.4772 90.9453 36.4772" stroke="#2E1708" stroke-width="0.02" stroke-miterlimit="10"/>
<path d="M94.0156 44.757C94.0156 44.757 95.3228 42.4137 94.477 38.1957" stroke="#2E1708" stroke-width="0.02" stroke-miterlimit="10"/>
<path d="M95.6328 46.163C95.6328 46.163 98.5547 43.8197 97.3244 38.8987" stroke="#2E1708" stroke-width="0.02" stroke-miterlimit="10"/>
<path opacity="0.22" d="M91.8613 36.7897C94.0911 38.1176 96.7054 39.6017 99.3966 38.5862C100.319 38.1957 101.088 37.4927 101.396 36.4772C101.396 36.4772 101.626 41.8669 97.013 40.2266C96.1672 39.9141 95.2445 39.6798 94.3987 39.4455C90.1697 38.3519 87.4016 35.4618 81.5579 35.4618C76.4831 35.4618 74.2533 39.7579 73.4844 41.6326C73.7919 40.9296 73.8688 40.2266 74.2533 39.6017C74.5608 38.9768 75.0222 38.3519 75.4835 37.8051C76.4831 36.7116 77.7134 35.9305 79.0974 35.3056C81.9424 34.1339 85.5562 33.9777 88.4781 35.0712C89.7083 35.5399 90.7848 36.0867 91.8613 36.7116V36.7897Z" fill="black"/>
<path d="M77.4122 53.0369C77.4122 53.0369 76.874 49.7562 74.4904 50.2249C72.1067 50.6936 75.0286 56.3957 74.721 58.1923C74.4135 60.0669 76.6433 60.145 76.9509 58.9734C77.2584 57.8017 77.7198 55.3803 77.4891 53.0369H77.4122Z" fill="#FFC8A3"/>
<path d="M76.7187 53.5837C77.2569 52.6464 76.7187 51.4747 75.5654 51.3185C75.1809 51.3185 74.7964 51.3185 74.2582 51.5528C73.7969 51.709 73.72 53.1932 74.2582 54.2867C74.7964 55.3803 75.4116 56.3176 75.104 57.2549C74.7964 58.2704 76.488 58.4266 76.488 57.4112C76.488 56.3957 75.5654 55.6927 75.5654 54.6773C75.5654 53.9743 76.3343 54.2086 76.7187 53.5056V53.5837Z" fill="#FFB989"/>
<path d="M175.828 243.096C175.828 243.096 176.981 242.081 178.289 241.69C179.519 241.378 180.672 236.769 181.595 235.051C182.518 233.332 185.593 230.286 185.439 228.802C185.286 227.318 184.978 222.631 184.978 222.163C184.978 221.772 192.206 221.303 192.283 221.928C192.36 222.475 191.514 229.896 192.129 231.302C192.744 232.708 193.513 234.036 192.744 234.973C191.975 235.91 187.516 232.864 185.824 237.629C184.132 242.393 181.518 246.924 175.828 243.018V243.096Z" fill="#F9C1A0"/>
<path d="M192.898 232.317C192.59 231.38 189.668 231.77 189.053 231.926C187.362 232.239 185.67 233.176 184.671 234.582C183.594 236.144 183.133 238.019 182.133 239.581C181.441 240.753 180.442 242.081 179.134 242.55C178.75 242.706 177.135 243.096 177.058 242.393C177.597 241.69 178.289 241.69 178.289 241.69C175.828 241.847 175.213 242.784 174.982 243.565C174.982 243.721 174.828 243.877 174.828 244.034C174.521 246.143 176.52 245.908 178.135 246.221C179.749 246.455 182.056 245.83 183.286 245.674C184.671 245.127 187.977 237.004 189.053 236.535H189.822V246.299H190.976L191.668 236.535C191.668 236.535 194.128 236.223 192.898 232.395V232.317Z" fill="#0C1618"/>
<path d="M171.75 127.726C171.75 127.726 171.75 161.626 178.593 185.138C179.9 200.526 184.053 214.508 185.052 225.756C186.129 226.693 191.972 225.912 191.972 225.912C191.972 225.912 195.355 135.615 191.203 130.304C191.203 130.304 177.132 121.008 171.75 127.726Z" fill="#F9C1A0"/>
<path d="M200.277 233.333L199.277 247.393H198.201L198.047 233.411C198.047 233.411 200.123 233.332 200.354 233.411L200.277 233.333Z" fill="#0C1618"/>
<path d="M197.974 226.927C200.357 195.605 195.436 188.262 195.513 188.262C197.512 181.779 200.05 179.826 202.664 170.219C210.122 151.628 207.739 130.694 207.739 130.694C200.357 120.696 184.056 134.834 184.056 134.834C184.056 134.834 184.287 182.482 183.749 186.7C183.211 190.84 190.054 220.444 191.207 228.646C191.361 229.427 191.976 232.551 191.745 233.332C191.438 234.27 190.592 241.456 188.977 242.784C187.747 244.112 187.286 245.752 188.132 247.236C188.977 248.72 189.977 248.799 192.899 247.549C195.744 246.299 199.896 235.988 199.358 233.332C198.512 230.989 198.204 230.599 197.82 226.927H197.974Z" fill="#F9D1BA"/>
<path d="M198.288 228.646C198.288 228.646 198.672 230.911 197.75 233.645C197.673 233.957 197.519 234.27 197.442 234.66C196.981 237.316 197.135 242.003 195.366 243.565C193.444 245.283 188.907 245.205 189.522 242.55C189.522 242.55 190.137 241.534 190.137 241.378C190.137 241.222 186.062 245.752 188.292 247.705C190.291 249.423 194.674 248.486 196.366 246.221C198.057 243.877 198.442 238.41 199.826 235.52C201.594 231.536 198.365 228.724 198.365 228.724L198.288 228.646Z" fill="#0C1618"/>
<path opacity="0.42" d="M188.282 247.705C190.281 249.423 194.664 248.486 196.356 246.221C198.047 243.877 198.432 238.41 199.816 235.519C201.584 231.536 198.355 228.724 198.355 228.724C199.354 231.38 199.585 234.113 198.816 235.754C198.124 237.316 197.201 242.315 196.048 244.815C194.895 247.314 192.127 248.173 189.897 247.627C187.898 247.158 187.744 245.83 187.744 245.283C187.513 246.221 187.513 247.158 188.282 247.783V247.705Z" fill="black"/>
<path d="M182.061 24.0723C182.061 24.0723 168.144 26.9624 171.373 47.8181C173.295 58.1288 173.372 68.6738 170.527 78.9064C169.989 80.9373 169.297 82.8901 169.22 84.9991C169.143 89.9201 172.68 94.3725 177.063 96.6377C180.6 98.5124 184.598 99.4497 188.596 99.5278C193.056 99.5278 198.054 99.0592 201.975 96.5596C203.975 95.2317 204.667 93.1227 205.743 90.9356C208.127 86.0927 208.742 81.0935 207.127 76.0163C205.82 72.0326 204.128 67.9709 204.052 63.7528C204.052 61.019 204.744 58.3632 205.051 55.6293C206.051 47.6619 206.666 37.0388 201.745 30.165C197.054 23.6037 189.442 22.5101 182.138 23.9942L182.061 24.0723Z" fill="#231005"/>
<path opacity="0.32" d="M189.742 99.3714C189.742 99.3714 206.197 97.8873 206.581 84.9209C204.736 74.3758 201.276 66.3304 201.66 63.1278C200.891 66.3304 200.738 75.0007 202.198 84.1398C203.429 92.029 199.43 96.95 189.742 99.4496V99.3714Z" fill="black"/>
<path d="M183.054 53.5202C183.054 53.5202 183.592 59.3004 183.208 61.097C182.747 62.8935 176.211 66.2523 176.211 66.2523C176.211 66.2523 178.825 78.5158 186.822 78.9063C194.819 79.375 201.2 75.86 201.816 71.0952C199.278 68.83 194.819 61.8781 194.434 60.8626C194.05 59.8472 193.896 53.1296 193.896 52.1923C193.896 51.1768 182.977 53.5202 182.977 53.5202H183.054Z" fill="#F9C1A0"/>
<path d="M179.981 50.0052C179.981 50.0052 180.442 68.4394 173.906 86.405C176.905 83.9836 182.595 56.879 181.057 51.6455C179.596 46.4121 180.596 48.443 179.981 50.0052Z" fill="#0D0602"/>
<path d="M187.361 71.2514C186.9 71.4076 186.362 71.5638 185.901 71.642C184.517 71.9544 183.056 71.9544 181.748 71.642C181.133 71.4857 180.211 71.2514 179.749 70.7827C179.211 70.2359 178.903 69.2986 178.75 68.5956C178.596 67.5802 178.903 66.7209 179.211 65.7836C179.442 65.0025 179.826 64.2995 180.441 63.8308C178.135 63.5184 177.135 65.8617 176.212 67.5802C174.905 69.8454 173.752 72.1106 172.214 74.2196C170.984 75.86 169.6 77.4222 168.831 79.2188C167.831 81.4059 168.062 83.4368 168.985 85.5458C170.061 88.0453 171.445 90.3887 172.445 92.9663C175.982 101.793 173.137 111.088 171.368 119.993C171.368 120.383 171.214 120.696 171.138 121.086C168.523 135.303 168.754 150.066 171.522 164.204C172.137 167.172 172.829 170.14 173.598 173.109C173.982 174.593 174.444 175.999 174.905 177.483C175.29 178.654 175.443 179.904 175.751 181.154C175.751 181.388 179.749 181.623 180.364 181.701C182.594 181.857 184.901 181.857 187.131 181.857C189.822 181.857 192.513 181.701 195.204 181.623C196.588 181.623 200.51 182.404 200.971 180.529C201.432 178.576 202.048 176.624 202.663 174.671C206.2 163.423 209.814 152.018 208.506 139.989C207.584 131.866 204.277 124.133 199.972 117.337C197.203 113.041 194.205 108.589 193.743 103.355C193.436 100.309 193.897 97.2625 194.512 94.2942C195.051 91.7947 196.204 90.0762 197.511 87.9672C199.126 85.4677 200.894 83.0462 202.663 80.6248C203.432 79.5312 204.124 78.2814 204.969 77.266C205.815 76.2505 206.892 75.6256 207.43 74.2977C208.122 72.6574 207.814 70.5484 206.815 69.0643C204.354 65.3931 199.972 63.2059 195.589 63.5965C195.127 67.7364 190.898 70.0797 187.438 71.2514H187.361Z" fill="#0C1618"/>
<path d="M188.744 26.5718C182.669 26.5718 176.826 31.0241 176.672 38.9133C176.903 44.1468 177.748 48.1305 179.824 51.0206C182.208 54.3794 186.053 56.1759 188.205 56.1759C190.358 56.1759 194.28 54.5356 196.74 51.333C198.97 48.521 199.893 44.5374 200.354 39.3039C200.739 30.946 194.818 26.6499 188.821 26.4937L188.744 26.5718Z" fill="#F9C1A0"/>
<path d="M176.752 39.7726C176.752 39.7726 174.906 38.9915 174.906 40.8661C174.906 42.7408 175.752 48.6773 178.213 47.5056C179.597 46.8026 176.752 39.7726 176.752 39.7726Z" fill="#F9D1BA"/>
<path d="M178.057 64.2994C178.057 64.2994 173.213 66.5647 171.06 70.0016C168.907 73.4385 163.986 84.2959 163.294 90.0762C162.525 95.8564 163.063 101.09 165.524 101.402C167.984 101.715 182.67 99.6057 185.054 96.6375C186.515 93.9817 184.362 91.1697 184.362 91.1697C184.362 91.1697 177.057 92.8101 172.598 92.1071C171.367 88.0453 184.208 66.9552 178.134 64.2994H178.057Z" fill="#0F181A"/>
<path opacity="0.48" d="M177.906 64.6121C177.906 64.6121 174.754 67.2678 173.831 69.3768C172.908 71.4858 169.141 76.8755 168.141 78.2815C166.757 80.3905 166.219 84.7648 170.525 90.3107C172.293 90.8574 177.829 64.5339 177.829 64.5339L177.906 64.6121Z" fill="black"/>
<path d="M200.207 40.2413C200.207 40.2413 202.052 39.5383 202.052 41.413C202.052 43.2877 199.668 48.9116 198.515 47.8962C197.285 46.8808 200.284 40.2413 200.284 40.2413H200.207Z" fill="#F9D1BA"/>
<path d="M177.446 42.7408C177.446 42.7408 175.293 36.0232 179.675 31.0241C181.059 29.3838 183.059 28.2902 185.135 27.7435C194.362 25.322 202.358 32.5864 199.821 42.3503C202.051 40.8662 202.435 37.7417 202.358 35.0078C202.204 31.2585 201.436 27.3529 199.129 24.3066C196.668 21.104 192.593 20.0104 188.749 20.1667C182.828 20.401 176.446 23.1349 173.217 28.3683C170.91 32.0396 170.756 35.867 170.91 40.1632C171.756 46.8026 173.14 51.1769 173.14 51.1769C173.14 51.1769 176.215 50.0833 175.139 43.5219C175.446 42.1941 176.523 42.4284 176.83 43.1314C177.907 45.631 177.753 43.4438 177.599 42.8189L177.446 42.7408Z" fill="#231005"/>
<path d="M178.293 140.77C180.446 138.74 182.061 136.396 182.753 134.131C183.445 131.788 176.448 90.7792 177.063 85.702C177.447 82.3432 180.984 76.563 183.445 71.9544C182.83 71.9544 182.445 71.4857 181.907 71.3295C181.292 71.1733 180.369 70.939 179.908 70.4703C179.37 69.9235 179.062 68.9862 178.908 68.2051C178.755 67.1896 179.062 66.3304 179.447 65.393C179.677 64.6119 180.062 63.9089 180.677 63.4403C178.293 63.1278 177.294 65.4712 176.294 67.1896C174.987 69.4548 173.68 71.7982 172.065 73.9072C170.835 75.5475 169.374 77.1098 168.528 78.9844C167.452 81.2496 167.682 83.2024 168.605 85.4676C169.682 88.0453 171.066 90.4668 171.988 93.0444C175.448 102.105 172.373 111.479 170.527 120.54C170.527 120.93 170.374 121.243 170.297 121.633C168.989 128.038 168.297 134.6 168.144 141.161C171.681 141.708 176.755 142.333 178.216 140.927L178.293 140.77Z" fill="#162325"/>
<path d="M203.048 116.868C198.357 108.12 193.436 98.8247 198.973 89.2951C200.895 86.0145 204.432 83.1243 205.278 79.2188C205.431 78.672 205.431 78.0471 205.662 77.5784C206.277 76.1724 206.585 74.1415 207.046 72.5793C207.584 70.7046 207.738 70.5484 206.739 69.0643C204.278 65.3931 199.895 63.2059 195.512 63.5965C195.051 67.7364 190.822 70.0797 187.362 71.2514C186.901 71.4076 186.362 71.5638 185.901 71.642C185.132 71.8763 184.133 72.1106 183.287 72.1106C182.21 73.5166 176.213 81.4059 176.29 85.1552C176.29 90.0762 181.749 132.881 182.826 135.068C183.902 137.255 185.67 140.458 187.131 141.552C188.285 142.411 203.432 141.864 209.66 141.239C209.66 140.77 209.66 140.224 209.507 139.755C208.584 131.71 206.969 124.133 203.048 116.868Z" fill="#162325"/>
<path d="M183.521 60.2377C183.521 60.2377 177.677 65.1587 183.521 71.72C185.904 70.9389 194.285 68.908 194.901 60.3158C195.516 60.3158 195.977 62.581 195.9 65.7836C195.208 72.9698 182.675 78.2814 182.675 78.2814C182.675 78.2814 175.832 71.3295 178.677 65.0806C179.292 64.0651 180.138 61.0188 183.521 60.2377Z" fill="#EBEBEB"/>
<path d="M179.828 104.058C179.828 104.058 180.058 86.4052 174.984 77.2661C175.137 76.1726 177.905 74.6885 177.905 74.6885L174.445 74.2198C174.445 74.2198 177.367 63.9091 180.366 60.7847C183.288 57.6602 182.519 61.5658 182.134 61.6439C181.75 61.8001 177.521 66.8773 183.057 77.188C185.133 84.218 179.751 89.9983 179.751 104.136L179.828 104.058Z" fill="#0F181A"/>
<path d="M182.83 135.068C182.83 135.068 182.215 118.665 180.369 107.417C178.524 96.1691 179.908 83.5931 182.753 78.2035C185.598 72.8138 196.132 61.4095 196.132 61.4095L198.131 62.9717L194.44 75.4696L190.749 73.2824L192.595 77.5005C192.595 77.5005 189.904 79.8438 189.75 80C187.674 82.0309 185.751 84.3743 184.214 86.8738C178.37 96.8721 181.907 108.823 182.368 119.681C182.599 124.914 182.291 129.835 182.445 135.068" fill="#0D1517"/>
<path opacity="0.32" d="M187.518 90.8574C189.441 91.4041 191.44 91.7947 193.362 91.4042C195.284 91.0917 197.207 89.8419 197.899 87.8892C197.514 89.0608 196.745 89.9981 195.9 90.8574C195.208 91.5604 194.439 92.1853 193.516 92.4977C191.747 93.0445 189.902 92.4977 188.134 91.951C186.365 91.4042 184.597 91.0136 182.828 91.7166C183.981 90.0763 185.75 90.3887 187.518 90.8574Z" fill="black"/>
<g opacity="0.32">
<path d="M171.062 89.6076C171.216 90.2325 171.601 90.7012 171.985 91.0917C172.293 91.4042 172.677 91.7166 173.139 91.7947C173.446 91.7947 173.677 91.8729 173.984 91.7947C174.599 91.7947 175.215 91.4823 175.83 91.1698C176.368 90.9355 176.906 90.7012 177.444 90.7012C177.829 90.7012 178.136 90.7012 178.521 90.7793C178.213 90.3106 177.752 90.1544 177.291 90.2325C176.983 90.2325 176.599 90.3887 176.214 90.545C175.522 90.7793 174.83 91.0136 174.138 91.0917C173.831 91.0917 173.523 91.0917 173.215 91.0917C172.216 91.0136 171.293 90.4669 171.062 89.4514" fill="black"/>
</g>
<path d="M183.21 58.6755C183.21 58.6755 183.518 59.5348 183.21 60.7064C182.98 61.8781 179.75 66.018 183.287 71.9545C183.287 71.9545 180.288 67.5021 179.75 67.8927C179.212 68.2832 175.829 72.0326 175.291 71.8764C174.752 71.7201 178.136 60.7064 183.133 58.6755H183.21Z" fill="white"/>
<path d="M194.201 57.8945C194.201 57.8945 196.2 57.8945 197.123 62.0344C197.815 63.4404 195.047 72.267 193.893 72.5795C192.74 72.8919 191.587 68.049 191.048 68.3614C190.51 68.6739 184.051 72.3451 183.359 71.8765C183.359 71.8765 189.895 68.2052 190.587 67.2679C192.279 64.9246 193.893 60.8628 194.201 57.8945Z" fill="white"/>
<g style="mix-blend-mode:multiply" opacity="0.15">
<path d="M183.292 60.6284C183.523 59.4567 183.292 58.5975 183.292 58.5975C183.138 58.5975 182.985 58.7537 182.908 58.8319C181.908 60.316 179.755 63.9872 179.986 67.8147C180.678 67.6584 183.446 71.8765 183.446 71.8765C179.909 65.94 183.138 61.8001 183.369 60.6284H183.292Z" fill="#1B75B7"/>
</g>
<path opacity="0.32" d="M188.977 27.1966C188.977 27.1966 192.821 29.5399 193.667 32.0395C194.513 34.5391 197.819 43.6 198.665 45.1622C199.511 46.8025 197.819 52.3484 196.281 54.5356C194.743 56.7227 188.285 63.8308 191.975 69.3767C195.589 73.0479 199.28 72.8917 199.28 72.8917C199.28 72.8917 196.051 70.9389 196.819 67.502C197.588 64.0651 203.355 58.2068 204.432 55.4729C205.431 52.739 206.046 47.1931 205.508 45.1622C204.97 43.1313 196.743 24.9314 189.13 27.1966H188.977Z" fill="black"/>
<g style="mix-blend-mode:multiply" opacity="0.15">
<path d="M194.201 57.8945C193.97 60.8628 192.279 64.9246 190.587 67.2679C189.972 68.2052 183.359 71.8765 183.359 71.8765C184.051 72.3451 190.51 68.6739 191.048 68.3614C195.969 60.9409 194.124 57.8945 194.124 57.8945H194.201Z" fill="#1B75B7"/>
</g>
<path opacity="0.32" d="M182.828 181.623L188.748 148.035C188.748 148.035 184.75 174.827 179.983 177.014C175.215 179.201 175.831 181.076 175.831 181.076L182.905 181.623H182.828Z" fill="black"/>
<path d="M178.366 47.037C178.366 47.74 177.75 48.2868 177.058 48.2868C176.366 48.2868 175.828 47.6619 175.828 46.9589C175.828 46.2559 176.443 45.7091 177.135 45.7091C177.827 45.7091 178.366 46.334 178.366 47.037Z" fill="white"/>
<path d="M200.592 47.4275C200.592 48.1305 199.977 48.6773 199.285 48.6773C198.593 48.6773 198.055 48.0524 198.055 47.3494C198.055 46.6464 198.67 46.0996 199.362 46.0996C200.054 46.0996 200.592 46.7245 200.592 47.4275Z" fill="white"/>
<path d="M183.208 28.4465C182.901 28.9152 184.438 20.401 192.281 20.7135C200.124 21.0259 202.431 25.7126 202.508 30.3993C202.508 34.383 206.66 38.9134 206.737 43.9125C206.89 50.1614 201.585 58.5975 197.817 62.7374C194.588 66.2524 195.28 69.0644 199.201 72.9699C196.741 72.5794 187.283 69.8455 193.204 60.7846C196.203 56.176 201.431 48.8335 198.971 43.0533C197.587 39.8507 196.049 36.8044 195.049 33.4456C194.434 31.2585 192.589 29.1495 190.743 27.9778C188.283 26.4937 185.438 26.7281 183.208 28.4465Z" fill="#0D0602"/>
<path d="M185.213 25.4782C185.213 25.4782 177.14 25.322 175.295 32.5082C173.449 39.6944 176.294 49.8489 175.295 54.5356C177.986 47.7399 176.371 41.6472 176.371 36.8043C176.371 33.5236 179.139 28.3683 183.522 27.5872C187.905 26.8061 185.29 25.4782 185.29 25.4782H185.213Z" fill="#0D0602"/>
<path d="M204.054 83.6711C204.054 83.6711 200.056 83.4367 198.595 84.6084C197.518 85.4676 196.211 87.0299 195.289 88.0453C194.75 88.6702 193.981 89.0608 193.213 89.217C182.678 91.2479 192.136 93.9037 192.136 93.9037C192.136 93.9037 195.365 95.4659 197.518 93.9037C199.748 92.4196 200.056 90.3106 200.748 89.9981C201.44 89.6857 203.823 90.2325 204.439 89.9981C205.054 89.7638 203.516 88.9045 200.978 88.9045C199.979 89.1389 199.825 89.217 199.825 89.217C199.825 89.217 200.133 88.514 201.132 88.2016C201.747 87.7329 205.054 88.3578 205.131 88.3578C205.131 88.3578 205.976 88.0453 205.054 87.4204C204.131 86.8737 201.363 86.7174 200.978 86.8737C200.517 87.0299 199.441 87.6548 199.441 87.6548C199.441 87.6548 200.594 86.5612 201.286 86.405C201.978 86.3269 203.823 86.4831 204.9 86.7956C204.9 86.7956 206.053 86.7956 205.131 86.0926C204.208 85.4677 201.594 85.2333 201.209 85.2333C200.825 85.2333 199.364 86.1707 199.21 86.3269C199.056 86.4831 199.825 84.9209 200.902 84.6865C201.901 84.3741 203.439 84.4522 203.9 84.2179C204.362 83.9835 204.515 83.6711 204.131 83.4368L204.054 83.6711Z" fill="#F9C1A0"/>
<path d="M186.44 89.9982C188.824 89.6077 191.823 89.0609 192.591 92.2634C192.745 93.0445 192.822 94.6068 192.284 95.2317C192.13 95.466 191.823 95.5441 191.592 95.5441C191.361 95.5441 191.131 95.5441 190.823 95.3879C189.439 94.9973 188.132 94.9973 186.748 95.5441C183.98 96.7158 180.904 97.4969 178.059 98.5123C175.214 99.5278 172.523 99.9965 169.524 100.465C168.755 100.621 167.986 100.699 167.218 100.621C165.372 100.465 165.757 98.1218 165.68 98.9029C165.68 96.5596 166.449 94.2943 167.756 92.3415C167.91 92.1072 168.14 91.8729 168.371 91.6385C168.986 91.248 170.139 91.6385 170.754 91.7948C172.446 92.0291 174.215 91.951 175.829 91.7166C179.212 91.1699 182.519 90.545 185.902 89.9982C186.056 89.9982 186.133 89.9982 186.286 89.9982H186.44Z" fill="#F9C1A0"/>
<path d="M172.6 92.1071C171.831 92.029 170.6 91.1698 170.677 90.623L163.219 90.3105C162.45 96.0126 162.988 100.543 165.295 101.559C168.986 103.121 189.823 98.8247 192.207 95.7783C193.668 93.1225 191.745 89.0607 190.746 88.8264C186.978 89.4513 178.136 91.7165 172.6 92.029V92.1071Z" fill="#0F181A"/>
<path opacity="0.48" d="M170.678 90.6231C170.678 90.6231 170.37 92.4978 171.754 93.0446C173.138 93.5132 176.829 93.9819 177.751 94.763C178.674 95.5441 184.518 99.2154 184.518 99.2154L192.822 93.5132C192.822 93.5132 192.899 92.8884 192.745 92.4978C192.591 92.1854 184.133 90.3107 183.441 90.3107C182.749 90.3107 175.675 93.4351 170.754 90.6231H170.678Z" fill="black"/>
<path d="M203.206 101.481C203.129 100.856 202.975 100.231 202.821 99.6059C202.591 98.8248 202.283 98.1218 201.975 97.4969C201.514 96.6377 201.668 96.9501 200.822 96.4814C200.053 96.0909 199.361 96.0909 198.515 95.9347C194.517 95.0754 190.673 94.6849 186.905 93.0446C185.828 92.5759 184.906 91.7948 183.829 91.3261C182.753 90.7793 181.676 90.3107 180.6 89.6858C180.6 89.6858 177.294 88.1235 176.448 88.1235C175.602 88.1235 170.758 90.7793 170.758 90.7793C170.758 90.7793 171.065 92.0291 171.757 92.2634C171.911 92.2634 172.142 92.3415 172.449 92.4196C173.833 92.8883 176.832 93.2008 177.524 93.6694C178.985 94.763 180.369 95.8566 181.753 96.9501C184.829 99.3716 189.212 100.621 192.979 101.715C196.516 102.73 200.053 103.511 203.513 102.184C203.283 101.793 203.36 102.105 203.283 101.637L203.206 101.481Z" fill="#F9D1BA"/>
<path d="M206.05 67.7365C206.05 67.7365 208.587 70.8609 208.356 75.86C208.126 80.8592 208.126 95.1535 205.511 101.246C204.204 103.668 200.59 103.59 198.284 103.355C195.592 103.121 192.594 102.418 189.979 101.637C187.365 100.856 185.443 99.3715 182.982 98.1999C182.829 98.1999 182.06 97.9655 182.06 97.8874C181.829 97.575 181.906 97.3406 182.06 96.9501C182.367 95.1535 183.059 91.3261 184.674 90.3106C185.75 91.1698 190.441 92.9664 194.67 93.6694C199.053 94.3724 198.437 93.6694 198.437 93.6694C198.437 93.6694 199.975 85.8583 198.207 80.1561C196.9 75.86 201.205 65.2369 206.05 67.5802V67.7365Z" fill="#0F181A"/>
<path opacity="0.07" d="M198.281 103.433C200.434 103.668 203.663 103.668 205.201 101.637C196.282 103.746 182.518 96.2471 182.288 96.1689C182.288 96.4814 182.134 96.7939 182.134 97.1063C182.134 97.4969 181.903 97.7312 182.134 98.0436C182.134 98.0436 182.98 98.278 183.056 98.3561C185.44 99.5278 187.439 101.012 190.054 101.793C192.668 102.574 195.667 103.277 198.358 103.511L198.281 103.433Z" fill="black"/>
<path d="M204.048 83.6711C204.048 83.6711 204.355 83.9055 204.201 84.5303C204.125 84.8428 203.356 84.9209 203.125 84.9209C202.51 84.999 201.203 85.0771 200.818 85.3896C199.588 86.1707 199.588 86.6394 199.588 86.6394C199.588 86.6394 204.74 86.1707 205.278 86.6394C205.816 87.108 204.893 87.2642 204.663 87.2642C204.432 87.2642 201.741 86.7174 201.203 86.9518C200.664 87.1861 199.742 88.0454 199.742 88.0454C199.742 88.0454 205.047 87.9673 205.124 88.2016C205.278 88.514 204.97 88.7484 204.74 88.7484C204.509 88.7484 201.741 88.0453 200.126 89.3732C200.588 89.5295 204.278 89.6857 204.278 90.0762C204.278 90.3887 201.356 89.92 200.818 90.3106C200.28 90.7011 198.973 93.5913 197.435 93.9037C197.051 92.6539 197.281 85.702 199.357 84.9209C201.433 84.1398 204.048 83.5149 204.048 83.5149V83.6711Z" fill="black"/>
<path d="M195.201 88.1235C196.123 87.108 197.507 85.4677 198.507 84.6866C200.045 83.5149 203.966 83.7492 203.966 83.7492C204.351 83.9836 204.197 84.3741 203.736 84.5304C203.274 84.7647 201.736 84.7647 200.737 84.999C199.737 85.2333 198.891 86.7956 199.045 86.6394C199.199 86.4831 200.66 85.5458 201.044 85.5458C201.429 85.5458 204.043 85.702 204.966 86.405C205.888 87.0299 204.735 87.108 204.735 87.108C203.659 86.7956 201.813 86.6394 201.121 86.7175C200.429 86.7956 199.276 87.9672 199.276 87.9672C199.276 87.9672 200.352 87.3424 200.814 87.1861C201.275 87.0299 204.043 87.1861 204.889 87.7329C205.812 88.2797 204.966 88.6702 204.966 88.6702C204.889 88.6702 201.583 88.0454 200.967 88.514C199.968 88.8265 199.66 89.5295 199.66 89.5295C199.66 89.5295 199.814 89.3732 200.814 89.217C203.351 89.217 204.889 90.1544 204.274 90.3106C203.659 90.4668 201.275 89.92 200.583 90.3106C199.891 90.623 199.583 92.6539 197.354 94.2161L195.047 88.2797L195.201 88.1235Z" fill="#F9C1A0"/>
<path d="M176.449 123.664C176.449 123.664 172.22 123.43 170.144 122.336L169.836 124.133C169.836 124.133 172.988 125.305 176.295 125.226L176.449 123.742V123.664Z" fill="#505050"/>
<path d="M185.906 123.977C185.906 123.977 192.75 123.195 194.826 122.102L195.21 124.211C195.21 124.211 188.828 125.929 186.06 125.461L185.906 123.977Z" fill="#505050"/>
<path d="M282.165 47.5837C281.242 47.74 280.089 48.3648 280.089 48.3648C280.089 48.3648 273.323 52.661 271.17 60.7064C269.478 67.3459 262.789 77.5004 259.482 90.2325C259.175 90.7793 251.87 93.8256 248.641 96.6376C247.641 97.4968 252.255 106.558 253.331 106.87C254.408 107.105 269.555 104.136 270.862 101.715C272.169 99.2934 273.861 90.2325 273.861 90.2325C273.477 81.9527 273.169 73.6729 272.861 65.3931C272.554 65.1588 272.554 66.018 272.861 65.9399C273.246 65.9399 273.323 65.3931 273.4 65.0026C274.169 58.988 278.474 52.3485 282.165 47.5837Z" fill="#003E68"/>
<path d="M326.3 210.524C326.3 210.524 328.146 212.164 328.223 213.023C328.223 213.805 328.607 219.897 323.994 223.178C322.84 224.272 322.686 225.99 323.148 228.724C323.148 230.911 320.149 236.457 313.306 237.629C312.229 237.785 311.076 237.629 310.153 237.16C308.539 236.301 308.385 235.129 308.231 234.27C307.923 232.161 310.23 230.911 311.999 229.817C313.844 228.802 315.92 228.021 317.073 226.224C318.381 224.193 317.996 221.616 318.227 219.272C318.381 217.085 319.073 214.898 320.457 213.258C321.841 211.539 323.917 210.446 326.07 210.446C325.993 210.68 326.377 210.29 326.3 210.524Z" fill="black"/>
<path d="M322.762 209.04C322.762 209.04 327.068 209.352 327.452 212.086C327.76 213.648 327.145 218.569 322.993 222.709C321.07 225.131 322.531 227.318 322.454 229.192C322.301 231.067 320.225 234.426 314.458 237.004C311.305 238.019 309.152 237.004 308.23 235.051C307.614 233.645 307.691 232.083 308.383 230.677C309.921 227.552 313.996 221.85 312.766 218.491C313.304 216.382 319.763 216.773 322.762 209.04Z" fill="#181818"/>
<path d="M268.632 140.927C268.632 140.927 269.247 168.578 274.321 181.545C276.859 185.919 281.165 190.527 285.624 193.261C288.392 194.98 296.466 204.275 304.001 209.665C308.922 213.18 311.152 218.179 313.305 218.804C315.919 220.053 322.993 211.071 323.378 209.43C323.455 208.181 318.149 202.244 313.151 191.387C310.46 185.606 305.924 180.685 302.464 177.248C296.005 170.297 287.931 152.409 288.239 145.301C288.623 138.193 268.785 141.083 268.555 140.849L268.632 140.927Z" fill="#00375C"/>
<path opacity="0.14" d="M296.164 203.103C296.164 203.103 302.93 209.118 304.084 209.665C305.237 210.211 308.39 213.726 308.697 213.961C308.928 214.195 312.234 219.194 314.387 218.96C315.925 218.647 321.538 214.429 323.537 209.43C323.537 209.43 323.922 208.649 322.691 209.274C321.461 209.899 315.541 214.429 313.926 214.273C312.311 214.117 302.546 207.321 300.47 204.197C298.394 201.072 297.702 198.417 296.164 199.354C294.626 200.291 296.241 203.025 296.241 203.025L296.164 203.103Z" fill="black"/>
<path opacity="0.24" d="M268.478 140.302L297.927 147.254C297.927 147.254 299.311 151.159 298.85 160.455C298.542 163.892 298.696 167.016 298.696 168.734C298.773 170.531 299.234 171 299.234 171.156C299.773 171.625 298.465 172.562 303.463 178.655C303.463 178.655 301.233 176.389 297.466 171.312C294.775 169.359 293.468 162.095 289.392 158.111C289.085 157.955 288.7 157.799 288.393 157.643C282.78 149.597 268.17 145.535 268.401 140.38L268.478 140.302Z" fill="black"/>
<path d="M286.629 244.268C286.552 244.659 286.399 246.768 285.783 247.393C285.168 247.939 280.401 251.689 274.711 250.048C273.02 249.814 271.559 250.829 269.636 253.095C267.868 254.579 261.332 255.829 255.873 250.829C255.027 250.048 254.412 249.033 254.104 247.861C253.72 245.908 254.566 244.971 255.181 244.346C258.18 245.987 262.178 246.768 265.561 246.143C269.406 245.44 272.866 243.253 276.71 242.784C280.17 242.393 283.707 243.487 287.014 244.581C286.783 244.737 287.014 244.424 286.706 244.346L286.629 244.268Z" fill="black"/>
<path d="M286.625 240.206C286.625 240.206 287.855 243.409 285.856 245.518C284.779 246.846 280.397 249.58 274.322 248.955C271.093 248.955 270.247 251.689 268.709 252.86C267.095 254.032 263.019 254.501 257.022 251.454C254.1 249.502 253.485 247.08 254.484 244.971C255.176 243.487 256.56 242.55 258.098 242.159C261.712 241.3 266.326 241.144 268.248 237.785C270.324 236.847 278.397 242.94 286.702 240.284L286.625 240.206Z" fill="#181818"/>
<path d="M315.691 139.521C315.307 126.789 292.24 135.381 288.241 136.787C287.011 137.177 280.168 167.016 279.399 174.124C279.091 178.811 279.399 189.981 276.631 197.87C273.786 205.993 267.635 234.504 267.712 236.691C267.865 238.956 282.167 243.487 286.396 239.816C289.241 237.863 284.781 235.988 289.01 223.256C295.315 206.618 298.929 197.323 299.391 186.309C299.544 182.873 300.313 179.436 301.774 176.311C304.773 169.906 309.31 161.861 313.385 154.44C313.385 154.44 315.922 148.191 315.691 139.443V139.521Z" fill="#003B63"/>
<g style="mix-blend-mode:multiply" opacity="0.24">
<path d="M288.324 137.568C287.94 137.177 289.631 145.457 297.243 151.706C302.933 156.393 306.855 165.141 306.393 167.25C306.393 167.25 310.469 160.064 313.391 154.674C314.467 152.097 314.928 149.285 315.313 146.941C316.543 145.301 312.852 149.128 306.624 145.301C300.396 141.474 289.708 139.13 288.324 137.568Z" fill="black"/>
</g>
<g style="mix-blend-mode:multiply" opacity="0.24">
<path d="M285.705 144.754C285.705 144.754 279.938 163.735 279.246 178.576C278.862 185.841 278.401 193.339 275.863 200.604C274.479 205.291 269.943 224.428 269.02 229.505C268.328 232.942 267.021 236.301 268.097 237.472C269.174 238.644 271.48 239.269 271.48 239.269C271.48 239.269 277.401 207.79 279.554 201.072C281.707 194.355 282.783 175.296 283.475 168.891C284.167 162.486 288.319 148.738 289.242 146.707C290.165 144.676 285.705 144.676 285.705 144.676V144.754Z" fill="black"/>
</g>
<path d="M285.241 48.9117C285.241 48.9117 284.01 51.0207 286.163 53.9109C287.624 54.692 286.471 50.2396 285.241 48.9117Z" fill="#E1A680"/>
<path d="M301.929 37.7417C300.853 42.6627 301.775 48.5211 301.775 48.5211C301.775 48.5211 294.24 55.0824 286.705 56.176C286.705 56.176 286.166 50.1614 285.09 48.6773C284.782 48.2086 302.006 37.7417 302.006 37.7417H301.929Z" fill="#D9A07B"/>
<path d="M316.538 177.17L310.617 173.733L310.694 205.993L316.615 209.43L316.538 177.17Z" fill="#101010"/>
<path d="M359.135 152.878L353.215 149.441L310.617 173.733L316.538 177.17L359.135 152.878Z" fill="#181818"/>
<path d="M316.539 177.17L316.616 209.43L359.213 185.059L359.137 152.878L316.539 177.17Z" fill="black"/>
<path d="M347.609 153.346V153.503L352.3 156.237V156.002L347.609 153.346Z" fill="#736C58"/>
<path d="M352.297 156.002V156.237L354.45 154.987V154.753L352.297 156.002Z" fill="black"/>
<path d="M347.609 153.346L352.3 156.002L354.453 154.752L349.762 152.097L347.609 153.346Z" fill="#807962"/>
<path d="M315.773 171.39V171.546L320.464 174.28V174.046L315.773 171.39Z" fill="#736C58"/>
<path d="M320.461 174.046V174.28L322.614 173.031V172.796L320.461 174.046Z" fill="black"/>
<path d="M315.773 171.39L320.464 174.046L322.617 172.796L317.926 170.14L315.773 171.39Z" fill="#807962"/>
<path d="M326.773 166.86V167.094L328.696 168.187V167.953L326.773 166.86Z" fill="#736C58"/>
<path d="M328.695 167.953V168.188L330.848 166.938V166.703L328.695 167.953Z" fill="black"/>
<path d="M326.773 166.86L328.696 167.953L330.849 166.703L328.926 165.61L326.773 166.86Z" fill="#807962"/>
<path d="M339.375 159.673L341.297 160.767L343.45 159.595L341.451 158.424L339.375 159.673Z" fill="#807962"/>
<path d="M339.375 159.673V159.908L341.297 161.001V160.767L339.375 159.673Z" fill="#736C58"/>
<path d="M341.297 160.767V161.001L343.45 159.752V159.595L341.297 160.767Z" fill="black"/>
<path d="M328.613 147.488C328.92 148.113 326.306 150.378 325.768 152.721C325.229 154.909 325.921 157.877 327.382 161.392C328.151 162.329 329.766 162.017 329.997 161.392C330.227 160.767 330.996 161.236 331.919 162.095C332.765 162.954 338.762 158.424 338.147 154.596C337.532 150.769 336.763 148.035 336.456 147.097C336.225 146.082 328.613 147.566 328.613 147.566V147.488Z" fill="#E8AC80"/>
<path d="M337.68 151.628H337.987C342.139 153.971 341.832 158.892 341.678 159.752L341.14 159.986L340.678 159.439C340.678 159.439 341.294 155.299 338.218 152.956H338.064C338.064 152.956 337.987 152.487 337.91 152.175L337.757 151.55L337.68 151.628Z" fill="black"/>
<path d="M331.838 156.549L331.454 156.627C327.071 159.83 327.763 165.922 328.07 166.86L328.686 167.172L329.147 166.469C329.147 166.469 328.07 161.392 331.377 158.346H331.531C331.531 158.346 331.531 157.721 331.607 157.408V156.627L331.838 156.549Z" fill="black"/>
<path d="M336.526 147.332C336.526 147.332 338.833 154.752 337.987 156.549C337.218 158.267 335.527 161.001 332.297 162.173C331.759 162.329 329.376 160.22 328.914 159.127C328.453 158.033 327.299 155.065 327.53 153.346C327.761 151.55 329.991 147.566 329.991 147.566L336.526 147.41V147.332Z" fill="#E1A680"/>
<path d="M303.694 47.6617C303.694 47.6617 305.462 51.6454 308.691 55.0823C313.151 59.769 319.764 65.1587 322.147 67.8926C321.609 70.6265 310.844 91.4041 307.923 104.214C305.385 116.634 316.15 131.085 315.612 135.771C315.073 140.536 277.166 147.254 266.94 140.302C265.248 138.74 273.475 126.085 273.937 112.025C273.552 84.6084 276.244 60.3939 281.857 49.0677C281.857 49.4583 284.702 53.2077 286.47 53.9888C288.239 54.7699 301.079 50.7862 303.617 47.6617H303.694Z" fill="#DBDBDB"/>
<path d="M287.859 61.097C287.859 61.097 286.245 77.3441 286.937 87.9673C286.937 88.9046 282.092 105.308 282.092 105.308C282.092 105.308 277.633 96.0127 277.633 91.6385C278.556 92.3415 279.401 83.4368 284.092 60.7845C284.63 52.1923 287.859 61.1751 287.859 61.1751V61.097Z" fill="#B68B60"/>
<path d="M290.011 55.473C290.011 55.473 285.321 55.3168 283.706 54.3795C282.092 53.4421 283.168 59.4567 284.091 60.7846C284.091 60.7846 287.166 60.9408 287.858 61.1751C288.55 61.3314 289.857 58.0507 290.011 55.5511V55.473Z" fill="#A37A51"/>
<path d="M304.542 48.9897C304.542 48.9897 306.234 50.0052 307.694 53.4421C308.925 55.2386 325.149 66.9553 326.533 69.6892C327.994 72.4231 313.231 100.543 310.693 109.135C309.078 115.541 314.076 122.961 315.691 128.819C315.691 128.819 318.382 136.631 317.152 147.879C317.152 147.879 305.003 156.705 288.164 149.05C287.549 148.816 287.011 148.425 286.626 147.879C282.167 141.63 279.706 118.977 280.783 110.073C282.013 101.715 286.703 84.9209 296.084 69.7673C303.235 63.0498 304.465 49.0678 304.465 49.0678L304.542 48.9897Z" fill="#003E68"/>
<g style="mix-blend-mode:multiply" opacity="0.09">
<path d="M259.414 90.1545C259.414 90.1545 265.719 91.4042 270.102 86.7175C274.485 82.0309 278.022 51.0988 281.405 48.6774C284.788 46.2559 280.021 48.2087 280.021 48.2087C280.021 48.2087 273.485 51.958 271.101 60.5503C270.102 63.9091 265.565 73.4386 264.489 76.2506C263.412 78.9064 261.567 81.9528 259.414 89.9982V90.1545Z" fill="black"/>
</g>
<path d="M282.01 51.8018C282.01 51.8018 273.628 80.0781 282.086 103.433C282.394 104.293 280.087 109.292 281.471 118.587C282.24 124.211 284.009 137.177 282.625 144.989C282.471 145.926 281.702 146.707 280.702 146.863C275.397 147.566 270.399 144.598 266.247 140.38C265.247 139.365 264.94 137.959 265.324 136.631C267.477 129.991 274.397 120.774 273.628 110.385C273.628 101.871 268.4 81.7185 273.398 62.7374C273.936 60.2379 274.244 55.4731 281.241 48.2869C282.086 49.2242 283.163 46.8027 282.086 51.7238L282.01 51.8018Z" fill="#00385E"/>
<path d="M303.62 48.2086C303.62 48.2086 306.388 55.1605 295.393 70.0798C285.859 85.9364 283.09 98.5904 282.398 103.199C282.398 103.199 294.701 85.5458 300.314 79.9218C300.314 79.9218 297.777 77.0317 297.238 76.0943C296.7 75.157 300.083 76.0943 300.852 76.2506C301.621 76.4068 307.542 65.7056 307.696 53.4421C307.696 51.255 304.927 48.3648 303.697 48.2086H303.62Z" fill="#00385E"/>
<g style="mix-blend-mode:multiply" opacity="0.24">
<path d="M315.92 96.5596C315.92 96.5596 310.922 107.729 310.537 110.073C310.153 112.65 310.614 117.884 312.767 121.165C314.382 124.523 315.535 127.96 315.997 129.366C318.149 135.615 318.38 144.52 317.073 148.504C316.919 148.894 311.844 150.847 310.768 151.081C309.691 151.237 315.228 136.553 310.845 127.413C306.539 118.274 303.463 113.353 305.847 106.636C308.231 99.9183 312.306 90.9355 312.69 88.0454C313.075 85.1553 315.381 94.763 315.92 96.6377V96.5596Z" fill="black"/>
</g>
<path d="M337.533 146.16C337.533 146.16 337.687 147.254 337.225 147.332C336.764 147.41 327.691 148.113 327.229 147.722C326.537 147.332 326.768 146.863 326.922 146.629C327.076 146.395 335.918 145.848 337.533 146.16Z" fill="#DBDBDB"/>
<path d="M282.552 48.9897C282.552 48.9897 272.863 77.969 282.09 103.668C282.09 103.902 274.171 85.7801 272.94 75.0008C272.94 74.6102 274.94 72.2669 274.94 72.2669L272.633 70.7828C272.633 70.7828 279.707 53.9108 282.629 48.9897H282.552Z" fill="#003152"/>
<path d="M286.551 53.9889C286.551 53.9889 283.168 60.0816 281.477 60.8627C281.477 60.8627 278.555 55.8636 281.938 49.0679C281.938 48.6773 284.399 47.5838 285.091 49.0679C284.399 52.2704 286.551 54.067 286.551 54.067V53.9889Z" fill="#EDEDED"/>
<path d="M276.937 23.2912C276.937 23.2912 274.092 35.3203 280.627 47.3495C281.012 48.0525 281.781 48.5992 282.55 48.7555C292.545 50.7082 300.773 42.6628 302.849 35.3203C305.002 28.759 300.081 30.3212 299.004 33.6019C297.928 36.8826 300.158 23.838 295.852 19.4637C291.546 15.0895 279.705 15.0895 277.013 23.2912H276.937Z" fill="#E8AC80"/>
<path d="M302.391 30.868C302.391 30.868 299.931 30.5555 299.008 33.6799C298.854 34.0705 297.778 35.7109 297.547 33.5237C297.394 31.3366 296.317 28.0559 295.933 24.7753C295.548 21.4946 294.472 19.8543 292.319 20.9478C290.166 22.0414 282.63 26.8062 276.864 23.2911C273.25 20.9478 277.402 9.38733 287.475 8.29377C295.394 7.59077 310.311 15.5581 303.16 31.571C303.007 31.1023 302.699 30.8679 302.391 30.7898V30.868Z" fill="#71411D"/>
<path d="M301.465 46.5683C301.465 46.5683 297.236 53.0516 286.625 53.9889C286.625 53.9889 288.24 58.9099 290.777 61.6438C290.777 61.6438 301.157 59.5348 303.925 48.9898C303.925 49.146 304.31 45.1623 301.465 44.3031V46.5683Z" fill="#E6E6E6"/>
<path d="M338.067 112.416C339.297 105.386 334.376 90.2325 330.608 79.9999C329.301 76.3287 327.917 72.8137 326.533 69.6892C323.15 67.3459 319.92 68.6738 317.076 70.0017C317.076 70.0017 316.999 70.0798 316.922 70.1579C314.692 71.3296 312.539 73.5948 311.078 77.7347C311.078 77.969 311.078 78.2815 311.078 78.5158C310.54 81.484 311.155 83.8274 311.232 83.6711C311.232 83.2806 311.309 82.89 311.386 82.4994C313.462 94.0599 323.534 108.354 323.842 111.557C323.304 117.65 326.226 143.036 326.533 146.473C326.533 146.473 326.533 146.551 326.533 146.629C326.533 146.785 326.533 146.941 326.533 146.941C326.533 146.941 326.533 146.941 326.533 147.019C332.454 147.097 335.837 146.707 337.221 146.707C337.221 146.707 337.221 146.707 337.298 146.707H337.375C339.066 144.52 336.452 123.43 337.759 112.494L338.067 112.416Z" fill="#003E68"/>
<g style="mix-blend-mode:multiply" opacity="0.24">
<path d="M326.532 69.6892C326.532 69.6892 340.065 101.324 338.066 112.416C336.681 123.352 339.373 144.442 337.681 146.629C336.451 146.629 332.914 147.019 326.763 146.941C325.994 145.457 329.069 146.16 331.991 145.926C334.144 145.692 335.528 141.395 335.451 139.13C335.144 127.101 337.374 114.056 336.989 109.135C334.682 94.1381 327.07 71.7201 323.841 71.3296C323.149 71.3296 312.153 68.9862 311.308 83.6712C311.154 83.9055 308.77 75.4695 317.074 70.0017C319.919 68.5957 323.149 67.3459 326.532 69.6892Z" fill="black"/>
</g>
<path d="M295.776 23.2911L304.926 25.5563C304.926 25.5563 307.54 14.2302 293.623 8.91864C285.626 7.12208 283.012 9.3092 280.397 11.3401C278.014 13.371 274.708 17.4328 276.015 22.1976C276.937 24.3847 283.319 25.7126 288.855 22.7443C293.084 20.9478 294.315 18.6044 295.776 23.2911Z" fill="#5E3618"/>
<path d="M291.625 129.835C291.625 129.835 301.313 129.132 303.159 128.585L303.005 129.835C303.005 129.835 293.317 130.538 291.702 129.835H291.625Z" fill="#003A61"/>
<path d="M278.936 128.82C278.936 128.82 273.092 126.086 272.323 125.773L272.016 126.242C272.016 126.242 277.475 128.585 278.859 128.82H278.936Z" fill="#003E68"/>
<path d="M250.794 75.3914L252.025 79.2969L241.875 77.1879L242.259 73.2823L250.794 75.3914Z" fill="#2D8080"/>
<path d="M252.948 112.416L235.57 74.0634L256.408 78.2032L273.324 115.619L252.948 112.416Z" fill="#303B3B"/>
<path d="M253.025 111.088L237.031 75.6257L256.254 79.4532L271.863 114.056L253.025 111.088Z" fill="#414F4F"/>
<path d="M252.411 91.6385C252.411 91.6385 244.799 93.1226 243.723 92.2634C243.723 92.4977 243.108 90.7793 243.108 90.7793C243.108 90.7793 241.954 96.7157 245.799 100.231C248.029 101.637 252.95 100.465 253.795 100.231C254.641 99.9964 254.872 91.4042 252.411 91.6385Z" fill="#E8AC80"/>
<path d="M253.79 100.231C253.79 100.231 254.713 99.9964 254.175 94.2943C253.56 91.8728 253.329 91.4042 251.56 91.7947C249.869 91.9509 246.255 92.9664 243.718 92.2634C243.487 92.2634 243.102 96.3252 245.794 100.231C245.794 100.153 248.792 101.949 253.79 100.231Z" fill="#E1A680"/>
<path d="M387.194 221.303C387.194 221.303 385.58 220.6 384.811 222.006C384.042 223.412 391.885 228.411 393.269 229.661C396.114 232.395 394.499 225.443 394.499 225.443" fill="#E8AC80"/>
<path d="M413.8 179.514C408.34 184.435 405.188 189.668 402.573 194.823C398.344 203.025 392.655 212.242 387.195 221.225C387.503 221.616 388.426 226.927 393.885 225.912C393.885 225.912 416.029 204.431 422.334 193.105C426.256 185.997 413.876 179.436 413.876 179.436L413.8 179.514Z" fill="#E8AC80"/>
<g style="mix-blend-mode:multiply" opacity="0.05">
<path d="M422.26 192.793C422.26 192.793 416.647 204.197 405.421 208.337C396.732 212.164 388.505 221.459 388.813 222.865C389.12 224.271 391.658 224.896 393.887 225.912C396.117 226.927 390.274 227.943 388.659 225.131C387.044 222.241 385.737 224.35 385.66 222.241C385.583 220.21 386.66 221.694 387.506 220.678C388.351 219.663 401.423 197.636 406.19 188.34C409.496 183.107 416.263 178.03 419.492 184.747C422.722 191.543 422.414 192.715 422.414 192.715L422.26 192.793Z" fill="black"/>
</g>
<path d="M440.023 193.417C440.023 193.417 435.794 239.737 434.41 244.815C434.41 245.596 425.798 245.674 425.568 243.409C423.953 229.895 426.26 226.068 423.338 214.351C420.954 202.947 421.954 195.058 422.723 192.402C423.492 189.746 437.024 196.307 440.1 193.417H440.023Z" fill="#E8AC80"/>
<path d="M433.181 242.237C433.181 242.237 435.027 245.44 435.873 246.377C436.718 247.314 428.799 249.111 426.953 246.846C425.108 244.502 423.339 244.815 427.415 242.393" fill="#E8AC80"/>
<g style="mix-blend-mode:multiply" opacity="0.05">
<path d="M422.724 192.402C422.724 192.402 419.879 203.26 424.031 216.773C425.262 222.787 425.031 231.458 424.954 233.332C424.723 235.285 425.492 242.55 425.569 243.331C425.646 244.112 425.185 244.112 425.185 244.112C425.185 244.112 430.106 249.033 433.028 246.143C435.95 243.253 431.49 246.065 430.336 239.894C429.106 233.723 429.644 219.429 428.184 215.601C426.8 211.774 431.644 198.729 439.563 197.089C439.794 196.776 440.178 194.667 440.178 194.355C440.178 194.042 422.724 192.324 422.724 192.324V192.402Z" fill="black"/>
</g>
<path d="M415.878 183.966C415.801 184.591 407.574 190.137 407.574 190.137C407.574 190.137 404.267 189.981 404.575 187.715C405.805 177.483 404.575 166.391 404.575 164.751C404.575 163.11 416.493 179.904 415.878 184.044V183.966Z" fill="#623E91"/>
<path d="M414.803 185.294C414.803 185.294 408.421 189.824 408.037 189.902C407.652 189.981 404.807 190.449 404.5 187.637C404.269 185.684 409.421 181.154 409.036 171.859C408.652 162.564 415.111 184.278 414.803 185.294Z" fill="#623E91"/>
<path d="M400.119 137.88C400.119 137.88 392.891 150.613 417.881 190.527C421.11 195.448 438.872 193.808 440.641 194.589C442.64 193.808 451.713 151.55 450.944 139.677C449.329 136.396 446.946 137.021 446.946 137.021C446.946 137.021 436.104 141.552 420.495 140.302C414.421 139.833 406.962 143.036 400.119 137.88Z" fill="#623E91"/>
<path d="M399.503 139.989C399.503 139.989 395.582 154.596 414.727 185.528C414.958 185.528 407.192 158.658 422.109 149.675C418.879 148.894 399.503 140.068 399.503 140.068V139.989Z" fill="#623E91"/>
<path d="M444.482 138.505C445.097 139.521 434.178 149.128 421.491 144.051C412.418 140.38 405.191 135.225 406.805 138.74C408.42 142.255 391.273 166 445.097 141.161" fill="#623E91"/>
<path d="M450.943 139.755C450.943 139.755 450.712 154.127 447.944 165.766C445.945 174.358 443.485 190.137 440.717 194.667C440.332 195.058 432.028 194.902 428.645 194.433C425.185 194.042 419.802 193.027 417.957 190.527C416.111 188.028 446.022 185.216 451.02 139.755H450.943Z" fill="#623E91"/>
<path d="M436.333 2.20105C445.406 5.95039 452.018 15.6362 449.25 30.4773C446.559 41.5691 439.946 47.7399 432.719 47.818C434.718 26.4937 439.101 45.5528 441.33 24.0722C441.484 22.9786 440.485 22.0413 439.408 22.2756C437.563 22.51 435.871 22.5881 433.949 22.1975" fill="#1C0404"/>
<path d="M433.947 47.9743L436.331 52.4266C436.331 52.4266 441.79 80.2342 424.259 55.4729C421.337 54.1451 423.72 47.4275 423.874 47.2713C424.028 47.115 433.87 47.8961 433.87 47.8961L433.947 47.9743Z" fill="#E8AC80"/>
<path d="M441.483 19.8542C441.483 19.8542 442.713 32.9768 432.794 47.818C424.49 50.2394 418.031 46.7244 415.11 40.3193C415.11 40.3193 414.187 39.1477 411.265 36.57C408.343 33.9923 407.19 28.134 410.189 24.3065C410.573 17.0422 409.343 9.38724 414.802 7.6688C420.261 5.95035 435.332 7.66879 441.406 19.776L441.483 19.8542Z" fill="#E8AC80"/>
<path d="M441.489 20.7135C441.489 20.7135 443.104 32.4302 432.877 47.9744C431.801 48.5992 430.263 48.9117 425.496 48.2868C425.265 48.3649 436.875 44.7718 441.489 20.7135Z" fill="#E1A680"/>
<path d="M445.251 11.4963C445.251 11.4963 446.327 22.1194 436.024 21.9632C434.486 21.9632 433.025 21.5726 431.641 20.9478C429.257 19.8542 428.181 19.0731 425.874 15.48C425.49 14.9332 424.951 14.5426 424.336 14.3864C423.567 14.3083 422.645 14.6989 422.26 17.1984C421.645 20.401 420.876 22.9786 419.877 24.8533C418.569 33.1331 418.262 27.7434 417.416 24.5409C416.263 21.2602 411.957 22.2756 411.111 25.2439C409.266 28.134 403.038 7.98128 415.263 4.07571C422.798 2.12293 437.331 -0.142292 445.174 11.3401L445.251 11.4963Z" fill="#1C0404"/>
<path d="M444.635 79.6875C444.635 79.6875 456.477 84.5304 458.553 86.3269C460.552 88.1235 459.091 98.4342 455.477 99.2153C446.942 97.8874 444.328 95.8565 444.328 95.8565C444.328 95.8565 443.79 83.8274 444.712 79.6875H444.635Z" fill="white"/>
<path d="M463.627 89.6075L476.467 95.6221C476.467 95.6221 474.237 102.496 473.392 103.043C472.469 103.589 457.398 99.762 457.398 99.762C457.398 99.762 459.09 91.326 463.703 89.6075H463.627Z" fill="#E8AC80"/>
<path d="M435.49 49.9271C435.49 49.9271 436.336 62.6593 433.645 63.909C431.877 64.6902 427.494 55.0825 424.495 53.1297L416.883 142.88C416.883 142.88 434.414 152.253 444.948 137.802C451.868 128.351 440.565 97.575 443.41 87.03C446.255 76.485 443.103 57.3477 435.567 50.0052L435.49 49.9271Z" fill="#E4E4E4"/>
<path d="M417.875 45.0841C417.875 45.0841 413.184 44.7716 412.492 47.0368C410.262 49.3021 398.652 47.6617 394.884 60.1595C393.346 71.9543 408.417 95.9345 403.65 108.042C400.19 116.634 392.962 131.006 396.114 136.787C399.267 142.567 416.875 152.721 422.18 151.159C423.718 147.019 450.169 93.3568 417.798 45.1622L417.875 45.0841Z" fill="white"/>
<g style="mix-blend-mode:multiply" opacity="0.14">
<path d="M422.262 151.159C422.262 151.159 434.026 125.539 434.026 97.5749C434.026 97.4187 424.876 55.2386 417.956 45.8652C417.956 46.0215 417.11 45.3966 416.495 45.2404C416.341 45.2404 413.496 45.2403 412.497 47.115C412.42 48.3648 442.254 101.168 418.879 132.256C412.266 137.334 398.503 136.787 395.658 134.834C395.658 134.834 395.504 136.631 398.195 139.443C399.579 140.692 413.343 152.409 422.339 151.237L422.262 151.159Z" fill="black"/>
</g>
<g style="mix-blend-mode:multiply" opacity="0.14">
<path d="M397.734 75.157C397.734 75.157 408.268 103.355 403.424 109.135C403.117 109.682 412.421 100.856 405.193 76.2505C397.888 51.6455 397.734 75.157 397.734 75.157Z" fill="black"/>
</g>
<g style="mix-blend-mode:multiply" opacity="0.09">
<path d="M436.33 52.5047C436.33 52.5047 449.863 67.8926 440.175 86.3269C438.791 94.2942 434.331 92.8882 431.101 92.4977C427.872 92.1071 425.258 56.3322 425.258 56.3322C425.258 56.3322 429.41 59.066 429.794 59.9253C430.179 60.8626 432.409 64.0652 433.562 63.909C434.485 63.5184 435.715 59.2223 435.33 52.4266C435.254 50.8644 436.253 52.5047 436.253 52.5047H436.33Z" fill="black"/>
</g>
<path d="M436.337 2.20105C429.417 -0.689065 419.651 -1.31395 413.654 3.91951C398.122 17.4328 404.888 38.9134 410.04 43.8344C413.885 47.5056 424.88 54.6137 424.572 54.4575C421.881 51.8798 417.499 38.2885 419.959 27.1967C422.343 16.1049 430.877 21.0259 430.877 21.0259C430.877 21.0259 431.416 21.3383 431.416 21.4164C432.877 22.0413 434.491 22.1194 436.029 21.6508C438.259 20.8697 442.565 18.9169 441.95 28.7589C446.486 28.5246 447.178 10.0122 437.106 3.06028" fill="#1C0404"/>
<path d="M494.002 80.5466L465.783 99.059L453.711 125.461L481.93 106.948L494.002 80.5466Z" fill="#3E1772"/>
<path d="M490.618 84.296L467.166 99.6839L457.094 121.711L480.545 106.245L490.618 84.296Z" fill="#623E91"/>
<path d="M487.852 93.8257L485.007 93.9819C485.007 93.9819 484.469 94.2162 484.315 94.4506L481.624 101.09C481.393 101.559 481.777 102.105 482.239 102.184L484.469 102.418C484.469 102.418 485.161 102.262 485.238 101.949L488.544 94.9192C488.774 94.3724 488.39 93.7476 487.775 93.7476L487.852 93.8257Z" fill="#E8AC80"/>
<g style="mix-blend-mode:multiply" opacity="0.1">
<path d="M456.864 85.3896C456.864 85.3896 449.636 81.406 446.714 87.3424C445.1 92.0291 445.099 96.4033 445.099 96.4033L444.484 96.0909C444.484 96.0909 444.484 81.406 444.792 79.7656C444.792 79.7656 452.481 82.9682 456.941 85.2334C457.094 85.3115 456.941 85.3896 456.941 85.3896H456.864Z" fill="black"/>
</g>
<path d="M432.646 244.893C432.646 244.893 435.03 240.05 437.336 240.987C439.259 242.081 440.104 247.158 443.795 250.126C447.486 253.094 453.791 258.328 451.023 260.749C446.871 263.171 440.873 263.561 437.644 260.593C435.414 258.016 432.031 255.907 430.262 255.36C428.494 254.813 423.65 253.485 421.574 249.189C421.42 247.314 421.574 241.143 423.957 243.018C426.341 244.893 429.263 248.017 432.646 244.893Z" fill="white"/>
<path d="M433.258 47.3494C433.258 47.3494 442.408 49.5365 446.483 62.3467C454.172 86.0926 432.951 88.7484 453.404 132.256C454.326 137.724 451.174 145.691 445.253 146.941C443.023 146.316 437.641 97.4968 441.101 80.5467C443.331 70.0016 442.024 57.582 432.643 49.224C432.643 49.224 431.644 48.3648 431.336 48.2867C431.336 48.2867 432.566 48.6773 433.181 47.3494H433.258Z" fill="white"/>
<path d="M417.108 69.3769C417.108 69.3769 408.65 61.019 404.651 57.1134C402.652 55.1606 399.577 54.692 397.27 56.2542C396.962 56.4885 396.655 56.7229 396.347 57.0353C395.04 58.3632 394.04 61.8001 395.424 65.6275C395.424 65.4713 394.656 63.6748 395.348 61.4876C396.424 58.1289 400.422 56.7228 403.498 58.3632C408.804 61.1752 415.109 67.5803 417.108 69.3769Z" fill="#8CB4C4"/>
<g style="mix-blend-mode:multiply" opacity="0.1">
<path d="M462.933 90.545C463.702 89.7638 463.548 88.4359 462.549 87.9673C461.703 87.5767 460.703 87.0299 459.934 86.3269C458.089 84.6085 455.552 83.9055 454.244 86.0926C452.937 88.3578 449.862 95.5441 450.707 97.8874C451.553 100.153 457.397 100.153 458.627 100.075C459.704 100.075 458.012 95.2316 462.856 90.4668L462.933 90.545Z" fill="black"/>
</g>
<path d="M445.408 9.23106C445.408 9.23106 442.563 18.292 432.721 17.9014C423.648 17.4328 416.189 23.2911 416.727 44.3811C416.42 46.5683 406.347 43.3657 404.194 29.6181C402.195 17.4328 410.499 4.46627 416.574 2.12294C422.648 -0.220402 435.027 -3.26676 445.408 9.30916V9.23106Z" fill="#290606"/>
<path d="M460.789 86.9518C460.789 86.9518 456.406 87.4986 454.099 92.4977C453.33 94.138 453.176 96.8719 453.1 97.1843C453.1 97.4187 452.331 94.6848 453.1 91.9509C453.868 89.217 455.483 86.2488 456.713 84.7646C456.713 84.7646 458.251 84.7646 460.174 86.5612C460.327 86.7174 460.712 86.9518 460.712 86.9518H460.789Z" fill="#98C3D5"/>
<g style="mix-blend-mode:multiply" opacity="0.14">
<path d="M431.414 48.3647C431.414 48.3647 446.331 57.9724 440.872 81.9526C438.796 99.762 441.948 141.786 445.331 146.941C445.485 146.785 451.098 146.551 453.482 137.255C453.943 133.506 453.482 132.256 453.482 132.256C453.482 132.256 437.104 118.04 443.178 84.3741C445.331 70.7827 447.254 60.9407 431.414 48.3647Z" fill="black"/>
</g>
<g style="mix-blend-mode:multiply" opacity="0.18">
<path d="M432.641 244.893C432.641 244.893 434.178 241.065 437.023 240.831C438.715 241.456 439.945 245.596 440.868 246.689C441.637 247.939 442.329 249.111 444.636 250.829C446.096 252.001 450.326 255.36 451.402 258.094C451.863 259.422 452.017 260.281 450.556 261.062C449.172 261.765 443.713 264.343 438.715 261.374C436.562 259.5 442.021 255.125 438.1 250.517C435.178 246.767 434.178 246.065 432.718 244.971L432.641 244.893Z" fill="black"/>
</g>
<g style="mix-blend-mode:multiply" opacity="0.18">
<path d="M421.569 249.189C421.569 249.189 421.185 243.018 423.107 242.706C423.953 242.549 424.645 243.955 424.875 244.268C425.106 244.58 425.183 251.298 428.336 252.938C431.488 254.579 434.871 256.375 436.563 258.094C438.254 259.812 438.101 260.906 437.87 260.749C437.639 260.593 436.64 259.109 433.333 256.922C431.334 255.906 431.257 255.594 429.643 255.203C428.259 254.813 423.414 253.251 421.492 249.189H421.569Z" fill="black"/>
</g>
<path d="M391.965 226.146C391.965 226.146 393.887 226.615 395.81 225.287C397.732 223.959 399.885 225.053 399.5 228.49C399.5 231.926 399.347 237.394 401.115 243.409C402.884 249.423 400.5 251.298 397.963 249.736C395.425 248.252 391.119 244.815 388.428 237.55C388.351 234.66 384.43 228.646 383.2 227.63C381.892 226.537 381.124 224.428 384.199 220.835C384.199 220.835 384.661 220.444 385.045 221.147C385.429 221.85 388.274 226.302 392.042 226.224L391.965 226.146Z" fill="white"/>
<g style="mix-blend-mode:multiply" opacity="0.18">
<path d="M394.502 225.912C394.502 225.912 395.886 224.818 396.809 224.74C397.655 224.584 399.808 224.74 399.5 228.49C399.5 230.989 399.347 235.285 400.423 240.753C401.653 244.737 402.96 249.892 399.808 250.283C398.654 250.517 394.272 248.017 390.735 242.393C390.196 240.284 394.426 240.363 394.964 237.004C395.502 233.645 392.888 227.162 394.579 225.99L394.502 225.912Z" fill="black"/>
</g>
<g style="mix-blend-mode:multiply" opacity="0.18">
<path d="M385.66 222.319C385.66 222.319 385.66 221.46 385.121 220.913C384.737 220.6 384.199 220.6 383.814 220.991C382.891 221.928 381.277 223.881 382.276 226.224C383.199 228.021 384.045 228.177 384.275 228.724C384.506 229.271 387.505 233.098 388.428 237.629C389.273 240.128 390.119 241.3 390.273 240.987C390.427 240.675 389.427 236.223 387.736 232.786C386.044 229.349 383.737 226.537 384.275 225.131C384.814 223.725 385.736 224.272 385.736 222.319H385.66Z" fill="black"/>
</g>
<path d="M394.195 226.771C394.195 226.771 395.502 225.912 396.271 225.678C397.04 225.443 399.039 225.678 398.732 229.036" fill="white"/>
<path d="M423.881 19.9323C423.881 19.9323 419.421 24.4628 412.04 26.6499C406.427 29.54 406.965 38.679 407.426 40.2412C407.426 40.2412 404.428 34.5391 403.812 27.5091C404.351 21.6508 419.114 23.5254 423.112 19.6199" fill="#1C0404"/>
<path d="M488.002 93.7476C488.002 93.7476 489.002 94.1381 488.617 94.9192C488.233 95.7003 485.234 102.262 485.234 102.262C485.234 102.262 484.696 102.574 484.081 102.34C483.465 102.34 482.004 102.184 481.928 102.105C481.928 102.027 481.389 101.715 481.62 101.09C481.62 100.856 483.235 102.184 484.465 99.9184C485.695 97.6531 486.31 93.7475 487.848 93.8257" fill="#E1A680"/>
<path d="M414.73 26.3374L411.347 24.3846C410.27 23.7597 408.886 24.1503 408.348 25.3219L405.734 30.6335C405.195 31.7271 405.58 33.055 406.656 33.6018L429.109 45.6309C430.185 46.2558 431.569 45.7871 432.107 44.6154L434.106 40.2412C434.568 39.2258 434.183 37.976 433.261 37.4292L414.807 26.4155L414.73 26.3374Z" fill="#3E1772"/>
<path d="M415.039 27.2747L411.117 25.0095C410.041 24.3846 408.657 24.8533 408.119 25.9468L405.812 30.6335C405.274 31.7271 405.658 33.055 406.735 33.6017L428.341 45.1622C429.417 45.7871 430.801 45.3184 431.34 44.1467L433.108 40.3193C433.569 39.3039 433.185 38.0541 432.262 37.5073L415.116 27.3528L415.039 27.2747Z" fill="#623E91"/>
<path d="M434.334 76.0942C434.334 76.0942 436.564 76.0942 436.487 79.1406C436.487 80.0779 437.486 82.1088 437.563 82.3432C437.563 82.4994 439.793 85.2333 435.333 87.4204C432.642 88.6702 427.491 90.3105 421.57 88.6702C421.032 88.2796 430.028 91.8727 437.179 85.3114C437.64 83.2024 436.641 82.0307 435.949 80.4685C435.257 78.9063 436.256 77.0316 433.872 77.2659C432.873 77.344 433.027 76.1724 434.257 76.1724L434.334 76.0942Z" fill="#98C3D5"/>
<path d="M422.34 78.8283C422.34 78.8283 420.879 78.9064 420.264 79.9999C419.88 81.0154 419.88 84.1398 420.111 85.8583C420.264 87.0299 420.111 88.4359 421.341 88.5141C421.187 88.5141 419.957 88.5141 420.572 82.9682C420.956 80.6248 423.494 79.6875 424.724 79.1407C424.955 79.1407 423.186 78.672 422.34 78.8283Z" fill="#98C3D5"/>
<path d="M430.796 21.182C430.796 21.182 434.409 23.2129 438.638 22.2756C440.945 22.2756 441.791 26.1031 440.868 30.0086C440.099 33.2112 449.557 24.697 443.559 19.6198C437.639 14.4645 432.257 19.3855 430.719 21.182H430.796Z" fill="#1C0404"/>
<path d="M448.557 32.2738C445.558 43.5219 438.177 46.6463 438.638 46.3339C439.099 46.0214 441.483 40.6317 440.945 36.4918C439.791 31.4927 441.406 27.2747 441.406 27.2747C441.406 27.2747 441.406 23.4473 439.407 22.2756C439.407 22.2756 444.405 21.5726 448.557 32.2738Z" fill="#290606"/>
<path d="M430.869 21.2601C430.869 21.2601 430.331 14.6207 422.872 12.043C415.414 10.3246 411.493 7.51257 411.031 6.80957C411.031 6.80957 415.491 11.6525 419.951 13.2147C424.41 14.855 426.256 19.0731 427.332 20.2447C427.64 20.4009 428.947 20.2447 430.869 21.2601Z" fill="#1C0404"/>
<path d="M462.629 87.9673C462.629 87.9673 462.168 87.733 461.707 87.4986C460.938 87.1081 460.169 86.4832 459.707 86.0926C459.246 85.7021 457.631 84.5304 456.017 84.7647C455.402 85.2334 456.017 85.1553 454.556 88.3578C453.249 91.1698 452.633 93.2007 452.48 94.9192C452.326 96.3252 451.173 97.9655 451.941 98.7466C450.327 98.5904 450.48 97.0282 450.48 97.0282C450.48 99.9183 454.94 99.9964 457.016 100.231C458.938 100.387 458.938 99.9183 459.015 99.6059C459.015 93.5132 462.937 90.4668 462.937 90.4668C464.167 88.9827 463.321 87.9673 462.475 88.0454L462.629 87.9673Z" fill="white"/>
<path d="M438.022 84.3742C438.022 84.3742 437.483 84.6866 436.715 85.1553C436.484 76.6411 427.411 73.2824 425.412 72.2669C422.874 71.0171 404.574 52.4266 404.574 52.4266C398.577 52.4266 395.886 55.3949 394.809 60.0815C394.578 61.0189 394.578 62.2687 394.732 63.5966C394.732 63.7528 394.732 63.9871 394.732 64.1433C395.04 66.9553 395.962 70.0798 396.654 72.2669C397.039 73.5948 397.423 74.6884 397.577 75.0789C397.577 75.0789 402.421 79.6094 408.265 84.1398C416.8 90.9355 428.103 98.7466 432.87 96.7938C435.715 94.5286 439.021 91.0917 437.868 84.2961L438.022 84.3742Z" fill="white"/>
<g style="mix-blend-mode:multiply" opacity="0.1">
<path d="M423.264 72.0325C423.649 68.6737 417.498 75.7819 415.883 79.9999C416.959 81.3278 417.959 82.5776 418.805 83.593C419.035 82.4213 420.035 77.8127 423.264 72.0325Z" fill="black"/>
</g>
<g style="mix-blend-mode:multiply" opacity="0.08">
<path d="M438.025 84.3742C437.41 84.218 427.184 94.1381 419.187 83.9836C419.033 83.8274 418.956 83.6712 418.803 83.5931C417.957 82.5776 416.957 81.4059 415.881 79.9999C408.884 71.0953 398.35 56.0979 395.966 59.5348C394.428 62.0344 394.582 62.8155 395.12 65.9399C395.735 68.9863 397.196 74.1416 397.735 75.1571C397.735 75.1571 424.877 100.231 433.027 96.872C435.872 94.6068 439.179 91.1699 438.025 84.3742Z" fill="black"/>
</g>
<path d="M422.413 30.7899L415.57 26.7281C415.186 26.4938 414.647 26.5719 414.34 26.9625C413.34 28.4466 410.956 31.9616 410.803 33.0551C410.649 34.2268 411.341 35.5547 412.264 36.6483C414.955 39.7727 416.493 43.7564 416.877 47.8963C418.107 59.8473 420.26 81.406 420.26 84.5305C420.26 88.8266 436.407 86.4833 435.408 79.9219C434.793 75.4696 433.332 71.3297 429.41 59.0662C427.488 53.1297 425.258 47.2714 425.412 43.5221C425.796 34.1487 423.644 32.0397 422.259 30.7899H422.413Z" fill="#E1A680"/>
<g style="mix-blend-mode:multiply" opacity="0.1">
<path d="M433.332 76.3287C430.871 77.266 426.719 78.5939 422.567 78.4377C421.337 78.4377 420.26 79.2969 420.107 80.5467C419.799 83.3587 419.722 87.8111 421.568 88.7484C424.105 89.6857 432.64 90.2325 437.407 86.0926C438.099 85.4677 438.33 84.3742 438.022 83.4368C437.253 81.4059 436.561 80.5467 436.561 79.0626C436.561 78.8282 436.561 78.5158 436.561 78.2815C436.331 76.7974 434.793 75.86 433.409 76.4068L433.332 76.3287Z" fill="black"/>
</g>
<path d="M438.022 83.4368C437.253 81.406 436.561 80.5467 436.561 79.0626C436.561 78.8283 436.561 78.5158 436.561 78.2815C436.407 77.1879 435.639 76.4849 434.639 76.2506C434.485 76.1725 434.331 76.0944 434.178 76.2506C433.87 76.2506 433.639 76.2506 433.332 76.4068C430.871 77.3442 426.719 78.6721 422.567 78.5158C421.337 78.5158 420.26 79.3751 420.107 80.6248C419.953 82.1871 419.876 84.218 420.107 85.9364C420.107 85.9364 420.107 86.0145 420.107 86.0926C419.953 87.3424 420.414 87.9673 421.337 88.7484C421.414 88.8265 421.644 88.9046 421.875 88.9046C424.72 89.7638 432.794 90.1544 437.407 86.0926C438.099 85.4677 438.33 84.3742 438.022 83.4368Z" fill="white"/>
<g style="mix-blend-mode:multiply" opacity="0.08">
<path d="M434.172 76.0944C434.172 76.0944 432.249 76.9536 431.327 77.7347C430.097 78.3596 425.944 79.0626 423.561 79.1407C421.869 79.5313 420.639 81.9527 420.639 81.9527C420.639 81.9527 420.331 84.7647 420.178 86.0145C420.024 87.2643 420.485 87.8892 421.408 88.6703C422.331 89.4514 431.711 87.9673 434.479 85.3896C437.247 82.7338 436.017 80.8592 436.171 79.6094C436.325 78.3596 434.787 75.6257 434.249 76.2506L434.172 76.0944Z" fill="black"/>
</g>
<path d="M706.45 175.374C706.45 179.279 705.758 182.872 704.451 186.153C703.143 189.434 701.375 192.48 699.376 195.292C697.3 198.104 695.07 200.76 692.686 203.259C690.303 205.759 688.073 208.259 685.92 210.758C683.844 213.258 682.075 215.757 680.537 218.335C679.077 220.913 678.231 223.568 678 226.458L677.539 234.035C676.539 234.738 675.309 235.363 673.771 235.91C672.233 236.379 670.772 236.847 669.311 237.316L666.62 234.895L666.005 226.537C665.851 223.568 666.159 220.6 667.005 217.788C667.774 214.976 668.85 212.164 670.157 209.508C671.464 206.774 672.925 204.197 674.463 201.541C676.001 198.963 677.539 196.386 678.846 193.886C680.23 191.387 681.383 188.887 682.229 186.387C683.075 183.888 683.613 181.466 683.613 178.889C683.613 172.405 682.69 167.797 680.922 164.829C679.153 161.939 676.693 160.454 673.694 160.454C672.618 160.454 671.541 160.767 670.542 161.392C669.542 162.017 668.619 162.876 667.774 164.048C667.005 165.219 666.313 166.625 665.851 168.187C665.39 169.828 665.159 171.624 665.159 173.655C665.159 174.358 665.236 175.296 665.39 176.311C665.544 177.326 665.774 178.264 666.082 178.967C665.236 179.357 663.929 179.904 662.084 180.451C660.238 180.998 658.316 181.544 656.24 182.091C654.164 182.638 652.088 183.107 650.166 183.497C648.166 183.888 646.629 184.2 645.475 184.278L642.63 181.154C642.553 180.763 642.477 180.06 642.477 179.123V177.014C642.477 173.343 643.476 169.906 645.475 166.703C647.474 163.501 650.166 160.689 653.472 158.267C656.855 155.846 660.7 153.971 665.082 152.643C669.465 151.315 674.156 150.612 679 150.612C683.382 150.612 687.304 151.237 690.687 152.409C694.07 153.581 696.915 155.299 699.299 157.486C701.606 159.673 703.374 162.251 704.604 165.297C705.835 168.344 706.45 171.702 706.45 175.374ZM686.689 256.531C686.689 258.718 686.304 260.671 685.458 262.39C684.613 264.108 683.536 265.514 682.152 266.608C680.768 267.701 679.153 268.56 677.308 269.185C675.463 269.81 673.464 270.123 671.464 270.123C669.927 270.123 668.389 269.888 666.928 269.498C665.39 269.107 664.083 268.404 662.929 267.545C661.776 266.686 660.853 265.514 660.161 264.108C659.469 262.702 659.085 260.984 659.085 259.031C659.085 256.844 659.546 254.969 660.392 253.251C661.238 251.532 662.391 250.126 663.775 248.955C665.159 247.783 666.851 246.924 668.696 246.299C670.542 245.674 672.464 245.361 674.54 245.361C676.001 245.361 677.462 245.596 678.923 245.986C680.384 246.377 681.691 247.08 682.921 248.017C684.074 248.955 685.074 250.126 685.766 251.532C686.458 252.938 686.843 254.657 686.843 256.609L686.689 256.531Z" fill="white"/>
<path opacity="0.24" d="M597.879 177.17C597.879 179.436 596.111 181.232 593.881 181.232C591.651 181.232 589.883 179.436 589.883 177.17C589.883 174.905 591.651 173.109 593.881 173.109C596.111 173.109 597.879 174.905 597.879 177.17Z" fill="white"/>
<defs>
<radialGradient id="paint0_radial_477_15621" cx="0" cy="0" r="1" gradientUnits="userSpaceOnUse" gradientTransform="translate(665.203 291.159) scale(159.625 162.159)">
<stop stop-color="white"/>
<stop offset="1"/>
<stop offset="1"/>
</radialGradient>
</defs>
</svg>
