<svg width="113" height="123" viewBox="0 0 113 123" fill="none" xmlns="http://www.w3.org/2000/svg">
<path d="M67.618 10.2578C67.342 7.46328 66.0546 4.87262 64.0055 2.98848C61.9563 1.10433 59.2917 0.0610352 56.5285 0.0610352C53.7653 0.0610352 51.1007 1.10433 49.0515 2.98848C47.0024 4.87262 45.715 7.46328 45.439 10.2578C36.0065 12.1993 27.2295 16.5906 19.9628 23.0041C12.6961 29.4176 7.1874 37.6345 3.97321 46.8547C0.759017 56.075 -0.0510901 65.9841 1.62179 75.617C3.29466 85.25 7.3935 94.2784 13.5191 101.823C12.4565 103.586 11.8934 105.612 11.8919 107.68C11.895 109.886 12.5321 112.044 13.7251 113.888C14.9181 115.732 16.6149 117.181 18.6072 118.058C20.5995 118.936 22.8004 119.202 24.9397 118.825C27.079 118.449 29.0635 117.445 30.6493 115.938C37.7175 119.699 45.498 121.874 53.4647 122.316C61.4313 122.757 69.3984 121.455 76.827 118.497C84.2557 115.538 90.9727 110.993 96.524 105.168C102.075 99.3437 106.331 92.3753 109.004 84.7345C111.677 77.0937 112.704 68.9586 112.017 60.8794C111.33 52.8001 108.943 44.9651 105.02 37.9041C101.096 30.8431 95.7262 24.7208 89.2736 19.9512C82.821 15.1816 75.436 11.876 67.618 10.2578ZM56.4728 4.5937C57.7954 4.5937 59.0883 4.99233 60.188 5.73918C61.2876 6.48603 62.1447 7.54756 62.6509 8.78953C63.157 10.0315 63.2894 11.3981 63.0314 12.7166C62.7734 14.035 62.1365 15.2461 61.2013 16.1967C60.2661 17.1473 59.0745 17.7946 57.7774 18.0569C56.4802 18.3191 55.1356 18.1845 53.9137 17.6701C52.6918 17.1556 51.6474 16.2845 50.9126 15.1667C50.1778 14.049 49.7856 12.7349 49.7856 11.3906C49.7856 9.58793 50.4902 7.85912 51.7443 6.58446C52.9983 5.3098 54.6992 4.5937 56.4728 4.5937ZM23.0371 114.477C21.7145 114.477 20.4216 114.078 19.3219 113.331C18.2222 112.584 17.3651 111.523 16.859 110.281C16.3529 109.039 16.2204 107.672 16.4785 106.354C16.7365 105.035 17.3734 103.824 18.3086 102.874C19.2438 101.923 20.4353 101.276 21.7325 101.013C23.0297 100.751 24.3743 100.886 25.5962 101.4C26.8181 101.915 27.8625 102.786 28.5973 103.904C29.3321 105.021 29.7242 106.335 29.7242 107.68C29.7242 109.482 29.0197 111.211 27.7656 112.486C26.5115 113.76 24.8106 114.477 23.0371 114.477ZM56.4728 117.875C48.4004 117.867 40.4434 115.926 33.2461 112.211C33.8643 110.783 34.1831 109.24 34.1823 107.68C34.1823 104.675 33.0081 101.794 30.918 99.6694C28.8278 97.545 25.993 96.3515 23.0371 96.3515C20.7169 96.35 18.4552 97.0912 16.5729 98.4699C11.0721 91.5353 7.41211 83.2832 5.94242 74.5015C4.47273 65.7199 5.24239 56.7019 8.17792 48.3087C11.1134 39.9154 16.1168 32.4272 22.7103 26.559C29.3038 20.6907 37.2672 16.6384 45.8402 14.789C46.5514 17.0891 47.966 19.0986 49.8783 20.5251C51.7905 21.9517 54.1007 22.7209 56.4728 22.7209C58.8448 22.7209 61.155 21.9517 63.0673 20.5251C64.9796 19.0986 66.3942 17.0891 67.1053 14.789C79.5016 17.46 90.4855 24.7025 97.9379 35.1194C105.39 45.5362 108.783 58.3892 107.462 71.1987C106.141 84.0082 100.199 95.8666 90.7833 104.486C81.3674 113.105 69.1445 117.875 56.4728 117.875Z" fill="#623E91"/>
<path d="M56.4734 53.3046C54.269 53.3046 52.1142 53.969 50.2814 55.2138C48.4486 56.4585 47.0201 58.2277 46.1765 60.2977C45.333 62.3676 45.1122 64.6453 45.5423 66.8428C45.9723 69.0402 47.0338 71.0587 48.5925 72.6429C50.1512 74.2272 52.1371 75.3061 54.299 75.7432C56.461 76.1803 58.7019 75.956 60.7384 75.0986C62.775 74.2412 64.5156 72.7892 65.7403 70.9263C66.9649 69.0634 67.6186 66.8732 67.6186 64.6328C67.6186 61.6283 66.4444 58.747 64.3542 56.6226C62.2641 54.4981 59.4293 53.3046 56.4734 53.3046ZM56.4734 71.4296C55.1508 71.4296 53.8579 71.031 52.7582 70.2841C51.6585 69.5373 50.8014 68.4758 50.2952 67.2338C49.7891 65.9918 49.6567 64.6252 49.9147 63.3067C50.1727 61.9883 50.8096 60.7772 51.7448 59.8266C52.68 58.8761 53.8716 58.2287 55.1688 57.9665C56.4659 57.7042 57.8105 57.8388 59.0324 58.3533C60.2543 58.8677 61.2987 59.7389 62.0335 60.8566C62.7683 61.9744 63.1605 63.2885 63.1605 64.6328C63.1605 66.4354 62.4559 68.1642 61.2019 69.4389C59.9478 70.7135 58.2469 71.4296 56.4734 71.4296Z" fill="#623E91"/>
<path d="M88.1666 70.9991C88.5816 68.9033 88.7907 66.7706 88.7908 64.6327C88.7908 57.1918 86.3055 49.9712 81.7417 44.1531C77.1779 38.335 70.806 34.264 63.6691 32.6065C56.5322 30.9491 49.0532 31.8033 42.4562 35.0295C35.8593 38.2556 30.5353 43.6626 27.3558 50.3651C24.1764 57.0677 23.3298 64.6688 24.9546 71.9242C26.5795 79.1795 30.5796 85.6593 36.3 90.3027C42.0204 94.9462 49.1224 97.4782 56.4432 97.4843C63.764 97.4904 70.87 94.9702 76.5979 90.3363C79.1134 91.7319 82.0612 92.0891 84.8289 91.3335C87.5967 90.5779 89.9718 88.7677 91.4608 86.2788C92.9498 83.7899 93.4383 80.8137 92.8249 77.9683C92.2114 75.1229 90.5432 72.6271 88.1666 70.9991ZM28.6066 64.6327C28.6037 60.7131 29.4014 56.8355 30.9491 53.2453C32.4969 49.6552 34.761 46.4307 37.5982 43.776C40.4354 41.1212 43.7839 39.094 47.4318 37.8226C51.0797 36.5512 54.9475 36.0633 58.7905 36.3898C62.6334 36.7163 66.3679 37.85 69.7575 39.7193C73.1471 41.5886 76.118 44.1527 78.4822 47.2494C80.8465 50.346 82.5525 53.9078 83.4924 57.7093C84.4323 61.5107 84.5856 65.4691 83.9426 69.3339C81.7485 68.9634 79.4956 69.2686 77.4735 70.2103C75.4515 71.1519 73.7529 72.6869 72.5963 74.6179C71.4397 76.5488 70.8779 78.7873 70.9832 81.0454C71.0886 83.3035 71.8563 85.478 73.1875 87.289C69.0479 90.4446 64.1255 92.3663 58.9719 92.8386C53.8183 93.3109 48.6371 92.3153 44.0089 89.9632C39.3807 87.6111 35.4883 83.9955 32.7679 79.5216C30.0475 75.0477 28.6066 69.8922 28.6066 64.6327ZM82.1036 87.289C80.781 87.289 79.4882 86.8904 78.3885 86.1435C77.2888 85.3967 76.4317 84.3351 75.9255 83.0932C75.4194 81.8512 75.287 80.4846 75.545 79.1661C75.803 77.8476 76.4399 76.6366 77.3751 75.686C78.3103 74.7354 79.5019 74.0881 80.799 73.8258C82.0962 73.5636 83.4408 73.6982 84.6627 74.2126C85.8846 74.7271 86.929 75.5982 87.6638 76.716C88.3986 77.8337 88.7908 79.1478 88.7908 80.4921C88.7908 82.2948 88.0862 84.0236 86.8321 85.2982C85.5781 86.5729 83.8772 87.289 82.1036 87.289Z" fill="#623E91"/>
</svg>
