<svg width="119" height="120" viewBox="0 0 119 120" fill="none" xmlns="http://www.w3.org/2000/svg">
<g clip-path="url(#clip0_501_12518)">
<path d="M47.0307 59.6365C52.9339 59.6365 57.5849 54.9093 57.5849 48.9091C57.5849 43.0909 52.7552 38.1817 47.0307 38.1817C41.3065 38.1817 36.4766 42.9089 36.4766 48.9091C36.4766 54.9091 41.3063 59.6365 47.0307 59.6365ZM47.0307 41.9999C50.9662 41.9999 54.0072 45.0909 54.0072 49.0909C54.0072 52.9092 50.7873 56.1819 47.0307 56.1819C43.0953 56.1819 40.0543 53.091 40.0543 49.0909C40.0543 45.0909 43.2742 41.9999 47.0307 41.9999Z" fill="#623E91"/>
<path d="M70.8198 59.6365C76.7229 59.6365 81.374 54.9093 81.374 48.9091C81.374 43.0909 76.5443 38.1817 70.8198 38.1817C65.0954 38.1817 60.2656 42.9089 60.2656 48.9091C60.2656 54.9091 64.9167 59.6365 70.8198 59.6365ZM70.8198 41.9999C74.7553 41.9999 77.7963 45.0909 77.7963 49.0909C77.7963 52.9092 74.5764 56.1819 70.8198 56.1819C66.8843 56.1819 63.8433 53.091 63.8433 49.0909C63.8433 45.0909 66.8843 41.9999 70.8198 41.9999Z" fill="#623E91"/>
<path d="M73.1522 60.1819H68.68C65.1023 60.1819 61.7035 61.6366 59.0203 64.0002C56.516 61.6366 53.1172 60.1819 49.3606 60.1819H44.8887C37.0179 60.1819 30.5781 66.7274 30.5781 74.7273V78.9092C30.5781 80.3637 31.8304 81.6365 33.2613 81.6365H60.8093H84.7795C86.2105 81.6365 87.4627 80.3637 87.4627 78.9092V74.7273C87.4627 66.7272 81.0229 60.1819 73.1522 60.1819ZM60.4515 78.0001H57.4105H34.5136V74.7273C34.5136 68.7274 39.3433 63.8184 45.2465 63.8184H49.7186C55.6218 63.8184 60.4515 68.7274 60.4515 74.7273V78.0001ZM84.0639 78.1819H63.8503V74.9092C63.8503 72.0001 62.9558 69.2728 61.5249 66.9093C63.4925 65.0912 65.997 64.0002 68.8591 64.0002H73.3313C79.2344 64.0002 84.0642 68.9092 84.0642 74.9094V78.1819H84.0639Z" fill="#623E91"/>
<path d="M110.714 51.4545C109.461 43.4546 106.241 35.6363 101.591 29.0908C104.274 25.6362 103.916 20.7272 100.875 17.6363C98.0129 14.5454 93.1832 13.9999 89.6055 16.909C82.9868 12.1818 75.4738 8.90907 67.6029 7.63624C67.0662 3.27274 63.4885 0 59.1954 0C54.9021 0 51.3247 3.27274 50.788 7.63648C42.9173 8.90931 35.2252 12.1818 28.7854 16.9092C25.2077 14.0001 20.378 14.5456 17.5158 17.6365C14.4748 20.7275 14.2959 25.6364 16.8003 29.091C12.1494 35.8183 8.92952 43.4546 7.67725 51.4547C3.38396 52 0.164062 55.6364 0.164062 60.0001C0.164062 64.3639 3.38396 68 7.67725 68.5455C8.92952 76.5454 12.1492 84.3637 16.8003 90.9092C14.117 94.3638 14.4748 99.2728 17.5158 102.364C20.378 105.273 25.2077 105.818 28.7854 103.091C35.4041 107.818 42.917 111.091 50.788 112.364C51.3247 116.727 54.9024 120 59.1954 120C63.4885 120 67.0662 116.727 67.6029 112.364C75.4736 111.091 83.1657 107.818 89.6055 103.091C93.1832 106 98.0129 105.455 100.875 102.364C103.916 99.2728 104.095 94.3638 101.591 90.9092C106.241 84.1819 109.461 76.5457 110.714 68.5455C115.007 68 118.227 64.3636 118.227 60.0001C118.227 55.6364 115.007 52 110.714 51.4545ZM91.3942 20.1817C93.3618 18.1818 96.4028 18.1818 98.3707 20.1817C100.339 22.1816 100.338 25.4544 98.3707 27.2727C96.582 29.2726 93.1832 29.2726 91.3942 27.2727C89.4266 25.2728 89.4266 22 91.3942 20.1817ZM59.1954 3.63641C61.8786 3.63641 64.2041 5.81816 64.2041 8.72723C64.2041 11.4545 62.0575 13.8181 59.1954 13.8181C56.3333 13.8181 54.1868 11.6363 54.1868 8.72723C54.1868 5.81816 56.512 3.63641 59.1954 3.63641ZM20.0199 20.1817C21.9875 18.1818 25.2074 18.1818 26.9964 20.1817C28.964 22.1816 28.964 25.4544 26.9964 27.2727C25.0288 29.2726 21.8089 29.2726 20.0199 27.2727C18.0523 25.2728 18.0523 22.1819 20.0199 20.1817ZM3.74176 60.0001C3.74176 57.2729 5.88828 54.9093 8.75039 54.9093C11.4336 54.9093 13.759 57.091 13.759 60.0001C13.759 62.9092 11.6125 65.091 8.75039 65.091C5.88828 65.091 3.74176 62.7274 3.74176 60.0001ZM26.9964 99.8183C25.2077 101.818 21.8089 101.818 20.0199 99.8183C18.0523 97.8184 18.0523 94.5456 20.0199 92.7273C21.9875 90.7274 25.2074 90.7274 26.9964 92.7273C28.9643 94.7272 28.9643 98 26.9964 99.8183ZM59.1954 116.364C56.5122 116.364 54.1868 114.182 54.1868 111.273C54.1868 108.546 56.3333 106.182 59.1954 106.182C62.0575 106.182 64.2041 108.364 64.2041 111.273C64.2041 114.182 61.8786 116.364 59.1954 116.364ZM98.3707 99.8183C96.582 101.818 93.1832 101.818 91.3942 99.8183C89.4266 97.8184 89.4266 94.5456 91.3942 92.7273C93.3618 90.7274 96.5817 90.7274 98.3707 92.7273C100.338 94.7272 100.338 97.8181 98.3707 99.8183ZM98.9072 88.7272C95.3295 86.7273 91.394 87.6362 88.8897 90.1816C86.2064 92.9089 85.6698 97.0908 87.4587 100.364C81.5556 104.727 74.5791 107.636 67.424 108.727C66.1717 105.273 62.952 102.545 59.1954 102.545C55.4388 102.545 52.2189 105.091 50.9669 108.727C43.8115 107.454 36.8353 104.545 30.9321 100.364C32.7209 97.0908 32.1844 92.9089 29.5012 90.1816C26.9969 87.6362 23.0614 86.7271 19.4837 88.7272C15.1904 82.7272 12.3283 75.6363 11.2552 68.3637C14.8329 67.2727 17.3372 64 17.3372 60.0001C17.3372 56.0003 14.8329 52.9091 11.2552 51.6366C12.5075 44.3637 15.3696 37.273 19.4837 31.273C23.0614 33.2729 26.9969 32.364 29.5012 29.8186C32.1844 27.0913 32.7211 22.9094 30.9321 19.6367C36.8353 15.273 43.8117 12.3639 50.9669 11.2731C52.0403 14.9095 55.2602 17.4549 59.1954 17.4549C62.952 17.4549 66.1719 14.9095 67.424 11.2731C74.5793 12.546 81.5556 15.455 87.4587 19.6367C85.67 22.9094 86.2064 27.0913 88.8897 29.8186C91.394 32.364 95.3295 33.2732 98.9072 31.273C103.2 37.273 106.063 44.364 107.136 51.6366C103.558 52.7275 101.054 56.0003 101.054 60.0001C101.054 64 103.558 67.0911 107.136 68.3637C105.884 75.6365 103.022 82.7272 98.9072 88.7272ZM109.64 65.091C106.778 65.091 104.632 62.9092 104.632 60.0001C104.632 57.091 106.778 54.9093 109.64 54.9093C112.502 54.9093 114.649 57.2729 114.649 60.0001C114.649 62.7274 112.502 65.091 109.64 65.091Z" fill="#623E91"/>
</g>
<defs>
<clipPath id="clip0_501_12518">
<rect width="118.062" height="120" fill="white" transform="translate(0.164062)"/>
</clipPath>
</defs>
</svg>
