<svg width="118" height="118" viewBox="0 0 118 118" fill="none" xmlns="http://www.w3.org/2000/svg">
<path d="M37.6049 118C36.2692 118 35.1859 116.901 35.1859 115.541V90.9586C35.1859 89.5992 36.2692 88.5 37.6049 88.5H43.0681L30.349 66.3354L17.6289 88.5H23.093C24.4278 88.5 25.5111 89.5992 25.5111 90.9586V100.791C25.5111 102.151 24.4278 103.25 23.093 103.25C21.7573 103.25 20.6741 102.151 20.6741 100.791V93.4164H13.4182C12.5519 93.4164 11.7521 92.9473 11.3216 92.183C10.8903 91.4178 10.8929 90.4815 11.3287 89.719L28.2586 60.219C29.1249 58.7101 31.5704 58.7101 32.4384 60.219L49.3692 89.719C49.8067 90.4815 49.8094 91.4178 49.3763 92.183C48.9431 92.9473 48.1451 93.4164 47.2789 93.4164H40.0229V115.541C40.0229 116.901 38.9397 118 37.6049 118Z" fill="#623E91"/>
<path d="M20.6719 108.166H25.5089V113.084H20.6719V108.166Z" fill="#623E91"/>
<path d="M81.1406 118C79.8031 118 78.7216 116.901 78.7216 115.541V83.5836H71.4657C70.5995 83.5836 69.8014 83.1137 69.3692 82.3493C68.9361 81.585 68.9405 80.6478 69.3763 79.8862L86.3062 50.3862C87.1751 48.8765 89.6179 48.8765 90.4886 50.3862L107.418 79.8862C107.854 80.6478 107.859 81.585 107.426 82.3493C106.993 83.1137 106.193 83.5836 105.326 83.5836H98.0705V88.5C98.0705 89.8594 96.9899 90.9586 95.6524 90.9586C94.315 90.9586 93.2335 89.8594 93.2335 88.5V81.125C93.2335 79.7656 94.315 78.6663 95.6524 78.6663H101.116L88.3965 56.5044L75.6765 78.6663H81.1406C82.478 78.6663 83.5586 79.7656 83.5586 81.125V115.541C83.5586 116.901 82.478 118 81.1406 118Z" fill="#623E91"/>
<path d="M93.2344 95.875H98.0714V100.791H93.2344V95.875Z" fill="#623E91"/>
<path d="M93.2344 105.709H98.0714V110.625H93.2344V105.709Z" fill="#623E91"/>
<path d="M59.375 103.25H64.212V108.166H59.375V103.25Z" fill="#623E91"/>
<path d="M59.375 93.4164H64.212V98.3336H59.375V93.4164Z" fill="#623E91"/>
<path d="M59.375 113.084H64.212V118H59.375V113.084Z" fill="#623E91"/>
<path d="M61.7931 88.5C60.4583 88.5 59.375 87.4008 59.375 86.0413V41.7914C59.375 40.4346 60.4583 39.3336 61.7931 39.3336H73.8868C75.2243 39.3336 76.3049 40.4346 76.3049 41.7914C76.3049 43.149 75.2243 44.25 73.8868 44.25H64.212V86.0413C64.212 87.4008 63.1305 88.5 61.7931 88.5Z" fill="#623E91"/>
<path d="M49.6953 29.5H54.5323V34.4164H49.6953V29.5Z" fill="#623E91"/>
<path d="M49.6953 19.6664H54.5323V24.5836H49.6953V19.6664Z" fill="#623E91"/>
<path d="M49.6953 39.3336H54.5323V44.25H49.6953V39.3336Z" fill="#623E91"/>
<path d="M42.4413 61.4586C41.1065 61.4586 40.0224 60.3567 40.0224 59V44.25H30.3484C29.4892 44.25 28.6938 43.7882 28.2607 43.0328C27.8276 42.2784 27.8178 41.3466 28.2412 40.5868L50.009 1.25407C50.435 0.484344 51.2304 0.00720215 52.0993 0C52.9408 0.0198059 53.7698 0.460037 54.2083 1.21896L71.1382 30.719C71.8087 31.892 71.4189 33.3964 70.2675 34.0824C69.1169 34.7684 67.6342 34.3695 66.9593 33.1974L52.1569 7.40471L34.4839 39.3336H42.4413C43.7761 39.3336 44.8602 40.4347 44.8602 41.7914V59C44.8602 60.3567 43.7761 61.4586 42.4413 61.4586Z" fill="#623E91"/>
</svg>
