<svg width="118" height="118" viewBox="0 0 118 118" fill="none" xmlns="http://www.w3.org/2000/svg">
<path d="M95.4212 93.6897C101.186 85.9602 104.622 76.3272 104.622 65.8998C104.622 65.006 103.922 64.2943 103.042 64.2943H95.4863V30.3969C95.4863 29.5031 94.7861 28.7914 93.9068 28.7914H85.9926C85.1133 28.7914 84.413 29.5031 84.413 30.3969V64.2943H80.0977V36.5044C80.0977 35.6106 79.3975 34.8989 78.5182 34.8989H70.604C69.7247 34.8989 69.0244 35.6106 69.0244 36.5044V64.2943H64.6928V44.1512C64.6928 43.2574 63.9926 42.5457 63.1133 42.5457H55.1991C54.3198 42.5457 53.6196 43.2574 53.6196 44.1512V64.2943H49.3042V51.7814C49.3042 50.8876 48.604 50.1759 47.7247 50.1759H39.8105C38.9312 50.1759 38.2309 50.8876 38.2309 51.7814V64.2943H33.9156V57.9054C33.9156 57.0116 33.2154 56.2999 32.3361 56.2999H24.4219C23.5426 56.2999 22.8423 57.0116 22.8423 57.9054V64.2943H15.5796C14.7002 64.2943 14 65.006 14 65.8998C14 76.3107 17.4197 85.9105 23.168 93.6401C23.1843 93.6732 23.1843 93.7063 23.2006 93.7394C23.2983 93.9214 23.4449 94.0538 23.5914 94.1863C31.8801 104.994 44.8098 111.963 59.319 111.963C73.9097 111.963 86.9208 104.912 95.2095 93.9711C95.2746 93.8883 95.3561 93.8221 95.4212 93.7394C95.4212 93.7228 95.4212 93.7063 95.4212 93.6897ZM93.5648 90.8594C89.3146 88.6084 84.0222 86.7878 78.0948 85.5795C79.2347 80.101 79.9023 73.9935 80 67.5218H101.463C101.121 76.1948 98.2546 84.2388 93.5648 90.8594ZM57.7395 67.5053V83.7423C52.8868 83.825 48.1806 84.2388 43.7024 85.0002C42.5788 79.6706 41.9112 73.7286 41.8135 67.5053H57.7395ZM76.8246 67.5053C76.7269 73.7286 76.0429 79.6706 74.9356 85.0002C70.4737 84.2388 65.7676 83.825 60.8986 83.7588V67.5218H76.8246V67.5053ZM57.7395 86.9698V108.569C52.1865 107.295 47.285 99.3503 44.419 88.145C48.6854 87.4333 53.131 87.036 57.7395 86.9698ZM60.8986 108.569V86.9698C65.507 87.036 69.9689 87.4333 74.2191 88.145C71.3531 99.3503 66.4515 107.278 60.8986 108.569ZM87.5722 32.0024H92.3272V64.2943H87.5722V32.0024ZM72.1673 38.1099H76.9223V64.2943H72.1673V38.1099ZM56.7787 45.7566H61.5337V64.2943H59.319H56.7787V45.7566ZM46.1451 53.3869V64.2943H41.3901V53.3869H46.1451ZM25.9852 59.5109H30.7402V64.2943H25.9852V59.5109ZM38.6543 67.5053C38.752 73.9935 39.4197 80.0844 40.5596 85.5629C34.6321 86.7878 29.356 88.5753 25.0733 90.8429C20.3834 84.2223 17.5174 76.1948 17.1917 67.5053H38.6543ZM27.0437 93.4249C30.9845 91.4222 35.8372 89.8167 41.2761 88.7077C43.393 97.1159 46.6499 103.819 50.6233 107.825C41.2435 105.822 33.0037 100.625 27.0437 93.4249ZM68.0148 107.825C71.9882 103.819 75.245 97.1159 77.362 88.7077C82.8009 89.8167 87.6699 91.4222 91.5781 93.4249C85.6344 100.625 77.3945 105.822 68.0148 107.825Z" fill="#623E91"/>
<path d="M28.3658 53.1717C31.1015 53.1717 33.3325 50.9042 33.3325 48.1235C33.3325 48.0076 33.2999 47.9083 33.2999 47.809L40.0416 45.7566C40.9535 46.8159 42.2725 47.4946 43.7544 47.4946C46.4901 47.4946 48.7211 45.227 48.7211 42.4464C48.7211 41.6353 48.5094 40.874 48.1674 40.1954L56.9935 31.092C57.6448 31.4231 58.3776 31.6217 59.1593 31.6217C61.3414 31.6217 63.1652 30.1817 63.8329 28.1955H69.8743C70.542 30.1817 72.3658 31.6217 74.5479 31.6217C77.2836 31.6217 79.5146 29.3541 79.5146 26.5735C79.5146 25.779 79.3192 25.0342 78.9935 24.3721L87.7381 15.5502C88.4058 15.8978 89.1549 16.0964 89.9528 16.0964C92.6885 16.0964 94.9195 13.8288 94.9195 11.0482C94.9195 8.26755 92.6885 6 89.9528 6C87.217 6 84.9861 8.26755 84.9861 11.0482C84.9861 11.8427 85.1815 12.5875 85.5072 13.2661L76.7625 22.088C76.0949 21.7405 75.3458 21.5253 74.5479 21.5253C72.3658 21.5253 70.5257 22.9653 69.8743 24.968H63.8329C63.1652 22.9818 61.3414 21.5253 59.1593 21.5253C56.4235 21.5253 54.1926 23.7928 54.1926 26.5735C54.1926 27.3845 54.4043 28.1459 54.7463 28.841L45.9202 37.9444C45.2688 37.6133 44.536 37.4147 43.7544 37.4147C41.0186 37.4147 38.7877 39.6823 38.7877 42.4629C38.7877 42.5788 38.8203 42.6781 38.8203 42.7774L32.0623 44.8298C31.1504 43.7705 29.8314 43.0919 28.3495 43.0919C25.6138 43.0919 23.3828 45.3594 23.3828 48.1401C23.3991 50.9042 25.63 53.1717 28.3658 53.1717ZM89.9528 9.24409C90.9461 9.24409 91.7603 10.0717 91.7603 11.0813C91.7603 12.0909 90.9461 12.9185 89.9528 12.9185C88.9594 12.9185 88.1452 12.0909 88.1452 11.0813C88.1615 10.0717 88.9594 9.24409 89.9528 9.24409ZM74.5642 24.7528C75.5575 24.7528 76.3717 25.5804 76.3717 26.59C76.3717 27.5997 75.5575 28.4273 74.5642 28.4273C73.5708 28.4273 72.7566 27.5997 72.7566 26.59C72.7566 25.5804 73.5708 24.7528 74.5642 24.7528ZM59.1593 24.7528C60.1526 24.7528 60.9668 25.5804 60.9668 26.59C60.9668 27.5997 60.1526 28.4273 59.1593 28.4273C58.1659 28.4273 57.3517 27.5997 57.3517 26.59C57.3517 25.5804 58.1659 24.7528 59.1593 24.7528ZM43.7544 40.6257C44.7477 40.6257 45.5619 41.4533 45.5619 42.4629C45.5619 43.4725 44.7477 44.3001 43.7544 44.3001C42.7611 44.3001 41.9468 43.4725 41.9468 42.4629C41.9631 41.4533 42.7611 40.6257 43.7544 40.6257ZM28.3658 46.3028C29.3591 46.3028 30.1733 47.1304 30.1733 48.1401C30.1733 49.1497 29.3591 49.9773 28.3658 49.9773C27.3724 49.9773 26.5582 49.1497 26.5582 48.1401C26.5582 47.1139 27.3724 46.3028 28.3658 46.3028Z" fill="#623E91"/>
</svg>
