<svg width="66" height="66" viewBox="0 0 66 66" fill="none" xmlns="http://www.w3.org/2000/svg">
<path d="M50.3241 15.7025C50.0697 15.4476 49.7675 15.2453 49.4349 15.1073C49.1022 14.9693 48.7456 14.8983 48.3854 14.8983C48.0252 14.8983 47.6686 14.9693 47.3359 15.1073C47.0033 15.2453 46.7011 15.4476 46.4466 15.7025L32.9991 29.1225L19.5517 15.675C19.2971 15.4204 18.9948 15.2184 18.6621 15.0807C18.3295 14.9429 17.973 14.8719 17.6129 14.8719C17.2528 14.8719 16.8963 14.9429 16.5637 15.0807C16.231 15.2184 15.9287 15.4204 15.6741 15.675C15.4195 15.9296 15.2176 16.2319 15.0798 16.5645C14.942 16.8972 14.8711 17.2537 14.8711 17.6138C14.8711 17.9738 14.942 18.3303 15.0798 18.663C15.2176 18.9957 15.4195 19.2979 15.6741 19.5525L29.1217 33L15.6741 46.4475C15.4195 46.7021 15.2176 47.0044 15.0798 47.337C14.942 47.6697 14.8711 48.0262 14.8711 48.3863C14.8711 48.7463 14.942 49.1028 15.0798 49.4355C15.2176 49.7682 15.4195 50.0704 15.6741 50.325C15.9287 50.5796 16.231 50.7816 16.5637 50.9193C16.8963 51.0571 17.2528 51.1281 17.6129 51.1281C17.973 51.1281 18.3295 51.0571 18.6621 50.9193C18.9948 50.7816 19.2971 50.5796 19.5517 50.325L32.9991 36.8775L46.4466 50.325C46.7012 50.5796 47.0035 50.7816 47.3362 50.9193C47.6688 51.0571 48.0253 51.1281 48.3854 51.1281C48.7455 51.1281 49.102 51.0571 49.4346 50.9193C49.7673 50.7816 50.0695 50.5796 50.3241 50.325C50.5787 50.0704 50.7807 49.7682 50.9185 49.4355C51.0563 49.1028 51.1272 48.7463 51.1272 48.3863C51.1272 48.0262 51.0563 47.6697 50.9185 47.337C50.7807 47.0044 50.5787 46.7021 50.3241 46.4475L36.8766 33L50.3241 19.5525C51.3691 18.5075 51.3691 16.7475 50.3241 15.7025Z" fill="white"/>
</svg>
