<svg width="988" height="1120" viewBox="0 0 988 1120" fill="none" xmlns="http://www.w3.org/2000/svg">
<path d="M439 0H988V1120H439L354 565L439 0Z" fill="#B68B60"/>
<path d="M439 0H988V1120H439L354 565L439 0Z" fill="#B68B60"/>
<path d="M439 0H988V1120H439L354 565L439 0Z" fill="#B68B60"/>
<path d="M0.5 0H549.5L352 596L549.5 1120H0.5V0Z" fill="#B68B60"/>
<path d="M0.5 0H549.5L352 596L549.5 1120H0.5V0Z" fill="#603C93"/>
<g filter="url(#filter0_d_563_13531)">
<path d="M717.37 832.272L728.419 832.357L728.546 817.573L717.497 817.489C716.919 815.346 716.087 813.303 715.03 811.4L722.908 803.649L712.536 793.107L704.658 800.859C702.769 799.773 700.74 798.914 698.612 798.294L698.696 787.245L683.912 787.118L683.828 798.167C681.686 798.745 679.642 799.576 677.74 800.633L669.988 792.755L659.447 803.128L667.198 811.006C666.113 812.894 665.253 814.924 664.633 817.052L653.584 816.967L653.457 831.751L664.506 831.836C665.084 833.978 665.915 836.021 666.972 837.924L659.094 845.675L669.467 856.217L677.345 848.466C679.234 849.551 681.263 850.41 683.391 851.03L683.306 862.08L698.09 862.206L698.175 851.157C700.317 850.579 702.361 849.748 704.263 848.691L712.014 856.569L722.556 846.197L714.805 838.318C715.89 836.43 716.75 834.4 717.37 832.272ZM690.903 836.782C684.208 836.726 678.825 831.258 678.881 824.563C678.938 817.869 684.406 812.486 691.1 812.542C697.794 812.598 703.178 818.066 703.122 824.761C703.065 831.455 697.597 836.839 690.903 836.782Z" fill="url(#paint0_linear_563_13531)"/>
</g>
<g filter="url(#filter1_d_563_13531)">
<path d="M358.582 399.639L359.61 416.452L382.117 415.085L381.089 398.271C384.288 397.158 387.304 395.678 390.094 393.888L402.708 405.05L417.646 388.167L405.033 377.005C406.485 374.017 407.584 370.846 408.303 367.534L425.116 366.505L423.749 343.998L406.936 345.027C405.822 341.828 404.342 338.812 402.553 336.022L413.714 323.408L396.831 308.469L385.669 321.083C382.681 319.631 379.51 318.532 376.198 317.813L375.169 301L352.663 302.367L353.691 319.18C350.492 320.294 347.476 321.773 344.686 323.563L332.072 312.401L317.133 329.285L329.747 340.447C328.295 343.435 327.196 346.606 326.477 349.918L309.664 350.946L311.031 373.453L327.844 372.424C328.958 375.624 330.437 378.64 332.227 381.43L321.065 394.044L337.949 408.982L349.111 396.369C352.099 397.82 355.27 398.92 358.582 399.639ZM348.942 359.853C348.322 349.664 356.073 340.912 366.262 340.292C376.452 339.672 385.204 347.423 385.824 357.613C386.444 367.802 378.693 376.554 368.503 377.174C358.314 377.794 349.562 370.043 348.942 359.853Z" fill="url(#paint1_linear_563_13531)"/>
</g>
<g opacity="0.4" filter="url(#filter2_d_563_13531)">
<path d="M782.575 345.535H653.679C646.806 345.535 641.234 351.106 641.234 357.979V542.318C641.234 549.191 646.806 554.763 653.679 554.763H782.575C789.448 554.763 795.02 549.191 795.02 542.318V357.979C795.02 351.106 789.448 345.535 782.575 345.535Z" fill="white"/>
</g>
<g filter="url(#filter3_d_563_13531)">
<path d="M569.91 370.198H400.199C379.059 370.198 361.922 387.335 361.922 408.475V820.082C361.922 841.222 379.059 858.359 400.199 858.359H569.91C591.05 858.359 608.187 841.222 608.187 820.082V408.475C608.187 387.335 591.05 370.198 569.91 370.198Z" fill="url(#paint2_linear_563_13531)"/>
<path d="M567.566 358.557H402.549C374.588 358.557 351.926 381.219 351.926 409.18V819.377C351.926 847.338 374.588 870 402.549 870H567.566C595.527 870 618.189 847.338 618.189 819.377V409.18C618.189 381.219 595.527 358.557 567.566 358.557ZM608.197 820.082C608.197 841.222 591.06 858.359 569.92 858.359H400.209C379.069 858.359 361.932 841.222 361.932 820.082V408.475C361.932 387.335 379.069 370.198 400.209 370.198H569.92C591.06 370.198 608.197 387.335 608.197 408.475V820.082Z" fill="url(#paint3_linear_563_13531)"/>
<path d="M513.034 387.391H457.098C445.513 387.391 436.113 378.005 436.113 366.407H534.019C534.019 377.991 524.633 387.391 513.034 387.391Z" fill="#1F1F1F"/>
<path d="M497.249 372.636H456.73V375.933H497.249V372.636Z" fill="url(#paint4_linear_563_13531)"/>
<path d="M513.397 374.285C513.397 375.567 512.354 376.61 511.071 376.61C509.789 376.61 508.746 375.567 508.746 374.285C508.746 373.002 509.789 371.959 511.071 371.959C512.354 371.959 513.397 373.002 513.397 374.285Z" fill="url(#paint5_linear_563_13531)"/>
</g>
<g filter="url(#filter4_d_563_13531)">
<path d="M464.224 445.047H391.728C386.179 445.047 381.68 449.546 381.68 455.095V527.591C381.68 533.141 386.179 537.639 391.728 537.639H464.224C469.773 537.639 474.272 533.141 474.272 527.591V455.095C474.272 449.546 469.773 445.047 464.224 445.047Z" fill="url(#paint6_linear_563_13531)"/>
</g>
<path opacity="0.92" d="M578.392 445.047H505.896C500.347 445.047 495.848 449.546 495.848 455.095V527.591C495.848 533.141 500.347 537.639 505.896 537.639H578.392C583.941 537.639 588.44 533.141 588.44 527.591V455.095C588.44 449.546 583.941 445.047 578.392 445.047Z" stroke="white" stroke-width="0.89" stroke-miterlimit="10"/>
<path opacity="0.92" d="M464.224 574.38H391.728C386.179 574.38 381.68 578.879 381.68 584.429V656.924C381.68 662.474 386.179 666.973 391.728 666.973H464.224C469.773 666.973 474.272 662.474 474.272 656.924V584.429C474.272 578.879 469.773 574.38 464.224 574.38Z" stroke="white" stroke-width="0.89" stroke-miterlimit="10"/>
<g filter="url(#filter5_d_563_13531)">
<path d="M578.392 574.38H505.896C500.347 574.38 495.848 578.879 495.848 584.429V656.924C495.848 662.474 500.347 666.973 505.896 666.973H578.392C583.941 666.973 588.44 662.474 588.44 656.924V584.429C588.44 578.879 583.941 574.38 578.392 574.38Z" fill="url(#paint7_linear_563_13531)"/>
</g>
<g filter="url(#filter6_d_563_13531)">
<path d="M464.224 703.714H391.728C386.179 703.714 381.68 708.213 381.68 713.763V786.258C381.68 791.808 386.179 796.307 391.728 796.307H464.224C469.773 796.307 474.272 791.808 474.272 786.258V713.763C474.272 708.213 469.773 703.714 464.224 703.714Z" fill="url(#paint8_linear_563_13531)"/>
</g>
<path opacity="0.92" d="M578.392 703.714H505.896C500.347 703.714 495.848 708.213 495.848 713.763V786.258C495.848 791.808 500.347 796.307 505.896 796.307H578.392C583.941 796.307 588.44 791.808 588.44 786.258V713.763C588.44 708.213 583.941 703.714 578.392 703.714Z" stroke="white" stroke-width="0.89" stroke-miterlimit="10"/>
<path d="M464.815 479.758L429.779 464.665L394.758 479.758H404.13V518.007H423.24V497.051H436.333V518.007H455.429V479.758H464.815Z" fill="#F3F3F3"/>
<path d="M525.822 624.82H513.152V651.724H525.822V624.82Z" fill="#F3F3F3"/>
<path d="M548.076 607.274H535.406V651.724H548.076V607.274Z" fill="#F3F3F3"/>
<path d="M571.131 590.841H558.461V651.724H571.131V590.841Z" fill="#F3F3F3"/>
<path d="M449.364 728.081H406.563C401.404 728.081 397.219 732.267 397.219 737.425V758.903C397.219 762.849 399.671 766.218 403.138 767.585H403.124L408.578 778.479L414.469 768.233H449.364C454.522 768.233 458.708 764.047 458.708 758.889V737.411C458.708 732.253 454.522 728.067 449.364 728.067V728.081ZM411.27 754.14C407.901 754.14 405.167 751.406 405.167 748.037C405.167 744.669 407.901 741.935 411.27 741.935C414.638 741.935 417.372 744.669 417.372 748.037C417.372 751.406 414.638 754.14 411.27 754.14ZM427.97 754.14C424.602 754.14 421.868 751.406 421.868 748.037C421.868 744.669 424.602 741.935 427.97 741.935C431.338 741.935 434.073 744.669 434.073 748.037C434.073 751.406 431.338 754.14 427.97 754.14ZM444.671 754.14C441.302 754.14 438.568 751.406 438.568 748.037C438.568 744.669 441.302 741.935 444.671 741.935C448.039 741.935 450.773 744.669 450.773 748.037C450.773 751.406 448.039 754.14 444.671 754.14Z" fill="#F3F3F3"/>
<path d="M781.276 535.455H654.973V536.414H781.276V535.455Z" fill="url(#paint9_linear_563_13531)"/>
<path d="M781.276 492.569H654.973V493.528H781.276V492.569Z" fill="url(#paint10_linear_563_13531)"/>
<path d="M781.276 449.67H654.973V450.628H781.276V449.67Z" fill="url(#paint11_linear_563_13531)"/>
<path d="M781.276 406.77H654.973V407.728H781.276V406.77Z" fill="url(#paint12_linear_563_13531)"/>
<path d="M781.276 363.884H654.973V364.842H781.276V363.884Z" fill="url(#paint13_linear_563_13531)"/>
<path d="M682.493 364.363H674.023V535.328H682.493V364.363Z" fill="url(#paint14_linear_563_13531)"/>
<path d="M704.704 364.363H696.234V535.328H704.704V364.363Z" fill="url(#paint15_linear_563_13531)"/>
<path d="M726.915 364.363H718.445V535.328H726.915V364.363Z" fill="url(#paint16_linear_563_13531)"/>
<path d="M749.126 364.363H740.656V535.328H749.126V364.363Z" fill="url(#paint17_linear_563_13531)"/>
<path d="M771.353 364.363H762.883V535.328H771.353V364.363Z" fill="url(#paint18_linear_563_13531)"/>
<path d="M682.493 456.829H674.023V535.314H682.493V456.829Z" fill="url(#paint19_linear_563_13531)"/>
<path d="M704.704 478.857H696.234V535.314H704.704V478.857Z" fill="url(#paint20_linear_563_13531)"/>
<path d="M726.915 416.367H718.445V535.314H726.915V416.367Z" fill="url(#paint21_linear_563_13531)"/>
<path d="M749.126 438.677H740.656V535.314H749.126V438.677Z" fill="url(#paint22_linear_563_13531)"/>
<path d="M771.353 489.455H762.883V535.328H771.353V489.455Z" fill="url(#paint23_linear_563_13531)"/>
<path d="M682.493 364.363H674.023V392.451H682.493V364.363Z" fill="url(#paint24_linear_563_13531)"/>
<path d="M704.704 364.363H696.234V412.21H704.704V364.363Z" fill="url(#paint25_linear_563_13531)"/>
<path d="M726.915 364.363H718.445V386.926H726.915V364.363Z" fill="url(#paint26_linear_563_13531)"/>
<path d="M749.126 364.363H740.656V392.451H749.126V364.363Z" fill="url(#paint27_linear_563_13531)"/>
<path d="M771.353 364.363H762.883V412.21H771.353V364.363Z" fill="url(#paint28_linear_563_13531)"/>
<g opacity="0.4" filter="url(#filter7_d_563_13531)">
<path d="M373.87 387.391H138.161C129.669 387.391 122.785 394.275 122.785 402.767V547.237C122.785 555.729 129.669 562.613 138.161 562.613H373.87C382.362 562.613 389.246 555.729 389.246 547.237V402.767C389.246 394.275 382.362 387.391 373.87 387.391Z" fill="white"/>
</g>
<path d="M133.848 549.858C135.398 547.914 214.644 469.062 214.644 469.062L272.13 529.649L311.366 485.762L376.618 549.844H133.848V549.858Z" fill="url(#paint29_linear_563_13531)"/>
<path d="M272.776 472.19C287.767 472.19 299.92 460.038 299.92 445.047C299.92 430.056 287.767 417.903 272.776 417.903C257.785 417.903 245.633 430.056 245.633 445.047C245.633 460.038 257.785 472.19 272.776 472.19Z" fill="url(#paint30_linear_563_13531)"/>
<g opacity="0.4" filter="url(#filter8_d_563_13531)">
<path d="M840.844 580.708H614.647C607.775 580.708 602.203 586.28 602.203 593.153V695.033C602.203 701.905 607.775 707.477 614.647 707.477H840.844C847.717 707.477 853.288 701.905 853.288 695.033V593.153C853.288 586.28 847.717 580.708 840.844 580.708Z" fill="white"/>
</g>
<g filter="url(#filter9_d_563_13531)">
<path d="M727.743 669.397C747.607 669.397 763.709 653.295 763.709 633.431C763.709 613.568 747.607 597.465 727.743 597.465C707.88 597.465 691.777 613.568 691.777 633.431C691.777 653.295 707.88 669.397 727.743 669.397Z" fill="url(#paint31_linear_563_13531)"/>
<path d="M715.887 615.251L747.385 633.431L715.887 651.626V615.251Z" fill="white"/>
</g>
<path d="M828.556 687.902H626.938C625.416 687.902 624.176 686.661 624.176 685.139C624.176 683.617 625.416 682.377 626.938 682.377H828.556C830.078 682.377 831.318 683.617 831.318 685.139C831.318 686.661 830.078 687.902 828.556 687.902Z" fill="url(#paint32_linear_563_13531)"/>
<path d="M670.319 685.139C670.319 688.62 667.5 691.453 664.005 691.453C660.51 691.453 657.691 688.634 657.691 685.139C657.691 681.644 660.51 678.826 664.005 678.826C667.5 678.826 670.319 681.644 670.319 685.139Z" fill="white"/>
<g opacity="0.4" filter="url(#filter10_d_563_13531)">
<path d="M291.939 599.974H163.042C156.169 599.974 150.598 605.545 150.598 612.418V730.787C150.598 737.66 156.169 743.232 163.042 743.232H291.939C298.811 743.232 304.383 737.66 304.383 730.787V612.418C304.383 605.545 298.811 599.974 291.939 599.974Z" fill="white"/>
</g>
<g filter="url(#filter11_d_563_13531)">
<path d="M206.294 660.998H180.785C180.785 635.235 201.742 614.293 227.49 614.293V639.801C215.807 639.801 206.294 649.314 206.294 660.998Z" fill="url(#paint33_linear_563_13531)"/>
<path d="M248.691 660.997C248.691 672.681 239.178 682.194 227.495 682.194L221.012 694.948L227.495 707.702C253.257 707.702 274.2 686.746 274.2 660.997H248.691Z" fill="url(#paint34_linear_563_13531)"/>
<path d="M206.294 660.997L193.54 654.515L180.785 660.997C180.785 686.76 201.742 707.702 227.49 707.702V682.194C215.807 682.194 206.294 672.681 206.294 660.997Z" fill="url(#paint35_linear_563_13531)"/>
<path d="M274.213 660.998C274.213 635.235 253.256 614.293 227.508 614.293V639.801C239.191 639.801 248.704 649.314 248.704 660.998L261.458 667.481L274.213 660.998Z" fill="#F3F3F3"/>
</g>
<path d="M233.173 718.738H164.074V723.403H233.173V718.738Z" fill="#F3F3F3"/>
<path d="M233.173 729.491H164.074V734.156H233.173V729.491Z" fill="#F3F3F3"/>
<path d="M259.399 718.738H245.137V723.403H259.399V718.738Z" fill="url(#paint36_linear_563_13531)"/>
<path d="M279.962 718.738H265.699V723.403H279.962V718.738Z" fill="#F3F3F3"/>
<path d="M259.399 729.491H245.137V734.156H259.399V729.491Z" fill="url(#paint37_linear_563_13531)"/>
<path d="M279.962 729.491H265.699V734.156H279.962V729.491Z" fill="url(#paint38_linear_563_13531)"/>
<g filter="url(#filter12_d_563_13531)">
<path d="M140.544 553.678H68.0485C62.4989 553.678 58 558.176 58 563.726V636.222C58 641.771 62.4989 646.27 68.0485 646.27H140.544C146.094 646.27 150.593 641.771 150.593 636.222V563.726C150.593 558.176 146.094 553.678 140.544 553.678Z" fill="url(#paint39_linear_563_13531)"/>
</g>
<g filter="url(#filter13_d_563_13531)">
<path d="M112.895 579.482C103.467 571.139 89.0212 572.027 80.678 581.455C72.3348 590.884 73.2227 605.329 82.651 613.672C91.0083 621.057 103.298 621.198 111.796 614.574L130.568 631.176L136.121 624.905L117.349 608.303C122.887 599.058 121.252 586.881 112.909 579.496L112.895 579.482ZM111.148 608.416C104.622 615.786 93.3055 616.477 85.9348 609.952C78.564 603.427 77.8734 592.124 84.3986 584.739C90.9238 577.368 102.241 576.678 109.611 583.203C116.982 589.728 117.673 601.045 111.148 608.416Z" fill="#F3F3F3"/>
</g>
<g filter="url(#filter14_d_563_13531)">
<path d="M877.235 664.915H804.74C799.19 664.915 794.691 669.414 794.691 674.964V747.459C794.691 753.009 799.19 757.508 804.74 757.508H877.235C882.785 757.508 887.284 753.009 887.284 747.459V674.964C887.284 669.414 882.785 664.915 877.235 664.915Z" fill="url(#paint40_linear_563_13531)"/>
</g>
<path d="M855.222 698.062C855.222 705.687 848.852 711.874 840.988 711.874C833.124 711.874 826.754 705.687 826.754 698.062C826.754 690.438 833.124 684.251 840.988 684.251C848.852 684.251 855.222 690.438 855.222 698.062Z" fill="white"/>
<path d="M819.328 736.72C819.328 737.213 819.441 737.693 819.483 738.172H862.496C862.538 737.679 862.651 737.213 862.651 736.72C862.651 725.389 853.377 716.215 841.807 715.792H840.186C828.601 716.215 819.342 725.389 819.342 736.72H819.328Z" fill="white"/>
<g filter="url(#filter15_d_563_13531)">
<path d="M793.888 737.27H721.392C715.843 737.27 711.344 741.769 711.344 747.318V819.814C711.344 825.363 715.843 829.862 721.392 829.862H793.888C799.437 829.862 803.936 825.363 803.936 819.814V747.318C803.936 741.769 799.437 737.27 793.888 737.27Z" fill="url(#paint41_linear_563_13531)"/>
</g>
<path d="M757.637 750.348C743.854 750.348 732.664 761.524 732.664 775.321C732.664 789.119 757.637 816.784 757.637 816.784C757.637 816.784 782.61 789.119 782.61 775.321C782.61 761.524 771.434 750.348 757.637 750.348ZM757.637 787.117C751.197 787.117 745.982 781.903 745.982 775.462C745.982 769.022 751.197 763.807 757.637 763.807C764.078 763.807 769.292 769.022 769.292 775.462C769.292 781.903 764.078 787.117 757.637 787.117Z" fill="white"/>
<g filter="url(#filter16_d_563_13531)">
<path d="M151.157 715.116H72.672C68.4845 715.116 65.0898 718.51 65.0898 722.698V794.771C65.0898 798.958 68.4845 802.353 72.672 802.353H151.157C155.345 802.353 158.739 798.958 158.739 794.771V722.698C158.739 718.51 155.345 715.116 151.157 715.116Z" fill="url(#paint42_linear_563_13531)"/>
</g>
<path d="M123.204 785.596H101.219V794.066H123.204V785.596Z" fill="#F3F3F3"/>
<path d="M128.734 764.668L113.345 733.071C113.204 732.775 112.767 732.888 112.767 733.212V757.663C114.162 758.044 115.149 759.425 114.881 761.004C114.669 762.173 113.711 763.146 112.541 763.357C110.681 763.681 109.074 762.272 109.074 760.482C109.074 759.129 109.99 758.016 111.231 757.663V733.24C111.231 732.916 110.794 732.817 110.653 733.113L95.263 764.71C94.5302 766.218 94.502 767.98 95.1785 769.516L101.337 783.37L112.104 783.2V783.172L122.688 783.341L128.847 769.488C129.524 767.952 129.495 766.19 128.763 764.682L128.734 764.668Z" fill="#F3F3F3"/>
<path d="M79.1593 727.997C79.1593 729.575 77.8769 730.858 76.2984 730.858C74.72 730.858 73.4375 729.575 73.4375 727.997C73.4375 726.419 74.72 725.136 76.2984 725.136C77.8769 725.136 79.1593 726.419 79.1593 727.997Z" fill="#F3F3F3"/>
<path d="M150.878 727.997C150.878 729.575 149.596 730.858 148.017 730.858C146.439 730.858 145.156 729.575 145.156 727.997C145.156 726.419 146.439 725.136 148.017 725.136C149.596 725.136 150.878 726.419 150.878 727.997Z" fill="#F3F3F3"/>
<path d="M114.327 725.587H109.676V730.238H114.327V725.587Z" fill="#F3F3F3"/>
<path d="M148.02 728.392C147.329 728.392 78.3991 728.279 76.3274 728.392L76.2852 727.617C78.385 727.504 145.173 727.617 148.02 727.617V728.406V728.392Z" fill="#F3F3F3"/>
<path d="M140.964 749.672C136.976 736.946 125.335 728.406 111.988 728.406C98.642 728.406 87.001 736.96 83.0126 749.672L82.2656 749.433C86.3527 736.382 98.3037 727.616 111.988 727.616C125.673 727.616 137.624 736.382 141.711 749.433L140.964 749.672Z" fill="#F3F3F3"/>
<path d="M142.936 746.981H138.285V751.631H142.936V746.981Z" fill="#F3F3F3"/>
<path d="M85.3617 746.981H80.7109V751.631H85.3617V746.981Z" fill="#F3F3F3"/>
<path d="M150.566 582.372H328.733V621.804H431.839" stroke="white" stroke-width="2" stroke-miterlimit="10"/>
<path d="M430.17 627.47C433.136 627.47 435.54 625.066 435.54 622.1C435.54 619.135 433.136 616.731 430.17 616.731C427.205 616.731 424.801 619.135 424.801 622.1C424.801 625.066 427.205 627.47 430.17 627.47Z" fill="white"/>
<path d="M155.248 588.333C158.214 588.333 160.618 585.929 160.618 582.964C160.618 579.998 158.214 577.594 155.248 577.594C152.283 577.594 149.879 579.998 149.879 582.964C149.879 585.929 152.283 588.333 155.248 588.333Z" fill="white"/>
<path d="M548.2 490.385C548.2 493.359 545.79 495.754 542.83 495.754C539.871 495.754 537.461 493.344 537.461 490.385C537.461 487.425 539.871 485.015 542.83 485.015C545.79 485.015 548.2 487.425 548.2 490.385Z" fill="white"/>
<path d="M899.968 714.932C899.968 717.906 897.558 720.316 894.598 720.316C891.639 720.316 889.215 717.906 889.215 714.932C889.215 711.959 891.625 709.563 894.598 709.563C897.572 709.563 899.968 711.973 899.968 714.932Z" fill="white"/>
<path d="M542.824 490.385V565.629H941.212V715.764H894.168" stroke="white" stroke-width="2" stroke-miterlimit="10"/>
<g filter="url(#filter17_d_563_13531)">
<path d="M872.874 536.624L860.5 570.998H880.301L870.408 604.272L907.388 563.204L887.446 563.303L902.019 536.624H872.874Z" fill="url(#paint43_linear_563_13531)"/>
</g>
<path d="M541.376 754.901C544.349 754.901 546.759 752.49 546.759 749.517C546.759 746.544 544.349 744.134 541.376 744.134C538.402 744.134 535.992 746.544 535.992 749.517C535.992 752.49 538.402 754.901 541.376 754.901Z" fill="white"/>
<path d="M699.688 763.16C701.435 760.75 704.789 760.214 707.199 761.962C709.609 763.709 710.145 767.063 708.397 769.473C706.65 771.883 703.295 772.419 700.885 770.671C698.476 768.924 697.94 765.569 699.688 763.16Z" fill="white"/>
<path d="M541.371 749.517H667.745V766.176H704.472" stroke="white" stroke-width="2" stroke-miterlimit="10"/>
<g filter="url(#filter18_d_563_13531)">
<path d="M318.188 766.823H217.182C214.115 766.823 211.629 769.31 211.629 772.376V817.869C211.629 820.936 214.115 823.422 217.182 823.422H318.188C321.255 823.422 323.741 820.936 323.741 817.869V772.376C323.741 769.31 321.255 766.823 318.188 766.823Z" fill="url(#paint44_linear_563_13531)"/>
</g>
<path d="M250.853 811.795C250.332 811.795 249.796 811.611 249.374 811.231L232.546 796.475C232.053 796.053 231.785 795.432 231.785 794.784C231.785 794.136 232.067 793.516 232.546 793.093L249.374 778.337C250.304 777.52 251.727 777.619 252.545 778.549C253.362 779.479 253.263 780.902 252.333 781.72L237.437 794.784L252.333 807.849C253.263 808.666 253.362 810.089 252.545 811.02C252.094 811.527 251.473 811.781 250.853 811.781V811.795Z" fill="#EBEBEB"/>
<path d="M284.523 811.795C283.903 811.795 283.283 811.541 282.832 811.034C282.015 810.104 282.113 808.68 283.044 807.863L297.94 794.798L283.044 781.734C282.113 780.917 282.015 779.493 282.832 778.563C283.65 777.633 285.073 777.534 286.003 778.352L302.83 793.107C303.324 793.53 303.591 794.15 303.591 794.798C303.591 795.447 303.31 796.067 302.83 796.49L286.003 811.245C285.58 811.626 285.045 811.809 284.523 811.809V811.795Z" fill="#EBEBEB"/>
<path d="M262.721 817.305C262.524 817.305 262.34 817.277 262.143 817.235C260.945 816.911 260.226 815.685 260.55 814.487L271.177 774.631C271.501 773.433 272.727 772.714 273.925 773.039C275.123 773.363 275.842 774.589 275.518 775.787L264.891 815.642C264.623 816.643 263.707 817.319 262.721 817.319V817.305Z" fill="#EBEBEB"/>
<defs>
<filter id="filter0_d_563_13531" x="650.457" y="784.118" width="83.0898" height="83.0887" filterUnits="userSpaceOnUse" color-interpolation-filters="sRGB">
<feFlood flood-opacity="0" result="BackgroundImageFix"/>
<feColorMatrix in="SourceAlpha" type="matrix" values="0 0 0 0 0 0 0 0 0 0 0 0 0 0 0 0 0 0 127 0" result="hardAlpha"/>
<feOffset dx="1" dy="1"/>
<feGaussianBlur stdDeviation="2"/>
<feColorMatrix type="matrix" values="0 0 0 0 0 0 0 0 0 0 0 0 0 0 0 0 0 0 0.16 0"/>
<feBlend mode="normal" in2="BackgroundImageFix" result="effect1_dropShadow_563_13531"/>
<feBlend mode="normal" in="SourceGraphic" in2="effect1_dropShadow_563_13531" result="shape"/>
</filter>
<filter id="filter1_d_563_13531" x="306.664" y="298" width="123.453" height="123.452" filterUnits="userSpaceOnUse" color-interpolation-filters="sRGB">
<feFlood flood-opacity="0" result="BackgroundImageFix"/>
<feColorMatrix in="SourceAlpha" type="matrix" values="0 0 0 0 0 0 0 0 0 0 0 0 0 0 0 0 0 0 127 0" result="hardAlpha"/>
<feOffset dx="1" dy="1"/>
<feGaussianBlur stdDeviation="2"/>
<feColorMatrix type="matrix" values="0 0 0 0 0 0 0 0 0 0 0 0 0 0 0 0 0 0 0.16 0"/>
<feBlend mode="normal" in2="BackgroundImageFix" result="effect1_dropShadow_563_13531"/>
<feBlend mode="normal" in="SourceGraphic" in2="effect1_dropShadow_563_13531" result="shape"/>
</filter>
<filter id="filter2_d_563_13531" x="637.234" y="341.535" width="165.785" height="221.228" filterUnits="userSpaceOnUse" color-interpolation-filters="sRGB">
<feFlood flood-opacity="0" result="BackgroundImageFix"/>
<feColorMatrix in="SourceAlpha" type="matrix" values="0 0 0 0 0 0 0 0 0 0 0 0 0 0 0 0 0 0 127 0" result="hardAlpha"/>
<feOffset dx="2" dy="2"/>
<feGaussianBlur stdDeviation="3"/>
<feColorMatrix type="matrix" values="0 0 0 0 0 0 0 0 0 0 0 0 0 0 0 0 0 0 0.27 0"/>
<feBlend mode="normal" in2="BackgroundImageFix" result="effect1_dropShadow_563_13531"/>
<feBlend mode="normal" in="SourceGraphic" in2="effect1_dropShadow_563_13531" result="shape"/>
</filter>
<filter id="filter3_d_563_13531" x="348.926" y="356.557" width="278.262" height="523.443" filterUnits="userSpaceOnUse" color-interpolation-filters="sRGB">
<feFlood flood-opacity="0" result="BackgroundImageFix"/>
<feColorMatrix in="SourceAlpha" type="matrix" values="0 0 0 0 0 0 0 0 0 0 0 0 0 0 0 0 0 0 127 0" result="hardAlpha"/>
<feOffset dx="3" dy="4"/>
<feGaussianBlur stdDeviation="3"/>
<feColorMatrix type="matrix" values="0 0 0 0 0 0 0 0 0 0 0 0 0 0 0 0 0 0 0.27 0"/>
<feBlend mode="normal" in2="BackgroundImageFix" result="effect1_dropShadow_563_13531"/>
<feBlend mode="normal" in="SourceGraphic" in2="effect1_dropShadow_563_13531" result="shape"/>
</filter>
<filter id="filter4_d_563_13531" x="377.68" y="441.047" width="104.594" height="104.593" filterUnits="userSpaceOnUse" color-interpolation-filters="sRGB">
<feFlood flood-opacity="0" result="BackgroundImageFix"/>
<feColorMatrix in="SourceAlpha" type="matrix" values="0 0 0 0 0 0 0 0 0 0 0 0 0 0 0 0 0 0 127 0" result="hardAlpha"/>
<feOffset dx="2" dy="2"/>
<feGaussianBlur stdDeviation="3"/>
<feColorMatrix type="matrix" values="0 0 0 0 0 0 0 0 0 0 0 0 0 0 0 0 0 0 0.27 0"/>
<feBlend mode="normal" in2="BackgroundImageFix" result="effect1_dropShadow_563_13531"/>
<feBlend mode="normal" in="SourceGraphic" in2="effect1_dropShadow_563_13531" result="shape"/>
</filter>
<filter id="filter5_d_563_13531" x="491.848" y="570.38" width="104.594" height="104.593" filterUnits="userSpaceOnUse" color-interpolation-filters="sRGB">
<feFlood flood-opacity="0" result="BackgroundImageFix"/>
<feColorMatrix in="SourceAlpha" type="matrix" values="0 0 0 0 0 0 0 0 0 0 0 0 0 0 0 0 0 0 127 0" result="hardAlpha"/>
<feOffset dx="2" dy="2"/>
<feGaussianBlur stdDeviation="3"/>
<feColorMatrix type="matrix" values="0 0 0 0 0 0 0 0 0 0 0 0 0 0 0 0 0 0 0.27 0"/>
<feBlend mode="normal" in2="BackgroundImageFix" result="effect1_dropShadow_563_13531"/>
<feBlend mode="normal" in="SourceGraphic" in2="effect1_dropShadow_563_13531" result="shape"/>
</filter>
<filter id="filter6_d_563_13531" x="377.68" y="699.714" width="104.594" height="104.593" filterUnits="userSpaceOnUse" color-interpolation-filters="sRGB">
<feFlood flood-opacity="0" result="BackgroundImageFix"/>
<feColorMatrix in="SourceAlpha" type="matrix" values="0 0 0 0 0 0 0 0 0 0 0 0 0 0 0 0 0 0 127 0" result="hardAlpha"/>
<feOffset dx="2" dy="2"/>
<feGaussianBlur stdDeviation="3"/>
<feColorMatrix type="matrix" values="0 0 0 0 0 0 0 0 0 0 0 0 0 0 0 0 0 0 0.27 0"/>
<feBlend mode="normal" in2="BackgroundImageFix" result="effect1_dropShadow_563_13531"/>
<feBlend mode="normal" in="SourceGraphic" in2="effect1_dropShadow_563_13531" result="shape"/>
</filter>
<filter id="filter7_d_563_13531" x="118.785" y="383.391" width="278.461" height="187.221" filterUnits="userSpaceOnUse" color-interpolation-filters="sRGB">
<feFlood flood-opacity="0" result="BackgroundImageFix"/>
<feColorMatrix in="SourceAlpha" type="matrix" values="0 0 0 0 0 0 0 0 0 0 0 0 0 0 0 0 0 0 127 0" result="hardAlpha"/>
<feOffset dx="2" dy="2"/>
<feGaussianBlur stdDeviation="3"/>
<feColorMatrix type="matrix" values="0 0 0 0 0 0 0 0 0 0 0 0 0 0 0 0 0 0 0.27 0"/>
<feBlend mode="normal" in2="BackgroundImageFix" result="effect1_dropShadow_563_13531"/>
<feBlend mode="normal" in="SourceGraphic" in2="effect1_dropShadow_563_13531" result="shape"/>
</filter>
<filter id="filter8_d_563_13531" x="598.203" y="576.708" width="263.086" height="138.769" filterUnits="userSpaceOnUse" color-interpolation-filters="sRGB">
<feFlood flood-opacity="0" result="BackgroundImageFix"/>
<feColorMatrix in="SourceAlpha" type="matrix" values="0 0 0 0 0 0 0 0 0 0 0 0 0 0 0 0 0 0 127 0" result="hardAlpha"/>
<feOffset dx="2" dy="2"/>
<feGaussianBlur stdDeviation="3"/>
<feColorMatrix type="matrix" values="0 0 0 0 0 0 0 0 0 0 0 0 0 0 0 0 0 0 0.27 0"/>
<feBlend mode="normal" in2="BackgroundImageFix" result="effect1_dropShadow_563_13531"/>
<feBlend mode="normal" in="SourceGraphic" in2="effect1_dropShadow_563_13531" result="shape"/>
</filter>
<filter id="filter9_d_563_13531" x="687.777" y="593.465" width="83.9336" height="83.9318" filterUnits="userSpaceOnUse" color-interpolation-filters="sRGB">
<feFlood flood-opacity="0" result="BackgroundImageFix"/>
<feColorMatrix in="SourceAlpha" type="matrix" values="0 0 0 0 0 0 0 0 0 0 0 0 0 0 0 0 0 0 127 0" result="hardAlpha"/>
<feOffset dx="2" dy="2"/>
<feGaussianBlur stdDeviation="3"/>
<feColorMatrix type="matrix" values="0 0 0 0 0 0 0 0 0 0 0 0 0 0 0 0 0 0 0.27 0"/>
<feBlend mode="normal" in2="BackgroundImageFix" result="effect1_dropShadow_563_13531"/>
<feBlend mode="normal" in="SourceGraphic" in2="effect1_dropShadow_563_13531" result="shape"/>
</filter>
<filter id="filter10_d_563_13531" x="146.598" y="595.974" width="165.785" height="155.258" filterUnits="userSpaceOnUse" color-interpolation-filters="sRGB">
<feFlood flood-opacity="0" result="BackgroundImageFix"/>
<feColorMatrix in="SourceAlpha" type="matrix" values="0 0 0 0 0 0 0 0 0 0 0 0 0 0 0 0 0 0 127 0" result="hardAlpha"/>
<feOffset dx="2" dy="2"/>
<feGaussianBlur stdDeviation="3"/>
<feColorMatrix type="matrix" values="0 0 0 0 0 0 0 0 0 0 0 0 0 0 0 0 0 0 0.27 0"/>
<feBlend mode="normal" in2="BackgroundImageFix" result="effect1_dropShadow_563_13531"/>
<feBlend mode="normal" in="SourceGraphic" in2="effect1_dropShadow_563_13531" result="shape"/>
</filter>
<filter id="filter11_d_563_13531" x="176.785" y="610.293" width="105.426" height="105.41" filterUnits="userSpaceOnUse" color-interpolation-filters="sRGB">
<feFlood flood-opacity="0" result="BackgroundImageFix"/>
<feColorMatrix in="SourceAlpha" type="matrix" values="0 0 0 0 0 0 0 0 0 0 0 0 0 0 0 0 0 0 127 0" result="hardAlpha"/>
<feOffset dx="2" dy="2"/>
<feGaussianBlur stdDeviation="3"/>
<feColorMatrix type="matrix" values="0 0 0 0 0 0 0 0 0 0 0 0 0 0 0 0 0 0 0.27 0"/>
<feBlend mode="normal" in2="BackgroundImageFix" result="effect1_dropShadow_563_13531"/>
<feBlend mode="normal" in="SourceGraphic" in2="effect1_dropShadow_563_13531" result="shape"/>
</filter>
<filter id="filter12_d_563_13531" x="54" y="549.678" width="104.594" height="104.593" filterUnits="userSpaceOnUse" color-interpolation-filters="sRGB">
<feFlood flood-opacity="0" result="BackgroundImageFix"/>
<feColorMatrix in="SourceAlpha" type="matrix" values="0 0 0 0 0 0 0 0 0 0 0 0 0 0 0 0 0 0 127 0" result="hardAlpha"/>
<feOffset dx="2" dy="2"/>
<feGaussianBlur stdDeviation="3"/>
<feColorMatrix type="matrix" values="0 0 0 0 0 0 0 0 0 0 0 0 0 0 0 0 0 0 0.27 0"/>
<feBlend mode="normal" in2="BackgroundImageFix" result="effect1_dropShadow_563_13531"/>
<feBlend mode="normal" in="SourceGraphic" in2="effect1_dropShadow_563_13531" result="shape"/>
</filter>
<filter id="filter13_d_563_13531" x="57.957" y="556.761" width="97.1641" height="93.4149" filterUnits="userSpaceOnUse" color-interpolation-filters="sRGB">
<feFlood flood-opacity="0" result="BackgroundImageFix"/>
<feColorMatrix in="SourceAlpha" type="matrix" values="0 0 0 0 0 0 0 0 0 0 0 0 0 0 0 0 0 0 127 0" result="hardAlpha"/>
<feOffset dx="1" dy="1"/>
<feGaussianBlur stdDeviation="9"/>
<feColorMatrix type="matrix" values="0 0 0 0 0 0 0 0 0 0 0 0 0 0 0 0 0 0 0.65 0"/>
<feBlend mode="normal" in2="BackgroundImageFix" result="effect1_dropShadow_563_13531"/>
<feBlend mode="normal" in="SourceGraphic" in2="effect1_dropShadow_563_13531" result="shape"/>
</filter>
<filter id="filter14_d_563_13531" x="790.691" y="660.915" width="104.594" height="104.593" filterUnits="userSpaceOnUse" color-interpolation-filters="sRGB">
<feFlood flood-opacity="0" result="BackgroundImageFix"/>
<feColorMatrix in="SourceAlpha" type="matrix" values="0 0 0 0 0 0 0 0 0 0 0 0 0 0 0 0 0 0 127 0" result="hardAlpha"/>
<feOffset dx="2" dy="2"/>
<feGaussianBlur stdDeviation="3"/>
<feColorMatrix type="matrix" values="0 0 0 0 0 0 0 0 0 0 0 0 0 0 0 0 0 0 0.27 0"/>
<feBlend mode="normal" in2="BackgroundImageFix" result="effect1_dropShadow_563_13531"/>
<feBlend mode="normal" in="SourceGraphic" in2="effect1_dropShadow_563_13531" result="shape"/>
</filter>
<filter id="filter15_d_563_13531" x="707.344" y="733.27" width="104.594" height="104.593" filterUnits="userSpaceOnUse" color-interpolation-filters="sRGB">
<feFlood flood-opacity="0" result="BackgroundImageFix"/>
<feColorMatrix in="SourceAlpha" type="matrix" values="0 0 0 0 0 0 0 0 0 0 0 0 0 0 0 0 0 0 127 0" result="hardAlpha"/>
<feOffset dx="2" dy="2"/>
<feGaussianBlur stdDeviation="3"/>
<feColorMatrix type="matrix" values="0 0 0 0 0 0 0 0 0 0 0 0 0 0 0 0 0 0 0.27 0"/>
<feBlend mode="normal" in2="BackgroundImageFix" result="effect1_dropShadow_563_13531"/>
<feBlend mode="normal" in="SourceGraphic" in2="effect1_dropShadow_563_13531" result="shape"/>
</filter>
<filter id="filter16_d_563_13531" x="61.0898" y="711.116" width="105.648" height="99.2372" filterUnits="userSpaceOnUse" color-interpolation-filters="sRGB">
<feFlood flood-opacity="0" result="BackgroundImageFix"/>
<feColorMatrix in="SourceAlpha" type="matrix" values="0 0 0 0 0 0 0 0 0 0 0 0 0 0 0 0 0 0 127 0" result="hardAlpha"/>
<feOffset dx="2" dy="2"/>
<feGaussianBlur stdDeviation="3"/>
<feColorMatrix type="matrix" values="0 0 0 0 0 0 0 0 0 0 0 0 0 0 0 0 0 0 0.27 0"/>
<feBlend mode="normal" in2="BackgroundImageFix" result="effect1_dropShadow_563_13531"/>
<feBlend mode="normal" in="SourceGraphic" in2="effect1_dropShadow_563_13531" result="shape"/>
</filter>
<filter id="filter17_d_563_13531" x="856.5" y="532.624" width="58.8867" height="79.6475" filterUnits="userSpaceOnUse" color-interpolation-filters="sRGB">
<feFlood flood-opacity="0" result="BackgroundImageFix"/>
<feColorMatrix in="SourceAlpha" type="matrix" values="0 0 0 0 0 0 0 0 0 0 0 0 0 0 0 0 0 0 127 0" result="hardAlpha"/>
<feOffset dx="2" dy="2"/>
<feGaussianBlur stdDeviation="3"/>
<feColorMatrix type="matrix" values="0 0 0 0 0 0 0 0 0 0 0 0 0 0 0 0 0 0 0.27 0"/>
<feBlend mode="normal" in2="BackgroundImageFix" result="effect1_dropShadow_563_13531"/>
<feBlend mode="normal" in="SourceGraphic" in2="effect1_dropShadow_563_13531" result="shape"/>
</filter>
<filter id="filter18_d_563_13531" x="207.629" y="762.823" width="124.113" height="68.5984" filterUnits="userSpaceOnUse" color-interpolation-filters="sRGB">
<feFlood flood-opacity="0" result="BackgroundImageFix"/>
<feColorMatrix in="SourceAlpha" type="matrix" values="0 0 0 0 0 0 0 0 0 0 0 0 0 0 0 0 0 0 127 0" result="hardAlpha"/>
<feOffset dx="2" dy="2"/>
<feGaussianBlur stdDeviation="3"/>
<feColorMatrix type="matrix" values="0 0 0 0 0 0 0 0 0 0 0 0 0 0 0 0 0 0 0.27 0"/>
<feBlend mode="normal" in2="BackgroundImageFix" result="effect1_dropShadow_563_13531"/>
<feBlend mode="normal" in="SourceGraphic" in2="effect1_dropShadow_563_13531" result="shape"/>
</filter>
<linearGradient id="paint0_linear_563_13531" x1="688.416" y1="787.528" x2="693.558" y2="861.797" gradientUnits="userSpaceOnUse">
<stop stop-color="#B867C7"/>
<stop offset="1" stop-color="#603C93"/>
</linearGradient>
<linearGradient id="paint1_linear_563_13531" x1="363.415" y1="301.63" x2="371.32" y2="415.822" gradientUnits="userSpaceOnUse">
<stop stop-color="#B867C7"/>
<stop offset="1" stop-color="#603C93"/>
</linearGradient>
<linearGradient id="paint2_linear_563_13531" x1="312.666" y1="786.681" x2="657.457" y2="441.89" gradientUnits="userSpaceOnUse">
<stop stop-color="#10284B"/>
<stop offset="1" stop-color="#6498FF"/>
</linearGradient>
<linearGradient id="paint3_linear_563_13531" x1="351.926" y1="614.278" x2="618.189" y2="614.278" gradientUnits="userSpaceOnUse">
<stop stop-color="#29004C"/>
<stop offset="0.31" stop-color="#45008D"/>
<stop offset="1" stop-color="#29004C"/>
</linearGradient>
<linearGradient id="paint4_linear_563_13531" x1="456.73" y1="374.285" x2="497.249" y2="374.285" gradientUnits="userSpaceOnUse">
<stop stop-color="#CED5F5"/>
<stop offset="1" stop-color="#FCF9FE"/>
</linearGradient>
<linearGradient id="paint5_linear_563_13531" x1="508.732" y1="374.285" x2="513.397" y2="374.285" gradientUnits="userSpaceOnUse">
<stop stop-color="#CED5F5"/>
<stop offset="1" stop-color="#FCF9FE"/>
</linearGradient>
<linearGradient id="paint6_linear_563_13531" x1="424.788" y1="445.552" x2="431.128" y2="537.134" gradientUnits="userSpaceOnUse">
<stop stop-color="#B867C7"/>
<stop offset="1" stop-color="#603C93"/>
</linearGradient>
<linearGradient id="paint7_linear_563_13531" x1="538.956" y1="574.886" x2="545.296" y2="666.468" gradientUnits="userSpaceOnUse">
<stop stop-color="#B867C7"/>
<stop offset="1" stop-color="#603C93"/>
</linearGradient>
<linearGradient id="paint8_linear_563_13531" x1="424.788" y1="704.219" x2="431.128" y2="795.802" gradientUnits="userSpaceOnUse">
<stop stop-color="#B867C7"/>
<stop offset="1" stop-color="#603C93"/>
</linearGradient>
<linearGradient id="paint9_linear_563_13531" x1="654.973" y1="535.934" x2="781.276" y2="535.934" gradientUnits="userSpaceOnUse">
<stop stop-color="#A01EB8"/>
<stop offset="1" stop-color="#5A20BD"/>
</linearGradient>
<linearGradient id="paint10_linear_563_13531" x1="654.973" y1="493.049" x2="781.276" y2="493.049" gradientUnits="userSpaceOnUse">
<stop stop-color="#A01EB8"/>
<stop offset="1" stop-color="#5A20BD"/>
</linearGradient>
<linearGradient id="paint11_linear_563_13531" x1="654.973" y1="450.149" x2="781.276" y2="450.149" gradientUnits="userSpaceOnUse">
<stop stop-color="#A01EB8"/>
<stop offset="1" stop-color="#5A20BD"/>
</linearGradient>
<linearGradient id="paint12_linear_563_13531" x1="654.973" y1="407.249" x2="781.276" y2="407.249" gradientUnits="userSpaceOnUse">
<stop stop-color="#A01EB8"/>
<stop offset="1" stop-color="#5A20BD"/>
</linearGradient>
<linearGradient id="paint13_linear_563_13531" x1="654.973" y1="364.363" x2="781.276" y2="364.363" gradientUnits="userSpaceOnUse">
<stop stop-color="#A01EB8"/>
<stop offset="1" stop-color="#5A20BD"/>
</linearGradient>
<linearGradient id="paint14_linear_563_13531" x1="678.251" y1="535.314" x2="678.251" y2="364.363" gradientUnits="userSpaceOnUse">
<stop stop-color="#CED5F5"/>
<stop offset="1" stop-color="#FCF9FE"/>
</linearGradient>
<linearGradient id="paint15_linear_563_13531" x1="700.476" y1="535.314" x2="700.476" y2="364.363" gradientUnits="userSpaceOnUse">
<stop stop-color="#CED5F5"/>
<stop offset="1" stop-color="#FCF9FE"/>
</linearGradient>
<linearGradient id="paint16_linear_563_13531" x1="722.687" y1="535.314" x2="722.687" y2="364.363" gradientUnits="userSpaceOnUse">
<stop stop-color="#CED5F5"/>
<stop offset="1" stop-color="#FCF9FE"/>
</linearGradient>
<linearGradient id="paint17_linear_563_13531" x1="744.898" y1="535.314" x2="744.898" y2="364.363" gradientUnits="userSpaceOnUse">
<stop stop-color="#CED5F5"/>
<stop offset="1" stop-color="#FCF9FE"/>
</linearGradient>
<linearGradient id="paint18_linear_563_13531" x1="767.111" y1="535.314" x2="767.111" y2="364.363" gradientUnits="userSpaceOnUse">
<stop stop-color="#CED5F5"/>
<stop offset="1" stop-color="#FCF9FE"/>
</linearGradient>
<linearGradient id="paint19_linear_563_13531" x1="677.967" y1="457.257" x2="713.415" y2="512.519" gradientUnits="userSpaceOnUse">
<stop stop-color="#B867C7"/>
<stop offset="1" stop-color="#603C93"/>
</linearGradient>
<linearGradient id="paint20_linear_563_13531" x1="700.178" y1="479.165" x2="721.523" y2="525.424" gradientUnits="userSpaceOnUse">
<stop stop-color="#B867C7"/>
<stop offset="1" stop-color="#603C93"/>
</linearGradient>
<linearGradient id="paint21_linear_563_13531" x1="722.389" y1="417.017" x2="781.472" y2="477.792" gradientUnits="userSpaceOnUse">
<stop stop-color="#B867C7"/>
<stop offset="1" stop-color="#603C93"/>
</linearGradient>
<linearGradient id="paint22_linear_563_13531" x1="744.6" y1="439.204" x2="791.314" y2="498.35" gradientUnits="userSpaceOnUse">
<stop stop-color="#B867C7"/>
<stop offset="1" stop-color="#603C93"/>
</linearGradient>
<linearGradient id="paint23_linear_563_13531" x1="766.826" y1="489.705" x2="781.813" y2="529.677" gradientUnits="userSpaceOnUse">
<stop stop-color="#B867C7"/>
<stop offset="1" stop-color="#603C93"/>
</linearGradient>
<linearGradient id="paint24_linear_563_13531" x1="678.251" y1="392.451" x2="678.251" y2="364.363" gradientUnits="userSpaceOnUse">
<stop stop-color="#E06CB3"/>
<stop offset="1" stop-color="#EDB971"/>
</linearGradient>
<linearGradient id="paint25_linear_563_13531" x1="700.476" y1="412.21" x2="700.476" y2="364.363" gradientUnits="userSpaceOnUse">
<stop stop-color="#E06CB3"/>
<stop offset="1" stop-color="#EDB971"/>
</linearGradient>
<linearGradient id="paint26_linear_563_13531" x1="722.687" y1="386.926" x2="722.687" y2="364.363" gradientUnits="userSpaceOnUse">
<stop stop-color="#E06CB3"/>
<stop offset="1" stop-color="#EDB971"/>
</linearGradient>
<linearGradient id="paint27_linear_563_13531" x1="744.898" y1="392.451" x2="744.898" y2="364.363" gradientUnits="userSpaceOnUse">
<stop stop-color="#E06CB3"/>
<stop offset="1" stop-color="#EDB971"/>
</linearGradient>
<linearGradient id="paint28_linear_563_13531" x1="767.111" y1="412.21" x2="767.111" y2="364.363" gradientUnits="userSpaceOnUse">
<stop stop-color="#E06CB3"/>
<stop offset="1" stop-color="#EDB971"/>
</linearGradient>
<linearGradient id="paint29_linear_563_13531" x1="246.875" y1="469.503" x2="248.723" y2="549.758" gradientUnits="userSpaceOnUse">
<stop stop-color="#B867C7"/>
<stop offset="1" stop-color="#603C93"/>
</linearGradient>
<linearGradient id="paint30_linear_563_13531" x1="272.776" y1="472.19" x2="272.776" y2="417.903" gradientUnits="userSpaceOnUse">
<stop stop-color="#E06CB3"/>
<stop offset="1" stop-color="#EDB971"/>
</linearGradient>
<linearGradient id="paint31_linear_563_13531" x1="691.777" y1="633.431" x2="763.723" y2="633.431" gradientUnits="userSpaceOnUse">
<stop stop-color="#E06CB3"/>
<stop offset="1" stop-color="#EDB971"/>
</linearGradient>
<linearGradient id="paint32_linear_563_13531" x1="624.19" y1="685.139" x2="831.318" y2="685.139" gradientUnits="userSpaceOnUse">
<stop stop-color="#E06CB3"/>
<stop offset="1" stop-color="#EDB971"/>
</linearGradient>
<linearGradient id="paint33_linear_563_13531" x1="180.785" y1="637.631" x2="227.49" y2="637.631" gradientUnits="userSpaceOnUse">
<stop stop-color="#E06CB3"/>
<stop offset="1" stop-color="#EDB971"/>
</linearGradient>
<linearGradient id="paint34_linear_563_13531" x1="221.026" y1="684.35" x2="274.214" y2="684.35" gradientUnits="userSpaceOnUse">
<stop stop-color="#E06CB3"/>
<stop offset="1" stop-color="#EDB971"/>
</linearGradient>
<linearGradient id="paint35_linear_563_13531" x1="202.53" y1="654.805" x2="206.671" y2="707.338" gradientUnits="userSpaceOnUse">
<stop stop-color="#B867C7"/>
<stop offset="1" stop-color="#603C93"/>
</linearGradient>
<linearGradient id="paint36_linear_563_13531" x1="245.137" y1="721.063" x2="259.399" y2="721.063" gradientUnits="userSpaceOnUse">
<stop stop-color="#E06CB3"/>
<stop offset="1" stop-color="#EDB971"/>
</linearGradient>
<linearGradient id="paint37_linear_563_13531" x1="245.137" y1="731.816" x2="259.399" y2="731.816" gradientUnits="userSpaceOnUse">
<stop stop-color="#A01EB8"/>
<stop offset="1" stop-color="#5A20BD"/>
</linearGradient>
<linearGradient id="paint38_linear_563_13531" x1="265.699" y1="731.816" x2="279.962" y2="731.816" gradientUnits="userSpaceOnUse">
<stop stop-color="#E06CB3"/>
<stop offset="1" stop-color="#EDB971"/>
</linearGradient>
<linearGradient id="paint39_linear_563_13531" x1="60.9455" y1="643.339" x2="147.647" y2="556.623" gradientUnits="userSpaceOnUse">
<stop stop-color="#E06CB3"/>
<stop offset="1" stop-color="#EDB971"/>
</linearGradient>
<linearGradient id="paint40_linear_563_13531" x1="837.8" y1="665.421" x2="844.14" y2="757.003" gradientUnits="userSpaceOnUse">
<stop stop-color="#B867C7"/>
<stop offset="1" stop-color="#603C93"/>
</linearGradient>
<linearGradient id="paint41_linear_563_13531" x1="711.344" y1="783.566" x2="803.922" y2="783.566" gradientUnits="userSpaceOnUse">
<stop stop-color="#E06CB3"/>
<stop offset="1" stop-color="#EDB971"/>
</linearGradient>
<linearGradient id="paint42_linear_563_13531" x1="108.69" y1="715.592" x2="114.258" y2="801.931" gradientUnits="userSpaceOnUse">
<stop stop-color="#B867C7"/>
<stop offset="1" stop-color="#603C93"/>
</linearGradient>
<linearGradient id="paint43_linear_563_13531" x1="883.951" y1="604.272" x2="883.951" y2="536.624" gradientUnits="userSpaceOnUse">
<stop stop-color="#E06CB3"/>
<stop offset="1" stop-color="#EDB971"/>
</linearGradient>
<linearGradient id="paint44_linear_563_13531" x1="211.629" y1="795.123" x2="323.741" y2="795.123" gradientUnits="userSpaceOnUse">
<stop stop-color="#E06CB3"/>
<stop offset="1" stop-color="#EDB971"/>
</linearGradient>
</defs>
</svg>
