<svg width="120" height="120" viewBox="0 0 120 120" fill="none" xmlns="http://www.w3.org/2000/svg">
<g clip-path="url(#clip0_437_18361)">
<path d="M56.2489 15.1224L63.7201 20.5296L60.8545 29.2944C60.6289 29.988 60.8737 30.7464 61.4641 31.176C61.7593 31.3896 62.1049 31.4976 62.4505 31.4976C62.7985 31.4976 63.1465 31.3896 63.4417 31.176L70.8913 25.74L78.3409 31.176C78.9289 31.6056 79.7281 31.6056 80.3185 31.1784C80.9089 30.7488 81.1537 29.9904 80.9281 29.2968L78.0625 20.532L85.5337 15.1248C86.1241 14.6976 86.3713 13.9368 86.1457 13.2456C85.9201 12.5544 85.2745 12.084 84.5473 12.084H84.5449L75.3217 12.1008L72.4897 3.324C72.2665 2.6304 71.6209 2.16 70.8913 2.16C70.1617 2.16 69.5161 2.6304 69.2929 3.324L66.4609 12.1008L57.2377 12.084H57.2353C56.5081 12.084 55.8625 12.552 55.6369 13.2456C55.4113 13.9344 55.6585 14.6952 56.2489 15.1224ZM67.6777 15.4608H67.6801C68.4097 15.4608 69.0553 14.9904 69.2785 14.2968L70.8889 9.3072L72.4993 14.2968C72.7225 14.9904 73.368 15.4608 74.0976 15.4608H74.1001L79.3441 15.4512L75.0961 18.5256C74.5057 18.9528 74.2561 19.716 74.4841 20.4096L76.1137 25.392L71.8801 22.3008C71.5849 22.0848 71.2369 21.9792 70.8889 21.9792C70.5409 21.9792 70.1928 22.0872 69.8977 22.3008L65.6641 25.392L67.2937 20.4096C67.5217 19.716 67.2745 18.9552 66.6817 18.5256L62.4337 15.4512L67.6777 15.4608ZM22.4761 15.1224L29.9473 20.5296L27.0816 29.2944C26.8561 29.988 27.1008 30.7464 27.6912 31.176C28.2817 31.6056 29.0809 31.6032 29.6689 31.1736L37.1185 25.7376L44.5681 31.1736C44.8633 31.3896 45.2113 31.4952 45.5593 31.4952C45.9049 31.4952 46.2529 31.3872 46.5457 31.1736C47.1361 30.744 47.3809 29.9856 47.1553 29.292L44.2896 20.5272L51.7609 15.12C52.3513 14.6928 52.5985 13.932 52.3729 13.2408C52.1473 12.5496 51.5017 12.0792 50.7745 12.0792H50.7721L41.5489 12.096L38.7169 3.3192C38.4937 2.6256 37.8481 2.1552 37.1185 2.1552C36.3889 2.1552 35.7433 2.6256 35.5201 3.3192L32.6881 12.096L23.4648 12.0792H23.4625C22.7353 12.0792 22.0896 12.5472 21.864 13.2408C21.6385 13.9344 21.8857 14.6952 22.4761 15.1224ZM33.9073 15.4608H33.9097C34.6393 15.4608 35.2849 14.9904 35.5081 14.2968L37.1185 9.3072L38.7289 14.2968C38.9521 14.9904 39.5977 15.4608 40.3273 15.4608H40.3297L45.5737 15.4512L41.3257 18.5256C40.7353 18.9528 40.4857 19.716 40.7137 20.4096L42.3433 25.392L38.1073 22.3008C37.5169 21.8712 36.7177 21.8712 36.1273 22.3008L31.8913 25.392L33.5209 20.4096C33.7489 19.716 33.5017 18.9552 32.9089 18.5256L28.6609 15.4512L33.9073 15.4608ZM119.918 13.2408C119.693 12.5496 119.047 12.0792 118.32 12.0792H118.318L109.094 12.096L106.262 3.3192C106.039 2.6256 105.394 2.1552 104.664 2.1552C103.934 2.1552 103.289 2.6256 103.066 3.3192L100.234 12.096L91.0105 12.0792H91.0081C90.2809 12.0792 89.6353 12.5472 89.4097 13.2408C89.1841 13.9344 89.4313 14.6928 90.0217 15.12L97.4929 20.5272L94.6273 29.292C94.4017 29.9856 94.6465 30.744 95.2369 31.1736C95.8273 31.6032 96.6265 31.6008 97.2145 31.1712L104.664 25.7352L112.114 31.1712C112.409 31.3872 112.757 31.4928 113.105 31.4928C113.45 31.4928 113.798 31.3848 114.091 31.1712C114.682 30.7416 114.926 29.9832 114.701 29.2896L111.835 20.5248L119.306 15.1176C119.894 14.6952 120.144 13.9344 119.918 13.2408ZM108.871 18.5256C108.281 18.9528 108.031 19.716 108.259 20.4096L109.889 25.392L105.653 22.3008C105.062 21.8712 104.263 21.8712 103.673 22.3008L99.4369 25.392L101.066 20.4096C101.294 19.716 101.047 18.9552 100.454 18.5256L96.2065 15.4512L101.45 15.4608H101.453C102.182 15.4608 102.828 14.9904 103.051 14.2968L104.662 9.3072L106.272 14.2968C106.495 14.9904 107.141 15.4608 107.87 15.4608H107.873L113.117 15.4512L108.871 18.5256ZM116.628 39.468H42.0073C41.9065 39.468 41.8081 39.4776 41.7121 39.4944C37.4209 36.3096 31.9969 34.5696 26.2297 34.5696C19.7857 34.5696 13.7641 36.7368 9.27845 40.6704C4.19285 45.1296 1.50485 51.4632 1.50485 58.9848C1.50485 65.94 3.80405 71.8776 8.17205 76.2576L0.22565 90.024C-0.0983504 90.5856 -0.0719504 91.2816 0.29525 91.8168C0.66245 92.3496 1.30325 92.6256 1.94405 92.5248L8.79605 91.4376L12.4945 95.9784C12.8137 96.372 13.2937 96.5976 13.7977 96.5976C13.8433 96.5976 13.8864 96.5952 13.932 96.5928C14.4816 96.5496 14.976 96.2376 15.252 95.7576L22.5265 83.1576C22.8409 83.1984 23.1576 83.232 23.4744 83.2632V116.165C23.4744 117.094 24.2257 117.845 25.1544 117.845H116.628C117.557 117.845 118.308 117.094 118.308 116.165V41.148C118.308 40.2192 117.554 39.468 116.628 39.468ZM114.948 52.6848H50.2633C49.4017 48.9336 47.7385 45.6072 45.3265 42.828H114.948V52.6848ZM26.2297 37.932C36.5185 37.932 47.5945 44.52 47.5945 58.9848C47.5945 73.4496 36.5209 80.0376 26.2297 80.0376C15.9384 80.0376 4.86485 73.4496 4.86485 58.9848C4.86485 44.52 15.9384 37.932 26.2297 37.932ZM41.6929 78.4896L47.5609 88.6512L43.2337 87.9648C42.6409 87.8712 42.0457 88.0992 41.6665 88.5624L38.8969 91.9632L33.4105 82.4592C36.4417 81.6408 39.2497 80.2992 41.6929 78.4896ZM13.5601 91.9632L10.7905 88.5624C10.4112 88.0992 9.81605 87.8688 9.22325 87.9648L4.89605 88.6512L10.764 78.4896C13.2072 80.2992 16.0153 81.6408 19.0489 82.4592L13.5601 91.9632ZM26.8344 114.482V83.388C27.8808 83.3664 28.9153 83.2896 29.9329 83.1552L37.2073 95.7552C37.4833 96.2328 37.9777 96.5448 38.5273 96.5904C38.5729 96.5928 38.6161 96.5952 38.6617 96.5952C39.1633 96.5952 39.6433 96.3696 39.9649 95.976L43.6632 91.4352L50.5153 92.5224C51.1561 92.6256 51.7969 92.3496 52.1641 91.8144C52.5313 91.2816 52.5577 90.5832 52.2337 90.0216L44.2873 76.2576C48.6553 71.8776 50.9545 65.94 50.9545 58.9848C50.9545 57.9816 50.9041 57.0024 50.8105 56.0448H114.948V114.482H26.8344ZM104.753 100.433C104.753 101.362 104.002 102.113 103.073 102.113H64.8001C63.8713 102.113 63.1201 101.362 63.1201 100.433C63.1201 99.504 63.8713 98.7528 64.8001 98.7528H103.073C103.999 98.7528 104.753 99.504 104.753 100.433ZM104.753 70.3584C104.753 71.2872 104.002 72.0384 103.073 72.0384H64.8001C63.8713 72.0384 63.1201 71.2872 63.1201 70.3584C63.1201 69.4296 63.8713 68.6784 64.8001 68.6784H103.073C103.999 68.6784 104.753 69.432 104.753 70.3584ZM104.753 90.408C104.753 91.3368 104.002 92.088 103.073 92.088H64.8001C63.8713 92.088 63.1201 91.3368 63.1201 90.408C63.1201 89.4792 63.8713 88.728 64.8001 88.728H103.073C103.999 88.728 104.753 89.4792 104.753 90.408ZM104.753 80.3832C104.753 81.312 104.002 82.0632 103.073 82.0632H64.8001C63.8713 82.0632 63.1201 81.312 63.1201 80.3832C63.1201 79.4544 63.8713 78.7032 64.8001 78.7032H103.073C103.999 78.7032 104.753 79.4568 104.753 80.3832ZM13.9177 72.3048C17.1793 75.1656 21.552 76.74 26.2273 76.74C30.9049 76.74 35.2753 75.1656 38.5369 72.3048C42.2425 69.0552 44.2009 64.4496 44.2009 58.9848C44.2009 53.52 42.2425 48.9144 38.5369 45.6648C35.2753 42.804 30.9025 41.2296 26.2273 41.2296C21.5497 41.2296 17.1793 42.804 13.9177 45.6648C10.2121 48.9144 8.25365 53.52 8.25365 58.9848C8.25365 64.4496 10.2121 69.0552 13.9177 72.3048ZM26.2297 44.5896C30.0913 44.5896 33.6769 45.8688 36.3241 48.192C39.2809 50.784 40.8433 54.5184 40.8433 58.9848C40.8433 68.8752 33.2665 73.38 26.2297 73.38C19.1905 73.38 11.6161 68.8752 11.6161 58.9848C11.6137 49.0944 19.1905 44.5896 26.2297 44.5896Z" fill="#603C93"/>
</g>
<defs>
<clipPath id="clip0_437_18361">
<rect width="120" height="120" fill="white"/>
</clipPath>
</defs>
</svg>
