<svg width="120" height="120" viewBox="0 0 120 120" fill="none" xmlns="http://www.w3.org/2000/svg">
<path d="M4.78125 95.4187L7.6125 96.8438L9.375 114.562C9.42164 115.027 9.63959 115.457 9.9863 115.769C10.333 116.081 10.7836 116.252 11.25 116.25H18.75C19.2164 116.252 19.667 116.081 20.0137 115.769C20.3604 115.457 20.5784 115.027 20.625 114.562L22.3875 96.8438L25.2188 95.4187C25.528 95.2629 25.788 95.0245 25.97 94.73C26.152 94.4355 26.249 94.0962 26.25 93.75V82.5C26.2401 80.6966 25.5807 78.9572 24.3927 77.6005C23.2046 76.2437 21.5675 75.3604 19.7812 75.1125C20.9705 74.1285 21.8271 72.8015 22.2343 71.3126C22.6415 69.8238 22.5794 68.2455 22.0565 66.7932C21.5336 65.341 20.5753 64.0854 19.3124 63.1979C18.0495 62.3104 16.5436 61.8341 15 61.8341C13.4564 61.8341 11.9505 62.3104 10.6876 63.1979C9.42473 64.0854 8.46645 65.341 7.94352 66.7932C7.42059 68.2455 7.35848 69.8238 7.76567 71.3126C8.17286 72.8015 9.02952 74.1285 10.2187 75.1125C8.43248 75.3604 6.79536 76.2437 5.60734 77.6005C4.41931 78.9572 3.75993 80.6966 3.75 82.5V93.75C3.75105 94.0962 3.84796 94.4355 4.02998 94.73C4.212 95.0245 4.47204 95.2629 4.78125 95.4187ZM15 65.625C15.7417 65.625 16.4667 65.8449 17.0834 66.257C17.7001 66.669 18.1807 67.2547 18.4645 67.9399C18.7484 68.6252 18.8226 69.3792 18.6779 70.1066C18.5333 70.834 18.1761 71.5022 17.6516 72.0267C17.1272 72.5511 16.459 72.9082 15.7316 73.0529C15.0042 73.1976 14.2502 73.1234 13.5649 72.8395C12.8797 72.5557 12.294 72.0751 11.882 71.4584C11.4699 70.8417 11.25 70.1167 11.25 69.375C11.25 68.3804 11.6451 67.4266 12.3483 66.7233C13.0516 66.0201 14.0054 65.625 15 65.625ZM7.5 82.5C7.5 81.5054 7.89509 80.5516 8.59835 79.8483C9.30161 79.1451 10.2554 78.75 11.25 78.75H18.75C19.7446 78.75 20.6984 79.1451 21.4016 79.8483C22.1049 80.5516 22.5 81.5054 22.5 82.5V92.5875L19.7812 93.9562C19.4986 94.0965 19.2559 94.3057 19.0757 94.5646C18.8954 94.8236 18.7834 95.1238 18.75 95.4375L17.0625 112.5H12.9375L11.25 95.4375C11.2166 95.1238 11.1046 94.8236 10.9243 94.5646C10.7441 94.3057 10.5014 94.0965 10.2187 93.9562L7.5 92.5875V82.5Z" fill="#603C93"/>
<path d="M84.1501 27.8437C86.2549 30.5942 87.489 33.9114 87.6938 37.3687V39.0937C87.6938 41.1972 88.5294 43.2146 90.0168 44.702C91.5042 46.1894 93.5216 47.025 95.6251 47.025C97.7286 47.025 99.7459 46.1894 101.233 44.702C102.721 43.2146 103.556 41.1972 103.556 39.0937V37.0687C103.81 33.6516 105.076 30.3876 107.194 27.6937C109.635 24.8166 110.852 21.0982 110.586 17.3345C110.32 13.5709 108.591 10.061 105.769 7.55624C104.168 6.13386 102.285 5.06477 100.243 4.41864C98.2016 3.77251 96.0466 3.56385 93.9188 3.80624C90.545 4.14245 87.3874 5.62164 84.9695 7.99857C82.5517 10.3755 81.0188 13.5074 80.6251 16.875C80.4237 18.8476 80.6329 20.8405 81.2395 22.7283C81.8462 24.6161 82.8372 26.3578 84.1501 27.8437ZM99.8063 39.0937C99.8063 40.2027 99.3658 41.2662 98.5817 42.0503C97.7975 42.8345 96.734 43.275 95.6251 43.275C94.5161 43.275 93.4526 42.8345 92.6685 42.0503C91.8844 41.2662 91.4438 40.2027 91.4438 39.0937V37.5H99.8063V39.0937ZM84.3751 17.2687C84.6677 14.7475 85.8155 12.4028 87.6272 10.6252C89.4389 8.84761 91.805 7.7446 94.3313 7.49999C94.7621 7.47061 95.1943 7.47061 95.6251 7.49999C98.4462 7.49212 101.171 8.52717 103.275 10.4062C104.405 11.4157 105.31 12.6522 105.931 14.0349C106.551 15.4177 106.873 16.9157 106.875 18.4312C106.882 20.9629 105.976 23.4122 104.325 25.3312C102.378 27.8116 100.99 30.6834 100.256 33.75H97.5001V27.0187L100.706 23.8312L98.0438 21.1687L95.6251 23.6062L93.2063 21.1687L90.5438 23.8312L93.7501 27.0187V33.75H90.9563C90.2698 30.7072 88.9117 27.8565 86.9813 25.4062C86.0096 24.3027 85.2765 23.0102 84.828 21.6098C84.3795 20.2095 84.2253 18.7315 84.3751 17.2687Z" fill="#603C93"/>
<path d="M75.5391 6.96399L78.1907 4.31234L81.9428 8.06442L79.2911 10.7161L75.5391 6.96399Z" fill="#603C93"/>
<path d="M75.5469 30.5397L79.299 26.7877L81.9506 29.4393L78.1985 33.1914L75.5469 30.5397Z" fill="#603C93"/>
<path d="M109.301 8.05853L113.053 4.30645L115.705 6.9581L111.952 10.7102L109.301 8.05853Z" fill="#603C93"/>
<path d="M109.289 29.4603L111.941 26.8086L115.693 30.5607L113.041 33.2124L109.289 29.4603Z" fill="#603C93"/>
<path d="M30 18.75H73.125V22.5H30V18.75Z" fill="#603C93"/>
<path d="M22.5 18.75H26.25V22.5H22.5V18.75Z" fill="#603C93"/>
<path d="M14.0625 39.375H58.125C59.6168 39.375 61.0476 39.9676 62.1025 41.0225C63.1574 42.0774 63.75 43.5082 63.75 45C63.75 46.4918 63.1574 47.9226 62.1025 48.9775C61.0476 50.0324 59.6168 50.625 58.125 50.625H47.8125C45.0775 50.625 42.4544 51.7115 40.5205 53.6455C38.5865 55.5794 37.5 58.2025 37.5 60.9375C37.5 63.6725 38.5865 66.2956 40.5205 68.2295C42.4544 70.1635 45.0775 71.25 47.8125 71.25H54.375V67.5H47.8125C46.072 67.5 44.4028 66.8086 43.1721 65.5779C41.9414 64.3472 41.25 62.678 41.25 60.9375C41.25 59.197 41.9414 57.5278 43.1721 56.2971C44.4028 55.0664 46.072 54.375 47.8125 54.375H58.125C60.6114 54.375 62.996 53.3873 64.7541 51.6291C66.5123 49.871 67.5 47.4864 67.5 45C67.5 42.5136 66.5123 40.129 64.7541 38.3709C62.996 36.6127 60.6114 35.625 58.125 35.625H14.0625C12.322 35.625 10.6528 34.9336 9.42211 33.7029C8.1914 32.4722 7.5 30.803 7.5 29.0625C7.5 27.322 8.1914 25.6528 9.42211 24.4221C10.6528 23.1914 12.322 22.5 14.0625 22.5H18.75V18.75H14.0625C11.3275 18.75 8.70443 19.8365 6.77046 21.7705C4.83649 23.7044 3.75 26.3275 3.75 29.0625C3.75 31.7975 4.83649 34.4206 6.77046 36.3545C8.70443 38.2885 11.3275 39.375 14.0625 39.375Z" fill="#603C93"/>
<path d="M58.125 67.5H61.875V71.25H58.125V67.5Z" fill="#603C93"/>
<path d="M105 67.5H65.625V71.25H105C106.989 71.25 108.897 72.0402 110.303 73.4467C111.71 74.8532 112.5 76.7609 112.5 78.75C112.5 80.7391 111.71 82.6468 110.303 84.0533C108.897 85.4598 106.989 86.25 105 86.25H86.25V90H105C107.984 90 110.845 88.8147 112.955 86.705C115.065 84.5952 116.25 81.7337 116.25 78.75C116.25 75.7663 115.065 72.9048 112.955 70.795C110.845 68.6853 107.984 67.5 105 67.5Z" fill="#603C93"/>
<path d="M78.75 86.25H82.5V90H78.75V86.25Z" fill="#603C93"/>
<path d="M31.875 86.25H75V90H31.875V86.25Z" fill="#603C93"/>
</svg>
