<svg width="120" height="120" viewBox="0 0 120 120" fill="none" xmlns="http://www.w3.org/2000/svg">
<g clip-path="url(#clip0_437_18410)">
<path d="M114.485 54.4847C112.058 54.4847 109.994 56.0606 109.258 58.2422H93.6516C92.7642 41.0576 78.9424 27.236 61.7578 26.3484V10.7419C63.9394 10.0062 65.5153 7.94203 65.5153 5.51531C65.5153 2.4743 63.0412 0 60 0C56.9588 0 54.4847 2.4743 54.4847 5.51531C54.4847 7.94203 56.0606 10.0059 58.2422 10.7419V26.3484C41.0576 27.2358 27.236 41.0576 26.3484 58.2422H10.7419C10.0062 56.0606 7.94203 54.4847 5.51531 54.4847C2.4743 54.4847 0 56.9588 0 60C0 63.0412 2.4743 65.5153 5.51531 65.5153C7.94203 65.5153 10.0059 63.9394 10.7419 61.7578H26.3484C27.2358 78.9424 41.0576 92.764 58.2422 93.6516V109.258C56.0606 109.994 54.4847 112.058 54.4847 114.485C54.4847 117.526 56.9588 120 60 120C63.0412 120 65.5153 117.526 65.5153 114.485C65.5153 112.058 63.9394 109.994 61.7578 109.258V93.6516C78.9424 92.7642 92.764 78.9424 93.6516 61.7578H109.258C109.994 63.9394 112.058 65.5153 114.485 65.5153C117.526 65.5153 120 63.0412 120 60C120 56.9588 117.526 54.4847 114.485 54.4847ZM5.51531 61.9997C4.41258 61.9997 3.51562 61.1025 3.51562 60C3.51562 58.8975 4.41281 58.0003 5.51531 58.0003C6.61781 58.0003 7.515 58.8975 7.515 60C7.515 61.1025 6.61805 61.9997 5.51531 61.9997ZM58.0003 5.51531C58.0003 4.41281 58.8973 3.51562 60 3.51562C61.1027 3.51562 61.9997 4.41281 61.9997 5.51531C61.9997 6.61781 61.1025 7.515 60 7.515C58.8975 7.515 58.0003 6.61781 58.0003 5.51531ZM61.9997 114.485C61.9997 115.587 61.1027 116.484 60 116.484C58.8973 116.484 58.0003 115.587 58.0003 114.485C58.0003 113.382 58.8975 112.485 60 112.485C61.1025 112.485 61.9997 113.382 61.9997 114.485ZM60 90.1814C43.358 90.1814 29.8186 76.642 29.8186 60C29.8186 43.358 43.358 29.8186 60 29.8186C76.642 29.8186 90.1814 43.358 90.1814 60C90.1814 76.642 76.642 90.1814 60 90.1814ZM114.485 61.9997C113.382 61.9997 112.485 61.1025 112.485 60C112.485 58.8975 113.382 58.0003 114.485 58.0003C115.587 58.0003 116.484 58.8973 116.484 60C116.484 61.1027 115.587 61.9997 114.485 61.9997Z" fill="#603C93"/>
<path d="M73.3199 64.1163L67.4692 61.7761C67.4228 61.7576 67.393 61.7135 67.393 61.6638V58.1215C67.393 58.1062 67.3912 58.0912 67.3907 58.0762C68.5703 56.5207 69.2718 54.5836 69.2718 52.4852V46.849C69.2718 42.7718 65.1119 39.4549 59.999 39.4549C54.8861 39.4549 50.7262 42.7718 50.7262 46.849V52.4852C50.7262 54.5836 51.4277 56.5207 52.6073 58.0762C52.6068 58.0915 52.6049 58.1062 52.6049 58.1215V61.6638C52.6049 61.7135 52.5752 61.7576 52.5287 61.7761L46.678 64.1163C44.572 64.9586 43.2109 66.9689 43.2109 69.2372V75.0302C43.2109 77.0355 44.8422 78.6668 46.8475 78.6668H61.8773C62.848 78.6668 63.6351 77.8797 63.6351 76.909C63.6351 75.9382 62.848 75.1511 61.8773 75.1511H46.8475C46.7807 75.1511 46.7266 75.097 46.7266 75.0302V69.2372C46.7266 68.4147 47.2199 67.6858 47.9837 67.3804L53.8347 65.0402C55.2234 64.4845 56.1205 63.1593 56.1205 61.6638V60.9047C57.3016 61.4508 58.6148 61.758 59.999 61.758C61.3832 61.758 62.6966 61.451 63.8774 60.9047V61.6638C63.8774 63.1593 64.7746 64.4847 66.1633 65.0402L72.0142 67.3807C72.7778 67.6861 73.2712 68.4147 73.2712 69.2372V75.0302C73.2712 75.097 73.217 75.1511 73.1502 75.1511H69.3923C68.4215 75.1511 67.6345 75.9382 67.6345 76.909C67.6345 77.8797 68.4215 78.6668 69.3923 78.6668H73.1502C75.1555 78.6668 76.7868 77.0355 76.7868 75.0302V69.2372C76.787 66.9686 75.426 64.9586 73.3199 64.1163ZM65.7562 52.485C65.7562 55.6596 63.1734 58.2422 59.999 58.2422C56.8246 58.2422 54.2418 55.6593 54.2418 52.485V46.8487C54.2418 44.7464 56.8783 42.9703 59.999 42.9703C63.1197 42.9703 65.7562 44.7464 65.7562 46.8487V52.485Z" fill="#603C93"/>
<path d="M54.2121 20.9473C54.0281 19.9941 53.1059 19.3711 52.1529 19.5544C44.0754 21.1137 36.7165 25.0268 30.8723 30.8712C25.0282 36.7153 21.1148 44.074 19.5556 52.1517C19.3718 53.1049 19.9952 54.027 20.9484 54.2109C21.0609 54.2325 21.173 54.2431 21.2836 54.2431C22.1091 54.2431 22.8455 53.6588 23.0077 52.8181C24.4334 45.4324 28.0125 38.7031 33.3584 33.3572C38.7042 28.0113 45.4336 24.4322 52.8192 23.0065C53.7724 22.8225 54.3961 21.9005 54.2121 20.9473Z" fill="#603C93"/>
<path d="M100.446 52.1517C98.8872 44.074 94.9738 36.7153 89.1297 30.8712C83.2855 25.0268 75.9266 21.1137 67.8491 19.5544C66.8959 19.3716 65.9741 19.9941 65.7899 20.9473C65.6062 21.9005 66.2296 22.8225 67.1828 23.0065C74.5684 24.4322 81.2978 28.0113 86.6437 33.3572C91.9895 38.7031 95.5687 45.4324 96.9944 52.818C97.1566 53.6588 97.893 54.243 98.7184 54.243C98.8288 54.243 98.9411 54.2325 99.0536 54.2109C100.007 54.027 100.63 53.1049 100.446 52.1517Z" fill="#603C93"/>
<path d="M52.8193 96.9935C45.4337 95.5678 38.7043 91.9887 33.3584 86.6428C28.0126 81.297 24.4334 74.5676 23.0077 67.182C22.8237 66.2288 21.901 65.6056 20.9485 65.7891C19.9953 65.9731 19.3716 66.8951 19.5556 67.8483C21.1149 75.9258 25.0283 83.2845 30.8724 89.1288C36.7168 94.973 44.0755 98.8863 52.153 100.446C52.2655 100.467 52.3775 100.478 52.4881 100.478C53.3136 100.478 54.05 99.8934 54.2122 99.0527C54.3959 98.0995 53.7725 97.1775 52.8193 96.9935Z" fill="#603C93"/>
<path d="M99.0537 65.7891C98.1005 65.6065 97.1787 66.2285 96.9944 67.182C95.5687 74.5676 91.9896 81.297 86.6437 86.6428C81.2979 91.9887 74.5685 95.5678 67.1829 96.9935C66.2297 97.1775 65.606 98.0995 65.79 99.0527C65.9522 99.8934 66.6886 100.478 67.5141 100.478C67.6244 100.478 67.7367 100.467 67.8492 100.446C75.9267 98.8863 83.2854 94.973 89.1298 89.1288C94.9739 83.2844 98.8873 75.9258 100.447 67.8483C100.63 66.8951 100.007 65.973 99.0537 65.7891Z" fill="#603C93"/>
</g>
<defs>
<clipPath id="clip0_437_18410">
<rect width="120" height="120" fill="white"/>
</clipPath>
</defs>
</svg>
