<svg width="100" height="100" viewBox="0 0 100 100" fill="none" xmlns="http://www.w3.org/2000/svg">
<path d="M95.3125 81.25H93.75V76.5625C93.7441 74.9641 93.248 73.406 92.3288 72.0984C91.4096 70.7908 90.1114 69.7966 88.6094 69.25C89.9001 67.8299 90.6183 65.9815 90.625 64.0625V58.0625L93.6719 48.9375C93.7494 48.7025 93.7699 48.4525 93.7319 48.208C93.6939 47.9636 93.5983 47.7316 93.4531 47.5313C93.3109 47.3277 93.1215 47.1617 92.9011 47.0474C92.6806 46.9331 92.4358 46.874 92.1875 46.875H70.3125C70.0642 46.874 69.8194 46.9331 69.5989 47.0474C69.3785 47.1617 69.1891 47.3277 69.0469 47.5313C68.9017 47.7316 68.8061 47.9636 68.7681 48.208C68.7301 48.4525 68.7506 48.7025 68.8281 48.9375L71.875 58.0625V64.0625C71.8817 65.9815 72.5999 67.8299 73.8906 69.25C72.3886 69.7966 71.0904 70.7908 70.1712 72.0984C69.252 73.406 68.7559 74.9641 68.75 76.5625V81.25H56.25V78.125H59.375C60.6171 78.1213 61.8072 77.6263 62.6855 76.748C63.5637 75.8697 64.0588 74.6796 64.0625 73.4375V64.0625C64.0588 62.8205 63.5637 61.6303 62.6855 60.752C61.8072 59.8738 60.6171 59.3787 59.375 59.375H40.625C39.3829 59.3787 38.1928 59.8738 37.3145 60.752C36.4363 61.6303 35.9412 62.8205 35.9375 64.0625V73.4375C35.9412 74.6796 36.4363 75.8697 37.3145 76.748C38.1928 77.6263 39.3829 78.1213 40.625 78.125H43.75V81.25H31.25V76.5625C31.2441 74.9641 30.748 73.406 29.8288 72.0984C28.9096 70.7908 27.6114 69.7966 26.1094 69.25C27.4001 67.8299 28.1183 65.9815 28.125 64.0625V58.0625L31.1719 48.9375C31.2494 48.7025 31.2699 48.4525 31.2319 48.208C31.1939 47.9636 31.0983 47.7316 30.9531 47.5313C30.8109 47.3277 30.6215 47.1617 30.4011 47.0474C30.1806 46.9331 29.9358 46.874 29.6875 46.875H7.8125C7.56421 46.874 7.31936 46.9331 7.09893 47.0474C6.87851 47.1617 6.68908 47.3277 6.54688 47.5313C6.40168 47.7316 6.30613 47.9636 6.2681 48.208C6.23007 48.4525 6.25064 48.7025 6.32813 48.9375L9.375 58.0625V64.0625C9.38172 65.9815 10.0999 67.8299 11.3906 69.25C9.88862 69.7966 8.59043 70.7908 7.67119 72.0984C6.75196 73.406 6.25592 74.9641 6.25 76.5625V81.25H4.6875C4.2731 81.25 3.87567 81.4146 3.58265 81.7077C3.28962 82.0007 3.125 82.3981 3.125 82.8125V89.0625C3.125 89.4769 3.28962 89.8743 3.58265 90.1674C3.87567 90.4604 4.2731 90.625 4.6875 90.625H7.8125V95.3125C7.8125 95.7269 7.97712 96.1243 8.27015 96.4174C8.56317 96.7104 8.9606 96.875 9.375 96.875H90.625C91.0394 96.875 91.4368 96.7104 91.7299 96.4174C92.0229 96.1243 92.1875 95.7269 92.1875 95.3125V90.625H95.3125C95.7269 90.625 96.1243 90.4604 96.4174 90.1674C96.7104 89.8743 96.875 89.4769 96.875 89.0625V82.8125C96.875 82.3981 96.7104 82.0007 96.4174 81.7077C96.1243 81.4146 95.7269 81.25 95.3125 81.25ZM72.4844 50H90.0156L88.0156 56.0156L83.3906 55.0781C81.9774 54.7969 80.5226 54.7969 79.1094 55.0781L74.4844 56.0156L72.4844 50ZM87.5 59.0938V64.0625C87.4963 65.3046 87.0012 66.4947 86.123 67.373C85.2447 68.2513 84.0546 68.7463 82.8125 68.75H79.6875C78.4454 68.7463 77.2553 68.2513 76.377 67.373C75.4988 66.4947 75.0037 65.3046 75 64.0625V59.0938L79.7188 58.1563C80.7295 57.9531 81.7705 57.9531 82.7812 58.1563L87.5 59.0938ZM71.875 76.5625C71.8787 75.3205 72.3738 74.1303 73.252 73.252C74.1303 72.3738 75.3204 71.8787 76.5625 71.875H79.6875V78.125H82.8125V71.875H85.9375C87.1796 71.8787 88.3697 72.3738 89.248 73.252C90.1262 74.1303 90.6213 75.3205 90.625 76.5625V81.25H71.875V76.5625ZM40.625 75C40.2106 75 39.8132 74.8354 39.5201 74.5424C39.2271 74.2493 39.0625 73.8519 39.0625 73.4375V64.0625C39.0625 63.6481 39.2271 63.2507 39.5201 62.9577C39.8132 62.6646 40.2106 62.5 40.625 62.5H59.375C59.7894 62.5 60.1868 62.6646 60.4799 62.9577C60.7729 63.2507 60.9375 63.6481 60.9375 64.0625V73.4375C60.9375 73.8519 60.7729 74.2493 60.4799 74.5424C60.1868 74.8354 59.7894 75 59.375 75H40.625ZM53.125 78.125V81.25H46.875V78.125H53.125ZM9.98438 50H27.5156L25.5156 56.0156L20.8906 55.0781C19.4774 54.7969 18.0226 54.7969 16.6094 55.0781L11.9844 56.0156L9.98438 50ZM25 59.0938V64.0625C24.9963 65.3046 24.5012 66.4947 23.623 67.373C22.7447 68.2513 21.5546 68.7463 20.3125 68.75H17.1875C15.9454 68.7463 14.7553 68.2513 13.877 67.373C12.9988 66.4947 12.5037 65.3046 12.5 64.0625V59.0938L17.2188 58.1563C18.2295 57.9531 19.2705 57.9531 20.2812 58.1563L25 59.0938ZM9.375 76.5625C9.37871 75.3205 9.87376 74.1303 10.752 73.252C11.6303 72.3738 12.8204 71.8787 14.0625 71.875H17.1875V78.125H20.3125V71.875H23.4375C24.6796 71.8787 25.8697 72.3738 26.748 73.252C27.6262 74.1303 28.1213 75.3205 28.125 76.5625V81.25H9.375V76.5625ZM89.0625 93.75H10.9375V90.625H89.0625V93.75ZM93.75 87.5H6.25V84.375H93.75V87.5Z" fill="url(#paint0_linear_262_7344)"/>
<path d="M50 9.375C45.6735 9.375 41.4442 10.6579 37.8469 13.0616C34.2496 15.4653 31.4458 18.8817 29.7901 22.8788C28.1345 26.8759 27.7013 31.2743 28.5453 35.5176C29.3894 39.7609 31.4728 43.6587 34.532 46.718C37.5913 49.7772 41.4891 51.8606 45.7324 52.7047C49.9757 53.5487 54.3741 53.1155 58.3712 51.4599C62.3683 49.8042 65.7848 47.0004 68.1884 43.4031C70.5921 39.8058 71.875 35.5765 71.875 31.25C71.8688 25.4503 69.5621 19.8899 65.4611 15.7889C61.3601 11.6879 55.7997 9.3812 50 9.375ZM50 50C46.2916 50 42.6665 48.9003 39.5831 46.8401C36.4996 44.7798 34.0964 41.8514 32.6773 38.4253C31.2581 34.9992 30.8868 31.2292 31.6103 27.5921C32.3338 23.9549 34.1195 20.614 36.7418 17.9917C39.364 15.3695 42.7049 13.5837 46.3421 12.8603C49.9792 12.1368 53.7492 12.5081 57.1753 13.9273C60.6014 15.3464 63.5298 17.7496 65.5901 20.8331C67.6503 23.9165 68.75 27.5416 68.75 31.25C68.7459 36.2215 66.7691 40.9883 63.2537 44.5037C59.7383 48.0191 54.9715 49.9959 50 50Z" fill="url(#paint1_linear_262_7344)"/>
<path d="M64.0625 25H56.25V17.1875C56.25 16.7731 56.0854 16.3757 55.7924 16.0826C55.4993 15.7896 55.1019 15.625 54.6875 15.625H45.3125C44.8981 15.625 44.5007 15.7896 44.2076 16.0826C43.9146 16.3757 43.75 16.7731 43.75 17.1875V25H35.9375C35.5231 25 35.1257 25.1646 34.8326 25.4576C34.5396 25.7507 34.375 26.1481 34.375 26.5625V35.9375C34.375 36.3519 34.5396 36.7493 34.8326 37.0424C35.1257 37.3354 35.5231 37.5 35.9375 37.5H43.75V45.3125C43.75 45.7269 43.9146 46.1243 44.2076 46.4174C44.5007 46.7104 44.8981 46.875 45.3125 46.875H54.6875C55.1019 46.875 55.4993 46.7104 55.7924 46.4174C56.0854 46.1243 56.25 45.7269 56.25 45.3125V37.5H64.0625C64.4769 37.5 64.8743 37.3354 65.1674 37.0424C65.4604 36.7493 65.625 36.3519 65.625 35.9375V26.5625C65.625 26.1481 65.4604 25.7507 65.1674 25.4576C64.8743 25.1646 64.4769 25 64.0625 25ZM62.5 34.375H54.6875C54.2731 34.375 53.8757 34.5396 53.5826 34.8326C53.2896 35.1257 53.125 35.5231 53.125 35.9375V43.75H46.875V35.9375C46.875 35.5231 46.7104 35.1257 46.4174 34.8326C46.1243 34.5396 45.7269 34.375 45.3125 34.375H37.5V28.125H45.3125C45.7269 28.125 46.1243 27.9604 46.4174 27.6674C46.7104 27.3743 46.875 26.9769 46.875 26.5625V18.75H53.125V26.5625C53.125 26.9769 53.2896 27.3743 53.5826 27.6674C53.8757 27.9604 54.2731 28.125 54.6875 28.125H62.5V34.375Z" fill="url(#paint2_linear_262_7344)"/>
<path d="M95.3125 3.125H4.6875C4.2731 3.125 3.87567 3.28962 3.58265 3.58265C3.28962 3.87567 3.125 4.2731 3.125 4.6875V42.1875H6.25V6.25H93.75V42.1875H96.875V4.6875C96.875 4.2731 96.7104 3.87567 96.4174 3.58265C96.1243 3.28962 95.7269 3.125 95.3125 3.125Z" fill="url(#paint3_linear_262_7344)"/>
<defs>
<linearGradient id="paint0_linear_262_7344" x1="50" y1="46.875" x2="50" y2="96.875" gradientUnits="userSpaceOnUse">
<stop offset="0.354167" stop-color="#603C93"/>
<stop offset="1" stop-color="#93693F"/>
</linearGradient>
<linearGradient id="paint1_linear_262_7344" x1="50" y1="9.375" x2="50" y2="53.125" gradientUnits="userSpaceOnUse">
<stop offset="0.354167" stop-color="#603C93"/>
<stop offset="1" stop-color="#93693F"/>
</linearGradient>
<linearGradient id="paint2_linear_262_7344" x1="50" y1="15.625" x2="50" y2="46.875" gradientUnits="userSpaceOnUse">
<stop offset="0.354167" stop-color="#603C93"/>
<stop offset="1" stop-color="#93693F"/>
</linearGradient>
<linearGradient id="paint3_linear_262_7344" x1="50" y1="3.125" x2="50" y2="42.1875" gradientUnits="userSpaceOnUse">
<stop offset="0.354167" stop-color="#603C93"/>
<stop offset="1" stop-color="#93693F"/>
</linearGradient>
</defs>
</svg>
