<svg width="100" height="100" viewBox="0 0 100 100" fill="none" xmlns="http://www.w3.org/2000/svg">
<path d="M17.1875 23.4375C16.3266 23.4375 15.625 22.7359 15.625 21.875H12.5C12.5 24.4594 14.6031 26.5625 17.1875 26.5625V29.6875H20.3125V26.5625H25V21.875C25 19.2906 22.8969 17.1875 20.3125 17.1875H17.1875C16.3266 17.1875 15.625 16.4859 15.625 15.625V14.0625H20.3125C21.1734 14.0625 21.875 14.7641 21.875 15.625H25C25 13.0406 22.8969 10.9375 20.3125 10.9375V7.8125H17.1875V10.9375H12.5V15.625C12.5 18.2094 14.6031 20.3125 17.1875 20.3125H20.3125C21.1734 20.3125 21.875 21.0141 21.875 21.875V23.4375H17.1875Z" fill="url(#paint0_linear_262_7350)"/>
<path d="M18.75 35.9375C28.2266 35.9375 35.9375 28.2266 35.9375 18.75C35.9375 9.27344 28.2266 1.5625 18.75 1.5625C9.27344 1.5625 1.5625 9.27344 1.5625 18.75C1.5625 28.2266 9.27344 35.9375 18.75 35.9375ZM18.75 4.6875C26.5031 4.6875 32.8125 10.9969 32.8125 18.75C32.8125 26.5031 26.5031 32.8125 18.75 32.8125C10.9969 32.8125 4.6875 26.5031 4.6875 18.75C4.6875 10.9969 10.9969 4.6875 18.75 4.6875Z" fill="url(#paint1_linear_262_7350)"/>
<path d="M53.125 40.625C52.2641 40.625 51.5625 39.9234 51.5625 39.0625H48.4375C48.4375 41.6469 50.5406 43.75 53.125 43.75V46.875H56.25V43.75H60.9375V39.0625C60.9375 36.4781 58.8344 34.375 56.25 34.375H53.125C52.2641 34.375 51.5625 33.6734 51.5625 32.8125V31.25H56.25C57.1109 31.25 57.8125 31.9516 57.8125 32.8125H60.9375C60.9375 30.2281 58.8344 28.125 56.25 28.125V25H53.125V28.125H48.4375V32.8125C48.4375 35.3969 50.5406 37.5 53.125 37.5H56.25C57.1109 37.5 57.8125 38.2016 57.8125 39.0625V40.625H53.125Z" fill="url(#paint2_linear_262_7350)"/>
<path d="M54.6875 53.125C64.1641 53.125 71.875 45.4141 71.875 35.9375C71.875 26.4609 64.1641 18.75 54.6875 18.75C45.2109 18.75 37.5 26.4609 37.5 35.9375C37.5 45.4141 45.2109 53.125 54.6875 53.125ZM54.6875 21.875C62.4406 21.875 68.75 28.1844 68.75 35.9375C68.75 43.6906 62.4406 50 54.6875 50C46.9344 50 40.625 43.6906 40.625 35.9375C40.625 28.1844 46.9344 21.875 54.6875 21.875Z" fill="url(#paint3_linear_262_7350)"/>
<path d="M84.375 29.6875C92.1281 29.6875 98.4375 23.3781 98.4375 15.625C98.4375 7.87188 92.1281 1.5625 84.375 1.5625C76.6219 1.5625 70.3125 7.87188 70.3125 15.625C70.3125 23.3781 76.6219 29.6875 84.375 29.6875ZM84.375 4.6875C90.4062 4.6875 95.3125 9.59375 95.3125 15.625C95.3125 21.6562 90.4062 26.5625 84.375 26.5625C78.3438 26.5625 73.4375 21.6562 73.4375 15.625C73.4375 9.59375 78.3438 4.6875 84.375 4.6875Z" fill="url(#paint4_linear_262_7350)"/>
<path d="M84.375 23.4375C88.6828 23.4375 92.1875 19.9328 92.1875 15.625C92.1875 11.3172 88.6828 7.8125 84.375 7.8125C80.0672 7.8125 76.5625 11.3172 76.5625 15.625C76.5625 19.9328 80.0672 23.4375 84.375 23.4375ZM84.375 10.9375C86.9594 10.9375 89.0625 13.0406 89.0625 15.625C89.0625 18.2094 86.9594 20.3125 84.375 20.3125C81.7906 20.3125 79.6875 18.2094 79.6875 15.625C79.6875 13.0406 81.7906 10.9375 84.375 10.9375Z" fill="url(#paint5_linear_262_7350)"/>
<path d="M10.9375 85.9375C10.9375 84.2141 12.3391 82.8125 14.0625 82.8125V79.6875C10.6156 79.6875 7.8125 82.4906 7.8125 85.9375C7.8125 89.3844 10.6156 92.1875 14.0625 92.1875H34.375V89.0625H14.0625C12.3391 89.0625 10.9375 87.6609 10.9375 85.9375Z" fill="url(#paint6_linear_262_7350)"/>
<path d="M37.5 89.0625H40.625V92.1875H37.5V89.0625Z" fill="url(#paint7_linear_262_7350)"/>
<path d="M17.9746 69.8438L20.9559 70.7812C22.8043 64.8922 28.1965 60.9375 34.3746 60.9375V57.8125C26.8246 57.8125 20.234 62.6484 17.9746 69.8438Z" fill="url(#paint8_linear_262_7350)"/>
<path d="M37.1904 61.2203C38.1514 61.4141 39.0967 61.7125 39.9998 62.1062L41.2514 59.2437C40.1451 58.7594 38.9873 58.3937 37.8107 58.1562L37.1904 61.2203Z" fill="url(#paint9_linear_262_7350)"/>
<path d="M85.9375 79.6875V82.8125C87.6609 82.8125 89.0625 84.2141 89.0625 85.9375H92.1875C92.1875 82.4906 89.3844 79.6875 85.9375 79.6875Z" fill="url(#paint10_linear_262_7350)"/>
<path d="M81.25 73.4375H71.875V89.0625H68.75V67.1875H59.375V89.0625H56.25V82.8125H46.875V89.0625H43.75V92.1875H84.375V89.0625H81.25V73.4375ZM75 76.5625H78.125V89.0625H75V76.5625ZM62.5 70.3125H65.625V89.0625H62.5V70.3125ZM50 85.9375H53.125V89.0625H50V85.9375Z" fill="url(#paint11_linear_262_7350)"/>
<path d="M86.9437 73.4766C84.8141 64.3266 76.7031 57.8125 67.1875 57.8125C62.3 57.8125 57.775 59.6031 54.2313 62.5562C49.9594 55.7328 42.5234 51.5625 34.375 51.5625C32.5516 51.5625 30.7859 51.7922 29.0812 52.1875C27.3187 46.3078 21.9094 42.1875 15.625 42.1875C7.87188 42.1875 1.5625 48.4969 1.5625 56.25C1.5625 62.5344 5.68125 67.9437 11.5625 69.7062C11.2531 71.0422 11.0656 72.4219 10.9953 73.8344C5.58438 75.2063 1.5625 80.1047 1.5625 85.9375C1.5625 92.8297 7.17031 98.4375 14.0625 98.4375H85.9375C92.8297 98.4375 98.4375 92.8297 98.4375 85.9375C98.4375 79.3844 93.3672 73.9906 86.9437 73.4766ZM4.6875 56.25C4.6875 50.2188 9.59375 45.3125 15.625 45.3125C20.5172 45.3125 24.7281 48.5219 26.0953 53.1016C25.0984 53.4797 24.1219 53.9016 23.1953 54.4062C22.3594 50.9906 19.2938 48.4375 15.625 48.4375C11.3172 48.4375 7.8125 51.9422 7.8125 56.25C7.8125 59.9188 10.3656 62.9844 13.7812 63.8188C13.2766 64.7453 12.8547 65.7219 12.4766 66.7188C7.89688 65.3547 4.6875 61.1422 4.6875 56.25ZM15.6719 60.9344C15.6562 60.9344 15.6406 60.9375 15.625 60.9375C13.0406 60.9375 10.9375 58.8344 10.9375 56.25C10.9375 53.6656 13.0406 51.5625 15.625 51.5625C18.2094 51.5625 20.3125 53.6656 20.3125 56.25C20.3125 56.2656 20.3094 56.2812 20.3094 56.2969C18.5547 57.6203 16.9953 59.1797 15.6719 60.9344ZM85.9375 95.3125H14.0625C8.89219 95.3125 4.6875 91.1078 4.6875 85.9375C4.6875 80.7672 8.89219 76.5625 14.0625 76.5625C19.2328 76.5625 23.4375 80.7672 23.4375 85.9375H26.5625C26.5625 79.0719 20.9969 73.4844 14.1422 73.4422C14.9422 62.9687 23.7 54.6875 34.375 54.6875C41.6625 54.6875 48.2906 58.5359 51.9281 64.7891C49.1453 67.9578 47.3109 71.9875 46.9453 76.4344L50.0594 76.6906C50.7875 67.8578 58.3109 60.9375 67.1875 60.9375C75.6078 60.9375 82.7266 66.9656 84.1172 75.2719L84.3391 76.5984L85.9375 76.5625C91.1078 76.5625 95.3125 80.7672 95.3125 85.9375C95.3125 91.1078 91.1078 95.3125 85.9375 95.3125Z" fill="url(#paint12_linear_262_7350)"/>
<defs>
<linearGradient id="paint0_linear_262_7350" x1="18.75" y1="7.8125" x2="18.75" y2="29.6875" gradientUnits="userSpaceOnUse">
<stop offset="0.354167" stop-color="#603C93"/>
<stop offset="1" stop-color="#93693F"/>
</linearGradient>
<linearGradient id="paint1_linear_262_7350" x1="18.75" y1="1.5625" x2="18.75" y2="35.9375" gradientUnits="userSpaceOnUse">
<stop offset="0.354167" stop-color="#603C93"/>
<stop offset="1" stop-color="#93693F"/>
</linearGradient>
<linearGradient id="paint2_linear_262_7350" x1="54.6875" y1="25" x2="54.6875" y2="46.875" gradientUnits="userSpaceOnUse">
<stop offset="0.354167" stop-color="#603C93"/>
<stop offset="1" stop-color="#93693F"/>
</linearGradient>
<linearGradient id="paint3_linear_262_7350" x1="54.6875" y1="18.75" x2="54.6875" y2="53.125" gradientUnits="userSpaceOnUse">
<stop offset="0.354167" stop-color="#603C93"/>
<stop offset="1" stop-color="#93693F"/>
</linearGradient>
<linearGradient id="paint4_linear_262_7350" x1="84.375" y1="1.5625" x2="84.375" y2="29.6875" gradientUnits="userSpaceOnUse">
<stop offset="0.354167" stop-color="#603C93"/>
<stop offset="1" stop-color="#93693F"/>
</linearGradient>
<linearGradient id="paint5_linear_262_7350" x1="84.375" y1="7.8125" x2="84.375" y2="23.4375" gradientUnits="userSpaceOnUse">
<stop offset="0.354167" stop-color="#603C93"/>
<stop offset="1" stop-color="#93693F"/>
</linearGradient>
<linearGradient id="paint6_linear_262_7350" x1="21.0938" y1="79.6875" x2="21.0938" y2="92.1875" gradientUnits="userSpaceOnUse">
<stop offset="0.354167" stop-color="#603C93"/>
<stop offset="1" stop-color="#93693F"/>
</linearGradient>
<linearGradient id="paint7_linear_262_7350" x1="39.0625" y1="89.0625" x2="39.0625" y2="92.1875" gradientUnits="userSpaceOnUse">
<stop offset="0.354167" stop-color="#603C93"/>
<stop offset="1" stop-color="#93693F"/>
</linearGradient>
<linearGradient id="paint8_linear_262_7350" x1="26.1746" y1="57.8125" x2="26.1746" y2="70.7812" gradientUnits="userSpaceOnUse">
<stop offset="0.354167" stop-color="#603C93"/>
<stop offset="1" stop-color="#93693F"/>
</linearGradient>
<linearGradient id="paint9_linear_262_7350" x1="39.2209" y1="58.1562" x2="39.2209" y2="62.1062" gradientUnits="userSpaceOnUse">
<stop offset="0.354167" stop-color="#603C93"/>
<stop offset="1" stop-color="#93693F"/>
</linearGradient>
<linearGradient id="paint10_linear_262_7350" x1="89.0625" y1="79.6875" x2="89.0625" y2="85.9375" gradientUnits="userSpaceOnUse">
<stop offset="0.354167" stop-color="#603C93"/>
<stop offset="1" stop-color="#93693F"/>
</linearGradient>
<linearGradient id="paint11_linear_262_7350" x1="64.0625" y1="67.1875" x2="64.0625" y2="92.1875" gradientUnits="userSpaceOnUse">
<stop offset="0.354167" stop-color="#603C93"/>
<stop offset="1" stop-color="#93693F"/>
</linearGradient>
<linearGradient id="paint12_linear_262_7350" x1="50" y1="42.1875" x2="50" y2="98.4375" gradientUnits="userSpaceOnUse">
<stop offset="0.354167" stop-color="#603C93"/>
<stop offset="1" stop-color="#93693F"/>
</linearGradient>
</defs>
</svg>
