<svg width="100" height="100" viewBox="0 0 100 100" fill="none" xmlns="http://www.w3.org/2000/svg">
<path d="M96.875 89.0625H90.625V85.7484C94.1859 84.8766 96.875 81.0906 96.875 76.5625C96.875 71.3922 93.3703 67.1875 89.0625 67.1875C84.7547 67.1875 81.25 71.3922 81.25 76.5625C81.25 81.0938 83.9391 84.8766 87.5 85.7484V89.0625H78.125V43.75C78.125 43.3356 77.9604 42.9382 77.6674 42.6451C77.3743 42.3521 76.9769 42.1875 76.5625 42.1875H53.125V3.125C53.125 2.7106 52.9604 2.31317 52.6674 2.02015C52.3743 1.72712 51.9769 1.5625 51.5625 1.5625H6.25C5.8356 1.5625 5.43817 1.72712 5.14515 2.02015C4.85212 2.31317 4.6875 2.7106 4.6875 3.125V89.0625H3.125C2.7106 89.0625 2.31317 89.2271 2.02015 89.5201C1.72712 89.8132 1.5625 90.2106 1.5625 90.625V96.875C1.5625 97.2894 1.72712 97.6868 2.02015 97.9799C2.31317 98.2729 2.7106 98.4375 3.125 98.4375H96.875C97.2894 98.4375 97.6868 98.2729 97.9799 97.9799C98.2729 97.6868 98.4375 97.2894 98.4375 96.875V90.625C98.4375 90.2106 98.2729 89.8132 97.9799 89.5201C97.6868 89.2271 97.2894 89.0625 96.875 89.0625ZM84.375 76.5625C84.375 73.1156 86.4781 70.3125 89.0625 70.3125C91.6469 70.3125 93.75 73.1156 93.75 76.5625C93.75 80.0094 91.6469 82.8125 89.0625 82.8125C86.4781 82.8125 84.375 80.0094 84.375 76.5625ZM75 89.0625H64.0625V85.9375C64.0625 84.2799 63.404 82.6902 62.2319 81.5181C61.0598 80.346 59.4701 79.6875 57.8125 79.6875C56.1549 79.6875 54.5652 80.346 53.3931 81.5181C52.221 82.6902 51.5625 84.2799 51.5625 85.9375V89.0625H40.625V45.3125H75V89.0625ZM60.9375 89.0625H54.6875V85.9375C54.6875 85.1087 55.0167 84.3138 55.6028 83.7278C56.1888 83.1417 56.9837 82.8125 57.8125 82.8125C58.6413 82.8125 59.4362 83.1417 60.0222 83.7278C60.6083 84.3138 60.9375 85.1087 60.9375 85.9375V89.0625ZM43.75 42.1875H39.0625C38.6481 42.1875 38.2507 42.3521 37.9576 42.6451C37.6646 42.9382 37.5 43.3356 37.5 43.75V45.3125H34.375V32.8125H43.75V42.1875ZM37.5 67.1875H34.375V54.6875H37.5V67.1875ZM37.5 89.0625H23.4375V76.5625H37.5V89.0625ZM7.8125 4.6875H50V42.1875H46.875V31.25C46.875 30.8356 46.7104 30.4382 46.4174 30.1451C46.1243 29.8521 45.7269 29.6875 45.3125 29.6875H32.8125C32.3981 29.6875 32.0007 29.8521 31.7076 30.1451C31.4146 30.4382 31.25 30.8356 31.25 31.25V46.875C31.25 47.2894 31.4146 47.6868 31.7076 47.9799C32.0007 48.2729 32.3981 48.4375 32.8125 48.4375H37.5V51.5625H32.8125C32.3981 51.5625 32.0007 51.7271 31.7076 52.0201C31.4146 52.3132 31.25 52.7106 31.25 53.125V68.75C31.25 69.1644 31.4146 69.5618 31.7076 69.8549C32.0007 70.1479 32.3981 70.3125 32.8125 70.3125H37.5V73.4375H21.875C21.4606 73.4375 21.0632 73.6021 20.7701 73.8951C20.4771 74.1882 20.3125 74.5856 20.3125 75V89.0625H7.8125V4.6875ZM95.3125 95.3125H4.6875V92.1875H95.3125V95.3125Z" fill="url(#paint0_linear_262_7365)"/>
<path d="M14.0625 26.5625H26.5625C26.9769 26.5625 27.3743 26.3979 27.6674 26.1049C27.9604 25.8118 28.125 25.4144 28.125 25V9.375C28.125 8.9606 27.9604 8.56317 27.6674 8.27015C27.3743 7.97712 26.9769 7.8125 26.5625 7.8125H14.0625C13.6481 7.8125 13.2507 7.97712 12.9576 8.27015C12.6646 8.56317 12.5 8.9606 12.5 9.375V25C12.5 25.4144 12.6646 25.8118 12.9576 26.1049C13.2507 26.3979 13.6481 26.5625 14.0625 26.5625ZM15.625 10.9375H25V23.4375H15.625V10.9375Z" fill="url(#paint1_linear_262_7365)"/>
<path d="M32.8125 26.5625H45.3125C45.7269 26.5625 46.1243 26.3979 46.4174 26.1049C46.7104 25.8118 46.875 25.4144 46.875 25V9.375C46.875 8.9606 46.7104 8.56317 46.4174 8.27015C46.1243 7.97712 45.7269 7.8125 45.3125 7.8125H32.8125C32.3981 7.8125 32.0007 7.97712 31.7076 8.27015C31.4146 8.56317 31.25 8.9606 31.25 9.375V25C31.25 25.4144 31.4146 25.8118 31.7076 26.1049C32.0007 26.3979 32.3981 26.5625 32.8125 26.5625ZM34.375 10.9375H43.75V23.4375H34.375V10.9375Z" fill="url(#paint2_linear_262_7365)"/>
<path d="M14.0625 48.4375H26.5625C26.9769 48.4375 27.3743 48.2729 27.6674 47.9799C27.9604 47.6868 28.125 47.2894 28.125 46.875V31.25C28.125 30.8356 27.9604 30.4382 27.6674 30.1451C27.3743 29.8521 26.9769 29.6875 26.5625 29.6875H14.0625C13.6481 29.6875 13.2507 29.8521 12.9576 30.1451C12.6646 30.4382 12.5 30.8356 12.5 31.25V46.875C12.5 47.2894 12.6646 47.6868 12.9576 47.9799C13.2507 48.2729 13.6481 48.4375 14.0625 48.4375ZM15.625 32.8125H25V45.3125H15.625V32.8125Z" fill="url(#paint3_linear_262_7365)"/>
<path d="M26.5625 70.3125C26.9769 70.3125 27.3743 70.1479 27.6674 69.8549C27.9604 69.5618 28.125 69.1644 28.125 68.75V53.125C28.125 52.7106 27.9604 52.3132 27.6674 52.0201C27.3743 51.7271 26.9769 51.5625 26.5625 51.5625H14.0625C13.6481 51.5625 13.2507 51.7271 12.9576 52.0201C12.6646 52.3132 12.5 52.7106 12.5 53.125V68.75C12.5 69.1644 12.6646 69.5618 12.9576 69.8549C13.2507 70.1479 13.6481 70.3125 14.0625 70.3125H26.5625ZM15.625 54.6875H25V67.1875H15.625V54.6875Z" fill="url(#paint4_linear_262_7365)"/>
<path d="M45.3125 60.9375H54.6875C55.1019 60.9375 55.4993 60.7729 55.7924 60.4799C56.0854 60.1868 56.25 59.7894 56.25 59.375V50C56.25 49.5856 56.0854 49.1882 55.7924 48.8951C55.4993 48.6021 55.1019 48.4375 54.6875 48.4375H45.3125C44.8981 48.4375 44.5007 48.6021 44.2076 48.8951C43.9146 49.1882 43.75 49.5856 43.75 50V59.375C43.75 59.7894 43.9146 60.1868 44.2076 60.4799C44.5007 60.7729 44.8981 60.9375 45.3125 60.9375ZM46.875 51.5625H53.125V57.8125H46.875V51.5625Z" fill="url(#paint5_linear_262_7365)"/>
<path d="M60.9375 60.9375H70.3125C70.7269 60.9375 71.1243 60.7729 71.4174 60.4799C71.7104 60.1868 71.875 59.7894 71.875 59.375V50C71.875 49.5856 71.7104 49.1882 71.4174 48.8951C71.1243 48.6021 70.7269 48.4375 70.3125 48.4375H60.9375C60.5231 48.4375 60.1257 48.6021 59.8326 48.8951C59.5396 49.1882 59.375 49.5856 59.375 50V59.375C59.375 59.7894 59.5396 60.1868 59.8326 60.4799C60.1257 60.7729 60.5231 60.9375 60.9375 60.9375ZM62.5 51.5625H68.75V57.8125H62.5V51.5625Z" fill="url(#paint6_linear_262_7365)"/>
<path d="M45.3125 76.5625H54.6875C55.1019 76.5625 55.4993 76.3979 55.7924 76.1049C56.0854 75.8118 56.25 75.4144 56.25 75V65.625C56.25 65.2106 56.0854 64.8132 55.7924 64.5201C55.4993 64.2271 55.1019 64.0625 54.6875 64.0625H45.3125C44.8981 64.0625 44.5007 64.2271 44.2076 64.5201C43.9146 64.8132 43.75 65.2106 43.75 65.625V75C43.75 75.4144 43.9146 75.8118 44.2076 76.1049C44.5007 76.3979 44.8981 76.5625 45.3125 76.5625ZM46.875 67.1875H53.125V73.4375H46.875V67.1875Z" fill="url(#paint7_linear_262_7365)"/>
<path d="M60.9375 76.5625H70.3125C70.7269 76.5625 71.1243 76.3979 71.4174 76.1049C71.7104 75.8118 71.875 75.4144 71.875 75V65.625C71.875 65.2106 71.7104 64.8132 71.4174 64.5201C71.1243 64.2271 70.7269 64.0625 70.3125 64.0625H60.9375C60.5231 64.0625 60.1257 64.2271 59.8326 64.5201C59.5396 64.8132 59.375 65.2106 59.375 65.625V75C59.375 75.4144 59.5396 75.8118 59.8326 76.1049C60.1257 76.3979 60.5231 76.5625 60.9375 76.5625ZM62.5 67.1875H68.75V73.4375H62.5V67.1875Z" fill="url(#paint8_linear_262_7365)"/>
<path d="M61.0639 36.8844C60.962 37.1221 60.9207 37.3813 60.9437 37.6388C60.9666 37.8964 61.0532 38.1442 61.1955 38.3601C61.3378 38.5759 61.5315 38.7531 61.7591 38.8757C61.9868 38.9983 62.2413 39.0625 62.4998 39.0625C62.7115 39.063 62.9211 39.0199 63.1155 38.936L69.6483 36.136C73.5503 38.6144 78.2295 39.5659 82.7896 38.8082C87.3496 38.0506 91.4698 35.637 94.3607 32.03C97.2516 28.4229 98.71 23.8761 98.4564 19.2605C98.2028 14.6449 96.2552 10.2851 92.9865 7.01648C89.7179 3.74784 85.3581 1.80016 80.7425 1.54659C76.1269 1.29302 71.5801 2.7514 67.973 5.6423C64.366 8.53321 61.9524 12.6534 61.1948 17.2134C60.4371 21.7735 61.3886 26.4527 63.867 30.3547L61.0639 36.8844ZM79.6873 4.68754C82.144 4.68473 84.5667 5.26124 86.7589 6.37028C88.951 7.47931 90.8507 9.08961 92.3038 11.0705C93.7569 13.0513 94.7225 15.3469 95.1221 17.7709C95.5217 20.1948 95.3441 22.6789 94.6038 25.0214C93.8634 27.3638 92.5811 29.4987 90.861 31.2527C89.1409 33.0067 87.0315 34.3304 84.7039 35.1164C82.3763 35.9023 79.8962 36.1283 77.4649 35.7761C75.0336 35.4239 72.7196 34.5033 70.7108 33.0891C70.4926 32.9361 70.239 32.8415 69.974 32.8142C69.7091 32.7868 69.4415 32.8277 69.1967 32.9329L65.4686 34.5313L67.0639 30.8094C67.1694 30.5645 67.2104 30.2966 67.183 30.0313C67.1557 29.766 67.0609 29.5121 66.9076 29.2938C65.2574 26.955 64.282 24.2075 64.0883 21.3517C63.8946 18.4958 64.4899 15.6417 65.8093 13.1015C67.1286 10.5613 69.121 8.43282 71.5687 6.94885C74.0163 5.46489 76.8249 4.6826 79.6873 4.68754Z" fill="url(#paint9_linear_262_7365)"/>
<path d="M78.3559 32.0688C78.4961 32.2949 78.6916 32.4814 78.924 32.6108C79.1564 32.7402 79.4181 32.8082 79.6841 32.8082C79.9501 32.8082 80.2117 32.7402 80.4441 32.6108C80.6765 32.4814 80.8721 32.2949 81.0122 32.0688L87.7872 21.0656C88.5503 19.8366 88.9846 18.432 89.0484 16.9867C89.1121 15.5414 88.8032 14.104 88.1513 12.8125C87.4393 11.4183 86.3812 10.2303 85.0784 9.36244C83.7755 8.49458 82.2715 7.97594 80.7106 7.85625C80.0281 7.79531 79.3416 7.79531 78.6591 7.85625C77.099 7.97672 75.596 8.49572 74.294 9.36353C72.992 10.2313 71.9346 11.4189 71.2231 12.8125C70.5705 14.1032 70.2607 15.5401 70.3234 16.9851C70.386 18.43 70.8191 19.8347 71.5809 21.0641L78.3559 32.0688ZM74.0169 14.2188C74.4916 13.3023 75.1936 12.523 76.0556 11.9553C76.9176 11.3877 77.9109 11.0507 78.9403 10.9766C79.1856 10.95 79.4356 10.9375 79.6872 10.9375C79.9388 10.9375 80.1887 10.95 80.4294 10.9703C81.4602 11.0444 82.4548 11.3821 83.3177 11.9509C84.1806 12.5197 84.883 13.3006 85.3575 14.2188C85.7765 15.0327 85.9761 15.9418 85.9366 16.8564C85.8972 17.771 85.62 18.6595 85.1325 19.4344L79.6872 28.2703L74.2419 19.4281C73.7555 18.654 73.479 17.7666 73.4395 16.8532C73.4001 15.9398 73.5991 15.0319 74.0169 14.2188Z" fill="url(#paint10_linear_262_7365)"/>
<path d="M79.6875 21.875C80.6146 21.875 81.5209 21.6001 82.2917 21.085C83.0626 20.5699 83.6634 19.8379 84.0182 18.9813C84.373 18.1248 84.4658 17.1823 84.2849 16.273C84.1041 15.3637 83.6576 14.5285 83.0021 13.8729C82.3465 13.2174 81.5113 12.7709 80.602 12.5901C79.6927 12.4092 78.7502 12.502 77.8937 12.8568C77.0371 13.2116 76.3051 13.8124 75.79 14.5833C75.2749 15.3541 75 16.2604 75 17.1875C75 18.4307 75.4939 19.623 76.3729 20.5021C77.252 21.3811 78.4443 21.875 79.6875 21.875ZM79.6875 15.625C79.9965 15.625 80.2986 15.7166 80.5556 15.8883C80.8125 16.06 81.0128 16.304 81.1311 16.5896C81.2493 16.8751 81.2803 17.1892 81.22 17.4923C81.1597 17.7954 81.0109 18.0738 80.7924 18.2924C80.5738 18.5109 80.2954 18.6597 79.9923 18.72C79.6892 18.7803 79.3751 18.7493 79.0896 18.6311C78.804 18.5128 78.56 18.3125 78.3883 18.0556C78.2166 17.7986 78.125 17.4965 78.125 17.1875C78.125 16.7731 78.2896 16.3757 78.5826 16.0826C78.8757 15.7896 79.2731 15.625 79.6875 15.625Z" fill="url(#paint11_linear_262_7365)"/>
<defs>
<linearGradient id="paint0_linear_262_7365" x1="50" y1="1.5625" x2="50" y2="98.4375" gradientUnits="userSpaceOnUse">
<stop offset="0.354167" stop-color="#603C93"/>
<stop offset="1" stop-color="#93693F"/>
</linearGradient>
<linearGradient id="paint1_linear_262_7365" x1="20.3125" y1="7.8125" x2="20.3125" y2="26.5625" gradientUnits="userSpaceOnUse">
<stop offset="0.354167" stop-color="#603C93"/>
<stop offset="1" stop-color="#93693F"/>
</linearGradient>
<linearGradient id="paint2_linear_262_7365" x1="39.0625" y1="7.8125" x2="39.0625" y2="26.5625" gradientUnits="userSpaceOnUse">
<stop offset="0.354167" stop-color="#603C93"/>
<stop offset="1" stop-color="#93693F"/>
</linearGradient>
<linearGradient id="paint3_linear_262_7365" x1="20.3125" y1="29.6875" x2="20.3125" y2="48.4375" gradientUnits="userSpaceOnUse">
<stop offset="0.354167" stop-color="#603C93"/>
<stop offset="1" stop-color="#93693F"/>
</linearGradient>
<linearGradient id="paint4_linear_262_7365" x1="20.3125" y1="51.5625" x2="20.3125" y2="70.3125" gradientUnits="userSpaceOnUse">
<stop offset="0.354167" stop-color="#603C93"/>
<stop offset="1" stop-color="#93693F"/>
</linearGradient>
<linearGradient id="paint5_linear_262_7365" x1="50" y1="48.4375" x2="50" y2="60.9375" gradientUnits="userSpaceOnUse">
<stop offset="0.354167" stop-color="#603C93"/>
<stop offset="1" stop-color="#93693F"/>
</linearGradient>
<linearGradient id="paint6_linear_262_7365" x1="65.625" y1="48.4375" x2="65.625" y2="60.9375" gradientUnits="userSpaceOnUse">
<stop offset="0.354167" stop-color="#603C93"/>
<stop offset="1" stop-color="#93693F"/>
</linearGradient>
<linearGradient id="paint7_linear_262_7365" x1="50" y1="64.0625" x2="50" y2="76.5625" gradientUnits="userSpaceOnUse">
<stop offset="0.354167" stop-color="#603C93"/>
<stop offset="1" stop-color="#93693F"/>
</linearGradient>
<linearGradient id="paint8_linear_262_7365" x1="65.625" y1="64.0625" x2="65.625" y2="76.5625" gradientUnits="userSpaceOnUse">
<stop offset="0.354167" stop-color="#603C93"/>
<stop offset="1" stop-color="#93693F"/>
</linearGradient>
<linearGradient id="paint9_linear_262_7365" x1="79.7111" y1="1.51831" x2="79.7111" y2="39.0625" gradientUnits="userSpaceOnUse">
<stop offset="0.354167" stop-color="#603C93"/>
<stop offset="1" stop-color="#93693F"/>
</linearGradient>
<linearGradient id="paint10_linear_262_7365" x1="79.686" y1="7.81055" x2="79.686" y2="32.8082" gradientUnits="userSpaceOnUse">
<stop offset="0.354167" stop-color="#603C93"/>
<stop offset="1" stop-color="#93693F"/>
</linearGradient>
<linearGradient id="paint11_linear_262_7365" x1="79.6875" y1="12.5" x2="79.6875" y2="21.875" gradientUnits="userSpaceOnUse">
<stop offset="0.354167" stop-color="#603C93"/>
<stop offset="1" stop-color="#93693F"/>
</linearGradient>
</defs>
</svg>
