<svg width="100" height="100" viewBox="0 0 100 100" fill="none" xmlns="http://www.w3.org/2000/svg">
<g clip-path="url(#clip0_262_7378)">
<path d="M70.8135 33.7033L69.7435 30.1816C68.3843 26.1812 64.0395 24.0402 60.0391 25.3993C57.7887 26.1639 56.0214 27.9312 55.2568 30.1816L54.1868 33.7033C53.2864 36.6733 53.0974 39.8135 53.6351 42.87C54.1255 45.4433 55.7593 47.6541 58.0751 48.8783L56.8768 75.6666C56.7164 77.1618 57.2014 78.6546 58.2101 79.77C60.3795 82.1429 64.062 82.3079 66.4349 80.1385C66.5632 80.0212 66.6862 79.8983 66.8035 79.77C67.7897 78.6862 68.2739 77.2373 68.1368 75.7783L66.9318 48.875C69.2445 47.6502 70.8755 45.4408 71.3651 42.87C71.9028 39.8135 71.7139 36.6733 70.8135 33.7033ZM68.0818 42.29C67.721 44.1387 66.4035 45.6556 64.6235 46.2716C63.9478 46.5256 63.5126 47.1856 63.5451 47.9066L64.8118 76.0416C64.8701 76.5935 64.688 77.1437 64.3118 77.5516C63.3083 78.5452 61.692 78.5452 60.6885 77.5516C60.2935 77.1108 60.1141 76.5175 60.1985 75.9316L61.4551 47.9066C61.4876 47.1856 61.0524 46.5256 60.3768 46.2716C58.5968 45.6556 57.2793 44.1387 56.9185 42.29C56.4726 39.7525 56.6297 37.1456 57.3768 34.68L58.4468 31.1566C59.2747 28.9181 61.7605 27.7746 63.9993 28.6025C65.1828 29.0402 66.1157 29.9733 66.5535 31.1566L67.6235 34.68C68.3697 37.1458 68.5268 39.7525 68.0818 42.29Z" fill="url(#paint0_linear_262_7378)"/>
<path d="M44.9997 25C44.0793 25 43.333 25.7462 43.333 26.6667V40.9767L38.8213 45.4883C38.4876 45.8208 38.3101 46.2794 38.333 46.75L39.7913 75.9167C39.8261 76.5456 39.5978 77.1608 39.1613 77.615C38.249 78.5354 36.7632 78.5421 35.8426 77.6296C35.8376 77.6248 35.8328 77.6198 35.828 77.615C35.3913 77.1608 35.1632 76.5456 35.198 75.9167L36.6663 46.75C36.6897 46.2796 36.5128 45.8212 36.1797 45.4883L31.6663 40.9767V26.6667C31.6663 25.7462 30.9201 25 29.9997 25C29.0793 25 28.333 25.7462 28.333 26.6667V41.6667C28.333 42.1087 28.5088 42.5325 28.8213 42.845L33.298 47.3233L31.8763 75.755C31.7251 78.8606 34.1201 81.501 37.2257 81.6523C40.3313 81.8035 42.9718 79.4085 43.123 76.3029C43.132 76.1204 43.132 75.9377 43.123 75.7552L41.7013 47.3235L46.178 42.8452C46.4905 42.5327 46.6663 42.109 46.6663 41.6669V26.6669C46.6663 25.7463 45.9201 25 44.9997 25Z" fill="url(#paint1_linear_262_7378)"/>
<path d="M34.9997 25C34.0793 25 33.333 25.7462 33.333 26.6667V40C33.333 40.9204 34.0793 41.6667 34.9997 41.6667C35.9201 41.6667 36.6663 40.9204 36.6663 40V26.6667C36.6663 25.7462 35.9201 25 34.9997 25Z" fill="url(#paint2_linear_262_7378)"/>
<path d="M39.9997 25C39.0793 25 38.333 25.7462 38.333 26.6667V40C38.333 40.9204 39.0793 41.6667 39.9997 41.6667C40.9201 41.6667 41.6663 40.9204 41.6663 40V26.6667C41.6663 25.7462 40.9201 25 39.9997 25Z" fill="url(#paint3_linear_262_7378)"/>
<path d="M50 0C22.3858 0 0 22.3858 0 50C0 77.6142 22.3858 100 50 100C77.6142 100 100 77.6142 100 50C99.9688 22.3988 77.6012 0.03125 50 0ZM50 96.6667C24.2267 96.6667 3.33333 75.7733 3.33333 50C3.33333 24.2267 24.2267 3.33333 50 3.33333C75.7733 3.33333 96.6667 24.2267 96.6667 50C96.6373 75.761 75.761 96.6373 50 96.6667Z" fill="url(#paint4_linear_262_7378)"/>
<path d="M55.4098 81.2859C55.3205 80.3698 54.5053 79.6996 53.589 79.789C53.5675 79.7911 53.5461 79.7936 53.5246 79.7965L53.5313 79.7948C51.1848 80.0673 48.8144 80.0673 46.468 79.7948C45.5534 79.6875 44.7253 80.3419 44.618 81.2565C44.5107 82.1711 45.165 82.9992 46.0796 83.1065C48.6819 83.4105 51.3107 83.4105 53.913 83.1065C54.829 83.0173 55.4992 82.2021 55.4098 81.2859Z" fill="url(#paint5_linear_262_7378)"/>
<path d="M75.5001 28.5234C74.9087 27.8182 73.8574 27.7259 73.1522 28.3176C73.1499 28.3194 73.1476 28.3215 73.1451 28.3234C72.4416 28.9167 72.352 29.968 72.9451 30.6717C82.9941 42.6009 82.2254 60.2403 71.1768 71.2501C70.5247 71.8998 70.5229 72.9555 71.1726 73.6076C71.8224 74.2596 72.8781 74.2615 73.5301 73.6117C85.8087 61.3798 86.6649 41.7794 75.5001 28.5234Z" fill="url(#paint6_linear_262_7378)"/>
<path d="M38.8316 22.03C38.8305 22.03 38.8295 22.0298 38.8284 22.0298C38.8268 22.0298 38.8251 22.03 38.8232 22.03H38.8316Z" fill="url(#paint7_linear_262_7378)"/>
<path d="M57.8619 17.5983C51.3483 16.0373 44.5171 16.4569 38.2435 18.8033C37.3819 19.1273 36.9462 20.0885 37.2702 20.95C37.5144 21.5994 38.1352 22.0291 38.8287 22.0298C39.0281 22.0287 39.2256 21.9923 39.4119 21.9216C45.0614 19.8089 51.2131 19.4316 57.0785 20.8383C57.9733 21.0546 58.8739 20.5048 59.0902 19.61C59.3064 18.7152 58.7567 17.8146 57.8619 17.5983Z" fill="url(#paint8_linear_262_7378)"/>
<path d="M28.7481 71.1667C23.1295 65.5577 19.9806 57.9392 19.9997 50C19.9833 43.6571 21.9925 37.4746 25.7347 32.3533C26.2879 31.6175 26.1397 30.5727 25.4039 30.0196C24.6681 29.4665 23.6233 29.6146 23.0702 30.3504C23.0604 30.3636 23.0508 30.3767 23.0414 30.39C13.4054 43.6375 14.8233 61.9231 26.3864 73.5267C27.0381 74.1788 28.0952 74.1792 28.7472 73.5275C29.3993 72.8759 29.3997 71.8188 28.7481 71.1667Z" fill="url(#paint9_linear_262_7378)"/>
</g>
<defs>
<linearGradient id="paint0_linear_262_7378" x1="62.5001" y1="24.9906" x2="62.5001" y2="81.6635" gradientUnits="userSpaceOnUse">
<stop offset="0.354167" stop-color="#603C93"/>
<stop offset="1" stop-color="#93693F"/>
</linearGradient>
<linearGradient id="paint1_linear_262_7378" x1="37.4997" y1="25" x2="37.4997" y2="81.6591" gradientUnits="userSpaceOnUse">
<stop offset="0.354167" stop-color="#603C93"/>
<stop offset="1" stop-color="#93693F"/>
</linearGradient>
<linearGradient id="paint2_linear_262_7378" x1="34.9997" y1="25" x2="34.9997" y2="41.6667" gradientUnits="userSpaceOnUse">
<stop offset="0.354167" stop-color="#603C93"/>
<stop offset="1" stop-color="#93693F"/>
</linearGradient>
<linearGradient id="paint3_linear_262_7378" x1="39.9997" y1="25" x2="39.9997" y2="41.6667" gradientUnits="userSpaceOnUse">
<stop offset="0.354167" stop-color="#603C93"/>
<stop offset="1" stop-color="#93693F"/>
</linearGradient>
<linearGradient id="paint4_linear_262_7378" x1="50" y1="0" x2="50" y2="100" gradientUnits="userSpaceOnUse">
<stop offset="0.354167" stop-color="#603C93"/>
<stop offset="1" stop-color="#93693F"/>
</linearGradient>
<linearGradient id="paint5_linear_262_7378" x1="50.0121" y1="79.781" x2="50.0121" y2="83.3345" gradientUnits="userSpaceOnUse">
<stop offset="0.354167" stop-color="#603C93"/>
<stop offset="1" stop-color="#93693F"/>
</linearGradient>
<linearGradient id="paint6_linear_262_7378" x1="77.0124" y1="27.9277" x2="77.0124" y2="74.0978" gradientUnits="userSpaceOnUse">
<stop offset="0.354167" stop-color="#603C93"/>
<stop offset="1" stop-color="#93693F"/>
</linearGradient>
<linearGradient id="paint7_linear_262_7378" x1="38.8274" y1="22.0298" x2="38.8274" y2="22.03" gradientUnits="userSpaceOnUse">
<stop offset="0.354167" stop-color="#603C93"/>
<stop offset="1" stop-color="#93693F"/>
</linearGradient>
<linearGradient id="paint8_linear_262_7378" x1="48.1502" y1="16.6722" x2="48.1502" y2="22.0298" gradientUnits="userSpaceOnUse">
<stop offset="0.354167" stop-color="#603C93"/>
<stop offset="1" stop-color="#93693F"/>
</linearGradient>
<linearGradient id="paint9_linear_262_7378" x1="22.9503" y1="29.6851" x2="22.9503" y2="74.016" gradientUnits="userSpaceOnUse">
<stop offset="0.354167" stop-color="#603C93"/>
<stop offset="1" stop-color="#93693F"/>
</linearGradient>
<clipPath id="clip0_262_7378">
<rect width="100" height="100" fill="white"/>
</clipPath>
</defs>
</svg>
