<svg width="100" height="100" viewBox="0 0 100 100" fill="none" xmlns="http://www.w3.org/2000/svg">
<path d="M93.1068 63.5904L88.0719 62.5834L77.8745 56.4651C74.2319 54.2798 70.0639 53.1253 65.816 53.125H50.8564C46.9585 53.128 43.1225 54.1002 39.6937 55.9542L13.1167 70.35C11.0216 71.4876 9.18542 73.0477 7.72433 74.9315C6.26324 76.8154 5.20903 78.9819 4.62839 81.2942L3.17165 87.121C3.11406 87.3514 3.10973 87.5918 3.15899 87.8241C3.20825 88.0564 3.3098 88.2744 3.45593 88.4616C3.60207 88.6487 3.78893 88.8001 4.00234 88.9043C4.21574 89.0084 4.45007 89.0625 4.68753 89.0625H14.1952C14.5641 91.2469 15.6947 93.2301 17.3866 94.6602C19.0785 96.0903 21.2222 96.875 23.4375 96.875C25.6529 96.875 27.7966 96.0903 29.4885 94.6602C31.1803 93.2301 32.311 91.2469 32.6798 89.0625H67.3202C67.6891 91.2469 68.8197 93.2301 70.5116 94.6602C72.2035 96.0903 74.3472 96.875 76.5625 96.875C78.7779 96.875 80.9216 96.0903 82.6135 94.6602C84.3053 93.2301 85.436 91.2469 85.8048 89.0625H85.9375C88.8373 89.0592 91.6174 87.9058 93.6679 85.8554C95.7184 83.8049 96.8717 81.0248 96.875 78.125V68.1869C96.8726 67.1039 96.4963 66.0549 95.8097 65.2174C95.1231 64.3799 94.1683 63.8051 93.1068 63.5904ZM13.6467 73.6731C13.9144 73.9606 14.0631 74.339 14.0625 74.7319V75C14.0621 75.4143 13.8973 75.8114 13.6044 76.1043C13.3114 76.3973 12.9143 76.562 12.5 76.5625H10.4251C11.3436 75.4391 12.4303 74.4644 13.6467 73.6731ZM23.4375 93.75C22.2014 93.75 20.993 93.3834 19.9652 92.6967C18.9374 92.0099 18.1363 91.0338 17.6633 89.8918C17.1902 88.7497 17.0665 87.4931 17.3076 86.2807C17.5488 85.0683 18.144 83.9547 19.0181 83.0806C19.8922 82.2065 21.0058 81.6112 22.2182 81.3701C23.4306 81.1289 24.6873 81.2527 25.8293 81.7258C26.9713 82.1988 27.9475 82.9999 28.6342 84.0277C29.321 85.0555 29.6875 86.2639 29.6875 87.5C29.6857 89.157 29.0266 90.7457 27.8549 91.9174C26.6832 93.0891 25.0946 93.7481 23.4375 93.75ZM76.5625 93.75C75.3264 93.75 74.118 93.3834 73.0902 92.6967C72.0624 92.0099 71.2613 91.0338 70.7883 89.8918C70.3152 88.7497 70.1915 87.4931 70.4326 86.2807C70.6738 85.0683 71.269 83.9547 72.1431 83.0806C73.0172 82.2065 74.1308 81.6112 75.3432 81.3701C76.5556 81.1289 77.8123 81.2527 78.9543 81.7258C80.0963 82.1988 81.0725 82.9999 81.7592 84.0277C82.446 85.0555 82.8125 86.2639 82.8125 87.5C82.8107 89.157 82.1516 90.7457 80.9799 91.9174C79.8082 93.0891 78.2196 93.7481 76.5625 93.75ZM93.75 78.125C93.7477 80.1963 92.9238 82.1821 91.4592 83.6467C89.9946 85.1113 88.0088 85.9352 85.9375 85.9375H85.8048C85.436 83.7531 84.3053 81.7699 82.6135 80.3398C80.9216 78.9097 78.7779 78.125 76.5625 78.125C74.3472 78.125 72.2035 78.9097 70.5116 80.3398C68.8197 81.7699 67.6891 83.7531 67.3202 85.9375H32.6798C32.311 83.7531 31.1803 81.7699 29.4885 80.3398C27.7966 78.9097 25.6529 78.125 23.4375 78.125C21.2222 78.125 19.0785 78.9097 17.3866 80.3398C15.6947 81.7699 14.5641 83.7531 14.1952 85.9375H6.68872L7.66013 82.0521C7.8646 81.2408 8.14146 80.4494 8.48737 79.6875H12.5C13.7428 79.6861 14.9343 79.1918 15.8131 78.313C16.6918 77.4343 17.1861 76.2428 17.1875 75V74.7319C17.19 73.8042 16.9151 72.8968 16.3982 72.1264L41.1821 58.7019C44.1537 57.0952 47.4782 56.2526 50.8564 56.25H65.816C69.4975 56.2502 73.1098 57.2508 76.2668 59.1447L86.6961 65.4023C86.8497 65.4944 87.018 65.5595 87.1936 65.5947L90.8412 66.3242L88.873 68.2923C88.4364 68.7266 88.0902 69.2432 87.8545 69.8121C87.6188 70.3811 87.4984 70.9911 87.5 71.6069V71.875C87.5014 73.1178 87.9957 74.3093 88.8745 75.188C89.7533 76.0668 90.9448 76.5611 92.1875 76.5625H93.75V78.125ZM93.75 73.4375H92.1875C91.7733 73.437 91.3761 73.2723 91.0832 72.9793C90.7903 72.6864 90.6255 72.2893 90.625 71.875V71.6069C90.6245 71.4016 90.6646 71.1983 90.7432 71.0086C90.8217 70.819 90.9371 70.6468 91.0827 70.502L93.7159 67.8689C93.7382 67.9734 93.7496 68.08 93.75 68.1869V73.4375Z" fill="url(#paint0_linear_262_7436)"/>
<path d="M25 85.9375H21.875V89.0625H25V85.9375Z" fill="url(#paint1_linear_262_7436)"/>
<path d="M78.125 85.9375H75V89.0625H78.125V85.9375Z" fill="url(#paint2_linear_262_7436)"/>
<path d="M76.5525 62.0621C73.7954 60.3057 70.594 59.3735 67.325 59.375H51.0992C48.0562 59.3759 45.0679 60.1837 42.439 61.7163L27.3377 70.5254C27.0411 70.6984 26.8098 70.9642 26.6794 71.2819C26.5491 71.5996 26.527 71.9513 26.6166 72.2828C26.7063 72.6142 26.9025 72.907 27.1752 73.1157C27.4478 73.3244 27.7816 73.4375 28.125 73.4375H73.24C74.5754 73.4375 75.8749 73.0042 76.9431 72.2027C78.0113 71.4012 78.7906 70.2748 79.164 68.9926C79.5374 67.7103 79.4846 66.3416 79.0137 65.0919C78.5428 63.8422 77.6792 62.779 76.5525 62.0621ZM57.8125 70.3125H33.9045L44.0135 64.4156C46.1645 63.1617 48.6095 62.5007 51.0992 62.5H57.8125V70.3125ZM76.1636 68.1188C75.9929 68.7594 75.6118 69.324 75.0816 69.7218C74.5513 70.1197 73.9027 70.3277 73.24 70.3125H60.9375V62.5H67.325C69.9997 62.4988 72.619 63.2616 74.8749 64.6986C75.4422 65.0415 75.8777 65.5652 76.1114 66.1855C76.3452 66.8059 76.3635 67.4868 76.1636 68.1188Z" fill="url(#paint3_linear_262_7436)"/>
<path d="M57.8125 76.5625H51.5625V79.6875H57.8125V76.5625Z" fill="url(#paint4_linear_262_7436)"/>
<path d="M70.3125 37.5C71.8577 37.5 73.3681 37.0418 74.6529 36.1834C75.9377 35.3249 76.939 34.1048 77.5303 32.6772C78.1216 31.2497 78.2763 29.6788 77.9749 28.1634C77.6734 26.6479 76.9294 25.2558 75.8368 24.1632C74.7442 23.0706 73.3521 22.3266 71.8366 22.0251C70.3212 21.7237 68.7503 21.8784 67.3228 22.4697C65.8952 23.061 64.6751 24.0624 63.8166 25.3471C62.9582 26.6319 62.5 28.1423 62.5 29.6875C62.5023 31.7588 63.3262 33.7446 64.7908 35.2092C66.2554 36.6738 68.2412 37.4977 70.3125 37.5ZM70.3125 25C71.2396 25 72.1459 25.2749 72.9167 25.79C73.6876 26.3051 74.2884 27.0371 74.6432 27.8937C74.998 28.7502 75.0908 29.6927 74.9099 30.602C74.7291 31.5113 74.2826 32.3465 73.6271 33.0021C72.9715 33.6576 72.1363 34.1041 71.227 34.2849C70.3177 34.4658 69.3752 34.373 68.5187 34.0182C67.6621 33.6634 66.9301 33.0626 66.415 32.2917C65.8999 31.5209 65.625 30.6146 65.625 29.6875C65.6264 28.4447 66.1207 27.2533 66.9995 26.3745C67.8783 25.4957 69.0697 25.0014 70.3125 25Z" fill="url(#paint5_linear_262_7436)"/>
<path d="M61.9989 14.8126L59.6029 13.3443C59.3037 13.1609 58.9514 13.0837 58.6029 13.1249C58.2543 13.1662 57.9298 13.3236 57.6817 13.5717L54.1968 17.0566C53.9486 17.3047 53.7912 17.6292 53.75 17.9777C53.7087 18.3262 53.786 18.6785 53.9694 18.9777L55.4377 21.3738C55.6406 21.705 55.7623 22.0795 55.7927 22.4668C55.8232 22.854 55.7615 23.2429 55.6128 23.6018C55.4641 23.9606 55.2326 24.2791 54.9372 24.5313C54.6418 24.7835 54.2909 24.9622 53.9132 25.0528L51.1982 25.7038C50.8568 25.7856 50.553 25.9801 50.3356 26.2557C50.1182 26.5313 50 26.8722 50 27.2232V32.1518C50 32.5028 50.1182 32.8437 50.3356 33.1193C50.553 33.3949 50.8568 33.5894 51.1982 33.6712L53.9131 34.3223C54.2908 34.4128 54.6417 34.5915 54.9371 34.8437C55.2326 35.0959 55.4641 35.4144 55.6128 35.7732C55.7615 36.132 55.8231 36.521 55.7926 36.9082C55.7622 37.2954 55.6405 37.6699 55.4376 38.0011L53.9693 40.3971C53.7859 40.6963 53.7086 41.0486 53.7499 41.3971C53.7911 41.7457 53.9486 42.0702 54.1967 42.3183L57.6816 45.8032C57.9297 46.0513 58.2542 46.2087 58.6027 46.25C58.9512 46.2912 59.3035 46.2139 59.6027 46.0306L61.9988 44.5623C62.33 44.3594 62.7045 44.2377 63.0918 44.2073C63.479 44.1768 63.8679 44.2385 64.2268 44.3872C64.5856 44.5359 64.9041 44.7674 65.1563 45.0628C65.4085 45.3582 65.5872 45.7091 65.6778 46.0868L66.3288 48.8018C66.4106 49.1432 66.6051 49.447 66.8807 49.6644C67.1563 49.8818 67.4972 50 67.8482 50H72.7768C73.1278 50 73.4687 49.8818 73.7443 49.6644C74.0199 49.447 74.2144 49.1432 74.2962 48.8018L74.9473 46.0869C75.0378 45.7092 75.2165 45.3583 75.4687 45.0629C75.7209 44.7674 76.0394 44.5359 76.3982 44.3872C76.757 44.2385 77.146 44.1769 77.5332 44.2074C77.9204 44.2378 78.2949 44.3595 78.6261 44.5624L81.0221 46.0307C81.3213 46.214 81.6736 46.2913 82.0221 46.25C82.3707 46.2088 82.6952 46.0514 82.9433 45.8033L86.4282 42.3184C86.6764 42.0703 86.8338 41.7458 86.875 41.3973C86.9163 41.0488 86.839 40.6965 86.6556 40.3973L85.1873 38.0012C84.9844 37.67 84.8627 37.2955 84.8323 36.9082C84.8018 36.521 84.8635 36.1321 85.0122 35.7732C85.1609 35.4144 85.3924 35.0959 85.6878 34.8437C85.9832 34.5915 86.3341 34.4128 86.7118 34.3222L89.4268 33.6712C89.7682 33.5894 90.072 33.3949 90.2894 33.1193C90.5068 32.8437 90.625 32.5028 90.625 32.1518V27.2232C90.625 26.8722 90.5068 26.5313 90.2894 26.2557C90.072 25.9801 89.7682 25.7856 89.4268 25.7038L86.7119 25.0527C86.3342 24.9622 85.9833 24.7835 85.6879 24.5313C85.3924 24.2791 85.1609 23.9606 85.0122 23.6018C84.8635 23.243 84.8019 22.854 84.8324 22.4668C84.8628 22.0796 84.9845 21.7051 85.1874 21.3739L86.6557 18.9779C86.8391 18.6787 86.9164 18.3264 86.8751 17.9779C86.8339 17.6293 86.6764 17.3048 86.4283 17.0567L82.9434 13.5718C82.6953 13.3236 82.3708 13.1662 82.0223 13.1249C81.6738 13.0837 81.3215 13.161 81.0223 13.3444L78.6262 14.8127C78.295 15.0156 77.9205 15.1373 77.5332 15.1677C77.146 15.1981 76.7571 15.1365 76.3982 14.9878C76.0394 14.8391 75.7209 14.6076 75.4687 14.3122C75.2165 14.0168 75.0378 13.6659 74.9472 13.2882L74.2962 10.5732C74.2144 10.2318 74.0199 9.92796 73.7443 9.71059C73.4687 9.49321 73.1278 9.375 72.7768 9.375H67.8482C67.4972 9.375 67.1563 9.49321 66.8807 9.71059C66.6051 9.92796 66.4106 10.2318 66.3288 10.5732L65.6777 13.2881C65.5872 13.6658 65.4085 14.0167 65.1563 14.3121C64.9041 14.6076 64.5856 14.8391 64.2268 14.9878C63.868 15.1365 63.479 15.1981 63.0918 15.1676C62.7046 15.1372 62.3301 15.0155 61.9989 14.8126ZM65.4231 17.8747C66.2369 17.5361 66.9593 17.0102 67.5315 16.3399C68.1038 15.6695 68.5099 14.8735 68.7166 14.0167L69.0804 12.5H71.5446L71.9084 14.0169C72.114 14.8742 72.5196 15.6707 73.092 16.3412C73.6645 17.0117 74.3875 17.5372 75.2019 17.8747C76.0164 18.2122 76.8992 18.3522 77.7781 18.2831C78.657 18.214 79.5071 17.9378 80.2588 17.4772L81.6048 16.6525L83.3476 18.3953L82.5229 19.7412C82.0622 20.4929 81.786 21.343 81.7169 22.2219C81.6478 23.1008 81.7878 23.9837 82.1253 24.7981C82.4628 25.6126 82.9883 26.3356 83.6589 26.9081C84.3294 27.4805 85.1259 27.8861 85.9833 28.0916L87.5 28.4554V30.9196L85.9831 31.2834C85.1258 31.489 84.3293 31.8946 83.6588 32.467C82.9883 33.0395 82.4628 33.7625 82.1253 34.5769C81.7878 35.3914 81.6478 36.2742 81.7169 37.1531C81.786 38.032 82.0622 38.8821 82.5228 39.6338L83.3475 40.9798L81.6047 42.7226L80.2588 41.8979C79.5071 41.4372 78.657 41.161 77.7781 41.0919C76.8992 41.0228 76.0163 41.1628 75.2019 41.5003C74.3874 41.8378 73.6644 42.3633 73.0919 43.0339C72.5195 43.7044 72.1139 44.5009 71.9084 45.3583L71.5446 46.875H69.0804L68.7166 45.3581C68.511 44.5008 68.1054 43.7043 67.533 43.0338C66.9605 42.3633 66.2375 41.8378 65.4231 41.5003C64.6086 41.1628 63.7258 41.0228 62.8469 41.0919C61.968 41.161 61.1179 41.4372 60.3662 41.8978L59.0202 42.7225L57.2774 40.9797L58.1021 39.6338C58.5628 38.8821 58.839 38.032 58.9081 37.1531C58.9772 36.2742 58.8372 35.3913 58.4997 34.5769C58.1622 33.7624 57.6367 33.0394 56.9661 32.4669C56.2956 31.8945 55.4991 31.4889 54.6417 31.2834L53.125 30.9196V28.4554L54.6419 28.0916C55.4992 27.886 56.2957 27.4804 56.9662 26.908C57.6367 26.3355 58.1622 25.6125 58.4997 24.7981C58.8372 23.9836 58.9772 23.1008 58.9081 22.2219C58.839 21.343 58.5628 20.4929 58.1022 19.7412L57.2775 18.3952L59.0203 16.6524L60.3662 17.4771C61.1184 17.9365 61.9684 18.2119 62.8471 18.281C63.7257 18.35 64.6083 18.2109 65.4231 17.8747Z" fill="url(#paint6_linear_262_7436)"/>
<path d="M16.2289 38.751C16.9211 39.4408 17.3791 40.3307 17.5381 41.295L18.7713 48.6943C18.8321 49.0592 19.0203 49.3906 19.3025 49.6297C19.5848 49.8688 19.9426 50 20.3125 50H32.8125C33.1824 50 33.5403 49.8688 33.8225 49.6297C34.1047 49.3906 34.2929 49.0592 34.3537 48.6943L35.5869 41.2951C35.7459 40.3308 36.2039 39.4409 36.8961 38.751L39.0855 36.5617C41.3127 34.3344 42.8295 31.4968 43.444 28.4075C44.0585 25.3183 43.7431 22.1161 42.5378 19.2061C41.3324 16.2961 39.2912 13.8089 36.6722 12.0589C34.0533 10.309 30.9742 9.37499 27.8244 9.375H25.3006C22.1508 9.375 19.0718 10.309 16.4528 12.0589C13.8339 13.8089 11.7926 16.2961 10.5873 19.2061C9.3819 22.1161 9.06652 25.3183 9.68102 28.4075C10.2955 31.4968 11.8123 34.3344 14.0395 36.5617L16.2289 38.751ZM31.4889 46.875H21.6361L20.8549 42.1875H32.2701L31.4889 46.875ZM25.3006 12.5H27.8244C30.3561 12.5 32.831 13.2508 34.936 14.6573C37.0411 16.0639 38.6818 18.063 39.6506 20.402C40.6195 22.741 40.873 25.3148 40.3791 27.7979C39.8851 30.281 38.666 32.5618 36.8758 34.352L34.6865 36.5414C33.9632 37.2627 33.3892 38.1193 32.997 39.0625H20.128C19.7359 38.1193 19.1618 37.2627 18.4385 36.5414L16.2492 34.352C14.459 32.5618 13.2399 30.281 12.746 27.7979C12.2521 25.3148 12.5056 22.741 13.4744 20.402C14.4433 18.063 16.0839 16.0639 18.189 14.6573C20.294 13.2508 22.7689 12.5 25.3006 12.5Z" fill="url(#paint7_linear_262_7436)"/>
<path d="M23.4375 29.6874C24.5537 29.6884 25.6496 29.3886 26.6098 28.8194L31.7077 33.9173L33.9173 31.7076L28.8195 26.6097C29.5186 25.4225 29.8056 24.0375 29.636 22.6702C29.4664 21.3029 28.8496 20.03 27.8815 19.0496C26.9135 18.0692 25.6486 17.4362 24.2835 17.2492C22.9185 17.0622 21.5299 17.3317 20.3339 18.0156C19.1379 18.6996 18.2014 19.7597 17.6703 21.031C17.1393 22.3023 17.0433 23.7135 17.3973 25.045C17.7514 26.3765 18.5356 27.5537 19.628 28.3933C20.7204 29.2329 22.0597 29.6879 23.4375 29.6874ZM23.4375 20.3124C24.0556 20.3124 24.6598 20.4957 25.1737 20.8391C25.6876 21.1825 26.0881 21.6705 26.3246 22.2416C26.5612 22.8126 26.623 23.4409 26.5025 24.0471C26.3819 24.6533 26.0843 25.2101 25.6472 25.6472C25.2102 26.0842 24.6534 26.3818 24.0472 26.5024C23.441 26.623 22.8126 26.5611 22.2416 26.3246C21.6706 26.088 21.1825 25.6875 20.8392 25.1736C20.4958 24.6597 20.3125 24.0555 20.3125 23.4374C20.3135 22.6089 20.643 21.8146 21.2288 21.2288C21.8147 20.6429 22.609 20.3134 23.4375 20.3124Z" fill="url(#paint8_linear_262_7436)"/>
<path d="M92.8124 59.0534L95.8704 59.6968C97.5596 51.6407 97.1125 43.283 94.5734 35.4531L91.6025 36.4221C93.9718 43.7314 94.3888 51.5331 92.8124 59.0534Z" fill="url(#paint9_linear_262_7436)"/>
<path d="M49.9998 6.25C54.6107 6.24529 59.1933 6.97004 63.5778 8.39739L64.5467 5.4265C54.5348 2.17624 43.7226 2.37353 33.8359 5.98688L34.9136 8.9202C39.7453 7.14684 44.8529 6.24283 49.9998 6.25Z" fill="url(#paint10_linear_262_7436)"/>
<path d="M10.1587 68.1026C7.74214 62.7658 6.41822 56.9992 6.26502 51.1427C6.11181 45.2862 7.13241 39.4583 9.26667 34.0024L6.35834 32.8591C4.07079 38.7049 2.97688 44.9496 3.14109 51.2249C3.30531 57.5001 4.72433 63.679 7.3145 69.3972L10.1587 68.1026Z" fill="url(#paint11_linear_262_7436)"/>
<defs>
<linearGradient id="paint0_linear_262_7436" x1="50" y1="53.125" x2="50" y2="96.875" gradientUnits="userSpaceOnUse">
<stop offset="0.354167" stop-color="#603C93"/>
<stop offset="1" stop-color="#93693F"/>
</linearGradient>
<linearGradient id="paint1_linear_262_7436" x1="23.4375" y1="85.9375" x2="23.4375" y2="89.0625" gradientUnits="userSpaceOnUse">
<stop offset="0.354167" stop-color="#603C93"/>
<stop offset="1" stop-color="#93693F"/>
</linearGradient>
<linearGradient id="paint2_linear_262_7436" x1="76.5625" y1="85.9375" x2="76.5625" y2="89.0625" gradientUnits="userSpaceOnUse">
<stop offset="0.354167" stop-color="#603C93"/>
<stop offset="1" stop-color="#93693F"/>
</linearGradient>
<linearGradient id="paint3_linear_262_7436" x1="52.9863" y1="59.375" x2="52.9863" y2="73.4375" gradientUnits="userSpaceOnUse">
<stop offset="0.354167" stop-color="#603C93"/>
<stop offset="1" stop-color="#93693F"/>
</linearGradient>
<linearGradient id="paint4_linear_262_7436" x1="54.6875" y1="76.5625" x2="54.6875" y2="79.6875" gradientUnits="userSpaceOnUse">
<stop offset="0.354167" stop-color="#603C93"/>
<stop offset="1" stop-color="#93693F"/>
</linearGradient>
<linearGradient id="paint5_linear_262_7436" x1="70.3125" y1="21.875" x2="70.3125" y2="37.5" gradientUnits="userSpaceOnUse">
<stop offset="0.354167" stop-color="#603C93"/>
<stop offset="1" stop-color="#93693F"/>
</linearGradient>
<linearGradient id="paint6_linear_262_7436" x1="70.3125" y1="9.375" x2="70.3125" y2="50" gradientUnits="userSpaceOnUse">
<stop offset="0.354167" stop-color="#603C93"/>
<stop offset="1" stop-color="#93693F"/>
</linearGradient>
<linearGradient id="paint7_linear_262_7436" x1="26.5625" y1="9.375" x2="26.5625" y2="50" gradientUnits="userSpaceOnUse">
<stop offset="0.354167" stop-color="#603C93"/>
<stop offset="1" stop-color="#93693F"/>
</linearGradient>
<linearGradient id="paint8_linear_262_7436" x1="25.5524" y1="17.1914" x2="25.5524" y2="33.9173" gradientUnits="userSpaceOnUse">
<stop offset="0.354167" stop-color="#603C93"/>
<stop offset="1" stop-color="#93693F"/>
</linearGradient>
<linearGradient id="paint9_linear_262_7436" x1="94.2387" y1="35.4531" x2="94.2387" y2="59.6968" gradientUnits="userSpaceOnUse">
<stop offset="0.354167" stop-color="#603C93"/>
<stop offset="1" stop-color="#93693F"/>
</linearGradient>
<linearGradient id="paint10_linear_262_7436" x1="49.1913" y1="3.125" x2="49.1913" y2="8.9202" gradientUnits="userSpaceOnUse">
<stop offset="0.354167" stop-color="#603C93"/>
<stop offset="1" stop-color="#93693F"/>
</linearGradient>
<linearGradient id="paint11_linear_262_7436" x1="6.64187" y1="32.8591" x2="6.64187" y2="69.3972" gradientUnits="userSpaceOnUse">
<stop offset="0.354167" stop-color="#603C93"/>
<stop offset="1" stop-color="#93693F"/>
</linearGradient>
</defs>
</svg>
