<svg width="100" height="100" viewBox="0 0 100 100" fill="none" xmlns="http://www.w3.org/2000/svg">
<g clip-path="url(#clip0_262_7450)">
<path d="M99.6926 46.6433L96.4413 38.6287C97.3207 37.5912 97.8533 36.247 97.8533 34.7794C97.8533 32.0138 95.9663 29.6836 93.421 29.026C93.4206 28.6406 93.4214 18.9877 93.421 18.5784C93.421 17.2477 92.6085 16.1066 91.351 15.6713L50.1673 1.41419C48.4682 0.825705 46.5969 0.825901 44.8977 1.41419L34.6438 4.96386C33.8793 5.22832 33.474 6.06271 33.7387 6.82718C34.0033 7.59204 34.8375 7.99673 35.6022 7.73227L45.8561 4.1826C46.9368 3.80818 48.1274 3.80818 49.2087 4.1826L90.3924 18.4395C90.4363 18.4547 90.491 18.4739 90.491 18.5782C90.491 18.6825 90.4363 18.7016 90.3924 18.7168L76.215 23.6249V23.1863C76.215 21.4114 74.947 19.8958 73.1999 19.5827C56.1682 16.5279 38.8964 16.5279 21.8646 19.5827C20.1177 19.896 18.8496 21.4114 18.8496 23.1863V23.6249L4.67235 18.7168C4.6284 18.7016 4.57371 18.6825 4.57371 18.5782C4.57371 18.4739 4.6284 18.4547 4.67235 18.4395L29.0236 10.0097C29.788 9.7452 30.1933 8.91081 29.9286 8.14634C29.664 7.38168 28.8296 6.97679 28.0651 7.24125L3.71393 15.6713C2.45649 16.1066 1.64397 17.2475 1.64397 18.5784C1.64397 19.9092 2.45649 21.0501 3.71393 21.4854L18.8497 26.7252V41.2227C11.1768 41.9866 5.16454 48.4787 5.16454 56.3493C5.16454 61.6088 7.85014 66.252 11.9211 68.9826C5.11103 70.4873 0 76.5684 0 83.8244C0 92.207 6.81985 99.0268 15.2024 99.0268H90.5012C93.0176 99.0268 95.0648 96.9797 95.0648 94.4633C95.0648 91.9779 93.0675 89.9517 90.5938 89.9021C89.0633 85.9688 89.0516 81.6865 90.5584 77.7478C93.0485 77.7169 95.0648 75.6829 95.0648 73.1856C95.0648 70.6691 93.0176 68.622 90.5012 68.622H89.5967C89.792 68.1144 89.9002 67.5638 89.9002 66.9882C89.9002 64.4717 87.8531 62.4246 85.3366 62.4246H85.2972C83.878 58.7451 83.7859 54.7634 85.0208 51.0444C85.796 51.8834 86.8867 52.3711 88.0453 52.3711H95.8665C97.239 52.3711 98.5179 51.6889 99.2875 50.5459C100.065 49.3922 100.216 47.9332 99.6926 46.6433ZM94.9235 34.7794C94.9235 36.4386 93.5923 37.7885 91.9561 37.7885C90.3199 37.7885 88.9887 36.4386 88.9887 34.7794C88.9887 33.1202 90.3199 31.7702 91.9561 31.7702C93.5923 31.7702 94.9235 33.12 94.9235 34.7794ZM90.4912 21.7829V29.026C87.9459 29.6836 86.0589 32.0138 86.0589 34.7794C86.0589 36.2472 86.5916 37.5912 87.4709 38.6287L86.4494 41.1465H76.2152V26.7252L90.4912 21.7829ZM22.3818 22.4663C39.0704 19.4737 55.9943 19.4737 72.6829 22.4663C73.0319 22.529 73.2853 22.8318 73.2853 23.1864V33.1704H64.2589C63.4499 33.1704 62.7941 33.8261 62.7941 34.6353C62.7941 35.4445 63.4499 36.1002 64.2589 36.1002H73.2853V41.1467H21.7795V36.1002H57.4229C58.2319 36.1002 58.8878 35.4445 58.8878 34.6353C58.8878 33.8261 58.2319 33.1704 57.4229 33.1704H21.7795V23.1864C21.7795 22.8318 22.0328 22.529 22.3818 22.4663ZM92.1352 73.1854C92.1352 74.0862 91.4024 74.8192 90.5014 74.8192H15.2024C10.2371 74.8192 6.19737 78.8589 6.19737 83.8242C6.19737 88.7896 10.2371 92.8291 15.2024 92.8291H73.0482C73.8572 92.8291 74.513 92.1734 74.513 91.3642C74.513 90.555 73.8572 89.8993 73.0482 89.8993H15.2024C11.8526 89.8993 9.12711 87.1741 9.12711 83.8242C9.12711 80.4744 11.8526 77.7489 15.2024 77.7489H61.4015V85.9604C61.4015 86.4446 61.6407 86.8975 62.0407 87.1704C62.4405 87.4432 62.9495 87.5012 63.4005 87.3243L67.3555 85.7756L71.3104 87.3243C71.4831 87.3921 71.6641 87.4253 71.8444 87.4253C72.1351 87.4253 72.4233 87.3389 72.6702 87.1704C73.0702 86.8975 73.3095 86.4446 73.3095 85.9604V77.7489H87.4498C86.1767 81.7179 86.1859 85.9344 87.4787 89.8995H79.8842C79.0752 89.8995 78.4193 90.5552 78.4193 91.3644C78.4193 92.1736 79.0752 92.8293 79.8842 92.8293H90.5012C91.4022 92.8293 92.135 93.5623 92.135 94.4631C92.135 95.3639 91.4022 96.0969 90.5012 96.0969H15.2024C8.4353 96.0971 2.92974 90.5915 2.92974 83.8242C2.92974 77.0569 8.4353 71.5516 15.2024 71.5516H90.5012C91.4022 71.5516 92.1352 72.2846 92.1352 73.1854ZM64.3312 77.7491H70.3798V83.8139L67.8897 82.8389C67.5461 82.7043 67.1648 82.7043 66.8213 82.8389L64.3312 83.8139V77.7491ZM39.2585 65.3542H85.3368C86.2378 65.3542 86.9707 66.0872 86.9707 66.988C86.9707 67.8888 86.2378 68.6218 85.3368 68.6218H20.367C13.5998 68.6218 8.09428 63.1163 8.09428 56.3489C8.09428 49.5816 13.5998 44.0763 20.367 44.0763H85.2607C84.8988 45.0478 84.23 46.4249 84.005 47.3439H20.367C15.4016 47.3439 11.3619 51.3836 11.3619 56.3489C11.3619 61.3143 15.4016 65.3538 20.367 65.3538H32.4224C33.2314 65.3538 33.8873 64.6981 33.8873 63.8889C33.8873 63.0797 33.2314 62.424 32.4224 62.424H20.367C17.0171 62.424 14.2917 59.6988 14.2917 56.3489C14.2917 52.9991 17.0171 50.2736 20.367 50.2736H25.7227V58.4148C25.7227 58.899 25.962 59.3519 26.362 59.6248C26.7618 59.8976 27.271 59.9555 27.7218 59.7787L31.6767 58.23L35.6317 59.7787C35.8043 59.8465 35.9854 59.8797 36.1657 59.8797C36.4563 59.8797 36.7446 59.7933 36.9915 59.6248C37.3915 59.3519 37.6307 58.899 37.6307 58.4148V50.2736H82.1858C80.903 54.2407 80.903 58.4572 82.1858 62.4242H39.2585C38.4495 62.4242 37.7936 63.0799 37.7936 63.8891C37.7936 64.6983 38.4495 65.3542 39.2585 65.3542ZM28.6525 50.2738H34.701V56.2681L32.2109 55.2931C31.8674 55.1585 31.4861 55.1585 31.1425 55.2931L28.6525 56.2681V50.2738ZM96.8576 48.9092C96.7499 49.0691 96.4376 49.4412 95.8665 49.4412H88.0453C87.4742 49.4412 87.1621 49.0691 87.0543 48.9092C86.8191 48.5601 86.7754 48.1355 86.9339 47.7445L89.9309 40.3573C90.5627 40.5907 91.2448 40.718 91.9559 40.718C92.6671 40.718 93.3491 40.5907 93.9809 40.3573L96.9777 47.7445C97.1365 48.1357 97.0927 48.5601 96.8576 48.9092Z" fill="url(#paint0_linear_262_7450)"/>
</g>
<defs>
<linearGradient id="paint0_linear_262_7450" x1="50" y1="0.9729" x2="50" y2="99.0268" gradientUnits="userSpaceOnUse">
<stop offset="0.354167" stop-color="#603C93"/>
<stop offset="1" stop-color="#93693F"/>
</linearGradient>
<clipPath id="clip0_262_7450">
<rect width="100" height="100" fill="white"/>
</clipPath>
</defs>
</svg>
