<svg width="100" height="100" viewBox="0 0 100 100" fill="none" xmlns="http://www.w3.org/2000/svg">
<path d="M39.0628 21.0938H45.0893L43.7628 31.0438C43.7174 31.391 43.7899 31.7435 43.9688 32.0446C44.1477 32.3457 44.4226 32.5779 44.7493 32.7041C45.076 32.8302 45.4356 32.8429 45.7705 32.7402C46.1053 32.6374 46.3959 32.4252 46.5956 32.1375L59.0956 14.1687C59.2573 13.9345 59.3519 13.6604 59.3692 13.3763C59.3865 13.0921 59.3259 12.8087 59.1938 12.5565C59.0618 12.3043 58.8634 12.0929 58.62 11.9453C58.3766 11.7977 58.0975 11.7193 57.8128 11.7188H51.5143L53.8472 3.55469C53.9137 3.32206 53.9253 3.07716 53.8811 2.83928C53.8368 2.6014 53.7379 2.37705 53.5922 2.1839C53.4465 1.99076 53.2579 1.83409 53.0413 1.72626C52.8247 1.61842 52.586 1.56237 52.344 1.5625H43.7503C43.4109 1.56265 43.0809 1.67328 42.81 1.87765C42.539 2.08203 42.342 2.36905 42.2487 2.69531L37.5612 19.1016C37.4947 19.3341 37.4831 19.5788 37.5273 19.8166C37.5714 20.0543 37.6702 20.2786 37.8157 20.4717C37.9613 20.6648 38.1497 20.8215 38.3661 20.9295C38.5825 21.0374 38.821 21.0936 39.0628 21.0938ZM44.9284 4.6875H50.2722L47.9393 12.8516C47.8728 13.0841 47.8612 13.3288 47.9054 13.5666C47.9495 13.8043 48.0483 14.0286 48.1938 14.2217C48.3394 14.4148 48.5278 14.5715 48.7442 14.6795C48.9606 14.7874 49.1991 14.8436 49.4409 14.8438H54.8222L47.7143 25.0625L48.4253 19.7375C48.4547 19.5167 48.4365 19.2922 48.3721 19.0791C48.3076 18.8659 48.1984 18.669 48.0516 18.5015C47.9048 18.334 47.7239 18.1998 47.521 18.1079C47.3182 18.016 47.098 17.9686 46.8753 17.9688H41.1347L44.9284 4.6875Z" fill="url(#paint0_linear_262_7452)"/>
<path d="M80.0331 73.4047C79.8889 73.2555 79.7165 73.1365 79.5259 73.0546C79.3353 72.9727 79.1302 72.9296 78.9228 72.9278C78.7153 72.926 78.5095 72.9655 78.3175 73.0441C78.1255 73.1227 77.951 73.2387 77.8043 73.3854C77.6576 73.5321 77.5416 73.7065 77.463 73.8986C77.3845 74.0906 77.3449 74.2963 77.3467 74.5038C77.3485 74.7113 77.3916 74.9163 77.4735 75.1069C77.5554 75.2976 77.6745 75.47 77.8237 75.6141L88.8721 86.6626C89.1651 86.9558 89.5626 87.1205 89.977 87.1207C90.3915 87.1208 90.7891 86.9563 91.0823 86.6633C91.3755 86.3704 91.5403 85.9729 91.5404 85.5584C91.5406 85.1439 91.376 84.7464 91.0831 84.4532L80.0331 73.4047Z" fill="url(#paint1_linear_262_7452)"/>
<path d="M75.6138 77.8251C75.3191 77.5405 74.9244 77.383 74.5147 77.3865C74.1051 77.3901 73.7132 77.5544 73.4235 77.8441C73.1338 78.1338 72.9694 78.5257 72.9659 78.9354C72.9623 79.3451 73.1198 79.7398 73.4044 80.0345L84.4529 91.0829C84.7476 91.3675 85.1423 91.525 85.5519 91.5215C85.9616 91.5179 86.3535 91.3536 86.6432 91.0639C86.9329 90.7742 87.0972 90.3823 87.1008 89.9726C87.1044 89.5629 86.9469 89.1682 86.6622 88.8735L75.6138 77.8251Z" fill="url(#paint2_linear_262_7452)"/>
<path d="M84.2621 68.7954C82.3224 66.8707 79.7978 65.6455 77.0856 65.3126C76.7794 62.9568 75.799 60.7397 74.2621 58.9282C74.7629 57.935 74.8932 56.7958 74.6295 55.7151C74.3658 54.6345 73.7254 53.6833 72.8234 53.0324C71.9214 52.3815 70.8169 52.0735 69.7082 52.1638C68.5995 52.2541 67.5594 52.7368 66.7746 53.5251L64.0121 56.2876L59.3902 51.6579L73.1856 37.8626C76.4844 39.0918 80.0631 39.3659 83.5107 38.6534C86.9582 37.9409 90.135 36.2707 92.6764 33.8346C95.2178 31.3984 97.0208 28.295 97.8783 24.8806C98.7359 21.4662 98.6133 17.8792 97.5246 14.5313C97.4425 14.2766 97.2962 14.0472 97.1 13.8652C96.9037 13.6832 96.664 13.5547 96.4038 13.492C96.1436 13.4292 95.8716 13.4344 95.614 13.5069C95.3563 13.5795 95.1217 13.717 94.9324 13.9063L87.3262 21.5126L80.2543 19.7454L78.4856 12.6751L86.0934 5.06884C86.2823 4.87959 86.4195 4.64502 86.4918 4.38757C86.5642 4.13013 86.5692 3.85842 86.5065 3.59847C86.4438 3.33851 86.3154 3.099 86.1337 2.90285C85.9519 2.70671 85.7228 2.5605 85.4684 2.47822C82.1208 1.38993 78.5343 1.2675 75.1203 2.12497C71.7064 2.98243 68.6033 4.78506 66.1673 7.32597C63.7313 9.86688 62.061 13.0431 61.3482 16.4902C60.6353 19.9372 60.9088 23.5154 62.1371 26.8142L48.3418 40.6095L23.8809 16.1485L22.3184 9.40322C22.271 9.19879 22.183 9.00599 22.0595 8.83633C21.936 8.66667 21.7796 8.52362 21.5996 8.41572L10.5574 1.78603C10.2586 1.60652 9.90838 1.53208 9.5624 1.57454C9.21642 1.61701 8.89457 1.77396 8.64806 2.02041L2.01837 8.64853C1.77217 8.89523 1.61552 9.21717 1.57333 9.56315C1.53115 9.90912 1.60585 10.2593 1.78556 10.5579L8.41368 21.6063C8.52176 21.7865 8.66505 21.943 8.835 22.0665C9.00494 22.19 9.19804 22.2779 9.40275 22.3251L16.1465 23.8876L40.609 48.3438L21.2199 67.7329C17.8975 66.8427 14.3742 67.0736 11.1964 68.3898C8.01865 69.7061 5.36399 72.0342 3.64418 75.0129C1.92437 77.9917 1.23552 81.4548 1.68447 84.8649C2.13343 88.2751 3.69509 91.4419 6.12726 93.874C8.55943 96.3062 11.7262 97.8679 15.1364 98.3168C18.5465 98.7658 22.0096 98.0769 24.9883 96.3571C27.9671 94.6373 30.2952 91.9826 31.6114 88.8048C32.9277 85.6271 33.1586 82.1037 32.2684 78.7813L51.6574 59.3923L56.2793 64.0142L53.5168 66.7767C52.7292 67.5615 52.2472 68.6013 52.1571 69.7095C52.067 70.8176 52.3748 71.9217 53.0253 72.8233C53.6758 73.725 54.6264 74.3654 55.7064 74.6294C56.7864 74.8935 57.9252 74.764 58.9184 74.2642C60.7302 75.8003 62.9472 76.7802 65.3027 77.086C65.6397 79.7995 66.868 82.3243 68.7949 84.2642L81.1387 96.6079C82.3107 97.7796 83.9002 98.4378 85.5574 98.4378C87.2147 98.4378 88.8041 97.7796 89.9762 96.6079L96.6059 89.9798C97.1863 89.3994 97.6467 88.7104 97.9608 87.9521C98.2749 87.1938 98.4366 86.381 98.4366 85.5602C98.4366 84.7395 98.2749 83.9267 97.9608 83.1684C97.6467 82.4101 97.1863 81.7211 96.6059 81.1407L84.2621 68.7954ZM65.0793 28.2923C65.3012 28.0702 65.4511 27.7863 65.5093 27.4778C65.5676 27.1693 65.5315 26.8503 65.4059 26.5626C64.2841 24.0162 63.8642 21.216 64.1897 18.4526C64.5153 15.6892 65.5743 13.0633 67.2571 10.8472C68.9398 8.63122 71.1849 6.90587 73.7594 5.85023C76.3339 4.79458 79.144 4.4471 81.8981 4.84384L75.6481 11.0938C75.4569 11.2845 75.3184 11.5215 75.2461 11.7817C75.1739 12.0418 75.1702 12.3162 75.2356 12.5782L77.4465 21.4173C77.515 21.692 77.6569 21.943 77.857 22.1433C78.057 22.3437 78.3078 22.4859 78.5824 22.5548L87.4215 24.7642C87.6833 24.8297 87.9577 24.8263 88.2178 24.7543C88.478 24.6823 88.715 24.5441 88.9059 24.3532L95.1559 18.1032C95.5528 20.8573 95.2055 23.6674 94.1498 26.242C93.0942 28.8165 91.3688 31.0616 89.1527 32.7443C86.9365 34.4269 84.3105 35.4858 81.547 35.8111C78.7835 36.1363 75.9834 35.716 73.4371 34.5938C73.1488 34.4677 72.8292 34.4315 72.52 34.4901C72.2108 34.5486 71.9265 34.6991 71.7043 34.922L57.1731 49.4532L54.9637 47.2423L61.5918 40.6142C61.8764 40.3195 62.0339 39.9248 62.0304 39.5151C62.0268 39.1054 61.8625 38.7135 61.5728 38.4238C61.2831 38.1341 60.8912 37.9698 60.4815 37.9662C60.0718 37.9627 59.6771 38.1202 59.3824 38.4048L52.7543 45.0329L50.5527 42.8126L65.0793 28.2923ZM10.7512 19.4298L5.09181 10.0001L9.99962 5.09228L19.4324 10.7517L20.7465 16.4423L16.4465 20.7423L10.7512 19.4298ZM29.3981 77.2313C29.1923 77.437 29.048 77.696 28.9814 77.9793C28.9149 78.2625 28.9288 78.5587 29.0215 78.8345C29.9212 81.5063 29.8914 84.4039 28.9367 87.0566C27.982 89.7093 26.1586 91.9614 23.7626 93.4471C21.3666 94.9329 18.5387 95.565 15.7381 95.2409C12.9375 94.9168 10.3288 93.6554 8.33545 91.6617C6.34212 89.668 5.08131 87.059 4.75776 84.2583C4.4342 81.4577 5.06691 78.6299 6.55313 76.2342C8.03935 73.8385 10.2918 72.0155 12.9447 71.0614C15.5976 70.1073 18.4951 70.0779 21.1668 70.9782C21.4424 71.0706 21.7382 71.0843 22.0212 71.0178C22.3041 70.9513 22.5629 70.8072 22.7684 70.6017L42.8121 50.5532L45.0215 52.7626L32.8652 64.9188C32.5721 65.2118 32.4073 65.6093 32.4071 66.0238C32.407 66.4382 32.5715 66.8358 32.8645 67.129C33.1574 67.4222 33.5549 67.587 33.9694 67.5871C34.3839 67.5873 34.7814 67.4228 35.0746 67.1298L47.2309 54.972L49.4465 57.1876L29.3981 77.2313ZM19.1449 22.4595L22.459 19.1454L61.8027 58.4892L58.4887 61.8048L19.1449 22.4595ZM57.9356 71.1954C57.7914 71.3446 57.619 71.4637 57.4284 71.5456C57.2378 71.6275 57.0327 71.6706 56.8252 71.6724C56.6178 71.6742 56.412 71.6346 56.22 71.5561C56.028 71.4775 55.8535 71.3615 55.7068 71.2148C55.5601 71.0681 55.4441 70.8936 55.3655 70.7016C55.287 70.5096 55.2474 70.3038 55.2492 70.0963C55.251 69.8889 55.2941 69.6838 55.376 69.4932C55.4579 69.3026 55.577 69.1302 55.7262 68.986L68.984 55.7267C69.1292 55.5815 69.3015 55.4663 69.4912 55.3878C69.6809 55.3092 69.8842 55.2688 70.0895 55.2688C70.2948 55.2688 70.4981 55.3092 70.6877 55.3878C70.8774 55.4663 71.0498 55.5815 71.1949 55.7267C71.3401 55.8718 71.4553 56.0442 71.5338 56.2339C71.6124 56.4235 71.6528 56.6268 71.6528 56.8321C71.6528 57.0374 71.6124 57.2407 71.5338 57.4304C71.4553 57.6201 71.3401 57.7924 71.1949 57.9376L57.9356 71.1954ZM94.3965 87.7688L87.7668 94.397C87.1808 94.9828 86.3861 95.3119 85.5574 95.3119C84.7288 95.3119 83.9341 94.9828 83.3481 94.397L71.0043 82.0532C69.3019 80.3419 68.3434 78.028 68.3371 75.6142C68.3371 75.1998 68.1725 74.8023 67.8795 74.5093C67.5865 74.2163 67.189 74.0517 66.7746 74.0517C64.8091 74.043 62.8984 73.4027 61.3246 72.2251L72.2246 61.3267C73.402 62.9005 74.0423 64.8112 74.0512 66.7767C74.0512 67.1911 74.2158 67.5885 74.5088 67.8815C74.8019 68.1745 75.1993 68.3392 75.6137 68.3392C78.0273 68.3468 80.3407 69.3051 82.0527 71.0063L94.3965 83.3501C94.9823 83.9361 95.3115 84.7308 95.3115 85.5595C95.3115 86.3881 94.9823 87.1828 94.3965 87.7688Z" fill="url(#paint3_linear_262_7452)"/>
<path d="M11.6623 77.2892C10.5697 78.3817 9.82561 79.7738 9.52415 81.2893C9.22269 82.8048 9.3774 84.3756 9.9687 85.8032C10.56 87.2307 11.5614 88.4509 12.8461 89.3093C14.1309 90.1678 15.6414 90.626 17.1865 90.626C18.7317 90.626 20.2422 90.1678 21.5269 89.3093C22.8117 88.4509 23.813 87.2307 24.4044 85.8032C24.9957 84.3756 25.1504 82.8048 24.8489 81.2893C24.5474 79.7738 23.8034 78.3817 22.7107 77.2892C21.2456 75.8241 19.2585 75.001 17.1865 75.001C15.1145 75.001 13.1274 75.8241 11.6623 77.2892ZM20.5014 86.1282C19.8459 86.7839 19.0106 87.2305 18.1013 87.4115C17.192 87.5925 16.2494 87.4997 15.3928 87.145C14.5362 86.7902 13.804 86.1894 13.2889 85.4185C12.7738 84.6476 12.4988 83.7413 12.4988 82.8141C12.4988 81.887 12.7738 80.9807 13.2889 80.2098C13.804 79.4389 14.5362 78.8381 15.3928 78.4833C16.2494 78.1286 17.192 78.0358 18.1013 78.2168C19.0106 78.3978 19.8459 78.8444 20.5014 79.5001C21.3801 80.3791 21.8738 81.5712 21.8738 82.8141C21.8738 84.0571 21.3801 85.2492 20.5014 86.1282Z" fill="url(#paint4_linear_262_7452)"/>
<defs>
<linearGradient id="paint0_linear_262_7452" x1="48.4365" y1="1.5625" x2="48.4365" y2="32.8089" gradientUnits="userSpaceOnUse">
<stop offset="0.354167" stop-color="#603C93"/>
<stop offset="1" stop-color="#93693F"/>
</linearGradient>
<linearGradient id="paint1_linear_262_7452" x1="84.4435" y1="72.9277" x2="84.4435" y2="87.1207" gradientUnits="userSpaceOnUse">
<stop offset="0.354167" stop-color="#603C93"/>
<stop offset="1" stop-color="#93693F"/>
</linearGradient>
<linearGradient id="paint2_linear_262_7452" x1="80.0333" y1="77.3865" x2="80.0333" y2="91.5215" gradientUnits="userSpaceOnUse">
<stop offset="0.354167" stop-color="#603C93"/>
<stop offset="1" stop-color="#93693F"/>
</linearGradient>
<linearGradient id="paint3_linear_262_7452" x1="49.9965" y1="1.56104" x2="49.9965" y2="98.4505" gradientUnits="userSpaceOnUse">
<stop offset="0.354167" stop-color="#603C93"/>
<stop offset="1" stop-color="#93693F"/>
</linearGradient>
<linearGradient id="paint4_linear_262_7452" x1="17.1865" y1="75.001" x2="17.1865" y2="90.626" gradientUnits="userSpaceOnUse">
<stop offset="0.354167" stop-color="#603C93"/>
<stop offset="1" stop-color="#93693F"/>
</linearGradient>
</defs>
</svg>
