<svg width="100" height="100" viewBox="0 0 100 100" fill="none" xmlns="http://www.w3.org/2000/svg">
<g clip-path="url(#clip0_262_7458)">
<path d="M4.14333 41.2557C2.09932 41.5872 0.518144 43.226 0.259989 45.2807C-0.0832293 48.3927 -0.0866845 51.5328 0.249953 54.6457C0.484579 56.7321 2.07546 58.4094 4.14662 58.7539L9.44989 59.6222C10.468 63.9588 12.1868 68.1004 14.5381 71.8838L11.4166 76.2438C10.1727 77.9302 10.2028 80.2383 11.4899 81.892C12.4834 83.1075 13.5405 84.2697 14.6566 85.3738C15.68 86.3988 16.8115 87.4288 18.1699 88.5703C19.8104 89.832 22.0869 89.8583 23.7565 88.6353L28.138 85.4921C31.9175 87.8431 36.0551 89.5623 40.3879 90.5819L41.258 95.8936C41.5887 97.9383 43.2278 99.5203 45.283 99.7786C46.233 99.8852 47.198 99.9602 48.1696 100H48.3112C49.1798 99.9995 50.0152 99.6654 50.6445 99.0668C51.2989 98.4416 51.6681 97.5753 51.6661 96.6702V83.3136C51.6562 81.5289 50.2475 80.0659 48.4644 79.9887C32.5123 79.1558 20.0051 65.9786 20.0051 50.0048C20.0051 34.031 32.5123 20.8538 48.4644 20.0209C50.2503 19.9426 51.6598 18.4753 51.6661 16.6876V3.33778C51.6687 2.43169 51.2987 1.56459 50.6427 0.939527C49.9879 0.297021 49.0939 -0.0420845 48.1776 0.00447873C47.2077 0.0428152 46.246 0.112742 45.2593 0.212779C43.2053 0.477515 41.5742 2.06922 41.2593 4.11603L40.3911 9.42259C36.0582 10.443 31.9207 12.1627 28.1411 14.5143L23.7596 11.3776C22.0746 10.1454 19.7761 10.1821 18.1314 11.4676C16.923 12.4568 15.7665 13.5075 14.6664 14.6159C13.5326 15.7243 12.4653 16.8985 11.4699 18.1325C10.1982 19.7752 10.1656 22.0608 11.3899 23.7392L14.5315 28.1259C12.1821 31.9088 10.4657 36.05 9.44989 40.3858L4.14333 41.2557ZM12.465 42.1856C13.4339 37.4783 15.2928 32.9994 17.9417 28.9892C18.3212 28.4125 18.3059 27.6615 17.9033 27.1008L14.1018 21.7926C13.7503 21.3288 13.7401 20.6907 14.0768 20.2159C14.9903 19.0837 15.9704 18.0068 17.0117 16.9908C18.0233 15.9691 19.0857 14.9988 20.195 14.0842C20.6724 13.7202 21.3342 13.7202 21.8117 14.0842L27.1117 17.8875C27.673 18.2892 28.424 18.303 29 17.9226C33.0068 15.2728 37.4832 13.4132 42.1883 12.4443C42.8647 12.3049 43.3851 11.7626 43.4966 11.0809L44.5449 4.66261C44.6202 4.0869 45.0624 3.62785 45.6349 3.53094C46.5165 3.4393 47.4099 3.37431 48.3333 3.33761L48.2966 16.6891C30.5527 17.5953 16.6336 32.2516 16.6435 50.0186C16.6532 67.7857 30.5884 82.4266 48.3333 83.3133L48.3099 96.6699C47.4149 96.6332 46.5284 96.5632 45.6534 96.4649C45.0781 96.3808 44.6273 95.9273 44.5467 95.3514L43.4966 88.9298C43.3851 88.2482 42.8648 87.706 42.1883 87.5665C37.4832 86.5967 33.0068 84.7368 29 82.0865C28.4237 81.7065 27.6729 81.7211 27.1117 82.1232L21.8067 85.9299C21.3543 86.2817 20.7258 86.2986 20.255 85.9715C19.0301 84.9399 17.9683 83.9716 17.0117 83.0165C15.9898 82.0067 15.0202 80.9455 14.1067 79.8365C13.7472 79.3564 13.7472 78.6968 14.1067 78.2165L17.905 72.9132C18.3071 72.3522 18.3217 71.6012 17.9417 71.0249C15.2927 67.0155 13.4338 62.5369 12.465 57.8301C12.3258 57.1542 11.7843 56.6339 11.1033 56.5217L4.68662 55.47C4.08936 55.3713 3.6308 54.8869 3.56499 54.285C3.25287 51.4183 3.25616 48.526 3.57503 45.6601C3.65795 45.0844 4.11075 44.6323 4.68662 44.5502L11.1015 43.5001C11.7851 43.3882 12.3279 42.8648 12.465 42.1856Z" fill="url(#paint0_linear_262_7458)"/>
<path d="M94.999 45.0038C92.8877 45.0125 91.0096 46.3466 90.3057 48.3371H51.6661V43.3371H78.3325C81.0939 43.3371 83.3324 41.0986 83.3324 38.3372V29.6973C85.6283 28.8857 87.0055 26.5379 86.5936 24.1379C86.1818 21.7378 84.1008 19.9834 81.6657 19.9834C79.2305 19.9834 77.1495 21.7378 76.7377 24.1379C76.3259 26.5379 77.703 28.8857 79.9989 29.6973V38.3372C79.9989 39.2576 79.2528 40.0039 78.3322 40.0039H51.6661V35.0039H69.9992C70.9196 35.0039 71.6658 34.2577 71.6658 33.3372C71.6658 32.4166 70.9196 31.6704 69.9992 31.6704H51.6661V28.3371H61.666C64.4274 28.3371 66.6661 26.0986 66.6661 23.3371V13.0308C68.962 12.2192 70.3391 9.87145 69.9273 7.47139C69.5155 5.07132 67.4344 3.31689 64.9993 3.31689C62.5642 3.31689 60.4832 5.07132 60.0714 7.47139C59.6595 9.87145 61.0367 12.2192 63.3326 13.0308V23.3374C63.3326 24.2578 62.5864 25.0042 61.6659 25.0042H51.226C50.6526 23.9385 49.5082 23.3073 48.3011 23.3909C34.2562 24.2805 23.3203 35.931 23.3203 50.004C23.3203 64.0769 34.2562 75.7275 48.3011 76.6171H48.496C49.6346 76.6266 50.6852 76.0057 51.226 75.0038H61.6659C62.5863 75.0038 63.3326 75.75 63.3326 76.6706V86.9771C61.0367 87.7888 59.6595 90.1365 60.0714 92.5366C60.4832 94.9367 62.5642 96.6911 64.9993 96.6911C67.4344 96.6911 69.5155 94.9367 69.9273 92.5366C70.3391 90.1365 68.962 87.7888 66.6661 86.9771V76.6706C66.6661 73.9092 64.4276 71.6705 61.666 71.6705H51.6661V68.3372H69.9992C70.9196 68.3372 71.6658 67.5911 71.6658 66.6707C71.6658 65.7503 70.9196 65.0039 69.9992 65.0039H51.6661V60.0041H78.3325C79.2529 60.0041 79.9993 60.7502 79.9993 61.6706V70.3105C77.7033 71.1221 76.3262 73.4699 76.738 75.8699C77.1498 78.27 79.2309 80.0244 81.666 80.0244C84.1011 80.0244 86.1821 78.27 86.5939 75.8699C87.0058 73.4699 85.6286 71.1221 83.3327 70.3105V61.6706C83.3327 58.9093 81.0942 56.6708 78.3328 56.6708H51.6661V51.6704H90.3057C91.1573 54.0614 93.6676 55.4325 96.1397 54.8569C98.6117 54.2814 100.258 51.9425 99.9665 49.4212C99.6744 46.9002 97.537 44.9994 94.999 45.0038ZM81.6658 23.3374C82.5862 23.3374 83.3324 24.0836 83.3324 25.0042C83.3324 25.9247 82.5862 26.6709 81.6658 26.6709C80.7454 26.6709 79.9993 25.9247 79.9993 25.0042C79.9993 24.0836 80.7453 23.3374 81.6658 23.3374ZM64.9993 6.67093C65.9197 6.67093 66.6661 7.41709 66.6661 8.33766C66.6661 9.25823 65.9199 10.0042 64.9993 10.0042C64.0788 10.0042 63.3328 9.25806 63.3328 8.33766C63.3328 7.41725 64.0788 6.67093 64.9993 6.67093ZM64.9993 93.3367C64.0789 93.3367 63.3328 92.5906 63.3328 91.67C63.3328 90.7494 64.0789 90.0033 64.9993 90.0033C65.9197 90.0033 66.6661 90.7494 66.6661 91.67C66.6661 92.5906 65.9197 93.3367 64.9993 93.3367ZM81.6658 76.6702C80.7454 76.6702 79.9993 75.9241 79.9993 75.0035C79.9993 74.0829 80.7454 73.3369 81.6658 73.3369C82.5862 73.3369 83.3324 74.0831 83.3324 75.0035C83.3324 75.9239 82.5862 76.6702 81.6658 76.6702ZM26.6663 50.0038C26.6803 37.7696 36.1308 27.6184 48.3328 26.7308V73.277C36.1308 72.3892 26.6803 62.2379 26.6663 50.0038ZM94.999 51.6704C94.0786 51.6704 93.3323 50.9242 93.3323 50.0037C93.3323 49.0831 94.0785 48.3371 94.999 48.3371C95.9196 48.3371 96.6658 49.0833 96.6658 50.0037C96.6658 50.9241 95.9194 51.6704 94.999 51.6704Z" fill="url(#paint1_linear_262_7458)"/>
</g>
<defs>
<linearGradient id="paint0_linear_262_7458" x1="25.8331" y1="0.000244141" x2="25.8331" y2="100" gradientUnits="userSpaceOnUse">
<stop offset="0.354167" stop-color="#603C93"/>
<stop offset="1" stop-color="#93693F"/>
</linearGradient>
<linearGradient id="paint1_linear_262_7458" x1="61.6601" y1="3.31689" x2="61.6601" y2="96.6911" gradientUnits="userSpaceOnUse">
<stop offset="0.354167" stop-color="#603C93"/>
<stop offset="1" stop-color="#93693F"/>
</linearGradient>
<clipPath id="clip0_262_7458">
<rect width="100" height="100" fill="white"/>
</clipPath>
</defs>
</svg>
