<svg width="119" height="120" viewBox="0 0 119 120" fill="none" xmlns="http://www.w3.org/2000/svg">
<path fill-rule="evenodd" clip-rule="evenodd" d="M93.8818 109.36H25.2118C24.3718 109.36 23.6893 108.667 23.6893 107.84C23.663 102.347 23.8993 88.6667 26.3143 79.84C26.9443 77.52 27.7318 75.6 28.7555 73.8667C29.6218 72.4 32.1418 68.6667 36.6305 66.1067C40.778 63.7333 44.7418 63.3867 47.3405 63.4933C47.6293 63.52 47.918 63.6 48.1543 63.7867L59.2055 71.9733L70.8868 63.76C71.123 63.6 71.3855 63.4933 71.6743 63.4933C74.273 63.36 78.2368 63.7333 82.3843 66.1067C86.873 68.6667 89.393 72.4 90.2593 73.8667C91.283 75.6267 92.0705 77.52 92.7005 79.84C95.1418 88.64 95.3518 102.347 95.3255 107.84C95.378 108.667 94.6955 109.36 93.8818 109.36ZM59.4418 106.267H92.3593C92.333 100.827 91.9918 88.4533 89.8393 80.64C89.2618 78.56 88.6055 76.9333 87.713 75.4133C86.978 74.1333 84.8255 70.96 80.9668 68.7467C77.6593 66.8533 74.5093 66.48 72.3043 66.5333L60.098 75.12C59.573 75.4933 58.8643 75.4933 58.3393 75.0933L46.7893 66.5333C44.5843 66.48 41.4343 66.88 38.153 68.7467C34.2943 70.96 32.1418 74.1333 31.4068 75.4133C30.5143 76.9333 29.858 78.56 29.2805 80.64C27.128 88.4533 26.7868 100.827 26.7605 106.267H59.4418Z" fill="#623E91"/>
<path fill-rule="evenodd" clip-rule="evenodd" d="M39.6748 109.36C38.8348 109.36 38.1523 108.667 38.1523 107.813V88.24C38.1523 87.3867 38.8348 86.6933 39.6748 86.6933C40.5148 86.6933 41.1973 87.3867 41.1973 88.24V107.813C41.1711 108.667 40.5148 109.36 39.6748 109.36Z" fill="#623E91"/>
<path fill-rule="evenodd" clip-rule="evenodd" d="M79.3897 109.36C78.5497 109.36 77.8672 108.667 77.8672 107.813V88.24C77.8672 87.3867 78.5497 86.6933 79.3897 86.6933C80.2297 86.6933 80.9122 87.3867 80.9122 88.24V107.813C80.9122 108.667 80.2297 109.36 79.3897 109.36Z" fill="#623E91"/>
<path fill-rule="evenodd" clip-rule="evenodd" d="M59.5489 50.7733C55.9264 50.7733 52.5139 49.3333 49.9677 46.7467C47.3952 44.1333 46.0039 40.6933 46.0039 37.0133C46.0039 33.3333 47.4214 29.8667 49.9677 27.28C52.5402 24.6667 55.9264 23.2533 59.5489 23.2533C63.1714 23.2533 66.5839 24.6933 69.1302 27.28C71.7027 29.8933 73.0939 33.3333 73.0939 37.0133C73.0939 40.6933 71.6764 44.16 69.1302 46.7467C66.5577 49.3333 63.1714 50.7733 59.5489 50.7733ZM59.5489 26.2933C53.7477 26.2933 49.0227 31.0933 49.0227 36.9867C49.0227 42.88 53.7477 47.68 59.5489 47.68C65.3502 47.68 70.0752 42.88 70.0752 36.9867C70.0752 31.0933 65.3502 26.2933 59.5489 26.2933Z" fill="#623E91"/>
<path fill-rule="evenodd" clip-rule="evenodd" d="M59.547 50.7733C57.3683 50.7733 55.3995 49.2 54.0345 46.32C52.827 43.8133 52.1445 40.48 52.1445 36.9867C52.1445 33.4933 52.8008 30.1867 54.0345 27.6533C55.3995 24.8 57.3683 23.2 59.547 23.2C61.7258 23.2 63.6945 24.7733 65.0595 27.6533C66.267 30.16 66.9495 33.4933 66.9495 36.9867C66.9495 40.48 66.2933 43.7867 65.0595 46.32C63.6683 49.1733 61.7258 50.7733 59.547 50.7733ZM59.547 26.2933C58.602 26.2933 57.552 27.3067 56.7383 29.0133C55.7145 31.12 55.1633 33.9467 55.1633 36.9867C55.1633 40.0267 55.7145 42.8533 56.7383 44.96C57.552 46.6667 58.602 47.68 59.547 47.68C60.492 47.68 61.542 46.6667 62.3558 44.96C63.3795 42.8533 63.9308 40.0267 63.9308 36.9867C63.9308 33.9467 63.3795 31.12 62.3558 29.0133C61.5158 27.3067 60.4658 26.2933 59.547 26.2933Z" fill="#623E91"/>
<path fill-rule="evenodd" clip-rule="evenodd" d="M59.5459 50.7733C58.7059 50.7733 58.0234 50.08 58.0234 49.2267V24.7467C58.0234 23.8933 58.7059 23.2 59.5459 23.2C60.3859 23.2 61.0684 23.8933 61.0684 24.7467V49.2267C61.0422 50.08 60.3597 50.7733 59.5459 50.7733Z" fill="#623E91"/>
<path fill-rule="evenodd" clip-rule="evenodd" d="M71.5966 38.5333H47.4991C46.6591 38.5333 45.9766 37.84 45.9766 36.9867C45.9766 36.1333 46.6591 35.44 47.4991 35.44H71.5966C72.4366 35.44 73.1191 36.1333 73.1191 36.9867C73.0928 37.84 72.4103 38.5333 71.5966 38.5333Z" fill="#623E91"/>
<path fill-rule="evenodd" clip-rule="evenodd" d="M62.8292 62.9333H56.2405C55.4005 62.9333 54.718 62.24 54.718 61.3867V56.8533C52.723 56.3733 50.8592 55.5733 49.1005 54.48L45.9505 57.68C45.373 58.2667 44.4017 58.2667 43.8242 57.68L39.1517 52.9333C38.5742 52.3467 38.5742 51.36 39.1517 50.7733L42.3017 47.5733C41.2255 45.7867 40.4642 43.8933 39.9655 41.8667H35.503C34.663 41.8667 33.9805 41.1733 33.9805 40.32V33.6267C33.9805 32.7733 34.663 32.08 35.503 32.08H39.9655C40.438 30.0533 41.2255 28.16 42.3017 26.3733L39.1517 23.1733C38.5742 22.5867 38.5742 21.6 39.1517 21.0133L43.8242 16.2667C44.4017 15.68 45.373 15.68 45.9505 16.2667L49.1005 19.4667C50.8592 18.3733 52.723 17.6 54.718 17.0933V12.56C54.718 11.7067 55.4005 11.0133 56.2405 11.0133H62.8292C63.6692 11.0133 64.3517 11.7067 64.3517 12.56V17.0933C66.3467 17.5733 68.2105 18.3733 69.9692 19.4667L73.1192 16.2667C73.408 15.9733 73.7755 15.8133 74.1955 15.8133C74.6155 15.8133 74.983 15.9733 75.2717 16.2667L79.9442 21.0133C80.5217 21.6 80.5217 22.5867 79.9442 23.1733L76.7942 26.3733C77.8705 28.16 78.6317 30.0533 79.1305 32.08H83.593C84.433 32.08 85.1155 32.7733 85.1155 33.6267V40.32C85.1155 41.1733 84.433 41.8667 83.593 41.8667H79.1305C78.658 43.8933 77.8705 45.7867 76.7942 47.5733L79.9442 50.7733C80.5217 51.36 80.5217 52.3467 79.9442 52.9333L75.2717 57.68C74.6942 58.2667 73.723 58.2667 73.1455 57.68L69.9955 54.48C68.2367 55.5733 66.373 56.3467 64.378 56.8533V61.3867C64.3517 62.24 63.6692 62.9333 62.8292 62.9333ZM57.763 59.8667H61.333V55.6267C61.333 54.88 61.858 54.24 62.5667 54.1067C65.008 53.6533 67.2655 52.72 69.313 51.28C69.9167 50.8533 70.7305 50.9333 71.2555 51.4667L74.2217 54.48L76.7417 51.92L73.7755 48.9067C73.2505 48.3733 73.198 47.5467 73.5917 46.9333C75.0092 44.8533 75.9542 42.56 76.3742 40.08C76.5055 39.36 77.1355 38.8267 77.8705 38.8267H82.0442V35.2H77.8705C77.1355 35.2 76.5055 34.6667 76.3742 33.9467C75.928 31.4667 75.0092 29.1733 73.5917 27.0933C73.1717 26.48 73.2505 25.6533 73.7755 25.12L76.7417 22.1067L74.2217 19.5467L71.2555 22.56C70.7305 23.0933 69.9167 23.1467 69.313 22.7467C67.2655 21.3067 65.008 20.3467 62.5667 19.92C61.858 19.7867 61.333 19.1467 61.333 18.4V14.1067H57.763V18.3467C57.763 19.0933 57.238 19.7333 56.5292 19.8667C54.088 20.32 51.8305 21.2533 49.783 22.6933C49.1792 23.12 48.3655 23.04 47.8405 22.5067L44.8742 19.4933L42.3542 22.0533L45.3205 25.0667C45.8455 25.6 45.898 26.4267 45.5042 27.04C44.0867 29.12 43.1417 31.4133 42.7217 33.8933C42.5905 34.6133 41.9605 35.1467 41.2255 35.1467H37.0517V38.7733H41.2255C41.9605 38.7733 42.5905 39.3067 42.7217 40.0267C43.168 42.5067 44.0867 44.8 45.5042 46.88C45.9242 47.4933 45.8455 48.32 45.3205 48.8533L42.3542 51.8667L44.8742 54.4267L47.8405 51.4133C48.3655 50.88 49.1792 50.8267 49.783 51.2267C51.8305 52.6667 54.088 53.6267 56.5292 54.0533C57.238 54.1867 57.763 54.8267 57.763 55.5733V59.8667Z" fill="#623E91"/>
</svg>
