<svg width="99" height="100" viewBox="0 0 99 100" fill="none" xmlns="http://www.w3.org/2000/svg">
<g clip-path="url(#clip0_557_104472)">
<path d="M81.9359 0H27.8465C21.1812 0.00751445 15.7796 5.4948 15.7722 12.2659V16.185H12.7793C8.61531 16.185 5.23999 19.6139 5.23999 23.8439C5.23999 28.074 8.61531 31.5029 12.7793 31.5029H15.7722V42.3353H12.7793C8.61218 42.3376 5.23601 45.7711 5.23828 50.0041C5.24056 54.2338 8.61531 57.6624 12.7793 57.6647H15.7722V68.4971H12.7793C8.61531 68.4971 5.23999 71.926 5.23999 76.1561C5.23999 80.3861 8.61531 83.815 12.7793 83.815H15.7722V87.7341C15.7796 94.5052 21.1812 99.9925 27.8465 100H81.9359C88.6012 99.9925 94.0027 94.5052 94.0101 87.7341V12.2659C94.0024 5.4948 88.6012 0.00751445 81.9359 0ZM9.2287 23.8382C9.23069 21.8468 10.8191 20.2332 12.7793 20.2312H22.7482C24.7124 20.2312 26.3045 21.8486 26.3045 23.8439C26.3045 25.8393 24.7121 27.4566 22.7482 27.4566H12.7793C10.8154 27.4529 9.22614 25.8332 9.2287 23.8382ZM9.2287 50C9.22927 48.0064 10.8168 46.3884 12.7793 46.3815H22.7482C24.7155 46.3829 26.309 48.0043 26.3073 50.0029C26.3059 51.9991 24.7133 53.6171 22.7482 53.6185H12.7793C10.8162 53.6127 9.22813 51.9942 9.2287 50ZM9.2287 76.1503C9.23069 74.159 10.8191 72.5454 12.7793 72.5434H22.7482C24.7124 72.5434 26.3045 74.1607 26.3045 76.1561C26.3045 78.1515 24.7124 79.7688 22.7482 79.7688H12.7793C10.8154 79.765 9.22614 78.1454 9.2287 76.1503ZM90.0271 87.7341C90.0228 92.272 86.4028 95.9494 81.9359 95.9538H27.8465C23.3795 95.9494 19.7595 92.272 19.7553 87.7341V83.815H22.7482C26.9122 83.815 30.2875 80.3861 30.2875 76.1561C30.2875 71.926 26.9119 68.4971 22.7482 68.4971H19.7553V57.6647H22.7482C26.9153 57.6647 30.2932 54.2332 30.2932 50C30.2932 45.7668 26.9153 42.3353 22.7482 42.3353H19.7553V31.5029H22.7482C26.9122 31.5029 30.2875 28.074 30.2875 23.8439C30.2875 19.6139 26.9119 16.185 22.7482 16.185H19.7553V12.2659C19.7595 7.72803 23.3795 4.05058 27.8465 4.04624H81.9359C86.4028 4.05058 90.0228 7.72803 90.0271 12.2659V87.7341Z" fill="#623E91"/>
<path d="M79.4988 21.8208H68.261C67.1612 21.8208 66.2695 22.7266 66.2695 23.8439C66.2695 24.9613 67.1612 25.8671 68.261 25.8671H79.4988C80.5987 25.8671 81.4904 24.9613 81.4904 23.8439C81.4904 22.7266 80.5987 21.8208 79.4988 21.8208Z" fill="#623E91"/>
<path d="M79.4988 47.9769H68.261C67.1612 47.9769 66.2695 48.8827 66.2695 50C66.2695 51.1173 67.1612 52.0231 68.261 52.0231H79.4988C80.5987 52.0231 81.4904 51.1173 81.4904 50C81.4904 48.8827 80.5987 47.9769 79.4988 47.9769Z" fill="#623E91"/>
<path d="M79.4988 74.1329H68.261C67.1612 74.1329 66.2695 75.0387 66.2695 76.1561C66.2695 77.2734 67.1612 78.1792 68.261 78.1792H79.4988C80.5987 78.1792 81.4904 77.2734 81.4904 76.1561C81.4904 75.0387 80.5987 74.1329 79.4988 74.1329Z" fill="#623E91"/>
<path d="M55.4889 17.2532L46.7376 26.1433L42.0627 21.3942C41.2718 20.6179 40.0109 20.6399 39.2467 21.4433C38.5013 22.2272 38.501 23.4702 39.2462 24.2543L45.3299 30.4347C46.1066 31.2248 47.367 31.2257 48.1448 30.4364C48.1454 30.4358 48.1459 30.4353 48.1465 30.4347L58.3055 20.1133C59.0694 19.3095 59.0472 18.0286 58.256 17.2526C57.4838 16.4957 56.2605 16.4959 55.4889 17.2532Z" fill="#623E91"/>
<path d="M55.4889 43.4104L46.7376 52.3006L42.0627 47.5514C41.2718 46.7751 40.0109 46.7971 39.2467 47.6006C38.5013 48.3844 38.501 49.6275 39.2462 50.4116L45.3299 56.5896C46.1066 57.3798 47.367 57.3806 48.1448 56.5913L48.1465 56.5896L58.3055 46.2682C59.0563 45.4517 59.0136 44.1714 58.2099 43.4087C57.4437 42.6818 56.2539 42.6824 55.4889 43.4104Z" fill="#623E91"/>
<path d="M55.4871 69.5653L46.7359 78.4555L42.0609 73.7064C41.297 72.9026 40.0361 72.8801 39.2449 73.6561C38.4537 74.4321 38.4315 75.713 39.1954 76.5168C39.2114 76.5335 39.2279 76.5503 39.2444 76.5665L45.3281 82.7468C46.1048 83.537 47.3652 83.5379 48.143 82.7486C48.1436 82.748 48.1441 82.7474 48.1447 82.7468L58.3037 72.4278C59.0676 71.624 59.0454 70.3431 58.2542 69.5671C57.4823 68.8101 56.2587 68.8104 55.4871 69.5676V69.5653Z" fill="#623E91"/>
</g>
<defs>
<clipPath id="clip0_557_104472">
<rect width="98.4375" height="100" fill="white" transform="translate(0.40625)"/>
</clipPath>
</defs>
</svg>
