<svg width="119" height="120" viewBox="0 0 119 120" fill="none" xmlns="http://www.w3.org/2000/svg">
<path fill-rule="evenodd" clip-rule="evenodd" d="M87.904 61.9755C82.0033 61.9755 79.0426 69.2379 83.2148 73.4763C83.9833 74.257 83.9833 75.5234 83.2148 76.3043L78.9771 80.6091C78.2086 81.39 76.962 81.39 76.1933 80.6091C72.0211 76.3706 64.8722 79.3784 64.8722 85.3727C64.8722 86.4773 63.9909 87.3722 62.904 87.3722H56.9112C55.8243 87.3722 54.943 86.4773 54.943 85.3727C54.943 79.3709 47.7994 76.3652 43.6219 80.6091C42.8532 81.39 41.6067 81.39 40.8382 80.6091L36.6004 76.3043C35.8319 75.5234 35.8319 74.257 36.6004 73.4763C40.7726 69.2379 37.8121 61.9755 31.9112 61.9755C30.8236 61.9755 29.943 61.0802 29.943 59.9761V53.8884C29.943 52.7843 30.8238 51.889 31.9112 51.889C37.8121 51.889 40.7726 44.6266 36.6004 40.3882C35.8319 39.6075 35.8319 38.3412 36.6004 37.5602L40.8382 33.2552C41.6067 32.4745 42.8532 32.4745 43.6219 33.2552C47.7941 37.4937 54.943 34.4862 54.943 28.4916C54.943 27.3867 55.8243 26.4921 56.9112 26.4921H62.904C63.9909 26.4921 64.8722 27.387 64.8722 28.4916C64.8722 32.4614 68.0076 35.1204 71.3372 35.2331L63.8331 42.8564C62.5852 42.4981 61.2685 42.3059 59.9077 42.3059C51.9562 42.3059 45.5101 48.8543 45.5101 56.932C45.5101 65.0098 51.9562 71.5582 59.9077 71.5582C67.8592 71.5582 74.3054 65.0098 74.3054 56.932C74.3054 55.3826 74.0673 53.8896 73.6278 52.4883L81.2738 44.7209C81.0736 48.3166 83.7655 51.8888 87.9038 51.8888C88.9914 51.8888 89.872 52.7841 89.872 53.8882V59.9759C89.8723 61.08 88.9916 61.9755 87.904 61.9755ZM6.94112 40.4051L11.2252 47.9433C10.7066 50.8598 10.4355 53.8638 10.4355 56.932C10.4355 75.8163 20.8305 93.0598 37.3696 101.675C38.1605 102.086 39.1293 101.767 39.5335 100.964C39.9377 100.16 39.6241 99.176 38.8333 98.7654C23.3683 90.7097 13.6657 74.5868 13.6657 56.932C13.6657 54.1261 13.9082 51.3776 14.3726 48.7071L21.6888 44.4162C22.4586 43.9631 22.7214 42.9616 22.2755 42.1795C21.8295 41.3974 20.8437 41.1305 20.0738 41.5835L15.3414 44.3592C20.8748 24.0734 39.1092 9.95602 59.908 9.95602C69.393 9.95602 78.5812 12.8677 86.3599 18.3874C87.088 18.9042 88.0909 18.7235 88.5994 17.9836C89.1081 17.2439 88.9303 16.2251 88.2019 15.7085C79.8792 9.80274 70.0582 6.67477 59.9077 6.67477C37.7381 6.67477 18.2809 21.6708 12.2874 43.2656L9.72929 38.7647C9.28332 37.9826 8.29749 37.7156 7.5276 38.1687C6.75794 38.6215 6.49516 39.623 6.94112 40.4051ZM113.917 44.3433L106.49 39.9872C104.95 35.6189 102.836 31.534 100.239 27.8276C99.7237 27.0914 98.7183 26.9194 97.9936 27.4432C97.2689 27.967 97.0996 28.9884 97.6152 29.7246C100.012 33.1465 101.968 36.904 103.399 40.9113L99.1693 48.3544C98.7233 49.1365 98.9861 50.138 99.756 50.591C100.526 51.0441 101.512 50.7771 101.958 49.995L104.697 45.1751C105.646 48.9234 106.15 52.8626 106.15 56.9323C106.15 82.8586 85.4809 103.908 59.9483 103.908H4.53686C3.64493 103.908 2.92188 104.643 2.92188 105.549C2.92188 106.455 3.64493 107.19 4.53686 107.19H59.9481C87.2474 107.19 109.38 84.6541 109.38 56.932C109.38 52.6774 108.855 48.537 107.867 44.5746L112.302 47.1757C113.072 47.6288 114.057 47.3618 114.503 46.5797C114.949 45.7978 114.687 44.7963 113.917 44.3433ZM111.38 107.19H82.77C81.8781 107.19 81.155 106.455 81.155 105.549C81.155 104.643 81.8781 103.908 82.77 103.908H111.38L106.623 99.0757C105.993 98.4352 105.993 97.3964 106.623 96.7556C107.254 96.1151 108.276 96.1151 108.907 96.7556L116.421 104.389C117.052 105.029 117.052 106.068 116.421 106.709L108.907 114.342C108.276 114.982 107.254 114.982 106.623 114.342C105.993 113.701 105.993 112.662 106.623 112.022L111.38 107.19ZM94.3428 16.5028L63.5957 47.7382C60.1255 46.305 55.8239 47.1945 53.182 49.8783C50.1133 52.9957 50.2102 56.5713 50.4566 58.1817C50.5147 58.5614 50.9713 58.7126 51.2387 58.4409L56.1284 53.4736C56.2313 53.3691 56.3624 53.3227 56.507 53.3393L62.2924 54.0096C62.5083 54.0347 62.6737 54.2027 62.6984 54.4221L63.3583 60.2993C63.3746 60.446 63.329 60.5794 63.2261 60.6839L58.3326 65.655C58.0659 65.9259 58.2131 66.3884 58.5855 66.4493C60.1631 66.7066 63.6737 66.8177 66.7652 63.6771C69.4463 60.9532 70.3198 56.3885 68.7482 52.8047L99.3158 21.7521C102.329 22.9216 105.869 22.2734 108.297 19.8068C111.591 16.4602 111.591 11.0341 108.297 7.6875C105.002 4.34086 99.6612 4.34086 96.3668 7.6875C94.0198 10.0718 93.3456 13.5115 94.3428 16.5028ZM100.701 15.4045C99.7996 14.4893 99.7996 13.0052 100.701 12.09C101.601 11.1748 103.062 11.1748 103.963 12.09C104.864 13.0052 104.864 14.4893 103.963 15.4045C103.062 16.3198 101.601 16.3198 100.701 15.4045Z" fill="#623E91"/>
</svg>
