<svg width="145" height="145" viewBox="0 0 145 145" fill="none" xmlns="http://www.w3.org/2000/svg">
<path d="M104.362 39.2548C104.362 37.8105 102.774 36.5904 100.894 36.5904H97.3294C93.0746 36.5904 89.613 33.4896 89.613 29.6783C89.613 25.9695 92.8907 22.9346 96.9878 22.7738V19.1443C96.9878 17.9709 97.9386 17.0202 99.1119 17.0202C100.285 17.0202 101.236 17.9709 101.236 19.1443V22.7661H106.486C107.66 22.7661 108.611 23.7169 108.611 24.8902C108.611 26.0635 107.66 27.0142 106.486 27.0142H97.3294C95.4492 27.0142 93.861 28.2342 93.861 29.6783C93.861 31.1223 95.4492 32.3424 97.3294 32.3424H100.894C105.149 32.3424 108.611 35.4432 108.611 39.2548C108.611 42.9636 105.333 45.9984 101.236 46.1593V49.7888C101.236 50.9621 100.285 51.9128 99.1119 51.9128C97.9386 51.9128 96.9878 50.9621 96.9878 49.7888V46.1669H91.737C90.5637 46.1669 89.613 45.2162 89.613 44.0429C89.613 42.8696 90.5637 41.9189 91.737 41.9189H100.894C102.774 41.9192 104.362 40.6991 104.362 39.2548ZM121.073 34.4664C121.073 46.5762 111.222 56.4279 99.1119 56.4279C94.5231 56.4279 90.1287 55.0284 86.4034 52.3798C85.4465 51.7007 84.1211 51.9245 83.4414 52.8805C82.762 53.8366 82.986 55.1629 83.9421 55.8426C88.3906 59.0045 93.6361 60.676 99.1119 60.676C113.564 60.676 125.321 48.9183 125.321 34.4664C125.321 28.9909 123.65 23.7457 120.488 19.2969C119.808 18.3408 118.482 18.1168 117.526 18.7962C116.57 19.4759 116.346 20.8021 117.025 21.7582C119.673 25.4838 121.073 29.8782 121.073 34.4664ZM79.4698 50.5311C79.8954 50.5311 80.3253 50.4034 80.6986 50.138C81.6547 49.4583 81.8787 48.1321 81.1993 47.176C78.5502 43.4502 77.1503 39.0551 77.1503 34.4664C77.1503 22.3569 87.0021 12.5051 99.1119 12.5051C103.584 12.5051 107.887 13.8407 111.555 16.3677C112.522 17.0333 113.844 16.7894 114.509 15.8237C115.175 14.8577 114.931 13.5351 113.965 12.8696C109.586 9.85208 104.449 8.25708 99.1122 8.25708C84.6603 8.25708 72.9026 20.0145 72.9026 34.4664C72.9026 39.9421 74.5743 45.1882 77.7368 49.6373C78.1509 50.2201 78.8054 50.5311 79.4698 50.5311ZM138.346 134.619C138.346 135.792 137.395 136.743 136.222 136.743H8.78027C7.60696 136.743 6.65625 135.792 6.65625 134.619C6.65625 133.446 7.60696 132.495 8.78027 132.495H21.911V69.1503C21.911 67.977 22.8617 67.0263 24.035 67.0263H44.6924C45.8657 67.0263 46.8164 67.977 46.8164 69.1503V132.495H60.048V83.4518C60.048 82.2784 60.9987 81.3277 62.172 81.3277H82.8297C84.003 81.3277 84.9537 82.2784 84.9537 83.4518V132.495H98.1852V97.7532C98.1852 96.5799 99.1359 95.6292 100.309 95.6292H120.967C122.14 95.6292 123.091 96.5799 123.091 97.7532V132.495H136.222C137.395 132.495 138.346 133.446 138.346 134.619ZM42.5687 132.495V71.2743H26.159V132.495H42.5687ZM80.7059 132.495V85.5758H64.2963V132.495H80.7059ZM118.843 132.495V99.8773H102.434V132.495H118.843ZM66.4294 65.3432C75.7102 69.9945 85.6702 73.4051 96.0332 75.4802C104.048 77.0854 112.316 77.8894 120.751 77.8894C123.996 77.8894 127.265 77.7701 130.553 77.532L124.382 83.703C123.553 84.5327 123.553 85.8774 124.382 86.7069C124.797 87.1215 125.341 87.3288 125.884 87.3288C126.428 87.3288 126.971 87.1215 127.386 86.7069L137.724 76.3694C138.122 75.9709 138.346 75.4309 138.346 74.8673C138.346 74.3037 138.122 73.7639 137.724 73.3652L127.386 63.028C126.557 62.1988 125.212 62.1985 124.382 63.0283C123.553 63.8578 123.553 65.2024 124.383 66.0319L131.544 73.1927C103.378 75.4972 81.8464 68.2882 68.507 61.6318C53.3032 54.0456 45.1464 45.5164 45.0323 45.3961C44.2285 44.5419 42.8853 44.5006 42.0306 45.304C41.1756 46.1075 41.1342 47.4515 41.9377 48.3065C42.2829 48.6741 50.5808 57.3999 66.4294 65.3432Z" fill="#623E91"/>
</svg>
