<svg width="133" height="133" viewBox="0 0 133 133" fill="none" xmlns="http://www.w3.org/2000/svg">
<g clip-path="url(#clip0_535_42866)">
<path d="M64.2966 93.9412L58.2877 93.1399C57.6867 90.536 56.6854 88.3326 55.2832 86.1293L58.8886 81.322C59.4896 80.5207 59.4896 79.3191 58.6883 78.5178L53.881 73.7105C53.0797 72.9092 52.0784 72.9092 51.2771 73.5102L46.4698 77.3159C44.2666 75.9137 41.8628 75.1127 39.4592 74.3114L38.658 68.3025C38.4576 67.3009 37.6564 66.4999 36.6551 66.4999H29.6445C28.6429 66.4999 27.8419 67.3011 27.6416 68.3025L26.8403 74.3114C24.4368 74.9124 22.033 75.9137 19.8298 77.3159L15.0224 73.7105C14.2212 73.1095 13.0195 73.1095 12.4186 73.9108L7.41119 78.9185C6.60992 79.7197 6.60992 80.721 7.21087 81.5223L10.8163 86.3296C9.41409 88.5329 8.61309 90.9367 7.81182 93.3402L1.80285 94.1415C0.801267 94.3418 0 95.1431 0 96.1446V103.155C0 104.157 0.801267 104.958 1.80259 105.158L7.81156 105.959C8.41251 108.563 9.41383 110.767 10.816 112.97L7.21061 117.777C6.60966 118.579 6.60966 119.78 7.41092 120.381L12.4183 125.188C13.2196 125.99 14.2209 125.99 15.0222 125.389L19.8295 121.783C22.0327 123.186 24.4365 123.987 26.8401 124.788L27.6413 130.797C27.8416 131.798 28.6429 132.599 29.6442 132.599H36.6548C37.6564 132.599 38.4574 131.798 38.6577 130.797L39.459 124.788C41.8625 124.187 44.2663 123.185 46.4695 121.783L51.2769 125.389C51.6775 125.589 52.0781 125.789 52.4788 125.789C53.0797 125.789 53.6807 125.589 54.081 125.188L58.8884 120.381C59.6896 119.58 59.6896 118.579 59.0887 117.777L55.4832 112.97C56.8855 110.767 57.6865 108.363 58.4877 105.959L64.4967 105.158C65.4983 104.958 66.2993 104.157 66.2993 103.155V96.1446C65.8992 94.9427 65.2982 94.1415 64.2966 93.9412ZM62.2937 101.152H61.8931L56.2848 101.953C55.4835 102.154 54.6822 102.755 54.4822 103.556C53.8812 106.56 52.8799 109.364 51.0771 111.768C50.6764 112.569 50.6764 113.37 51.0771 114.172L54.4822 118.779L52.0787 121.182L47.4716 117.777C46.8707 117.176 45.8694 117.176 45.0681 117.777C42.6646 119.38 39.8604 120.581 36.8556 121.182C36.0544 121.382 35.4534 121.983 35.2534 122.985L34.8527 128.393H31.4476L30.6463 122.784C30.446 121.983 29.8451 121.182 29.0441 120.982C26.0396 120.381 23.2354 119.179 20.8316 117.577C20.0304 117.176 19.2294 117.176 18.4281 117.577L13.8211 120.982L11.4175 118.578L14.8226 114.172C15.4236 113.571 15.4236 112.369 14.8226 111.768C13.2201 109.364 12.0185 106.56 11.4175 103.556C11.2172 102.754 10.6163 102.153 9.81526 101.953L4.40724 101.152V97.7466L10.0156 96.9454C10.8168 96.7451 11.6178 96.1441 11.6178 95.3428C12.2188 92.3384 13.2204 89.5342 15.023 87.1304C15.4236 86.3291 15.4236 85.5279 15.023 84.7268L11.6178 80.3201L14.0214 77.9166L18.4281 81.3217C19.029 81.9227 20.2307 81.9227 20.8316 81.3217C23.2352 79.7195 26.0393 78.5176 29.0441 77.9166C29.8453 77.7163 30.4463 77.1153 30.6463 76.114L31.4476 70.5057H34.8527L35.654 76.114C35.8543 76.9153 36.4553 77.7163 37.2563 77.9166C40.2608 78.5176 43.0649 79.7192 45.4687 81.3217C46.27 81.7224 47.071 81.7224 47.8723 81.3217L52.4793 77.9166L54.8828 80.3201L51.4777 84.9272C50.8768 85.5281 50.8768 86.5297 51.4777 87.3307C53.08 89.7342 54.2819 92.5384 54.8828 95.5432C55.0831 96.3444 55.6841 96.9454 56.6854 97.1457L62.2937 97.947V101.152Z" fill="#623E91"/>
<path d="M33.2511 82.7245C24.0373 82.7245 16.4258 90.336 16.4258 99.5498C16.4258 108.764 23.837 116.175 33.0507 116.175C42.2645 116.175 49.6757 108.764 49.6757 99.5498C49.6757 90.3357 42.4651 82.7245 33.2511 82.7245ZM33.2511 112.169C26.2405 112.169 20.6322 106.56 20.6322 99.5498C20.6322 92.5392 26.2405 86.9309 33.2511 86.9309C40.2616 86.9309 45.87 92.5392 45.87 99.5498C45.8702 106.56 40.2616 112.169 33.2511 112.169Z" fill="#623E91"/>
<path d="M130.795 36.8554L122.383 35.6535C121.581 32.048 120.179 28.6429 118.176 25.6384L123.184 19.0285C123.785 18.2272 123.785 17.0256 122.984 16.2243L116.574 9.81472C115.773 9.01345 114.771 9.01345 113.97 9.6144L107.16 14.8221C104.155 12.8192 100.75 11.417 97.1449 10.6157L95.943 2.20295C95.7427 1.20136 94.9414 0.40036 93.9401 0.40036H84.7263C83.7248 0.40036 82.9238 1.20163 82.7234 2.20295L81.5215 10.6157C77.9161 11.417 74.511 12.8189 71.5065 14.8221L64.6963 9.6144C63.895 9.01345 62.6933 9.01345 62.0924 9.81472L55.8831 16.2243C55.0818 17.0256 55.0818 18.0269 55.6828 18.8282L60.8905 25.6384C58.8876 28.8432 57.4854 32.048 56.6841 35.6535L48.2713 36.8554C47.2698 37.0557 46.4688 37.857 46.4688 38.8583V48.072C46.4688 49.0736 47.27 49.8746 48.2713 50.0749L56.6841 51.2768C57.4854 54.8823 58.8873 58.2874 60.8905 61.2919L55.6825 68.1024C55.0816 68.9037 55.0816 70.1053 55.8828 70.7063L62.4928 77.3162C63.294 78.1174 64.2954 78.1174 65.0966 77.5165L71.9069 72.3088C74.9113 74.3117 78.3165 75.7139 81.9219 76.5152L83.1238 84.9279C83.3241 85.9295 84.1254 86.7305 85.1267 86.7305H94.3405C95.3421 86.7305 96.1431 85.9293 96.3434 84.9279L97.5453 76.5152C101.151 75.7139 104.556 74.312 107.56 72.3088L114.17 77.3162C114.571 77.5165 114.972 77.7168 115.572 77.7168C116.173 77.7168 116.774 77.5165 117.175 77.1159L123.585 70.7063C124.386 69.905 124.386 68.9037 123.785 68.1024L118.577 61.2922C120.58 58.0874 121.982 54.8826 122.784 51.2771L131.196 50.0752C132.198 49.8749 132.999 49.0736 132.999 48.0723V38.8585C132.598 37.6566 131.797 36.8554 130.795 36.8554ZM120.58 47.271C119.779 47.4714 118.978 48.0723 118.978 48.8736C118.176 52.8797 116.574 56.6854 114.371 60.0905C113.97 60.8918 113.97 61.6931 114.371 62.4941L119.378 69.104L115.372 73.1101L108.562 68.1024C107.961 67.5014 106.959 67.5014 106.158 68.1024C102.753 70.3056 98.9475 71.9081 94.9414 72.7094C94.1402 72.9097 93.5392 73.5107 93.3389 74.512L92.5376 82.5242H86.729L85.7274 74.3117C85.5271 73.5104 84.9261 72.7092 84.1249 72.5091C80.1188 71.7078 76.313 70.1056 72.9079 67.9021C72.1066 67.5014 71.3056 67.5014 70.5044 67.9021L64.0948 72.9097L60.0887 68.9037L64.896 62.4941C65.497 61.8931 65.497 60.6915 64.896 59.8902C62.6928 56.4851 61.0903 52.8797 60.289 48.8736C60.0887 48.0723 59.4877 47.4714 58.4864 47.271L50.4743 46.2695V40.4608L58.4864 39.4592C59.2877 39.2589 60.0887 38.6579 60.289 37.8567C61.0903 33.8506 62.6926 30.0449 64.896 26.6397C65.2967 25.8385 65.2967 25.0372 64.896 24.2362L59.8884 17.6263L63.8947 13.6205L70.3043 18.6279C70.9053 19.2288 72.1069 19.2288 72.9082 18.6279C76.3133 16.4246 79.9187 14.8221 83.9248 14.0208C84.7261 13.8205 85.327 13.2196 85.5273 12.2183L86.7292 4.20611H92.5379L93.5395 12.4186C93.7398 13.2198 94.3408 14.0211 95.142 14.2212C99.1481 15.0224 102.954 16.6247 106.359 18.8282C107.16 19.2288 107.961 19.2288 108.762 18.8282L115.172 13.8208L119.178 17.8269L114.171 24.2365C113.57 24.8374 113.57 25.839 114.171 26.64C116.374 30.0451 117.976 33.8509 118.778 37.8569C118.978 38.6582 119.579 39.2592 120.38 39.4595L128.392 40.4611V46.2697H128.592L120.58 47.271Z" fill="#623E91"/>
<path d="M89.535 21.8329C77.7171 21.8329 67.9023 31.4474 67.9023 43.4656C67.9023 55.4835 77.5168 65.0982 89.535 65.0982C101.553 65.0982 111.168 55.4838 111.168 43.4656C111.168 31.4474 101.553 21.8329 89.535 21.8329ZM89.535 61.0919C79.9206 61.0919 71.9084 53.28 71.9084 43.4653C71.9084 33.6506 79.7202 25.8388 89.535 25.8388C99.1494 25.8388 107.162 33.6506 107.162 43.4653C107.162 53.28 99.3497 61.0919 89.535 61.0919Z" fill="#623E91"/>
<path d="M16.4237 57.887C17.4253 58.6883 18.6269 58.6883 19.2279 57.887L30.0442 47.0707C30.8455 46.2694 30.8455 45.0678 30.0442 44.2665C29.2429 43.4653 28.0413 43.4653 27.24 44.2665L19.8288 51.6777V15.223H42.4628C43.6647 15.223 44.4657 14.4217 44.4657 13.2201C44.4657 12.0185 43.6644 11.2172 42.4628 11.2172H17.8259C16.624 11.2172 15.823 12.0185 15.823 13.2201V51.678L8.61215 44.4671C7.81088 43.6659 6.60925 43.6659 5.80798 44.4671C5.00671 45.2684 5.00671 46.47 5.80798 47.2713L16.4237 57.887Z" fill="#623E91"/>
<path d="M111.767 83.1251C111.367 82.7245 110.766 82.5242 110.165 82.5242C109.564 82.5242 109.163 82.7245 108.963 83.1251L98.1467 93.9414C97.3454 94.7427 97.3454 95.9443 98.1467 96.7456C98.948 97.5469 100.15 97.5469 100.951 96.7456L108.362 89.3344V125.789H70.1045C68.9026 125.789 68.1016 126.59 68.1016 127.792C68.1016 128.994 68.9028 129.795 70.1045 129.795H110.365C111.567 129.795 112.368 128.994 112.368 127.792V89.3344L119.579 96.5453C120.38 97.3465 121.582 97.3465 122.383 96.5453C123.184 95.744 123.184 94.5424 122.383 93.7411L111.767 83.1251Z" fill="#623E91"/>
</g>
<defs>
<clipPath id="clip0_535_42866">
<rect width="133" height="133" fill="white"/>
</clipPath>
</defs>
</svg>
