<svg width="130" height="130" viewBox="0 0 130 130" fill="none" xmlns="http://www.w3.org/2000/svg">
<path d="M65 81.25C65 79.643 64.5235 78.0721 63.6307 76.736C62.7379 75.3998 61.469 74.3584 59.9843 73.7435C58.4997 73.1285 56.866 72.9676 55.2899 73.2811C53.7138 73.5946 52.2661 74.3685 51.1298 75.5048C49.9935 76.6411 49.2196 78.0888 48.9061 79.6649C48.5926 81.241 48.7535 82.8747 49.3685 84.3593C49.9834 85.844 51.0248 87.1129 52.361 88.0057C53.6971 88.8985 55.268 89.375 56.875 89.375C59.0299 89.375 61.0965 88.519 62.6202 86.9952C64.144 85.4715 65 83.4049 65 81.25ZM52.8125 81.25C52.8125 80.4465 53.0508 79.6611 53.4972 78.993C53.9436 78.3249 54.578 77.8042 55.3204 77.4967C56.0627 77.1893 56.8795 77.1088 57.6676 77.2656C58.4556 77.4223 59.1795 77.8092 59.7476 78.3774C60.3158 78.9455 60.7027 79.6694 60.8594 80.4574C61.0162 81.2455 60.9357 82.0623 60.6283 82.8047C60.3208 83.547 59.8001 84.1815 59.132 84.6279C58.4639 85.0742 57.6785 85.3125 56.875 85.3125C55.7976 85.3125 54.7643 84.8845 54.0024 84.1226C53.2405 83.3608 52.8125 82.3274 52.8125 81.25Z" fill="#603C93"/>
<path d="M46.7188 85.3125C46.7188 83.7055 46.2422 82.1346 45.3494 80.7985C44.4567 79.4623 43.1877 78.4209 41.7031 77.806C40.2184 77.191 38.5847 77.0301 37.0086 77.3436C35.4325 77.6571 33.9848 78.431 32.8485 79.5673C31.7122 80.7036 30.9384 82.1513 30.6249 83.7274C30.3114 85.3035 30.4723 86.9372 31.0872 88.4218C31.7022 89.9065 32.7436 91.1754 34.0797 92.0682C35.4159 92.961 36.9868 93.4375 38.5938 93.4375C40.7486 93.4375 42.8153 92.5815 44.339 91.0577C45.8627 89.534 46.7188 87.4674 46.7188 85.3125ZM34.5313 85.3125C34.5313 84.509 34.7695 83.7236 35.2159 83.0555C35.6623 82.3874 36.2968 81.8667 37.0391 81.5592C37.7814 81.2518 38.5983 81.1713 39.3863 81.3281C40.1744 81.4848 40.8982 81.8717 41.4664 82.4399C42.0345 83.008 42.4214 83.7319 42.5782 84.5199C42.7349 85.308 42.6545 86.1248 42.347 86.8672C42.0395 87.6095 41.5188 88.244 40.8508 88.6904C40.1827 89.1367 39.3972 89.375 38.5938 89.375C37.5163 89.375 36.483 88.947 35.7211 88.1851C34.9593 87.4233 34.5313 86.3899 34.5313 85.3125Z" fill="#603C93"/>
<path d="M20.3125 97.5C21.9195 97.5 23.4904 97.0235 24.8265 96.1307C26.1627 95.2379 27.2041 93.969 27.819 92.4843C28.434 90.9997 28.5949 89.366 28.2814 87.7899C27.9679 86.2138 27.194 84.7661 26.0577 83.6298C24.9214 82.4935 23.4737 81.7196 21.8976 81.4061C20.3215 81.0926 18.6878 81.2535 17.2032 81.8685C15.7185 82.4834 14.4496 83.5248 13.5568 84.861C12.664 86.1971 12.1875 87.768 12.1875 89.375C12.1875 91.5299 13.0435 93.5965 14.5673 95.1202C16.091 96.644 18.1576 97.5 20.3125 97.5ZM20.3125 85.3125C21.116 85.3125 21.9014 85.5508 22.5695 85.9972C23.2376 86.4435 23.7583 87.078 24.0658 87.8204C24.3732 88.5627 24.4537 89.3795 24.2969 90.1676C24.1402 90.9556 23.7533 91.6795 23.1851 92.2476C22.617 92.8158 21.8931 93.2027 21.1051 93.3594C20.317 93.5162 19.5002 93.4357 18.7578 93.1283C18.0155 92.8208 17.381 92.3001 16.9347 91.632C16.4883 90.9639 16.25 90.1785 16.25 89.375C16.25 88.2976 16.678 87.2642 17.4399 86.5024C18.2017 85.7405 19.2351 85.3125 20.3125 85.3125Z" fill="#603C93"/>
<path d="M105.625 62.9688C105.625 60.5583 104.91 58.202 103.571 56.1977C102.232 54.1935 100.328 52.6314 98.1015 51.709C95.8745 50.7865 93.424 50.5452 91.0598 51.0154C88.6957 51.4857 86.5241 52.6464 84.8196 54.3509C83.1152 56.0553 81.9544 58.227 81.4842 60.5911C81.0139 62.9552 81.2553 65.4057 82.1777 67.6327C83.1002 69.8597 84.6623 71.7631 86.6665 73.1023C88.6707 74.4415 91.027 75.1563 93.4375 75.1563C96.6698 75.1563 99.7698 73.8722 102.055 71.5866C104.341 69.301 105.625 66.2011 105.625 62.9688ZM85.3125 62.9688C85.3125 61.3618 85.789 59.7909 86.6818 58.4547C87.5746 57.1186 88.8436 56.0772 90.3282 55.4622C91.8129 54.8473 93.4465 54.6864 95.0226 54.9999C96.5987 55.3134 98.0464 56.0872 99.1827 57.2235C100.319 58.3598 101.093 59.8076 101.406 61.3836C101.72 62.9597 101.559 64.5934 100.944 66.0781C100.329 67.5627 99.2877 68.8317 97.9515 69.7244C96.6154 70.6172 95.0445 71.0938 93.4375 71.0938C91.2826 71.0938 89.216 70.2377 87.6923 68.714C86.1685 67.1903 85.3125 65.1236 85.3125 62.9688Z" fill="#603C93"/>
<path d="M119.581 44.8906L113.162 5.76875C113.123 5.50452 113.031 5.25072 112.893 5.02188C112.755 4.79304 112.574 4.59366 112.359 4.43516C112.143 4.27667 111.899 4.16216 111.64 4.09822C111.38 4.03427 111.111 4.02213 110.847 4.0625L58.603 12.0453C58.3369 12.0852 58.0813 12.1775 57.8512 12.317C57.621 12.4565 57.4209 12.6403 57.2624 12.8578C57.1071 13.0764 56.9967 13.3235 56.9374 13.585C56.8782 13.8465 56.8712 14.1171 56.9171 14.3813L58.1358 21.7547L19.9889 28.0719C19.5901 28.1393 19.2206 28.3242 18.9275 28.6029C18.6344 28.8816 18.4313 29.2415 18.344 29.6364C18.2567 30.0313 18.2893 30.4433 18.4376 30.8196C18.5859 31.1958 18.8432 31.5193 19.1764 31.7484L38.5952 45.0734L24.803 63.8828C24.6051 64.1826 24.4902 64.5295 24.47 64.8881C24.4499 65.2468 24.5252 65.6044 24.6884 65.9244C24.8515 66.2444 25.0965 66.5155 25.3986 66.7099C25.7006 66.9044 26.0488 67.0153 26.4077 67.0313H26.7327L75.1577 59.1297C75.4254 59.0873 75.682 58.9918 75.9122 58.8488C76.1424 58.7058 76.3417 58.5181 76.4983 58.2969C76.6501 58.0768 76.7569 57.829 76.8127 57.5676C76.8684 57.3061 76.872 57.0363 76.8233 56.7734L75.7671 50.7813L115.194 43.2859L115.478 45.0531C113.808 45.5543 112.344 46.5792 111.302 47.9765C110.259 49.3737 109.694 51.0692 109.689 52.8125V65C109.689 73.9984 107.028 79.2188 93.3171 79.2188C78.5702 80.1328 66.9108 87.1203 65.2249 95.4688C62.6564 94.1023 59.7856 93.4038 56.8764 93.4375C54.6012 93.3865 52.3407 93.814 50.2412 94.6923C48.1417 95.5706 46.2501 96.8801 44.6889 98.5359C42.7349 97.8332 40.6717 97.4825 38.5952 97.5C36.32 97.449 34.0594 97.8765 31.9599 98.7548C29.8605 99.6331 27.9689 100.943 26.4077 102.598C24.4536 101.896 22.3904 101.545 20.3139 101.562C18.1531 101.461 15.9948 101.812 13.9774 102.593C11.96 103.374 10.1278 104.567 8.59816 106.097C7.06852 107.626 5.87511 109.459 5.09432 111.476C4.31354 113.493 3.96259 115.652 4.06394 117.812V123.906C4.06394 124.445 4.27794 124.962 4.65888 125.343C5.03981 125.723 5.55647 125.938 6.09519 125.938H73.1264C74.2068 125.924 75.2739 125.698 76.267 125.273C77.26 124.847 78.1594 124.23 78.9139 123.456C79.6684 122.683 80.2632 121.769 80.6643 120.765C81.0653 119.762 81.2649 118.69 81.2514 117.609V117.02C92.6671 111.333 107.17 107.656 111.72 107.656C112.259 107.656 112.776 107.442 113.157 107.061C113.537 106.68 113.751 106.164 113.751 105.625V91.2437C121.084 86.1859 125.939 79.0563 125.939 73.125V52.8125C125.937 50.9662 125.306 49.1755 124.151 47.7356C122.995 46.2956 121.383 45.2922 119.581 44.8906ZM72.4561 55.4531L31.0796 62.2781L43.1655 45.7844C43.3269 45.5648 43.4424 45.3149 43.5053 45.0497C43.5681 44.7845 43.5769 44.5093 43.5311 44.2406C43.4813 43.9733 43.3784 43.7187 43.2283 43.4919C43.0783 43.2651 42.8842 43.0707 42.6577 42.9203L25.6358 31.2609L58.7858 25.7766L62.9702 51.1063C63.015 51.3756 63.1136 51.6331 63.2602 51.8635C63.4068 52.0938 63.5983 52.2922 63.8233 52.4469C64.1686 52.6879 64.5803 52.8157 65.0014 52.8125H65.3874L71.7858 51.5938L72.4561 55.4531ZM66.6671 48.4047L61.2436 15.7625L109.486 8.40938L114.544 39.2844L66.6671 48.4047ZM38.5952 101.562C39.8433 101.565 41.0859 101.729 42.2921 102.05C41.165 104.437 40.5955 107.048 40.6264 109.688V121.875H26.4077V113.75C26.3281 111.07 27.1113 108.436 28.6421 106.234C29.8112 104.722 31.3237 103.509 33.0545 102.697C34.7852 101.884 36.6845 101.495 38.5952 101.562ZM8.12644 117.812C8.03524 116.188 8.28802 114.563 8.86824 113.043C9.44846 111.523 10.343 110.142 11.4935 108.992C12.6439 107.842 14.0243 106.947 15.5442 106.367C17.0642 105.787 18.6895 105.534 20.3139 105.625C21.5621 105.628 22.8046 105.792 24.0108 106.113C22.8838 108.499 22.3142 111.111 22.3452 113.75V121.875H8.12644V117.812ZM44.6889 109.688C44.6093 107.008 45.3926 104.373 46.9233 102.172C48.0925 100.659 49.605 99.4464 51.3357 98.634C53.0664 97.8217 54.9657 97.4329 56.8764 97.5C59.8294 97.4544 62.7048 98.4464 65.0014 100.303V117.609C65.0082 119.111 65.4149 120.583 66.1796 121.875H44.6889V109.688ZM121.876 73.125C121.876 77.8578 117.245 84.1547 110.623 88.4406C110.337 88.6242 110.102 88.8765 109.939 89.1746C109.775 89.4727 109.69 89.807 109.689 90.1469V103.594C99.8306 105.141 90.2506 108.117 81.2514 112.43V97.5H77.1889V117.609C77.1889 118.687 76.7609 119.72 75.9991 120.482C75.2372 121.244 74.2039 121.672 73.1264 121.672C72.049 121.672 71.0157 121.244 70.2538 120.482C69.4919 119.72 69.0639 118.687 69.0639 117.609V97.5C69.0639 90.6344 80.2764 84.1547 93.4389 83.2812C111.334 83.2812 113.751 74.0391 113.751 65V52.8125C113.751 51.7351 114.179 50.7018 114.941 49.9399C115.703 49.178 116.736 48.75 117.814 48.75C118.891 48.75 119.925 49.178 120.687 49.9399C121.448 50.7018 121.876 51.7351 121.876 52.8125V73.125Z" fill="#603C93"/>
</svg>
