<svg width="79" height="80" viewBox="0 0 79 80" fill="none" xmlns="http://www.w3.org/2000/svg">
<path d="M21.0316 8.688C22.161 8.688 22.161 10.4265 21.0316 10.4265H12.0301C10.9006 10.4265 10.9006 8.688 12.0301 8.688H21.0316ZM8.76151 20.3705C9.89098 20.3705 9.89098 22.109 8.76151 22.109H6.09188C4.96242 22.109 4.96242 20.3705 6.09188 20.3705H8.76151ZM73.0553 74.5064C74.1847 74.5064 74.1847 76.2449 73.0553 76.2449H68.8626C67.7331 76.2449 67.7331 74.5064 68.8626 74.5064H73.0553ZM76.8372 57.3999C77.9667 57.3999 77.9667 59.1384 76.8372 59.1384H71.5664C70.437 59.1384 70.437 57.3999 71.5664 57.3999H76.8372ZM63.3008 74.5064C64.4303 74.5064 64.4303 76.2449 63.3008 76.2449H60.6483C59.5188 76.2449 59.5188 74.5064 60.6483 74.5064H63.3008ZM17.5405 38.3115C18.67 38.3115 18.67 40.05 17.5405 40.05H8.53904C7.40958 40.05 7.40958 38.3115 8.53904 38.3115H17.5405ZM14.3233 46.5692C15.4527 46.5692 15.4527 48.3077 14.3233 48.3077H3.25111C2.12165 48.3077 2.12165 46.5692 3.25111 46.5692H14.3233ZM4.31212 38.3115C5.44158 38.3115 5.44158 40.05 4.31212 40.05H1.6596C0.530135 40.05 0.530135 38.3115 1.6596 38.3115H4.31212ZM28.9207 4.39398L41.9437 27.3244C42.2689 27.8981 41.8582 28.6282 41.2079 28.6282H34.7391V50.4286C34.7391 50.898 34.3626 51.2979 33.8835 51.2979H22.4691C21.9899 51.2979 21.6134 50.9154 21.6134 50.4286V28.6282H15.1447C14.5115 28.6282 14.0323 27.9328 14.443 27.2548L27.4319 4.41137C27.7912 3.82029 28.5955 3.83767 28.9207 4.39398ZM33.969 16.7371L28.2019 6.56707L16.6506 26.8898H22.5033C22.9653 26.8898 23.3589 27.2722 23.3589 27.759V49.5594H33.0621V27.759C33.0621 27.2722 33.4385 26.8898 33.9177 26.8898H39.7704L33.969 16.7371ZM27.8768 58.2344V74.037L36.8612 78.2094H52.7421C56.37 78.2094 55.5828 74.35 53.9571 74.35V72.6115C57.9273 72.6115 57.1401 68.7521 53.9742 68.7521V67.0136H54.6074C57.7391 67.0136 57.8246 63.1542 54.1111 63.1542V61.4158C57.6364 61.4158 57.3968 57.5564 54.6587 57.5564H43.2272C42.9705 57.5564 42.7309 57.4347 42.5598 57.2261L39.0858 52.6713L27.8597 57.9041C27.8768 58.0084 27.8768 58.1127 27.8768 58.2344ZM27.5516 75.8103C27.004 76.9751 25.8403 77.74 24.5226 77.74H22.4348C20.8262 77.74 19.4743 76.5752 19.1491 75.028H5.74962C5.28756 75.028 4.89396 74.6455 4.89396 74.1587V58.4256C4.89396 57.9562 5.27045 57.5564 5.74962 57.5564H19.1491C19.4743 55.9917 20.8433 54.8444 22.4348 54.8444H24.5226C25.635 54.8444 26.6447 55.4007 27.2607 56.2873L39.1201 50.7763C37.1178 43.1097 43.1416 35.7038 50.9452 36.2775V33.3743H41.687C41.0538 33.3743 40.5747 32.6615 40.9854 32.0183L49.9355 16.2503L58.9199 0.430271C59.245 -0.143424 60.0665 -0.143424 60.3916 0.430271L78.3603 32.0704C78.6855 32.6441 78.2747 33.3743 77.6244 33.3743H68.3663V68.2306C68.3663 68.7 67.9898 69.0998 67.5106 69.0998H57.8589C58.8857 70.873 58.2696 73.0287 56.3187 73.9327C57.876 76.1406 56.9176 80 52.7421 80H36.6729C36.5189 80 36.3649 79.9652 36.2451 79.8783L27.5516 75.8103ZM26.1655 74.3326V58.2344C26.1655 57.313 25.4296 56.5654 24.5226 56.5654H22.4348C21.5279 56.5654 20.792 57.313 20.792 58.2344V74.3326C20.792 75.254 21.5279 76.0015 22.4348 76.0015H24.5226C25.4296 76.0015 26.1655 75.2366 26.1655 74.3326ZM44.5449 55.8179H54.6758C54.9839 55.8179 55.2748 55.8527 55.5486 55.9048C60.5456 52.4279 61.2473 45.2132 56.9348 40.8497C53.1528 37.0077 47.0434 37.0077 43.2614 40.8497C39.0003 45.1785 39.6677 52.341 44.5449 55.8179ZM57.277 56.7567C58.9028 58.217 58.8343 60.8595 57.0717 62.2502C58.783 63.4498 59.1595 65.7446 57.876 67.3439H66.6721V32.4876C66.6721 32.0009 67.0486 31.6184 67.5277 31.6184H76.1527L59.6557 2.58597L43.1588 31.6184H51.7837C52.2629 31.6184 52.6394 32.0009 52.6394 32.4876V36.5209C57.8075 37.7204 61.4697 42.4143 61.4697 47.7862C61.4868 51.1936 60.0151 54.4967 57.277 56.7567ZM19.0807 73.2721V59.2774H6.60527V73.2721H19.0807ZM52.8447 42.9011C53.9742 42.9011 53.9742 44.6395 52.8447 44.6395H50.1067C49.3708 44.6395 48.7034 44.8134 48.2413 45.1089C47.8991 45.3175 47.6937 45.5609 47.6937 45.7869C47.6937 46.5692 48.9601 46.7431 50.2264 46.9343C52.2287 47.2299 54.2309 47.5254 54.2309 49.8028C54.2309 51.4543 52.5025 52.4105 50.9452 52.6191V53.1407H49.2339V52.6713H47.0948C45.9653 52.6713 45.9653 50.9328 47.0948 50.9328H50.1067C50.8596 50.9328 51.5099 50.759 51.972 50.4634C52.3142 50.2548 52.5196 50.0114 52.5196 49.7854C52.5196 49.0031 51.2532 48.8293 49.9869 48.638C47.9846 48.3425 45.9824 48.0469 45.9824 45.7695C45.9824 44.1354 47.6937 43.1792 49.251 42.9532L49.2681 42.3969L50.9794 42.4491L50.9623 42.8837H52.8447V42.9011Z" fill="#603C93"/>
</svg>
