<svg width="92" height="80" viewBox="0 0 92 80" fill="none" xmlns="http://www.w3.org/2000/svg">
<path d="M54.6706 47.4097H42.8578C39.9184 44.4204 36.2897 42.2492 32.3652 41.0672C36.5805 38.612 39.4303 33.9896 39.4303 28.6978C39.4303 20.8452 33.1591 14.4576 25.452 14.4576C17.7448 14.4576 11.4736 20.8463 11.4736 28.6978C11.4736 33.9793 14.3134 38.5956 18.5166 41.0539C8.28769 44.1129 0.796875 53.7595 0.796875 65.157V68.0889C0.796875 69.765 2.13524 71.1284 3.78052 71.1284H17.3282L15.1013 78.1025C14.9604 78.5433 15.0359 79.0271 15.3025 79.4023C15.5702 79.7775 15.9979 80 16.4537 80H45.1893C45.8052 80 46.3516 79.5961 46.5418 78.9995L56.022 49.3073C56.1629 48.8665 56.0874 48.3826 55.8208 48.0074C55.5541 47.6322 55.1264 47.4097 54.6706 47.4097ZM14.3174 28.6978C14.3174 22.4434 19.3126 17.3556 25.451 17.3556C31.5893 17.3556 36.5845 22.4445 36.5845 28.6978C36.5845 34.9512 31.5893 40.04 25.451 40.04C19.3126 40.04 14.3174 34.9522 14.3174 28.6978ZM25.452 42.9381C30.2439 42.9381 34.7813 44.5065 38.5398 47.4097H25.935C25.3191 47.4097 24.7727 47.8136 24.5825 48.4103L21.2215 58.9374H4.51109C7.15763 49.704 15.544 42.9381 25.452 42.9381ZM3.64165 68.0889V65.157C3.64165 64.0283 3.72417 62.9191 3.88518 61.8355H25.0877C26.8185 61.8355 28.2263 63.2697 28.2263 65.0329C28.2263 66.7962 26.8185 68.2304 25.0877 68.2304H3.78052C3.70807 68.2314 3.64165 68.1637 3.64165 68.0889ZM44.1569 77.1019H18.413L20.3199 71.1284H25.0877C28.3873 71.1284 31.0711 68.3944 31.0711 65.0329C31.0711 61.6715 28.3873 58.9374 25.0877 58.9374H24.2122L26.9674 50.3068H52.7113L44.1569 77.1019ZM65.616 0C55.9647 0 48.1116 7.99918 48.1116 17.8313C48.1116 24.0837 51.3901 29.9567 56.6671 33.1603C57.2547 33.517 57.5647 34.0737 57.5647 34.7697V38.7647C57.5647 40.2942 58.4804 41.6105 59.7825 42.1733C59.9194 44.6798 61.9642 46.6768 64.4588 46.6768H66.7712C69.2658 46.6768 71.3096 44.6808 71.4474 42.1733C72.7496 41.6105 73.6663 40.2942 73.6663 38.7647V34.7697C73.6663 34.0737 73.9762 33.517 74.5639 33.1603C79.8409 29.9567 83.1194 24.0837 83.1194 17.8313C83.1204 7.99918 75.2683 0 65.616 0ZM62.3385 21.2553C60.4779 20.6628 59.2864 19.6192 59.2864 18.6514C59.2864 17.7944 59.9707 17.0973 60.812 17.0973C61.6532 17.0973 62.3375 17.7944 62.3375 18.6514L62.3385 21.2553ZM66.0487 35.6698H65.1833V24.6321C65.4701 24.6403 65.7619 24.6403 66.0487 24.6321V35.6698ZM70.8225 38.5679V38.7647C70.8225 39.2076 70.4693 39.5674 70.0346 39.5674H61.1994C60.7647 39.5674 60.4115 39.2076 60.4115 38.7647V38.5679H70.8225ZM66.7722 43.7787H64.4598C63.6376 43.7787 62.9393 43.2261 62.7048 42.4655H68.5272C68.2927 43.2251 67.5944 43.7787 66.7722 43.7787ZM73.1088 30.6712C71.6557 31.5528 70.8225 33.0475 70.8225 34.7697V35.6698H68.8935V24.259C72.3732 23.4153 74.7903 21.2512 74.7903 18.6514C74.7903 16.1962 72.8301 14.1992 70.42 14.1992C68.01 14.1992 66.0497 16.1962 66.0497 18.6514V21.733C65.7649 21.7433 65.4691 21.7433 65.1843 21.733V18.6514C65.1843 16.1962 63.224 14.1992 60.814 14.1992C58.4039 14.1992 56.4437 16.1962 56.4437 18.6514C56.4437 21.2512 58.8608 23.4153 62.3405 24.259V35.6698H60.4115V34.7697C60.4115 33.0475 59.5783 31.5528 58.1252 30.6712C53.7045 27.9874 50.9584 23.0677 50.9584 17.8313C50.9584 9.59635 57.5345 2.89705 65.618 2.89705C73.7015 2.89705 80.2776 9.59635 80.2776 17.8313C80.2756 23.0677 77.5294 27.9874 73.1088 30.6712ZM68.8935 21.2553V18.6504C68.8935 17.7934 69.5778 17.0963 70.42 17.0963C71.2613 17.0963 71.9455 17.7934 71.9455 18.6504C71.9455 19.6192 70.7541 20.6628 68.8935 21.2553ZM81.8756 8.1386C81.4832 7.4456 81.7156 6.55988 82.3959 6.15905L86.0074 4.03496C86.6887 3.63413 87.5581 3.87196 87.9506 4.56496C88.343 5.25795 88.1106 6.14367 87.4303 6.5445L83.8188 8.6686C83.5944 8.80084 83.3498 8.86338 83.1093 8.86338C82.6162 8.86338 82.1383 8.60401 81.8756 8.1386ZM91.4696 17.7196C91.4696 18.5202 90.8326 19.1681 90.0477 19.1681H85.8776C85.0917 19.1681 84.4557 18.5192 84.4557 17.7196C84.4557 16.9189 85.0927 16.271 85.8776 16.271H90.0477C90.8326 16.27 91.4696 16.9189 91.4696 17.7196ZM87.9506 30.8383C87.6869 31.3027 87.2089 31.5631 86.7179 31.5631C86.4764 31.5631 86.2318 31.5006 86.0084 31.3683L82.3969 29.2442C81.7166 28.8444 81.4832 27.9577 81.8766 27.2647C82.2691 26.5717 83.1395 26.3338 83.8198 26.7347L87.4313 28.8588C88.1096 29.2596 88.343 30.1453 87.9506 30.8383ZM43.2824 4.56598C43.6749 3.87299 44.5453 3.63515 45.2256 4.03598L48.8371 6.16008C49.5174 6.55988 49.7508 7.44663 49.3574 8.13962C49.0937 8.60401 48.6157 8.8644 48.1247 8.8644C47.8832 8.8644 47.6386 8.80187 47.4152 8.66962L43.8037 6.54553C43.1224 6.1447 42.889 5.25898 43.2824 4.56598ZM39.8268 17.7021C39.8268 16.9015 40.4638 16.2536 41.2487 16.2536H45.4188C46.2047 16.2536 46.8406 16.9025 46.8406 17.7021C46.8406 18.5018 46.2037 19.1507 45.4188 19.1507H41.2487C40.4638 19.1507 39.8268 18.5018 39.8268 17.7021ZM47.4142 26.7347C48.0955 26.3338 48.9639 26.5717 49.3574 27.2647C49.7498 27.9577 49.5174 28.8434 48.8371 29.2442L45.2256 31.3683C45.0011 31.5006 44.7566 31.5631 44.5161 31.5631C44.024 31.5631 43.5461 31.3037 43.2834 30.8383C42.891 30.1453 43.1234 29.2596 43.8037 28.8588L47.4142 26.7347Z" fill="#603C93"/>
</svg>
