<svg width="75" height="80" viewBox="0 0 75 80" fill="none" xmlns="http://www.w3.org/2000/svg">
<path d="M68.561 61.3466C64.7913 56.1995 59.6335 52.458 53.6448 50.5272C53.6376 50.5254 53.6304 50.5226 53.6232 50.5208C53.4103 50.4521 53.1911 50.3842 52.9638 50.3164V44.2447C57.4613 41.4791 60.5301 36.55 60.7628 30.8887C63.008 30.6019 64.7507 28.6519 64.7507 26.2941C64.7507 23.9427 63.0161 21.9964 60.7781 21.7032V18.9962C60.7781 16.4359 60.1819 13.8894 59.0544 11.6177C59.0977 11.3447 59.122 11.0642 59.122 10.7774V10.5758C59.122 2.89493 52.1231 0.0404712 52.0527 0.0212277C51.8669 -0.0310047 51.6676 0.0148176 51.5196 0.140359C51.3726 0.266816 51.2968 0.458333 51.3158 0.653517C51.3771 1.28947 51.1868 1.84753 50.7303 2.35977C48.1776 5.22431 38.9488 5.4479 36.1813 5.4479C35.568 5.4479 35.2008 5.43781 35.1972 5.43781C35.1918 5.43781 35.1855 5.43781 35.1801 5.43781C32.391 5.43781 30.1223 7.74246 30.1223 10.5758V10.7774C30.1223 11.0633 30.1458 11.3437 30.1909 11.6168C29.0634 13.8885 28.4653 16.4341 28.4653 18.9962V21.7032C26.2282 21.9955 24.4936 23.9427 24.4936 26.2941C24.4936 28.6519 26.2363 30.6028 28.4806 30.8887C28.6493 35.0114 30.3082 38.8638 33.1983 41.7998C34.1373 42.7547 35.172 43.5757 36.2797 44.2575V50.3164C36.0451 50.3861 35.8169 50.4566 35.6004 50.5272C35.3497 50.6088 35.0953 50.694 34.84 50.7838V43.9129C34.84 43.5858 34.5775 43.3191 34.2555 43.3191H27.5461C27.2223 43.3191 26.9607 43.5858 26.9607 43.9129V46.4906C25.5337 45.577 23.7503 45.0675 21.9048 45.0675C19.1941 45.0675 16.7911 46.1479 15.309 47.8038C15.0402 47.4739 14.7985 47.2741 14.7173 47.21C13.1802 45.8492 10.991 45.0675 8.70522 45.0675C4.21577 45.0675 0.5625 48.0283 0.5625 51.6699C0.5625 52.1198 0.622044 52.5716 0.732995 53.0142C0.622044 53.4504 0.5625 53.8985 0.5625 54.3484C0.5625 54.8002 0.622044 55.2501 0.732995 55.6872C0.622044 56.1271 0.5625 56.5752 0.5625 57.026C0.5625 57.4759 0.622044 57.925 0.732995 58.3648C0.622044 58.8037 0.5625 59.2518 0.5625 59.7027C0.5625 60.1535 0.622044 60.6044 0.732995 61.0415C0.622044 61.4804 0.5625 61.9294 0.5625 62.3785C0.5625 62.8898 0.637371 63.3883 0.772677 63.8657C0.633763 64.355 0.5625 64.859 0.5625 65.3648C0.5625 65.8157 0.622044 66.2656 0.732995 66.7037C0.621142 67.1417 0.5625 67.5907 0.5625 68.0425C0.5625 68.4933 0.622044 68.9414 0.732995 69.3822C0.622044 69.8183 0.5625 70.2674 0.5625 70.7191C0.5625 71.2277 0.633762 71.7345 0.77448 72.2247C1.63322 75.2258 4.895 77.3233 8.70611 77.3233C10.7537 77.3233 12.7256 76.6929 14.2203 75.5795C15.3343 78.1508 18.3552 79.9991 21.902 80C21.903 80 21.9039 80 21.9057 80H27.5443H34.2537H61.6964H73.8505C74.1743 80 74.4359 79.7334 74.4359 79.4053C74.4368 72.8423 72.4055 66.5983 68.561 61.3466ZM63.5799 26.295C63.5799 27.9912 62.3675 29.4033 60.7781 29.6865V22.9054C62.3675 23.1877 63.5799 24.6007 63.5799 26.295ZM31.2932 10.5767C31.2932 8.40223 33.0323 6.63274 35.172 6.62816C35.2342 6.62999 35.5959 6.63916 36.1813 6.63916C39.8851 6.63916 48.8 6.30011 51.599 3.15883C52.0428 2.66217 52.3224 2.11418 52.4388 1.52313C54.1139 2.45323 57.9512 5.173 57.9512 10.5758V10.7774C57.9512 12.9547 56.2075 14.726 54.0643 14.726H35.1801C33.0368 14.726 31.2932 12.9547 31.2932 10.7774V10.5767ZM25.6645 26.295C25.6645 24.6007 26.8768 23.1877 28.4653 22.9054V29.6865C26.8759 29.4033 25.6645 27.9903 25.6645 26.295ZM29.637 30.196V22.2594V18.9972C29.637 16.9922 30.0087 15.0632 30.7438 13.2443C31.6044 14.836 33.2705 15.9173 35.1801 15.9173H54.0643C55.9739 15.9173 57.64 14.836 58.4996 13.2443C59.2348 15.0632 59.6073 16.9922 59.6073 18.9972V22.2594V30.196C59.6073 38.5889 52.8853 45.4167 44.6244 45.4167C40.6212 45.4167 36.857 43.8332 34.0273 40.9595C31.1958 38.083 29.637 34.2609 29.637 30.196ZM44.6235 46.6061C47.197 46.6061 49.6316 45.9912 51.7929 44.8989V50.7664C51.7929 51.0339 51.9679 51.2694 52.2232 51.3391C52.4226 51.3959 52.6129 51.4509 52.7969 51.5068C52.2665 54.0204 50.66 56.1298 48.3941 57.2917C48.3652 57.2588 48.3372 57.2248 48.3048 57.1928C47.8781 56.7648 47.3116 56.5293 46.7117 56.5293H42.5299C41.8615 56.5293 41.2616 56.8253 40.8485 57.2908C38.6132 56.1381 36.9769 53.9864 36.4474 51.5059C36.626 51.4509 36.8092 51.3987 36.9959 51.3455C37.2566 51.285 37.4505 51.0486 37.4505 50.7655V44.9081C39.6533 46.0196 42.0933 46.6061 44.6235 46.6061ZM1.89933 69.2154C1.86776 69.1082 1.8425 68.9991 1.82085 68.891C2.07973 69.2227 2.372 69.5389 2.70215 69.8293C4.23922 71.1883 6.42757 71.9672 8.70702 71.9672C10.5517 71.9672 12.3386 71.4559 13.7675 70.5395C13.7657 70.5982 13.7611 70.6587 13.7611 70.7182C13.7611 71.0426 13.7936 71.3661 13.8514 71.6841C12.5308 72.8103 10.6653 73.4563 8.70702 73.4563C6.01804 73.4563 3.61411 72.2843 2.43153 70.3966C2.197 70.0264 2.0175 69.6287 1.89933 69.2154ZM8.70522 58.275C10.5535 58.275 12.3386 57.7637 13.7675 56.8473C13.7657 56.9078 13.7611 56.9664 13.7611 57.0269C13.7611 57.3513 13.7936 57.6739 13.8514 57.9928C12.5272 59.119 10.6608 59.7641 8.70702 59.7641C6.7072 59.7641 4.79848 59.0915 3.47067 57.9158C3.05574 57.5511 2.70665 57.1442 2.43243 56.7053C2.19609 56.3314 2.0166 55.9337 1.89933 55.5214C1.87047 55.4206 1.8452 55.3179 1.82446 55.2171C3.28035 57.0856 5.83854 58.275 8.70522 58.275ZM33.6683 59.8814H28.1306V58.3474C28.1306 58.3474 28.1306 58.3474 28.1306 58.3465V52.2665H33.6683V59.8814ZM2.70215 58.8147C4.24012 60.1746 6.42847 60.9535 8.70702 60.9535C10.5499 60.9535 12.3341 60.4422 13.7675 59.524C13.7657 59.5835 13.7611 59.6431 13.7611 59.7027C13.7611 60.0271 13.7936 60.3505 13.8514 60.6685C12.5299 61.7947 10.6653 62.4398 8.70702 62.4398C6.01894 62.4398 3.61411 61.2696 2.43153 59.382C2.197 59.0108 2.0184 58.6131 1.89933 58.199C1.86866 58.0917 1.8425 57.9845 1.82085 57.8746C2.08064 58.2081 2.3729 58.5243 2.70215 58.8147ZM15.0971 60.8756C15.0673 60.7693 15.0411 60.663 15.0195 60.554C16.1894 62.0623 18.0467 63.1189 20.2216 63.4882C20.7727 63.5826 21.3392 63.6302 21.9057 63.6302C23.7512 63.6302 25.5328 63.118 26.9607 62.2034V63.4222C25.6455 64.5016 23.8207 65.1174 21.9057 65.1174C20.9342 65.1174 19.9969 64.9653 19.1184 64.6638C17.0816 63.972 15.5779 62.5571 15.0971 60.8756ZM26.9598 60.7446C25.6446 61.825 23.8198 62.4398 21.9048 62.4398C21.4023 62.4398 20.9008 62.3986 20.4137 62.3161C18.3489 61.9652 16.5611 60.8683 15.6293 59.3801C15.3947 59.0108 15.2152 58.6131 15.0971 58.199C15.0664 58.0917 15.0402 57.9845 15.0195 57.8746C15.2793 58.2081 15.5715 58.5242 15.9008 58.8138C17.4388 60.1719 19.6271 60.9526 21.9057 60.9526C22.0112 60.9526 22.1149 60.9517 22.216 60.948C23.9677 60.894 25.6121 60.3964 26.9607 59.5295L26.9598 60.7446ZM1.89933 60.8756C1.86866 60.7693 1.8425 60.6612 1.82085 60.5522C3.3029 62.4628 5.87552 63.6284 8.70702 63.6284C10.5544 63.6284 12.3395 63.117 13.7675 62.2007C13.7657 62.2584 13.7611 62.3189 13.7611 62.3775C13.7611 62.7056 13.7936 63.0291 13.8504 63.3461C12.5299 64.4723 10.6653 65.1174 8.70702 65.1174C5.46509 65.1174 2.60202 63.3333 1.89933 60.8756ZM15.098 69.2145C15.0664 69.1082 15.0411 69.001 15.0195 68.891C15.2784 69.2227 15.5706 69.5389 15.9017 69.8303C16.1191 70.0209 16.3518 70.2041 16.5945 70.3737C18.0684 71.4009 19.9546 71.9663 21.9057 71.9663C23.7476 71.9663 25.5319 71.4568 26.9607 70.5432V71.7592C25.6455 72.8387 23.8207 73.4554 21.9057 73.4554C19.2167 73.4554 16.8127 72.2834 15.6311 70.3957C15.3956 70.0264 15.217 69.6287 15.098 69.2145ZM26.9598 69.0853C25.6419 70.1638 23.8153 70.7787 21.9048 70.7787C20.1873 70.7787 18.5366 70.2875 17.2575 69.395C17.0509 69.2502 16.8524 69.0944 16.6684 68.9332C16.2517 68.5666 15.9035 68.1588 15.6302 67.7217C15.3947 67.3497 15.2161 66.952 15.098 66.5369C15.0321 66.3087 14.9879 66.076 14.9618 65.8414C15.6094 66.6973 16.4997 67.4358 17.5939 67.9893C18.8847 68.6408 20.3758 68.9863 21.9057 68.9863C23.7512 68.9863 25.5328 68.475 26.9607 67.5605L26.9598 69.0853ZM26.9598 66.1007C25.6446 67.1802 23.8198 67.7969 21.9048 67.7969C20.5544 67.7969 19.2437 67.4945 18.1144 66.9245C16.4348 66.075 15.3289 64.7335 15.0213 63.2343C15.9017 64.3615 17.1934 65.2668 18.744 65.7937C19.7417 66.1355 20.8052 66.3087 21.9039 66.3087C23.7494 66.3087 25.531 65.7983 26.9589 64.8838V66.1007H26.9598ZM26.9598 58.0679C25.7096 59.0896 23.9822 59.7036 22.1772 59.7595C22.087 59.7632 21.9968 59.7641 21.9057 59.7641C19.9049 59.7641 17.9971 59.0905 16.6684 57.9158C16.2544 57.5511 15.9053 57.1442 15.6311 56.7053C15.3938 56.3314 15.2152 55.9337 15.098 55.5214C15.0691 55.4206 15.0438 55.317 15.0231 55.2153C16.479 57.0856 19.0372 58.2768 21.9048 58.2768C23.7503 58.2768 25.5328 57.7646 26.9607 56.8519L26.9598 58.0679ZM1.82446 63.2499C3.28035 65.1184 5.83673 66.3069 8.70611 66.3069C10.5625 66.3069 12.3549 65.791 13.7864 64.8664C13.7702 65.0322 13.7602 65.1981 13.7602 65.3648C13.7602 65.5985 13.7774 65.8304 13.8063 66.0622C12.4884 67.1646 10.6428 67.7969 8.70611 67.7969C5.24409 67.796 2.36387 65.824 1.82446 63.2499ZM15.098 71.8902C15.0664 71.7839 15.0411 71.6767 15.0195 71.5686C16.5015 73.4792 19.0742 74.6448 21.9048 74.6448C23.7503 74.6448 25.5319 74.1335 26.9598 73.219V74.4377C25.6428 75.5172 23.818 76.132 21.9057 76.132C18.6637 76.133 15.8007 74.3497 15.098 71.8902ZM26.9598 78.8106H26.5665C26.7 78.7345 26.8308 78.6575 26.9598 78.5751V78.8106ZM28.1306 61.0699H33.6683V65.7845H28.1306V61.0699ZM34.84 52.0502C35.0033 51.9897 35.1665 51.9292 35.3289 51.8733C35.9567 54.6856 37.7716 57.0471 40.3172 58.3529C40.2883 58.4977 40.273 58.6471 40.273 58.8001C40.273 59.6587 40.7493 60.4074 41.451 60.7932L38.6683 73.8302C38.6268 74.0281 38.6872 74.2343 38.8279 74.3782L43.2064 78.8115H34.8409V52.0502H34.84ZM39.8806 73.7642L42.5894 61.0699H46.6531L49.362 73.7642L44.6208 78.5659L39.8806 73.7642ZM46.7127 59.8814H42.5308C41.931 59.8814 41.4438 59.3975 41.4438 58.8001C41.4438 58.2054 41.931 57.7197 42.5308 57.7197H46.7136C47.3125 57.7197 47.8005 58.2045 47.8005 58.8001C47.8005 59.3966 47.3125 59.8814 46.7127 59.8814ZM33.6683 44.5086V51.0761H28.1306V44.5086H33.6683ZM21.9039 46.257C23.8189 46.257 25.6437 46.8718 26.9598 47.9504V55.3921C25.6437 56.4716 23.8189 57.0856 21.9039 57.0856C18.6682 57.0856 15.8052 55.3042 15.098 52.8474C15.0953 52.8392 15.0926 52.8309 15.0899 52.8236C14.9852 52.4451 14.932 52.0575 14.932 51.6708C14.932 48.6853 18.0594 46.257 21.9039 46.257ZM8.70522 46.257C10.7177 46.257 12.6327 46.9351 13.9605 48.1181C13.9731 48.13 13.9867 48.1401 13.9993 48.1511C14.0029 48.1529 14.2961 48.3802 14.5775 48.7907C14.0543 49.6603 13.7611 50.639 13.7611 51.6699C13.7611 52.1198 13.8207 52.5716 13.9316 53.0133C13.8198 53.4495 13.7611 53.8976 13.7611 54.3484C13.7611 54.6728 13.7936 54.9972 13.8514 55.3161C12.529 56.4414 10.6644 57.0856 8.70522 57.0856C5.47501 57.0856 2.61645 55.3097 1.90294 52.8602C1.89933 52.8474 1.89572 52.8355 1.89121 52.8218C1.78657 52.4442 1.73335 52.0575 1.73335 51.6708C1.73335 48.6853 4.86163 46.257 8.70522 46.257ZM8.70702 68.9854C10.5634 68.9854 12.3558 68.4686 13.7873 67.5449C13.772 67.7098 13.7611 67.8748 13.7611 68.0425C13.7611 68.3669 13.7936 68.6894 13.8514 69.0092C12.529 70.1345 10.6617 70.7787 8.70702 70.7787C6.7063 70.7787 4.79848 70.107 3.47067 68.9332C3.05393 68.5666 2.70485 68.1588 2.43153 67.7217C2.197 67.3515 2.0184 66.952 1.89933 66.5369C1.83168 66.3041 1.78748 66.065 1.76132 65.8249C3.19556 67.7181 5.77088 68.9854 8.70702 68.9854ZM8.70702 76.133C5.46509 76.133 2.60292 74.3497 1.89933 71.8902C1.86866 71.7839 1.8434 71.6767 1.82085 71.5686C3.3029 73.4792 5.87552 74.6448 8.70702 74.6448C10.5544 74.6448 12.3395 74.1326 13.7675 73.2153C13.7657 73.2749 13.7611 73.3344 13.7611 73.3949C13.7611 73.7239 13.7927 74.0464 13.8496 74.3626C12.5272 75.4888 10.6626 76.133 8.70702 76.133ZM15.024 74.2654C16.479 76.1348 19.0363 77.3233 21.9057 77.3233C23.7494 77.3233 25.5319 76.8129 26.9598 75.8984V77.1153C25.6419 78.1948 23.8171 78.8106 21.9048 78.8106C18.4418 78.8106 15.5607 76.8377 15.024 74.2654ZM28.1306 78.8106V69.3629V67.0491V66.974H33.6683V78.8106H28.1306ZM62.2819 78.8106V67.0491C62.2819 66.7201 62.0194 66.4535 61.6973 66.4535C61.3744 66.4535 61.1119 66.7201 61.1119 67.0491V78.8106H46.0388L50.4164 74.3772C50.558 74.2343 50.6185 74.0272 50.5752 73.8292L47.7942 60.7922C48.4951 60.4064 48.9723 59.6578 48.9723 58.7992C48.9723 58.647 48.9569 58.4977 48.9281 58.352C51.4745 57.0452 53.2876 54.6838 53.9163 51.8715C65.3353 55.8384 73.0215 66.536 73.2615 78.8097L62.2819 78.8106Z" fill="#603C93"/>
<path d="M19.2747 54.5454L20.1326 54.8936L19.9486 55.3619C19.8286 55.6661 19.9747 56.0116 20.2751 56.1335C20.3464 56.1628 20.4194 56.1775 20.4925 56.1775C20.7252 56.1775 20.9444 56.0363 21.0364 55.8036L21.2502 55.2583C21.3179 55.2638 21.3855 55.2684 21.4541 55.2684C21.7337 55.2684 22.0142 55.2107 22.2785 55.0952C22.7936 54.8716 23.1905 54.4575 23.398 53.9296C23.8264 52.8401 23.3023 51.5984 22.2307 51.1631L22.0169 51.0761C21.7878 50.9826 21.6074 50.8048 21.5109 50.5739C21.4135 50.3439 21.4108 50.0892 21.5019 49.8564C21.6904 49.3762 22.2298 49.1407 22.7034 49.3341L22.9136 49.4193H22.9154C22.9154 49.4212 22.9172 49.4211 22.9172 49.4211L24.1043 49.9022C24.4046 50.0241 24.7447 49.8766 24.8647 49.5714C24.9847 49.2663 24.8385 48.9199 24.539 48.798L23.8932 48.5369L24.0772 48.0686C24.1972 47.7634 24.051 47.4171 23.7507 47.2952C23.4503 47.1733 23.1102 47.3218 22.9893 47.626L22.7936 48.1254C21.8158 47.9137 20.7983 48.4397 20.4149 49.4147C19.9865 50.5034 20.5105 51.745 21.5822 52.1803L21.7959 52.2683C22.2686 52.4598 22.5004 53.0078 22.3119 53.4879C22.2199 53.7207 22.0449 53.903 21.8185 54.0029C21.5921 54.101 21.3422 54.1047 21.114 54.0121C21.114 54.0121 21.1122 54.0112 21.1104 54.0112C21.1086 54.0103 21.1068 54.0103 21.105 54.0084L19.7095 53.4421C19.4091 53.3202 19.0691 53.4687 18.9482 53.7738C18.8282 54.0781 18.9744 54.4245 19.2747 54.5454Z" fill="#603C93"/>
<path d="M6.07865 54.5454L6.93649 54.8936L6.75248 55.3619C6.63251 55.6661 6.77864 56.0116 7.07901 56.1335C7.15028 56.1628 7.22334 56.1775 7.2964 56.1775C7.52823 56.1775 7.74832 56.0363 7.84033 55.8036L8.05502 55.2583C8.12268 55.2638 8.19032 55.2684 8.25797 55.2684C8.53851 55.2684 8.81815 55.2107 9.08335 55.0952C9.59751 54.8716 9.99531 54.4575 10.2028 53.9296C10.6312 52.8401 10.1072 51.5984 9.03644 51.1641L8.82266 51.0761C8.59354 50.9826 8.41403 50.8048 8.31661 50.5739C8.21919 50.3439 8.21649 50.0892 8.30759 49.8564C8.49612 49.3762 9.03463 49.1407 9.5082 49.3341L9.71838 49.4193H9.72018C9.72018 49.4212 9.72198 49.4211 9.72198 49.4211L10.9091 49.9022C11.2095 50.0241 11.5495 49.8766 11.6704 49.5714C11.7904 49.2663 11.6442 48.9199 11.3439 48.798L10.698 48.5369L10.882 48.0686C11.002 47.7634 10.8558 47.4171 10.5555 47.2952C10.2551 47.1733 9.91503 47.3218 9.79506 47.626L9.59841 48.1254C8.6206 47.9137 7.60309 48.4397 7.21972 49.4147C7.01226 49.9426 7.01947 50.5217 7.23957 51.0422C7.46057 51.5654 7.8683 51.9695 8.38697 52.1794L8.60075 52.2673C9.07342 52.4589 9.30434 53.0069 9.11582 53.487C9.02381 53.7198 8.84881 53.9021 8.6215 54.002C8.39599 54.1001 8.14612 54.1037 7.91791 54.0112C7.91791 54.0112 7.9161 54.0103 7.9143 54.0103C7.91249 54.0093 7.91069 54.0094 7.90889 54.0075L6.51344 53.4412C6.21306 53.3193 5.87299 53.4678 5.75302 53.7729C5.63304 54.0781 5.77827 54.4245 6.07865 54.5454Z" fill="#603C93"/>
</svg>
