<svg width="109" height="72" viewBox="0 0 109 72" fill="none" xmlns="http://www.w3.org/2000/svg">
<path d="M94.859 0H14.1513C6.7452 0 0.71875 5.48744 0.71875 12.2325V59.4852C0.71875 66.2309 6.74499 71.7193 14.1513 71.7193H94.859C102.266 71.7193 108.292 66.2303 108.292 59.4846V12.2339C108.292 5.48899 102.266 0.00135524 94.8598 0.00135524L94.859 0ZM14.1513 3.46469H94.859C98.2697 3.46469 101.265 5.09341 102.975 7.53605L61.5824 43.1393C57.6788 46.494 51.3315 46.494 47.4294 43.1393L6.03509 7.53605C7.74677 5.09342 10.7414 3.46469 14.1513 3.46469ZM4.61657 60.6348C4.56238 60.2574 4.52486 59.8747 4.52486 59.4829V12.2322C4.52486 11.8427 4.56155 11.4592 4.61657 11.0818L33.4223 35.8579L4.61657 60.6348ZM94.8585 68.2515H14.1509C10.7401 68.2515 7.74516 66.6243 6.0353 64.1815L36.1942 38.241L44.8193 45.6571C47.4881 47.9548 50.9973 49.1043 54.5058 49.1043C58.0143 49.1043 61.5243 47.9547 64.1931 45.6571L72.8165 38.241L102.973 64.1795C101.265 66.6237 98.2687 68.2515 94.8585 68.2515ZM104.485 12.2321V59.4848C104.485 59.8781 104.447 60.2585 104.393 60.6367L75.5876 35.8606L104.393 11.0845C104.447 11.4611 104.484 11.8446 104.484 12.2333L104.485 12.2321Z" fill="#623E91"/>
</svg>
