<svg width="16" height="14" viewBox="0 0 16 14" fill="none" xmlns="http://www.w3.org/2000/svg">
<path d="M1.6 13.3499C1.16 13.3499 0.783201 13.1903 0.469601 12.8712C0.156001 12.5521 -0.000531975 12.169 1.35823e-06 11.7218V1.95328C1.35823e-06 1.50556 0.156801 1.12215 0.470401 0.80304C0.784001 0.483935 1.16053 0.324654 1.6 0.325197H14.4C14.84 0.325197 15.2168 0.484749 15.5304 0.803854C15.844 1.12296 16.0005 1.5061 16 1.95328V11.7218C16 12.1695 15.8432 12.553 15.5296 12.8721C15.216 13.1912 14.8395 13.3504 14.4 13.3499H1.6ZM8 7.65159L1.6 3.58137V11.7218H14.4V3.58137L8 7.65159ZM8 6.0235L14.4 1.95328H1.6L8 6.0235ZM1.6 3.58137V1.95328V11.7218V3.58137Z" fill="white"/>
</svg>
