<svg width="120" height="120" viewBox="0 0 120 120" fill="none" xmlns="http://www.w3.org/2000/svg">
<path d="M34.7632 35.4545H14.5495C9.183 35.4545 4.71094 40 4.71094 45.4545V75.4545C4.71094 79.0909 7.57306 82.1818 11.3296 82.1818H13.2973V116.364C13.2973 117.455 14.0128 118.182 15.0861 118.182H34.2266C35.2999 118.182 36.0154 117.455 36.0154 116.364V82H37.9831C41.5608 82 44.6018 79.0909 44.6018 75.2727V45.2727C44.6018 39.8182 40.1297 35.4545 34.7632 35.4545ZM41.0241 75.2727C41.0241 76.9091 39.7719 78.3636 37.9831 78.3636H36.0154V49.4545C36.0154 48.3636 35.2999 47.6364 34.2266 47.6364C33.1533 47.6364 32.4377 48.3636 32.4377 49.4545V80.1818V114.545H26.3557V80.1818C26.3557 79.0909 25.6402 78.3636 24.5669 78.3636C23.4936 78.3636 22.7781 79.0909 22.7781 80.1818V114.545H16.875V80.1818C16.875 80 16.875 79.8182 16.6961 79.6364V49.4545C16.6961 48.3636 15.9805 47.6364 14.9072 47.6364C13.834 47.6364 13.1184 48.3636 13.1184 49.4545V78.3636H11.3296C9.71965 78.3636 8.28859 77.0909 8.28859 75.2727V45.2727C8.28859 41.8182 11.1507 38.9091 14.5495 38.9091H34.7632C38.162 38.9091 41.0241 41.8182 41.0241 45.2727V75.2727Z" fill="#623E91"/>
<path d="M24.7477 30.5455C31.1874 30.5455 36.5539 25.0909 36.5539 18.5455C36.5539 12 31.1874 6.54545 24.7477 6.54545C18.3079 6.54545 12.9414 12 12.9414 18.5455C12.9414 25.0909 18.129 30.5455 24.7477 30.5455ZM24.7477 10.1818C29.2197 10.1818 32.9763 14 32.9763 18.5455C32.9763 23.0909 29.2197 26.9091 24.7477 26.9091C20.2756 26.9091 16.5191 23.0909 16.5191 18.5455C16.5191 14 20.0967 10.1818 24.7477 10.1818Z" fill="#623E91"/>
<path d="M100.948 30.5455C108.64 30.5455 115.08 24.1818 115.08 16.1818C115.08 8.18182 108.819 1.81818 100.948 1.81818C93.0773 1.81818 86.8164 8.18182 86.8164 16.1818C86.8164 24.1818 93.2562 30.5455 100.948 30.5455ZM100.948 5.45454C106.672 5.45454 111.502 10.1818 111.502 16.1818C111.502 22.1818 106.851 26.9091 100.948 26.9091C95.045 26.9091 90.3941 22.1818 90.3941 16.1818C90.3941 10.1818 95.2239 5.45454 100.948 5.45454Z" fill="#623E91"/>
<path d="M98.4455 21.0909C99.161 22 100.592 21.8182 101.129 20.9091L106.316 13.4545C106.853 12.7273 106.674 11.4545 105.959 10.9091C105.064 10.3636 103.991 10.5454 103.454 11.2727L99.5188 16.9091L98.6244 15.8182C97.9088 15.0909 96.8355 15.0909 96.12 15.6364C95.4045 16.3636 95.4045 17.4545 95.9411 18.1818L98.4455 21.0909Z" fill="#623E91"/>
<path d="M100.948 37.8182C93.2562 37.8182 86.8164 44.1818 86.8164 52.1818C86.8164 60.1818 93.0773 66.5454 100.948 66.5454C108.819 66.5454 115.08 60.1818 115.08 52.1818C115.08 44.1818 108.819 37.8182 100.948 37.8182ZM100.948 62.9091C95.2239 62.9091 90.3941 58.1818 90.3941 52.1818C90.3941 46.1818 95.045 41.4545 100.948 41.4545C106.851 41.4545 111.502 46.1818 111.502 52.1818C111.502 58.1818 106.851 62.9091 100.948 62.9091Z" fill="#623E91"/>
<path d="M103.454 47.4545L99.5188 53.0909L98.6244 52C97.9088 51.2727 96.8355 51.2727 96.12 51.8182C95.4045 52.5455 95.4045 53.6364 95.9411 54.3636L98.4455 57.0909C99.161 58 100.592 57.8182 101.308 56.9091L106.495 49.4545C107.032 48.5455 106.853 47.4545 106.137 46.9091C105.064 46.5455 103.991 46.7273 103.454 47.4545Z" fill="#623E91"/>
<path d="M100.948 74C93.2562 74 86.8164 80.3636 86.8164 88.3636C86.8164 96.3636 93.0773 102.727 100.948 102.727C108.819 102.727 115.08 96.3636 115.08 88.3636C115.08 80.3636 108.819 74 100.948 74ZM100.948 99.0909C95.2239 99.0909 90.3941 94.3636 90.3941 88.3636C90.3941 82.3636 95.045 77.6364 100.948 77.6364C106.851 77.6364 111.502 82.3636 111.502 88.3636C111.502 94.3636 106.851 99.0909 100.948 99.0909Z" fill="#623E91"/>
<path d="M80.0206 10.5455H54.2615C53.1882 10.5455 52.4727 11.2727 52.4727 12.3636C52.4727 13.4545 53.1882 14.1818 54.2615 14.1818H80.0206C81.0939 14.1818 81.8094 13.4545 81.8094 12.3636C81.8094 11.2727 81.0939 10.5455 80.0206 10.5455Z" fill="#623E91"/>
<path d="M54.2615 28H71.4342C72.5075 28 73.223 27.2727 73.223 26.1818C73.223 25.0909 72.5075 24.3636 71.4342 24.3636H54.2615C53.1882 24.3636 52.4727 25.0909 52.4727 26.1818C52.4727 27.2727 53.1882 28 54.2615 28Z" fill="#623E91"/>
<path d="M80.0206 43.4545H54.2615C53.1882 43.4545 52.4727 44.1818 52.4727 45.2727C52.4727 46.3636 53.1882 47.0909 54.2615 47.0909H80.0206C81.0939 47.0909 81.8094 46.3636 81.8094 45.2727C81.8094 44.1818 81.0939 43.4545 80.0206 43.4545Z" fill="#623E91"/>
<path d="M80.0206 57.2727H54.2615C53.1882 57.2727 52.4727 58 52.4727 59.0909C52.4727 60.1818 53.1882 60.9091 54.2615 60.9091H80.0206C81.0939 60.9091 81.8094 60.1818 81.8094 59.0909C81.8094 58.1818 81.0939 57.2727 80.0206 57.2727Z" fill="#623E91"/>
<path d="M80.0206 76.3636H54.2615C53.1882 76.3636 52.4727 77.0909 52.4727 78.1818C52.4727 79.2727 53.1882 80 54.2615 80H80.0206C81.0939 80 81.8094 79.2727 81.8094 78.1818C81.8094 77.0909 81.0939 76.3636 80.0206 76.3636Z" fill="#623E91"/>
<path d="M63.7423 90.1818H54.2615C53.1882 90.1818 52.4727 90.9091 52.4727 92C52.4727 93.0909 53.1882 93.8182 54.2615 93.8182H63.7423C64.8156 93.8182 65.5311 93.0909 65.5311 92C65.5311 90.9091 64.6367 90.1818 63.7423 90.1818Z" fill="#623E91"/>
</svg>
