<svg width="119" height="120" viewBox="0 0 119 120" fill="none" xmlns="http://www.w3.org/2000/svg">
<g clip-path="url(#clip0_557_104301)">
<path d="M84.5437 59.9969C84.585 56.6181 83.9135 53.2706 82.5761 50.1771C82.0919 49.2425 80.9755 48.8519 80.0272 49.2865C79.08 49.72 78.6274 50.8294 78.9954 51.8176C80.0993 54.3956 80.6498 57.1845 80.6085 59.9969C80.6104 69.178 74.4607 77.1815 65.6958 79.404C56.9319 81.6266 47.8039 77.4989 43.5612 69.3928C39.3195 61.2868 41.0518 51.2864 47.7635 45.1412C54.4753 38.996 64.4411 38.2851 71.932 43.4176C72.8332 44.0358 74.0581 43.7946 74.6663 42.8776C75.2754 41.9607 75.0371 40.7166 74.135 40.0975C65.1482 33.9377 53.1888 34.7872 45.134 42.1599C37.0781 49.5316 34.9962 61.5319 40.0843 71.2599C45.1734 80.9879 56.1249 85.9447 66.6431 83.2808C77.1613 80.6159 84.5427 71.0148 84.5437 59.9969Z" fill="#623E91"/>
<path d="M71.3395 50.5774L58.9631 63.1764L52.4896 56.5771C51.7182 55.793 50.4673 55.793 49.6958 56.5771C48.9243 57.3612 48.9243 58.6327 49.6958 59.4168L57.5662 67.4164C57.9361 67.7953 58.4386 68.0081 58.9631 68.0081C59.4877 68.0081 59.9911 67.7953 60.3601 67.4164L74.1333 53.4171C74.9048 52.633 74.9048 51.3616 74.1333 50.5774C73.3618 49.7933 72.1109 49.7933 71.3395 50.5774Z" fill="#623E91"/>
<path d="M114.866 109.174L109.318 114.814C108.579 115.565 107.578 115.987 106.533 115.987C105.489 115.987 104.487 115.565 103.749 114.814L91.2153 102.094C90.4765 101.344 90.0615 100.327 90.0615 99.2643C90.0615 98.2029 90.4765 97.1853 91.2153 96.4354L96.7838 90.7755C98.346 89.2746 100.789 89.2746 102.352 90.7755L114.866 103.514C115.637 104.299 116.888 104.299 117.66 103.514C118.431 102.73 118.431 101.459 117.66 100.674L105.126 87.9954C102.556 85.5111 98.6918 85.0239 95.6031 86.7952L86.965 77.9959C96.1007 64.3462 93.5201 45.8736 81.0084 35.3478C68.4956 24.8219 50.1589 25.6988 38.6741 37.3721C27.1894 49.0453 26.3266 67.683 36.6825 80.4001C47.0384 93.1182 65.2128 95.7411 78.6421 86.4554L87.2599 95.2147C86.5528 96.4266 86.1733 97.8064 86.1589 99.2145C86.1339 101.357 86.9727 103.416 88.4801 104.914L100.995 117.654C102.47 119.156 104.474 120 106.562 120C108.652 120 110.655 119.156 112.131 117.654L117.66 111.994C118.423 111.214 118.423 109.954 117.66 109.174C117.291 108.796 116.787 108.583 116.263 108.583C115.738 108.583 115.235 108.796 114.866 109.174ZM33.3871 59.9969C33.3631 47.7592 41.1615 36.9238 52.6433 33.2414C64.1252 29.558 76.6293 33.881 83.5217 43.9157C90.4131 53.9503 90.0941 67.3705 82.7348 77.0555C81.2755 78.9597 79.5903 80.6725 77.7178 82.1558C69.4045 88.6487 58.1849 89.7814 48.7773 85.0785C39.3697 80.3766 33.4035 70.6535 33.3871 59.9969ZM81.9672 83.7358C82.78 82.9898 83.5553 82.2017 84.2893 81.3756L84.5257 81.1354L92.6123 89.3752L89.8376 92.1954L81.7318 83.9956L81.9672 83.7358Z" fill="#623E91"/>
<path d="M27.4812 75.996H5.83755V3.99979H31.4164V21.9988C31.4164 23.1033 32.2974 23.9987 33.384 23.9987H49.1249C50.2115 23.9987 51.0925 23.1033 51.0925 21.9988V3.99979H76.6713V25.9986C76.6713 27.1031 77.5523 27.9985 78.6389 27.9985C79.7255 27.9985 80.6066 27.1031 80.6066 25.9986V1.9999C80.6066 0.895461 79.7255 0 78.6389 0H3.86995C2.78335 0 1.90234 0.895461 1.90234 1.9999V77.9959C1.90234 79.1003 2.78335 79.9958 3.86995 79.9958H27.4812C28.5678 79.9958 29.4488 79.1003 29.4488 77.9959C29.4488 76.8915 28.5678 75.996 27.4812 75.996ZM47.1573 19.999H35.3516V3.99979H47.1573V19.999Z" fill="#623E91"/>
<path d="M25.5143 49.9974C25.5143 48.8929 24.6333 47.9975 23.5467 47.9975H11.741C10.6544 47.9975 9.77344 48.8929 9.77344 49.9974C9.77344 51.1018 10.6544 51.9973 11.741 51.9973H23.5467C24.6333 51.9973 25.5143 51.1018 25.5143 49.9974Z" fill="#623E91"/>
<path d="M11.741 55.9971C10.6544 55.9971 9.77344 56.8925 9.77344 57.997C9.77344 59.1014 10.6544 59.9969 11.741 59.9969H19.6115C20.6981 59.9969 21.5791 59.1014 21.5791 57.997C21.5791 56.8925 20.6981 55.9971 19.6115 55.9971H11.741Z" fill="#623E91"/>
</g>
<defs>
<clipPath id="clip0_557_104301">
<rect width="118.062" height="120" fill="white" transform="translate(0.914062)"/>
</clipPath>
</defs>
</svg>
