<svg width="119" height="120" viewBox="0 0 119 120" fill="none" xmlns="http://www.w3.org/2000/svg">
<g clip-path="url(#clip0_557_104310)">
<path d="M40.9943 28.1768C40.6551 29.2378 40.989 30.375 41.8444 31.0741L49.462 37.2973L46.8981 46.883C46.6103 47.9592 46.9979 49.0786 47.8864 49.7353C48.7751 50.3906 49.9416 50.4195 50.8601 49.8087L59.0371 44.3681L67.2143 49.8089C67.6552 50.1021 68.153 50.2479 68.6499 50.2479C69.1886 50.2479 69.7261 50.0766 70.1875 49.7353C71.0764 49.0793 71.4643 47.9592 71.1758 46.883L68.6119 37.2975L76.229 31.0746C77.0852 30.3757 77.4191 29.2383 77.0797 28.1768C76.7404 27.1151 75.8126 26.3944 74.7161 26.3405L64.9545 25.8567L61.4855 16.5703C61.096 15.5271 60.1347 14.8528 59.0368 14.8528C57.939 14.8528 56.9777 15.5269 56.5884 16.5701L53.1192 25.857L43.3583 26.3405C42.2614 26.3944 41.3335 27.1151 40.9943 28.1768ZM53.9987 29.5676C55.0391 29.516 55.9502 28.8431 56.3193 27.8536L59.0366 20.5798L61.7539 27.8543C62.1238 28.8436 63.035 29.516 64.0746 29.5676L71.7203 29.9466L65.7535 34.8209C64.9416 35.4844 64.5938 36.573 64.8671 37.594L66.8753 45.102L60.4704 40.8403C60.0348 40.5506 59.5356 40.4058 59.0364 40.4058C58.5371 40.4058 58.0375 40.5509 57.6016 40.8405L51.1972 45.102L53.2054 37.5945C53.4789 36.5728 53.1309 35.4839 52.3188 34.8209L46.3523 29.9468L53.9987 29.5676ZM57.1919 8.75578V1.875C57.1919 0.839531 58.0179 0 59.0366 0C60.0554 0 60.8813 0.839531 60.8813 1.875V8.75578C60.8813 9.79125 60.0554 10.6308 59.0366 10.6308C58.0179 10.6308 57.1919 9.79125 57.1919 8.75578ZM68.426 19.8647C67.7444 19.0952 67.8055 17.9095 68.5625 17.2167L76.1063 10.3125C76.8636 9.61945 78.0299 9.68156 78.7118 10.4513C79.3934 11.2207 79.3323 12.4064 78.5753 13.0992L71.0312 20.0034C70.6787 20.3262 70.2373 20.4851 69.7974 20.4851C69.2931 20.4851 68.7904 20.276 68.426 19.8647ZM39.3615 10.4513C40.0431 9.68156 41.2094 9.61945 41.9669 10.3125L49.5109 17.2167C50.2679 17.9095 50.329 19.0952 49.6474 19.8647C49.2831 20.2758 48.7804 20.4851 48.2759 20.4851C47.8361 20.4851 47.3948 20.3262 47.042 20.0034L39.498 13.0992C38.7407 12.4064 38.6798 11.2207 39.3615 10.4513ZM82.7031 31.0741L90.3206 37.2973L87.7567 46.883C87.4689 47.9592 87.8565 49.0786 88.745 49.7353C89.633 50.3906 90.7998 50.4192 91.7187 49.8087L99.8957 44.3681L108.073 49.8089C108.514 50.1021 109.012 50.2479 109.509 50.2479C110.047 50.2479 110.585 50.0766 111.046 49.7353C111.935 49.0798 112.322 47.9602 112.034 46.883L109.471 37.2975L117.088 31.0746C117.944 30.3759 118.277 29.2385 117.938 28.1768C117.599 27.1151 116.671 26.3944 115.575 26.3405L105.813 25.8567L102.344 16.5703C101.955 15.5271 100.994 14.8528 99.8957 14.8528C98.7976 14.8528 97.8363 15.5269 97.4468 16.5701L93.978 25.8567L84.2171 26.3402C83.12 26.3941 82.1921 27.1151 81.8529 28.1768C81.5134 29.2383 81.8473 30.3757 82.7031 31.0741ZM94.857 29.5676C95.8977 29.516 96.809 28.8431 97.1784 27.8534L99.8955 20.5795L102.612 27.8531C102.982 28.8431 103.893 29.516 104.933 29.5673L112.579 29.9463L106.613 34.8202C105.801 35.4834 105.452 36.5723 105.726 37.5938L107.734 45.1017L101.329 40.8401C100.893 40.5504 100.394 40.4055 99.895 40.4055C99.3955 40.4055 98.8961 40.5506 98.4605 40.8403L92.0561 45.1017L94.0643 37.5942C94.3375 36.573 93.9898 35.4844 93.1777 34.8206L87.2111 29.9463L94.857 29.5676ZM0.98537 31.0741L8.60294 37.2973L6.039 46.883C5.75122 47.9592 6.13884 49.0786 7.02731 49.7353C7.91601 50.3906 9.08257 50.4195 10.001 49.8087L18.178 44.3681L26.3552 49.8089C26.7961 50.1021 27.2939 50.2479 27.7909 50.2479C28.3295 50.2479 28.867 50.0766 29.3284 49.7353C30.2169 49.0798 30.6048 47.9602 30.3168 46.883L27.7528 37.2975L35.3699 31.0746C36.2254 30.3764 36.5595 29.2392 36.2203 28.1756C35.8804 27.1146 34.9526 26.3941 33.857 26.3402L24.0954 25.8565L20.6266 16.5703C20.2372 15.5271 19.2758 14.8528 18.178 14.8528C17.0799 14.8528 16.1186 15.5269 15.7291 16.5701L12.2603 25.8567L2.49943 26.3402C1.40251 26.3941 0.474611 27.1151 0.135642 28.1756C-0.204479 29.2376 0.129186 30.3755 0.98537 31.0741ZM13.1394 29.5676C14.18 29.516 15.0913 28.8431 15.4607 27.8534L18.1778 20.5795L20.8946 27.8531C21.2642 28.8431 22.1755 29.516 23.2157 29.5673L30.8614 29.9463L24.8953 34.8202C24.083 35.4834 23.7348 36.5723 24.0082 37.5938L26.0165 45.1017L19.6116 40.8401C19.1758 40.5504 18.6765 40.4055 18.1773 40.4055C17.6778 40.4055 17.1784 40.5506 16.7428 40.8403L10.3384 45.1017L12.3466 37.5942C12.6198 36.573 12.2721 35.4844 11.46 34.8206L5.49342 29.9463L13.1394 29.5676ZM117.778 99.5937C116.48 95.3332 113.821 91.5077 110.291 88.8213C108.602 87.5353 106.762 86.5336 104.82 85.8244C107.512 83.6775 109.246 80.3447 109.246 76.6057C109.246 70.1449 104.074 64.8888 97.718 64.8888C91.3615 64.8888 86.1901 70.1449 86.1901 76.6057C86.1901 80.3402 87.92 83.6698 90.6059 85.8169C87.0061 87.1228 83.817 89.4173 81.3749 92.5092C80.2334 90.8862 78.9168 89.3787 77.4366 88.0181C74.4541 85.2766 70.954 83.2634 67.1845 82.0734C71.1818 79.38 73.8244 74.7682 73.8244 69.5391C73.8244 61.2516 67.1905 54.5091 59.0368 54.5091C50.8831 54.5091 44.2493 61.2516 44.2493 69.5391C44.2493 74.7682 46.8916 79.38 50.8889 82.0734C47.1192 83.2631 43.6191 85.2766 40.6366 88.0181C39.1565 89.3787 37.8398 90.8862 36.6986 92.509C34.2566 89.4169 31.0676 87.1223 27.4676 85.8162C30.1533 83.6691 31.8834 80.3395 31.8834 76.605C31.8834 70.1442 26.7119 64.8881 20.3557 64.8881C13.9992 64.8881 8.82776 70.1442 8.82776 76.605C8.82776 80.3438 10.5618 83.6768 13.2528 85.8237C11.3117 86.5329 9.47157 87.5346 7.78157 88.8206C4.25192 91.5068 1.59344 95.3325 0.295442 99.5927C-0.304325 101.561 0.0279564 103.558 1.23095 105.217C2.43371 106.875 4.21249 107.788 6.23938 107.788H31.7411V111.172C31.7411 116.04 35.6374 120 40.4268 120H77.6464C82.4356 120 86.3321 116.04 86.3323 111.172V107.789H111.834C113.861 107.789 115.64 106.876 116.842 105.217C118.045 103.559 118.377 101.561 117.778 99.5937ZM97.718 68.6388C102.04 68.6388 105.556 72.2128 105.556 76.6057C105.556 80.9988 102.04 84.5728 97.718 84.5728C93.3958 84.5728 89.8795 80.9988 89.8795 76.6057C89.8795 72.2128 93.3958 68.6388 97.718 68.6388ZM47.9387 69.5391C47.9387 63.3192 52.9174 58.2591 59.0368 58.2591C65.1563 58.2591 70.1349 63.3192 70.1349 69.5391C70.1349 75.757 65.1595 80.8158 59.0428 80.8191C59.0408 80.8191 59.0385 80.8191 59.0366 80.8191C59.0348 80.8191 59.0327 80.8191 59.0306 80.8191C52.914 80.8155 47.9387 75.7568 47.9387 69.5391ZM20.3557 68.6379C24.6777 68.6379 28.1939 72.2119 28.1939 76.6048C28.1939 80.9979 24.6777 84.5719 20.3557 84.5719C16.0335 84.5719 12.5172 80.9979 12.5172 76.6048C12.5172 72.2119 16.0335 68.6379 20.3557 68.6379ZM31.9807 104.038H6.23961C5.39058 104.038 4.7048 103.686 4.20096 102.991C3.69689 102.296 3.56891 101.526 3.82002 100.702C6.07612 93.297 12.7215 88.3219 20.3557 88.3219C26.1304 88.3219 31.3908 91.1578 34.6263 95.9585C33.3472 98.4841 32.4513 101.206 31.9807 104.038ZM82.6429 111.172C82.6426 113.972 80.4013 116.25 77.6464 116.25H40.4268C37.6719 116.25 35.4306 113.972 35.4306 111.172V106.015C36.7661 93.7833 46.8946 84.5721 59.0306 84.5691C59.0327 84.5691 59.0348 84.5693 59.0368 84.5693C59.0389 84.5693 59.041 84.5691 59.0428 84.5691C71.1786 84.5723 81.3068 93.7833 82.6429 106.015V111.172ZM113.872 102.992C113.369 103.687 112.683 104.039 111.834 104.039H86.093C85.6221 101.207 84.7263 98.4848 83.4474 95.959C86.6831 91.1585 91.9433 88.3228 97.7178 88.3228C105.352 88.3228 111.997 93.2981 114.253 100.703C114.505 101.527 114.376 102.297 113.872 102.992Z" fill="#623E91"/>
</g>
<defs>
<clipPath id="clip0_557_104310">
<rect width="118.062" height="120" fill="white" transform="translate(0.00390625)"/>
</clipPath>
</defs>
</svg>
