<svg width="78" height="78" viewBox="0 0 78 78" fill="none" xmlns="http://www.w3.org/2000/svg">
<g clip-path="url(#clip0_657_16542)">
<path d="M78 25.8984V19.8048C78 18.9636 77.318 18.2814 76.4766 18.2814H65.0511V15.2342C65.8925 15.2342 66.5745 14.552 66.5745 13.7108C66.5745 12.8695 65.8925 12.1873 65.0511 12.1873H55.7578V7.61734C55.7578 6.7761 55.0758 6.0939 54.2344 6.0939H40.5234V5.20147L43.1241 2.60081C43.719 2.00591 43.719 1.04127 43.1241 0.446215C42.5292 -0.148535 41.5646 -0.148535 40.9695 0.446215L39 2.41571L37.0303 0.446063C36.4354 -0.148688 35.4708 -0.148688 34.8757 0.446063C34.2808 1.04096 34.2808 2.00561 34.8757 2.60066L37.4766 5.20132V6.09375H23.7656C22.9242 6.09375 22.2422 6.77595 22.2422 7.61719V12.1872H12.9489C12.1075 12.1872 11.4255 12.8694 11.4255 13.7106C11.4255 14.5519 12.1075 15.2341 12.9489 15.2341V18.2812L1.52344 18.2814C0.682043 18.2814 0 18.9636 0 19.8048V25.8984C0 26.7397 0.682043 27.4219 1.52344 27.4219H4.57046V27.422V74.953V74.9531H1.52344C0.682043 74.9531 0 75.6353 0 76.4766C0 77.3178 0.682043 78 1.52344 78H76.4766C77.318 78 78 77.3178 78 76.4766C78 75.6353 77.318 74.9531 76.4766 74.9531H73.4295V74.953V27.422V27.4219H76.4766C77.318 27.4219 78 26.7397 78 25.8984ZM62.0042 15.2342V18.2812L55.7578 18.2814V15.2342H62.0042ZM15.9958 18.2812V15.2342H22.2422V18.2812H15.9958ZM63.5278 74.9531H55.9102V74.953V39.6095V39.6094H63.5276V39.6095L63.5278 74.9531ZM22.0898 74.9531H14.4722V74.953V39.6095V39.6094H22.0898V39.6095V74.9531ZM28.9447 74.9531H25.1367V74.953V39.6095V39.6094H28.9447V39.6095V74.9531ZM46.0084 74.9531H31.9916V74.953V39.6095V39.6094H46.0084V39.6095V74.9531ZM52.8633 74.9531H49.0553V74.953V39.6095V39.6094H52.8633V39.6095V74.9531ZM7.61734 36.5625V33.5155H70.3827V36.5625H7.61734ZM63.5276 30.4686H49.0551V27.422V27.4219H63.5276V27.422V30.4686ZM46.0084 27.422V30.4686H31.9916V27.422V27.4219L46.0084 27.422C46.0084 27.4219 46.0084 27.4219 46.0084 27.422ZM28.9447 27.422V30.4686H14.4724V27.422V27.4219L28.9447 27.422C28.9447 27.4219 28.9447 27.4219 28.9447 27.422ZM11.4255 27.422V30.4686H7.61734V27.422V27.4219L11.4255 27.422C11.4255 27.4219 11.4255 27.4219 11.4255 27.422ZM7.61734 74.953V39.6094H11.4253V39.6095V74.953V74.9531L7.61734 74.953ZM66.5745 74.9531V39.6095V39.6094H70.3825V74.953V74.9531H66.5745ZM70.3827 27.422V30.4686H66.5747V27.422V27.4219L70.3827 27.422C70.3827 27.4219 70.3827 27.4219 70.3827 27.422ZM74.9531 24.375H3.04688V21.3283H32.1441C32.9855 21.3283 33.6675 20.6461 33.6675 19.8048C33.6675 18.9636 32.9855 18.2814 32.1441 18.2814H25.2891V9.14078H52.7109V18.2812L45.855 18.2814C45.0136 18.2814 44.3316 18.9636 44.3316 19.8048C44.3316 20.6461 45.0136 21.3283 45.855 21.3283H74.9531V24.375Z" fill="#623E91"/>
<path d="M39 18.2815H38.9989C38.1575 18.2815 37.4761 18.9637 37.4761 19.8049C37.4761 20.6462 38.1586 21.3284 39 21.3284C39.8414 21.3284 40.5234 20.6462 40.5234 19.8049C40.5234 18.9637 39.8414 18.2815 39 18.2815Z" fill="#623E91"/>
</g>
<defs>
<clipPath id="clip0_657_16542">
<rect width="78" height="78" fill="white"/>
</clipPath>
</defs>
</svg>
