<svg width="970" height="853" viewBox="0 0 970 853" fill="none" xmlns="http://www.w3.org/2000/svg">
<g clip-path="url(#clip0_459_11541)">
<path d="M537.405 328.056L25.2968 615.952C9.67101 624.736 0 641.268 0 659.193V802.968C0 830.365 22.2095 852.575 49.6063 852.575H977.857C1004.18 852.575 1025.93 832.007 1027.39 805.72L1037.96 615.459C1039 596.622 1029.27 578.822 1012.85 569.532L586.141 328.122C571.027 319.571 552.542 319.546 537.405 328.056Z" fill="#603C93"/>
<g style="mix-blend-mode:multiply" opacity="0.36" filter="url(#filter0_d_459_11541)">
<path d="M863.5 850C887.524 850 907 846.866 907 843C907 839.134 887.524 836 863.5 836C839.476 836 820 839.134 820 843C820 846.866 839.476 850 863.5 850Z" fill="#385E96"/>
</g>
<g filter="url(#filter1_d_459_11541)">
<path d="M820.338 800.352H809.836L810.96 785.695L813.026 758.753H817.142L819.214 785.695L820.338 800.352Z" fill="#24173A"/>
<g style="mix-blend-mode:multiply" opacity="0.36">
<path d="M819.215 785.695C817.863 785.839 816.489 785.911 815.094 785.911C813.698 785.911 812.318 785.839 810.967 785.695L813.038 758.753H817.154L819.226 785.695H819.215Z" fill="#4859C4"/>
</g>
<path d="M853.995 741.853C853.995 762.597 837.184 780.666 815.088 780.666C789.143 780.666 770.47 755.74 777.765 730.846L779.322 725.54L807.25 630.238C809.538 622.411 820.633 622.411 822.926 630.238L850.849 725.545L852.406 730.846C853.491 734.547 854.001 738.241 854.001 741.853H853.995Z" fill="#4859C4"/>
<g style="mix-blend-mode:multiply" opacity="0.36">
<path d="M850.85 725.545C844.989 739.166 831.496 749.131 815.089 749.131C798.682 749.131 785.183 739.161 779.322 725.54L807.251 630.238C809.539 622.411 820.634 622.411 822.927 630.238L850.85 725.545Z" fill="#4859C4"/>
</g>
<path d="M852.404 683.592L822.925 582.983C820.632 575.156 809.542 575.156 807.249 582.983L777.769 683.592C770.474 708.49 789.141 733.417 815.087 733.417C841.032 733.417 859.7 708.49 852.404 683.592Z" fill="#4859C4"/>
<path d="M815.087 800.895C817.987 800.895 820.338 800.652 820.338 800.352C820.338 800.052 817.987 799.809 815.087 799.809C812.187 799.809 809.836 800.052 809.836 800.352C809.836 800.652 812.187 800.895 815.087 800.895Z" fill="#24173A"/>
</g>
<g style="mix-blend-mode:multiply" opacity="0.36" filter="url(#filter2_d_459_11541)">
<path d="M192 850C216.301 850 236 846.866 236 843C236 839.134 216.301 836 192 836C167.699 836 148 839.134 148 843C148 846.866 167.699 850 192 850Z" fill="#385E96"/>
</g>
<g filter="url(#filter3_d_459_11541)">
<path d="M226.166 800.352H215.664L216.789 785.695L218.855 758.753H222.97L225.042 785.695L226.166 800.352Z" fill="#24173A"/>
<g style="mix-blend-mode:multiply" opacity="0.36">
<path d="M225.043 785.695C223.691 785.839 222.318 785.911 220.922 785.911C219.526 785.911 218.146 785.839 216.795 785.695L218.867 758.753H222.982L225.054 785.695H225.043Z" fill="#4859C4"/>
</g>
<path d="M259.824 741.853C259.824 762.597 243.012 780.666 220.916 780.666C194.971 780.666 176.298 755.74 183.593 730.846L185.15 725.54L213.078 630.238C215.366 622.411 226.461 622.411 228.754 630.238L256.677 725.545L258.234 730.846C259.32 734.547 259.829 738.241 259.829 741.853H259.824Z" fill="#4859C4"/>
<g style="mix-blend-mode:multiply" opacity="0.36">
<path d="M256.678 725.545C250.823 739.166 237.324 749.131 220.917 749.131C204.51 749.131 191.011 739.161 185.15 725.54L213.079 630.238C215.367 622.411 226.462 622.411 228.755 630.238L256.678 725.545Z" fill="#4859C4"/>
</g>
<path d="M258.233 683.592L228.753 582.983C226.46 575.156 215.37 575.156 213.077 582.983L183.597 683.592C176.302 708.49 194.969 733.417 220.915 733.417C246.861 733.417 265.528 708.49 258.233 683.592Z" fill="#4859C4"/>
<path d="M220.915 800.895C223.815 800.895 226.166 800.652 226.166 800.352C226.166 800.052 223.815 799.809 220.915 799.809C218.015 799.809 215.664 800.052 215.664 800.352C215.664 800.652 218.015 800.895 220.915 800.895Z" fill="#24173A"/>
</g>
<g filter="url(#filter4_d_459_11541)">
<path d="M643.347 200.719C664.366 179.7 664.366 145.62 643.347 124.6C622.327 103.581 588.247 103.581 567.228 124.6C546.208 145.62 546.208 179.7 567.228 200.719C588.247 221.739 622.327 221.739 643.347 200.719Z" fill="#D3E3FF"/>
<path d="M629.333 149.303L595.367 136.995L617.607 97.4622L637.587 104.702L629.333 149.303Z" fill="#D3E3FF"/>
<path d="M581.232 176.008L615.193 188.316L592.958 227.855L572.979 220.615L581.232 176.008Z" fill="#D3E3FF"/>
<path d="M618.639 186.709L630.947 152.743L670.48 174.983L663.24 194.963L618.639 186.709Z" fill="#D3E3FF"/>
<path d="M591.929 138.607L579.621 172.568L540.088 150.334L547.328 130.354L591.929 138.607Z" fill="#D3E3FF"/>
<path d="M612.851 136.209L580.131 151.519L567.9 107.842L587.144 98.8302L612.851 136.209Z" fill="#D3E3FF"/>
<path d="M597.717 189.108L630.437 173.792L642.667 217.474L623.424 226.481L597.717 189.108Z" fill="#D3E3FF"/>
<path d="M631.734 170.22L616.418 137.505L660.1 125.275L669.107 144.518L631.734 170.22Z" fill="#D3E3FF"/>
<path d="M578.834 155.092L594.15 187.812L550.468 200.043L541.461 180.8L578.834 155.092Z" fill="#D3E3FF"/>
<path d="M612.941 179.015C621.977 174.786 625.873 164.034 621.645 154.998C617.416 145.963 606.663 142.066 597.628 146.295C588.592 150.523 584.696 161.276 588.924 170.312C593.153 179.347 603.906 183.244 612.941 179.015Z" fill="#6BA7FF"/>
</g>
<g filter="url(#filter5_d_459_11541)">
<path d="M686.06 120.208C704.352 115.204 715.124 96.3191 710.12 78.0272C705.116 59.7353 686.231 48.9634 667.939 53.9675C649.647 58.9716 638.875 77.8567 643.879 96.1486C648.883 114.441 667.768 125.212 686.06 120.208Z" fill="#D3E3FF"/>
<path d="M688.658 73.9593L665.615 73.7211L670.656 45.2275L684.21 45.366L688.658 73.9593Z" fill="#D3E3FF"/>
<path d="M665.338 100.187L688.381 100.426L683.34 128.919L669.786 128.781L665.338 100.187Z" fill="#D3E3FF"/>
<path d="M690.115 98.7307L690.353 75.6876L718.847 80.7283L718.703 94.2827L690.115 98.7307Z" fill="#D3E3FF"/>
<path d="M663.882 75.4163L663.644 98.4593L635.15 93.4186L635.294 79.8642L663.882 75.4163Z" fill="#D3E3FF"/>
<path d="M675.971 69.5557L659.508 85.6802L642.924 61.9725L652.606 52.4839L675.971 69.5557Z" fill="#D3E3FF"/>
<path d="M678.031 104.591L694.494 88.4663L711.078 112.18L701.396 121.663L678.031 104.591Z" fill="#D3E3FF"/>
<path d="M694.515 86.0457L678.391 69.5832L702.104 52.9989L711.587 62.6814L694.515 86.0457Z" fill="#D3E3FF"/>
<path d="M659.484 88.1062L675.608 104.569L651.895 121.153L642.412 111.465L659.484 88.1062Z" fill="#D3E3FF"/>
<path d="M699.376 91.4807C701.813 79.1177 693.766 67.1201 681.403 64.6833C669.04 62.2466 657.042 70.2935 654.605 82.6565C652.169 95.0196 660.216 107.017 672.579 109.454C684.942 111.891 696.939 103.844 699.376 91.4807Z" fill="#6BA7FF"/>
</g>
<g filter="url(#filter6_d_459_11541)">
<path d="M539.85 103.123L542.575 70.1594L539.545 54.0016H510.498H481.456L478.426 70.1594L481.151 103.123L498.865 119.237L509.844 122.538L497.868 121.048L488.108 113.238L487.266 130.265L502.189 145.947L520.557 146.124L531.657 130.265L530.322 111.692L539.85 103.123Z" fill="#D8AF93"/>
<path d="M474.575 30.5542L533.13 32.0387L539.085 36.9077L544.452 37.7551L547.826 59.7734L540.896 90.4661L540.763 68.6971L538.287 70.5028L535.113 57.1645L507.644 62.3325L482.12 58.2224L481.92 68.6971H480.231L480.104 90.4661L473.584 57.026L475.966 36.0602L474.575 30.5542Z" fill="#040A19"/>
<path d="M536.055 130.609L531.656 130.265L519.642 143.033L503.307 143.731L487.265 130.265L484.762 130.609L443.367 151.369L444.553 316.714L579.166 314.992L561.618 142.252L536.055 130.609Z" fill="#C1D0F7"/>
<path d="M519.149 143.022L522.129 149.087L515.731 155.324L511.887 156.15L515.986 156.51L524.494 282.504L510.53 304.268L494.793 282.615L505.146 155.568L499.889 148.328L503.307 143.731L519.149 143.022Z" fill="black"/>
<path d="M517.204 314.992H447.516L453.393 412.26L460.699 714.467H488.855L511.809 483.66L504.026 388.962L517.204 314.992Z" fill="#061435"/>
<path d="M509.972 314.992H577.284L573.783 412.26L566.477 714.467H538.504L504.028 388.962L453.395 314.992H509.972Z" fill="#061435"/>
<path d="M484.763 130.609L436.102 141.803L441.652 315.003L438.904 381.274C438.904 381.274 461.56 418.187 486.242 348.62C489.904 338.306 490.341 302.589 490.341 302.589L484.758 130.603L484.763 130.609Z" fill="url(#paint0_linear_459_11541)"/>
<path d="M484.762 130.609L464.699 149.253L479.561 160.332L473.019 179.403L490.346 302.589L484.762 130.609Z" fill="#12275B"/>
<path d="M536.057 130.609L583.223 141.803L590.906 156.571L609.329 237.077L579.168 315.003L585.15 381.274C585.15 381.274 559.26 418.187 534.578 348.62C530.916 338.306 530.479 302.589 530.479 302.589L536.062 130.603L536.057 130.609Z" fill="url(#paint1_linear_459_11541)"/>
<path d="M536.054 130.609L556.117 149.253L541.261 160.332L547.797 179.403L530.471 302.589L536.054 130.609Z" fill="#12275B"/>
<path d="M436.1 141.803L381.207 214.616L328.014 178.212L314.432 194.813L381.14 253.102L438.033 208.567L436.1 141.803Z" fill="url(#paint2_linear_459_11541)"/>
<path d="M283.789 165.411L278.587 158.199C278.36 157.884 278.449 157.446 278.776 157.241L279.03 157.08C280.399 156.222 282.182 156.471 283.262 157.668L287.827 162.725L297.349 169.693L283.789 165.411Z" fill="#D8AF93"/>
<g style="mix-blend-mode:multiply" opacity="0.45">
<path d="M285.815 161.351L288.756 164.425L297.353 169.688L295.176 171.078L288.524 165.079L280.453 160.775L282.613 160.338C283.782 160.099 284.995 160.482 285.821 161.346L285.815 161.351Z" fill="#D8AF93"/>
</g>
<path d="M285.257 168.674L278.46 162.941C278.161 162.692 278.139 162.243 278.411 161.96L278.616 161.744C279.734 160.581 281.524 160.387 282.864 161.285L288.52 165.079L285.257 168.668V168.674Z" fill="#D8AF93"/>
<g style="mix-blend-mode:multiply" opacity="0.45">
<path d="M280.844 161.24L283.973 167.588L285.259 168.674L281.907 160.847L280.844 161.24Z" fill="#D8AF93"/>
</g>
<path d="M320.38 172.568L314.237 168.923C313.772 168.668 313.257 168.508 312.73 168.447L307.535 167.821C307.108 167.771 306.67 167.804 306.255 167.921L302.782 168.912L300.494 166.879C299.785 166.253 298.794 166.054 297.902 166.359L297.52 166.492C296.672 166.785 296.279 167.754 296.683 168.558L296.861 168.912L307.235 174.811L320.391 172.568H320.38Z" fill="#D8AF93"/>
<g style="mix-blend-mode:multiply" opacity="0.45">
<path d="M320.378 172.568L314.235 168.923C313.77 168.669 313.255 168.508 312.729 168.447L307.533 167.821C307.107 167.771 306.669 167.805 306.254 167.921L302.78 168.912L301.65 167.904L301.451 167.849C300.061 167.439 298.554 167.694 297.374 168.541L296.854 168.912L307.228 174.812L320.384 172.568H320.378Z" fill="#D8AF93"/>
</g>
<path d="M328.016 178.213L320.383 172.568L308.097 169.688H297.351L288.522 165.079L286.123 161.85C285.01 160.349 282.888 160.044 281.393 161.163C281.188 161.318 281.127 161.601 281.26 161.822L285.254 168.669L292.355 176.401L305.405 182.157L316.151 183.309L320.638 187.208L328.005 178.202L328.016 178.213Z" fill="#D8AF93"/>
<path d="M566.477 714.467L576.713 731.129V737.383H540.62L539.623 731.982L543.728 714.467H566.477Z" fill="#020711"/>
<path d="M460.703 714.467L450.467 731.129V737.383H486.56L487.552 731.982L483.447 714.467H460.703Z" fill="#020711"/>
</g>
<g filter="url(#filter7_d_459_11541)">
<path d="M601.448 788.937C601.448 787.241 562.399 784.594 514.224 784.594C466.049 784.594 427 787.241 427 788.937V793.882C427 795.578 466.049 799.196 514.224 799.196C562.399 799.196 601.448 795.578 601.448 793.882V788.937Z" fill="#164A7D"/>
<path d="M589.239 773.315H439.206C439.206 773.315 431.633 778.91 430.525 789.557C430.525 791.253 467.997 793.901 514.226 793.901C560.454 793.901 597.926 791.253 597.926 789.557C596.812 778.91 589.245 773.315 589.245 773.315H589.239Z" fill="#1C5AA1"/>
<g style="mix-blend-mode:multiply" opacity="0.36">
<path d="M589.236 773.315H439.204C439.204 773.315 438.259 774.016 436.988 775.387C446.327 776.682 477.333 779.48 514.223 779.48C551.113 779.48 582.02 776.695 591.471 775.405C590.194 774.022 589.243 773.315 589.243 773.315H589.236Z" fill="#1C5AA1"/>
</g>
<path d="M581.414 757.067H447.135C447.135 757.067 440.356 762.662 439.361 773.296C439.361 774.992 472.903 777.64 514.274 777.64C555.646 777.64 589.187 774.992 589.187 773.296C588.192 762.656 581.414 757.067 581.414 757.067Z" fill="#1C5AA1"/>
<path d="M581.413 757.067C581.413 758.763 551.352 760.134 514.274 760.134C477.196 760.134 447.135 758.757 447.135 757.067C447.135 755.377 477.196 754 514.274 754C551.352 754 581.413 755.371 581.413 757.067Z" fill="#456EAF"/>
</g>
<g filter="url(#filter8_d_459_11541)">
<path d="M330.498 384.907L453.623 754.715C453.623 756.216 480.228 757.429 513.042 757.429C545.856 757.429 572.461 756.21 572.461 754.715L695.586 384.907H330.498Z" fill="url(#paint3_linear_459_11541)"/>
</g>
<g filter="url(#filter9_d_459_11541)">
<path d="M324.012 90.1725H285.199V121.065H324.012V90.1725Z" fill="#071935"/>
<path d="M326.078 90.1725H283.138C281.939 90.1725 280.967 91.1446 280.967 92.3439V96.4706C280.967 97.6698 281.939 98.6419 283.138 98.6419H326.078C327.277 98.6419 328.249 97.6698 328.249 96.4706V92.3439C328.249 91.1446 327.277 90.1725 326.078 90.1725Z" fill="#0B1E44"/>
<path d="M326.078 101.384H283.138C281.939 101.384 280.967 102.356 280.967 103.555V107.682C280.967 108.881 281.939 109.853 283.138 109.853H326.078C327.277 109.853 328.249 108.881 328.249 107.682V103.555C328.249 102.356 327.277 101.384 326.078 101.384Z" fill="#0B1E44"/>
<path d="M326.078 112.595H283.138C281.939 112.595 280.967 113.567 280.967 114.766V118.893C280.967 120.092 281.939 121.064 283.138 121.064H326.078C327.277 121.064 328.249 120.092 328.249 118.893V114.766C328.249 113.567 327.277 112.595 326.078 112.595Z" fill="#0B1E44"/>
<path d="M320.084 121.065C320.084 129.612 313.154 136.541 304.607 136.541C296.06 136.541 289.131 129.612 289.131 121.065H320.084Z" fill="#071935"/>
<path d="M340.7 36.0934C340.7 16.1578 324.543 0 304.607 0C284.672 0 268.514 16.1578 268.514 36.0934C268.514 42.89 270.397 49.2489 273.66 54.6773L278.606 63.9112C282.932 71.9873 285.198 81.0107 285.198 90.1725H324.011V89.613C324.011 79.72 326.653 70.0043 331.66 61.4684L335.549 54.838H335.455C338.784 49.3764 340.7 42.9564 340.7 36.0934Z" fill="#FFF734"/>
</g>
<g filter="url(#filter10_d_459_11541)">
<path d="M497.084 793.827L495.871 796.031L493.101 799.2L492.586 800.895L506.716 800.856V798.657L505.863 795.223L505.514 792.907L497.084 793.827Z" fill="#020711"/>
<path d="M544.09 792.907L550.997 796.901L556.287 798.485L557.273 800.895L543.375 800.873L539.459 799.77L539.171 800.867L535.438 800.856V799.183L535.72 793.954L544.09 792.907Z" fill="#020711"/>
<path d="M531.34 575.151H513.438L514.706 589.314L514.878 593.701L513.958 597.485L519.353 600.631L523.092 600.47L526.959 597.485L526.161 594.111L524.189 593.768L528.332 589.026L531.34 575.151Z" fill="#D8AF93"/>
<path d="M498.227 683.669L496.178 793.921L505.517 792.907L519.614 711.62L516.44 690.87L534.603 794.098L544.092 792.907L542.447 685.054L513.942 671.699L498.227 683.669Z" fill="#080E32"/>
<path d="M499.4 661.484L495.318 601.689L512.949 597.424H527.883L542.628 596.842L544.616 613.255L541.858 661.518L545.281 684.295L533.577 690.089L516.704 688.322L514.19 672.458L514.976 688.322L497.694 690.715L492.398 687.502L499.4 661.484Z" fill="#08153F"/>
<path d="M495.317 601.689L480.367 644.651L497.644 670.596L500.358 661.063L493.423 644.424L497.483 633.379L495.317 601.689Z" fill="#08153F"/>
<path d="M526.823 566.36L513.662 567.789L511.435 570.531L508.992 569.578L508.111 575.86L511.213 587.082L514.066 593.701L527.161 593.795L531.337 586.428L533.337 576.253L533.248 571.766L526.823 566.36Z" fill="#050D21"/>
<path d="M544.617 613.255L564.525 601.096L569.655 567.407L563.329 561.823L553.835 593.092L542.629 596.842L544.617 613.255Z" fill="#08153F"/>
<path d="M563.566 562.023L564.237 559.718L563.788 556.755L564.497 553.531L566.414 551.714L568.186 545.915L569.388 546.364L568.585 551.493L569.859 551.864L570.557 552.811L572.102 553.886L572.811 556.373L571.809 559.43L569.311 562.305L568.092 566.022L563.566 562.023Z" fill="#D8AF93"/>
</g>
<g filter="url(#filter11_d_459_11541)">
<path d="M366.774 578.596L344.916 579.411L347.06 597.219L347.447 602.742L346.428 606.757L353.358 610.513L358.066 610.164L362.824 606.253L361.583 601.949L365.671 594.078L366.774 583.781V578.596Z" fill="#D8AF93"/>
<path d="M382.595 682.234L376.452 795.007L384.439 798.596L381.182 798.696L372.94 796.58L366.592 754.875L368.198 748.882L362.26 713.077L351.697 749.702L351.481 754.698L340.131 796.004L332.31 799.726L330.914 799.122L336.309 795.456L338.968 754.947L341.211 748.356L345.172 675.039L382.595 682.234Z" fill="#D8AF93"/>
<path d="M372.653 794.697L375.705 797.2L381.028 798.696L384.279 798.596L385.465 799.183L386.667 800.895H379.2L373.971 798.757L373.351 800.895H372.32L372.653 794.697Z" fill="#080E32"/>
<path d="M353.48 664.359L380.295 669.35L382.594 682.234L381.857 726.338L337.682 728.26L336.314 686.045L335.389 682.755L339.571 670.94L353.48 664.359Z" fill="#080E32"/>
<path d="M338.265 660.753L329.436 621.597L330.676 613.98L341.012 606.89L357.414 606.419L377.333 613.98L374.934 638.968L378.828 660.914L384.368 681.935L367.418 686.732L352.434 685.968L353.891 673.748L350.346 685.968L342.253 686.361L332.997 684.467L338.265 660.753Z" fill="#08153F"/>
<path d="M377.333 613.981L387.652 643.577L386.65 649.958L382.263 652.179L378.435 651.005L372.143 633.744L377.333 613.981Z" fill="#08153F"/>
<path d="M367.678 582.623L363.718 587.675L363.878 590.888L366.305 621.597L338.326 623.137L338.592 582.739L343.417 571.789L353.149 567.678L364.682 570.598L368.277 575.622L367.678 582.623Z" fill="#050D21"/>
<path d="M340.485 794.796L339.898 800.895H339.15L338.43 798.17L335.589 800.895H330.027L330.936 798.679L331.379 798.912L334.204 796.896L335.855 794.863L336.852 794.486L340.485 794.796Z" fill="#080E32"/>
</g>
<g filter="url(#filter12_d_459_11541)">
<path d="M630.541 568.603L653.651 569.462L650.803 586.921L650.393 592.76L650.183 595.612L644.145 599.645L639.166 599.279L635.499 596.266L635.454 591.923L631.704 584.972L630.541 574.082V568.603Z" fill="#D8AF93"/>
<path d="M619.679 675.46L626.176 794.674L617.734 798.463L621.174 798.568L629.887 796.331L636.601 752.244L634.9 745.913L641.176 708.063L652.343 746.777L652.576 752.061L664.568 795.727L672.833 799.66L674.312 799.023L668.606 795.145L665.798 752.327L663.427 745.353L659.24 667.854L619.679 675.46Z" fill="#D8AF93"/>
<path d="M630.193 794.342L626.969 796.99L621.341 798.568L617.901 798.463L616.649 799.083L615.381 800.895H623.274L628.802 798.635L629.456 800.895H630.547L630.193 794.342Z" fill="#080E32"/>
<path d="M644.01 656.566L615.666 661.839L613.234 675.46L618.907 721.939L666.278 721.95L662.162 679.487L663.137 676.014L658.717 663.517L644.01 656.566Z" fill="#080E32"/>
<path d="M660.103 652.755L671.58 636.829L668.118 603.306L657.195 595.812L637.879 595.258L618.802 603.306L621.339 629.728L617.224 652.921L611.363 675.144L629.283 680.212L645.125 679.404L643.585 666.486L647.329 679.404L655.887 679.825L665.67 677.819L660.103 652.755Z" fill="#08153F"/>
<path d="M618.803 603.306L608.611 636.619L616.012 657.518L629.212 645.393L624.293 624.206L618.803 603.306Z" fill="#08153F"/>
<path d="M664.252 794.453L664.872 800.895H665.664L666.429 798.014L669.431 800.895H675.314L674.35 798.552L673.885 798.795L670.893 796.663L669.149 794.514L668.096 794.12L664.252 794.453Z" fill="#080E32"/>
<path d="M650.395 592.76H638.409L633.041 584.418L632.476 578.818L630.737 575.876L629.967 573.317L630.543 568.609C630.543 568.609 634.913 560.3 645.006 561.253C655.591 562.255 657.685 574.741 657.574 577.649C657.22 587.093 650.39 592.76 650.39 592.76H650.395Z" fill="#050D21"/>
<path d="M656.226 582.185C660.243 582.185 663.499 578.929 663.499 574.912C663.499 570.896 660.243 567.64 656.226 567.64C652.209 567.64 648.953 570.896 648.953 574.912C648.953 578.929 652.209 582.185 656.226 582.185Z" fill="#050D21"/>
</g>
<g filter="url(#filter13_d_459_11541)">
<path d="M384.338 793.268L383.031 795.649L380.04 799.067L379.48 800.895L394.735 800.856V798.485L393.81 794.774L393.439 792.276L384.338 793.268Z" fill="#030D1E"/>
<path d="M422.853 792.276L430.309 796.586L436.02 798.292L437.083 800.895L422.083 800.873L417.857 799.682L417.546 800.862L413.52 800.856V799.045L413.824 793.406L422.853 792.276Z" fill="#030D1E"/>
<path d="M388.647 675.521L384.338 793.268L394.735 792.149L406.378 722.156L406.55 697.695L411.352 793.716L422.852 792.276L430.391 677.067L403.487 662.177L388.647 675.521Z" fill="#051328"/>
<path d="M415.514 572.686L398.248 576.668L400.148 592.455L400.491 597.357L399.589 600.913L405.731 604.243L409.908 603.938L413.187 600.47L412.246 597.213L409.753 597.263L413.808 595.961L415.364 594.366L416.76 588.268L418.034 587.841L416.815 583.36L417.159 581.161L415.514 572.686Z" fill="#D8AF93"/>
<path d="M414.781 567.678L408.14 566.488L395.87 569.407L394.602 571.434L392.253 572.703L392.037 578.43L394.757 590.666L401.337 597.634L410.051 596.87L412.05 590.068L412.227 585.232L413.147 583.288L416.914 578.535L418.033 571.933L414.781 567.678Z" fill="#050D21"/>
<path d="M399.587 600.914L381.756 606.818L378.084 640.026L387.678 662.991L388.376 668.597L386.57 684.262L403.243 686.721L403.93 675.333L406.445 686.915L419.523 687.53L433.675 683.891L434.611 666.126L430.551 656.328L424.547 647.038L421.727 632.498L425.189 646.734L430.939 653.392L434.362 627.385L428.18 607.367L413.186 600.47L399.587 600.914Z" fill="#0B1E44"/>
</g>
<g filter="url(#filter14_d_459_11541)">
<path d="M724.728 793.384L726.013 795.727L728.955 799.095L729.509 800.895L714.486 800.856V798.519L715.395 794.868L715.766 792.409L724.728 793.384Z" fill="#020711"/>
<path d="M686.805 792.409L679.46 796.652L673.838 798.336L672.791 800.895L687.559 800.873L691.718 799.699L692.023 800.862L695.995 800.856V799.078L695.696 793.522L686.805 792.409Z" fill="#020711"/>
<path d="M720.485 672.712L724.728 793.384L714.11 792.248L702.749 719.413L702.477 702.724L696.667 793.644L686.807 792.409L679.379 674.291L705.873 659.036L720.485 672.712Z" fill="#050D1C"/>
<path d="M693.256 570.088L712.377 574.414L710.499 589.99L710.161 594.826L711.053 598.338L704.993 601.623L700.872 601.318L696.707 597.895L697.798 594.134L695.472 590.816L693.788 584.518L693.256 578.236V570.088Z" fill="#D8AF93"/>
<path d="M719.379 654.522L729.51 606.879L711.053 598.31L696.707 597.895L676.068 606.879L684.87 639.683L679.724 659.585L673.559 669.5L676.528 679.554L682.25 682.921L704.578 680.872L702.678 670.159L706.395 680.872L718.393 682.506L726.347 679.554L719.379 654.522Z" fill="#0A1B52"/>
<path d="M676.067 606.879L672.555 637.871L675.175 659.923L679.252 659.036L684.868 639.682L688.557 613.626L676.067 606.879Z" fill="#0A1B52"/>
<path d="M691.758 564.854L713.937 566.704L715.305 568.631L717.687 569.745L718.23 575.372L716.247 587.581L710.159 594.826L698.593 594.571L696.815 587.088L697.358 582.645L694.926 581.233L692.76 576.408L692.633 570.088L691.758 564.854Z" fill="#050D21"/>
<path d="M729.509 606.879L732.522 638.442L720.823 658.244L719.76 654.389L722.773 638.541L729.509 606.879Z" fill="#0A1B52"/>
<path d="M675.76 659.795L676.048 662.471L675.533 666.315L679.51 659.923L679.25 659.036L675.76 659.795Z" fill="#D8AF93"/>
</g>
</g>
<defs>
<filter id="filter0_d_459_11541" x="795" y="815" width="137" height="64" filterUnits="userSpaceOnUse" color-interpolation-filters="sRGB">
<feFlood flood-opacity="0" result="BackgroundImageFix"/>
<feColorMatrix in="SourceAlpha" type="matrix" values="0 0 0 0 0 0 0 0 0 0 0 0 0 0 0 0 0 0 127 0" result="hardAlpha"/>
<feOffset dy="4"/>
<feGaussianBlur stdDeviation="12.5"/>
<feComposite in2="hardAlpha" operator="out"/>
<feColorMatrix type="matrix" values="0 0 0 0 0 0 0 0 0 0 0 0 0 0 0 0 0 0 0.25 0"/>
<feBlend mode="normal" in2="BackgroundImageFix" result="effect1_dropShadow_459_11541"/>
<feBlend mode="normal" in="SourceGraphic" in2="effect1_dropShadow_459_11541" result="shape"/>
</filter>
<filter id="filter1_d_459_11541" x="751.172" y="556.113" width="127.83" height="273.782" filterUnits="userSpaceOnUse" color-interpolation-filters="sRGB">
<feFlood flood-opacity="0" result="BackgroundImageFix"/>
<feColorMatrix in="SourceAlpha" type="matrix" values="0 0 0 0 0 0 0 0 0 0 0 0 0 0 0 0 0 0 127 0" result="hardAlpha"/>
<feOffset dy="4"/>
<feGaussianBlur stdDeviation="12.5"/>
<feComposite in2="hardAlpha" operator="out"/>
<feColorMatrix type="matrix" values="0 0 0 0 0 0 0 0 0 0 0 0 0 0 0 0 0 0 0.25 0"/>
<feBlend mode="normal" in2="BackgroundImageFix" result="effect1_dropShadow_459_11541"/>
<feBlend mode="normal" in="SourceGraphic" in2="effect1_dropShadow_459_11541" result="shape"/>
</filter>
<filter id="filter2_d_459_11541" x="123" y="815" width="138" height="64" filterUnits="userSpaceOnUse" color-interpolation-filters="sRGB">
<feFlood flood-opacity="0" result="BackgroundImageFix"/>
<feColorMatrix in="SourceAlpha" type="matrix" values="0 0 0 0 0 0 0 0 0 0 0 0 0 0 0 0 0 0 127 0" result="hardAlpha"/>
<feOffset dy="4"/>
<feGaussianBlur stdDeviation="12.5"/>
<feComposite in2="hardAlpha" operator="out"/>
<feColorMatrix type="matrix" values="0 0 0 0 0 0 0 0 0 0 0 0 0 0 0 0 0 0 0.25 0"/>
<feBlend mode="normal" in2="BackgroundImageFix" result="effect1_dropShadow_459_11541"/>
<feBlend mode="normal" in="SourceGraphic" in2="effect1_dropShadow_459_11541" result="shape"/>
</filter>
<filter id="filter3_d_459_11541" x="157" y="556.113" width="127.83" height="273.782" filterUnits="userSpaceOnUse" color-interpolation-filters="sRGB">
<feFlood flood-opacity="0" result="BackgroundImageFix"/>
<feColorMatrix in="SourceAlpha" type="matrix" values="0 0 0 0 0 0 0 0 0 0 0 0 0 0 0 0 0 0 127 0" result="hardAlpha"/>
<feOffset dy="4"/>
<feGaussianBlur stdDeviation="12.5"/>
<feComposite in2="hardAlpha" operator="out"/>
<feColorMatrix type="matrix" values="0 0 0 0 0 0 0 0 0 0 0 0 0 0 0 0 0 0 0.25 0"/>
<feBlend mode="normal" in2="BackgroundImageFix" result="effect1_dropShadow_459_11541"/>
<feBlend mode="normal" in="SourceGraphic" in2="effect1_dropShadow_459_11541" result="shape"/>
</filter>
<filter id="filter4_d_459_11541" x="515.088" y="76.4622" width="180.393" height="180.392" filterUnits="userSpaceOnUse" color-interpolation-filters="sRGB">
<feFlood flood-opacity="0" result="BackgroundImageFix"/>
<feColorMatrix in="SourceAlpha" type="matrix" values="0 0 0 0 0 0 0 0 0 0 0 0 0 0 0 0 0 0 127 0" result="hardAlpha"/>
<feOffset dy="4"/>
<feGaussianBlur stdDeviation="12.5"/>
<feComposite in2="hardAlpha" operator="out"/>
<feColorMatrix type="matrix" values="0 0 0 0 0 0 0 0 0 0 0 0 0 0 0 0 0 0 0.25 0"/>
<feBlend mode="normal" in2="BackgroundImageFix" result="effect1_dropShadow_459_11541"/>
<feBlend mode="normal" in="SourceGraphic" in2="effect1_dropShadow_459_11541" result="shape"/>
</filter>
<filter id="filter5_d_459_11541" x="610.15" y="24.2275" width="133.697" height="133.692" filterUnits="userSpaceOnUse" color-interpolation-filters="sRGB">
<feFlood flood-opacity="0" result="BackgroundImageFix"/>
<feColorMatrix in="SourceAlpha" type="matrix" values="0 0 0 0 0 0 0 0 0 0 0 0 0 0 0 0 0 0 127 0" result="hardAlpha"/>
<feOffset dy="4"/>
<feGaussianBlur stdDeviation="12.5"/>
<feComposite in2="hardAlpha" operator="out"/>
<feColorMatrix type="matrix" values="0 0 0 0 0 0 0 0 0 0 0 0 0 0 0 0 0 0 0.25 0"/>
<feBlend mode="normal" in2="BackgroundImageFix" result="effect1_dropShadow_459_11541"/>
<feBlend mode="normal" in="SourceGraphic" in2="effect1_dropShadow_459_11541" result="shape"/>
</filter>
<filter id="filter6_d_459_11541" x="253.221" y="9.5542" width="381.107" height="756.828" filterUnits="userSpaceOnUse" color-interpolation-filters="sRGB">
<feFlood flood-opacity="0" result="BackgroundImageFix"/>
<feColorMatrix in="SourceAlpha" type="matrix" values="0 0 0 0 0 0 0 0 0 0 0 0 0 0 0 0 0 0 127 0" result="hardAlpha"/>
<feOffset dy="4"/>
<feGaussianBlur stdDeviation="12.5"/>
<feComposite in2="hardAlpha" operator="out"/>
<feColorMatrix type="matrix" values="0 0 0 0 0 0 0 0 0 0 0 0 0 0 0 0 0 0 0.25 0"/>
<feBlend mode="normal" in2="BackgroundImageFix" result="effect1_dropShadow_459_11541"/>
<feBlend mode="normal" in="SourceGraphic" in2="effect1_dropShadow_459_11541" result="shape"/>
</filter>
<filter id="filter7_d_459_11541" x="402" y="733" width="224.449" height="95.1958" filterUnits="userSpaceOnUse" color-interpolation-filters="sRGB">
<feFlood flood-opacity="0" result="BackgroundImageFix"/>
<feColorMatrix in="SourceAlpha" type="matrix" values="0 0 0 0 0 0 0 0 0 0 0 0 0 0 0 0 0 0 127 0" result="hardAlpha"/>
<feOffset dy="4"/>
<feGaussianBlur stdDeviation="12.5"/>
<feComposite in2="hardAlpha" operator="out"/>
<feColorMatrix type="matrix" values="0 0 0 0 0 0 0 0 0 0 0 0 0 0 0 0 0 0 0.25 0"/>
<feBlend mode="normal" in2="BackgroundImageFix" result="effect1_dropShadow_459_11541"/>
<feBlend mode="normal" in="SourceGraphic" in2="effect1_dropShadow_459_11541" result="shape"/>
</filter>
<filter id="filter8_d_459_11541" x="305.498" y="363.907" width="415.088" height="422.522" filterUnits="userSpaceOnUse" color-interpolation-filters="sRGB">
<feFlood flood-opacity="0" result="BackgroundImageFix"/>
<feColorMatrix in="SourceAlpha" type="matrix" values="0 0 0 0 0 0 0 0 0 0 0 0 0 0 0 0 0 0 127 0" result="hardAlpha"/>
<feOffset dy="4"/>
<feGaussianBlur stdDeviation="12.5"/>
<feComposite in2="hardAlpha" operator="out"/>
<feColorMatrix type="matrix" values="0 0 0 0 0 0 0 0 0 0 0 0 0 0 0 0 0 0 0.25 0"/>
<feBlend mode="normal" in2="BackgroundImageFix" result="effect1_dropShadow_459_11541"/>
<feBlend mode="normal" in="SourceGraphic" in2="effect1_dropShadow_459_11541" result="shape"/>
</filter>
<filter id="filter9_d_459_11541" x="243.514" y="-21" width="122.188" height="186.541" filterUnits="userSpaceOnUse" color-interpolation-filters="sRGB">
<feFlood flood-opacity="0" result="BackgroundImageFix"/>
<feColorMatrix in="SourceAlpha" type="matrix" values="0 0 0 0 0 0 0 0 0 0 0 0 0 0 0 0 0 0 127 0" result="hardAlpha"/>
<feOffset dy="4"/>
<feGaussianBlur stdDeviation="12.5"/>
<feComposite in2="hardAlpha" operator="out"/>
<feColorMatrix type="matrix" values="0 0 0 0 0 0 0 0 0 0 0 0 0 0 0 0 0 0 0.25 0"/>
<feBlend mode="normal" in2="BackgroundImageFix" result="effect1_dropShadow_459_11541"/>
<feBlend mode="normal" in="SourceGraphic" in2="effect1_dropShadow_459_11541" result="shape"/>
</filter>
<filter id="filter10_d_459_11541" x="455.367" y="524.915" width="142.443" height="304.98" filterUnits="userSpaceOnUse" color-interpolation-filters="sRGB">
<feFlood flood-opacity="0" result="BackgroundImageFix"/>
<feColorMatrix in="SourceAlpha" type="matrix" values="0 0 0 0 0 0 0 0 0 0 0 0 0 0 0 0 0 0 127 0" result="hardAlpha"/>
<feOffset dy="4"/>
<feGaussianBlur stdDeviation="12.5"/>
<feComposite in2="hardAlpha" operator="out"/>
<feColorMatrix type="matrix" values="0 0 0 0 0 0 0 0 0 0 0 0 0 0 0 0 0 0 0.25 0"/>
<feBlend mode="normal" in2="BackgroundImageFix" result="effect1_dropShadow_459_11541"/>
<feBlend mode="normal" in="SourceGraphic" in2="effect1_dropShadow_459_11541" result="shape"/>
</filter>
<filter id="filter11_d_459_11541" x="304.436" y="546.678" width="108.217" height="283.217" filterUnits="userSpaceOnUse" color-interpolation-filters="sRGB">
<feFlood flood-opacity="0" result="BackgroundImageFix"/>
<feColorMatrix in="SourceAlpha" type="matrix" values="0 0 0 0 0 0 0 0 0 0 0 0 0 0 0 0 0 0 127 0" result="hardAlpha"/>
<feOffset dy="4"/>
<feGaussianBlur stdDeviation="12.5"/>
<feComposite in2="hardAlpha" operator="out"/>
<feColorMatrix type="matrix" values="0 0 0 0 0 0 0 0 0 0 0 0 0 0 0 0 0 0 0.25 0"/>
<feBlend mode="normal" in2="BackgroundImageFix" result="effect1_dropShadow_459_11541"/>
<feBlend mode="normal" in="SourceGraphic" in2="effect1_dropShadow_459_11541" result="shape"/>
</filter>
<filter id="filter12_d_459_11541" x="583.611" y="540.177" width="116.703" height="289.718" filterUnits="userSpaceOnUse" color-interpolation-filters="sRGB">
<feFlood flood-opacity="0" result="BackgroundImageFix"/>
<feColorMatrix in="SourceAlpha" type="matrix" values="0 0 0 0 0 0 0 0 0 0 0 0 0 0 0 0 0 0 127 0" result="hardAlpha"/>
<feOffset dy="4"/>
<feGaussianBlur stdDeviation="12.5"/>
<feComposite in2="hardAlpha" operator="out"/>
<feColorMatrix type="matrix" values="0 0 0 0 0 0 0 0 0 0 0 0 0 0 0 0 0 0 0.25 0"/>
<feBlend mode="normal" in2="BackgroundImageFix" result="effect1_dropShadow_459_11541"/>
<feBlend mode="normal" in="SourceGraphic" in2="effect1_dropShadow_459_11541" result="shape"/>
</filter>
<filter id="filter13_d_459_11541" x="353.084" y="545.488" width="109" height="284.407" filterUnits="userSpaceOnUse" color-interpolation-filters="sRGB">
<feFlood flood-opacity="0" result="BackgroundImageFix"/>
<feColorMatrix in="SourceAlpha" type="matrix" values="0 0 0 0 0 0 0 0 0 0 0 0 0 0 0 0 0 0 127 0" result="hardAlpha"/>
<feOffset dy="4"/>
<feGaussianBlur stdDeviation="12.5"/>
<feComposite in2="hardAlpha" operator="out"/>
<feColorMatrix type="matrix" values="0 0 0 0 0 0 0 0 0 0 0 0 0 0 0 0 0 0 0.25 0"/>
<feBlend mode="normal" in2="BackgroundImageFix" result="effect1_dropShadow_459_11541"/>
<feBlend mode="normal" in="SourceGraphic" in2="effect1_dropShadow_459_11541" result="shape"/>
</filter>
<filter id="filter14_d_459_11541" x="647.555" y="543.854" width="109.967" height="286.042" filterUnits="userSpaceOnUse" color-interpolation-filters="sRGB">
<feFlood flood-opacity="0" result="BackgroundImageFix"/>
<feColorMatrix in="SourceAlpha" type="matrix" values="0 0 0 0 0 0 0 0 0 0 0 0 0 0 0 0 0 0 127 0" result="hardAlpha"/>
<feOffset dy="4"/>
<feGaussianBlur stdDeviation="12.5"/>
<feComposite in2="hardAlpha" operator="out"/>
<feColorMatrix type="matrix" values="0 0 0 0 0 0 0 0 0 0 0 0 0 0 0 0 0 0 0.25 0"/>
<feBlend mode="normal" in2="BackgroundImageFix" result="effect1_dropShadow_459_11541"/>
<feBlend mode="normal" in="SourceGraphic" in2="effect1_dropShadow_459_11541" result="shape"/>
</filter>
<linearGradient id="paint0_linear_459_11541" x1="463.221" y1="130.603" x2="463.221" y2="391.058" gradientUnits="userSpaceOnUse">
<stop stop-color="#6499FF"/>
<stop offset="1" stop-color="#966CFF"/>
</linearGradient>
<linearGradient id="paint1_linear_459_11541" x1="569.904" y1="130.603" x2="569.904" y2="391.058" gradientUnits="userSpaceOnUse">
<stop stop-color="#6499FF"/>
<stop offset="1" stop-color="#966CFF"/>
</linearGradient>
<linearGradient id="paint2_linear_459_11541" x1="376.232" y1="141.803" x2="376.232" y2="253.102" gradientUnits="userSpaceOnUse">
<stop stop-color="#6499FF"/>
<stop offset="1" stop-color="#966CFF"/>
</linearGradient>
<linearGradient id="paint3_linear_459_11541" x1="513.042" y1="384.907" x2="513.042" y2="757.429" gradientUnits="userSpaceOnUse">
<stop stop-color="#7CB8E5" stop-opacity="0"/>
<stop offset="1" stop-color="#7CB8E5"/>
</linearGradient>
<clipPath id="clip0_459_11541">
<rect width="1039.67" height="852.575" fill="white"/>
</clipPath>
</defs>
</svg>
