<svg width="591" height="469" viewBox="0 0 591 469" fill="none" xmlns="http://www.w3.org/2000/svg">
<g style="mix-blend-mode:multiply" opacity="0.6">
<path d="M590.909 293.319C591.012 291.73 591.661 279.485 587.605 277.37C587.049 277.079 586.381 276.861 585.666 276.696C586.348 275.55 582.499 273.534 579.089 273.924C578.989 273.14 578.901 272.543 578.901 272.543L578.956 270.516L578.934 270.007C579.498 269.72 579.882 269.134 579.874 268.46C579.87 267.944 579.638 267.483 579.277 267.17C579.277 267.17 579.834 263.805 578.794 262.56C577.754 261.314 571.829 259.173 571.118 259.804C570.406 260.437 571.129 261.189 571.129 261.189C571.129 261.189 568.751 260.448 568.231 262.556C567.988 263.536 568.969 264.248 570.392 264.624L570.451 271.651C570.451 271.651 570.373 273.954 572.39 274.223L572.346 274.621C572.346 274.621 568.972 275.122 569.016 277.414H569.024C565.503 278.63 563.471 280.572 562.34 282.153C560.799 284.305 560.54 286.218 560.522 286.365L559.998 289.081L552.392 273.74C552.374 273.707 550.674 270.486 547.047 269.082C546.958 269.049 546.862 269.093 546.829 269.178C546.829 269.182 546.829 269.186 546.825 269.193C546.781 269.182 546.741 269.171 546.696 269.163L537.247 266.842L537.549 264.2L537.571 263.993C537.715 263.923 537.855 263.846 537.992 263.761C538.018 263.747 538.04 263.732 538.062 263.717C539.127 263.054 539.876 261.985 540.13 260.758C540.171 260.566 540.211 260.367 540.255 260.161C540.37 260.209 540.495 260.246 540.624 260.268C541.45 260.389 542.22 259.822 542.346 258.993C542.471 258.164 541.9 257.397 541.07 257.272C540.996 257.261 540.926 257.257 540.856 257.257C540.915 256.973 540.971 256.693 541.03 256.413C541.763 256.052 544.141 250.226 542.128 249.323C540.115 248.421 535.573 249.685 534.873 249.751L534.744 249.744C534.113 249.589 533.254 249.441 532.565 249.556C531.252 249.773 530.799 252.625 531.046 253.359C531.293 254.092 531.271 255.827 531.271 255.827C531.193 255.802 531.116 255.783 531.035 255.772C530.209 255.651 529.438 256.218 529.313 257.047C529.188 257.873 529.759 258.643 530.589 258.768C530.729 258.79 530.865 258.79 530.998 258.772C530.979 258.985 530.961 259.192 530.942 259.387C530.832 260.614 531.219 261.834 532.012 262.77L531.919 263.201L531.429 265.486C527.569 264.819 523.735 264.999 519.922 265.965C518.96 265.173 518.116 265.01 518.116 265.01C513.039 262.317 503.542 262.545 503.542 262.545C503.306 262.519 503.052 262.497 502.786 262.479C504.629 261.466 504.165 258.035 504.165 258.035C504.099 257.991 503.984 257.957 503.837 257.935V253.193C504.183 253.034 504.511 252.828 504.803 252.566C507.254 250.355 506.499 249.294 505.78 248.185C505.426 247.639 503.737 246.527 501.662 247.455C500.53 247.96 499.693 246.453 498.373 247.212C497.101 247.942 495.608 249.191 495.659 249.744C494.996 249.832 493.742 250.2 493.303 251.719C492.695 253.826 493.514 254.928 493.532 255.555C493.55 256.141 493.185 259.859 495.53 260.106C495.501 260.334 495.372 261.3 495.265 262.328C489.318 262.446 482.7 263.065 480.801 264.366C480.595 264.506 480.447 264.653 480.359 264.811L475.168 270.026C474.843 269.595 474.523 269.263 474.213 269.042C473.889 268.813 473.498 268.611 473.055 268.43L473.066 268.419C473.03 268.382 472.325 267.818 469.638 267.391C469.619 267.38 469.597 267.376 469.579 267.38C468.049 267.14 465.884 266.945 462.858 266.912V266.945H462.854C463.134 264.41 463.764 257.567 462.633 255.466C461.372 253.123 458.249 252.717 457.648 252.658C456.509 252.316 454.946 252.375 453.91 252.828C452.324 253.524 451.675 255.967 451.41 257.751C451.31 258.226 451.2 259.059 451.089 260.028C451.023 260.146 450.89 260.423 450.964 260.721C450.975 260.758 450.986 260.795 451.001 260.832C450.731 263.415 450.496 266.484 450.496 266.484L450.798 266.606C448.424 266.621 445.998 266.735 444.117 267.063C443.074 267.148 442.123 267.255 441.33 267.391C441.33 267.391 437.466 267.542 434.384 270.807C433.687 270.269 432.858 269.768 431.892 269.396C431.803 269.362 431.707 269.407 431.674 269.491C431.674 269.495 431.674 269.499 431.671 269.506C431.626 269.495 431.586 269.484 431.542 269.477L422.092 267.155L422.531 263.341C424.039 262.372 424.614 260.404 424.614 260.404C424.643 260.342 424.673 260.279 424.702 260.213C424.913 260.397 425.178 260.53 425.477 260.574C426.302 260.695 427.073 260.128 427.198 259.299C427.32 258.473 426.752 257.703 425.923 257.578C425.86 257.567 425.801 257.563 425.738 257.563C426.056 256.94 426.73 252.504 426.502 251.896C425.399 248.973 418.357 248.859 417.045 250.602C416.669 251.103 416.142 255.256 416.223 256.174C416.116 256.13 416.001 256.1 415.883 256.082C415.058 255.96 414.287 256.528 414.162 257.357C414.04 258.182 414.608 258.952 415.437 259.078C415.677 259.114 415.909 259.089 416.123 259.019C416.123 259.019 416.094 260.872 417.041 262.258L416.282 265.795C411.883 265.036 407.525 265.375 403.19 266.72C402.305 266.997 397.788 270.597 393.434 274.182C390.717 273.527 386.617 273.368 386.411 273.361C386.352 273.357 386.308 273.401 386.304 273.456C384.055 273.305 381.817 273.217 380.143 273.165C380.143 273.165 378.893 273.088 377.463 273.044V269.923C378.731 269.9 379.262 269.138 379.262 269.138C379.741 268.508 379.819 266.901 379.76 265.302C380.121 265.055 380.361 264.642 380.361 264.17C380.361 263.629 380.044 263.164 379.586 262.943C379.553 262.608 379.516 262.309 379.487 262.059C379.623 262 379.767 261.926 379.915 261.83C381.467 260.835 380.25 259.431 380.25 259.431C380.25 259.431 381.072 258.19 380.103 257.055C379.133 255.92 377.916 256.528 377.916 256.528C377.916 256.528 377.555 255.393 375.852 255.411C374.148 255.433 374.019 256.443 374.019 256.443C374.019 256.443 373.662 255.643 372.482 255.75C372.028 255.791 371.601 256.019 371.254 256.329C370.79 256.041 370.244 255.879 369.658 255.879C367.977 255.879 366.612 257.242 366.612 258.923C366.612 260.003 367.177 260.95 368.021 261.491C367.538 261.93 366.546 263.083 367.656 264.465C367.656 264.465 367.612 267.454 369.51 268.135C369.798 268.239 370.074 268.312 370.325 268.349C370.321 268.397 370.318 268.441 370.318 268.489C370.318 269.296 370.959 269.952 371.763 269.978V272.878C371.678 272.878 371.593 272.878 371.509 272.882C366.904 268.375 361.517 268.998 361.462 269.005C361.41 269.012 361.37 269.042 361.34 269.082C358.206 268.832 354.999 268.773 354.804 268.765C354.778 268.788 354.752 268.821 354.726 268.861C354.634 268.858 354.542 268.85 354.446 268.847L354.262 267.258C354.217 267.269 354.173 267.28 354.125 267.288C354.004 266.098 353.849 264.97 353.849 264.97L353.919 262.987V262.855C353.978 262.862 354.04 262.866 354.103 262.866C355.032 262.866 355.784 262.11 355.784 261.174C355.784 260.493 355.382 259.903 354.8 259.638C355.585 255.603 353.539 254.541 353.539 254.541C352.639 253.65 349.52 253.141 347.293 254.482C344.941 255.628 345.457 257.884 345.609 258.263C345.612 258.728 345.638 259.236 345.638 259.236V262.869C345.491 262.892 345.38 262.925 345.314 262.965C345.314 262.965 344.746 267.162 347.378 267.605L347.345 267.866C347.275 267.866 347.234 267.866 347.234 267.866L347.069 268.824C346.943 268.832 346.836 268.843 346.752 268.854L346.759 268.567L346.571 268.581C346.224 268.607 338.017 269.281 335.595 272.097C335.536 272.163 335.543 272.263 335.602 272.325C335.013 272.889 334.471 273.574 334.135 274.378C332.955 273.983 331.54 273.759 330.19 273.913C330.091 273.129 330.002 272.532 330.002 272.532L330.057 270.505L330.035 269.996C330.599 269.709 330.983 269.123 330.976 268.449C330.972 267.933 330.74 267.472 330.378 267.159C330.378 267.159 330.747 264.926 330.323 263.426C329.987 261.635 328.948 259.277 325.862 258.632C323.816 258.204 324.671 259.365 325.593 260.345C324.018 259.804 322.551 259.494 322.219 259.789C321.508 260.423 322.23 261.174 322.23 261.174C322.23 261.174 319.852 260.434 319.332 262.542C319.089 263.522 320.07 264.233 321.493 264.609L321.552 271.636C321.552 271.636 321.475 273.939 323.491 274.208L323.447 274.606C323.447 274.606 320.073 275.107 320.118 277.399H320.125C316.604 278.615 314.573 280.557 313.441 282.138C311.9 284.29 311.642 286.203 311.623 286.35L310.613 291.598C310.237 287.979 309.393 280.989 308.36 279.588C308.309 279.518 308.209 279.504 308.139 279.555C306.266 277.259 301.101 277.208 301.101 277.208C299.247 277.094 297.171 277.053 295.224 277.042C295.058 276.57 294.848 276.077 294.586 275.649C294.557 275.601 294.502 275.586 294.454 275.605C294.166 274.735 294.144 273.792 294.406 272.904C295.158 270.332 294.693 266.016 294.192 264.369C293.447 261.915 289.063 259.999 284.886 263.08C280.713 266.16 283.161 275.922 283.659 277.116C283.666 277.13 283.67 277.145 283.677 277.164C276.919 277.355 275.5 278.479 275.452 278.531L275.463 278.542C275.053 278.708 274.692 278.896 274.394 279.106C273.885 279.459 273.391 280.159 272.911 281.11L267.886 273.339C263.185 268.316 257.43 268.979 257.371 268.987C257.32 268.994 257.279 269.023 257.25 269.064C254.116 268.813 250.908 268.754 250.713 268.747C250.687 268.769 250.661 268.802 250.635 268.843C250.543 268.839 250.451 268.832 250.355 268.828L250.171 267.24C250.127 267.251 250.082 267.262 250.035 267.269C249.913 266.079 249.758 264.952 249.758 264.952L249.828 262.969V262.836C249.887 262.844 249.95 262.847 250.012 262.847C250.941 262.847 251.694 262.092 251.694 261.156C251.694 260.474 251.292 259.885 250.709 259.619C251.443 255.846 249.703 254.674 249.47 254.538C250.879 253.557 250.525 252.161 248.799 251.487C247.351 250.919 247.28 252.909 247.31 253.701C246.034 253.532 244.471 253.694 243.199 254.46C240.847 255.606 241.363 257.862 241.514 258.241C241.518 258.705 241.544 259.214 241.544 259.214V262.847C241.396 262.869 241.286 262.903 241.219 262.943C241.219 262.943 240.652 267.14 243.284 267.583L243.251 267.844C243.181 267.844 243.14 267.844 243.14 267.844L242.974 268.802C242.849 268.81 242.742 268.821 242.657 268.832L242.665 268.544L242.477 268.559C242.13 268.585 233.923 269.259 231.501 272.075C231.442 272.141 231.449 272.24 231.508 272.303C231.191 272.605 230.889 272.944 230.623 273.316C230.236 273.265 229.831 273.224 229.414 273.199C229.359 273.199 229.311 273.235 229.303 273.291C226.896 273.014 223.994 272.918 221.344 272.907C220.99 272.907 220.09 272.856 219.242 272.841V269.941C220.042 269.915 220.687 269.259 220.687 268.452C220.687 268.404 220.687 268.356 220.68 268.312C220.931 268.275 221.207 268.205 221.495 268.099C223.393 267.413 223.349 264.428 223.349 264.428C224.459 263.05 223.467 261.893 222.984 261.454C223.832 260.913 224.393 259.966 224.393 258.886C224.393 257.206 223.028 255.842 221.347 255.842C220.761 255.842 220.215 256.008 219.751 256.292C219.404 255.982 218.977 255.754 218.523 255.713C217.343 255.606 216.986 256.406 216.986 256.406C216.986 256.406 216.86 255.396 215.153 255.374C213.45 255.352 213.089 256.491 213.089 256.491C213.089 256.491 211.868 255.879 210.902 257.018C209.933 258.153 210.755 259.395 210.755 259.395C210.755 259.395 209.542 260.799 211.09 261.793C211.242 261.889 211.382 261.963 211.518 262.022C211.489 262.273 211.452 262.575 211.419 262.906C210.961 263.127 210.644 263.595 210.644 264.133C210.644 264.605 210.884 265.018 211.245 265.265C211.186 266.864 211.264 268.471 211.743 269.101C211.743 269.101 212.274 269.86 213.542 269.886V273.007C212.112 273.055 210.862 273.129 210.862 273.129C209.188 273.176 206.954 273.265 204.701 273.42C204.697 273.364 204.653 273.316 204.594 273.324C204.388 273.331 200.288 273.486 197.571 274.146C193.217 270.56 188.7 266.956 187.815 266.683C183.48 265.335 179.122 264.996 174.723 265.758L173.964 262.221C174.911 260.835 174.882 258.986 174.882 258.986C175.096 259.052 175.328 259.074 175.568 259.041C176.394 258.919 176.965 258.145 176.843 257.32C176.722 256.494 175.947 255.923 175.122 256.045C175.004 256.063 174.889 256.096 174.782 256.137C174.863 255.219 174.336 251.066 173.96 250.565C172.644 248.822 165.606 248.936 164.503 251.859C164.275 252.467 164.95 256.9 165.267 257.526C165.204 257.526 165.145 257.534 165.082 257.541C164.257 257.663 163.685 258.436 163.807 259.262C163.928 260.087 164.703 260.658 165.528 260.537C165.827 260.493 166.092 260.364 166.303 260.176C166.332 260.242 166.362 260.305 166.391 260.367C166.391 260.367 166.963 262.331 168.474 263.304L168.913 267.118L159.464 269.44C159.423 269.447 159.379 269.458 159.335 269.469C159.335 269.466 159.335 269.462 159.331 269.455C159.298 269.366 159.198 269.326 159.113 269.359C158.147 269.731 157.318 270.236 156.621 270.77C153.539 267.502 149.675 267.354 149.675 267.354C148.882 267.218 147.931 267.107 146.888 267.026C145.007 266.702 142.581 266.584 140.207 266.569L140.51 266.448C140.51 266.448 140.274 263.378 140.004 260.795C140.019 260.758 140.034 260.721 140.041 260.684C140.115 260.382 139.982 260.106 139.916 259.992C139.805 259.022 139.695 258.186 139.595 257.714C139.33 255.931 138.685 253.487 137.095 252.791C136.056 252.334 134.496 252.275 133.357 252.622C132.756 252.68 129.633 253.086 128.372 255.429C127.241 257.53 127.871 264.377 128.151 266.908V266.875C125.117 266.908 122.956 267.104 121.426 267.343C121.404 267.339 121.386 267.343 121.367 267.354C118.68 267.782 117.972 268.345 117.939 268.382L117.95 268.393C117.507 268.574 117.116 268.777 116.792 269.005C116.479 269.222 116.158 269.558 115.837 269.989L110.646 264.775C110.558 264.616 110.406 264.469 110.204 264.329C108.301 263.028 101.687 262.413 95.7402 262.291C95.637 261.263 95.5042 260.297 95.4748 260.069C97.8196 259.826 97.4546 256.104 97.473 255.518C97.4951 254.891 98.31 253.786 97.7016 251.682C97.2629 250.164 96.013 249.795 95.3457 249.707C95.3973 249.154 93.9042 247.905 92.6322 247.175C91.3123 246.416 90.4753 247.923 89.3435 247.418C87.2715 246.493 85.5793 247.603 85.2253 248.148C84.5064 249.253 83.7542 250.318 86.2023 252.529C86.4936 252.795 86.8217 253.001 87.1683 253.156V257.898C87.0208 257.921 86.9065 257.954 86.8401 257.998C86.8401 257.998 86.3756 261.429 88.219 262.442C87.9535 262.464 87.6992 262.486 87.4633 262.508C87.4633 262.508 77.9659 262.28 72.8892 264.974C72.8892 264.974 72.0485 265.139 71.0826 265.928C67.2704 264.963 63.4397 264.782 59.5759 265.449L59.0856 263.164L58.9935 262.733C59.7898 261.793 60.1769 260.577 60.0626 259.35C60.0442 259.155 60.0258 258.949 60.0074 258.735C60.1401 258.75 60.2764 258.753 60.4165 258.731C61.2424 258.61 61.8138 257.836 61.6922 257.01C61.5705 256.185 60.7963 255.614 59.9704 255.735C59.8893 255.746 59.8119 255.768 59.7344 255.791C59.7344 255.791 59.7124 254.055 59.9594 253.322C60.2064 252.588 59.753 249.736 58.4404 249.519C57.751 249.404 56.8919 249.552 56.2615 249.707L56.1325 249.714C55.4357 249.648 50.8897 248.384 48.8767 249.287C46.8637 250.189 49.2417 256.015 49.9754 256.377C50.0307 256.653 50.0897 256.937 50.1487 257.22C50.0786 257.22 50.0049 257.224 49.9349 257.235C49.109 257.357 48.5376 258.131 48.6592 258.956C48.7809 259.781 49.5551 260.353 50.381 260.231C50.51 260.213 50.6317 260.176 50.7497 260.124C50.7939 260.331 50.8345 260.533 50.875 260.721C51.1294 261.948 51.8778 263.017 52.9433 263.68C52.9654 263.695 52.9912 263.71 53.017 263.724C53.1534 263.809 53.2936 263.887 53.4374 263.957L53.4595 264.163L53.7618 266.805L44.3124 269.127C44.2719 269.134 44.2276 269.145 44.1834 269.156C44.1834 269.152 44.1834 269.149 44.1797 269.141C44.1465 269.053 44.047 269.012 43.9622 269.046C40.3344 270.45 38.631 273.667 38.6163 273.703L31.0103 289.044L30.4868 286.328C30.4683 286.181 30.2103 284.268 28.6692 282.116C27.5336 280.532 25.5058 278.59 21.9849 277.374H21.9923C22.0365 275.085 18.6631 274.584 18.6631 274.584L18.6188 274.186C20.6355 273.913 20.5581 271.614 20.5581 271.614L20.6171 264.587C22.0402 264.211 23.0209 263.503 22.7776 262.519C22.2577 260.412 19.8797 261.152 19.8797 261.152C19.8797 261.152 20.6024 260.397 19.8908 259.767C19.1792 259.133 13.2545 261.278 12.2148 262.523C11.1751 263.769 11.7318 267.133 11.7318 267.133C11.3705 267.446 11.1382 267.907 11.1346 268.423C11.1309 269.097 11.5143 269.683 12.0747 269.97L12.0526 270.479L12.1078 272.506C12.1078 272.506 12.0194 273.103 11.9198 273.891C8.50948 273.501 4.66042 275.516 5.34249 276.662C4.62724 276.828 3.95992 277.046 3.40321 277.337C-0.652318 279.456 -0.0034198 291.697 0.0998118 293.285C0.0445092 296.547 0.110862 300.106 0.365254 303.493C0.343133 303.486 0.324724 303.482 0.298916 303.482C0.191997 303.482 0.110883 303.574 0.110883 303.677C0.121944 304.086 0.339471 310.922 2.69536 315.922C2.72854 316.936 3.13408 328.37 4.01155 333.216C4.14796 333.968 4.26224 334.668 4.36916 335.346C4.70835 337.443 4.98486 339.149 5.65586 340.299C5.60793 354.409 5.7591 376.364 6.94626 392.147C6.99419 392.795 7.30023 393.37 7.76108 393.772L7.80532 396.768C7.74633 396.834 7.71684 396.875 7.71684 396.875V401.691H40.9132C40.9759 401.691 41.0311 401.669 41.0754 401.636L51.2805 401.503C54.466 401.444 54.0346 400.191 54.0346 400.191V396.244C54.0346 396.244 54.0125 396.274 54.0052 396.289L54.0198 394.678C54.3037 394.686 54.536 394.686 54.7056 394.686C54.901 394.686 55.0117 394.686 55.0227 394.686H55.196L58.3888 362.541C58.798 358.915 60.7484 346.884 61.3567 343.169C62.1088 347.134 62.8941 351.593 63.3402 355.083C64.3836 363.23 67.4473 394.192 67.4768 394.505L67.4953 394.686H67.6759C67.746 394.686 68.1331 394.678 68.7378 394.649L68.7525 396.289C68.7525 396.289 68.7341 396.259 68.7267 396.244V400.191C68.7267 400.191 68.2879 401.444 71.4734 401.503L78.5227 401.595C78.884 401.927 79.6692 402.24 81.3394 402.247L95.7328 402.236C95.8619 402.218 95.9688 402.196 96.0462 402.174C97.3993 401.768 96.9569 400.928 96.9569 400.928L90.0587 396.76L89.926 396.152C89.8486 395.795 89.6348 395.522 89.3472 395.353L89.2882 393.156C89.6422 393.061 90.0034 392.954 90.3684 392.836C90.3795 392.873 90.4127 392.898 90.4495 392.906C90.4532 392.906 90.4569 392.906 90.4643 392.906C90.5159 392.906 90.5602 392.869 90.5639 392.817L93.2331 372.097C93.8968 379.374 94.6747 386.376 95.5927 392.449C95.5927 392.449 96.6213 392.567 98.273 392.596L98.3652 396.462C98.3652 396.462 98.3468 396.429 98.3358 396.41L98.391 400.821C98.391 400.821 97.9264 402.229 101.488 402.247L115.188 402.236C115.314 402.325 115.48 402.406 115.697 402.476C115.767 402.498 115.867 402.52 115.985 402.538L129.191 402.748C130.223 402.759 130.891 402.63 131.318 402.454C131.34 402.461 131.359 402.468 131.381 402.476C131.451 402.498 131.55 402.52 131.668 402.538L144.875 402.748C148.141 402.782 147.736 401.451 147.736 401.451L147.85 397.306C147.85 397.306 147.839 397.324 147.832 397.335L148.949 360.194C154.136 359.155 156.927 357.906 156.975 357.883L157.027 357.858V357.799C158.605 339.93 157.543 323.573 156.153 314.994C156.145 314.939 156.094 314.902 156.039 314.909C155.567 311.773 154.969 308.674 154.225 305.686C154.649 305.509 155.069 305.317 155.482 305.107C156.407 304.639 157.347 304.127 158.258 303.589L158.088 320.923V321.048L158.199 321.104C158.221 321.115 158.984 321.472 160.573 321.911L158.487 345.646C158.475 345.752 158.557 345.848 158.667 345.859L157.908 354.737V392.095C157.838 392.095 157.771 392.128 157.734 392.195C157.679 392.29 157.712 392.408 157.808 392.464C158.251 392.714 158.715 392.939 159.198 393.142L159.165 395.725C158.911 395.88 158.722 396.126 158.656 396.447L158.546 396.992L152.422 400.81C152.422 400.81 152.035 401.566 153.255 401.912C153.325 401.93 153.421 401.949 153.535 401.964L166.421 401.798C169.606 401.739 169.175 400.482 169.175 400.482V396.535C169.175 396.535 169.153 396.565 169.145 396.58L169.16 394.969C169.444 394.977 169.676 394.977 169.846 394.977C170.041 394.977 170.152 394.977 170.163 394.977H170.336L173.529 362.832C173.938 359.21 175.888 347.175 176.497 343.464C177.249 347.429 178.034 351.888 178.48 355.378C179.524 363.525 182.587 394.487 182.617 394.8L182.635 394.98H182.816C182.886 394.98 183.273 394.973 183.878 394.944L183.893 396.583C183.893 396.583 183.874 396.554 183.867 396.539V400.486C183.867 400.486 183.428 401.739 186.613 401.801L195.056 401.912C195.163 401.971 195.292 402.03 195.451 402.081C195.521 402.104 195.617 402.126 195.735 402.144L208.816 402.35C209.841 402.361 210.497 402.236 210.921 402.059C210.943 402.067 210.961 402.074 210.984 402.081C211.054 402.104 211.149 402.126 211.267 402.144L224.348 402.35C224.853 402.354 225.27 402.328 225.613 402.277H242.27V397.774C242.27 397.774 242.241 397.737 242.185 397.674L242.244 393.834C242.698 393.775 243.162 393.694 243.634 393.591C243.726 393.573 243.785 393.481 243.763 393.389C243.748 393.315 243.686 393.267 243.616 393.256C244.862 383.351 245.809 371.024 246.521 359.037L250.2 393.606C250.141 393.613 250.09 393.646 250.064 393.705C250.024 393.79 250.064 393.893 250.149 393.93C250.93 394.284 251.719 394.527 252.501 394.682L252.468 396.631C252.468 396.631 252.449 396.617 252.442 396.606L246.303 399.24C246.303 399.24 244.069 399.974 244.069 401.109H243.579C243.454 401.109 243.35 401.212 243.35 401.337V402.048C243.35 402.174 243.454 402.277 243.579 402.277H260.653V397.774C260.653 397.774 260.623 397.737 260.568 397.674L260.627 393.798C261.01 393.646 261.228 393.543 261.239 393.536L261.316 393.499L261.331 393.414C263.337 382.569 262.175 330.655 262.076 326.436C262.194 326.307 262.315 326.167 262.441 326.027C263.307 325.894 263.834 325.791 263.834 325.791V324.685L264.833 323.569C264.878 323.62 264.922 323.668 264.963 323.716C264.996 323.757 265.044 323.775 265.092 323.775C265.132 323.775 265.173 323.76 265.202 323.735C265.272 323.672 265.28 323.565 265.217 323.495C265.217 323.495 265.213 323.491 265.21 323.488C265.586 323.119 266.065 322.64 266.618 322.065C266.677 326.303 266.998 330.176 267.838 332.136C267.897 333.467 267.709 336.89 268.107 337.074C267.709 339.602 267.389 342.193 267.186 344.794C266.935 347.993 266.832 352.636 266.821 357.762C266.795 361.583 266.836 365.57 266.917 369.41C267.101 380.716 267.488 391.052 267.495 391.236C267.495 391.321 267.569 391.388 267.654 391.388C267.654 391.388 267.658 391.388 267.661 391.388C267.728 391.388 267.783 391.34 267.805 391.281C268.701 391.583 273.111 393.005 279.363 394.074L279.57 396.539L279.515 396.513L272.616 401.009C272.616 401.009 272.229 401.731 273.372 402.1C273.439 402.122 273.527 402.14 273.638 402.159L285.808 402.35C286.759 402.358 287.375 402.244 287.766 402.081C287.784 402.089 287.803 402.096 287.825 402.1C287.891 402.122 287.98 402.14 288.09 402.159L300.26 402.35C301.897 402.365 302.532 402.011 302.771 401.687H329.058V402.048C329.058 402.174 329.162 402.277 329.287 402.277H346.361V397.774C346.361 397.774 346.331 397.737 346.276 397.674L346.335 393.834C346.788 393.775 347.253 393.694 347.725 393.591C347.817 393.573 347.876 393.481 347.854 393.389C347.839 393.315 347.776 393.267 347.706 393.256C348.953 383.351 349.9 371.024 350.612 359.037L354.291 393.606C354.232 393.613 354.18 393.646 354.155 393.705C354.114 393.79 354.155 393.893 354.239 393.93C355.021 394.284 355.81 394.527 356.592 394.682L356.558 396.631C356.558 396.631 356.54 396.617 356.533 396.606L350.394 399.24C350.394 399.24 348.16 399.974 348.16 401.109H347.67C347.544 401.109 347.441 401.212 347.441 401.337V402.048C347.441 402.174 347.544 402.277 347.67 402.277H365.359C365.702 402.328 366.118 402.354 366.624 402.35L379.704 402.144C379.822 402.126 379.918 402.104 379.988 402.081C380.01 402.074 380.029 402.067 380.051 402.059C380.475 402.236 381.131 402.361 382.156 402.35L395.237 402.144C395.355 402.126 395.451 402.104 395.521 402.081C395.68 402.03 395.809 401.975 395.916 401.912L404.358 401.801C407.544 401.742 407.112 400.486 407.112 400.486V396.539C407.112 396.539 407.09 396.569 407.083 396.583L407.098 394.944C407.706 394.973 408.093 394.977 408.16 394.977H408.34L408.359 394.8C408.388 394.487 411.452 363.525 412.495 355.378C412.941 351.888 413.727 347.429 414.479 343.464C415.087 347.175 417.037 359.21 417.447 362.829L420.639 394.973H420.813C420.813 394.973 420.934 394.98 421.13 394.98C421.299 394.98 421.532 394.98 421.816 394.973L421.83 396.583C421.83 396.583 421.812 396.554 421.805 396.539V400.486C421.805 400.486 421.366 401.739 424.551 401.801L437.437 401.967C437.555 401.952 437.651 401.934 437.717 401.916C438.934 401.569 438.547 400.814 438.547 400.814L432.423 396.996L432.312 396.451C432.246 396.13 432.058 395.883 431.803 395.728L431.77 393.145C432.253 392.943 432.718 392.718 433.16 392.467C433.256 392.412 433.289 392.294 433.234 392.198C433.197 392.136 433.13 392.099 433.06 392.099V354.74L432.301 345.863C432.408 345.852 432.489 345.756 432.482 345.649L430.395 321.914C431.98 321.472 432.747 321.118 432.769 321.107L432.883 321.052V320.927L432.714 303.592C433.625 304.134 434.565 304.646 435.49 305.111C435.899 305.317 436.32 305.509 436.747 305.689C436.003 308.678 435.405 311.777 434.933 314.913C434.878 314.905 434.826 314.942 434.819 314.998C433.429 323.576 432.367 339.934 433.942 357.802V357.861L434.001 357.887C434.049 357.909 436.839 359.159 442.027 360.198L443.144 397.339C443.144 397.339 443.133 397.32 443.126 397.309L443.24 401.455C443.24 401.455 442.834 402.782 446.101 402.752L459.307 402.542C459.425 402.524 459.525 402.501 459.595 402.479C459.617 402.472 459.635 402.465 459.657 402.457C460.085 402.634 460.749 402.759 461.785 402.752L474.991 402.542C475.109 402.524 475.208 402.501 475.278 402.479C475.496 402.409 475.662 402.328 475.787 402.24L489.488 402.251C493.049 402.232 492.585 400.825 492.585 400.825L492.64 396.414C492.64 396.414 492.621 396.447 492.61 396.465L492.703 392.6C494.354 392.57 495.383 392.453 495.383 392.453C496.301 386.38 497.082 379.378 497.742 372.1L500.412 392.821C500.419 392.873 500.463 392.909 500.511 392.909C500.515 392.909 500.519 392.909 500.526 392.909C500.567 392.906 500.596 392.876 500.607 392.839C500.972 392.957 501.333 393.064 501.687 393.16L501.628 395.356C501.341 395.526 501.127 395.799 501.049 396.156L500.917 396.764L494.019 400.932C494.019 400.932 493.576 401.772 494.929 402.177C495.007 402.199 495.114 402.221 495.243 402.24L509.636 402.251C511.306 402.244 512.092 401.927 512.453 401.599L519.502 401.507C522.688 401.448 522.256 400.195 522.256 400.195V396.248C522.256 396.248 522.234 396.278 522.227 396.292L522.242 394.652C522.85 394.682 523.237 394.686 523.303 394.686H523.484L523.502 394.509C523.532 394.195 526.596 363.234 527.639 355.087C528.085 351.597 528.87 347.138 529.622 343.173C530.231 346.884 532.181 358.919 532.59 362.538L535.783 394.682H535.957C535.957 394.682 536.078 394.689 536.274 394.689C536.443 394.689 536.675 394.689 536.959 394.682L536.974 396.292C536.974 396.292 536.956 396.263 536.948 396.248V400.195C536.948 400.195 536.51 401.448 539.695 401.507L549.9 401.639C549.944 401.672 550 401.694 550.062 401.694H583.259V396.878C583.259 396.878 583.229 396.838 583.17 396.771L583.214 393.775C583.675 393.374 583.978 392.799 584.029 392.15C585.213 376.364 585.368 354.412 585.32 340.302C585.991 339.153 586.267 337.447 586.606 335.35C586.717 334.672 586.828 333.972 586.964 333.22C587.841 328.37 588.247 316.939 588.28 315.926C590.636 310.926 590.854 304.09 590.865 303.681C590.865 303.574 590.784 303.486 590.677 303.486C590.655 303.486 590.632 303.486 590.61 303.497C590.861 300.11 590.931 296.55 590.876 293.289L590.909 293.319ZM380.139 264.167C380.139 264.513 379.985 264.819 379.745 265.033C379.716 264.391 379.664 263.761 379.612 263.205C379.929 263.411 380.139 263.765 380.139 264.17V264.167ZM211.271 265.033C211.031 264.823 210.877 264.513 210.877 264.167C210.877 263.761 211.087 263.407 211.404 263.201C211.349 263.758 211.301 264.388 211.271 265.029V265.033ZM22.6817 396.915V398.315L19.9719 397.151L19.8834 397.114L18.4492 396.499L18.4161 396.484L16.5063 395.662C16.5063 395.662 16.4878 395.681 16.4768 395.688L16.4436 393.698C17.3505 393.4 17.9994 392.589 18.0842 391.627L19.7876 371.905C20.3074 378.73 20.9157 385.436 21.631 391.299C21.7268 392.08 22.1324 392.755 22.7149 393.208L22.7702 396.805C22.7112 396.871 22.6817 396.911 22.6817 396.911V396.915ZM40.7436 296.491C41.2081 296.683 41.6911 296.875 42.1962 297.07C42.2036 297.07 42.2073 297.074 42.2146 297.077C42.2331 297.081 42.2552 297.085 42.2736 297.081C42.281 297.081 42.2847 297.077 42.2921 297.077C42.3068 297.077 42.3178 297.07 42.3326 297.066C42.3399 297.066 42.3436 297.059 42.351 297.055C42.3621 297.048 42.3732 297.041 42.3805 297.033C42.3842 297.026 42.3879 297.018 42.3916 297.015C42.399 297.004 42.4063 296.996 42.41 296.985L43.2064 295.069L43.1547 300.379L42.2921 306.924C41.057 306.345 39.6448 305.686 38.2623 305.044C38.2955 305.026 38.3213 305 38.3361 304.967C38.373 304.882 38.3361 304.786 38.2513 304.75L35.4862 303.537C37.3333 301.341 39.5528 298.212 40.7436 296.495V296.491ZM31.4638 291.174L31.4306 291.218L31.4122 291.122C31.4122 291.122 31.4453 291.156 31.4638 291.174ZM43.5345 345.598L42.775 354.475V391.833C42.7049 391.833 42.6386 391.867 42.6017 391.933C42.5464 392.029 42.5796 392.147 42.6755 392.202C43.1179 392.452 43.5824 392.677 44.0654 392.88L44.0322 395.463C43.7778 395.618 43.5898 395.865 43.5234 396.185L43.4129 396.731L39.4753 399.185C38.8043 398.739 38.0227 398.481 38.0227 398.481L34.9221 397.151L34.8336 397.114L33.3993 396.499L33.3662 396.484L31.4564 395.662C31.4564 395.662 31.438 395.681 31.4269 395.688L31.3716 392.552C32.1864 392.051 32.7136 391.166 32.7283 390.179L33.5432 340.015C34.7488 339.672 35.5045 339.307 35.6004 338.928C35.9506 337.564 34.9147 328.507 33.9819 321.148C37.2558 320.882 39.5564 320.639 39.8624 320.606C39.9656 320.595 40.043 320.499 40.032 320.396C40.0209 320.308 39.9583 320.241 39.8772 320.227C39.9915 319.604 40.091 319.003 40.1684 318.428L40.8726 318.215L40.8652 318.266C40.7804 318.9 41.3962 319.548 42.1262 319.596L42.952 319.652L42.9409 320.665V320.79L43.0515 320.846C43.0736 320.857 43.8368 321.214 45.4259 321.653L43.3391 345.388C43.328 345.495 43.4091 345.59 43.5197 345.601L43.5345 345.598ZM122.385 396.454L116.265 400.442L110.233 396.797L110.1 396.189C110.023 395.832 109.809 395.559 109.522 395.389L109.415 391.262C110.089 391.063 110.76 390.835 111.424 390.573V358.23C112.703 358.576 114.263 358.963 116.055 359.35C116.044 359.402 116.073 359.453 116.125 359.468C116.995 359.7 118.123 359.918 119.376 360.124L122.444 396.484L122.381 396.454H122.385ZM138.065 396.454L132.103 400.338L132.185 397.343C132.185 397.343 132.174 397.361 132.166 397.372L133.243 361.602C133.586 361.605 133.925 361.609 134.26 361.609C134.57 361.609 134.876 361.609 135.182 361.602L138.128 396.477L138.065 396.447V396.454ZM139.993 260.618C139.982 260.504 139.968 260.389 139.956 260.275C139.986 260.375 140.008 260.493 139.993 260.618ZM189.681 286.431C189.545 285.853 189.412 285.337 189.286 284.917L190.098 285.422C189.946 285.783 189.806 286.122 189.681 286.435V286.431ZM192.406 321.122C193.637 320.757 194.319 320.503 194.319 320.503C194.319 317.415 193.899 313.203 193.294 308.748C193.854 307.819 194.26 307.115 194.308 307.03L199.458 298.942L199.241 310.446V310.458C199.241 310.458 195.499 328.927 194.135 341.253L192.417 321.163C192.417 321.163 192.413 321.137 192.409 321.122H192.406ZM202.08 396.123L197.663 399.001L194.518 397.04L194.407 396.495C194.341 396.174 194.153 395.927 193.899 395.773L193.865 393.16C194.337 392.965 194.784 392.747 195.189 392.508C195.281 392.453 195.314 392.331 195.259 392.239C195.222 392.176 195.156 392.143 195.09 392.143V371.5C196.339 371.787 198.057 372.148 200.144 372.52L202.139 396.152L202.08 396.126V396.123ZM217.612 396.123L211.706 399.97L211.787 397.003C211.787 397.003 211.776 397.022 211.769 397.033L212.182 383.288L212.462 374.024C213.557 374.098 214.678 374.156 215.821 374.197L217.675 396.145L217.616 396.119L217.612 396.123ZM234.111 396.676C234.111 396.676 234.093 396.661 234.085 396.65L227.947 399.285C227.947 399.285 227.637 399.388 227.25 399.572L227.32 397.003C227.32 397.003 227.309 397.022 227.301 397.033L227.998 373.902C229.495 373.722 230.929 373.508 232.227 373.294L232.301 392.22L232.389 392.268C232.389 392.268 233.06 392.633 234.174 393.02L234.111 396.672V396.676ZM261.438 390.105C261.67 386.674 261.851 383.023 261.987 379.245C261.869 383.542 261.696 387.301 261.438 390.105ZM267.698 302.421C266.684 304.175 265.305 306.522 263.864 308.936V298.408C263.96 298.408 264.033 298.33 264.033 298.238V290.717C265.667 293.131 267.462 295.869 268.491 297.719C268.155 299.576 267.886 301.216 267.698 302.424V302.421ZM294 396.561L288.507 400.143L288.581 397.383C288.581 397.383 288.569 397.401 288.566 397.413L288.632 395.198C290.354 395.301 292.135 395.353 293.952 395.334L294.059 396.587L294.004 396.561H294ZM310.694 395.695C310.694 395.695 310.676 395.677 310.665 395.67L308.755 396.491L308.722 396.506L307.288 397.121L307.199 397.158L304.098 398.489C304.098 398.489 303.556 398.669 302.985 398.986L303.029 397.383C303.029 397.383 303.018 397.401 303.014 397.413L303.099 394.605C305.654 394.207 308.217 393.624 310.742 392.821L310.69 395.695H310.694ZM325.648 395.695C325.648 395.695 325.63 395.677 325.619 395.67L323.709 396.491L323.676 396.506L319.447 398.323V396.922C319.447 396.922 319.417 396.882 319.358 396.816L319.414 393.219C319.996 392.769 320.402 392.091 320.497 391.31C321.209 385.447 321.821 378.741 322.341 371.916L324.044 391.638C324.125 392.6 324.778 393.411 325.685 393.709L325.652 395.699L325.648 395.695ZM338.209 396.679C338.209 396.679 338.191 396.664 338.183 396.653L334.404 398.275V396.915C334.404 396.915 334.375 396.874 334.316 396.808L334.36 393.812C334.821 393.411 335.123 392.836 335.175 392.187C335.783 384.091 336.119 374.374 336.296 364.922L336.403 392.22L336.491 392.268C336.491 392.268 337.162 392.633 338.279 393.02L338.216 396.672L338.209 396.679ZM373.418 396.126L373.359 396.152L375.214 374.204C376.357 374.164 377.478 374.105 378.573 374.031L378.853 383.295L379.266 397.04C379.266 397.04 379.255 397.022 379.247 397.011L379.328 399.977L373.422 396.13L373.418 396.126ZM397.132 395.776C396.878 395.931 396.69 396.178 396.623 396.499L396.513 397.044L393.368 399.004L388.951 396.126L388.892 396.152L390.887 372.52C392.973 372.152 394.691 371.787 395.941 371.5V392.143C395.875 392.143 395.809 392.176 395.772 392.239C395.716 392.331 395.746 392.453 395.842 392.508C396.247 392.747 396.693 392.965 397.165 393.16L397.132 395.773V395.776ZM398.618 321.166L396.9 341.257C395.539 328.93 391.794 310.461 391.794 310.461V310.45L391.576 298.946L396.727 307.034C396.775 307.119 397.18 307.823 397.74 308.751C397.136 313.203 396.716 317.415 396.716 320.507C396.716 320.507 397.398 320.761 398.629 321.126C398.625 321.137 398.622 321.151 398.622 321.166H398.618ZM401.35 286.439C401.221 286.126 401.081 285.787 400.933 285.425L401.744 284.921C401.619 285.344 401.486 285.86 401.35 286.435V286.439ZM451.038 260.625C451.023 260.5 451.045 260.382 451.074 260.283C451.063 260.397 451.049 260.507 451.038 260.625ZM452.966 396.462L452.903 396.491L455.849 361.616C456.155 361.616 456.461 361.624 456.771 361.624C457.106 361.624 457.445 361.624 457.788 361.616L458.865 397.387C458.865 397.387 458.854 397.368 458.846 397.357L458.927 400.353L452.966 396.469V396.462ZM481.509 395.397C481.222 395.566 481.008 395.839 480.93 396.196L480.798 396.805L474.766 400.449L468.646 396.462L468.583 396.491L471.651 360.131C472.904 359.925 474.032 359.708 474.902 359.475C474.954 359.461 474.984 359.409 474.972 359.358C476.764 358.971 478.327 358.58 479.603 358.237V390.581C480.267 390.839 480.938 391.067 481.612 391.27L481.506 395.397H481.509ZM559.619 291.13L559.6 291.226L559.567 291.181C559.567 291.181 559.6 291.148 559.619 291.13ZM548.621 296.985C548.621 296.985 548.632 297.007 548.639 297.015C548.643 297.022 548.647 297.029 548.65 297.033C548.658 297.044 548.669 297.048 548.68 297.055C548.687 297.059 548.691 297.066 548.698 297.066C548.709 297.074 548.724 297.074 548.739 297.077C548.746 297.077 548.75 297.081 548.757 297.081C548.776 297.081 548.798 297.081 548.82 297.077C548.827 297.077 548.831 297.077 548.838 297.07C549.343 296.875 549.826 296.683 550.291 296.491C551.482 298.209 553.698 301.337 555.548 303.533L552.783 304.746C552.698 304.783 552.662 304.878 552.698 304.963C552.713 305 552.739 305.026 552.772 305.041C551.39 305.682 549.978 306.341 548.742 306.92L547.88 300.375L547.828 295.065L548.625 296.982L548.621 296.985ZM559.597 395.699C559.597 395.699 559.578 395.681 559.567 395.673L557.657 396.495L557.624 396.51L556.19 397.125L556.101 397.162L553.001 398.492C553.001 398.492 552.219 398.75 551.548 399.196L547.611 396.742L547.5 396.196C547.434 395.876 547.246 395.629 546.991 395.474L546.958 392.891C547.441 392.688 547.906 392.464 548.348 392.213C548.444 392.158 548.477 392.04 548.422 391.944C548.385 391.881 548.318 391.844 548.252 391.844V354.486L547.493 345.609C547.6 345.598 547.681 345.502 547.673 345.395L545.587 321.66C547.172 321.218 547.939 320.864 547.961 320.853L548.075 320.798V320.672L548.064 319.659L548.89 319.604C549.62 319.556 550.236 318.907 550.151 318.273L550.144 318.222L550.848 318.436C550.929 319.01 551.025 319.607 551.139 320.234C551.054 320.249 550.992 320.315 550.984 320.403C550.973 320.51 551.05 320.602 551.154 320.613C551.46 320.647 553.76 320.89 557.034 321.155C556.101 328.518 555.065 337.572 555.416 338.935C555.512 339.315 556.267 339.68 557.473 340.022L558.288 390.186C558.302 391.174 558.833 392.058 559.645 392.559L559.589 395.695L559.597 395.699ZM574.55 395.699C574.55 395.699 574.532 395.681 574.521 395.673L572.611 396.495L572.578 396.51L571.144 397.125L571.055 397.162L568.345 398.326V396.926C568.345 396.926 568.316 396.886 568.257 396.819L568.312 393.223C568.895 392.773 569.3 392.095 569.396 391.314C570.108 385.451 570.72 378.744 571.24 371.92L572.943 391.642C573.028 392.604 573.677 393.414 574.584 393.713L574.55 395.703V395.699Z" fill="#212139"/>
</g>
<path opacity="0.3" d="M499.032 453.13C499.032 461.064 439.969 467.608 363.725 468.544C357.55 468.618 351.268 468.658 344.889 468.658C343.035 468.658 341.191 468.658 339.352 468.647C335.901 468.636 332.479 468.614 329.087 468.577C320.552 468.492 312.22 468.334 304.153 468.109C238.789 466.311 190.746 460.286 190.746 453.126C190.746 444.551 259.756 437.594 344.886 437.594C430.015 437.594 499.025 444.547 499.025 453.126L499.032 453.13Z" fill="#F9F7C2"/>
<path d="M197.476 57.5855C197.476 57.5855 188.204 59.3617 176.727 53.4694L180.008 48.3804L192.185 50.514L197.48 57.5855H197.476Z" fill="#C84D71"/>
<path d="M221.745 72.2113L231.423 84.7219L240.836 106.128L226.203 112.555L209.918 75.5241L221.745 72.2113Z" fill="#E69148"/>
<path d="M221.78 72.2037L194.555 10.301L183.42 15.1933L210.646 77.0959L221.78 72.2037Z" fill="#EDCB4D"/>
<path d="M194.759 10.845L183.624 15.735L180.199 7.94489L189.107 4.03142C190.338 3.48973 191.772 4.04984 192.31 5.28063L194.759 10.845Z" fill="#4D35AD"/>
<path d="M199.314 21.1416L198.23 18.679L187.096 23.5712L188.179 26.0338L199.314 21.1416Z" fill="#D32D45"/>
<path d="M199.928 81.7996L202.608 97.3835L212.021 118.786L226.654 112.359L210.369 75.3251L199.928 81.7996Z" fill="#E69148"/>
<path d="M211.095 76.8973L183.869 14.9947L172.735 19.8869L199.96 81.7896L211.095 76.8973Z" fill="#EDCB4D"/>
<path d="M172.942 20.4334L184.077 15.5434L180.652 7.7533L171.744 11.6668C170.513 12.2085 169.956 13.6419 170.494 14.869L172.942 20.4334Z" fill="#4D35AD"/>
<path d="M188.65 25.8301L187.566 23.3674L176.432 28.2597L177.515 30.7223L188.65 25.8301Z" fill="#E83C4E"/>
<path d="M227.523 114.338C235.369 110.871 241.312 107.211 240.837 106.128C240.361 105.045 233.644 106.946 225.783 110.381L227.523 114.338Z" fill="#E69148"/>
<path d="M225.782 110.377C225.708 110.41 225.631 110.443 225.557 110.476C217.601 113.973 211.536 117.692 212.019 118.786C212.498 119.88 219.341 117.931 227.297 114.434C227.371 114.401 227.449 114.368 227.522 114.335L225.782 110.377Z" fill="#E69148"/>
<path d="M211.65 118.948L202.216 97.4978L199.539 81.9139L186.805 53.0604L187.542 52.7361L200.317 81.6818L202.994 97.2656L212.388 118.624L211.65 118.948Z" fill="black"/>
<path d="M215.076 60.9057C209.056 60.9684 197.236 60.0213 186.581 52.8245C186.581 52.8245 181.375 52.246 177.699 53.8932C177.699 53.8932 176.409 54.5601 173.739 49.4011C171.07 44.2421 164.471 24.0004 164.471 24.0004L197.829 8.40552L220.356 21.7894C220.356 21.7894 225.997 24.9106 223.423 30.3902C223.423 30.3902 226.992 35.5861 223.007 40.2881C223.007 40.2881 227.162 44.4301 222.008 51.2436C222.008 51.2436 223.047 52.7582 222.373 55.345C221.517 58.6284 218.476 60.8689 215.084 60.9057H215.076Z" fill="#EBB2BB"/>
<path d="M222.398 52.1686C222.21 52.2497 221.993 52.2755 221.775 52.2239L204.981 48.4062C204.44 48.2846 204.1 47.7429 204.222 47.2012C204.347 46.6595 204.886 46.3205 205.428 46.4421L222.221 50.2598C222.763 50.3814 223.102 50.9231 222.981 51.4648C222.907 51.789 222.682 52.0433 222.398 52.1649V52.1686Z" fill="#C84D71"/>
<path d="M224.309 41.4194C224.121 41.5005 223.903 41.5263 223.686 41.4747L209.595 38.2724C209.053 38.1508 208.714 37.6091 208.835 37.0674C208.957 36.5258 209.499 36.1867 210.041 36.3083L224.132 39.5106C224.674 39.6322 225.013 40.1739 224.891 40.7156C224.818 41.0399 224.593 41.2941 224.309 41.4157V41.4194Z" fill="#C84D71"/>
<path d="M224.438 31.5068C224.25 31.5879 224.032 31.6137 223.815 31.5621L212.386 28.9641C211.844 28.8425 211.505 28.3009 211.626 27.7592C211.752 27.2175 212.29 26.8784 212.832 27L224.261 29.598C224.803 29.7196 225.142 30.2613 225.021 30.803C224.947 31.1273 224.722 31.3815 224.438 31.5031V31.5068Z" fill="#C84D71"/>
<path d="M214.417 75.0439L199.76 81.3655L200.08 82.1065L214.737 75.7849L214.417 75.0439Z" fill="black"/>
<path d="M238.316 97.864L235.754 92.038L220.218 98.864L222.781 104.69L238.316 97.864Z" fill="#C2E0EF"/>
<path d="M223.236 104.493L220.674 98.6668L205.138 105.493L207.7 111.319L223.236 104.493Z" fill="#DDF0FC"/>
<path d="M235.551 91.6091L204.932 105.062L205.257 105.801L235.876 92.3479L235.551 91.6091Z" fill="black"/>
<path d="M231.004 100.622L216.059 107.189L216.384 107.927L231.329 101.361L231.004 100.622Z" fill="black"/>
<path d="M220.862 78.5456L220.434 79.2297L226.087 82.7661L226.516 82.0821L220.862 78.5456Z" fill="black"/>
<path d="M220.348 81.7261L219.92 82.4102L225.573 85.9466L226.002 85.2626L220.348 81.7261Z" fill="black"/>
<path d="M202.677 7.52478L199.009 9.10563L194.795 10.9223L188.416 13.675L184.077 15.5433L183.716 15.6981L183.627 15.735V15.7386L183.45 15.816L172.91 20.3596L164.481 23.993L164.467 24.0004L162.026 25.0506L159.618 19.4715L159.46 19.0994L159.298 18.7309L158.229 16.2508L195.912 0H199.433L199.949 1.20131L200.111 1.56981L200.27 1.94199L202.677 7.52478Z" fill="#CEEAF3"/>
<path d="M203.747 0L200.112 1.56981L192.163 4.99686L181.468 9.61048L181.018 9.8021H181.014L170.344 14.4084L159.829 18.9409L159.461 19.0994L159.088 19.2615L154.845 21.0892L145.738 0H203.747Z" fill="#7F62D6"/>
<path d="M204.768 0L200.27 1.94199L192.347 5.35799L181.629 9.97898L181.179 10.1743L170.465 14.7916L159.987 19.3094L159.619 19.4715L159.246 19.63L154.634 21.6199L145.303 0H146.184L155.054 20.5586L159.298 18.7309L170.292 13.9919L180.855 9.43728L181.305 9.24197L191.919 4.66152L199.949 1.20131L202.729 0H204.768Z" fill="black"/>
<path d="M161.816 25.5813L159.088 19.2578L159.829 18.9409L162.236 24.52L188.24 13.2697L188.56 14.0104L161.816 25.5813Z" fill="black"/>
<path d="M298.27 439.698L316.932 439.956L317.227 420.425L298.642 417.875L298.27 439.698Z" fill="#EBB2BB"/>
<path d="M361.109 434.594L379.786 430.883L375.889 411.732L356.795 413.184L361.109 434.594Z" fill="#EBB2BB"/>
<path d="M330.868 270.615C330.171 290.783 327.144 369.683 320.781 421.306C320.361 424.707 317.433 427.276 313.957 427.268C310.104 427.257 304.751 426.804 298.815 425.021C295.946 424.158 293.955 421.586 293.904 418.631L291.316 261.561C291.308 261.178 291.334 260.799 291.393 260.423L291.515 259.645C292.182 255.371 296.687 252.795 300.783 254.346L326.455 264.063C329.194 265.099 330.964 267.73 330.864 270.619L330.868 270.615Z" fill="#4D35AD"/>
<path d="M357.874 261.521C357.874 261.521 358.221 301.595 363.961 345.789C367.147 370.328 376.257 395.81 377.731 417.183C377.927 420.016 375.991 422.552 373.178 423.167C369.196 424.04 363.054 424.862 355.876 424.033C353.443 423.753 351.444 421.999 350.888 419.644L330.872 352.01L318.746 283.627L305.742 246.442L357.874 261.517V261.521Z" fill="#7F62D6"/>
<path d="M350.162 417.488C350.188 417.488 350.217 417.488 350.243 417.477C350.398 417.433 350.49 417.271 350.442 417.116L331.156 351.947L322.116 300.969C322.086 300.81 321.935 300.707 321.777 300.733C321.618 300.762 321.511 300.91 321.537 301.068L330.585 352.076V352.091L349.878 417.275C349.915 417.4 350.033 417.485 350.162 417.485V417.488Z" fill="black"/>
<path d="M370.333 378.085C370.356 378.085 370.378 378.085 370.4 378.077C370.558 378.04 370.658 377.886 370.621 377.727C368.416 368.316 365.227 349.824 363.52 339.643C363.472 339.348 363.439 339.149 363.406 339.013C363.406 338.88 363.391 338.692 363.369 338.423L358.945 285.503C358.93 285.344 358.79 285.219 358.628 285.237C358.466 285.249 358.344 285.392 358.359 285.551C358.403 286.081 362.783 338.423 362.831 339.061C362.831 339.068 362.831 339.072 362.831 339.079L362.864 339.363H362.879C362.893 339.462 362.916 339.587 362.941 339.739C364.648 349.931 367.841 368.434 370.046 377.86C370.079 377.993 370.201 378.085 370.333 378.085Z" fill="black"/>
<path d="M293.817 413.59H293.82C293.983 413.59 294.115 413.453 294.112 413.295L292.014 285.982C292.014 285.82 291.885 285.687 291.715 285.694C291.553 285.694 291.42 285.831 291.424 285.989L293.522 413.302C293.522 413.461 293.654 413.59 293.817 413.59Z" fill="black"/>
<path d="M317.359 442.288H300.994L294.357 435.165L282.22 442.288H279.606C278.707 442.288 277.881 442.889 277.711 443.759C277.483 444.931 278.39 445.959 279.54 445.959H317.595C317.876 445.959 318.101 445.734 318.101 445.461V443.018C318.101 442.616 317.769 442.288 317.359 442.288Z" fill="#FEC786"/>
<path d="M317.216 442.311V435.692C317.216 435.692 314.458 432.037 310.262 433.901C310.262 433.901 303.913 438.338 298.321 432.969L284.425 439.042C284.425 439.042 280.616 440.299 279.584 442.311H317.216Z" fill="#7F62D6"/>
<path d="M317.356 435.689H317.076V442.274H317.356V435.689Z" fill="black"/>
<path d="M304.574 435.762C304.043 435.762 303.722 435.718 303.711 435.714L303.752 435.442C303.785 435.445 307.062 435.899 310.181 433.784L310.34 434.008C308.106 435.523 305.787 435.759 304.574 435.759V435.762Z" fill="black"/>
<path d="M313.836 441.072L313.678 440.848L315.455 439.668L315.61 439.893L313.836 441.072Z" fill="black"/>
<path d="M312.559 440.741L312.404 440.512L314.178 439.333L314.336 439.562L312.559 440.741Z" fill="black"/>
<path d="M278.247 445.642C277.797 445.266 277.539 444.717 277.539 444.138C277.539 443.051 278.439 442.167 279.541 442.167H317.169C317.763 442.167 318.242 442.642 318.242 443.224V445.056H317.962V443.224C317.962 442.793 317.604 442.443 317.169 442.443H279.541C278.59 442.443 277.819 443.206 277.819 444.142C277.819 444.643 278.041 445.115 278.428 445.435L278.247 445.645V445.642Z" fill="black"/>
<path d="M279.667 442.362L279.416 442.244C279.446 442.178 280.209 440.641 283.055 439.444C285.85 438.268 298.142 432.895 298.267 432.844L298.381 433.094C298.256 433.15 285.96 438.522 283.166 439.698C280.43 440.848 279.678 442.347 279.67 442.362H279.667Z" fill="black"/>
<path d="M380.678 432.055L364.95 436.514L356.574 431.48L346.911 441.632L344.4 442.344C343.533 442.591 342.91 443.39 342.991 444.275C343.102 445.465 344.26 446.202 345.366 445.889L381.936 435.515C382.205 435.438 382.36 435.162 382.282 434.896L381.596 432.549C381.482 432.162 381.073 431.937 380.682 432.051L380.678 432.055Z" fill="#FEC786"/>
<path d="M380.545 432.114L378.687 425.754C378.687 425.754 375.011 422.994 371.501 425.931C371.501 425.931 366.646 431.926 359.762 428.289L348.116 437.914C348.116 437.914 344.805 440.158 344.381 442.373L380.545 432.118V432.114Z" fill="#7F62D6"/>
<path d="M380.671 432.044L380.401 432.122L378.551 425.791L378.82 425.713L380.671 432.044Z" fill="black"/>
<path d="M366.557 429.266C366.045 429.409 365.724 429.454 365.717 429.457L365.68 429.185C365.713 429.181 368.99 428.72 371.394 425.839L371.608 426.012C369.886 428.075 367.726 428.934 366.557 429.266Z" fill="black"/>
<path d="M376.946 431.849L376.732 431.672L378.108 430.054L378.321 430.231L376.946 431.849Z" fill="black"/>
<path d="M375.63 431.875L375.416 431.698L376.791 430.08L377.005 430.257L375.63 431.875Z" fill="black"/>
<path d="M344.03 445.937C343.492 445.697 343.09 445.24 342.928 444.684C342.622 443.637 343.238 442.543 344.3 442.244L380.457 431.989C381.024 431.827 381.622 432.151 381.784 432.711L382.296 434.469L382.027 434.546L381.515 432.789C381.393 432.372 380.951 432.133 380.53 432.254L344.373 442.51C343.459 442.768 342.932 443.711 343.194 444.61C343.334 445.089 343.68 445.483 344.141 445.69L344.027 445.94L344.03 445.937Z" fill="black"/>
<path d="M344.474 442.395L344.197 442.351C344.208 442.281 344.511 440.593 346.907 438.67C349.263 436.779 359.568 428.267 359.671 428.179L359.852 428.389C359.748 428.473 349.44 436.989 347.084 438.88C344.776 440.73 344.477 442.377 344.474 442.392V442.395Z" fill="black"/>
<path d="M292.62 175.469C292.62 175.469 283.488 160.272 282.673 157.924C280.834 152.618 275.904 103.88 275.904 103.88L290.582 102.848L298.752 141.239L309.698 165.184L292.617 175.472L292.62 175.469Z" fill="#EBB2BB"/>
<path d="M274.202 87.165C274.906 86.9034 275.691 87.2682 276.001 87.9536L277.922 92.2171C277.981 92.3498 278.121 92.4309 278.265 92.4161C278.479 92.3977 278.622 92.184 278.56 91.9776L276.584 85.3631C276.359 84.6039 276.816 83.9259 277.605 83.8485C278.394 83.7748 279.223 84.3349 279.448 85.094L281.461 91.8413C281.509 91.9997 281.66 92.0992 281.823 92.0845L281.937 92.0734C282.125 92.055 282.265 91.8892 282.247 91.7012L281.517 83.9259C281.446 83.1778 281.948 82.4703 282.693 82.3524C283.508 82.2234 284.249 82.8057 284.322 83.6127L285.056 91.4359C285.074 91.6239 285.24 91.7639 285.428 91.7455L285.793 91.7123C285.963 91.6976 286.099 91.5538 286.103 91.3843L286.372 84.088C286.398 83.3363 286.992 82.7025 287.744 82.6804C288.566 82.6583 289.226 83.3326 289.196 84.1433C289.196 84.1433 289.384 95.2904 289.558 97.0298L292.702 94.4281C293.2 93.8275 294.089 93.7464 294.69 94.2402C295.291 94.7377 295.372 95.6258 294.878 96.2264L289.934 103.847C289.609 104.238 288.595 104.337 287.766 104.219C279.555 105.627 278.28 105.778 276.031 105.951L275.496 97.0703C275.341 94.5092 274.722 91.9924 273.667 89.6524L273.402 89.0628C273.07 88.3258 273.424 87.4488 274.198 87.1613L274.202 87.165Z" fill="#EBB2BB"/>
<path d="M375.837 184.836C375.837 184.836 387.661 171.622 388.899 169.47C391.701 164.605 405.693 117.655 405.693 117.655L391.469 113.889L376.235 150.064L360.986 171.529L375.833 184.84L375.837 184.836Z" fill="#EBB2BB"/>
<path d="M410.508 101.559C409.866 101.168 409.026 101.378 408.594 101.993L405.907 105.822C405.822 105.944 405.671 105.995 405.531 105.955C405.324 105.896 405.221 105.66 405.32 105.468L408.502 99.3403C408.867 98.6364 408.543 97.8847 407.783 97.6636C407.024 97.4425 406.102 97.8368 405.737 98.5406L402.493 104.79C402.419 104.934 402.249 105.008 402.094 104.96L401.984 104.927C401.803 104.875 401.696 104.684 401.752 104.503L403.93 97.004C404.141 96.2817 403.779 95.4931 403.071 95.2389C402.297 94.9588 401.46 95.3936 401.232 96.1712L399.042 103.718C398.99 103.899 398.798 104.005 398.618 103.95L398.264 103.847C398.098 103.799 397.995 103.637 398.02 103.467L399.126 96.2522C399.241 95.5079 398.78 94.7745 398.046 94.6124C397.243 94.4355 396.468 94.9735 396.347 95.7769C396.347 95.7769 394.068 106.692 393.574 108.369L390.975 105.225C390.599 104.543 389.74 104.293 389.058 104.669C388.376 105.045 388.125 105.903 388.501 106.585L391.926 114.998C392.169 115.444 393.146 115.727 393.987 115.772C401.785 118.694 403.012 119.081 405.188 119.674L407.378 111.051C408.008 108.564 409.088 106.209 410.567 104.109L410.935 103.582C411.4 102.918 411.216 101.993 410.512 101.566L410.508 101.559Z" fill="#EBB2BB"/>
<path d="M333.73 149.154L329.553 159.844C329.553 159.844 327.989 163.4 330.976 165.084L327.399 171.85C326.481 173.556 327.986 173.516 329.494 174.732C330.231 175.325 331.16 175.915 332.299 176.357C335.916 177.768 338.932 175.822 339.761 174.584C340.591 173.346 342.217 166.521 342.217 166.521L343.57 163.382L347.976 150.897L333.73 149.154Z" fill="#EBB2BB"/>
<path d="M340.37 157.902C340.407 157.917 340.451 157.917 340.492 157.902C340.573 157.869 340.614 157.773 340.58 157.692C340.569 157.663 339.323 154.737 336.835 155.522C336.75 155.548 336.702 155.64 336.728 155.724C336.753 155.809 336.846 155.857 336.93 155.831C339.135 155.135 340.234 157.707 340.278 157.817C340.297 157.858 340.33 157.891 340.37 157.906V157.902Z" fill="#7F62D6"/>
<path d="M334.514 154.578C334.555 154.593 334.607 154.593 334.647 154.571C334.725 154.53 334.758 154.431 334.714 154.354C334.673 154.276 333.718 152.489 332.505 152.913C332.42 152.942 332.376 153.034 332.406 153.119C332.435 153.204 332.527 153.248 332.612 153.219C333.563 152.887 334.419 154.49 334.43 154.505C334.448 154.542 334.478 154.567 334.514 154.578Z" fill="#7F62D6"/>
<path d="M337.085 157.324C336.99 157.574 337.111 157.854 337.362 157.95C337.613 158.046 337.893 157.924 337.989 157.674C338.085 157.423 337.963 157.143 337.712 157.047C337.462 156.952 337.181 157.073 337.085 157.324Z" fill="black"/>
<path d="M332.458 154.998C332.363 155.249 332.484 155.529 332.735 155.625C332.986 155.721 333.266 155.599 333.362 155.349C333.458 155.098 333.336 154.818 333.085 154.722C332.835 154.626 332.554 154.748 332.458 154.998Z" fill="black"/>
<path d="M347.323 151.325L343.408 153.908C343.408 153.908 334.611 153.893 332.067 148.852C329.523 143.811 331.389 142.595 333.221 141.283C334.125 140.638 337.516 139.927 340.256 142.691C341.753 144.198 344.024 142.326 345.661 144.352C347.298 146.379 348.971 149.438 348.371 150.153C347.77 150.868 347.32 151.325 347.32 151.325H347.323Z" fill="black"/>
<path d="M347.761 149.762C347.761 149.762 351.304 150.952 350.969 154.678C350.633 158.403 348.642 159.645 348.218 160.629C347.794 161.613 345.844 168.603 341.316 166.256L344.38 154.652L347.75 150.871L347.757 149.762H347.761Z" fill="black"/>
<path d="M340.879 158.625C340.292 160.121 341.033 161.808 342.53 162.394C344.027 162.98 345.716 162.239 346.302 160.743C346.888 159.247 346.147 157.56 344.65 156.974C343.153 156.388 341.465 157.128 340.879 158.625Z" fill="#EBB2BB"/>
<path d="M343.143 161.421C343.707 161.643 344.249 161.366 344.537 160.99C344.88 160.548 344.902 159.995 344.592 159.586C344.139 158.978 343.501 159.008 343.151 159.081C343.386 158.82 343.659 158.669 343.958 158.628C344.607 158.543 345.186 159.015 345.193 159.019C345.226 159.048 345.278 159.041 345.307 159.008C345.337 158.975 345.329 158.923 345.296 158.894C345.27 158.871 344.658 158.37 343.939 158.466C343.523 158.521 343.162 158.761 342.863 159.185L342.693 159.42L342.959 159.306C342.996 159.292 343.884 158.916 344.463 159.686C344.784 160.113 344.633 160.603 344.408 160.894C344.175 161.197 343.718 161.477 343.202 161.274C343.198 161.274 343.191 161.27 343.187 161.267C343.147 161.252 343.099 161.27 343.084 161.311C343.066 161.351 343.084 161.399 343.128 161.418C343.132 161.418 343.139 161.421 343.143 161.425V161.421Z" fill="#C84D71"/>
<path d="M339.511 164.874C339.511 164.874 336.937 170.84 329.154 168.467L330.979 165.081C330.979 165.081 335.496 167.977 339.511 164.874Z" fill="#C84D71"/>
<path d="M329.693 157.935C329.693 157.935 325.881 164.789 330.589 166.923C337.325 169.978 339.526 166.311 341.189 163.26L343.847 156.657L344.378 154.648C343.678 155.01 343.11 155.581 342.76 156.288C341.996 157.821 339.972 161.967 339.5 162C338.837 162.048 331.035 157.655 329.693 157.935Z" fill="black"/>
<path d="M334.301 159.748C334.334 159.759 334.371 159.752 334.393 159.726C334.423 159.693 334.415 159.642 334.382 159.612L333.066 158.525L334.931 155.161C334.954 155.12 334.939 155.072 334.898 155.05C334.858 155.028 334.81 155.043 334.788 155.083L332.859 158.566L334.279 159.737C334.279 159.737 334.294 159.748 334.301 159.752V159.748Z" fill="#C84D71"/>
<path d="M334.899 161.672C334.855 161.646 331.946 160.43 331.946 160.43C331.946 160.43 331.839 161.786 332.92 162.243C334 162.696 334.896 161.672 334.896 161.672H334.899Z" fill="#FBFDFC"/>
<path d="M345.362 273.195C345.44 273.202 345.517 273.18 345.58 273.125L352.142 267.199C352.257 267.096 352.268 266.916 352.161 266.801C352.057 266.687 351.877 266.676 351.763 266.779L345.2 272.705C345.086 272.808 345.075 272.988 345.182 273.103C345.229 273.158 345.296 273.187 345.366 273.195H345.362Z" fill="black"/>
<path d="M345.044 276.522C345.117 276.53 345.199 276.508 345.258 276.452L350.209 272.053C350.327 271.949 350.334 271.772 350.231 271.655C350.128 271.537 349.951 271.526 349.833 271.632L344.882 276.032C344.764 276.135 344.756 276.312 344.859 276.43C344.907 276.486 344.974 276.519 345.044 276.522Z" fill="black"/>
<path d="M291.328 103.453C291.328 103.453 299.649 141.515 299.354 141.124C299.059 140.734 314.463 168.353 316.878 169.499C319.293 170.645 352.139 172.628 352.139 172.628L375.395 150.665L390.497 114.607C394.412 114.707 405.698 120.087 405.698 120.087L390.585 167.793C389.966 169.746 388.904 171.526 387.477 172.996C381.287 179.367 363.878 197.424 362.477 200.302C360.77 203.81 358.384 278.1 358.384 278.1C302.687 277.867 290.506 264.48 290.506 264.48C290.506 264.48 297.164 191.561 297.304 187.791C297.304 187.791 288.323 171.669 285.392 165.423C285.392 165.423 283.21 161.186 281.838 157.501C280.467 153.819 275.18 104.724 275.18 104.724C279.781 103.062 291.332 103.453 291.332 103.453H291.328Z" fill="#4C149B"/>
<path d="M352.227 172.882L352.304 172.808L375.435 150.963L378.145 152.305C378.267 152.367 378.418 152.316 378.477 152.194C378.536 152.073 378.488 151.922 378.367 151.863L375.347 150.366L375.222 150.484L352.042 172.373L341.918 171.714C341.786 171.706 341.664 171.809 341.657 171.946C341.649 172.082 341.752 172.2 341.889 172.207L352.23 172.882H352.227Z" fill="black"/>
<path d="M375.394 150.912C375.49 150.912 375.582 150.857 375.622 150.761L390.724 114.703C390.775 114.578 390.716 114.43 390.591 114.379C390.466 114.327 390.318 114.386 390.266 114.511L375.165 150.569C375.114 150.694 375.173 150.842 375.298 150.893C375.327 150.908 375.361 150.912 375.394 150.912Z" fill="black"/>
<path d="M359.257 253.716C359.39 253.716 359.5 253.613 359.504 253.476C360.371 232.118 362.693 200.637 362.715 200.32C362.726 200.184 362.623 200.066 362.487 200.055C362.343 200.044 362.232 200.147 362.221 200.283C362.199 200.6 359.877 232.089 359.01 253.458C359.003 253.594 359.11 253.709 359.246 253.716C359.246 253.716 359.253 253.716 359.257 253.716Z" fill="black"/>
<path d="M292.05 246.445C292.179 246.445 292.29 246.346 292.297 246.213C294.896 207.038 298.001 185.986 298.034 185.776C298.052 185.639 297.96 185.514 297.824 185.496C297.691 185.473 297.562 185.569 297.543 185.706C297.514 185.916 294.406 206.983 291.803 246.184C291.796 246.32 291.899 246.438 292.035 246.449C292.039 246.449 292.046 246.449 292.054 246.449L292.05 246.445Z" fill="black"/>
<path d="M297.296 188.038C297.337 188.038 297.381 188.027 297.418 188.005C297.536 187.939 297.577 187.784 297.51 187.666C297.407 187.482 287.014 169.307 284.426 162.907C284.068 162.022 283.744 161.248 283.445 160.537C281.531 155.993 280.739 154.114 279.817 142.753C279.806 142.617 279.684 142.517 279.552 142.525C279.415 142.536 279.312 142.654 279.323 142.79C280.248 154.232 281.107 156.27 282.988 160.729C283.286 161.436 283.611 162.21 283.969 163.091C286.568 169.521 296.976 187.725 297.083 187.909C297.127 187.99 297.212 188.035 297.296 188.035V188.038Z" fill="black"/>
<g style="mix-blend-mode:multiply">
<g opacity="0.5">
<path d="M313.969 272.532C317.567 227.468 332.723 172.351 332.878 171.798L331.923 171.533C331.772 172.086 316.59 227.291 312.98 272.45L313.969 272.528V272.532Z" fill="#9EBEE5"/>
</g>
</g>
<path d="M333.184 171.599C332.236 172.889 331.116 173.847 330.046 174.857C312.394 191.532 279.961 172.432 287.275 202.73C289.58 198.441 289.827 191.863 294.638 188.974C295.313 188.569 296.065 188.3 296.843 188.171C309.459 186.093 327.274 189.147 333.18 171.599H333.184Z" fill="#33192C"/>
<path d="M333.42 174.219L331.51 175.284L330.127 174.787L329.578 172.093L331.654 170.715L333.67 171.323L333.42 174.219Z" fill="#7F62D6"/>
<path d="M332.735 170.184L329.221 168.346L327.521 170.844L329.605 173.903L332.399 171.669L333.42 174.857L341.904 171.961L341.454 169.532L332.735 170.184Z" fill="#33192C"/>
<path d="M358.38 275.078C358.38 275.078 309.725 275.94 290.734 261.565L290.465 264.708C290.465 264.708 297.529 272.027 319.735 275.657C341.937 279.283 358.38 278.063 358.38 278.063V275.078Z" fill="#21111D"/>
<path d="M319.027 271.861L318.124 275.391C318.039 275.719 317.711 275.922 317.379 275.848L308.398 273.847C308.044 273.766 307.827 273.405 307.934 273.055L308.97 269.569C309.062 269.252 309.386 269.064 309.707 269.134L318.559 271.091C318.906 271.168 319.119 271.514 319.031 271.861H319.027Z" fill="#FEC786"/>
<path d="M298.734 138.099C298.734 138.099 298.767 138.099 298.785 138.095C298.918 138.066 299.003 137.933 298.977 137.801L291.53 103.217L291.342 103.206C291.238 103.198 280.841 102.66 275.101 104.488C274.972 104.529 274.898 104.669 274.939 104.798C274.979 104.927 275.119 105 275.249 104.96C280.48 103.294 289.69 103.626 291.124 103.689L298.49 137.9C298.516 138.018 298.619 138.095 298.734 138.095V138.099Z" fill="black"/>
<g style="mix-blend-mode:multiply" opacity="0.6">
<path d="M379.276 455.407C378.955 455.149 378.502 454.895 377.96 454.663L376.024 452.5L376.109 452.507L374.697 450.384C375.169 450.403 375.449 450.296 375.339 450.126L374.937 449.529L374.8 449.515L374.712 449.382C374.653 449.294 374.38 449.198 374.107 449.172L336.752 445.645C336.306 445.605 335.93 445.616 335.672 445.675L335.554 445.627C335.193 445.708 335.06 445.863 335.189 446.054C335.418 446.397 336.442 446.758 337.497 446.873C337.751 446.998 338.902 447.514 341.622 448.096C344.62 448.741 357.856 451.637 357.988 451.667L358.018 451.63C358.018 451.63 358.051 451.623 358.07 451.615L359.305 452.986C358.42 453.004 357.531 453.034 356.639 453.074C354.626 453.17 353.708 453.767 354.353 454.57L354.836 455.307C354.807 455.307 354.785 455.307 354.759 455.307C354.648 455.307 354.582 455.337 354.611 455.381L363.316 468.655C365.451 468.662 367.593 468.666 369.746 468.666C377.153 468.666 384.449 468.625 391.616 468.551C387.885 463.934 384.316 459.457 379.28 455.411L379.276 455.407ZM321.194 452.242L316.744 449.198C316.792 449.146 316.81 449.113 316.81 449.113H316.932L313.787 446.906C314.189 446.876 314.318 446.729 314.063 446.552L313.179 445.925H313.057L312.858 445.785C312.725 445.693 312.415 445.616 312.168 445.616H278.526C278.124 445.616 277.833 445.671 277.678 445.763L277.538 445.723C277.324 445.852 277.361 446.036 277.641 446.235C278.153 446.592 279.33 446.887 280.288 446.906C280.609 447.016 282.032 447.47 284.79 447.831C287.831 448.232 301.303 450.056 301.436 450.078L301.425 450.038C301.425 450.038 301.443 450.023 301.454 450.02L305.51 452.776C303.574 453.096 303.136 453.944 304.478 454.917L306.844 456.63H306.841C306.701 456.63 306.642 456.671 306.719 456.726L322.451 468.109C331.819 468.33 341.49 468.489 351.404 468.577C343.035 463.44 334.662 458.429 326.941 454.003C325.585 453.225 323.417 452.577 321.205 452.238L321.194 452.242Z" fill="#213748"/>
</g>
<path opacity="0.3" d="M240.836 106.128L499.033 453.071H192.398L212.388 118.624L240.836 106.128Z" fill="url(#paint0_linear_386_48675)"/>
<defs>
<linearGradient id="paint0_linear_386_48675" x1="345.716" y1="106.128" x2="345.716" y2="453.071" gradientUnits="userSpaceOnUse">
<stop stop-color="#F9FF23"/>
<stop offset="1" stop-color="white"/>
</linearGradient>
</defs>
</svg>
