<svg width="563" height="556" viewBox="0 0 563 556" fill="none" xmlns="http://www.w3.org/2000/svg">
<g clip-path="url(#clip0_459_11542)">
<rect width="563" height="556" fill="#603C93"/>
<path d="M297.032 197.241C299.693 199.305 301.889 201.883 303.695 204.669C305.511 207.466 306.984 210.461 308.229 213.553C309.475 216.634 310.473 219.811 311.319 223.026C312.146 226.231 312.83 229.512 313.267 232.765V232.793C313.334 233.24 313.752 233.554 314.218 233.488C314.684 233.431 315.007 233.012 314.95 232.575V232.556C314.408 229.189 313.638 225.926 312.716 222.674C311.775 219.43 310.682 216.235 309.332 213.134C307.992 210.033 306.414 207.009 304.484 204.194C302.564 201.378 300.245 198.791 297.45 196.728C297.298 196.613 297.089 196.642 296.975 196.794C296.861 196.937 296.889 197.137 297.032 197.251V197.241Z" fill="#C8DAFB"/>
<path d="M228.029 158.55C242.459 193.484 266.565 202.729 300.548 199.41C300.548 199.41 298.048 154.48 228.029 158.55Z" fill="#6399F7"/>
<path d="M313.219 165.065C311.897 165.798 310.605 166.616 309.53 167.671C308.447 168.708 307.449 169.85 306.66 171.114C305.852 172.37 305.158 173.692 304.597 175.062C304.036 176.441 303.58 177.839 303.285 179.322C303.238 179.579 303.409 179.817 303.665 179.865C303.932 179.912 304.179 179.741 304.236 179.494C304.236 179.494 304.236 179.494 304.236 179.484V179.456C304.464 178.086 304.873 176.678 305.367 175.337C305.871 173.996 306.498 172.693 307.24 171.457C307.972 170.211 308.894 169.079 309.911 168.042C310.918 166.987 312.145 166.159 313.409 165.408H313.418C313.513 165.341 313.542 165.227 313.485 165.142C313.428 165.056 313.314 165.027 313.219 165.075V165.065Z" fill="#C7DBFF"/>
<path d="M303.304 131.948C301.954 135.363 301.412 138.977 301.032 142.553C300.661 146.148 300.557 149.762 300.557 153.367C300.557 156.972 300.69 160.576 300.937 164.171C301.194 167.767 301.517 171.352 302.135 174.938C302.182 175.195 302.429 175.366 302.695 175.318C302.962 175.271 303.133 175.033 303.095 174.776V174.757C302.439 171.257 302.059 167.671 301.764 164.105C301.479 160.529 301.298 156.943 301.241 153.348C301.184 149.762 301.241 146.167 301.564 142.591C301.897 139.024 302.391 135.429 303.674 132.081C303.713 131.977 303.655 131.872 303.56 131.834C303.456 131.796 303.351 131.853 303.313 131.948H303.304Z" fill="#C7DBFF"/>
<path d="M294.285 122.019C293.439 124.32 292.944 126.765 292.631 129.218C292.317 131.682 292.193 134.164 292.193 136.656C292.203 141.64 292.659 146.633 293.543 151.569C293.581 151.798 293.79 151.95 293.999 151.912C294.209 151.874 294.351 151.664 294.304 151.436C293.353 146.567 292.83 141.611 292.745 136.675C292.707 134.202 292.792 131.739 293.058 129.295C293.334 126.86 293.781 124.434 294.589 122.152C294.617 122.066 294.579 121.971 294.494 121.933C294.418 121.895 294.323 121.933 294.294 122.019H294.285Z" fill="#6399F7"/>
<path d="M267.516 137.769C270.558 138.958 273.381 140.603 276.08 142.401C278.78 144.208 281.327 146.215 283.799 148.298C288.723 152.492 293.333 157.038 297.582 161.851C297.753 162.05 298.057 162.069 298.266 161.908C298.466 161.737 298.495 161.442 298.324 161.252C293.96 156.448 289.265 151.95 284.246 147.803C281.727 145.739 279.132 143.761 276.384 141.973C273.637 140.194 270.757 138.577 267.658 137.417C267.554 137.379 267.44 137.426 267.402 137.522C267.364 137.617 267.411 137.731 267.516 137.769Z" fill="#C7DBFF"/>
<path d="M316.468 262.915C315.945 273.71 314.31 284.505 311.24 294.957C309.396 301.244 307.039 307.407 304.158 313.342L300.394 313.637C303.645 307.398 306.288 300.873 308.341 294.168C311.468 283.982 313.208 273.415 313.845 262.801C314.149 257.484 314.196 252.158 313.997 246.841C313.93 245.51 313.883 244.178 313.788 242.847L313.502 238.852C313.341 236.189 313.065 233.526 312.809 230.872C310.679 209.615 306.193 188.577 299.406 168.242C297.723 163.154 295.86 158.122 293.873 153.139C291.887 148.155 289.748 143.228 287.447 138.368C285.147 133.517 282.704 128.714 280.062 124.025C277.419 119.346 274.643 114.705 271.516 110.32C271.411 110.158 271.449 109.959 271.602 109.854C271.754 109.749 271.972 109.787 272.077 109.93C275.29 114.334 278.122 118.937 280.832 123.616C283.541 128.296 286.05 133.08 288.417 137.931C290.793 142.781 292.999 147.698 295.052 152.682C297.105 157.666 299.044 162.697 300.793 167.786C307.856 188.139 312.637 209.244 315.033 230.625C315.327 233.297 315.632 235.97 315.831 238.652L316.164 242.675C316.278 244.016 316.335 245.367 316.421 246.708C316.696 252.091 316.715 257.503 316.468 262.905V262.915Z" fill="#C8DAFB"/>
<path d="M256.945 94.1038C256.945 94.1038 255.766 115.618 275.756 114.8C277.619 101.427 271.441 94.9598 256.945 94.1038Z" fill="#6399F7"/>
<path opacity="0.5" d="M275.756 114.8C267.505 107.571 256.945 94.1038 256.945 94.1038C256.945 94.1038 255.766 115.618 275.756 114.8Z" fill="#C7DBFF"/>
<path d="M308.39 121.914C308.39 121.914 291.955 131.273 301.213 144.788C311.926 139.757 314.036 132.405 308.39 121.914Z" fill="#6399F7"/>
<path opacity="0.5" d="M301.213 144.788C302.991 135.629 308.39 121.914 308.39 121.914C308.39 121.914 291.955 131.273 301.213 144.788Z" fill="#C7DBFF"/>
<path d="M274.553 140.679C274.553 140.679 271.445 112.745 232.377 119.26C240.019 139.443 257.339 142.353 274.553 140.679Z" fill="#6399F7"/>
<path opacity="0.5" d="M274.553 140.679L232.377 119.26C240.019 139.443 257.339 142.353 274.553 140.679Z" fill="#C7DBFF"/>
<path d="M292.84 130.312C292.84 130.312 282.764 121.61 297.184 103.7C305.976 114.771 304.36 124.672 292.84 130.312Z" fill="#6399F7"/>
<path d="M308.029 169.659C308.029 169.659 307.801 126.736 351.223 131.349C350.092 151.769 344.398 172.142 308.029 169.659Z" fill="#6399F7"/>
<path d="M430.604 260.223C467.978 260.223 498.275 229.909 498.275 192.514C498.275 155.12 467.978 124.805 430.604 124.805C393.231 124.805 362.934 155.12 362.934 192.514C362.934 229.909 393.231 260.223 430.604 260.223Z" fill="white"/>
<path style="mix-blend-mode:multiply" opacity="0.5" d="M495.651 211.184C442.676 248.829 402.021 226.003 392.163 203.395C384.977 186.903 383.019 153.938 395.234 134.792C375.861 146.7 362.934 168.099 362.934 192.524C362.934 229.921 393.228 260.233 430.604 260.233C461.507 260.233 487.543 239.508 495.651 211.194V211.184Z" fill="url(#paint0_linear_459_11542)"/>
<path d="M431.136 191.525L410.157 170.763C409.235 169.84 407.971 169.907 407.343 170.915C406.716 171.923 406.963 173.502 407.885 174.424L428.864 195.187C429.786 196.109 431.05 196.043 431.678 195.035C432.305 194.026 432.058 192.448 431.136 191.525Z" fill="url(#paint1_linear_459_11542)"/>
<path opacity="0.5" d="M468.692 171.333C468.208 170.192 466.886 169.659 465.746 170.144L426.231 186.998C425.09 187.483 424.558 188.805 425.043 189.946C425.527 191.088 426.849 191.62 427.989 191.135L467.504 174.282C468.645 173.797 469.177 172.474 468.692 171.333Z" fill="url(#paint2_linear_459_11542)"/>
<path d="M430.606 124.805C420.996 124.805 411.852 126.822 403.572 130.445C409.703 128.619 416.186 127.63 422.907 127.63C460.283 127.63 490.577 157.942 490.577 195.339C490.577 223.111 473.857 246.974 449.941 257.417C477.887 249.095 498.277 223.197 498.277 192.524C498.277 155.126 467.982 124.815 430.606 124.815V124.805Z" fill="#E7DFEB"/>
<path d="M432.572 191.848L416.992 168.632C416.308 167.605 414.91 167.32 413.884 167.995C412.857 168.68 412.572 170.078 413.247 171.105L428.827 194.321C429.511 195.348 430.908 195.634 431.935 194.959C432.962 194.274 433.247 192.876 432.572 191.848Z" fill="#30183C"/>
<path d="M470.785 169.612C470.167 168.537 468.789 168.176 467.715 168.794L430.509 190.289C429.435 190.907 429.074 192.286 429.692 193.361C430.31 194.435 431.688 194.797 432.762 194.179L469.967 172.684C471.042 172.066 471.403 170.686 470.785 169.612Z" fill="#30183C"/>
<path d="M435.52 192.514C435.52 195.225 433.324 197.431 430.606 197.431C427.887 197.431 425.691 195.234 425.691 192.514C425.691 189.794 427.887 187.597 430.606 187.597C433.324 187.597 435.52 189.794 435.52 192.514Z" fill="#15061D"/>
<g style="mix-blend-mode:multiply">
<path d="M428.192 194.473C427.156 193.085 426.908 190.117 428.515 188.082C426.851 188.872 425.701 190.555 425.701 192.524C425.701 195.234 427.897 197.441 430.616 197.441C432.327 197.441 433.828 196.566 434.712 195.244C432.213 196.052 429.294 195.948 428.201 194.483L428.192 194.473Z" fill="#15061D"/>
</g>
<path d="M430.605 262.62C391.974 262.62 360.549 231.176 360.549 192.524C360.549 153.871 391.974 122.427 430.605 122.427C469.236 122.427 500.662 153.871 500.662 192.524C500.662 231.176 469.236 262.62 430.605 262.62ZM430.605 127.202C394.607 127.202 365.321 156.505 365.321 192.524C365.321 228.542 394.607 257.845 430.605 257.845C466.603 257.845 495.89 228.542 495.89 192.524C495.89 156.505 466.603 127.202 430.605 127.202Z" fill="#30183C"/>
<path d="M388.839 142.363C373.078 154.299 362.869 173.207 362.869 194.464C362.869 230.482 392.156 259.786 428.154 259.786C444.028 259.786 458.6 254.079 469.931 244.616C458.99 252.9 445.369 257.836 430.616 257.836C394.618 257.836 365.331 228.532 365.331 192.514C365.331 172.379 374.485 154.356 388.839 142.363Z" fill="#5E1282"/>
<path d="M430.606 122.418C413.572 122.418 397.945 128.534 385.797 138.682C397.565 129.713 412.251 124.368 428.154 124.368C466.785 124.368 498.21 155.811 498.21 194.464C498.21 216.073 488.382 235.428 472.963 248.296C489.788 235.485 500.672 215.246 500.672 192.505C500.672 153.852 469.247 122.409 430.616 122.409L430.606 122.418Z" fill="#5E1282"/>
<path d="M433.133 192.514C433.133 193.912 432.002 195.044 430.605 195.044C429.207 195.044 428.076 193.912 428.076 192.514C428.076 191.116 429.207 189.984 430.605 189.984C432.002 189.984 433.133 191.116 433.133 192.514Z" fill="#5E1282"/>
<path d="M433.133 133.089C433.133 134.488 432.002 135.619 430.605 135.619C429.207 135.619 428.076 134.488 428.076 133.089C428.076 131.691 429.207 130.559 430.605 130.559C432.002 130.559 433.133 131.691 433.133 133.089Z" fill="#5E1282"/>
<path d="M433.133 253.052C433.133 254.45 432.002 255.582 430.605 255.582C429.207 255.582 428.076 254.45 428.076 253.052C428.076 251.654 429.207 250.522 430.605 250.522C432.002 250.522 433.133 251.654 433.133 253.052Z" fill="#5E1282"/>
<path d="M433.133 192.514C433.133 193.912 432.002 195.044 430.605 195.044C429.207 195.044 428.076 193.912 428.076 192.514C428.076 191.116 429.207 189.984 430.605 189.984C432.002 189.984 433.133 191.116 433.133 192.514Z" fill="#5E1282"/>
<path d="M490.726 195.044C492.122 195.044 493.254 193.911 493.254 192.514C493.254 191.117 492.122 189.984 490.726 189.984C489.329 189.984 488.197 191.117 488.197 192.514C488.197 193.911 489.329 195.044 490.726 195.044Z" fill="#5E1282"/>
<path d="M370.273 195.044C371.669 195.044 372.801 193.911 372.801 192.514C372.801 191.117 371.669 189.984 370.273 189.984C368.876 189.984 367.744 191.117 367.744 192.514C367.744 193.911 368.876 195.044 370.273 195.044Z" fill="#5E1282"/>
<path d="M114.79 460.107C208.562 460.107 284.579 458.207 284.579 455.865C284.579 453.522 208.562 451.623 114.79 451.623C21.0174 451.623 -55 453.522 -55 455.865C-55 458.207 21.0174 460.107 114.79 460.107Z" fill="url(#paint3_linear_459_11542)"/>
<path d="M282.174 455.827C282.174 457.206 222.327 458.328 148.506 458.328C74.6854 458.328 14.8379 457.206 14.8379 455.827C14.8379 454.448 74.6854 453.325 148.506 453.325C222.327 453.325 282.174 454.448 282.174 455.827Z" fill="url(#paint4_linear_459_11542)"/>
<path d="M236.607 418.125H175.286C175.286 418.125 179.212 444.471 148.955 444.471H262.928C232.681 444.471 236.597 418.125 236.597 418.125H236.607Z" fill="#7A4B90"/>
<path opacity="0.3" d="M248.945 444.461C233.992 439.344 231.578 426.59 231.768 418.116H175.286C175.286 418.116 179.212 444.461 148.955 444.461H248.945Z" fill="#B69CC2"/>
<g style="mix-blend-mode:multiply">
<path d="M232.441 425.991C231.871 423.204 231.719 420.493 231.766 418.116H175.284C175.284 418.116 176.985 429.586 169.457 437.394L232.451 425.991H232.441Z" fill="#A360FF"/>
</g>
<path d="M377.126 185.628H34.762C27.9845 185.628 22.4902 191.126 22.4902 197.907V413.712C22.4902 420.493 27.9845 425.991 34.762 425.991H377.126C383.904 425.991 389.398 420.493 389.398 413.712V197.907C389.398 191.126 383.904 185.628 377.126 185.628Z" fill="#A360FF"/>
<g style="mix-blend-mode:multiply">
<path d="M40.5118 198.725C30.4738 200.152 29.5993 203.661 29.5993 226.906C29.5993 250.151 28.2875 401.814 27.8503 414.587C27.7172 418.344 27.6697 421.34 27.6602 423.689C29.6754 425.125 32.1183 425.991 34.7704 425.991H136.338L369.777 414.587V374.717L196.186 294.891L40.5213 198.725H40.5118Z" fill="#A360FF"/>
</g>
<path d="M44.762 197.917H367.136C373.514 197.917 378.695 203.1 378.695 209.482V403.031C378.695 409.413 373.514 414.596 367.136 414.596H44.762C38.3837 414.596 33.2031 409.413 33.2031 403.031V209.482C33.2031 203.1 38.3837 197.917 44.762 197.917Z" fill="#1B3151"/>
<path d="M205.947 193.637C206.934 193.637 207.734 192.836 207.734 191.848C207.734 190.861 206.934 190.06 205.947 190.06C204.96 190.06 204.16 190.861 204.16 191.848C204.16 192.836 204.96 193.637 205.947 193.637Z" fill="white"/>
<path d="M282.004 456.74H129.895C126.52 456.74 123.754 453.972 123.754 450.596C123.754 447.219 126.52 444.452 129.895 444.452H282.004C285.378 444.452 288.144 447.219 288.144 450.596C288.144 453.972 285.378 456.74 282.004 456.74Z" fill="#A360FF"/>
<path opacity="0.5" d="M377.126 185.628H168.562C214.152 187.873 364.036 187.359 376.346 189.214C388.561 191.059 386.089 200.313 385.548 301.025C385.205 365.776 385.947 404.011 384.768 423.28C387.582 421.026 389.397 417.564 389.397 413.702V197.907C389.397 191.154 383.875 185.628 377.126 185.628Z" fill="white"/>
<path opacity="0.5" d="M277.05 447.676C283.657 447.476 285.843 451.242 285.196 455.827C286.955 454.742 288.134 452.802 288.134 450.596C288.134 447.219 285.368 444.452 281.993 444.452H169.627C169.627 444.452 266.879 447.98 277.041 447.666L277.05 447.676Z" fill="white"/>
<g style="mix-blend-mode:multiply">
<path d="M127.898 444.803C125.493 445.64 123.754 447.923 123.754 450.605C123.754 453.982 126.52 456.749 129.895 456.749H282.004C282.736 456.749 283.439 456.616 284.085 456.378L284.58 455.874C284.58 455.874 140.066 454.343 132.395 453.896C124.733 453.458 124.723 447.314 127.898 444.803Z" fill="#A360FF"/>
</g>
<path opacity="0.2" d="M365.13 412.837C371.385 412.837 376.499 407.72 376.499 401.462V211.099C376.499 204.84 371.385 199.724 365.13 199.724H141.082C227.631 217.642 338.381 290.345 323.685 412.827H365.13V412.837Z" fill="#2E5A6F"/>
<path d="M113.517 325.849H112.566V329.891H113.517V325.849Z" fill="#A360FF"/>
<path d="M113.517 363.456H112.566V371.844H113.517V363.456Z" fill="#A360FF"/>
<path d="M113.517 335.484H112.566V343.873H113.517V335.484Z" fill="#A360FF"/>
<path d="M113.517 349.465H112.566V357.854H113.517V349.465Z" fill="#A360FF"/>
<path d="M113.517 377.437H112.566V381.955H117.082V381.004H113.517V377.437Z" fill="#A360FF"/>
<path d="M169.922 381.004H161.994V381.955H169.922V381.004Z" fill="#A360FF"/>
<path d="M183.127 381.004H175.199V381.955H183.127V381.004Z" fill="#A360FF"/>
<path d="M156.709 381.004H148.781V381.955H156.709V381.004Z" fill="#A360FF"/>
<path d="M130.295 381.004H122.367V381.955H130.295V381.004Z" fill="#A360FF"/>
<path d="M143.498 381.004H135.57V381.955H143.498V381.004Z" fill="#A360FF"/>
<path d="M196.34 381.004H188.412V381.955H196.34V381.004Z" fill="#A360FF"/>
<path d="M262.383 381.004H254.455V381.955H262.383V381.004Z" fill="#A360FF"/>
<path d="M288.812 381.004H280.885V381.955H288.812V381.004Z" fill="#A360FF"/>
<path d="M302.023 381.004H294.096V381.955H302.023V381.004Z" fill="#A360FF"/>
<path d="M315.227 381.004H307.299V381.955H315.227V381.004Z" fill="#A360FF"/>
<path d="M209.553 381.004H201.625V381.955H209.553V381.004Z" fill="#A360FF"/>
<path d="M328.437 381.004H320.51V381.955H328.437V381.004Z" fill="#A360FF"/>
<path d="M222.756 381.004H214.828V381.955H222.756V381.004Z" fill="#A360FF"/>
<path d="M275.598 381.004H267.67V381.955H275.598V381.004Z" fill="#A360FF"/>
<path d="M235.969 381.004H228.041V381.955H235.969V381.004Z" fill="#A360FF"/>
<path d="M249.18 381.004H241.252V381.955H249.18V381.004Z" fill="#A360FF"/>
<path d="M337.763 381.004H333.723V381.955H337.763V381.004Z" fill="#A360FF"/>
<path d="M164.79 219.887H60.2754V324.461H164.79V219.887Z" fill="white"/>
<path d="M126.178 312.049C95.7977 312.049 71.1686 287.406 71.1686 257.008C71.1686 242.704 76.6248 229.674 85.5601 219.887H60.2656V324.461H164.78V296.203C154.847 306 141.216 312.049 126.178 312.049Z" fill="#FFEA92"/>
<path d="M166.034 325.707H59.0391V218.651H166.034V325.707ZM61.52 323.224H163.544V221.142H61.52V323.224Z" fill="#A360FF"/>
<path opacity="0.5" d="M215.178 229.541H175.568V239.194H215.178V229.541Z" fill="#A360FF"/>
<path opacity="0.5" d="M231.309 229.541H220.549V239.194H231.309V229.541Z" fill="#A360FF"/>
<g opacity="0.3">
<path d="M261.638 250.018H255.031V252.044H261.638V250.018Z" fill="#A360FF"/>
<path d="M249.896 250.018H225.324V252.044H249.896V250.018Z" fill="#A360FF"/>
<path d="M219.574 250.018H199.365V252.044H219.574V250.018Z" fill="#A360FF"/>
<path d="M190.734 250.018H175.572V252.044H190.734V250.018Z" fill="#A360FF"/>
<path d="M275.078 257.55H253.805V259.576H275.078V257.55Z" fill="#A360FF"/>
<path d="M246.96 257.55H219.574V259.576H246.96V257.55Z" fill="#A360FF"/>
<path d="M216.647 257.55H205.887V259.576H216.647V257.55Z" fill="#A360FF"/>
<path d="M198.31 257.55H186.941V259.576H198.31V257.55Z" fill="#A360FF"/>
<path d="M181.2 257.55H175.572V259.576H181.2V257.55Z" fill="#A360FF"/>
<path d="M244.677 265.083H201.389V267.109H244.677V265.083Z" fill="#A360FF"/>
<path d="M185.601 265.083H175.572V267.109H185.601V265.083Z" fill="#A360FF"/>
<path d="M257.719 272.606H244.678V274.632H257.719V272.606Z" fill="#A360FF"/>
<path d="M237.617 272.606H223.168V274.632H237.617V272.606Z" fill="#A360FF"/>
<path d="M215.182 272.606H175.572V274.632H215.182V272.606Z" fill="#A360FF"/>
<path d="M205.885 280.139H196.836V282.165H205.885V280.139Z" fill="#A360FF"/>
<path d="M190.734 280.139H175.572V282.165H190.734V280.139Z" fill="#A360FF"/>
<path d="M223.166 287.672H207.473V289.698H223.166V287.672Z" fill="#A360FF"/>
<path d="M199.363 287.672H185.59V289.698H199.363V287.672Z" fill="#A360FF"/>
<path d="M181.2 287.672H175.572V289.698H181.2V287.672Z" fill="#A360FF"/>
<path d="M236.199 295.195H203.195V297.221H236.199V295.195Z" fill="#A360FF"/>
<path d="M196.846 295.195H175.572V297.221H196.846V295.195Z" fill="#A360FF"/>
</g>
<path d="M156.16 321.465C153.147 315.254 149.421 307.797 148.1 306.076C145.761 303.004 133.641 304.44 129.183 304.05C124.725 303.66 118.765 299.903 119.022 290.725C119.278 281.537 105.22 288.366 105.22 288.366C105.22 288.366 99.7253 297.525 97.9763 301.035C96.2273 304.544 73.87 306.076 71.4556 307.398C70.1628 308.102 67.7389 315.121 65.7617 321.474H156.16V321.465Z" fill="#258BC0"/>
<path d="M106.703 290.173C104.336 293.141 101.617 296.061 106.703 299.095L110.03 301.035L112.529 314.189L115.742 302.176C115.742 302.176 119.516 298.914 117.919 291.819C116.322 284.723 111.826 285.922 111.826 285.922" fill="#FDC4BF"/>
<path d="M95.7969 259.643C95.7969 259.643 96.1676 283.202 103.183 290.868C110.198 298.534 119.428 297.031 124.228 286.35C129.029 275.669 130.131 257.788 130.131 257.788C130.131 257.788 98.7436 242.124 95.7969 259.643Z" fill="#FDC4BF"/>
<g style="mix-blend-mode:multiply">
<path d="M95.7969 259.643C95.7969 259.643 96.1676 283.202 103.183 290.868C106.795 294.815 110.987 296.327 114.865 295.414C100.331 294.006 98.9813 271.522 100.911 265.797C103.021 259.529 106.329 256.504 108.23 256.609C110.131 256.714 107.631 252.576 107.631 252.576H109.647L126.319 259.519L127.679 270.99L128.582 270.571C129.78 263.6 130.141 257.798 130.141 257.798C130.141 257.798 98.7531 242.133 95.8064 259.652L95.7969 259.643Z" fill="#FDC4BF"/>
</g>
<path d="M96.5115 269.706C96.5115 269.706 96.1598 263.428 92.8424 264.674C89.5154 265.92 93.4507 273.225 97.5762 276.696C97.4811 276.202 96.5115 269.706 96.5115 269.706Z" fill="#FDC4BF"/>
<g style="mix-blend-mode:multiply">
<path d="M96.5115 269.706C96.5115 269.706 96.1598 263.428 92.8424 264.674C89.5154 265.92 93.4507 273.225 97.5762 276.696C97.4811 276.202 96.5115 269.706 96.5115 269.706Z" fill="#FDC4BF"/>
</g>
<path d="M127.67 270.98C127.67 270.98 128.117 264.703 132.356 265.949C136.596 267.195 131.577 274.499 126.311 277.971C126.434 277.476 127.67 270.98 127.67 270.98Z" fill="#FDC4BF"/>
<path opacity="0.8" d="M132.356 265.949C130.655 265.445 129.571 266.167 128.877 267.195C132.413 266.586 133.174 270.191 126.453 277.276C126.387 277.638 126.33 277.895 126.311 277.971C131.577 274.499 136.596 267.195 132.356 265.949Z" fill="#FFEA92"/>
<path d="M127.672 270.98L128.566 258.388L109.64 252.567C109.64 252.567 111.237 255.192 110.515 255.192C109.792 255.192 102.796 252.567 102.796 252.567L96.8361 271.884C96.8361 271.884 93.9178 251.406 95.2296 247.621C96.5414 243.836 106.437 240.488 110.363 239.755C114.288 239.023 126.161 243.246 130.125 247.621C134.089 251.996 127.663 270.99 127.663 270.99L127.672 270.98Z" fill="#C36357"/>
<g style="mix-blend-mode:multiply" opacity="0.6">
<path d="M127.672 270.98L128.566 258.388L109.64 252.567C109.64 252.567 111.237 255.192 110.515 255.192C109.792 255.192 102.796 252.567 102.796 252.567L96.8361 271.884C96.8361 271.884 93.9178 251.406 95.2296 247.621C96.5414 243.836 106.437 240.488 110.363 239.755C114.288 239.023 126.161 243.246 130.125 247.621C134.089 251.996 127.663 270.99 127.663 270.99L127.672 270.98Z" fill="#A360FF"/>
</g>
<path d="M106.588 280.957C106.588 280.957 109.497 282.85 118.67 280.957C115.029 286.635 110.371 288.528 106.588 280.957Z" fill="white"/>
<g style="mix-blend-mode:multiply">
<path d="M112.319 278.522C112.319 278.522 109.02 277.495 109.049 275.374C109.087 273.253 111.92 272.949 111.92 264.722C111.92 261.916 113.688 271.446 112.1 273.71C110.513 275.983 112.319 278.522 112.319 278.522Z" fill="#FDC4BF"/>
</g>
<g style="mix-blend-mode:multiply" opacity="0.6">
<path d="M113.155 248.563C115.047 249.571 110.912 244.948 110.912 244.948C110.912 244.948 116.663 246.052 118.668 245.548C120.674 245.044 117.062 242.438 117.062 242.438L123.953 243.379C119.001 240.935 112.965 239.261 110.37 239.746C106.444 240.478 96.5392 243.826 95.2369 247.612C94.0678 251.007 96.2826 267.794 96.7579 271.246C96.986 269.221 98.9346 251.806 99.4099 249.067C99.9137 246.156 111.273 247.564 113.165 248.563H113.155Z" fill="#A360FF"/>
</g>
<g style="mix-blend-mode:multiply">
<path d="M108.165 267.166C108.222 267.613 107.376 268.098 106.273 268.241C105.17 268.393 104.22 268.146 104.163 267.699C104.106 267.252 104.952 266.767 106.055 266.624C107.157 266.481 108.108 266.719 108.165 267.166Z" fill="#FDC4BF"/>
</g>
<g style="mix-blend-mode:multiply">
<path d="M120.722 268.136C120.636 268.583 119.686 268.774 118.593 268.574C117.499 268.374 116.672 267.851 116.758 267.404C116.844 266.957 117.794 266.767 118.887 266.966C119.98 267.166 120.807 267.689 120.722 268.136Z" fill="#FDC4BF"/>
</g>
<path opacity="0.3" d="M125.779 245.652C125.779 245.652 132.063 247.735 130.123 257.788C129.391 251.074 128.536 248.363 125.779 245.652Z" fill="#FFEA92"/>
<path opacity="0.8" d="M126.452 277.267C126.452 277.267 122.298 292.865 114.855 295.404C118.515 294.539 121.89 291.533 124.219 286.35C125.435 283.649 126.405 280.491 127.194 277.276H126.452V277.267Z" fill="#FFEA92"/>
<g style="mix-blend-mode:multiply" opacity="0.5">
<path d="M116.181 315.986L122.483 307.607L116.97 303.688L113.035 317.983L111.428 317.251L108.786 302.69L104.404 310.593C104.404 310.593 99.8695 308.396 98.4151 303.688C88.1871 306.285 72.4077 308.339 72.4077 308.339L68.6055 319.6H152.483L116.181 315.986Z" fill="#258BC0"/>
</g>
<path opacity="0.5" d="M179.154 358.139C179.154 360.983 176.844 363.294 174.002 363.294C171.159 363.294 168.85 360.983 168.85 358.139C168.85 355.295 171.159 352.984 174.002 352.984C176.844 352.984 179.154 355.295 179.154 358.139Z" fill="#A360FF"/>
<path d="M195.132 358.139C195.132 360.983 192.822 363.294 189.98 363.294C187.138 363.294 184.828 360.983 184.828 358.139C184.828 355.295 187.138 352.984 189.98 352.984C192.822 352.984 195.132 355.295 195.132 358.139Z" fill="#A360FF"/>
<path opacity="0.5" d="M211.103 358.139C211.103 360.983 208.793 363.294 205.951 363.294C203.109 363.294 200.799 360.983 200.799 358.139C200.799 355.295 203.109 352.984 205.951 352.984C208.793 352.984 211.103 355.295 211.103 358.139Z" fill="#A360FF"/>
<path opacity="0.5" d="M227.072 358.139C227.072 360.983 224.762 363.294 221.92 363.294C219.077 363.294 216.768 360.983 216.768 358.139C216.768 355.295 219.077 352.984 221.92 352.984C224.762 352.984 227.072 355.295 227.072 358.139Z" fill="#A360FF"/>
<path opacity="0.5" d="M243.05 358.139C243.05 360.983 240.74 363.294 237.898 363.294C235.056 363.294 232.746 360.983 232.746 358.139C232.746 355.295 235.056 352.984 237.898 352.984C240.74 352.984 243.05 355.295 243.05 358.139Z" fill="#A360FF"/>
<path style="mix-blend-mode:multiply" opacity="0.5" d="M353.924 248.249L334.713 413.56H357.669L360.711 248.525L353.924 248.249Z" fill="url(#paint5_linear_459_11542)"/>
<path d="M396.224 475.657C475.145 475.657 539.123 472.072 539.123 467.649C539.123 463.226 475.145 459.641 396.224 459.641C317.304 459.641 253.326 463.226 253.326 467.649C253.326 472.072 317.304 475.657 396.224 475.657Z" fill="url(#paint6_linear_459_11542)"/>
<path d="M396.832 239.508C365.806 240.06 354.057 235.314 353.924 248.249C353.79 261.184 347.602 456.416 347.308 464.472C347.013 472.528 352.659 471.767 380.131 471.282C407.602 470.797 527.801 468.657 537.582 468.486C547.363 468.315 543.96 442.083 540.367 413.807C536.774 385.531 526.869 280.91 524.017 259.653C521.166 238.395 524.055 239.28 504.863 239.166C485.672 239.052 396.841 239.518 396.841 239.518L396.832 239.508Z" fill="#93693F"/>
<g style="mix-blend-mode:multiply" opacity="0.5">
<path d="M425.009 254.64L430.427 239.347C423.498 239.375 417.129 239.404 411.834 239.432C411.255 240.973 410.39 242.999 409.696 243.474C408.536 244.264 360.723 248.525 360.723 248.525L425.019 254.64H425.009Z" fill="#93693F"/>
</g>
<path d="M538.372 408.624C534.912 381.394 525.368 280.634 522.621 260.157C519.874 239.679 522.659 240.535 504.171 240.421C497.84 240.383 483.648 240.412 467.717 240.459L468.487 241.534C468.487 241.534 507.964 241.563 511.766 241.534C515.568 241.505 519.237 240.402 521.186 252.805C523.695 268.783 539.798 426.752 541.138 439.477C542.25 450.006 541.937 458.566 540.311 463.845C544.922 457.263 541.243 431.307 538.363 408.624H538.372Z" fill="#FFEA92"/>
<g style="mix-blend-mode:multiply" opacity="0.7">
<path d="M541.935 465.471C540.947 465.49 379.085 469.123 364.418 468.619C349.713 468.115 350.958 468.153 350.578 455.618C350.197 443.073 355.597 265.873 355.806 252.691C355.929 244.682 355.92 242.447 356.614 241.287C354.817 242.656 353.962 244.834 353.924 248.249C353.79 261.184 347.602 456.416 347.308 464.472C347.013 472.528 352.659 471.767 380.131 471.282C407.602 470.797 527.801 468.657 537.582 468.486C539.521 468.448 540.937 467.373 541.945 465.471H541.935Z" fill="#93693F"/>
</g>
<g style="mix-blend-mode:multiply" opacity="0.5">
<path d="M362.878 248.525H360.711L353.059 463.046C353.059 463.046 477.696 458.737 487.44 458.224C497.193 457.71 501.603 461.391 510.881 452.926C520.168 444.461 530.919 427.703 530.919 427.703L499.037 283.982L362.859 248.525H362.878Z" fill="#93693F"/>
</g>
<path d="M418.278 248.525H362.879L357.67 457.472C357.67 457.472 496.576 455.199 501.224 454.79C505.863 454.381 530.939 427.712 530.939 427.712C529.703 398.019 514.846 248.534 514.846 248.534H418.287L418.278 248.525Z" fill="white"/>
<g style="mix-blend-mode:multiply">
<path d="M384.074 248.525C392.696 251.283 409.264 256.466 413.171 256.809C418.513 257.275 468.646 252.396 468.646 252.396L458.076 248.525H384.074Z" fill="#E7DFEB"/>
</g>
<path d="M530.929 427.712C530.863 426.01 530.739 423.908 530.587 421.473C528.667 423.318 518.096 429.871 502.46 428.987C495.34 445.707 464.656 449.578 445.645 451.518C430.911 453.021 379.923 455.218 357.708 456.131L357.67 457.482C357.67 457.482 496.576 455.209 501.224 454.8C505.872 454.391 530.939 427.722 530.939 427.722L530.929 427.712Z" fill="#E7DFEB"/>
<g style="mix-blend-mode:multiply">
<path d="M516.073 434.246L501.215 435.644C501.215 435.644 495.655 448.808 478.668 455.342C491.348 455.085 500.103 454.885 501.215 454.79C503.801 454.562 512.717 446.192 520.113 438.812L516.063 434.246H516.073Z" fill="#E7DFEB"/>
</g>
<path d="M501.222 454.79C501.222 454.79 507.106 447.571 510.196 431.773C521.65 428.673 530.928 427.712 530.928 427.712C530.928 427.712 507.42 454.59 501.213 454.79H501.222Z" fill="white"/>
<path d="M430.352 217.1C429.002 218.318 428.033 225.232 428.727 226.859C429.42 228.485 435.228 233.364 433.831 236.617C432.434 239.87 446.16 234.106 446.16 234.106L437.358 225.907C437.358 225.907 433.365 219.611 441.493 219.659C449.62 219.706 450.637 220.305 449.667 225.907C452.405 224.072 452.405 220.724 452.405 220.724C452.405 220.724 453.565 217.937 448.688 215.54C443.812 213.144 432.671 215.008 430.352 217.1Z" fill="#541970"/>
<path d="M468.649 234.049C468.649 234.049 457.508 235.209 453.563 232.194C449.619 229.179 462.385 225.223 453.791 215.702C445.208 206.182 432.898 213.847 430.351 217.1C427.794 220.353 433.602 227.553 435.455 229.408C437.309 231.262 435.921 234.049 430.579 234.049C425.237 234.049 417.052 233.374 416.881 234.981C416.691 236.826 414.096 251.235 414.562 252.396C415.027 253.556 464.238 252.167 468.649 252.396C473.059 252.624 468.649 234.049 468.649 234.049ZM449.153 222.208C448.221 226.155 440.103 228.009 437.318 222.208C434.533 216.406 440.864 214.38 447.508 216.168C449.866 216.805 450.084 218.261 449.153 222.208Z" fill="#C36357"/>
<g style="mix-blend-mode:multiply" opacity="0.4">
<path d="M468.649 252.396C469.97 252.462 470.493 250.855 470.588 248.563C462.451 248.724 428.773 249.352 422.461 249.143C415.294 248.915 418.383 234.201 418.412 234.087C417.509 234.239 416.938 234.505 416.891 234.971C416.701 236.817 414.106 251.226 414.571 252.386C415.037 253.546 464.248 252.158 468.659 252.386L468.649 252.396Z" fill="#541970"/>
</g>
<path d="M453.096 217.557C453.096 217.557 456.812 220.743 453.096 226.003C449.379 231.262 449.635 232.889 453.923 234.743C458.2 236.598 466.907 236.018 466.907 236.018L468.761 246.813L465.044 238.452C465.044 238.452 457.497 237.758 453.086 236.018C448.675 234.277 447.658 232.651 450.491 228.238C453.324 223.825 454.35 221.247 453.086 217.557H453.096Z" fill="#FFDBD4"/>
<path d="M371.631 386.529L372.125 366.328L393.893 365.881L394.169 385.398L371.631 386.529ZM373.437 367.65L373.009 385.112L392.8 384.123L392.562 367.26L373.437 367.65Z" fill="#C36357"/>
<path d="M394.539 414.482H371.031L371.526 394.357L394.244 393.463L394.539 414.473V414.482ZM372.41 413.132H393.17L392.913 394.871L372.837 395.66L372.41 413.141V413.132Z" fill="#C36357"/>
<path d="M372.25 358.615L372.697 340.087H393.552L393.809 358.015L372.25 358.624V358.615ZM374.018 341.428L373.638 357.226L392.45 356.703L392.231 341.438H374.018V341.428Z" fill="#C36357"/>
<path d="M392.845 281.975H373.91L374.281 266.662H392.627L392.845 281.975ZM375.288 280.624H391.477L391.296 268.003H375.593L375.288 280.624Z" fill="#C36357"/>
<path d="M393.171 306.846H373.371L373.78 289.945H392.924L393.162 306.846H393.171ZM374.759 305.496H391.812L391.612 291.286H375.111L374.768 305.496H374.759Z" fill="#C36357"/>
<path d="M393.463 332.279H372.846L373.283 314.522H393.216L393.473 332.279H393.463ZM374.224 330.928H392.095L391.885 315.863H374.595L374.224 330.928Z" fill="#C36357"/>
<path d="M379.739 271.674H378.057L379.739 278.646H384.074L396.916 260.994L381.83 274.318L379.739 271.674Z" fill="#C36357"/>
<path d="M377.628 347.506H375.736L377.628 355.324H382.495L396.915 335.503L379.976 350.473L377.628 347.506Z" fill="#C36357"/>
<path d="M377.628 374.679H375.736L377.628 382.497H382.495L396.915 362.676L379.976 377.646L377.628 374.679Z" fill="#C36357"/>
<path d="M478.405 266.399L477.059 266.489L483.065 356.501L484.412 356.411L478.405 266.399Z" fill="#C36357"/>
<path d="M440.813 270.352H404.967V272.378H440.813V270.352Z" fill="#B69CC2"/>
<path d="M431.342 276.097H406.199V278.123H431.342V276.097Z" fill="#B69CC2"/>
<path d="M450.585 276.097H437.562V278.123H450.585V276.097Z" fill="#B69CC2"/>
<path d="M443.142 292.646H405.271V294.672H443.142V292.646Z" fill="#B69CC2"/>
<path d="M424.207 297.383H405.271V299.409H424.207V297.383Z" fill="#B69CC2"/>
<path d="M451.079 314.189H406.82V316.215H451.079V314.189Z" fill="#B69CC2"/>
<path d="M438.075 322.387H406.82V324.413H438.075V322.387Z" fill="#B69CC2"/>
<path d="M458.834 322.387H444.613V324.413H458.834V322.387Z" fill="#B69CC2"/>
<path d="M426.354 329.891H406.82V331.917H426.354V329.891Z" fill="#B69CC2"/>
<path d="M430.423 344.405H408.684V346.431H430.423V344.405Z" fill="#B69CC2"/>
<path d="M436.64 349.941H408.684V351.966H436.64V349.941Z" fill="#B69CC2"/>
<path d="M434.064 370.066H408.684V372.092H434.064V370.066Z" fill="#B69CC2"/>
<path d="M458.834 370.066H440.498V372.092H458.834V370.066Z" fill="#B69CC2"/>
<path d="M449.672 375.83H408.684V377.855H449.672V375.83Z" fill="#B69CC2"/>
<path d="M427.561 398.551H409.301V400.577H427.561V398.551Z" fill="#B69CC2"/>
<path d="M438.274 404.743H409.605V406.769H438.274V404.743Z" fill="#B69CC2"/>
<path d="M460.68 419.438V418.087C462.201 418.087 519.529 416.86 520.109 416.851L520.137 418.201C517.771 418.249 462.22 419.438 460.68 419.438Z" fill="#C36357"/>
<path d="M464.644 418.81L463.057 393.501H472.743V394.842H464.492L465.994 418.724L464.644 418.81Z" fill="#C36357"/>
<path d="M474.212 418.496L472.738 385.826L486.664 385.331L488.879 418.192L474.212 418.496Z" fill="#FDE0DD"/>
<path d="M473.568 419.181L472.037 385.169L487.294 384.627L489.604 418.848L473.568 419.181ZM473.444 386.472L474.851 417.811L488.159 417.535L486.039 386.025L473.444 386.472Z" fill="#C36357"/>
<path d="M505.119 417.849L503.693 376.2H486.051L488.883 418.192L505.119 417.849Z" fill="#FFEA92"/>
<path d="M488.256 418.876L485.338 375.525H504.349L505.823 418.505L488.266 418.876H488.256ZM486.773 376.876L489.511 417.507L504.425 417.193L503.047 376.876H486.773Z" fill="#C36357"/>
<path d="M517.617 417.526L516.068 396.858H504.404L505.117 417.849L517.617 417.526Z" fill="#FDC4BF"/>
<path d="M504.471 418.534L503.711 396.183H516.705L518.35 418.173L504.471 418.525V418.534ZM505.099 397.534L505.774 417.155L516.895 416.87L515.45 397.534H505.099Z" fill="#C36357"/>
<path d="M437.576 434.453L372.953 435.345L372.972 436.695L437.594 435.804L437.576 434.453Z" fill="#B69CC2"/>
<path d="M444.595 440.469L372.596 441.362L372.612 442.713L444.612 441.82L444.595 440.469Z" fill="#B69CC2"/>
<path d="M504.396 280.634H490.395V281.984H504.396V280.634Z" fill="#B69CC2"/>
<path d="M500.33 285.247H491.328V286.597H500.33V285.247Z" fill="#B69CC2"/>
<path d="M504.402 320.238H493.48V321.588H504.402V320.238Z" fill="#B69CC2"/>
<path d="M507.297 324.879H493.723V326.23H507.297V324.879Z" fill="#B69CC2"/>
<path opacity="0.6" d="M347.316 491.246C347.459 493.614 328.828 496.705 304.541 498.151C280.254 499.596 260.444 498.845 260.302 496.477C260.159 494.109 279.741 491.017 304.027 489.572C328.314 488.126 347.174 488.878 347.316 491.246Z" fill="url(#paint7_linear_459_11542)"/>
<path d="M351.519 499.948C352.089 502.802 338.695 508.061 320.426 511.694C302.165 515.328 286.899 515.965 286.329 513.112C285.759 510.258 300.103 504.999 318.372 501.365C336.633 497.732 350.948 497.095 351.519 499.948Z" fill="url(#paint8_linear_459_11542)"/>
<path d="M307.869 385.464C307.869 385.464 316.737 388.479 324.019 388.127C331.3 387.775 338.676 367.032 339.969 362.029C341.252 357.026 341.062 345.746 339.969 343.14C338.876 340.544 329.456 354.829 326.68 360.755C323.905 366.68 318.601 375.44 318.601 375.44L308.287 373.071C308.287 373.071 305.226 381.555 307.878 385.455L307.869 385.464Z" fill="#205972"/>
<g style="mix-blend-mode:multiply" opacity="0.85">
<path d="M307.869 385.464C307.869 385.464 316.737 388.479 324.019 388.127C331.3 387.775 338.676 367.032 339.969 362.029C341.252 357.026 341.062 345.746 339.969 343.14C338.876 340.544 329.456 354.829 326.68 360.755C323.905 366.68 318.601 375.44 318.601 375.44L308.287 373.071C308.287 373.071 305.226 381.555 307.878 385.455L307.869 385.464Z" fill="#205972"/>
</g>
<path d="M328.307 417.678C326.852 416.66 321.234 415.519 321.234 415.519C321.234 415.519 322.014 383.476 323.116 374.26C324.219 365.044 324.172 347.972 337.746 341.771C342.08 348.438 337.166 417.688 337.166 417.688H328.316L328.307 417.678Z" fill="#205972"/>
<g style="mix-blend-mode:multiply" opacity="0.9">
<path d="M328.307 417.678C326.852 416.66 321.234 415.519 321.234 415.519C321.234 415.519 322.014 383.476 323.116 374.26C324.219 365.044 324.172 347.972 337.746 341.771C342.08 348.438 337.166 417.688 337.166 417.688H328.316L328.307 417.678Z" fill="#205972"/>
</g>
<path d="M331.25 488.507C331.25 488.507 325.119 490.941 324.311 492.244C323.503 493.557 341.934 493.509 346.259 489.791C343.579 487.898 331.241 488.507 331.241 488.507H331.25Z" fill="black"/>
<path d="M338.637 500.652C338.637 500.652 331.584 504.495 331.232 505.683C330.881 506.872 340.054 506.625 344.968 505.094C349.883 503.563 355.719 497.827 355.719 497.827C355.719 497.827 341.907 498.759 338.637 500.652Z" fill="black"/>
<path d="M326.68 411.791C326.68 411.791 327.583 438.298 328.752 452.022C329.921 465.737 331.765 483.589 331.252 488.507C333.847 490.941 342.535 491.141 346.271 489.791C344.066 469.656 342.877 453.963 342.64 446.24C342.402 438.517 348.343 409.86 348.343 409.86L326.68 411.791Z" fill="#205972"/>
<g style="mix-blend-mode:multiply" opacity="0.8">
<path d="M326.68 411.791C326.68 411.791 327.583 438.298 328.752 452.022C329.921 465.737 331.765 483.589 331.252 488.507C333.847 490.941 342.535 491.141 346.271 489.791C344.066 469.656 342.877 453.963 342.64 446.24C342.402 438.517 348.343 409.86 348.343 409.86L326.68 411.791Z" fill="#205972"/>
</g>
<path d="M355.947 407.625C355.947 407.625 349.92 427.142 350.149 439.106C350.377 451.071 356.213 484.617 355.719 497.827C350.595 501.052 338.637 500.652 338.637 500.652C338.637 500.652 333.409 435.188 333.485 426.742C333.561 418.296 334.075 407.625 334.075 407.625H355.937H355.947Z" fill="#205972"/>
<g style="mix-blend-mode:multiply" opacity="0.4">
<path d="M355.729 497.485C353.476 496.943 349.474 495.745 348.343 493.871C346.737 491.208 341.87 471.805 341.261 468.714C340.653 465.623 339.493 439.468 340.862 434.95C342.041 431.041 351.442 418.23 353.951 414.853C355.045 410.564 355.957 407.625 355.957 407.625H334.094C334.094 407.625 333.581 418.296 333.505 426.742C333.429 435.188 338.657 500.652 338.657 500.652C338.657 500.652 350.615 501.052 355.738 497.827C355.738 497.723 355.738 497.599 355.738 497.485H355.729Z" fill="#205972"/>
</g>
<g style="mix-blend-mode:multiply" opacity="0.4">
<path d="M334.086 407.625C334.086 407.625 333.649 416.698 333.516 424.735L353.915 414.882C353.915 414.882 353.934 414.853 353.943 414.844C354.333 413.332 354.694 411.981 354.998 410.878C355.122 409.831 355.245 408.69 355.369 407.615H334.086V407.625Z" fill="#205972"/>
</g>
<path d="M338.001 411.401C338.001 411.401 329.141 413.208 325.672 411.401C326.47 402.128 326.927 386.434 326.356 377.998C325.672 367.964 327.982 357.159 330.292 351.367C332.601 345.575 336.575 343.72 336.575 343.72L344.968 339.241L338.001 411.41V411.401Z" fill="white"/>
<path opacity="0.5" d="M337.906 368.297C337.906 368.297 335.491 355.552 336.927 343.53L336.575 343.72C336.575 343.72 332.601 345.575 330.292 351.367C327.982 357.159 325.672 367.964 326.356 377.998C326.927 386.444 326.47 402.128 325.672 411.401C329.141 413.208 338.001 411.401 338.001 411.401L340.073 389.906L337.906 368.287V368.297Z" fill="#B69CC2"/>
<path d="M335.32 394.043C325.473 377.912 329.018 355.172 329.037 355.058C327.241 361.126 325.805 369.819 326.366 377.998C326.936 386.444 326.48 402.128 325.682 411.401C329.151 413.208 338.01 411.401 338.01 411.401L338.98 401.338C338.105 399.084 336.927 396.649 335.33 394.043H335.32Z" fill="#B69CC2"/>
<path d="M332.572 418.401C332.572 418.401 330.614 398.485 331.46 383.381C332.306 368.278 335.158 354.363 337.154 349.341C339.15 344.329 343.333 341.362 343.333 341.362L345.728 337.129L345.833 336.321C345.833 336.321 353.979 336.977 357.182 351.719C360.348 366.281 358.551 404.268 360.215 412C355.224 419.847 342.943 417.421 332.572 418.401Z" fill="#205972"/>
<path opacity="0.3" d="M359.703 407.083C358.971 394.043 359.912 364.245 357.193 351.729C353.99 336.987 345.844 336.33 345.844 336.33L345.768 336.891L347.517 338.413C347.517 338.413 353.087 339.783 355.948 353.393C358.809 367.003 356.528 397.781 359.532 406.655C359.589 406.807 359.646 406.95 359.703 407.083Z" fill="white"/>
<g style="mix-blend-mode:multiply" opacity="0.2">
<path d="M360.226 412C359.865 410.326 359.665 407.244 359.551 403.288C359.085 407.425 358.306 411.363 357.003 412.2C339.256 417.44 335.302 404.743 335.331 399.436C335.359 394.138 336.139 384.133 343.382 382.459C348.981 381.165 350.35 367.945 350.35 367.945C350.35 367.945 354.465 339.745 347.793 341.276C343.933 342.161 339.019 349.027 335.549 354.668C333.867 361.411 332.108 372.054 331.471 383.372C330.616 398.475 332.584 418.391 332.584 418.391C342.964 417.421 355.235 419.837 360.226 411.99V412Z" fill="#205972"/>
</g>
<path d="M324.343 316.462C324.343 316.462 324.343 321.436 324.6 323.034C324.847 324.622 323.421 328.588 323.146 329.016C322.87 329.444 324.21 329.863 325.684 330.376C326.244 333.268 327.556 337.091 328.25 337.862C328.944 338.632 336.092 336.853 336.092 336.853L336.691 342.37L346.235 336.853C346.235 336.853 343.678 333.211 343.944 331.575C344.22 329.929 347.423 319.639 341.957 315.758C336.492 311.878 327.233 312.125 324.343 316.481V316.462Z" fill="#E8A6A3"/>
<g style="mix-blend-mode:multiply" opacity="0.7">
<path d="M345.845 336.33C336.587 339.088 337.518 335.056 337.518 335.056C337.518 335.056 330.075 336.901 329.419 336.007C328.763 335.113 327.1 328.465 327.1 328.465L324.686 328.826C324.686 328.826 325.636 326.61 325.684 324.071C325.731 321.531 325.636 317.888 329.41 317.251C330.341 320.58 333.973 322.321 333.973 322.321L336.13 326.049L337.822 313.77C332.661 312.191 326.587 313.085 324.343 316.471C324.343 316.471 324.343 321.446 324.6 323.043C324.847 324.632 323.421 328.598 323.146 329.026C322.87 329.454 324.21 329.872 325.684 330.386C326.244 333.277 327.556 337.101 328.25 337.871C328.944 338.641 336.092 336.863 336.092 336.863L336.691 342.379L346.14 336.91C346.035 336.72 345.94 336.53 345.826 336.34L345.845 336.33Z" fill="#E8A6A3"/>
</g>
<path d="M336.139 326.049C336.139 326.049 334.628 324.023 334.694 320.799C331.272 320.799 330.436 318.06 330.302 316.471C326.681 316.072 322.736 316.3 321.662 315.511C320.578 314.721 328.439 309.405 333.145 309.015C337.85 308.625 343.078 309.956 345.616 313.019C348.154 316.785 343.715 332.088 343.715 332.088C343.715 332.088 340.93 327.694 340.065 326.924C339.2 326.144 336.139 326.068 336.139 326.068V326.049Z" fill="#C36357"/>
<g style="mix-blend-mode:multiply" opacity="0.4">
<path d="M329.408 323.5H326.68C326.68 323.5 327.706 326.03 329.408 323.5Z" fill="black"/>
</g>
<path d="M347.506 338.404L346.024 335.056L335.387 341.019L334.674 347.506L347.506 338.404Z" fill="white"/>
<path d="M349.256 340.705C346.975 340.972 340.388 345.927 335.787 367.688C329.608 369.153 311.614 369.514 311.614 369.514C311.614 369.514 309.314 377.389 311.614 383.381C322.479 382.154 345.255 380.014 346.699 380.014C348.382 379.853 354.58 358.7 354.561 353.327C354.542 347.943 353.296 340.23 349.256 340.705Z" fill="#205972"/>
<g style="mix-blend-mode:multiply" opacity="0.4">
<path d="M349.256 340.705C346.975 340.972 340.388 345.927 335.787 367.688C329.608 369.153 311.614 369.514 311.614 369.514C311.614 369.514 309.314 377.389 311.614 383.381C322.479 382.154 345.255 380.014 346.699 380.014C348.382 379.853 354.58 358.7 354.561 353.327C354.542 347.943 353.296 340.23 349.256 340.705Z" fill="#205972"/>
</g>
<g style="mix-blend-mode:multiply" opacity="0.4">
<path d="M317.707 378.987C313.116 377.018 312.983 372.444 313.458 369.467C312.308 369.495 311.614 369.514 311.614 369.514C311.614 369.514 309.314 377.389 311.614 383.381C320.131 382.421 335.968 380.899 343.106 380.29C336.595 380.709 323.002 381.26 317.707 378.987Z" fill="#205972"/>
</g>
<g style="mix-blend-mode:multiply" opacity="0.2">
<path d="M335.788 367.688L337.908 368.297L310.959 372.653C310.512 375.497 310.227 379.777 311.615 383.381C314.847 383.02 319.124 382.573 323.583 382.126C330.769 374.831 346.387 368.925 346.387 368.925C346.387 368.925 347.014 367.973 343.212 367.698C343.212 367.279 344.419 345.908 347.784 341.295C344.837 343.102 339.619 349.551 335.788 367.698V367.688Z" fill="#205972"/>
</g>
<g style="mix-blend-mode:multiply" opacity="0.8">
<path d="M313.231 379.815C312.385 378.417 311.976 375.031 311.777 372.52L310.959 372.653C310.512 375.497 310.227 379.777 311.615 383.381C314.847 383.02 319.124 382.573 323.583 382.126C323.678 382.021 323.792 381.926 323.887 381.831C319.096 381.574 313.963 381.023 313.221 379.815H313.231Z" fill="#205972"/>
</g>
<path d="M311.613 369.514H307.982C307.982 369.514 307.032 376.21 310.596 378.987C310.634 375.811 310.501 372.32 311.623 369.514H311.613Z" fill="white"/>
<path d="M307.982 369.514L303.011 367.964C303.011 367.964 302.193 365.672 301.167 364.645C300.14 363.617 298.001 364.321 296.737 364.645C295.473 364.968 292.935 364.73 292.621 365.206C292.308 365.681 291.908 368.611 292.621 369.524C293.334 370.437 301.813 374.26 301.813 374.26L308.581 376.048C308.581 376.048 307.441 373.29 307.992 369.524L307.982 369.514Z" fill="#E8A6A3"/>
<g style="mix-blend-mode:multiply" opacity="0.7">
<path d="M295.653 364.787C294.38 364.882 292.859 364.835 292.611 365.196C292.298 365.672 291.899 368.601 292.611 369.514C293.324 370.427 301.803 374.251 301.803 374.251L308.571 376.039C308.571 376.039 307.925 374.479 307.839 372.101C305.805 371.673 303.286 370.998 301.984 370.075C300.168 368.791 297.079 366.071 295.653 364.797V364.787Z" fill="#E8A6A3"/>
</g>
<path d="M299.542 364.103C299.542 364.103 300.607 362.343 301.168 360.441C301.729 358.539 297.765 362.02 296.738 364.635C298.373 364.236 299.552 364.103 299.552 364.103H299.542Z" fill="#258BC0"/>
<g style="mix-blend-mode:multiply">
<path d="M314.161 385.778L308.277 373.081L288.02 368.297L287.469 370.618L302.516 380.985L314.161 385.778Z" fill="black"/>
</g>
<path d="M311.612 384.932C311.612 384.932 310.367 385.883 306.593 385.322C302.829 384.77 301.802 381.47 301.992 380.309C302.192 379.139 306.051 382.44 306.051 382.44C306.051 382.44 305.671 379.853 305.994 379.463C306.308 379.063 309.064 384.095 311.612 384.932Z" fill="#E8A6A3"/>
<path opacity="0.5" d="M312.792 385.217L314.161 385.778L308.277 373.081L288.02 368.297L287.469 370.618L307.516 374.783L312.792 385.217Z" fill="#B69CC2"/>
<g style="mix-blend-mode:multiply" opacity="0.4">
<path d="M337.62 309.138C336.137 308.92 334.616 308.872 333.143 308.996C328.438 309.386 320.586 314.702 321.66 315.492C322.744 316.281 326.679 316.053 330.301 316.452C330.434 318.041 331.27 320.78 334.693 320.78C334.626 324.004 336.137 326.03 336.137 326.03C336.137 326.03 337.269 326.058 338.352 326.258L339.445 320.485C339.445 320.485 338.039 321.246 336.137 321.674C335.871 319.134 334.35 318.031 333.495 316.452C332.639 314.873 330.386 314.864 330.396 313.181C330.396 311.744 331.803 309.776 337.63 309.129L337.62 309.138Z" fill="#7A4B90"/>
</g>
<path d="M337.165 328.817C337.165 328.817 341.414 327.704 341.253 323.11C341.091 318.516 336.642 320.257 336.139 326.039C336.262 327.542 337.165 328.817 337.165 328.817Z" fill="#E8A6A3"/>
<path opacity="0.2" d="M349.257 340.705C348.972 340.743 348.62 340.848 348.221 341.048C351.149 342.541 352.869 348.704 350.35 362.029C348.193 373.433 346.976 378.217 346.453 380.024C346.558 380.024 346.653 380.024 346.7 380.024C348.383 379.862 354.58 358.71 354.561 353.336C354.542 347.953 353.297 340.239 349.257 340.715V340.705Z" fill="white"/>
<path opacity="0.3" d="M351.926 423.66C350.243 429.424 348.19 436.938 348.342 438.831C348.599 441.998 349.768 462.608 350.538 464.51C351.165 466.08 354.435 489.676 355.566 497.922C355.623 497.894 355.68 497.865 355.728 497.827C356.213 484.617 350.386 451.062 350.158 439.106C350.072 434.56 350.889 428.911 351.935 423.66H351.926Z" fill="white"/>
</g>
<defs>
<linearGradient id="paint0_linear_459_11542" x1="433.199" y1="189.727" x2="350.983" y2="277.934" gradientUnits="userSpaceOnUse">
<stop stop-opacity="0"/>
<stop offset="1" stop-opacity="0.5"/>
</linearGradient>
<linearGradient id="paint1_linear_459_11542" x1="412.501" y1="176.24" x2="434.872" y2="197.603" gradientUnits="userSpaceOnUse">
<stop stop-opacity="0"/>
<stop offset="1" stop-opacity="0.5"/>
</linearGradient>
<linearGradient id="paint2_linear_459_11542" x1="424.862" y1="180.635" x2="468.873" y2="180.635" gradientUnits="userSpaceOnUse">
<stop stop-opacity="0"/>
<stop offset="1" stop-opacity="0.5"/>
</linearGradient>
<linearGradient id="paint3_linear_459_11542" x1="-55" y1="455.865" x2="284.589" y2="455.865" gradientUnits="userSpaceOnUse">
<stop stop-opacity="0"/>
<stop offset="1" stop-opacity="0.5"/>
</linearGradient>
<linearGradient id="paint4_linear_459_11542" x1="14.8474" y1="455.827" x2="282.174" y2="455.827" gradientUnits="userSpaceOnUse">
<stop stop-opacity="0"/>
<stop offset="1" stop-opacity="0.5"/>
</linearGradient>
<linearGradient id="paint5_linear_459_11542" x1="346.985" y1="404.61" x2="357.205" y2="288.947" gradientUnits="userSpaceOnUse">
<stop stop-opacity="0"/>
<stop offset="1" stop-opacity="0.5"/>
</linearGradient>
<linearGradient id="paint6_linear_459_11542" x1="253.326" y1="467.649" x2="539.123" y2="467.649" gradientUnits="userSpaceOnUse">
<stop stop-opacity="0"/>
<stop offset="1" stop-opacity="0.5"/>
</linearGradient>
<linearGradient id="paint7_linear_459_11542" x1="260.347" y1="496.47" x2="347.369" y2="491.288" gradientUnits="userSpaceOnUse">
<stop stop-opacity="0"/>
<stop offset="1" stop-opacity="0.5"/>
</linearGradient>
<linearGradient id="paint8_linear_459_11542" x1="288.317" y1="514.795" x2="353.948" y2="501.748" gradientUnits="userSpaceOnUse">
<stop stop-opacity="0"/>
<stop offset="1" stop-opacity="0.5"/>
</linearGradient>
<clipPath id="clip0_459_11542">
<rect width="563" height="556" fill="white"/>
</clipPath>
</defs>
</svg>
