<svg width="80" height="80" viewBox="0 0 80 80" fill="none" xmlns="http://www.w3.org/2000/svg">
<g clip-path="url(#clip0_380_46360)">
<path d="M64.6895 23.2422C65.5523 23.2422 66.252 22.5427 66.252 21.6797V4.6875C66.252 2.10281 64.1491 0 61.5645 0H4.68945C2.10477 0 0.00195312 2.10281 0.00195312 4.6875V75.3125C0.00195312 77.8972 2.10477 80 4.68945 80H61.5645C64.1491 80 66.252 77.8972 66.252 75.3125V63.8013C66.252 62.9383 65.5523 62.2388 64.6895 62.2388C63.8266 62.2388 63.127 62.9383 63.127 63.8013V75.3125C63.127 76.1741 62.426 76.875 61.5645 76.875H4.68945C3.82789 76.875 3.12695 76.1741 3.12695 75.3125V4.6875C3.12695 3.82594 3.82789 3.125 4.68945 3.125H61.5645C62.426 3.125 63.127 3.82594 63.127 4.6875V21.6797C63.127 22.5427 63.8266 23.2422 64.6895 23.2422Z" fill="black"/>
<path d="M33.127 8.4375C25.2005 8.4375 18.752 14.8861 18.752 22.8125C18.752 26.9245 20.4879 30.6383 23.2648 33.2608C23.3168 33.3164 23.3721 33.3691 23.4326 33.417C25.9905 35.7575 29.3948 37.1873 33.1268 37.1873C36.8588 37.1873 40.263 35.7573 42.821 33.417C42.8815 33.3691 42.9368 33.3162 42.9888 33.2608C45.766 30.6383 47.502 26.9245 47.502 22.8125C47.502 14.8861 41.0534 8.4375 33.127 8.4375ZM33.127 34.0625C30.5755 34.0625 28.2209 33.2075 26.3315 31.7706C27.7048 29.3355 30.2674 27.8125 33.127 27.8125C35.9865 27.8125 38.5491 29.3355 39.9224 31.7706C38.0329 33.2075 35.6784 34.0625 33.127 34.0625ZM30.627 22.1875V21.1719C30.627 19.7934 31.7485 18.6719 33.127 18.6719C34.5054 18.6719 35.627 19.7934 35.627 21.1719V22.1875C35.627 23.5659 34.5054 24.6875 33.127 24.6875C31.7485 24.6875 30.627 23.5659 30.627 22.1875ZM42.1801 29.4817C41.0277 27.7727 39.4307 26.4434 37.5765 25.6228C38.3124 24.6717 38.752 23.4803 38.752 22.1875V21.1719C38.752 18.0702 36.2287 15.5469 33.127 15.5469C30.0252 15.5469 27.502 18.0702 27.502 21.1719V22.1875C27.502 23.4803 27.9415 24.6717 28.6774 25.6228C26.8232 26.4434 25.2262 27.7727 24.0738 29.4817C22.6943 27.6141 21.877 25.3073 21.877 22.8125C21.877 16.6092 26.9237 11.5625 33.127 11.5625C39.3302 11.5625 44.377 16.6092 44.377 22.8125C44.377 25.3073 43.5596 27.6141 42.1801 29.4817Z" fill="black"/>
<path d="M41.5645 68.4375H33.127C32.2641 68.4375 31.5645 69.137 31.5645 70C31.5645 70.863 32.2641 71.5625 33.127 71.5625H41.5645C42.4273 71.5625 43.127 70.863 43.127 70C43.127 69.137 42.4273 68.4375 41.5645 68.4375Z" fill="black"/>
<path d="M41.5645 59.6875H19.377C18.5141 59.6875 17.8145 60.387 17.8145 61.25C17.8145 62.113 18.5141 62.8125 19.377 62.8125H41.5645C42.4273 62.8125 43.127 62.113 43.127 61.25C43.127 60.387 42.4273 59.6875 41.5645 59.6875Z" fill="black"/>
<path d="M41.5645 50.9375H19.377C18.5141 50.9375 17.8145 51.637 17.8145 52.5C17.8145 53.363 18.5141 54.0625 19.377 54.0625H41.5645C42.4273 54.0625 43.127 53.363 43.127 52.5C43.127 51.637 42.4273 50.9375 41.5645 50.9375Z" fill="black"/>
<path d="M13.8073 42.6453C13.5168 42.3547 13.1137 42.1875 12.7012 42.1875C12.2901 42.1875 11.887 42.3547 11.5965 42.6453C11.3059 42.9359 11.1387 43.3391 11.1387 43.75C11.1387 44.1609 11.3057 44.5641 11.5965 44.8547C11.8887 45.1453 12.2901 45.3125 12.7012 45.3125C13.1137 45.3125 13.5152 45.1453 13.8073 44.8547C14.0979 44.5641 14.2652 44.1609 14.2652 43.75C14.2652 43.3391 14.098 42.9359 13.8073 42.6453Z" fill="black"/>
<path d="M13.8073 51.3953C13.5152 51.1047 13.1137 50.9375 12.7012 50.9375C12.2901 50.9375 11.8887 51.1047 11.5965 51.3953C11.3059 51.6859 11.1387 52.0891 11.1387 52.5C11.1387 52.9109 11.3057 53.3141 11.5965 53.6047C11.8887 53.8953 12.2901 54.0625 12.7012 54.0625C13.1137 54.0625 13.5152 53.8953 13.8073 53.6047C14.0979 53.3141 14.2652 52.9109 14.2652 52.5C14.2652 52.0891 14.098 51.6859 13.8073 51.3953Z" fill="black"/>
<path d="M13.8073 60.1453C13.5152 59.8547 13.1137 59.6875 12.7012 59.6875C12.2901 59.6875 11.8887 59.8547 11.5965 60.1453C11.3059 60.4359 11.1387 60.8391 11.1387 61.25C11.1387 61.6609 11.3057 62.0641 11.5965 62.3547C11.887 62.6453 12.2901 62.8125 12.7012 62.8125C13.1137 62.8125 13.5168 62.6453 13.8073 62.3547C14.0979 62.0641 14.2652 61.6609 14.2652 61.25C14.2652 60.8391 14.098 60.4359 13.8073 60.1453Z" fill="black"/>
<path d="M41.5645 42.1875H19.377C18.5141 42.1875 17.8145 42.887 17.8145 43.75C17.8145 44.613 18.5141 45.3125 19.377 45.3125H41.5645C42.4273 45.3125 43.127 44.613 43.127 43.75C43.127 42.887 42.4273 42.1875 41.5645 42.1875Z" fill="black"/>
<path d="M76.7188 20.3625C75.2008 19.4861 73.4324 19.2533 71.7389 19.7069C70.0458 20.1606 68.6305 21.2466 67.7543 22.7645L48.0914 56.8213C47.9838 57.008 47.9157 57.215 47.8918 57.4292L46.5077 69.8267C46.4389 70.4436 46.7418 71.0428 47.2793 71.3533C47.5219 71.4933 47.7915 71.5627 48.0604 71.5627C48.3872 71.5627 48.7129 71.4603 48.9871 71.2583L59.0315 63.8608C59.205 63.733 59.3504 63.5706 59.458 63.3839L79.1207 29.3272C80.93 26.1934 79.8525 22.1719 76.7188 20.3625ZM50.0096 66.6241L50.7324 60.1503L55.2546 62.7613L50.0096 66.6241ZM57.533 60.4681L51.5791 57.0306L67.358 29.7009L73.3119 33.1384L57.533 60.4681ZM76.4144 27.7645L74.8743 30.4322L68.9204 26.9947L70.4605 24.327C70.9196 23.5319 71.6608 22.9631 72.5477 22.7255C73.4349 22.4877 74.3611 22.6098 75.1561 23.0689C75.9513 23.528 76.52 24.2692 76.7577 25.1561C76.9954 26.043 76.8735 26.9694 76.4144 27.7645Z" fill="black"/>
</g>
<defs>
<clipPath id="clip0_380_46360">
<rect width="80" height="80" fill="white"/>
</clipPath>
</defs>
</svg>
