<svg width="80" height="80" viewBox="0 0 80 80" fill="none" xmlns="http://www.w3.org/2000/svg">
<path fill-rule="evenodd" clip-rule="evenodd" d="M66.8355 42.8552C66.8355 40.7515 66.2117 38.6951 65.043 36.946C63.8742 35.1969 62.2131 33.8337 60.2696 33.0287C58.3261 32.2237 56.1875 32.013 54.1243 32.4234C52.0611 32.8339 50.1659 33.8469 48.6785 35.3344C47.191 36.8219 46.178 38.717 45.7676 40.7803C45.3573 42.8435 45.5679 44.982 46.373 46.9255C47.178 48.869 48.5413 50.5301 50.2904 51.6988C52.0395 52.8675 54.0959 53.4913 56.1995 53.4912C59.0203 53.4909 61.7254 52.3702 63.72 50.3756C65.7145 48.381 66.8352 45.6759 66.8355 42.8552ZM47.4541 42.847C47.4539 41.1182 47.9665 39.4281 48.927 37.9906C49.8875 36.5531 51.2529 35.4328 52.8502 34.7715C54.4476 34.1101 56.2052 33.9374 57.9008 34.2751C59.5963 34.6129 61.1536 35.4459 62.3756 36.6689C63.5976 37.8919 64.4294 39.4498 64.7658 41.1457C65.1022 42.8415 64.928 44.599 64.2654 46.1958C63.6027 47.7926 62.4813 49.1571 61.0431 50.1164C59.6048 51.0758 57.9143 51.587 56.1855 51.5855C53.8693 51.5831 51.6487 50.6614 50.0116 49.023C48.3745 47.3845 47.4546 45.1632 47.4541 42.847ZM77.0278 69.6984C77.4828 70.4642 77.6158 71.379 77.3977 72.2426C77.1797 73.1062 76.6283 73.8483 75.8644 74.3063L73.7933 75.5419C73.0279 75.9979 72.1128 76.1314 71.249 75.9133C70.3852 75.6951 69.6433 75.143 69.1862 74.3783L67.25 71.1356H7.45906C4.72453 71.1356 2.5 68.7812 2.5 65.888V9.23141C2.5 6.33797 4.72453 3.98438 7.45906 3.98438H69.0697C71.8041 3.98438 74.0287 6.33844 74.0287 9.23187V64.6734L77.0277 69.6984H77.0278ZM7.45906 5.88766C5.77437 5.88766 4.40375 7.38766 4.40375 9.23141V16.3055H72.125V9.23141C72.125 7.38766 70.7542 5.88766 69.0697 5.88766H7.45906ZM7.45906 69.2314C5.77437 69.2314 4.40375 67.7314 4.40375 65.8877V18.2092H72.125V61.4844L72.1169 61.4708C71.822 60.9801 71.407 60.5726 70.911 60.2868C70.415 60.001 69.8544 59.8463 69.282 59.8372L66.7278 55.5028C66.9292 55.1026 67.0488 54.6662 67.0795 54.2192C67.1101 53.7723 67.0513 53.3237 66.9064 52.8997C69.0499 50.6154 70.4069 47.7056 70.7793 44.5953C71.1517 41.485 70.5201 38.3371 68.9765 35.6113C67.433 32.8855 65.0584 30.7246 62.1996 29.444C59.3408 28.1635 56.1475 27.8305 53.086 28.4936C50.0245 29.1567 47.2551 30.7812 45.1823 33.1298C43.1096 35.4785 41.842 38.4283 41.5646 41.5485C41.2873 44.6687 42.0147 47.7959 43.6407 50.4733C45.2667 53.1507 47.7061 55.2382 50.6027 56.4309C52.3835 57.158 54.2885 57.5324 56.212 57.5334H56.2213C57.1504 57.533 58.0774 57.4444 58.9898 57.2687C59.2987 57.6713 59.6946 57.9987 60.1479 58.2266C60.6012 58.4545 61.1002 58.5769 61.6075 58.5847L64.1627 62.9206C63.9103 63.4256 63.7884 63.9856 63.808 64.5498C63.8275 65.1139 63.988 65.6642 64.2747 66.1505L66.1137 69.2319H7.45859L7.45906 69.2314ZM65.5289 61.488L67.3909 60.3773L65.3597 56.9306L63.4977 58.0411L65.5289 61.488ZM59.2072 55.2742C56.1971 56.0043 53.0244 55.617 50.2783 54.1844C47.5322 52.7517 45.3995 50.3711 44.2761 47.4847C43.1528 44.5982 43.1153 41.4022 44.1705 38.4902C45.2257 35.5781 47.302 33.1481 50.0137 31.6513C52.7254 30.1546 55.8882 29.693 58.9145 30.3521C61.9409 31.0113 64.6252 32.7465 66.4688 35.2353C68.3124 37.7242 69.19 40.7977 68.9386 43.8848C68.6872 46.9719 67.3239 49.8628 65.1019 52.0206C64.9417 52.1785 64.8417 52.3874 64.8191 52.6112C64.7965 52.835 64.8527 53.0597 64.9781 53.2464C65.1761 53.5781 65.2343 53.9748 65.1399 54.3493C65.0454 54.7239 64.8061 55.0456 64.4745 55.2438C63.8392 55.623 62.3402 56.6847 61.6577 56.6847C61.4056 56.6846 61.1578 56.6192 60.9385 56.4949C60.7192 56.3706 60.5358 56.1916 60.4062 55.9753C60.1264 55.4997 59.8177 55.125 59.2072 55.2742ZM74.8889 72.6719C75.1053 72.5414 75.2843 72.3572 75.4085 72.1371C75.5327 71.917 75.5979 71.6685 75.5977 71.4158C75.5976 71.1547 75.5268 70.8984 75.393 70.6742L70.4823 62.4459C70.2833 62.1154 69.9617 61.8769 69.5875 61.7824C69.2134 61.688 68.8171 61.7452 68.485 61.9417L66.4141 63.1775C66.0842 63.3771 65.8462 63.6986 65.7518 64.0724C65.6574 64.4463 65.7141 64.8423 65.9097 65.1745L70.8205 73.4031C70.9499 73.6195 71.1333 73.7986 71.3527 73.923C71.572 74.0474 71.8199 74.1128 72.072 74.1128C72.7542 74.1128 74.2536 73.0503 74.8889 72.6719ZM26.9478 11.5164C26.9479 11.7688 27.0482 12.0109 27.2267 12.1894C27.4052 12.3679 27.6472 12.4682 27.8997 12.4683H65.1481C65.2731 12.4683 65.3969 12.4437 65.5124 12.3958C65.6279 12.348 65.7328 12.2779 65.8212 12.1895C65.9096 12.1011 65.9797 11.9962 66.0275 11.8807C66.0754 11.7652 66.1 11.6414 66.1 11.5164C66.1 11.3914 66.0754 11.2676 66.0275 11.1521C65.9797 11.0367 65.9096 10.9317 65.8212 10.8433C65.7328 10.7549 65.6279 10.6848 65.5124 10.637C65.3969 10.5892 65.2731 10.5645 65.1481 10.5645H27.8997C27.6472 10.5646 27.4052 10.6649 27.2267 10.8434C27.0482 11.0219 26.9479 11.264 26.9478 11.5164ZM20.8723 11.5164C20.8724 11.7688 20.9727 12.0109 21.1512 12.1894C21.3297 12.3679 21.5718 12.4682 21.8242 12.4683H21.828C22.0164 12.4678 22.2004 12.4115 22.3568 12.3064C22.5132 12.2014 22.635 12.0524 22.7068 11.8782C22.7785 11.704 22.797 11.5124 22.76 11.3277C22.7229 11.143 22.6319 10.9734 22.4985 10.8403C22.3652 10.7073 22.1953 10.6167 22.0105 10.5802C21.8257 10.5436 21.6342 10.5626 21.4601 10.6348C21.2861 10.707 21.1374 10.8292 21.0328 10.9859C20.9282 11.1426 20.8723 11.3268 20.8723 11.5152V11.5161V11.5164ZM15.6498 11.5164C15.6498 11.7688 15.75 12.0109 15.9284 12.1894C16.1068 12.3679 16.3489 12.4682 16.6012 12.4683H16.605C16.7934 12.4678 16.9774 12.4115 17.1338 12.3064C17.2903 12.2014 17.412 12.0524 17.4838 11.8782C17.5555 11.704 17.5741 11.5124 17.537 11.3277C17.4999 11.143 17.409 10.9734 17.2756 10.8403C17.1422 10.7073 16.9723 10.6167 16.7875 10.5802C16.6027 10.5436 16.4112 10.5626 16.2372 10.6348C16.0632 10.707 15.9145 10.8292 15.8098 10.9859C15.7052 11.1426 15.6494 11.3268 15.6494 11.5152V11.5161L15.6498 11.5164ZM10.4277 11.5164H10.4286C10.4284 11.7688 10.5285 12.0109 10.7068 12.1895C10.8852 12.3681 11.1271 12.4685 11.3795 12.4688H11.3833C11.5717 12.4683 11.7557 12.4119 11.9121 12.3069C12.0685 12.2019 12.1903 12.0528 12.2621 11.8786C12.3338 11.7044 12.3523 11.5129 12.3153 11.3282C12.2782 11.1434 12.1873 10.9738 12.0539 10.8408C11.9205 10.7077 11.7506 10.6172 11.5658 10.5806C11.381 10.5441 11.1895 10.5631 11.0155 10.6353C10.8414 10.7075 10.6927 10.8297 10.5881 10.9864C10.4835 11.143 10.4277 11.3272 10.4277 11.5156V11.5164ZM45.7031 57.6677C45.9556 57.6677 46.1977 57.7679 46.3762 57.9465C46.5547 58.125 46.655 58.3671 46.655 58.6195C46.655 58.872 46.5547 59.1141 46.3762 59.2926C46.1977 59.4711 45.9556 59.5714 45.7031 59.5714H39.5781L38.607 61.9142C38.5348 62.088 38.4127 62.2365 38.2562 62.3411C38.0997 62.4456 37.9157 62.5014 37.7275 62.5016H29.9834C29.731 62.5015 29.4889 62.4011 29.3105 62.2226C29.132 62.0441 29.0317 61.802 29.0317 61.5495C29.0317 61.168 29.6023 59.9831 29.773 59.5716H15.0616C14.8091 59.5715 14.567 59.4712 14.3885 59.2927C14.21 59.1142 14.1097 58.8721 14.1097 58.6197V54.8242H12.55C12.4032 54.8242 12.2583 54.7902 12.1268 54.7249C11.9953 54.6596 11.8806 54.5649 11.7917 54.448L9.28 51.138C9.15508 50.9721 9.08752 50.7702 9.08752 50.5626C9.08752 50.355 9.15508 50.153 9.28 49.9872L11.7919 46.6767C11.8806 46.5598 11.9953 46.4649 12.1268 46.3996C12.2583 46.3343 12.4032 46.3003 12.55 46.3003H14.1094V40.5405C14.1095 40.2881 14.2099 40.0461 14.3884 39.8677C14.5669 39.6893 14.8089 39.589 15.0612 39.5889H29.8634L34.1178 35.3348V31.0914H19.8852V33.0695C19.8851 33.322 19.7848 33.5641 19.6063 33.7426C19.4278 33.9211 19.1857 34.0214 18.9333 34.0214H11.1898C10.9374 34.0214 10.6953 33.9211 10.5168 33.7427C10.3383 33.5642 10.238 33.3221 10.238 33.0697V27.2103C10.238 26.9579 10.3382 26.7158 10.5167 26.5372C10.6952 26.3587 10.9372 26.2584 11.1897 26.2583H18.9333C19.1857 26.2584 19.4278 26.3587 19.6063 26.5372C19.7848 26.7158 19.8851 26.9579 19.8852 27.2103V29.1892H35.07C35.3224 29.1893 35.5645 29.2896 35.743 29.4681C35.9215 29.6466 36.0218 29.8887 36.0219 30.1411V35.3364L40.5547 39.8694C40.7323 40.0484 40.8319 40.2903 40.8319 40.5425C40.8319 40.7947 40.7323 41.0366 40.5547 41.2156L36.0219 45.7486V54.7375H40.1562C40.3128 54.7375 40.4669 54.7762 40.605 54.85C40.743 54.9238 40.8608 55.0305 40.9477 55.1607C41.0347 55.2909 41.0882 55.4405 41.1035 55.5963C41.1189 55.7521 41.0955 55.9093 41.0356 56.0539L40.3667 57.6677H45.7031ZM17.9814 32.1175V28.1614H12.1417V32.1175H17.9814ZM35.0698 37.0753L31.6042 40.5405L35.0698 44.007L38.5356 40.5405L35.0698 37.0753ZM11.2328 50.5625L13.0223 52.9209H17.1005L18.8906 50.5625L17.1011 48.2048H13.023L11.2328 50.5625ZM16.0141 57.6677H30.5622L31.5339 55.3256C31.606 55.1518 31.728 55.0032 31.8846 54.8987C32.0411 54.7941 32.2251 54.7383 32.4133 54.7383H34.1187V45.7478L29.8644 41.493H16.0134V46.3017H17.573C17.7198 46.3018 17.8647 46.3358 17.9962 46.4011C18.1277 46.4665 18.2424 46.5614 18.3311 46.6784L20.8438 49.9872C20.9687 50.153 21.0363 50.355 21.0363 50.5627C21.0363 50.7703 20.9687 50.9723 20.8438 51.1381L18.3322 54.4478C18.2433 54.5647 18.1287 54.6595 17.9971 54.7248C17.8656 54.7901 17.7208 54.8241 17.5739 54.8242H16.0139V57.668L16.0141 57.6677ZM37.0922 60.5975C37.6387 59.2788 38.1856 57.96 38.7328 56.6413H33.0484C32.5019 57.96 31.955 59.2788 31.4078 60.5975H37.0922Z" fill="black"/>
</svg>
