<svg width="80" height="80" viewBox="0 0 80 80" fill="none" xmlns="http://www.w3.org/2000/svg">
<g clip-path="url(#clip0_380_46426)">
<path d="M72.0314 15.3889L44.5312 15.3887C43.8841 15.3887 43.3594 15.9134 43.3594 16.5606V28.4359C43.3594 29.0833 43.8841 29.6078 44.5312 29.6078H72.0314C72.6786 29.6078 73.2033 29.0833 73.2033 28.4361V16.5608C73.2033 15.9134 72.6786 15.3889 72.0314 15.3889ZM61.4845 27.2641H45.7031V17.7325H61.4845V27.2641ZM66.172 27.2641H63.8283V17.7325H66.172V27.2641ZM70.8595 27.2641H68.5158V17.7325H70.8595V27.2641Z" fill="black"/>
<path d="M67.3439 36.6394H52.5392C51.892 36.6394 51.3673 37.1641 51.3673 37.8112C51.3673 38.4584 51.892 38.9831 52.5392 38.9831H61.4845V48.5147H45.7031V38.9831H47.6953C48.3425 38.9831 48.8672 38.4584 48.8672 37.8112C48.8672 37.1641 48.3425 36.6394 47.6953 36.6394H44.5312C43.8841 36.6394 43.3594 37.1641 43.3594 37.8112V49.6866C43.3594 50.3339 43.8841 50.8584 44.5312 50.8584H67.3439C67.9911 50.8584 68.5158 50.3337 68.5158 49.6866V37.8112C68.5158 37.1639 67.9911 36.6394 67.3439 36.6394ZM66.172 48.5147H63.8283V38.9831H66.172V48.5147Z" fill="black"/>
<path d="M27.3584 9.13609L18.6043 0.513438C17.9091 -0.170938 16.778 -0.171406 16.0827 0.513594L7.32883 9.13609C6.81242 9.64484 6.65586 10.4062 6.93039 11.0756C7.20664 11.7498 7.85805 12.1855 8.58977 12.1855H11.302V14.9852C11.302 15.6325 11.8266 16.157 12.4738 16.157C13.121 16.157 13.6457 15.6323 13.6457 14.9852V12.1855H20.677V32.4466H13.6457V19.9722C13.6457 19.3248 13.121 18.8003 12.4738 18.8003C11.8266 18.8003 11.302 19.325 11.302 19.9722V78.8281C11.302 79.4755 11.8266 80 12.4738 80H21.8488C22.496 80 23.0207 79.4753 23.0207 78.8281V12.1855H26.0974C26.8291 12.1855 27.4805 11.7498 27.7568 11.0756C28.0312 10.4062 27.8748 9.64484 27.3584 9.13609ZM20.677 77.6562H13.6457V57.3952H20.677V77.6562ZM20.677 55.0514H13.6457V34.7905H20.677V55.0514ZM9.95258 9.84172L17.3435 2.56156L24.7345 9.84172H9.95258Z" fill="black"/>
<path d="M53.5938 18.9827C51.6552 18.9827 50.0781 20.5598 50.0781 22.4984C50.0781 24.437 51.6552 26.0142 53.5938 26.0142C55.5323 26.0142 57.1094 24.437 57.1094 22.4984C57.1094 20.5598 55.5323 18.9827 53.5938 18.9827ZM53.5938 23.6703C52.9475 23.6703 52.4219 23.1447 52.4219 22.4984C52.4219 21.8522 52.9475 21.3266 53.5938 21.3266C54.24 21.3266 54.7656 21.8522 54.7656 22.4984C54.7656 23.1445 54.24 23.6703 53.5938 23.6703Z" fill="black"/>
<path d="M53.5938 40.2331C51.6552 40.2331 50.0781 41.8103 50.0781 43.7489C50.0781 45.6875 51.6552 47.2647 53.5938 47.2647C55.5323 47.2647 57.1094 45.6875 57.1094 43.7489C57.1094 41.8103 55.5323 40.2331 53.5938 40.2331ZM53.5938 44.9208C52.9475 44.9208 52.4219 44.3952 52.4219 43.7489C52.4219 43.1027 52.9475 42.577 53.5938 42.577C54.24 42.577 54.7656 43.1027 54.7656 43.7489C54.7656 44.3952 54.24 44.9208 53.5938 44.9208Z" fill="black"/>
<path d="M62.6564 60.0775H44.5312C43.8841 60.0775 43.3594 60.6022 43.3594 61.2494V73.1247C43.3594 73.772 43.8841 74.2966 44.5312 74.2966H55C55.6472 74.2966 56.1719 73.7719 56.1719 73.1247C56.1719 72.4775 55.6472 71.9528 55 71.9528H45.7031V62.4212H61.4845V71.9528H60.0783C59.4311 71.9528 58.9064 72.4775 58.9064 73.1247C58.9064 73.7719 59.4311 74.2966 60.0783 74.2966H62.6564C63.3036 74.2966 63.8283 73.7719 63.8283 73.1247V61.2494C63.8283 60.6022 63.3036 60.0775 62.6564 60.0775Z" fill="black"/>
<path d="M53.5938 63.6714C51.6552 63.6714 50.0781 65.2486 50.0781 67.1872C50.0781 69.1258 51.6552 70.703 53.5938 70.703C55.5323 70.703 57.1094 69.1258 57.1094 67.1872C57.1094 65.2486 55.5323 63.6714 53.5938 63.6714ZM53.5938 68.3591C52.9475 68.3591 52.4219 67.8334 52.4219 67.1872C52.4219 66.5409 52.9475 66.0153 53.5938 66.0153C54.24 66.0153 54.7656 66.5409 54.7656 67.1872C54.7656 67.8334 54.24 68.3591 53.5938 68.3591Z" fill="black"/>
<path d="M39.5934 20.2733L34.9059 17.1481C34.5462 16.9083 34.0839 16.8859 33.703 17.09C33.322 17.2939 33.0841 17.6911 33.0841 18.1231V20.0763H26.9922C26.345 20.0763 25.8203 20.6009 25.8203 21.2481C25.8203 21.8953 26.345 22.42 26.9922 22.42H33.0841V24.3731C33.0841 24.8053 33.3219 25.2025 33.703 25.4064C33.8762 25.4992 34.0662 25.5452 34.2559 25.5452C34.4833 25.5452 34.71 25.4791 34.9061 25.3483L39.5936 22.2231C39.9195 22.0058 40.1155 21.6398 40.1155 21.2481C40.1155 20.8564 39.9195 20.4905 39.5934 20.2733ZM35.4278 22.1838V20.313L36.8308 21.2483L35.4278 22.1838Z" fill="black"/>
<path d="M39.5934 42.8866L34.9059 39.7614C34.5462 39.5216 34.0839 39.4991 33.703 39.7033C33.322 39.9072 33.0841 40.3044 33.0841 40.7364V42.6895H26.9922C26.345 42.6895 25.8203 43.2142 25.8203 43.8614C25.8203 44.5086 26.345 45.0333 26.9922 45.0333H33.0841V46.9864C33.0841 47.4186 33.3219 47.8158 33.703 48.0195C33.8762 48.1123 34.0662 48.1583 34.2559 48.1583C34.4833 48.1583 34.71 48.0922 34.9061 47.9614L39.5936 44.8363C39.9195 44.6189 40.1155 44.253 40.1155 43.8613C40.1153 43.4697 39.9195 43.1038 39.5934 42.8866ZM35.4278 44.7969V42.9261L36.8308 43.8616L35.4278 44.7969Z" fill="black"/>
<path d="M39.5934 66.212L34.9059 63.0869C34.5462 62.847 34.0839 62.8245 33.703 63.0288C33.322 63.2327 33.0841 63.6298 33.0841 64.062V66.0152H26.9922C26.345 66.0152 25.8203 66.5398 25.8203 67.187C25.8203 67.8342 26.345 68.3589 26.9922 68.3589H33.0841V70.312C33.0841 70.7442 33.3219 71.1414 33.703 71.3452C33.8762 71.438 34.0662 71.4839 34.2559 71.4839C34.4833 71.4839 34.71 71.4178 34.9061 71.287L39.5936 68.1619C39.9195 67.9445 40.1155 67.5786 40.1155 67.1869C40.1153 66.7953 39.9195 66.4294 39.5934 66.212ZM35.4278 68.1225V66.2517L36.8308 67.1872L35.4278 68.1225Z" fill="black"/>
</g>
<defs>
<clipPath id="clip0_380_46426">
<rect width="80" height="80" fill="white"/>
</clipPath>
</defs>
</svg>
