<svg width="934" height="1101" viewBox="0 0 934 1101" fill="none" xmlns="http://www.w3.org/2000/svg">
<path d="M441.5 0H950V1101H441.5V0Z" fill="#B68B60"/>
<path d="M352.937 383.123C352.937 383.123 347.016 384.145 347.016 388.07C347.016 391.995 348.992 398.899 348.992 398.899L350.96 406.301L356.721 411.227L358.845 408.308C358.845 408.308 361.155 406.229 363.284 405.972C370.624 405.089 370.679 402.934 370.679 402.934L377.086 399.393C377.086 399.393 379.548 394.471 377.086 392.988C374.624 391.505 367.503 387.069 366.874 387.069C366.244 387.069 362.794 377.702 362.794 377.702L355.564 367.837C355.564 367.837 350.47 371.926 351.454 374.571C352.438 377.208 353.921 378.196 353.427 380.66L352.937 383.127V383.123Z" fill="url(#paint0_linear_573_132953)"/>
<path d="M499.856 493.066C496.502 495.06 493.411 496.378 487.73 498.115C472.864 502.661 468.734 504.313 452.216 507.203C435.695 510.097 417.526 502.661 403.074 511.749C388.617 520.841 386.003 521.111 386.003 521.111L378.98 522.493C378.98 522.493 360.046 519.476 356.959 522.349C354.273 524.859 357.647 522.493 345.256 537.365C332.869 552.237 337.067 546.064 332.869 552.237C323.721 565.698 321.31 559.673 324.608 572.069C327.915 584.465 341.958 596.029 341.958 596.029C341.958 596.029 363.429 597.685 367.56 599.333C371.69 600.989 402.246 603.055 402.246 603.055C402.246 603.055 424.119 634.451 428.245 641.063C432.379 647.675 432.688 654.659 435.695 666.679C436.189 668.652 436.586 670.313 436.907 671.707C476.695 632.998 501.406 578.837 501.406 518.918C501.406 510.168 500.878 501.541 499.851 493.07L499.856 493.066Z" fill="url(#paint1_linear_573_132953)"/>
<path d="M448.329 491.566C450.306 496.015 451.788 480.699 457.713 480.205C463.647 479.71 458.208 475.756 451.788 472.148C445.369 468.531 440.922 453.528 436.977 448.585C433.015 443.642 442.902 432.775 452.781 428.499C462.651 424.224 460.682 433.772 465.117 438.208C469.568 442.661 464.133 446.612 468.082 454.263C472.035 461.923 472.529 463.406 476.913 460.939C481.297 458.467 475.025 455.708 474.341 447.106C474.016 442.983 474.016 438.711 480.435 444.043C486.719 449.252 489.688 467.538 488.417 445.463C460.167 368.466 388.789 312.316 303.57 306.287L335.685 322.46L353.334 329.63C353.334 329.63 379.269 332.938 382.023 335.148C384.781 337.358 384.781 343.982 387.543 345.423C390.301 346.868 401.332 357.228 416.223 361.089C424.945 363.354 428.18 372.645 429.366 379.941C426.444 381.428 425.122 385.708 425.122 387.318C425.122 389.3 427.593 391.776 427.099 394.353C426.609 396.943 420.185 396.216 415.742 394.957C411.295 393.719 413.766 394.733 411.295 394.957C408.828 395.194 404.88 398.189 401.421 402.722C397.962 407.252 390.554 407.091 384.629 408.105C378.703 409.136 380.186 405.604 372.284 408.105C364.378 410.606 360.923 427.832 363.888 435.242C366.853 442.657 365.362 447.106 363.385 454.263C361.413 461.429 358.643 464.534 357.958 486.141C356.814 522.197 372.774 507.367 382.656 508.859C392.531 510.333 391.052 505.398 393.02 501.444C394.993 497.493 388.573 487.121 388.083 477.733C387.589 468.345 387.091 466.364 388.083 463.837C389.067 461.319 393.51 456.494 397.459 452.037C401.416 447.6 411.785 447.106 415.244 447.106C418.703 447.106 438.949 466.871 445.364 475.756C451.784 484.654 446.348 487.125 448.329 491.562V491.566Z" fill="url(#paint2_linear_573_132953)"/>
<path d="M97.9143 423.125C97.8594 423.357 97.8172 423.59 97.8003 423.826C97.2808 431.338 94.1218 439.573 89.852 448.745C86.355 456.274 85.6497 458.674 83.4452 461.222C83.234 461.467 83.0608 461.733 82.913 462.02C77.9084 480.133 75.2266 499.209 75.2266 518.914C75.2266 523.135 75.3617 527.326 75.6067 531.488C75.7587 532.062 76.0248 532.599 76.4091 533.064L78.7193 535.882C79.4752 536.794 80.5775 537.361 81.7601 537.394C84.1631 537.454 88.1288 538.13 87.6474 542.017C86.9674 547.564 90.7811 553.428 90.5995 555.815C90.4137 558.19 96.4277 558.811 96.0518 568.199C95.7646 575.656 96.7655 580.396 97.1879 582.036C97.3061 582.479 97.3484 582.936 97.3146 583.392C97.1457 585.623 96.622 592.628 96.1701 598.543C95.6295 605.692 98.5098 609.895 100.647 613.25C102.661 616.393 103.434 617.34 103.498 624.417C103.498 624.708 103.552 624.996 103.616 625.279C131.84 674.221 178.939 710.894 234.966 725.348C235.692 723.928 236.199 722.399 236.279 721.351V721.313C236.44 719.23 237.719 709.546 237.985 707.535C238.023 707.294 238.04 707.053 238.023 706.808C237.93 704.726 237.508 694.163 238.484 690.635C239.569 686.731 236.52 684.931 229.458 672.425C222.401 659.919 229.513 661.255 230.89 653.379C232.263 645.504 231.68 643.062 233.623 638.41C235.57 633.771 233.623 638.41 232.322 634.32C231.013 630.235 211.497 610.909 206.766 602.869C202.041 594.812 198.159 600.626 191.073 599.291C183.999 597.964 191.073 599.291 175.083 597.056C167.071 595.94 166.742 598.175 164.069 597.681C160.563 597.043 157.628 598.378 152.066 596.781C146.5 595.188 138.729 603.478 134.121 600.879C129.522 598.281 128.926 596.823 126.836 594.888C124.741 592.953 117.941 592.353 115.188 584.275C112.443 576.201 115.336 577.485 113.241 570.358C111.154 563.226 111.877 562.06 111.138 561.219C110.403 560.37 105.318 556.394 108.401 547.239C109.837 542.976 107.142 545.346 107.864 535.823C108.578 526.295 115.458 532.933 118.963 528.835C122.456 524.736 127.106 526.621 131.549 520.579C135.996 514.529 144.73 515.179 152.273 507.824C159.82 500.459 167.054 499.952 167.734 498.389L191.258 480.817C191.372 480.729 191.478 480.64 191.579 480.543C192.69 479.508 198.476 473.525 192.466 466.545C185.869 458.869 195.473 458.391 185.869 458.869C180.662 459.122 176.485 461.209 173.753 463.077C171.755 464.446 169.018 463.841 167.815 461.733C166.873 460.081 165.779 458.269 164.77 456.874C162.802 454.145 158.169 447.824 156.458 445.501C156.04 444.926 155.466 444.47 154.811 444.182C153.126 443.422 149.722 441.947 147.623 441.25C146.402 440.845 145.427 439.919 144.983 438.707C144.384 437.017 143.809 435.331 143.294 433.692C142.699 431.782 143.526 429.725 145.292 428.787L164.069 418.773C166.032 417.721 168.478 418.41 169.593 420.341C171.155 423.07 173.685 426.75 176.933 429.057C181.583 432.348 189.848 433.726 192.699 434.114C193.319 434.195 193.94 434.127 194.54 433.928C196.048 433.438 199.131 432.699 199.65 434.685C201.508 441.673 206.357 446.591 210.124 449.506C212.426 451.28 215.792 450.178 216.611 447.389L222.895 426.019C223.035 425.546 223.25 425.111 223.542 424.718L236.524 407.155C238.923 403.901 239.392 399.609 237.736 395.925L235.405 390.757C234.07 387.8 231.22 385.793 227.98 385.548L221.341 385.049L195.984 384.479C194.743 384.454 193.59 383.866 192.825 382.886C191.562 381.285 189.066 379.544 185.527 383.816L181.638 388.514C180.776 389.562 179.45 390.119 178.098 390.001L160.517 388.48C160.204 388.459 159.896 388.391 159.596 388.298C158.354 387.893 154.748 386.735 152.391 386.127C151.323 385.852 150.436 385.147 149.874 384.204C149.169 383.042 147.885 381.648 147.847 380.351C147.564 363.891 160.166 349.648 163.625 346.053C136.009 366.024 113.376 392.447 97.927 423.125H97.9143Z" fill="url(#paint3_linear_573_132953)"/>
<path d="M715.046 713.661H680.094V722.61H715.046V713.661Z" fill="#3D414A"/>
<path d="M772.768 560.653H352.344V715.816H772.768V560.653Z" fill="url(#paint4_linear_573_132953)"/>
<path d="M768.057 565.926H357.055V710.543H768.057V565.926Z" fill="url(#paint5_linear_573_132953)"/>
<path d="M768.059 579.323H629.766L637.976 592.074H768.059V579.323Z" fill="white"/>
<path d="M870.481 760.136H903.575C909.475 760.136 910.455 751.078 910.13 744.284C909.8 737.49 905.868 736.844 905.868 736.844L890.33 731.668V723.582L906.523 725.2C906.523 725.2 910.184 725.2 910.184 718.731C910.184 712.263 908.871 669.772 907.836 668.424C906.797 667.076 904.669 666.591 904.669 666.591L899.808 622.811C899.808 622.811 900.952 620.872 900.627 619.089C900.298 617.31 898.988 605.501 892.763 602.916C886.538 600.33 788.561 593.532 785.942 600.005C783.32 606.473 785.942 720.349 785.942 720.349L790.204 722.614H698.456C698.456 722.614 694.414 718.731 692.011 718.085C689.608 717.438 653.562 718.085 653.562 718.085C653.562 718.085 641.986 718.516 638.269 728.867C634.557 739.218 635.212 751.944 635.866 753.668C636.521 755.392 640.892 760.136 640.892 760.136H870.485H870.481Z" fill="url(#paint6_linear_573_132953)"/>
<path d="M904.67 666.591L830.162 659.759C823.899 659.184 818.468 655.154 816.297 649.323C815.638 647.549 815.144 645.512 814.946 643.193C813.962 631.709 817.894 620.378 825.757 620.386C828.709 620.386 899.814 622.811 899.814 622.811L904.675 666.591H904.67Z" fill="#454A54"/>
<path d="M831.101 659.843C831.101 659.843 823.296 639.47 832.144 629.601C836.165 625.118 900.431 628.392 900.431 628.392L904.672 666.59L831.101 659.843Z" fill="#B8B8B8"/>
<path d="M911.93 748.057C911.11 753.342 910.945 760.136 905.21 760.136H640.889C640.889 760.136 629.802 760.297 629.802 758.843C629.802 757.39 628.958 747.461 635.36 748.057C639.516 748.446 743.283 748.327 816.748 748.205C841.18 748.158 862.255 748.116 875.212 748.087C883.376 748.065 888.321 748.053 888.832 748.053C892.599 748.053 892.612 738.542 909.809 741.817C909.809 741.817 912.753 742.767 911.934 748.053L911.93 748.057Z" fill="url(#paint7_linear_573_132953)"/>
<path d="M869.794 748.057C869.794 761.04 859.134 771.565 845.983 771.565C832.832 771.565 822.172 761.04 822.172 748.057C822.172 735.074 832.832 724.549 845.983 724.549C859.134 724.549 869.794 735.074 869.794 748.057Z" fill="#3D414A"/>
<path d="M849.837 748.057C849.837 750.161 848.109 751.864 845.981 751.864C843.852 751.864 842.125 750.161 842.125 748.057C842.125 745.953 843.852 744.25 845.981 744.25C848.109 744.25 849.837 745.957 849.837 748.057Z" fill="#ADA9A2"/>
<path d="M845.984 765.253C836.38 765.253 828.562 757.538 828.562 748.057C828.562 738.576 836.376 730.857 845.984 730.857C855.592 730.857 863.405 738.572 863.405 748.057C863.405 757.542 855.592 765.253 845.984 765.253ZM845.984 731.22C836.583 731.22 828.934 738.77 828.934 748.053C828.934 757.335 836.583 764.885 845.984 764.885C855.385 764.885 863.033 757.335 863.033 748.053C863.033 738.77 855.385 731.22 845.984 731.22Z" fill="#ADA9A2"/>
<path d="M848.697 748.057C848.697 749.536 847.48 750.736 845.981 750.736C844.482 750.736 843.266 749.536 843.266 748.057C843.266 746.578 844.482 745.378 845.981 745.378C847.48 745.378 848.697 746.578 848.697 748.057Z" fill="#3D414A"/>
<path d="M875.218 748.057V748.091C875.209 752.392 874.255 756.477 872.536 760.136H819.432C817.73 756.507 816.771 752.464 816.75 748.205V748.057C816.75 732.12 829.838 719.196 845.984 719.196C862.13 719.196 875.214 732.125 875.214 748.057H875.218Z" fill="#26292E"/>
<path d="M696.437 748.057V748.091C696.428 752.392 695.474 756.477 693.755 760.136H640.651C638.944 756.507 637.99 752.464 637.969 748.205V748.057C637.969 732.12 651.057 719.196 667.203 719.196C683.348 719.196 696.432 732.125 696.432 748.057H696.437Z" fill="#26292E"/>
<path d="M869.794 748.057C869.794 761.04 859.134 771.565 845.983 771.565C832.832 771.565 822.172 761.04 822.172 748.057C822.172 735.074 832.832 724.549 845.983 724.549C859.134 724.549 869.794 735.074 869.794 748.057Z" fill="#3D414A"/>
<path d="M849.837 748.057C849.837 750.161 848.109 751.864 845.981 751.864C843.852 751.864 842.125 750.161 842.125 748.057C842.125 745.953 843.852 744.25 845.981 744.25C848.109 744.25 849.837 745.957 849.837 748.057Z" fill="#ADA9A2"/>
<path d="M845.984 765.253C836.38 765.253 828.562 757.538 828.562 748.057C828.562 738.576 836.376 730.857 845.984 730.857C855.592 730.857 863.405 738.572 863.405 748.057C863.405 757.542 855.592 765.253 845.984 765.253ZM845.984 731.22C836.583 731.22 828.934 738.77 828.934 748.053C828.934 757.335 836.583 764.885 845.984 764.885C855.385 764.885 863.033 757.335 863.033 748.053C863.033 738.77 855.385 731.22 845.984 731.22Z" fill="#ADA9A2"/>
<path d="M848.697 748.057C848.697 749.536 847.48 750.736 845.981 750.736C844.482 750.736 843.266 749.536 843.266 748.057C843.266 746.578 844.482 745.378 845.981 745.378C847.48 745.378 848.697 746.578 848.697 748.057Z" fill="#3D414A"/>
<path d="M667.21 771.565C680.36 771.565 691.021 761.04 691.021 748.057C691.021 735.074 680.36 724.549 667.21 724.549C654.059 724.549 643.398 735.074 643.398 748.057C643.398 761.04 654.059 771.565 667.21 771.565Z" fill="#3D414A"/>
<path d="M671.063 748.057C671.063 750.161 669.336 751.864 667.207 751.864C665.079 751.864 663.352 750.161 663.352 748.057C663.352 745.953 665.079 744.25 667.207 744.25C669.336 744.25 671.063 745.957 671.063 748.057Z" fill="#ADA9A2"/>
<path d="M667.21 765.253C657.606 765.253 649.789 757.538 649.789 748.057C649.789 738.576 657.602 730.857 667.21 730.857C676.818 730.857 684.632 738.572 684.632 748.057C684.632 757.542 676.818 765.253 667.21 765.253ZM667.21 731.22C657.809 731.22 650.161 738.77 650.161 748.053C650.161 757.335 657.809 764.885 667.21 764.885C676.611 764.885 684.26 757.335 684.26 748.053C684.26 738.77 676.611 731.22 667.21 731.22Z" fill="#ADA9A2"/>
<path d="M669.916 748.057C669.916 749.536 668.699 750.736 667.2 750.736C665.701 750.736 664.484 749.536 664.484 748.057C664.484 746.578 665.701 745.378 667.2 745.378C668.699 745.378 669.916 746.578 669.916 748.057Z" fill="#3D414A"/>
<path d="M890.328 723.582V731.668L905.866 736.844C905.866 736.844 907.939 730.806 906.52 725.196L890.328 723.577V723.582Z" fill="url(#paint8_linear_573_132953)"/>
<path d="M640.232 740.756L632.537 744.068L631.477 760.449L636.063 763.064C636.063 763.064 635.653 750.283 640.236 740.756H640.232Z" fill="#3D414A"/>
<path d="M635.288 746.101H631.141V750.195H635.288V746.101Z" fill="#CF7923"/>
<path d="M888.821 730.561L872.819 729.383L872.777 729.129C869.259 707.814 843.517 707.873 843.268 707.886H842.956L838.031 620.673L838.69 620.694L843.576 707.244C846.567 707.307 869.841 708.456 873.381 728.774L888.162 729.86V721.14L894.286 721.3C894.261 716.898 893.974 670.883 892.288 666.7C890.493 662.239 885.725 623.914 885.527 622.287L886.198 622.313C886.249 622.71 891.135 662.078 892.901 666.464C894.704 670.947 894.936 719.564 894.945 721.634V721.968L888.817 721.807V730.557L888.821 730.561Z" fill="#A8A59C"/>
<path d="M794.908 609.256L794.875 609.902L895.143 615.001L895.175 614.355L794.908 609.256Z" fill="#A8A59C"/>
<path d="M829.035 721L791.164 718.567L791.206 717.92L828.836 720.337C830.112 719.424 842.989 710.704 859.899 717.946L859.637 718.537C842.258 711.097 829.263 720.823 829.132 720.924L829.035 721Z" fill="#A8A59C"/>
<path d="M893.638 665.737C893.617 665.454 891.556 637.548 890.8 630.196C890.411 626.402 889.313 625.139 888.692 624.725C888.19 624.391 887.468 624.459 886.471 624.471L886.234 622.591C887.354 622.549 888.553 622.329 889.816 623.174C891.412 624.239 892.4 626.542 892.759 630.01C893.515 637.387 895.581 665.323 895.602 665.602L893.642 665.737H893.638Z" fill="#3D414A"/>
<path d="M893.503 651.731L885.005 652.323L883.477 630.915L891.864 630.036L893.503 651.731Z" fill="#3D414A"/>
<path d="M849.454 665.737H843.773V675.121H849.454V665.737Z" fill="#A8A59C"/>
<path d="M890.328 723.582V731.668L893.96 732.877V723.945L890.328 723.582Z" fill="url(#paint9_linear_573_132953)"/>
<g filter="url(#filter0_d_573_132953)">
<path d="M178.858 375.518C178.858 364.828 170.196 356.167 159.515 356.167C148.834 356.167 140.172 364.833 140.172 375.518C140.172 375.885 140.185 376.253 140.206 376.616H140.172C140.172 391.349 159.515 414.443 159.515 414.443C159.515 414.443 178.858 391.353 178.858 376.616H178.824C178.845 376.253 178.858 375.885 178.858 375.518ZM159.515 388.053C152.593 388.053 146.984 382.438 146.984 375.518C146.984 368.597 152.597 362.982 159.515 362.982C166.433 362.982 172.045 368.597 172.045 375.518C172.045 382.438 166.433 388.053 159.515 388.053Z" fill="url(#paint10_linear_573_132953)"/>
</g>
<g filter="url(#filter1_d_573_132953)">
<path d="M561.574 827.212H419.476H277.377L257.055 903.212H419.476H581.897L561.574 827.212Z" fill="url(#paint11_linear_573_132953)"/>
</g>
<path d="M279.616 847.399H298.211C298.989 847.399 299.576 848.004 299.428 848.654L297.629 856.745C297.519 857.244 297.008 857.607 296.412 857.607H277.5C276.706 857.607 276.115 856.977 276.288 856.318L278.408 848.228C278.535 847.746 279.037 847.399 279.62 847.399H279.616Z" fill="white"/>
<path d="M306.739 847.399H320.798L318.927 857.607H304.602L306.739 847.399Z" fill="white"/>
<path d="M327.826 847.399H341.881L340.411 857.607L326.086 857.62L327.826 847.399Z" fill="white"/>
<path d="M348.909 847.399H362.964L361.896 857.607H347.57L348.909 847.399Z" fill="white"/>
<path d="M369.996 847.399H384.055L383.388 857.607H369.062L369.996 847.399Z" fill="white"/>
<path d="M391.079 847.399H405.138L404.872 857.607L390.547 857.62L391.079 847.399Z" fill="white"/>
<path d="M559.821 847.399H538.734L541.007 857.607H562.495L559.821 847.399Z" fill="white"/>
<path d="M531.708 847.399H517.648L519.519 857.607H533.845L531.708 847.399Z" fill="white"/>
<path d="M510.622 847.399H496.562L498.032 857.607L512.362 857.62L510.622 847.399Z" fill="white"/>
<path d="M489.532 847.399H475.477L476.545 857.607H490.871L489.532 847.399Z" fill="white"/>
<path d="M468.446 847.399H454.391L455.058 857.607H469.383L468.446 847.399Z" fill="white"/>
<path d="M447.36 847.399H433.305L433.571 857.607L447.896 857.62L447.36 847.399Z" fill="white"/>
<path d="M412.172 847.399H426.231L426.464 857.607H412.172V847.399Z" fill="white"/>
<path d="M273.433 865.212H302.806L301.134 875.745H271.203L273.433 865.212Z" fill="white"/>
<path d="M564.406 865.212H528.094L530.163 875.745H567.164L564.406 865.212Z" fill="white"/>
<path d="M520.837 865.212H506.312L507.964 875.745H522.767L520.837 865.212Z" fill="white"/>
<path d="M499.047 865.212H484.523L485.765 875.745H500.564L499.047 865.212Z" fill="white"/>
<path d="M477.266 865.212H462.742L463.57 875.745H478.369L477.266 865.212Z" fill="white"/>
<path d="M455.477 865.212H440.953L441.367 875.745H456.17L455.477 865.212Z" fill="white"/>
<path d="M269.046 883.984H299.074L296.886 894.445H266.305L269.046 883.984Z" fill="white"/>
<path d="M306.584 883.984H321.602L319.82 894.445H304.531L306.584 883.984Z" fill="white"/>
<path d="M329.104 883.984H344.122H441.711L442.133 894.445H327.461L329.104 883.984Z" fill="white"/>
<path d="M449.227 883.984H464.241L465.064 894.445H449.776L449.227 883.984Z" fill="white"/>
<path d="M471.75 883.984H486.764L487.997 894.445H472.709L471.75 883.984Z" fill="white"/>
<path d="M494.273 883.984H509.287L510.934 894.445H495.642L494.273 883.984Z" fill="white"/>
<path d="M516.797 883.984H531.811L533.868 894.445H518.579L516.797 883.984Z" fill="white"/>
<path d="M539.32 883.984H569.352L572.089 894.445H541.512L539.32 883.984Z" fill="white"/>
<path d="M433.718 865.212H419.312V875.745H433.997L433.718 865.212Z" fill="white"/>
<path d="M411.938 865.212H397.414L397 875.745H411.799L411.938 865.212Z" fill="white"/>
<path d="M390.152 865.212H375.628L374.805 875.745H389.603L390.152 865.212Z" fill="white"/>
<path d="M368.367 865.212H353.843L352.602 875.745H367.4L368.367 865.212Z" fill="white"/>
<path d="M346.574 865.212H332.05L330.398 875.745H345.197L346.574 865.212Z" fill="white"/>
<path d="M324.797 865.212H310.273L308.203 875.745H323.006L324.797 865.212Z" fill="white"/>
<path d="M280.305 840.982L282.691 831.868H289.516L287.29 840.982H280.305Z" fill="white"/>
<path d="M296.337 831.868H309.987L308.078 840.982H294.188L296.337 831.868Z" fill="white"/>
<path d="M316.818 831.868H330.472L328.918 840.982H315.031L316.818 831.868Z" fill="white"/>
<path d="M337.291 831.868H350.941L349.75 840.982H335.859L337.291 831.868Z" fill="white"/>
<path d="M357.768 831.868H371.418L370.586 840.982H356.695L357.768 831.868Z" fill="white"/>
<path d="M378.249 831.868H391.899L391.422 840.982H377.531L378.249 831.868Z" fill="white"/>
<path d="M398.718 831.868H412.368L412.25 840.982H398.359L398.718 831.868Z" fill="white"/>
<path d="M419.195 831.868H432.849L433.086 840.982H419.195V831.868Z" fill="white"/>
<path d="M439.68 831.868H453.33L453.925 840.982H440.034L439.68 831.868Z" fill="white"/>
<path d="M460.148 831.868H473.798L474.753 840.982H460.866L460.148 831.868Z" fill="white"/>
<path d="M480.625 831.868H494.279L495.588 840.982H481.702L480.625 831.868Z" fill="white"/>
<path d="M501.102 831.868H514.751L516.424 840.982H502.533L501.102 831.868Z" fill="white"/>
<path d="M521.578 831.868H535.228L537.259 840.982H523.369L521.578 831.868Z" fill="white"/>
<path d="M542.055 831.868H555.704L558.091 840.982H544.2L542.055 831.868Z" fill="white"/>
<path d="M581.901 903.212H257.055V907.694H581.901V903.212Z" fill="#2C1649"/>
<g filter="url(#filter2_d_573_132953)">
<path d="M398.089 802.103H442.797V666.261H398.089V802.103Z" fill="url(#paint12_linear_573_132953)"/>
</g>
<g filter="url(#filter3_d_573_132953)">
<path d="M241.013 731.698H599.882C607.386 731.698 613.469 725.612 613.469 718.106V472.849C613.469 465.342 607.386 459.257 599.882 459.257L241.013 459.257C233.509 459.257 227.427 465.342 227.427 472.849L227.427 718.106C227.427 725.612 233.509 731.698 241.013 731.698Z" fill="url(#paint13_linear_573_132953)"/>
</g>
<path d="M241.074 682.172H599.141V472.595L241.074 472.595V682.172Z" fill="white"/>
<path d="M558.266 708.536C558.266 715.415 564.541 720.992 572.283 720.992C580.024 720.992 586.3 715.415 586.3 708.536C586.3 701.658 580.024 696.077 572.283 696.077C564.541 696.077 558.266 701.654 558.266 708.536Z" fill="#4163C7"/>
<g filter="url(#filter4_d_573_132953)">
<path d="M521.011 796.974H319.883V807.228H521.011V796.974Z" fill="url(#paint14_linear_573_132953)"/>
</g>
<path d="M256.572 659.784C256.572 659.784 256.563 659.784 256.555 659.784C256.626 659.818 256.639 659.818 256.572 659.784Z" fill="#323657"/>
<path opacity="0.95" d="M650.487 508.47H544.587C536.22 508.47 529.438 515.255 529.438 523.625V629.567C529.438 637.937 536.22 644.722 544.587 644.722H650.487C658.853 644.722 665.636 637.937 665.636 629.567V523.625C665.636 515.255 658.853 508.47 650.487 508.47Z" fill="url(#paint15_linear_573_132953)"/>
<path d="M585.516 553.593C583.882 553.593 582.365 553.314 580.963 552.752C579.561 552.19 578.349 551.434 577.323 550.475C576.296 549.52 575.477 548.396 574.873 547.112C574.265 545.827 573.961 544.437 573.961 542.942C573.961 541.446 574.265 540.115 574.873 538.805C575.481 537.5 576.296 536.376 577.323 535.442C578.349 534.509 579.565 533.761 580.963 533.199C582.365 532.637 583.882 532.358 585.516 532.358C587.15 532.358 588.607 532.637 590.035 533.199C591.458 533.761 592.683 534.509 593.713 535.442C594.74 536.376 595.559 537.5 596.163 538.805C596.771 540.115 597.075 541.492 597.075 542.942C597.075 544.391 596.771 545.827 596.163 547.112C595.555 548.396 594.74 549.52 593.713 550.475C592.687 551.434 591.462 552.19 590.035 552.752C588.612 553.314 587.104 553.593 585.516 553.593ZM577.88 579.517L597.633 556.466L615.844 532.502L620.118 536.287L600.994 558.921L582.154 583.303L577.88 579.517ZM585.516 548.899C586.217 548.899 586.859 548.734 587.442 548.409C588.025 548.083 588.548 547.648 589.017 547.112C589.482 546.575 589.845 545.946 590.103 545.219C590.36 544.496 590.487 543.736 590.487 542.942C590.487 541.307 589.997 539.917 589.017 538.772C588.037 537.627 586.867 537.056 585.516 537.056C584.815 537.056 584.173 537.221 583.59 537.546C583.007 537.872 582.479 538.307 582.015 538.843C581.546 539.38 581.187 540.001 580.929 540.702C580.672 541.404 580.545 542.152 580.545 542.946C580.545 544.581 581.035 545.984 582.015 547.15C582.995 548.32 584.16 548.903 585.516 548.903V548.899ZM612.554 583.514C610.919 583.514 609.403 583.235 608.001 582.674C606.599 582.112 605.387 581.368 604.36 580.43C603.334 579.496 602.515 578.389 601.907 577.101C601.299 575.816 600.994 574.426 600.994 572.931C600.994 571.435 601.299 570.045 601.907 568.761C602.515 567.476 603.33 566.357 604.36 565.398C605.387 564.438 606.603 563.682 608.001 563.12C609.403 562.558 610.919 562.279 612.554 562.279C614.188 562.279 615.704 562.558 617.107 563.12C618.509 563.682 619.733 564.438 620.785 565.398C621.837 566.357 622.652 567.476 623.235 568.761C623.817 570.045 624.109 571.435 624.109 572.931C624.109 574.426 623.817 575.816 623.235 577.101C622.652 578.385 621.832 579.496 620.785 580.43C619.733 581.364 618.509 582.112 617.107 582.674C615.704 583.235 614.188 583.514 612.554 583.514ZM612.554 578.82C613.255 578.82 613.897 578.656 614.48 578.33C615.062 578.005 615.586 577.574 616.055 577.033C616.519 576.497 616.883 575.876 617.14 575.174C617.398 574.473 617.525 573.725 617.525 572.931C617.525 572.09 617.385 571.308 617.102 570.582C616.824 569.859 616.46 569.225 616.017 568.689C615.573 568.152 615.05 567.73 614.442 567.426C613.833 567.121 613.204 566.969 612.55 566.969C611.848 566.969 611.207 567.134 610.624 567.459C610.041 567.785 609.513 568.22 609.048 568.756C608.58 569.293 608.221 569.927 607.963 570.649C607.705 571.372 607.579 572.132 607.579 572.926C607.579 574.562 608.069 575.952 609.048 577.097C610.028 578.242 611.194 578.812 612.55 578.812L612.554 578.82Z" fill="#4F4F4F"/>
<path d="M568.568 598.716H556.273V586.43H558.541V596.451H568.568V598.716Z" fill="#4F4F4F"/>
<path d="M641.806 598.716H629.516V596.451H639.542V586.43H641.806V598.716Z" fill="#4F4F4F"/>
<path d="M558.541 535.337H556.273V523.05H568.568V525.315H558.541V535.337Z" fill="#4F4F4F"/>
<path d="M641.806 535.337H639.542V525.315H629.516V523.05H641.806V535.337Z" fill="#4F4F4F"/>
<path opacity="0.95" d="M189.271 644.722H295.171C303.538 644.722 310.32 637.937 310.32 629.567V523.625C310.32 515.255 303.538 508.47 295.171 508.47H189.271C180.905 508.47 174.122 515.255 174.122 523.625L174.122 629.567C174.122 637.937 180.905 644.722 189.271 644.722Z" fill="url(#paint16_linear_573_132953)"/>
<path d="M625.012 613.064H561.953V617.45H625.012V613.064Z" fill="black"/>
<path d="M605.094 623.597H561.953V627.982H605.094V623.597Z" fill="black"/>
<path d="M236.373 611.602H204.555V615.988H236.373V611.602Z" fill="black"/>
<path d="M251.666 622.131H204.555V626.516H251.666V622.131Z" fill="black"/>
<path d="M222.881 551.759C222.716 551.599 222.42 551.375 221.99 551.096C221.559 550.817 221.035 550.542 220.418 550.276C219.802 550.01 219.135 549.782 218.412 549.596C217.69 549.41 216.96 549.317 216.216 549.317C214.89 549.317 213.902 549.562 213.251 550.048C212.601 550.538 212.276 551.223 212.276 552.106C212.276 552.617 212.398 553.044 212.643 553.382C212.888 553.72 213.243 554.015 213.708 554.273C214.172 554.531 214.759 554.763 215.469 554.97C216.178 555.181 216.998 555.401 217.927 555.634C219.135 555.959 220.233 556.309 221.225 556.681C222.213 557.053 223.05 557.518 223.738 558.076C224.422 558.633 224.954 559.301 225.326 560.082C225.698 560.864 225.883 561.823 225.883 562.96C225.883 564.286 225.634 565.419 225.132 566.361C224.633 567.303 223.958 568.063 223.109 568.646C222.26 569.23 221.284 569.652 220.178 569.918C219.071 570.184 217.914 570.32 216.706 570.32C214.844 570.32 213.006 570.041 211.195 569.483C209.383 568.925 207.753 568.135 206.312 567.109L208.441 562.955C208.652 563.167 209.028 563.437 209.573 563.775C210.118 564.113 210.764 564.451 211.507 564.789C212.251 565.127 213.078 565.41 213.986 565.643C214.894 565.875 215.823 565.993 216.778 565.993C219.43 565.993 220.756 565.144 220.756 563.446C220.756 562.909 220.604 562.457 220.304 562.085C220 561.713 219.57 561.388 219.012 561.109C218.455 560.83 217.779 560.573 216.989 560.34C216.199 560.108 215.317 559.85 214.337 559.571C213.15 559.246 212.12 558.891 211.25 558.506C210.375 558.122 209.649 557.67 209.07 557.146C208.488 556.622 208.053 556.018 207.761 555.329C207.47 554.645 207.326 553.825 207.326 552.87C207.326 551.616 207.558 550.496 208.023 549.52C208.488 548.544 209.134 547.729 209.961 547.078C210.785 546.427 211.744 545.933 212.838 545.595C213.931 545.257 215.105 545.088 216.36 545.088C218.104 545.088 219.709 545.363 221.174 545.908C222.64 546.453 223.92 547.099 225.013 547.843L222.885 551.751L222.881 551.759Z" fill="#4F4F4F"/>
<path d="M234.043 570.396C233.16 570.396 232.333 570.252 231.568 569.96C230.8 569.669 230.137 569.263 229.579 568.739C229.022 568.216 228.587 567.607 228.27 566.906C227.957 566.209 227.797 565.44 227.797 564.603C227.797 563.767 227.987 562.947 228.371 562.212C228.756 561.481 229.292 560.856 229.976 560.344C230.66 559.833 231.484 559.432 232.434 559.14C233.389 558.849 234.436 558.705 235.572 558.705C236.387 558.705 237.181 558.777 237.962 558.916C238.74 559.056 239.432 559.254 240.036 559.508V558.46C240.036 557.252 239.694 556.318 239.006 555.667C238.321 555.017 237.299 554.691 235.952 554.691C234.977 554.691 234.022 554.865 233.093 555.215C232.164 555.566 231.209 556.077 230.234 556.749L228.802 553.783C231.15 552.224 233.684 551.447 236.408 551.447C239.132 551.447 241.075 552.093 242.532 553.382C243.985 554.674 244.711 556.538 244.711 558.984V564.671C244.711 565.161 244.8 565.507 244.973 565.719C245.146 565.93 245.434 566.044 245.826 566.069V570.049C245.037 570.21 244.348 570.294 243.77 570.294C242.887 570.294 242.207 570.096 241.73 569.703C241.252 569.306 240.957 568.786 240.839 568.131L240.733 567.117C239.918 568.186 238.93 569.001 237.768 569.559C236.607 570.117 235.361 570.396 234.035 570.396H234.043ZM235.369 566.978C236.159 566.978 236.911 566.838 237.62 566.559C238.33 566.281 238.883 565.909 239.276 565.444C239.787 565.047 240.045 564.607 240.045 564.117V562.022C239.487 561.81 238.883 561.646 238.229 561.515C237.578 561.388 236.949 561.32 236.345 561.32C235.137 561.32 234.149 561.595 233.38 562.14C232.611 562.685 232.227 563.378 232.227 564.214C232.227 565.005 232.527 565.664 233.135 566.188C233.739 566.711 234.482 566.973 235.369 566.973V566.978Z" fill="#4F4F4F"/>
<path d="M249.047 544.572H253.722V564.185C253.722 564.861 253.883 565.385 254.212 565.757C254.537 566.128 255.002 566.314 255.606 566.314C255.884 566.314 256.193 566.268 256.531 566.175C256.869 566.082 257.185 565.964 257.489 565.824L258.119 569.382C257.489 569.686 256.759 569.918 255.922 570.079C255.086 570.239 254.33 570.324 253.655 570.324C252.189 570.324 251.057 569.935 250.255 569.154C249.452 568.376 249.051 567.265 249.051 565.82V544.568L249.047 544.572Z" fill="#4F4F4F"/>
<path d="M268.614 570.396C267.148 570.396 265.822 570.146 264.635 569.644C263.448 569.145 262.439 568.465 261.599 567.603C260.762 566.741 260.116 565.744 259.664 564.603C259.212 563.462 258.984 562.267 258.984 561.008C258.984 559.749 259.204 558.477 259.647 557.328C260.087 556.174 260.729 555.165 261.565 554.29C262.401 553.415 263.419 552.727 264.618 552.215C265.813 551.704 267.157 551.447 268.647 551.447C270.138 551.447 271.469 551.704 272.643 552.215C273.817 552.727 274.818 553.415 275.641 554.273C276.465 555.135 277.094 556.136 277.525 557.273C277.956 558.414 278.171 559.601 278.171 560.83C278.171 561.134 278.167 561.422 278.154 561.705C278.141 561.984 278.112 562.216 278.065 562.402H263.938C264.006 563.124 264.183 563.762 264.462 564.32C264.741 564.878 265.1 565.355 265.543 565.752C265.987 566.15 266.485 566.45 267.042 566.661C267.6 566.872 268.183 566.973 268.787 566.973C269.716 566.973 270.594 566.745 271.422 566.293C272.246 565.841 272.812 565.241 273.116 564.498L277.128 565.613C276.452 567.007 275.379 568.156 273.901 569.052C272.423 569.948 270.662 570.396 268.618 570.396H268.614ZM273.356 559.368C273.238 557.995 272.736 556.897 271.84 556.069C270.945 555.245 269.859 554.831 268.58 554.831C267.95 554.831 267.363 554.941 266.819 555.16C266.274 555.38 265.788 555.688 265.37 556.086C264.952 556.483 264.61 556.96 264.34 557.518C264.073 558.076 263.913 558.692 263.867 559.368H273.356Z" fill="#4F4F4F"/>
<path opacity="0.95" d="M344.758 486.065H495.451C503.813 486.065 510.6 492.854 510.6 501.22V651.972C510.6 660.338 503.813 667.127 495.451 667.127H344.758C336.396 667.127 329.609 660.338 329.609 651.972V501.22C329.609 492.854 336.396 486.065 344.758 486.065Z" fill="url(#paint17_linear_573_132953)"/>
<path d="M389.63 585.868H377.336V573.581H379.604V583.603H389.63V585.868Z" fill="#4F4F4F"/>
<path d="M462.864 585.868H450.57V583.603H460.601V573.581H462.864V585.868Z" fill="#4F4F4F"/>
<path d="M379.604 512.602H377.336V500.316H389.63V502.58H379.604V512.602Z" fill="#4F4F4F"/>
<path d="M462.864 512.602H460.601V502.58H450.57V500.316H462.864V512.602Z" fill="#4F4F4F"/>
<path d="M451.279 574.283H388.922V511.901H451.279V574.283ZM394.725 568.473H445.472V517.706H394.725V568.473Z" fill="#4F4F4F"/>
<path d="M444.007 525.611H396.156V532.869H444.007V525.611Z" fill="#4F4F4F"/>
<path d="M463.955 645.504C452.957 645.504 444.008 636.551 444.008 625.549C444.008 614.547 452.957 605.594 463.955 605.594C474.952 605.594 483.901 614.547 483.901 625.549C483.901 636.551 474.952 645.504 463.955 645.504ZM463.955 609.46C455.086 609.46 447.868 616.681 447.868 625.553C447.868 634.426 455.086 641.646 463.955 641.646C472.824 641.646 480.041 634.43 480.041 625.553C480.041 616.676 472.824 609.46 463.955 609.46Z" fill="#4F4F4F"/>
<path d="M462.68 633.403L453.617 624.336L456.35 621.607L462.68 627.94L471.554 619.059L474.286 621.793L462.68 633.403Z" fill="#4F4F4F"/>
<path d="M426.192 592.881H413.961V595.146H426.192V592.881Z" fill="#4F4F4F"/>
<path d="M427.405 618.088H356.242V622.473H427.405V618.088Z" fill="black"/>
<path d="M389.978 628.62H356.242V633.006H389.978V628.62Z" fill="black"/>
<path d="M605.78 528.328C605.78 528.328 611.655 538.294 614.138 539.921C617.504 542.131 615.397 544.366 613.796 544.366C612.196 544.366 604.028 544.953 602.229 542.908C600.429 540.863 599.534 534.741 597.862 533.14C596.189 531.539 594.458 525.171 598.677 523.625C602.406 522.256 605.78 528.328 605.78 528.328Z" fill="#6069A8"/>
<path d="M603.236 523.946C603.236 523.946 609.968 535.616 611.125 537.339C612.286 539.063 608.941 539.063 606.868 538.244C604.794 537.424 599.582 529.054 598.835 527.529C597.94 525.708 598.674 523.625 598.674 523.625L603.231 523.946H603.236Z" fill="#202338"/>
<path d="M596.422 530.225L597.976 542.19L598.795 542.224L598.542 533.617L596.422 530.225Z" fill="#6069A8"/>
<path d="M547.506 528.328C547.506 528.328 553.38 538.294 555.864 539.921C559.23 542.131 557.122 544.366 555.521 544.366C553.921 544.366 545.753 544.953 543.954 542.908C542.155 540.863 541.259 534.741 539.587 533.14C537.914 531.539 536.128 525.007 540.402 523.625C544.152 522.413 547.506 528.328 547.506 528.328Z" fill="#6069A8"/>
<path d="M545.313 523.967C545.313 523.967 551.69 535.616 552.851 537.339C554.013 539.063 550.668 539.063 548.594 538.244C546.521 537.424 541.309 529.054 540.561 527.529C539.666 525.708 540.401 523.625 540.401 523.625L545.313 523.967Z" fill="#202338"/>
<path d="M538.141 530.225L539.695 542.19L540.518 542.224L540.261 533.617L538.141 530.225Z" fill="#6069A8"/>
<path d="M521.434 437.634L574.61 461.872C574.61 461.872 580.544 463.803 581.211 470.394C583.289 490.974 598.674 523.621 598.674 523.621C603.612 526.033 603.236 523.938 603.236 523.938C600.123 513.946 596.339 472.764 594.983 456.211C594.696 452.704 594.519 450.304 594.481 449.535C594.455 449.012 593.885 448.327 592.897 447.529C585.603 441.609 555.575 429.353 555.575 429.353C533.031 428.782 521.43 437.625 521.43 437.625L521.434 437.634Z" fill="#202338"/>
<path d="M511.41 448.044C513.057 462.426 533.574 460.778 533.574 460.778H558.441C558.441 460.778 551.908 475.321 549.386 487.582C546.709 500.599 540.399 523.625 540.399 523.625C540.399 523.625 540.813 524.407 545.311 523.967C545.311 523.967 564.831 485.047 572.302 475.262C573.907 473.157 578.515 461.729 579.309 454.91C579.575 452.615 579.41 450.845 578.553 450.123C577.691 449.4 575.706 448.036 573.062 446.371C565.274 441.457 551.747 433.895 544.208 432.2C534.115 429.931 518.151 425.677 518.151 425.677C518.151 425.677 509.755 433.662 511.402 448.04L511.41 448.044Z" fill="#202338"/>
<path d="M528.336 337.286C528.336 337.286 524.615 330.217 526.427 322.688C528.243 315.159 535.224 307.66 545.449 311.103C555.674 314.547 563.939 322.494 557.811 331.679C551.683 340.864 563.356 345.013 560.383 349.386C557.409 353.759 558.537 358.322 559.796 359.34C561.054 360.358 565.117 363.984 564.669 368.276C564.222 372.569 544.832 355.766 544.832 355.766C544.832 355.766 534.274 334.54 528.336 337.282V337.286Z" fill="black"/>
<path d="M559.5 427.637C559.5 427.637 557.958 435.12 518.242 425.673C518.242 425.673 531.554 421.249 559.5 427.637Z" fill="#EB4747"/>
<path d="M517.79 427.773C517.173 428.947 516.561 430.126 515.944 431.3C530.464 431.723 544.979 432.145 559.499 432.568C557.202 424.874 557.949 414.46 558.35 406.55C558.84 396.892 564.174 390.178 563.604 380.41C566.476 380.875 566.974 380.964 569.851 381.403C565.454 368.863 563.946 362.653 550.28 357.828C545.828 356.256 542.906 355.943 538.091 356.34C522.266 357.646 517.494 357.832 509.719 372.18C521.886 374.119 519.884 378.488 523.576 390.601C525.375 396.508 527.254 403.094 526.291 409.322C525.341 415.452 517.794 422.179 517.794 427.773H517.79Z" fill="black"/>
<path d="M543.045 360.865C536.566 359.64 537.943 356.036 537.943 356.036C537.943 356.036 538.243 354.004 538.361 351.431C538.39 350.772 538.407 350.079 538.403 349.373C538.403 348.305 538.348 347.214 538.226 346.188C537.694 341.84 549.984 344.434 549.984 344.434C549.984 344.434 549.274 353.235 550.968 355.872C552.661 358.508 549.519 362.086 543.04 360.865H543.045Z" fill="#EEA886"/>
<path d="M530.688 356.015C530.688 356.015 543.754 371.107 548.582 374.605C548.582 374.605 554.131 369.59 550.71 356.34C550.71 356.34 544.405 353.18 530.688 356.015Z" fill="#EEA886"/>
<path d="M531.048 319.693C531.048 319.693 524.261 332.769 530.993 345.157C537.721 357.545 550.944 339.762 551.798 337.674C552.655 335.587 557.187 323.787 548.17 320.2C539.153 316.613 532.97 316.14 531.048 319.689V319.693Z" fill="#EEA886"/>
<path d="M533.302 324.332C533.302 324.332 528.631 330.471 528.078 335.004C528.078 335.004 526.216 326.432 531.474 318.193C536.732 309.954 550.099 317.8 551.889 321.091C553.68 324.383 558.925 327.281 550.111 341.426C550.111 341.426 534.257 330.407 533.298 324.332H533.302Z" fill="black"/>
<path d="M544.149 346.462C544.149 346.462 542.971 349.035 538.367 351.431C538.397 350.772 538.414 350.079 538.409 349.373C538.409 349.373 541.526 348.997 544.145 346.458L544.149 346.462Z" fill="#A77860"/>
<path d="M475.574 416.006C475.574 416.006 472.347 417.442 470.819 416.792C469.29 416.141 466.925 416.014 466.177 416.014C465.18 416.014 462.055 414.899 462.11 416.12C462.165 417.341 467.178 418.19 468.209 418.57C469.235 418.951 465.138 421.207 464.758 422.212C464.378 423.214 469.003 429.792 471.613 427.92C474.223 426.044 475.633 422.305 476.165 422.065C476.697 421.828 478.125 420.776 478.125 420.776L475.578 416.01L475.574 416.006Z" fill="#EEA886"/>
<path d="M465.25 421.625C465.25 421.625 457.686 427.899 457.568 428.748C457.449 429.593 457.846 429.991 458.581 429.433C459.316 428.875 466.082 423.586 466.082 423.586C466.082 423.586 458.501 432.543 458.247 433.206C458.1 433.595 458.826 434.406 459.248 434.144C459.671 433.882 467.733 425.453 467.733 425.453C467.733 425.453 460.672 433.827 460.634 434.452C460.6 435.001 461.449 435.593 462.019 435.01C462.589 434.427 469.617 427.037 469.617 427.037C469.617 427.037 464.891 433.468 465.182 434.034C465.36 434.38 465.955 435.107 467.121 433.409C468.286 431.71 471.479 428.005 471.479 428.005L465.25 421.629V421.625Z" fill="#EEA886"/>
<path d="M555.847 460.778H533.574C533.574 460.778 513.057 462.426 511.41 448.044C509.762 433.666 518.154 425.681 518.154 425.681C518.154 425.681 528.996 428.567 538.456 430.857C543.194 429.851 548.904 429.196 555.573 429.365C555.573 429.365 595.686 442.628 594.478 449.607C594.478 449.607 577.699 440.633 555.839 460.782L555.847 460.778Z" fill="black"/>
<path d="M541.352 435.876L583.817 435.251L562.375 446.143L541.352 435.876Z" fill="#5E5853"/>
<path d="M554.54 430.451C554.54 430.451 544.987 434.152 533.276 430.806L532.727 426.433L556.838 427.773L554.54 430.451Z" fill="#6069A8"/>
<path d="M562.375 446.143L541.352 437.997V435.876L564.039 444.064L562.375 446.143Z" fill="#91887F"/>
<path d="M554.394 432.475C554.28 434.042 555.868 435.175 557.312 434.558L559.778 433.506C560.522 433.189 560.952 432.407 560.822 431.613C559.795 425.187 557.595 400.175 560.813 395.882C562.004 394.298 562.747 392.908 563.166 391.691C565.29 397.171 567.934 404.231 568.985 408.033L589.05 434.735L595.774 436.442C587.378 416.209 580.637 405.49 580.637 405.49C579.324 401.962 575.561 391.285 572.225 381.775C570.117 375.771 568.187 370.236 567.144 367.258C566.616 365.75 565.577 364.478 564.209 363.658C561.1 361.799 555.923 358.871 551.226 356.59C551.209 356.581 551.188 356.573 551.171 356.564C551.019 356.493 550.871 356.416 550.719 356.349H550.711C559.639 369.86 556.159 408.025 554.394 432.428C554.394 432.445 554.394 432.466 554.394 432.483V432.475Z" fill="#EDDAD3"/>
<path d="M521.256 357.494C518.397 357.938 511.306 364.824 507.539 371.774C503.239 379.709 498.864 388.742 495.587 391.712C489.556 397.179 472.679 416.492 471.881 416.027C471.573 415.845 476.51 421.794 477.139 422.073C477.452 422.212 504.878 398.438 507.513 394.818C510.009 391.383 516.691 376.971 518.688 377.288C518.688 377.288 518.688 377.288 518.692 377.301C518.692 377.301 518.692 377.301 518.692 377.305C518.844 377.63 521.273 382.903 523.575 390.605C523.613 390.732 523.651 390.859 523.689 390.99C525.277 396.36 525.129 402.194 524.271 408.747C523.621 413.695 519.93 421.782 517.704 425.719C517.438 426.192 517.506 427.092 517.793 427.777C517.966 428.187 518.219 428.52 518.524 428.63L526.577 431.613L528.469 432.314C529.834 432.821 531.261 432.555 532.33 431.782C533.204 431.148 533.837 430.168 533.994 428.985C535.784 415.207 538.048 401.13 539.856 395.832C547.779 372.564 536.76 355.081 536.76 355.081C536.76 355.081 523.773 356.564 521.26 357.502L521.256 357.494Z" fill="#EDDAD3"/>
<path d="M562.375 446.143L575.007 411.646L615.724 412.309L603.688 444.102L562.375 446.143Z" fill="#6E6760"/>
<path d="M588.037 426.906C586.795 429.391 587.171 432.099 588.873 432.952C590.579 433.806 592.97 432.483 594.211 429.999C595.453 427.515 595.077 424.807 593.371 423.953C591.665 423.1 589.274 424.422 588.033 426.906H588.037Z" fill="#807066"/>
<path d="M545.112 332.714C545.112 332.714 547.722 336.775 545.31 340.277C542.898 343.78 545.918 347.223 546.442 350.928C546.966 354.634 536.382 364.486 548.152 369.446C559.918 374.407 563.665 366.21 560.662 361.698C557.659 357.186 555.53 353.527 555.277 347.096C555.024 340.666 552.908 330.64 545.116 332.714H545.112Z" fill="black"/>
<g filter="url(#filter5_d_573_132953)">
<path d="M459.867 284H510.023V320.369V328.029L502.367 320.369H459.867V284Z" fill="url(#paint18_linear_573_132953)"/>
</g>
<g filter="url(#filter6_d_573_132953)">
<path d="M802.173 525.416H718.18V586.32V599.147L731.002 586.32H802.173V525.416Z" fill="url(#paint19_linear_573_132953)"/>
</g>
<path d="M145.649 678.391C143.022 669.341 151.181 658.981 151.181 658.981C146.168 654.292 139.681 652.483 136.906 652.01C134.132 651.537 126.331 649.864 126.331 649.864H113.775C113.775 649.864 105.713 651.427 103.022 651.892C100.248 652.369 93.9761 654.731 89.6641 658.627C89.6641 658.627 96.9155 670.837 94.2928 679.891C94.2928 679.891 96.4045 694.577 97.6842 700.103C98.343 702.943 97.7053 711.874 97.6546 714.206C97.5828 717.548 97.0718 727.076 96.3918 735.26C96.3918 735.26 103.922 739.742 120.055 740.127C136.024 739.092 144.124 735.26 144.124 735.26C143.115 725.513 142.46 717.308 142.059 714.135C141.767 711.819 142.156 703.006 142.426 700.103C142.798 696.09 145.649 678.387 145.649 678.387V678.391Z" fill="#B68B60"/>
<path d="M127.579 640.683C127.579 640.683 126.671 646.357 128.529 650.177C128.529 650.177 130.531 659.129 121.337 659.733C112.143 660.338 111.75 650.257 111.75 650.257C111.75 650.257 113.887 649.091 112.24 641.076C110.593 633.061 127.575 640.683 127.575 640.683H127.579Z" fill="#EEA886"/>
<path d="M121.265 608.134C121.265 608.134 133.081 609.773 131.705 628.688C130.328 647.604 119.9 646.285 119.208 646.281C118.511 646.281 108.78 646.856 107.513 623.829C107.513 623.829 106.808 606.798 121.265 608.138V608.134Z" fill="#EEA886"/>
<path d="M131.767 623.352C131.767 623.352 133.026 621.911 133.528 623.331C134.031 624.751 132.016 630.949 131.868 631.468C131.868 631.468 131.645 632.026 131.328 631.73C131.011 631.43 131.763 623.352 131.763 623.352H131.767Z" fill="#EEA886"/>
<path d="M107.795 623.643C107.795 623.643 106.502 622.237 106.034 623.665C105.565 625.093 107.79 631.519 107.9 631.76C107.9 631.76 108.137 632.313 108.445 632.009C108.753 631.705 107.795 623.643 107.795 623.643Z" fill="#EEA886"/>
<path d="M131.83 626.246L130.195 628.591C130.195 628.591 130.132 623.529 129.845 622.739C129.558 621.954 130.086 619.173 129.845 618.607C129.604 618.041 121.825 620.34 108.961 619.317C108.961 619.317 110.489 623.846 109.657 624.189C108.83 624.531 109.362 630.125 109.362 630.125L107.938 628.553C107.938 628.553 106.165 619.013 106.279 617.412C106.435 615.282 105.493 605.362 123.594 606.667C125.668 606.815 127.67 607.534 129.351 608.784C131.239 610.191 133.198 612.413 133.093 615.523C132.953 619.634 131.83 626.238 131.83 626.238V626.246Z" fill="black"/>
<path d="M114.062 643.298C114.062 643.298 118.957 648.765 126.407 643.028C126.407 643.028 124.376 647.304 119.929 647.498C115.477 647.696 114.062 643.298 114.062 643.298Z" fill="#A77860"/>
<path d="M120.544 760.639L146.083 755.899C146.083 755.899 144.482 737.959 144.262 735.374C144.072 733.151 141.876 711.646 142.345 700.103C142.345 700.103 136.711 693.255 136.04 686.021L120.333 685.831H120.181L104.449 686.19C103.778 693.419 97.679 700.099 97.679 700.099C97.8311 712.309 96.4458 733.147 96.2558 735.369C96.0361 737.955 93.1094 755.223 93.1094 755.223L119.978 760.635V760.766L120.261 760.703L120.544 760.766V760.635V760.639Z" fill="#623E91"/>
<path d="M89.0837 880.629C89.0837 880.629 87.4577 884.55 86.0851 886.105C84.7125 887.66 79.4629 890.435 79.4376 895.053C79.408 900.06 88.2855 898.67 91.7613 898.488C95.2328 898.307 95.4989 895.632 96.9602 892.797C98.4215 889.962 99.8954 890.444 100.17 888.158C100.444 885.872 99.0507 880.756 99.0507 880.756L89.0879 880.633L89.0837 880.629Z" fill="#163342"/>
<path d="M88.9297 879.18L89.2 881.753C89.2 881.753 93.8837 883.515 99.0488 881.753L99.015 878.512L88.9297 879.176V879.18Z" fill="#2F6B8C"/>
<path d="M141.458 880.629C141.458 880.629 143.084 884.55 144.457 886.105C145.829 887.66 151.079 890.435 151.104 895.053C151.134 900.06 142.256 898.67 138.78 898.488C135.309 898.307 135.047 895.632 133.581 892.797C132.12 889.962 130.646 890.444 130.372 888.158C130.097 885.872 131.491 880.756 131.491 880.756L141.454 880.633L141.458 880.629Z" fill="#163342"/>
<path d="M141.611 879.18L141.341 881.753C141.341 881.753 136.657 883.515 131.492 881.753L131.526 878.512L141.611 879.176V879.18Z" fill="#2F6B8C"/>
<path d="M148.975 815.002C148.975 821.175 143.32 879.911 143.32 879.911C142.703 881.968 132.035 881.842 129.978 880.811C127.922 879.784 131.706 818.496 131.326 812.273C130.945 806.049 119.986 762.545 118.183 762.752C116.379 762.959 107.033 816.646 105.593 821.378C104.153 826.11 100.208 880.528 100.208 880.528C95.6849 883.202 87.1875 880.629 87.1875 880.629C87.1875 880.629 87.8548 819.734 88.4714 818.086C89.088 816.439 88.9402 811.711 89.1471 796.281C89.2992 784.751 93.5605 751.171 95.706 734.938C95.782 734.36 95.8538 733.806 95.9256 733.274C96.3437 730.114 96.6605 727.794 96.8125 726.679C96.8801 726.197 96.9138 725.939 96.9138 725.939C97.4924 725.673 98.0964 725.428 98.7256 725.2C113.786 719.788 142.834 725.517 142.834 725.517C142.834 725.517 142.851 725.66 142.885 725.927C142.923 726.252 142.982 726.763 143.062 727.426C143.231 728.859 143.48 730.988 143.768 733.464C143.768 733.481 143.767 733.498 143.772 733.519C143.78 733.591 143.789 733.671 143.797 733.747C144.811 742.552 146.242 755.442 146.107 756.786C145.9 758.844 148.988 808.83 148.988 815.002H148.975Z" fill="#623E91"/>
<path d="M127.596 701.755H120.256H112.92L106.078 708.6V729.438H120.256H134.438V708.6L127.596 701.755Z" fill="#3B45A8"/>
<path d="M147.53 685.4C147.53 685.4 150.757 704.624 150.267 707.911C149.777 711.202 142.758 746.19 142.758 746.19L150.655 749.899C150.655 749.899 161.302 713.632 161.48 708.144C161.657 702.655 160.432 683.799 158.456 675.522C156.479 667.246 154.051 661.588 149.789 657.532C145.528 653.476 138.078 652.268 138.078 652.268L147.53 685.405V685.4Z" fill="#B68B60"/>
<path d="M92.9979 685.4C92.9979 685.4 89.7713 704.624 90.2612 707.911C90.7511 711.202 97.3437 743.617 97.3437 743.617L89.8727 749.899C89.8727 749.899 79.2256 713.632 79.0482 708.144C78.8709 702.655 80.0956 683.799 82.0722 675.522C84.0487 667.246 86.4771 661.588 90.7384 657.532C94.9998 653.476 102.45 652.268 102.45 652.268L92.9979 685.405V685.4Z" fill="#B68B60"/>
<path d="M136.039 686.026C136.039 686.026 136.749 666.988 144.215 654.08C144.215 654.08 142.902 652.792 140.047 652.695C140.047 652.695 132.863 669.924 132.424 685.979C131.985 702.038 136.043 686.021 136.043 686.021L136.039 686.026Z" fill="#623E91"/>
<path d="M104.455 686.195C104.455 686.195 103.75 665.137 96.6719 653.933C96.6719 653.933 98.3865 652.145 100.287 652.627C100.287 652.627 107.589 670.051 108.033 686.11C108.472 702.169 104.455 686.19 104.455 686.19V686.195Z" fill="#623E91"/>
<path d="M149.013 752.151C149.013 752.151 146.044 756.152 140.469 755.852C134.134 755.51 132.28 752.713 132.707 751.475C133.133 750.237 148.118 749.164 149.013 752.151Z" fill="#EEA886"/>
<path d="M147.075 753.9C147.075 753.9 151.809 752.329 150.998 751.082C150.191 749.836 147.438 751.724 147.438 751.724L147.07 753.9H147.075Z" fill="#EEA886"/>
<path d="M91.6094 752.151C91.6094 752.151 94.5784 756.152 100.153 755.852C106.488 755.51 108.342 752.713 107.916 751.475C107.489 750.237 92.5047 749.164 91.6094 752.151Z" fill="#EEA886"/>
<path d="M93.5407 753.9C93.5407 753.9 88.8571 752.215 89.6637 750.968C90.4704 749.722 93.1733 751.724 93.1733 751.724L93.5407 753.9Z" fill="#EEA886"/>
<path d="M156.484 707.159H83.75V751.463H156.484V707.159Z" fill="#B3B3B3"/>
<path d="M124.092 707.159H115.109V711.655H124.092V707.159Z" fill="black"/>
<path d="M225.386 927.307C225.386 927.307 223.79 931.156 222.447 932.681C221.104 934.206 215.952 936.931 215.922 941.46C215.892 946.37 224.605 945.01 228.013 944.828C231.422 944.65 231.679 942.027 233.115 939.242C234.551 936.462 235.995 936.931 236.266 934.688C236.536 932.444 235.168 927.425 235.168 927.425L225.391 927.302L225.386 927.307Z" fill="#E6D3CD"/>
<path d="M305.696 928.186C305.696 928.186 310.443 933.171 315.262 934.215C320.081 935.258 323.451 936.593 323.489 939.454C323.527 942.314 309.624 944.203 304.108 941.317C295.877 937.012 295.041 938.309 294.128 936.158C293.216 934.008 295.227 928.253 295.163 927.569C295.091 926.724 305.696 928.186 305.696 928.186Z" fill="#E6D3CD"/>
<path d="M293.034 784.202C293.034 784.202 298.018 820.431 300.058 832.679C302.44 846.998 303.246 858.832 303.91 866.243C304.746 875.563 306.346 924.582 306.933 927.307C307.516 930.032 293.888 928.671 293.888 928.671C293.888 928.671 284.001 865.111 281.513 855.182C279.199 845.937 272.826 807.828 270.714 810.35C268.603 812.873 255.333 857.463 253.766 864.756C252.199 872.048 237.109 929.128 237.109 929.128C237.109 929.128 225.829 931.553 222.961 929.267C222.961 929.267 232.806 876.826 233.802 863.159C234.182 857.949 237.27 801.055 246.071 778.008C250.725 765.827 293.034 784.202 293.034 784.202Z" fill="black"/>
<path d="M278.407 697.315C278.407 697.315 291.6 700.044 293.163 701.43C294.861 702.904 297.859 717.362 298.037 721.389C298.214 725.415 296.445 742.235 294.747 748.501C293.049 754.762 293.433 787.455 294.198 792.597C294.198 792.597 267.734 797.773 241.617 794.376C241.617 794.376 246.132 765.984 245.085 757.403C243.746 746.409 240.523 721.076 240.523 721.076C240.523 721.076 244.012 704.02 246.339 702.051C248.666 700.082 264.829 696.88 264.829 696.88L278.403 697.319L278.407 697.315Z" fill="#B68B60"/>
<path d="M272.956 656.505C272.956 656.505 288.827 650.633 287.835 671.728C286.842 692.824 283.126 694.97 272.686 692.021C262.246 689.076 261.372 675.759 260.012 669.354C258.652 662.949 267.77 657.422 272.956 656.501V656.505Z" fill="#EEA886"/>
<path d="M281.023 700.657C281.023 700.657 272.779 707.345 264.839 696.875C264.839 696.875 265.189 688.383 262.761 680.449C260.332 672.518 279.38 691.024 279.38 691.024C279.181 691.163 279.143 691.957 279.257 693.064C279.354 694.002 279.557 695.164 279.87 696.343C280.566 698.996 280.402 698.523 281.031 700.652L281.023 700.657Z" fill="#EEA886"/>
<path d="M262.215 679.823C262.215 679.823 262.169 674.187 264.513 673.667C266.857 673.148 268.06 676.405 268.06 676.405L269.948 676.304C269.948 676.304 268.263 670.592 270.497 669.282C272.731 667.972 286.09 669.121 287.766 667.199C289.443 665.276 287.01 653.856 283.366 652.737C279.721 651.617 269.762 649.344 263.44 654.976C263.44 654.976 257.776 655.014 257.789 661.804C257.798 666.291 260.31 676.764 262.215 679.819V679.823Z" fill="#163342"/>
<path d="M279.86 696.343C267.562 694.273 265.721 687.276 265.695 687.166C270.476 693.335 279.248 693.064 279.248 693.064C279.345 694.002 279.548 695.164 279.86 696.343Z" fill="#A77860"/>
<path d="M267.165 671.276C266.464 669.417 262.506 669.649 262.912 672.598C263.317 675.547 266.59 680.085 267.9 679.232C269.213 678.382 268.132 673.836 267.165 671.276Z" fill="#EEA886"/>
<path d="M260.555 697.779C260.555 697.779 267.996 712.825 278.947 711.608C289.898 710.391 283.551 699.892 282.503 698.219C282.503 698.219 275.932 693.998 260.555 697.784V697.779Z" fill="#EEA886"/>
<path d="M316.369 743.05C322.51 745.894 346.021 751.741 346.021 751.741L347.639 742.041C347.639 742.041 335.742 737.402 327.548 735.293C323.557 734.267 319.621 732.834 318.983 732.505C318.346 732.175 305.27 716.293 304.286 714.544C303.302 712.795 300.946 707.083 297.478 703.935C294.015 700.788 289.661 700.036 289.661 700.036C280.999 707.362 292.71 721.224 292.71 721.224C292.71 721.224 307.758 739.058 316.365 743.046L316.369 743.05Z" fill="#B68B60"/>
<path d="M410.569 730.308H222.415C217.552 730.308 213.609 734.252 213.609 739.117V873.696C213.609 878.561 217.552 882.505 222.415 882.505H410.569C415.432 882.505 419.374 878.561 419.374 873.696V739.117C419.374 734.252 415.432 730.308 410.569 730.308Z" fill="#504D59"/>
<path d="M404.602 878.115H403.757V877.904H404.602V878.115ZM402.913 878.115H402.068V877.904H402.913V878.115ZM401.223 878.115H400.379V877.904H401.223V878.115ZM399.534 878.115H398.689V877.904H399.534V878.115ZM397.845 878.115H397V877.904H397.845V878.115ZM396.155 878.115H395.311V877.904H396.155V878.115ZM394.466 878.115H393.621V877.904H394.466V878.115ZM392.777 878.115H391.932V877.904H392.777V878.115ZM391.087 878.115H390.243V877.904H391.087V878.115ZM389.398 878.115H388.553V877.904H389.398V878.115ZM387.709 878.115H386.864V877.904H387.709V878.115ZM386.019 878.115H385.175V877.904H386.019V878.115ZM384.33 878.115H383.485V877.904H384.33V878.115ZM382.641 878.115H381.796V877.904H382.641V878.115ZM380.951 878.115H380.107V877.904H380.951V878.115ZM379.262 878.115H378.417V877.904H379.262V878.115ZM377.573 878.115H376.728V877.904H377.573V878.115ZM375.883 878.115H375.039V877.904H375.883V878.115ZM374.194 878.115H373.349V877.904H374.194V878.115ZM372.505 878.115H371.66V877.904H372.505V878.115ZM370.815 878.115H369.971V877.904H370.815V878.115ZM369.126 878.115H368.281V877.904H369.126V878.115ZM367.437 878.115H366.592V877.904H367.437V878.115ZM365.747 878.115H364.903V877.904H365.747V878.115ZM364.058 878.115H363.213V877.904H364.058V878.115ZM362.369 878.115H361.524V877.904H362.369V878.115ZM360.679 878.115H359.835V877.904H360.679V878.115ZM358.99 878.115H358.145V877.904H358.99V878.115ZM357.301 878.115H356.456V877.904H357.301V878.115ZM355.611 878.115H354.767V877.904H355.611V878.115ZM353.922 878.115H353.077V877.904H353.922V878.115ZM352.233 878.115H351.388V877.904H352.233V878.115ZM350.543 878.115H349.699V877.904H350.543V878.115ZM348.854 878.115H348.009V877.904H348.854V878.115ZM347.165 878.115H346.32V877.904H347.165V878.115ZM345.475 878.115H344.631V877.904H345.475V878.115ZM343.786 878.115H342.941V877.904H343.786V878.115ZM342.097 878.115H341.252V877.904H342.097V878.115ZM340.407 878.115H339.563V877.904H340.407V878.115ZM338.718 878.115H337.873V877.904H338.718V878.115ZM337.029 878.115H336.184V877.904H337.029V878.115ZM335.339 878.115H334.495V877.904H335.339V878.115ZM333.65 878.115H332.805V877.904H333.65V878.115ZM331.961 878.115H331.116V877.904H331.961V878.115ZM330.271 878.115H329.427V877.904H330.271V878.115ZM328.582 878.115H327.737V877.904H328.582V878.115ZM326.893 878.115H326.048V877.904H326.893V878.115ZM325.203 878.115H324.359V877.904H325.203V878.115ZM323.514 878.115H322.669V877.904H323.514V878.115ZM321.825 878.115H320.98V877.904H321.825V878.115ZM320.135 878.115H319.291V877.904H320.135V878.115ZM318.446 878.115H317.601V877.904H318.446V878.115ZM316.757 878.115H315.912V877.904H316.757V878.115ZM315.067 878.115H314.223V877.904H315.067V878.115ZM313.378 878.115H312.533V877.904H313.378V878.115ZM311.689 878.115H310.844V877.904H311.689V878.115ZM309.999 878.115H309.155V877.904H309.999V878.115ZM308.31 878.115H307.465V877.904H308.31V878.115ZM306.621 878.115H305.776V877.904H306.621V878.115ZM304.931 878.115H304.087V877.904H304.931V878.115ZM303.242 878.115H302.397V877.904H303.242V878.115ZM301.553 878.115H300.708V877.904H301.553V878.115ZM299.863 878.115H299.019V877.904H299.863V878.115ZM298.174 878.115H297.329V877.904H298.174V878.115ZM296.485 878.115H295.64V877.904H296.485V878.115ZM294.795 878.115H293.951V877.904H294.795V878.115ZM293.106 878.115H292.261V877.904H293.106V878.115ZM291.417 878.115H290.572V877.904H291.417V878.115ZM289.727 878.115H288.883V877.904H289.727V878.115ZM288.038 878.115H287.193V877.904H288.038V878.115ZM286.349 878.115H285.504V877.904H286.349V878.115ZM284.659 878.115H283.815V877.904H284.659V878.115ZM282.97 878.115H282.125V877.904H282.97V878.115ZM281.281 878.115H280.436V877.904H281.281V878.115ZM279.591 878.115H278.747V877.904H279.591V878.115ZM277.902 878.115H277.057V877.904H277.902V878.115ZM276.213 878.115H275.368V877.904H276.213V878.115ZM274.523 878.115H273.679V877.904H274.523V878.115ZM272.834 878.115H271.989V877.904H272.834V878.115ZM271.145 878.115H270.3V877.904H271.145V878.115ZM269.455 878.115H268.611V877.904H269.455V878.115ZM267.766 878.115H266.921V877.904H267.766V878.115ZM266.077 878.115H265.232V877.904H266.077V878.115ZM264.387 878.115H263.543V877.904H264.387V878.115ZM262.698 878.115H261.853V877.904H262.698V878.115ZM261.009 878.115H260.164V877.904H261.009V878.115ZM259.319 878.115H258.475V877.904H259.319V878.115ZM257.63 878.115H256.785V877.904H257.63V878.115ZM255.941 878.115H255.096V877.904H255.941V878.115ZM254.251 878.115H253.407V877.904H254.251V878.115ZM252.562 878.115H251.717V877.904H252.562V878.115ZM250.873 878.115H250.028V877.904H250.873V878.115ZM249.183 878.115H248.339V877.904H249.183V878.115ZM247.494 878.115H246.649V877.904H247.494V878.115ZM245.805 878.115H244.96V877.904H245.805V878.115ZM244.115 878.115H243.271V877.904H244.115V878.115ZM242.426 878.115H241.581V877.904H242.426V878.115ZM240.737 878.115H239.892V877.904H240.737V878.115ZM239.047 878.115H238.203V877.904H239.047V878.115ZM237.358 878.115H236.513V877.904H237.358V878.115ZM235.669 878.115H234.824V877.904H235.669V878.115ZM233.979 878.115H233.135V877.904H233.979V878.115ZM232.29 878.115H231.445V877.904H232.29V878.115ZM230.601 878.115H229.756V877.904H230.601V878.115ZM228.911 878.115H228.083L228.067 877.904H228.911V878.115ZM405.561 878.102L405.548 877.891C405.827 877.874 406.105 877.849 406.376 877.807L406.409 878.014C406.131 878.056 405.844 878.086 405.561 878.102ZM227.213 878.069C226.931 878.039 226.648 877.997 226.369 877.938L226.411 877.731C226.681 877.786 226.96 877.828 227.235 877.857L227.213 878.069ZM407.25 877.84L407.195 877.638C407.461 877.566 407.731 877.481 407.989 877.384L408.065 877.583C407.799 877.684 407.524 877.769 407.25 877.84ZM225.541 877.722C225.271 877.638 225 877.536 224.739 877.422L224.823 877.228C225.076 877.338 225.338 877.439 225.604 877.519L225.541 877.722ZM408.851 877.241L408.758 877.05C409.003 876.928 409.248 876.788 409.484 876.641L409.598 876.818C409.357 876.97 409.104 877.114 408.851 877.236V877.241ZM223.974 877.042C223.725 876.903 223.484 876.75 223.252 876.586L223.374 876.412C223.603 876.573 223.839 876.721 224.08 876.856L223.974 877.042ZM410.291 876.328L410.16 876.163C410.375 875.99 410.586 875.808 410.789 875.614L410.937 875.766C410.73 875.965 410.515 876.15 410.291 876.328ZM222.576 876.058C222.361 875.872 222.154 875.673 221.96 875.462L222.116 875.318C222.306 875.521 222.509 875.715 222.716 875.897L222.576 876.058ZM411.52 875.141L411.359 875.006C411.537 874.794 411.71 874.57 411.866 874.342L412.039 874.46C411.879 874.697 411.706 874.925 411.52 875.141ZM221.406 874.811C221.233 874.583 221.073 874.346 220.925 874.106L221.107 873.996C221.25 874.232 221.411 874.465 221.58 874.684L221.411 874.811H221.406ZM412.483 873.73L412.297 873.628C412.428 873.383 412.55 873.134 412.656 872.876L412.85 872.956C412.74 873.218 412.618 873.476 412.478 873.73H412.483ZM220.511 873.354C220.389 873.1 220.279 872.834 220.182 872.563L220.38 872.492C220.473 872.754 220.583 873.011 220.701 873.261L220.511 873.354ZM413.142 872.154L412.939 872.094C413.019 871.828 413.087 871.558 413.137 871.283L413.344 871.321C413.289 871.6 413.222 871.879 413.142 872.154ZM219.932 871.744C219.865 871.469 219.81 871.186 219.772 870.903L219.983 870.873C220.021 871.148 220.076 871.423 220.144 871.693L219.937 871.744H219.932ZM413.462 870.476L413.251 870.459C413.272 870.219 413.285 869.969 413.285 869.724V869.623H413.496V869.724C413.496 869.974 413.484 870.227 413.462 870.476ZM219.692 870.054C219.692 869.944 219.688 869.834 219.688 869.724V869.205H219.899V869.724C219.899 869.83 219.899 869.94 219.903 870.045L219.692 870.054ZM413.496 868.778H413.285V867.933H413.496V868.778ZM219.899 868.36H219.688V867.515H219.899V868.36ZM413.496 867.088H413.285V866.243H413.496V867.088ZM219.899 866.67H219.688V865.825H219.899V866.67ZM413.496 865.398H413.285V864.553H413.496V865.398ZM219.899 864.98H219.688V864.135H219.899V864.98ZM413.496 863.708H413.285V862.863H413.496V863.708ZM219.899 863.29H219.688V862.445H219.899V863.29ZM413.496 862.018H413.285V861.173H413.496V862.018ZM219.899 861.6H219.688V860.755H219.899V861.6ZM413.496 860.328H413.285V859.483H413.496V860.328ZM219.899 859.91H219.688V859.065H219.899V859.91ZM413.496 858.638H413.285V857.793H413.496V858.638ZM219.899 858.22H219.688V857.375H219.899V858.22ZM413.496 856.948H413.285V856.103H413.496V856.948ZM219.899 856.53H219.688V855.685H219.899V856.53ZM413.496 855.258H413.285V854.413H413.496V855.258ZM219.899 854.84H219.688V853.995H219.899V854.84ZM413.496 853.568H413.285V852.723H413.496V853.568ZM219.899 853.15H219.688V852.305H219.899V853.15ZM413.496 851.878H413.285V851.033H413.496V851.878ZM219.899 851.46H219.688V850.615H219.899V851.46ZM413.496 850.188H413.285V849.343H413.496V850.188ZM219.899 849.77H219.688V848.925H219.899V849.77ZM413.496 848.498H413.285V847.653H413.496V848.498ZM219.899 848.08H219.688V847.235H219.899V848.08ZM413.496 846.808H413.285V845.963H413.496V846.808ZM219.899 846.39H219.688V845.545H219.899V846.39ZM413.496 845.118H413.285V844.273H413.496V845.118ZM219.899 844.7H219.688V843.855H219.899V844.7ZM413.496 843.428H413.285V842.583H413.496V843.428ZM219.899 843.01H219.688V842.165H219.899V843.01ZM413.496 841.738H413.285V840.893H413.496V841.738ZM219.899 841.32H219.688V840.475H219.899V841.32ZM413.496 840.048H413.285V839.203H413.496V840.048ZM219.899 839.63H219.688V838.785H219.899V839.63ZM413.496 838.358H413.285V837.513H413.496V838.358ZM219.899 837.94H219.688V837.095H219.899V837.94ZM413.496 836.668H413.285V835.823H413.496V836.668ZM219.899 836.25H219.688V835.405H219.899V836.25ZM413.496 834.978H413.285V834.133H413.496V834.978ZM219.899 834.56H219.688V833.715H219.899V834.56ZM413.496 833.288H413.285V832.443H413.496V833.288ZM219.899 832.87H219.688V832.025H219.899V832.87ZM413.496 831.598H413.285V830.753H413.496V831.598ZM219.899 831.18H219.688V830.335H219.899V831.18ZM413.496 829.908H413.285V829.063H413.496V829.908ZM219.899 829.49H219.688V828.645H219.899V829.49ZM413.496 828.218H413.285V827.373H413.496V828.218ZM219.899 827.8H219.688V826.955H219.899V827.8ZM413.496 826.528H413.285V825.683H413.496V826.528ZM219.899 826.11H219.688V825.265H219.899V826.11ZM413.496 824.838H413.285V823.993H413.496V824.838ZM219.899 824.42H219.688V823.575H219.899V824.42ZM413.496 823.148H413.285V822.303H413.496V823.148ZM219.899 822.73H219.688V821.885H219.899V822.73ZM413.496 821.458H413.285V820.613H413.496V821.458ZM219.899 821.04H219.688V820.195H219.899V821.04ZM413.496 819.768H413.285V818.923H413.496V819.768ZM219.899 819.35H219.688V818.505H219.899V819.35ZM413.496 818.078H413.285V817.233H413.496V818.078ZM219.899 817.66H219.688V816.815H219.899V817.66ZM413.496 816.388H413.285V815.543H413.496V816.388ZM219.899 815.97H219.688V815.125H219.899V815.97ZM413.496 814.698H413.285V813.853H413.496V814.698ZM219.899 814.28H219.688V813.435H219.899V814.28ZM413.496 813.008H413.285V812.163H413.496V813.008ZM219.899 812.59H219.688V811.745H219.899V812.59ZM413.496 811.318H413.285V810.473H413.496V811.318ZM219.899 810.9H219.688V810.055H219.899V810.9ZM413.496 809.628H413.285V808.783H413.496V809.628ZM219.899 809.21H219.688V808.365H219.899V809.21ZM413.496 807.938H413.285V807.093H413.496V807.938ZM219.899 807.52H219.688V806.675H219.899V807.52ZM413.496 806.248H413.285V805.403H413.496V806.248ZM219.899 805.83H219.688V804.985H219.899V805.83ZM413.496 804.558H413.285V803.713H413.496V804.558ZM219.899 804.14H219.688V803.295H219.899V804.14ZM413.496 802.868H413.285V802.023H413.496V802.868ZM219.899 802.45H219.688V801.605H219.899V802.45ZM413.496 801.178H413.285V800.333H413.496V801.178ZM219.899 800.76H219.688V799.915H219.899V800.76ZM413.496 799.488H413.285V798.643H413.496V799.488ZM219.899 799.07H219.688V798.225H219.899V799.07ZM413.496 797.798H413.285V796.953H413.496V797.798ZM219.899 797.38H219.688V796.535H219.899V797.38ZM413.496 796.108H413.285V795.263H413.496V796.108ZM219.899 795.69H219.688V794.845H219.899V795.69ZM413.496 794.418H413.285V793.573H413.496V794.418ZM219.899 794H219.688V793.155H219.899V794ZM413.496 792.728H413.285V791.883H413.496V792.728ZM219.899 792.31H219.688V791.465H219.899V792.31ZM413.496 791.038H413.285V790.193H413.496V791.038ZM219.899 790.62H219.688V789.775H219.899V790.62ZM413.496 789.348H413.285V788.503H413.496V789.348ZM219.899 788.93H219.688V788.085H219.899V788.93ZM413.496 787.658H413.285V786.813H413.496V787.658ZM219.899 787.24H219.688V786.395H219.899V787.24ZM413.496 785.968H413.285V785.123H413.496V785.968ZM219.899 785.55H219.688V784.705H219.899V785.55ZM413.496 784.278H413.285V783.433H413.496V784.278ZM219.899 783.86H219.688V783.015H219.899V783.86ZM413.496 782.588H413.285V781.743H413.496V782.588ZM219.899 782.17H219.688V781.325H219.899V782.17ZM413.496 780.898H413.285V780.053H413.496V780.898ZM219.899 780.48H219.688V779.635H219.899V780.48ZM413.496 779.208H413.285V778.363H413.496V779.208ZM219.899 778.79H219.688V777.945H219.899V778.79ZM413.496 777.518H413.285V776.673H413.496V777.518ZM219.899 777.1H219.688V776.255H219.899V777.1ZM413.496 775.828H413.285V774.983H413.496V775.828ZM219.899 775.41H219.688V774.565H219.899V775.41ZM413.496 774.138H413.285V773.293H413.496V774.138ZM219.899 773.72H219.688V772.875H219.899V773.72ZM413.496 772.448H413.285V771.603H413.496V772.448ZM219.899 772.03H219.688V771.185H219.899V772.03ZM413.496 770.758H413.285V769.913H413.496V770.758ZM219.899 770.34H219.688V769.495H219.899V770.34ZM413.496 769.068H413.285V768.223H413.496V769.068ZM219.899 768.65H219.688V767.805H219.899V768.65ZM413.496 767.378H413.285V766.533H413.496V767.378ZM219.899 766.96H219.688V766.115H219.899V766.96ZM413.496 765.688H413.285V764.843H413.496V765.688ZM219.899 765.27H219.688V764.425H219.899V765.27ZM413.496 763.998H413.285V763.153H413.496V763.998ZM219.899 763.58H219.688V762.735H219.899V763.58ZM413.496 762.308H413.285V761.463H413.496V762.308ZM219.899 761.89H219.688V761.045H219.899V761.89ZM413.496 760.618H413.285V759.773H413.496V760.618ZM219.899 760.2H219.688V759.355H219.899V760.2ZM413.496 758.928H413.285V758.083H413.496V758.928ZM219.899 758.51H219.688V757.665H219.899V758.51ZM413.496 757.238H413.285V756.393H413.496V757.238ZM219.899 756.82H219.688V755.975H219.899V756.82ZM413.496 755.548H413.285V754.703H413.496V755.548ZM219.899 755.13H219.688V754.285H219.899V755.13ZM413.496 753.858H413.285V753.013H413.496V753.858ZM219.899 753.44H219.688V752.595H219.899V753.44ZM413.496 752.168H413.285V751.323H413.496V752.168ZM219.899 751.75H219.688V750.905H219.899V751.75ZM413.496 750.478H413.285V749.633H413.496V750.478ZM219.899 750.06H219.688V749.215H219.899V750.06ZM413.496 748.788H413.285V747.943H413.496V748.788ZM219.899 748.37H219.688V747.525H219.899V748.37ZM413.496 747.098H413.285V746.253H413.496V747.098ZM219.899 746.68H219.688V745.835H219.899V746.68ZM413.496 745.408H413.285V744.563H413.496V745.408ZM219.899 744.99H219.688V744.145H219.899V744.99ZM413.496 743.718H413.285V743.181C413.285 743.08 413.285 742.978 413.281 742.877L413.492 742.869C413.492 742.974 413.496 743.076 413.496 743.181V743.718ZM219.899 743.3H219.688V743.181C219.688 742.94 219.696 742.691 219.717 742.446L219.928 742.463C219.907 742.704 219.899 742.945 219.899 743.181V743.3ZM413.209 742.045C413.171 741.77 413.12 741.496 413.053 741.225L413.26 741.174C413.327 741.449 413.382 741.732 413.42 742.015L413.209 742.045ZM220.046 741.635L219.84 741.597C219.89 741.318 219.962 741.039 220.042 740.765L220.245 740.824C220.165 741.09 220.097 741.365 220.046 741.635ZM412.812 740.427C412.719 740.169 412.614 739.907 412.491 739.658L412.681 739.569C412.804 739.827 412.913 740.093 413.011 740.359L412.812 740.431V740.427ZM220.524 740.042L220.329 739.962C220.439 739.7 220.562 739.442 220.697 739.189L220.883 739.29C220.752 739.535 220.629 739.789 220.524 740.042ZM412.094 738.922C411.95 738.686 411.79 738.453 411.625 738.234L411.794 738.107C411.963 738.331 412.128 738.568 412.276 738.813L412.094 738.922ZM221.313 738.576L221.14 738.458C221.301 738.221 221.474 737.993 221.656 737.777L221.816 737.913C221.639 738.124 221.47 738.348 221.313 738.576ZM411.085 737.596C410.895 737.393 410.692 737.199 410.485 737.017L410.624 736.856C410.836 737.042 411.042 737.245 411.237 737.452L411.081 737.596H411.085ZM222.386 737.3L222.238 737.148C222.445 736.949 222.661 736.759 222.88 736.586L223.011 736.751C222.796 736.92 222.585 737.106 222.382 737.3H222.386ZM409.83 736.497C409.607 736.337 409.366 736.189 409.125 736.049L409.231 735.868C409.48 736.007 409.721 736.164 409.953 736.324L409.83 736.497ZM223.695 736.269L223.581 736.092C223.822 735.94 224.071 735.796 224.325 735.669L224.418 735.859C224.168 735.982 223.923 736.121 223.691 736.269H223.695ZM408.382 735.678C408.128 735.568 407.867 735.466 407.6 735.382L407.664 735.179C407.934 735.264 408.204 735.369 408.462 735.483L408.378 735.678H408.382ZM225.182 735.521L225.106 735.323C225.372 735.221 225.647 735.133 225.921 735.061L225.976 735.264C225.706 735.335 225.44 735.42 225.182 735.517V735.521ZM406.794 735.171C406.524 735.116 406.249 735.069 405.97 735.04L405.991 734.828C406.274 734.858 406.557 734.904 406.836 734.959L406.794 735.166V735.171ZM226.791 735.095L226.757 734.888C227.036 734.845 227.323 734.812 227.606 734.799L227.619 735.01C227.34 735.027 227.061 735.057 226.791 735.099V735.095ZM405.138 734.993H404.256V734.782H405.138V734.993ZM403.411 734.993H402.566V734.782H403.411V734.993ZM401.722 734.993H400.877V734.782H401.722V734.993ZM400.032 734.993H399.188V734.782H400.032V734.993ZM398.343 734.993H397.498V734.782H398.343V734.993ZM396.654 734.993H395.809V734.782H396.654V734.993ZM394.964 734.993H394.12V734.782H394.964V734.993ZM393.275 734.993H392.43V734.782H393.275V734.993ZM391.586 734.993H390.741V734.782H391.586V734.993ZM389.896 734.993H389.052V734.782H389.896V734.993ZM388.207 734.993H387.362V734.782H388.207V734.993ZM386.518 734.993H385.673V734.782H386.518V734.993ZM384.828 734.993H383.984V734.782H384.828V734.993ZM383.139 734.993H382.294V734.782H383.139V734.993ZM381.45 734.993H380.605V734.782H381.45V734.993ZM379.76 734.993H378.916V734.782H379.76V734.993ZM378.071 734.993H377.226V734.782H378.071V734.993ZM376.382 734.993H375.537V734.782H376.382V734.993ZM374.692 734.993H373.848V734.782H374.692V734.993ZM373.003 734.993H372.158V734.782H373.003V734.993ZM371.314 734.993H370.469V734.782H371.314V734.993ZM369.624 734.993H368.78V734.782H369.624V734.993ZM367.935 734.993H367.09V734.782H367.935V734.993ZM366.246 734.993H365.401V734.782H366.246V734.993ZM364.556 734.993H363.712V734.782H364.556V734.993ZM362.867 734.993H362.022V734.782H362.867V734.993ZM361.178 734.993H360.333V734.782H361.178V734.993ZM359.488 734.993H358.644V734.782H359.488V734.993ZM357.799 734.993H356.954V734.782H357.799V734.993ZM356.11 734.993H355.265V734.782H356.11V734.993ZM354.42 734.993H353.576V734.782H354.42V734.993ZM352.731 734.993H351.886V734.782H352.731V734.993ZM351.042 734.993H350.197V734.782H351.042V734.993ZM349.352 734.993H348.508V734.782H349.352V734.993ZM347.663 734.993H346.818V734.782H347.663V734.993ZM345.974 734.993H345.129V734.782H345.974V734.993ZM344.284 734.993H343.44V734.782H344.284V734.993ZM342.595 734.993H341.75V734.782H342.595V734.993ZM340.906 734.993H340.061V734.782H340.906V734.993ZM339.216 734.993H338.372V734.782H339.216V734.993ZM337.527 734.993H336.682V734.782H337.527V734.993ZM335.838 734.993H334.993V734.782H335.838V734.993ZM334.148 734.993H333.304V734.782H334.148V734.993ZM332.459 734.993H331.614V734.782H332.459V734.993ZM330.77 734.993H329.925V734.782H330.77V734.993ZM329.08 734.993H328.236V734.782H329.08V734.993ZM327.391 734.993H326.546V734.782H327.391V734.993ZM325.702 734.993H324.857V734.782H325.702V734.993ZM324.012 734.993H323.168V734.782H324.012V734.993ZM322.323 734.993H321.478V734.782H322.323V734.993ZM320.634 734.993H319.789V734.782H320.634V734.993ZM318.944 734.993H318.1V734.782H318.944V734.993ZM317.255 734.993H316.41V734.782H317.255V734.993ZM315.566 734.993H314.721V734.782H315.566V734.993ZM313.876 734.993H313.032V734.782H313.876V734.993ZM312.187 734.993H311.342V734.782H312.187V734.993ZM310.498 734.993H309.653V734.782H310.498V734.993ZM308.808 734.993H307.964V734.782H308.808V734.993ZM307.119 734.993H306.274V734.782H307.119V734.993ZM305.43 734.993H304.585V734.782H305.43V734.993ZM303.74 734.993H302.896V734.782H303.74V734.993ZM302.051 734.993H301.206V734.782H302.051V734.993ZM300.362 734.993H299.517V734.782H300.362V734.993ZM298.672 734.993H297.828V734.782H298.672V734.993ZM296.983 734.993H296.138V734.782H296.983V734.993ZM295.294 734.993H294.449V734.782H295.294V734.993ZM293.604 734.993H292.76V734.782H293.604V734.993ZM291.915 734.993H291.07V734.782H291.915V734.993ZM290.226 734.993H289.381V734.782H290.226V734.993ZM288.536 734.993H287.692V734.782H288.536V734.993ZM286.847 734.993H286.002V734.782H286.847V734.993ZM285.158 734.993H284.313V734.782H285.158V734.993ZM283.468 734.993H282.624V734.782H283.468V734.993ZM281.779 734.993H280.934V734.782H281.779V734.993ZM280.09 734.993H279.245V734.782H280.09V734.993ZM278.4 734.993H277.556V734.782H278.4V734.993ZM276.711 734.993H275.866V734.782H276.711V734.993ZM275.022 734.993H274.177V734.782H275.022V734.993ZM273.332 734.993H272.488V734.782H273.332V734.993ZM271.643 734.993H270.798V734.782H271.643V734.993ZM269.954 734.993H269.109V734.782H269.954V734.993ZM268.264 734.993H267.42V734.782H268.264V734.993ZM266.575 734.993H265.73V734.782H266.575V734.993ZM264.886 734.993H264.041V734.782H264.886V734.993ZM263.196 734.993H262.352V734.782H263.196V734.993ZM261.507 734.993H260.662V734.782H261.507V734.993ZM259.818 734.993H258.973V734.782H259.818V734.993ZM258.128 734.993H257.284V734.782H258.128V734.993ZM256.439 734.993H255.594V734.782H256.439V734.993ZM254.75 734.993H253.905V734.782H254.75V734.993ZM253.06 734.993H252.216V734.782H253.06V734.993ZM251.371 734.993H250.526V734.782H251.371V734.993ZM249.682 734.993H248.837V734.782H249.682V734.993ZM247.992 734.993H247.148V734.782H247.992V734.993ZM246.303 734.993H245.458V734.782H246.303V734.993ZM244.614 734.993H243.769V734.782H244.614V734.993ZM242.924 734.993H242.08V734.782H242.924V734.993ZM241.235 734.993H240.39V734.782H241.235V734.993ZM239.546 734.993H238.701V734.782H239.546V734.993ZM237.856 734.993H237.012V734.782H237.856V734.993ZM236.167 734.993H235.322V734.782H236.167V734.993ZM234.478 734.993H233.633V734.782H234.478V734.993ZM232.788 734.993H231.944V734.782H232.788V734.993ZM231.099 734.993H230.254V734.782H231.099V734.993ZM229.41 734.993H228.565V734.782H229.41V734.993Z" fill="#A89494"/>
<path d="M389.497 742.074H234.873C230.033 742.074 226.109 745.999 226.109 750.841V840.217C226.109 845.059 230.033 848.984 234.873 848.984H389.497C394.337 848.984 398.261 845.059 398.261 840.217V750.841C398.261 745.999 394.337 742.074 389.497 742.074Z" fill="#ECDDB8"/>
<path d="M410.486 762.878H219.57V857.463H410.486V762.878Z" fill="#504D59"/>
<path d="M390.182 773.838H234.189C229.727 773.838 226.109 777.457 226.109 781.92V856.635C226.109 861.099 229.727 864.718 234.189 864.718H390.182C394.644 864.718 398.261 861.099 398.261 856.635V781.92C398.261 777.457 394.644 773.838 390.182 773.838Z" fill="#B3B3B3"/>
<path d="M410.484 794.642H221.672V872.91H410.484V794.642Z" fill="#504D59"/>
<path d="M231.286 805.589C231.286 805.589 230.745 804.275 230.792 803.582C230.792 803.582 230.969 802.331 231.041 801.436C231.062 801.152 231.075 800.903 231.066 800.743C231.033 800.071 230.754 798.601 231.126 796.957C231.497 795.318 233.389 789.656 233.389 789.656L238.499 790.417L242.938 789.817C242.938 789.817 246.249 799.479 246.08 801.047C246.063 801.199 246.042 801.351 246.009 801.49C245.738 802.804 244.982 803.666 244.763 804.342C244.678 804.587 243.694 806.987 242.955 807.215C241.929 807.536 241.088 807.342 240.518 806.873C240.518 806.873 238.483 807.41 237.19 806.822C237.19 806.822 235.328 807.38 233.93 806.189C233.93 806.189 231.974 806.539 231.286 805.589Z" fill="#EFAA88"/>
<path d="M253.607 701.683C255.338 702.355 257.171 706.542 255.807 714.751C254.346 723.56 251.436 727.325 250.266 729.382C249.096 731.44 241.87 745.167 241.9 747.199C241.972 752.489 241.845 766.448 242.014 767.513C242.301 769.338 243.475 790.37 243.475 790.37L232.123 793.074C232.123 793.074 230.113 769.355 229.12 762.19C228.719 759.312 227.857 751.424 228.854 743.562C229.813 735.978 235.307 719.213 236.042 717.878C236.777 716.543 242.166 697.251 253.603 701.683H253.607Z" fill="#B68B60"/>
<path d="M692.88 604.377C692.88 604.377 683.044 609.19 685.476 622.283C687.909 635.376 688.986 637.142 686.266 642.259C683.546 647.375 680.337 669.197 682.786 673.338C685.236 677.474 713.089 655.158 716.953 636.437C720.817 617.716 714.503 609.388 712.273 606.283C710.044 603.182 701.567 599.971 692.884 604.377H692.88Z" fill="black"/>
<path d="M690.158 651.647C690.158 651.647 685.153 652.665 682.341 656.805C680.385 659.687 680.225 666.084 679.946 667.288C679.663 668.492 675.93 682.126 675.93 682.126L686.357 689.118L690.158 651.642V651.647Z" fill="#4754CC"/>
<path d="M651.63 884.812C651.63 884.812 644.826 893.976 645.76 895.429C646.693 896.883 653.852 897.09 658.206 895.429C662.564 893.769 662.666 883.029 664.638 878.411C665.462 876.48 663.696 870.776 661.217 870.362C658.734 869.948 656.035 871.165 656.035 871.165C656.035 871.165 658.611 877.667 651.634 884.812H651.63Z" fill="black"/>
<path d="M655.987 871.093C655.987 871.093 654.555 874.997 654.031 878.723C653.596 881.816 649.183 888.378 649.39 889.206C649.597 890.034 655.197 890.786 657.482 888.648C659.762 886.51 661.232 880.282 661.735 876.56C662.203 873.092 662.795 871.38 662.795 871.38C662.795 871.38 658.166 868.807 655.991 871.093H655.987Z" fill="#EEA886"/>
<path d="M710.865 884.964C710.865 884.964 704.306 893.976 705.239 895.429C706.173 896.883 713.331 897.09 717.686 895.429C722.04 893.769 722.145 883.029 724.118 878.411C724.941 876.48 723.176 870.776 720.693 870.362C718.209 869.948 715.299 871.254 715.299 871.254C715.299 871.254 717.842 877.819 710.865 884.964Z" fill="black"/>
<path d="M715.302 871.254C715.302 871.254 714.783 875.508 713.955 878.516C713.127 881.525 708.663 888.373 708.874 889.206C709.081 890.034 714.682 890.786 716.966 888.648C719.247 886.51 721.012 880.312 721.219 876.56C721.426 872.808 720.7 870.362 720.7 870.362C720.7 870.362 717.486 868.968 715.307 871.254H715.302Z" fill="#EEA886"/>
<path d="M682.519 722.035C682.519 722.035 676.678 749.215 675.339 756.055C673.996 762.899 670.242 796.04 669.84 801.672C669.439 807.308 663.746 828.539 664.016 830.554C664.282 832.565 655.578 872.999 655.578 872.999C655.578 872.999 658.551 875.394 661.685 873.214C663.298 872.095 680.787 835.362 680.787 825.303C680.787 811.394 691.071 793.235 692.397 790.121C704.721 761.209 702.297 752.371 703.906 750.495C705.515 748.615 705.654 751.657 706.596 755.814C707.534 759.971 709.544 795.93 710.752 800.493C711.96 805.056 711.022 820.486 711.694 828.269C712.365 836.051 715.309 871.254 715.309 871.254C715.309 871.254 717.589 874.828 720.786 871.347C721.475 870.599 726.311 832.134 726.446 822.877C726.581 813.621 726.724 800.853 726.982 796.847C729.465 758.484 735.572 753.004 725.956 725.85C707.947 675.011 682.527 722.035 682.527 722.035H682.519Z" fill="#EEA886"/>
<path d="M721.741 714.443C721.741 714.443 738.377 737.735 731.214 787.29C731.214 787.29 691.751 792.66 670.609 781.08C670.609 781.08 679.352 729.991 682.519 722.039C685.687 714.088 721.737 714.443 721.737 714.443H721.741Z" fill="black"/>
<path d="M664.816 877.608V887.203H663.57V879.784L664.816 877.608Z" fill="black"/>
<path d="M724.301 877.608V887.203H723.055V879.784L724.301 877.608Z" fill="black"/>
<path d="M699.407 648.25C699.407 648.25 693.279 651.144 691.151 651.571C689.022 651.997 680.765 662.729 679.317 666.645C677.868 670.562 679.317 676.439 682.294 683.338C685.276 690.238 682.463 692.536 683.827 699.436C685.191 706.335 686.382 720.941 686.125 724.773C685.867 728.605 720.558 729.327 728.476 722.344C728.476 722.344 720.52 710.421 719.498 708.718C718.476 707.015 719.329 697.733 720.262 695.346C721.2 692.963 727.429 672.683 727.429 672.683C727.429 672.683 732.527 657.11 727.923 653.531C723.924 650.421 713.015 649.314 711.059 648.634C709.1 647.954 703.407 647.654 699.403 648.254L699.407 648.25Z" fill="#EDDAD3"/>
<path d="M697.452 661.918L693.727 657.553L696.962 646.065C696.962 646.065 698.047 652.462 697.452 661.913V661.918Z" fill="#D6C5BE"/>
<path d="M696.484 641.173C696.484 641.173 696.653 642.711 696.852 644.836C696.936 645.778 697.033 646.834 697.118 647.929C697.367 651.026 697.57 654.38 697.451 656.083C697.451 656.083 703.82 662.471 711.063 648.63C711.063 648.63 708.014 642.926 710.312 635.152C712.605 627.383 696.484 641.169 696.484 641.169V641.173Z" fill="#EEA886"/>
<path d="M697.453 656.083V661.918L704.781 656.438L697.453 656.083Z" fill="#EEA886"/>
<path d="M697.453 661.918L700.494 658.149L710.748 647.929L714.064 651.123L697.453 661.918Z" fill="#D6C5BE"/>
<path d="M712.17 648.905C712.17 648.905 703.567 661.964 703.157 667.714C702.747 673.465 706.354 716.462 709.243 730.287C712.132 744.111 733.012 728.728 733.012 728.728C733.012 728.728 718.982 706.01 724.367 687.821C729.751 669.633 731.711 662.357 731.711 662.357C731.711 662.357 729.857 652.226 723.29 650.802C717.533 649.551 712.17 648.905 712.17 648.905Z" fill="#4754CC"/>
<path d="M678.749 668.39C678.749 668.39 677.195 673.883 683.243 686.025C683.243 686.025 683.146 701.565 682.977 706.42C682.808 711.274 679.375 728.728 679.375 728.728L687.635 733.13C688.839 733.836 690.33 732.855 690.161 731.47C688.467 717.502 682.96 664.512 694.857 650.269L690.085 651.676C690.085 651.676 681.604 658.618 678.749 668.39Z" fill="#4754CC"/>
<path d="M693.728 657.553L689.031 658.85L696.958 646.07L693.728 657.553Z" fill="#FAE6DE"/>
<path d="M700.492 658.149L704.779 663.768L713.58 649.095L710.531 647.367L700.492 658.149Z" fill="#FAE6DE"/>
<path d="M693.052 679.856L681.664 694.256L682.88 695.219L694.268 680.819L693.052 679.856Z" fill="#EB4747"/>
<path d="M694.993 693.647C694.993 693.647 693.904 693.668 693.19 693.128C691.957 692.194 691.509 689.9 689.33 690.069C687.151 690.238 686.137 697.074 686.686 698.371C687.231 699.664 690.259 700.314 694.731 699.423C699.204 698.531 694.993 693.652 694.993 693.652V693.647Z" fill="#EEA886"/>
<path d="M690.081 690.12C690.081 690.12 686.948 689.051 683.332 688.269C680.161 687.585 676.368 687.356 675.996 687.91C675.587 688.522 679.088 689.051 682.196 689.934C685.06 690.745 684.376 691.045 684.376 691.045C684.376 691.045 684.566 690.948 681.297 690.643C677.783 690.314 674.164 690.322 673.805 691.024C673.631 691.366 673.754 691.598 675.017 691.919C674.256 691.886 674.147 692.08 674.121 692.388C673.969 693.973 679.096 695.232 681.132 695.735C679.565 695.359 678.383 695.244 678.949 696.305C679.595 697.518 686.91 698.988 689.486 699.757C692.299 700.593 690.077 690.124 690.077 690.124L690.081 690.12Z" fill="#EEA886"/>
<path d="M722.075 651.038C724.233 650.341 730.559 652.585 731.628 659.074C732.696 665.564 733.127 672.767 734.124 676.266C735.121 679.76 737.667 695.244 735.526 696.529C733.389 697.813 729.339 698.988 723.654 698.988C717.97 698.988 695.037 700.01 695.037 700.01L693.609 691.924C693.609 691.924 702.25 691.476 706.727 690.8C710.714 690.196 716.234 688.497 722.738 687.783C722.738 687.783 721.357 678.192 720.36 675.48C719.363 672.767 712.374 654.177 722.07 651.038H722.075Z" fill="#4754CC"/>
<path d="M692.996 706.103L670.081 701.557L653.086 665.175L677.543 667.748L692.996 706.103Z" fill="white"/>
<path d="M667.225 695.384C667.225 695.384 665.971 694.218 664.851 692.583C663.732 690.948 660.071 684.711 660.404 684.319C660.738 683.926 666.173 683.795 667.162 684.682C668.146 685.569 666.19 685.916 666.19 685.916C666.19 685.916 669.163 686.224 668.952 687.061C668.741 687.901 666.95 687.669 666.95 687.669C666.95 687.669 669.345 688.129 668.982 688.865C668.619 689.604 667.47 689.596 667.47 689.596C667.47 689.596 669.59 689.862 669.328 690.664C669.066 691.471 665.713 692.228 666.161 692.9C666.608 693.567 667.229 695.38 667.229 695.38L667.225 695.384Z" fill="#EEA886"/>
<path d="M694.312 605.831C694.312 605.831 680.029 610.322 687.783 634.975C695.537 659.628 715.04 632.119 713.001 617.095C710.961 602.075 694.312 605.827 694.312 605.827V605.831Z" fill="#EEA987"/>
<path d="M686.322 620.217C686.322 620.217 693.417 627.184 705.293 628.054C705.293 628.054 709.858 633.407 710.209 635.507C710.209 635.507 720.805 617.441 707.781 606.608C694.756 595.78 681.537 615.751 686.322 620.217Z" fill="black"/>
<path d="M705.152 628.544C705.245 626.749 706.347 622.667 709.017 623.808C711.681 624.953 708.852 633.268 707.086 632.757C707.086 632.757 704.937 632.79 705.156 628.544H705.152Z" fill="#EEA987"/>
<path d="M696.848 644.836C696.932 645.778 697.03 646.834 697.114 647.929C705.371 643.852 706.638 637.97 706.671 637.789C700.788 645.394 696.844 644.84 696.844 644.84L696.848 644.836Z" fill="#A77860"/>
<defs>
<filter id="filter0_d_573_132953" x="136.172" y="352.167" width="50.6875" height="70.2754" filterUnits="userSpaceOnUse" color-interpolation-filters="sRGB">
<feFlood flood-opacity="0" result="BackgroundImageFix"/>
<feColorMatrix in="SourceAlpha" type="matrix" values="0 0 0 0 0 0 0 0 0 0 0 0 0 0 0 0 0 0 127 0" result="hardAlpha"/>
<feOffset dx="2" dy="2"/>
<feGaussianBlur stdDeviation="3"/>
<feColorMatrix type="matrix" values="0 0 0 0 0 0 0 0 0 0 0 0 0 0 0 0 0 0 0.27 0"/>
<feBlend mode="normal" in2="BackgroundImageFix" result="effect1_dropShadow_573_132953"/>
<feBlend mode="normal" in="SourceGraphic" in2="effect1_dropShadow_573_132953" result="shape"/>
</filter>
<filter id="filter1_d_573_132953" x="253.055" y="823.212" width="336.844" height="87.9993" filterUnits="userSpaceOnUse" color-interpolation-filters="sRGB">
<feFlood flood-opacity="0" result="BackgroundImageFix"/>
<feColorMatrix in="SourceAlpha" type="matrix" values="0 0 0 0 0 0 0 0 0 0 0 0 0 0 0 0 0 0 127 0" result="hardAlpha"/>
<feOffset dx="2" dy="2"/>
<feGaussianBlur stdDeviation="3"/>
<feColorMatrix type="matrix" values="0 0 0 0 0 0 0 0 0 0 0 0 0 0 0 0 0 0 0.27 0"/>
<feBlend mode="normal" in2="BackgroundImageFix" result="effect1_dropShadow_573_132953"/>
<feBlend mode="normal" in="SourceGraphic" in2="effect1_dropShadow_573_132953" result="shape"/>
</filter>
<filter id="filter2_d_573_132953" x="394.086" y="662.261" width="56.7109" height="147.842" filterUnits="userSpaceOnUse" color-interpolation-filters="sRGB">
<feFlood flood-opacity="0" result="BackgroundImageFix"/>
<feColorMatrix in="SourceAlpha" type="matrix" values="0 0 0 0 0 0 0 0 0 0 0 0 0 0 0 0 0 0 127 0" result="hardAlpha"/>
<feOffset dx="2" dy="2"/>
<feGaussianBlur stdDeviation="3"/>
<feColorMatrix type="matrix" values="0 0 0 0 0 0 0 0 0 0 0 0 0 0 0 0 0 0 0.27 0"/>
<feBlend mode="normal" in2="BackgroundImageFix" result="effect1_dropShadow_573_132953"/>
<feBlend mode="normal" in="SourceGraphic" in2="effect1_dropShadow_573_132953" result="shape"/>
</filter>
<filter id="filter3_d_573_132953" x="223.43" y="455.257" width="398.039" height="284.441" filterUnits="userSpaceOnUse" color-interpolation-filters="sRGB">
<feFlood flood-opacity="0" result="BackgroundImageFix"/>
<feColorMatrix in="SourceAlpha" type="matrix" values="0 0 0 0 0 0 0 0 0 0 0 0 0 0 0 0 0 0 127 0" result="hardAlpha"/>
<feOffset dx="2" dy="2"/>
<feGaussianBlur stdDeviation="3"/>
<feColorMatrix type="matrix" values="0 0 0 0 0 0 0 0 0 0 0 0 0 0 0 0 0 0 0.27 0"/>
<feBlend mode="normal" in2="BackgroundImageFix" result="effect1_dropShadow_573_132953"/>
<feBlend mode="normal" in="SourceGraphic" in2="effect1_dropShadow_573_132953" result="shape"/>
</filter>
<filter id="filter4_d_573_132953" x="315.883" y="792.974" width="213.125" height="22.254" filterUnits="userSpaceOnUse" color-interpolation-filters="sRGB">
<feFlood flood-opacity="0" result="BackgroundImageFix"/>
<feColorMatrix in="SourceAlpha" type="matrix" values="0 0 0 0 0 0 0 0 0 0 0 0 0 0 0 0 0 0 127 0" result="hardAlpha"/>
<feOffset dx="2" dy="2"/>
<feGaussianBlur stdDeviation="3"/>
<feColorMatrix type="matrix" values="0 0 0 0 0 0 0 0 0 0 0 0 0 0 0 0 0 0 0.27 0"/>
<feBlend mode="normal" in2="BackgroundImageFix" result="effect1_dropShadow_573_132953"/>
<feBlend mode="normal" in="SourceGraphic" in2="effect1_dropShadow_573_132953" result="shape"/>
</filter>
<filter id="filter5_d_573_132953" x="455.867" y="280" width="62.1562" height="56.0287" filterUnits="userSpaceOnUse" color-interpolation-filters="sRGB">
<feFlood flood-opacity="0" result="BackgroundImageFix"/>
<feColorMatrix in="SourceAlpha" type="matrix" values="0 0 0 0 0 0 0 0 0 0 0 0 0 0 0 0 0 0 127 0" result="hardAlpha"/>
<feOffset dx="2" dy="2"/>
<feGaussianBlur stdDeviation="3"/>
<feColorMatrix type="matrix" values="0 0 0 0 0 0 0 0 0 0 0 0 0 0 0 0 0 0 0.27 0"/>
<feBlend mode="normal" in2="BackgroundImageFix" result="effect1_dropShadow_573_132953"/>
<feBlend mode="normal" in="SourceGraphic" in2="effect1_dropShadow_573_132953" result="shape"/>
</filter>
<filter id="filter6_d_573_132953" x="714.18" y="521.416" width="95.9922" height="85.7305" filterUnits="userSpaceOnUse" color-interpolation-filters="sRGB">
<feFlood flood-opacity="0" result="BackgroundImageFix"/>
<feColorMatrix in="SourceAlpha" type="matrix" values="0 0 0 0 0 0 0 0 0 0 0 0 0 0 0 0 0 0 127 0" result="hardAlpha"/>
<feOffset dx="2" dy="2"/>
<feGaussianBlur stdDeviation="3"/>
<feColorMatrix type="matrix" values="0 0 0 0 0 0 0 0 0 0 0 0 0 0 0 0 0 0 0.27 0"/>
<feBlend mode="normal" in2="BackgroundImageFix" result="effect1_dropShadow_573_132953"/>
<feBlend mode="normal" in="SourceGraphic" in2="effect1_dropShadow_573_132953" result="shape"/>
</filter>
<linearGradient id="paint0_linear_573_132953" x1="347.015" y1="389.532" x2="378.181" y2="389.532" gradientUnits="userSpaceOnUse">
<stop offset="0.385228" stop-color="#93693F"/>
<stop offset="1" stop-color="#5F3917"/>
</linearGradient>
<linearGradient id="paint1_linear_573_132953" x1="323.202" y1="582.386" x2="501.41" y2="582.386" gradientUnits="userSpaceOnUse">
<stop offset="0.385228" stop-color="#93693F"/>
<stop offset="1" stop-color="#5F3917"/>
</linearGradient>
<linearGradient id="paint2_linear_573_132953" x1="303.569" y1="408.466" x2="488.711" y2="408.466" gradientUnits="userSpaceOnUse">
<stop offset="0.385228" stop-color="#93693F"/>
<stop offset="1" stop-color="#5F3917"/>
</linearGradient>
<linearGradient id="paint3_linear_573_132953" x1="75.2255" y1="535.7" x2="238.72" y2="535.7" gradientUnits="userSpaceOnUse">
<stop offset="0.385228" stop-color="#93693F"/>
<stop offset="1" stop-color="#5F3917"/>
</linearGradient>
<linearGradient id="paint4_linear_573_132953" x1="562.556" y1="691.78" x2="562.556" y2="466.752" gradientUnits="userSpaceOnUse">
<stop stop-color="#A1A1A1"/>
<stop offset="1" stop-color="#F5F2E4"/>
</linearGradient>
<linearGradient id="paint5_linear_573_132953" x1="495.859" y1="588.314" x2="757.15" y2="783.723" gradientUnits="userSpaceOnUse">
<stop stop-color="#A77D69"/>
<stop offset="1" stop-color="#ECDDB8"/>
</linearGradient>
<linearGradient id="paint6_linear_573_132953" x1="772.774" y1="803.054" x2="772.774" y2="618.65" gradientUnits="userSpaceOnUse">
<stop stop-color="#A1A1A1"/>
<stop offset="1" stop-color="#F5F2E4"/>
</linearGradient>
<linearGradient id="paint7_linear_573_132953" x1="770.921" y1="756.9" x2="770.921" y2="700.285" gradientUnits="userSpaceOnUse">
<stop offset="0.01" stop-color="#8A8A8A"/>
<stop offset="1" stop-color="#F5F2E4"/>
</linearGradient>
<linearGradient id="paint8_linear_573_132953" x1="909" y1="726.07" x2="887.898" y2="734.079" gradientUnits="userSpaceOnUse">
<stop stop-color="#FFFAED"/>
<stop offset="0.46" stop-color="#D9D5CA"/>
<stop offset="1" stop-color="#ADA9A2"/>
</linearGradient>
<linearGradient id="paint9_linear_573_132953" x1="889.146" y1="729.543" x2="908.846" y2="720.917" gradientUnits="userSpaceOnUse">
<stop stop-color="#F27B1F"/>
<stop offset="1" stop-color="#E8E3D8"/>
</linearGradient>
<linearGradient id="paint10_linear_573_132953" x1="158.183" y1="356.485" x2="164.157" y2="413.778" gradientUnits="userSpaceOnUse">
<stop stop-color="#B867C7"/>
<stop offset="1" stop-color="#603C93"/>
</linearGradient>
<linearGradient id="paint11_linear_573_132953" x1="408.292" y1="827.627" x2="409.515" y2="903.138" gradientUnits="userSpaceOnUse">
<stop stop-color="#B867C7"/>
<stop offset="1" stop-color="#603C93"/>
</linearGradient>
<linearGradient id="paint12_linear_573_132953" x1="421.982" y1="801.362" x2="394.789" y2="672.078" gradientUnits="userSpaceOnUse">
<stop stop-color="#B867C7"/>
<stop offset="1" stop-color="#603C93"/>
</linearGradient>
<linearGradient id="paint13_linear_573_132953" x1="433.738" y1="730.211" x2="420.542" y2="460.096" gradientUnits="userSpaceOnUse">
<stop stop-color="#B867C7"/>
<stop offset="1" stop-color="#603C93"/>
</linearGradient>
<linearGradient id="paint14_linear_573_132953" x1="413.522" y1="797.03" x2="413.558" y2="807.221" gradientUnits="userSpaceOnUse">
<stop stop-color="#B867C7"/>
<stop offset="1" stop-color="#603C93"/>
</linearGradient>
<linearGradient id="paint15_linear_573_132953" x1="697.497" y1="576.594" x2="455.85" y2="576.594" gradientUnits="userSpaceOnUse">
<stop stop-color="#EDF4FF"/>
<stop offset="1" stop-color="#EDFFFE"/>
</linearGradient>
<linearGradient id="paint16_linear_573_132953" x1="346.709" y1="192.068" x2="108.103" y2="192.068" gradientUnits="userSpaceOnUse">
<stop stop-color="#EDF4FF"/>
<stop offset="1" stop-color="#EDFFFE"/>
</linearGradient>
<linearGradient id="paint17_linear_573_132953" x1="588.428" y1="576.594" x2="266.779" y2="576.594" gradientUnits="userSpaceOnUse">
<stop stop-color="#EDF4FF"/>
<stop offset="1" stop-color="#EDFFFE"/>
</linearGradient>
<linearGradient id="paint18_linear_573_132953" x1="483.219" y1="284.24" x2="485.868" y2="327.836" gradientUnits="userSpaceOnUse">
<stop stop-color="#B867C7"/>
<stop offset="1" stop-color="#603C93"/>
</linearGradient>
<linearGradient id="paint19_linear_573_132953" x1="757.285" y1="525.819" x2="761.721" y2="598.824" gradientUnits="userSpaceOnUse">
<stop stop-color="#B867C7"/>
<stop offset="1" stop-color="#603C93"/>
</linearGradient>
</defs>
</svg>
