<svg width="94" height="80" viewBox="0 0 94 80" fill="none" xmlns="http://www.w3.org/2000/svg">
<path fill-rule="evenodd" clip-rule="evenodd" d="M75.4372 2.15356H70.9804L70.0232 5.1838C69.9697 5.35402 69.8751 5.50793 69.748 5.6315C69.6209 5.75506 69.4653 5.84435 69.2955 5.89121C68.0951 6.22283 66.9415 6.70919 65.8628 7.33841C65.7095 7.42731 65.5367 7.47588 65.3602 7.47972C65.1836 7.48355 65.009 7.44252 64.852 7.36035L62.0658 5.90479L58.9172 9.10118L60.3232 11.8765C60.4181 12.0399 60.4687 12.226 60.47 12.4157C60.4713 12.6054 60.4231 12.7921 60.3304 12.9569C60.0204 13.5026 59.7453 14.068 59.5069 14.6497C59.2744 15.2189 59.0764 15.802 58.9141 16.3957C58.8737 16.578 58.7871 16.7463 58.6629 16.8842C58.5387 17.022 58.3812 17.1245 58.2059 17.1815L55.221 18.1522V22.6714L58.2059 23.6432C58.3736 23.6975 58.5252 23.7935 58.6469 23.9226C58.7686 24.0516 58.8566 24.2095 58.9028 24.382C59.2294 25.6006 59.7085 26.7717 60.3283 27.8667C60.416 28.0223 60.4641 28.1977 60.468 28.3769C60.472 28.5561 60.4317 28.7334 60.351 28.8928L58.9172 31.7214L62.0658 34.9178L64.8047 33.4915C64.9655 33.3951 65.1486 33.3437 65.3353 33.3424C65.5221 33.3411 65.7058 33.39 65.8679 33.4842C66.406 33.7987 66.9633 34.0779 67.5364 34.3201C68.097 34.5565 68.6714 34.7575 69.2563 34.922C69.4357 34.963 69.6014 35.051 69.737 35.1771C69.8726 35.3032 69.9734 35.463 70.0293 35.6409L70.9866 38.6711H75.4372L76.3934 35.6409C76.4473 35.4707 76.5422 35.3169 76.6695 35.1934C76.7967 35.0699 76.9523 34.9805 77.1222 34.9335C78.3221 34.6013 79.475 34.1143 80.5528 33.4842C80.706 33.3951 80.8788 33.3464 81.0553 33.3423C81.2318 33.3383 81.4065 33.3792 81.5635 33.4612L84.3498 34.9167L87.4984 31.7204L86.0914 28.9451C85.9966 28.7817 85.9461 28.5958 85.945 28.4062C85.944 28.2167 85.9923 28.0302 86.0852 27.8657C86.394 27.3193 86.669 26.754 86.9086 26.1729C87.1414 25.6036 87.3391 25.0201 87.5005 24.4258C87.5412 24.2439 87.6279 24.0758 87.7521 23.9382C87.8763 23.8006 88.0336 23.6982 88.2086 23.6411L91.1936 22.6693V18.1501L88.2086 17.1794C88.0409 17.1248 87.8893 17.0286 87.7676 16.8994C87.6459 16.7702 87.558 16.6121 87.5118 16.4396C87.3529 15.8491 87.1583 15.2691 86.9292 14.7029L86.9076 14.6517C86.6683 14.0695 86.3933 13.5031 86.0842 12.9559C85.9966 12.8002 85.9488 12.6248 85.945 12.4456C85.9412 12.2664 85.9816 12.0891 86.0626 11.9297L87.4964 9.10118L84.3478 5.90479L81.614 7.33319C81.4529 7.42938 81.2696 7.48062 81.0827 7.48172C80.8958 7.48283 80.7119 7.43374 80.5497 7.33946C79.4846 6.7182 78.3465 6.23615 77.1623 5.90479C76.9829 5.86342 76.8173 5.77539 76.6816 5.64935C76.5459 5.52331 76.4448 5.36359 76.3883 5.18589L75.4321 2.15565L75.4372 2.15356ZM70.2126 0H76.2071C76.4464 0.0011288 76.6783 0.0843166 76.8651 0.23606C77.052 0.387803 77.1828 0.599196 77.2364 0.835929L78.2328 3.98947C78.7303 4.14621 79.2151 4.32384 79.6872 4.52238C80.1737 4.72718 80.6427 4.95009 81.0942 5.19112L84.0729 3.63316C84.2726 3.52833 84.4999 3.49076 84.722 3.5259C84.9441 3.56103 85.1493 3.66704 85.3081 3.82855L89.5467 8.12627C89.7144 8.2968 89.821 8.51948 89.8493 8.75872C89.8777 8.99796 89.8262 9.23995 89.7031 9.446L88.2066 12.3989C88.4454 12.8601 88.6649 13.3348 88.8653 13.8231C88.8725 13.8419 88.8797 13.8618 88.8859 13.8806C89.0732 14.3431 89.2413 14.8179 89.3902 15.3048L92.581 16.3424C92.7944 16.4121 92.9805 16.5486 93.1125 16.7324C93.2446 16.9163 93.3158 17.1379 93.3159 17.3654V23.4509C93.3148 23.6938 93.2329 23.9292 93.0834 24.1189C92.9339 24.3086 92.7257 24.4414 92.4925 24.4958L89.3861 25.5073C89.2317 26.0131 89.0568 26.5052 88.8612 26.9838C88.6594 27.4791 88.4399 27.9556 88.2024 28.4132L89.733 31.432C89.8363 31.6346 89.8733 31.8654 89.8387 32.0909C89.804 32.3163 89.6996 32.5247 89.5405 32.6859L85.3081 36.9951C85.1401 37.1652 84.9208 37.2733 84.6852 37.3023C84.4496 37.3313 84.2113 37.2794 84.0081 37.1549L81.0983 35.6356C80.6488 35.8746 80.1802 36.0971 79.6923 36.3033C79.2202 36.5019 78.7351 36.6795 78.2369 36.8363L77.2138 40.0755C77.1455 40.292 77.0111 40.4808 76.8302 40.6147C76.6492 40.7486 76.4311 40.8207 76.2071 40.8205H70.2126C69.9733 40.8194 69.7414 40.7362 69.5546 40.5844C69.3677 40.4327 69.2369 40.2213 69.1833 39.9846L68.1869 36.831C67.6887 36.6743 67.2039 36.4967 66.7325 36.2981C66.2447 36.0933 65.7753 35.8708 65.3245 35.6304L62.3509 37.1832C62.1512 37.288 61.9239 37.3256 61.7018 37.2904C61.4798 37.2553 61.2745 37.1493 61.1157 36.9878L56.8792 32.6921C56.7116 32.5215 56.6051 32.299 56.5766 32.0598C56.548 31.8207 56.5991 31.5787 56.7217 31.3724L58.2172 28.4195C57.9819 27.9618 57.7626 27.4857 57.5595 26.9911C57.364 26.5111 57.189 26.0186 57.0346 25.5136L53.8438 24.476C53.6307 24.4064 53.4449 24.2699 53.313 24.0863C53.1811 23.9027 53.11 23.6813 53.1099 23.4541V17.3685C53.111 17.1256 53.193 16.8902 53.3424 16.7005C53.4919 16.5109 53.7002 16.378 53.9333 16.3236L57.0397 15.3121C57.1941 14.8071 57.3691 14.3149 57.5647 13.8357C57.7664 13.3411 57.9857 12.8649 58.2224 12.4073L56.6836 9.38017C56.5803 9.1775 56.5433 8.94673 56.5779 8.72128C56.6126 8.49583 56.717 8.28743 56.8761 8.12627L61.1147 3.82333C61.2827 3.65307 61.502 3.5449 61.7377 3.51611C61.9733 3.48732 62.2117 3.53957 62.4147 3.6645L65.3193 5.18694C65.7702 4.94661 66.2392 4.7237 66.7264 4.5182C67.1992 4.31966 67.6843 4.14203 68.1818 3.98529L69.2039 0.746067C69.2724 0.529645 69.4068 0.340849 69.5876 0.206802C69.7685 0.0727543 69.9866 0.000353557 70.2105 0H70.2126ZM79.1478 14.3832C80.5221 15.7775 81.3776 17.6125 81.5686 19.5753C81.7596 21.5382 81.2742 23.5076 80.1952 25.148C79.1162 26.7883 77.5103 27.998 75.6511 28.5711C73.792 29.1441 71.7946 29.045 69.9994 28.2906C68.2042 27.5362 66.7221 26.1732 65.8059 24.4339C64.8896 22.6946 64.5957 20.6865 64.9744 18.7519C65.3531 16.8172 66.3808 15.0758 67.8825 13.8242C69.3842 12.5726 71.2669 11.8883 73.2098 11.888C74.3128 11.8864 75.4052 12.1062 76.4242 12.5345C77.4432 12.9629 78.3688 13.5905 79.1478 14.3832ZM73.2098 9.73335C75.6433 9.73314 78.0016 10.5896 79.8829 12.1566C81.7641 13.7237 83.0519 15.9046 83.5268 18.3275C84.0017 20.7504 83.6343 23.2656 82.4873 25.4444C81.3402 27.6232 79.4845 29.3308 77.2362 30.2763C74.988 31.2218 72.4864 31.3466 70.1577 30.6295C67.8289 29.9125 65.8172 28.3978 64.4652 26.3438C63.1131 24.2897 62.5046 21.8232 62.7431 19.3647C62.9816 16.9061 64.0525 14.6076 65.7732 12.8608C66.7488 11.8679 67.908 11.0805 69.1842 10.5438C70.4604 10.0071 71.8285 9.7317 73.2098 9.73335ZM37.6603 22.755L38.8882 26.6431C38.9443 26.8212 39.0452 26.9813 39.181 27.1075C39.3168 27.2338 39.4827 27.3219 39.6623 27.3631C41.1374 27.7762 42.5553 28.3765 43.8824 29.1499C44.0445 29.244 44.2282 29.2929 44.415 29.2917C44.6017 29.2904 44.7848 29.2389 44.9456 29.1426L48.4699 27.3025L52.587 31.4821L50.7467 35.1132C50.6659 35.2724 50.6256 35.4496 50.6296 35.6286C50.6336 35.8077 50.6816 35.9829 50.7693 36.1382C51.5393 37.5006 52.1349 38.9571 52.5418 40.4725C52.5883 40.6448 52.6763 40.8025 52.798 40.9315C52.9197 41.0605 53.0711 41.1567 53.2386 41.2113L57.0686 42.4579V48.3553L53.2355 49.603C53.0603 49.6599 52.9027 49.7622 52.7784 49.8998C52.654 50.0374 52.5671 50.2056 52.5263 50.3877C52.1196 51.8853 51.5282 53.3247 50.7662 54.6718C50.6735 54.8364 50.6253 55.0229 50.6266 55.2125C50.6278 55.4021 50.6785 55.588 50.7734 55.7512L52.586 59.329L48.4689 63.5034L44.8921 61.6351C44.7353 61.553 44.5608 61.5119 44.3845 61.5158C44.2081 61.5196 44.0355 61.5682 43.8824 61.6571C42.5403 62.4387 41.1056 63.0434 39.6129 63.4564C39.4431 63.5034 39.2876 63.5928 39.1606 63.7163C39.0335 63.8399 38.9388 63.9937 38.8852 64.1638L37.6572 68.053H31.8438L30.6148 64.1638C30.5586 63.9861 30.4577 63.8264 30.3222 63.7003C30.1867 63.5743 30.0211 63.4862 29.8418 63.4449C29.1107 63.2407 28.3929 62.9901 27.6927 62.6947C26.9799 62.3938 26.2865 62.0476 25.6166 61.6581C25.4545 61.564 25.2709 61.515 25.0842 61.5161C24.8975 61.5172 24.7143 61.5684 24.5534 61.6644L21.0291 63.5066L16.9119 59.3321L18.7523 55.7011C18.8332 55.5418 18.8736 55.3644 18.8699 55.1852C18.8661 55.006 18.8182 54.8306 18.7307 54.675C17.9629 53.3123 17.3693 51.8558 16.9644 50.3407C16.9182 50.1682 16.8303 50.0101 16.7086 49.8809C16.5869 49.7517 16.4353 49.6554 16.2676 49.6009L12.4376 48.3553V42.4506L16.2686 41.204C16.4438 41.1468 16.6012 41.0443 16.7254 40.9065C16.8496 40.7687 16.9362 40.6004 16.9768 40.4182C17.3837 38.9207 17.9751 37.4813 18.7369 36.1341C18.8295 35.9695 18.8778 35.7831 18.8767 35.5935C18.8756 35.404 18.8252 35.2181 18.7307 35.0547L16.9171 31.4769L21.0342 27.2973L24.611 29.1656C24.768 29.2476 24.9427 29.2884 25.1193 29.2844C25.2958 29.2804 25.4685 29.2316 25.6218 29.1426C26.2926 28.7529 26.987 28.4067 27.7009 28.106L27.7503 28.0841C28.4481 27.7933 29.1627 27.5462 29.8902 27.3443C30.0601 27.2972 30.2157 27.2079 30.3429 27.0844C30.4702 26.9608 30.5651 26.807 30.619 26.6369L31.8438 22.755H37.6603ZM31.0729 20.6015H38.4302C38.6695 20.6026 38.9014 20.6858 39.0882 20.8375C39.2751 20.9893 39.4059 21.2007 39.4595 21.4374L40.7255 25.4478C41.3712 25.6463 41.9998 25.8744 42.6112 26.1322C43.2404 26.3969 43.846 26.6867 44.4279 27.0015L48.1899 25.0371C48.3895 24.9323 48.6167 24.8947 48.8387 24.9296C49.0608 24.9645 49.2661 25.0703 49.4251 25.2315L54.6271 30.5124C54.7948 30.6829 54.9014 30.9055 54.93 31.1447C54.9585 31.3839 54.9073 31.626 54.7846 31.8322L52.8866 35.5761C53.1967 36.1661 53.4822 36.7809 53.7429 37.4204C53.9961 38.0403 54.2209 38.6784 54.4171 39.3346L58.4499 40.647C58.663 40.7165 58.849 40.8529 58.9808 41.0366C59.1127 41.2203 59.1838 41.4417 59.1837 41.669V49.138C59.1824 49.3808 59.1004 49.6161 58.951 49.8058C58.8016 49.9954 58.5934 50.1283 58.3603 50.1829L54.4099 51.4681C54.2143 52.1236 53.9896 52.7614 53.7357 53.3814C53.475 54.0195 53.1895 54.6342 52.8794 55.2256L54.8144 59.0458C54.9175 59.2485 54.9545 59.4791 54.9201 59.7045C54.8857 59.9298 54.7816 60.1383 54.623 60.2997L49.421 65.5817C49.2529 65.7518 49.0337 65.86 48.7981 65.889C48.5625 65.9179 48.3241 65.8661 48.121 65.7416L44.4238 63.8106C43.8426 64.1248 43.237 64.4146 42.6071 64.68C41.997 64.937 41.3685 65.1652 40.7214 65.3644L39.4369 69.4625C39.3683 69.6789 39.2339 69.8675 39.053 70.0014C38.8721 70.1353 38.6541 70.2075 38.4302 70.2076H31.0729C30.8336 70.2063 30.6019 70.123 30.4151 69.9713C30.2282 69.8196 30.0974 69.6083 30.0436 69.3716L28.7776 65.3613C28.1325 65.1627 27.5043 64.9346 26.8929 64.6769C26.2644 64.4121 25.6588 64.122 25.0762 63.8064L21.3132 65.7719C21.1135 65.8766 20.8862 65.9141 20.6642 65.8789C20.4421 65.8438 20.2369 65.7379 20.078 65.5765L14.875 60.2945C14.7073 60.1241 14.6008 59.9016 14.5725 59.6626C14.5441 59.4235 14.5955 59.1817 14.7185 58.9758L16.6206 55.2215C16.3098 54.6321 16.024 54.0177 15.7632 53.3782C15.51 52.7589 15.2853 52.1209 15.0891 51.464L11.0573 50.1516C10.8442 50.082 10.6582 49.9456 10.5261 49.7619C10.3941 49.5783 10.3228 49.357 10.3224 49.1296V41.6679C10.3235 41.425 10.4055 41.1896 10.555 40.9999C10.7044 40.8103 10.9127 40.6774 11.1459 40.623L15.0901 39.3346C15.2857 38.6798 15.5104 38.0417 15.7643 37.4204C16.025 36.7823 16.3108 36.1675 16.6217 35.5761L14.6784 31.7569C14.5751 31.5543 14.5381 31.3235 14.5727 31.098C14.6073 30.8726 14.7117 30.6642 14.8709 30.503L20.0739 25.2221C20.2416 25.0517 20.4607 24.9434 20.6962 24.9144C20.9317 24.8854 21.1699 24.9375 21.3729 25.0622L25.0742 26.9932C25.6602 26.6755 26.2644 26.3857 26.8868 26.1238L26.9423 26.1019C27.5373 25.8539 28.1487 25.6331 28.7765 25.4394L30.0693 21.3454C30.1379 21.1291 30.2723 20.9405 30.4532 20.8066C30.6341 20.6727 30.8521 20.6005 31.076 20.6004L31.0729 20.6015ZM42.2098 37.8362C40.4846 36.0843 38.2145 34.9938 35.7861 34.7506C33.3578 34.5073 30.9215 35.1264 28.8923 36.5023C26.8632 37.8782 25.3668 39.9258 24.6581 42.2962C23.9493 44.6666 24.0722 47.2131 25.0056 49.5019C25.939 51.7906 27.6253 53.68 29.7771 54.8481C31.929 56.0162 34.4132 56.3907 36.8065 55.9078C39.1998 55.4249 41.3542 54.1145 42.9025 52.1999C44.4508 50.2852 45.2973 47.8848 45.2976 45.4077C45.2995 44.0014 45.0277 42.6085 44.4978 41.3092C43.9679 40.0098 43.1903 38.8296 42.2098 37.8362ZM34.7495 32.5427C31.8184 32.542 28.9778 33.573 26.7117 35.4601C24.4455 37.3473 22.8941 39.9738 22.3217 42.892C21.7493 45.8103 22.1914 48.8397 23.5727 51.4642C24.954 54.0886 27.1889 56.1456 29.8967 57.2846C32.6045 58.4237 35.6176 58.5743 38.4225 57.7108C41.2274 56.8474 43.6506 55.0232 45.2792 52.5493C46.9078 50.0753 47.6409 47.1046 47.3538 44.1434C47.0666 41.1822 45.7768 38.4137 43.7043 36.3096C42.5296 35.1139 41.1338 34.1657 39.5971 33.5192C38.0603 32.8728 36.4129 32.5409 34.7495 32.5427ZM50.4472 70.5399L54.062 71.2504C48.9108 75.2206 42.6937 77.5094 36.2331 77.8141C29.7725 78.1188 23.3731 76.425 17.8815 72.9567C17.6434 72.8165 17.3608 72.7759 17.0937 72.8436C16.8266 72.9112 16.596 73.0818 16.4506 73.3192C16.3053 73.5565 16.2567 73.842 16.3151 74.1151C16.3736 74.3882 16.5345 74.6275 16.7637 74.7822C22.538 78.4304 29.2564 80.2389 36.0526 79.9747C42.8488 79.7104 49.4112 77.3854 54.8937 73.2995L54.306 76.3527C54.2582 76.6306 54.3199 76.9164 54.4779 77.1485C54.6358 77.3806 54.8772 77.5404 55.1501 77.5935C55.4231 77.6465 55.7056 77.5886 55.9368 77.4321C56.168 77.2757 56.3294 77.0332 56.3861 76.7571L57.5184 70.8335C57.5699 70.5539 57.5103 70.265 57.3525 70.03C57.1947 69.795 56.9516 69.633 56.6764 69.5796L50.8424 68.4302C50.5687 68.3817 50.2871 68.4444 50.0585 68.6047C49.8298 68.765 49.6724 69.0101 49.6202 69.2872C49.5679 69.5642 49.625 69.851 49.7791 70.0858C49.9332 70.3205 50.172 70.4843 50.4441 70.5419L50.4472 70.5399ZM19.0539 20.2671L15.439 19.5555C19.82 16.1846 24.9828 14.0167 30.4294 13.261C35.8759 12.5053 41.4224 13.1872 46.5338 15.2411C46.7942 15.346 47.085 15.3415 47.3422 15.2288C47.5995 15.116 47.802 14.9041 47.9053 14.6397C48.0086 14.3753 48.0043 14.0801 47.8932 13.819C47.7821 13.5579 47.5734 13.3523 47.313 13.2474C45.3218 12.4435 43.2598 11.834 41.1547 11.4271C36.556 10.5306 31.8243 10.608 27.2564 11.6542C22.6884 12.7005 18.3825 14.6932 14.6084 17.5075L15.191 14.4532C15.2371 14.1759 15.1744 13.8914 15.0164 13.6605C14.8583 13.4296 14.6174 13.2707 14.3453 13.2179C14.0733 13.1652 13.7917 13.2227 13.5609 13.3783C13.3301 13.5338 13.1685 13.7749 13.1108 14.0499L11.9786 19.9724C11.927 20.2518 11.9865 20.5406 12.1441 20.7756C12.3017 21.0106 12.5445 21.1726 12.8195 21.2263L18.6545 22.3757C18.9276 22.4226 19.208 22.3589 19.4354 22.1985C19.6629 22.038 19.8193 21.7935 19.8713 21.5173C19.9233 21.2411 19.8666 20.9552 19.7134 20.7209C19.5602 20.4866 19.3227 20.3226 19.0518 20.264L19.0539 20.2671ZM9.991 61.3373L9.29108 65.007C5.38028 59.7777 3.12565 53.4661 2.82552 46.9075C2.52538 40.3489 4.19388 33.8523 7.61025 28.2774C7.74582 28.0357 7.78389 27.7502 7.71647 27.4807C7.64906 27.2111 7.4814 26.9786 7.24871 26.8319C7.01601 26.6852 6.73637 26.6357 6.4685 26.6938C6.20063 26.7519 5.96536 26.9132 5.81209 27.1437C2.21817 33.0055 0.436496 39.8259 0.696826 46.7253C0.957157 53.6248 3.24755 60.2868 7.27265 65.8524L4.26507 65.261C3.99329 65.2177 3.71559 65.2834 3.49072 65.4443C3.26585 65.6052 3.11147 65.8486 3.06025 66.123C3.00903 66.3974 3.06498 66.6812 3.21627 66.9145C3.36756 67.1477 3.60232 67.3121 3.87085 67.3727L9.70589 68.5221C9.98117 68.5751 10.2659 68.5149 10.4975 68.3548C10.7291 68.1947 10.8886 67.9479 10.941 67.6684L12.0732 61.7448C12.1194 61.4676 12.0567 61.183 11.8986 60.9521C11.7406 60.7212 11.4997 60.5623 11.2276 60.5096C10.9555 60.4568 10.6739 60.5144 10.4432 60.6699C10.2124 60.8254 10.0508 61.0665 9.99306 61.3415L9.991 61.3373ZM65.4892 65.8127L64.5103 62.1032L68.1633 61.1095C68.4347 61.0358 68.6662 60.8556 68.8069 60.6086C68.9475 60.3616 68.9857 60.068 68.9131 59.7924C68.8405 59.5168 68.663 59.2818 68.4197 59.139C68.1764 58.9963 67.8871 58.9575 67.6157 59.0312L63.9617 60.0249L62.9828 56.3165C62.9102 56.0409 62.7327 55.8059 62.4894 55.6631C62.2461 55.5204 61.9569 55.4816 61.6854 55.5553C61.4139 55.629 61.1824 55.8092 61.0418 56.0562C60.9012 56.3032 60.863 56.5968 60.9356 56.8724L61.9155 60.5818L58.2625 61.5756C57.9911 61.6491 57.7595 61.8292 57.6188 62.0761C57.478 62.323 57.4397 62.6166 57.5122 62.8922C57.5847 63.1678 57.762 63.4028 58.0052 63.5457C58.2484 63.6885 58.5376 63.7275 58.8091 63.6539L62.4631 62.6591L63.4419 66.3675C63.5144 66.6431 63.6917 66.8782 63.935 67.0211C64.1782 67.1639 64.4673 67.2028 64.7388 67.1293C65.0103 67.0557 65.2419 66.8756 65.3826 66.6287C65.5233 66.3818 65.5616 66.0883 65.4892 65.8127Z" fill="#603C93"/>
</svg>
