<svg width="79" height="80" viewBox="0 0 79 80" fill="none" xmlns="http://www.w3.org/2000/svg">
<path d="M50.9179 0.00515391C50.2331 -0.0396898 49.5542 0.209841 49.0554 0.685779C48.5597 1.1589 48.2755 1.82687 48.2755 2.51797V7.67765C47.2992 7.47203 46.2652 7.53562 45.3212 7.86422C44.7189 8.07422 44.3979 8.74062 44.6045 9.35281C44.8111 9.965 45.4668 10.2911 46.0691 10.0812C46.7029 9.86015 47.4148 9.84594 48.0512 10.0339C48.6498 10.212 49.303 10.0933 49.7989 9.71578C50.2961 9.33734 50.5814 8.7575 50.5814 8.125V2.51797C50.5814 2.46922 50.5991 2.42765 50.6341 2.39422C50.6606 2.36906 50.7064 2.3389 50.7739 2.34437C61.8467 3.0489 70.5088 12.4345 70.4937 23.7134C70.4937 24.1148 70.4826 24.5208 70.4606 24.92C70.4536 25.048 70.3575 25.1447 70.2373 25.1447H67.7663C67.892 24.5327 67.9172 23.9047 67.8411 23.2725C67.5308 20.6959 65.4619 18.6217 62.922 18.3408C61.3371 18.1656 59.7523 18.6806 58.5731 19.7555C57.3926 20.8312 56.7157 22.3716 56.7157 23.9812C56.7157 24.3727 56.7549 24.7617 56.833 25.1448H51.2489C50.8807 25.1448 50.5814 24.8406 50.5814 24.4664V18.3406C50.5814 17.7059 50.2949 17.1241 49.7951 16.7441C49.2949 16.3637 48.664 16.2486 48.0634 16.428C47.6274 16.5586 47.1724 16.5959 46.7116 16.5381C45.2265 16.3527 44.0325 15.12 43.8726 13.6067C43.8581 13.4717 43.8517 13.3359 43.8531 13.203C43.8595 12.5558 43.3487 12.0258 42.712 12.0191C42.708 12.0191 42.7038 12.0191 42.6998 12.0191C42.0688 12.0191 41.5538 12.5359 41.5472 13.1789C41.5449 13.4034 41.5561 13.6319 41.5799 13.8575C41.8529 16.4417 43.8929 18.5475 46.4309 18.8645C47.054 18.9419 47.6726 18.9164 48.2755 18.7886V24.4666C48.2755 26.133 49.6094 27.4887 51.2489 27.4887H57.2732C57.8953 27.4887 58.4658 27.1989 58.8381 26.6934C59.2095 26.1892 59.3266 25.5252 59.1523 24.9216C59.0658 24.6167 59.0217 24.3003 59.0217 23.9812C59.0217 23.0364 59.4193 22.1322 60.1126 21.5003C60.8149 20.8603 61.7229 20.5652 62.6721 20.6708C64.1594 20.8353 65.3707 22.0492 65.5523 23.5573C65.6089 24.028 65.5715 24.4922 65.4421 24.9348C65.2642 25.5377 65.3749 26.1745 65.7463 26.6817C66.116 27.1869 66.7065 27.4886 67.3255 27.4886H70.237C71.5784 27.4886 72.6877 26.4177 72.7627 25.0506C72.787 24.6083 72.7993 24.1584 72.7993 23.7152C72.8162 11.2014 63.2046 0.786873 50.9179 0.00515391Z" fill="#603C93"/>
<path d="M59.2631 38.929C58.7801 38.3356 58.0688 37.9953 57.3117 37.9953H55.1784C56.0259 34.4844 52.806 30.6823 49.0902 31.1912C46.55 31.4723 44.4812 33.5464 44.1708 36.123C44.0947 36.7551 44.1199 37.383 44.2457 37.9951H37.9943V31.1909C37.9943 30.5562 37.7078 29.9744 37.208 29.5944C36.7076 29.2139 36.0769 29.0987 35.4763 29.2783C35.0403 29.4086 34.5853 29.4456 34.1246 29.3886C32.6396 29.203 31.4454 27.9703 31.2855 26.4575C31.1839 25.4953 31.4746 24.5728 32.1043 23.8605C32.7263 23.1569 33.6157 22.7533 34.5449 22.7533C34.8592 22.7533 35.1694 22.7978 35.4641 22.8847C36.0628 23.0633 36.7158 22.9444 37.2117 22.5667C37.7089 22.1883 37.9942 21.6084 37.9942 20.9759V15.427C37.9942 14.7189 37.7024 14.0355 37.1934 13.5515C36.6826 13.0661 35.9882 12.8145 35.29 12.8622C23.1202 13.6884 13.5356 24.0425 13.4701 36.4337C13.406 42.2787 15.6638 48.3715 19.7076 52.7148C20.1408 53.1889 20.8702 53.2167 21.3371 52.7762C21.8036 52.3359 21.8307 51.5945 21.3975 51.12C18.6207 48.0801 16.805 44.3756 16.1022 40.339H18.5036C17.7794 43.5458 20.3011 47.2325 23.9833 47.1748C27.2613 47.2005 30.216 44.0023 29.4354 40.339H35.6886V47.1392C35.6654 48.4028 37.0774 49.5634 38.5585 48.9703C40.4783 48.547 42.6829 50.377 42.3948 52.6237C42.2315 54.4067 40.2346 56.1211 38.2005 55.4406C37.6063 55.2601 36.98 55.373 36.4817 55.7503C35.9851 56.1261 35.6886 56.7262 35.6886 57.3553V64.1589H27.835C27.2656 61.2364 26.2668 58.4767 24.8651 55.953C24.552 55.3894 23.8488 55.1906 23.2943 55.5084C22.7398 55.8265 22.544 56.5414 22.857 57.105C24.2208 59.5214 25.2439 62.5415 25.7286 65.443V75.0517C25.7286 77.78 27.9124 79.9997 30.5968 79.9997H43.0861C45.7703 79.9997 47.9542 77.78 47.9542 75.0517V65.4445C48.703 60.7812 50.899 56.1822 54.2167 52.4455C57.0722 49.222 59.0021 45.2784 59.7976 41.0409C59.9387 40.2898 59.7438 39.52 59.2631 38.929ZM28.9953 37.9955C27.9143 37.9533 26.657 39.2226 27.1298 40.6214C27.6743 42.5889 26.2012 45.0778 23.5976 44.8106C22.0319 44.6117 20.3357 43.1365 20.7638 40.8094C21.1956 39.6884 20.5272 37.9958 18.9442 37.9955H15.8223C15.7886 37.4797 15.7732 36.9619 15.776 36.4467C15.8352 25.278 24.4742 15.9456 35.4438 15.2008C35.5266 15.194 35.5848 15.2317 35.6183 15.2633C35.6501 15.2936 35.6883 15.3465 35.6883 15.427V20.5286C35.3135 20.4495 34.9306 20.4097 34.5449 20.4097C32.9622 20.4097 31.4476 21.0965 30.389 22.2944C29.3317 23.4906 28.8228 25.0994 28.9928 26.708C29.2659 29.2922 31.3058 31.398 33.844 31.7151C34.4675 31.7926 35.086 31.7669 35.6884 31.639V37.9955H28.9953ZM45.6483 68.564H35.1272C34.4903 68.564 33.9742 69.0886 33.9742 69.7359C33.9742 70.3833 34.4903 70.9078 35.1272 70.9078H45.6483V73.2515H28.0343V70.9078H29.8176C30.4545 70.9078 30.9705 70.3833 30.9705 69.7359C30.9705 69.0886 30.4545 68.564 29.8176 68.564H28.0343V66.5034H45.6481L45.6483 68.564ZM43.0861 77.6564H30.5968C29.3673 77.6564 28.3381 76.7714 28.0915 75.5955H45.5914C45.3446 76.7714 44.3154 77.6564 43.0861 77.6564ZM57.5325 40.602C56.8159 44.419 55.0767 47.9723 52.5031 50.8776C49.0841 54.7372 46.7849 59.327 45.8487 64.1594H37.9943V57.8034C41.0011 58.548 44.4177 56.103 44.6873 52.8756C45.1371 49.1969 41.6793 45.8623 37.9943 46.6923V40.3392H44.6861C45.3105 40.3392 45.8832 40.048 46.257 39.54C46.6313 39.0314 46.7448 38.3901 46.568 37.78C46.4396 37.337 46.4032 36.8755 46.4595 36.408C46.6412 34.9 47.8524 33.6859 49.34 33.5214C51.4645 33.2748 53.5514 35.357 52.8587 37.7701C52.6848 38.3784 52.803 39.042 53.1749 39.5455C53.5474 40.0498 54.1174 40.339 54.7388 40.339H57.3117C57.3996 40.339 57.4553 40.3847 57.4863 40.4228C57.5159 40.4594 57.548 40.52 57.5325 40.602Z" fill="#603C93"/>
<path d="M68.5452 45.9811L64.5357 45.7605C63.9017 45.7277 63.3566 46.2211 63.322 46.8674C63.2876 47.5136 63.7751 48.0658 64.411 48.101L68.4205 48.3216C68.4418 48.3227 68.4628 48.3233 68.4839 48.3233C69.092 48.3233 69.6009 47.8394 69.6341 47.2147C69.6687 46.5685 69.1812 46.0163 68.5452 45.9811Z" fill="#603C93"/>
<path d="M64.7506 57.6897L61.7161 55.1828C61.2217 54.7747 60.4957 54.8507 60.0942 55.3532C59.6926 55.8553 59.7676 56.5935 60.2617 57.0018L63.2961 59.5086C63.51 59.6852 63.767 59.7711 64.0227 59.7711C64.3579 59.7711 64.6903 59.6235 64.9181 59.3383C65.3197 58.8361 65.2446 58.098 64.7506 57.6897Z" fill="#603C93"/>
<path d="M53.994 61.1244C53.8303 60.499 53.1979 60.1275 52.5833 60.2933C51.9679 60.4597 51.6019 61.1018 51.7656 61.7272L52.7985 65.6722C52.9359 66.1966 53.4022 66.543 53.912 66.543C54.0102 66.543 54.11 66.5302 54.2093 66.5033C54.8246 66.3369 55.1907 65.6949 55.0269 65.0694L53.994 61.1244Z" fill="#603C93"/>
<path d="M23.2123 11.0836C23.3023 11.6606 23.7924 12.0724 24.3498 12.0724C24.4097 12.0724 24.4703 12.0677 24.5315 12.0578C25.1604 11.9567 25.5896 11.3564 25.49 10.717L24.8623 6.68595C24.7628 6.04689 24.173 5.61127 23.5432 5.71173C22.9143 5.81283 22.4851 6.41314 22.5847 7.05252L23.2123 11.0836Z" fill="#603C93"/>
<path d="M14.923 16.1874C15.1482 16.4161 15.4433 16.5305 15.7383 16.5305C16.0333 16.5305 16.3285 16.4161 16.5537 16.1874C17.004 15.7296 17.004 14.9877 16.5537 14.53L13.7886 11.7197C13.3382 11.2622 12.6083 11.2622 12.158 11.7197C11.7077 12.1775 11.7077 12.9194 12.158 13.3771L14.923 16.1874Z" fill="#603C93"/>
<path d="M11.5348 22.951L7.56787 22.3121C6.93882 22.2112 6.3482 22.647 6.24874 23.286C6.14913 23.9253 6.57818 24.5257 7.20692 24.6268L11.1739 25.2657C11.2349 25.2756 11.2958 25.2804 11.3557 25.2804C11.913 25.2804 12.4031 24.8689 12.493 24.2918C12.5928 23.6526 12.1637 23.0521 11.5348 22.951Z" fill="#603C93"/>
</svg>
