<svg width="76" height="80" viewBox="0 0 76 80" fill="none" xmlns="http://www.w3.org/2000/svg">
<path d="M53.1147 44.6687C53.1147 36.3115 46.4181 29.5125 38.1867 29.5125C29.9554 29.5125 23.2587 36.3115 23.2587 44.6687C23.2587 53.0258 29.9554 59.8249 38.1867 59.8249C46.4181 59.8249 53.1147 53.0258 53.1147 44.6687ZM25.7308 44.6687C25.7308 37.6956 31.3187 32.0224 38.1867 32.0224C45.0548 32.0224 50.6426 37.6956 50.6426 44.6687C50.6426 47.6891 49.5932 50.4636 47.8469 52.6414C46.6734 50.341 44.7356 48.5379 42.4261 47.5319C43.7745 46.3325 44.6289 44.5728 44.6289 42.6133C44.6289 39.007 41.7388 36.0727 38.1867 36.0727C34.6346 36.0727 31.7445 39.007 31.7445 42.6133C31.7445 44.5728 32.5989 46.3325 33.9473 47.5319C31.637 48.5379 29.6992 50.341 28.5256 52.6414C26.7802 50.4644 25.7308 47.6891 25.7308 44.6687ZM34.2166 42.6133C34.2166 40.3911 35.9979 38.5826 38.1867 38.5826C40.3755 38.5826 42.1568 40.3911 42.1568 42.6133C42.1568 44.8356 40.3755 46.6441 38.1867 46.6441C35.9979 46.6432 34.2166 44.8356 34.2166 42.6133ZM30.3917 54.5227C31.658 51.3256 34.7571 49.1531 38.1867 49.1531C41.6155 49.1531 44.7146 51.3248 45.9817 54.5227C43.8463 56.2673 41.1354 57.315 38.1867 57.315C35.238 57.315 32.5281 56.2673 30.3917 54.5227ZM75.6225 16.6779C75.6225 14.1849 73.6244 12.1562 71.1689 12.1562H55.2633V6.11096C55.2633 2.74163 52.5629 0 49.2443 0H27.1291C23.8105 0 21.1102 2.74163 21.1102 6.11096V12.1562H5.20365C2.74815 12.1562 0.75 14.1849 0.75 16.6779V61.4665C0.75 63.2821 1.45045 64.993 2.72279 66.2848C3.99514 67.5766 5.68023 68.2877 7.46851 68.2877H7.64778L4.89234 71.0853C3.92343 72.069 3.39001 73.3803 3.39001 74.7786C3.39001 76.177 3.92343 77.4892 4.89234 78.472C5.89535 79.4904 7.21317 80 8.53011 80C9.84793 80 11.1649 79.4904 12.1679 78.472L22.1997 68.2868H68.9049C70.6932 68.2868 72.3783 67.5757 73.6506 66.2839C74.923 64.9921 75.6234 63.2812 75.6234 61.4656L75.6225 16.6779ZM23.5823 6.11007C23.5823 4.12399 25.1738 2.50902 27.1291 2.50902H49.2443C51.2005 2.50902 52.7911 4.12487 52.7911 6.11007V12.1553H50.5429V6.11007C50.5429 5.39536 49.9483 4.79075 49.2434 4.79075H27.1282C26.4243 4.79075 25.8288 5.39448 25.8288 6.11007V12.1553H23.5814L23.5823 6.11007ZM48.0717 12.1562H28.3018V7.30065H48.0717V12.1562ZM3.22211 16.6779C3.22211 15.5682 4.11144 14.6661 5.20365 14.6661H71.1689C72.262 14.6661 73.1504 15.569 73.1504 16.6779V32.3944V33.2325C73.1487 36.8007 70.2892 39.7039 66.7747 39.7039H57.32C56.6886 37.1976 55.5894 34.8785 54.1247 32.8481H58.121C58.804 32.8481 59.3566 32.2861 59.3566 31.5936V22.7756C59.3566 22.0822 58.8031 21.5211 58.121 21.5211H18.2524C17.5695 21.5211 17.0168 22.0831 17.0168 22.7756V31.5918C17.0168 32.2852 17.5703 32.8463 18.2524 32.8463H22.2487C20.784 34.8768 19.6848 37.1949 19.0534 39.7021H9.59871C6.08249 39.7021 3.22211 36.798 3.22211 33.2281V16.6779ZM22.5452 64.3875L20.7333 66.227L16.953 62.3889L18.7649 60.5494L22.5452 64.3875ZM21.7144 59.9945L23.5587 58.122C23.995 58.6103 24.455 59.0773 24.9359 59.5203L23.0917 61.3928L21.7144 59.9945ZM20.9117 44.6687C20.9117 34.9975 28.6612 27.1295 38.1867 27.1295C47.7123 27.1295 55.4618 34.9975 55.4618 44.6687C55.4618 54.3398 47.7123 62.2078 38.1867 62.2078C28.6612 62.2078 20.9117 54.3398 20.9117 44.6687ZM51.9805 30.3373C48.4188 26.8028 43.5489 24.6196 38.1867 24.6196C32.8245 24.6196 27.9546 26.8019 24.3929 30.3373H19.488V24.031H56.8854V30.3373H51.9805ZM7.46851 65.7778C6.34045 65.7778 5.27623 65.3277 4.47085 64.51C3.66547 63.6923 3.22211 62.6118 3.22211 61.4665V39.4482C4.83288 41.1502 7.09512 42.2129 9.59783 42.2129H18.5873C18.4903 43.0182 18.4387 43.8377 18.4387 44.6696C18.4387 48.9365 19.7591 52.8953 22.0056 56.1493L19.9655 58.2206L19.8728 58.1264C19.5772 57.8264 19.1837 57.6603 18.7649 57.6603C18.346 57.6603 17.9525 57.8255 17.656 58.1264L10.119 65.7787L7.46851 65.7778ZM10.4198 76.6982C9.37747 77.7564 7.68188 77.7564 6.63952 76.6982C6.13758 76.1885 5.86125 75.5076 5.86125 74.7795C5.86125 74.0515 6.13758 73.3697 6.63952 72.8609L15.2049 64.1646L18.9852 68.0027L10.4198 76.6982ZM71.9026 64.51C71.0972 65.3277 70.033 65.7778 68.9049 65.7778H24.6719L24.9324 65.5132C25.5437 64.8926 25.5437 63.8832 24.9324 63.2626L24.8398 63.1685L26.8799 61.0971C30.0848 63.378 33.984 64.7186 38.1867 64.7186C49.0756 64.7186 57.9339 55.7249 57.9339 44.6696C57.9339 43.8377 57.8832 43.0182 57.7852 42.2129H66.7747C69.2774 42.2129 71.5397 41.1502 73.1504 39.4482V61.4674C73.1513 62.6118 72.708 63.6923 71.9026 64.51Z" fill="#603C93"/>
</svg>
