<svg width="574" height="547" viewBox="0 0 574 547" fill="none" xmlns="http://www.w3.org/2000/svg">
<path d="M431.175 410.141C505.501 334.636 505.501 212.218 431.175 136.714C356.849 61.2087 236.343 61.2087 162.017 136.714C87.6906 212.218 87.6906 334.636 162.017 410.141C236.343 485.645 356.849 485.645 431.175 410.141Z" fill="white"/>
<path d="M52.5614 310.63C42.5658 242.945 59.6216 171.376 105.579 114.382C151.527 57.3885 217.23 26.2835 284.52 22.8988L286.067 20.9811C281.376 21.192 276.676 21.518 271.975 21.9879C205.894 28.671 146.326 61.0897 104.258 113.289C62.1795 165.479 42.6318 231.199 49.2107 298.328C49.6826 303.113 50.2867 307.849 51.0135 312.567L52.5614 310.639V310.63Z" fill="white"/>
<path d="M490.642 118.179L491.784 116.751C480.759 102.627 468.168 89.5866 454.114 77.8887C434.113 61.2527 412.092 48.0973 388.769 38.6143L387.57 40.1005C410.686 49.3917 432.792 62.3937 453.038 79.2311C467.215 91.0249 479.749 104.113 490.642 118.17V118.179Z" fill="white"/>
<path d="M534.967 208.263C554.798 283.658 539.913 367.365 487.631 432.222C401.37 539.219 245.498 554.983 140.171 467.354C119.934 450.516 103.02 431.061 89.5034 409.871L88.3047 411.357C102.057 432.72 119.094 452.06 139.095 468.696C190.47 511.442 255.163 531.299 321.244 524.616C387.325 517.933 446.894 485.514 488.962 433.315C531.04 381.124 550.588 315.415 544.009 248.276C542.612 234.008 540.054 220.038 536.42 206.47L534.976 208.263H534.967Z" fill="white"/>
<path d="M105.352 199.288C110.94 184.388 118.302 169.919 127.524 156.179C189.801 63.4101 313.468 38.0102 406.128 97.7081L407.053 96.337C362.7 67.7249 310.145 57.4365 258.27 67.4085C204.129 77.812 157.218 109.003 126.174 155.249C116.782 169.238 109.194 184.11 103.445 199.567L105.352 199.298V199.288Z" fill="white"/>
<path d="M92.7039 289.852L90.9766 290.091C91.5712 297.475 92.5434 304.858 93.9215 312.241C103.728 364.939 132.347 410.887 174.765 442.376L175.69 441.005C126.042 404.098 97.3572 348.198 92.7133 289.852H92.7039Z" fill="white"/>
<path d="M462.832 149.054C460.255 145.497 457.555 142.026 454.752 138.641L453.742 140.137C456.206 143.138 458.575 146.207 460.85 149.332L462.822 149.054H462.832Z" fill="white"/>
<path d="M498.985 232.762L497.257 233.002C507.536 285.786 497.814 342.55 465.685 390.416C413.045 468.84 316.533 499.101 231.971 470.527L230.961 472.033C264.072 483.376 299.656 485.974 334.939 479.195C389.079 468.792 435.99 437.601 467.034 391.355C498.078 345.11 509.537 289.353 499.296 234.354C499.202 233.817 499.088 233.289 498.985 232.762Z" fill="white"/>
<path d="M407.41 467.977C410.214 466.289 413.026 464.525 415.754 462.713L414.858 461.323C412.149 463.116 409.364 464.88 406.57 466.548L407.401 467.977H407.41Z" fill="white"/>
<path d="M137.255 430.754L136.094 431.915C138.378 434.273 140.747 436.613 143.126 438.857L144.239 437.639C141.88 435.405 139.529 433.094 137.255 430.754Z" fill="white"/>
<path d="M124.226 416.074L122.961 417.129C125.028 419.68 127.18 422.211 129.36 424.666L130.569 423.553C128.407 421.118 126.265 418.596 124.216 416.065L124.226 416.074Z" fill="white"/>
<path d="M93.4679 365.754L91.9766 366.435C93.3169 369.465 94.7327 372.495 96.2051 375.448L97.6587 374.7C96.2051 371.766 94.7988 368.755 93.4679 365.754Z" fill="white"/>
<path d="M166.913 456.356L165.969 457.708C168.621 459.616 171.358 461.495 174.105 463.288L174.992 461.898C172.274 460.114 169.555 458.245 166.922 456.356H166.913Z" fill="white"/>
<path d="M112.522 400.263L111.172 401.203C113.012 403.935 114.947 406.659 116.901 409.305L118.204 408.308C116.259 405.681 114.343 402.977 112.522 400.263Z" fill="white"/>
<path d="M102.238 383.445L100.812 384.26C102.408 387.146 104.088 390.042 105.806 392.851L107.193 391.979C105.494 389.188 103.823 386.321 102.238 383.454V383.445Z" fill="white"/>
<path d="M390.075 477.335C393.02 475.916 395.974 474.401 398.844 472.848L398.079 471.381C395.219 472.924 392.293 474.42 389.367 475.83L390.066 477.326L390.075 477.335Z" fill="white"/>
<path d="M352.852 489.628L353.286 491.229C356.429 490.347 359.6 489.388 362.696 488.372L362.196 486.789C359.119 487.796 355.976 488.755 352.852 489.618V489.628Z" fill="white"/>
<path d="M371.406 483.549L371.973 485.102C375.031 483.951 378.098 482.714 381.1 481.42L380.467 479.895C377.485 481.171 374.446 482.398 371.406 483.549Z" fill="white"/>
<path d="M183.29 467.085L182.469 468.523C185.282 470.192 188.179 471.822 191.058 473.366L191.823 471.899C188.963 470.374 186.093 468.754 183.299 467.095L183.29 467.085Z" fill="white"/>
<path d="M200.542 476.309L199.844 477.805C202.789 479.215 205.819 480.586 208.82 481.861L209.452 480.327C206.47 479.052 203.468 477.7 200.542 476.3V476.309Z" fill="white"/>
<path d="M243.526 491.603C241.383 491.085 239.25 490.548 237.136 489.963L236.711 491.565C239.127 492.226 241.572 492.84 244.017 493.425L243.526 491.603Z" fill="white"/>
<path d="M218.543 483.961L217.977 485.514C221.044 486.655 224.168 487.748 227.274 488.755L227.765 487.173C224.678 486.176 221.573 485.092 218.533 483.961H218.543Z" fill="white"/>
<path d="M151.51 444.217L150.453 445.482C152.936 447.621 155.503 449.74 158.07 451.772L159.071 450.459C156.513 448.445 153.974 446.345 151.51 444.217Z" fill="white"/>
<path d="M106.53 156.658L105.133 155.786C103.425 158.614 101.764 161.51 100.188 164.406L101.622 165.211C103.18 162.344 104.841 159.468 106.53 156.658Z" fill="white"/>
<path d="M128.493 123.789C126.331 126.263 124.198 128.813 122.141 131.392L123.405 132.438C125.444 129.887 127.568 127.346 129.711 124.891L128.493 123.789Z" fill="white"/>
<path d="M116.126 139.265C114.191 141.921 112.284 144.653 110.453 147.405L111.803 148.335C113.615 145.612 115.512 142.889 117.428 140.252L116.116 139.265H116.126Z" fill="white"/>
<path d="M140.903 110.71C138.958 112.599 137.033 114.536 135.164 116.482L136.334 117.633C137.986 115.907 139.685 114.2 141.394 112.522L140.903 110.701V110.71Z" fill="white"/>
<path d="M226.451 60.7157L225.95 59.1336C223.156 60.0541 220.344 61.0513 217.578 62.0869L218.012 63.6882C220.806 62.643 223.638 61.6362 226.46 60.7157H226.451Z" fill="white"/>
<path d="M333.938 494.019L334.372 495.621C337.505 495.036 340.667 494.374 343.773 493.655L343.414 492.034C340.29 492.763 337.099 493.425 333.947 494.01L333.938 494.019Z" fill="white"/>
<path d="M95.6205 173.246C94.1669 176.209 92.7606 179.249 91.4297 182.279L92.921 182.95C94.233 179.948 95.6299 176.928 97.0741 173.984L95.6111 173.246H95.6205Z" fill="white"/>
<path d="M87.6541 191.493C86.4649 194.571 85.3228 197.726 84.2656 200.871L85.8136 201.408C86.8613 198.291 87.9939 195.156 89.1738 192.107L87.6541 191.503V191.493Z" fill="white"/>
<path d="M73.5979 249.542C73.2486 252.84 72.9655 256.196 72.7578 259.504L74.3907 259.61C74.5984 256.321 74.8721 252.994 75.2213 249.714L73.5979 249.532V249.542Z" fill="white"/>
<path d="M81.2845 210.382C80.3689 213.566 79.5005 216.807 78.7266 220.028L80.3123 220.421C81.0863 217.229 81.9452 214.007 82.8513 210.843L81.2845 210.373V210.382Z" fill="white"/>
<path d="M76.5912 229.789C75.9494 233.04 75.3736 236.358 74.8828 239.637L76.4969 239.886C76.9877 236.636 77.554 233.347 78.1958 230.115L76.5912 229.789Z" fill="white"/>
<path d="M513.95 308.051C514.45 304.762 514.884 301.435 515.234 298.136L513.61 297.954C513.261 301.224 512.827 304.532 512.336 307.792L513.95 308.041V308.051Z" fill="white"/>
<path d="M481.8 155.67L483.188 154.798C481.47 151.988 479.667 149.169 477.826 146.437L476.477 147.376C478.308 150.09 480.092 152.89 481.791 155.68L481.8 155.67Z" fill="white"/>
<path d="M444.807 109.962L445.921 108.744C443.533 106.491 441.069 104.257 438.596 102.119L437.539 103.384C440.003 105.513 442.447 107.728 444.807 109.962Z" fill="white"/>
<path d="M423.86 457.084C426.493 455.167 429.136 453.144 431.684 451.101L430.674 449.797C428.135 451.83 425.521 453.824 422.906 455.732L423.86 457.084Z" fill="white"/>
<path d="M458.453 124.057L459.67 122.945C457.5 120.49 455.234 118.045 452.959 115.687L451.789 116.847C454.054 119.186 456.301 121.612 458.453 124.048V124.057Z" fill="white"/>
<path d="M264.881 51.7985L264.664 50.1588C261.436 50.6095 258.18 51.1368 254.961 51.7313L255.254 53.3614C258.444 52.7765 261.681 52.2491 264.881 51.808V51.7985Z" fill="white"/>
<path d="M235.787 57.8776L236.25 57.7433C239.384 56.8708 242.564 56.0653 245.708 55.3366L245.339 53.7162C242.168 54.4449 238.968 55.2599 235.806 56.142L235.344 56.2667L235.778 57.868L235.787 57.8776Z" fill="white"/>
<path d="M284.303 49.9958L284.227 48.337C280.971 48.4904 277.677 48.7301 274.43 49.0274L274.581 50.6766C277.809 50.3794 281.075 50.1492 284.303 49.9958Z" fill="white"/>
<path d="M342.493 55.1448L342.851 53.5244C339.652 52.7957 336.414 52.1341 333.205 51.5587L332.922 53.1888C336.103 53.7641 339.321 54.4257 342.493 55.1448Z" fill="white"/>
<path d="M323.267 51.6642L323.484 50.015C320.256 49.5835 316.962 49.2096 313.696 48.9219L313.555 50.5711C316.792 50.8588 320.058 51.2231 323.267 51.6546V51.6642Z" fill="white"/>
<path d="M303.789 49.9479L303.865 48.2891C300.599 48.1452 297.295 48.0781 294.039 48.0877V49.7465C297.277 49.7465 300.552 49.804 303.789 49.9479Z" fill="white"/>
<path d="M470.809 139.322L472.112 138.325C470.158 135.678 468.119 133.042 466.062 130.501L464.797 131.555C466.845 134.087 468.865 136.695 470.809 139.322Z" fill="white"/>
<path d="M478.279 400.234C480.101 397.492 481.894 394.673 483.603 391.854L482.215 390.981C480.526 393.781 478.742 396.581 476.93 399.304L478.289 400.234H478.279Z" fill="white"/>
<path d="M488.552 383.234C490.128 380.348 491.676 377.375 493.13 374.403L491.667 373.655C490.213 376.599 488.693 379.552 487.117 382.419L488.542 383.224L488.552 383.234Z" fill="white"/>
<path d="M497.335 365.38C498.666 362.35 499.94 359.253 501.139 356.175L499.619 355.571C498.43 358.63 497.165 361.708 495.844 364.709L497.335 365.39V365.38Z" fill="white"/>
<path d="M439.268 444.782C441.732 442.625 444.186 440.391 446.555 438.118L445.441 436.91C443.081 439.163 440.646 441.388 438.211 443.526L439.278 444.782H439.268Z" fill="white"/>
<path d="M504.539 346.798C505.596 343.662 506.606 340.46 507.531 337.286L505.964 336.816C505.048 339.971 504.048 343.154 503 346.261L504.539 346.798Z" fill="white"/>
<path d="M453.538 431.128C455.803 428.76 458.049 426.305 460.22 423.832L459.003 422.729C456.851 425.193 454.623 427.629 452.367 429.978L453.538 431.138V431.128Z" fill="white"/>
<path d="M466.571 416.237C468.629 413.668 470.658 411.021 472.593 408.365L471.281 407.378C469.356 410.015 467.345 412.642 465.297 415.192L466.562 416.237H466.571Z" fill="white"/>
<path d="M505.67 209.74L507.237 209.27C506.303 206.077 505.293 202.884 504.235 199.768L502.688 200.314C503.735 203.402 504.745 206.576 505.67 209.74Z" fill="white"/>
<path d="M510.086 327.64C510.869 324.418 511.596 321.139 512.238 317.888L510.633 317.562C510.001 320.794 509.283 324.054 508.5 327.247L510.086 327.649V327.64Z" fill="white"/>
<path d="M491.318 172.949L492.781 172.201C491.318 169.238 489.761 166.275 488.175 163.389L486.75 164.195C488.326 167.062 489.865 170.005 491.318 172.939V172.949Z" fill="white"/>
<path d="M499.285 191.023L500.805 190.41C499.606 187.332 498.322 184.244 496.991 181.214L495.5 181.895C496.831 184.896 498.105 187.964 499.294 191.023H499.285Z" fill="white"/>
<path d="M512.008 228.62C511.357 225.388 510.621 222.119 509.828 218.887L508.242 219.29C509.035 222.493 509.762 225.743 510.413 228.946L512.008 228.61V228.62Z" fill="white"/>
<path d="M516.086 288.164C516.294 284.856 516.435 281.51 516.492 278.192L514.859 278.163C514.793 281.452 514.661 284.779 514.453 288.059L516.077 288.164H516.086Z" fill="white"/>
<path d="M516.463 268.22C516.387 264.912 516.227 261.556 516 258.258L514.367 258.373C514.594 261.652 514.754 264.979 514.83 268.268L516.463 268.23V268.22Z" fill="white"/>
<path d="M515.109 248.314C514.741 245.026 514.288 241.698 513.778 238.429L512.164 238.688C512.674 241.928 513.117 245.227 513.486 248.497L515.109 248.305V248.314Z" fill="white"/>
<path d="M148.328 345.465V364.076C148.328 372.974 155.492 380.252 164.251 380.252H425.734C434.493 380.252 441.657 372.974 441.657 364.076V345.465H148.328Z" fill="#D1D3D4"/>
<path d="M425.734 147.798H164.251C155.492 147.798 148.328 155.076 148.328 163.974V360.03H441.648V163.974C441.648 155.076 434.484 147.798 425.725 147.798H425.734Z" fill="#161D21"/>
<g filter="url(#filter0_d_585_18615)">
<path d="M291.991 159.937H284.355H159.281V348.006H284.355H291.991H430.703V159.937H291.991Z" fill="url(#paint0_linear_585_18615)"/>
</g>
<path d="M318.657 371.948H271.312V399.525H318.657V371.948Z" fill="#D1D3D4"/>
<path d="M347.204 394.846H242.773V403.226H347.204V394.846Z" fill="#D1D3D4"/>
<path d="M369.413 78.1764H216.977V276.984H369.413V78.1764Z" fill="#F1F2F2"/>
<path d="M369.413 85.8184H216.977V100.259H369.413V85.8184Z" fill="#F1F2F2"/>
<path d="M369.413 78.1764H216.977V90.7948H369.413V78.1764Z" fill="#D1D3D4"/>
<path d="M286.514 83.2679H253.648V86.2499H286.514V83.2679Z" fill="white"/>
<path d="M327.264 83.2679H294.398V86.2499H327.264V83.2679Z" fill="white"/>
<g filter="url(#filter1_d_585_18615)">
<path d="M352.877 126.502H233.523V198.282H352.877V126.502Z" fill="url(#paint1_linear_585_18615)"/>
</g>
<path d="M344.95 179.373H283.664V162.497H344.95V179.373Z" fill="white"/>
<path d="M344.95 159.343H283.664V142.458H344.95V159.343Z" fill="white"/>
<path d="M300.419 171.396C300.419 172.402 299.617 173.208 298.636 173.208C297.654 173.208 296.852 172.393 296.852 171.396C296.852 170.398 297.654 169.583 298.636 169.583C299.617 169.583 300.419 170.398 300.419 171.396Z" fill="#161D21"/>
<path d="M306.896 171.396C306.896 172.402 306.094 173.208 305.112 173.208C304.13 173.208 303.328 172.393 303.328 171.396C303.328 170.398 304.13 169.583 305.112 169.583C306.094 169.583 306.896 170.398 306.896 171.396Z" fill="#161D21"/>
<path d="M313.365 171.396C313.365 172.402 312.562 173.208 311.581 173.208C310.599 173.208 309.797 172.393 309.797 171.396C309.797 170.398 310.599 169.583 311.581 169.583C312.562 169.583 313.365 170.398 313.365 171.396Z" fill="#161D21"/>
<path d="M319.835 171.396C319.835 172.402 319.033 173.208 318.042 173.208C317.051 173.208 316.258 172.393 316.258 171.396C316.258 170.398 317.06 169.583 318.042 169.583C319.023 169.583 319.835 170.398 319.835 171.396Z" fill="#161D21"/>
<path d="M326.304 171.396C326.304 172.402 325.502 173.208 324.51 173.208C323.519 173.208 322.727 172.393 322.727 171.396C322.727 170.398 323.529 169.583 324.51 169.583C325.492 169.583 326.304 170.398 326.304 171.396Z" fill="#161D21"/>
<path d="M332.773 171.396C332.773 172.402 331.97 173.208 330.979 173.208C329.988 173.208 329.195 172.393 329.195 171.396C329.195 170.398 329.998 169.583 330.979 169.583C331.961 169.583 332.773 170.398 332.773 171.396Z" fill="#161D21"/>
<path d="M337.866 221.294H248.547V224.123H337.866V221.294Z" fill="#BCBEC0"/>
<path d="M341.404 219.817H245.016V225.59H341.404V219.817Z" fill="#D1D3D4"/>
<path d="M337.866 231.793H248.547V234.612H337.866V231.793Z" fill="#BCBEC0"/>
<path d="M341.404 230.317H245.016V236.089H341.404V230.317Z" fill="#D1D3D4"/>
<path d="M337.866 245.572H248.547V248.391H337.866V245.572Z" fill="#BCBEC0"/>
<path d="M341.404 244.096H245.016V249.868H341.404V244.096Z" fill="#D1D3D4"/>
<path d="M337.866 256.072H248.547V258.9H337.866V256.072Z" fill="#BCBEC0"/>
<path d="M341.404 254.595H245.016V260.377H341.404V254.595Z" fill="#D1D3D4"/>
<path d="M268.977 232.081V208.772C268.977 192.749 282.738 184.436 299.662 184.436C316.586 184.436 330.348 192.74 330.348 208.772V232.081C330.348 248.103 316.576 261.144 299.662 261.144C282.748 261.144 268.977 248.113 268.977 232.081ZM277.575 210.191V231.132C277.575 242.456 287.486 251.67 299.662 251.67C311.838 251.67 321.749 242.456 321.749 231.132V210.191C321.749 198.867 311.848 193.9 299.662 193.9C287.477 193.9 277.575 198.867 277.575 210.191Z" fill="#161D21"/>
<path d="M258.492 231.276H339.902C340.213 231.276 340.525 231.295 340.836 231.324V291.012C340.836 291.012 320.807 301.885 300.514 301.885C280.22 301.885 258.492 291.012 258.492 291.012V231.276Z" fill="#161D21"/>
<path d="M258.492 228.437H339.902C340.213 228.437 340.525 228.457 340.836 228.485V288.174C340.836 288.174 320.807 299.047 300.514 299.047C280.22 299.047 258.492 288.174 258.492 288.174V228.437Z" fill="#623E91"/>
<path d="M301.775 248.151H297.547V270.31H301.775V248.151Z" fill="#161D21"/>
<path d="M383.679 226.184C383.679 226.184 380.857 227.268 376.364 227.268C373.598 227.268 370.729 226.865 367.859 226.088C357.448 223.26 354.201 217.056 353.994 216.634L350.322 208.647L345.98 216.251C345.792 216.548 341.931 222.358 331.35 226.05C328.821 226.932 326.159 227.373 323.44 227.373C319.174 227.373 316.163 226.242 316.154 226.242L309.82 223.71L310.056 236.981C310.33 252.648 310.424 254.336 310.462 254.844C311.755 295.231 346.565 309.968 346.915 310.112L349.963 311.359L352.993 310.064C354.485 309.431 389.436 294.023 389.606 254.307C389.654 253.396 389.729 250.51 389.852 236.847L389.908 230.518L389.993 223.538L383.679 226.175V226.184Z" fill="white"/>
<path d="M349.979 312.807L346.43 311.359C346.062 311.205 310.478 296.017 309.156 254.902C309.128 254.47 309.033 253.013 308.75 237.01L308.477 221.745L316.622 225.005C316.971 225.129 319.671 226.05 323.456 226.05C326.033 226.05 328.553 225.628 330.941 224.794C341.173 221.217 344.863 215.589 344.901 215.531L350.47 205.78L355.199 216.078C355.302 216.289 358.313 222.109 368.215 224.803C370.98 225.551 373.727 225.935 376.379 225.935C380.561 225.935 383.203 224.947 383.222 224.938L391.349 221.553L391.179 236.866C391.056 250.616 390.981 253.444 390.934 254.384C390.754 294.972 355.038 310.659 353.518 311.301L349.998 312.807H349.979ZM311.167 225.686L311.365 236.962C311.554 247.538 311.686 253.521 311.771 254.758C313.035 294.128 347.072 308.741 347.412 308.885L349.951 309.92L352.48 308.837C353.934 308.214 388.121 293.208 388.3 254.307C388.376 252.821 388.451 247.125 388.546 236.837L388.659 225.542L384.176 227.412C384.025 227.479 381.07 228.591 376.36 228.591C373.481 228.591 370.508 228.179 367.516 227.373C356.68 224.43 353.188 217.967 352.82 217.238L350.196 211.523L347.109 216.922C346.911 217.238 342.853 223.442 331.771 227.306C329.1 228.236 326.297 228.706 323.428 228.706C319.322 228.706 316.282 227.709 315.754 227.517L315.659 227.479L311.157 225.676L311.167 225.686Z" fill="#5F3917"/>
<path d="M366.69 230.557C353.797 227.057 349.889 218.628 349.889 218.628C349.889 218.628 345.727 225.925 332.833 230.422C322.866 233.903 314.484 230.557 314.484 230.557L314.598 236.914C314.852 251.939 314.956 254.077 315.003 254.633C316.164 292.143 348.285 305.721 348.615 305.845L349.927 306.382L351.23 305.817C352.608 305.232 384.973 290.954 385.058 254.183C385.096 253.483 385.171 250.884 385.304 236.808L385.36 230.47C385.36 230.47 377.885 233.596 366.69 230.547V230.557Z" fill="#5F3917"/>
<path d="M362.34 253.732L359.357 250.692L346.917 263.33L340.461 256.771L337.469 259.801L346.917 269.399L362.34 253.732Z" fill="white"/>
<path d="M241.651 332.118L221.641 333.163V303.113L301.068 304.407L307.241 304.704L308.1 304.522L311.413 304.58C312.772 305.414 333.877 306.286 333.877 306.286C344.005 308.894 367.98 286.985 376.04 294.627C378.655 297.11 378.438 302.672 373.303 306.286L320.625 330.421C320.521 330.44 320.417 330.459 320.314 330.469C320.314 330.469 306.014 338.763 293.602 341.102C280.718 343.528 269.712 339.999 269.712 339.999L241.641 332.118H241.651Z" fill="#E6B69D"/>
<path d="M221.642 327.515L219.594 281.922C225.653 281.414 233.846 277.454 238.849 275.948C248.231 273.129 258.349 271.03 266.844 271.538C282.456 271.538 296.501 278.556 296.643 278.509L336.465 279.976C345.79 279.036 352.039 280.877 353.964 284.444C357.296 290.609 356.607 296.765 350.934 300.831L302.211 304.206C302.211 304.206 288.912 309.911 268.109 305.951L241.076 318.377C233.865 321.925 227.409 324.955 221.633 327.534L221.642 327.515Z" fill="#E6B69D"/>
<path opacity="0.4" d="M340.719 286.985C340.719 286.985 340.039 290.283 340.039 293.323C340.039 295.912 340.719 298.318 340.719 298.318H349.034C349.034 298.318 350.96 296.276 350.837 292.498C350.705 288.883 349.034 286.994 349.034 286.994H340.719V286.985Z" fill="white"/>
<path d="M200.871 270.704H217.474C220.834 270.704 223.562 273.475 223.562 276.888V345.427C223.562 348.84 220.834 351.611 217.474 351.611H200.871C197.511 351.611 194.773 348.84 194.773 345.417V276.879C194.773 273.465 197.501 270.694 200.861 270.694L200.871 270.704Z" fill="#E6E7E8"/>
<path d="M201.737 263.934H180.094V359.512H201.737C205.088 359.512 207.825 356.731 207.825 353.327V270.128C207.825 266.724 205.088 263.944 201.737 263.944V263.934Z" fill="#161D21"/>
<path d="M212.159 278.48C212.084 276.725 213.405 275.239 215.123 275.162C216.841 275.085 218.295 276.437 218.379 278.183C218.464 279.928 217.134 281.414 215.416 281.491C213.698 281.577 212.235 280.215 212.159 278.48Z" fill="#161D21"/>
<path d="M181.593 257.222H52.0078V403.235H181.593V257.222Z" fill="#F1F2F2"/>
<path d="M62.2665 257.222H61.8984V403.235H62.2665V257.222Z" fill="#FC6443"/>
<path d="M177.837 281.289H58.0781V281.663H177.837V281.289Z" fill="#00ABED"/>
<path d="M177.837 291.3H58.0781V291.673H177.837V291.3Z" fill="#00ABED"/>
<path d="M177.837 301.31H58.0781V301.684H177.837V301.31Z" fill="#00ABED"/>
<path d="M177.837 311.32H58.0781V311.694H177.837V311.32Z" fill="#00ABED"/>
<path d="M177.837 321.331H58.0781V321.705H177.837V321.331Z" fill="#00ABED"/>
<path d="M177.837 331.341H58.0781V331.715H177.837V331.341Z" fill="#00ABED"/>
<path d="M177.837 341.351H58.0781V341.725H177.837V341.351Z" fill="#00ABED"/>
<path d="M177.837 351.362H58.0781V351.736H177.837V351.362Z" fill="#00ABED"/>
<path d="M177.837 361.382H58.0781V361.756H177.837V361.382Z" fill="#00ABED"/>
<path d="M177.837 371.392H58.0781V371.766H177.837V371.392Z" fill="#00ABED"/>
<path d="M177.837 381.403H58.0781V381.776H177.837V381.403Z" fill="#00ABED"/>
<path d="M177.837 391.413H58.0781V391.787H177.837V391.413Z" fill="#00ABED"/>
<path d="M71.4393 265.708C71.4393 267.338 70.1367 268.661 68.5321 268.661C66.9275 268.661 65.625 267.338 65.625 265.708C65.625 264.078 66.9275 262.755 68.5321 262.755C70.1367 262.755 71.4393 264.078 71.4393 265.708Z" fill="#161D21"/>
<path d="M92.2752 265.708C92.2752 267.338 90.9727 268.661 89.3681 268.661C87.7635 268.661 86.4609 267.338 86.4609 265.708C86.4609 264.078 87.7635 262.755 89.3681 262.755C90.9727 262.755 92.2752 264.078 92.2752 265.708Z" fill="#161D21"/>
<path d="M113.103 265.708C113.103 267.338 111.801 268.661 110.196 268.661C108.592 268.661 107.289 267.338 107.289 265.708C107.289 264.078 108.592 262.755 110.196 262.755C111.801 262.755 113.103 264.078 113.103 265.708Z" fill="#161D21"/>
<path d="M154.353 265.708C154.353 267.338 153.051 268.661 151.446 268.661C149.842 268.661 148.539 267.338 148.539 265.708C148.539 264.078 149.842 262.755 151.446 262.755C153.051 262.755 154.353 264.078 154.353 265.708Z" fill="#161D21"/>
<path d="M68.9343 252.907C65.9517 247.327 58.5328 249.168 57.9193 255.295C57.8532 255.918 57.8438 256.551 57.8438 257.184H59.807V255.295C59.807 250.165 67.5468 250.232 67.5468 255.372V267.252H69.4346V258.862C69.4346 257.078 69.8027 254.547 68.9249 252.907H68.9343Z" fill="#161D21"/>
<path d="M89.6921 252.907C86.7095 247.327 79.2906 249.168 78.6771 255.295C78.611 255.918 78.6016 256.551 78.6016 257.184H80.5648V255.295C80.5648 250.165 88.3046 250.232 88.3046 255.372V267.252H90.1924V258.862C90.1924 257.078 90.5605 254.547 89.6827 252.907H89.6921Z" fill="#161D21"/>
<path d="M110.45 252.907C107.467 247.327 100.048 249.168 99.4349 255.295C99.3688 255.918 99.3594 256.551 99.3594 257.184H101.323V255.295C101.323 250.165 109.062 250.232 109.062 255.372V267.252H110.95V258.862C110.95 257.078 111.318 254.547 110.441 252.907H110.45Z" fill="#161D21"/>
<path d="M133.377 265.708C133.377 267.338 132.074 268.661 130.47 268.661C128.865 268.661 127.562 267.338 127.562 265.708C127.562 264.078 128.865 262.755 130.47 262.755C132.074 262.755 133.377 264.078 133.377 265.708Z" fill="#161D21"/>
<path d="M131.2 252.907C128.217 247.327 120.798 249.168 120.185 255.295C120.119 255.918 120.109 256.551 120.109 257.184H122.073V255.295C122.073 250.165 129.812 250.232 129.812 255.372V267.252H131.7V258.862C131.7 257.078 132.068 254.547 131.19 252.907H131.2Z" fill="#161D21"/>
<path d="M174.978 265.765C174.978 267.395 173.676 268.719 172.071 268.719C170.467 268.719 169.164 267.395 169.164 265.765C169.164 264.135 170.467 262.812 172.071 262.812C173.676 262.812 174.978 264.135 174.978 265.765Z" fill="#161D21"/>
<path d="M172.716 252.907C169.733 247.327 162.314 249.168 161.701 255.295C161.634 255.918 161.625 256.551 161.625 257.184H163.588V255.295C163.588 250.165 171.328 250.232 171.328 255.372V267.252H173.216V258.862C173.216 257.078 173.584 254.547 172.706 252.907H172.716Z" fill="#161D21"/>
<path d="M151.958 252.907C148.975 247.327 141.556 249.168 140.943 255.295C140.877 255.918 140.867 256.551 140.867 257.184H142.83V255.295C142.83 250.165 150.57 250.232 150.57 255.372V267.252H152.458V258.862C152.458 257.078 152.826 254.547 151.948 252.907H151.958Z" fill="#161D21"/>
<path d="M223.755 318.119H104.562V403.235H223.755V318.119Z" fill="#5F3917"/>
<path d="M143.762 311.733H104.562V377.74H143.762V311.733Z" fill="#5F3917"/>
<path d="M214.743 329.864H113.578V372.006H214.743V329.864Z" fill="white"/>
<path d="M223.755 341.169H104.562V403.226H223.755V341.169Z" fill="#C0966A"/>
<g opacity="0.5">
<path d="M179.461 360.202H128.633V363.549H179.461V360.202Z" fill="#5F3917"/>
<path d="M179.461 367.816H128.633V371.172H179.461V367.816Z" fill="#5F3917"/>
<path d="M156.298 375.381H128.633V378.737H156.298V375.381Z" fill="#5F3917"/>
</g>
<path d="M10.8427 376.905C9.59676 373.588 8.90772 370.002 8.90772 366.253C8.90772 349.712 22.1031 336.317 38.385 336.317C51.5899 336.317 62.756 345.139 66.5032 357.307C69.9955 352.311 75.7249 349.051 82.1999 349.051C92.8279 349.051 101.436 357.805 101.436 368.592C101.436 371.411 100.841 374.096 99.7843 376.522H110.545C117.812 376.522 123.693 382.496 123.693 389.879C123.693 397.262 117.803 403.235 110.545 403.235H13.9763C6.71793 403.235 0.828125 397.252 0.828125 389.879C0.828125 383.598 5.09446 378.334 10.8427 376.905Z" fill="white"/>
<path d="M522.67 403.226V249.283L493.24 219.386H396.672V403.226H522.67Z" fill="#F1F2F2"/>
<path d="M493.242 249.283H522.672L493.242 219.386V249.283Z" fill="#58595B"/>
<path d="M459.666 266.446H407.555V273.513H459.666V266.446Z" fill="#D1D3D4"/>
<path d="M511.787 280.714H407.555V287.78H511.787V280.714Z" fill="#D1D3D4"/>
<path d="M511.787 294.981H407.555V302.048H511.787V294.981Z" fill="#D1D3D4"/>
<path d="M511.787 309.249H407.555V316.316H511.787V309.249Z" fill="#D1D3D4"/>
<path d="M511.787 323.517H407.555V330.583H511.787V323.517Z" fill="#D1D3D4"/>
<path d="M511.787 337.794H407.555V344.861H511.787V337.794Z" fill="#D1D3D4"/>
<path d="M511.787 352.062H407.555V359.128H511.787V352.062Z" fill="#D1D3D4"/>
<path d="M511.787 366.329H407.555V373.396H511.787V366.329Z" fill="#D1D3D4"/>
<path d="M568.966 342.828H465.923C463.29 342.828 461.156 344.996 461.156 347.67V398.393C461.156 401.067 463.29 403.235 465.923 403.235H568.966C571.599 403.235 573.733 401.067 573.733 398.393V347.67C573.733 344.996 571.599 342.828 568.966 342.828Z" fill="#C0966A"/>
<path d="M487.466 377.653C482.171 377.653 477.867 373.578 477.867 368.564V361.276C477.867 356.261 482.171 353.673 487.466 353.673C492.762 353.673 497.066 356.271 497.066 361.276V368.564C497.066 373.578 492.762 377.653 487.466 377.653ZM487.466 356.626C483.653 356.626 480.557 358.179 480.557 361.717V368.266C480.557 371.804 483.653 374.691 487.466 374.691C491.28 374.691 494.376 371.814 494.376 368.266V361.717C494.376 358.179 491.28 356.626 487.466 356.626Z" fill="#161D21"/>
<path d="M500.001 367.422H474.535C474.44 367.422 474.337 367.422 474.242 367.442V386.11H500.001V367.422Z" fill="#5F3917"/>
<path d="M500.008 386.11H474.25V387.328H500.008V386.11Z" fill="#161D21"/>
<path d="M488.104 371.9H486.141V373.78H488.104V371.9Z" fill="white"/>
<path d="M484.19 371.9H482.227V373.78H484.19V371.9Z" fill="white"/>
<path d="M492.034 371.9H490.07V373.78H492.034V371.9Z" fill="white"/>
<path d="M488.104 375.659H486.141V377.538H488.104V375.659Z" fill="white"/>
<path d="M484.19 375.659H482.227V377.538H484.19V375.659Z" fill="white"/>
<path d="M492.034 375.659H490.07V377.538H492.034V375.659Z" fill="white"/>
<path d="M488.104 379.418H486.141V381.297H488.104V379.418Z" fill="white"/>
<path d="M484.19 379.418H482.227V381.297H484.19V379.418Z" fill="white"/>
<path d="M492.034 379.418H490.07V381.297H492.034V379.418Z" fill="white"/>
<path d="M560.558 387.328H508.984V373.118H560.558V387.328Z" fill="white"/>
<path d="M560.558 370.462H508.984V356.252H560.558V370.462Z" fill="white"/>
<path d="M523.095 380.607C523.095 381.45 522.425 382.131 521.594 382.131C520.764 382.131 520.094 381.45 520.094 380.607C520.094 379.763 520.764 379.082 521.594 379.082C522.425 379.082 523.095 379.763 523.095 380.607Z" fill="#161D21"/>
<path d="M528.541 380.607C528.541 381.45 527.87 382.131 527.04 382.131C526.209 382.131 525.539 381.45 525.539 380.607C525.539 379.763 526.209 379.082 527.04 379.082C527.87 379.082 528.541 379.763 528.541 380.607Z" fill="#161D21"/>
<path d="M533.986 380.607C533.986 381.45 533.316 382.131 532.485 382.131C531.655 382.131 530.984 381.45 530.984 380.607C530.984 379.763 531.655 379.082 532.485 379.082C533.316 379.082 533.986 379.763 533.986 380.607Z" fill="#161D21"/>
<path d="M539.431 380.607C539.431 381.45 538.761 382.131 537.93 382.131C537.1 382.131 536.43 381.45 536.43 380.607C536.43 379.763 537.1 379.082 537.93 379.082C538.761 379.082 539.431 379.763 539.431 380.607Z" fill="#161D21"/>
<path d="M544.869 380.607C544.869 381.45 544.199 382.131 543.368 382.131C542.537 382.131 541.867 381.45 541.867 380.607C541.867 379.763 542.537 379.082 543.368 379.082C544.199 379.082 544.869 379.763 544.869 380.607Z" fill="#161D21"/>
<path d="M550.314 380.607C550.314 381.45 549.644 382.131 548.813 382.131C547.983 382.131 547.312 381.45 547.312 380.607C547.312 379.763 547.983 379.082 548.813 379.082C549.644 379.082 550.314 379.763 550.314 380.607Z" fill="#161D21"/>
<defs>
<filter id="filter0_d_585_18615" x="155.281" y="155.937" width="283.422" height="200.068" filterUnits="userSpaceOnUse" color-interpolation-filters="sRGB">
<feFlood flood-opacity="0" result="BackgroundImageFix"/>
<feColorMatrix in="SourceAlpha" type="matrix" values="0 0 0 0 0 0 0 0 0 0 0 0 0 0 0 0 0 0 127 0" result="hardAlpha"/>
<feOffset dx="2" dy="2"/>
<feGaussianBlur stdDeviation="3"/>
<feColorMatrix type="matrix" values="0 0 0 0 0 0 0 0 0 0 0 0 0 0 0 0 0 0 0.27 0"/>
<feBlend mode="normal" in2="BackgroundImageFix" result="effect1_dropShadow_585_18615"/>
<feBlend mode="normal" in="SourceGraphic" in2="effect1_dropShadow_585_18615" result="shape"/>
</filter>
<filter id="filter1_d_585_18615" x="229.523" y="122.502" width="131.352" height="83.7794" filterUnits="userSpaceOnUse" color-interpolation-filters="sRGB">
<feFlood flood-opacity="0" result="BackgroundImageFix"/>
<feColorMatrix in="SourceAlpha" type="matrix" values="0 0 0 0 0 0 0 0 0 0 0 0 0 0 0 0 0 0 127 0" result="hardAlpha"/>
<feOffset dx="2" dy="2"/>
<feGaussianBlur stdDeviation="3"/>
<feColorMatrix type="matrix" values="0 0 0 0 0 0 0 0 0 0 0 0 0 0 0 0 0 0 0.27 0"/>
<feBlend mode="normal" in2="BackgroundImageFix" result="effect1_dropShadow_585_18615"/>
<feBlend mode="normal" in="SourceGraphic" in2="effect1_dropShadow_585_18615" result="shape"/>
</filter>
<linearGradient id="paint0_linear_585_18615" x1="285.647" y1="160.964" x2="294.592" y2="347.443" gradientUnits="userSpaceOnUse">
<stop stop-color="#B867C7"/>
<stop offset="1" stop-color="#603C93"/>
</linearGradient>
<linearGradient id="paint1_linear_585_18615" x1="289.091" y1="126.894" x2="292.056" y2="198.107" gradientUnits="userSpaceOnUse">
<stop stop-color="#B867C7"/>
<stop offset="1" stop-color="#603C93"/>
</linearGradient>
</defs>
</svg>
