<svg width="81" height="81" viewBox="0 0 81 81" fill="none" xmlns="http://www.w3.org/2000/svg">
<path d="M35.0547 7.93808C37.6062 7.29008 40.1577 6.80408 42.8687 6.80408C57.6992 6.80408 69.9783 18.1441 70.7757 32.7241L71.0946 36.4501C71.0946 37.0981 71.4136 37.7461 71.7325 38.3941L76.8355 45.8461C77.1544 46.3321 77.6328 47.1421 77.6328 47.7901C77.6328 49.5721 75.8787 51.1921 73.9651 51.1921H70.9352C69.8189 51.1921 69.181 52.0021 69.181 53.1361V64.1521C69.181 66.2581 67.2674 67.8781 65.1943 67.8781H58.975C56.9019 67.8781 54.9883 69.8221 54.9883 71.9281V77.1121" stroke="#603C93" stroke-width="2.43" stroke-miterlimit="10" stroke-linecap="round" stroke-linejoin="round"/>
<path d="M20.5469 51.3541L21.3442 52.9741C24.6931 60.1021 26.2878 67.8781 26.2878 75.8161V76.7881" stroke="#603C93" stroke-width="2.43" stroke-miterlimit="10" stroke-linecap="round" stroke-linejoin="round"/>
<path d="M52.2786 36.7739C51.8002 39.6899 50.6839 42.2819 49.0892 44.5499L53.0759 49.8959L48.2919 54.7559L43.0294 50.5439C40.7968 52.1639 38.0859 53.2979 35.3749 53.7839L34.5776 60.4259H27.8799L27.0825 53.7839C24.2121 53.2979 21.6606 52.1639 19.428 50.5439L14.1656 54.7559L9.3815 49.8959L13.3682 44.5499C11.7735 42.2819 10.6573 39.5279 10.1788 36.7739L3.64062 35.9639V29.1599L10.1788 28.3499C10.8167 25.4339 11.7735 22.8419 13.3682 20.5739L9.22203 14.9039L14.0061 10.0439L19.2686 14.2559C21.5011 12.6359 24.2121 11.5019 26.9231 11.0159L27.8799 4.21185H34.5776L35.3749 10.8539C38.2453 11.3399 40.7968 12.4739 43.0294 14.0939L48.2919 9.88185L53.0759 14.7419L49.0892 20.0879C50.6839 22.3559 51.8002 25.1099 52.2786 27.8639L58.8168 28.6739V35.4779L52.2786 36.7739Z" stroke="#603C93" stroke-width="2.43" stroke-miterlimit="10" stroke-linecap="round" stroke-linejoin="round"/>
<path d="M25.3374 42.768C24.0616 41.472 24.3805 39.528 24.859 37.908C25.4968 35.802 28.8457 32.562 28.8457 32.562C29.1646 32.238 29.3241 31.914 29.3241 31.428V28.026H22.3075C20.3938 28.026 19.2775 25.758 20.5533 24.3L24.859 19.116C25.3374 18.63 25.8158 18.306 26.6131 18.306H27.5699V15.714C27.5699 15.714 46.3872 18.468 38.4138 42.768" stroke="#603C93" stroke-width="2.43" stroke-miterlimit="10" stroke-linecap="round" stroke-linejoin="round"/>
<path d="M26.7734 22.68H27.8897" stroke="#603C93" stroke-width="2.43" stroke-miterlimit="10" stroke-linecap="round" stroke-linejoin="round"/>
<path d="M40.1643 47.79C41.44 47.79 42.5563 46.818 42.5563 45.522V45.036C42.5563 43.74 41.5995 42.768 40.1643 42.768H23.5795C22.3038 42.768 21.1875 43.74 21.1875 45.036V45.522C21.1875 46.818 22.1443 47.79 23.5795 47.79H40.1643Z" stroke="#603C93" stroke-width="2.43" stroke-miterlimit="10" stroke-linecap="round" stroke-linejoin="round"/>
</svg>
