<svg width="80" height="80" viewBox="0 0 80 80" fill="none" xmlns="http://www.w3.org/2000/svg">
<path d="M51.4229 0.00515391C50.7377 -0.0396898 50.0584 0.209841 49.5593 0.685779C49.0635 1.1589 48.7791 1.82687 48.7791 2.51797V7.67765C47.8022 7.47203 46.7677 7.53562 45.8232 7.86422C45.2205 8.07422 44.8994 8.74062 45.1061 9.35281C45.3128 9.965 45.9688 10.2911 46.5714 10.0812C47.2056 9.86015 47.9179 9.84594 48.5547 10.0339C49.1536 10.212 49.8071 10.0933 50.3033 9.71578C50.8007 9.33734 51.0862 8.7575 51.0862 8.125V2.51797C51.0862 2.46922 51.1039 2.42765 51.1389 2.39422C51.1654 2.36906 51.2112 2.3389 51.2788 2.34437C62.3574 3.0489 71.0241 12.4345 71.009 23.7134C71.009 24.1148 70.9979 24.5208 70.9759 24.92C70.9689 25.048 70.8727 25.1447 70.7525 25.1447H68.2801C68.406 24.5327 68.4312 23.9047 68.3551 23.2725C68.0445 20.6959 65.9746 18.6217 63.4333 18.3408C61.8476 18.1656 60.262 18.6806 59.0821 19.7555C57.901 20.8312 57.2238 22.3716 57.2238 23.9812C57.2238 24.3727 57.263 24.7617 57.3411 25.1448H51.754C51.3857 25.1448 51.0862 24.8406 51.0862 24.4664V18.3406C51.0862 17.7059 50.7995 17.1241 50.2995 16.7441C49.799 16.3637 49.1677 16.2486 48.5668 16.428C48.1306 16.5586 47.6753 16.5959 47.2144 16.5381C45.7284 16.3527 44.5338 15.12 44.3738 13.6067C44.3594 13.4717 44.3529 13.3359 44.3543 13.203C44.3608 12.5558 43.8497 12.0258 43.2126 12.0191C43.2086 12.0191 43.2044 12.0191 43.2004 12.0191C42.569 12.0191 42.0538 12.5359 42.0472 13.1789C42.0449 13.4034 42.0561 13.6319 42.0799 13.8575C42.3531 16.4417 44.3941 18.5475 46.9335 18.8645C47.5569 18.9419 48.1758 18.9164 48.7791 18.7886V24.4666C48.7791 26.133 50.1137 27.4887 51.754 27.4887H57.7815C58.4039 27.4887 58.9747 27.1989 59.3473 26.6934C59.7189 26.1892 59.8361 25.5252 59.6616 24.9216C59.575 24.6167 59.5309 24.3003 59.5309 23.9812C59.5309 23.0364 59.9288 22.1322 60.6225 21.5003C61.3251 20.8603 62.2336 20.5652 63.1832 20.6708C64.6713 20.8353 65.8833 22.0492 66.065 23.5573C66.1216 24.028 66.0842 24.4922 65.9547 24.9348C65.7768 25.5377 65.8875 26.1745 66.2591 26.6817C66.629 27.1869 67.2198 27.4886 67.8392 27.4886H70.7522C72.0943 27.4886 73.2042 26.4177 73.2792 25.0506C73.3035 24.6083 73.3158 24.1584 73.3158 23.7152C73.3328 11.2014 63.716 0.786873 51.4229 0.00515391Z" fill="#603C93"/>
<path d="M59.7717 38.929C59.2885 38.3356 58.5768 37.9953 57.8193 37.9953H55.6849C56.5328 34.4844 53.3111 30.6823 49.5934 31.1912C47.0519 31.4723 44.982 33.5464 44.6714 36.123C44.5953 36.7551 44.6205 37.383 44.7463 37.9951H38.4917V31.1909C38.4917 30.5562 38.205 29.9744 37.705 29.5944C37.2043 29.2139 36.5732 29.0987 35.9723 29.2783C35.5361 29.4086 35.0808 29.4456 34.6199 29.3886C33.1341 29.203 31.9393 27.9703 31.7793 26.4575C31.6777 25.4953 31.9685 24.5728 32.5985 23.8605C33.2208 23.1569 34.1108 22.7533 35.0404 22.7533C35.3549 22.7533 35.6653 22.7978 35.9602 22.8847C36.5591 23.0633 37.2125 22.9444 37.7087 22.5667C38.2061 22.1883 38.4915 21.6084 38.4915 20.9759V15.427C38.4915 14.7189 38.1996 14.0355 37.6903 13.5515C37.1792 13.0661 36.4845 12.8145 35.7859 12.8622C23.6096 13.6884 14.02 24.0425 13.9545 36.4337C13.8903 42.2787 16.1493 48.3715 20.1952 52.7148C20.6287 53.1889 21.3585 53.2167 21.8256 52.7762C22.2924 52.3359 22.3195 51.5945 21.8861 51.12C19.1078 48.0801 17.2912 44.3756 16.588 40.339H18.9906C18.266 43.5458 20.7891 47.2325 24.4733 47.1748C27.7529 47.2005 30.7093 44.0023 29.9282 40.339H36.1847V47.1392C36.1615 48.4028 37.5742 49.5634 39.0562 48.9703C40.9769 48.547 43.1827 50.377 42.8945 52.6237C42.7311 54.4067 40.7331 56.1211 38.698 55.4406C38.1035 55.2601 37.4769 55.373 36.9782 55.7503C36.4814 56.1261 36.1847 56.7262 36.1847 57.3553V64.1589H28.3269C27.7572 61.2364 26.7579 58.4767 25.3555 55.953C25.0422 55.3894 24.3387 55.1906 23.7839 55.5084C23.2291 55.8265 23.0332 56.5414 23.3463 57.105C24.7109 59.5214 25.7345 62.5415 26.2195 65.443V75.0517C26.2195 77.78 28.4045 79.9997 31.0903 79.9997H43.5861C46.2718 79.9997 48.4568 77.78 48.4568 75.0517V65.4445C49.206 60.7812 51.4032 56.1822 54.7227 52.4455C57.5796 49.222 59.5106 45.2784 60.3065 41.0409C60.4477 40.2898 60.2527 39.52 59.7717 38.929ZM29.4879 37.9955C28.4063 37.9533 27.1483 39.2226 27.6214 40.6214C28.1662 42.5889 26.6923 45.0778 24.0874 44.8106C22.5208 44.6117 20.8237 43.1365 21.2521 40.8094C21.6841 39.6884 21.0153 37.9958 19.4314 37.9955H16.3079C16.2742 37.4797 16.2588 36.9619 16.2616 36.4467C16.3208 25.278 24.9644 15.9456 35.9399 15.2008C36.0226 15.194 36.0809 15.2317 36.1144 15.2633C36.1463 15.2936 36.1844 15.3465 36.1844 15.427V20.5286C35.8094 20.4495 35.4263 20.4097 35.0404 20.4097C33.4569 20.4097 31.9414 21.0965 30.8823 22.2944C29.8244 23.4906 29.3153 25.0994 29.4854 26.708C29.7586 29.2922 31.7996 31.398 34.3392 31.7151C34.963 31.7926 35.5818 31.7669 36.1846 31.639V37.9955H29.4879ZM46.1497 68.564H35.623C34.9858 68.564 34.4694 69.0886 34.4694 69.7359C34.4694 70.3833 34.9858 70.9078 35.623 70.9078H46.1497V73.2515H28.5264V70.9078H30.3106C30.9478 70.9078 31.4642 70.3833 31.4642 69.7359C31.4642 69.0886 30.9478 68.564 30.3106 68.564H28.5264V66.5034H46.1495L46.1497 68.564ZM43.5861 77.6564H31.0903C29.8601 77.6564 28.8304 76.7714 28.5837 75.5955H46.0928C45.8459 76.7714 44.8161 77.6564 43.5861 77.6564ZM58.0401 40.602C57.3232 44.419 55.5831 47.9723 53.0081 50.8776C49.5873 54.7372 47.2869 59.327 46.3502 64.1594H38.4917V57.8034C41.5 58.548 44.9184 56.103 45.1882 52.8756C45.6383 49.1969 42.1786 45.8623 38.4917 46.6923V40.3392H45.187C45.8117 40.3392 46.3847 40.048 46.7588 39.54C47.1333 39.0314 47.2468 38.3901 47.0699 37.78C46.9415 37.337 46.905 36.8755 46.9613 36.408C47.1431 34.9 48.355 33.6859 49.8434 33.5214C51.969 33.2748 54.057 35.357 53.3639 37.7701C53.19 38.3784 53.3082 39.042 53.6803 39.5455C54.053 40.0498 54.6233 40.339 55.245 40.339H57.8193C57.9073 40.339 57.9629 40.3847 57.994 40.4228C58.0235 40.4594 58.0557 40.52 58.0401 40.602Z" fill="#603C93"/>
<path d="M69.0558 45.9811L65.0442 45.7605C64.4099 45.7277 63.8645 46.2211 63.8298 46.8674C63.7954 47.5136 64.2831 48.0658 64.9194 48.101L68.9311 48.3216C68.9523 48.3227 68.9734 48.3233 68.9944 48.3233C69.6029 48.3233 70.112 47.8394 70.1452 47.2147C70.1798 46.5685 69.6921 46.0163 69.0558 45.9811Z" fill="#603C93"/>
<path d="M65.2688 57.6897L62.2327 55.1828C61.7381 54.7747 61.0117 54.8507 60.6099 55.3532C60.2082 55.8553 60.2832 56.5935 60.7776 57.0018L63.8136 59.5086C64.0275 59.6852 64.2847 59.7711 64.5405 59.7711C64.8759 59.7711 65.2085 59.6235 65.4364 59.3383C65.8382 58.8361 65.7631 58.098 65.2688 57.6897Z" fill="#603C93"/>
<path d="M54.5031 61.1244C54.3393 60.499 53.7065 60.1275 53.0916 60.2933C52.4759 60.4597 52.1096 61.1018 52.2734 61.7272L53.3069 65.6722C53.4444 66.1966 53.9109 66.543 54.4209 66.543C54.5192 66.543 54.619 66.5302 54.7184 66.5033C55.3341 66.3369 55.7003 65.6949 55.5365 65.0694L54.5031 61.1244Z" fill="#603C93"/>
<path d="M23.7049 11.0836C23.7948 11.6606 24.2852 12.0724 24.8429 12.0724C24.9029 12.0724 24.9635 12.0677 25.0247 12.0578C25.6539 11.9567 26.0834 11.3564 25.9837 10.717L25.3557 6.68595C25.2562 6.04689 24.666 5.61127 24.0359 5.71173C23.4066 5.81283 22.9772 6.41314 23.0769 7.05252L23.7049 11.0836Z" fill="#603C93"/>
<path d="M15.4168 16.1874C15.6421 16.4161 15.9374 16.5305 16.2326 16.5305C16.5277 16.5305 16.8231 16.4161 17.0484 16.1874C17.4989 15.7296 17.4989 14.9877 17.0484 14.53L14.2818 11.7197C13.8312 11.2622 13.1009 11.2622 12.6504 11.7197C12.1999 12.1775 12.1999 12.9194 12.6504 13.3771L15.4168 16.1874Z" fill="#603C93"/>
<path d="M12.022 22.951L8.05295 22.3121C7.42357 22.2112 6.83264 22.647 6.73312 23.286C6.63346 23.9253 7.06273 24.5257 7.69181 24.6268L11.6608 25.2657C11.7219 25.2756 11.7828 25.2804 11.8428 25.2804C12.4004 25.2804 12.8907 24.8689 12.9807 24.2918C13.0805 23.6526 12.6512 23.0521 12.022 22.951Z" fill="#603C93"/>
</svg>
