<svg width="80" height="80" viewBox="0 0 80 80" fill="none" xmlns="http://www.w3.org/2000/svg">
<path d="M64.354 21.8875C64.2472 21.6944 64.0918 21.5336 63.9037 21.4216C63.7156 21.3096 63.5016 21.2504 63.2835 21.25H60.8226C60.5795 16.9202 59.0381 12.7696 56.4054 9.35565C53.7727 5.94166 50.1748 3.4277 46.0949 2.15134C42.0149 0.874989 37.6481 0.897353 33.581 2.21543C29.5139 3.53351 25.9412 6.0842 23.3425 9.52498C23.1595 9.79451 23.088 10.1262 23.1432 10.4488C23.1984 10.7713 23.376 11.059 23.6378 11.25C23.8945 11.4112 24.2005 11.4709 24.4976 11.4179C24.7948 11.3649 25.0625 11.2028 25.2497 10.9625C27.535 7.91341 30.685 5.64891 34.2757 4.47391C37.8664 3.29892 41.7253 3.26986 45.3327 4.39066C48.9402 5.51145 52.1229 7.72826 54.4524 10.7426C56.7819 13.7569 58.1462 17.424 58.3616 21.25H55.9007C55.6827 21.2504 55.4687 21.3096 55.2806 21.4216C55.0925 21.5336 54.937 21.6944 54.8302 21.8875C54.7222 22.0775 54.6653 22.2931 54.6653 22.5125C54.6653 22.7319 54.7222 22.9475 54.8302 23.1375L58.5216 29.3875C58.6306 29.574 58.7854 29.7285 58.9709 29.8358C59.1565 29.9432 59.3663 29.9996 59.5798 29.9996C59.7933 29.9996 60.0031 29.9432 60.1887 29.8358C60.3742 29.7285 60.5291 29.574 60.638 29.3875L64.3294 23.1375C64.4412 22.9497 64.5023 22.7353 64.5066 22.5158C64.5109 22.2964 64.4583 22.0797 64.354 21.8875ZM59.5921 26.325L58.0786 23.75H61.1056L59.5921 26.325Z" fill="#603C93"/>
<path d="M19.1603 15.6125L15.4689 21.8625C15.3582 22.0523 15.2988 22.2685 15.2969 22.4891C15.295 22.7097 15.3506 22.9269 15.4581 23.1186C15.5656 23.3103 15.7211 23.4697 15.9089 23.5806C16.0966 23.6915 16.3099 23.75 16.5271 23.75H19.0496C19.3042 28.0674 20.8495 32.2032 23.4793 35.6047C26.109 39.0062 29.6979 41.5115 33.7665 42.786C37.835 44.0604 42.1895 44.0433 46.2483 42.7369C50.307 41.4305 53.8767 38.8971 56.4804 35.475C56.6622 35.204 56.7318 34.8712 56.6742 34.5485C56.6167 34.2258 56.4366 33.9391 56.1728 33.75C55.9162 33.5888 55.6102 33.529 55.313 33.5821C55.0158 33.6351 54.7482 33.7971 54.5609 34.0375C52.2692 37.0631 49.1229 39.306 45.5427 40.4663C41.9625 41.6266 38.119 41.6491 34.5258 40.5307C30.9327 39.4123 27.7613 37.2063 25.4355 34.2076C23.1097 31.2089 21.7403 27.5605 21.5105 23.75H23.9099C24.1271 23.75 24.3404 23.6915 24.5282 23.5806C24.7159 23.4697 24.8715 23.3103 24.9789 23.1186C25.0864 22.9269 25.142 22.7097 25.1402 22.4891C25.1383 22.2685 25.0789 22.0523 24.9681 21.8625L21.2767 15.6125C21.1678 15.426 21.0129 15.2715 20.8274 15.1641C20.6419 15.0568 20.432 15.0004 20.2185 15.0004C20.005 15.0004 19.7952 15.0568 19.6097 15.1641C19.4241 15.2715 19.2693 15.426 19.1603 15.6125ZM18.7051 21.25L20.2185 18.675L21.732 21.25H18.7051Z" fill="#603C93"/>
<path d="M51.4371 25.1125C51.6116 25.0205 51.7619 24.8874 51.8754 24.7243C51.9889 24.5612 52.0622 24.3728 52.0893 24.175C52.2538 23.0646 52.2538 21.9354 52.0893 20.825C52.0622 20.6272 51.9889 20.4388 51.8754 20.2757C51.7619 20.1126 51.6116 19.9795 51.4371 19.8875L50.3666 19.3125C50.1455 18.5964 49.8613 17.9019 49.5176 17.2375L49.8867 16.075C49.945 15.897 49.9631 15.7079 49.9397 15.5218C49.9163 15.3357 49.8519 15.1574 49.7514 15C49.0801 14.1057 48.2938 13.3069 47.4135 12.625C47.2564 12.5026 47.0726 12.4206 46.8777 12.3858C46.6828 12.3509 46.4825 12.3644 46.2937 12.425L45.1494 12.8C44.4954 12.4508 43.8118 12.1621 43.1068 11.9375L42.5408 10.85C42.4503 10.6727 42.3192 10.52 42.1587 10.4048C41.9981 10.2895 41.8127 10.215 41.618 10.1875C40.5255 10.0124 39.4128 10.0124 38.3203 10.1875C38.1256 10.215 37.9402 10.2895 37.7796 10.4048C37.619 10.52 37.488 10.6727 37.3975 10.85L36.8314 11.9375C36.1265 12.1621 35.4429 12.4508 34.7889 12.8L33.6445 12.425C33.4558 12.3644 33.2555 12.3509 33.0606 12.3858C32.8656 12.4206 32.6818 12.5026 32.5248 12.625C31.6445 13.3069 30.8582 14.1057 30.1869 15C30.0665 15.1596 29.9857 15.3463 29.9514 15.5443C29.9171 15.7423 29.9304 15.9458 29.99 16.1375L30.3592 17.3C30.0154 17.9644 29.7313 18.6589 29.5102 19.375L28.4396 19.95C28.2651 20.042 28.1148 20.1751 28.0014 20.3382C27.8879 20.5013 27.8146 20.6897 27.7875 20.8875C27.6229 21.9979 27.6229 23.1271 27.7875 24.2375C27.8146 24.4353 27.8879 24.6237 28.0014 24.7868C28.1148 24.9499 28.2651 25.083 28.4396 25.175L29.5102 25.75C29.7313 26.4662 30.0154 27.1606 30.3592 27.825L29.99 28.9875C29.9304 29.1792 29.9171 29.3827 29.9514 29.5807C29.9857 29.7788 30.0665 29.9655 30.1869 30.125C30.8582 31.0193 31.6445 31.8181 32.5248 32.5C32.6818 32.6224 32.8656 32.7044 33.0606 32.7393C33.2555 32.7741 33.4558 32.7606 33.6445 32.7L34.7889 32.325C35.4429 32.6742 36.1265 32.9629 36.8314 33.1875L37.3975 34.275C37.488 34.4523 37.619 34.605 37.7796 34.7202C37.9402 34.8355 38.1256 34.91 38.3203 34.9375C39.4134 35.1047 40.5249 35.1047 41.618 34.9375C41.8127 34.91 41.9981 34.8355 42.1587 34.7202C42.3192 34.605 42.4503 34.4523 42.5408 34.275L43.1068 33.1875C43.8118 32.9629 44.4954 32.6742 45.1494 32.325L46.2937 32.7C46.4825 32.7606 46.6828 32.7741 46.8777 32.7393C47.0726 32.7044 47.2564 32.6224 47.4135 32.5C48.2938 31.8181 49.0801 31.0193 49.7514 30.125C49.8718 29.9655 49.9526 29.7788 49.9869 29.5807C50.0212 29.3827 50.0079 29.1792 49.9482 28.9875L49.5791 27.825C49.9229 27.1606 50.207 26.4662 50.4281 25.75L51.4371 25.1125ZM49.7514 23.2L48.7793 23.7125C48.6215 23.7933 48.4826 23.9077 48.3722 24.0479C48.2618 24.1881 48.1824 24.3508 48.1394 24.525C47.938 25.3845 47.6059 26.2069 47.1551 26.9625C47.0639 27.1146 47.0057 27.2847 46.9845 27.4615C46.9633 27.6383 46.9795 27.8176 47.032 27.9875L47.3643 29.05C47.0549 29.4018 46.7262 29.7357 46.3799 30.05L45.334 29.7125C45.1667 29.6591 44.9902 29.6427 44.8162 29.6642C44.6422 29.6858 44.4747 29.7449 44.325 29.8375C43.5622 30.3016 42.7315 30.6391 41.8641 30.8375C41.6926 30.8811 41.5324 30.9618 41.3944 31.074C41.2564 31.1861 41.1438 31.3272 41.0643 31.4875L40.5598 32.475C40.1011 32.5124 39.6403 32.5124 39.1816 32.475L38.6771 31.4875C38.5976 31.3272 38.485 31.1861 38.347 31.074C38.209 30.9618 38.0488 30.8811 37.8773 30.8375C37.0312 30.6329 36.2217 30.2955 35.4779 29.8375C35.3282 29.7449 35.1607 29.6858 34.9867 29.6642C34.8127 29.6427 34.6362 29.6591 34.4689 29.7125L33.423 30.05C33.0767 29.7357 32.7481 29.4018 32.4387 29.05L32.7709 27.9875C32.8234 27.8176 32.8396 27.6383 32.8184 27.4615C32.7972 27.2847 32.739 27.1146 32.6478 26.9625C32.197 26.2069 31.8649 25.3845 31.6635 24.525C31.6205 24.3508 31.5411 24.1881 31.4307 24.0479C31.3203 23.9077 31.1815 23.7933 31.0236 23.7125L30.0639 23.2C30.0639 22.95 30.0639 22.725 30.0639 22.5C30.0639 22.275 30.0639 22.05 30.0639 21.8L31.0359 21.2875C31.1938 21.2067 31.3326 21.0923 31.443 20.9521C31.5534 20.8119 31.6328 20.6492 31.6758 20.475C31.8772 19.6155 32.2093 18.7931 32.6602 18.0375C32.7514 17.8854 32.8095 17.7153 32.8307 17.5385C32.852 17.3617 32.8357 17.1824 32.7832 17.0125L32.5248 15.95C32.8342 15.5982 33.1628 15.2643 33.5092 14.95L34.5551 15.2875C34.7223 15.3409 34.8989 15.3574 35.0729 15.3358C35.2469 15.3142 35.4143 15.2552 35.5641 15.1625C36.3078 14.7045 37.1174 14.3671 37.9635 14.1625C38.1349 14.1189 38.2951 14.0382 38.4331 13.9261C38.5711 13.8139 38.6837 13.6729 38.7633 13.5125L39.2678 12.525C39.7264 12.4876 40.1873 12.4876 40.6459 12.525L41.1504 13.5125C41.2299 13.6729 41.3425 13.8139 41.4806 13.9261C41.6186 14.0382 41.7787 14.1189 41.9502 14.1625C42.8176 14.3609 43.6483 14.6985 44.4111 15.1625C44.5608 15.2552 44.7283 15.3142 44.9023 15.3358C45.0763 15.3574 45.2529 15.3409 45.4201 15.2875L46.466 14.95C46.8123 15.2643 47.141 15.5982 47.4504 15.95L47.1182 17.0125C47.0656 17.1824 47.0494 17.3617 47.0706 17.5385C47.0918 17.7153 47.15 17.8854 47.2412 18.0375C47.692 18.7931 48.0242 19.6155 48.2256 20.475C48.2685 20.6492 48.3479 20.8119 48.4583 20.9521C48.5687 21.0923 48.7076 21.2067 48.8654 21.2875L49.8375 21.8C49.8375 22.05 49.8375 22.275 49.8375 22.5C49.8375 22.725 49.7514 22.95 49.7514 23.2Z" fill="#603C93"/>
<path d="M39.9037 16.1375C38.665 16.1375 37.4541 16.5107 36.4241 17.2098C35.3942 17.9089 34.5914 18.9026 34.1174 20.0652C33.6433 21.2278 33.5193 22.5071 33.761 23.7413C34.0026 24.9755 34.5991 26.1092 35.475 26.999C36.351 27.8888 37.4669 28.4948 38.6818 28.7403C39.8968 28.9858 41.1561 28.8598 42.3005 28.3782C43.4449 27.8966 44.4231 27.0811 45.1113 26.0348C45.7995 24.9885 46.1668 23.7584 46.1668 22.5C46.1668 21.6645 46.0048 20.8371 45.69 20.0652C45.3753 19.2933 44.914 18.5919 44.3324 18.001C43.7508 17.4102 43.0604 16.9416 42.3005 16.6218C41.5406 16.3021 40.7262 16.1375 39.9037 16.1375ZM39.9037 26.3625C39.1517 26.3625 38.4166 26.136 37.7914 25.7116C37.1661 25.2871 36.6788 24.6839 36.391 23.9781C36.1032 23.2723 36.0279 22.4957 36.1746 21.7465C36.3213 20.9972 36.6834 20.309 37.2152 19.7688C37.7469 19.2286 38.4244 18.8608 39.162 18.7117C39.8995 18.5627 40.664 18.6392 41.3587 18.9315C42.0535 19.2239 42.6473 19.7189 43.0651 20.3541C43.4829 20.9893 43.7059 21.7361 43.7059 22.5C43.7026 23.5234 43.301 24.5039 42.5887 25.2276C41.8763 25.9512 40.9111 26.3592 39.9037 26.3625Z" fill="#603C93"/>
<path d="M67.1773 63.6625C66.863 63.6031 66.5381 63.6703 66.2717 63.85C66.0053 64.0296 65.8182 64.3076 65.75 64.625C65.695 64.9425 65.7628 65.2693 65.9394 65.5372C66.116 65.805 66.3875 65.9933 66.6975 66.0625C73.9572 67.7 75.5938 69.4375 75.5938 70C75.5938 72.125 62.9938 76.25 39.9102 76.25C16.8266 76.25 4.22656 72.125 4.22656 70C4.22656 69.4375 5.86309 67.7 13.1352 66.1125C13.4428 66.0405 13.7114 65.8512 13.8855 65.5836C14.0596 65.3161 14.1257 64.9908 14.0703 64.675C14.0022 64.3576 13.815 64.0796 13.5486 63.9C13.2822 63.7203 12.9574 63.6531 12.643 63.7125C5.32168 65.25 1.76562 67.325 1.76562 70C1.76562 76.925 26.7195 78.75 39.9102 78.75C53.1008 78.75 78.0547 76.925 78.0547 70C78.0547 67.325 74.4986 65.25 67.1773 63.6625Z" fill="#603C93"/>
<path d="M16.5235 61.25V71.25C16.5235 71.5815 16.6531 71.8995 16.8839 72.1339C17.1146 72.3683 17.4276 72.5 17.7539 72.5H62.0508C62.3772 72.5 62.6901 72.3683 62.9209 72.1339C63.1516 71.8995 63.2813 71.5815 63.2813 71.25V61.25C63.2775 59.8564 62.8152 58.504 61.9681 57.4078C61.1209 56.3116 59.9373 55.5345 58.6055 55.2C59.3736 54.4108 59.8947 53.4085 60.1033 52.3191C60.3118 51.2297 60.1985 50.102 59.7776 49.0779C59.3567 48.0538 58.6469 47.179 57.7377 46.5638C56.8285 45.9485 55.7605 45.6202 54.668 45.6202C53.5755 45.6202 52.5075 45.9485 51.5983 46.5638C50.6891 47.179 49.9793 48.0538 49.5584 49.0779C49.1375 50.102 49.0242 51.2297 49.2327 52.3191C49.4413 53.4085 49.9624 54.4108 50.7305 55.2C49.3559 55.5414 48.1391 56.3537 47.2852 57.5C46.4373 56.3397 45.2198 55.5136 43.8399 55.1625C44.608 54.3733 45.1291 53.371 45.3376 52.2816C45.5462 51.1922 45.4329 50.0645 45.012 49.0404C44.591 48.0163 43.8813 47.1415 42.9721 46.5263C42.0629 45.911 40.9948 45.5827 39.9024 45.5827C38.8099 45.5827 37.7419 45.911 36.8327 46.5263C35.9235 47.1415 35.2137 48.0163 34.7928 49.0404C34.3719 50.0645 34.2585 51.1922 34.4671 52.2816C34.6757 53.371 35.1968 54.3733 35.9649 55.1625C34.585 55.5136 33.3674 56.3397 32.5196 57.5C31.6717 56.3397 30.4542 55.5136 29.0743 55.1625C29.8423 54.3733 30.3635 53.371 30.572 52.2816C30.7806 51.1922 30.6673 50.0645 30.2463 49.0404C29.8254 48.0163 29.1157 47.1415 28.2065 46.5263C27.2973 45.911 26.2292 45.5827 25.1368 45.5827C24.0443 45.5827 22.9762 45.911 22.067 46.5263C21.1578 47.1415 20.4481 48.0163 20.0272 49.0404C19.6062 50.0645 19.4929 51.1922 19.7015 52.2816C19.91 53.371 20.4312 54.3733 21.1992 55.1625C19.8613 55.4985 18.6732 56.2812 17.8253 57.385C16.9775 58.4889 16.519 59.8499 16.5235 61.25ZM54.668 48.125C55.2764 48.125 55.8712 48.3083 56.377 48.6517C56.8829 48.9951 57.2772 49.4831 57.51 50.0541C57.7428 50.6252 57.8038 51.2535 57.6851 51.8597C57.5664 52.4659 57.2734 53.0227 56.8432 53.4597C56.413 53.8968 55.8648 54.1944 55.2681 54.315C54.6714 54.4356 54.0529 54.3737 53.4908 54.1372C52.9287 53.9006 52.4483 53.5001 52.1103 52.9862C51.7722 52.4723 51.5918 51.8681 51.5918 51.25C51.5918 50.4212 51.9159 49.6264 52.4928 49.0403C53.0697 48.4543 53.8521 48.125 54.668 48.125ZM52.2071 57.5H57.1289C58.108 57.5 59.0469 57.8951 59.7392 58.5984C60.4314 59.3016 60.8203 60.2555 60.8203 61.25V70H48.5157V61.25C48.5157 60.2555 48.9046 59.3016 49.5968 58.5984C50.2891 57.8951 51.228 57.5 52.2071 57.5ZM39.9024 48.125C40.5108 48.125 41.1055 48.3083 41.6114 48.6517C42.1173 48.9951 42.5116 49.4831 42.7444 50.0541C42.9772 50.6252 43.0381 51.2535 42.9194 51.8597C42.8007 52.4659 42.5078 53.0227 42.0776 53.4597C41.6474 53.8968 41.0992 54.1944 40.5025 54.315C39.9058 54.4356 39.2873 54.3737 38.7252 54.1372C38.1631 53.9006 37.6826 53.5001 37.3446 52.9862C37.0066 52.4723 36.8262 51.8681 36.8262 51.25C36.8262 50.4212 37.1503 49.6264 37.7272 49.0403C38.3041 48.4543 39.0865 48.125 39.9024 48.125ZM37.4414 57.5H42.3633C43.3423 57.5 44.2813 57.8951 44.9735 58.5984C45.6658 59.3016 46.0547 60.2555 46.0547 61.25V70H33.75V61.25C33.75 60.2555 34.1389 59.3016 34.8312 58.5984C35.5235 57.8951 36.4624 57.5 37.4414 57.5ZM25.1368 48.125C25.7452 48.125 26.3399 48.3083 26.8458 48.6517C27.3517 48.9951 27.7459 49.4831 27.9788 50.0541C28.2116 50.6252 28.2725 51.2535 28.1538 51.8597C28.0351 52.4659 27.7421 53.0227 27.3119 53.4597C26.8817 53.8968 26.3336 54.1944 25.7369 54.315C25.1402 54.4356 24.5216 54.3737 23.9596 54.1372C23.3975 53.9006 22.917 53.5001 22.579 52.9862C22.241 52.4723 22.0606 51.8681 22.0606 51.25C22.0606 50.4212 22.3847 49.6264 22.9616 49.0403C23.5385 48.4543 24.3209 48.125 25.1368 48.125ZM18.9844 61.25C18.9844 60.2555 19.3733 59.3016 20.0656 58.5984C20.7579 57.8951 21.6968 57.5 22.6758 57.5H27.5977C28.5767 57.5 29.5156 57.8951 30.2079 58.5984C30.9002 59.3016 31.2891 60.2555 31.2891 61.25V70H18.9844V61.25Z" fill="#603C93"/>
</svg>
