<svg width="950" height="1101" viewBox="0 0 950 1101" fill="none" xmlns="http://www.w3.org/2000/svg">
<path d="M441.5 0H950V1101H441.5V0Z" fill="#B68B60"/>
<g filter="url(#filter0_d_563_22682)">
<path d="M606.136 204.887H283.983L122.906 483.878L283.983 762.869H606.136L767.21 483.878L606.136 204.887Z" fill="#323657"/>
<path d="M746.44 637.628H607.286L537.711 758.135L607.286 878.645H746.44L816.016 758.135L746.44 637.628Z" fill="#323657"/>
<path opacity="0.77" d="M606.227 207H284.077L123 485.994L284.077 764.985H606.227L767.304 485.994L606.227 207Z" fill="#603C94"/>
<path opacity="0.77" d="M746.526 637.741H607.372L537.797 758.251L607.372 878.758H746.526L816.102 758.251L746.526 637.741Z" fill="#603C94"/>
<path fill-rule="evenodd" clip-rule="evenodd" d="M688.744 705.601C688.744 696.8 681.611 689.668 672.81 689.668C664.009 689.668 656.876 696.8 656.876 705.601C656.876 714.403 664.006 721.535 672.81 721.535C681.614 721.535 688.744 714.399 688.744 705.601ZM689.207 772.368V840.299H674.059V783.858H671.562V840.299H656.419V745.751H653.916V772.365H640.016V733.526C640.016 726.869 648.916 722.23 661.395 720.503C664.717 722.546 668.629 723.72 672.81 723.72C676.991 723.72 680.907 722.546 684.226 720.503C696.711 722.23 705.605 726.869 705.605 733.526V772.365H691.711V745.751H689.207V772.365V772.368Z" fill="white"/>
<path fill-rule="evenodd" clip-rule="evenodd" d="M352.145 285.704C346.626 280.741 341.1 277.71 335.782 276.239C328.754 274.298 322.166 275.061 316.421 277.737C310.837 280.342 306.102 284.771 302.601 290.269C299.322 295.417 297.125 301.517 296.34 307.911H304.885L305.651 308.764L308.825 312.303L315.512 300.355L318.17 295.606L320.086 300.711L325.636 315.52L331.489 303.198L333.625 298.699L335.995 303.069L340.538 311.44L343.501 308.619L344.24 307.911H352.142V300.145L355.826 296.239C361.2 290.544 366.398 287.308 371.197 285.982C375.709 284.734 379.924 285.216 383.589 286.925C387.412 288.705 390.697 291.808 393.169 295.689C396.306 300.612 398.126 306.768 398.126 313.14C398.126 332.968 378.75 343.58 356.941 355.524C355.328 356.408 353.696 357.301 352.142 358.16V312.979H346.249L341.635 317.374L339.246 319.648L337.67 316.75L333.925 309.849L327.651 323.063L325.089 328.456L322.994 322.865L317.265 307.584L311.514 317.856L309.789 320.94L307.425 318.301L302.647 312.979H296.016V313.143C296.016 338.938 317.889 350.919 342.506 364.402C344.784 365.648 347.089 366.909 349.685 368.358L352.142 369.73L354.599 368.358C357.192 366.909 359.494 365.648 361.775 364.402C386.392 350.919 408.268 338.938 408.268 313.143C408.268 304.873 405.849 296.802 401.683 290.265C398.182 284.768 393.45 280.339 387.863 277.734C382.121 275.058 375.53 274.295 368.502 276.235C363.184 277.706 357.661 280.741 352.142 285.701L352.145 285.704Z" fill="white"/>
<path fill-rule="evenodd" clip-rule="evenodd" d="M309.225 425.819H216.797V482.721H309.225V425.819ZM296.876 433.894C300.702 433.894 303.808 437 303.808 440.829C303.808 444.658 300.702 447.764 296.876 447.764C296.305 447.764 295.748 447.696 295.22 447.566L290.399 456.281C290.996 457.05 291.351 458.021 291.351 459.068C291.351 461.587 289.314 463.626 286.793 463.626C284.722 463.626 282.97 462.248 282.417 460.354L251.841 456.58C251.053 457.922 249.588 458.83 247.917 458.83C247.237 458.83 246.6 458.682 246.019 458.416L232.072 471.037C232.23 471.5 232.313 471.995 232.313 472.508C232.313 475.027 230.277 477.066 227.749 477.066C225.221 477.066 223.194 475.023 223.194 472.508C223.194 469.992 225.237 467.95 227.749 467.95C228.429 467.95 229.066 468.098 229.647 468.361L243.593 455.74C243.436 455.279 243.352 454.788 243.352 454.269C243.352 451.75 245.395 449.711 247.917 449.711C249.987 449.711 251.733 451.095 252.289 452.983L282.865 456.76C283.659 455.415 285.121 454.513 286.793 454.513C286.941 454.513 287.086 454.522 287.235 454.535L292.046 445.817C290.745 444.553 289.936 442.788 289.936 440.832C289.936 437.003 293.041 433.897 296.876 433.897V433.894ZM313.753 425.819V482.721H315.276C317.677 482.721 319.649 484.693 319.649 487.097C319.649 489.505 317.677 491.47 315.276 491.47H210.74C208.339 491.47 206.367 489.505 206.367 487.097C206.367 484.69 208.339 482.721 210.74 482.721H212.264V425.819H210.74C208.339 425.819 206.367 423.848 206.367 421.447C206.367 419.036 208.339 417.071 210.74 417.071H315.276C317.677 417.071 319.649 419.036 319.649 421.447C319.649 423.848 317.677 425.819 315.276 425.819H313.753Z" fill="white"/>
<path fill-rule="evenodd" clip-rule="evenodd" d="M310.137 556.728H264.002C261.023 556.728 258.313 557.949 256.347 559.911C254.382 561.874 253.164 564.587 253.164 567.566V613.701C253.164 616.68 254.385 619.391 256.347 621.353C258.313 623.322 261.02 624.536 264.002 624.536H310.137C313.116 624.536 315.827 623.315 317.792 621.353C319.757 619.388 320.978 616.68 320.978 613.701V567.566C320.978 564.587 319.757 561.877 317.792 559.911C315.827 557.946 313.116 556.728 310.137 556.728ZM264.002 554.095H310.137C313.843 554.095 317.211 555.61 319.652 558.054C322.094 560.492 323.608 563.861 323.608 567.566V613.701C323.608 617.407 322.094 620.775 319.652 623.213C317.211 625.652 313.843 627.169 310.137 627.169H264.002C260.297 627.169 256.928 625.655 254.49 623.213C252.046 620.772 250.531 617.404 250.531 613.701V567.566C250.531 563.861 252.046 560.492 254.49 558.054C256.928 555.613 260.297 554.095 264.002 554.095ZM270.668 611.164V570.106H278.981V586.278H295.155V570.106H303.468V611.164H295.155V593.216H278.981V611.164H270.668ZM264.901 560.254H309.238C313.756 560.254 317.452 563.95 317.452 568.465V612.805C317.452 617.32 313.756 621.019 309.238 621.019H264.901C260.38 621.019 256.687 617.323 256.687 612.805V568.465C256.687 563.95 260.383 560.254 264.901 560.254Z" fill="white"/>
</g>
<g filter="url(#filter1_d_563_22682)">
<g opacity="0.85">
<path d="M480.979 996.351C575.667 996.351 652.427 976.566 652.427 952.16C652.427 927.753 575.667 907.968 480.979 907.968C386.291 907.968 309.531 927.753 309.531 952.16C309.531 976.566 386.291 996.351 480.979 996.351Z" fill="#6A93FF"/>
</g>
<g opacity="0.85">
<path d="M480.974 1010.03C604.965 1010.03 705.48 984.118 705.48 952.16C705.48 920.201 604.965 894.293 480.974 894.293C356.983 894.293 256.469 920.201 256.469 952.16C256.469 984.118 356.983 1010.03 480.974 1010.03Z" fill="#6A93FF"/>
</g>
<path d="M573.691 962.926H537.266C532.902 962.926 529.336 959.357 529.336 954.997V954.481C529.546 953.124 530.084 950.945 531.666 948.878C533.119 946.98 535.152 945.565 538.786 944.344C541.805 943.328 544.982 942.762 554.219 942.768C563.475 942.778 567.514 943.352 571.228 944.344C571.228 944.344 576.442 945.735 579.294 948.878C579.807 949.443 580.947 950.692 581.414 952.666C581.553 953.251 581.624 953.856 581.624 954.481V954.997C581.624 959.36 578.055 962.926 573.694 962.926H573.691Z" fill="#E6FCFB"/>
<path d="M573.689 964.382H537.263C532.087 964.382 527.875 960.17 527.875 954.994L527.894 954.255C528.261 951.885 529.139 949.777 530.505 947.991C532.239 945.726 534.575 944.221 538.317 942.96C541.565 941.866 544.897 941.31 554.01 941.31H554.22C563.701 941.319 567.774 941.912 571.603 942.932C571.832 942.994 577.268 944.474 580.37 947.895C580.945 948.529 582.277 949.997 582.827 952.327C582.994 953.028 583.077 953.751 583.077 954.474V954.99C583.077 960.167 578.865 964.379 573.689 964.379V964.382ZM530.786 954.592V954.994C530.786 958.563 533.691 961.468 537.26 961.468H573.686C577.255 961.468 580.16 958.563 580.16 954.994V954.477C580.16 953.98 580.101 953.479 579.987 953C579.61 951.403 578.667 950.364 578.213 949.864C575.685 947.076 570.889 945.763 570.843 945.75C567.246 944.789 563.37 944.233 554.208 944.224H553.997C545.292 944.224 542.186 944.731 539.238 945.723C536.086 946.783 534.164 947.991 532.81 949.762C531.763 951.131 531.08 952.756 530.78 954.592H530.786Z" fill="#E6FCFB"/>
<g filter="url(#filter2_d_563_22682)">
<path d="M534.046 922.681C542.868 922.317 551.694 921.955 560.517 921.59C567.131 931.041 573.747 940.488 580.363 949.938C563.775 949.836 547.186 949.734 530.594 949.629C531.743 940.645 532.896 931.665 534.046 922.681Z" fill="url(#paint0_linear_563_22682)"/>
</g>
<path d="M416.768 938.028C414.216 937.441 411.663 936.856 409.11 936.269C408.208 935.475 407.287 934.681 406.348 933.884C403.557 931.519 400.791 929.304 398.062 927.23C401.604 922.839 405.34 917.703 408.984 911.788C413.446 904.553 416.83 897.684 419.414 891.593C419.58 891.067 420.294 888.777 422.668 887.51C424.281 886.648 426.296 886.354 428.32 886.833L428.793 886.945C432.841 887.906 435.458 891.623 434.606 895.202C434.643 905.416 434.68 915.632 434.717 925.846C432.105 928.825 428.144 932.555 422.538 935.512C420.511 936.584 418.561 937.397 416.762 938.021L416.768 938.028Z" fill="url(#paint1_radial_563_22682)"/>
<path d="M537.719 925.107C537.864 920.836 538.052 916.504 538.284 912.115C538.624 905.647 539.048 899.312 539.539 893.119C539.557 892.569 539.635 890.171 541.582 888.314C542.907 887.05 544.768 886.228 546.847 886.15L547.333 886.132C551.492 885.977 555.006 888.858 555.145 892.535C556.851 898.713 558.384 906.052 559.184 914.377C559.694 919.677 559.833 924.6 559.75 929.066C557.212 933.133 552.549 935.348 547.886 934.715C542.873 934.032 538.769 930.175 537.719 925.11V925.107Z" fill="url(#paint2_radial_563_22682)"/>
<path d="M425.781 727.339C423.099 728.133 421.977 731.77 420.991 735.383C416.569 751.607 415.988 761.234 415.988 761.234C415.586 767.856 414.91 777.801 413.729 790.61C412.094 809.844 410.061 825.531 408.457 836.557C405.784 854.929 403.411 866.493 401.677 886.271C400.71 897.337 400.333 906.485 400.172 912.635C403.661 915.067 410.611 919.217 420.364 920.611C428.64 921.794 435.414 920.487 439.342 919.415C443.285 894.049 447.302 868.687 451.394 843.337C457.031 808.41 462.806 773.511 468.718 738.634C463.103 735.022 457.491 731.406 451.876 727.793C450.448 727.942 448.548 728.241 446.403 728.884C442.145 730.164 441.73 731.554 439.475 732.055C433.736 733.328 430.046 726.075 425.781 727.336V727.339Z" fill="#73459E"/>
<g filter="url(#filter3_d_563_22682)">
<path d="M531.048 914.52C542.534 914.708 554.021 914.897 565.508 915.085C565.424 906.59 565.264 894.306 564.942 879.497C564.222 846.295 563.722 848.223 563.558 832.555C563.345 811.973 563.413 758.579 552.454 743.424C551.793 742.509 551.194 741.777 550.687 741.174C544.219 733.501 536.99 728.343 532.046 725.253L528.511 725.856C519.595 727.37 513.393 737.015 514.728 747.29C518.473 786.84 522.219 826.39 525.964 865.94C529.416 875.118 531.616 911.034 531.048 914.523V914.52Z" fill="#6B4199"/>
</g>
<path d="M427.287 758.224C431.113 766.694 436.604 778.845 444.611 779.315C457.649 780.078 469.575 749.456 480.768 719.808C489.977 695.419 495.555 674.785 498.846 661.055C502.864 642.222 506.881 623.393 510.899 604.561C510.444 595.951 509.159 585.299 506.034 573.413C502.759 560.956 498.386 550.644 494.356 542.708L491.674 539.757C487.922 536.255 484.408 534.809 481.454 534.277C465.31 531.373 444.639 552 430.3 585.728C430.331 604.381 429.379 621.057 428.041 635.442C425.464 663.128 421.851 678.089 420.51 710.015C419.771 727.568 420.059 742.216 427.29 758.224H427.287Z" fill="#73459E"/>
<g filter="url(#filter4_d_563_22682)">
<path d="M506.081 747.574C498.606 697.514 494.922 656.648 492.972 627.222C491.6 606.557 490.364 580.651 500.537 565.629C504.063 560.425 510.021 554.958 515.918 551.398C519.672 549.133 525.754 544.951 533.854 545.885C537.269 546.28 545.486 547.723 553.335 554.405C563.311 562.9 565.937 574.112 566.583 577.35C563.555 634.704 560.526 692.057 557.495 749.407C557.439 763.502 546.475 774.741 533.127 774.386C530.488 774.086 522.923 772.865 516.016 766.404C508.297 759.175 506.507 750.176 506.081 747.571V747.574Z" fill="#6B4199"/>
</g>
<g filter="url(#filter5_d_563_22682)">
<path d="M438.387 932.555C437.636 927.521 437.052 927.159 436.913 923.444C436.82 920.997 436.996 919.121 436.323 918.889C435.535 918.62 434.734 921 432.197 923.142C429.478 925.432 426.496 925.991 425.417 926.179C422.902 926.618 420.89 926.167 416.869 925.268C412.317 924.251 411.115 923.237 410.679 922.839C409.048 921.346 408.346 919.476 408.025 918.284L399.477 921.015L382.381 927.088L363.221 931.34L354.673 932.555C353.413 932.963 351.478 933.544 349.074 934.072C344.448 935.092 342.708 934.906 340.526 936.198C340.075 936.467 335.863 938.797 336.104 941.359C336.323 943.692 340.124 945.061 341.703 945.611C352.773 949.462 372.291 946.563 383.855 945.611C408.071 943.618 420.176 942.62 429.252 945.308C430.905 945.797 436.119 947.45 438.39 945.006C439.988 943.284 439.456 939.709 438.39 932.558L438.387 932.555Z" fill="url(#paint3_linear_563_22682)"/>
</g>
<path d="M440.741 950.166H336.094V942.879H440.741V950.166Z" fill="#E6FCFB"/>
<path d="M442.199 951.622H334.641V941.424H442.199V951.622ZM337.552 948.711H439.285V944.335H337.552V948.711Z" fill="#E6FCFB"/>
<path d="M389.476 633.375C385.712 632.129 381.948 630.887 378.184 629.642C371.701 628.659 378.222 549.893 378.222 549.893C378.83 548.283 380.088 545.783 382.653 544.021C387.211 540.891 394.001 541.388 399.69 545.341C400.299 558.858 400.033 574.921 397.752 592.823C395.799 608.176 392.758 621.783 389.476 633.375Z" fill="url(#paint4_radial_563_22682)"/>
<path d="M372.01 622.719C369.797 623.89 368.03 623.127 365.523 623.424C362.458 623.788 361.253 625.757 357.532 629.237C348.975 637.234 343.74 637.658 343.829 641.867C343.86 643.378 344.574 645.133 345.857 645.863C345.857 645.863 347.609 646.709 356.568 639.908C358.626 638.347 360.57 637.129 360.681 637.275C360.77 637.389 359.136 638.415 357.634 640.6C355.724 643.381 353.493 645.513 354.061 647.355C354.55 648.934 356.391 648.511 359.692 650.764C363.332 653.251 362.677 654.852 365.353 656.042C368.787 657.569 370.323 655.13 374.151 656.638C377.393 657.912 378.428 660.498 380.094 659.991C381.148 659.67 381.324 658.338 382.103 656.768C382.406 656.156 388.988 644.558 389.282 643.495C389.523 642.615 390.076 640.612 389.801 638.066C389.563 635.868 389.523 635.077 389.483 633.378C389.442 631.709 389.634 629.326 390.706 626.387C385.647 623.683 380.589 620.982 375.53 618.278C374.97 619.768 373.957 621.693 372.016 622.719H372.01Z" fill="url(#paint5_radial_563_22682)"/>
<path d="M358.282 645.436L357.908 645.241C356.644 644.58 355.133 645.068 354.542 646.323L344.774 667.211C344.187 668.468 344.74 670.035 346.001 670.699L346.375 670.894C347.639 671.556 349.15 671.067 349.74 669.813L359.508 648.925C360.096 647.667 359.542 646.101 358.282 645.436Z" fill="url(#paint6_radial_563_22682)"/>
<path d="M364.901 648.953L364.79 648.894C363.468 648.202 361.885 648.712 361.27 650.025L350.34 673.4C349.725 674.714 350.303 676.358 351.625 677.05L351.737 677.109C353.059 677.801 354.642 677.291 355.257 675.978L366.187 652.602C366.802 651.289 366.224 649.645 364.901 648.953Z" fill="url(#paint7_radial_563_22682)"/>
<path d="M372.065 650.341L371.954 650.282C370.632 649.59 369.049 650.099 368.434 651.413L357.504 674.788C356.889 676.101 357.467 677.745 358.789 678.438L358.901 678.496C360.223 679.189 361.806 678.679 362.421 677.365L373.351 653.99C373.966 652.677 373.388 651.033 372.065 650.341Z" fill="url(#paint8_radial_563_22682)"/>
<path d="M383.206 648.304L383.098 648.242C381.797 647.51 380.196 647.967 379.538 649.259L367.875 672.235C367.22 673.527 367.748 675.187 369.049 675.919L369.158 675.981C370.459 676.713 372.059 676.256 372.718 674.964L384.381 651.987C385.036 650.696 384.507 649.036 383.206 648.304Z" fill="url(#paint9_radial_563_22682)"/>
<path d="M358.925 637.701L366.057 635.624C366.777 635.504 367.065 635.646 367.439 635.912C368.455 636.635 378.586 641.107 385.208 633.242C385.208 633.242 386.058 632.336 386.565 632.602C387.238 632.957 386.815 633.823 386.815 633.823C386.815 633.823 380.668 643.087 367.47 637.642C367.015 637.454 366.728 637.281 366.438 637.361L364.614 637.673C364.614 637.673 363.811 635.986 358.922 637.704L358.925 637.701Z" fill="url(#paint10_radial_563_22682)"/>
<path d="M364.39 640.745C365.607 641.335 370.697 643.804 370.697 643.804C372.391 644.626 374.161 645.288 375.985 645.782C375.985 645.782 382.715 647.738 383.649 647.859C384.582 647.979 384.743 649.871 382.827 649.342C380.911 648.814 375.518 647.33 375.518 647.33C373.389 646.743 371.321 645.961 369.347 644.997C369.347 644.997 365.193 642.992 363.664 642.219C362.134 641.446 363.172 640.155 364.39 640.745Z" fill="url(#paint11_radial_563_22682)"/>
<path d="M369.658 616.653C372.829 622.348 389.986 623.699 397.15 614.363C401.068 609.258 402.32 600.534 397.913 595.271C394.489 591.176 389.01 590.808 387.22 590.688C385.857 590.595 379.408 590.163 375.001 594.508C372.557 596.918 371.843 600.441 370.418 607.49C369.377 612.645 368.855 615.219 369.655 616.653H369.658Z" fill="black"/>
<path d="M439.142 382.206C434.741 384.409 427.918 387.095 422.34 392.898C411.274 404.413 406.246 416.372 405.538 418.1C395.25 443.224 390.541 465.969 384.919 490.648C377.496 523.233 377.802 518.254 374.993 532.652C369.492 560.839 367.437 584.418 366.594 600.62C369.69 601.238 373.003 601.767 376.52 602.147C385.707 603.145 393.971 602.898 400.958 602.147C410.946 548.632 424.537 491.551 442.962 431.846C449.105 411.932 455.515 392.614 462.119 373.902C456.269 375.271 448.157 377.694 439.142 382.206Z" fill="#DCFBFF"/>
<path d="M524.111 339.247C513.61 348.602 503.109 357.956 492.608 367.314C489.555 367.885 486.499 368.46 483.446 369.032C483.242 365.691 482.621 361.275 480.918 356.352C478.585 349.612 475.188 344.711 472.676 341.648C457.107 429.753 441.538 517.855 425.969 605.96C457.23 603.701 488.495 601.439 519.757 599.18C531.723 535.272 537.739 460.743 529.266 378.769C527.866 365.237 526.129 352.06 524.111 339.25V339.247Z" fill="black"/>
<g filter="url(#filter6_d_563_22682)">
<path d="M482.678 371.13C480.258 373.42 477.842 375.713 475.422 378.003L479.05 386.023L488.024 387.932L496.044 379.533L492.99 371.133H482.681L482.678 371.13Z" fill="url(#paint12_linear_563_22682)"/>
</g>
<g filter="url(#filter7_d_563_22682)">
<path d="M479.052 386.023C473.505 401.514 468.217 419.132 463.968 438.716C457.042 470.645 454.691 499.468 454.422 523.483C456.585 528.066 458.748 532.646 460.915 537.229C465.368 533.792 469.824 530.356 474.28 526.919C481.604 494.36 486.988 457.347 488.026 416.567C488.276 406.765 488.261 397.213 488.026 387.929C485.035 387.293 482.043 386.656 479.052 386.019V386.023Z" fill="url(#paint13_linear_563_22682)"/>
</g>
<path d="M470.847 353.568C462.547 389.468 458.368 419.144 456.085 439.649C451.761 478.488 453.665 497.2 450.145 540.174C448.309 562.575 444.963 593.077 438.328 629.36C434.208 621.56 430.089 613.76 425.97 605.96C428.785 580.907 430.729 553.199 431.056 523.211C431.371 494.388 430.148 467.659 428.043 443.366C412.842 412.525 419.242 398.01 422.351 392.898C424.86 388.773 427.746 386.64 446.122 372.561C457.482 363.856 466.341 357.038 470.847 353.568Z" fill="white"/>
<path d="M525.811 350.623C519.571 359.492 511.246 372.462 503.301 389.079C503.301 389.079 489.626 412.701 484.209 443.301C472.088 511.733 471.158 615.367 471.062 629.901C503.675 618.692 536.29 607.484 568.902 596.275C566.915 559.494 568.497 530.532 570.388 510.528C571.479 498.98 571.044 476.85 571.915 447.884C572.212 438.045 572.484 429.942 572.669 424.534C571.297 418.638 569.495 407.086 573.423 393.649C575.639 386.075 578.989 380.25 581.764 376.263C563.114 367.715 544.464 359.171 525.817 350.623H525.811Z" fill="white"/>
<path d="M549.882 362.347C551.122 361.899 554.484 363.38 561.199 366.269C566.712 368.642 569.932 370.03 574.361 372.403C581.734 376.356 585.579 378.025 587.282 379.474C590.393 382.128 592.563 385.753 596.769 392.895C599.457 397.46 602.186 402.092 605.054 408.714C609.04 417.914 608.71 420.371 611.834 428.298C613.648 432.902 616.602 437.958 622.434 447.881C633.42 466.575 638.522 474.495 639.06 485.555C639.137 487.15 638.955 488.809 638.47 490.648C635.45 502.107 624.409 507.629 623.197 508.214C615.496 511.922 603.756 513.279 596.469 507.45C589.942 502.231 592.708 495.914 588.07 473.849C583.947 454.244 580.999 440.208 569.96 432.309C566.181 429.605 562.849 428.619 558.353 423.78C552.871 417.877 550.361 411.304 548.56 406.455C545.813 399.06 544.997 393.019 544.793 391.39C543.742 382.963 543.183 364.767 549.882 362.35V362.347Z" fill="white"/>
<path d="M467.42 359.742C455.954 439.123 449.474 507.321 445.654 561.355C445.654 561.355 437.879 671.367 439.897 760.517C439.909 761.082 439.922 761.654 439.922 761.654C439.922 761.666 439.925 761.808 439.925 761.821C428.089 759.531 416.25 757.238 404.414 754.948C412.594 601.696 418.07 493.352 418.16 473.151C418.172 470.657 418.135 461.744 420.45 450.239C422.681 439.16 426.198 430.121 430.759 420.455C442.984 394.552 459.756 370.392 467.416 359.742H467.42Z" fill="white"/>
<path d="M535.008 355.543C524.959 363.485 511.21 376.303 499.881 395.253C490.551 410.856 484.389 428.072 480.789 449.476C473.801 491.01 466.644 606.628 464.734 761.734C503.904 757.466 543.074 753.199 582.241 748.928C584.018 691.97 583.301 629.53 578.538 562.498C574.892 511.146 569.286 462.928 562.5 418.162C562.166 407.333 559.857 387.345 546.461 368.522C542.749 363.305 538.788 359.025 535.005 355.539L535.008 355.543Z" fill="white"/>
<g filter="url(#filter8_d_563_22682)">
<path d="M508.469 578.154L555.021 463.985L612.903 449.093L566.316 564.216L508.469 578.154Z" fill="url(#paint14_linear_563_22682)"/>
</g>
<path d="M638.548 482.317C641.944 483.034 641.478 498.563 640.764 506.684C640.208 512.994 639.886 516.131 638.474 519.666C635.761 526.456 630.736 530.495 621.672 536.468C609.957 544.188 589.115 557.925 585.781 554.034C584.563 552.615 586.921 550.301 588.071 542.578C588.958 536.62 588.534 531.407 588.071 528.832C585.911 516.805 573.41 509.45 569.742 507.45C577.378 505.16 585.015 502.867 592.654 500.578C603.566 488.497 610.862 486.801 615.565 487.595C620.844 488.488 624.274 492.19 629.311 490.651C635.217 488.844 636.243 481.835 638.551 482.32L638.548 482.317Z" fill="#DCFBFF"/>
<path d="M556.76 540.285C557.122 538.011 566.847 540.73 571.269 535.702C577.969 528.088 565.277 510.896 569.742 507.447C573.262 504.728 585.203 512.274 591.124 521.956C594.613 527.661 594.898 532.281 594.944 533.412C595.027 535.412 595.346 543.171 590.361 547.158C585.865 550.758 579.628 549.219 571.269 547.158C565.014 545.616 556.417 542.439 556.76 540.285Z" fill="black"/>
<path d="M549.883 542.578C547.865 543.02 537.472 545.288 528.501 539.522C526.786 538.418 519.255 533.582 518.572 525.776C518.328 522.998 520.698 518.538 525.445 509.737C530.164 500.988 531.74 499.428 533.844 499.045C537.373 498.405 542.479 501.056 542.97 501.316C542.985 501.322 542.998 501.331 543.007 501.338C546.023 502.96 546.932 504.02 547.207 503.819C547.701 503.458 544.459 500.194 545.108 496.563C545.362 495.145 546.252 493.43 547.782 492.743C550.149 491.683 552.952 493.569 554.846 494.845C558.829 497.524 561.002 501.121 562.482 503.628C564.939 507.79 564.525 508.807 566.682 511.072C569.105 513.615 570.288 513.031 572.983 515.272C578.125 519.552 579.077 526.082 579.284 527.491C579.698 530.322 580.214 533.854 578.138 537.037C575.851 540.545 571.796 541.503 570.502 541.808C564.676 543.187 562.216 540.069 554.846 541.237C552.38 541.626 552.513 542 549.883 542.572V542.578Z" fill="url(#paint15_radial_563_22682)"/>
<path d="M454.126 381.004L451.969 380.231C455.356 370.769 462.293 357.564 476.092 348.382L477.362 350.289C464.086 359.121 457.398 371.866 454.126 381.001V381.004Z" fill="#000202"/>
<path d="M524.777 432.183L522.608 431.444C531.27 405.995 533.952 382.153 530.578 360.586C529.459 353.423 527.796 347.879 523.331 344.099C511.575 334.148 488.892 342.613 477.356 350.289L476.086 348.382C488.175 340.338 512.094 331.59 524.808 342.353C529.811 346.59 531.638 352.564 532.837 360.234C536.267 382.172 533.553 406.378 524.771 432.183H524.777Z" fill="#000202"/>
<path d="M447.223 442.677L445.894 440.811C448.459 438.984 450.539 436.784 452.072 434.275C453.963 431.178 454.315 428.731 455.091 423.363C455.273 422.093 455.48 420.668 455.734 419.04C456.556 413.786 457.177 410.937 457.631 408.857C458.181 406.332 458.515 404.809 458.778 401.187C459.423 392.352 458.308 388.927 457.007 386.545C456.129 384.941 454.497 381.956 451.676 381.39C448.61 380.775 445.644 383.387 443.876 384.944C440.267 388.124 438.551 391.814 436.156 397.512C432.321 406.635 430.396 411.215 429.336 415.303C427.312 423.116 426.425 431.228 426.7 439.414L424.41 439.491C424.126 431.086 425.037 422.754 427.12 414.729C428.22 410.479 430.167 405.85 434.046 396.625C436.567 390.627 438.385 386.73 442.362 383.226C444.312 381.508 447.943 378.306 452.127 379.144C455.996 379.919 458.036 383.649 459.016 385.442C460.486 388.133 461.754 391.922 461.064 401.351C460.789 405.136 460.422 406.808 459.868 409.342C459.396 411.508 458.808 414.203 457.999 419.392C457.745 421.008 457.541 422.427 457.359 423.687C456.562 429.204 456.163 431.969 454.025 435.468C452.328 438.243 450.038 440.669 447.22 442.677H447.223Z" fill="#000202"/>
<path d="M520.897 457.399C513.526 457.399 507.531 451.404 507.531 444.034C507.531 436.663 513.526 430.668 520.897 430.668C528.267 430.668 534.263 436.663 534.263 444.034C534.263 451.404 528.267 457.399 520.897 457.399ZM520.897 432.961C514.79 432.961 509.824 437.927 509.824 444.034C509.824 450.14 514.79 455.106 520.897 455.106C527.003 455.106 531.97 450.14 531.97 444.034C531.97 437.927 527.003 432.961 520.897 432.961Z" fill="#000202"/>
<path d="M429.95 440.118C429.95 441.806 428.581 443.172 426.897 443.172C425.213 443.172 423.844 441.803 423.844 440.118C423.844 438.434 425.213 437.065 426.897 437.065C428.581 437.065 429.95 438.434 429.95 440.118Z" fill="#000202"/>
<path d="M447.419 441.744C447.419 443.431 446.05 444.8 444.366 444.8C442.682 444.8 441.312 443.431 441.312 441.744C441.312 440.057 442.682 438.691 444.366 438.691C446.05 438.691 447.419 440.06 447.419 441.744Z" fill="#000202"/>
<path d="M489.187 373.488C486.131 374.06 483.077 374.635 480.024 375.206C479.935 371.779 479.329 366.331 476.492 360.438C475.009 357.354 473.278 354.912 471.742 353.07C471.813 344.819 471.881 336.568 471.952 328.317C471.952 319.819 478.906 312.865 487.404 312.865H496.947C505.445 312.865 512.398 319.819 512.398 328.317V349.523C512.84 350.224 513.285 350.923 513.727 351.624C505.547 358.911 497.367 366.198 489.187 373.485V373.488Z" fill="url(#paint16_radial_563_22682)"/>
<path d="M490.533 355.824C495.901 355.982 500.067 353.831 502.558 352.545C504.455 351.565 510.043 348.435 515.129 341.068C519.592 334.606 520.2 329.909 523.875 311.552C529.159 285.139 531.295 277.871 526.607 272.197C524.895 270.126 522.552 268.603 519.502 263.998C515.537 258.012 516.291 255.753 514.035 252.521C507.852 243.658 491.34 245.089 481.241 245.963C473.385 246.643 468.567 247.128 464.297 250.883C459.933 254.715 458.824 259.594 457.192 267.28C456.358 271.199 454.133 283.099 456.645 300.075C457.708 307.26 459.139 312.096 461.565 320.298C465.604 333.96 467.733 340.907 473.042 346.534C475.4 349.035 481.562 355.564 490.533 355.827V355.824Z" fill="black"/>
<path d="M519.508 314.831C519.258 315.925 517.33 323.923 511.31 331.775C508.958 334.844 507.651 335.712 506.39 335.601C503.828 335.378 503.627 331.311 499.832 328.496C496.81 326.256 492.644 325.647 489.446 326.311C482.591 327.733 481.562 334.708 476.874 334.51C473.8 334.38 471.68 331.268 468.676 326.858C465.947 322.853 463.574 317.884 462.118 311.555C460.601 304.963 458.574 296.141 463.212 289.691C463.904 288.73 465.644 286.372 468.679 285.318C471.605 284.302 473.985 285.105 477.424 285.865C480.203 286.48 486.343 287.834 492.184 287.506C497.941 287.182 498.442 285.497 506.396 284.774C511.279 284.329 513.757 284.132 515.689 285.321C519.774 287.837 520.17 293.934 520.609 300.625C521.06 307.544 519.975 312.844 519.515 314.837L519.508 314.831Z" fill="url(#paint17_radial_563_22682)"/>
<path d="M498.192 341.068H484.518C483.016 341.068 481.789 339.841 481.789 338.339C481.789 336.837 483.016 335.61 484.518 335.61H498.192C499.694 335.61 500.921 336.837 500.921 338.339C500.921 339.841 499.694 341.068 498.192 341.068Z" fill="url(#paint18_radial_563_22682)"/>
<path d="M462.123 311.7C463.944 316.948 463.919 321.725 462.065 322.368C460.21 323.011 457.231 319.278 455.411 314.027C453.591 308.78 453.616 304.002 455.47 303.36C457.324 302.717 460.303 306.45 462.123 311.7Z" fill="url(#paint19_radial_563_22682)"/>
<path d="M527.375 313.477C526.417 318.95 524.075 323.113 522.14 322.773C520.209 322.436 519.418 317.723 520.376 312.25C521.334 306.777 523.676 302.615 525.611 302.955C527.542 303.292 528.333 308.004 527.375 313.477Z" fill="url(#paint20_radial_563_22682)"/>
<path d="M512.724 314.055H501.509C497.214 314.055 493.719 310.56 493.719 306.264C493.719 301.969 497.214 298.474 501.509 298.474H512.724C517.02 298.474 520.515 301.969 520.515 306.264C520.515 310.56 517.02 314.055 512.724 314.055ZM501.509 300.906C498.555 300.906 496.151 303.31 496.151 306.264C496.151 309.219 498.555 311.623 501.509 311.623H512.724C515.679 311.623 518.083 309.219 518.083 306.264C518.083 303.31 515.679 300.906 512.724 300.906H501.509Z" fill="#1D2453"/>
<path d="M482.107 314.055H470.892C466.597 314.055 463.102 310.56 463.102 306.264C463.102 301.969 466.597 298.474 470.892 298.474H482.107C486.403 298.474 489.898 301.969 489.898 306.264C489.898 310.56 486.403 314.055 482.107 314.055ZM470.892 300.906C467.938 300.906 465.534 303.31 465.534 306.264C465.534 309.219 467.938 311.623 470.892 311.623H482.107C485.061 311.623 487.466 309.219 487.466 306.264C487.466 303.31 485.061 300.906 482.107 300.906H470.892Z" fill="#1D2453"/>
<path d="M487.342 301.048L487.32 303.48L496.143 303.557L496.164 301.125L487.342 301.048Z" fill="#1D2453"/>
</g>
<defs>
<filter id="filter0_d_563_22682" x="102.906" y="188.887" width="733.195" height="713.871" filterUnits="userSpaceOnUse" color-interpolation-filters="sRGB">
<feFlood flood-opacity="0" result="BackgroundImageFix"/>
<feColorMatrix in="SourceAlpha" type="matrix" values="0 0 0 0 0 0 0 0 0 0 0 0 0 0 0 0 0 0 127 0" result="hardAlpha"/>
<feOffset dy="4"/>
<feGaussianBlur stdDeviation="10"/>
<feComposite in2="hardAlpha" operator="out"/>
<feColorMatrix type="matrix" values="0 0 0 0 0 0 0 0 0 0 0 0 0 0 0 0 0 0 0.25 0"/>
<feBlend mode="normal" in2="BackgroundImageFix" result="effect1_dropShadow_563_22682"/>
<feBlend mode="normal" in="SourceGraphic" in2="effect1_dropShadow_563_22682" result="shape"/>
</filter>
<filter id="filter1_d_563_22682" x="236.469" y="229.305" width="489.008" height="804.721" filterUnits="userSpaceOnUse" color-interpolation-filters="sRGB">
<feFlood flood-opacity="0" result="BackgroundImageFix"/>
<feColorMatrix in="SourceAlpha" type="matrix" values="0 0 0 0 0 0 0 0 0 0 0 0 0 0 0 0 0 0 127 0" result="hardAlpha"/>
<feOffset dy="4"/>
<feGaussianBlur stdDeviation="10"/>
<feComposite in2="hardAlpha" operator="out"/>
<feColorMatrix type="matrix" values="0 0 0 0 0 0 0 0 0 0 0 0 0 0 0 0 0 0 0.25 0"/>
<feBlend mode="normal" in2="BackgroundImageFix" result="effect1_dropShadow_563_22682"/>
<feBlend mode="normal" in="SourceGraphic" in2="effect1_dropShadow_563_22682" result="shape"/>
</filter>
<filter id="filter2_d_563_22682" x="526.594" y="917.59" width="61.7734" height="40.3475" filterUnits="userSpaceOnUse" color-interpolation-filters="sRGB">
<feFlood flood-opacity="0" result="BackgroundImageFix"/>
<feColorMatrix in="SourceAlpha" type="matrix" values="0 0 0 0 0 0 0 0 0 0 0 0 0 0 0 0 0 0 127 0" result="hardAlpha"/>
<feOffset dx="2" dy="2"/>
<feGaussianBlur stdDeviation="3"/>
<feColorMatrix type="matrix" values="0 0 0 0 0 0 0 0 0 0 0 0 0 0 0 0 0 0 0.27 0"/>
<feBlend mode="normal" in2="BackgroundImageFix" result="effect1_dropShadow_563_22682"/>
<feBlend mode="normal" in="SourceGraphic" in2="effect1_dropShadow_563_22682" result="shape"/>
</filter>
<filter id="filter3_d_563_22682" x="510.547" y="721.253" width="62.9609" height="201.832" filterUnits="userSpaceOnUse" color-interpolation-filters="sRGB">
<feFlood flood-opacity="0" result="BackgroundImageFix"/>
<feColorMatrix in="SourceAlpha" type="matrix" values="0 0 0 0 0 0 0 0 0 0 0 0 0 0 0 0 0 0 127 0" result="hardAlpha"/>
<feOffset dx="2" dy="2"/>
<feGaussianBlur stdDeviation="3"/>
<feColorMatrix type="matrix" values="0 0 0 0 0 0 0 0 0 0 0 0 0 0 0 0 0 0 0.27 0"/>
<feBlend mode="normal" in2="BackgroundImageFix" result="effect1_dropShadow_563_22682"/>
<feBlend mode="normal" in="SourceGraphic" in2="effect1_dropShadow_563_22682" result="shape"/>
</filter>
<filter id="filter4_d_563_22682" x="488.062" y="541.751" width="86.5234" height="240.643" filterUnits="userSpaceOnUse" color-interpolation-filters="sRGB">
<feFlood flood-opacity="0" result="BackgroundImageFix"/>
<feColorMatrix in="SourceAlpha" type="matrix" values="0 0 0 0 0 0 0 0 0 0 0 0 0 0 0 0 0 0 127 0" result="hardAlpha"/>
<feOffset dx="2" dy="2"/>
<feGaussianBlur stdDeviation="3"/>
<feColorMatrix type="matrix" values="0 0 0 0 0 0 0 0 0 0 0 0 0 0 0 0 0 0 0.27 0"/>
<feBlend mode="normal" in2="BackgroundImageFix" result="effect1_dropShadow_563_22682"/>
<feBlend mode="normal" in="SourceGraphic" in2="effect1_dropShadow_563_22682" result="shape"/>
</filter>
<filter id="filter5_d_563_22682" x="332.094" y="914.284" width="115.305" height="41.2709" filterUnits="userSpaceOnUse" color-interpolation-filters="sRGB">
<feFlood flood-opacity="0" result="BackgroundImageFix"/>
<feColorMatrix in="SourceAlpha" type="matrix" values="0 0 0 0 0 0 0 0 0 0 0 0 0 0 0 0 0 0 127 0" result="hardAlpha"/>
<feOffset dx="2" dy="2"/>
<feGaussianBlur stdDeviation="3"/>
<feColorMatrix type="matrix" values="0 0 0 0 0 0 0 0 0 0 0 0 0 0 0 0 0 0 0.27 0"/>
<feBlend mode="normal" in2="BackgroundImageFix" result="effect1_dropShadow_563_22682"/>
<feBlend mode="normal" in="SourceGraphic" in2="effect1_dropShadow_563_22682" result="shape"/>
</filter>
<filter id="filter6_d_563_22682" x="471.422" y="367.13" width="32.625" height="28.8021" filterUnits="userSpaceOnUse" color-interpolation-filters="sRGB">
<feFlood flood-opacity="0" result="BackgroundImageFix"/>
<feColorMatrix in="SourceAlpha" type="matrix" values="0 0 0 0 0 0 0 0 0 0 0 0 0 0 0 0 0 0 127 0" result="hardAlpha"/>
<feOffset dx="2" dy="2"/>
<feGaussianBlur stdDeviation="3"/>
<feColorMatrix type="matrix" values="0 0 0 0 0 0 0 0 0 0 0 0 0 0 0 0 0 0 0.27 0"/>
<feBlend mode="normal" in2="BackgroundImageFix" result="effect1_dropShadow_563_22682"/>
<feBlend mode="normal" in="SourceGraphic" in2="effect1_dropShadow_563_22682" result="shape"/>
</filter>
<filter id="filter7_d_563_22682" x="450.422" y="382.019" width="45.7891" height="163.209" filterUnits="userSpaceOnUse" color-interpolation-filters="sRGB">
<feFlood flood-opacity="0" result="BackgroundImageFix"/>
<feColorMatrix in="SourceAlpha" type="matrix" values="0 0 0 0 0 0 0 0 0 0 0 0 0 0 0 0 0 0 127 0" result="hardAlpha"/>
<feOffset dx="2" dy="2"/>
<feGaussianBlur stdDeviation="3"/>
<feColorMatrix type="matrix" values="0 0 0 0 0 0 0 0 0 0 0 0 0 0 0 0 0 0 0.27 0"/>
<feBlend mode="normal" in2="BackgroundImageFix" result="effect1_dropShadow_563_22682"/>
<feBlend mode="normal" in="SourceGraphic" in2="effect1_dropShadow_563_22682" result="shape"/>
</filter>
<filter id="filter8_d_563_22682" x="504.469" y="445.093" width="116.438" height="141.061" filterUnits="userSpaceOnUse" color-interpolation-filters="sRGB">
<feFlood flood-opacity="0" result="BackgroundImageFix"/>
<feColorMatrix in="SourceAlpha" type="matrix" values="0 0 0 0 0 0 0 0 0 0 0 0 0 0 0 0 0 0 127 0" result="hardAlpha"/>
<feOffset dx="2" dy="2"/>
<feGaussianBlur stdDeviation="3"/>
<feColorMatrix type="matrix" values="0 0 0 0 0 0 0 0 0 0 0 0 0 0 0 0 0 0 0.27 0"/>
<feBlend mode="normal" in2="BackgroundImageFix" result="effect1_dropShadow_563_22682"/>
<feBlend mode="normal" in="SourceGraphic" in2="effect1_dropShadow_563_22682" result="shape"/>
</filter>
<linearGradient id="paint0_linear_563_22682" x1="553.765" y1="921.745" x2="554.874" y2="949.874" gradientUnits="userSpaceOnUse">
<stop stop-color="#B867C7"/>
<stop offset="1" stop-color="#603C93"/>
</linearGradient>
<radialGradient id="paint1_radial_563_22682" cx="0" cy="0" r="1" gradientUnits="userSpaceOnUse" gradientTransform="translate(411.266 906.87) scale(23.7645 25.1763)">
<stop offset="0.03" stop-color="#FEDFCB"/>
<stop offset="1" stop-color="#F9B69E"/>
</radialGradient>
<radialGradient id="paint2_radial_563_22682" cx="0" cy="0" r="1" gradientUnits="userSpaceOnUse" gradientTransform="translate(545.652 905.317) scale(14.2787 23.8409)">
<stop offset="0.03" stop-color="#FEDFCB"/>
<stop offset="1" stop-color="#F9B69E"/>
</radialGradient>
<linearGradient id="paint3_linear_563_22682" x1="384.19" y1="918.443" x2="384.76" y2="947.522" gradientUnits="userSpaceOnUse">
<stop stop-color="#B867C7"/>
<stop offset="1" stop-color="#603C93"/>
</linearGradient>
<radialGradient id="paint4_radial_563_22682" cx="0" cy="0" r="1" gradientUnits="userSpaceOnUse" gradientTransform="translate(384.183 577.999) scale(15.9655 44.7451)">
<stop offset="0.03" stop-color="#FEDFCB"/>
<stop offset="1" stop-color="#F9B69E"/>
</radialGradient>
<radialGradient id="paint5_radial_563_22682" cx="0" cy="0" r="1" gradientUnits="userSpaceOnUse" gradientTransform="translate(360.691 634.743) scale(30.3517 20.454)">
<stop offset="0.03" stop-color="#FEDFCB"/>
<stop offset="1" stop-color="#F9B69E"/>
</radialGradient>
<radialGradient id="paint6_radial_563_22682" cx="0" cy="0" r="1" gradientUnits="userSpaceOnUse" gradientTransform="translate(350.008 655.289) scale(9.84402 12.8483)">
<stop offset="0.03" stop-color="#FEDFCB"/>
<stop offset="1" stop-color="#F9B69E"/>
</radialGradient>
<radialGradient id="paint7_radial_563_22682" cx="0" cy="0" r="1" gradientUnits="userSpaceOnUse" gradientTransform="translate(355.971 659.948) scale(10.579 14.1163)">
<stop offset="0.03" stop-color="#FEDFCB"/>
<stop offset="1" stop-color="#F9B69E"/>
</radialGradient>
<radialGradient id="paint8_radial_563_22682" cx="0" cy="0" r="1" gradientUnits="userSpaceOnUse" gradientTransform="translate(363.135 661.335) scale(10.579 14.1163)">
<stop offset="0.03" stop-color="#FEDFCB"/>
<stop offset="1" stop-color="#F9B69E"/>
</radialGradient>
<radialGradient id="paint9_radial_563_22682" cx="0" cy="0" r="1" gradientUnits="userSpaceOnUse" gradientTransform="translate(373.734 659.1) scale(11.0509 13.9226)">
<stop offset="0.03" stop-color="#FEDFCB"/>
<stop offset="1" stop-color="#F9B69E"/>
</radialGradient>
<radialGradient id="paint10_radial_563_22682" cx="0" cy="0" r="1" gradientUnits="userSpaceOnUse" gradientTransform="translate(369.003 635.234) scale(18.1447 3.33105)">
<stop offset="0.03" stop-color="#FEDFCB"/>
<stop offset="1" stop-color="#F9B69E"/>
</radialGradient>
<radialGradient id="paint11_radial_563_22682" cx="0" cy="0" r="1" gradientUnits="userSpaceOnUse" gradientTransform="translate(370.604 644.079) scale(13.8701 4.32801)">
<stop offset="0.03" stop-color="#FEDFCB"/>
<stop offset="1" stop-color="#F9B69E"/>
</radialGradient>
<linearGradient id="paint12_linear_563_22682" x1="485.023" y1="371.222" x2="485.962" y2="387.867" gradientUnits="userSpaceOnUse">
<stop stop-color="#B867C7"/>
<stop offset="1" stop-color="#603C93"/>
</linearGradient>
<linearGradient id="paint13_linear_563_22682" x1="470.152" y1="386.845" x2="512.632" y2="523.96" gradientUnits="userSpaceOnUse">
<stop stop-color="#B867C7"/>
<stop offset="1" stop-color="#603C93"/>
</linearGradient>
<linearGradient id="paint14_linear_563_22682" x1="557.09" y1="449.797" x2="567.984" y2="577.13" gradientUnits="userSpaceOnUse">
<stop stop-color="#B867C7"/>
<stop offset="1" stop-color="#603C93"/>
</linearGradient>
<radialGradient id="paint15_radial_563_22682" cx="0" cy="0" r="1" gradientUnits="userSpaceOnUse" gradientTransform="translate(540.536 512.513) scale(39.5637 24.9472)">
<stop offset="0.03" stop-color="#FEDFCB"/>
<stop offset="1" stop-color="#F9B69E"/>
</radialGradient>
<radialGradient id="paint16_radial_563_22682" cx="0" cy="0" r="1" gradientUnits="userSpaceOnUse" gradientTransform="translate(486.845 337.434) scale(27.1836 30.5214)">
<stop offset="0.03" stop-color="#FEDFCB"/>
<stop offset="1" stop-color="#F9B69E"/>
</radialGradient>
<radialGradient id="paint17_radial_563_22682" cx="0" cy="0" r="1" gradientUnits="userSpaceOnUse" gradientTransform="translate(482.061 304.598) scale(39.0887 25.0583)">
<stop offset="0.03" stop-color="#FEDFCB"/>
<stop offset="1" stop-color="#F9B69E"/>
</radialGradient>
<radialGradient id="paint18_radial_563_22682" cx="0" cy="0" r="1" gradientUnits="userSpaceOnUse" gradientTransform="translate(488.671 337.761) scale(12.3873 2.67191)">
<stop offset="0.03" stop-color="#FEDFCB"/>
<stop offset="1" stop-color="#F9B69E"/>
</radialGradient>
<radialGradient id="paint19_radial_563_22682" cx="0" cy="0" r="1" gradientUnits="userSpaceOnUse" gradientTransform="translate(457.447 310.836) scale(6.09233 9.37686)">
<stop offset="0.03" stop-color="#FEDFCB"/>
<stop offset="1" stop-color="#F9B69E"/>
</radialGradient>
<radialGradient id="paint20_radial_563_22682" cx="0" cy="0" r="1" gradientUnits="userSpaceOnUse" gradientTransform="translate(522.779 310.761) scale(5.05897 9.72178)">
<stop offset="0.03" stop-color="#FEDFCB"/>
<stop offset="1" stop-color="#F9B69E"/>
</radialGradient>
</defs>
</svg>
