<svg width="522" height="668" viewBox="0 0 522 668" fill="none" xmlns="http://www.w3.org/2000/svg">
<rect width="522" height="667.81" fill="#F3F3F3"/>
<path style="mix-blend-mode:color-dodge" opacity="0.5" d="M261 667.81C116.854 667.81 0 518.316 0 333.905C0 149.494 116.854 0 261 0C405.146 0 522 149.494 522 333.905C522 518.316 405.146 667.81 261 667.81Z" fill="url(#paint0_radial_563_22683)"/>
<g opacity="0.15">
<path d="M334.76 518.872C334.76 508.993 342.887 506.802 337.962 503.254C337.771 503.115 326.424 497.967 326.197 497.88C320.889 495.845 315.216 494.941 308.342 498.923L179 573.551C164.416 581.969 152.582 604.561 152.582 623.987L164.172 628.301C164.172 638.631 334.76 518.872 334.76 518.872Z" fill="url(#paint1_linear_563_22683)"/>
<path style="mix-blend-mode:screen" opacity="0.6" d="M344.82 523.463C344.82 504.019 332.986 495.08 318.402 503.497L189.06 578.125C174.476 586.543 162.642 609.135 162.642 628.561L344.82 523.446V523.463Z" fill="url(#paint2_radial_563_22683)"/>
<path d="M347.117 524.698C347.117 505.254 335.283 496.315 320.699 504.732L191.357 579.36C176.773 587.778 164.939 610.37 164.939 629.796L347.117 524.681V524.698Z" fill="url(#paint3_linear_563_22683)"/>
<path d="M343.508 526.559C343.508 509.515 333.135 501.689 320.344 509.063L191.681 583.291C178.89 590.665 168.517 610.474 168.517 627.518L343.49 526.559H343.508Z" fill="url(#paint4_linear_563_22683)"/>
<path opacity="0.8" d="M338.359 530.402C338.359 516.141 329.675 509.584 318.972 515.759L193.059 588.404C182.356 594.578 173.672 611.152 173.672 625.414L338.359 530.402Z" fill="url(#paint5_linear_563_22683)"/>
</g>
<g opacity="0.2">
<path opacity="0.09" d="M340.318 472.94L325.264 464.54C324.655 464.192 296.409 448.783 295.87 449.096L286.159 444.348C281.773 441.826 275.351 440.992 269.782 440.992C264.944 440.992 259.775 442.505 256.294 444.505L188.369 483.167L173.89 491.41L91.4848 538.316C88.8221 539.846 86.3682 542.212 85.0804 544.542C84.071 546.386 83.4619 548.386 83.3923 550.473C83.2357 555.916 86.5771 561.082 92.6161 564.56L107.67 572.96C108.279 573.308 136.525 588.717 137.064 588.404L146.775 593.152C151.161 595.674 157.583 596.509 163.152 596.509C167.99 596.509 173.159 594.996 176.639 592.995L244.565 554.334L259.044 546.09L341.449 499.184C344.112 497.654 346.566 495.289 347.853 492.958C348.863 491.115 349.472 489.115 349.542 487.01C349.698 481.566 346.357 476.401 340.318 472.923V472.94Z" fill="black"/>
<path opacity="0.18" d="M338.815 474.123L324.161 466.036C322.943 465.323 296.49 451.427 295.429 452.035L286.013 448.157C282.08 445.879 275.223 445.739 270.211 445.739C265.86 445.739 260.326 447.6 257.211 449.392L191.287 486.958L177.225 494.976L97.2392 540.542C94.8376 541.916 92.1228 544.403 90.9219 546.473C89.8951 548.247 89.199 550.125 89.0772 552.125C88.7639 557.342 91.9313 562.386 97.8658 565.812L112.519 573.899C113.738 574.612 140.191 588.508 141.252 587.9L150.668 591.778C154.601 594.056 161.458 594.196 166.47 594.196C170.821 594.196 176.355 592.335 179.47 590.543L245.394 552.977L259.456 544.959L339.442 499.393C341.843 498.019 344.558 495.532 345.759 493.462C346.786 491.688 347.482 489.81 347.604 487.81C347.917 482.593 344.75 477.549 338.815 474.123Z" fill="black"/>
<path opacity="0.27" d="M337.317 475.323L323.081 467.531C321.236 466.47 296.611 454.07 295.01 454.992L285.873 451.983C282.375 449.966 275.118 450.505 270.662 450.505C266.799 450.505 260.916 452.713 258.149 454.314L194.227 490.784L180.6 498.558L103.033 542.803C100.91 544.038 97.8993 546.612 96.8029 548.42C95.7587 550.125 94.993 551.881 94.8016 553.794C94.3317 558.803 97.325 563.708 103.155 567.064L117.391 574.856C119.236 575.917 143.862 588.317 145.463 587.395L154.599 590.404C158.097 592.422 165.355 591.882 169.81 591.882C173.673 591.882 179.556 589.674 182.323 588.074L246.245 551.603L259.872 543.829L337.439 499.584C339.562 498.349 342.573 495.776 343.669 493.967C344.714 492.262 345.479 490.506 345.671 488.593C346.141 483.584 343.147 478.679 337.317 475.323Z" fill="black"/>
<path opacity="0.36" d="M335.808 476.523L321.973 469.044C319.519 467.636 296.686 456.731 294.563 457.948L285.722 455.809C282.659 454.035 274.984 455.27 271.103 455.27C267.709 455.27 261.496 457.827 259.077 459.218L197.139 494.575L183.93 502.123L108.782 545.029C106.92 546.107 103.648 548.785 102.639 550.351C101.594 551.986 100.724 553.62 100.481 555.429C99.854 560.212 102.691 565.012 108.399 568.299L122.235 575.778C124.689 577.186 147.522 588.091 149.645 586.873L158.486 589.013C161.549 590.787 169.224 589.552 173.105 589.552C176.498 589.552 182.711 586.995 185.13 585.604L247.069 550.246L260.278 542.698L335.426 499.793C337.288 498.715 340.56 496.036 341.569 494.471C342.613 492.836 343.483 491.201 343.727 489.393C344.354 484.61 341.517 479.81 335.808 476.523Z" fill="black"/>
<path opacity="0.45" d="M334.307 477.705L320.872 470.523C317.809 468.749 296.768 459.34 294.123 460.87L285.578 459.601C282.95 458.088 274.875 460.018 271.533 460.018C268.627 460.018 262.066 462.922 259.995 464.122L200.058 498.384L187.284 505.689L114.573 547.255C112.972 548.177 109.404 550.96 108.516 552.281C107.455 553.864 106.498 555.36 106.202 557.081C105.401 561.638 108.081 566.316 113.685 569.551L127.121 576.734C130.184 578.508 151.224 587.917 153.869 586.387L162.414 587.656C165.042 589.169 173.118 587.239 176.459 587.239C179.365 587.239 185.926 584.334 187.997 583.134L247.935 548.873L260.709 541.568L333.42 500.002C335.021 499.08 338.589 496.297 339.476 494.975C340.538 493.393 341.495 491.897 341.791 490.175C342.591 485.619 339.911 480.94 334.307 477.705Z" fill="black"/>
<path opacity="0.55" d="M332.799 478.905L319.781 472.018C316.109 469.896 296.878 461.983 293.694 463.827L285.427 463.409C283.234 462.14 274.759 464.766 271.974 464.766C269.555 464.766 262.646 468.018 260.906 469.009L202.97 502.176L190.614 509.254L120.321 549.499C118.999 550.264 115.118 553.133 114.352 554.212C113.273 555.725 112.246 557.099 111.881 558.716C110.924 563.064 113.43 567.621 118.929 570.786L131.947 577.673C135.619 579.795 154.85 587.708 158.035 585.865L166.301 586.282C168.494 587.552 176.969 584.926 179.754 584.926C182.173 584.926 189.082 581.673 190.822 580.682L248.758 547.516L261.114 540.437L331.407 500.193C332.729 499.428 336.61 496.558 337.376 495.48C338.455 493.967 339.482 492.593 339.847 490.975C340.804 486.627 338.298 482.071 332.799 478.905Z" fill="black"/>
<path opacity="0.64" d="M331.295 480.088L318.677 473.514C314.379 471.044 296.958 464.627 293.251 466.766L285.28 467.218C283.523 466.209 274.629 469.514 272.402 469.514C270.47 469.514 263.213 473.114 261.821 473.914L205.869 505.984L193.948 512.819L126.074 551.725C125.013 552.333 120.819 555.29 120.192 556.142C119.078 557.603 117.982 558.838 117.564 560.368C116.451 564.49 118.783 568.925 124.178 572.038L136.795 578.612C141.094 581.082 158.514 587.5 162.221 585.36L170.192 584.908C171.95 585.917 180.843 582.612 183.07 582.612C185.002 582.612 192.259 579.012 193.652 578.212L249.603 546.142L261.525 539.307L329.398 500.402C330.459 499.793 334.654 496.836 335.28 495.984C336.394 494.523 337.49 493.288 337.908 491.758C339.022 487.636 336.69 483.201 331.295 480.088Z" fill="black"/>
<path opacity="0.73" d="M329.802 481.288L317.585 475.01C312.677 472.175 297.067 467.27 292.82 469.723L285.128 471.044C283.823 470.279 274.512 474.297 272.841 474.297C271.397 474.297 263.791 478.245 262.747 478.836L208.797 509.811L197.293 516.42L131.839 553.986C131.039 554.438 126.41 557.395 126.044 558.09C124.652 559.255 123.729 560.595 123.259 562.038C121.972 565.934 124.147 570.247 129.438 573.308L141.655 579.586C146.563 582.421 162.173 587.326 166.42 584.874L174.112 583.552C175.417 584.317 184.728 580.299 186.399 580.299C187.843 580.299 195.449 576.352 196.493 575.76L250.443 544.786L261.947 538.177L327.401 500.61C328.201 500.158 332.831 497.202 333.213 496.506C334.606 495.341 335.528 494.002 335.998 492.558C337.286 488.662 335.11 484.349 329.82 481.288H329.802Z" fill="black"/>
<path opacity="0.82" d="M328.286 482.488L316.469 476.505C310.952 473.323 297.134 469.897 292.365 472.662L284.969 474.853C284.099 474.349 274.37 479.045 273.256 479.045C272.282 479.045 264.346 483.34 263.65 483.74L211.701 513.619L200.632 519.985L137.597 556.229C137.058 556.542 132.133 559.568 131.872 560.038C130.444 561.116 129.47 562.351 128.93 563.69C127.468 567.377 129.487 571.569 134.673 574.56L146.49 580.543C152.007 583.726 165.825 587.152 170.594 584.387L177.99 582.195C178.861 582.7 188.589 578.004 189.703 578.004C190.677 578.004 198.613 573.708 199.309 573.308L251.258 543.429L262.327 537.064L325.362 500.819C325.901 500.506 330.844 497.48 331.088 497.01C332.515 495.932 333.489 494.697 334.029 493.358C335.491 489.671 333.472 485.48 328.286 482.488Z" fill="black"/>
<path opacity="0.91" d="M326.794 483.671L315.394 478.001C309.268 474.471 297.26 472.54 291.952 475.601L284.852 478.662C284.416 478.401 274.288 483.793 273.731 483.793C273.244 483.793 264.96 488.436 264.612 488.627L214.646 517.393L203.996 523.533L143.38 558.438C143.119 558.595 137.863 561.708 137.741 561.934C136.262 562.908 135.235 564.056 134.643 565.308C133.025 568.769 134.87 572.838 139.951 575.778L151.351 581.447C157.477 584.978 169.485 586.908 174.793 583.847L181.893 580.786C182.328 581.047 192.457 575.656 193.014 575.656C193.501 575.656 201.785 571.012 202.133 570.821L252.098 542.055L262.749 535.916L323.365 501.01C323.626 500.854 328.882 497.741 329.004 497.515C330.483 496.541 331.51 495.393 332.102 494.141C333.72 490.68 331.875 486.61 326.794 483.671Z" fill="black"/>
<path d="M179.006 583.36L252.97 540.681L326.934 498.002C332.782 494.628 332.051 488.749 325.298 484.853L314.299 479.479C307.547 475.584 297.348 475.166 291.518 478.54L217.554 521.22L143.59 563.899C137.742 567.273 138.473 573.151 145.226 577.047L156.225 582.421C162.977 586.317 173.176 586.734 179.006 583.36Z" fill="black"/>
</g>
<path d="M179 573.882L308.342 499.254C322.926 490.836 334.76 468.244 334.76 448.818V104.583C334.76 94.7043 342.887 92.5129 337.962 88.965C337.771 88.8259 326.424 83.6779 326.197 83.5909C320.889 81.5561 315.216 80.6517 308.342 84.6344L179 159.262C164.416 167.68 152.582 190.272 152.582 209.699V553.934C152.582 564.264 155.923 571.621 161.231 574.995C161.544 575.186 175.223 581.691 175.589 581.813C180.305 583.378 172.613 577.569 179 573.882Z" fill="url(#paint6_linear_563_22683)"/>
<path style="mix-blend-mode:color-dodge" d="M180.204 159.645L309.546 85.0171C316.438 81.0344 187.357 162.028 187.357 162.028C172.773 170.445 160.939 193.037 160.939 212.464C160.939 212.464 153.786 564.647 153.786 554.316V210.081C153.786 190.637 165.62 168.063 180.204 159.645Z" fill="url(#paint7_radial_563_22683)"/>
<path style="mix-blend-mode:screen" opacity="0.6" d="M189.045 578.473L318.386 503.845C332.97 495.428 344.805 472.836 344.805 453.409V109.174C344.805 89.7302 332.97 80.7909 318.386 89.2085L189.045 163.837C174.461 172.254 162.626 194.846 162.626 214.273V558.508C162.626 577.952 174.461 586.891 189.045 578.473Z" fill="url(#paint8_radial_563_22683)"/>
<path d="M191.357 579.726L320.699 505.098C335.283 496.68 347.117 474.088 347.117 454.661V110.409C347.117 90.965 335.283 82.0256 320.699 90.4433L191.357 165.071C176.773 173.489 164.939 196.081 164.939 215.507V559.743C164.939 579.186 176.773 588.126 191.357 579.708V579.726Z" fill="url(#paint9_linear_563_22683)"/>
<path d="M343.508 456.94V112.287C343.508 95.2434 333.135 87.4172 320.344 94.7913L191.681 169.019C178.89 176.393 168.517 196.203 168.517 213.247V557.899C168.517 574.943 178.89 582.769 191.681 575.395L320.344 501.167C333.135 493.793 343.508 473.984 343.508 456.94Z" fill="url(#paint10_linear_563_22683)"/>
<path d="M338.359 459.027V116.131C338.359 101.87 329.675 95.313 318.972 101.487L193.059 174.132C182.356 180.307 173.672 196.881 173.672 211.142V554.055C173.672 568.317 182.356 574.873 193.059 568.699L318.972 496.054C329.675 489.88 338.359 473.306 338.359 459.044V459.027Z" fill="url(#paint11_linear_563_22683)"/>
<path d="M317.508 105.278C327.602 99.4523 335.781 104.113 335.781 115.696V462.47C335.781 474.036 327.602 488.141 317.508 493.967L194.518 564.925C184.424 570.752 176.245 566.091 176.245 554.508V207.733C176.245 196.168 184.424 182.063 194.518 176.237L317.508 105.278Z" fill="url(#paint12_linear_563_22683)"/>
<path d="M161.453 295.179V271.944C161.453 268.97 159.643 265.526 157.416 264.239C155.188 262.952 153.378 264.326 153.378 267.283V290.518C153.378 293.492 155.188 296.936 157.416 298.223C159.643 299.51 161.453 298.136 161.453 295.179Z" fill="url(#paint13_linear_563_22683)"/>
<path d="M159.02 297.84C160.168 297.84 160.586 296.414 160.586 295.179V271.944C160.586 269.3 158.933 266.117 156.983 264.987C156.566 264.744 156.166 264.622 155.817 264.622C154.669 264.622 154.251 266.048 154.251 267.283V290.518C154.251 293.162 155.904 296.344 157.854 297.475C158.271 297.718 158.672 297.84 159.02 297.84Z" fill="url(#paint14_linear_563_22683)"/>
<path style="mix-blend-mode:color-dodge" d="M159.385 295.77V272.535C159.385 269.891 157.732 266.709 155.783 265.578C155.417 265.37 155.069 265.265 154.756 265.23C155 264.865 155.348 264.604 155.817 264.604C156.166 264.604 156.566 264.726 156.983 264.97C158.933 266.1 160.586 269.283 160.586 271.926V295.162C160.586 296.396 160.168 297.823 159.02 297.823C158.985 297.823 158.933 297.805 158.88 297.805C159.229 297.266 159.385 296.483 159.385 295.753V295.77Z" fill="url(#paint15_radial_563_22683)"/>
<g style="mix-blend-mode:multiply">
<path d="M194.518 176.237L317.508 105.278C327.602 99.4522 335.781 104.113 335.781 115.679V462.453C335.781 474.019 327.602 488.123 317.508 493.95L194.518 564.908C184.424 570.734 176.245 566.073 176.245 554.49V207.716C176.245 196.15 184.424 182.046 194.518 176.219V176.237ZM177.846 554.49C177.846 558.09 178.699 561.03 180.3 563.03C181.762 564.856 183.85 565.83 186.339 565.83C188.584 565.83 191.142 565.03 193.735 563.534L316.725 492.576C326.366 487.01 334.198 473.514 334.198 462.453V115.679C334.198 108.687 330.943 104.357 325.722 104.357C323.477 104.357 320.919 105.157 318.308 106.652L195.319 177.611C185.677 183.176 177.846 196.672 177.846 207.733V554.49Z" fill="#BCBEC0"/>
</g>
<path style="mix-blend-mode:color-dodge" d="M148.136 240.595C129.627 232.994 122.518 207.631 132.258 183.945C141.998 160.26 164.898 147.221 183.408 154.822C201.917 162.423 209.026 187.786 199.286 211.472C189.546 235.157 166.646 248.196 148.136 240.595Z" fill="url(#paint16_radial_563_22683)"/>
<path style="mix-blend-mode:color-dodge" d="M94.78 440.346C94.78 440.346 94.8151 440.346 94.8326 440.346C95.2704 440.312 95.6206 439.982 95.6556 439.549L111.487 242.414L122.275 349.46C122.31 349.893 122.678 350.223 123.115 350.24C123.518 350.257 123.938 349.963 124.009 349.529L129.087 322.118L132.064 327.735C132.169 327.943 132.362 328.099 132.59 328.169C132.817 328.238 133.062 328.203 133.273 328.082L198.297 290.909L197.421 289.401L133.185 326.123L129.455 319.083C129.28 318.754 128.93 318.581 128.544 318.633C128.177 318.685 127.879 318.962 127.809 319.326L123.396 343.184L112.24 232.618C112.188 232.167 111.837 231.873 111.364 231.838C110.909 231.838 110.541 232.185 110.506 232.636L94.3948 433.342L76.2692 346.616C76.1816 346.2 75.8313 345.871 75.376 345.923C74.9382 345.94 74.588 346.27 74.553 346.686L70.7528 379.073L65.8317 368.844C65.7267 368.619 65.5339 368.462 65.3063 368.393C65.0786 368.324 64.816 368.341 64.6058 368.48L18.9505 394.574L19.8261 396.082L64.6583 370.456L70.4725 382.558C70.6476 382.905 71.033 383.113 71.4007 383.044C71.786 382.975 72.0837 382.68 72.1187 382.281L75.6387 352.234L93.9044 439.636C93.9919 440.034 94.3422 440.329 94.7625 440.329L94.78 440.346Z" fill="url(#paint17_radial_563_22683)"/>
<path style="mix-blend-mode:color-dodge" d="M395.408 363.067C395.408 363.067 395.443 363.067 395.461 363.067C395.899 363.032 396.25 362.701 396.285 362.265L408.312 211.849L416.411 292.521C416.446 292.956 416.814 293.287 417.253 293.305C417.638 293.34 418.077 293.026 418.147 292.59L421.951 271.939L423.967 275.773C424.073 275.982 424.265 276.139 424.493 276.208C424.721 276.278 424.967 276.243 425.177 276.121L475.336 247.331L474.459 245.815L425.09 274.152L422.319 268.889C422.144 268.558 421.794 268.383 421.408 268.436C421.04 268.488 420.742 268.767 420.671 269.133L417.516 286.212L409.065 202.002C409.013 201.549 408.645 201.218 408.189 201.218C407.733 201.218 407.365 201.566 407.33 202.02L395.005 356.044L381.312 290.255C381.225 289.837 380.874 289.593 380.418 289.558C379.98 289.575 379.629 289.906 379.594 290.325L376.754 314.706L373.265 307.421C373.16 307.194 372.967 307.038 372.739 306.968C372.511 306.898 372.248 306.916 372.038 307.038L336.816 327.254L337.693 328.77L372.091 309.024L376.491 318.191C376.666 318.54 377.052 318.749 377.42 318.679C377.806 318.609 378.104 318.313 378.157 317.912L380.734 295.884L394.566 362.352C394.654 362.753 395.005 363.05 395.426 363.05L395.408 363.067Z" fill="url(#paint18_radial_563_22683)"/>
<path style="mix-blend-mode:screen" d="M164.898 491.341L274.435 428.209L306.875 448.209V492.471L197.46 555.395V555.412H197.443H197.425V555.395L164.898 535.585V491.341Z" fill="url(#paint19_linear_563_22683)"/>
<g opacity="0.9">
<path d="M197.461 511.428V555.412L183.591 547.429V503.167L197.461 511.428Z" fill="url(#paint20_linear_563_22683)"/>
<path d="M197.425 511.428V555.412L306.875 492.471V448.209L197.425 511.428Z" fill="url(#paint21_linear_563_22683)"/>
<path d="M306.875 448.209L197.425 511.428L183.59 503.167L293.126 440.053L306.875 448.209Z" fill="url(#paint22_linear_563_22683)"/>
</g>
<path d="M268.273 481.601V485.584L206.909 520.976V517.011L268.273 481.601Z" fill="white"/>
<path d="M226.314 522.333L268.273 498.106V502.071L226.314 526.298V522.333Z" fill="white"/>
<path d="M268.273 493.828L206.909 529.22V525.255L268.273 489.862V493.828Z" fill="white"/>
<path d="M280.487 488.749C281.827 487.619 283.028 486.158 283.985 484.575C284.559 483.601 284.542 482.558 283.985 482.227C283.254 481.81 282.628 481.132 282.21 480.245C281.601 480.419 280.835 480.193 280.835 479.358C280.835 478.523 281.218 477.566 281.723 477.097C281.879 473.427 283.132 469.671 287.344 467.236C291.556 464.801 292.809 467.114 292.965 470.61C293.47 470.505 293.853 470.992 293.853 471.845C293.853 472.697 293.087 473.792 292.478 474.314C292.06 475.688 291.416 477.097 290.703 478.366C290.146 479.34 290.128 480.419 290.703 480.714C291.66 481.201 292.861 481.271 294.201 480.871C295.976 480.332 297.281 481.41 297.281 483.584V487.358C297.281 488.088 296.759 488.975 296.133 489.358L278.607 499.463C277.964 499.828 277.459 499.532 277.459 498.802V495.028C277.459 492.854 278.781 490.262 280.539 488.767L280.487 488.749Z" fill="white"/>
<path style="mix-blend-mode:screen" d="M189.56 363.059L318.066 288.796L369.406 319.267V381.616L241.004 455.67V455.688H240.97H240.952V455.67L189.56 425.391V363.059Z" fill="url(#paint23_linear_563_22683)"/>
<g opacity="0.9">
<path d="M241.008 393.617V455.688L227.137 447.705V385.356L241.008 393.617Z" fill="url(#paint24_linear_563_22683)"/>
<path d="M240.952 393.617V455.688L369.406 381.616V319.267L240.952 393.617Z" fill="url(#paint25_linear_563_22683)"/>
<path d="M369.406 319.267L240.952 393.617L227.134 385.356L355.64 311.11L369.406 319.267Z" fill="url(#paint26_linear_563_22683)"/>
</g>
<path d="M323.117 373.616V377.599L250.441 419.513V415.548L323.117 373.616Z" fill="white"/>
<path d="M269.846 420.869L323.117 390.121V394.086L269.846 424.835V420.869Z" fill="white"/>
<path d="M323.117 385.842L250.441 427.757V423.791L323.117 381.877V385.842Z" fill="white"/>
<path d="M323.117 357.129V361.094L250.441 403.008V399.043L323.117 357.129Z" fill="white"/>
<path d="M323.117 369.338L250.441 411.252V407.287L323.117 365.372V369.338Z" fill="white"/>
<path d="M336.671 377.564C338.028 376.416 339.281 375.06 340.412 373.547L346.364 376.938L352.316 366.677C353.447 366.885 354.7 366.799 356.058 366.381C358.425 365.668 360.078 367.112 360.078 369.912V372.92C360.078 373.633 359.573 374.503 358.947 374.868L333.782 389.39C333.155 389.756 332.65 389.46 332.65 388.747V385.738C332.65 382.938 334.304 379.581 336.671 377.564Z" fill="white"/>
<path d="M338.238 361.059L354.493 351.685C354.893 351.772 355.172 352.294 355.172 353.076C355.172 353.963 354.249 355.25 353.588 355.824L353.345 356.05L353.24 356.381C352.701 358.19 351.848 360.103 350.786 361.929C350.282 362.798 350.003 363.755 350.02 364.555C350.02 365.338 350.299 365.911 350.786 366.155C350.995 366.259 351.221 366.364 351.448 366.451L346.348 375.233L341.249 372.329C341.475 371.981 341.702 371.633 341.911 371.286C342.398 370.468 342.676 369.581 342.676 368.799C342.676 367.981 342.398 367.355 341.911 367.059C340.849 366.451 340.014 365.494 339.457 364.329L339.352 364.12L339.109 364.19C338.447 364.364 337.525 364.155 337.525 363.268C337.525 362.485 337.803 361.633 338.204 361.094L338.238 361.059Z" fill="white"/>
<path d="M339.305 348.468C339.374 347.65 339.949 346.711 340.627 346.311L352.114 339.685C352.81 339.285 353.384 339.563 353.436 340.311L354.289 350.781L338.435 359.929L339.287 348.468H339.305ZM342.629 352.798L345.065 351.389V354.189L347.658 352.694V349.894L350.095 348.485V345.511L347.658 346.92V344.12L345.065 345.615V348.415L342.629 349.824V352.798Z" fill="white"/>
<path style="mix-blend-mode:multiply" d="M424.153 519.202C397.029 519.202 375.041 510.061 375.041 498.784C375.041 487.508 397.029 478.366 424.153 478.366C451.277 478.366 473.266 487.508 473.266 498.784C473.266 510.061 451.277 519.202 424.153 519.202Z" fill="url(#paint27_radial_563_22683)"/>
<path d="M397.642 412.173H467.812V494.697C467.812 494.784 467.812 494.888 467.812 494.975C467.812 506.245 452.097 515.393 432.727 515.393C413.357 515.393 397.642 506.245 397.642 494.975C397.642 494.888 397.642 494.784 397.642 494.697V412.173Z" fill="url(#paint28_linear_563_22683)"/>
<path opacity="0.2" d="M432.759 517.933C452.146 517.933 467.844 508.785 467.844 497.515V502.419C467.844 513.689 452.129 522.837 432.759 522.837C413.389 522.837 397.673 513.689 397.673 502.419V497.515C397.673 508.785 413.389 517.933 432.759 517.933Z" fill="url(#paint29_linear_563_22683)"/>
<path d="M432.759 450.035C452.146 450.035 467.844 440.887 467.844 429.617V488.888C467.844 488.975 467.844 489.08 467.844 489.167C467.844 500.436 452.129 509.585 432.759 509.585C413.389 509.585 397.673 500.436 397.673 489.167C397.673 489.08 397.673 488.975 397.673 488.888V429.617C397.673 440.887 413.389 450.035 432.759 450.035Z" fill="url(#paint30_linear_563_22683)"/>
<path d="M432.759 506.558C452.146 506.558 467.844 497.41 467.844 486.141V489.306C467.844 500.576 452.129 509.724 432.759 509.724C413.389 509.724 397.673 500.576 397.673 489.306V486.141C397.673 497.41 413.389 506.558 432.759 506.558Z" fill="url(#paint31_linear_563_22683)"/>
<g style="mix-blend-mode:multiply">
<path d="M432.759 431.009C449.535 431.009 463.615 424.4 467.844 415.426V417.687C463.615 426.661 449.535 433.27 432.759 433.27C415.982 433.27 401.902 426.661 397.673 417.687V415.426C401.902 424.4 415.982 431.009 432.759 431.009Z" fill="#E6E7E8"/>
</g>
<path d="M396.323 398.225H469.156V409.652C469.156 409.756 469.156 409.843 469.156 409.947C469.156 421.652 452.849 431.148 432.731 431.148C412.613 431.148 396.306 421.652 396.306 409.947C396.306 409.843 396.306 409.756 396.306 409.652V398.225H396.323Z" fill="url(#paint32_linear_563_22683)"/>
<g style="mix-blend-mode:multiply" opacity="0.5">
<path d="M421.586 430.122C421.238 430.052 420.907 429.982 420.559 429.895V402.99H421.586V430.122Z" fill="url(#paint33_linear_563_22683)"/>
<path d="M417.008 429.043C416.66 428.939 416.329 428.852 415.981 428.765V403.008H417.008V429.061V429.043Z" fill="url(#paint34_linear_563_22683)"/>
<path d="M412.438 427.548C412.089 427.408 411.759 427.252 411.411 427.113V403.008H412.438V427.565V427.548Z" fill="url(#paint35_linear_563_22683)"/>
<path d="M426.164 430.782C425.816 430.748 425.485 430.713 425.137 430.678V402.99H426.164V430.782Z" fill="url(#paint36_linear_563_22683)"/>
<path d="M403.281 422.382C402.933 422.104 402.585 421.826 402.254 421.53V401.825H403.281V422.365V422.382Z" fill="url(#paint37_linear_563_22683)"/>
<path d="M398.703 417.443C398.32 416.852 397.972 416.26 397.676 415.634V397.182H398.703V417.443Z" fill="url(#paint38_linear_563_22683)"/>
<path d="M407.859 425.391C407.511 425.2 407.163 425.026 406.833 424.834V402.99H407.859V425.391Z" fill="url(#paint39_linear_563_22683)"/>
<path d="M430.727 431.078C430.378 431.078 430.048 431.078 429.7 431.043V402.99H430.727V431.078Z" fill="url(#paint40_linear_563_22683)"/>
<path d="M435.297 431.061C434.966 431.061 434.618 431.078 434.27 431.096V402.99H435.297V431.061Z" fill="url(#paint41_linear_563_22683)"/>
<path d="M444.469 430C444.121 430.069 443.79 430.139 443.442 430.209V402.99H444.469V430Z" fill="url(#paint42_linear_563_22683)"/>
<path d="M439.883 430.73C439.552 430.765 439.204 430.782 438.856 430.817V402.99H439.883V430.73Z" fill="url(#paint43_linear_563_22683)"/>
<path d="M449.031 428.887C448.701 428.991 448.353 429.078 448.004 429.165V402.99H449.031V428.887Z" fill="url(#paint44_linear_563_22683)"/>
<path d="M467.344 416.539C467.03 417.095 466.7 417.634 466.317 418.156V397.164H467.344V416.521V416.539Z" fill="url(#paint45_linear_563_22683)"/>
<path d="M462.766 421.93C462.435 422.208 462.087 422.469 461.739 422.73V401.825H462.766V421.93Z" fill="url(#paint46_linear_563_22683)"/>
<path d="M453.617 427.304C453.287 427.443 452.938 427.582 452.59 427.704V402.99H453.617V427.304Z" fill="url(#paint47_linear_563_22683)"/>
<path d="M458.195 425.095C457.865 425.287 457.517 425.461 457.169 425.634V402.99H458.195V425.095Z" fill="url(#paint48_linear_563_22683)"/>
</g>
<path d="M432.747 418.4C412.63 418.4 396.321 408.908 396.321 397.199C396.321 385.49 412.63 375.998 432.747 375.998C452.864 375.998 469.172 385.49 469.172 397.199C469.172 408.908 452.864 418.4 432.747 418.4Z" fill="url(#paint49_linear_563_22683)"/>
<path style="mix-blend-mode:screen" d="M432.747 417.826C452.43 417.826 468.424 408.73 469.102 397.373C469.102 397.616 469.172 397.86 469.172 398.103C469.172 409.808 452.865 419.304 432.747 419.304C412.628 419.304 396.321 409.808 396.321 398.103C396.321 397.86 396.374 397.616 396.391 397.373C397.07 408.73 413.064 417.826 432.747 417.826Z" fill="url(#paint50_radial_563_22683)"/>
<path style="mix-blend-mode:color-dodge" d="M450.239 409.425C442.06 412.208 436.543 417.756 437.918 421.791C439.292 425.826 447.054 426.869 455.234 424.087C463.413 421.304 468.93 415.756 467.556 411.721C466.181 407.669 458.419 406.643 450.239 409.425Z" fill="url(#paint51_radial_563_22683)"/>
<path d="M419.733 452.922C423.753 453.861 428.139 454.383 432.751 454.383C452.138 454.383 467.836 445.235 467.836 433.965V446.766C467.836 446.853 467.836 446.957 467.836 447.044C467.836 458.314 452.121 467.462 432.751 467.462C428.139 467.462 423.753 466.94 419.733 466.001V452.922Z" fill="url(#paint52_linear_563_22683)"/>
<path style="mix-blend-mode:screen" d="M451.616 489.497C447.051 489.497 443.35 471.004 443.35 448.192C443.35 425.379 447.051 406.886 451.616 406.886C456.182 406.886 459.883 425.379 459.883 448.192C459.883 471.004 456.182 489.497 451.616 489.497Z" fill="url(#paint53_radial_563_22683)"/>
<path style="mix-blend-mode:multiply" d="M477.255 529.481C466.557 529.481 457.885 525.876 457.885 521.429C457.885 516.981 466.557 513.376 477.255 513.376C487.953 513.376 496.625 516.981 496.625 521.429C496.625 525.876 487.953 529.481 477.255 529.481Z" fill="url(#paint54_radial_563_22683)"/>
<path d="M466.536 513.846H495.617V519.342C495.617 519.342 495.617 519.411 495.617 519.463C495.617 524.142 489.108 527.916 481.085 527.916C473.062 527.916 466.554 524.124 466.554 519.463C466.554 519.429 466.554 519.394 466.554 519.342V513.846H466.536Z" fill="url(#paint55_linear_563_22683)"/>
<path style="mix-blend-mode:screen" d="M481.062 521.672C488.928 521.672 495.298 518.037 495.576 513.498C495.576 513.602 495.594 513.689 495.594 513.794C495.594 518.472 489.085 522.246 481.062 522.246C473.039 522.246 466.53 518.455 466.53 513.794C466.53 513.689 466.548 513.602 466.548 513.498C466.809 518.037 473.196 521.672 481.062 521.672Z" fill="url(#paint56_radial_563_22683)"/>
<path style="mix-blend-mode:color-dodge" d="M488.056 518.316C484.784 519.429 482.592 521.637 483.131 523.255C483.688 524.872 486.768 525.29 490.04 524.177C493.312 523.064 495.505 520.855 494.965 519.237C494.408 517.62 491.328 517.202 488.056 518.316Z" fill="url(#paint57_radial_563_22683)"/>
<path d="M481.068 504.976C485.193 504.976 488.9 505.985 491.545 507.585C491.58 507.776 491.649 508.02 491.841 508.193C492.171 508.506 492.972 508.593 492.972 508.593C494.643 509.967 495.617 511.637 495.617 513.446C495.617 518.124 489.108 521.898 481.085 521.898C473.062 521.898 466.554 518.107 466.554 513.446C466.554 508.785 473.062 504.993 481.085 504.993L481.068 504.976Z" fill="url(#paint58_linear_563_22683)"/>
<path d="M491.53 507.324L470.472 519.15C470.246 519.289 470.142 519.568 470.246 519.811C470.472 520.385 471.116 520.681 471.708 520.507L472.091 520.35L492.992 508.576C492.992 508.576 492.174 508.489 491.861 508.176C491.53 507.863 491.548 507.306 491.548 507.306L491.53 507.324Z" fill="url(#paint59_linear_563_22683)"/>
<path style="mix-blend-mode:multiply" d="M351.213 546.994C351.213 551.446 359.88 555.046 370.583 555.046C381.286 555.046 389.953 551.446 389.953 546.994C389.953 542.542 381.286 538.942 370.583 538.942C359.88 538.942 351.213 542.542 351.213 546.994Z" fill="url(#paint60_radial_563_22683)"/>
<path d="M359.864 539.394H388.945V544.89C388.945 544.89 388.945 544.959 388.945 545.011C388.945 549.69 382.436 553.464 374.414 553.464C366.391 553.464 359.882 549.672 359.882 545.011C359.882 544.977 359.882 544.942 359.882 544.89V539.394H359.864Z" fill="url(#paint61_linear_563_22683)"/>
<path style="mix-blend-mode:screen" d="M374.414 547.22C382.28 547.22 388.649 543.585 388.928 539.046C388.928 539.15 388.945 539.237 388.945 539.342C388.945 544.02 382.436 547.794 374.414 547.794C366.391 547.794 359.882 544.003 359.882 539.342C359.882 539.237 359.899 539.15 359.899 539.046C360.16 543.585 366.547 547.22 374.414 547.22Z" fill="url(#paint62_radial_563_22683)"/>
<path style="mix-blend-mode:color-dodge" d="M381.384 543.864C378.112 544.977 375.92 547.185 376.459 548.803C377.016 550.42 380.096 550.838 383.368 549.725C386.64 548.612 388.833 546.403 388.293 544.785C387.737 543.168 384.656 542.751 381.384 543.864Z" fill="url(#paint63_radial_563_22683)"/>
<path d="M374.412 530.524C378.536 530.524 382.243 531.533 384.889 533.133C384.923 533.324 384.993 533.568 385.184 533.741C385.515 534.055 386.316 534.142 386.316 534.142C387.986 535.515 388.961 537.185 388.961 538.994C388.961 543.672 382.452 547.446 374.429 547.446C366.406 547.446 359.897 543.655 359.897 538.994C359.897 534.333 366.406 530.541 374.429 530.541L374.412 530.524Z" fill="url(#paint64_linear_563_22683)"/>
<path d="M384.858 532.889L363.8 544.716C363.574 544.837 363.47 545.133 363.574 545.377C363.8 545.95 364.444 546.246 365.036 546.072L365.419 545.916L386.32 534.142C386.32 534.142 385.502 534.055 385.189 533.741C384.876 533.428 384.876 532.872 384.876 532.872L384.858 532.889Z" fill="url(#paint65_linear_563_22683)"/>
<path style="mix-blend-mode:multiply" d="M392.88 525.777C391.418 529.777 399.11 536.246 410.057 540.247C421.004 544.247 431.063 544.229 432.525 540.229C433.987 536.229 426.295 529.759 415.348 525.759C404.401 521.776 394.342 521.777 392.88 525.777Z" fill="url(#paint66_radial_563_22683)"/>
<path d="M395.908 522.681C395.908 518.698 399.128 515.481 403.113 515.481C404.331 515.481 405.497 515.794 406.507 516.333C406.663 516.385 418.445 523.22 418.48 523.237C419.385 523.777 417.906 523.794 417.906 525.394C417.906 528.646 415.609 532.629 412.755 534.264C411.345 535.081 411.937 536.264 411.014 535.742C410.979 535.742 399.424 528.89 399.302 528.785C397.266 527.516 395.926 525.255 395.926 522.681H395.908Z" fill="url(#paint67_linear_563_22683)"/>
<path d="M415.088 523.724C416.481 522.924 417.751 522.82 418.673 523.324C418.691 523.324 430.525 530.298 430.49 530.42C432.265 531.724 433.414 533.846 433.414 536.212C433.414 540.194 430.194 543.412 426.209 543.412C425.06 543.412 423.981 543.151 423.024 542.664C422.955 542.664 411.399 535.864 411.364 535.846C410.476 535.307 409.92 534.177 409.92 532.577C409.92 529.324 412.217 525.342 415.071 523.707L415.088 523.724Z" fill="url(#paint68_linear_563_22683)"/>
<path style="mix-blend-mode:color-dodge" d="M414.228 521.916C409.842 519.446 405.717 518.472 404.986 519.742C404.273 521.011 407.231 524.055 411.617 526.542C416.003 529.011 420.127 529.985 420.858 528.716C421.589 527.446 418.613 524.403 414.228 521.916Z" fill="url(#paint69_radial_563_22683)"/>
<path style="mix-blend-mode:color-dodge" d="M424.378 535.29C424.378 537.62 426.275 539.516 428.607 539.516C430.939 539.516 432.836 537.62 432.836 535.29C432.836 532.959 430.939 531.064 428.607 531.064C426.275 531.064 424.378 532.959 424.378 535.29Z" fill="url(#paint70_radial_563_22683)"/>
<path style="mix-blend-mode:multiply" d="M348.373 529.811C350.635 533.637 359.946 532.35 369.152 526.907C378.359 521.481 383.997 513.967 381.735 510.141C379.473 506.315 370.162 507.602 360.955 513.046C351.749 518.489 346.11 525.985 348.373 529.811Z" fill="url(#paint71_radial_563_22683)"/>
<path d="M389.219 509.028C389.219 505.046 385.999 501.828 382.014 501.828C380.796 501.828 379.63 502.141 378.62 502.68C378.463 502.732 366.681 509.567 366.647 509.585C365.742 510.124 367.221 510.141 367.221 511.741C367.221 514.994 369.518 518.976 372.372 520.611C373.782 521.429 373.19 522.611 374.113 522.089C374.147 522.089 385.703 515.237 385.825 515.133C387.861 513.863 389.201 511.602 389.201 509.028H389.219Z" fill="url(#paint72_linear_563_22683)"/>
<path d="M370.066 510.072C368.673 509.272 367.403 509.167 366.48 509.672C366.463 509.672 354.629 516.646 354.664 516.767C352.889 518.072 351.74 520.194 351.74 522.559C351.74 526.542 354.96 529.759 358.945 529.759C360.093 529.759 361.172 529.498 362.13 529.011C362.217 529.011 373.755 522.211 373.79 522.194C374.677 521.655 375.234 520.524 375.234 518.924C375.234 515.672 372.937 511.689 370.083 510.054L370.066 510.072Z" fill="url(#paint73_linear_563_22683)"/>
<path style="mix-blend-mode:color-dodge" d="M370.93 508.263C375.315 505.793 379.44 504.819 380.171 506.089C380.902 507.359 377.926 510.402 373.54 512.889C369.155 515.359 365.03 516.333 364.299 515.063C363.585 513.793 366.544 510.75 370.93 508.263Z" fill="url(#paint74_radial_563_22683)"/>
<path style="mix-blend-mode:color-dodge" d="M360.742 521.62C360.742 523.95 358.845 525.846 356.513 525.846C354.181 525.846 352.284 523.95 352.284 521.62C352.284 519.289 354.181 517.393 356.513 517.393C358.845 517.393 360.742 519.289 360.742 521.62Z" fill="url(#paint75_radial_563_22683)"/>
<path style="mix-blend-mode:screen" d="M332.667 146.131L290.429 122.096L230.892 185.906L239.089 212.777L213.558 291.126L269.162 319.875L338.758 254.917L325.235 206.011L332.667 146.131Z" fill="url(#paint76_linear_563_22683)"/>
<path d="M309.183 226.099C325.037 216.898 342.214 217.577 354.571 224.638C366.927 231.716 368.441 282.813 362.646 286.796C356.85 290.779 310.488 316.327 302.639 321.006C293.554 326.414 259.514 319.632 259.514 310.188C259.514 304.553 258.086 260.013 270.338 249.682C277.857 243.351 293.206 235.369 309.183 226.099Z" fill="url(#paint77_linear_563_22683)"/>
<path d="M321.39 240.499L328.612 249.786L326.158 259.821L331.797 304.796L323.582 309.492L321.268 262.013L312.827 252.847L315.768 241.229L321.39 240.499Z" fill="url(#paint78_linear_563_22683)"/>
<path style="mix-blend-mode:multiply" d="M283.937 250.402C281.236 239.186 292.849 226.775 309.876 222.68C326.902 218.586 342.894 224.359 345.594 235.575C348.295 246.79 336.682 259.202 319.655 263.296C302.629 267.39 286.637 261.617 283.937 250.402Z" fill="url(#paint79_radial_563_22683)"/>
<path style="mix-blend-mode:multiply" opacity="0.5" d="M335.704 264.587C337.461 240.517 329.595 225.977 327.002 219.681C331.701 218.829 336.226 218.638 340.403 219.159C343.083 225.594 348.53 241.821 345.728 261.995C343.553 277.613 338.976 292.796 335.617 302.536C334.155 303.37 332.676 304.223 331.144 305.109C333.598 295.335 334.729 277.77 335.704 264.569V264.587Z" fill="url(#paint80_linear_563_22683)"/>
<path d="M336.951 264.013C338.778 239.108 331.173 226.812 328.893 220.899C324.821 221.02 328.841 218.812 324.699 219.855C336.829 216.829 347.915 218.203 355.92 223.96C363.926 229.716 366.711 243.125 367.18 257.647C367.581 270.013 366.415 283.978 363.996 286.118C360.254 289.439 347.967 295.509 332.391 304.57C334.845 294.796 335.976 277.23 336.951 264.03V264.013Z" fill="url(#paint81_radial_563_22683)"/>
<path d="M269.18 249.734C275.08 244.777 286.949 238.708 299.027 231.873C295.32 233.977 295.181 235.49 291.822 237.438C294.467 245.751 299.879 251.247 306.562 262.343C314.411 275.352 321.303 299.77 323.078 309.997C313.541 315.545 305.414 320.24 302.629 321.91C290.778 329.006 258.599 319.614 258.599 310.17C258.599 304.536 256.928 260.065 269.197 249.734H269.18Z" fill="url(#paint82_radial_563_22683)"/>
<path d="M323.187 309.927C325.519 308.57 327.939 307.162 330.375 305.753C327.939 307.179 325.519 308.57 323.187 309.927Z" fill="#E6E7E8"/>
<g style="mix-blend-mode:multiply">
<path d="M336.951 264.013C338.778 239.108 331.173 226.812 328.893 220.899C324.821 221.02 328.841 218.812 324.699 219.855C336.829 216.829 347.915 218.203 355.92 223.96C363.926 229.716 366.711 243.125 367.18 257.647C367.581 270.013 366.415 283.978 363.996 286.118C360.254 289.439 347.967 295.509 332.391 304.57C334.845 294.796 335.976 277.23 336.951 264.03V264.013Z" fill="url(#paint83_radial_563_22683)"/>
<path style="mix-blend-mode:multiply" opacity="0.5" d="M359.354 253.647C358.553 241.595 356.448 230.221 352.114 221.977C358.014 228.394 360.711 239.838 361.738 252.186C362.765 264.517 362.313 278.517 359.998 280.778C359.702 281.074 359.319 281.404 358.902 281.752C359.894 274.639 360.033 263.717 359.371 253.647H359.354Z" fill="url(#paint84_linear_563_22683)"/>
<path d="M269.18 249.734C275.08 244.777 286.949 238.708 299.027 231.873C295.32 233.977 295.181 235.49 291.822 237.438C294.467 245.751 299.879 251.247 306.562 262.343C314.411 275.352 321.303 299.77 323.078 309.997C313.541 315.545 305.414 320.24 302.629 321.91C290.778 329.006 258.599 319.614 258.599 310.17C258.599 304.536 256.928 260.065 269.197 249.734H269.18Z" fill="url(#paint85_radial_563_22683)"/>
<path d="M323.187 309.927C325.519 308.57 327.939 307.162 330.375 305.753C327.939 307.179 325.519 308.57 323.187 309.927Z" fill="url(#paint86_radial_563_22683)"/>
</g>
<path d="M326.615 223.316C331.175 224.829 334.865 232.116 334.36 241.073C333.751 251.856 330.409 255.491 330.409 255.491L320.542 241.073L314.677 259.439C314.677 259.439 305.627 257.004 299.884 251.247C294.141 245.491 288.937 240.012 291.983 235.177C295.638 229.368 320.785 221.368 326.615 223.316Z" fill="url(#paint87_linear_563_22683)"/>
<path style="mix-blend-mode:multiply" opacity="0.5" d="M291.118 235.821C293.972 243.734 299.611 252.534 306.015 263.143C313.864 276.152 320.756 300.57 322.531 310.797C321.644 311.318 320.774 311.823 319.921 312.31C317.85 305.475 313.621 293.387 306.485 280.604C296.774 263.23 282.782 246.169 279.754 242.656C283.043 240.742 287.342 237.925 291.153 235.821H291.118Z" fill="url(#paint88_linear_563_22683)"/>
<path d="M291.665 235.021C294.519 242.934 300.158 251.734 306.562 262.343C314.411 275.352 321.303 299.77 323.078 309.997C322.191 310.518 321.32 311.023 320.468 311.51C318.397 304.675 314.168 292.587 307.032 279.804C297.321 262.43 283.329 245.369 280.301 241.856C283.59 239.943 287.889 237.125 291.7 235.021H291.665Z" fill="url(#paint89_radial_563_22683)"/>
<path d="M299.874 286.187H303.686C303.686 272.622 299.439 258.534 291.068 244.308C288.493 239.937 293.569 233.994 306.296 226.481L307.079 226.012C327.511 213.959 339.954 216.429 344.41 222.238C348.673 227.803 348.673 252.517 348.308 261.578L352.119 261.734C352.258 258.256 353.32 227.577 347.438 219.925C341.782 212.568 327.702 209.437 305.148 222.742L304.364 223.212C284.977 234.655 281.984 236.412 287.779 246.256C295.802 259.891 299.857 273.317 299.857 286.205L299.874 286.187Z" fill="url(#paint90_linear_563_22683)"/>
<path d="M302.863 284.431C302.637 271.422 298.443 257.926 290.42 244.273C285.982 236.725 286.73 236.273 306.065 224.881L306.849 224.412C316.56 218.69 325.522 215.664 332.762 215.664C338.47 215.664 343.048 217.525 345.658 220.916C350.479 227.194 349.991 253.978 349.817 259.856L351.349 259.908C351.784 247.264 351.297 225.768 346.859 219.977C343.935 216.168 338.958 214.081 332.814 214.081C325.192 214.081 316.194 217.107 306.065 223.09L305.282 223.559C285.39 235.281 284.015 236.377 289.097 245.038C296.981 258.447 301.105 271.682 301.332 284.431H302.863Z" fill="#3F237D"/>
<path d="M302.425 283.613C302.077 270.882 297.935 257.665 290.069 244.325C285.335 236.29 286.501 235.595 305.906 224.151L306.689 223.681C316.487 217.907 325.537 214.846 332.898 214.846C338.798 214.846 343.532 216.794 346.247 220.325C350.963 226.481 350.754 250.83 350.545 259.056H350.928C351.311 246.917 350.789 225.629 346.543 220.081C343.741 216.429 338.903 214.411 332.951 214.411C325.432 214.411 316.539 217.42 306.498 223.333L305.714 223.803C285.596 235.664 284.987 236.447 289.738 244.499C297.552 257.786 301.694 270.935 302.042 283.596H302.425V283.613Z" fill="url(#paint91_linear_563_22683)"/>
<path d="M336.961 264.013C338.719 239.943 330.853 225.403 328.26 219.107C332.959 218.255 337.484 218.064 341.66 218.585C344.341 225.02 349.788 241.247 346.986 261.421C344.81 277.039 340.233 292.222 336.874 301.962C335.413 302.796 333.933 303.649 332.402 304.536C334.856 294.761 335.987 277.196 336.961 263.995V264.013Z" fill="url(#paint92_radial_563_22683)"/>
<path d="M355.281 260.221C355.281 257.073 353.054 255.821 350.321 257.386C347.589 258.969 345.361 262.795 345.361 265.943C345.361 269.091 347.589 270.343 350.321 268.778C353.054 267.195 355.281 263.369 355.281 260.221Z" fill="url(#paint93_linear_563_22683)"/>
<path d="M273.068 248.604C280.134 250.204 288.94 257.491 290.384 271.004C291.724 283.526 291.063 313.597 291.063 313.597C291.063 313.597 295.797 274.065 290.837 261.665C285.511 248.378 276.027 246.864 276.027 246.864L273.068 248.604Z" fill="#E6E7E8"/>
<path d="M290.8 329.841H293.654V302.222C293.654 296.483 297.726 289.457 302.738 286.57C304.896 285.318 306.863 285.074 308.255 285.874C309.63 286.674 310.396 288.466 310.396 290.918V318.536H313.25V290.918C313.25 287.405 311.98 284.726 309.682 283.405C307.368 282.065 304.392 282.309 301.311 284.1C295.412 287.509 290.8 295.457 290.8 302.222V329.841Z" fill="url(#paint94_linear_563_22683)"/>
<path d="M311.827 320.918C313.149 320.918 314.211 319.858 314.211 318.536V316.901C314.211 315.579 313.149 314.518 311.827 314.518C310.504 314.518 309.442 315.579 309.442 316.901V318.536C309.442 319.858 310.504 320.918 311.827 320.918Z" fill="#6B24D6"/>
<path d="M292.233 332.223C293.556 332.223 294.617 331.162 294.617 329.841V328.206C294.617 326.884 293.556 325.823 292.233 325.823C290.91 325.823 289.849 326.884 289.849 328.206V329.841C289.849 331.162 290.91 332.223 292.233 332.223Z" fill="#6B24D6"/>
<path d="M292.227 304.118C293.289 304.118 294.124 303.266 294.124 302.222C294.124 296.727 298.179 289.752 302.965 286.987C304.949 285.839 306.794 285.596 308.012 286.292C309.213 286.987 309.909 288.674 309.909 290.918C309.909 291.979 310.762 292.813 311.806 292.813C312.85 292.813 313.703 291.961 313.703 290.918C313.703 287.231 312.346 284.413 309.909 282.987C307.438 281.561 304.305 281.822 301.051 283.683C295.029 287.161 290.296 295.3 290.296 302.222C290.296 303.283 291.148 304.118 292.193 304.118H292.227Z" fill="url(#paint95_linear_563_22683)"/>
<path d="M292.701 302.831C293.118 302.831 293.466 302.483 293.466 302.066C293.466 296.222 297.782 288.779 302.882 285.839C304.291 285.022 305.684 284.605 306.902 284.605C307.72 284.605 308.433 284.778 309.06 285.144C310.626 286.048 311.531 288.1 311.531 290.761C311.531 291.179 311.879 291.526 312.297 291.526C312.714 291.526 313.062 291.179 313.062 290.761C313.062 287.492 311.914 285.022 309.843 283.822C308.973 283.318 307.981 283.057 306.919 283.057C305.422 283.057 303.804 283.544 302.133 284.518C296.425 287.805 291.952 295.509 291.952 302.066C291.952 302.483 292.3 302.831 292.718 302.831H292.701Z" fill="url(#paint96_linear_563_22683)"/>
<path d="M292.706 302.257C292.811 302.257 292.898 302.17 292.898 302.066C292.898 296.031 297.336 288.379 302.591 285.352C304.088 284.5 305.567 284.048 306.89 284.048C307.795 284.048 308.63 284.257 309.344 284.674C311.084 285.683 312.094 287.909 312.094 290.779C312.094 290.883 312.181 290.97 312.285 290.97C312.39 290.97 312.477 290.883 312.477 290.779C312.477 287.718 311.432 285.439 309.535 284.344C308.752 283.891 307.865 283.665 306.89 283.665C305.498 283.665 303.984 284.135 302.4 285.039C296.848 288.239 292.515 295.735 292.515 302.083C292.515 302.188 292.602 302.275 292.706 302.275V302.257Z" fill="url(#paint97_linear_563_22683)"/>
<path d="M311.827 320.919C313.149 320.919 314.211 319.858 314.211 318.536V316.901C314.211 315.579 313.149 314.518 311.827 314.518C310.504 314.518 309.442 315.579 309.442 316.901V318.536C309.442 319.858 310.504 320.919 311.827 320.919Z" fill="url(#paint98_linear_563_22683)"/>
<path d="M312.206 319.11C312.78 319.11 313.25 318.64 313.25 318.066V316.431C313.25 315.858 312.78 315.388 312.206 315.388C311.631 315.388 311.162 315.858 311.162 316.431V318.066C311.162 318.64 311.631 319.11 312.206 319.11Z" fill="url(#paint99_linear_563_22683)"/>
<path d="M312.612 318.066C312.769 318.066 312.891 317.945 312.891 317.788V316.153C312.891 315.997 312.769 315.875 312.612 315.875C312.456 315.875 312.334 315.997 312.334 316.153V317.788C312.334 317.945 312.456 318.066 312.612 318.066Z" fill="url(#paint100_linear_563_22683)"/>
<path d="M292.233 332.223C293.556 332.223 294.617 331.162 294.617 329.841V328.206C294.617 326.884 293.556 325.823 292.233 325.823C290.91 325.823 289.849 326.884 289.849 328.206V329.841C289.849 331.162 290.91 332.223 292.233 332.223Z" fill="url(#paint101_linear_563_22683)"/>
<path d="M292.628 330.414C293.202 330.414 293.672 329.945 293.672 329.371V327.736C293.672 327.162 293.202 326.693 292.628 326.693C292.053 326.693 291.583 327.162 291.583 327.736V329.371C291.583 329.945 292.053 330.414 292.628 330.414Z" fill="url(#paint102_linear_563_22683)"/>
<path d="M293.011 329.371C293.167 329.371 293.289 329.249 293.289 329.093V327.458C293.289 327.301 293.167 327.18 293.011 327.18C292.854 327.18 292.732 327.301 292.732 327.458V329.093C292.732 329.249 292.854 329.371 293.011 329.371Z" fill="url(#paint103_linear_563_22683)"/>
<path d="M347.889 263.039C347.889 264.952 349.246 265.735 350.917 264.761C352.588 263.804 353.945 261.456 353.945 259.543C353.945 257.63 352.588 256.847 350.917 257.821C349.246 258.778 347.889 261.126 347.889 263.039Z" fill="url(#paint104_linear_563_22683)"/>
<path d="M348.459 261.578C348.459 263.491 349.817 264.274 351.487 263.3C353.158 262.326 354.516 259.995 354.516 258.082C354.516 256.169 353.158 255.386 351.487 256.36C349.817 257.334 348.459 259.665 348.459 261.578Z" fill="url(#paint105_linear_563_22683)"/>
<path style="mix-blend-mode:screen" d="M314.685 259.456L320.549 241.09L330.417 255.508L331.305 253.195L320.584 239.995L313.414 258.882L314.685 259.456Z" fill="url(#paint106_radial_563_22683)"/>
<path d="M345.501 173.836C347.816 183.819 347.363 213.681 339.845 220.064C333.893 225.107 328.55 221.786 328.185 229.107C327.819 236.429 330.9 237.125 326.41 240.343C322.111 243.421 297.311 241.195 297.903 233.334C298.46 225.96 300.113 223.333 296.685 216.481C293.256 209.629 283.354 198.637 284.816 188.863C286.278 179.089 337.287 138.514 345.484 173.836H345.501Z" fill="url(#paint107_radial_563_22683)"/>
<path d="M349.39 172.549C353.323 171.036 353.862 160.219 333.901 146.879C318.551 136.635 288.426 138.67 279.515 159.262C270.239 180.689 278.697 192.498 285.728 207.976C289.975 217.316 297.545 218.672 297.545 218.672C297.545 218.672 294.395 209.177 291.663 205.716C287.678 200.655 284.789 193.959 287.869 190.098C289.592 187.941 292.272 186.776 296.014 190.498C302.209 196.689 308.736 176.393 324.329 173.21C337.468 170.515 345.457 174.063 349.407 172.532L349.39 172.549Z" fill="#25054D"/>
<path style="mix-blend-mode:multiply" opacity="0.8" d="M323.904 225.473C325.714 225.525 327.524 225.455 330.273 224.62C329.073 225.351 328.289 226.603 328.168 229.107C327.802 236.447 330.883 237.125 326.392 240.343C324.844 241.456 320.597 242.082 315.811 242.082C308.85 235.055 309.389 223.455 309.389 223.455C309.389 223.455 318.387 225.299 323.886 225.473H323.904Z" fill="url(#paint108_linear_563_22683)"/>
<path style="mix-blend-mode:screen" opacity="0.6" d="M344.402 174.584C344.402 174.584 346.525 195.385 343.497 203.733C340.451 212.081 322.682 192.654 320.716 184.758C318.749 176.863 326.18 169.732 344.419 174.584H344.402Z" fill="url(#paint109_linear_563_22683)"/>
<path style="mix-blend-mode:multiply" opacity="0.5" d="M297.573 218.69C297.573 218.69 290.002 217.316 285.756 207.994C278.708 192.515 269.031 180.689 278.307 159.262C278.916 157.853 279.647 156.514 280.448 155.245C285.199 156.706 290.594 159.662 293.048 165.645C295.693 172.115 302.602 178.828 308.328 183.628C303.09 189.141 299.505 194.028 296.024 190.55C292.282 186.811 289.602 187.976 287.879 190.15C284.799 194.028 287.688 200.707 291.673 205.768C294.405 209.229 297.555 218.725 297.555 218.725L297.573 218.69Z" fill="url(#paint110_linear_563_22683)"/>
<path style="mix-blend-mode:multiply" opacity="0.5" d="M293.009 200.011C293.009 200.011 287.648 194.428 289.598 191.576C291.529 188.724 294.836 193.054 294.836 193.054L293.009 199.994V200.011Z" fill="url(#paint111_linear_563_22683)"/>
<path style="mix-blend-mode:multiply" opacity="0.5" d="M322.156 170.532C330.3 168.602 345.615 171.436 351.445 168.619C351.254 170.723 350.471 172.132 349.392 172.549C345.441 174.063 337.47 170.532 324.314 173.228C312.792 175.576 306.231 187.263 301.08 190.724C302.159 188.393 313.75 172.532 322.138 170.549L322.156 170.532Z" fill="url(#paint112_linear_563_22683)"/>
<path style="mix-blend-mode:screen" d="M162.37 306.38L197.177 286.135L235.586 308.014V346.207L200.919 366.242V366.259L200.884 366.242L200.866 366.259V366.242L162.37 344.572V306.38Z" fill="url(#paint113_linear_563_22683)"/>
<g opacity="0.9">
<path d="M200.914 328.363V366.259L185.147 357.163V318.971L200.914 328.363Z" fill="url(#paint114_linear_563_22683)"/>
<path d="M200.866 328.363V366.259L235.586 346.207V308.014L200.866 328.363Z" fill="url(#paint115_linear_563_22683)"/>
<path d="M235.586 308.014L200.866 328.363L185.151 318.971L219.94 298.727L235.586 308.014Z" fill="url(#paint116_linear_563_22683)"/>
</g>
<path d="M211.383 346.015C211.383 350.328 214.428 352.05 218.187 349.894C221.947 347.72 224.992 342.485 224.992 338.172C224.992 333.858 218.187 325.197 218.187 325.197C218.187 325.197 211.383 341.702 211.383 346.015Z" fill="white"/>
<path style="mix-blend-mode:screen" d="M162.37 255.543L197.177 235.299L235.586 257.178V295.388L200.919 315.406V315.44L200.884 315.423L200.866 315.44V315.406L162.37 293.753V255.543Z" fill="url(#paint117_linear_563_22683)"/>
<g opacity="0.9">
<path d="M200.914 277.526V315.44L185.147 306.345V268.135L200.914 277.526Z" fill="url(#paint118_linear_563_22683)"/>
<path d="M200.866 277.526V315.44L235.586 295.388V257.178L200.866 277.526Z" fill="url(#paint119_linear_563_22683)"/>
<path d="M235.586 257.178L200.866 277.526L185.151 268.135L219.94 247.891L235.586 257.178Z" fill="url(#paint120_linear_563_22683)"/>
</g>
<path d="M212.963 279.457C215.121 278.205 217.001 278.622 217.94 280.274C218.88 277.544 220.76 274.97 222.918 273.718C226.016 271.926 228.539 273.544 228.539 277.335C228.539 284.257 217.94 298.936 217.94 298.936C217.94 298.936 207.342 296.483 207.342 289.562C207.342 285.77 209.865 281.248 212.963 279.457Z" fill="white"/>
<path style="mix-blend-mode:screen" d="M162.37 203.507L197.177 183.263L235.586 205.142V243.334L200.919 263.369V263.387L200.884 263.369L200.866 263.387V263.369L162.37 241.699V203.507Z" fill="url(#paint121_linear_563_22683)"/>
<g opacity="0.9">
<path d="M200.914 225.49V263.387L185.147 254.291V216.099L200.914 225.49Z" fill="url(#paint122_linear_563_22683)"/>
<path d="M200.866 225.49V263.387L235.586 243.334V205.142L200.866 225.49Z" fill="url(#paint123_linear_563_22683)"/>
<path d="M235.586 205.142L200.866 225.49L185.151 216.099L219.94 195.855L235.586 205.142Z" fill="url(#paint124_linear_563_22683)"/>
</g>
<path d="M207.679 236.534L214.519 232.586V224.725L221.793 220.533V228.394L228.633 224.447V232.777L221.793 236.725V244.569L214.519 248.76V240.917L207.679 244.864V236.534Z" fill="white"/>
<path style="mix-blend-mode:color-dodge" d="M292.728 144.467C287.075 155.64 303.547 175.437 329.498 188.653C355.467 201.869 381.087 203.527 386.74 192.354C392.393 181.181 375.922 161.384 349.97 148.168C324.019 134.952 298.381 133.294 292.728 144.467Z" fill="url(#paint125_radial_563_22683)"/>
<path style="mix-blend-mode:color-dodge" d="M302.319 163.963C281.064 153.182 274.754 122.938 288.226 96.4119C301.699 69.8856 329.851 57.1217 351.107 67.9028C372.363 78.6839 378.672 108.927 365.2 135.454C351.728 161.98 323.575 174.744 302.319 163.963Z" fill="url(#paint126_radial_563_22683)"/>
<path style="mix-blend-mode:color-dodge" d="M258.633 264.238C256.096 282.697 262.601 298.827 273.16 300.266C283.735 301.704 294.346 287.903 296.899 269.427C299.453 250.95 292.931 234.837 282.372 233.399C271.797 231.961 261.186 245.762 258.633 264.238Z" fill="url(#paint127_radial_563_22683)"/>
<defs>
<radialGradient id="paint0_radial_563_22683" cx="0" cy="0" r="1" gradientUnits="userSpaceOnUse" gradientTransform="translate(254.379 334.736) rotate(180) scale(259.585 332.994)">
<stop stop-color="#FA45C1"/>
<stop offset="0.21" stop-color="#CB389D"/>
<stop offset="0.67" stop-color="#571843"/>
<stop offset="1"/>
</radialGradient>
<linearGradient id="paint1_linear_563_22683" x1="245.759" y1="559.777" x2="180.388" y2="673.07" gradientUnits="userSpaceOnUse">
<stop offset="0.06" stop-color="#200041"/>
<stop offset="0.18" stop-color="#210143"/>
<stop offset="0.24" stop-color="#25084A"/>
<stop offset="0.29" stop-color="#2C1357"/>
<stop offset="0.31" stop-color="#311B61"/>
<stop offset="0.36" stop-color="#341E65"/>
<stop offset="0.41" stop-color="#3E2672"/>
<stop offset="0.46" stop-color="#503588"/>
<stop offset="0.51" stop-color="#684AA6"/>
<stop offset="0.53" stop-color="#7656B8"/>
<stop offset="0.54" stop-color="#6E4FAE"/>
<stop offset="0.56" stop-color="#53388C"/>
<stop offset="0.59" stop-color="#402874"/>
<stop offset="0.61" stop-color="#351E66"/>
<stop offset="0.63" stop-color="#311B61"/>
<stop offset="0.67" stop-color="#2A1054"/>
<stop offset="0.75" stop-color="#220446"/>
<stop offset="0.81" stop-color="#200041"/>
<stop offset="1" stop-color="#200041"/>
</linearGradient>
<radialGradient id="paint2_radial_563_22683" cx="0" cy="0" r="1" gradientUnits="userSpaceOnUse" gradientTransform="translate(167.95 528.228) rotate(180) scale(48.3987 48.3665)">
<stop stop-color="#AF8AFC"/>
<stop offset="1" stop-color="#10054D"/>
</radialGradient>
<linearGradient id="paint3_linear_563_22683" x1="184.274" y1="585.239" x2="527.184" y2="477.819" gradientUnits="userSpaceOnUse">
<stop offset="0.19" stop-color="#3D065F"/>
<stop offset="0.93" stop-color="#3D065F"/>
</linearGradient>
<linearGradient id="paint4_linear_563_22683" x1="217.595" y1="652.423" x2="310.81" y2="455.326" gradientUnits="userSpaceOnUse">
<stop stop-color="#311B61"/>
<stop offset="0.2" stop-color="#290E52"/>
<stop offset="0.49" stop-color="#200041"/>
<stop offset="1" stop-color="#0F001F"/>
</linearGradient>
<linearGradient id="paint5_linear_563_22683" x1="246.905" y1="559.064" x2="259.788" y2="580.759" gradientUnits="userSpaceOnUse">
<stop offset="0.12" stop-color="#A499BD"/>
<stop offset="0.39" stop-color="#83729E"/>
<stop offset="0.8" stop-color="#543D72"/>
<stop offset="1" stop-color="#432962"/>
</linearGradient>
<linearGradient id="paint6_linear_563_22683" x1="377.468" y1="97.6609" x2="208.685" y2="390.201" gradientUnits="userSpaceOnUse">
<stop offset="0.06" stop-color="#200041"/>
<stop offset="0.26" stop-color="#210143"/>
<stop offset="0.36" stop-color="#25084A"/>
<stop offset="0.43" stop-color="#2C1357"/>
<stop offset="0.47" stop-color="#311B61"/>
<stop offset="0.48" stop-color="#351F65"/>
<stop offset="0.5" stop-color="#422C72"/>
<stop offset="0.51" stop-color="#574188"/>
<stop offset="0.52" stop-color="#755FA6"/>
<stop offset="0.53" stop-color="#8770B8"/>
<stop offset="0.54" stop-color="#7D66AE"/>
<stop offset="0.56" stop-color="#5C458C"/>
<stop offset="0.59" stop-color="#442E74"/>
<stop offset="0.61" stop-color="#351F66"/>
<stop offset="0.63" stop-color="#311B61"/>
<stop offset="0.67" stop-color="#2A1054"/>
<stop offset="0.75" stop-color="#220446"/>
<stop offset="0.81" stop-color="#200041"/>
<stop offset="1" stop-color="#200041"/>
</linearGradient>
<radialGradient id="paint7_radial_563_22683" cx="0" cy="0" r="1" gradientUnits="userSpaceOnUse" gradientTransform="translate(114.925 216.481) rotate(180) scale(317.054 316.843)">
<stop stop-color="#711F56"/>
<stop offset="0.16" stop-color="#6B1D51"/>
<stop offset="0.36" stop-color="#5C1946"/>
<stop offset="0.58" stop-color="#421232"/>
<stop offset="0.82" stop-color="#1F0818"/>
<stop offset="1"/>
</radialGradient>
<radialGradient id="paint8_radial_563_22683" cx="0" cy="0" r="1" gradientUnits="userSpaceOnUse" gradientTransform="translate(1146.28 193.837) rotate(180) scale(186.79 186.666)">
<stop stop-color="#AF8AFC"/>
<stop offset="1" stop-color="#10054D"/>
</radialGradient>
<linearGradient id="paint9_linear_563_22683" x1="152.896" y1="367.355" x2="669.209" y2="205.607" gradientUnits="userSpaceOnUse">
<stop offset="0.19" stop-color="#3D065F"/>
<stop offset="0.93" stop-color="#3D065F"/>
</linearGradient>
<linearGradient id="paint10_linear_563_22683" x1="146.154" y1="567.065" x2="408.102" y2="13.1934" gradientUnits="userSpaceOnUse">
<stop stop-color="#311B61"/>
<stop offset="0.2" stop-color="#290E52"/>
<stop offset="0.49" stop-color="#200041"/>
<stop offset="1" stop-color="#0F001F"/>
</linearGradient>
<linearGradient id="paint11_linear_563_22683" x1="338.359" y1="335.093" x2="173.672" y2="335.093" gradientUnits="userSpaceOnUse">
<stop stop-color="#311B61"/>
<stop offset="0.2" stop-color="#290E52"/>
<stop offset="0.49" stop-color="#200041"/>
<stop offset="1" stop-color="#0F001F"/>
</linearGradient>
<linearGradient id="paint12_linear_563_22683" x1="356.961" y1="142.723" x2="106.667" y2="620.316" gradientUnits="userSpaceOnUse">
<stop stop-color="#5F27BD"/>
<stop offset="0.9" stop-color="#3D065F"/>
</linearGradient>
<linearGradient id="paint13_linear_563_22683" x1="-4388.6" y1="-12578.4" x2="-4373.87" y2="-12535.9" gradientUnits="userSpaceOnUse">
<stop stop-color="#311B61"/>
<stop offset="0.2" stop-color="#290E52"/>
<stop offset="0.49" stop-color="#200041"/>
<stop offset="1" stop-color="#0F001F"/>
</linearGradient>
<linearGradient id="paint14_linear_563_22683" x1="149.831" y1="281.561" x2="170.158" y2="280.673" gradientUnits="userSpaceOnUse">
<stop stop-color="#3D065F"/>
<stop offset="1" stop-color="#5F27BD"/>
</linearGradient>
<radialGradient id="paint15_radial_563_22683" cx="0" cy="0" r="1" gradientUnits="userSpaceOnUse" gradientTransform="translate(160.046 272.883) rotate(180) scale(11.9386 11.9308)">
<stop stop-color="#711F56"/>
<stop offset="0.16" stop-color="#6B1D51"/>
<stop offset="0.36" stop-color="#5C1946"/>
<stop offset="0.58" stop-color="#421232"/>
<stop offset="0.82" stop-color="#1F0818"/>
<stop offset="1"/>
</radialGradient>
<radialGradient id="paint16_radial_563_22683" cx="0" cy="0" r="1" gradientUnits="userSpaceOnUse" gradientTransform="translate(162.122 206.73) rotate(-157.673) scale(36.3493 46.1138)">
<stop stop-color="#972A74"/>
<stop offset="0.04" stop-color="#8A266A"/>
<stop offset="0.19" stop-color="#601A49"/>
<stop offset="0.35" stop-color="#3D112F"/>
<stop offset="0.51" stop-color="#22091A"/>
<stop offset="0.67" stop-color="#0F040B"/>
<stop offset="0.83" stop-color="#030102"/>
<stop offset="1"/>
</radialGradient>
<radialGradient id="paint17_radial_563_22683" cx="0" cy="0" r="1" gradientUnits="userSpaceOnUse" gradientTransform="translate(108.615 336.092) rotate(180) scale(97.8078 96.8335)">
<stop stop-color="#43E8E1"/>
<stop offset="0.28" stop-color="#2FA29D"/>
<stop offset="0.78" stop-color="#0D2E2D"/>
<stop offset="1"/>
</radialGradient>
<radialGradient id="paint18_radial_563_22683" cx="0" cy="0" r="1" gradientUnits="userSpaceOnUse" gradientTransform="translate(406.085 282.134) rotate(180) scale(75.58 75.1299)">
<stop stop-color="#43E8E1"/>
<stop offset="0.28" stop-color="#2FA29D"/>
<stop offset="0.78" stop-color="#0D2E2D"/>
<stop offset="1"/>
</radialGradient>
<linearGradient id="paint19_linear_563_22683" x1="254.421" y1="513.498" x2="215.989" y2="468.637" gradientUnits="userSpaceOnUse">
<stop stop-color="#FDD65B"/>
<stop offset="0.01" stop-color="#F6D058"/>
<stop offset="0.13" stop-color="#BDA044"/>
<stop offset="0.25" stop-color="#8B7532"/>
<stop offset="0.37" stop-color="#605122"/>
<stop offset="0.49" stop-color="#3D3416"/>
<stop offset="0.62" stop-color="#221D0C"/>
<stop offset="0.74" stop-color="#0F0C05"/>
<stop offset="0.87" stop-color="#030301"/>
<stop offset="1"/>
</linearGradient>
<linearGradient id="paint20_linear_563_22683" x1="197.399" y1="529.294" x2="183.745" y2="529.294" gradientUnits="userSpaceOnUse">
<stop stop-color="#A77D69"/>
<stop offset="1" stop-color="#E3C29E"/>
</linearGradient>
<linearGradient id="paint21_linear_563_22683" x1="306.386" y1="501.82" x2="198.647" y2="501.82" gradientUnits="userSpaceOnUse">
<stop stop-color="#A77D69"/>
<stop offset="1" stop-color="#E3C29E"/>
</linearGradient>
<linearGradient id="paint22_linear_563_22683" x1="306.325" y1="475.746" x2="184.966" y2="475.746" gradientUnits="userSpaceOnUse">
<stop stop-color="#A77D69"/>
<stop offset="1" stop-color="#E3C29E"/>
</linearGradient>
<linearGradient id="paint23_linear_563_22683" x1="305.536" y1="402.712" x2="251.505" y2="339.632" gradientUnits="userSpaceOnUse">
<stop stop-color="#43E8E1"/>
<stop offset="0.09" stop-color="#36BCB6"/>
<stop offset="0.22" stop-color="#288B86"/>
<stop offset="0.34" stop-color="#1B605D"/>
<stop offset="0.47" stop-color="#113D3B"/>
<stop offset="0.6" stop-color="#092221"/>
<stop offset="0.73" stop-color="#040F0E"/>
<stop offset="0.86" stop-color="#010303"/>
<stop offset="1"/>
</linearGradient>
<linearGradient id="paint24_linear_563_22683" x1="240.946" y1="420.528" x2="227.292" y2="420.528" gradientUnits="userSpaceOnUse">
<stop stop-color="#A77D69"/>
<stop offset="1" stop-color="#E3C29E"/>
</linearGradient>
<linearGradient id="paint25_linear_563_22683" x1="368.833" y1="387.489" x2="242.386" y2="387.489" gradientUnits="userSpaceOnUse">
<stop stop-color="#A77D69"/>
<stop offset="1" stop-color="#E3C29E"/>
</linearGradient>
<linearGradient id="paint26_linear_563_22683" x1="368.771" y1="352.37" x2="228.722" y2="352.37" gradientUnits="userSpaceOnUse">
<stop stop-color="#A77D69"/>
<stop offset="1" stop-color="#E3C29E"/>
</linearGradient>
<radialGradient id="paint27_radial_563_22683" cx="0" cy="0" r="1" gradientUnits="userSpaceOnUse" gradientTransform="translate(426.275 508.823) rotate(180) scale(49.0604 20.359)">
<stop offset="0.19" stop-color="#5F5C5D"/>
<stop offset="1" stop-color="white"/>
</radialGradient>
<linearGradient id="paint28_linear_563_22683" x1="467.499" y1="463.792" x2="398.425" y2="463.792" gradientUnits="userSpaceOnUse">
<stop stop-color="#A77D69"/>
<stop offset="1" stop-color="#E3C29E"/>
</linearGradient>
<linearGradient id="paint29_linear_563_22683" x1="467.513" y1="510.176" x2="398.439" y2="510.176" gradientUnits="userSpaceOnUse">
<stop stop-color="#ECA12A"/>
<stop offset="0.23" stop-color="#FFFBC9"/>
<stop offset="0.54" stop-color="#DF9300"/>
<stop offset="0.6" stop-color="#DF9403"/>
<stop offset="0.65" stop-color="#E1980E"/>
<stop offset="0.69" stop-color="#E59F1F"/>
<stop offset="0.74" stop-color="#E9A939"/>
<stop offset="0.78" stop-color="#F0B559"/>
<stop offset="0.83" stop-color="#F7C480"/>
<stop offset="0.86" stop-color="#FED2A3"/>
<stop offset="0.97" stop-color="#ECA30A"/>
</linearGradient>
<linearGradient id="paint30_linear_563_22683" x1="467.513" y1="469.601" x2="398.439" y2="469.601" gradientUnits="userSpaceOnUse">
<stop stop-color="#E3E3D8"/>
<stop offset="0.23" stop-color="white"/>
<stop offset="0.54" stop-color="#D4D1C5"/>
<stop offset="0.7" stop-color="#D6D4C8"/>
<stop offset="0.83" stop-color="#DFDED3"/>
<stop offset="0.87" stop-color="#E3E2D7"/>
<stop offset="1" stop-color="#CBC9B9"/>
</linearGradient>
<linearGradient id="paint31_linear_563_22683" x1="367.936" y1="460.294" x2="402.102" y2="519.893" gradientUnits="userSpaceOnUse">
<stop offset="0.04" stop-color="#050911"/>
<stop offset="1" stop-color="#1B6FC9"/>
</linearGradient>
<linearGradient id="paint32_linear_563_22683" x1="365.432" y1="362.143" x2="418.885" y2="431.484" gradientUnits="userSpaceOnUse">
<stop offset="0.04" stop-color="#050911"/>
<stop offset="1" stop-color="#1B6FC9"/>
</linearGradient>
<linearGradient id="paint33_linear_563_22683" x1="420.124" y1="373.255" x2="422.144" y2="373.3" gradientUnits="userSpaceOnUse">
<stop offset="0.04" stop-color="#050911"/>
<stop offset="1" stop-color="#1B6FC9"/>
</linearGradient>
<linearGradient id="paint34_linear_563_22683" x1="415.546" y1="374.454" x2="417.566" y2="374.501" gradientUnits="userSpaceOnUse">
<stop offset="0.04" stop-color="#050911"/>
<stop offset="1" stop-color="#1B6FC9"/>
</linearGradient>
<linearGradient id="paint35_linear_563_22683" x1="410.976" y1="376.094" x2="412.996" y2="376.143" gradientUnits="userSpaceOnUse">
<stop offset="0.04" stop-color="#050911"/>
<stop offset="1" stop-color="#1B6FC9"/>
</linearGradient>
<linearGradient id="paint36_linear_563_22683" x1="424.702" y1="372.531" x2="426.722" y2="372.575" gradientUnits="userSpaceOnUse">
<stop offset="0.04" stop-color="#050911"/>
<stop offset="1" stop-color="#1B6FC9"/>
</linearGradient>
<linearGradient id="paint37_linear_563_22683" x1="401.819" y1="379.295" x2="403.839" y2="379.354" gradientUnits="userSpaceOnUse">
<stop offset="0.04" stop-color="#050911"/>
<stop offset="1" stop-color="#1B6FC9"/>
</linearGradient>
<linearGradient id="paint38_linear_563_22683" x1="397.241" y1="374.975" x2="399.261" y2="375.035" gradientUnits="userSpaceOnUse">
<stop offset="0.04" stop-color="#050911"/>
<stop offset="1" stop-color="#1B6FC9"/>
</linearGradient>
<linearGradient id="paint39_linear_563_22683" x1="406.397" y1="378.44" x2="408.417" y2="378.494" gradientUnits="userSpaceOnUse">
<stop offset="0.04" stop-color="#050911"/>
<stop offset="1" stop-color="#1B6FC9"/>
</linearGradient>
<linearGradient id="paint40_linear_563_22683" x1="429.265" y1="372.207" x2="431.285" y2="372.25" gradientUnits="userSpaceOnUse">
<stop offset="0.04" stop-color="#050911"/>
<stop offset="1" stop-color="#1B6FC9"/>
</linearGradient>
<linearGradient id="paint41_linear_563_22683" x1="433.835" y1="372.188" x2="435.855" y2="372.231" gradientUnits="userSpaceOnUse">
<stop offset="0.04" stop-color="#050911"/>
<stop offset="1" stop-color="#1B6FC9"/>
</linearGradient>
<linearGradient id="paint42_linear_563_22683" x1="443.007" y1="373.16" x2="445.027" y2="373.205" gradientUnits="userSpaceOnUse">
<stop offset="0.04" stop-color="#050911"/>
<stop offset="1" stop-color="#1B6FC9"/>
</linearGradient>
<linearGradient id="paint43_linear_563_22683" x1="438.421" y1="372.493" x2="440.441" y2="372.536" gradientUnits="userSpaceOnUse">
<stop offset="0.04" stop-color="#050911"/>
<stop offset="1" stop-color="#1B6FC9"/>
</linearGradient>
<linearGradient id="paint44_linear_563_22683" x1="447.569" y1="374.304" x2="449.589" y2="374.35" gradientUnits="userSpaceOnUse">
<stop offset="0.04" stop-color="#050911"/>
<stop offset="1" stop-color="#1B6FC9"/>
</linearGradient>
<linearGradient id="paint45_linear_563_22683" x1="465.882" y1="374.158" x2="467.901" y2="374.216" gradientUnits="userSpaceOnUse">
<stop offset="0.04" stop-color="#050911"/>
<stop offset="1" stop-color="#1B6FC9"/>
</linearGradient>
<linearGradient id="paint46_linear_563_22683" x1="461.304" y1="378.914" x2="463.323" y2="378.972" gradientUnits="userSpaceOnUse">
<stop offset="0.04" stop-color="#050911"/>
<stop offset="1" stop-color="#1B6FC9"/>
</linearGradient>
<linearGradient id="paint47_linear_563_22683" x1="452.155" y1="375.905" x2="454.175" y2="375.954" gradientUnits="userSpaceOnUse">
<stop offset="0.04" stop-color="#050911"/>
<stop offset="1" stop-color="#1B6FC9"/>
</linearGradient>
<linearGradient id="paint48_linear_563_22683" x1="456.733" y1="378.173" x2="458.753" y2="378.227" gradientUnits="userSpaceOnUse">
<stop offset="0.04" stop-color="#050911"/>
<stop offset="1" stop-color="#1B6FC9"/>
</linearGradient>
<linearGradient id="paint49_linear_563_22683" x1="365.448" y1="329.528" x2="436.632" y2="401.229" gradientUnits="userSpaceOnUse">
<stop offset="0.04" stop-color="#050911"/>
<stop offset="1" stop-color="#1B6FC9"/>
</linearGradient>
<radialGradient id="paint50_radial_563_22683" cx="0" cy="0" r="1" gradientUnits="userSpaceOnUse" gradientTransform="translate(448.392 412.799) rotate(180) scale(45.7708 45.7403)">
<stop stop-color="white"/>
<stop offset="1"/>
</radialGradient>
<radialGradient id="paint51_radial_563_22683" cx="0" cy="0" r="1" gradientUnits="userSpaceOnUse" gradientTransform="translate(410.665 432.213) rotate(-108.802) scale(7.74856 15.5053)">
<stop stop-color="#F49587"/>
<stop offset="0.12" stop-color="#BC7368"/>
<stop offset="0.24" stop-color="#8B544C"/>
<stop offset="0.36" stop-color="#603A35"/>
<stop offset="0.48" stop-color="#3D2522"/>
<stop offset="0.61" stop-color="#221513"/>
<stop offset="0.74" stop-color="#0F0908"/>
<stop offset="0.86" stop-color="#030202"/>
<stop offset="1"/>
</radialGradient>
<linearGradient id="paint52_linear_563_22683" x1="467.61" y1="450.714" x2="396.169" y2="450.714" gradientUnits="userSpaceOnUse">
<stop offset="0.01" stop-color="#C1A1D5"/>
<stop offset="0.05" stop-color="#C7ABD9"/>
<stop offset="0.11" stop-color="#D9C6E5"/>
<stop offset="0.2" stop-color="#F6F2F9"/>
<stop offset="0.22" stop-color="white"/>
<stop offset="0.25" stop-color="#F9F5FB"/>
<stop offset="0.3" stop-color="#E9DBF1"/>
<stop offset="0.36" stop-color="#D1B4E3"/>
<stop offset="0.43" stop-color="#B294D5"/>
<stop offset="0.49" stop-color="#9B7CCB"/>
<stop offset="0.56" stop-color="#8D6EC5"/>
<stop offset="0.61" stop-color="#8969C3"/>
<stop offset="0.76" stop-color="#9371C5"/>
<stop offset="1" stop-color="#B086CC"/>
</linearGradient>
<radialGradient id="paint53_radial_563_22683" cx="0" cy="0" r="1" gradientUnits="userSpaceOnUse" gradientTransform="translate(451.62 448.192) rotate(180) scale(8.26659 41.3054)">
<stop stop-color="#9DA7B3"/>
<stop offset="0.03" stop-color="#939CA7"/>
<stop offset="0.14" stop-color="#6C737B"/>
<stop offset="0.27" stop-color="#4A4F55"/>
<stop offset="0.39" stop-color="#2F3236"/>
<stop offset="0.52" stop-color="#1A1C1E"/>
<stop offset="0.66" stop-color="#0B0C0D"/>
<stop offset="0.81" stop-color="#020303"/>
<stop offset="1"/>
</radialGradient>
<radialGradient id="paint54_radial_563_22683" cx="0" cy="0" r="1" gradientUnits="userSpaceOnUse" gradientTransform="translate(479.324 531.398) rotate(180) scale(19.3448 8.02767)">
<stop offset="0.19" stop-color="#5F5C5D"/>
<stop offset="1" stop-color="white"/>
</radialGradient>
<linearGradient id="paint55_linear_563_22683" x1="495.478" y1="520.872" x2="466.849" y2="520.872" gradientUnits="userSpaceOnUse">
<stop stop-color="#E3E3D8"/>
<stop offset="0.23" stop-color="white"/>
<stop offset="0.54" stop-color="#D4D1C5"/>
<stop offset="0.7" stop-color="#D6D4C8"/>
<stop offset="0.83" stop-color="#DFDED3"/>
<stop offset="0.87" stop-color="#E3E2D7"/>
<stop offset="1" stop-color="#CBC9B9"/>
</linearGradient>
<radialGradient id="paint56_radial_563_22683" cx="0" cy="0" r="1" gradientUnits="userSpaceOnUse" gradientTransform="translate(487.31 519.655) rotate(180) scale(18.2735 18.2613)">
<stop stop-color="white"/>
<stop offset="1"/>
</radialGradient>
<radialGradient id="paint57_radial_563_22683" cx="0" cy="0" r="1" gradientUnits="userSpaceOnUse" gradientTransform="translate(446.976 536.697) rotate(-108.802) scale(3.09421 6.1917)">
<stop stop-color="#F49587"/>
<stop offset="0.12" stop-color="#BC7368"/>
<stop offset="0.24" stop-color="#8B544C"/>
<stop offset="0.36" stop-color="#603A35"/>
<stop offset="0.48" stop-color="#3D2522"/>
<stop offset="0.61" stop-color="#221513"/>
<stop offset="0.74" stop-color="#0F0908"/>
<stop offset="0.86" stop-color="#030202"/>
<stop offset="1"/>
</radialGradient>
<linearGradient id="paint58_linear_563_22683" x1="454.215" y1="486.419" x2="482.633" y2="515.047" gradientUnits="userSpaceOnUse">
<stop offset="0.04" stop-color="#D4D1D8"/>
<stop offset="0.42" stop-color="#E2E0E5"/>
<stop offset="1" stop-color="white"/>
</linearGradient>
<linearGradient id="paint59_linear_563_22683" x1="492.87" y1="513.95" x2="470.437" y2="513.95" gradientUnits="userSpaceOnUse">
<stop stop-color="#E3E3D8"/>
<stop offset="0.23" stop-color="white"/>
<stop offset="0.54" stop-color="#D4D1C5"/>
<stop offset="0.7" stop-color="#D6D4C8"/>
<stop offset="0.83" stop-color="#DFDED3"/>
<stop offset="0.87" stop-color="#E3E2D7"/>
<stop offset="1" stop-color="#CBC9B9"/>
</linearGradient>
<radialGradient id="paint60_radial_563_22683" cx="0" cy="0" r="1" gradientUnits="userSpaceOnUse" gradientTransform="translate(372.735 556.886) rotate(180) scale(19.3449 8.0277)">
<stop offset="0.19" stop-color="#5F5C5D"/>
<stop offset="1" stop-color="white"/>
</radialGradient>
<linearGradient id="paint61_linear_563_22683" x1="388.806" y1="546.42" x2="360.195" y2="546.42" gradientUnits="userSpaceOnUse">
<stop stop-color="#E3E3D8"/>
<stop offset="0.23" stop-color="white"/>
<stop offset="0.54" stop-color="#D4D1C5"/>
<stop offset="0.7" stop-color="#D6D4C8"/>
<stop offset="0.83" stop-color="#DFDED3"/>
<stop offset="0.87" stop-color="#E3E2D7"/>
<stop offset="1" stop-color="#CBC9B9"/>
</linearGradient>
<radialGradient id="paint62_radial_563_22683" cx="0" cy="0" r="1" gradientUnits="userSpaceOnUse" gradientTransform="translate(380.661 545.203) rotate(180) scale(18.2735 18.2613)">
<stop stop-color="white"/>
<stop offset="1"/>
</radialGradient>
<radialGradient id="paint63_radial_563_22683" cx="0" cy="0" r="1" gradientUnits="userSpaceOnUse" gradientTransform="translate(341.238 561.904) rotate(-108.802) scale(3.09421 6.19167)">
<stop stop-color="#F49587"/>
<stop offset="0.12" stop-color="#BC7368"/>
<stop offset="0.24" stop-color="#8B544C"/>
<stop offset="0.36" stop-color="#603A35"/>
<stop offset="0.48" stop-color="#3D2522"/>
<stop offset="0.61" stop-color="#221513"/>
<stop offset="0.74" stop-color="#0F0908"/>
<stop offset="0.86" stop-color="#030202"/>
<stop offset="1"/>
</radialGradient>
<linearGradient id="paint64_linear_563_22683" x1="347.541" y1="511.984" x2="375.959" y2="540.595" gradientUnits="userSpaceOnUse">
<stop offset="0.04" stop-color="#D4D1D8"/>
<stop offset="0.42" stop-color="#E2E0E5"/>
<stop offset="1" stop-color="white"/>
</linearGradient>
<linearGradient id="paint65_linear_563_22683" x1="386.198" y1="539.498" x2="363.783" y2="539.498" gradientUnits="userSpaceOnUse">
<stop stop-color="#E3E3D8"/>
<stop offset="0.23" stop-color="white"/>
<stop offset="0.54" stop-color="#D4D1C5"/>
<stop offset="0.7" stop-color="#D6D4C8"/>
<stop offset="0.83" stop-color="#DFDED3"/>
<stop offset="0.87" stop-color="#E3E2D7"/>
<stop offset="1" stop-color="#CBC9B9"/>
</linearGradient>
<radialGradient id="paint66_radial_563_22683" cx="0" cy="0" r="1" gradientUnits="userSpaceOnUse" gradientTransform="translate(395.851 531.552) rotate(-159.972) scale(21.1465 7.70062)">
<stop offset="0.19" stop-color="#5F5C5D"/>
<stop offset="1" stop-color="white"/>
</radialGradient>
<linearGradient id="paint67_linear_563_22683" x1="386.218" y1="493.134" x2="417.645" y2="513.795" gradientUnits="userSpaceOnUse">
<stop offset="0.04" stop-color="#050911"/>
<stop offset="1" stop-color="#1B6FC9"/>
</linearGradient>
<linearGradient id="paint68_linear_563_22683" x1="425.078" y1="528.264" x2="418.367" y2="539.92" gradientUnits="userSpaceOnUse">
<stop stop-color="#E3E3D8"/>
<stop offset="0.18" stop-color="white"/>
<stop offset="0.54" stop-color="#D4D1C5"/>
<stop offset="0.7" stop-color="#D6D4C8"/>
<stop offset="0.83" stop-color="#DFDED3"/>
<stop offset="0.87" stop-color="#E3E2D7"/>
<stop offset="1" stop-color="#CBC9B9"/>
</linearGradient>
<radialGradient id="paint69_radial_563_22683" cx="0" cy="0" r="1" gradientUnits="userSpaceOnUse" gradientTransform="translate(478.567 422.013) rotate(-60.4835) scale(2.70676 9.02567)">
<stop stop-color="#F49587"/>
<stop offset="0.12" stop-color="#BC7368"/>
<stop offset="0.24" stop-color="#8B544C"/>
<stop offset="0.36" stop-color="#603A35"/>
<stop offset="0.48" stop-color="#3D2522"/>
<stop offset="0.61" stop-color="#221513"/>
<stop offset="0.74" stop-color="#0F0908"/>
<stop offset="0.86" stop-color="#030202"/>
<stop offset="1"/>
</radialGradient>
<radialGradient id="paint70_radial_563_22683" cx="0" cy="0" r="1" gradientUnits="userSpaceOnUse" gradientTransform="translate(430.225 534.438) rotate(180) scale(5.18618 5.18276)">
<stop stop-color="#F49587"/>
<stop offset="0.12" stop-color="#BC7368"/>
<stop offset="0.24" stop-color="#8B544C"/>
<stop offset="0.36" stop-color="#603A35"/>
<stop offset="0.48" stop-color="#3D2522"/>
<stop offset="0.61" stop-color="#221513"/>
<stop offset="0.74" stop-color="#0F0908"/>
<stop offset="0.86" stop-color="#030202"/>
<stop offset="1"/>
</radialGradient>
<radialGradient id="paint71_radial_563_22683" cx="0" cy="0" r="1" gradientUnits="userSpaceOnUse" gradientTransform="translate(366.255 522.375) rotate(149.477) scale(19.3415 8.02907)">
<stop offset="0.19" stop-color="#5F5C5D"/>
<stop offset="1" stop-color="white"/>
</radialGradient>
<linearGradient id="paint72_linear_563_22683" x1="374.861" y1="504.785" x2="381.52" y2="516.337" gradientUnits="userSpaceOnUse">
<stop stop-color="#E3E3D8"/>
<stop offset="0.18" stop-color="white"/>
<stop offset="0.54" stop-color="#D4D1C5"/>
<stop offset="0.7" stop-color="#D6D4C8"/>
<stop offset="0.83" stop-color="#DFDED3"/>
<stop offset="0.87" stop-color="#E3E2D7"/>
<stop offset="1" stop-color="#CBC9B9"/>
</linearGradient>
<linearGradient id="paint73_linear_563_22683" x1="341.783" y1="487.012" x2="373.545" y2="508.462" gradientUnits="userSpaceOnUse">
<stop offset="0.04" stop-color="#050911"/>
<stop offset="1" stop-color="#1B6FC9"/>
</linearGradient>
<radialGradient id="paint74_radial_563_22683" cx="0" cy="0" r="1" gradientUnits="userSpaceOnUse" gradientTransform="translate(289.115 485.197) rotate(-119.516) scale(2.70677 9.02565)">
<stop stop-color="#F49587"/>
<stop offset="0.12" stop-color="#BC7368"/>
<stop offset="0.24" stop-color="#8B544C"/>
<stop offset="0.36" stop-color="#603A35"/>
<stop offset="0.48" stop-color="#3D2522"/>
<stop offset="0.61" stop-color="#221513"/>
<stop offset="0.74" stop-color="#0F0908"/>
<stop offset="0.86" stop-color="#030202"/>
<stop offset="1"/>
</radialGradient>
<radialGradient id="paint75_radial_563_22683" cx="0" cy="0" r="1" gradientUnits="userSpaceOnUse" gradientTransform="translate(354.912 520.785) scale(5.18621 5.18273)">
<stop stop-color="#F49587"/>
<stop offset="0.12" stop-color="#BC7368"/>
<stop offset="0.24" stop-color="#8B544C"/>
<stop offset="0.36" stop-color="#603A35"/>
<stop offset="0.48" stop-color="#3D2522"/>
<stop offset="0.61" stop-color="#221513"/>
<stop offset="0.74" stop-color="#0F0908"/>
<stop offset="0.86" stop-color="#030202"/>
<stop offset="1"/>
</radialGradient>
<linearGradient id="paint76_linear_563_22683" x1="339.001" y1="248.865" x2="247.569" y2="205.756" gradientUnits="userSpaceOnUse">
<stop stop-color="#43E8E1"/>
<stop offset="0.09" stop-color="#36BCB6"/>
<stop offset="0.22" stop-color="#288B86"/>
<stop offset="0.34" stop-color="#1B605D"/>
<stop offset="0.47" stop-color="#113D3B"/>
<stop offset="0.6" stop-color="#092221"/>
<stop offset="0.73" stop-color="#040F0E"/>
<stop offset="0.86" stop-color="#010303"/>
<stop offset="1"/>
</linearGradient>
<linearGradient id="paint77_linear_563_22683" x1="214.356" y1="105.658" x2="368.148" y2="198.236" gradientUnits="userSpaceOnUse">
<stop offset="0.04" stop-color="#A77D69"/>
<stop offset="1" stop-color="#C0966A"/>
</linearGradient>
<linearGradient id="paint78_linear_563_22683" x1="320.293" y1="307.579" x2="325.003" y2="240.307" gradientUnits="userSpaceOnUse">
<stop offset="0.04" stop-color="#6B24D6"/>
<stop offset="0.29" stop-color="#7733DC"/>
<stop offset="0.79" stop-color="#965BEC"/>
<stop offset="1" stop-color="#A56EF4"/>
</linearGradient>
<radialGradient id="paint79_radial_563_22683" cx="0" cy="0" r="1" gradientUnits="userSpaceOnUse" gradientTransform="translate(317.566 235.886) rotate(166.479) scale(31.6858 20.9324)">
<stop offset="0.19" stop-color="#5F5C5D"/>
<stop offset="1" stop-color="white"/>
</radialGradient>
<linearGradient id="paint80_linear_563_22683" x1="346.511" y1="261.995" x2="327.002" y2="261.995" gradientUnits="userSpaceOnUse">
<stop stop-color="white"/>
<stop offset="1" stop-color="#BCBEC0"/>
</linearGradient>
<radialGradient id="paint81_radial_563_22683" cx="0" cy="0" r="1" gradientUnits="userSpaceOnUse" gradientTransform="translate(321.305 246.464) rotate(180) scale(56.091 56.0536)">
<stop stop-color="white"/>
<stop offset="0.73" stop-color="#D4D1D8"/>
<stop offset="0.98" stop-color="#C2C0CC"/>
</radialGradient>
<radialGradient id="paint82_radial_563_22683" cx="0" cy="0" r="1" gradientUnits="userSpaceOnUse" gradientTransform="translate(296.051 260.813) rotate(180) scale(65.9238 65.88)">
<stop stop-color="white"/>
<stop offset="0.73" stop-color="#D4D1D8"/>
<stop offset="0.98" stop-color="#C2C0CC"/>
</radialGradient>
<radialGradient id="paint83_radial_563_22683" cx="0" cy="0" r="1" gradientUnits="userSpaceOnUse" gradientTransform="translate(317.494 227.577) rotate(180) scale(145.527 145.43)">
<stop offset="0.38" stop-color="white"/>
<stop offset="0.46" stop-color="#F8F7FB"/>
<stop offset="0.58" stop-color="#E7E3F1"/>
<stop offset="0.73" stop-color="#CBC1E0"/>
<stop offset="0.89" stop-color="#A493C9"/>
<stop offset="1" stop-color="#8770B8"/>
</radialGradient>
<linearGradient id="paint84_linear_563_22683" x1="357.944" y1="280.639" x2="356.797" y2="223.02" gradientUnits="userSpaceOnUse">
<stop stop-color="white"/>
<stop offset="1" stop-color="#BCBEC0"/>
</linearGradient>
<radialGradient id="paint85_radial_563_22683" cx="0" cy="0" r="1" gradientUnits="userSpaceOnUse" gradientTransform="translate(317.492 227.577) rotate(180) scale(145.527 145.43)">
<stop offset="0.38" stop-color="white"/>
<stop offset="0.46" stop-color="#F8F7FB"/>
<stop offset="0.58" stop-color="#E7E3F1"/>
<stop offset="0.73" stop-color="#CBC1E0"/>
<stop offset="0.89" stop-color="#A493C9"/>
<stop offset="1" stop-color="#8770B8"/>
</radialGradient>
<radialGradient id="paint86_radial_563_22683" cx="0" cy="0" r="1" gradientUnits="userSpaceOnUse" gradientTransform="translate(317.497 227.577) rotate(180) scale(145.51 145.412)">
<stop offset="0.38" stop-color="white"/>
<stop offset="0.47" stop-color="#F4F2F8"/>
<stop offset="0.63" stop-color="#D7CFE7"/>
<stop offset="0.85" stop-color="#A999CC"/>
<stop offset="1" stop-color="#8770B8"/>
</radialGradient>
<linearGradient id="paint87_linear_563_22683" x1="272.723" y1="183.1" x2="330.102" y2="223.113" gradientUnits="userSpaceOnUse">
<stop offset="0.04" stop-color="#A77D69"/>
<stop offset="1" stop-color="#C0966A"/>
</linearGradient>
<linearGradient id="paint88_linear_563_22683" x1="322.514" y1="274.065" x2="279.719" y2="274.065" gradientUnits="userSpaceOnUse">
<stop stop-color="white"/>
<stop offset="1" stop-color="#BCBEC0"/>
</linearGradient>
<radialGradient id="paint89_radial_563_22683" cx="0" cy="0" r="1" gradientUnits="userSpaceOnUse" gradientTransform="translate(298.957 246.012) rotate(180) scale(91.1413 91.0806)">
<stop stop-color="white"/>
<stop offset="0.73" stop-color="#D4D1D8"/>
<stop offset="0.98" stop-color="#C2C0CC"/>
</radialGradient>
<linearGradient id="paint90_linear_563_22683" x1="256.686" y1="133.995" x2="358.841" y2="189.367" gradientUnits="userSpaceOnUse">
<stop offset="0.04" stop-color="#A77D69"/>
<stop offset="1" stop-color="#C0966A"/>
</linearGradient>
<linearGradient id="paint91_linear_563_22683" x1="260.271" y1="138.568" x2="357.422" y2="191.032" gradientUnits="userSpaceOnUse">
<stop offset="0.04" stop-color="#A77D69"/>
<stop offset="1" stop-color="#C0966A"/>
</linearGradient>
<radialGradient id="paint92_radial_563_22683" cx="0" cy="0" r="1" gradientUnits="userSpaceOnUse" gradientTransform="translate(324.953 227.594) rotate(180) scale(144.987 144.891)">
<stop stop-color="white"/>
<stop offset="0.73" stop-color="#D4D1D8"/>
<stop offset="0.98" stop-color="#C2C0CC"/>
</radialGradient>
<linearGradient id="paint93_linear_563_22683" x1="349.996" y1="259" x2="353.1" y2="261.561" gradientUnits="userSpaceOnUse">
<stop offset="0.04" stop-color="#A77D69"/>
<stop offset="1" stop-color="#C0966A"/>
</linearGradient>
<linearGradient id="paint94_linear_563_22683" x1="281.285" y1="230.725" x2="322.302" y2="242.141" gradientUnits="userSpaceOnUse">
<stop offset="0.04" stop-color="#A77D69"/>
<stop offset="1" stop-color="#C0966A"/>
</linearGradient>
<linearGradient id="paint95_linear_563_22683" x1="295.996" y1="284.5" x2="310.807" y2="276.107" gradientUnits="userSpaceOnUse">
<stop offset="0.04" stop-color="#A77D69"/>
<stop offset="1" stop-color="#C0966A"/>
</linearGradient>
<linearGradient id="paint96_linear_563_22683" x1="283.006" y1="261.384" x2="312.865" y2="280.072" gradientUnits="userSpaceOnUse">
<stop offset="0.04" stop-color="#A77D69"/>
<stop offset="0.735945" stop-color="#A77D69"/>
<stop offset="1" stop-color="#C0966A"/>
</linearGradient>
<linearGradient id="paint97_linear_563_22683" x1="284.055" y1="263.27" x2="312.214" y2="280.978" gradientUnits="userSpaceOnUse">
<stop offset="0.04" stop-color="#A77D69"/>
<stop offset="1" stop-color="#C0966A"/>
</linearGradient>
<linearGradient id="paint98_linear_563_22683" x1="307.422" y1="307.504" x2="315.304" y2="310.947" gradientUnits="userSpaceOnUse">
<stop offset="0.04" stop-color="#A77D69"/>
<stop offset="1" stop-color="#C0966A"/>
</linearGradient>
<linearGradient id="paint99_linear_563_22683" x1="310.277" y1="311.309" x2="313.986" y2="312.529" gradientUnits="userSpaceOnUse">
<stop offset="0.04" stop-color="#A77D69"/>
<stop offset="1" stop-color="#C0966A"/>
</linearGradient>
<linearGradient id="paint100_linear_563_22683" x1="312.098" y1="313.473" x2="313.17" y2="313.633" gradientUnits="userSpaceOnUse">
<stop offset="0.04" stop-color="#A77D69"/>
<stop offset="1" stop-color="#C0966A"/>
</linearGradient>
<linearGradient id="paint101_linear_563_22683" x1="287.828" y1="318.809" x2="295.711" y2="322.252" gradientUnits="userSpaceOnUse">
<stop offset="0.04" stop-color="#A77D69"/>
<stop offset="1" stop-color="#C0966A"/>
</linearGradient>
<linearGradient id="paint102_linear_563_22683" x1="290.698" y1="322.614" x2="294.408" y2="323.834" gradientUnits="userSpaceOnUse">
<stop offset="0.04" stop-color="#A77D69"/>
<stop offset="1" stop-color="#C0966A"/>
</linearGradient>
<linearGradient id="paint103_linear_563_22683" x1="292.496" y1="324.778" x2="293.569" y2="324.938" gradientUnits="userSpaceOnUse">
<stop offset="0.04" stop-color="#A77D69"/>
<stop offset="1" stop-color="#C0966A"/>
</linearGradient>
<linearGradient id="paint104_linear_563_22683" x1="347.996" y1="265" x2="348.358" y2="261.705" gradientUnits="userSpaceOnUse">
<stop offset="0.04" stop-color="#A77D69"/>
<stop offset="1" stop-color="#C0966A"/>
</linearGradient>
<linearGradient id="paint105_linear_563_22683" x1="345.893" y1="247.416" x2="355.759" y2="251.92" gradientUnits="userSpaceOnUse">
<stop offset="0.801291" stop-color="#A77D69"/>
<stop offset="1" stop-color="#C0966A"/>
</linearGradient>
<radialGradient id="paint106_radial_563_22683" cx="0" cy="0" r="1" gradientUnits="userSpaceOnUse" gradientTransform="translate(321.507 244.03) rotate(180) scale(13.4876 13.4786)">
<stop stop-color="white"/>
<stop offset="1"/>
</radialGradient>
<radialGradient id="paint107_radial_563_22683" cx="0" cy="0" r="1" gradientUnits="userSpaceOnUse" gradientTransform="translate(324.408 191.976) rotate(180) scale(40.1843 40.1576)">
<stop offset="0.03" stop-color="#FEDFCB"/>
<stop offset="1" stop-color="#F9B69E"/>
</radialGradient>
<linearGradient id="paint108_linear_563_22683" x1="313.827" y1="236.047" x2="329.115" y2="220.941" gradientUnits="userSpaceOnUse">
<stop stop-color="white"/>
<stop offset="1" stop-color="#DBAC9B"/>
</linearGradient>
<linearGradient id="paint109_linear_563_22683" x1="344.889" y1="179.28" x2="328.366" y2="194.944" gradientUnits="userSpaceOnUse">
<stop stop-color="white"/>
<stop offset="1"/>
</linearGradient>
<linearGradient id="paint110_linear_563_22683" x1="298.078" y1="171.558" x2="288.063" y2="188.573" gradientUnits="userSpaceOnUse">
<stop stop-color="white"/>
<stop offset="1" stop-color="#BCBEC0"/>
</linearGradient>
<linearGradient id="paint111_linear_563_22683" x1="294.592" y1="196.376" x2="287.824" y2="193.19" gradientUnits="userSpaceOnUse">
<stop stop-color="white"/>
<stop offset="1" stop-color="#BCBEC0"/>
</linearGradient>
<linearGradient id="paint112_linear_563_22683" x1="323.478" y1="195.733" x2="329.909" y2="159.017" gradientUnits="userSpaceOnUse">
<stop stop-color="white"/>
<stop offset="1" stop-color="#BCBEC0"/>
</linearGradient>
<linearGradient id="paint113_linear_563_22683" x1="215.711" y1="337.58" x2="164.915" y2="303.27" gradientUnits="userSpaceOnUse">
<stop stop-color="#C211A1"/>
<stop offset="0.01" stop-color="#BC109C"/>
<stop offset="0.15" stop-color="#8B0C73"/>
<stop offset="0.29" stop-color="#60084F"/>
<stop offset="0.42" stop-color="#3D0533"/>
<stop offset="0.56" stop-color="#22031C"/>
<stop offset="0.7" stop-color="#0F010C"/>
<stop offset="0.85" stop-color="#030003"/>
<stop offset="1"/>
</linearGradient>
<linearGradient id="paint114_linear_563_22683" x1="207.231" y1="353.361" x2="182.989" y2="348.044" gradientUnits="userSpaceOnUse">
<stop offset="0.276042" stop-color="#603C9E"/>
<stop offset="1" stop-color="#AE4BD0"/>
</linearGradient>
<linearGradient id="paint115_linear_563_22683" x1="249.496" y1="350.373" x2="201.001" y2="331.359" gradientUnits="userSpaceOnUse">
<stop offset="0.276042" stop-color="#603C9E"/>
<stop offset="1" stop-color="#AE4BD0"/>
</linearGradient>
<linearGradient id="paint116_linear_563_22683" x1="255.792" y1="320.279" x2="219.719" y2="279.899" gradientUnits="userSpaceOnUse">
<stop offset="0.276042" stop-color="#603C9E"/>
<stop offset="1" stop-color="#AE4BD0"/>
</linearGradient>
<linearGradient id="paint117_linear_563_22683" x1="215.711" y1="286.744" x2="164.915" y2="252.451" gradientUnits="userSpaceOnUse">
<stop stop-color="#C211A1"/>
<stop offset="0.01" stop-color="#BC109C"/>
<stop offset="0.15" stop-color="#8B0C73"/>
<stop offset="0.29" stop-color="#60084F"/>
<stop offset="0.42" stop-color="#3D0533"/>
<stop offset="0.56" stop-color="#22031C"/>
<stop offset="0.7" stop-color="#0F010C"/>
<stop offset="0.85" stop-color="#030003"/>
<stop offset="1"/>
</linearGradient>
<linearGradient id="paint118_linear_563_22683" x1="207.231" y1="302.538" x2="182.988" y2="297.223" gradientUnits="userSpaceOnUse">
<stop offset="0.276042" stop-color="#603C9E"/>
<stop offset="1" stop-color="#AE4BD0"/>
</linearGradient>
<linearGradient id="paint119_linear_563_22683" x1="249.496" y1="299.549" x2="200.998" y2="280.539" gradientUnits="userSpaceOnUse">
<stop offset="0.276042" stop-color="#603C9E"/>
<stop offset="1" stop-color="#AE4BD0"/>
</linearGradient>
<linearGradient id="paint120_linear_563_22683" x1="255.792" y1="269.443" x2="219.719" y2="229.063" gradientUnits="userSpaceOnUse">
<stop offset="0.276042" stop-color="#603C9E"/>
<stop offset="1" stop-color="#AE4BD0"/>
</linearGradient>
<linearGradient id="paint121_linear_563_22683" x1="215.711" y1="234.708" x2="164.915" y2="200.397" gradientUnits="userSpaceOnUse">
<stop stop-color="#C211A1"/>
<stop offset="0.01" stop-color="#BC109C"/>
<stop offset="0.15" stop-color="#8B0C73"/>
<stop offset="0.29" stop-color="#60084F"/>
<stop offset="0.42" stop-color="#3D0533"/>
<stop offset="0.56" stop-color="#22031C"/>
<stop offset="0.7" stop-color="#0F010C"/>
<stop offset="0.85" stop-color="#030003"/>
<stop offset="1"/>
</linearGradient>
<linearGradient id="paint122_linear_563_22683" x1="207.231" y1="250.489" x2="182.989" y2="245.172" gradientUnits="userSpaceOnUse">
<stop offset="0.276042" stop-color="#603C9E"/>
<stop offset="1" stop-color="#AE4BD0"/>
</linearGradient>
<linearGradient id="paint123_linear_563_22683" x1="249.496" y1="247.5" x2="201.001" y2="228.486" gradientUnits="userSpaceOnUse">
<stop offset="0.276042" stop-color="#603C9E"/>
<stop offset="1" stop-color="#AE4BD0"/>
</linearGradient>
<linearGradient id="paint124_linear_563_22683" x1="255.792" y1="217.407" x2="219.719" y2="177.027" gradientUnits="userSpaceOnUse">
<stop offset="0.276042" stop-color="#603C9E"/>
<stop offset="1" stop-color="#AE4BD0"/>
</linearGradient>
<radialGradient id="paint125_radial_563_22683" cx="0" cy="0" r="1" gradientUnits="userSpaceOnUse" gradientTransform="translate(406.706 30.262) rotate(-153.014) scale(52.905 23.2773)">
<stop stop-color="#972A74"/>
<stop offset="0.04" stop-color="#8A266A"/>
<stop offset="0.19" stop-color="#601A49"/>
<stop offset="0.35" stop-color="#3D112F"/>
<stop offset="0.51" stop-color="#22091A"/>
<stop offset="0.67" stop-color="#0F040B"/>
<stop offset="0.83" stop-color="#030102"/>
<stop offset="1"/>
</radialGradient>
<radialGradient id="paint126_radial_563_22683" cx="0" cy="0" r="1" gradientUnits="userSpaceOnUse" gradientTransform="translate(340.972 98.1487) rotate(-153.105) scale(42.5678 54.1559)">
<stop stop-color="#972A74"/>
<stop offset="0.04" stop-color="#8A266A"/>
<stop offset="0.19" stop-color="#601A49"/>
<stop offset="0.35" stop-color="#3D112F"/>
<stop offset="0.51" stop-color="#22091A"/>
<stop offset="0.67" stop-color="#0F040B"/>
<stop offset="0.83" stop-color="#030102"/>
<stop offset="1"/>
</radialGradient>
<radialGradient id="paint127_radial_563_22683" cx="0" cy="0" r="1" gradientUnits="userSpaceOnUse" gradientTransform="translate(291.855 276.28) rotate(-172.268) scale(19.4557 33.5472)">
<stop stop-color="#271273"/>
<stop offset="0.08" stop-color="#200F5F"/>
<stop offset="0.26" stop-color="#14093D"/>
<stop offset="0.44" stop-color="#0B0522"/>
<stop offset="0.62" stop-color="#05020F"/>
<stop offset="0.81" stop-color="#010003"/>
<stop offset="1"/>
</radialGradient>
</defs>
</svg>
