<svg width="80" height="80" viewBox="0 0 80 80" fill="none" xmlns="http://www.w3.org/2000/svg">
<g clip-path="url(#clip0_443_19533)">
<path d="M79.997 40.0015C79.997 34.4311 78.8208 28.9388 76.604 23.8932C79.52 19.0139 80.1311 15.1938 78.3487 12.6908C77.1721 11.0387 75.1267 10.1773 72.2622 10.1208C71.3741 7.95896 69.2467 6.43214 66.7685 6.43214C65.4949 6.43214 64.315 6.8365 63.347 7.52163C58.5778 4.09113 53.0529 1.72856 47.2956 0.667352C46.4473 0.51017 45.6322 1.07202 45.4758 1.92059C45.3194 2.76931 45.8805 3.58396 46.729 3.74036C51.967 4.70611 56.9954 6.8429 61.3529 9.94029C61.0187 10.6824 60.8312 11.5041 60.8312 12.3693C60.8312 12.4214 60.8338 12.4733 60.8351 12.5252C56.5992 14.0483 51.8557 16.2541 46.9139 18.9745C47.0375 18.4518 47.1048 17.9078 47.1048 17.348V14.9756C47.1048 11.0779 43.9338 7.90677 40.036 7.90677C36.1382 7.90677 32.9672 11.0777 32.9672 14.9756V17.3481C32.9672 17.9047 33.0339 18.4454 33.156 18.9653C28.1986 16.2376 23.4554 14.0403 19.2369 12.5243C19.2383 12.4725 19.2408 12.4213 19.2408 12.3694C19.2408 11.4887 19.0466 10.6529 18.701 9.90045C23.052 6.82025 28.0683 4.69564 33.2922 3.73583C34.1409 3.58006 34.7026 2.76556 34.5467 1.91684C34.3908 1.06812 33.5761 0.505639 32.7277 0.662509C26.976 1.71903 21.4553 4.07394 16.6877 7.49491C15.7268 6.82587 14.5606 6.43198 13.3036 6.43198C10.8248 6.43198 8.69718 7.95942 7.80924 10.122C4.94591 10.1789 2.89895 11.0398 1.72337 12.6907C-0.0517169 15.1834 0.545605 18.9768 3.42487 23.8207C1.18746 28.886 0 34.4039 0 40.0014C0 45.5766 1.17511 51.0669 3.39206 56.1109C0.476545 60.9889 -0.135464 64.807 1.64838 67.3118C2.83974 68.9847 4.92201 69.8454 7.84315 69.8824C8.73327 72.04 10.8585 73.5631 13.3337 73.5631C14.5823 73.5631 15.7413 73.1748 16.6983 72.5141C23.5154 77.4147 31.5435 79.9999 39.9985 79.9999C48.4676 79.9999 56.5107 77.4051 63.3361 72.4873C64.3004 73.1644 65.4734 73.5632 66.7383 73.5632C69.2135 73.5632 71.3388 72.0402 72.2289 69.8826C75.1497 69.8454 77.2324 68.9845 78.4235 67.3119C80.2162 64.7945 79.5895 60.9507 76.6362 56.0378C78.8325 51.0127 79.997 45.5469 79.997 40.0015ZM76.8721 40.0015C76.8721 44.4276 76.067 48.7985 74.5375 52.8985C73.9587 52.1062 73.3321 51.2928 72.6517 50.4564C69.9091 47.085 66.4857 43.5356 62.5611 39.9673C66.5717 36.3151 70.0522 32.6871 72.8096 29.2585C73.4204 28.4991 73.9865 27.7588 74.5126 27.0362C76.0587 31.1564 76.8721 35.5518 76.8721 40.0015ZM72.6384 13.262C73.9149 13.3369 75.1938 13.6478 75.8031 14.5034C76.6076 15.6332 76.1259 17.5628 75.58 18.9826C75.3963 19.4604 75.1716 19.9635 74.9118 20.4866C73.9705 18.7998 72.9045 17.1791 71.7209 15.6385C72.1864 14.936 72.507 14.1298 72.6384 13.262ZM66.7685 9.55687C68.3192 9.55687 69.5809 10.8185 69.5809 12.3693C69.5809 13.92 68.3192 15.1817 66.7685 15.1817C65.2177 15.1817 63.9561 13.92 63.9561 12.3693C63.9561 10.8185 65.2176 9.55687 66.7685 9.55687ZM61.7402 15.5207C62.7917 17.1924 64.652 18.3065 66.7685 18.3065C67.7003 18.3065 68.5821 18.0901 69.3677 17.7061C70.7875 19.5756 72.0192 21.5725 73.0512 23.6643C72.2828 24.8221 71.388 26.0402 70.3746 27.3003C67.6573 30.6789 64.2032 34.2656 60.2117 37.881C57.3677 35.4131 54.3011 32.951 51.0676 30.547H60.7109C63.2544 30.547 65.3237 28.4777 65.3237 25.9342C65.3237 23.3907 63.2544 21.3214 60.7109 21.3214H49.1301C53.6077 18.8923 57.8929 16.9147 61.7402 15.5207ZM30.4959 66.873L33.131 52.3756C34.4095 53.2693 35.6879 54.1374 36.9628 54.9771L33.9659 67.6064C33.7478 68.5259 32.8485 69.1115 31.9193 68.9415C31.4534 68.8558 31.0485 68.5937 30.7796 68.2036C30.5106 67.8136 30.4097 67.3422 30.4959 66.873ZM22.2207 39.969C25.2825 37.3288 28.6088 34.6936 32.1249 32.1309V40.4363L30.9415 46.9467C27.8601 44.6559 24.9364 42.3142 22.2207 39.969ZM33.7469 48.987L34.9915 42.1396H45.0393L47.8934 57.9596C46.3041 57.0738 44.6941 56.1336 43.0743 55.1453L41.5189 48.5906C41.3517 47.8861 40.7226 47.3889 39.9987 47.3889C39.2748 47.3889 38.6456 47.8862 38.4784 48.5906L37.7325 51.7337C36.4005 50.8447 35.0699 49.9285 33.7469 48.987ZM48.6085 61.9248L49.5018 66.8763C49.5874 67.3422 49.4864 67.8138 49.2175 68.2038C48.9487 68.5939 48.5438 68.8559 48.0777 68.9417C47.1479 69.1109 46.2492 68.5259 46.0311 67.6066L44.0837 59.3999C45.6091 60.289 47.1197 61.1325 48.6085 61.9248ZM49.0874 46.9783L47.9073 40.4373V32.102C51.4378 34.6737 54.7773 37.3185 57.8504 39.9684C55.123 42.3241 52.1845 44.6771 49.0874 46.9783ZM60.711 24.4462C61.5315 24.4462 62.1989 25.1136 62.1989 25.9341C62.1989 26.7545 61.5315 27.422 60.711 27.422H46.345C45.4821 27.422 44.7826 28.1216 44.7826 28.9844V39.0145H35.2498V29.9078C38.0561 27.9606 40.8835 26.1302 43.6773 24.446L60.711 24.4462ZM36.0921 14.9756C36.0921 12.8008 37.8614 11.0317 40.036 11.0317C42.2106 11.0317 43.9799 12.8008 43.9799 14.9756V17.3481C43.9799 19.5229 42.2106 21.2921 40.036 21.2921C37.8614 21.2921 36.0921 19.5229 36.0921 17.3481V14.9756ZM37.7841 24.4462C36.3047 25.4041 34.8248 26.3981 33.3516 27.4221H19.2862C18.4657 27.4221 17.7982 26.7547 17.7982 25.9342C17.7982 25.1138 18.4657 24.4463 19.2862 24.4463H37.7841V24.4462ZM13.3036 9.55687C14.8543 9.55687 16.116 10.8185 16.116 12.3693C16.116 13.92 14.8543 15.1817 13.3036 15.1817C11.7528 15.1817 10.4912 13.92 10.4912 12.3693C10.4912 10.8185 11.7528 9.55687 13.3036 9.55687ZM10.6504 17.6784C11.4496 18.0795 12.3503 18.3067 13.3036 18.3067C15.4202 18.3067 17.2805 17.1925 18.332 15.5207C22.1625 16.908 26.4514 18.8811 30.9517 21.3213H19.2862C16.7427 21.3213 14.6734 23.3906 14.6734 25.9341C14.6734 28.4776 16.7427 30.5469 19.2862 30.5469H29.0044C25.7708 32.951 22.704 35.4133 19.8599 37.8813C15.9819 34.3686 12.6081 30.8797 9.91948 27.5743C8.74686 26.1328 7.77549 24.8113 6.97599 23.6034C8.00689 21.5235 9.23559 19.5377 10.6504 17.6784ZM4.26875 14.5034C4.88326 13.6403 6.18602 13.3361 7.43363 13.262C7.56175 14.1081 7.87033 14.8953 8.31688 15.5852C7.13286 17.1208 6.06556 18.7364 5.12294 20.418C3.65033 17.4144 3.58565 15.4626 4.26875 14.5034ZM3.12488 40.0015C3.12488 35.5272 3.94688 31.1076 5.50964 26.9679C6.11555 27.8031 6.77584 28.6621 7.49519 29.5464C10.2202 32.8963 13.6173 36.4221 17.5106 39.9675C13.5861 43.5358 10.1627 47.085 7.42019 50.4564C6.72022 51.3169 6.07681 52.1531 5.48433 52.967C3.9386 48.8482 3.12488 44.4545 3.12488 40.0015ZM7.46191 66.7468C6.1443 66.6829 4.81841 66.3762 4.19375 65.4993C3.50518 64.5325 3.57627 62.5568 5.08356 59.5117C6.03978 61.2253 7.12427 62.8714 8.33078 64.4347C7.8908 65.1225 7.58737 65.9057 7.46191 66.7468ZM13.3337 70.4384C11.783 70.4384 10.5213 69.1767 10.5213 67.626C10.5213 66.0752 11.783 64.8136 13.3337 64.8136C14.8844 64.8136 16.1461 66.0752 16.1461 67.626C16.1461 69.1767 14.8844 70.4384 13.3337 70.4384ZM13.3337 61.6887C12.3699 61.6887 11.4597 61.921 10.6541 62.3304C9.22247 60.4493 7.98174 58.4401 6.94318 56.335C7.73471 55.1446 8.69265 53.8441 9.84448 52.4282C12.5502 49.1021 15.9494 45.5901 19.8582 42.055C23.0843 44.8585 26.5998 47.6551 30.3197 50.3683L28.5886 59.8925C24.9339 61.7754 21.4969 63.3049 18.3465 64.4503C17.2923 62.7921 15.4401 61.6887 13.3337 61.6887ZM39.9985 76.8752C32.2866 76.8752 24.9602 74.5434 18.7201 70.1195C19.0727 69.3607 19.271 68.5164 19.271 67.6261C19.271 67.5639 19.2682 67.5024 19.2663 67.4405C21.9603 66.468 24.8475 65.2295 27.8891 63.7413L27.422 66.3112C27.1852 67.5982 27.4641 68.9001 28.2068 69.9776C28.9494 71.055 30.0673 71.7785 31.3543 72.015C33.9214 72.487 36.4038 70.8674 37.0064 68.328L39.7487 56.7718C39.9446 56.8951 40.1399 57.0165 40.3355 57.1385L42.9907 68.328C43.5231 70.5713 45.5224 72.0967 47.751 72.0966C48.0451 72.0966 48.3435 72.07 48.6429 72.015C49.9299 71.7785 51.0478 71.0549 51.7904 69.9776C52.5332 68.9001 52.8119 67.5982 52.5763 66.3163L52.1065 63.7122C55.1411 65.1976 58.0596 66.4504 60.8059 67.4407C60.804 67.5024 60.8012 67.5639 60.8012 67.6261C60.8012 68.5005 60.9927 69.3303 61.3335 70.0785C55.0808 74.5285 47.7326 76.8752 39.9985 76.8752ZM66.7383 70.4384C65.1876 70.4384 63.9259 69.1767 63.9259 67.626C63.9259 66.0752 65.1876 64.8136 66.7383 64.8136C68.289 64.8136 69.5507 66.0752 69.5507 67.626C69.5507 69.1767 68.289 70.4384 66.7383 70.4384ZM69.3634 62.3024C68.5712 61.9102 67.6803 61.6887 66.7381 61.6887C64.6321 61.6887 62.7802 62.7918 61.7258 64.4495C58.5395 63.2897 55.0541 61.7304 51.409 59.8477L49.705 50.4025C53.4416 47.6789 56.9743 44.8698 60.2136 42.0549C64.1223 45.5901 67.5217 49.1021 70.2274 52.4282C71.3578 53.8179 72.3025 55.0969 73.0854 56.2693C72.0455 58.3883 70.8008 60.4104 69.3634 62.3024ZM75.8781 65.4993C75.2525 66.3779 73.9219 66.6835 72.6101 66.7472C72.4815 65.8845 72.1659 65.0823 71.7072 64.3819C72.914 62.813 73.998 61.1606 74.9532 59.4403C76.495 62.5263 76.572 64.5248 75.8781 65.4993Z" fill="#603C93"/>
<path d="M40 3.125C40.8629 3.125 41.5625 2.42544 41.5625 1.5625C41.5625 0.699555 40.8629 0 40 0C39.1371 0 38.4375 0.699555 38.4375 1.5625C38.4375 2.42544 39.1371 3.125 40 3.125Z" fill="#603C93"/>
</g>
<defs>
<clipPath id="clip0_443_19533">
<rect width="80" height="80" fill="white"/>
</clipPath>
</defs>
</svg>
