<svg width="80" height="80" viewBox="0 0 80 80" fill="none" xmlns="http://www.w3.org/2000/svg">
<path d="M51.5873 0.00515391C50.8912 -0.0396898 50.2012 0.209841 49.6942 0.685779C49.1905 1.1589 48.9015 1.82687 48.9015 2.51797V7.67765C47.9092 7.47203 46.8583 7.53562 45.8987 7.86422C45.2865 8.07422 44.9603 8.74062 45.1703 9.35281C45.3803 9.965 46.0467 10.2911 46.6589 10.0812C47.3031 9.86015 48.0267 9.84594 48.6736 10.0339C49.282 10.212 49.9459 10.0933 50.45 9.71578C50.9553 9.33734 51.2453 8.7575 51.2453 8.125V2.51797C51.2453 2.46922 51.2633 2.42765 51.2989 2.39422C51.3258 2.36906 51.3723 2.3389 51.4409 2.34437C62.6955 3.0489 71.4997 12.4345 71.4844 23.7134C71.4844 24.1148 71.4731 24.5208 71.4508 24.92C71.4436 25.048 71.3459 25.1447 71.2237 25.1447H68.7122C68.84 24.5327 68.8656 23.9047 68.7883 23.2725C68.4728 20.6959 66.37 18.6217 63.7884 18.3408C62.1775 18.1656 60.5667 18.6806 59.3681 19.7555C58.1683 20.8312 57.4803 22.3716 57.4803 23.9812C57.4803 24.3727 57.5201 24.7617 57.5995 25.1448H51.9237C51.5495 25.1448 51.2453 24.8406 51.2453 24.4664V18.3406C51.2453 17.7059 50.954 17.1241 50.4461 16.7441C49.9376 16.3637 49.2964 16.2486 48.6859 16.428C48.2428 16.5586 47.7803 16.5959 47.312 16.5381C45.8025 16.3527 44.5889 15.12 44.4264 13.6067C44.4117 13.4717 44.4051 13.3359 44.4066 13.203C44.4131 12.5558 43.8939 12.0258 43.2467 12.0191C43.2426 12.0191 43.2384 12.0191 43.2344 12.0191C42.593 12.0191 42.0695 12.5359 42.0628 13.1789C42.0605 13.4034 42.0719 13.6319 42.0961 13.8575C42.3736 16.4417 44.447 18.5475 47.0267 18.8645C47.66 18.9419 48.2887 18.9164 48.9015 18.7886V24.4666C48.9015 26.133 50.2573 27.4887 51.9237 27.4887H58.0469C58.6792 27.4887 59.2591 27.1989 59.6375 26.6934C60.015 26.1892 60.134 25.5252 59.9569 24.9216C59.8689 24.6167 59.8241 24.3003 59.8241 23.9812C59.8241 23.0364 60.2283 22.1322 60.933 21.5003C61.6467 20.8603 62.5697 20.5652 63.5344 20.6708C65.0461 20.8353 66.2773 22.0492 66.4619 23.5573C66.5194 24.028 66.4814 24.4922 66.3498 24.9348C66.169 25.5377 66.2815 26.1745 66.659 26.6817C67.0348 27.1869 67.635 27.4886 68.2642 27.4886H71.2234C72.5869 27.4886 73.7144 26.4177 73.7906 25.0506C73.8153 24.6083 73.8278 24.1584 73.8278 23.7152C73.845 11.2014 64.0756 0.786873 51.5873 0.00515391Z" fill="#603C93"/>
<path d="M60.0693 38.929C59.5784 38.3356 58.8554 37.9953 58.0859 37.9953H55.9176C56.779 34.4844 53.5062 30.6823 49.7295 31.1912C47.1476 31.4723 45.0448 33.5464 44.7293 36.123C44.652 36.7551 44.6776 37.383 44.8054 37.9951H38.4515V31.1909C38.4515 30.5562 38.1603 29.9744 37.6523 29.5944C37.1437 29.2139 36.5026 29.0987 35.8921 29.2783C35.449 29.4086 34.9865 29.4456 34.5182 29.3886C33.0089 29.203 31.7951 27.9703 31.6326 26.4575C31.5293 25.4953 31.8248 24.5728 32.4648 23.8605C33.097 23.1569 34.001 22.7533 34.9454 22.7533C35.2649 22.7533 35.5803 22.7978 35.8798 22.8847C36.4882 23.0633 37.152 22.9444 37.656 22.5667C38.1614 22.1883 38.4513 21.6084 38.4513 20.9759V15.427C38.4513 14.7189 38.1548 14.0355 37.6374 13.5515C37.1182 13.0661 36.4124 12.8145 35.7028 12.8622C23.3332 13.6884 13.5914 24.0425 13.5248 36.4337C13.4596 42.2787 15.7545 48.3715 19.8646 52.7148C20.3049 53.1889 21.0464 53.2167 21.5209 52.7762C21.9951 52.3359 22.0226 51.5945 21.5823 51.12C18.7599 48.0801 16.9145 44.3756 16.2001 40.339H18.6409C17.9048 43.5458 20.4679 47.2325 24.2106 47.1748C27.5423 47.2005 30.5456 44.0023 29.7521 40.339H36.1079V47.1392C36.0843 48.4028 37.5195 49.5634 39.0249 48.9703C40.9762 48.547 43.217 50.377 42.9242 52.6237C42.7582 54.4067 40.7285 56.1211 38.661 55.4406C38.0571 55.2601 37.4206 55.373 36.914 55.7503C36.4093 56.1261 36.1079 56.7262 36.1079 57.3553V64.1589H28.1254C27.5467 61.2364 26.5315 58.4767 25.1068 55.953C24.7885 55.3894 24.0739 55.1906 23.5103 55.5084C22.9467 55.8265 22.7476 56.5414 23.0657 57.105C24.452 59.5214 25.4918 62.5415 25.9845 65.443V75.0517C25.9845 77.78 28.2042 79.9997 30.9326 79.9997H43.6268C46.3551 79.9997 48.5748 77.78 48.5748 75.0517V65.4445C49.3359 60.7812 51.5679 56.1822 54.9401 52.4455C57.8424 49.222 59.804 45.2784 60.6126 41.0409C60.756 40.2898 60.5579 39.52 60.0693 38.929ZM29.3048 37.9955C28.206 37.9533 26.9281 39.2226 27.4087 40.6214C27.9621 42.5889 26.4648 45.0778 23.8185 44.8106C22.2271 44.6117 20.5031 43.1365 20.9382 40.8094C21.3771 39.6884 20.6978 37.9958 19.0887 37.9955H15.9156C15.8814 37.4797 15.8657 36.9619 15.8685 36.4467C15.9287 25.278 24.7095 15.9456 35.8592 15.2008C35.9432 15.194 36.0024 15.2317 36.0365 15.2633C36.0688 15.2936 36.1076 15.3465 36.1076 15.427V20.5286C35.7267 20.4495 35.3374 20.4097 34.9454 20.4097C33.3368 20.4097 31.7973 21.0965 30.7213 22.2944C29.6467 23.4906 29.1295 25.0994 29.3023 26.708C29.5798 29.2922 31.6532 31.398 34.2331 31.7151C34.8668 31.7926 35.4954 31.7669 36.1078 31.639V37.9955H29.3048ZM46.231 68.564H35.5373C34.8899 68.564 34.3654 69.0886 34.3654 69.7359C34.3654 70.3833 34.8899 70.9078 35.5373 70.9078H46.231V73.2515H28.3281V70.9078H30.1406C30.7879 70.9078 31.3124 70.3833 31.3124 69.7359C31.3124 69.0886 30.7879 68.564 30.1406 68.564H28.3281V66.5034H46.2309L46.231 68.564ZM43.6268 77.6564H30.9326C29.6829 77.6564 28.6368 76.7714 28.3862 75.5955H46.1732C45.9224 76.7714 44.8764 77.6564 43.6268 77.6564ZM58.3103 40.602C57.582 44.419 55.8142 47.9723 53.1984 50.8776C49.7232 54.7372 47.3864 59.327 46.4348 64.1594H38.4515V57.8034C41.5076 58.548 44.9803 56.103 45.2543 52.8756C45.7115 49.1969 42.197 45.8623 38.4515 46.6923V40.3392H45.2531C45.8878 40.3392 46.4698 40.048 46.8498 39.54C47.2303 39.0314 47.3456 38.3901 47.1659 37.78C47.0354 37.337 46.9984 36.8755 47.0556 36.408C47.2403 34.9 48.4714 33.6859 49.9834 33.5214C52.1428 33.2748 54.2639 35.357 53.5598 37.7701C53.3831 38.3784 53.5032 39.042 53.8812 39.5455C54.2598 40.0498 54.8392 40.339 55.4707 40.339H58.0859C58.1753 40.339 58.2318 40.3847 58.2634 40.4228C58.2934 40.4594 58.326 40.52 58.3103 40.602Z" fill="#603C93"/>
<path d="M69.4982 45.9811L65.4228 45.7605C64.7785 45.7277 64.2244 46.2211 64.1892 46.8674C64.1542 47.5136 64.6497 48.0658 65.2961 48.101L69.3714 48.3216C69.393 48.3227 69.4144 48.3233 69.4358 48.3233C70.0539 48.3233 70.5711 47.8394 70.6049 47.2147C70.64 46.5685 70.1446 46.0163 69.4982 45.9811Z" fill="#603C93"/>
<path d="M65.6515 57.6897L62.5673 55.1828C62.0648 54.7747 61.3268 54.8507 60.9187 55.3532C60.5106 55.8553 60.5868 56.5935 61.089 57.0018L64.1732 59.5086C64.3906 59.6852 64.6518 59.7711 64.9117 59.7711C65.2525 59.7711 65.5903 59.6235 65.8218 59.3383C66.23 58.8361 66.1537 58.098 65.6515 57.6897Z" fill="#603C93"/>
<path d="M54.7109 61.1244C54.5445 60.499 53.9017 60.1275 53.277 60.2933C52.6516 60.4597 52.2795 61.1018 52.4459 61.7272L53.4958 65.6722C53.6355 66.1966 54.1094 66.543 54.6275 66.543C54.7274 66.543 54.8288 66.5302 54.9297 66.5033C55.5552 66.3369 55.9272 65.6949 55.7608 65.0694L54.7109 61.1244Z" fill="#603C93"/>
<path d="M23.426 11.0836C23.5174 11.6606 24.0155 12.0724 24.5821 12.0724C24.643 12.0724 24.7046 12.0677 24.7668 12.0578C25.406 11.9567 25.8423 11.3564 25.741 10.717L25.103 6.68595C25.0019 6.04689 24.4024 5.61127 23.7623 5.71173C23.123 5.81283 22.6868 6.41314 22.788 7.05252L23.426 11.0836Z" fill="#603C93"/>
<path d="M15.0051 16.1874C15.234 16.4161 15.534 16.5305 15.8339 16.5305C16.1337 16.5305 16.4337 16.4161 16.6626 16.1874C17.1203 15.7296 17.1203 14.9877 16.6626 14.53L13.8521 11.7197C13.3943 11.2622 12.6525 11.2622 12.1948 11.7197C11.7371 12.1775 11.7371 12.9194 12.1948 13.3771L15.0051 16.1874Z" fill="#603C93"/>
<path d="M11.5593 22.951L7.52726 22.3121C6.88788 22.2112 6.28757 22.647 6.18648 23.286C6.08523 23.9253 6.52132 24.5257 7.16038 24.6268L11.1924 25.2657C11.2544 25.2756 11.3163 25.2804 11.3773 25.2804C11.9437 25.2804 12.4418 24.8689 12.5332 24.2918C12.6346 23.6526 12.1985 23.0521 11.5593 22.951Z" fill="#603C93"/>
</svg>
