<svg width="80" height="80" viewBox="0 0 80 80" fill="none" xmlns="http://www.w3.org/2000/svg">
<path d="M76.1297 37.4125L69.9969 35.4187C69.2625 32.5125 68.1125 29.7406 66.5719 27.1609L69.5016 21.4062C69.7469 20.9234 69.6547 20.3391 69.2719 19.9562L63.0438 13.7297C62.6609 13.3469 62.075 13.2547 61.5938 13.5L58.7953 14.9234C58.775 14.8859 58.7547 14.8469 58.7328 14.8094C58.4344 14.2937 58.0641 13.8359 57.6375 13.4453V7.41875C57.6375 4.52656 55.2844 2.175 52.3937 2.175C51.2125 2.175 50.1219 2.56719 49.2437 3.22969C48.4531 1.33438 46.5812 0 44.4047 0C42.2266 0 40.3547 1.33438 39.5641 3.22813C38.6859 2.56719 37.5953 2.17344 36.4141 2.17344C34.3938 2.17344 32.6375 3.32344 31.7625 5.00156C30.8547 4.25 29.6922 3.79844 28.425 3.79844C25.5328 3.79844 23.1813 6.15156 23.1813 9.04219V15.9328L18.4016 13.4969C17.9203 13.2516 17.3344 13.3438 16.9516 13.7266L10.7234 19.9531C10.3406 20.3359 10.2484 20.9219 10.4937 21.4047L13.4266 27.1578C11.8844 29.7375 10.7359 32.5094 10.0016 35.4156L3.86406 37.4094C3.35 37.5766 3 38.0563 3 38.5969V47.4016C3 47.9422 3.34844 48.4219 3.8625 48.5891L10.0016 50.5844C10.7359 53.4922 11.8844 56.2641 13.4266 58.8453L10.4937 64.5953C10.2469 65.0781 10.3406 65.6641 10.7234 66.0469L16.9516 72.275C17.3344 72.6578 17.9203 72.75 18.4016 72.5047L24.1562 69.575C26.7391 71.1188 29.5109 72.2672 32.4141 72.9969L34.4078 79.1328C34.575 79.6469 35.0547 79.9969 35.5953 79.9969H44.4047C44.9453 79.9969 45.425 79.6484 45.5922 79.1328L47.5859 72.9969C50.4891 72.2672 53.2609 71.1188 55.8438 69.575L61.5953 72.5047C62.0766 72.75 62.6625 72.6578 63.0453 72.275L69.2734 66.0469C69.6562 65.6641 69.7484 65.0797 69.5031 64.5969L66.5734 58.8453C68.1156 56.2625 69.2641 53.4922 69.9953 50.5875L76.1312 48.5938C76.6453 48.4266 76.9938 47.9469 76.9938 47.4062V38.6016C76.9938 38.0594 76.6453 37.5797 76.1297 37.4125ZM52.8156 38.0828C52.8156 36.9062 53.0031 35.8375 53.3937 34.8281C54.9 37.2844 55.6906 40.0781 55.6906 43.0031C55.6906 46.3672 54.6266 49.4875 52.8156 52.0453V38.0828ZM53.0578 30.5078L52.4906 31.3078C51.0281 33.3453 50.3156 35.5609 50.3156 38.0828V54.8156C47.5547 57.2313 43.9438 58.6969 39.9953 58.6969C36.05 58.6969 32.4406 57.2328 29.6797 54.8203V37.4141C29.6797 35.375 29.2219 33.5938 28.2406 31.8078L26.8062 29.2C26.025 27.7734 25.675 26.4141 25.675 24.7906V21.2344C26.475 21.7281 27.4141 22.0125 28.4203 22.0125C30.4406 22.0125 32.1969 20.8625 33.0719 19.1844C33.9797 19.9359 35.1422 20.3875 36.4094 20.3875C38.0594 20.3875 39.5672 19.6234 40.5453 18.3625C41.1703 18.9812 41.9594 19.45 42.8672 19.6938L47.9234 21.0484L46.9016 24.8563H46.8578C41.9859 24.8563 38.0219 28.8203 38.0219 33.6922C38.0219 34.3813 38.5812 34.9406 39.2703 34.9406C39.9594 34.9406 40.5187 34.3813 40.5187 33.6922C40.5187 30.1969 43.3625 27.3547 46.8562 27.3547H47.8578C48.4234 27.3547 48.9172 26.975 49.0641 26.4297L50.6578 20.4906C50.7438 20.1703 50.6984 19.8297 50.5328 19.5422C50.3672 19.2547 50.0937 19.0453 49.775 18.9594L43.5109 17.2812C42.0484 16.8906 41.1781 15.3813 41.5687 13.9188C41.9625 12.4563 43.4719 11.5844 44.9344 11.975L54.6391 14.5797C55.4547 14.7984 56.1391 15.3234 56.5656 16.0594C56.9906 16.7953 57.1047 17.65 56.8875 18.4656L54.4516 27.5531C54.1578 28.6719 53.7406 29.5547 53.0578 30.5078ZM24.3047 43.0031C24.3047 40.0125 25.1641 37.0906 26.7516 34.5922C27.0469 35.4828 27.1828 36.3953 27.1828 37.4141V52.0531C25.3703 49.4922 24.3047 46.3703 24.3047 43.0031ZM52.3937 4.67344C53.9078 4.67344 55.1391 5.90469 55.1391 7.41875V12.125L49.6469 10.6516V7.41875C49.6484 5.90469 50.8797 4.67344 52.3937 4.67344ZM41.6578 5.24531C41.6578 3.73125 42.8891 2.5 44.4047 2.5C45.9187 2.5 47.15 3.73125 47.15 5.24531V9.98125L45.5859 9.56094C44.2094 9.19375 42.8125 9.4125 41.6578 10.0625V5.24531ZM33.6672 7.41875C33.6672 5.90469 34.8984 4.67344 36.4125 4.67344C37.9266 4.67344 39.1578 5.90469 39.1578 7.41875V12.9734C39.1578 13.0531 39.1656 13.1297 39.1797 13.2047C39.1734 13.2266 39.1656 13.2484 39.1594 13.2703C38.9234 14.15 38.9281 15.0391 39.1313 15.8672C39.0625 15.9563 39.0047 16.0531 38.9609 16.1625C38.5359 17.2109 37.5359 17.8891 36.4109 17.8891C34.8969 17.8891 33.6656 16.6578 33.6656 15.1437V7.41875H33.6672ZM25.6781 9.04531C25.6781 7.53125 26.9094 6.3 28.4234 6.3C29.9375 6.3 31.1688 7.53125 31.1688 9.04531V16.7703C31.1688 18.2844 29.9375 19.5172 28.4234 19.5172C26.9094 19.5172 25.6781 18.2859 25.6781 16.7703V9.04531ZM74.4953 46.4984L68.5547 48.4312C68.1359 48.5672 67.8203 48.9141 67.7219 49.3422C67.0156 52.4547 65.7922 55.4094 64.0828 58.1266C63.8484 58.4984 63.8281 58.9672 64.0281 59.3594L66.8625 64.9234L61.9187 69.8688L56.3547 67.0344C55.9625 66.8344 55.4953 66.8562 55.1219 67.0891C52.4047 68.7984 49.45 70.0219 46.3375 70.7281C45.9078 70.825 45.5625 71.1406 45.4266 71.5594L43.4969 77.5H36.5031L34.5734 71.5594C34.4375 71.1406 34.0906 70.825 33.6625 70.7281C30.5516 70.0219 27.5953 68.7984 24.8781 67.0891C24.5063 66.8547 24.0375 66.8344 23.6469 67.0328L18.0766 69.8688L13.1328 64.925L15.9719 59.3594C16.1719 58.9672 16.15 58.5 15.9172 58.1266C14.2094 55.4125 12.9844 52.4547 12.2734 49.3375C12.175 48.9078 11.8594 48.5625 11.4406 48.4266L5.50156 46.4984V39.5078L11.4422 37.5781C11.8594 37.4422 12.175 37.0969 12.2734 36.6687C12.9844 33.5531 14.2109 30.5969 15.9172 27.8828C16.1516 27.5109 16.1719 27.0422 15.9734 26.6516L13.1344 21.0812L18.0781 16.1375L23.1828 18.7391V24.7906C23.1828 26.8281 23.6406 28.6109 24.6219 30.4016L25.5094 32.0141C23.1187 35.1609 21.8109 39.0312 21.8109 43.0031C21.8109 48.1891 23.9937 52.8766 27.4875 56.1922C27.5484 56.2641 27.6172 56.3266 27.6922 56.3828C30.9344 59.3672 35.2578 61.1922 40.0016 61.1922C44.7359 61.1922 49.0531 59.3734 52.2922 56.4C52.3844 56.3344 52.4672 56.2578 52.5391 56.1703C56.0203 52.8547 58.1922 48.1766 58.1922 43.0016C58.1922 39.1547 57.0141 35.5031 54.7828 32.4L55.0969 31.9578C55.9516 30.7656 56.5 29.6047 56.8734 28.1969L59.3094 19.1125C59.4625 18.5375 59.5234 17.9516 59.4953 17.3734L61.9219 16.1375L66.8672 21.0828L64.0328 26.6531C63.8328 27.0453 63.8547 27.5125 64.0891 27.8844C65.7953 30.5984 67.0219 33.5547 67.7328 36.6703C67.8313 37.0984 68.1469 37.4437 68.5641 37.5797L74.5 39.5094V46.4984H74.4953Z" fill="#603C93"/>
</svg>
