<svg width="592" height="561" viewBox="0 0 592 561" fill="none" xmlns="http://www.w3.org/2000/svg">
<path d="M442.116 452.861H305.859V425.295H414.55C429.772 425.295 442.116 437.64 442.116 452.861Z" fill="white"/>
<path d="M494.315 505.802H358.059V478.236H466.749C481.971 478.236 494.315 490.58 494.315 505.802Z" fill="white"/>
<path d="M549.983 555.592H413.727V528.025H522.417C537.639 528.025 549.983 540.37 549.983 555.592Z" fill="white"/>
<path d="M541.092 189.788C537.009 148.835 473.902 8.59145 332 0.905166C118.826 -10.6448 133.952 91.8116 105.865 110.472C85.8339 123.79 62.1174 131.435 43.8128 147.027C15.7531 170.921 4.97033 209.435 1.21625 246.113C-0.715598 264.952 -1.08553 284.53 5.76499 302.177C14.1774 323.839 32.5094 340.129 51.869 352.995C66.8305 362.941 82.9156 371.45 100.165 376.451C112.058 379.89 124.43 381.657 136.103 385.781C148.475 390.152 159.82 397.071 171.644 402.729H439.252C479.739 391.124 511.484 356.954 527.432 317.838C543.805 277.694 545.408 232.932 541.106 189.788H541.092Z" fill="#E7EFFF"/>
<path d="M171.055 560.195H169.63V488.429H28.6602V487.018H171.055V560.195Z" fill="#6399F7"/>
<path d="M16.2198 560.195H14.8086V487.018H25.8653V488.429H16.2198V560.195Z" fill="#6399F7"/>
<path d="M403.807 246.551C403.807 248.387 402.314 249.881 400.478 249.881C398.642 249.881 397.148 248.387 397.148 246.551C397.148 244.715 398.642 243.222 400.478 243.222C402.314 243.222 403.807 244.715 403.807 246.551Z" fill="#C0966A"/>
<path d="M417.055 246.551C417.055 248.387 415.562 249.881 413.726 249.881C411.89 249.881 410.396 248.387 410.396 246.551C410.396 244.715 411.89 243.222 413.726 243.222C415.562 243.222 417.055 244.715 417.055 246.551Z" fill="#C0966A"/>
<path d="M430.291 246.551C430.291 248.387 428.798 249.881 426.962 249.881C425.126 249.881 423.633 248.387 423.633 246.551C423.633 244.715 425.126 243.222 426.962 243.222C428.798 243.222 430.291 244.715 430.291 246.551Z" fill="#C0966A"/>
<path d="M443.54 246.551C443.54 248.387 442.046 249.881 440.21 249.881C438.374 249.881 436.881 248.387 436.881 246.551C436.881 244.715 438.374 243.222 440.21 243.222C442.046 243.222 443.54 244.715 443.54 246.551Z" fill="#C0966A"/>
<path d="M456.776 246.551C456.776 248.387 455.283 249.881 453.447 249.881C451.611 249.881 450.117 248.387 450.117 246.551C450.117 244.715 451.611 243.222 453.447 243.222C455.283 243.222 456.776 244.715 456.776 246.551Z" fill="#C0966A"/>
<path d="M403.807 259.773C403.807 261.609 402.314 263.102 400.478 263.102C398.642 263.102 397.148 261.609 397.148 259.773C397.148 257.937 398.642 256.443 400.478 256.443C402.314 256.443 403.807 257.937 403.807 259.773Z" fill="#C0966A"/>
<path d="M417.055 259.773C417.055 261.609 415.562 263.102 413.726 263.102C411.89 263.102 410.396 261.609 410.396 259.773C410.396 257.937 411.89 256.443 413.726 256.443C415.562 256.443 417.055 257.937 417.055 259.773Z" fill="#C0966A"/>
<path d="M430.291 259.773C430.291 261.609 428.798 263.102 426.962 263.102C425.126 263.102 423.633 261.609 423.633 259.773C423.633 257.937 425.126 256.443 426.962 256.443C428.798 256.443 430.291 257.937 430.291 259.773Z" fill="#C0966A"/>
<path d="M443.54 259.773C443.54 261.609 442.046 263.102 440.21 263.102C438.374 263.102 436.881 261.609 436.881 259.773C436.881 257.937 438.374 256.443 440.21 256.443C442.046 256.443 443.54 257.937 443.54 259.773Z" fill="#C0966A"/>
<path d="M456.776 259.773C456.776 261.609 455.283 263.102 453.447 263.102C451.611 263.102 450.117 261.609 450.117 259.773C450.117 257.937 451.611 256.443 453.447 256.443C455.283 256.443 456.776 257.937 456.776 259.773Z" fill="#C0966A"/>
<path d="M403.807 273.008C403.807 274.844 402.314 276.337 400.478 276.337C398.642 276.337 397.148 274.844 397.148 273.008C397.148 271.172 398.642 269.679 400.478 269.679C402.314 269.679 403.807 271.172 403.807 273.008Z" fill="#C0966A"/>
<path d="M417.055 273.008C417.055 274.844 415.562 276.337 413.726 276.337C411.89 276.337 410.396 274.844 410.396 273.008C410.396 271.172 411.89 269.679 413.726 269.679C415.562 269.679 417.055 271.172 417.055 273.008Z" fill="#C0966A"/>
<path d="M430.291 273.008C430.291 274.844 428.798 276.337 426.962 276.337C425.126 276.337 423.633 274.844 423.633 273.008C423.633 271.172 425.126 269.679 426.962 269.679C428.798 269.679 430.291 271.172 430.291 273.008Z" fill="#C0966A"/>
<path d="M443.54 273.008C443.54 274.844 442.046 276.337 440.21 276.337C438.374 276.337 436.881 274.844 436.881 273.008C436.881 271.172 438.374 269.679 440.21 269.679C442.046 269.679 443.54 271.172 443.54 273.008Z" fill="#C0966A"/>
<path d="M456.776 273.008C456.776 274.844 455.283 276.337 453.447 276.337C451.611 276.337 450.117 274.844 450.117 273.008C450.117 271.172 451.611 269.679 453.447 269.679C455.283 269.679 456.776 271.172 456.776 273.008Z" fill="#C0966A"/>
<path d="M403.807 286.229C403.807 288.065 402.314 289.559 400.478 289.559C398.642 289.559 397.148 288.065 397.148 286.229C397.148 284.393 398.642 282.9 400.478 282.9C402.314 282.9 403.807 284.393 403.807 286.229Z" fill="#C0966A"/>
<path d="M417.055 286.229C417.055 288.065 415.562 289.559 413.726 289.559C411.89 289.559 410.396 288.065 410.396 286.229C410.396 284.393 411.89 282.9 413.726 282.9C415.562 282.9 417.055 284.393 417.055 286.229Z" fill="#C0966A"/>
<path d="M430.291 286.229C430.291 288.065 428.798 289.559 426.962 289.559C425.126 289.559 423.633 288.065 423.633 286.229C423.633 284.393 425.126 282.9 426.962 282.9C428.798 282.9 430.291 284.393 430.291 286.229Z" fill="#C0966A"/>
<path d="M443.54 286.229C443.54 288.065 442.046 289.559 440.21 289.559C438.374 289.559 436.881 288.065 436.881 286.229C436.881 284.393 438.374 282.9 440.21 282.9C442.046 282.9 443.54 284.393 443.54 286.229Z" fill="#C0966A"/>
<path d="M456.776 286.229C456.776 288.065 455.283 289.559 453.447 289.559C451.611 289.559 450.117 288.065 450.117 286.229C450.117 284.393 451.611 282.9 453.447 282.9C455.283 282.9 456.776 284.393 456.776 286.229Z" fill="#C0966A"/>
<path d="M400.478 302.78C402.317 302.78 403.807 301.29 403.807 299.451C403.807 297.612 402.317 296.122 400.478 296.122C398.639 296.122 397.148 297.612 397.148 299.451C397.148 301.29 398.639 302.78 400.478 302.78Z" fill="#C0966A"/>
<path d="M417.055 299.451C417.055 301.287 415.562 302.78 413.726 302.78C411.89 302.78 410.396 301.287 410.396 299.451C410.396 297.615 411.89 296.122 413.726 296.122C415.562 296.122 417.055 297.615 417.055 299.451Z" fill="#C0966A"/>
<path d="M430.291 299.451C430.291 301.287 428.798 302.78 426.962 302.78C425.126 302.78 423.633 301.287 423.633 299.451C423.633 297.615 425.126 296.122 426.962 296.122C428.798 296.122 430.291 297.615 430.291 299.451Z" fill="#C0966A"/>
<path d="M440.197 302.78C442.035 302.78 443.526 301.29 443.526 299.451C443.526 297.612 442.035 296.122 440.197 296.122C438.358 296.122 436.867 297.612 436.867 299.451C436.867 301.29 438.358 302.78 440.197 302.78Z" fill="#C0966A"/>
<path d="M456.776 299.451C456.776 301.287 455.283 302.78 453.447 302.78C451.611 302.78 450.117 301.287 450.117 299.451C450.117 297.615 451.611 296.122 453.447 296.122C455.283 296.122 456.776 297.615 456.776 299.451Z" fill="#C0966A"/>
<path d="M500.236 456.026L520.569 474.084L521.048 456.026H500.236Z" fill="#BACFD4"/>
<path d="M553.312 508.899L573.645 526.957L574.124 508.899H553.312Z" fill="#BACFD4"/>
<path d="M415.592 404.647H212.639V351.145H415.592V404.647ZM214.05 403.236H414.181V352.57H214.05V403.236Z" fill="#6399F7"/>
<path d="M468.601 456.67H302.01V429.994H303.284V455.396H467.327V404.579H303.284V422.007H302.01V403.305H468.601V456.67Z" fill="#6399F7"/>
<path d="M521.677 508.748H355.086V455.396H521.677V508.748ZM356.36 507.474H520.403V456.67H356.36V507.474Z" fill="#6399F7"/>
<path d="M574.769 560.825H408.178V507.474H574.769V560.825ZM409.452 559.551H573.495V508.748H409.452V559.551Z" fill="#6399F7"/>
<path d="M538.599 293.381C520.692 295.012 496.181 293.052 482.781 291.696C482.151 303.63 478.054 382.369 477.273 411.361C476.438 442.764 480.068 491.992 480.068 491.992L481.959 492.019L499.483 492.293L518.171 397.29L538.613 293.368L538.599 293.381Z" fill="#4D89F0"/>
<path d="M584.293 477.797L586.896 476.249L551.356 377.108V291.189C547.821 292.244 543.45 292.943 538.6 293.381L518.158 397.304L537.449 299.218L521.734 404.031L518.158 397.304L566.564 488.388L571.359 485.525L584.101 477.455C584.156 477.578 584.225 477.701 584.293 477.811V477.797Z" fill="#6399F7"/>
<path d="M481.946 492.019C481.946 492.019 474.547 500.157 467.244 501.993C459.942 503.815 458.257 508.241 464.354 508.241H496.03C496.03 508.241 498.469 507.172 498.168 502.76C498.168 502.76 496.948 497.074 497.565 492.307L481.973 492.033L481.946 492.019Z" fill="#3E4C89"/>
<path d="M590.362 485.826C590.362 485.826 586.457 481.976 584.293 477.797C584.224 477.674 584.169 477.551 584.101 477.441L571.359 485.511L570.92 485.785C570.92 485.785 569.674 493.773 566.098 499.554H566.125C565.193 500.185 564.234 500.733 563.248 501.157C556.315 504.117 556.671 509.2 562.686 508.241L572.386 505.706L579.511 499.554L591.609 491.58C591.609 491.58 593.061 489.347 590.376 485.826H590.362Z" fill="#3E4C89"/>
<path d="M521.734 404.017L537.449 299.204L518.158 397.29L521.734 404.017Z" fill="#A87369"/>
<path d="M510.581 184.924C512.239 183.567 513.048 181.005 513.431 179.21C513.185 179.567 512.911 179.895 512.609 180.17C510.993 181.663 509.307 182.252 508.088 182.334C508.088 182.334 508.088 182.362 508.088 182.375C508.184 183.91 508.198 184.444 508.293 185.513L510.581 184.924Z" fill="#EBAC9A"/>
<path d="M512.609 180.183C512.911 179.895 513.185 179.567 513.431 179.224C513.048 181.019 512.239 183.581 510.582 184.937L516.172 183.485C515.144 180.882 514.637 179.142 514.486 179.073C513.24 178.471 512.034 177.799 510.869 177.046C510.403 176.744 509.924 176.429 509.568 176.004C509.006 175.36 508.732 174.538 508.335 173.785C507.43 172.058 505.677 174.401 505.32 172.483C504.718 173.648 505.252 180.553 506.416 181.964C506.663 182.252 507.28 182.416 508.088 182.362C508.088 182.362 508.088 182.389 508.088 182.403C508.088 182.403 508.088 182.375 508.088 182.362C509.307 182.279 510.993 181.69 512.609 180.197V180.183Z" fill="#FDC5B1"/>
<path d="M555.383 233.864H552.41L555.164 265.047H581.525V239.563V233.864H555.383Z" fill="#333E72"/>
<path d="M538.6 293.381C543.464 292.943 547.835 292.23 551.356 291.189C553.726 290.477 555.727 289.627 557.248 288.572L555.165 265.047L552.411 233.864C552.534 223.506 549.616 212.805 549.616 212.805C554.247 219.491 555.371 233.864 555.371 233.864H581.512V239.577C584.759 236.412 586.924 233.179 586.842 230.206C586.677 224.808 572.922 213.449 558.522 202.995C555.247 207.722 550.52 210.86 545.095 210.202C527.42 208.079 519.323 191.555 516.158 183.485L510.568 184.937L508.28 185.527L494.442 189.13C494.442 189.13 459.6 193.007 449.873 189.486C427.266 181.279 413.743 168.551 413.743 168.551L411.852 170.291L405.056 176.731C405.056 176.731 405.056 176.731 404.892 176.662L399.658 181.457C399.658 181.457 405.988 197.597 424.539 208.079C443.077 218.574 480.083 231.357 480.083 231.357C479.987 233.083 479.905 234.878 479.878 236.755C479.22 273.816 473.041 290.627 473.041 290.627C473.041 290.627 476.809 291.107 482.769 291.723C496.168 293.08 520.679 295.025 538.587 293.409L538.6 293.381Z" fill="white"/>
<path d="M508.321 173.771C508.718 174.525 508.992 175.347 509.554 175.991C509.924 176.415 510.39 176.731 510.856 177.032C512.02 177.786 513.226 178.457 514.473 179.06C514.623 179.128 515.144 180.868 516.158 183.471C519.323 191.541 527.407 208.065 545.095 210.189C550.52 210.846 555.233 207.709 558.522 202.982C566.002 192.185 565.934 173.031 549.136 171.305C524.762 168.784 528.667 169.346 512.486 161.714C511.856 161.413 511.089 161.509 510.39 161.495C509.856 161.495 509.321 161.495 508.801 161.618C507.554 161.92 504.334 163.482 503.717 166.03C502.69 170.236 505.252 172.141 505.32 172.47C505.677 174.388 507.43 172.045 508.335 173.771H508.321Z" fill="#350403"/>
<path d="M549.629 212.792C549.629 212.792 552.534 223.492 552.424 233.85H555.397C555.397 233.85 554.274 219.464 549.643 212.792H549.629Z" fill="#BCE8DB"/>
<path d="M426.635 137.984L395.246 115.131C394.589 126.859 385.984 132.928 377.654 138.792C369.351 144.643 360.774 150.685 360.322 162.386L391.711 185.239C391.985 180.265 393.698 176.319 396.205 172.976C393.931 170.497 390.643 165.948 390.643 165.948C390.643 165.948 390.451 161.029 391.78 158.111C393.095 155.192 406.618 157.275 406.618 157.275C406.618 157.275 408.481 159.207 409.824 161.221C417.963 155.48 426.211 149.452 426.649 137.984H426.635ZM399.589 142.355C398.027 144.369 395.945 144.656 393.972 143.122C392.013 141.601 391.78 139.532 393.342 137.518L399.014 130.202C400.576 128.188 402.631 127.886 404.604 129.407C406.577 130.942 406.824 133.024 405.262 135.038L404.33 136.244L402.316 134.833L403.152 133.75C403.974 132.682 403.946 131.901 403.207 131.325C402.467 130.75 401.699 130.914 401.014 131.791L395.37 139.066C394.698 139.943 394.726 140.724 395.465 141.3C396.205 141.875 396.973 141.711 397.795 140.642L398.946 139.162L400.823 140.765L399.589 142.368V142.355ZM403.549 150.246L400.932 148.219L409.016 133.147L411.071 134.737L404.7 146.081L404.741 146.109L414.113 137.08L416.127 138.642L403.549 150.233V150.246Z" fill="white"/>
<path d="M396.205 172.976C393.697 176.333 391.985 180.279 391.711 185.239L360.322 162.386C360.774 150.685 369.364 144.643 377.654 138.792C385.984 132.928 394.588 126.859 395.246 115.131L426.635 137.984C426.196 149.438 417.948 155.48 409.81 161.221C409.933 161.399 410.043 161.577 410.152 161.755C418.469 155.891 426.909 149.726 427.279 137.833V137.669L395.136 114.267L394.643 113.911V114.514C394.245 126.324 385.614 132.394 377.284 138.272C368.816 144.245 360.061 150.411 359.664 162.536V162.701L392.3 186.458V185.855C392.478 180.813 394.15 176.826 396.657 173.456C396.506 173.305 396.355 173.155 396.205 172.976Z" fill="#603C93"/>
<path d="M411.836 170.277C411.836 170.277 411.576 166.249 411.042 163.783C410.905 163.18 410.576 162.468 410.138 161.755C410.028 161.577 409.918 161.399 409.795 161.221C408.466 159.207 406.589 157.275 406.589 157.275C406.589 157.275 393.08 155.192 391.751 158.111C390.435 161.029 390.614 165.948 390.614 165.948C390.614 165.948 393.902 170.497 396.176 172.976C396.327 173.141 396.478 173.305 396.628 173.456C397.026 173.853 397.382 174.182 397.656 174.36C399.492 175.58 399.711 174.415 402.369 175.566C403.999 176.265 404.616 176.539 404.863 176.635C405.013 176.703 405.027 176.703 405.027 176.703L411.823 170.264L411.836 170.277Z" fill="#F6A79A"/>
<path d="M397.808 140.642C396.986 141.711 396.219 141.875 395.479 141.3C394.739 140.724 394.698 139.93 395.383 139.066L401.028 131.791C401.699 130.914 402.48 130.75 403.22 131.325C403.96 131.901 403.987 132.682 403.165 133.75L402.329 134.833L404.343 136.244L405.275 135.038C406.837 133.024 406.59 130.942 404.617 129.407C402.658 127.886 400.589 128.188 399.027 130.202L393.355 137.518C391.793 139.532 392.026 141.601 393.985 143.122C395.958 144.656 398.041 144.369 399.603 142.355L400.836 140.752L398.959 139.149L397.808 140.628V140.642Z" fill="black"/>
<path d="M404.74 146.109L404.713 146.068L411.084 134.737L409.029 133.134L400.945 148.219L403.549 150.246L416.126 138.642L414.112 137.08L404.74 146.109Z" fill="black"/>
<path d="M382.624 140.311L382.279 140.855L401.065 152.753L401.409 152.209L382.624 140.311Z" fill="#603C93"/>
<path d="M379.462 142.179L379.117 142.723L397.901 154.625L398.245 154.081L379.462 142.179Z" fill="#603C93"/>
<path d="M374.88 143.992L374.535 144.536L393.319 156.438L393.663 155.894L374.88 143.992Z" fill="#603C93"/>
<path d="M371.264 146.474L370.92 147.018L389.717 158.924L390.062 158.38L371.264 146.474Z" fill="#603C93"/>
<path d="M367.979 149.899L367.635 150.443L388.828 163.867L389.172 163.323L367.979 149.899Z" fill="#603C93"/>
<path d="M493.441 196.309C493.441 196.309 494.414 219.396 480.069 231.343L479.863 236.741C479.863 236.741 497.592 223.424 493.427 196.309H493.441Z" fill="#BCE8DB"/>
<path d="M262.891 105.636C262.891 105.129 262.891 104.8 262.891 104.8C262.891 99.1416 269.961 101.032 269.961 101.032C269.961 101.032 277.03 99.1553 277.03 104.8C277.03 104.8 277.03 105.307 277.044 106.061L277.222 105.704C277.976 103.704 278.825 101.69 279.017 99.5389C279.209 97.3878 278.592 95.0039 276.948 93.7708C277.14 94.0859 276.975 94.5654 276.66 94.7024C274.372 92.5925 271.029 92.3185 268.084 93.0035C267.412 93.1542 266.741 93.3734 266.165 93.7708C264.864 94.6887 264.138 96.5521 262.63 96.9768C261.507 97.2919 260.123 96.7302 259.246 97.5385C258.493 98.2373 258.616 99.5252 259.041 100.484C259.466 101.443 260.151 102.265 260.411 103.293C260.452 103.485 260.479 103.677 260.507 103.868C261.315 103.868 262.603 105.28 262.905 105.622L262.891 105.636Z" fill="black"/>
<path d="M348.797 383.74L361.36 383.466C361.36 383.466 337.644 279.749 335.835 275.926L315.722 233.617L296.13 250.072L289.252 205.969C276.263 207.969 260.027 205.955 260.027 205.955L260.534 199.968C260.534 199.968 260.617 199.968 260.658 199.981C260.151 199.899 259.644 199.817 259.151 199.735L256.219 251.497L236.626 237.385C234.818 294.176 232.667 382.767 236.736 386.877L243.888 387.151L243.984 386.877H262.357C262.316 387.192 262.288 387.521 262.261 387.85L270.509 388.165C270.509 388.165 277.099 262.006 277.743 250.319C277.811 249.004 277.88 247.853 277.935 246.853L296.65 292.066L330.163 384.151L348.523 383.479C348.523 383.479 348.632 383.589 348.797 383.753V383.74Z" fill="#221239"/>
<path d="M288.197 199.31C286.69 199.707 285.156 200.036 283.607 200.296C286.238 199.899 287.786 199.447 288.197 199.31Z" fill="#221239"/>
<path d="M276.249 120.597L283.839 120.419L274.139 120.638L274.125 120.652L276.249 120.597Z" fill="white"/>
<path d="M261.987 120.954L265.864 120.858C265.864 120.858 265.864 120.844 265.864 120.83L257.986 121.022H262.001V120.967L261.987 120.954Z" fill="white"/>
<path d="M283.607 200.283C285.155 200.022 286.69 199.693 288.197 199.282L276.797 126.229L277.071 129.147L274.372 135.751L272.783 140.354L277.51 181.745L271.797 191.199L265.193 182.279L268.221 140.354L266.672 135.806L263.192 127.927L259.123 199.735C259.616 199.817 260.123 199.899 260.63 199.981C271.468 201.488 279.127 200.968 283.593 200.283H283.607Z" fill="white"/>
<path d="M270.604 131.887L274.358 135.737L277.057 129.133L276.783 126.215L275.907 120.597H276.249L274.125 120.639C273.865 122.885 273.317 125.187 272.221 126.434C272.221 126.434 271.207 127.366 269.974 127.366C268.741 127.366 267.727 126.434 267.727 126.434C266.658 125.228 266.124 123.022 265.85 120.844L261.973 120.94V120.995H263.589L263.192 127.9L266.672 135.778L270.591 131.86L270.604 131.887Z" fill="#EDEDED"/>
<path d="M267.743 126.448C267.743 126.448 268.757 127.379 269.99 127.379C271.223 127.379 272.237 126.448 272.237 126.448C273.333 125.201 273.881 122.899 274.141 120.652C274.141 120.652 274.141 120.652 274.141 120.639C274.292 119.392 274.347 118.186 274.374 117.172C274.374 117.337 274.374 117.515 274.374 117.693C273.059 118.83 271.387 119.926 270.003 119.981C268.62 119.926 266.962 118.83 265.633 117.693C265.633 117.515 265.633 117.337 265.633 117.158C265.66 118.227 265.715 119.515 265.879 120.83C265.879 120.83 265.879 120.844 265.879 120.858C266.153 123.036 266.701 125.242 267.756 126.448H267.743Z" fill="#F6A79A"/>
<path d="M269.988 119.981C271.372 119.926 273.03 118.83 274.359 117.693C274.359 117.515 274.359 117.337 274.359 117.172C274.359 117.117 274.359 117.049 274.359 116.994C274.359 116.83 274.359 116.665 274.359 116.501C274.359 116.46 274.359 116.419 274.359 116.391C274.359 116.062 274.359 115.761 274.359 115.514C273.043 116.665 271.372 117.761 269.974 117.816C268.59 117.761 266.919 116.665 265.59 115.514C265.59 115.761 265.59 116.062 265.59 116.391C265.59 116.432 265.59 116.46 265.59 116.501C265.59 116.651 265.59 116.816 265.59 116.994C265.59 117.049 265.59 117.104 265.59 117.158C265.59 117.337 265.59 117.501 265.59 117.693C266.905 118.83 268.577 119.926 269.96 119.981H269.988Z" fill="#E89587"/>
<path d="M269.988 117.816C271.372 117.761 273.043 116.651 274.372 115.514C275.29 114.706 276.058 113.884 276.4 113.391C277.03 112.486 277.085 108.239 277.072 106.074C277.072 105.307 277.058 104.814 277.058 104.814C277.058 99.1553 269.988 101.046 269.988 101.046C269.988 101.046 262.918 99.169 262.918 104.814C262.918 104.814 262.918 105.143 262.918 105.65C262.617 105.307 261.343 103.896 260.521 103.896C260.315 103.896 260.137 103.978 260.027 104.197C259.356 105.403 260.411 109.732 262.987 109.732C263.069 111.349 263.247 112.897 263.59 113.391C263.932 113.898 264.699 114.72 265.617 115.514C266.933 116.665 268.604 117.761 270.002 117.816H269.988ZM272.975 110.294C273.756 110.294 274.372 111.253 274.372 112.445C274.372 113.637 273.742 114.596 272.975 114.596C272.208 114.596 271.577 113.624 271.577 112.445C271.577 111.267 272.208 110.294 272.975 110.294Z" fill="#F6A79A"/>
<path d="M271.564 112.445C271.564 113.637 272.195 114.596 272.962 114.596C273.729 114.596 274.359 113.624 274.359 112.445C274.359 111.267 273.729 110.294 272.962 110.294C272.195 110.294 271.564 111.253 271.564 112.445Z" fill="white"/>
<path d="M319.119 170.976L319.133 170.962H319.119V170.976Z" fill="#F6A79A"/>
<path d="M319.12 170.976L318.641 170.798C318.942 170.908 319.12 170.976 319.12 170.976Z" fill="#F6A79A"/>
<path d="M322.134 124.201L316.257 121.858L320.586 120.392L322.121 124.173C321.244 121.968 320.655 120.556 320.6 120.419C322.6 119.638 324.738 118.624 325.519 117.624C327.149 115.542 324.669 108.308 323.176 106.869C322.806 106.513 321.751 106.677 320.367 107.116C317.819 107.91 314.16 109.65 311.571 110.952C311.187 111.144 310.804 111.336 310.475 111.514C309.557 111.979 309.269 113.103 309.749 113.952C309.749 113.952 309.735 119.036 309.721 125.872L324.573 130.462C323.669 128.078 322.833 125.927 322.148 124.215L322.134 124.201Z" fill="#F6A79A"/>
<path d="M307.42 166.469L307.461 166.619L319.121 170.976L307.42 166.469Z" fill="#840B96"/>
<path d="M275.92 120.611L276.797 126.229L288.196 199.283C288.265 199.283 288.306 199.269 288.306 199.269L289.333 205.969C289.333 205.969 289.265 205.969 289.237 205.982L296.115 250.086L315.708 233.631L323.586 227.013L307.46 166.66L318.64 170.798L319.119 170.976L307.46 166.633L307.419 166.482L305.802 160.454L319.119 170.99H319.16C319.489 170.812 330.121 165.592 331.683 153.014C332.122 149.493 328.71 139.258 325.572 130.791L324.545 130.476L309.693 125.886L309.392 125.79L309.364 129.736C309.364 131.997 309.35 134.326 309.35 136.655L294.307 124.667C293.512 123.858 292.621 123.146 291.649 122.557C289.361 121.145 286.675 120.378 283.839 120.447L276.262 120.639H275.92V120.611Z" fill="#603C93"/>
<path d="M259.137 199.735L263.206 127.927L263.604 121.022H257.986C247.985 120.515 239.065 127.256 236.846 137.025L231.132 162.098L222.213 227.013L236.626 237.399L256.219 251.511L259.151 199.748L259.137 199.735Z" fill="#603C93"/>
<path d="M366.047 394.194C358.278 392.549 350.318 385.206 348.797 383.74C348.633 383.575 348.523 383.466 348.523 383.466L330.164 384.137C331.082 389.7 329.903 396.399 329.903 396.399C329.739 401.578 332.63 402.729 332.63 402.729L369.705 401.373C376.829 401.113 374.678 396.016 366.047 394.194Z" fill="#472A29"/>
<path d="M319.667 104.074L311.255 110.527L308.583 106.951L319.667 104.074L308.158 106.389L311.57 110.938C314.146 109.637 317.817 107.897 320.366 107.102L319.681 104.074H319.667Z" fill="#C64397"/>
<path d="M311.256 110.527L319.668 104.074L308.57 106.965L311.256 110.527Z" fill="#603C93"/>
<path d="M320.587 120.392L316.258 121.858L322.136 124.201L322.108 124.16L320.587 120.392Z" fill="#D18D83"/>
<path d="M243.97 386.877L243.874 387.151L241.134 394.454C251.136 394.235 256.288 397.345 256.288 397.345C249.506 395.564 240.052 397.345 240.052 397.345C231.489 399.482 229.529 404.661 236.668 404.661L260.576 405.552C260.576 405.552 267.057 403.88 263.07 399.126C263.07 399.126 261.809 393.207 262.261 387.85C262.289 387.521 262.316 387.192 262.357 386.877H243.984H243.97Z" fill="#472A29"/>
<path d="M256.275 397.345C256.275 397.345 251.137 394.235 241.121 394.454L240.039 397.345C240.039 397.345 249.493 395.564 256.275 397.345Z" fill="#9E2E10"/>
<path d="M288.306 199.269C288.306 199.269 288.265 199.269 288.197 199.31C287.786 199.447 286.237 199.899 283.607 200.296C279.127 200.981 271.481 201.502 260.644 199.995C260.603 199.995 260.562 199.995 260.521 199.981L260.014 205.969C260.014 205.969 276.236 207.983 289.238 205.982C289.265 205.982 289.306 205.982 289.334 205.969L288.306 199.269Z" fill="black"/>
<path d="M266.687 135.806L268.235 140.354L265.193 182.28L271.797 191.199L277.511 181.745L272.784 140.354L274.373 135.751L270.605 131.887L266.687 135.806Z" fill="#93693F"/>
<path d="M305.805 160.44L307.421 166.468L319.122 170.976L305.805 160.44Z" fill="#603C93"/>
<path d="M300.46 101.347C307.42 96.6206 339.631 70.1501 339.631 70.1501L346.413 97.6892L302.214 108.266C300.693 108.636 299.268 107.376 299.419 105.8C299.419 105.8 298.597 102.622 300.46 101.347Z" fill="#C64397"/>
<path d="M348.318 82.5908C350.195 90.1948 349.523 96.9083 346.824 97.5934C344.125 98.2784 340.412 92.661 338.549 85.0569C336.672 77.4529 337.343 70.7394 340.042 70.0543C342.741 69.3692 346.454 74.9867 348.318 82.5908Z" fill="#603C93"/>
<path d="M347.195 82.9606C348.812 89.5508 348.634 95.2779 346.798 95.7437C344.948 96.2095 342.14 91.2361 340.523 84.6321C338.906 78.0419 339.084 72.3149 340.92 71.8491C342.756 71.3832 345.579 76.3567 347.195 82.9606Z" fill="#4F1A3D"/>
<path d="M243.753 125.776C243.753 125.776 215.474 163.989 212.213 167.688C210.871 169.209 185.578 165.715 185.578 165.715L174.439 183.883C174.439 183.883 214.323 194.542 214.83 195.076C215.351 195.611 228.106 188.431 228.106 188.431L243.739 125.79L243.753 125.776Z" fill="#603C93"/>
<path d="M182.085 163.961C182.085 163.961 168.438 158.166 167.096 159.755C165.753 161.331 164.013 168.784 165.821 170.688C167.63 172.593 175.22 174.004 175.22 174.004L182.085 163.961Z" fill="#F6A79A"/>
<path d="M154.078 170.086C161.614 170.894 169.149 171.716 176.685 172.524C170.218 160.399 186.81 150.753 180.357 138.628C172.821 137.82 165.286 136.998 157.75 136.189C164.217 148.315 147.625 157.96 154.078 170.086Z" fill="white"/>
<path d="M182.14 164.139L185.359 166.373L178.742 177.47L175.248 174.004L182.14 164.139Z" fill="#F6A79A"/>
<path d="M175.248 174.004L178.153 174.703L179.591 176.073L178.742 177.47L175.248 174.004Z" fill="#E39B8E"/>
<path d="M176.616 162.016C176.616 162.016 170.629 161.892 170.273 162.372C169.917 162.851 173.492 166.126 175.918 165.934C175.918 165.934 178.85 165.4 176.616 162.016Z" fill="#F6A79A"/>
<path d="M399.657 210.284H129.568V231.343H399.657V210.284Z" fill="#5F3917"/>
<path d="M390.627 221.67H381.584V403.935H390.627V221.67Z" fill="#5F3917"/>
<path d="M153.599 221.67H144.557V403.935H153.599V221.67Z" fill="#5F3917"/>
<path d="M390.627 231.329L381.584 248.195V231.781L390.627 231.329Z" fill="#59504A"/>
<path d="M153.613 231.329L144.557 248.195V231.329H153.613Z" fill="#59504A"/>
<path d="M186.302 290.997H177.177V269.596H170.012V290.997H160.9V240.194H170.012V260.896H177.177V240.194H186.302V290.997ZM178.862 289.326H184.631V241.865H178.862V262.568H168.34V241.865H162.586V289.326H168.34V267.925H178.862V289.326Z" fill="#6399F7"/>
<path d="M188.877 346.021H179.259L173.367 325.25H171.394V346.021H162.283V295.217H173.861C182.369 295.217 187.055 299.93 187.055 308.48V311.987C187.055 317.125 185.287 320.975 181.944 323.167L188.891 346.021H188.877ZM180.519 344.349H186.616L179.944 322.4L180.519 322.071C183.725 320.235 185.356 316.851 185.356 311.987V308.48C185.356 300.903 181.369 296.889 173.833 296.889H163.941V344.349H169.709V323.578H174.614L180.506 344.349H180.519ZM173.573 318.372H169.709V302.095H173.573C177.628 302.095 179.601 304.342 179.601 308.973V311.494C179.601 316.125 177.628 318.372 173.573 318.372ZM171.394 316.7H173.573C176.669 316.7 177.93 315.193 177.93 311.508V308.987C177.93 305.288 176.669 303.794 173.573 303.794H171.394V316.714V316.7Z" fill="#6399F7"/>
<path d="M173.149 401.03H161.641V350.227H173.149C181.658 350.227 186.344 354.94 186.344 363.49V387.781C186.344 396.331 181.658 401.044 173.149 401.044V401.03ZM163.326 399.359H173.149C180.685 399.359 184.658 395.358 184.658 387.768V363.476C184.658 355.899 180.671 351.885 173.149 351.885H163.326V399.345V399.359ZM172.875 394.152H169.094V357.105H172.875C176.931 357.105 178.904 359.352 178.904 363.983V387.288C178.904 391.905 176.931 394.166 172.875 394.166V394.152ZM170.766 392.481H172.875C175.972 392.481 177.232 390.974 177.232 387.288V363.983C177.232 360.283 175.972 358.79 172.875 358.79H170.766V392.481Z" fill="#6399F7"/>
<path d="M153.243 359.722H118.922V361.01H153.243V359.722Z" fill="#6399F7"/>
<path d="M213.336 384.493H184.756V385.904H213.336V384.493Z" fill="#6399F7"/>
<path d="M213.323 403.236H27.7559V404.647H213.323V403.236Z" fill="#6399F7"/>
<path d="M394.066 351.857L414.399 369.915L414.878 351.857H394.066Z" fill="#BACFD4"/>
<path d="M447.145 403.949L467.491 422.007L467.956 403.949H447.145Z" fill="#BACFD4"/>
<path d="M59.6243 176.333C60.1449 176.388 61.6246 176.525 63.625 176.717C63.9538 176.155 64.0223 173.538 63.9949 170.579C64.3785 170.044 64.7896 169.428 65.2006 168.743C67.0228 165.729 64.0497 159.714 64.0497 159.714L63.7072 160.454C63.7894 160.207 63.899 159.96 64.0497 159.714L63.1317 157.549C61.515 155.617 62.5426 154.179 63.4606 153.877C64.036 153.699 64.584 154.439 64.8992 155.014C64.9266 154.987 64.954 154.946 64.9814 154.919C65.2143 155.124 65.502 155.234 65.8034 155.206C66.1597 155.179 66.4748 154.987 66.8173 154.877C67.1598 154.768 67.5572 154.74 67.8175 155.001C68.023 155.193 68.0915 155.508 68.297 155.699C68.6121 156.001 69.0917 155.878 69.489 155.741C70.7221 155.33 71.9826 154.891 73.0924 154.138C73.4075 153.918 73.7911 153.644 74.0926 153.329C74.12 154.48 74.257 156.878 74.805 157.823C74.8872 157.96 74.9557 158.193 75.0242 158.467C77.6 157.481 78.1618 155.987 78.1618 150.205C78.1618 140.834 62.4056 135.833 52.623 151.137C47.0467 159.865 34.5377 157.96 25.4539 161.879C10.4512 168.346 4.45016 183.622 3.14857 187.239C-1.24947 199.557 -1.50979 213.408 6.90265 220.793C14.1642 227.178 28.9065 226.876 35.2638 224.616C36.6339 199.406 42.3335 174.675 59.6106 176.333H59.6243Z" fill="black"/>
<path d="M66.9958 386.041L70.3115 373.368L37.7715 371.34C37.7715 371.34 56.3638 383.726 66.9958 386.041Z" fill="#E38C6E"/>
<path d="M128.074 483.127C122.059 481.853 103.823 466.878 103.823 466.878L91.8207 467.535C91.8207 467.535 90.7521 471.372 90.7658 474.331C90.7932 480.428 90.7932 486.182 90.7932 486.182C90.7932 486.182 121.319 490.8 126.745 489.498C129.458 488.84 130.088 487.292 130.033 485.895C129.992 484.497 129.115 483.36 128.06 483.141L128.074 483.127Z" fill="#1A1A1A"/>
<path d="M98.7001 251.319C98.659 250.963 98.5083 250.661 98.3027 250.442C99.0837 255.553 99.8099 260.732 100.468 265.678C99.6317 258.69 98.9878 253.593 98.7001 251.319Z" fill="#F79878"/>
<path d="M107.797 361.393C107.523 332.073 103.933 295.971 101.302 272.967C99.9597 278.474 61.9393 285.544 39.0175 276.584L36.3184 457.849L37.3596 458.561L50.129 464.22L70.2969 373.368L66.9813 386.041C56.363 383.726 37.757 371.34 37.757 371.34L70.2969 373.368L72.6535 362.722C80.9975 413.348 90.8622 466.124 90.8622 466.124C90.9581 466.878 91.0129 467.604 91.6295 467.535L103.81 466.878C104.413 466.809 109.112 426.569 109.098 424.13C109.043 414.951 108.002 383.082 107.797 361.393Z" fill="#F79878"/>
<path d="M82.5723 179.622C82.5723 179.622 82.7504 179.717 83.0656 179.882C83.1889 179.937 83.2985 179.991 83.3807 180.046C88.7241 182.91 119.209 199.228 121.141 199.228C121.675 199.228 124.141 198.447 127.498 197.282L142.651 183.362L133.622 173.511C133.622 173.511 112.427 181.992 107.796 182.417C104.686 182.704 90.012 180.567 80.709 179.142C81.4214 179.306 82.0243 179.485 82.5175 179.663C82.5312 179.663 82.5449 179.635 82.5586 179.622H82.5723Z" fill="#4F2E7D"/>
<path d="M94.1523 227.479L95.7965 235.494C95.2621 232.631 94.7141 229.945 94.1523 227.479Z" fill="#603C93"/>
<path d="M101.317 272.98C101.358 272.83 101.386 272.679 101.358 272.542C101.07 270.336 100.783 268.048 100.468 265.705C99.8099 260.759 99.0838 255.58 98.3028 250.47C97.5218 245.318 96.6861 240.249 95.8092 235.59L83.9441 225.397L94.1377 227.411C102.043 228.315 111.675 228.74 117.731 226.589C135.104 220.451 165.054 196.666 165.054 196.666L154.71 187.253C154.71 187.253 137.282 193.898 127.5 197.282C124.143 198.447 121.69 199.228 121.142 199.228C119.211 199.228 88.7258 182.923 83.3824 180.046C83.2865 179.991 83.1905 179.937 83.0672 179.882C82.7521 179.717 82.574 179.621 82.574 179.621C82.5603 179.621 82.5466 179.649 82.5329 179.663C82.0534 179.484 81.4368 179.32 80.7244 179.142C78.6829 178.649 75.8468 178.197 72.9148 177.799C72.9148 177.84 72.9148 177.881 72.9148 177.909L63.6392 176.731C63.6392 176.731 63.6392 176.731 63.6392 176.717C61.6525 176.511 60.1591 176.374 59.6385 176.333C42.3614 174.675 36.6618 199.419 35.2917 224.616C33.9079 249.908 36.8947 275.679 36.8947 275.679C37.5935 275.995 38.3059 276.296 39.0458 276.584C61.9676 285.544 100.002 278.475 101.331 272.967L101.317 272.98Z" fill="#603C93"/>
<path d="M64.0496 159.714C63.8988 159.947 63.7892 160.193 63.707 160.454L64.0496 159.714Z" fill="#F79878"/>
<path d="M66.9258 166.331C67.7067 169.099 69.4879 173.456 72.8994 173.388C72.8994 171.867 72.8583 171.332 72.8172 169.373C71.5293 169.401 69.7208 168.894 67.8849 167.359C67.5423 167.071 67.2272 166.715 66.9258 166.345V166.331Z" fill="#CF7F64"/>
<path d="M74.0927 153.343C73.7776 153.658 73.4077 153.932 73.0925 154.151C71.9827 154.905 70.7223 155.33 69.4892 155.754C69.0918 155.891 68.6123 156.001 68.2972 155.713C68.0917 155.521 68.0231 155.206 67.8176 155.014C67.5573 154.754 67.1463 154.782 66.8175 154.891C66.4749 155.001 66.1598 155.193 65.8036 155.22C65.5022 155.247 65.2144 155.124 64.9815 154.932C64.9541 154.96 64.9267 155.001 64.8993 155.028C64.5842 154.453 64.0361 153.713 63.4607 153.891C62.5427 154.179 61.5152 155.631 63.1319 157.563L64.0498 159.728C64.0498 159.728 67.023 165.742 65.2007 168.757C64.7897 169.442 64.3787 170.044 63.995 170.593C64.0224 173.552 63.9539 176.169 63.6251 176.731C63.6251 176.731 63.6251 176.731 63.6251 176.744L72.9007 177.923C72.9007 177.923 72.9007 177.84 72.9007 177.813C72.9829 176.415 72.9281 173.086 72.8322 169.373C73.6817 169.346 74.3119 169.113 74.5311 168.757C75.5039 167.222 75.5587 160.769 75.0244 158.494C74.9559 158.22 74.8874 157.988 74.8052 157.851C74.2434 156.905 74.1201 154.507 74.0927 153.357V153.343ZM72.9007 173.374C69.4892 173.442 67.708 169.085 66.9271 166.318C67.2148 166.688 67.5299 167.044 67.8861 167.332C69.7221 168.88 71.5306 169.373 72.8185 169.346C72.8733 171.305 72.9007 171.839 72.9007 173.36V173.374Z" fill="#F79878"/>
<path d="M37.3752 458.561L36.3339 458.095C34.3472 463.356 30.141 468.481 30.141 468.481C27.483 472.838 29.2093 475.359 29.2093 475.359L42.8967 483.812L51.0625 490.512L61.7493 492.745C68.3395 493.403 68.3532 487.388 60.6258 484.442C59.5297 484.018 58.4474 483.442 57.3924 482.771H57.4198C53.1314 476.235 50.1445 464.22 50.1445 464.22L37.3752 458.561Z" fill="#1A1A1A"/>
<path d="M83.9434 225.383L95.8085 235.577L95.7948 235.494L94.1506 227.479L94.1232 227.397L83.9434 225.383Z" fill="#603C93"/>
<path d="M138.995 164.29C138.995 164.29 149.695 163.413 150.572 165.783C151.449 168.14 151.024 171.976 151.024 171.976C151.024 171.976 146.558 177.32 145.037 178.169C143.53 179.019 143.42 178.101 141.283 178.854L139.145 179.608L134.186 174.182C134.186 174.182 134.61 171.045 135.172 169.14C135.734 167.236 139.008 164.29 139.008 164.29H138.995Z" fill="#F79878"/>
<path d="M159.368 177.279C159.368 177.279 169.986 175.648 171.014 177.936C172.055 180.224 171.905 184.088 171.905 184.088C171.905 184.088 167.822 189.733 166.383 190.692C164.931 191.651 164.766 190.747 162.684 191.637L160.601 192.542L155.258 187.486C155.258 187.486 155.463 184.335 155.874 182.389C156.285 180.444 159.368 177.279 159.368 177.279Z" fill="#F79878"/>
<path d="M37.4298 275.57L22.6875 366.01C22.6875 366.01 32.1275 374.108 56.2962 373.313C76.4093 372.655 116.69 369.86 116.69 369.86C116.69 369.86 108.264 317.207 101.345 272.515L37.4161 275.556L37.4298 275.57Z" fill="#221239"/>
<path d="M283.088 433.05H144.557V434.338H283.088V433.05Z" fill="#6399F7"/>
<path d="M283.088 421.363H144.557V422.651H283.088V421.363Z" fill="#6399F7"/>
<path d="M170.343 502.226H28.6602V503.638H170.343V502.226Z" fill="#6399F7"/>
<path d="M76.1322 117.816L73.3372 107.938H71.7067V117.816H68.1719V94.4696H73.2824C77.0776 94.4696 79.1464 96.5385 79.1464 100.375V102.046C79.1464 104.512 78.2832 106.252 76.6528 107.184L79.8863 117.816H76.1459H76.1322ZM71.6931 97.7442V104.677H73.1317C74.8306 104.677 75.5978 103.773 75.5978 101.8V100.594C75.5978 98.621 74.8306 97.7305 73.1317 97.7305H71.6931V97.7442Z" fill="#1B6FC9"/>
<path d="M93.1891 97.7305H86.7907V104.334H91.956V107.609H86.7907V114.542H93.1891V117.816H83.2559V94.4696H93.1891V97.7305Z" fill="#1B6FC9"/>
<path d="M107.59 99.7308V101.827L104.192 101.991V100.087C104.192 98.2237 103.493 97.3879 102.191 97.3879C100.89 97.3879 100.191 98.2237 100.191 99.7582V112.5C100.191 114.035 100.89 114.87 102.191 114.87C103.493 114.87 104.192 114.035 104.192 112.171V109.568L107.59 109.733V112.528C107.59 116.062 105.562 118.131 102.096 118.131C98.6292 118.131 96.6562 116.062 96.6562 112.528V99.7171C96.6562 96.1822 98.6566 94.1133 102.096 94.1133C105.535 94.1133 107.59 96.1822 107.59 99.7171V99.7308Z" fill="#1B6FC9"/>
<path d="M119.386 117.816L116.591 107.938H114.961V117.816H111.426V94.4696H116.523C120.318 94.4696 122.387 96.5385 122.387 100.375V102.046C122.387 104.512 121.523 106.252 119.893 107.184L123.126 117.816H119.4H119.386ZM114.947 97.7442V104.677H116.386C118.084 104.677 118.852 103.773 118.852 101.8V100.594C118.852 98.621 118.084 97.7305 116.386 97.7305H114.947V97.7442Z" fill="#1B6FC9"/>
<path d="M137.144 112.569C137.144 116.241 135.048 118.131 131.637 118.131C128.225 118.131 126.197 116.227 126.197 112.569V94.4559H129.595V112.459C129.595 114.158 130.362 114.788 131.595 114.788C132.829 114.788 133.596 114.158 133.596 112.459V94.4559H137.131V112.569H137.144Z" fill="#1B6FC9"/>
<path d="M145.103 117.816H141.568V94.4696H145.103V117.816Z" fill="#1B6FC9"/>
<path d="M159.27 97.799H155.502V117.802H151.967V97.799H148.199V94.4696H159.27V97.799Z" fill="#1B6FC9"/>
<path d="M177.342 117.816H173.808V101.608H173.739L170.807 114.473H168.711L165.779 101.608H165.71V117.816H162.381V94.4696H167.012L169.779 107.006H169.848L172.574 94.4696H177.342V117.816Z" fill="#1B6FC9"/>
<path d="M191.892 97.7305H185.494V104.334H190.659V107.609H185.494V114.542H191.892V117.816H181.959V94.4696H191.892V97.7305Z" fill="#1B6FC9"/>
<path d="M207.224 117.816H203.757L199.126 102.348H199.058V117.816H195.729V94.4696H199.661L203.826 108.376H203.894V94.4696H207.237V117.816H207.224Z" fill="#1B6FC9"/>
<path d="M221.391 97.799H217.623V117.802H214.088V97.799H210.32V94.4696H221.391V97.799Z" fill="#1B6FC9"/>
<path d="M155.942 78.179H154.572V56.8464H305.393V58.2165H155.942V78.179Z" fill="#C0966A"/>
<path d="M359.663 45.6253H156.367V46.9954H359.663V45.6253Z" fill="#C0966A"/>
<path d="M359.663 32.3764H156.367V33.7465H359.663V32.3764Z" fill="#C0966A"/>
<path d="M225.543 123.502H60.2539V124.913H225.543V123.502Z" fill="#6399F7"/>
<path d="M108.07 525.861V509.995H123.95L108.07 525.861Z" fill="#BACFD4"/>
<path d="M128.143 525.861V509.995H144.022L128.143 525.861Z" fill="#BACFD4"/>
<path d="M148.229 525.861V509.995H164.094L148.229 525.861Z" fill="#BACFD4"/>
<path d="M373.994 559.552H42.6895V560.826H373.994V559.552Z" fill="#6399F7"/>
<path d="M453.555 500.623H360.676V501.897H453.555V500.623Z" fill="#6399F7"/>
<path d="M501.688 551.838H408.809V553.112H501.688V551.838Z" fill="#6399F7"/>
<path d="M395.518 447.217H302.639V448.491H395.518V447.217Z" fill="#6399F7"/>
<path d="M393.314 67.5607L363.802 76.7404L364.213 78.0557L393.725 68.876L393.314 67.5607ZM367.296 87.1395L393.519 87.1669V85.7968L367.296 85.7694V87.1395ZM365.734 94.6751L378.298 102.074L378.996 100.895L366.433 93.4968L365.734 94.6751ZM371.858 55.1339L360.226 67.7526L361.226 68.6842L372.858 56.0656L371.858 55.1339ZM353.17 61.8611L354.54 61.957L355.047 54.3803L353.677 54.2844L353.17 61.8611Z" fill="white"/>
</svg>
