<svg width="80" height="80" viewBox="0 0 80 80" fill="none" xmlns="http://www.w3.org/2000/svg">
<g clip-path="url(#clip0_386_62317)">
<path d="M57.7707 38.5195C57.7707 27.8816 49.116 19.227 38.4781 19.227C27.8402 19.227 19.1855 27.8816 19.1855 38.5195C19.1855 49.1575 27.8402 57.8121 38.4781 57.8121C49.116 57.8121 57.7707 49.1575 57.7707 38.5195ZM38.4781 55.3121C29.2187 55.3121 21.6855 47.779 21.6855 38.5195C21.6855 29.2601 29.2187 21.727 38.4781 21.727C47.7376 21.727 55.2707 29.2601 55.2707 38.5195C55.2707 47.779 47.7376 55.3121 38.4781 55.3121Z" fill="black"/>
<path d="M38.4413 37.18C36.6773 37.18 35.2422 35.7449 35.2422 33.981C35.2422 32.217 36.6773 30.7819 38.4413 30.7819C39.2958 30.7819 40.0991 31.1146 40.7032 31.7188C41.1914 32.2069 41.9828 32.207 42.471 31.7189C42.9592 31.2308 42.9592 30.4393 42.4711 29.9511C41.6959 29.1758 40.7361 28.653 39.6913 28.4203V26.2141C39.6913 25.5237 39.1317 24.9641 38.4413 24.9641C37.7509 24.9641 37.1913 25.5237 37.1913 26.2141V28.4217C34.6483 28.9932 32.7422 31.268 32.7422 33.981C32.7422 37.1234 35.2988 39.68 38.4413 39.68C40.2053 39.68 41.6404 41.1151 41.6404 42.8791C41.6404 44.6431 40.2053 46.0782 38.4413 46.0782C37.5868 46.0782 36.7834 45.7454 36.1792 45.1412C35.691 44.6531 34.8996 44.6531 34.4114 45.1412C33.9232 45.6294 33.9232 46.4208 34.4114 46.909C35.1866 47.6843 36.1464 48.207 37.1913 48.4398V50.646C37.1913 51.3364 37.7509 51.896 38.4413 51.896C39.1317 51.896 39.6913 51.3364 39.6913 50.646V48.4384C42.2343 47.8669 44.1404 45.5921 44.1404 42.8791C44.1404 39.7366 41.5838 37.18 38.4413 37.18Z" fill="black"/>
<path d="M71.5255 68.8146L66.0859 64.2919V56.4059C66.0859 55.7155 65.5262 55.1559 64.8359 55.1559C64.1456 55.1559 63.5859 55.7155 63.5859 56.4059V64.8782C63.5859 65.2496 63.7512 65.6019 64.0368 65.8393L69.9273 70.7369C70.1608 70.931 70.444 71.0257 70.7258 71.0257C71.0844 71.0257 71.4404 70.8721 71.6876 70.5749C72.129 70.044 72.0564 69.2559 71.5255 68.8146Z" fill="black"/>
<path d="M66.9719 50.1816C67.2491 49.5048 67.5012 48.8175 67.7289 48.1242L73.3452 47.1927C75.2272 46.9211 76.6441 45.2864 76.6441 43.3833V33.6558C76.6441 31.7512 75.2249 30.1155 73.3409 29.8457L67.744 28.9563C67.2573 27.4666 66.6544 26.0106 65.9447 24.6111L69.265 19.9991C70.4044 18.4762 70.2507 16.3175 68.9049 14.9715L62.0264 8.09305C60.6769 6.74326 58.51 6.59242 56.9843 7.74385L52.5243 11.1237C51.0296 10.3562 49.4713 9.71132 47.8736 9.19954L47.1539 3.66983C46.8898 1.77942 45.251 0.35379 43.3421 0.35379H33.6145C31.7057 0.35379 30.067 1.77934 29.801 3.68173L29.0838 9.1992C27.5015 9.70602 25.9576 10.3436 24.4761 11.1013L19.9704 7.74232C18.4467 6.59258 16.2798 6.74326 14.9303 8.09305L8.05183 14.9715C6.70464 16.3186 6.5519 18.4799 7.69463 20.003L11.0305 24.5745C10.3082 25.994 9.69601 27.4714 9.20351 28.9838L3.61923 29.8452C1.73347 30.1135 0.3125 31.75 0.3125 33.6558V43.3833C0.3125 45.2883 1.73225 46.9243 3.61702 47.1935L9.20948 48.0731C9.71313 49.6163 10.3411 51.1228 11.084 52.569L7.70111 57.0275C6.55128 58.5511 6.70204 60.7179 8.05183 62.0676L14.9302 68.946C15.6719 69.6878 16.6605 70.0675 17.6543 70.0675C18.4689 70.0675 19.2871 69.8124 19.9759 69.2925L24.4126 65.9055C25.8788 66.6598 27.407 67.2958 28.973 67.804L29.8026 73.3694C30.067 75.2598 31.7057 76.6853 33.6145 76.6853H43.3421C45.251 76.6853 46.8896 75.2598 47.1539 73.3693C47.1547 73.3637 47.1555 73.358 47.1562 73.3523L47.8491 67.8456C48.6222 67.5986 49.3876 67.3205 50.1402 67.0123C51.1783 74.1934 57.3729 79.7288 64.8369 79.7288C73.0255 79.7288 79.6875 73.0668 79.6875 64.8782C79.6875 57.4145 74.1525 51.2201 66.9719 50.1816ZM49.9965 64.3544C48.8173 64.8808 47.5984 65.3287 46.3618 65.6869C45.8866 65.8215 45.5213 66.2534 45.4679 66.7445L44.677 73.0305C44.5811 73.6894 44.0086 74.1853 43.3421 74.1853H33.6145C32.9456 74.1853 32.3712 73.6857 32.2769 73.0119L31.3299 66.6587C31.2616 66.186 30.9064 65.7777 30.4478 65.6443C28.524 65.0757 26.655 64.297 24.8927 63.3298C24.4613 63.0895 23.8986 63.1375 23.5137 63.4466L18.4644 67.3012C17.9303 67.7042 17.1711 67.6513 16.698 67.1783L9.81956 60.2998C9.34647 59.8268 9.29367 59.0674 9.69467 58.536L13.5417 53.4657C13.85 53.0808 13.8982 52.5192 13.6586 52.088C12.7046 50.3467 11.9343 48.5011 11.369 46.6023C11.2358 46.1481 10.833 45.7955 10.3651 45.7241L3.99574 44.7224C3.98872 44.7212 3.9817 44.7202 3.97461 44.7193C3.31207 44.6266 2.8125 44.0523 2.8125 43.3833V33.6558C2.8125 32.9868 3.31207 32.4124 3.97461 32.3198C3.98048 32.319 3.98628 32.3181 3.99216 32.3172L10.3556 31.3355C10.8259 31.2647 11.23 30.9121 11.3633 30.4559C11.917 28.5909 12.6689 26.7761 13.5981 25.0622C13.8258 24.6464 13.7899 24.1114 13.5089 23.7296L9.70863 18.5218C9.70467 18.5164 9.7007 18.5111 9.69666 18.5057C9.29367 17.9717 9.34654 17.2123 9.81956 16.7392L16.6981 9.86078C17.1712 9.3876 17.9302 9.33488 18.4703 9.74229L23.5941 13.562C23.9784 13.8639 24.5325 13.9083 24.9599 13.6725C26.7345 12.7049 28.6158 11.9286 30.5518 11.3645C31.0342 11.2342 31.4081 10.8004 31.4614 10.3022L32.2785 4.01598C32.3711 3.35344 32.9455 2.85379 33.6145 2.85379H43.3421C44.0111 2.85379 44.5854 3.35336 44.6765 4.00415L45.4961 10.3034C45.5509 10.8003 45.9243 11.236 46.4073 11.3653C48.3596 11.9343 50.2557 12.7189 52.0433 13.698C52.4714 13.9352 53.0272 13.8911 53.412 13.5878L58.4923 9.73787C59.0259 9.33481 59.7855 9.38768 60.2585 9.86078L67.137 16.7392C67.61 17.2122 67.663 17.9717 67.26 18.5058C67.2543 18.5132 67.2487 18.5208 67.2433 18.5283L63.465 23.7766C63.1883 24.1574 63.1542 24.6879 63.3795 25.101C64.2938 26.794 65.0357 28.5857 65.5846 30.4263C65.7176 30.8799 66.1186 31.2312 66.5862 31.3037L72.9588 32.3164C72.9666 32.3176 72.9742 32.3187 72.982 32.3198C73.6446 32.4124 74.1441 32.9868 74.1441 33.6558V43.3833C74.1441 44.0523 73.6446 44.6266 72.982 44.7193C72.9715 44.7207 72.961 44.7223 72.9506 44.7241L66.5636 45.7833C66.1006 45.858 65.7036 46.2077 65.5707 46.6573C65.2263 47.8056 64.8036 48.9391 64.3132 50.0378C56.5402 50.3087 50.2674 56.5814 49.9965 64.3544ZM64.8369 77.2288C58.0267 77.2288 52.4863 71.6883 52.4863 64.8782C52.4863 58.068 58.0267 52.5276 64.8369 52.5276C71.647 52.5276 77.1875 58.068 77.1875 64.8782C77.1875 71.6883 71.647 77.2288 64.8369 77.2288Z" fill="black"/>
</g>
<defs>
<clipPath id="clip0_386_62317">
<rect width="80" height="80" fill="white"/>
</clipPath>
</defs>
</svg>
