<svg width="80" height="80" viewBox="0 0 80 80" fill="none" xmlns="http://www.w3.org/2000/svg">
<path d="M40.0004 73.75C34.7601 73.7489 29.592 72.5274 24.9056 70.1825C20.2192 67.8376 16.1432 64.4337 13.0005 60.2403C9.85782 56.0469 7.73479 51.1793 6.7996 46.0231C5.86441 40.8668 6.14275 35.5637 7.61257 30.5337C9.08238 25.5038 11.7033 20.8851 15.2677 17.0438C18.8321 13.2024 23.242 10.2438 28.1481 8.40237C33.0543 6.56093 38.3218 5.88724 43.5335 6.43466C48.7451 6.98209 53.7577 8.73559 58.1741 11.5563C58.4534 11.7349 58.6503 12.0173 58.7215 12.3411C58.7926 12.665 58.7322 13.0038 58.5535 13.2831C58.3748 13.5624 58.0925 13.7593 57.7687 13.8305C57.4448 13.9016 57.1059 13.8412 56.8266 13.6625C50.3389 9.51974 42.5497 7.91878 34.9539 9.16683C27.3581 10.4149 20.4908 14.424 15.6697 20.4249C10.8486 26.4258 8.41336 33.9958 8.83135 41.6821C9.24935 49.3684 12.4911 56.6295 17.9345 62.0723C23.3779 67.5149 30.6396 70.7557 38.3259 71.1727C46.0122 71.5897 53.5818 69.1535 59.5821 64.3316C65.5824 59.5097 69.5906 52.6419 70.8377 45.0459C72.0847 37.4499 70.4828 29.661 66.3391 23.1738C66.2462 23.0356 66.1818 22.8802 66.1497 22.7168C66.1177 22.5533 66.1186 22.3852 66.1524 22.2221C66.1863 22.059 66.2524 21.9044 66.3468 21.7672C66.4413 21.63 66.5622 21.5131 66.7024 21.4233C66.8427 21.3336 66.9995 21.2727 67.1636 21.2444C67.3277 21.216 67.4958 21.2207 67.6581 21.2583C67.8203 21.2958 67.9734 21.3654 68.1084 21.4629C68.2434 21.5605 68.3576 21.684 68.4441 21.8263C71.7039 26.9273 73.5317 32.8112 73.7359 38.8615C73.9401 44.9117 72.5133 50.9055 69.6049 56.2147C66.6965 61.524 62.4136 65.9532 57.2051 69.0383C51.9965 72.1235 46.0541 73.7509 40.0004 73.75Z" fill="black"/>
<path d="M39.9993 53.75C37.8896 53.7511 35.8079 53.2667 33.9154 52.3343C32.0229 51.4019 30.3703 50.0465 29.0856 48.3731C27.8009 46.6996 26.9184 44.753 26.5067 42.6838C26.0949 40.6147 26.1647 38.4785 26.7108 36.4407C27.257 34.4029 28.2647 32.5181 29.656 30.9321C31.0473 29.3462 32.7849 28.1017 34.7343 27.295C36.6837 26.4882 38.7926 26.1409 40.8977 26.2799C43.0029 26.4188 45.0478 27.0403 46.8743 28.0962C47.1507 28.2672 47.3496 28.5391 47.4289 28.8543C47.5082 29.1695 47.4616 29.5031 47.299 29.7845C47.1364 30.066 46.8707 30.273 46.558 30.3617C46.2454 30.4505 45.9105 30.414 45.6243 30.26C43.2591 28.8984 40.4795 28.443 37.8034 28.9786C35.1273 29.5142 32.7372 31.0044 31.0783 33.1715C29.4194 35.3386 28.6048 38.0349 28.7863 40.758C28.9679 43.4811 30.1331 46.0454 32.0649 47.9732C33.9968 49.9009 36.5635 51.0607 39.287 51.2364C42.0105 51.4122 44.7051 50.5919 46.8686 48.9284C49.0322 47.2649 50.5173 44.8716 51.0473 42.1944C51.5772 39.5172 51.1159 36.7386 49.7493 34.3762C49.5998 34.0906 49.5666 33.7582 49.6564 33.4486C49.7462 33.1389 49.9522 32.876 50.2313 32.7146C50.5105 32.5533 50.8411 32.506 51.1543 32.5827C51.4674 32.6594 51.7388 32.8542 51.9118 33.1262C53.1185 35.2168 53.7536 37.5882 53.7532 40.0021C53.7528 42.4159 53.117 44.7871 51.9097 46.8773C50.7024 48.9675 48.9661 50.7031 46.8753 51.9095C44.7846 53.1159 42.4131 53.7507 39.9993 53.75Z" fill="black"/>
<path d="M39.9998 63.75C36.29 63.7518 32.6314 62.8845 29.3172 61.2177C26.0031 59.5509 23.1254 57.1309 20.9149 54.1516C18.7044 51.1724 17.2226 47.7168 16.5882 44.0617C15.9537 40.4066 16.1844 36.6537 17.2615 33.1038C18.3387 29.5539 20.2325 26.3057 22.7912 23.6195C25.3498 20.9333 28.5021 18.8838 31.9954 17.6354C35.4888 16.3869 39.226 15.9741 42.9076 16.4301C46.5892 16.8861 50.1128 18.1982 53.196 20.2613C53.4715 20.4459 53.6624 20.7324 53.7266 21.0578C53.7908 21.3832 53.7232 21.7208 53.5385 21.9963C53.3539 22.2717 53.0673 22.4626 52.742 22.5268C52.4166 22.5911 52.079 22.5234 51.8035 22.3388C47.415 19.4055 42.0923 18.2095 36.8709 18.9835C31.6494 19.7576 26.9025 22.4463 23.5538 26.5265C20.205 30.6068 18.4938 35.7869 18.753 41.059C19.0122 46.3312 21.2233 51.3184 24.9562 55.0505C28.6891 58.7826 33.6768 60.9927 38.949 61.2508C44.2212 61.5089 49.401 59.7965 53.4805 56.4469C57.5601 53.0972 60.2477 48.3498 61.0207 43.1282C61.7936 37.9066 60.5965 32.5841 57.6623 28.1962C57.5699 28.0599 57.5055 27.9067 57.4725 27.7454C57.4396 27.5841 57.4388 27.4179 57.4703 27.2563C57.5017 27.0947 57.5648 26.9409 57.6559 26.8038C57.747 26.6666 57.8642 26.5488 58.001 26.4571C58.1377 26.3654 58.2912 26.3016 58.4526 26.2694C58.6141 26.2372 58.7803 26.2372 58.9418 26.2694C59.1032 26.3016 59.2567 26.3654 59.3934 26.4571C59.5302 26.5488 59.6474 26.6666 59.7385 26.8038C62.1311 30.3785 63.5074 34.5362 63.7206 38.8324C63.9337 43.1287 62.9756 47.4021 60.9486 51.1961C58.9216 54.9902 55.9019 58.1622 52.2122 60.3733C48.5225 62.5844 44.3013 63.7516 39.9998 63.75Z" fill="black"/>
<path d="M40 32.5C39.6685 32.5 39.3505 32.3683 39.1161 32.1339C38.8817 31.8995 38.75 31.5815 38.75 31.25V3.75C38.75 3.41848 38.8817 3.10054 39.1161 2.86612C39.3505 2.6317 39.6685 2.5 40 2.5C40.3315 2.5 40.6495 2.6317 40.8839 2.86612C41.1183 3.10054 41.25 3.41848 41.25 3.75V31.25C41.25 31.5815 41.1183 31.8995 40.8839 32.1339C40.6495 32.3683 40.3315 32.5 40 32.5Z" fill="black"/>
<path d="M31.25 41.25H3.75C3.41848 41.25 3.10054 41.1183 2.86612 40.8839C2.6317 40.6495 2.5 40.3315 2.5 40C2.5 39.6685 2.6317 39.3505 2.86612 39.1161C3.10054 38.8817 3.41848 38.75 3.75 38.75H31.25C31.5815 38.75 31.8995 38.8817 32.1339 39.1161C32.3683 39.3505 32.5 39.6685 32.5 40C32.5 40.3315 32.3683 40.6495 32.1339 40.8839C31.8995 41.1183 31.5815 41.25 31.25 41.25Z" fill="black"/>
<path d="M40 77.5C39.6685 77.5 39.3505 77.3683 39.1161 77.1339C38.8817 76.8995 38.75 76.5815 38.75 76.25V48.75C38.75 48.4185 38.8817 48.1005 39.1161 47.8661C39.3505 47.6317 39.6685 47.5 40 47.5C40.3315 47.5 40.6495 47.6317 40.8839 47.8661C41.1183 48.1005 41.25 48.4185 41.25 48.75V76.25C41.25 76.5815 41.1183 76.8995 40.8839 77.1339C40.6495 77.3683 40.3315 77.5 40 77.5Z" fill="black"/>
<path d="M76.25 41.25H48.75C48.4185 41.25 48.1005 41.1183 47.8661 40.8839C47.6317 40.6495 47.5 40.3315 47.5 40C47.5 39.6685 47.6317 39.3505 47.8661 39.1161C48.1005 38.8817 48.4185 38.75 48.75 38.75H76.25C76.5815 38.75 76.8995 38.8817 77.1339 39.1161C77.3683 39.3505 77.5 39.6685 77.5 40C77.5 40.3315 77.3683 40.6495 77.1339 40.8839C76.8995 41.1183 76.5815 41.25 76.25 41.25Z" fill="black"/>
<path d="M39.9997 41.25C39.7525 41.25 39.5109 41.1766 39.3054 41.0393C39.0999 40.9019 38.9397 40.7067 38.8451 40.4783C38.7505 40.25 38.7258 39.9987 38.774 39.7562C38.8222 39.5138 38.9412 39.2911 39.116 39.1163L59.9997 18.2325V11.25C59.9998 10.9185 60.1315 10.6006 60.366 10.3663L67.866 2.86626C68.0408 2.6915 68.2635 2.57249 68.5059 2.52428C68.7484 2.47607 68.9997 2.50082 69.2281 2.59541C69.4564 2.69 69.6516 2.85017 69.789 3.05569C69.9263 3.2612 69.9997 3.50282 69.9997 3.75001V10H76.2497C76.4969 10.0001 76.7385 10.0734 76.9441 10.2108C77.1496 10.3481 77.3097 10.5433 77.4043 10.7717C77.4989 11.0001 77.5237 11.2514 77.4755 11.4938C77.4273 11.7362 77.3082 11.9589 77.1335 12.1338L69.6335 19.6338C69.3991 19.8682 69.0812 19.9999 68.7497 20H61.7672L40.8835 40.8838C40.6491 41.1182 40.3312 41.2499 39.9997 41.25ZM64.2672 17.5H68.2322L73.2322 12.5H69.2672L64.2672 17.5ZM62.4997 11.7675V15.7325L67.4997 10.7325V6.76751L62.4997 11.7675Z" fill="black"/>
</svg>
