<svg width="80" height="80" viewBox="0 0 80 80" fill="none" xmlns="http://www.w3.org/2000/svg">
<path d="M78.7031 69.3125C78.7031 69.25 78.6875 69.1719 78.6875 69.1094C78.3594 67.4219 77.2969 65.9688 75.7812 65.1406C75.6875 65.0938 75.5938 65.0469 75.4844 65.0313C73.7812 64.6094 72.0469 64.2188 70.3281 63.8438C70.2969 63.4844 70.2656 62.9844 70.2188 62.25C70.2188 62.2344 70.2188 62.2188 70.2188 62.2188C71.7656 60.4375 72.8125 57.7344 73.0938 55.0781C73.5312 51 72.0312 48.0781 69.1875 47.4531C67.4375 47.0313 65.6094 47 63.8438 47.3594L60.7812 42.5313C61.375 41.375 61.875 40.1719 62.2812 38.9219L68.6094 37.5156C69.1875 37.3906 69.5938 36.875 69.5938 36.2969V27.3438C69.5938 26.7656 69.1875 26.25 68.6094 26.125L62.2812 24.7188C61.8906 23.4844 61.3906 22.2812 60.7812 21.1094L64.2656 15.6406C64.5781 15.1406 64.5156 14.5 64.0938 14.0781L57.75 7.73438C57.3281 7.3125 56.6875 7.25 56.1875 7.5625L50.7188 11.0469C49.5625 10.4531 48.3594 9.95312 47.1094 9.54688L45.7031 3.21875C45.5781 2.64063 45.0625 2.23438 44.4844 2.23438H35.5156C34.9375 2.23438 34.4219 2.64063 34.2969 3.21875L32.8906 9.54688C31.6562 9.9375 30.4531 10.4375 29.2812 11.0469L23.8125 7.5625C23.3125 7.25 22.6719 7.3125 22.25 7.73438L15.9062 14.0781C15.4844 14.5 15.4219 15.1406 15.7344 15.6406L19.2188 21.1094C18.625 22.2656 18.125 23.4688 17.7188 24.7188L11.3906 26.125C10.8125 26.25 10.4062 26.7656 10.4062 27.3438V36.3125C10.4062 36.8906 10.8125 37.4062 11.3906 37.5312L17.7188 38.9375C18.1094 40.1719 18.6094 41.375 19.2188 42.5469L16.1719 47.3281C14.4688 47.0156 12.7031 47.0625 11.0312 47.4688C8.17187 48.0938 6.65625 51.0156 7.09375 55.0781C7.35938 57.625 8.34375 60.2188 9.79688 62C9.75 62.875 9.70312 63.4531 9.67188 63.8438C7.95312 64.2031 6.21875 64.6094 4.51562 65.0313C4.40625 65.0625 4.3125 65.0938 4.21875 65.1406C2.70313 65.9688 1.65625 67.4062 1.3125 69.0938C1.29687 69.1563 1.29688 69.2188 1.29688 69.2969C1.23438 71.2031 1.21875 73.125 1.25 75.0156C1.28125 76.5312 2.53125 77.75 4.03125 77.75H4.0625C10.5469 77.6875 17.1094 77.6875 23.5938 77.75H23.625C25.1406 77.75 26.375 76.5312 26.4062 75.0156C26.4375 73.125 26.4219 71.2031 26.3594 69.3125C26.3594 69.25 26.3438 69.1719 26.3438 69.1094C26.0156 67.4219 24.9531 65.9688 23.4375 65.1562C23.3438 65.1094 23.25 65.0625 23.1406 65.0469C21.4375 64.625 19.7031 64.2344 17.9844 63.8594C17.9531 63.5 17.9219 63 17.875 62.2656C17.875 62.25 17.875 62.2344 17.875 62.2344C19.4219 60.4531 20.4688 57.75 20.75 55.0938C20.7812 54.875 20.7969 54.6562 20.7969 54.4375L22.2656 55.9062C22.5 56.1406 22.8281 56.2656 23.1562 56.2656C23.3906 56.2656 23.625 56.2031 23.8281 56.0625L29.2969 52.5781C30.5625 53.2344 31.875 53.7656 33.2188 54.1719C33.2344 54.4688 33.25 54.75 33.2812 55.0625C33.5469 57.6094 34.5312 60.2031 35.9844 61.9844C35.9375 62.8438 35.8906 63.4375 35.8594 63.8281C34.1406 64.1875 32.4062 64.5938 30.7031 65.0156C30.5938 65.0469 30.5 65.0781 30.4063 65.125C28.8906 65.9531 27.8438 67.3906 27.5 69.0781C27.4844 69.1406 27.4844 69.2031 27.4844 69.2812C27.4219 71.1719 27.4063 73.0938 27.4375 74.9844C27.4688 76.5 28.7188 77.7188 30.2188 77.7188H30.25C36.7344 77.6562 43.2969 77.6562 49.7812 77.7188H49.8125C51.3281 77.7188 52.5625 76.5 52.5938 74.9844C52.625 73.0938 52.625 71.1719 52.5469 69.2812C52.5469 69.2188 52.5313 69.1406 52.5313 69.0781C52.2031 67.3906 51.1406 65.9375 49.625 65.125C49.5312 65.0781 49.4375 65.0313 49.3281 65.0156C47.625 64.5938 45.8906 64.2031 44.1719 63.8281C44.1406 63.4688 44.1094 62.9688 44.0625 62.2344C44.0625 62.2188 44.0625 62.2031 44.0625 62.2031C45.6094 60.4219 46.6562 57.7188 46.9375 55.0625C46.9688 54.7344 47 54.4063 47 54.0938C48.2812 53.6875 49.5313 53.1719 50.7344 52.5625L56.2031 56.0469C56.4063 56.1719 56.6406 56.25 56.875 56.25C57.2031 56.25 57.5156 56.125 57.7656 55.8906L59.4219 54.2344C59.4375 54.5 59.4531 54.7812 59.4844 55.0625C59.75 57.6094 60.7344 60.2031 62.1875 61.9844C62.1406 62.8594 62.0938 63.4375 62.0625 63.8281C60.3438 64.1875 58.6094 64.5938 56.9063 65.0156C56.7969 65.0469 56.7031 65.0781 56.6094 65.125C55.0938 65.9531 54.0469 67.3906 53.7031 69.0781C53.6875 69.1406 53.6875 69.2031 53.6875 69.2812C53.625 71.1719 53.6094 73.0938 53.6406 74.9844C53.6719 76.5 54.9219 77.7188 56.4219 77.7188H56.4531C62.9375 77.6562 69.5 77.6562 75.9844 77.7188H76.0156C77.5312 77.7188 78.7656 76.5 78.7969 74.9844C78.7812 73.125 78.7656 71.2031 78.7031 69.3125ZM22.3594 67.4219C23.125 67.8906 23.6562 68.6406 23.8594 69.5C23.9219 71.3125 23.9375 73.1562 23.8906 74.9688C23.8906 75.125 23.7656 75.25 23.6094 75.25C17.1094 75.1875 10.5312 75.1875 4.03125 75.25C3.875 75.25 3.75 75.125 3.75 74.9688C3.71875 73.1562 3.73438 71.3125 3.78125 69.5C3.98438 68.625 4.51562 67.875 5.28125 67.4219C7.1875 66.9531 9.125 66.5156 11.0625 66.125C11.5625 66.0313 11.9375 65.6406 12.0312 65.1406C12.0625 64.9844 12.1094 64.6719 12.1719 63.8906C12.7188 64.125 13.3125 64.2656 13.9219 64.2656C14.4531 64.2656 14.9844 64.1562 15.4688 63.9688C15.5312 64.6875 15.5625 64.9688 15.5938 65.125C15.6875 65.625 16.0781 66 16.5625 66.1094C18.5156 66.5156 20.4531 66.9531 22.3594 67.4219ZM18.25 54.8281C17.8594 58.4688 15.7969 61.7656 13.9219 61.7656C12.0312 61.7656 9.96875 58.4531 9.57812 54.8125C9.46875 53.7812 9.28125 50.4062 11.5781 49.9062H11.6094C12.3594 49.7188 13.1406 49.625 13.9219 49.625C14.7031 49.625 15.4844 49.7188 16.2344 49.9062H16.2656C18.5469 50.3906 18.375 53.7969 18.25 54.8281ZM48.5469 67.4219C49.3125 67.8906 49.8438 68.6406 50.0469 69.5C50.1094 71.3125 50.125 73.1562 50.0781 74.9688C50.0781 75.125 49.9531 75.25 49.7969 75.25C43.2969 75.1875 36.7188 75.1875 30.2188 75.25C30.0625 75.25 29.9375 75.125 29.9375 74.9688C29.9063 73.1562 29.9219 71.3125 29.9688 69.5C30.1719 68.625 30.7031 67.875 31.4688 67.4219C33.375 66.9531 35.3125 66.5156 37.25 66.125C37.75 66.0313 38.125 65.6406 38.2188 65.1406C38.25 64.9844 38.2969 64.6719 38.3594 63.8906C38.9062 64.125 39.5 64.2656 40.1094 64.2656C40.6406 64.2656 41.1719 64.1562 41.6562 63.9688C41.7188 64.6875 41.75 64.9688 41.7812 65.125C41.875 65.625 42.2656 66 42.75 66.1094C44.6875 66.5156 46.625 66.9531 48.5469 67.4219ZM44.4375 54.8281C44.0469 58.4688 41.9844 61.7656 40.1094 61.7656C38.2188 61.7656 36.1562 58.4531 35.7656 54.8125C35.6562 53.7812 35.4688 50.4062 37.7656 49.9062H37.7969C38.5469 49.7188 39.3281 49.625 40.1094 49.625C40.8906 49.625 41.6719 49.7188 42.4219 49.9062H42.4531C44.7188 50.3906 44.5469 53.7969 44.4375 54.8281ZM56.6875 53.4219L51.4375 50.0938C51.0469 49.8438 50.5625 49.8281 50.1562 50.0625C49.0781 50.6719 47.9375 51.1719 46.7656 51.5781C46.2656 49.3906 44.9531 47.8906 43.0156 47.4688C41.125 47 39.125 47 37.2188 47.4688C35.25 47.9062 33.9219 49.4219 33.4219 51.6406C32.1875 51.2344 30.9844 50.7031 29.8438 50.0625C29.4375 49.8438 28.9531 49.8594 28.5625 50.0938L23.3125 53.4219L20.8437 50.9531C20.6875 50.7969 20.5 50.6875 20.2969 50.6406C19.9219 49.625 19.3281 48.7969 18.5469 48.2344L21.7188 43.25C21.9688 42.8594 21.9844 42.375 21.75 41.9688C20.9688 40.5625 20.3438 39.0625 19.9062 37.5156C19.7812 37.0781 19.4219 36.7344 18.9688 36.6406L12.9062 35.2969V28.3437L18.9688 27C19.4219 26.9062 19.7812 26.5625 19.9062 26.125C20.3438 24.5781 20.9688 23.0781 21.75 21.6719C21.9688 21.2656 21.9531 20.7812 21.7188 20.3906L18.3906 15.1406L23.3125 10.2188L28.5625 13.5469C28.9531 13.7969 29.4375 13.8125 29.8438 13.5781C31.25 12.7969 32.75 12.1719 34.2969 11.7344C34.7344 11.6094 35.0781 11.25 35.1719 10.7969L36.5156 4.73437H43.4688L44.8125 10.7969C44.9062 11.25 45.25 11.6094 45.6875 11.7344C47.25 12.1875 48.75 12.7969 50.1562 13.5938C50.5625 13.8125 51.0469 13.7969 51.4375 13.5625L56.6875 10.2344L61.6094 15.1562L58.2812 20.4062C58.0312 20.7969 58.0156 21.2812 58.25 21.6875C59.0312 23.0938 59.6563 24.5938 60.0938 26.1406C60.2188 26.5781 60.5781 26.9219 61.0312 27.0156L67.0938 28.3594V35.3125L61.0312 36.6562C60.5781 36.75 60.2188 37.0938 60.0938 37.5312C59.6563 39.0781 59.0312 40.5781 58.25 41.9844C58.0312 42.3906 58.0469 42.875 58.2812 43.2656L61.5156 48.3438C60.8125 48.8906 60.2812 49.6719 59.9219 50.6094C59.6406 50.6406 59.375 50.75 59.1562 50.9688L56.6875 53.4219ZM63.9375 49.8906H63.9688C64.7188 49.7031 65.5 49.6094 66.2812 49.6094C67.0625 49.6094 67.8438 49.7031 68.5938 49.8906H68.625C70.8906 50.375 70.7031 53.7812 70.5938 54.8125C70.2031 58.4531 68.1406 61.75 66.2656 61.75C64.375 61.75 62.3125 58.4375 61.9219 54.7969C61.8281 53.7813 61.6406 50.3906 63.9375 49.8906ZM76.25 74.9688C76.25 75.125 76.125 75.25 75.9688 75.25C69.4688 75.1875 62.8906 75.1875 56.3906 75.25C56.2344 75.25 56.1094 75.125 56.0938 74.9688C56.0625 73.1562 56.0781 71.3125 56.125 69.5C56.3281 68.625 56.8594 67.875 57.625 67.4219C59.5312 66.9531 61.4688 66.5156 63.4062 66.125C63.9062 66.0313 64.2812 65.6406 64.375 65.1406C64.4062 64.9844 64.4531 64.6719 64.5156 63.8906C65.0625 64.125 65.6562 64.2656 66.2656 64.2656C66.7969 64.2656 67.3281 64.1562 67.8125 63.9688C67.875 64.6875 67.9062 64.9688 67.9375 65.125C68.0312 65.625 68.4219 66 68.9062 66.1094C70.8281 66.5 72.7812 66.9375 74.6875 67.4062C75.4531 67.875 75.9844 68.625 76.1875 69.4844C76.2812 71.3125 76.2812 73.1562 76.25 74.9688ZM40 17.1562C31.9063 17.1562 25.3281 23.7344 25.3281 31.8281C25.3281 39.9219 31.9063 46.5 40 46.5C48.0938 46.5 54.6719 39.9219 54.6719 31.8281C54.6719 23.7344 48.0938 17.1562 40 17.1562ZM40 43.9844C33.2969 43.9844 27.8281 38.5312 27.8281 31.8125C27.8281 25.1094 33.2812 19.6406 40 19.6406C46.7031 19.6406 52.1719 25.0938 52.1719 31.8125C52.1719 38.5312 46.7031 43.9844 40 43.9844ZM47.5938 26.0938C48.0938 26.5625 48.125 27.3594 47.6562 27.8594L38.75 37.4844C38.5156 37.7344 38.1875 37.8906 37.8281 37.8906C37.4688 37.8906 37.1406 37.75 36.9062 37.4844L32.3438 32.5469C31.875 32.0469 31.9062 31.25 32.4062 30.7812C32.9062 30.3125 33.7031 30.3437 34.1719 30.8437L37.8281 34.7812L45.8281 26.1406C46.2969 25.6562 47.0781 25.625 47.5938 26.0938Z" fill="black"/>
</svg>
