<svg width="80" height="80" viewBox="0 0 80 80" fill="none" xmlns="http://www.w3.org/2000/svg">
<path d="M37.8034 2.5C37.1881 2.5 36.5729 2.91646 36.5729 3.75V6.25C36.5729 7.91707 39.0339 7.91707 39.0339 6.25V3.75C39.0339 2.91646 38.4186 2.5 37.8034 2.5ZM21.6361 11.5942L23.3761 13.3618C24.5365 14.5406 26.2766 12.773 25.1161 11.5942L23.3761 9.82666C23.086 9.53195 22.759 9.42007 22.4508 9.43846C21.5262 9.49361 20.7658 10.7101 21.6361 11.5942ZM53.1559 9.43848C52.8477 9.42005 52.5207 9.53197 52.2306 9.82668L50.4906 11.5943C49.3302 12.7731 51.0702 14.5406 52.2306 13.3618L53.9706 11.5943C54.841 10.7101 54.0805 9.49361 53.1559 9.43848ZM26.9643 59.209C29.5308 60.9275 32.4042 61.9709 35.3424 62.3454V76.2476C35.3437 76.9422 35.8972 77.5026 36.5777 77.5H46.4121C47.0926 77.5026 47.6461 76.9422 47.6475 76.2476V59.9878C47.6474 59.9383 47.6312 59.8941 47.6256 59.8462C48.4877 59.3421 49.3139 58.7692 50.1082 58.1217V76.2476C50.1096 76.9422 50.6631 77.5027 51.3436 77.5H61.178C61.8585 77.5026 62.4119 76.9422 62.4133 76.2476L62.418 42.5024C62.417 41.8078 61.8636 41.2474 61.1831 41.25H57.4651C57.1735 36.5589 55.2558 31.9352 51.726 28.3496C51.4292 28.0482 51.1417 27.7641 50.8295 27.4902C51.1487 26.4025 51.3366 25.1684 51.3366 23.6963C51.3367 16.827 45.9169 10.0024 37.8034 10.0024C29.6899 10.0024 24.2702 16.827 24.2702 23.6963C24.2702 25.1671 24.4562 26.4007 24.7749 27.4878C24.4616 27.7619 24.1732 28.0477 23.8761 28.3496C17.1512 35.1807 16.2905 45.7347 21.355 53.5059L5.3583 66.5161C2.5729 68.8115 2.82717 73.0953 5.25738 75.5639C7.68757 78.0326 11.9045 78.2909 14.1641 75.4614L26.9643 59.209ZM37.8034 12.5024C44.5028 12.5024 48.8756 18.172 48.8756 23.6963C48.8756 27.6078 47.3383 29.4664 45.5421 31.2988C44.6441 32.2151 43.67 33.1169 42.872 34.2896C42.2443 35.2119 41.7828 36.2456 41.5886 37.5H39.0339V32.9321L42.3313 29.6582C43.1379 28.8848 42.6041 27.5083 41.4949 27.5C41.1612 27.4954 40.8408 27.6281 40.6057 27.8686L37.7986 30.6543L34.9939 27.8686C34.7587 27.6281 34.4359 27.4953 34.1022 27.5C32.9931 27.508 32.4617 28.8848 33.2683 29.6582L36.5729 32.9419V37.5H34.0181C33.8239 36.2456 33.3411 35.1806 32.7347 34.2896C31.9367 33.1169 30.9627 32.2151 30.0646 31.2988C28.2685 29.4664 26.7312 27.5004 26.7312 23.6963C26.7312 18.172 31.104 12.5024 37.8034 12.5024ZM37.8034 15C35.3389 15 32.9896 16.0779 31.3552 17.9517C30.1615 19.2057 32.1219 20.9635 33.1986 19.6045C34.3668 18.2652 36.0418 17.5 37.8034 17.5C39.4809 17.5378 39.4809 14.9622 37.8034 15ZM30.4179 22.4609C29.7383 22.461 29.1874 23.0206 29.1874 23.7109C29.1874 24.4013 29.7383 24.9609 30.4179 24.9609C31.0975 24.9609 31.6484 24.4013 31.6484 23.7109C31.6484 23.0206 31.0975 22.461 30.4179 22.4609ZM18.1152 25C16.4741 25 16.4741 27.5 18.1152 27.5H20.5762C22.2173 27.5 22.2173 25 20.5762 25H18.1152ZM55.0305 25C53.3894 25 53.3894 27.5 55.0305 27.5H57.4915C59.1326 27.5 59.1326 25 57.4915 25H55.0305ZM66.1099 26.2353C65.4294 26.2327 64.876 26.7931 64.8746 27.4878V76.2476C64.8759 76.9422 65.4294 77.5026 66.1099 77.5H75.9444C76.6249 77.5026 77.1783 76.9422 77.1797 76.2476V27.4878C77.1783 26.7931 76.6249 26.2327 75.9444 26.2353H66.1099ZM67.3356 28.75H74.7187V74.9853H67.3356V28.75ZM25.8107 29.9194C26.257 30.6876 26.7685 31.356 27.2888 31.9531C21.594 37.8087 21.6003 47.2959 27.3513 53.1103C33.1511 58.9742 42.4941 58.9604 48.2531 53.1103C53.9899 47.2829 54.0342 37.8497 48.318 31.9653C48.838 31.3686 49.3426 30.6943 49.7888 29.9268C49.8582 29.9938 49.9178 30.0479 49.9859 30.1172C56.703 36.9503 56.7341 48.0302 49.9934 54.8779C43.2522 61.7257 32.3094 61.6964 25.6115 54.8779C18.9136 48.0595 18.8751 36.9649 25.6162 30.1172C25.6851 30.0472 25.7404 29.9873 25.8107 29.9194ZM29.0023 33.7622C29.6627 34.4342 30.2733 35.0706 30.7087 35.7105C31.09 36.2707 31.3713 36.8299 31.521 37.5147C29.9984 37.6757 30.0647 40 31.6508 40C31.6508 41.2811 31.6508 42.6206 31.6508 43.75C31.6521 45.3745 32.6801 46.7586 34.1215 47.2729C34.1215 47.6043 34.1214 47.9248 34.1215 48.7524C34.1231 50.8071 35.7572 52.5 37.8058 52.5C39.8609 52.5 41.4901 50.8083 41.4901 48.7524V47.2729C42.9323 46.7583 43.9559 45.3746 43.9559 43.75V40C45.542 40 45.5751 37.6663 44.0953 37.5098C44.2451 36.825 44.5168 36.2707 44.898 35.7105C45.333 35.0713 45.9426 34.4357 46.602 33.7647C51.3034 38.6526 51.2946 46.4832 46.5107 51.3428C41.6921 56.2375 33.8713 56.2179 29.0913 51.3428C24.345 46.5021 24.286 38.6644 29.0023 33.7622ZM34.1118 40H37.8034H41.4949V43.75C41.4949 44.4641 40.9433 44.9951 40.2692 44.9951H35.3376C34.6346 44.9951 34.1124 44.4263 34.1118 43.75C34.1119 42.4938 34.1119 41.2616 34.1118 40ZM57.4603 43.75H59.9526V74.9853H52.5695V55.7494C55.5513 52.3141 57.1976 48.0526 57.4603 43.75ZM36.5825 47.4976H39.0291V48.7524C39.0291 49.4666 38.4775 49.9976 37.8058 49.9976C37.1052 49.9976 36.583 49.4287 36.5825 48.7524C36.5825 47.9716 36.5825 47.7295 36.5825 47.4976ZM22.8498 55.5029C23.1783 55.891 23.506 56.2804 23.8688 56.6479C24.2344 57.0184 24.6196 57.3552 25.0056 57.6904L12.2415 73.8916C11.0059 75.4306 8.48943 75.3023 7.00218 73.7915C5.51235 72.2781 5.37779 69.7098 6.90126 68.457L22.8498 55.5029ZM44.6745 61.25L45.1864 61.0547V74.9854H37.8034V62.5089C40.1344 62.5096 42.4628 62.0838 44.6745 61.25Z" fill="#603C93"/>
</svg>
