<svg width="80" height="80" viewBox="0 0 80 80" fill="none" xmlns="http://www.w3.org/2000/svg">
<g clip-path="url(#clip0_573_135215)">
<path d="M43.9919 28.1509L47.2393 24.8519C48.1401 23.937 49.6058 23.937 50.5065 24.8519C51.4072 25.7669 51.4072 27.2559 50.5065 28.1708L47.259 31.4698L55.407 39.7472L74.97 19.8736L66.8479 11.6225L65.2143 13.2819L71.703 19.8734L55.407 36.4281L50.526 31.4697L52.1401 29.8302C53.9413 28.0002 53.9413 25.0223 52.1399 23.1923C50.3387 21.3622 47.4072 21.3623 45.6057 23.1923L43.9919 24.8319L39.111 19.8734L45.6255 13.2555L42.3386 9.91656C41.4424 9.04297 41.4424 7.47109 42.3386 6.59766C43.2395 5.68281 44.7051 5.68266 45.6058 6.59766L48.8926 9.93656L55.4071 3.31875L63.4447 11.4844L65.0783 9.825L55.407 0L48.8924 6.61781L47.2391 4.93828C45.4379 3.10812 42.5063 3.10812 40.705 4.93828C38.9122 6.68531 38.9124 9.82922 40.705 11.5761L42.3583 13.2556L35.8438 19.8736L43.9919 28.1509Z" fill="#603C93"/>
<path d="M46.875 77.6531H49.1852V80H46.875V77.6531Z" fill="#603C93"/>
<path d="M49.1703 49.2496C49.1703 46.6614 47.0976 44.5558 44.5499 44.5558C42.0022 44.5558 39.9295 46.6614 39.9295 49.2496V51.6247H32.971V42.2657H28.3784C27.1046 42.2657 26.0682 41.2128 26.0682 39.9188C26.0682 38.6247 27.1044 37.5719 28.3784 37.5719H32.971V25.866H5.30469V35.2416H7.61489V28.2127H30.6608V35.2249H28.3784C25.8308 35.2249 23.758 37.3305 23.758 39.9186C23.758 42.5067 25.8308 44.6124 28.3784 44.6124H30.6608V51.6246H21.4481V51.6413V56.3066C21.4481 57.6007 20.4119 58.6535 19.1379 58.6535C17.8639 58.6535 16.8277 57.6007 16.8277 56.3066V51.6413V51.6246H7.61489V37.5885H5.30469V80H44.5613V77.6532H33.0268V70.641H35.3091C37.8567 70.641 39.9295 68.5353 39.9295 65.9472C39.9295 63.3591 37.8567 61.2535 35.3091 61.2535H33.0268V53.9714H42.2397V49.2494C42.2397 47.9553 43.2759 46.9025 44.5499 46.9025C45.8237 46.9025 46.8601 47.9553 46.8601 49.2494V53.9714H56.0728V77.6532H51.4919V80H58.383V51.6247H49.1703V49.2496ZM35.3091 63.6003C36.5829 63.6003 37.6193 64.6532 37.6193 65.9472C37.6193 67.2413 36.583 68.2941 35.3091 68.2941H30.7166H30.6608V77.6532H7.61489V53.9882H14.5177V56.3066V56.3466C14.5177 58.9347 16.5904 61.0403 19.1381 61.0403C21.6858 61.0403 23.7585 58.9347 23.7585 56.3466V56.3066V53.9882H30.6611V63.6003H30.7169H35.3091Z" fill="#603C93"/>
<path d="M53.7734 8.23724L55.4069 6.57789L57.0401 8.23702L55.4066 9.89637L53.7734 8.23724Z" fill="#603C93"/>
<path d="M9.92188 30.548H12.2321V32.8948H9.92188V30.548Z" fill="#603C93"/>
<path d="M35.2812 56.3633H37.5915V58.7102H35.2812V56.3633Z" fill="#603C93"/>
<path d="M39.9609 56.3633H42.2711V58.7102H39.9609V56.3633Z" fill="#603C93"/>
</g>
<defs>
<clipPath id="clip0_573_135215">
<rect width="78.75" height="80" fill="white" transform="translate(0.765625)"/>
</clipPath>
</defs>
</svg>
