<svg width="89" height="80" viewBox="0 0 89 80" fill="none" xmlns="http://www.w3.org/2000/svg">
<path fill-rule="evenodd" clip-rule="evenodd" d="M44.4058 0C46.7565 0 48.3882 2.96965 49.6986 3.24165C51.009 3.51365 53.5763 1.41762 55.6609 2.31284C57.7454 3.20805 58.0431 6.5353 59.0905 7.25371C60.1379 7.97212 63.2769 7.00091 64.8567 8.60493C66.4364 10.209 65.4749 13.3922 66.1868 14.4626C66.8987 15.533 70.1669 15.8226 71.0504 17.9467C71.934 20.0707 69.8692 22.6668 70.1361 24.0036C70.4031 25.3404 73.3271 26.9924 73.3271 29.3805C73.3271 31.7685 70.4039 33.4261 70.1361 34.7573C69.8684 36.0886 71.9325 38.6974 71.0504 40.815C70.1684 42.9327 66.894 43.2343 66.1868 44.2983C65.4796 45.3623 66.4356 48.552 64.8567 50.156C64.1656 50.7764 63.2754 51.1195 62.3532 51.1208V78.9348C62.3532 79.1494 62.2895 79.359 62.1703 79.5361C62.0511 79.7132 61.882 79.8496 61.6852 79.9275C61.4884 80.0053 61.273 80.0209 61.0673 79.9723C60.8616 79.9236 60.6752 79.813 60.5324 79.6548L54.971 74.3052L49.3576 79.7052C49.2093 79.848 49.0231 79.9435 48.8219 79.98C48.6208 80.0165 48.4135 79.9924 48.2257 79.9107C48.0378 79.8289 47.8777 79.6931 47.765 79.52C47.6522 79.3469 47.5918 79.144 47.5912 78.9364V57.1033C46.6462 57.9665 45.6674 58.7625 44.4081 58.7625C43.1489 58.7625 42.17 57.9625 41.225 57.1033V71.3299C41.2251 71.5445 41.1613 71.754 41.0421 71.9312C40.923 72.1083 40.7539 72.2447 40.5571 72.3225C40.3602 72.4004 40.1449 72.416 39.9392 72.3673C39.7335 72.3187 39.547 72.2081 39.4043 72.0499L33.8429 66.7002L28.2295 72.1003C28.081 72.2428 27.8947 72.338 27.6936 72.3742C27.4925 72.4105 27.2853 72.3863 27.0976 72.3045C26.9099 72.2227 26.7498 72.0869 26.6371 71.9139C26.5244 71.7409 26.4639 71.5382 26.4631 71.3307V51.1208C25.5398 51.122 24.6479 50.7806 23.9549 50.1608C22.3798 48.5568 23.3367 45.3735 22.6247 44.3031C21.9128 43.2327 18.6447 42.9431 17.7611 40.8198C16.8775 38.6966 18.9423 36.0998 18.6754 34.7621C18.4084 33.4245 15.4844 31.7741 15.4844 29.3853C15.4844 26.9964 18.4076 25.3396 18.6754 24.0084C18.9431 22.6772 16.8791 20.0691 17.7611 17.9515C18.6431 15.8338 21.9176 15.5314 22.6247 14.4674C23.3319 13.4034 22.3759 10.2146 23.9549 8.60973C25.5338 7.00491 28.6673 7.98172 29.721 7.25851C30.7747 6.5353 31.0598 3.21525 33.1506 2.31764C35.2415 1.42002 37.797 3.51765 39.1129 3.24645C40.4288 2.97525 42.055 0 44.4058 0ZM39.8728 31.4165L37.126 28.2404C36.7472 27.7677 36.2307 27.4289 35.6507 27.2727C35.0706 27.1165 34.4568 27.1508 33.8972 27.3708C33.4144 27.5252 32.977 27.7992 32.6243 28.1681C32.2717 28.5369 32.0149 28.9891 31.8771 29.4839C31.7393 29.9787 31.7248 30.5005 31.835 31.0024C31.9451 31.5043 32.1764 31.9704 32.508 32.3589L37.2134 37.799C37.2439 37.8406 37.2774 37.8799 37.3134 37.9166C37.8697 38.5316 38.6435 38.8972 39.4649 38.933C40.2864 38.9689 41.0882 38.6721 41.6944 38.1078L56.0373 25.3076C56.5026 24.9227 56.836 24.398 56.9897 23.8088C57.1435 23.2196 57.1098 22.5961 56.8933 22.0275C56.7414 21.5371 56.4717 21.0927 56.1086 20.7345C55.7455 20.3762 55.3003 20.1154 54.8133 19.9754C54.3262 19.8354 53.8126 19.8207 53.3185 19.9326C52.8245 20.0445 52.3656 20.2794 51.9832 20.6163L39.8728 31.4165ZM53.3558 22.2059L40.4682 33.7125C40.2595 33.8976 39.9871 33.991 39.7107 33.9722C39.4343 33.9535 39.1766 33.8241 38.994 33.6125L35.5557 29.6373C34.754 28.71 33.2719 30.0285 34.0791 30.9613L38.7829 36.4014L38.7947 36.4134C38.8798 36.5245 38.9862 36.6167 39.1076 36.6846C39.2289 36.7524 39.3626 36.7943 39.5005 36.8078C39.6384 36.8213 39.7775 36.806 39.9094 36.763C40.0412 36.7199 40.1631 36.6499 40.2674 36.5574L54.6631 23.7076C55.5758 22.8924 54.278 21.3875 53.359 22.2067L53.3558 22.2059ZM39.1294 55.5209C37.8166 55.2305 35.2454 57.3457 33.1538 56.4465C31.0622 55.5473 30.7716 52.224 29.7242 51.5056C29.363 51.3169 28.9632 51.2174 28.5571 51.2152V68.8595L33.1246 64.4674C33.319 64.2797 33.577 64.175 33.8452 64.175C34.1134 64.175 34.3714 64.2797 34.5658 64.4674L39.1334 68.8595V55.5209H39.1294ZM42.3385 55.2569C44.3073 57.0793 44.5097 57.0793 46.4793 55.2569C48.7906 53.1192 49.6293 52.9296 52.5998 54.0288C53.4976 54.3608 54.3906 54.6912 54.8537 54.492C55.8578 54.0608 56.2326 50.9024 57.925 49.7424C59.5977 48.5944 62.6272 49.4136 63.3801 48.6488C64.1329 47.8839 63.3179 44.8191 64.4566 43.1079C65.5953 41.3966 68.7092 41.0102 69.1321 39.9878C69.555 38.9654 67.6783 36.399 68.0949 34.3301C68.5154 32.2421 71.2371 30.6349 71.2371 29.3773C71.2371 28.1196 68.5154 26.5132 68.0949 24.4252C67.6783 22.3563 69.5597 19.7939 69.1321 18.7667C68.7044 17.7395 65.5985 17.3659 64.4566 15.6466C63.3147 13.9274 64.1416 10.877 63.3801 10.105C62.6186 9.33294 59.6103 10.1682 57.925 9.01214C56.2397 7.85612 55.8601 4.69207 54.8537 4.26167C53.8472 3.83126 51.3209 5.73929 49.2844 5.31528C47.2282 4.88808 45.6461 2.12323 44.4089 2.12323C43.1717 2.12323 41.5896 4.88808 39.5334 5.31528C37.4969 5.73929 34.9753 3.82726 33.9641 4.26167C32.953 4.69607 32.5852 7.85212 30.8928 9.01214C29.2005 10.1722 26.1977 9.33214 25.4377 10.105C24.6778 10.8778 25.5 13.9354 24.3612 15.6466C23.2225 17.3579 20.1086 17.7443 19.6858 18.7667C19.2629 19.7891 21.1395 22.3563 20.7229 24.4252C20.3024 26.5132 17.5807 28.1204 17.5807 29.3773C17.5807 30.6341 20.3024 32.2421 20.7229 34.3301C21.1395 36.399 19.2581 38.9614 19.6858 39.9878C20.1134 41.0142 23.2193 41.3886 24.3612 43.1079C25.5031 44.8271 24.6762 47.8767 25.4377 48.6488C26.1993 49.4208 29.2131 48.5896 30.8928 49.7424C32.5726 50.8952 32.9577 54.0624 33.9641 54.492C34.9706 54.9216 37.4969 53.0152 39.5334 53.4384C40.6111 53.7803 41.5794 54.408 42.3385 55.2569ZM60.2607 51.2152C59.8546 51.2174 59.4548 51.3169 59.0937 51.5056C58.0463 52.2256 57.7549 55.5489 55.664 56.4465C53.5732 57.3441 50.998 55.2329 49.6821 55.5209V76.4636L54.2497 72.0723C54.444 71.8844 54.702 71.7796 54.9702 71.7796C55.2385 71.7796 55.4965 71.8844 55.6908 72.0723L60.2584 76.4644V51.2176L60.2607 51.2152ZM44.4058 8.29453C40.3002 8.29453 36.2868 9.53131 32.8731 11.8485C29.4595 14.1656 26.7989 17.4591 25.2278 21.3124C23.6567 25.1657 23.2456 29.4057 24.0466 33.4963C24.8477 37.5869 26.8248 41.3444 29.7279 44.2935C32.631 47.2426 36.3298 49.2509 40.3566 50.0645C44.3833 50.8781 48.557 50.4604 52.3501 48.8642C56.1431 47.268 59.385 44.565 61.6658 41.0971C63.9466 37.6291 65.1639 33.552 65.1638 29.3813C65.1636 23.7886 62.9765 18.4251 59.0836 14.4706C55.1908 10.5161 49.911 8.29453 44.4058 8.29453ZM57.6021 15.9746C54.9921 13.3226 51.6665 11.5163 48.0459 10.7844C44.4253 10.0525 40.6723 10.4277 37.2617 11.8626C33.851 13.2975 30.9359 15.7277 28.8848 18.8458C26.8338 21.9639 25.7391 25.6299 25.7391 29.3801C25.7391 33.1302 26.8338 36.7962 28.8848 39.9143C30.9359 43.0324 33.851 45.4626 37.2617 46.8975C40.6723 48.3324 44.4253 48.7077 48.0459 47.9757C51.6665 47.2438 54.9921 45.4375 57.6021 42.7855C61.1009 39.2299 63.0664 34.4083 63.0664 29.3809C63.0664 24.3534 61.1009 19.5318 57.6021 15.9762V15.9746Z" fill="#603C93"/>
</svg>
