<svg width="100" height="100" viewBox="0 0 100 100" fill="none" xmlns="http://www.w3.org/2000/svg">
<g clip-path="url(#clip0_139_3714)">
<path d="M94.5347 33.2936L91.4129 28.6961C91.1052 28.2434 90.5892 27.978 90.0414 27.9924L83.9896 28.1508C83.4677 28.1645 82.9851 28.4307 82.6953 28.8647L82.0791 29.7875L75.8008 33.8057C75.3838 34.0727 75.113 34.5168 75.067 35.0098L74.9306 36.4701H72.4943L67.7031 32.5666C67.3179 32.253 66.8089 32.1352 66.3259 32.2469C65.842 32.359 65.4373 32.6883 65.2291 33.1393L63.2343 37.461L44.1463 29.3121L45.2412 25.1377C45.4547 24.3235 45.0041 23.4826 44.2076 23.2098L42.6232 22.6668L40.0146 18.6784L40.3882 18.5869C40.8779 18.467 41.2828 18.1244 41.4818 17.6614C41.6812 17.1983 41.6517 16.6688 41.4021 16.2307L40.5013 14.6496L43.9486 7.57308C44.3132 6.82464 44.0459 5.92171 43.3328 5.49261L40.2345 3.62738C39.9597 3.46195 39.6429 3.38167 39.3207 3.39945L32.7086 3.74906L24.4646 0.135188C23.9888 -0.0734055 23.4404 -0.0392258 22.9939 0.228157L18.5513 2.88773C18.1105 3.1514 17.8226 3.61019 17.7763 4.12191C17.73 4.63363 17.9312 5.13616 18.3173 5.47503L20.7945 7.64652L20.9312 13.1514C20.9408 13.5401 21.0912 13.9119 21.3541 14.1985L25.4254 18.6319L22.0494 24.7176C21.9218 24.9473 21.8529 25.2043 21.848 25.467L21.8353 26.1358L15.9004 32.6584L12.8908 31.6944C12.0574 31.4274 11.1625 31.8772 10.8797 32.7061L9.22282 37.5653C9.00016 38.2184 9.2191 38.9409 9.76715 39.3602L10.6207 40.0133L12.7929 44.4592L12.8091 45.4282L6.25211 47.7785C5.6443 47.9965 5.22614 48.5569 5.19 49.2018C5.15407 49.8467 5.50758 50.4502 6.08727 50.7344L8.09352 51.7172C7.80563 51.9219 7.59 52.2178 7.4861 52.5623C7.34664 53.0235 7.42145 53.5231 7.69 53.9231L10.1402 57.5723C10.2966 57.8055 10.5115 57.9936 10.7632 58.1176L14.7381 60.0784C15.4277 60.4184 16.2605 60.2227 16.7265 59.6119L18.4779 57.3164L19.4211 59.5514L18.8552 62.527C18.8006 62.8141 18.8256 63.1106 18.9267 63.3846L32.0859 98.9516C32.3164 99.5744 32.9285 100.001 33.5929 100.001C33.7871 100.001 33.9814 99.9657 34.1664 99.895L37.3881 98.6645C37.7597 98.5225 38.0658 98.2475 38.2466 97.8928L38.9537 96.5053L40.0523 95.1637L42.8129 91.853C42.9918 91.6383 43.1117 91.3805 43.1605 91.1053L44.6168 82.916C44.6636 82.6532 44.6441 82.3828 44.5599 82.1293L43.7908 79.8084L45.2566 75.3778L46.4818 74.6225L48.014 74.4416C48.4566 74.3893 48.8578 74.1559 49.1213 73.7963L51.0207 71.2073C51.6621 70.9395 52.4162 70.734 52.9322 70.2535C53.5418 69.686 54.1136 69.0717 54.7023 68.4827C55.173 68.0119 55.6279 67.6168 55.8927 66.9948C56.1902 66.2967 56.4752 65.593 56.7662 64.8922L62.4804 61.752C62.9326 61.5034 63.2379 61.0532 63.3013 60.541L63.581 58.2815L65.7179 56.6469L68.5849 57.218C69.13 57.3264 69.6939 57.1451 70.0736 56.7383C70.4533 56.3315 70.5955 55.7569 70.4492 55.22L67.7174 45.1856L71.0707 43.7955L73.3738 45.3004C73.5853 45.4387 73.8263 45.525 74.0775 45.5526L75.7791 45.7395L73.8724 48.5586C73.5314 49.0629 73.5043 49.7164 73.8031 50.2469C74.1015 50.7774 74.6703 51.095 75.2822 51.0639L76.5392 51.0022L79.4443 54.9709C79.8273 55.4944 80.4873 55.7366 81.1185 55.5836C81.749 55.4313 82.2261 54.9143 82.3281 54.2737L83.1193 49.2897L84.4687 49.5483C84.8955 49.6295 85.3381 49.5354 85.6941 49.2854C86.05 49.0356 86.2896 48.6522 86.3582 48.2227L87.2314 42.7409L88.0074 41.717C88.1754 41.4953 88.283 41.2338 88.3195 40.958L88.4504 39.9731L93.1775 38.3305C93.7091 38.1457 94.1052 37.6965 94.222 37.1459L94.7765 34.5297C94.8679 34.1016 94.7804 33.6553 94.5347 33.2936ZM91.2668 35.5924L86.4609 37.2621C85.8875 37.4614 85.4754 37.9666 85.3955 38.5682L85.19 40.1139L84.4273 41.12C84.2679 41.3303 84.1627 41.577 84.1211 41.8379L83.4453 46.0795L82.0951 45.8207C81.6681 45.7393 81.2255 45.8336 80.8695 46.0838C80.5134 46.3338 80.2738 46.7174 80.2054 47.1471L79.7589 49.959L78.6216 48.4055C78.4921 48.2287 78.3304 48.083 78.1476 47.9743L79.9341 45.3328C80.2498 44.8664 80.298 44.2688 80.0617 43.7576C79.8252 43.2465 79.3384 42.8965 78.7787 42.835L74.8105 42.3994L72.1189 40.6407C71.6746 40.35 71.1152 40.2981 70.6244 40.5014L65.1802 42.7582C64.4334 43.0678 64.0328 43.8844 64.2453 44.6647L66.6666 53.5586L65.6332 53.353C65.1806 53.2625 64.7099 53.3717 64.3431 53.6526L61.0933 56.1385C60.7506 56.4006 60.5277 56.7895 60.4748 57.2174L60.2132 59.3309L54.7254 62.3467C54.4056 62.5225 54.1554 62.8016 54.0156 63.1383L52.9593 65.6807L50.8416 67.7992L49.3713 68.4127C49.1015 68.5252 48.8673 68.7094 48.6947 68.9451L46.9443 71.3311L45.7533 71.4717C45.5211 71.4991 45.2974 71.577 45.0982 71.6996L43.0724 72.9485C42.7504 73.1469 42.5088 73.4526 42.39 73.8117L40.5734 79.3035C40.4648 79.6317 40.4648 79.986 40.5736 80.3137L41.382 82.7532L40.0718 90.1219L37.5759 93.1157L36.3584 94.6022C36.2853 94.6912 36.222 94.7881 36.1699 94.8909L35.665 95.8819L34.5379 96.3123L22.0972 62.6873L22.6703 59.6735C22.7295 59.3621 22.6951 59.0403 22.5722 58.7485L21.2605 55.6409L21.3361 53.0739C21.3566 52.3762 20.9244 51.7449 20.2666 51.5119C19.6084 51.2784 18.8754 51.4973 18.4523 52.0522L14.9746 56.6106L12.5705 55.4244L11.4724 53.56L12.3797 53.0854C12.9164 52.8047 13.2498 52.2459 13.2414 51.6403C13.2334 51.0346 12.8855 50.485 12.3418 50.2184L11.582 49.8461L10.9166 49.52L14.9781 48.0641C15.6257 47.8319 16.0539 47.2129 16.0425 46.5246L16.0013 44.0475C15.9972 43.8119 15.9418 43.5801 15.8382 43.3688L13.3425 38.2612C13.233 38.0373 13.0732 37.8416 12.8752 37.6905L12.6381 37.509L13.4131 35.236L15.9043 36.034C16.5033 36.2258 17.1595 36.0508 17.583 35.5852L24.6201 27.8516C24.8826 27.5635 25.031 27.1897 25.0382 26.8002L25.0545 25.9272L28.7986 19.178C29.1341 18.5729 29.0447 17.8211 28.5771 17.3116L24.1298 12.4688L23.9908 6.86253C23.9795 6.4137 23.781 5.99007 23.4435 5.69398L22.0955 4.51214L23.9339 3.41136L31.7675 6.84574C31.9972 6.94652 32.2466 6.99163 32.4978 6.97874L38.9994 6.6348L40.4158 7.48753L37.2414 14.0045C37.0089 14.4817 37.0271 15.0426 37.2898 15.5037L37.5564 15.9717L37.0451 16.0969C36.5388 16.2209 36.1238 16.583 35.9326 17.0682C35.741 17.5534 35.7972 18.1012 36.0826 18.5373L40.2363 24.8875C40.432 25.1868 40.722 25.4123 41.0603 25.5282L41.7543 25.766L40.6865 29.8375C40.4845 30.608 40.8773 31.4104 41.6101 31.7233L63.4091 41.0293C64.2088 41.3713 65.1349 41.0141 65.499 40.2248L67.2798 36.3664L70.9086 39.3225C71.1953 39.5561 71.5539 39.6838 71.9234 39.6838H76.3951C77.2248 39.6838 77.9177 39.0524 77.9951 38.2262L78.1945 36.0895L84.0953 32.3129C84.2822 32.1934 84.4422 32.0364 84.5654 31.852L84.906 31.3418L89.248 31.228L91.4921 34.5326L91.2668 35.5924Z" fill="#6E3572"/>
</g>
<defs>
<clipPath id="clip0_139_3714">
<rect width="100" height="100" fill="white"/>
</clipPath>
</defs>
</svg>
