<svg width="119" height="120" viewBox="0 0 119 120" fill="none" xmlns="http://www.w3.org/2000/svg">
<g clip-path="url(#clip0_557_104525)">
<path d="M110.78 60.0147C113.265 54.9811 115.222 49.921 116.58 44.9351C120.838 29.3125 118.776 16.2305 110.773 8.1006C102.77 -0.0292951 89.8921 -2.12494 74.5136 2.20093C69.6055 3.58063 64.6245 5.56916 59.6696 8.09327C53.5052 4.95026 47.3318 2.65046 41.3837 1.32569C27.568 -1.75049 15.9233 0.65552 8.59542 8.1006C3.89194 12.8787 1.16393 19.5923 0.707915 27.5162C0.297859 34.6445 1.71999 42.8248 4.8193 51.2513C2.27424 53.2957 0.636719 56.4561 0.636719 60.0001C0.636719 63.5441 2.27424 66.7045 4.8193 68.7489C1.71999 77.1754 0.297859 85.3565 0.707915 92.4839C1.16484 100.408 3.89194 107.121 8.59542 111.9C13.8478 117.236 21.2171 119.987 30.1184 119.987C31.9056 119.987 33.7549 119.877 35.6619 119.653C43.2943 118.759 51.4495 116.117 59.6813 111.912C64.6326 114.435 69.61 116.42 74.5136 117.799C79.747 119.271 84.6911 120 89.2522 120C98.0923 120 105.493 117.263 110.773 111.9C118.101 104.455 120.47 92.6258 117.442 78.5899C116.138 72.5483 113.874 66.2769 110.78 60.0147ZM75.4383 5.5948C89.5613 1.62232 101.239 3.39661 108.321 10.5908C115.403 17.7851 117.15 29.6485 113.239 43.9957C112.144 48.0149 110.64 52.089 108.769 56.1594C105.417 50.0519 101.293 44.0003 96.5161 38.2279C97.9797 36.3327 98.8556 33.9478 98.8556 31.3578C98.8556 28.8538 98.0581 26.4881 96.5476 24.516L93.8115 26.6776C94.8443 28.0262 95.3895 29.6448 95.3895 31.3578C95.3895 35.5655 92.0199 38.9878 87.8787 38.9878C83.7376 38.9878 80.368 35.5655 80.368 31.3578C80.368 27.15 83.7376 23.7278 87.8787 23.7278C89.2306 23.7278 90.5563 24.0958 91.7107 24.7934L93.4826 21.7667C91.7919 20.7459 89.8542 20.2057 87.8787 20.2057C85.3292 20.2057 82.9815 21.0965 81.1169 22.5833C75.4337 17.7301 69.4767 13.5416 63.4646 10.1349C67.4714 8.23518 71.4819 6.70716 75.4383 5.5948ZM11.0467 10.5908C20.4186 1.07025 37.6031 1.42548 55.8889 10.1248C46.9623 15.1822 38.2069 21.9544 30.2194 30.0678C24.2965 36.0846 19.0839 42.5474 14.7048 49.2939C13.718 49.0027 12.6798 48.848 11.6145 48.848C10.3032 48.848 9.04603 49.0842 7.87895 49.5136C1.8732 32.8849 2.99792 18.7665 11.0467 10.5908ZM30.2086 116.453C22.367 116.453 15.7007 114.137 11.0458 109.409C2.99792 101.234 1.8723 87.1162 7.87895 70.4865C9.04603 70.9168 10.3032 71.1521 11.6145 71.1521C12.6861 71.1521 13.7207 70.9919 14.7012 70.6998C19.0803 77.4491 24.2947 83.9137 30.2194 89.9324C38.2042 98.043 46.9569 104.813 55.8808 109.871C46.7145 114.229 37.896 116.454 30.2086 116.453ZM59.6741 107.955C50.3112 102.958 41.0656 95.9693 32.6707 87.4421C27.0299 81.7109 22.0543 75.5695 17.8591 69.1645C20.716 67.1494 22.5914 63.794 22.5914 60.001C22.5914 59.6705 22.5779 59.3363 22.5491 59.0076L19.0956 59.318C19.1154 59.5432 19.1253 59.7721 19.1253 60.0001C19.1253 64.2078 15.7556 67.6301 11.6145 67.6301C7.4734 67.6301 4.10372 64.2078 4.10372 60.0001C4.10372 55.7923 7.4734 52.3701 11.6145 52.3701C14.475 52.3701 17.0498 53.9851 18.3331 56.5842L21.4315 55.0059C20.5844 53.2892 19.3497 51.8674 17.8663 50.8228C22.0606 44.4233 27.0336 38.2847 32.6707 32.558C41.0674 24.028 50.3167 17.0371 59.6822 12.041C66.0565 15.4495 72.5057 19.8441 78.7539 25.166C77.5841 26.9385 76.9009 29.068 76.9009 31.3578C76.9009 37.5065 81.8261 42.5089 87.8787 42.5089C90.1327 42.5089 92.229 41.8149 93.9737 40.6266C99.2125 46.9739 103.537 53.5264 106.893 60.001C101.975 69.5152 95.093 78.9112 86.6972 87.4421C85.7735 88.3796 84.8245 89.3116 83.8656 90.2244C81.9523 88.5801 79.482 87.5859 76.7856 87.5859C74.3207 87.5859 71.992 88.397 70.0507 89.9305L72.1794 92.7101C73.506 91.6618 75.0994 91.1079 76.7856 91.107C80.9267 91.107 84.2964 94.5301 84.2964 98.737C84.2964 102.945 80.9267 106.367 76.7856 106.367C72.6445 106.367 69.2748 102.945 69.2748 98.737C69.2748 97.3637 69.6371 96.0179 70.3238 94.8451L67.3444 93.0442C66.3395 94.7618 65.8078 96.7302 65.8078 98.737C65.8078 100.504 66.216 102.174 66.9388 103.66C64.51 105.234 62.0839 106.666 59.6741 107.955ZM108.321 109.409C101.239 116.604 89.5613 118.378 75.4383 114.406C71.4846 113.294 67.4778 111.768 63.4736 109.869C65.2995 108.833 67.1263 107.72 68.9476 106.535C70.9421 108.603 73.7178 109.889 76.7856 109.889C82.8382 109.889 87.7634 104.887 87.7634 98.7379C87.7634 96.5965 87.165 94.5961 86.1313 92.895C87.1533 91.9236 88.1644 90.9312 89.1477 89.9324C97.1352 81.8171 103.801 72.9228 108.78 63.8544C117.343 82.4314 117.693 99.8887 108.321 109.409Z" fill="#623E91"/>
<path d="M88.1087 78.1953H84.5273V69.3229C84.5273 65.3989 81.9308 61.9144 78.2133 60.8488L76.9173 60.478L75.9765 63.8673L77.2724 64.239C79.502 64.878 81.0603 66.9682 81.0603 69.3229V78.1953H74.8202V73.3824H71.3541V78.1953H55.7539V81.7164H88.1087V78.1953Z" fill="#623E91"/>
<path d="M65.416 60.8414L72.6402 62.9124L73.582 59.5222L66.501 57.4934V52.8168C69.7067 50.5958 71.8165 46.8577 71.8165 42.627V37.4616C71.8165 30.6656 66.374 25.1358 59.6833 25.1358C52.9935 25.1358 47.5501 30.6656 47.5501 37.4616V42.627C47.5501 46.8577 49.6599 50.5958 52.8655 52.8168V57.4934L41.1532 60.8488C37.4357 61.9144 34.8393 65.3989 34.8393 69.3229V78.1953H31.2578V81.7164H52.2879V78.1953H48.0125V73.3823H44.5463V78.1953H38.3063V69.3229C38.3063 66.9682 39.8645 64.878 42.0941 64.239L53.9506 60.8424C55.4106 62.4647 57.4726 63.4049 59.6833 63.4049C61.894 63.4049 63.9569 62.4638 65.416 60.8414ZM59.6833 28.6579C64.4616 28.6579 68.3495 32.6075 68.3495 37.4625V39.4236L64.7058 34.5273H51.5137C52.706 31.1115 55.9171 28.6579 59.6833 28.6579ZM51.0171 42.627V38.0494H62.9809L68.062 44.8755C67.0805 48.6448 63.6964 51.4307 59.6833 51.4307C54.905 51.4307 51.0171 47.4811 51.0171 42.627ZM56.3325 58.2578V54.4703C57.3969 54.7825 58.5207 54.9528 59.6833 54.9528C60.8459 54.9528 61.9688 54.7825 63.034 54.4703V58.2578C62.2193 59.2823 60.9991 59.8829 59.6833 59.8829C58.3675 59.8829 57.1464 59.2823 56.3325 58.2578Z" fill="#623E91"/>
<path d="M68.8399 69.1398L63.957 67.7409L64.8988 64.3516L69.7807 65.7505L68.8399 69.1398Z" fill="#623E91"/>
<path d="M76.45 67.6557L75.5082 71.045L72.1719 70.0892L73.1137 66.6999L76.45 67.6557Z" fill="#623E91"/>
<path d="M86.1445 29.5972H89.6106V33.1192H86.1445V29.5972Z" fill="#623E91"/>
<path d="M75.0508 96.9774H78.5169V100.498H75.0508V96.9774Z" fill="#623E91"/>
<path d="M9.87891 58.2395H13.3459V61.7606H9.87891V58.2395Z" fill="#623E91"/>
</g>
<defs>
<clipPath id="clip0_557_104525">
<rect width="118.125" height="120" fill="white" transform="translate(0.40625)"/>
</clipPath>
</defs>
</svg>
