<svg width="119" height="120" viewBox="0 0 119 120" fill="none" xmlns="http://www.w3.org/2000/svg">
<path d="M30.686 116.956C27.9628 116.955 25.3514 115.856 23.4245 113.902C21.4976 111.947 20.4126 109.296 20.4075 106.529V23.8378C20.4075 23.4078 20.5757 22.9953 20.875 22.6912C21.1744 22.3871 21.5804 22.2162 22.0038 22.2162C22.4271 22.2162 22.8332 22.3871 23.1325 22.6912C23.4319 22.9953 23.6001 23.4078 23.6001 23.8378V106.529C23.628 108.42 24.3869 110.223 25.7129 111.55C27.0389 112.877 28.8255 113.621 30.6868 113.621C32.5481 113.621 34.3347 112.877 35.6606 111.55C36.9866 110.223 37.7455 108.42 37.7735 106.529V98.7941C37.7735 98.364 37.9417 97.9515 38.241 97.6474C38.5404 97.3433 38.9464 97.1724 39.3698 97.1724H102.615V13.8892C102.612 11.9803 101.865 10.1502 100.536 8.80039C99.2076 7.45059 97.4061 6.69134 95.527 6.68919H12.4947C12.0714 6.68919 11.6653 6.51834 11.366 6.21423C11.0666 5.91011 10.8984 5.49765 10.8984 5.06757C10.8984 4.63749 11.0666 4.22502 11.366 3.92091C11.6653 3.61679 12.0714 3.44595 12.4947 3.44595H95.527C98.2526 3.44895 100.866 4.55018 102.793 6.50802C104.72 8.46586 105.804 11.1204 105.807 13.8892V98.7941C105.807 99.2241 105.639 99.6366 105.34 99.9407C105.04 100.245 104.634 100.416 104.211 100.416H40.966V106.529C40.9605 109.296 39.8752 111.947 37.948 113.902C36.0209 115.856 33.4093 116.955 30.686 116.956Z" fill="#623E91"/>
<path d="M103.616 116.959H30.69C30.2667 116.959 29.8607 116.789 29.5613 116.485C29.2619 116.18 29.0938 115.768 29.0938 115.338C29.0938 114.908 29.2619 114.495 29.5613 114.191C29.8607 113.887 30.2667 113.716 30.69 113.716C32.567 113.716 34.3673 112.96 35.696 111.613C37.0247 110.266 37.7733 108.439 37.7775 106.532V98.7973C37.7775 98.3672 37.9457 97.9547 38.2451 97.6506C38.5444 97.3465 38.9505 97.1757 39.3738 97.1757H112.282C112.706 97.1757 113.112 97.3465 113.411 97.6506C113.711 97.9547 113.879 98.3672 113.879 98.7973V106.532C113.876 109.297 112.794 111.947 110.87 113.902C108.946 115.857 106.337 116.956 103.616 116.959ZM38.1351 113.716H103.616C105.491 113.714 107.288 112.956 108.614 111.61C109.939 110.263 110.685 108.437 110.686 106.532V100.419H40.9701V106.532C40.9723 109.209 39.9566 111.783 38.1351 113.716Z" fill="#623E91"/>
<path d="M53.272 87.9065C52.9808 87.9067 52.6951 87.826 52.4458 87.673C52.1965 87.5201 51.9931 87.3008 51.8577 87.0389L49.5239 82.5227L44.7447 84.0746C44.4531 84.1698 44.1407 84.1777 43.8448 84.0975C43.5489 84.0173 43.282 83.8523 43.0759 83.6222C42.8698 83.3921 42.7331 83.1066 42.6823 82.7998C42.6315 82.493 42.6686 82.1778 42.7892 81.8919L49.6006 65.687C49.7667 65.2914 50.0808 64.9789 50.4737 64.8185C50.8666 64.6581 51.3062 64.6628 51.6957 64.8316C52.0852 65.0004 52.3927 65.3195 52.5506 65.7186C52.7085 66.1178 52.7039 66.5643 52.5377 66.96L47.096 79.9054L49.8272 79.02C50.185 78.9033 50.5717 78.9185 50.9195 79.063C51.2672 79.2074 51.5537 79.4719 51.7284 79.8097L53.1204 82.5032L58.9596 68.5573C59.0377 68.3557 59.1548 68.1721 59.3039 68.0173C59.453 67.8624 59.6311 67.7395 59.8278 67.6558C60.0244 67.5721 60.2356 67.5292 60.4488 67.5297C60.6621 67.5303 60.873 67.5742 61.0693 67.6589C61.2655 67.7436 61.4431 67.8674 61.5914 68.023C61.7398 68.1786 61.856 68.3628 61.9331 68.5648C62.0102 68.7667 62.0467 68.9823 62.0405 69.1988C62.0343 69.4153 61.9854 69.6284 61.8967 69.8254L54.739 86.9189C54.621 87.201 54.4267 87.4434 54.1786 87.6179C53.9306 87.7924 53.6389 87.8919 53.3375 87.9049L53.272 87.9065Z" fill="#623E91"/>
<path d="M71.2654 87.9065H71.2C70.898 87.8941 70.6056 87.7949 70.3569 87.6203C70.1083 87.4458 69.9135 87.2031 69.7952 86.9205L62.6583 69.8205C62.4927 69.4244 62.4889 68.9778 62.6475 68.5788C62.8062 68.1798 63.1144 67.8611 63.5043 67.693C63.8942 67.5248 64.3339 67.5209 64.7267 67.6821C65.1194 67.8432 65.4331 68.1563 65.5986 68.5524L71.4234 82.4984L72.8138 79.8081C72.9885 79.4706 73.2747 79.2064 73.6221 79.062C73.9695 78.9176 74.3559 78.9021 74.7134 79.0184L77.4414 79.9038L72.0061 66.9941C71.9175 66.7974 71.8686 66.5847 71.8622 66.3685C71.8557 66.1523 71.892 65.937 71.9687 65.7352C72.0454 65.5335 72.1611 65.3493 72.3089 65.1937C72.4567 65.038 72.6337 64.9139 72.8294 64.8288C73.0251 64.7437 73.2356 64.6992 73.4485 64.6979C73.6614 64.6967 73.8724 64.7387 74.0691 64.8216C74.2658 64.9044 74.4442 65.0264 74.5937 65.1803C74.7433 65.3342 74.8611 65.517 74.9401 65.7178L81.745 81.8919C81.8653 82.1775 81.9022 82.4923 81.8514 82.7986C81.8007 83.105 81.6644 83.3901 81.4587 83.62C81.2531 83.8499 80.9867 84.015 80.6914 84.0956C80.3961 84.1762 80.0841 84.1689 79.7928 84.0746L75.0135 82.5227L72.6797 87.0389C72.5443 87.3008 72.3409 87.5201 72.0916 87.673C71.8424 87.826 71.5566 87.9067 71.2654 87.9065Z" fill="#623E91"/>
<path d="M62.2754 71.653C61.4078 71.653 60.565 71.3585 59.881 70.8162L57.3349 68.8038C57.1831 68.6908 56.9951 68.6399 56.8081 68.6611L53.6156 69.1119C52.7556 69.2366 51.8794 69.0647 51.1269 68.6237C50.3745 68.1828 49.7894 67.4982 49.4652 66.6795L48.2568 63.6487C48.2219 63.5581 48.1694 63.4755 48.1025 63.4059C48.0356 63.3363 47.9556 63.281 47.8674 63.2432L44.8839 62.0157C44.0787 61.6854 43.4054 61.0908 42.9715 60.3267C42.5375 59.5626 42.3679 58.6729 42.4895 57.7995L42.9316 54.5562C42.9451 54.4616 42.9394 54.3653 42.915 54.273C42.8906 54.1807 42.8479 54.0944 42.7896 54.0195L40.8086 51.4249C40.2745 50.7301 39.9844 49.8739 39.9844 48.9924C39.9844 48.1109 40.2745 47.2547 40.8086 46.56L42.7864 43.9654C42.8446 43.89 42.8873 43.8035 42.912 43.711C42.9367 43.6185 42.9428 43.522 42.93 43.427L42.4879 40.1838C42.3663 39.3103 42.5359 38.4206 42.9699 37.6565C43.4038 36.8924 44.0771 36.2978 44.8823 35.9676L47.8674 34.7384C47.9549 34.7028 48.0344 34.6496 48.1011 34.5818C48.1678 34.5141 48.2202 34.4333 48.2553 34.3443L49.4652 31.3119C49.7899 30.4935 50.3751 29.8093 51.1274 29.3684C51.8797 28.9275 52.7557 28.7553 53.6156 28.8795L56.8081 29.3303C56.9016 29.3435 56.9967 29.3374 57.0878 29.3124C57.1789 29.2873 57.264 29.2437 57.3381 29.1843L59.8826 27.1735C60.5669 26.632 61.4096 26.338 62.277 26.338C63.1444 26.338 63.9871 26.632 64.6714 27.1735L67.2175 29.1859C67.2917 29.2451 67.3769 29.2883 67.468 29.3131C67.559 29.3379 67.6541 29.3438 67.7475 29.3303L70.94 28.8795C71.7999 28.7559 72.6756 28.9283 73.4278 29.3691C74.18 29.81 74.7653 30.4939 75.0904 31.3119L76.2988 34.3443C76.3346 34.4335 76.3877 34.5145 76.4548 34.5824C76.522 34.6504 76.6019 34.704 76.6898 34.74L79.6733 35.9676C80.478 36.2985 81.1508 36.8932 81.5846 37.6572C82.0184 38.4211 82.1885 39.3104 82.0677 40.1838L81.624 43.427C81.5994 43.618 81.6505 43.8111 81.766 43.9638L83.7454 46.5584C84.2803 47.2528 84.5709 48.1091 84.5709 48.9908C84.5709 49.8725 84.2803 50.7289 83.7454 51.4232L81.7644 54.0097C81.6498 54.1628 81.5993 54.3558 81.624 54.5465L82.0677 57.7897C82.1885 58.6631 82.0184 59.5524 81.5846 60.3163C81.1508 61.0803 80.478 61.675 79.6733 62.0059L76.6819 63.2432C76.5941 63.2796 76.5144 63.3333 76.4472 63.4012C76.3801 63.4691 76.3269 63.5499 76.2908 63.6389L75.084 66.6697C74.7582 67.4872 74.1728 68.1706 73.4208 68.6114C72.6688 69.0521 71.7934 69.2248 70.9337 69.1022L67.7411 68.6514C67.5526 68.6267 67.3622 68.6786 67.2111 68.7957L64.6666 70.8065C63.9849 71.3519 63.1432 71.6499 62.2754 71.653ZM56.8975 65.4114C57.7641 65.4129 58.6059 65.7053 59.292 66.2432L61.846 68.2573C61.9699 68.3546 62.122 68.4074 62.2786 68.4074C62.4352 68.4074 62.5873 68.3546 62.7112 68.2573L65.2557 66.2449C65.6676 65.921 66.139 65.6838 66.6422 65.5471C67.1454 65.4104 67.6704 65.3769 68.1864 65.4487L71.379 65.8978C71.5348 65.9239 71.6947 65.8944 71.8314 65.8143C71.9682 65.7342 72.0735 65.6084 72.1293 65.4584L73.3377 62.4259C73.5348 61.9345 73.8268 61.4881 74.1963 61.1129C74.5659 60.7378 75.0055 60.4416 75.4894 60.2416L78.4745 59.0141C78.6199 58.9542 78.7414 58.8466 78.8198 58.7086C78.8982 58.5705 78.9289 58.4097 78.9071 58.2519L78.4649 55.0087C78.3942 54.4854 78.4267 53.953 78.5608 53.4426C78.6948 52.9323 78.9276 52.4542 79.2455 52.0362L81.2281 49.4416C81.3243 49.3163 81.3765 49.1619 81.3765 49.003C81.3765 48.844 81.3243 48.6897 81.2281 48.5643L79.2487 45.9697C78.9307 45.5533 78.6973 45.0767 78.5622 44.5678C78.4271 44.0589 78.393 43.5278 78.4617 43.0054L78.9039 39.7622C78.9257 39.6043 78.895 39.4436 78.8166 39.3055C78.7383 39.1674 78.6167 39.0599 78.4713 39L75.4863 37.7708C75.0026 37.5711 74.5632 37.2751 74.194 36.9003C73.8247 36.5254 73.533 36.0793 73.3361 35.5881L72.1261 32.5557C72.0683 32.407 71.9628 32.2825 71.8266 32.2024C71.6904 32.1223 71.5315 32.0914 71.3758 32.1146L68.1833 32.5654C67.6677 32.6372 67.1432 32.6038 66.6405 32.4671C66.1377 32.3304 65.667 32.0931 65.2557 31.7692L62.7016 29.7568C62.5781 29.6587 62.4258 29.6054 62.269 29.6054C62.1122 29.6054 61.96 29.6587 61.8364 29.7568L59.2824 31.7676C58.8703 32.0901 58.3995 32.3266 57.897 32.4636C57.3946 32.6005 56.8705 32.6351 56.3548 32.5654L53.1622 32.1146C53.0067 32.0931 52.8486 32.1248 52.7128 32.2047C52.5769 32.2845 52.4711 32.408 52.412 32.5557L51.202 35.5881C51.0052 36.0791 50.7137 36.5251 50.3447 36.8999C49.9757 37.2748 49.5367 37.5709 49.0534 37.7708L46.0683 38.9984C45.923 39.0585 45.8014 39.166 45.7228 39.304C45.6442 39.4419 45.613 39.6026 45.6342 39.7605L46.0779 43.0038C46.1485 43.528 46.1152 44.0613 45.9801 44.5723C45.8449 45.0833 45.6106 45.5617 45.291 45.9795L43.3275 48.5676C43.231 48.6931 43.1785 48.8478 43.1785 49.007C43.1785 49.1663 43.231 49.321 43.3275 49.4465L45.3085 52.0411C45.6271 52.459 45.8605 52.9373 45.9951 53.448C46.1297 53.9586 46.1627 54.4914 46.0923 55.0151L45.6485 58.2584C45.6268 58.4164 45.6578 58.5773 45.7364 58.7154C45.8151 58.8535 45.937 58.9609 46.0827 59.0205L49.0678 60.2497C49.5509 60.4499 49.9898 60.7461 50.3588 61.1209C50.7277 61.4957 51.0193 61.9416 51.2164 62.4324L52.4263 65.4665C52.4857 65.6136 52.5914 65.7365 52.7269 65.816C52.8623 65.8955 53.0199 65.9272 53.175 65.9059L56.3676 65.4568C56.543 65.4295 56.7201 65.4144 56.8975 65.4114Z" fill="#623E91"/>
<path d="M62.2754 71.653C61.4078 71.653 60.565 71.3585 59.881 70.8162L57.3349 68.8038C57.1831 68.6908 56.9951 68.6399 56.8081 68.6611L53.6156 69.1119C52.7556 69.2366 51.8794 69.0647 51.1269 68.6237C50.3745 68.1828 49.7894 67.4982 49.4652 66.6795L48.2568 63.6487C48.2219 63.5581 48.1694 63.4755 48.1025 63.4059C48.0356 63.3363 47.9556 63.281 47.8674 63.2432L44.8839 62.0157C44.0787 61.6854 43.4054 61.0908 42.9715 60.3267C42.5375 59.5626 42.3679 58.6729 42.4895 57.7995L42.9316 54.5562C42.9451 54.4616 42.9394 54.3653 42.915 54.273C42.8906 54.1807 42.8479 54.0944 42.7896 54.0195L40.8086 51.4249C40.2745 50.7301 39.9844 49.8739 39.9844 48.9924C39.9844 48.1109 40.2745 47.2547 40.8086 46.56L42.7864 43.9654C42.8446 43.89 42.8873 43.8035 42.912 43.711C42.9367 43.6185 42.9428 43.522 42.93 43.427L42.4879 40.1838C42.3663 39.3103 42.5359 38.4206 42.9699 37.6565C43.4038 36.8924 44.0771 36.2978 44.8823 35.9676L47.8674 34.7384C47.9549 34.7028 48.0344 34.6496 48.1011 34.5818C48.1678 34.5141 48.2202 34.4333 48.2553 34.3443L49.4652 31.3119C49.7899 30.4935 50.3751 29.8093 51.1274 29.3684C51.8797 28.9275 52.7557 28.7553 53.6156 28.8795L56.8081 29.3303C56.9016 29.3435 56.9967 29.3374 57.0878 29.3124C57.1789 29.2873 57.264 29.2437 57.3381 29.1843L59.8826 27.1735C60.5669 26.632 61.4096 26.338 62.277 26.338C63.1444 26.338 63.9871 26.632 64.6714 27.1735L67.2175 29.1859C67.2917 29.2451 67.3769 29.2883 67.468 29.3131C67.559 29.3379 67.6541 29.3438 67.7475 29.3303L70.94 28.8795C71.7999 28.7559 72.6756 28.9283 73.4278 29.3691C74.18 29.81 74.7653 30.4939 75.0904 31.3119L76.2988 34.3443C76.3346 34.4335 76.3877 34.5145 76.4548 34.5824C76.522 34.6504 76.6019 34.704 76.6898 34.74L79.6733 35.9676C80.478 36.2985 81.1508 36.8932 81.5846 37.6572C82.0184 38.4211 82.1885 39.3104 82.0677 40.1838L81.624 43.427C81.5994 43.618 81.6505 43.8111 81.766 43.9638L83.7454 46.5584C84.2803 47.2528 84.5709 48.1091 84.5709 48.9908C84.5709 49.8725 84.2803 50.7289 83.7454 51.4232L81.7644 54.0097C81.6498 54.1628 81.5993 54.3558 81.624 54.5465L82.0677 57.7897C82.1885 58.6631 82.0184 59.5524 81.5846 60.3163C81.1508 61.0803 80.478 61.675 79.6733 62.0059L76.6819 63.2432C76.5941 63.2796 76.5144 63.3333 76.4472 63.4012C76.3801 63.4691 76.3269 63.5499 76.2908 63.6389L75.084 66.6697C74.7582 67.4872 74.1728 68.1706 73.4208 68.6114C72.6688 69.0521 71.7934 69.2248 70.9337 69.1022L67.7411 68.6514C67.5526 68.6267 67.3622 68.6786 67.2111 68.7957L64.6666 70.8065C63.9849 71.3519 63.1432 71.6499 62.2754 71.653ZM56.8975 65.4114C57.7641 65.4129 58.6059 65.7053 59.292 66.2432L61.846 68.2573C61.9699 68.3546 62.122 68.4074 62.2786 68.4074C62.4352 68.4074 62.5873 68.3546 62.7112 68.2573L65.2557 66.2449C65.6676 65.921 66.139 65.6838 66.6422 65.5471C67.1454 65.4104 67.6704 65.3769 68.1864 65.4487L71.379 65.8978C71.5348 65.9239 71.6947 65.8944 71.8314 65.8143C71.9682 65.7342 72.0735 65.6084 72.1293 65.4584L73.3377 62.4259C73.5348 61.9345 73.8268 61.4881 74.1963 61.1129C74.5659 60.7378 75.0055 60.4416 75.4894 60.2416L78.4745 59.0141C78.6199 58.9542 78.7414 58.8466 78.8198 58.7086C78.8982 58.5705 78.9289 58.4097 78.9071 58.2519L78.4649 55.0087C78.3942 54.4854 78.4267 53.953 78.5608 53.4426C78.6948 52.9323 78.9276 52.4542 79.2455 52.0362L81.2281 49.4416C81.3243 49.3163 81.3765 49.1619 81.3765 49.003C81.3765 48.844 81.3243 48.6897 81.2281 48.5643L79.2487 45.9697C78.9307 45.5533 78.6973 45.0767 78.5622 44.5678C78.4271 44.0589 78.393 43.5278 78.4617 43.0054L78.9039 39.7622C78.9257 39.6043 78.895 39.4436 78.8166 39.3055C78.7383 39.1674 78.6167 39.0599 78.4713 39L75.4863 37.7708C75.0026 37.5711 74.5632 37.2751 74.194 36.9003C73.8247 36.5254 73.533 36.0793 73.3361 35.5881L72.1261 32.5557C72.0683 32.407 71.9628 32.2825 71.8266 32.2024C71.6904 32.1223 71.5315 32.0914 71.3758 32.1146L68.1833 32.5654C67.6677 32.6372 67.1432 32.6038 66.6405 32.4671C66.1377 32.3304 65.667 32.0931 65.2557 31.7692L62.7016 29.7568C62.5781 29.6587 62.4258 29.6054 62.269 29.6054C62.1122 29.6054 61.96 29.6587 61.8364 29.7568L59.2824 31.7676C58.8703 32.0901 58.3995 32.3266 57.897 32.4636C57.3946 32.6005 56.8705 32.6351 56.3548 32.5654L53.1622 32.1146C53.0067 32.0931 52.8486 32.1248 52.7128 32.2047C52.5769 32.2845 52.4711 32.408 52.412 32.5557L51.202 35.5881C51.0052 36.0791 50.7137 36.5251 50.3447 36.8999C49.9757 37.2748 49.5367 37.5709 49.0534 37.7708L46.0683 38.9984C45.923 39.0585 45.8014 39.166 45.7228 39.304C45.6442 39.4419 45.613 39.6026 45.6342 39.7605L46.0779 43.0038C46.1485 43.528 46.1152 44.0613 45.9801 44.5723C45.8449 45.0833 45.6106 45.5617 45.291 45.9795L43.3275 48.5676C43.231 48.6931 43.1785 48.8478 43.1785 49.007C43.1785 49.1663 43.231 49.321 43.3275 49.4465L45.3085 52.0411C45.6271 52.459 45.8605 52.9373 45.9951 53.448C46.1297 53.9586 46.1627 54.4914 46.0923 55.0151L45.6485 58.2584C45.6268 58.4164 45.6578 58.5773 45.7364 58.7154C45.8151 58.8535 45.937 58.9609 46.0827 59.0205L49.0678 60.2497C49.5509 60.4499 49.9898 60.7461 50.3588 61.1209C50.7277 61.4957 51.0193 61.9416 51.2164 62.4324L52.4263 65.4665C52.4857 65.6136 52.5914 65.7365 52.7269 65.816C52.8623 65.8955 53.0199 65.9272 53.175 65.9059L56.3676 65.4568C56.543 65.4295 56.7201 65.4144 56.8975 65.4114Z" fill="#623E91"/>
<path d="M56.6108 59.4811C56.3784 59.4809 56.1488 59.4293 55.9382 59.3296C55.7275 59.23 55.5408 59.0849 55.391 58.9044C55.2413 58.7238 55.1322 58.5123 55.0713 58.2845C55.0104 58.0566 54.9991 57.8181 55.0384 57.5854L55.977 52.02L51.9975 48.0778C51.7869 47.8663 51.6383 47.5994 51.5685 47.307C51.4986 47.0146 51.5102 46.7082 51.602 46.4221C51.6938 46.1361 51.8621 45.8816 52.0881 45.6871C52.3141 45.4927 52.589 45.3659 52.8818 45.3211L58.3826 44.5103L60.8425 39.4476C60.9894 39.1947 61.1987 38.9852 61.4496 38.8396C61.7006 38.6941 61.9846 38.6175 62.2736 38.6175C62.5626 38.6175 62.8466 38.6941 63.0975 38.8396C63.3485 38.9852 63.5577 39.1947 63.7046 39.4476L66.1693 44.5005L71.6685 45.3113C71.9635 45.3546 72.2406 45.4809 72.4686 45.6759C72.6966 45.8708 72.8663 46.1268 72.9585 46.4147C73.0507 46.7026 73.0617 47.0109 72.9903 47.3049C72.9189 47.5988 72.7679 47.8666 72.5544 48.0778L68.5637 52.02L69.5023 57.5854C69.5524 57.8834 69.5195 58.1897 69.4073 58.4697C69.2951 58.7497 69.1081 58.9923 68.8674 59.17C68.6267 59.3478 68.3419 59.4536 68.0451 59.4757C67.7483 59.4977 67.4513 59.4349 67.1877 59.2946L62.2664 56.6676L57.3482 59.2946C57.1208 59.4162 56.8678 59.4801 56.6108 59.4811ZM62.2728 53.2135C62.5314 53.2137 62.7861 53.2777 63.015 53.4L65.8165 54.8968L65.2818 51.7297C65.2379 51.4707 65.2567 51.2047 65.3365 50.9547C65.4163 50.7047 65.5548 50.4782 65.7399 50.2946L68.0066 48.0519L64.8763 47.5897C64.6202 47.5519 64.3769 47.4515 64.1675 47.2969C63.9581 47.1424 63.7889 46.9385 63.6743 46.7027L62.2728 43.8195L60.8728 46.7027C60.7585 46.9388 60.5893 47.143 60.3799 47.2978C60.1705 47.4527 59.9271 47.5534 59.6708 47.5913L56.5405 48.0535L58.8056 50.2962C58.9908 50.4798 59.1292 50.7064 59.209 50.9564C59.2888 51.2064 59.3076 51.4723 59.2638 51.7313L58.7306 54.9L61.5289 53.4032C61.7583 53.2803 62.0134 53.2152 62.2728 53.2135Z" fill="#623E91"/>
<path d="M22.0326 25.4595H4.6666C4.24324 25.4595 3.83721 25.2886 3.53785 24.9845C3.23849 24.6804 3.07031 24.2679 3.07031 23.8378V13.873C3.10401 11.126 4.20183 8.50316 6.12591 6.57275C8.04998 4.64234 10.6453 3.55986 13.3496 3.55986C16.0538 3.55986 18.6492 4.64234 20.5733 6.57275C22.4973 8.50316 23.5952 11.126 23.6289 13.873V23.8378C23.6289 24.2679 23.4607 24.6804 23.1613 24.9845C22.8619 25.2886 22.4559 25.4595 22.0326 25.4595ZM6.26288 22.2162H20.4363V13.873C20.4084 11.9823 19.6494 10.1788 18.3235 8.85179C16.9975 7.52484 15.2109 6.78102 13.3496 6.78102C11.4883 6.78102 9.70169 7.52484 8.37571 8.85179C7.04973 10.1788 6.29081 11.9823 6.26288 13.873V22.2162Z" fill="#623E91"/>
</svg>
