<svg width="119" height="120" viewBox="0 0 119 120" fill="none" xmlns="http://www.w3.org/2000/svg">
<g clip-path="url(#clip0_557_104536)">
<path d="M115.268 97.5945C113.348 96.1768 110.951 95.598 108.61 95.9871C106.969 96.2484 105.432 96.9655 104.167 98.0581L94.9346 91.308V51.8912C94.9518 51.1247 94.5231 50.4192 93.841 50.0911L61.5237 34.9641V24.2762C65.9954 23.3858 69.0915 19.2206 68.7114 14.6073C68.3313 9.99397 64.596 6.41036 60.0405 6.28745C55.4859 6.16552 51.5687 9.543 50.9485 14.1292C50.3283 18.7154 53.2024 23.0413 57.6217 24.1707V35.028L25.3721 50.0911C24.6747 50.4114 24.2222 51.1131 24.2108 51.8902V91.6786L15.5532 98.0591C12.4229 95.3261 7.85498 95.1335 4.51313 97.5945C0.537771 100.543 -0.344371 106.203 2.54117 110.255C5.42671 114.307 10.9939 115.227 14.995 112.314C18.4254 109.787 19.6439 105.163 17.9139 101.234L26.6448 94.8209L58.8249 109.863C59.3422 110.105 59.9385 110.105 60.4558 109.863L92.9455 94.6758L101.873 101.233C100.143 105.163 101.36 109.787 104.791 112.314C108.793 115.253 114.381 114.341 117.274 110.275C120.167 106.21 119.269 100.533 115.268 97.5945ZM59.6394 65.434L30.8688 51.897L59.6404 38.448L88.4129 51.897L59.6394 65.434ZM54.7686 15.3641C54.7686 12.5372 57.0244 10.2456 59.8071 10.2456C62.5888 10.2456 64.8446 12.5372 64.8446 15.3641C64.8446 18.1909 62.5888 20.4825 59.8071 20.4825C57.0254 20.4796 54.7714 18.1899 54.7686 15.3641ZM12.7096 109.102C10.9434 110.399 8.55612 110.395 6.79374 109.092C5.03136 107.789 4.29402 105.483 4.96563 103.376C5.63819 101.27 7.56728 99.8417 9.74692 99.8368C10.0184 99.8368 10.289 99.8591 10.5576 99.9026C12.5696 100.232 14.1881 101.759 14.6597 103.773C15.1303 105.787 14.3605 107.891 12.7096 109.103V109.102ZM28.1128 54.9928L57.6217 68.886V104.969L28.1128 91.1676V54.9928ZM61.5237 104.969V68.886L91.0326 54.9928V91.1676L61.5237 104.969ZM114.112 107.953C112.479 110.241 109.333 110.755 107.077 109.102C104.822 107.446 104.316 104.246 105.946 101.955C107.576 99.6646 110.726 99.1507 112.981 100.807C115.236 102.463 115.742 105.663 114.112 107.953Z" fill="#623E91"/>
</g>
<defs>
<clipPath id="clip0_557_104536">
<rect width="118.125" height="120" fill="white" transform="translate(0.84375)"/>
</clipPath>
</defs>
</svg>
