<svg width="132" height="132" viewBox="0 0 132 132" fill="none" xmlns="http://www.w3.org/2000/svg">
<path d="M52.1214 52.198C53.4231 53.5245 55.0904 54.4331 56.9107 54.8079C58.731 55.1826 60.6217 55.0065 62.3414 54.302C64.0612 53.5975 65.5321 52.3966 66.5663 50.8526C67.6006 49.3085 68.1514 47.4913 68.1484 45.6328C68.1492 44.8504 68.0524 44.071 67.8604 43.3125H76.3125C76.8595 43.3125 77.3841 43.0952 77.7709 42.7084C78.1577 42.3216 78.375 41.797 78.375 41.25V14.9531C78.3718 12.0823 77.2299 9.33 75.2 7.30003C73.17 5.27005 70.4177 4.12821 67.5469 4.125H14.9531C12.0823 4.12821 9.33 5.27005 7.30003 7.30003C5.27005 9.33 4.12821 12.0823 4.125 14.9531V67.5469C4.12821 70.4177 5.27005 73.17 7.30003 75.2C9.33 77.2299 12.0823 78.3718 14.9531 78.375H41.25C41.797 78.375 42.3216 78.1577 42.7084 77.7709C43.0952 77.3841 43.3125 76.8595 43.3125 76.3125V64.6251C43.3127 64.2418 43.2061 63.866 43.0047 63.5399C42.8032 63.2138 42.5149 62.9503 42.172 62.779C41.8292 62.6076 41.4453 62.5352 41.0636 62.5699C40.6819 62.6045 40.3174 62.7448 40.011 62.9751C39.1056 63.6585 38.0015 64.0267 36.8672 64.0233C36.0365 64.0235 35.2177 63.8263 34.4783 63.4479C33.7388 63.0695 33.0998 62.5208 32.614 61.847C32.1282 61.1733 31.8095 60.3937 31.6841 59.5725C31.5587 58.7514 31.6303 57.9122 31.8929 57.1242C32.1554 56.3361 32.6015 55.6217 33.1944 55.0399C33.7872 54.4581 34.5099 54.0255 35.3027 53.7777C36.0955 53.53 36.9359 53.4742 37.7546 53.615C38.5732 53.7558 39.3467 54.0891 40.0112 54.5874C40.3176 54.8176 40.6821 54.9579 41.0638 54.9925C41.4455 55.0271 41.8293 54.9546 42.1721 54.7833C42.5149 54.6119 42.8032 54.3485 43.0046 54.0224C43.2061 53.6964 43.3127 53.3207 43.3125 52.9374V43.3125H49.7026C49.5218 44.026 49.4253 44.7583 49.4152 45.4944C49.3957 46.7359 49.6251 47.9687 50.0899 49.1201C50.5547 50.2714 51.2455 51.318 52.1214 52.198ZM8.25 14.9531C8.25198 13.176 8.95883 11.4721 10.2155 10.2155C11.4721 8.95883 13.176 8.25198 14.9531 8.25H39.1875V17.8749C39.1873 18.2582 39.2939 18.6339 39.4954 18.9599C39.6968 19.286 39.9851 19.5494 40.3279 19.7208C40.6707 19.8921 41.0545 19.9646 41.4362 19.93C41.8179 19.8954 42.1824 19.7551 42.4888 19.5249C43.2677 18.9412 44.1937 18.5859 45.1632 18.4987C46.1326 18.4116 47.1072 18.5961 47.9777 19.0315C48.8482 19.467 49.5803 20.1362 50.0919 20.9643C50.6036 21.7923 50.8746 22.7464 50.8746 23.7198C50.8746 24.6931 50.6036 25.6473 50.0919 26.4753C49.5803 27.3033 48.8482 27.9726 47.9777 28.408C47.1072 28.8435 46.1326 29.028 45.1632 28.9408C44.1937 28.8537 43.2677 28.4984 42.4888 27.9146C42.1824 27.6844 41.8178 27.5441 41.4361 27.5094C41.0544 27.4748 40.6706 27.5472 40.3277 27.7186C39.9849 27.8899 39.6965 28.1534 39.4951 28.4795C39.2936 28.8056 39.187 29.1814 39.1872 29.5646V39.1875H31.3371C31.688 37.8041 31.7187 36.3589 31.4268 34.9619C31.1348 33.5649 30.528 32.2529 29.6524 31.1259C28.7769 29.9988 27.6557 29.0864 26.3742 28.4581C25.0928 27.8298 23.6849 27.5021 22.2577 27.5001C17.1149 27.5001 12.8166 31.8703 12.8917 37.0059C12.9018 37.7418 12.9983 38.474 13.1791 39.1875H8.25V14.9531ZM37.0056 49.4152C35.7653 49.4017 34.5346 49.6337 33.3844 50.0979C32.2341 50.5621 31.1871 51.2493 30.3035 52.1199C29.42 52.9904 28.7174 54.0272 28.2363 55.1705C27.7551 56.3137 27.5049 57.5409 27.5001 58.7812C27.5022 60.2084 27.8298 61.6163 28.4582 62.8977C29.0865 64.1791 29.9989 65.3002 31.126 66.1758C32.253 67.0513 33.565 67.6581 34.962 67.95C36.359 68.242 37.8042 68.2113 39.1875 67.8604V74.25H14.9531C13.176 74.248 11.4721 73.5412 10.2155 72.2845C8.95883 71.0279 8.25198 69.324 8.25 67.5469V43.3125H16.4139C16.7971 43.3127 17.1729 43.2061 17.4989 43.0046C17.8249 42.8032 18.0884 42.5149 18.2598 42.1721C18.4311 41.8293 18.5035 41.4455 18.4689 41.0638C18.4343 40.6821 18.2941 40.3176 18.0639 40.0112C17.3971 39.1272 17.0298 38.0533 17.0156 36.9461C17.0139 35.548 17.5632 34.2055 18.5444 33.2095C19.5256 32.2135 20.8597 31.6443 22.2577 31.6251C23.6476 31.6265 24.9801 32.1793 25.963 33.162C26.9458 34.1448 27.4986 35.4773 27.5001 36.8672C27.5035 38.0014 27.1356 39.1055 26.4526 40.011C26.2224 40.3173 26.0821 40.6817 26.0474 41.0634C26.0127 41.445 26.085 41.8287 26.2563 42.1716C26.4275 42.5144 26.6908 42.8027 27.0168 43.0043C27.3427 43.2058 27.7184 43.3125 28.1016 43.3125H39.1875V49.7026C38.474 49.5218 37.7417 49.4253 37.0056 49.4152ZM43.3125 39.1875V32.7979C44.6958 33.1488 46.141 33.1795 47.538 32.8875C48.935 32.5956 50.247 31.9888 51.374 31.1133C52.5011 30.2377 53.4135 29.1166 54.0418 27.8352C54.6702 26.5538 54.9978 25.1459 54.9999 23.7188C54.9951 22.4784 54.7449 21.2512 54.2638 20.1079C53.7827 18.9646 53.0801 17.9278 52.1965 17.0572C51.313 16.1866 50.2659 15.4994 49.1157 15.0352C47.9654 14.571 46.7347 14.3389 45.4944 14.3524C44.7583 14.3626 44.026 14.4592 43.3125 14.6401V8.25H67.5469C69.324 8.25198 71.0279 8.95883 72.2845 10.2155C73.5412 11.4721 74.248 13.176 74.25 14.9531V39.1875H64.6251C64.2418 39.1873 63.866 39.2939 63.5399 39.4953C63.2138 39.6968 62.9503 39.9851 62.779 40.328C62.6076 40.6708 62.5352 41.0547 62.5699 41.4364C62.6045 41.8181 62.7448 42.1826 62.9751 42.489C63.6585 43.3944 64.0267 44.4985 64.0233 45.6328C64.0235 46.4635 63.8263 47.2823 63.4479 48.0217C63.0695 48.7612 62.5208 49.4002 61.847 49.886C61.1733 50.3718 60.3937 50.6905 59.5725 50.8159C58.7514 50.9413 57.9122 50.8697 57.1242 50.6071C56.3361 50.3446 55.6217 49.8985 55.0399 49.3056C54.4581 48.7128 54.0255 47.9901 53.7777 47.1973C53.53 46.4044 53.4742 45.5641 53.615 44.7454C53.7558 43.9268 54.0891 43.1533 54.5874 42.4888C54.8176 42.1824 54.9579 41.8179 54.9925 41.4362C55.0271 41.0545 54.9546 40.6707 54.7833 40.3279C54.6119 39.9851 54.3485 39.6968 54.0224 39.4954C53.6964 39.2939 53.3207 39.1873 52.9374 39.1875H43.3125Z" fill="#623E91"/>
<path d="M77.0038 61.0072C76.7757 60.1538 76.8328 59.2491 77.1665 58.4311C77.3103 58.0761 77.3524 57.6881 77.288 57.3105C77.2237 56.9329 77.0555 56.5807 76.8023 56.2934C76.5491 56.006 76.2208 55.7948 75.8543 55.6835C75.4879 55.5721 75.0976 55.5651 74.7273 55.663L65.2218 58.1767C64.9599 58.2459 64.7141 58.3661 64.4987 58.5303C64.2832 58.6945 64.1022 58.8996 63.966 59.1338C63.8298 59.368 63.7411 59.6267 63.7049 59.8952C63.6687 60.1637 63.6857 60.4367 63.7551 60.6986L65.4701 67.1769C64.9665 67.208 64.4669 67.2849 63.9773 67.4066C62.9276 67.6693 61.9402 68.137 61.0719 68.7827C60.2036 69.4284 59.4715 70.2394 58.9178 71.169C58.3641 72.0987 57.9997 73.1287 57.8455 74.1997C57.6913 75.2708 57.7504 76.3617 58.0194 77.4098C58.2884 78.4579 58.762 79.4425 59.4129 80.3069C60.0638 81.1713 60.8792 81.8985 61.8122 82.4466C62.7452 82.9947 63.7773 83.353 64.8493 83.5007C65.9212 83.6484 67.0118 83.5828 68.0582 83.3075C68.5848 83.1678 69.0963 82.9768 69.5855 82.7372L71.2987 89.2147C71.415 89.6548 71.6737 90.044 72.0344 90.3217C72.395 90.5994 72.8374 90.75 73.2926 90.75C73.4692 90.75 83.0292 88.2459 83.0292 88.2459L81.9742 84.2578L74.7593 86.1656L72.7742 78.654C72.676 78.2835 72.4766 77.9476 72.1982 77.6842C71.9198 77.4207 71.5736 77.24 71.1982 77.1624C70.8229 77.0847 70.4334 77.1132 70.0733 77.2446C69.7133 77.376 69.397 77.6052 69.1599 77.9063C68.6139 78.6001 67.8563 79.0967 67.0022 79.3207C66.482 79.4563 65.9401 79.488 65.4076 79.4137C64.8751 79.3394 64.3626 79.1607 63.8993 78.8879C63.4361 78.615 63.0313 78.2533 62.7082 77.8236C62.3851 77.3939 62.15 76.9046 62.0164 76.3839C61.8829 75.8631 61.8535 75.321 61.93 74.7889C62.0064 74.2567 62.1872 73.7449 62.462 73.2828C62.7368 72.8206 63.1001 72.4173 63.5312 72.096C63.9622 71.7746 64.4524 71.5416 64.9738 71.4102C65.811 71.201 66.693 71.2634 67.4923 71.5886C67.8474 71.7323 68.2354 71.7744 68.613 71.71C68.9905 71.6457 69.3427 71.4774 69.6301 71.2242C69.9174 70.9709 70.1286 70.6427 70.2399 70.2762C70.3512 69.9097 70.3582 69.5194 70.2602 69.1492L68.2704 61.6373L72.7548 60.4514C72.7885 60.9956 72.8759 61.5351 73.0157 62.0622C73.2941 63.1075 73.7764 64.0874 74.4348 64.9457C75.0932 65.804 75.9147 66.5237 76.8522 67.0634C77.7897 67.6031 78.8246 67.9521 79.8974 68.0905C80.9702 68.2289 82.0598 68.1539 83.1036 67.8697C84.1473 67.5856 85.1246 67.0979 85.9793 66.4348C86.8339 65.7717 87.549 64.9462 88.0836 64.0058C88.6181 63.0653 88.9615 62.0285 89.0939 60.9549C89.2264 59.8813 89.1454 58.7922 88.8555 57.75C88.7195 57.2635 88.5393 56.7904 88.3172 56.3367L92.7992 55.1507L97.9297 74.5449C98.0731 75.0844 98.1307 75.643 98.1004 76.2004L102.219 76.4283C102.273 75.4388 102.172 74.4469 101.917 73.4892L96.258 52.1011C96.1888 51.8392 96.0686 51.5936 95.9044 51.3782C95.7402 51.1628 95.5352 50.9818 95.301 50.8457C95.0669 50.7095 94.8082 50.6208 94.5398 50.5845C94.2714 50.5483 93.9985 50.5654 93.7366 50.6346L84.2311 53.1509C83.8604 53.2489 83.5243 53.4483 83.2606 53.7268C82.997 54.0052 82.8162 54.3517 82.7385 54.7272C82.6609 55.1027 82.6894 55.4924 82.821 55.8526C82.9526 56.2128 83.182 56.5292 83.4834 56.7662C84.1614 57.2971 84.6513 58.0315 84.881 58.8614C85.0258 59.38 85.0666 59.922 85.0011 60.4563C84.9356 60.9907 84.765 61.5068 84.4993 61.975C84.2335 62.4432 83.8778 62.8542 83.4526 63.1844C83.0274 63.5146 82.5411 63.7575 82.0217 63.899C81.5023 64.0405 80.9601 64.078 80.4261 64.0091C79.8922 63.9403 79.3771 63.7666 78.9106 63.4979C78.4441 63.2293 78.0353 62.871 77.7077 62.4438C77.3802 62.0166 77.1403 61.5288 77.002 61.0085L77.0038 61.0072Z" fill="#623E91"/>
<path d="M92.8125 115.5H68.0625V119.625H92.8125V115.5Z" fill="#623E91"/>
<path d="M123.807 87.0045L111.375 71.4641V26.8125C111.372 24.0784 110.284 21.4572 108.351 19.5239C106.418 17.5905 103.797 16.5031 101.062 16.5H82.5V24.75H90.75C91.133 24.75 91.5084 24.6433 91.8342 24.442C92.1601 24.2406 92.4233 23.9525 92.5946 23.61L94.0871 20.625H101.062C102.703 20.6269 104.276 21.2794 105.436 22.4394C106.596 23.5994 107.248 25.1721 107.25 26.8125V89.916L100.458 83.1634C99.727 82.4277 98.8569 81.8444 97.8985 81.4473C96.9401 81.0502 95.9124 80.8472 94.875 80.85C88.2443 80.85 84.5586 89.1706 88.9167 94.1531L98.479 105.34C94.6412 111.757 96.0068 119.609 97.1749 123.751H59.8125C58.1721 123.749 56.5994 123.096 55.4394 121.936C54.2794 120.776 53.6269 119.203 53.625 117.563V57.75H49.5V117.562C49.5031 120.297 50.5905 122.918 52.5239 124.851C54.4572 126.784 57.0784 127.872 59.8125 127.875H100.039C100.378 127.875 100.712 127.791 101.011 127.631C101.31 127.47 101.565 127.239 101.754 126.957C101.942 126.675 102.058 126.35 102.091 126.013C102.124 125.675 102.074 125.334 101.944 125.021C101.897 124.908 97.3196 113.615 102.712 106.425C102.994 106.05 103.139 105.59 103.124 105.121C103.109 104.653 102.935 104.203 102.63 103.847L92.0365 91.4538C89.9508 89.0131 91.6338 84.975 94.875 84.975C95.3714 84.9738 95.8631 85.0712 96.3215 85.2615C96.78 85.4518 97.1961 85.7312 97.5457 86.0836L114.042 102.52L116.958 99.6035L111.375 94.0206V78.0674L120.586 89.5813C122.631 92.1434 123.746 95.3228 123.75 98.6004V127.875H127.875V98.6004C127.87 94.3863 126.436 90.2986 123.807 87.0045Z" fill="#623E91"/>
<path d="M37.125 82.5H26.8125V86.625H37.125V82.5Z" fill="#623E91"/>
<path d="M37.9495 89.1003L29.6992 95.2874L32.1741 98.5875L40.4244 92.4004L37.9495 89.1003Z" fill="#623E91"/>
<path d="M45.375 94.875H41.25V105.188H45.375V94.875Z" fill="#623E91"/>
<path d="M101.062 51.5625H105.188C105.184 48.8284 104.097 46.2072 102.164 44.2739C100.23 42.3405 97.6091 41.2531 94.875 41.25V45.375C96.5154 45.3769 98.0881 46.0294 99.2481 47.1894C100.408 48.3494 101.061 49.9221 101.062 51.5625Z" fill="#623E91"/>
<path d="M72.1875 94.875C70.5471 94.8731 68.9744 94.2206 67.8144 93.0606C66.6544 91.9006 66.0019 90.3279 66 88.6875H61.875C61.8781 91.4216 62.9655 94.0428 64.8989 95.9761C66.8322 97.9095 69.4534 98.9969 72.1875 99V94.875Z" fill="#623E91"/>
</svg>
