<svg width="132" height="132" viewBox="0 0 132 132" fill="none" xmlns="http://www.w3.org/2000/svg">
<path d="M66.0011 126.72C70.8126 126.72 74.7131 122.82 74.7131 118.008C74.7131 113.197 70.8126 109.296 66.0011 109.296C61.1896 109.296 57.2891 113.197 57.2891 118.008C57.2891 122.82 61.1896 126.72 66.0011 126.72Z" stroke="#623E91" stroke-width="4.35" stroke-miterlimit="10" stroke-linecap="round" stroke-linejoin="round"/>
<path d="M118.009 126.72C122.82 126.72 126.721 122.82 126.721 118.008C126.721 113.197 122.82 109.296 118.009 109.296C113.197 109.296 109.297 113.197 109.297 118.008C109.297 122.82 113.197 126.72 118.009 126.72Z" stroke="#623E91" stroke-width="4.35" stroke-miterlimit="10" stroke-linecap="round" stroke-linejoin="round"/>
<path d="M13.9932 126.72C18.8048 126.72 22.7052 122.82 22.7052 118.008C22.7052 113.197 18.8048 109.296 13.9932 109.296C9.18175 109.296 5.28125 113.197 5.28125 118.008C5.28125 122.82 9.18175 126.72 13.9932 126.72Z" stroke="#623E91" stroke-width="4.35" stroke-miterlimit="10" stroke-linecap="round" stroke-linejoin="round"/>
<path d="M66 109.296V100.848" stroke="#623E91" stroke-width="4.35" stroke-miterlimit="10" stroke-linecap="round" stroke-linejoin="round"/>
<path d="M66 18.744V31.152" stroke="#623E91" stroke-width="4.35" stroke-miterlimit="10" stroke-linecap="round" stroke-linejoin="round"/>
<path d="M71.5422 68.112V83.952C71.5422 87.12 68.9022 89.496 65.9982 89.496C62.8302 89.496 60.4542 86.856 60.4542 83.952V68.112C55.1742 66 51.7422 60.72 51.7422 54.912C51.7422 49.632 54.6462 45.144 58.6062 42.504V54.648L65.9982 58.08L73.3902 54.648V42.504C77.0862 44.88 79.7262 48.84 80.2542 53.328C81.0462 59.928 77.0862 65.736 71.5422 68.112Z" stroke="#623E91" stroke-width="4.35" stroke-miterlimit="10" stroke-linecap="round" stroke-linejoin="round"/>
<path d="M66.0003 100.848C85.2464 100.848 100.848 85.246 100.848 66C100.848 46.754 85.2464 31.152 66.0003 31.152C46.7543 31.152 31.1523 46.754 31.1523 66C31.1523 85.246 46.7543 100.848 66.0003 100.848Z" stroke="#623E91" stroke-width="4.35" stroke-miterlimit="10" stroke-linecap="round" stroke-linejoin="round"/>
<path d="M5.28125 5.28H28.2493V18.744H5.28125V5.28Z" stroke="#623E91" stroke-width="4.35" stroke-miterlimit="10" stroke-linecap="round" stroke-linejoin="round"/>
<path d="M54.6484 5.28H77.6164V18.744H54.6484V5.28Z" stroke="#623E91" stroke-width="4.35" stroke-miterlimit="10" stroke-linecap="round" stroke-linejoin="round"/>
<path d="M103.754 5.28H126.722V18.744H103.754V5.28Z" stroke="#623E91" stroke-width="4.35" stroke-miterlimit="10" stroke-linecap="round" stroke-linejoin="round"/>
<path d="M115.371 18.744V40.92C115.371 45.408 111.939 48.84 107.451 48.84H96.3633" stroke="#623E91" stroke-width="4.35" stroke-miterlimit="10" stroke-linecap="round" stroke-linejoin="round"/>
<path d="M35.6408 48.84H24.5528C20.0648 48.84 16.6328 45.408 16.6328 40.92V18.744" stroke="#623E91" stroke-width="4.35" stroke-miterlimit="10" stroke-linecap="round" stroke-linejoin="round"/>
<path d="M13.9922 109.296V91.08C13.9922 86.592 17.4242 83.16 21.9122 83.16H35.6402" stroke="#623E91" stroke-width="4.35" stroke-miterlimit="10" stroke-linecap="round" stroke-linejoin="round"/>
<path d="M96.3633 83.16H110.091C114.579 83.16 118.011 86.592 118.011 91.08V109.296" stroke="#623E91" stroke-width="4.35" stroke-miterlimit="10" stroke-linecap="round" stroke-linejoin="round"/>
</svg>
