<svg width="137" height="137" viewBox="0 0 137 137" fill="none" xmlns="http://www.w3.org/2000/svg">
<path d="M63.9699 45.8437C68.0536 45.8572 71.985 44.2949 74.9456 41.4822C77.9061 38.6695 79.6676 34.8232 79.8633 30.7442C80.0589 26.6652 78.6736 22.668 75.9958 19.5849C73.318 16.5018 69.5541 14.5704 65.4879 14.193C64.3552 10.9776 62.059 8.30327 59.0521 6.69707C56.0452 5.09086 52.5457 4.66935 49.2434 5.51561C46.9584 3.34152 44.1447 1.80251 41.0815 1.05121C38.0182 0.299905 34.8118 0.362406 31.7802 1.23251C28.7485 2.10262 25.997 3.75011 23.7984 6.0116C21.5999 8.27308 20.0307 11.07 19.2465 14.125C15.0403 14.0469 10.9754 15.6429 7.94595 18.5618C4.9165 21.4808 3.1707 25.4837 3.09258 29.6898C3.01447 33.896 4.61045 37.9609 7.52942 40.9904C10.4484 44.0198 14.4513 45.7656 18.6574 45.8437H39.048V64.082C32.2584 64.6545 25.9306 67.7538 21.3159 72.767C16.7012 77.7802 14.1356 84.3425 14.1262 91.1562C14.1266 95.3937 15.1581 99.5674 17.1316 103.317C19.1052 107.067 21.9616 110.28 25.4543 112.68V120.609C25.4543 121.21 25.693 121.787 26.1179 122.211C26.5428 122.636 27.119 122.875 27.7199 122.875H29.9855V125.141C29.9855 128.145 31.179 131.026 33.3035 133.151C35.4279 135.275 38.3093 136.469 41.3137 136.469C44.3181 136.469 47.1994 135.275 49.3239 133.151C51.4483 131.026 52.6418 128.145 52.6418 125.141V122.875H54.9074C55.5083 122.875 56.0846 122.636 56.5095 122.211C56.9344 121.787 57.173 121.21 57.173 120.609V112.68C60.6657 110.28 63.5221 107.067 65.4957 103.317C67.4693 99.5674 68.5008 95.3937 68.5012 91.1562C68.4918 84.3425 65.9261 77.7802 61.3114 72.767C56.6967 67.7538 50.369 64.6545 43.5793 64.082V45.8437H63.9699ZM48.1105 125.141C48.1105 126.943 47.3945 128.672 46.1198 129.947C44.8451 131.221 43.1163 131.938 41.3137 131.938C39.511 131.938 37.7822 131.221 36.5076 129.947C35.2329 128.672 34.5168 126.943 34.5168 125.141V122.875H48.1105V125.141ZM52.6418 118.344H29.9855V113.813H52.6418V118.344ZM63.9699 91.1562C63.9589 94.7526 63.0571 98.2902 61.3452 101.453C59.6334 104.616 57.1647 107.305 54.1598 109.281H43.5793V95.6875H50.3762V91.1562H32.2512V95.6875H39.048V109.281H28.4676C25.4627 107.305 22.994 104.616 21.2821 101.453C19.5702 98.2902 18.6685 94.7526 18.6574 91.1562C18.6574 85.1474 21.0444 79.3847 25.2933 75.1359C29.5422 70.887 35.3049 68.5 41.3137 68.5C47.3225 68.5 53.0852 70.887 57.3341 75.1359C61.5829 79.3847 63.9699 85.1474 63.9699 91.1562ZM18.6574 41.3125C15.653 41.3125 12.7717 40.119 10.6472 37.9946C8.5228 35.8701 7.3293 32.9888 7.3293 29.9844C7.3293 26.98 8.5228 24.0986 10.6472 21.9742C12.7717 19.8497 15.653 18.6562 18.6574 18.6562C19.3332 18.6644 20.0074 18.725 20.6738 18.8375C20.9755 18.8949 21.2858 18.8903 21.5857 18.8241C21.8856 18.7579 22.1689 18.6314 22.4184 18.4523C22.91 18.0768 23.2352 17.5239 23.3246 16.9117C23.6528 14.3287 24.7178 11.8949 26.3924 9.90104C28.0669 7.90722 30.2802 6.43778 32.7677 5.66836C35.2552 4.89894 37.9116 4.86209 40.4195 5.56221C42.9273 6.26232 45.1805 7.6698 46.9098 9.6164C47.2146 9.95838 47.616 10.1999 48.0609 10.3091C48.5058 10.4183 48.9734 10.3901 49.402 10.2281C50.6277 9.74999 51.9431 9.54573 53.2561 9.62967C54.5691 9.71361 55.8478 10.0837 57.0027 10.714C58.1575 11.3443 59.1606 12.2196 59.9414 13.2785C60.7223 14.3374 61.2621 15.5542 61.523 16.8437C61.6227 17.3579 61.8994 17.8208 62.3051 18.1519C62.7108 18.4831 63.2197 18.6616 63.7434 18.6562H64.0152C67.0196 18.6623 69.8986 19.8615 72.0188 21.9902C74.139 24.1189 75.3267 27.0026 75.3207 30.007C75.3147 33.0114 74.1154 35.8904 71.9868 38.0106C69.8581 40.1308 66.9743 41.3185 63.9699 41.3125H18.6574Z" fill="#623E91"/>
<path d="M54.9076 91.1562H59.4388C59.4369 88.2344 58.7296 85.3563 57.3771 82.7663C56.0245 80.1764 54.0667 77.9513 51.67 76.2802L49.0781 79.9958C50.8764 81.2494 52.3454 82.9187 53.3603 84.8617C54.3753 86.8048 54.906 88.9641 54.9076 91.1562Z" fill="#623E91"/>
<path d="M46.4827 73.7812C44.8047 73.282 43.0631 73.0294 41.3125 73.0313V77.5625C42.6249 77.5609 43.9306 77.7494 45.189 78.1221L46.4827 73.7812Z" fill="#623E91"/>
<path d="M10.8633 63.9228L14.0674 60.7187L20.4755 67.1269L17.2714 70.3309L10.8633 63.9228Z" fill="#623E91"/>
<path d="M0.53125 88.8906H9.59375V93.4219H0.53125V88.8906Z" fill="#623E91"/>
<path d="M73.0312 88.8906H82.0938V93.4219H73.0312V88.8906Z" fill="#623E91"/>
<path d="M62.125 67.1173L68.5332 60.7092L71.7372 63.9132L65.3291 70.3214L62.125 67.1173Z" fill="#623E91"/>
<path d="M9.59375 29.9844C9.59375 32.3879 10.5485 34.693 12.2481 36.3925C13.9476 38.0921 16.2527 39.0469 18.6562 39.0469V34.5156C17.4545 34.5156 16.3019 34.0382 15.4522 33.1885C14.6024 32.3387 14.125 31.1861 14.125 29.9844C14.125 28.7826 14.6024 27.6301 15.4522 26.7803C16.3019 25.9305 17.4545 25.4531 18.6562 25.4531V20.9219C16.2527 20.9219 13.9476 21.8767 12.2481 23.5762C10.5485 25.2758 9.59375 27.5809 9.59375 29.9844Z" fill="#623E91"/>
<path d="M23.1875 34.5156H27.7188V39.0469H23.1875V34.5156Z" fill="#623E91"/>
<path d="M59.4375 127.406H63.9688V131.938H59.4375V127.406Z" fill="#623E91"/>
<path d="M113.812 73.0312H118.344V77.5625H113.812V73.0312Z" fill="#623E91"/>
<path d="M113.812 82.0938H118.344V86.625H113.812V82.0938Z" fill="#623E91"/>
<path d="M113.812 54.9062H118.344V59.4375H113.812V54.9062Z" fill="#623E91"/>
<path d="M113.812 63.9688H118.344V68.5H113.812V63.9688Z" fill="#623E91"/>
<path d="M113.812 91.1562H118.344V95.6875H113.812V91.1562Z" fill="#623E91"/>
<path d="M113.812 100.219H118.344V104.75H113.812V100.219Z" fill="#623E91"/>
<path d="M113.812 109.281H118.344V113.812H113.812V109.281Z" fill="#623E91"/>
<path d="M113.812 118.344H118.344V122.875H113.812V118.344Z" fill="#623E91"/>
<path d="M113.812 127.406H118.344V131.938H113.812V127.406Z" fill="#623E91"/>
<path d="M104.75 127.406H109.281V131.938H104.75V127.406Z" fill="#623E91"/>
<path d="M95.6875 127.406H100.219V131.938H95.6875V127.406Z" fill="#623E91"/>
<path d="M68.5 127.406H73.0312V131.938H68.5V127.406Z" fill="#623E91"/>
<path d="M86.625 127.406H91.1562V131.938H86.625V127.406Z" fill="#623E91"/>
<path d="M77.5625 127.406H82.0938V131.938H77.5625V127.406Z" fill="#623E91"/>
<path d="M135.696 16.9502L117.571 1.09085C117.158 0.728859 116.627 0.529297 116.078 0.529297C115.529 0.529297 114.998 0.728859 114.585 1.09085L96.4601 16.9502C96.2178 17.1636 96.0237 17.4261 95.8905 17.7202C95.7573 18.0143 95.6881 18.3334 95.6875 18.6562V29.9844C95.6872 30.4151 95.8097 30.8369 96.0406 31.2005C96.2716 31.564 96.6013 31.8542 96.9913 32.0371C97.3812 32.2199 97.8152 32.2879 98.2424 32.2329C98.6695 32.1779 99.0722 32.0023 99.4031 31.7266L109.281 23.4933V48.1094C109.281 48.7102 109.52 49.2865 109.945 49.7114C110.37 50.1363 110.946 50.375 111.547 50.375H120.609C121.21 50.375 121.787 50.1363 122.211 49.7114C122.636 49.2865 122.875 48.7102 122.875 48.1094V23.4933L132.753 31.7266C133.084 32.0023 133.487 32.1779 133.914 32.2329C134.341 32.2879 134.775 32.2199 135.165 32.0371C135.555 31.8542 135.885 31.564 136.116 31.2005C136.347 30.8369 136.469 30.4151 136.469 29.9844V18.6562C136.468 18.3334 136.399 18.0143 136.266 17.7202C136.133 17.4261 135.938 17.1636 135.696 16.9502ZM131.938 25.1473L122.059 16.914C121.728 16.6383 121.326 16.4627 120.899 16.4077C120.471 16.3528 120.037 16.4207 119.648 16.6035C119.258 16.7864 118.928 17.0766 118.697 17.4401C118.466 17.8037 118.343 18.2255 118.344 18.6562V45.8437H113.812V18.6562C113.813 18.2255 113.69 17.8037 113.459 17.4401C113.228 17.0766 112.899 16.7864 112.509 16.6035C112.119 16.4207 111.685 16.3528 111.258 16.4077C110.83 16.4627 110.428 16.6383 110.097 16.914L100.219 25.1473V19.6848L116.078 5.80788L131.938 19.6848V25.1473Z" fill="#623E91"/>
</svg>
