<svg width="32" height="33" viewBox="0 0 32 33" fill="none" xmlns="http://www.w3.org/2000/svg">
<path d="M11.52 8.72058C11.52 9.10104 11.4074 9.47296 11.1964 9.7893C10.9854 10.1056 10.6856 10.3522 10.3348 10.4978C9.98392 10.6434 9.59787 10.6815 9.22543 10.6073C8.85298 10.533 8.51087 10.3498 8.24235 10.0808C7.97384 9.81178 7.79098 9.46902 7.71689 9.09586C7.64281 8.72271 7.68083 8.33593 7.82615 7.98443C7.97147 7.63293 8.21756 7.3325 8.53331 7.12112C8.84905 6.90975 9.22026 6.79693 9.6 6.79693C10.1092 6.79693 10.5976 6.9996 10.9576 7.36035C11.3177 7.72111 11.52 8.21039 11.52 8.72058ZM32 2.94963V29.8807C32 30.561 31.7303 31.2133 31.2502 31.6944C30.7701 32.1754 30.119 32.4456 29.44 32.4456H2.56C1.88105 32.4456 1.2299 32.1754 0.749807 31.6944C0.269713 31.2133 0 30.561 0 29.8807V2.94963C0 2.26939 0.269713 1.617 0.749807 1.136C1.2299 0.654992 1.88105 0.384766 2.56 0.384766H29.44C30.119 0.384766 30.7701 0.654992 31.2502 1.136C31.7303 1.617 32 2.26939 32 2.94963ZM29.44 29.8807V2.94963H2.56V29.8807H29.44ZM9.6 12.5679C9.26052 12.5679 8.93495 12.703 8.6949 12.9435C8.45486 13.184 8.32 13.5102 8.32 13.8503V24.1098C8.32 24.4499 8.45486 24.7761 8.6949 25.0166C8.93495 25.2571 9.26052 25.3922 9.6 25.3922C9.93948 25.3922 10.265 25.2571 10.5051 25.0166C10.7451 24.7761 10.88 24.4499 10.88 24.1098V13.8503C10.88 13.5102 10.7451 13.184 10.5051 12.9435C10.265 12.703 9.93948 12.5679 9.6 12.5679ZM19.2 12.5679C18.0477 12.5678 16.9219 12.914 15.968 13.5618C15.898 13.254 15.7172 12.983 15.4602 12.8005C15.2032 12.6179 14.8881 12.5368 14.5751 12.5725C14.2621 12.6082 13.9733 12.7583 13.7638 12.9941C13.5544 13.2299 13.4391 13.5347 13.44 13.8503V24.1098C13.44 24.4499 13.5749 24.7761 13.8149 25.0166C14.0549 25.2571 14.3805 25.3922 14.72 25.3922C15.0595 25.3922 15.385 25.2571 15.6251 25.0166C15.8651 24.7761 16 24.4499 16 24.1098V18.3388C16 17.4885 16.3371 16.673 16.9373 16.0718C17.5374 15.4705 18.3513 15.1327 19.2 15.1327C20.0487 15.1327 20.8626 15.4705 21.4627 16.0718C22.0629 16.673 22.4 17.4885 22.4 18.3388V24.1098C22.4 24.4499 22.5349 24.7761 22.7749 25.0166C23.0149 25.2571 23.3405 25.3922 23.68 25.3922C24.0195 25.3922 24.3451 25.2571 24.5851 25.0166C24.8251 24.7761 24.96 24.4499 24.96 24.1098V18.3388C24.96 16.8083 24.3531 15.3404 23.2729 14.2581C22.1927 13.1759 20.7276 12.5679 19.2 12.5679Z" fill="white"/>
</svg>
