<svg width="94" height="90" viewBox="0 0 94 90" fill="none" xmlns="http://www.w3.org/2000/svg">
<path d="M46.7886 74.836C46.148 74.836 45.5075 74.6203 45.0076 74.19C43.8854 73.2223 17.5234 50.2258 17.5234 26.6528C17.5234 11.9563 30.6518 0 46.7886 0C62.9253 0 76.0537 11.9563 76.0537 26.6528C76.0537 50.2258 49.6917 73.2223 48.5695 74.19C48.0696 74.6203 47.4291 74.836 46.7886 74.836ZM46.7886 4.71837C33.5084 4.71837 22.7044 14.5583 22.7044 26.6528C22.7044 44.8485 40.9367 63.5856 46.7875 69.1288C52.6373 63.5801 70.8728 44.8227 70.8728 26.6528C70.8728 14.5583 60.0687 4.71837 46.7886 4.71837ZM46.7886 41.3263C37.899 41.3263 30.667 34.7436 30.667 26.6528C30.667 18.5569 37.899 11.9701 46.7886 11.9701C55.6781 11.9701 62.9101 18.5569 62.9101 26.6528C62.9101 34.7436 55.6781 41.3263 46.7886 41.3263ZM46.7886 16.6885C40.7556 16.6885 35.8479 21.1585 35.8479 26.6528C35.8479 32.1421 40.7556 36.6079 46.7886 36.6079C52.8215 36.6079 57.7292 32.1421 57.7292 26.6528C57.7292 21.1585 52.8215 16.6885 46.7886 16.6885Z" fill="#623E91"/>
<path d="M46.7856 89.649C24.1807 89.649 0.15625 83.6303 0.15625 72.4767C0.15625 64.5817 13.1713 58.1124 33.3141 55.9956C34.745 55.8408 36.022 56.7752 36.1849 58.0682C36.3488 59.3629 35.3298 60.5333 33.9091 60.6826C15.3509 62.6336 5.33717 68.2154 5.33717 72.4767C5.33717 78.3553 23.0626 84.9306 46.7856 84.9306C70.5085 84.9306 88.2339 78.3553 88.2339 72.4767C88.2339 68.2154 78.2202 62.6336 59.662 60.6826C58.2413 60.5333 57.2223 59.3629 57.3862 58.0682C57.5491 56.7752 58.8271 55.8389 60.257 55.9956C80.3998 58.1124 93.4149 64.5817 93.4149 72.4767C93.4149 83.6303 69.3904 89.649 46.7856 89.649Z" fill="#623E91"/>
</svg>
