<svg width="415" height="65" viewBox="0 0 415 65" fill="none" xmlns="http://www.w3.org/2000/svg">
<g clip-path="url(#clip0_145_7938)">
<mask id="mask0_145_7938" style="mask-type:luminance" maskUnits="userSpaceOnUse" x="11" y="45" width="34" height="20">
<path d="M18.2173 54.1257C19.0489 54.9778 24.8267 60.3455 19.0853 65H36.5235C30.7571 60.2088 36.6032 54.9801 37.4371 54.1257C39.0023 52.5218 44.3791 47.2862 44.3791 47.2862L44.2993 45.3565L42.4083 45.2791C42.4083 45.2791 31.5636 54.8297 30.0394 55.8458C30.0394 55.8458 29.6658 55.9051 29.4903 55.2375C29.3149 54.5723 29.021 54.2214 29.2557 53.6313C29.4903 53.0458 30.6842 51.1867 30.7639 49.4438C30.8414 47.7146 30.7229 45.9124 27.8272 45.9238C24.9315 45.9124 24.8153 47.7168 24.8927 49.4438C24.9702 51.1867 26.164 53.0458 26.3987 53.6313C26.6334 54.2214 26.3395 54.5723 26.164 55.2375C25.9886 55.9028 25.6172 55.8458 25.6172 55.8458C24.0908 54.8274 13.246 45.2791 13.246 45.2791L11.3551 45.3565L11.2776 47.2862C11.2776 47.2862 16.6544 52.5195 18.2196 54.1257" fill="white"/>
</mask>
<g mask="url(#mask0_145_7938)">
<path d="M44.3813 45.2814H11.2776V65.0001H44.3813V45.2814Z" fill="url(#paint0_linear_145_7938)"/>
</g>
<mask id="mask1_145_7938" style="mask-type:luminance" maskUnits="userSpaceOnUse" x="5" y="25" width="14" height="13">
<path d="M17.23 25.9399L5.01611 35.4893L6.36608 37.2159L18.58 27.6665L17.23 25.9399Z" fill="white"/>
</mask>
<g mask="url(#mask1_145_7938)">
<path d="M18.5793 25.9385H5.0166V37.2161H18.5793V25.9385Z" fill="url(#paint1_linear_145_7938)"/>
</g>
<mask id="mask2_145_7938" style="mask-type:luminance" maskUnits="userSpaceOnUse" x="3" y="10" width="16" height="14">
<path d="M5.05532 10.4531L3.66357 12.1462L17.2843 23.3424L18.6761 21.6493L5.05532 10.4531Z" fill="white"/>
</mask>
<g mask="url(#mask2_145_7938)">
<path d="M18.6774 10.4528H3.66333V23.3411H18.6774V10.4528Z" fill="url(#paint2_linear_145_7938)"/>
</g>
<mask id="mask3_145_7938" style="mask-type:luminance" maskUnits="userSpaceOnUse" x="9" y="3" width="18" height="16">
<path d="M10.6971 3.48049L9.30591 5.17114L25.1111 18.1768L26.5023 16.4861L10.6971 3.48049Z" fill="white"/>
</mask>
<g mask="url(#mask3_145_7938)">
<path d="M26.5082 3.48584H9.30249V18.1718H26.5082V3.48584Z" fill="url(#paint3_linear_145_7938)"/>
</g>
<mask id="mask4_145_7938" style="mask-type:luminance" maskUnits="userSpaceOnUse" x="0" y="7" width="8" height="8">
<path d="M7.9034 11.3597C7.9034 13.3167 6.3177 14.9024 4.36063 14.9024C2.40357 14.9024 0.817871 13.3167 0.817871 11.3597C0.817871 9.40259 2.40357 7.81689 4.36063 7.81689C6.3177 7.81689 7.9034 9.40032 7.9034 11.3597Z" fill="white"/>
</mask>
<g mask="url(#mask4_145_7938)">
<path d="M7.9034 7.81689H0.817871V14.9024H7.9034V7.81689Z" fill="url(#paint4_linear_145_7938)"/>
</g>
<mask id="mask5_145_7938" style="mask-type:luminance" maskUnits="userSpaceOnUse" x="1" y="33" width="8" height="8">
<path d="M8.11067 37.4554C8.11067 39.4124 6.52497 40.9981 4.56791 40.9981C2.61085 40.9981 1.02515 39.4124 1.02515 37.4554C1.02515 35.4983 2.61085 33.9126 4.56791 33.9126C6.52497 33.9126 8.11067 35.4983 8.11067 37.4554Z" fill="white"/>
</mask>
<g mask="url(#mask5_145_7938)">
<path d="M8.11287 33.9149H1.02734V41.0004H8.11287V33.9149Z" fill="url(#paint5_linear_145_7938)"/>
</g>
<mask id="mask6_145_7938" style="mask-type:luminance" maskUnits="userSpaceOnUse" x="6" y="41" width="8" height="8">
<path d="M13.8544 44.6068C13.8544 46.5639 12.2687 48.1496 10.3116 48.1496C8.35458 48.1496 6.7666 46.5616 6.7666 44.6068C6.7666 42.6521 8.35458 41.0641 10.3116 41.0641C12.2687 41.0641 13.8544 42.6521 13.8544 44.6068Z" fill="white"/>
</mask>
<g mask="url(#mask6_145_7938)">
<path d="M13.8544 41.0641H6.7666V48.1496H13.8544V41.0641Z" fill="url(#paint6_linear_145_7938)"/>
</g>
<mask id="mask7_145_7938" style="mask-type:luminance" maskUnits="userSpaceOnUse" x="6" y="0" width="8" height="8">
<path d="M13.7359 4.19441C13.7359 6.15148 12.1502 7.73718 10.1932 7.73718C8.23609 7.73718 6.65039 6.15148 6.65039 4.19441C6.65039 2.23735 8.23609 0.653931 10.1932 0.653931C12.1502 0.653931 13.7359 2.23735 13.7359 4.19441Z" fill="white"/>
</mask>
<g mask="url(#mask7_145_7938)">
<path d="M13.7359 0.653931H6.65039V7.7349H13.7359V0.653931Z" fill="url(#paint7_linear_145_7938)"/>
</g>
<mask id="mask8_145_7938" style="mask-type:luminance" maskUnits="userSpaceOnUse" x="11" y="35" width="12" height="9">
<path d="M19.0147 35.9995L11.4211 42.1532L12.8018 43.8597L22.496 35.9995H19.0147Z" fill="white"/>
</mask>
<g mask="url(#mask8_145_7938)">
<path d="M22.496 35.9995H11.4211V43.8597H22.496V35.9995Z" fill="url(#paint8_linear_145_7938)"/>
</g>
<mask id="mask9_145_7938" style="mask-type:luminance" maskUnits="userSpaceOnUse" x="32" y="35" width="12" height="9">
<path d="M36.3594 35.9995H32.8782L42.5724 43.8597L43.953 42.1532L36.3594 35.9995Z" fill="white"/>
</mask>
<g mask="url(#mask9_145_7938)">
<path d="M43.953 35.9995H32.8782V43.8597H43.953V35.9995Z" fill="url(#paint9_linear_145_7938)"/>
</g>
<mask id="mask10_145_7938" style="mask-type:luminance" maskUnits="userSpaceOnUse" x="18" y="33" width="19" height="5">
<path d="M33.8237 33.9468C33.3088 34.4867 32.721 34.9583 32.0785 35.3525L35.1497 37.8404C35.7375 37.3916 36.2843 36.8881 36.781 36.3436L33.8237 33.9468ZM18.5545 36.3777C19.0558 36.9222 19.6048 37.4212 20.1926 37.8723L23.2683 35.3776C22.6213 34.9902 22.0312 34.5186 21.5118 33.9787L18.5522 36.38L18.5545 36.3777Z" fill="white"/>
</mask>
<g mask="url(#mask10_145_7938)">
<path d="M36.781 33.9468H18.5522V37.87H36.781V33.9468Z" fill="url(#paint10_linear_145_7938)"/>
</g>
<mask id="mask11_145_7938" style="mask-type:luminance" maskUnits="userSpaceOnUse" x="36" y="36" width="1" height="1">
<path d="M36.6785 36.4506C36.7126 36.4141 36.7468 36.3777 36.781 36.3435H36.7764C36.7445 36.3777 36.7126 36.4141 36.6785 36.4506Z" fill="white"/>
</mask>
<g mask="url(#mask11_145_7938)">
<path d="M36.781 36.3412H36.6785V36.4528H36.781V36.3412Z" fill="url(#paint11_linear_145_7938)"/>
</g>
<mask id="mask12_145_7938" style="mask-type:luminance" maskUnits="userSpaceOnUse" x="15" y="15" width="25" height="22">
<path d="M27.6517 15.7225C20.8419 15.7225 15.3215 21.2451 15.3215 28.055C15.3215 31.2628 16.5473 34.1813 18.5522 36.3776L21.5117 33.9763C20.0308 32.4407 19.1172 30.3561 19.1172 28.055C19.1172 23.3412 22.9379 19.5205 27.6517 19.5205C32.3655 19.5205 36.1862 23.3412 36.1862 28.055C36.1862 30.3401 35.2863 32.4157 33.8214 33.949L36.7763 36.3412C38.7676 34.1517 39.9819 31.2469 39.9819 28.055C39.9819 21.2451 34.4616 15.7225 27.6517 15.7225Z" fill="white"/>
</mask>
<g mask="url(#mask12_145_7938)">
<path d="M39.9819 15.7225H15.3215V36.3776H39.9819V15.7225Z" fill="url(#paint12_linear_145_7938)"/>
</g>
<mask id="mask13_145_7938" style="mask-type:luminance" maskUnits="userSpaceOnUse" x="35" y="37" width="1" height="1">
<path d="M35.9949 37.1318C35.7261 37.3779 35.4458 37.6148 35.1565 37.8381C35.4458 37.6148 35.7261 37.3802 35.9949 37.1318Z" fill="white"/>
</mask>
<g mask="url(#mask13_145_7938)">
<path d="M35.9949 37.1318H35.1565V37.8381H35.9949V37.1318Z" fill="url(#paint13_linear_145_7938)"/>
</g>
<mask id="mask14_145_7938" style="mask-type:luminance" maskUnits="userSpaceOnUse" x="19" y="37" width="1" height="1">
<path d="M19.8531 37.5966C19.7733 37.5328 19.6959 37.4667 19.6184 37.403C19.6936 37.469 19.7711 37.5351 19.8531 37.5966Z" fill="white"/>
</mask>
<g mask="url(#mask14_145_7938)">
<path d="M19.8531 37.403H19.6184V37.5966H19.8531V37.403Z" fill="url(#paint14_linear_145_7938)"/>
</g>
<mask id="mask15_145_7938" style="mask-type:luminance" maskUnits="userSpaceOnUse" x="20" y="37" width="1" height="1">
<path d="M20.1904 37.87C20.1517 37.8381 20.1129 37.8108 20.0742 37.7766C20.1129 37.8085 20.1494 37.8404 20.1881 37.87" fill="white"/>
</mask>
<g mask="url(#mask15_145_7938)">
<path d="M20.1951 37.7766H20.0789V37.87H20.1951V37.7766Z" fill="url(#paint15_linear_145_7938)"/>
</g>
<mask id="mask16_145_7938" style="mask-type:luminance" maskUnits="userSpaceOnUse" x="19" y="37" width="2" height="1">
<path d="M20.0786 37.7765C20.0011 37.7196 19.9259 37.6604 19.853 37.5966C19.9259 37.6604 20.0011 37.7173 20.0786 37.7765Z" fill="white"/>
</mask>
<g mask="url(#mask16_145_7938)">
<path d="M20.0786 37.5966H19.853V37.7765H20.0786V37.5966Z" fill="url(#paint16_linear_145_7938)"/>
</g>
<mask id="mask17_145_7938" style="mask-type:luminance" maskUnits="userSpaceOnUse" x="19" y="36" width="1" height="2">
<path d="M19.4088 37.2229C19.3245 37.1432 19.2402 37.0635 19.1582 36.9883C19.2402 37.0657 19.3245 37.1455 19.4088 37.2229Z" fill="white"/>
</mask>
<g mask="url(#mask17_145_7938)">
<path d="M19.4088 36.986H19.1582V37.2206H19.4088V36.986Z" fill="url(#paint17_linear_145_7938)"/>
</g>
<mask id="mask18_145_7938" style="mask-type:luminance" maskUnits="userSpaceOnUse" x="18" y="36" width="2" height="1">
<path d="M19.1583 36.986C19.1013 36.9313 19.0421 36.8789 18.9851 36.8242C19.0421 36.8812 19.1013 36.9313 19.1583 36.986Z" fill="white"/>
</mask>
<g mask="url(#mask18_145_7938)">
<path d="M19.1605 36.8242H18.9873V36.986H19.1605V36.8242Z" fill="url(#paint18_linear_145_7938)"/>
</g>
<mask id="mask19_145_7938" style="mask-type:luminance" maskUnits="userSpaceOnUse" x="36" y="25" width="15" height="13">
<path d="M38.1424 25.9374L36.7925 27.6641L49.0064 37.2135L50.3563 35.4868L38.1424 25.9374Z" fill="white"/>
</mask>
<g mask="url(#mask19_145_7938)">
<path d="M50.3572 25.9385H36.7944V37.2161H50.3572V25.9385Z" fill="url(#paint19_linear_145_7938)"/>
</g>
<mask id="mask20_145_7938" style="mask-type:luminance" maskUnits="userSpaceOnUse" x="36" y="10" width="16" height="14">
<path d="M51.7084 12.1479L50.3186 10.4529L36.6943 21.6485L38.0887 23.3412L51.7084 12.1479Z" fill="white"/>
</mask>
<g mask="url(#mask20_145_7938)">
<path d="M51.7106 10.4529H36.6943V23.3412H51.7106V10.4529Z" fill="url(#paint20_linear_145_7938)"/>
</g>
<mask id="mask21_145_7938" style="mask-type:luminance" maskUnits="userSpaceOnUse" x="28" y="3" width="19" height="16">
<path d="M44.6742 3.47859L28.8735 16.4897L30.2653 18.1799L46.066 5.16875L44.6742 3.47859Z" fill="white"/>
</mask>
<g mask="url(#mask21_145_7938)">
<path d="M46.072 3.48584H28.8662V18.1718H46.072V3.48584Z" fill="url(#paint21_linear_145_7938)"/>
</g>
<mask id="mask22_145_7938" style="mask-type:luminance" maskUnits="userSpaceOnUse" x="47" y="7" width="8" height="8">
<path d="M47.4707 11.3597C47.4707 13.3167 49.0587 14.9024 51.0112 14.9024C52.9637 14.9024 54.5562 13.3167 54.5562 11.3597C54.5562 9.40259 52.9705 7.81689 51.0112 7.81689C49.0518 7.81689 47.4707 9.40032 47.4707 11.3597Z" fill="white"/>
</mask>
<g mask="url(#mask22_145_7938)">
<path d="M54.5562 7.81689H47.4707V14.9024H54.5562V7.81689Z" fill="url(#paint22_linear_145_7938)"/>
</g>
<mask id="mask23_145_7938" style="mask-type:luminance" maskUnits="userSpaceOnUse" x="47" y="33" width="8" height="8">
<path d="M47.2612 37.4554C47.2612 39.4124 48.8469 40.9981 50.804 40.9981C52.7611 40.9981 54.3468 39.4124 54.3468 37.4554C54.3468 35.4983 52.7611 33.9126 50.804 33.9126C48.8469 33.9126 47.2612 35.4983 47.2612 37.4554Z" fill="white"/>
</mask>
<g mask="url(#mask23_145_7938)">
<path d="M54.3468 33.9149H47.2612V41.0004H54.3468V33.9149Z" fill="url(#paint23_linear_145_7938)"/>
</g>
<mask id="mask24_145_7938" style="mask-type:luminance" maskUnits="userSpaceOnUse" x="41" y="41" width="8" height="8">
<path d="M41.522 44.6068C41.522 46.5639 43.1077 48.1496 45.0625 48.1496C47.0172 48.1496 48.6075 46.5616 48.6075 44.6068C48.6075 42.6521 47.0218 41.0641 45.0625 41.0641C43.1031 41.0641 41.522 42.6521 41.522 44.6068Z" fill="white"/>
</mask>
<g mask="url(#mask24_145_7938)">
<path d="M48.6075 41.0641H41.522V48.1496H48.6075V41.0641Z" fill="url(#paint24_linear_145_7938)"/>
</g>
<mask id="mask25_145_7938" style="mask-type:luminance" maskUnits="userSpaceOnUse" x="41" y="0" width="8" height="8">
<path d="M41.636 4.19441C41.636 6.15148 43.224 7.73718 45.1787 7.73718C47.1335 7.73718 48.7215 6.15148 48.7215 4.19441C48.7215 2.23735 47.1358 0.653931 45.1787 0.653931C43.2217 0.653931 41.636 2.23735 41.636 4.19441Z" fill="white"/>
</mask>
<g mask="url(#mask25_145_7938)">
<path d="M48.7215 0.653931H41.636V7.7349H48.7215V0.653931Z" fill="url(#paint25_linear_145_7938)"/>
</g>
<path d="M4.51788 19.7803C2.02313 19.7826 0.0022783 21.7988 0 24.2936C0.00455661 26.7883 2.02313 28.8046 4.51788 28.8092C7.01262 28.8046 9.02892 26.7883 9.03347 24.2936C9.02892 21.7988 7.01262 19.7826 4.51788 19.7803Z" fill="#231F20"/>
<path d="M27.6928 0C25.1981 0.00455661 23.1818 2.01858 23.1772 4.51332C23.1818 7.00351 25.1981 9.02436 27.6928 9.02664C30.1853 9.02208 32.2039 7.00351 32.2062 4.51332C32.2016 2.01858 30.183 0.00455661 27.6928 0Z" fill="#231F20"/>
<path d="M50.8539 19.7803C48.3592 19.7826 46.3451 21.7988 46.3406 24.2936C46.3451 26.7883 48.3614 28.8046 50.8539 28.8092C53.3486 28.8046 55.3649 26.7883 55.3672 24.2936C55.3627 21.7988 53.3486 19.7826 50.8539 19.7803Z" fill="#231F20"/>
<path d="M100.997 50.2708C100.311 50.2708 99.6324 50.1592 98.9649 49.9359C98.2973 49.7126 97.55 49.2069 96.7276 48.4186L75.6396 29.4927V49.7058H65.9705V21.1609C65.9705 20.0286 66.1322 19.0535 66.458 18.2288C66.7838 17.4063 67.2121 16.7388 67.7453 16.2239C68.2761 15.709 68.8935 15.333 69.5975 15.0915C70.2992 14.8523 71.0283 14.7316 71.7824 14.7316C72.434 14.7316 73.0947 14.8432 73.7623 15.0665C74.4298 15.2898 75.193 15.7955 76.0497 16.5838L97.1377 35.512V15.2989H106.859V43.7936C106.859 44.9236 106.695 45.901 106.369 46.7258C106.044 47.5483 105.615 48.2272 105.084 48.758C104.551 49.2889 103.927 49.6762 103.207 49.9154C102.487 50.1546 101.749 50.2754 100.997 50.2754" fill="#231F20"/>
<path d="M153.098 40.8568L146.258 49.7035H113.134V15.2965H152.995L146.103 24.2457H123.833V28.3603H151.093L144.973 36.1772H123.833V40.8568H153.098Z" fill="#231F20"/>
<path d="M205.61 15.2966L194.758 25.2232C193.558 26.3213 192.546 27.2372 191.724 27.9753C190.901 28.7112 190.197 29.3309 189.616 29.8253C189.033 30.322 188.543 30.7344 188.149 31.0602C187.755 31.386 187.404 31.6685 187.094 31.9077C187.402 32.1127 187.744 32.3702 188.122 32.68C188.5 32.9876 188.997 33.4251 189.614 33.9901C190.231 34.5574 191.004 35.2682 191.929 36.1248C192.854 36.9838 194.02 38.0637 195.426 39.3646L206.432 49.7035H191.414L179.687 38.3371L167.601 49.7035H154.382L165.594 39.3646C166.897 38.1662 167.993 37.1615 168.886 36.3572C169.777 35.5507 170.515 34.89 171.098 34.3774C171.681 33.8625 172.169 33.4524 172.563 33.1425C172.957 32.835 173.31 32.5593 173.618 32.3201C173.31 32.0809 172.966 31.8143 172.588 31.5227C172.21 31.231 171.732 30.821 171.148 30.2878C170.565 29.757 169.827 29.0872 168.936 28.2829C168.043 27.4787 166.929 26.4398 165.594 25.1708L155.05 15.2943H169.811L180.765 25.9909L191.824 15.2943H205.608L205.61 15.2966Z" fill="#231F20"/>
<path d="M244.749 36.8972C243.995 35.5598 243.343 34.3865 242.794 33.3749C242.245 32.3634 241.748 31.4543 241.302 30.6478C240.855 29.8413 240.47 29.1145 240.145 28.4629C239.816 27.8113 239.5 27.1779 239.192 26.5582C238.917 27.1757 238.618 27.8113 238.292 28.4629C237.966 29.1145 237.588 29.8436 237.16 30.6478C236.732 31.4543 236.242 32.3542 235.695 33.3476C235.146 34.3432 234.494 35.5097 233.74 36.8448L228.236 46.6164C227.621 47.7146 226.839 48.5963 225.896 49.2661C224.953 49.9359 223.779 50.2685 222.374 50.2685C220.968 50.2685 219.829 49.8835 218.749 49.1112C217.669 48.3388 216.888 47.1473 216.409 45.5365L207.665 15.2943H218.312L221.551 27.2782C222.098 29.233 222.554 30.9485 222.916 32.4226C223.276 33.8967 223.593 35.3365 223.866 36.7423C224.415 35.5416 225.058 34.2156 225.796 32.7575C226.534 31.2994 227.502 29.4562 228.703 27.2281L233.332 18.5865C233.779 17.7298 234.223 17.0532 234.67 16.5565C235.114 16.0598 235.586 15.6725 236.082 15.3991C236.579 15.1257 237.103 14.9434 237.652 14.8592C238.199 14.7749 238.784 14.7316 239.4 14.7316C240.049 14.7316 240.65 14.7749 241.199 14.8592C241.746 14.9434 242.27 15.1257 242.767 15.3991C243.264 15.6748 243.744 16.0598 244.207 16.5565C244.669 17.0532 245.125 17.7298 245.571 18.5865L250.149 27.2782C250.798 28.4789 251.365 29.5337 251.846 30.4405C252.327 31.3495 252.753 32.172 253.131 32.9102C253.507 33.6483 253.842 34.325 254.133 34.9424C254.423 35.5598 254.707 36.159 254.981 36.7423C255.257 35.3707 255.589 33.9308 255.986 32.4226C256.38 30.9144 256.833 29.2011 257.348 27.2782L260.588 15.2943H270.977L262.078 45.5365C261.597 47.1495 260.818 48.3411 259.738 49.1112C258.658 49.8835 257.451 50.2685 256.113 50.2685C254.776 50.2685 253.584 49.9427 252.641 49.2912C251.698 48.6396 250.9 47.7487 250.249 46.6164L244.747 36.8949L244.749 36.8972Z" fill="#231F20"/>
<path d="M277.625 49.7034L284.052 40.8568H302.071C303.185 40.8568 304.154 40.891 304.976 40.9593C304.495 40.3419 303.939 39.5627 303.306 38.6195C302.67 37.6763 302.062 36.7946 301.479 35.9698L295.307 26.8657L279.156 49.7012H266.555L288.62 18.5841C289.34 17.5908 290.249 16.6999 291.347 15.9094C292.443 15.1211 293.833 14.7269 295.512 14.7269C297.191 14.7269 298.469 15.096 299.549 15.8342C300.629 16.5701 301.547 17.4882 302.301 18.5841L323.799 49.7012H277.623L277.625 49.7034Z" fill="#231F20"/>
<path d="M326.581 15.2965L342.062 38.1319L358.213 15.2965H370.762L348.749 46.4136C347.995 47.4069 347.07 48.3 345.972 49.086C344.874 49.8766 343.504 50.2707 341.857 50.2707C340.21 50.2707 338.9 49.9017 337.82 49.1658C336.74 48.4299 335.822 47.5117 335.068 46.4159L313.517 15.2988H326.581V15.2965Z" fill="#231F20"/>
<path d="M414.528 40.8568L407.689 49.7035H374.567V15.2965H414.426L407.534 24.2457H385.264V28.3603H412.523L406.404 36.1772H385.264V40.8568H414.528Z" fill="#231F20"/>
</g>
<defs>
<linearGradient id="paint0_linear_145_7938" x1="27.8295" y1="-10.9517" x2="27.8295" y2="156.743" gradientUnits="userSpaceOnUse">
<stop stop-color="#C0966A"/>
<stop offset="1" stop-color="#5F3917"/>
</linearGradient>
<linearGradient id="paint1_linear_145_7938" x1="11.7991" y1="-10.9518" x2="11.7991" y2="156.736" gradientUnits="userSpaceOnUse">
<stop stop-color="#C0966A"/>
<stop offset="1" stop-color="#5F3917"/>
</linearGradient>
<linearGradient id="paint2_linear_145_7938" x1="11.1703" y1="-10.9587" x2="11.1703" y2="156.743" gradientUnits="userSpaceOnUse">
<stop stop-color="#C0966A"/>
<stop offset="1" stop-color="#5F3917"/>
</linearGradient>
<linearGradient id="paint3_linear_145_7938" x1="17.9054" y1="-10.9586" x2="17.9054" y2="156.743" gradientUnits="userSpaceOnUse">
<stop stop-color="#C0966A"/>
<stop offset="1" stop-color="#5F3917"/>
</linearGradient>
<linearGradient id="paint4_linear_145_7938" x1="4.36063" y1="-10.9586" x2="4.36063" y2="156.752" gradientUnits="userSpaceOnUse">
<stop stop-color="#C0966A"/>
<stop offset="1" stop-color="#5F3917"/>
</linearGradient>
<linearGradient id="paint5_linear_145_7938" x1="4.57011" y1="-10.9586" x2="4.57011" y2="156.743" gradientUnits="userSpaceOnUse">
<stop stop-color="#C0966A"/>
<stop offset="1" stop-color="#5F3917"/>
</linearGradient>
<linearGradient id="paint6_linear_145_7938" x1="10.3116" y1="-10.9587" x2="10.3116" y2="156.752" gradientUnits="userSpaceOnUse">
<stop stop-color="#C0966A"/>
<stop offset="1" stop-color="#5F3917"/>
</linearGradient>
<linearGradient id="paint7_linear_145_7938" x1="10.1932" y1="-10.9586" x2="10.1932" y2="156.736" gradientUnits="userSpaceOnUse">
<stop stop-color="#C0966A"/>
<stop offset="1" stop-color="#5F3917"/>
</linearGradient>
<linearGradient id="paint8_linear_145_7938" x1="16.9574" y1="-10.9586" x2="16.9574" y2="156.752" gradientUnits="userSpaceOnUse">
<stop stop-color="#C0966A"/>
<stop offset="1" stop-color="#5F3917"/>
</linearGradient>
<linearGradient id="paint9_linear_145_7938" x1="38.4167" y1="-10.9586" x2="38.4167" y2="156.752" gradientUnits="userSpaceOnUse">
<stop stop-color="#C0966A"/>
<stop offset="1" stop-color="#5F3917"/>
</linearGradient>
<linearGradient id="paint10_linear_145_7938" x1="27.6677" y1="-10.9518" x2="27.6677" y2="156.727" gradientUnits="userSpaceOnUse">
<stop stop-color="#C0966A"/>
<stop offset="1" stop-color="#5F3917"/>
</linearGradient>
<linearGradient id="paint11_linear_145_7938" x1="36.7309" y1="-11.0435" x2="36.7309" y2="156.967" gradientUnits="userSpaceOnUse">
<stop stop-color="#C0966A"/>
<stop offset="1" stop-color="#5F3917"/>
</linearGradient>
<linearGradient id="paint12_linear_145_7938" x1="27.6517" y1="-10.9587" x2="27.6517" y2="156.752" gradientUnits="userSpaceOnUse">
<stop stop-color="#C0966A"/>
<stop offset="1" stop-color="#5F3917"/>
</linearGradient>
<linearGradient id="paint13_linear_145_7938" x1="35.5757" y1="-10.9837" x2="35.5757" y2="156.818" gradientUnits="userSpaceOnUse">
<stop stop-color="#C0966A"/>
<stop offset="1" stop-color="#5F3917"/>
</linearGradient>
<linearGradient id="paint14_linear_145_7938" x1="19.7346" y1="-10.763" x2="19.7346" y2="156.267" gradientUnits="userSpaceOnUse">
<stop stop-color="#C0966A"/>
<stop offset="1" stop-color="#5F3917"/>
</linearGradient>
<linearGradient id="paint15_linear_145_7938" x1="20.1358" y1="-10.8702" x2="20.1358" y2="156.523" gradientUnits="userSpaceOnUse">
<stop stop-color="#C0966A"/>
<stop offset="1" stop-color="#5F3917"/>
</linearGradient>
<linearGradient id="paint16_linear_145_7938" x1="19.9647" y1="-11.0585" x2="19.9647" y2="156.997" gradientUnits="userSpaceOnUse">
<stop stop-color="#C0966A"/>
<stop offset="1" stop-color="#5F3917"/>
</linearGradient>
<linearGradient id="paint17_linear_145_7938" x1="19.2835" y1="-11.0429" x2="19.2835" y2="156.957" gradientUnits="userSpaceOnUse">
<stop stop-color="#C0966A"/>
<stop offset="1" stop-color="#5F3917"/>
</linearGradient>
<linearGradient id="paint18_linear_145_7938" x1="19.0716" y1="-10.8032" x2="19.0716" y2="156.347" gradientUnits="userSpaceOnUse">
<stop stop-color="#C0966A"/>
<stop offset="1" stop-color="#5F3917"/>
</linearGradient>
<linearGradient id="paint19_linear_145_7938" x1="43.5747" y1="-10.9518" x2="43.5747" y2="156.736" gradientUnits="userSpaceOnUse">
<stop stop-color="#C0966A"/>
<stop offset="1" stop-color="#5F3917"/>
</linearGradient>
<linearGradient id="paint20_linear_145_7938" x1="44.2013" y1="-10.9586" x2="44.2013" y2="156.743" gradientUnits="userSpaceOnUse">
<stop stop-color="#C0966A"/>
<stop offset="1" stop-color="#5F3917"/>
</linearGradient>
<linearGradient id="paint21_linear_145_7938" x1="37.4691" y1="-10.9586" x2="37.4691" y2="156.743" gradientUnits="userSpaceOnUse">
<stop stop-color="#C0966A"/>
<stop offset="1" stop-color="#5F3917"/>
</linearGradient>
<linearGradient id="paint22_linear_145_7938" x1="51.0135" y1="-10.9586" x2="51.0135" y2="156.752" gradientUnits="userSpaceOnUse">
<stop stop-color="#C0966A"/>
<stop offset="1" stop-color="#5F3917"/>
</linearGradient>
<linearGradient id="paint23_linear_145_7938" x1="50.804" y1="-10.9586" x2="50.804" y2="156.743" gradientUnits="userSpaceOnUse">
<stop stop-color="#C0966A"/>
<stop offset="1" stop-color="#5F3917"/>
</linearGradient>
<linearGradient id="paint24_linear_145_7938" x1="45.0647" y1="-10.9587" x2="45.0647" y2="156.752" gradientUnits="userSpaceOnUse">
<stop stop-color="#C0966A"/>
<stop offset="1" stop-color="#5F3917"/>
</linearGradient>
<linearGradient id="paint25_linear_145_7938" x1="45.1787" y1="-10.9586" x2="45.1787" y2="156.736" gradientUnits="userSpaceOnUse">
<stop stop-color="#C0966A"/>
<stop offset="1" stop-color="#5F3917"/>
</linearGradient>
<clipPath id="clip0_145_7938">
<rect width="414.528" height="65" fill="white"/>
</clipPath>
</defs>
</svg>
