<svg width="415" height="65" viewBox="0 0 415 65" fill="none" xmlns="http://www.w3.org/2000/svg">
<g clip-path="url(#clip0_138_3083)">
<mask id="mask0_138_3083" style="mask-type:luminance" maskUnits="userSpaceOnUse" x="11" y="45" width="34" height="20">
<path d="M18.2381 54.1257C19.0707 54.9778 24.855 60.3455 19.1072 65H36.5651C30.7922 60.2088 36.645 54.9801 37.4798 54.1257C39.0468 52.5218 44.4297 47.2862 44.4297 47.2862L44.3498 45.3565L42.4567 45.2791C42.4567 45.2791 31.5996 54.8297 30.0737 55.8458C30.0737 55.8458 29.6996 55.9051 29.524 55.2375C29.3484 54.5723 29.0542 54.2214 29.2891 53.6313C29.524 53.0458 30.7192 51.1867 30.799 49.4438C30.8766 47.7146 30.758 45.9124 27.859 45.9238C24.9599 45.9124 24.8436 47.7168 24.9212 49.4438C24.9987 51.1867 26.1939 53.0458 26.4288 53.6313C26.6638 54.2214 26.3695 54.5723 26.1939 55.2375C26.0183 55.9028 25.6465 55.8458 25.6465 55.8458C24.1183 54.8274 13.2612 45.2791 13.2612 45.2791L11.3681 45.3565L11.2905 47.2862C11.2905 47.2862 16.6734 52.5195 18.2404 54.1257" fill="white"/>
</mask>
<g mask="url(#mask0_138_3083)">
<path d="M44.432 45.2815H11.2905V65.0002H44.432V45.2815Z" fill="white"/>
</g>
<mask id="mask1_138_3083" style="mask-type:luminance" maskUnits="userSpaceOnUse" x="5" y="25" width="14" height="13">
<path d="M17.2497 25.9399L5.02197 35.4893L6.37348 37.2159L18.6012 27.6665L17.2497 25.9399Z" fill="white"/>
</mask>
<g mask="url(#mask1_138_3083)">
<path d="M18.6006 25.9385H5.02246V37.2161H18.6006V25.9385Z" fill="white"/>
</g>
<mask id="mask2_138_3083" style="mask-type:luminance" maskUnits="userSpaceOnUse" x="3" y="10" width="16" height="14">
<path d="M5.0613 10.4531L3.66797 12.1462L17.3042 23.3424L18.6976 21.6493L5.0613 10.4531Z" fill="white"/>
</mask>
<g mask="url(#mask2_138_3083)">
<path d="M18.6991 10.4528H3.66797V23.3411H18.6991V10.4528Z" fill="white"/>
</g>
<mask id="mask3_138_3083" style="mask-type:luminance" maskUnits="userSpaceOnUse" x="9" y="3" width="18" height="16">
<path d="M10.7092 3.48049L9.31641 5.17114L25.1396 18.1768L26.5323 16.4861L10.7092 3.48049Z" fill="white"/>
</mask>
<g mask="url(#mask3_138_3083)">
<path d="M26.5378 3.48596H9.3125V18.1719H26.5378V3.48596Z" fill="white"/>
</g>
<mask id="mask4_138_3083" style="mask-type:luminance" maskUnits="userSpaceOnUse" x="0" y="7" width="8" height="8">
<path d="M7.91244 11.3597C7.91244 13.3167 6.32493 14.9024 4.36564 14.9024C2.40635 14.9024 0.818848 13.3167 0.818848 11.3597C0.818848 9.40259 2.40635 7.81689 4.36564 7.81689C6.32493 7.81689 7.91244 9.40032 7.91244 11.3597Z" fill="white"/>
</mask>
<g mask="url(#mask4_138_3083)">
<path d="M7.91244 7.81689H0.818848V14.9024H7.91244V7.81689Z" fill="white"/>
</g>
<mask id="mask5_138_3083" style="mask-type:luminance" maskUnits="userSpaceOnUse" x="1" y="33" width="8" height="8">
<path d="M8.11996 37.4554C8.11996 39.4124 6.53245 40.9981 4.57316 40.9981C2.61387 40.9981 1.02637 39.4124 1.02637 37.4554C1.02637 35.4983 2.61387 33.9126 4.57316 33.9126C6.53245 33.9126 8.11996 35.4983 8.11996 37.4554Z" fill="white"/>
</mask>
<g mask="url(#mask5_138_3083)">
<path d="M8.1224 33.915H1.02881V41.0006H8.1224V33.915Z" fill="white"/>
</g>
<mask id="mask6_138_3083" style="mask-type:luminance" maskUnits="userSpaceOnUse" x="6" y="41" width="8" height="8">
<path d="M13.8703 44.6068C13.8703 46.5639 12.2828 48.1496 10.3235 48.1496C8.3642 48.1496 6.77441 46.5616 6.77441 44.6068C6.77441 42.6521 8.3642 41.0641 10.3235 41.0641C12.2828 41.0641 13.8703 42.6521 13.8703 44.6068Z" fill="white"/>
</mask>
<g mask="url(#mask6_138_3083)">
<path d="M13.8703 41.0641H6.77441V48.1496H13.8703V41.0641Z" fill="white"/>
</g>
<mask id="mask7_138_3083" style="mask-type:luminance" maskUnits="userSpaceOnUse" x="6" y="0" width="8" height="8">
<path d="M13.7513 4.19441C13.7513 6.15148 12.1638 7.73718 10.2045 7.73718C8.24522 7.73718 6.65771 6.15148 6.65771 4.19441C6.65771 2.23735 8.24522 0.653931 10.2045 0.653931C12.1638 0.653931 13.7513 2.23735 13.7513 4.19441Z" fill="white"/>
</mask>
<g mask="url(#mask7_138_3083)">
<path d="M13.7513 0.653931H6.65771V7.7349H13.7513V0.653931Z" fill="white"/>
</g>
<mask id="mask8_138_3083" style="mask-type:luminance" maskUnits="userSpaceOnUse" x="11" y="35" width="12" height="9">
<path d="M19.0363 35.9995L11.4341 42.1532L12.8163 43.8597L22.5215 35.9995H19.0363Z" fill="white"/>
</mask>
<g mask="url(#mask8_138_3083)">
<path d="M22.5215 35.9995H11.4341V43.8597H22.5215V35.9995Z" fill="white"/>
</g>
<mask id="mask9_138_3083" style="mask-type:luminance" maskUnits="userSpaceOnUse" x="32" y="35" width="13" height="9">
<path d="M36.4007 35.9995H32.9155L42.6207 43.8597L44.003 42.1532L36.4007 35.9995Z" fill="white"/>
</mask>
<g mask="url(#mask9_138_3083)">
<path d="M44.003 35.9995H32.9155V43.8597H44.003V35.9995Z" fill="white"/>
</g>
<mask id="mask10_138_3083" style="mask-type:luminance" maskUnits="userSpaceOnUse" x="18" y="33" width="19" height="5">
<path d="M33.8621 33.9468C33.3466 34.4867 32.7581 34.9583 32.1149 35.3525L35.1896 37.8404C35.778 37.3916 36.3255 36.8881 36.8227 36.3436L33.8621 33.9468ZM18.5755 36.3777C19.0773 36.9222 19.627 37.4212 20.2155 37.8723L23.2947 35.3776C22.6469 34.9902 22.0562 34.5186 21.5361 33.9787L18.5732 36.38L18.5755 36.3777Z" fill="white"/>
</mask>
<g mask="url(#mask10_138_3083)">
<path d="M36.8227 33.9468H18.5732V37.87H36.8227V33.9468Z" fill="white"/>
</g>
<mask id="mask11_138_3083" style="mask-type:luminance" maskUnits="userSpaceOnUse" x="36" y="36" width="1" height="1">
<path d="M36.7202 36.4506C36.7545 36.4141 36.7888 36.3777 36.8231 36.3435H36.8185C36.7865 36.3777 36.7545 36.4141 36.7202 36.4506Z" fill="white"/>
</mask>
<g mask="url(#mask11_138_3083)">
<path d="M36.8231 36.3412H36.7202V36.4528H36.8231V36.3412Z" fill="white"/>
</g>
<mask id="mask12_138_3083" style="mask-type:luminance" maskUnits="userSpaceOnUse" x="15" y="15" width="26" height="22">
<path d="M27.6831 15.7225C20.8655 15.7225 15.3389 21.2451 15.3389 28.055C15.3389 31.2628 16.566 34.1813 18.5732 36.3776L21.5361 33.9763C20.0535 32.4407 19.1388 30.3561 19.1388 28.055C19.1388 23.3412 22.9639 19.5205 27.6831 19.5205C32.4023 19.5205 36.2273 23.3412 36.2273 28.055C36.2273 30.3401 35.3264 32.4157 33.8597 33.949L36.8181 36.3412C38.8116 34.1517 40.0273 31.2469 40.0273 28.055C40.0273 21.2451 34.5007 15.7225 27.6831 15.7225Z" fill="white"/>
</mask>
<g mask="url(#mask12_138_3083)">
<path d="M40.0273 15.7225H15.3389V36.3776H40.0273V15.7225Z" fill="white"/>
</g>
<mask id="mask13_138_3083" style="mask-type:luminance" maskUnits="userSpaceOnUse" x="35" y="37" width="2" height="1">
<path d="M36.0357 37.1318C35.7665 37.3779 35.486 37.6148 35.1963 37.8381C35.486 37.6148 35.7665 37.3802 36.0357 37.1318Z" fill="white"/>
</mask>
<g mask="url(#mask13_138_3083)">
<path d="M36.0357 37.1318H35.1963V37.8381H36.0357V37.1318Z" fill="white"/>
</g>
<mask id="mask14_138_3083" style="mask-type:luminance" maskUnits="userSpaceOnUse" x="19" y="37" width="1" height="1">
<path d="M19.8761 37.5966C19.7961 37.5328 19.7184 37.4667 19.6406 37.403C19.7161 37.469 19.7938 37.5351 19.8761 37.5966Z" fill="white"/>
</mask>
<g mask="url(#mask14_138_3083)">
<path d="M19.8761 37.403H19.6406V37.5966H19.8761V37.403Z" fill="white"/>
</g>
<mask id="mask15_138_3083" style="mask-type:luminance" maskUnits="userSpaceOnUse" x="20" y="37" width="1" height="1">
<path d="M20.2138 37.87C20.1749 37.8381 20.136 37.8108 20.0972 37.7766C20.136 37.8085 20.1726 37.8404 20.2115 37.87" fill="white"/>
</mask>
<g mask="url(#mask15_138_3083)">
<path d="M20.2187 37.7766H20.1021V37.87H20.2187V37.7766Z" fill="white"/>
</g>
<mask id="mask16_138_3083" style="mask-type:luminance" maskUnits="userSpaceOnUse" x="19" y="37" width="2" height="1">
<path d="M20.1023 37.7765C20.0246 37.7196 19.9491 37.6604 19.876 37.5966C19.9491 37.6604 20.0246 37.7173 20.1023 37.7765Z" fill="white"/>
</mask>
<g mask="url(#mask16_138_3083)">
<path d="M20.1023 37.5966H19.876V37.7765H20.1023V37.5966Z" fill="white"/>
</g>
<mask id="mask17_138_3083" style="mask-type:luminance" maskUnits="userSpaceOnUse" x="19" y="36" width="1" height="2">
<path d="M19.4317 37.2229C19.3471 37.1432 19.2625 37.0635 19.1802 36.9883C19.2625 37.0657 19.3471 37.1455 19.4317 37.2229Z" fill="white"/>
</mask>
<g mask="url(#mask17_138_3083)">
<path d="M19.4317 36.9858H19.1802V37.2205H19.4317V36.9858Z" fill="white"/>
</g>
<mask id="mask18_138_3083" style="mask-type:luminance" maskUnits="userSpaceOnUse" x="19" y="36" width="1" height="1">
<path d="M19.1806 36.986C19.1234 36.9313 19.064 36.8789 19.0068 36.8242C19.064 36.8812 19.1234 36.9313 19.1806 36.986Z" fill="white"/>
</mask>
<g mask="url(#mask18_138_3083)">
<path d="M19.183 36.8242H19.0093V36.986H19.183V36.8242Z" fill="white"/>
</g>
<mask id="mask19_138_3083" style="mask-type:luminance" maskUnits="userSpaceOnUse" x="36" y="25" width="15" height="13">
<path d="M38.186 25.9374L36.8345 27.6641L49.0622 37.2135L50.4137 35.4868L38.186 25.9374Z" fill="white"/>
</mask>
<g mask="url(#mask19_138_3083)">
<path d="M50.4146 25.9385H36.8364V37.2161H50.4146V25.9385Z" fill="white"/>
</g>
<mask id="mask20_138_3083" style="mask-type:luminance" maskUnits="userSpaceOnUse" x="36" y="10" width="16" height="14">
<path d="M51.7674 12.1479L50.3761 10.4529L36.7363 21.6485L38.1322 23.3412L51.7674 12.1479Z" fill="white"/>
</mask>
<g mask="url(#mask20_138_3083)">
<path d="M51.7697 10.4529H36.7363V23.3412H51.7697V10.4529Z" fill="white"/>
</g>
<mask id="mask21_138_3083" style="mask-type:luminance" maskUnits="userSpaceOnUse" x="28" y="3" width="19" height="16">
<path d="M44.7249 3.47859L28.9062 16.4897L30.2996 18.1799L46.1182 5.16875L44.7249 3.47859Z" fill="white"/>
</mask>
<g mask="url(#mask21_138_3083)">
<path d="M46.1243 3.48584H28.8989V18.1718H46.1243V3.48584Z" fill="white"/>
</g>
<mask id="mask22_138_3083" style="mask-type:luminance" maskUnits="userSpaceOnUse" x="47" y="7" width="8" height="8">
<path d="M47.5249 11.3597C47.5249 13.3167 49.1147 14.9024 51.0694 14.9024C53.0241 14.9024 54.6185 13.3167 54.6185 11.3597C54.6185 9.40259 53.031 7.81689 51.0694 7.81689C49.1078 7.81689 47.5249 9.40032 47.5249 11.3597Z" fill="white"/>
</mask>
<g mask="url(#mask22_138_3083)">
<path d="M54.6185 7.81689H47.5249V14.9024H54.6185V7.81689Z" fill="white"/>
</g>
<mask id="mask23_138_3083" style="mask-type:luminance" maskUnits="userSpaceOnUse" x="47" y="33" width="8" height="8">
<path d="M47.3149 37.4554C47.3149 39.4124 48.9024 40.9981 50.8617 40.9981C52.821 40.9981 54.4085 39.4124 54.4085 37.4554C54.4085 35.4983 52.821 33.9126 50.8617 33.9126C48.9024 33.9126 47.3149 35.4983 47.3149 37.4554Z" fill="white"/>
</mask>
<g mask="url(#mask23_138_3083)">
<path d="M54.4085 33.915H47.3149V41.0006H54.4085V33.915Z" fill="white"/>
</g>
<mask id="mask24_138_3083" style="mask-type:luminance" maskUnits="userSpaceOnUse" x="41" y="41" width="8" height="8">
<path d="M41.5693 44.6068C41.5693 46.5639 43.1568 48.1496 45.1138 48.1496C47.0709 48.1496 48.6629 46.5616 48.6629 44.6068C48.6629 42.6521 47.0754 41.0641 45.1138 41.0641C43.1523 41.0641 41.5693 42.6521 41.5693 44.6068Z" fill="white"/>
</mask>
<g mask="url(#mask24_138_3083)">
<path d="M48.6629 41.0641H41.5693V48.1496H48.6629V41.0641Z" fill="white"/>
</g>
<mask id="mask25_138_3083" style="mask-type:luminance" maskUnits="userSpaceOnUse" x="41" y="0" width="8" height="8">
<path d="M41.6836 4.19441C41.6836 6.15148 43.2734 7.73718 45.2304 7.73718C47.1874 7.73718 48.7772 6.15148 48.7772 4.19441C48.7772 2.23735 47.1897 0.653931 45.2304 0.653931C43.2711 0.653931 41.6836 2.23735 41.6836 4.19441Z" fill="white"/>
</mask>
<g mask="url(#mask25_138_3083)">
<path d="M48.7772 0.653931H41.6836V7.7349H48.7772V0.653931Z" fill="white"/>
</g>
<path d="M4.52302 19.7803C2.02544 19.7826 0.0022809 21.7988 0 24.2936C0.00456179 26.7883 2.02544 28.8046 4.52302 28.8092C7.0206 28.8046 9.03919 26.7883 9.04376 24.2936C9.03919 21.7988 7.0206 19.7826 4.52302 19.7803Z" fill="white"/>
<path d="M27.7243 0C25.2268 0.00455661 23.2082 2.01858 23.2036 4.51332C23.2082 7.00351 25.2268 9.02436 27.7243 9.02664C30.2197 9.02208 32.2405 7.00351 32.2428 4.51332C32.2382 2.01858 30.2174 0.00455661 27.7243 0Z" fill="white"/>
<path d="M50.912 19.7803C48.4144 19.7826 46.3981 21.7988 46.3936 24.2936C46.3981 26.7883 48.4167 28.8046 50.912 28.8092C53.4096 28.8046 55.4282 26.7883 55.4305 24.2936C55.4259 21.7988 53.4096 19.7826 50.912 19.7803Z" fill="white"/>
<path d="M101.112 50.2708C100.425 50.2708 99.7457 50.1592 99.0774 49.9359C98.409 49.7126 97.6609 49.2069 96.8375 48.4186L75.7255 29.4927V49.7058H66.0454V21.1609C66.0454 20.0286 66.2074 19.0535 66.5335 18.2288C66.8597 17.4063 67.2885 16.7388 67.8222 16.2239C68.3537 15.709 68.9718 15.333 69.6766 15.0915C70.3791 14.8523 71.109 14.7316 71.864 14.7316C72.5163 14.7316 73.1778 14.8432 73.8461 15.0665C74.5144 15.2898 75.2785 15.7955 76.1361 16.5838L97.2481 35.512V15.2989H106.981V43.7936C106.981 44.9236 106.816 45.901 106.49 46.7258C106.164 47.5483 105.735 48.2272 105.204 48.758C104.67 49.2889 104.045 49.6762 103.324 49.9154C102.604 50.1546 101.865 50.2754 101.112 50.2754" fill="white"/>
<path d="M153.272 40.8568L146.425 49.7035H113.263V15.2965H153.169L146.27 24.2457H123.974V28.3603H151.265L145.138 36.1772H123.974V40.8568H153.272Z" fill="white"/>
<path d="M205.844 15.2966L194.98 25.2232C193.778 26.3213 192.765 27.2372 191.942 27.9753C191.119 28.7112 190.414 29.3309 189.832 29.8253C189.248 30.322 188.758 30.7344 188.363 31.0602C187.969 31.386 187.617 31.6685 187.307 31.9077C187.615 32.1127 187.957 32.3702 188.336 32.68C188.715 32.9876 189.212 33.4251 189.83 33.9901C190.448 34.5574 191.221 35.2682 192.147 36.1248C193.073 36.9838 194.241 38.0637 195.648 39.3646L206.667 49.7035H191.632L179.892 38.3371L167.792 49.7035H154.558L165.782 39.3646C167.087 38.1662 168.184 37.1615 169.078 36.3572C169.97 35.5507 170.709 34.89 171.293 34.3774C171.877 33.8625 172.365 33.4524 172.76 33.1425C173.154 32.835 173.508 32.5593 173.816 32.3201C173.508 32.0809 173.163 31.8143 172.785 31.5227C172.406 31.231 171.927 30.821 171.343 30.2878C170.759 29.757 170.02 29.0872 169.128 28.2829C168.234 27.4787 167.119 26.4398 165.782 25.1708L155.226 15.2943H170.004L180.971 25.9909L192.042 15.2943H205.842L205.844 15.2966Z" fill="white"/>
<path d="M245.028 36.8972C244.273 35.5598 243.62 34.3865 243.071 33.3749C242.521 32.3634 242.024 31.4543 241.577 30.6478C241.129 29.8413 240.744 29.1145 240.418 28.4629C240.089 27.8113 239.772 27.1779 239.464 26.5582C239.188 27.1757 238.89 27.8113 238.563 28.4629C238.237 29.1145 237.859 29.8436 237.43 30.6478C237.001 31.4543 236.511 32.3542 235.963 33.3476C235.414 34.3432 234.761 35.5097 234.006 36.8448L228.496 46.6164C227.88 47.7146 227.097 48.5963 226.153 49.2661C225.209 49.9359 224.034 50.2685 222.627 50.2685C221.22 50.2685 220.079 49.8835 218.998 49.1112C217.917 48.3388 217.134 47.1473 216.655 45.5365L207.901 15.2943H218.56L221.803 27.2782C222.351 29.233 222.807 30.9485 223.17 32.4226C223.53 33.8967 223.847 35.3365 224.121 36.7423C224.671 35.5416 225.314 34.2156 226.053 32.7575C226.792 31.2994 227.761 29.4562 228.963 27.2281L233.598 18.5865C234.045 17.7298 234.49 17.0532 234.937 16.5565C235.382 16.0598 235.854 15.6725 236.351 15.3991C236.848 15.1257 237.373 14.9434 237.923 14.8592C238.47 14.7749 239.056 14.7316 239.672 14.7316C240.322 14.7316 240.924 14.7749 241.474 14.8592C242.021 14.9434 242.546 15.1257 243.043 15.3991C243.54 15.6748 244.022 16.0598 244.485 16.5565C244.948 17.0532 245.404 17.7298 245.851 18.5865L250.433 27.2782C251.083 28.4789 251.651 29.5337 252.133 30.4405C252.614 31.3495 253.04 32.172 253.419 32.9102C253.795 33.6483 254.131 34.325 254.423 34.9424C254.712 35.5598 254.997 36.159 255.271 36.7423C255.547 35.3707 255.88 33.9308 256.277 32.4226C256.671 30.9144 257.125 29.2011 257.641 27.2782L260.884 15.2943H271.285L262.376 45.5365C261.895 47.1495 261.115 48.3411 260.034 49.1112C258.952 49.8835 257.744 50.2685 256.405 50.2685C255.066 50.2685 253.873 49.9427 252.929 49.2912C251.984 48.6396 251.186 47.7487 250.534 46.6164L245.025 36.8949L245.028 36.8972Z" fill="white"/>
<path d="M277.941 49.7034L284.375 40.8568H302.415C303.53 40.8568 304.5 40.891 305.323 40.9593C304.842 40.3419 304.285 39.5627 303.651 38.6195C303.015 37.6763 302.406 36.7946 301.822 35.9698L295.643 26.8657L279.474 49.7012H266.858L288.948 18.5841C289.669 17.5908 290.579 16.6999 291.679 15.9094C292.776 15.1211 294.167 14.7269 295.848 14.7269C297.529 14.7269 298.809 15.096 299.89 15.8342C300.971 16.5701 301.89 17.4882 302.645 18.5841L324.168 49.7012H277.939L277.941 49.7034Z" fill="white"/>
<path d="M326.953 15.2965L342.451 38.1319L358.621 15.2965H371.184L349.146 46.4136C348.391 47.4069 347.465 48.3 346.365 49.086C345.266 49.8766 343.895 50.2707 342.246 50.2707C340.597 50.2707 339.286 49.9017 338.204 49.1658C337.123 48.4299 336.204 47.5117 335.449 46.4159L313.874 15.2988H326.953V15.2965Z" fill="white"/>
<path d="M415 40.8568L408.153 49.7035H374.993V15.2965H414.897L407.998 24.2457H385.702V28.3603H412.993L406.866 36.1772H385.702V40.8568H415Z" fill="white"/>
</g>
<defs>
<clipPath id="clip0_138_3083">
<rect width="415" height="65" fill="white"/>
</clipPath>
</defs>
</svg>
