<svg width="643" height="587" viewBox="0 0 643 587" fill="none" xmlns="http://www.w3.org/2000/svg">
<rect x="1.69759" y="82.9701" width="573" height="507" transform="rotate(-8.15415 1.69759 82.9701)" stroke="#B68B60" stroke-width="3"/>
<rect x="46" y="46.0001" width="576" height="510" fill="#603C93"/>
<path d="M485.773 472.916H590.916C590.208 464.109 584.449 449.084 583.376 447.351C582.94 446.649 582.558 446 582.242 445.495C577.335 437.703 563.793 432.507 557.678 441.851C553.409 448.382 556.961 461.108 548.066 464.361C537.866 468.092 535.3 454.677 534.392 447.794C533.277 439.339 533.464 430.681 530.972 422.452C529.915 419.989 528.157 417.173 525.342 416.82C522.527 416.82 520.064 418.931 519.007 421.398C515.889 428.98 515.029 437.157 513.888 445.207C512.96 451.735 511.693 466.139 503.015 466.95C498.407 467.377 494.237 459.149 489.968 462.796C487.259 465.108 487.405 469.944 485.77 472.912L485.773 472.916Z" fill="#DCE5F7"/>
<path d="M224.044 197.721C221.957 198.704 220.522 200.521 218.469 201.562C207.82 206.958 208.427 187.481 208.473 181.853C208.566 170.003 208.052 154.778 193.324 152.14C183.932 150.455 174.934 156.75 172.643 166.023C169.773 177.633 174.381 210.518 152.759 206.027C147.003 204.831 142.718 200.091 139.211 195.37C134.77 189.392 130.43 182.722 122.569 181.303C110.656 179.153 98.6266 186.036 90.4691 194.181C85.0425 199.599 80.7828 206.557 78.0517 213.722C78.0517 213.732 78.0065 213.864 78 213.864C85.6695 213.854 93.3423 213.848 101.012 213.838C111.18 213.825 121.348 213.806 131.519 213.793C140.193 213.78 239.054 213.648 239.054 213.712C238.449 206.392 234.393 192.855 224.048 197.724L224.044 197.721Z" fill="#DCE5F7"/>
<path d="M352.693 488.445C444.912 488.445 519.671 413.659 519.671 321.406C519.671 229.153 444.912 154.367 352.693 154.367C260.473 154.367 185.715 229.153 185.715 321.406C185.715 413.659 260.473 488.445 352.693 488.445Z" fill="#B68B60"/>
<path d="M442.643 411.388C492.32 361.693 492.32 281.122 442.643 231.427C392.967 181.733 312.425 181.733 262.748 231.427C213.072 281.122 213.072 361.693 262.748 411.388C312.425 461.082 392.967 461.082 442.643 411.388Z" fill="white"/>
<path d="M442.643 411.388C492.32 361.693 492.32 281.122 442.643 231.427C392.967 181.733 312.425 181.733 262.748 231.427C213.072 281.122 213.072 361.693 262.748 411.388C312.425 461.082 392.967 461.082 442.643 411.388Z" fill="white"/>
<path d="M352.524 426.736C343.742 426.736 334.971 425.647 326.457 423.451C326.028 423.342 325.698 422.989 325.62 422.549C325.54 422.11 325.724 421.667 326.086 421.408L335.51 414.774C336.027 414.412 336.738 414.534 337.1 415.052C337.462 415.569 337.34 416.28 336.822 416.642L329.454 421.832C337.146 423.616 344.899 424.483 352.575 424.483C388.909 424.483 423.547 405.126 442.17 372.477C452.842 353.764 457.353 332.583 455.214 311.222C455.149 310.594 455.608 310.035 456.235 309.97C456.865 309.906 457.421 310.365 457.486 310.992C459.674 332.829 455.062 354.481 444.154 373.609C438.268 383.926 430.79 393.082 421.921 400.819C413.35 408.298 403.654 414.308 393.101 418.686C380.225 424.027 366.366 426.733 352.524 426.733V426.736Z" fill="#603C93"/>
<path d="M319.171 172.585L359.398 169L355.252 122.436L315.025 126.021L319.171 172.585Z" fill="#B68B60"/>
<path d="M433.444 139.573L395.062 127.001L380.521 171.428L418.903 184L433.444 139.573Z" fill="#B68B60"/>
<path d="M468.513 216.781L434.852 192.881L465.019 157.177L495.865 183.259L468.513 216.781Z" fill="#B68B60"/>
<path d="M475.492 230.942L494.923 266.361L538.342 239.193L519.725 206.657L475.492 230.942Z" fill="#B68B60"/>
<path d="M551.504 313.742L545.855 273.738L499.583 280.276L505.232 320.281L551.504 313.742Z" fill="#B68B60"/>
<path d="M504.199 338.729L494.34 377.908L539.657 389.321L549.517 350.141L504.199 338.729Z" fill="#B68B60"/>
<path d="M502.071 452.786L525.523 419.895L487.479 392.748L464.026 425.639L502.071 452.786Z" fill="#B68B60"/>
<path d="M449.678 439.154L415.383 460.491L440.064 500.188L474.359 478.85L449.678 439.154Z" fill="#B68B60"/>
<path d="M358.911 520.308L398.941 514.951L392.745 468.615L352.714 473.972L358.911 520.308Z" fill="#B68B60"/>
<path d="M327.649 471.9L289.039 460.047L275.329 504.738L313.939 516.591L327.649 471.9Z" fill="#B68B60"/>
<path d="M208.068 458.058L238.641 484.458L269.176 449.069L238.603 422.67L208.068 458.058Z" fill="#B68B60"/>
<path d="M224.34 403.778L207.227 367.183L164.898 386.991L182.011 423.587L224.34 403.778Z" fill="#B68B60"/>
<path d="M154.259 307.61L155.562 347.991L202.27 346.482L200.966 306.101L154.259 307.61Z" fill="#B68B60"/>
<path d="M204.084 287.075L218.301 249.259L174.56 232.804L160.344 270.62L204.084 287.075Z" fill="#B68B60"/>
<path d="M218.016 174.955L191.223 205.186L226.19 236.199L252.983 205.968L218.016 174.955Z" fill="#B68B60"/>
<path d="M264.993 196.613L300.816 177.957L279.238 136.491L243.414 155.146L264.993 196.613Z" fill="#B68B60"/>
<path d="M357.897 321.834C358.135 318.954 355.995 316.427 353.117 316.189C350.239 315.951 347.712 318.092 347.474 320.971C347.236 323.85 349.376 326.377 352.255 326.616C355.133 326.854 357.659 324.713 357.897 321.834Z" fill="#B68B60"/>
<path d="M189.03 294.403L186.774 294.031C188.073 286.106 189.96 278.221 192.388 270.574L163.145 257.014L181.092 218.284L210.371 231.863C211.317 230.36 212.29 228.866 213.27 227.408C215.749 223.729 218.405 220.101 221.182 216.609L198.697 193.456L229.304 163.711L251.76 186.835C256.717 183.113 261.934 179.635 267.289 176.482L254.575 146.85L293.788 130.012L306.519 159.679C313.866 157.584 321.406 155.977 328.962 154.898L328.5 122.614L371.169 122L371.631 154.248C380.015 155.192 388.373 156.783 396.511 158.978L408.789 129.168L448.242 145.431L435.563 176.207L433.45 175.338L445.256 146.672L410.027 132.149L397.849 161.713L396.873 161.445C388.224 159.052 379.307 157.358 370.377 156.404L369.369 156.298L368.91 124.312L330.811 124.858L331.27 156.876L330.268 157.012C322.152 158.121 314.047 159.848 306.18 162.143L305.21 162.428L292.586 133.006L257.571 148.04L270.182 177.433L269.306 177.94C263.433 181.351 257.723 185.157 252.332 189.257L251.527 189.868L229.252 166.931L201.922 193.492L224.22 216.454L223.586 217.243C220.622 220.925 217.788 224.773 215.157 228.679C214.007 230.389 212.866 232.151 211.767 233.92L211.233 234.78L182.194 221.313L166.166 255.895L195.17 269.345L194.857 270.309C192.317 278.146 190.352 286.252 189.017 294.396L189.03 294.403Z" fill="white"/>
<path d="M343.033 521.407L341.146 489.201C331.295 488.532 321.469 486.983 311.906 484.594L300.183 514.627L260.433 499.101L272.165 469.036C267.582 466.527 263.07 463.779 258.739 460.863C255.685 458.803 252.647 456.604 249.696 454.322L226.849 477.119L196.711 446.899L220.243 423.416L221.856 425.033L199.943 446.902L226.853 473.889L249.509 451.279L250.304 451.903C253.462 454.377 256.729 456.753 260.016 458.968C264.564 462.033 269.315 464.907 274.137 467.51L275.026 467.989L263.39 497.805L298.884 511.669L310.51 481.881L311.489 482.134C321.547 484.714 331.912 486.346 342.293 486.99L343.305 487.051L345.176 518.992L383.214 516.764L381.342 484.798L382.338 484.617C392.169 482.829 401.891 480.139 411.228 476.624L412.175 476.269L427.004 504.63L460.769 486.961L445.953 458.628L446.787 458.053C453.697 453.294 460.306 447.949 466.425 442.175L467.161 441.48L491.741 461.939L516.113 432.64L491.508 412.158L492.058 411.308C495.971 405.239 499.517 398.883 502.587 392.416L503.02 391.505L533.372 401.605L545.398 365.435L515.066 355.342L515.267 354.349C516.844 346.544 517.865 338.552 518.298 330.592L518.353 329.58L550.272 327.475L547.693 288.298L549.972 288.15L552.703 329.605L520.522 331.726C520.073 339.124 519.126 346.544 517.703 353.809L548.288 363.987L534.82 404.492L504.216 394.308C501.35 400.247 498.095 406.086 494.527 411.692L519.336 432.346L492.041 465.159L467.262 444.532C461.512 449.892 455.352 454.875 448.923 459.362L463.862 487.931L426.05 507.718L411.096 479.12C402.234 482.396 393.045 484.937 383.75 486.686L385.638 518.917L343.036 521.413L343.033 521.407Z" fill="white"/>
<path d="M140.701 126.714L142.983 131.021L147.152 133.378L142.983 135.735L140.701 140.045L138.419 135.735L134.25 133.378L138.419 131.021L140.701 126.714Z" fill="#B68B60"/>
<path d="M630.65 444.871L632.932 449.181L637.101 451.538L632.932 453.892L630.65 458.202L628.368 453.892L624.199 451.538L628.368 449.181L630.65 444.871Z" fill="#FCCC6C"/>
<path d="M305.643 231.647L307.924 235.957L312.094 238.314L307.924 240.671L305.643 244.977L303.361 240.671L299.191 238.314L303.361 235.957L305.643 231.647Z" fill="#B68B60"/>
<path d="M423.181 347.575L425.459 351.885L429.632 354.242L425.459 356.599L423.181 360.909L420.899 356.599L416.727 354.242L420.899 351.885L423.181 347.575Z" fill="#B68B60"/>
<path d="M597.451 153L599.733 157.31L603.902 159.667L599.733 162.024L597.451 166.334L595.169 162.024L591 159.667L595.169 157.31L597.451 153Z" fill="#B68B60"/>
<path d="M137.33 487.788L139.612 492.098L143.781 494.455L139.612 496.812L137.33 501.122L135.048 496.812L130.879 494.455L135.048 492.098L137.33 487.788Z" fill="#B68B60"/>
<path d="M78.7785 287.076L78.1289 284.884C80.0843 284.302 84.4959 282.831 87.7861 280.561C86.1604 279.753 84.6608 278.638 83.3938 277.257C81.9006 275.628 81.3027 274.03 81.6195 272.508C81.9006 271.156 82.9284 269.976 84.5089 269.187C86.4675 268.207 88.8656 268.191 90.7725 269.142C92.4984 270.002 93.6393 271.521 93.9883 273.423C94.4279 275.815 93.649 277.881 92.2075 279.64C93.468 279.857 94.7543 279.866 96.0116 279.653C99.3405 279.084 101.936 276.992 103.316 273.762L105.417 274.661C103.72 278.628 100.517 281.202 96.3962 281.906C94.3665 282.252 92.2721 282.11 90.2812 281.538C86.7713 284.409 81.6906 286.213 78.7785 287.08V287.076ZM87.7118 270.72C86.9652 270.72 86.2089 270.891 85.5302 271.231C85.0906 271.45 84.0467 272.061 83.856 272.976C83.6589 273.924 84.4119 274.987 85.0777 275.715C86.3996 277.157 88.0156 278.256 89.7609 278.948C91.2282 277.483 92.0976 275.773 91.7421 273.836C91.4641 272.327 90.5075 271.564 89.7544 271.188C89.1306 270.878 88.4293 270.723 87.7182 270.723L87.7118 270.72Z" fill="#240448"/>
<path d="M595.816 382.442C591.402 382.442 587.106 380.473 585.571 376.218C585.29 375.439 585.102 374.601 585.009 373.728C583.228 373.027 581.457 371.734 579.98 370.014C578.312 368.07 577.245 365.752 577.055 363.66L579.33 363.453C579.479 365.06 580.368 366.958 581.715 368.526C582.546 369.493 583.706 370.521 584.996 371.21C585.041 370.702 585.115 370.185 585.219 369.664C585.613 367.673 586.385 366.318 587.578 365.529C588.948 364.621 590.855 364.627 592.219 365.545C593.583 366.464 594.307 368.229 593.981 369.839C593.784 370.819 593.224 371.753 592.365 372.545C590.994 373.806 589.32 374.417 587.526 374.31C587.488 374.31 587.446 374.304 587.404 374.301C587.484 374.695 587.588 375.077 587.72 375.442C589.478 380.324 595.739 380.799 599.624 379.577C599.756 379.535 599.886 379.493 600.018 379.445C601.123 379.047 602.106 378.514 602.93 377.851L604.359 379.635C603.334 380.457 602.135 381.116 600.791 381.598C600.632 381.653 600.474 381.708 600.312 381.76C598.871 382.212 597.339 382.445 595.816 382.445V382.442ZM587.232 371.983C587.374 372.002 587.517 372.018 587.659 372.028C588.855 372.099 589.886 371.717 590.817 370.861C591.166 370.541 591.608 370.023 591.738 369.383C591.883 368.665 591.547 367.847 590.939 367.437C590.332 367.026 589.446 367.023 588.839 367.43C588.179 367.867 587.73 368.743 587.459 370.104C587.332 370.744 587.258 371.371 587.232 371.979V371.983Z" fill="#240448"/>
<path d="M278.447 313.876C276.155 313.876 273.87 312.954 272.193 311.137C269.006 307.684 269.223 302.301 272.675 299.113L276.728 295.369C280.179 292.181 285.561 292.398 288.747 295.851C291.934 299.304 291.718 304.687 288.266 307.875L284.213 311.619C282.577 313.129 280.509 313.876 278.447 313.876Z" fill="#B68B60"/>
<path d="M264.306 305.997C262.855 305.997 261.575 304.943 261.336 303.465C261.071 301.823 262.186 300.274 263.828 300.009L276.135 298.014C277.777 297.749 279.325 298.864 279.593 300.507C279.858 302.149 278.743 303.698 277.102 303.963L264.794 305.958C264.632 305.984 264.468 305.997 264.309 305.997H264.306Z" fill="#B68B60"/>
<path d="M260.762 312.709C259.353 312.709 258.092 311.716 257.808 310.281C257.485 308.648 258.545 307.06 260.177 306.737L274.411 303.911C276.043 303.588 277.63 304.648 277.953 306.281C278.276 307.914 277.216 309.501 275.584 309.825L261.35 312.651C261.153 312.689 260.956 312.709 260.762 312.709Z" fill="#B68B60"/>
<path d="M264.559 318.102C263.237 318.102 262.025 317.225 261.656 315.89C261.214 314.287 262.154 312.625 263.757 312.182L275.202 309.02C276.805 308.577 278.466 309.518 278.909 311.121C279.352 312.725 278.411 314.387 276.808 314.83L265.363 317.992C265.095 318.066 264.824 318.102 264.559 318.102Z" fill="#B68B60"/>
<path d="M251.414 388.95L254.009 393.574L259.963 392.594L261.753 395.785L258.091 400.848L268.951 420.202L272.128 418.456C273.773 417.551 274.985 416.07 275.564 414.344C275.822 413.574 275.955 412.756 275.945 411.922L275.903 408.618L275.832 403.034L281.375 396.768L281.714 396.383L277.603 389.888L277.083 389.07L270.402 378.523L266.333 380.757L258.03 385.316L254.594 387.204L251.414 388.95Z" fill="#240448"/>
<path d="M417.552 305.515L379.757 305.169C378.018 305.153 376.324 304.603 374.909 303.598L349.023 285.198L358.878 271.324L382.585 288.175L417.71 288.499L417.555 305.515H417.552Z" fill="#B68B60"/>
<path d="M424.736 288.177L416.492 289.109L418.403 306.021L426.647 305.088L424.736 288.177Z" fill="#B68B60"/>
<path d="M425.006 305.305C423.519 305.305 422.223 304.202 422.023 302.689C421.803 301.04 422.963 299.524 424.612 299.304L436.777 297.681C438.428 297.461 439.941 298.622 440.161 300.271C440.381 301.92 439.22 303.436 437.572 303.656L425.407 305.279C425.271 305.298 425.138 305.305 425.006 305.305Z" fill="#B68B60"/>
<path d="M426.699 299.246C425.225 299.246 423.939 298.166 423.719 296.662C423.48 295.014 424.621 293.484 426.269 293.245L440.632 291.16C442.277 290.92 443.809 292.062 444.048 293.711C444.288 295.36 443.147 296.889 441.498 297.128L427.135 299.213C426.99 299.236 426.841 299.246 426.699 299.246Z" fill="#B68B60"/>
<path d="M425.959 294.144C424.575 294.144 423.331 293.187 423.021 291.78C422.662 290.154 423.687 288.544 425.312 288.185L436.902 285.618C438.528 285.259 440.138 286.284 440.496 287.91C440.855 289.537 439.83 291.147 438.205 291.506L426.615 294.073C426.395 294.121 426.175 294.144 425.962 294.144H425.959Z" fill="#B68B60"/>
<path d="M421.845 294.519C421.125 294.519 420.404 294.263 419.825 293.743C418.591 292.628 418.494 290.72 419.609 289.485L425.207 283.287C426.322 282.052 428.229 281.955 429.463 283.07C430.698 284.186 430.795 286.093 429.68 287.328L424.082 293.526C423.487 294.186 422.666 294.519 421.845 294.519Z" fill="#B68B60"/>
<path d="M416.375 307.72C416.291 307.72 416.207 307.717 416.123 307.71C414.471 307.571 413.243 306.123 413.382 304.471L414.636 289.404C414.775 287.752 416.226 286.526 417.874 286.662C419.526 286.801 420.754 288.25 420.615 289.902L419.361 304.969C419.232 306.537 417.92 307.72 416.375 307.72Z" fill="#B68B60"/>
<path d="M405.983 301.784C406.209 303.016 407.392 303.834 408.623 303.607C409.855 303.381 410.673 302.198 410.446 300.966C410.22 299.734 409.037 298.916 407.806 299.142C406.574 299.369 405.757 300.552 405.983 301.784Z" fill="white"/>
<path d="M399.918 432.472L405.064 431.192L405.694 425.191L409.243 424.308L413.157 429.177L434.688 423.813L433.845 420.286L433.825 420.215C433.176 417.609 431.152 415.559 428.551 414.88L425.354 414.046L419.95 412.636L415.374 405.633L415.092 405.203L407.743 407.454L406.819 407.738L394.883 411.398L395.93 415.782L398.209 425.323L399.075 428.948L399.918 432.475V432.472Z" fill="#240448"/>
<path d="M401.439 376.547L380.512 387.199L393.562 412.854L414.488 402.201L401.439 376.547Z" fill="#240448"/>
<path d="M390.99 393.593C386.714 393.593 382.59 391.249 380.519 387.172L366.026 358.681L332.869 338.18C327.714 335.215 323.91 330.236 322.41 324.474C322.058 323.116 321.948 321.703 322.094 320.307L323.416 307.532C324.085 301.079 329.854 296.394 336.302 297.06C342.753 297.726 347.439 303.497 346.77 309.951L345.875 318.609L381.171 340.433C383.001 341.565 384.487 343.178 385.464 345.095L401.449 376.519C404.39 382.3 402.089 389.371 396.31 392.313C394.604 393.182 392.787 393.593 390.993 393.593H390.99Z" fill="#240448"/>
<path d="M393.23 413.652C391.917 413.652 390.715 412.785 390.343 411.46C389.894 409.862 390.825 408.207 392.422 407.758L415.731 401.207C417.327 400.761 418.982 401.689 419.431 403.286C419.881 404.883 418.95 406.539 417.353 406.988L394.044 413.538C393.773 413.616 393.501 413.652 393.23 413.652Z" fill="#B68B60"/>
<path d="M290.424 363.697L270.5 378.024L284.205 397.097L304.129 382.77L290.424 363.697Z" fill="#240448"/>
<path d="M297.284 384.996C293.632 384.996 290.035 383.299 287.74 380.104C283.955 374.837 285.154 367.498 290.419 363.712L311.847 348.303L334.022 313.1C337.48 307.613 344.727 305.968 350.214 309.424C355.699 312.88 357.344 320.132 353.889 325.622L330.493 362.765C329.685 364.045 328.641 365.157 327.413 366.04L304.123 382.785C302.048 384.275 299.653 384.993 297.281 384.993L297.284 384.996Z" fill="#240448"/>
<path d="M349.333 329.964C348.596 329.964 347.846 329.893 347.096 329.751L334.168 327.255C327.801 326.026 323.635 319.867 324.863 313.498C326.091 307.128 332.248 302.961 338.615 304.189L351.543 306.685C357.91 307.914 362.076 314.073 360.848 320.442C359.765 326.059 354.846 329.964 349.333 329.964Z" fill="#240448"/>
<path d="M284.129 399.245C283.234 399.245 282.345 398.844 281.754 398.081L268.027 380.363C267.012 379.053 267.252 377.168 268.56 376.15C269.869 375.135 271.754 375.374 272.772 376.684L286.498 394.401C287.513 395.711 287.274 397.596 285.965 398.614C285.419 399.038 284.772 399.245 284.129 399.245Z" fill="#B68B60"/>
<path d="M322.988 306.349L360.98 315.725L366.21 288.974C367.761 280.529 364.3 271.861 357.186 267.056C353.676 264.683 349.445 263.299 344.888 263.299C332.742 263.299 322.895 273.151 322.895 285.301L322.988 306.352V306.349Z" fill="#793649"/>
<path d="M356.411 267.376L355.897 257.069L355.438 250.448L355.222 247.305C355.021 244.418 352.523 242.242 349.643 242.442C349.417 242.455 349.194 242.487 348.974 242.529C346.867 242.95 345.251 244.618 344.86 246.687C344.779 247.117 344.75 247.564 344.782 248.023L345.545 259.132L345.846 263.464C346.046 266.348 356.608 270.264 356.411 267.376Z" fill="#B68B60"/>
<path d="M319.331 358.891C317.789 362.888 319.192 367.236 322.401 369.648L327.511 365.972C328.678 365.135 329.67 364.077 330.436 362.862L334.783 355.959C333.652 354.73 332.171 353.786 330.423 353.301C325.869 352.044 321.031 354.481 319.331 358.888V358.891Z" fill="#793649"/>
<path d="M344.323 259.487L358.344 267.344L356.414 269.704L343.906 267.881L344.323 259.487Z" fill="white"/>
<path d="M358.29 255.863C361.538 254.395 362.983 250.57 361.516 247.318L359.311 242.439C357.375 238.155 352.337 236.251 348.054 238.187C343.772 240.124 341.868 245.165 343.804 249.448L344.318 250.587C346.719 255.902 352.973 258.265 358.287 255.863H358.29Z" fill="#B68B60"/>
<path d="M358.758 243.719L363.948 247.754C364.537 248.213 364.346 249.145 363.628 249.335L360.044 250.289L358.758 243.719Z" fill="#B68B60"/>
<path d="M350.857 243.002C350.857 243.002 351.031 244.602 350.834 245.375C350.576 246.377 349.855 247.082 348.882 247.421C347.66 247.851 346.164 247.842 344.875 247.864C341.953 247.916 338.197 246.028 339.626 242.487C340.111 241.285 341.342 240.399 342.638 240.412C341.782 240.538 340.854 240.286 340.25 239.668C339.645 239.047 339.419 238.055 339.791 237.269C340.214 236.374 341.284 235.934 342.273 235.963C343.262 235.992 344.196 236.396 345.104 236.797C345.356 235.543 346.135 234.379 347.263 233.777C348.391 233.176 349.858 233.199 350.905 233.932C351.238 234.168 351.539 234.489 351.633 234.886C351.723 235.284 351.549 235.762 351.167 235.911C350.977 234.696 351.749 233.399 352.909 232.992C354.07 232.584 355.482 233.108 356.096 234.175C356.258 234.459 356.364 234.792 356.377 235.119C356.293 235.381 356.07 235.827 356.07 236.05C357.408 236.273 360.088 234.712 358.527 233.147C360.088 232.924 361.875 234.039 362.544 235.381C363.103 236.5 362.945 237.761 362.298 238.802C360.876 241.094 358.009 241.527 355.576 241.948C354.179 242.187 351.416 242.846 351.416 242.846L350.896 242.992L350.86 243.002H350.857Z" fill="#240448"/>
<path d="M360.983 316.828C360.896 316.828 360.805 316.818 360.718 316.795L322.891 307.461C322.299 307.316 321.937 306.718 322.083 306.126C322.228 305.534 322.826 305.172 323.418 305.318L361.245 314.652C361.836 314.797 362.198 315.396 362.053 315.987C361.93 316.492 361.478 316.828 360.983 316.828Z" fill="white"/>
<path d="M352.341 318.334C355.142 317.794 356.976 315.085 356.436 312.283C355.897 309.481 353.189 307.647 350.388 308.187C347.587 308.726 345.754 311.435 346.293 314.237C346.832 317.039 349.54 318.873 352.341 318.334Z" fill="white"/>
<path d="M373.69 349.085C374.928 354.051 379.954 357.074 384.918 355.839C386.76 355.38 388.338 354.397 389.524 353.091L385.455 345.095C384.395 343.013 382.733 341.293 380.691 340.155L378.166 338.752C374.598 340.737 372.653 344.934 373.687 349.085H373.69Z" fill="#793649"/>
<path d="M358.05 297.258L364.57 290.736L358.05 284.213L351.53 290.736L358.05 297.258Z" fill="#B68B60"/>
<path d="M350.956 297.257L357.477 290.734L350.956 284.212L344.436 290.734L350.956 297.257Z" fill="white"/>
<path d="M362.276 249.746C361.818 249.419 361.216 249.196 360.457 249.122C359.41 249.018 358.34 249.309 357.461 249.885C356.481 250.525 355.664 251.369 354.397 251.017C353.922 250.884 353.476 250.654 353.036 250.435C351.97 249.901 350.955 249.222 350.027 248.472C350.027 248.472 350.021 248.469 350.021 248.466C350.021 248.466 344.956 250.903 344.953 250.903C344.462 251.236 346.705 253.72 346.928 253.978C349.122 256.545 352.493 258.243 355.932 258.091C357.887 258.003 359.943 257.37 361.498 256.154C363.592 254.515 364.277 251.162 362.283 249.746H362.276Z" fill="#240448"/>
<path d="M343.125 249.248C343.558 251.424 345.672 252.834 347.844 252.4C350.016 251.967 351.428 249.853 350.995 247.68C350.562 245.504 348.448 244.094 346.276 244.528C344.101 244.961 342.692 247.075 343.125 249.248Z" fill="#B68B60"/>
<path d="M308.318 286.29C304.116 286.29 300.464 283.177 299.895 278.899C299.278 274.24 302.552 269.963 307.209 269.345L335.205 265.634C339.859 265.016 344.138 268.291 344.755 272.95C345.373 277.609 342.099 281.887 337.441 282.504L309.446 286.216C309.067 286.268 308.689 286.29 308.318 286.29Z" fill="#B68B60"/>
<path d="M273.694 322.615C273.045 322.615 272.389 322.405 271.839 321.975C270.53 320.95 270.297 319.052 271.325 317.743L277.773 309.505C278.798 308.195 280.695 307.962 282.004 308.991C283.313 310.016 283.545 311.913 282.518 313.223L276.067 321.461C275.472 322.221 274.586 322.618 273.691 322.618L273.694 322.615Z" fill="#B68B60"/>
<path d="M302.565 271.546L276.734 295.39L288.272 307.898L314.103 284.053L302.565 271.546Z" fill="#B68B60"/>
<path d="M287.523 310.539C286.708 310.539 285.894 310.209 285.302 309.556L274.976 298.208C273.861 296.983 273.951 295.085 275.176 293.966C276.401 292.851 278.298 292.941 279.417 294.166L289.743 305.518C290.858 306.744 290.768 308.641 289.543 309.76C288.967 310.284 288.243 310.543 287.523 310.543V310.539Z" fill="#B68B60"/>
<path d="M283.251 292.003C282.427 292.948 282.524 294.383 283.468 295.208C284.412 296.032 285.847 295.935 286.671 294.991C287.495 294.047 287.398 292.611 286.454 291.787C285.51 290.962 284.075 291.059 283.251 292.003Z" fill="white"/>
<path d="M423.176 299.207C422.814 299.207 422.485 298.958 422.397 298.589C422.294 298.159 422.559 297.726 422.992 297.623C424.689 297.219 425.768 296.491 426.195 295.463C426.948 293.652 425.571 291.35 425.555 291.328C425.358 291.004 425.413 290.587 425.688 290.325L429.249 286.957C429.572 286.653 430.08 286.666 430.384 286.989C430.687 287.312 430.675 287.82 430.351 288.124L427.232 291.076C427.704 292.071 428.47 294.16 427.678 296.074C427.045 297.607 425.591 298.654 423.36 299.188C423.299 299.204 423.234 299.21 423.173 299.21L423.176 299.207Z" fill="#240448"/>
<path d="M334.782 432.113C334.475 432.113 334.172 431.99 333.945 431.751L325.904 423.125C325.474 422.663 325.5 421.942 325.959 421.508C326.421 421.078 327.142 421.104 327.575 421.563L335.616 430.189C336.046 430.652 336.02 431.373 335.561 431.806C335.342 432.01 335.06 432.113 334.782 432.113Z" fill="#603C93"/>
<path d="M523.075 261.107H492.481C491.851 261.107 491.34 260.597 491.34 259.966V200.511C491.34 199.881 491.851 199.37 492.481 199.37H523.075C523.705 199.37 524.216 199.881 524.216 200.511V259.966C524.216 260.597 523.705 261.107 523.075 261.107ZM493.625 258.822H521.934V201.653H493.625V258.822Z" fill="#328BBB"/>
<path d="M444.05 259.963H474.645V215.559H444.05V259.963Z" fill="#328BBB"/>
<path d="M539.191 259.963H569.785V171.157H539.191V259.963Z" fill="#328BBB"/>
<path d="M525.105 142.935L542.132 157.95L550.315 133.378L525.105 142.935Z" fill="#42A3C9"/>
<path d="M446.877 196.198L446.645 193.925C446.764 193.912 458.761 192.629 475.594 186.327C491.114 180.517 514.041 169.127 535.137 147.869L536.759 149.479C515.347 171.057 492.07 182.609 476.314 188.497C459.223 194.886 447.372 196.15 446.874 196.198H446.877Z" fill="#42A3C9"/>
<path d="M151.758 440.038C117.851 440.038 90.2656 412.442 90.2656 378.523C90.2656 344.604 117.851 317.009 151.758 317.009C185.665 317.009 213.25 344.604 213.25 378.523C213.25 412.442 185.665 440.038 151.758 440.038ZM151.758 319.295C119.111 319.295 92.5507 345.865 92.5507 378.523C92.5507 411.181 119.111 437.752 151.758 437.752C184.404 437.752 210.965 411.181 210.965 378.523C210.965 345.865 184.404 319.295 151.758 319.295Z" fill="#240448"/>
<path d="M151.755 378.588C151.539 378.588 151.319 378.527 151.125 378.397L122.273 359.267C121.746 358.917 121.604 358.209 121.953 357.682C122.302 357.159 123.01 357.013 123.536 357.362L152.389 376.493C152.915 376.842 153.058 377.55 152.709 378.077C152.489 378.41 152.127 378.588 151.755 378.588Z" fill="white"/>
<path d="M151.755 422.536C140.45 422.536 129.532 418.133 121.387 410.367V417.302C121.387 417.932 120.877 418.443 120.246 418.443C119.616 418.443 119.105 417.932 119.105 417.302V407.577V407.573V407.564C119.105 407.357 119.167 407.163 119.267 406.995C119.293 406.952 119.319 406.914 119.351 406.875C119.474 406.723 119.636 406.603 119.823 406.529C119.985 406.468 120.153 406.442 120.317 406.455L130.427 407.069C131.057 407.108 131.536 407.648 131.497 408.278C131.458 408.909 130.918 409.384 130.288 409.348L123.158 408.915C130.86 416.161 141.125 420.267 151.755 420.267C174.754 420.267 193.467 401.547 193.467 378.539C193.467 375.63 193.167 372.72 192.572 369.897C192.443 369.28 192.837 368.672 193.454 368.542C194.072 368.41 194.676 368.808 194.809 369.425C195.436 372.403 195.752 375.468 195.752 378.536C195.752 402.804 176.015 422.549 151.755 422.549V422.536Z" fill="white"/>
<path d="M173.486 388.617L150.613 378.181V331.439H152.898V376.709L174.433 386.538L173.486 388.617Z" fill="#240448"/>
<path d="M151.754 382.465C154.525 382.465 156.77 380.218 156.77 377.447C156.77 374.675 154.525 372.429 151.754 372.429C148.984 372.429 146.738 374.675 146.738 377.447C146.738 380.218 148.984 382.465 151.754 382.465Z" fill="white"/>
</svg>
