<svg width="133" height="133" viewBox="0 0 133 133" fill="none" xmlns="http://www.w3.org/2000/svg">
<g clip-path="url(#clip0_535_42827)">
<path d="M114.258 87.8606H127.961V128.97H114.258V87.8606Z" stroke="#623E91" stroke-width="4.0303" stroke-miterlimit="10" stroke-linecap="round" stroke-linejoin="round"/>
<path d="M57.6289 43.7288L62.6668 37.8849" stroke="#623E91" stroke-width="4.0303" stroke-miterlimit="10" stroke-linecap="round" stroke-linejoin="round"/>
<path d="M66.4961 57.0289V61.4622" stroke="#623E91" stroke-width="4.0303" stroke-miterlimit="10" stroke-linecap="round" stroke-linejoin="round"/>
<path d="M95.2081 40.1842C98.9453 24.374 89.1583 8.52773 73.3481 4.79049C57.5379 1.05324 41.6916 10.8403 37.9544 26.6504C34.2171 42.4606 44.0042 58.3069 59.8143 62.0442C75.6245 65.7814 91.4708 55.9944 95.2081 40.1842Z" stroke="#623E91" stroke-width="4.02956" stroke-miterlimit="10" stroke-linecap="round" stroke-linejoin="round"/>
<path d="M66.4961 5.23947V9.67281" stroke="#623E91" stroke-width="4.0303" stroke-miterlimit="10" stroke-linecap="round" stroke-linejoin="round"/>
<path d="M38.2852 33.4516H42.7185" stroke="#623E91" stroke-width="4.0303" stroke-miterlimit="10" stroke-linecap="round" stroke-linejoin="round"/>
<path d="M90.2734 33.4516H94.7068" stroke="#623E91" stroke-width="4.0303" stroke-miterlimit="10" stroke-linecap="round" stroke-linejoin="round"/>
<path d="M46.1445 13.0985L50.1748 17.1288" stroke="#623E91" stroke-width="4.0303" stroke-miterlimit="10" stroke-linecap="round" stroke-linejoin="round"/>
<path d="M82.8203 49.5728L86.8506 53.8046" stroke="#623E91" stroke-width="4.0303" stroke-miterlimit="10" stroke-linecap="round" stroke-linejoin="round"/>
<path d="M46.1445 53.8046L50.1748 49.5728" stroke="#623E91" stroke-width="4.0303" stroke-miterlimit="10" stroke-linecap="round" stroke-linejoin="round"/>
<path d="M82.8203 17.1288L86.8506 13.0985" stroke="#623E91" stroke-width="4.0303" stroke-miterlimit="10" stroke-linecap="round" stroke-linejoin="round"/>
<path d="M66.5 28.0107V18.9425" stroke="#623E91" stroke-width="4.0303" stroke-miterlimit="10" stroke-linecap="round" stroke-linejoin="round"/>
<path d="M71.9404 33.4516C71.9404 36.4743 69.5222 38.8925 66.4995 38.8925C63.4768 38.8925 61.0586 36.4743 61.0586 33.4516C61.0586 30.4288 63.4768 28.0107 66.4995 28.0107C69.5222 28.0107 71.9404 30.4288 71.9404 33.4516Z" stroke="#623E91" stroke-width="4.0303" stroke-miterlimit="10" stroke-linecap="round" stroke-linejoin="round"/>
<path d="M68.5156 116.476H82.2187V128.97H68.5156V116.476Z" stroke="#623E91" stroke-width="4.0303" stroke-miterlimit="10" stroke-linecap="round" stroke-linejoin="round"/>
<path d="M91.2852 101.765H104.988V128.97H91.2852V101.765Z" stroke="#623E91" stroke-width="4.0303" stroke-miterlimit="10" stroke-linecap="round" stroke-linejoin="round"/>
<path d="M88.4609 66.7015L127.152 39.497" stroke="#623E91" stroke-width="4.0303" stroke-miterlimit="10" stroke-linecap="round" stroke-linejoin="round"/>
<path d="M116.27 37.0788L127.151 39.497L124.733 50.3788" stroke="#623E91" stroke-width="4.0303" stroke-miterlimit="10" stroke-linecap="round" stroke-linejoin="round"/>
<path d="M70.7266 99.5485L109.619 72.3439" stroke="#623E91" stroke-width="4.0303" stroke-miterlimit="10" stroke-linecap="round" stroke-linejoin="round"/>
<path d="M98.7383 69.9258L109.62 72.344L107.202 83.2258" stroke="#623E91" stroke-width="4.0303" stroke-miterlimit="10" stroke-linecap="round" stroke-linejoin="round"/>
<path d="M58.0336 84.0319C60.4518 87.6591 61.8624 91.4879 62.467 95.7197C59.0412 96.5258 56.623 98.541 56.623 100.758C56.623 102.974 58.8397 104.989 62.2655 105.997C61.4594 110.027 59.8473 113.856 57.2276 117.483C54.2049 115.67 51.1821 115.267 49.57 116.879C47.9579 118.491 48.1594 121.514 49.973 124.738C46.3458 126.753 42.517 128.365 38.2852 128.97C37.4791 125.544 35.4639 123.126 33.2473 122.924C31.0306 122.924 29.0155 125.141 28.0079 128.567C23.9776 127.761 20.1488 126.149 16.5215 123.529C18.3352 120.506 18.7382 117.483 17.1261 115.67C15.5139 114.058 12.4912 114.259 9.26697 116.073C7.25182 112.849 5.6397 108.818 5.03516 104.586C8.46091 103.78 10.8791 101.765 11.0806 99.5485C11.0806 97.3319 8.66243 95.3167 5.23667 94.3091C6.04273 90.2788 7.65485 86.45 10.2745 82.8228C13.2973 84.8379 16.32 85.0394 18.1336 83.4273C19.7458 81.8152 19.5442 78.7925 17.7306 75.5682C21.3579 73.15 25.1867 71.7394 29.4185 71.1349C30.2246 74.5606 32.2397 76.9788 34.4564 77.1803C36.673 77.1803 38.6882 74.9637 39.6958 71.5379C43.7261 72.344 47.5549 73.9561 51.1821 76.5758C49.3685 79.5985 48.9655 82.6213 50.5776 84.4349C51.9882 86.047 55.0109 85.8455 58.0336 84.0319Z" stroke="#623E91" stroke-width="4.0303" stroke-miterlimit="10" stroke-linecap="round" stroke-linejoin="round"/>
<path d="M43.3241 90.2789C48.765 95.5182 48.9666 104.183 43.7272 109.624C38.4878 115.065 29.8226 115.267 24.3817 110.027C18.9408 104.788 18.7393 96.1228 23.9787 90.6819C29.2181 85.241 37.8832 85.0395 43.3241 90.2789Z" stroke="#623E91" stroke-width="4.0303" stroke-miterlimit="10" stroke-linecap="round" stroke-linejoin="round"/>
</g>
<defs>
<clipPath id="clip0_535_42827">
<rect width="133" height="133" fill="white"/>
</clipPath>
</defs>
</svg>
