<svg width="145" height="145" viewBox="0 0 145 145" fill="none" xmlns="http://www.w3.org/2000/svg">
<g clip-path="url(#clip0_535_42883)">
<path d="M1.30326 53.4787L39.8591 71.5762C40.2468 71.7582 40.6805 71.8182 41.1033 71.7497L55.1771 69.4511C63.22 68.138 71.4401 70.8145 77.1669 76.6118L88.9452 88.535C89.667 89.2655 90.0287 90.2324 89.9636 91.2573C89.8985 92.2822 89.4179 93.1955 88.6095 93.8293C87.3817 94.7916 85.6353 94.8341 84.3627 93.9323L72.8789 85.7962C71.2491 84.6414 69.0781 84.7728 67.5992 86.1147L59.207 93.7299C58.3389 94.5179 58.2736 95.8604 59.0615 96.7285C59.8493 97.5966 61.1914 97.662 62.0601 96.874L70.4243 89.2604L81.9082 97.3965C83.2507 98.3475 84.8329 98.8202 86.4134 98.8202C88.1224 98.8202 89.8292 98.2677 91.2288 97.1703C92.9771 95.7998 94.0601 93.7424 94.2007 91.5256C94.3414 89.3088 93.5265 87.1313 91.9656 85.5511L82.6274 76.0983C87.5657 74.873 92.7932 75.074 97.6442 76.7222L102.621 78.4133C103.164 78.5976 103.728 78.6887 104.29 78.6887C105.173 78.6887 106.052 78.4643 106.837 78.0233C106.847 78.0176 106.857 78.012 106.867 78.0063L143.558 56.6089C144.57 56.0181 144.913 54.7184 144.322 53.7057C143.732 52.6927 142.432 52.351 141.419 52.9412L104.747 74.3276C104.514 74.4547 104.237 74.4782 103.987 74.3933L99.0102 72.7024C92.5925 70.5218 85.6053 70.5224 79.1986 72.6778C72.5689 66.5666 63.438 63.801 54.4927 65.2612L41.0679 67.4539L3.10737 49.6355C2.04596 49.1374 0.781895 49.5939 0.283739 50.6551C-0.214416 51.7165 0.241849 52.9805 1.30326 53.4787Z" fill="#623E91"/>
<path d="M144.702 93.2672C144.187 92.2137 142.916 91.7772 141.863 92.2915L123.185 101.415C122.866 101.571 122.591 101.804 122.386 102.094L120.883 104.213C119.076 106.76 116.737 108.873 114.039 110.412C113.829 110.072 113.591 109.744 113.32 109.433L109.61 105.164C106.908 102.055 102.18 101.723 99.0704 104.426L98.765 104.691C97.1845 106.064 96.3235 107.961 96.212 109.903C96.1794 109.9 96.1469 109.896 96.1143 109.894C94.1243 109.754 92.1979 110.398 90.6915 111.707L90.3856 111.973C88.8042 113.347 87.9429 115.245 87.8322 117.188C85.8931 117.027 83.8934 117.614 82.3123 118.988L82.0061 119.254C80.4247 120.629 79.5637 122.527 79.4527 124.47C77.5133 124.308 75.5134 124.896 73.932 126.271L73.6266 126.536C72.1202 127.845 71.2139 129.662 71.0741 131.653C70.9346 133.643 71.5788 135.569 72.8876 137.076L74.6804 139.139L73.9648 139.772C73.9518 139.784 73.9385 139.795 73.9258 139.807C72.5434 141.093 70.2536 141.06 68.9054 139.743C67.7498 138.472 67.7135 136.536 68.8265 135.225C69.5536 134.368 69.4871 133.093 68.6745 132.317C67.8619 131.54 66.5851 131.532 65.762 132.297L65.5341 132.509C64.1515 133.795 61.8614 133.762 60.5135 132.445C59.3417 131.157 59.3168 129.207 60.4609 127.893C61.2024 127.041 61.1475 125.758 60.336 124.973C59.5248 124.188 58.2404 124.176 57.4136 124.945L57.3502 125.004C55.9676 126.289 53.6775 126.257 52.3296 124.939C51.1714 123.666 51.1369 121.728 52.2549 120.416C52.9107 119.647 52.9325 118.521 52.3072 117.727C51.6817 116.932 50.5827 116.689 49.6806 117.145C48.2829 117.853 46.5861 117.523 45.5538 116.343C44.3526 114.97 44.5049 112.801 45.8904 111.496L48.1731 109.474L55.2942 103.013C56.1623 102.225 56.2277 100.882 55.4397 100.014C54.6517 99.1457 53.3092 99.0806 52.4411 99.8686L45.3393 106.313L43.054 108.337C43.0413 108.349 43.0283 108.36 43.0158 108.372C41.8451 109.461 41.0801 110.839 40.7308 112.299L40.7149 112.29C36.8228 110.084 33.428 107.198 30.6245 103.711L29.4142 102.206C29.2189 101.963 28.9726 101.766 28.6927 101.629L3.13818 89.1279C2.08498 88.6134 0.813547 89.049 0.298409 90.1019C-0.216729 91.1551 0.21944 92.4265 1.27236 92.9417L26.402 105.235L27.316 106.371C30.4572 110.278 34.2607 113.512 38.6216 115.983L41.2663 117.482C41.5502 118.07 41.9128 118.629 42.3591 119.139C43.6498 120.614 45.405 121.495 47.2484 121.71C46.9855 123.886 47.6563 126.148 49.2473 127.859C49.2648 127.877 49.2826 127.896 49.3005 127.914C50.9416 129.555 53.1779 130.315 55.3698 130.181C55.3805 132.043 56.0697 133.901 57.4309 135.364C57.4484 135.383 57.4663 135.401 57.4841 135.419C59.1798 137.115 61.5115 137.87 63.7725 137.67C63.8271 139.471 64.5132 141.254 65.8223 142.662C65.8398 142.68 65.8576 142.699 65.8755 142.717C67.394 144.236 69.4228 144.999 71.4531 144.999C73.3767 144.999 75.3019 144.313 76.7958 142.934L77.5532 142.264C78.7321 143.217 80.17 143.788 81.7137 143.896C81.8923 143.909 82.0701 143.915 82.2475 143.915C84.0463 143.915 85.7654 143.274 87.1362 142.083L87.4425 141.817C89.0241 140.442 89.8851 138.544 89.9958 136.601C90.2036 136.618 90.4119 136.629 90.6208 136.629C92.3589 136.629 94.1047 136.028 95.5166 134.801L95.822 134.535C97.4036 133.161 98.2646 131.263 98.3753 129.319C98.583 129.337 98.7914 129.348 99.0003 129.348C100.738 129.348 102.484 128.746 103.896 127.519L104.201 127.254C105.708 125.945 106.614 124.128 106.754 122.137C106.756 122.104 106.756 122.071 106.758 122.038C106.965 122.055 107.173 122.066 107.38 122.066C109.118 122.066 110.864 121.464 112.275 120.238L112.581 119.972C114.194 118.57 115.057 116.624 115.14 114.641C118.797 112.765 121.959 110.033 124.346 106.668L125.536 104.991L143.726 96.1055C144.78 95.5918 145.217 94.3206 144.702 93.2672ZM84.6588 138.613L84.3525 138.879C83.7024 139.444 82.873 139.722 82.0115 139.662C81.1521 139.602 80.3675 139.21 79.8026 138.56L76.0927 134.291C75.5275 133.641 75.2496 132.809 75.3099 131.95C75.3701 131.09 75.7616 130.306 76.412 129.741L76.7174 129.475C77.3271 128.945 78.0806 128.686 78.8309 128.686C79.733 128.686 80.6305 129.061 81.2673 129.794L84.9772 134.064C86.1436 135.405 86.0007 137.446 84.6588 138.613ZM93.0374 131.332L92.732 131.597C91.3898 132.764 89.3485 132.621 88.1818 131.278L84.4719 127.009C83.3055 125.666 83.4485 123.625 84.7904 122.459L85.0966 122.193C86.4391 121.027 88.4801 121.17 89.6468 122.512L93.3567 126.781C94.5231 128.124 94.3801 130.165 93.0374 131.332ZM102.519 121.841C102.459 122.7 102.067 123.485 101.417 124.05L101.111 124.316C99.769 125.482 97.728 125.339 96.5613 123.997L92.8514 119.727C91.6847 118.385 91.8279 116.343 93.1701 115.177L93.4761 114.911C94.0682 114.397 94.8101 114.12 95.587 114.12C95.6635 114.12 95.7404 114.123 95.8174 114.128C96.6768 114.189 97.4613 114.58 98.0263 115.23L101.736 119.499C102.301 120.15 102.579 120.981 102.519 121.841ZM109.797 116.768L109.491 117.034C108.149 118.2 106.107 118.057 104.941 116.715L101.231 112.446C100.666 111.795 100.388 110.964 100.448 110.105C100.508 109.245 100.899 108.461 101.55 107.895L101.856 107.63C103.198 106.463 105.239 106.606 106.406 107.949L110.116 112.218C111.282 113.56 111.139 115.601 109.797 116.768Z" fill="#623E91"/>
<path d="M64.8219 59.4036L70.6976 61.5584C71.2371 61.7563 71.804 61.8553 72.3713 61.8553C72.9382 61.8553 73.5051 61.7563 74.0449 61.5584L79.9203 59.4036C85.2381 57.4534 89.9881 54.1447 93.6566 49.8348C97.2841 45.573 99.7811 40.425 100.877 34.9473C101.107 33.7976 100.362 32.6793 99.2125 32.4492C98.0616 32.2185 96.9442 32.9646 96.7144 34.114C94.7679 43.8388 87.7727 52.0018 78.4587 55.4172L72.583 57.572C72.4463 57.6221 72.296 57.6221 72.1593 57.572L66.2836 55.4172C55.0295 51.2902 47.4683 40.4635 47.4683 28.4767V10.0262C47.4683 9.52496 47.8255 9.09162 48.3174 8.99595L72.502 4.28584L96.4268 8.99142C96.9176 9.08794 97.2739 9.52128 97.2739 10.0214V25.4826C97.2739 26.655 98.2244 27.6055 99.3968 27.6055C100.569 27.6055 101.52 26.655 101.52 25.4826V10.0211C101.52 7.49752 99.7222 5.31243 97.2462 4.8256L72.9136 0.0399102C72.6444 -0.0130188 72.3676 -0.0133019 72.0981 0.0390611L47.5057 4.82843C45.0237 5.31187 43.2227 7.49781 43.2227 10.0262V28.4772C43.2227 42.2374 51.9027 54.666 64.8219 59.4036Z" fill="#623E91"/>
<path d="M72.9065 8.69224C72.6374 8.63903 72.3606 8.63903 72.0911 8.69139L53.4318 12.3251C52.4346 12.5193 51.7148 13.3927 51.7148 14.4089V28.4769C51.7148 38.6902 58.1575 47.9149 67.7464 51.4314L71.6411 52.8597C71.8768 52.9463 72.1245 52.9893 72.3719 52.9893C72.6195 52.9893 72.8669 52.946 73.1027 52.8597L76.9976 51.4314C86.5866 47.9152 93.0292 38.6902 93.0292 28.4769V14.3958C93.0292 13.3814 92.3114 12.5088 91.3159 12.3129L72.9065 8.69224ZM88.7836 28.4769C88.7836 36.9167 83.4598 44.5396 75.536 47.4453L72.3722 48.6058L69.2083 47.4456C61.2842 44.5396 55.9605 36.917 55.9605 28.4772V16.1583L72.495 12.9384L88.7836 16.1419V28.4769Z" fill="#623E91"/>
<path d="M66.9247 32.4107C66.0705 31.6074 64.7274 31.649 63.9239 32.5029C63.1209 33.3572 63.1622 34.7005 64.0162 35.5037L67.4427 38.7259C67.8375 39.0973 68.358 39.3022 68.8967 39.3022C68.9417 39.3022 68.9869 39.3008 69.0322 39.2979C69.6184 39.2606 70.1627 38.9818 70.536 38.5283L81.6344 25.0431C82.3794 24.1379 82.2495 22.7999 81.3443 22.055C80.4391 21.31 79.1012 21.4399 78.3562 22.3451L68.6988 34.0792L66.9247 32.4107Z" fill="#623E91"/>
</g>
<defs>
<clipPath id="clip0_535_42883">
<rect width="145" height="145" fill="white"/>
</clipPath>
</defs>
</svg>
