<svg width="16" height="17" viewBox="0 0 16 17" fill="none" xmlns="http://www.w3.org/2000/svg">
<path d="M8 8.88111V0.888111C8 0.63648 8.08533 0.425701 8.256 0.255776C8.42667 0.0858506 8.63763 0.000592074 8.88889 0H15.1111C15.363 0 15.5742 0.0852586 15.7449 0.255776C15.9156 0.426293 16.0006 0.637072 16 0.888111V5.32867C16 5.5803 15.9147 5.79137 15.744 5.96189C15.5733 6.13241 15.3624 6.21737 15.1111 6.21678H10.6667L8 8.88111ZM9.77778 4.44056H14.2222V1.77622H9.77778V4.44056ZM15.0667 16.0304C13.1556 16.0304 11.2924 15.6047 9.47733 14.7533C7.66222 13.9019 6.05481 12.777 4.65511 11.3785C3.25541 9.98 2.12948 8.374 1.27733 6.56048C0.425186 4.74695 -0.000591975 2.88577 6.17713e-07 0.976923C6.17713e-07 0.710489 0.0888894 0.488461 0.266667 0.310839C0.444445 0.133217 0.666667 0.0444055 0.933334 0.0444055H4.53333C4.74074 0.0444055 4.92593 0.111014 5.08889 0.24423C5.25185 0.377447 5.34815 0.547669 5.37778 0.754894L5.95555 3.86328C5.98518 4.07051 5.98133 4.25938 5.944 4.4299C5.90667 4.60042 5.82163 4.75199 5.68889 4.88461L3.53333 7.06048C4.15556 8.12622 4.93718 9.12534 5.87822 10.0579C6.81926 10.9904 7.85244 11.7971 8.97778 12.478L11.0667 10.3909C11.2 10.2577 11.3742 10.1576 11.5893 10.0907C11.8044 10.0238 12.0154 10.0055 12.2222 10.0357L15.2889 10.6573C15.4963 10.7017 15.6667 10.8018 15.8 10.9575C15.9333 11.1132 16 11.2944 16 11.501V15.0979C16 15.3643 15.9111 15.5864 15.7333 15.764C15.5556 15.9416 15.3333 16.0304 15.0667 16.0304ZM2.68889 5.37307L4.15556 3.90769L3.77778 1.82063H1.8C1.87407 2.4275 1.97778 3.02698 2.11111 3.61905C2.24444 4.21113 2.43704 4.7958 2.68889 5.37307ZM10.6444 13.3217C11.2222 13.5733 11.8113 13.7731 12.4116 13.9211C13.0119 14.0692 13.6154 14.1654 14.2222 14.2098V12.2559L12.1333 11.8341L10.6444 13.3217Z" fill="white"/>
</svg>
