<svg width="980" height="1090" viewBox="0 0 980 1090" fill="none" xmlns="http://www.w3.org/2000/svg">
<g clip-path="url(#clip0_881_16879)">
<path d="M0 -2L996 -19V1090H0V-2Z" fill="#93693F"/>
<path d="M505.5 -19H996V1090L505.5 722V-19Z" fill="#B68B60"/>
<path d="M161.537 881.815L159.625 1038.3L160.895 1038.31L162.806 881.83L161.537 881.815Z" fill="#483193"/>
<path d="M160.096 997.844C156.883 944.427 137.958 913.645 137.77 913.342L138.846 912.668C139.039 912.975 158.132 944.006 161.366 997.765L160.101 997.839L160.096 997.844Z" fill="#483193"/>
<path d="M161.971 947.229L160.711 947.071C160.741 946.823 164.029 922.16 184.129 902.06L185.026 902.958C165.229 922.755 162 946.986 161.971 947.229Z" fill="#483193"/>
<path d="M169.471 881.873C170.389 877.793 167.827 873.74 163.746 872.821C159.666 871.902 155.614 874.465 154.695 878.546C153.776 882.626 156.339 886.678 160.419 887.597C164.499 888.516 168.552 885.953 169.471 881.873Z" fill="#483193"/>
<path d="M137.783 916.08C140.275 916.08 142.295 914.059 142.295 911.567C142.295 909.074 140.275 907.054 137.783 907.054C135.29 907.054 133.27 909.074 133.27 911.567C133.27 914.059 135.29 916.08 137.783 916.08Z" fill="#483193"/>
<path d="M182.765 910.377C185.912 910.377 188.463 907.825 188.463 904.678C188.463 901.531 185.912 898.98 182.765 898.98C179.618 898.98 177.066 901.531 177.066 904.678C177.066 907.825 179.618 910.377 182.765 910.377Z" fill="#483193"/>
<path d="M112.801 948.469C112.801 948.469 127.247 951.995 133.595 963.977C139.938 975.959 149.103 977.367 150.864 977.015C150.864 977.015 157.911 975.607 154.742 965.738C154.742 965.738 148.047 943.535 112.806 948.469H112.801Z" fill="#483193"/>
<path d="M170.245 953.225C170.245 953.225 160.376 956.042 160.023 969.085C160.023 969.085 159.671 980.363 165.662 986.706L172.357 971.902L180.109 948.643C180.109 948.643 191.386 942.3 195.264 927.848C195.264 927.848 175.531 929.609 170.245 953.22V953.225Z" fill="#483193"/>
<path d="M113.363 980.878C119.414 978.245 130.051 979.827 136.161 981.741C140.654 983.15 144.909 985.58 147.553 989.587C149.051 991.858 149.899 994.457 150.28 997.135C150.647 999.719 148.922 1005.12 149.799 1007.14C149.799 1007.14 145.217 996.57 132.883 990.931C128.891 989.106 124.963 990.028 121.1 988.55C118.035 987.375 114.851 983.641 113.363 980.878Z" fill="#483193"/>
<path d="M168.479 1011.37C168.479 1011.37 164.953 999.039 174.469 986.353C174.469 986.353 183.575 971.723 208.337 973.38C211.059 973.563 213.762 974.253 216.232 975.408C218.186 976.326 220.308 977.615 221.692 979.306C221.692 979.306 208.882 978.086 192.839 987.231C184.829 991.794 177.857 998.097 172.54 1005.63L168.484 1011.37H168.479Z" fill="#483193"/>
<path d="M155.983 1042.39C155.636 1019.52 146.61 1000.16 146.516 999.967L147.448 999.525C147.542 999.719 156.662 1019.28 157.015 1042.38L155.983 1042.39Z" fill="#483193"/>
<path d="M159.832 1040.99L158.8 1040.96C160.189 991.164 148.178 968.614 148.059 968.391L148.966 967.895C149.09 968.123 152.086 973.672 154.947 985.496C157.58 996.376 160.566 1014.84 159.837 1040.99H159.832Z" fill="#483193"/>
<path d="M160.443 1041.22C159.977 1006.79 165.338 983.299 165.392 983.065L166.399 983.299C166.344 983.532 161.013 1006.9 161.479 1041.2L160.448 1041.22H160.443Z" fill="#483193"/>
<path d="M164.535 1041.49L163.504 1041.4C165.369 1018.11 170.293 1003.36 170.343 1003.22L171.32 1003.55C171.27 1003.69 166.385 1018.33 164.53 1041.48L164.535 1041.49Z" fill="#483193"/>
<path d="M141.227 1039.57H183.043V1071.78C183.043 1080.45 176.001 1087.49 167.327 1087.49H156.943C148.269 1087.49 141.227 1080.45 141.227 1071.78V1039.57Z" fill="url(#paint0_linear_881_16879)"/>
<path d="M172.649 1039.57V1071.8C172.649 1080.47 165.622 1087.49 156.953 1087.49H167.348C176.017 1087.49 183.044 1080.47 183.044 1071.8V1039.57H172.649Z" fill="url(#paint1_linear_881_16879)"/>
<path d="M184.924 1037.69H139.348V1041.45H184.924V1037.69Z" fill="url(#paint2_linear_881_16879)"/>
<path d="M184.924 1086.09H139.348V1089.84H184.924V1086.09Z" fill="url(#paint3_linear_881_16879)"/>
<path d="M151.744 1086.09H147.984V1089.84H151.744V1086.09Z" fill="url(#paint4_linear_881_16879)"/>
<path d="M151.744 1037.69H147.984V1041.45H151.744V1037.69Z" fill="url(#paint5_linear_881_16879)"/>
<path d="M475.622 545.49L495.742 542.589C495.742 542.589 499.189 541.433 499.997 543.343L502.809 553.866C502.809 553.866 503.31 555.434 502.854 555.845C502.854 555.845 503.325 557.561 501.535 558.553C501.535 558.553 501.192 559.639 499.665 559.773C499.665 559.773 500.032 561.375 497.82 561.345L493.555 560.809C493.555 560.809 489.037 560.13 488.343 558.117C488.343 558.117 484.47 559.535 481.97 556.381L476.753 554.843L469.835 556.034L467.137 546.189L475.617 545.495L475.622 545.49Z" fill="url(#paint6_linear_881_16879)"/>
<path d="M476.486 554.938L379.075 579.719L329.343 571.437L318.19 569.578L288.93 564.693L299.949 523.635L382.051 550.41L475.623 545.49L476.486 554.938Z" fill="#D9CDFF"/>
<path d="M313.038 699.923L334.483 1068.55H323.979L244.203 699.923H313.038Z" fill="url(#paint7_linear_881_16879)"/>
<path d="M303.269 699.923L232.901 1068.55H221.594L235.951 741.205C231.418 732.392 230.218 722.468 230.476 713.651C230.56 708.686 231.245 703.767 232.018 699.918H303.269V699.923Z" fill="url(#paint8_linear_881_16879)"/>
<path d="M274.202 699.923L230.48 713.655C230.565 708.691 231.249 703.772 232.023 699.923H274.207H274.202Z" fill="url(#paint9_linear_881_16879)"/>
<path d="M318.782 502.255L317.329 513.463L315.871 524.418L315.276 528.693L288.258 517.629L292.672 501.967L298.246 479.323L316.987 470.168L318.782 502.255Z" fill="url(#paint10_linear_881_16879)"/>
<path d="M315.286 528.733L313.04 699.923H232.02L233.983 671.243L234.271 665.005L236.131 623.322L239.374 550.603L283.016 524.339L288.243 517.658L315.286 528.733Z" fill="white"/>
<path d="M315.277 528.733L321.045 542.574L315.287 548.585L315.277 528.733Z" fill="#1D1D1D"/>
<path d="M318.308 542.569L326.485 686.404H303.945L315.431 543.541L318.308 542.569Z" fill="#1D1D1D"/>
<path d="M244.099 880.065H229.191C228.368 880.065 227.703 879.401 227.703 878.578C227.703 877.754 228.368 877.09 229.191 877.09H244.099C244.922 877.09 245.586 877.754 245.586 878.578C245.586 879.401 244.922 880.065 244.099 880.065Z" fill="#2A1968"/>
<path d="M317.33 513.463L315.877 524.413C308.349 521.16 310.913 508.841 310.913 508.841L317.33 513.463Z" fill="#FFA9A7"/>
<path d="M266.956 582.382L234.27 665.005L236.129 623.322L266.956 582.382Z" fill="#D9CDFF"/>
<path d="M226.643 647.25L273.221 574.378L239.414 550.628L202.605 636.732L205.859 743.406H214.25L226.643 647.25Z" fill="white"/>
<path d="M283.453 478.584C284.355 482.497 286.666 485.735 289.682 487.764C292.766 489.891 296.6 490.744 300.399 489.862C300.607 489.822 300.796 489.757 300.984 489.693C300.721 486.886 302.224 485.244 303.617 484.337C305.175 483.34 307.049 483.281 308.621 484.019C310.774 480.751 311.617 476.521 310.61 472.261C310.551 472.003 310.436 471.795 310.377 471.537L317.285 472.504L331.047 474.453C331.801 474.721 332.595 474.909 333.433 474.984C338.858 475.48 343.659 471.482 344.155 466.057C344.651 460.631 340.654 455.831 335.228 455.335C333.001 455.131 330.884 455.697 329.123 456.793C323.539 452.949 318.143 451.68 313.377 451.754C308.378 451.129 302.859 451.962 298.207 453.822C292.256 456.198 286.835 461.703 284.4 468.021C283.086 471.428 282.644 475.073 283.453 478.584Z" fill="black"/>
<path d="M308.528 509.391L311.782 497.782C311.782 497.643 311.811 497.553 311.816 497.415L312.159 490.462C312.159 490.377 312.139 490.293 312.139 490.204H313.815L313.155 488.036L309.813 468.765L320.188 466.498L334.862 474.989C334.862 474.989 335.319 477.543 335.934 480.994C336.043 481.614 336.157 482.264 336.276 482.933C337.53 490 339.157 499.245 339.117 499.378C338.894 500.127 338.061 500.668 337.297 500.668H334.352L333.077 511.281C332.809 513.517 331.47 515.486 329.482 516.557C327.498 517.629 325.117 517.663 323.099 516.657L308.523 509.386L308.528 509.391Z" fill="url(#paint11_linear_881_16879)"/>
<path d="M290.33 471.983C298.677 466.563 309.379 466.9 317.284 472.499C318.35 473.248 319.342 474.086 320.285 475.018C320.691 475.425 321.024 475.851 321.286 476.342C323.394 480.176 320.285 482.928 320.285 482.928C317.84 485.592 316.937 488.324 316.6 490.204H312.136C312.151 489.133 311.953 488.066 311.492 487.109C311.254 486.593 310.946 486.053 310.545 485.557C310.034 484.872 309.354 484.342 308.625 484.019C307.053 483.281 305.179 483.34 303.621 484.337C302.228 485.244 300.725 486.886 300.988 489.693C301.057 490.526 301.285 491.439 301.692 492.465C301.692 492.465 302.119 493.611 302.912 495.024L292.671 501.967L287.151 483.524C284.835 476.61 288.426 473.223 290.335 471.983H290.33Z" fill="black"/>
<path d="M333.769 496.691C331.453 496.691 330.203 492.034 330.203 487.655C330.203 483.276 331.453 478.619 333.769 478.619C336.085 478.619 337.335 483.276 337.335 487.655C337.335 492.034 336.085 496.691 333.769 496.691ZM333.769 479.774C332.762 479.774 331.354 482.775 331.354 487.655C331.354 492.535 332.757 495.54 333.769 495.54C334.781 495.54 336.184 492.54 336.184 487.655C336.184 482.77 334.781 479.774 333.769 479.774Z" fill="#483193"/>
<path d="M330.775 487.079H315.574V488.23H330.775V487.079Z" fill="#483193"/>
<path d="M227.144 648.341C227.03 648.341 226.916 648.317 226.807 648.272L216.412 643.764C215.986 643.576 215.787 643.08 215.971 642.653C216.154 642.227 216.655 642.028 217.082 642.212L227.476 646.72C227.903 646.908 228.101 647.404 227.918 647.831C227.779 648.148 227.466 648.341 227.144 648.341Z" fill="#2A1968"/>
<path d="M219.678 757.655C219.678 757.655 219.757 753.261 218.721 751.624C216.068 747.433 214.243 743.411 214.243 743.411H205.852L204.255 765.232C204.2 770.415 207.166 771.035 207.166 771.035C209.373 777.04 211.019 776.361 211.019 776.361C212.075 778.29 213.653 778.077 213.653 778.077C214.992 778.137 215.289 776.53 215.289 776.53C216.881 776.574 217.025 774.154 217.025 774.154L216.926 762.787C216.926 762.406 216.975 762.019 217.079 761.652L218.2 757.659H219.673L219.678 757.655Z" fill="url(#paint12_linear_881_16879)"/>
<path d="M219.698 757.56L218.845 761.741C218.344 764.196 219.296 766.314 217.119 767.548L214.277 769.165V756.083L219.698 757.56Z" fill="#FFA9A7"/>
<path d="M324.233 1070.93L332.059 1070.97L349.347 1083.22L357.326 1083.26C357.852 1083.26 358.323 1083.59 358.526 1084.07C358.725 1084.56 358.611 1085.12 358.239 1085.49L356.32 1087.39C354.728 1088.97 352.575 1089.85 350.334 1089.85L322.73 1089.83C321.937 1089.83 321.188 1089.31 320.702 1088.68C320.216 1088.05 320.047 1087.23 320.245 1086.46L324.233 1070.93V1070.93Z" fill="black"/>
<path d="M221.565 1070.93L229.391 1070.97L246.679 1083.22L254.658 1083.26C255.184 1083.26 255.655 1083.59 255.858 1084.07C256.057 1084.56 255.943 1085.12 255.571 1085.49L253.652 1087.39C252.06 1088.97 249.907 1089.85 247.666 1089.85L220.062 1089.83C219.269 1089.83 218.52 1089.31 218.034 1088.68C217.548 1088.05 217.379 1087.23 217.578 1086.46L221.565 1070.93V1070.93Z" fill="black"/>
<path d="M221.654 686.791C221.619 686.791 221.579 686.791 221.545 686.786C221.083 686.726 220.756 686.305 220.816 685.839L225.829 646.953L225.934 646.794L272.497 573.947C273.002 573.009 281.027 557.606 267.339 545.807C266.987 545.505 266.947 544.969 267.25 544.617C267.552 544.265 268.088 544.225 268.44 544.528C283.313 557.348 274.059 574.611 273.965 574.785L273.935 574.834L227.461 647.548L222.497 686.057C222.442 686.483 222.08 686.796 221.659 686.796L221.654 686.791Z" fill="#2A1968"/>
<path d="M366.219 722.012C366.219 723.639 367.538 724.958 369.165 724.958H440.802C442.429 724.958 443.748 723.639 443.748 722.012C443.748 720.385 442.429 719.066 440.802 719.066H369.165C366.219 719.066 366.219 722.012 366.219 722.012Z" fill="url(#paint13_linear_881_16879)"/>
<path d="M406.074 724.958H512.268C516.32 724.958 519.796 722.067 520.535 718.084L534.253 644.007C534.709 641.552 534.044 639.018 532.447 637.099C530.851 635.179 528.48 634.068 525.986 634.068H429.899C425.847 634.068 422.371 636.96 421.632 640.942L406.074 724.958Z" fill="url(#paint14_linear_881_16879)"/>
<path d="M478.951 686.418C484.225 681.608 485.261 674.156 481.263 669.772C477.266 665.388 469.75 665.733 464.476 670.543C459.201 675.352 458.166 682.804 462.164 687.188C466.161 691.572 473.677 691.227 478.951 686.418Z" fill="white"/>
<path d="M533.676 675.865C536.672 679.154 537.48 683.295 535.486 685.11C533.488 686.93 529.446 685.735 526.45 682.447C523.455 679.158 522.647 675.017 524.64 673.202C526.639 671.382 530.681 672.577 533.676 675.865Z" fill="#483193"/>
<path d="M543.998 661.315C546.135 665.357 545.932 669.656 543.542 670.916C541.156 672.176 537.486 669.924 535.354 665.887C533.216 661.845 533.42 657.546 535.81 656.286C538.195 655.026 541.865 657.278 544.003 661.315H543.998Z" fill="#483193"/>
<path d="M547.427 657.437C545.513 660.179 542.652 661.488 541.03 660.363C539.408 659.232 539.646 656.093 541.556 653.345C543.465 650.598 546.331 649.293 547.953 650.419C549.575 651.545 549.337 654.689 547.427 657.437Z" fill="#483193"/>
<path d="M552.906 675.352C556.206 670.293 556.54 664.666 553.652 662.781C550.764 660.897 545.748 663.47 542.448 668.528C539.148 673.587 538.814 679.214 541.702 681.099C544.59 682.983 549.606 680.41 552.906 675.352Z" fill="#483193"/>
<path d="M533.034 657.61C535.97 658.027 538.147 659.768 537.904 661.498C537.661 663.234 535.082 664.3 532.146 663.884C529.21 663.467 527.033 661.726 527.276 659.996C527.519 658.265 530.098 657.194 533.034 657.61Z" fill="#483193"/>
<path d="M540.704 705.264C545.795 705.264 549.923 698.466 549.923 690.079C549.923 681.692 545.795 674.894 540.704 674.894C535.612 674.894 531.484 681.692 531.484 690.079C531.484 698.466 535.612 705.264 540.704 705.264Z" fill="#483193"/>
<path d="M526.135 700.94C528.072 700.94 529.641 698.318 529.641 695.083C529.641 691.848 528.072 689.226 526.135 689.226C524.199 689.226 522.629 691.848 522.629 695.083C522.629 698.318 524.199 700.94 526.135 700.94Z" fill="#483193"/>
<path d="M522.3 691.15C523.768 692.221 524.442 693.803 523.802 694.681C523.163 695.559 521.452 695.405 519.979 694.339C518.511 693.268 517.836 691.686 518.476 690.808C519.116 689.93 520.827 690.084 522.3 691.15Z" fill="#483193"/>
<path d="M550.908 698.535H519.436C519.436 698.535 519.153 704.639 520.145 707.193C520.145 707.193 524.688 717.697 524.826 725.221H545.512C545.656 717.697 550.198 707.193 550.198 707.193C551.19 704.639 550.908 698.535 550.908 698.535Z" fill="white"/>
<path d="M550.906 698.535H542.481C542.481 698.535 542.763 704.639 541.771 707.193C541.771 707.193 537.229 717.697 537.09 725.221H545.516C545.66 717.697 550.202 707.193 550.202 707.193C551.194 704.639 550.911 698.535 550.911 698.535H550.906Z" fill="#D9CDFF"/>
<path d="M621.068 645.078C621.068 646.645 619.798 647.915 618.231 647.915C616.664 647.915 615.395 646.645 615.395 645.078C615.395 643.511 616.664 642.241 618.231 642.241C619.798 642.241 621.068 643.511 621.068 645.078Z" fill="white"/>
<path d="M622.998 642.301C622.998 643.521 622.006 644.513 620.786 644.513C619.566 644.513 618.574 643.521 618.574 642.301C618.574 641.081 619.566 640.089 620.786 640.089C622.006 640.089 622.998 641.081 622.998 642.301Z" fill="white"/>
<path d="M620.159 641.562C623.854 641.562 626.849 638.566 626.849 634.872C626.849 631.177 623.854 628.182 620.159 628.182C616.464 628.182 613.469 631.177 613.469 634.872C613.469 638.566 616.464 641.562 620.159 641.562Z" fill="white"/>
<path d="M613.356 627.328C613.356 628.489 612.418 629.426 611.258 629.426C610.097 629.426 609.16 628.489 609.16 627.328C609.16 626.168 610.097 625.231 611.258 625.231C612.418 625.231 613.356 626.168 613.356 627.328Z" fill="white"/>
<path d="M626.614 645.584C626.614 646.303 626.034 646.883 625.315 646.883C624.596 646.883 624.016 646.303 624.016 645.584C624.016 644.865 624.596 644.284 625.315 644.284C626.034 644.284 626.614 644.865 626.614 645.584Z" fill="white"/>
<path d="M627.534 626.59C627.534 628.499 625.987 630.046 624.078 630.046C622.168 630.046 620.621 628.499 620.621 626.59C620.621 624.68 622.168 623.133 624.078 623.133C625.987 623.133 627.534 624.68 627.534 626.59Z" fill="white"/>
<path d="M617.93 693.476C617.93 693.54 617.875 693.595 617.811 693.595H602.278C602.184 693.595 602.109 693.521 602.109 693.426V691.735H617.93V693.471V693.476Z" fill="#F8F9FB"/>
<path d="M622.757 659.301L622.708 659.728L621.483 669.627L619.796 683.314L618.666 692.489C618.646 692.623 618.532 692.722 618.403 692.722H601.64C601.502 692.722 601.392 692.618 601.378 692.489L600.242 683.314L598.556 669.627L597.331 659.728L597.281 659.301H622.762H622.757Z" fill="#F8F9FB"/>
<path d="M621.485 669.627L619.799 683.314H600.245L598.559 669.627H621.485Z" fill="#FF6160"/>
<path d="M610.016 677.279C613.259 677.279 615.888 674.65 615.888 671.407C615.888 668.164 613.259 665.535 610.016 665.535C606.773 665.535 604.145 668.164 604.145 671.407C604.145 674.65 606.773 677.279 610.016 677.279Z" fill="#FF6160"/>
<path d="M610.018 675.945C612.524 675.945 614.556 673.913 614.556 671.407C614.556 668.901 612.524 666.869 610.018 666.869C607.512 666.869 605.48 668.901 605.48 671.407C605.48 673.913 607.512 675.945 610.018 675.945Z" fill="white"/>
<path d="M621.788 654.59L621.57 653.583C621.535 653.4 621.366 653.266 621.173 653.266H620.399C620.34 653.112 620.191 653.003 620.018 653.003H617.94C617.766 653.003 617.617 653.112 617.558 653.266H616.02C615.341 653.266 614.661 653.34 613.997 653.484L612.822 653.747C612.226 653.881 611.621 653.945 611.011 653.945H598.573C598.37 653.945 598.201 654.094 598.172 654.287L598.078 654.912L597.676 657.521L622.378 657.293L621.793 654.58L621.788 654.59Z" fill="#2A1968"/>
<path d="M623.972 659.41V659.728H596.066V659.41C596.066 659.257 596.176 659.133 596.324 659.103V657.337C596.324 657.119 596.498 656.936 596.726 656.936H623.318C623.536 656.936 623.72 657.119 623.72 657.337V659.103C623.868 659.133 623.968 659.257 623.968 659.41H623.972Z" fill="#2A1968"/>
<path d="M617.224 724.11H637.562V712.798H617.224V724.11Z" fill="white"/>
<path d="M620.063 711.944H638.844V713.65H620.063V723.257H638.844V724.963H560.734V724.11V723.257V713.65V711.944H620.063Z" fill="url(#paint15_linear_881_16879)"/>
<path d="M565.217 711.945H631.801V704.263H565.217V711.945Z" fill="#ECDDB8"/>
<path d="M575.67 704.262H645.031V699.779H575.67V704.262Z" fill="url(#paint16_linear_881_16879)"/>
<path d="M582.293 699.779H634.152V693.59H582.293V699.779Z" fill="#483193"/>
<path d="M657.486 728.403L655.805 728.582L694.297 1089.96L695.979 1089.78L657.486 728.403Z" fill="#D9CDFF"/>
<path d="M609.684 728.445L571.129 1089.81L572.81 1089.99L611.366 728.625L609.684 728.445Z" fill="#D9CDFF"/>
<path d="M393.416 728.396L391.734 728.576L430.227 1089.95L431.908 1089.77L393.416 728.396Z" fill="white"/>
<path d="M345.602 728.453L307.047 1089.82L308.728 1090L347.284 728.632L345.602 728.453Z" fill="white"/>
<path d="M580.355 724.968H327.227V731.395H580.355V724.968Z" fill="white"/>
<path d="M676.308 724.968H580.355V731.395H676.308V724.968Z" fill="#D9CDFF"/>
<path d="M505.163 523.357C504.697 523.357 504.32 522.98 504.32 522.514V514.112C504.32 513.646 504.697 513.269 505.163 513.269C505.63 513.269 506.006 513.646 506.006 514.112V522.514C506.006 522.98 505.63 523.357 505.163 523.357Z" fill="#FFFFFD"/>
<path d="M489.583 527.265C489.29 527.265 489.008 527.111 488.849 526.843L484.648 519.568C484.415 519.166 484.554 518.645 484.956 518.412C485.357 518.179 485.878 518.318 486.111 518.72L490.312 525.995C490.545 526.397 490.406 526.917 490.004 527.151C489.87 527.225 489.727 527.265 489.583 527.265Z" fill="#FFFFFD"/>
<path d="M478.04 538.438C477.897 538.438 477.753 538.403 477.619 538.324L470.344 534.123C469.937 533.89 469.803 533.374 470.036 532.968C470.269 532.566 470.785 532.427 471.192 532.66L478.467 536.861C478.874 537.094 479.008 537.61 478.774 538.016C478.616 538.289 478.333 538.438 478.04 538.438Z" fill="#FFFFFD"/>
<path d="M470.269 573.664C469.976 573.664 469.694 573.51 469.535 573.242C469.302 572.841 469.441 572.32 469.843 572.087L477.118 567.886C477.525 567.653 478.04 567.792 478.273 568.194C478.506 568.596 478.368 569.116 477.966 569.349L470.691 573.55C470.557 573.624 470.413 573.664 470.269 573.664Z" fill="#FFFFFD"/>
<path d="M484.518 588.279C484.374 588.279 484.23 588.244 484.096 588.165C483.695 587.932 483.556 587.416 483.789 587.009L487.99 579.734C488.223 579.332 488.738 579.194 489.145 579.427C489.547 579.66 489.686 580.176 489.452 580.582L485.252 587.857C485.093 588.13 484.811 588.279 484.518 588.279Z" fill="#FFFFFD"/>
<path d="M504.16 593.809C503.693 593.809 503.316 593.432 503.316 592.966V584.565C503.316 584.098 503.693 583.721 504.16 583.721C504.626 583.721 505.003 584.098 505.003 584.565V592.966C505.003 593.432 504.626 593.809 504.16 593.809Z" fill="#FFFFFD"/>
<path d="M523.938 588.775C523.646 588.775 523.363 588.621 523.204 588.353L519.004 581.078C518.771 580.676 518.91 580.156 519.311 579.923C519.718 579.69 520.234 579.828 520.467 580.23L524.667 587.505C524.9 587.907 524.762 588.428 524.36 588.661C524.226 588.735 524.082 588.775 523.938 588.775Z" fill="#FFFFFD"/>
<path d="M538.555 574.532C538.411 574.532 538.267 574.497 538.133 574.418L530.858 570.217C530.456 569.984 530.318 569.468 530.551 569.062C530.784 568.66 531.3 568.521 531.706 568.754L538.981 572.955C539.383 573.188 539.522 573.704 539.289 574.11C539.13 574.383 538.848 574.532 538.555 574.532Z" fill="#FFFFFD"/>
<path d="M531.781 539.306C531.488 539.306 531.205 539.152 531.047 538.884C530.814 538.478 530.953 537.962 531.354 537.729L538.63 533.528C539.036 533.295 539.552 533.434 539.785 533.836C540.018 534.242 539.879 534.758 539.478 534.991L532.202 539.192C532.068 539.266 531.925 539.306 531.781 539.306Z" fill="#FFFFFD"/>
<path d="M520.608 527.765C520.464 527.765 520.32 527.731 520.186 527.651C519.785 527.418 519.646 526.903 519.879 526.496L524.079 519.221C524.312 518.819 524.828 518.68 525.235 518.913C525.637 519.146 525.775 519.662 525.542 520.069L521.342 527.344C521.183 527.617 520.9 527.765 520.608 527.765Z" fill="#FFFFFD"/>
<path d="M111.722 448.253H110.031V476.799H111.722V448.253Z" fill="#CEB77B"/>
<path d="M125.147 461.683H96.6016V463.374H125.147V461.683Z" fill="#CEB77B"/>
<path d="M110.874 494.399C93.2977 494.399 79 480.101 79 462.531C79 444.96 93.2977 430.657 110.874 430.657C128.449 430.657 142.747 444.955 142.747 462.531C142.747 480.106 128.449 494.399 110.874 494.399ZM110.874 432.348C94.2301 432.348 80.6911 445.887 80.6911 462.531C80.6911 479.174 94.2301 492.713 110.874 492.713C127.517 492.713 141.056 479.174 141.056 462.531C141.056 445.887 127.517 432.348 110.874 432.348Z" fill="#CEB77B"/>
<path d="M841.945 567.936H840.254V588.74H841.945V567.936Z" fill="#CEB77B"/>
<path d="M851.5 577.493H830.695V579.184H851.5V577.493Z" fill="#CEB77B"/>
<path d="M841.094 601.793C828.16 601.793 817.637 591.27 817.637 578.336C817.637 565.402 828.16 554.878 841.094 554.878C854.028 554.878 864.552 565.402 864.552 578.336C864.552 591.27 854.028 601.793 841.094 601.793ZM841.094 556.569C829.093 556.569 819.328 566.334 819.328 578.336C819.328 590.337 829.093 600.102 841.094 600.102C853.096 600.102 862.861 590.337 862.861 578.336C862.861 566.334 853.096 556.569 841.094 556.569Z" fill="#CEB77B"/>
<path d="M285.484 246.082H283.793V260.384H285.484V246.082Z" fill="#CEB77B"/>
<path d="M291.791 252.39H277.488V254.081H291.791V252.39Z" fill="#CEB77B"/>
<path d="M284.644 269.623C275.609 269.623 268.254 262.269 268.254 253.233C268.254 244.197 275.609 236.842 284.644 236.842C293.68 236.842 301.035 244.197 301.035 253.233C301.035 262.269 293.68 269.623 284.644 269.623ZM284.644 238.533C276.541 238.533 269.945 245.129 269.945 253.233C269.945 261.336 276.541 267.932 284.644 267.932C292.748 267.932 299.344 261.336 299.344 253.233C299.344 245.129 292.748 238.533 284.644 238.533Z" fill="#CEB77B"/>
<path d="M917.855 340.447H916.164V351.655H917.855V340.447Z" fill="#CEB77B"/>
<path d="M922.614 345.208H911.406V346.899H922.614V345.208Z" fill="#CEB77B"/>
<path d="M917.009 359.079C909.828 359.079 903.98 353.237 903.98 346.051C903.98 338.865 909.823 333.023 917.009 333.023C924.195 333.023 930.037 338.865 930.037 346.051C930.037 353.237 924.195 359.079 917.009 359.079ZM917.009 334.719C910.76 334.719 905.672 339.802 905.672 346.056C905.672 352.31 910.755 357.393 917.009 357.393C923.262 357.393 928.346 352.31 928.346 346.056C928.346 339.802 923.262 334.719 917.009 334.719Z" fill="#CEB77B"/>
<path d="M675.013 415.293C670.768 415.293 667.316 411.841 667.316 407.596C667.316 403.351 670.768 399.899 675.013 399.899C679.258 399.899 682.705 403.351 682.705 407.596C682.705 411.841 679.253 415.293 675.013 415.293ZM675.013 401.595C671.7 401.595 669.008 404.288 669.008 407.601C669.008 410.914 671.7 413.607 675.013 413.607C678.326 413.607 681.019 410.914 681.019 407.601C681.019 404.288 678.326 401.595 675.013 401.595Z" fill="#CEB77B"/>
<path d="M167.972 569.3C164.362 569.3 161.426 566.364 161.426 562.753C161.426 559.143 164.362 556.207 167.972 556.207C171.582 556.207 174.518 559.143 174.518 562.753C174.518 566.364 171.582 569.3 167.972 569.3ZM167.972 557.898C165.294 557.898 163.117 560.075 163.117 562.753C163.117 565.431 165.294 567.609 167.972 567.609C170.65 567.609 172.827 565.431 172.827 562.753C172.827 560.075 170.65 557.898 167.972 557.898Z" fill="#CEB77B"/>
<path d="M235.581 213.206C231.971 213.206 229.035 210.27 229.035 206.66C229.035 203.049 231.971 200.114 235.581 200.114C239.192 200.114 242.128 203.049 242.128 206.66C242.128 210.27 239.192 213.206 235.581 213.206ZM235.581 201.805C232.903 201.805 230.726 203.982 230.726 206.66C230.726 209.338 232.903 211.515 235.581 211.515C238.259 211.515 240.437 209.338 240.437 206.66C240.437 203.982 238.259 201.805 235.581 201.805Z" fill="#CEB77B"/>
<path d="M512.105 549.611C512.105 549.611 512.472 547.821 515.512 548.912C515.512 548.912 518.963 549.324 520.406 549.373C520.406 549.373 529.933 549.195 533.192 550.276L543.006 554.298L539.47 562.535L530.469 559.366C530.469 559.366 528.044 562.352 520.6 564.549L516.766 565.595C516.766 565.595 514.604 566.904 513.652 565.283L512.571 563.334C512.571 563.334 509.263 563.696 509.714 561.345C509.714 561.345 509.456 557.809 512.105 549.606V549.611Z" fill="url(#paint17_linear_881_16879)"/>
<path d="M817.701 764.394C817.701 759.276 813.55 755.12 808.428 755.12H792.047V760.7H808.428C810.466 760.7 812.122 762.356 812.122 764.394V774.422H792.047V780.001H817.701V764.394Z" fill="#483193"/>
<path d="M791.241 750.087L795.56 746.333L793.8 739.553L801.839 737.292L804.1 745.579L807.616 760.397C807.304 763.576 804.085 763.14 804.085 763.14C803.332 767.578 798.407 765.173 798.407 765.173C795.545 767.167 794.315 766.309 792.292 765.282C788.062 766.398 787.734 762.718 787.734 762.718C787.725 761.31 788.915 754.094 788.915 754.094C789.262 752.566 790.046 751.153 791.241 750.087Z" fill="url(#paint18_linear_881_16879)"/>
<path d="M693.524 710.675L674.059 1068.43H687.007L753.829 710.675H693.524Z" fill="url(#paint19_linear_881_16879)"/>
<path d="M684.057 1070.68L678.19 1070.72H677.124C677.124 1070.72 674.445 1080.36 673.642 1082.09C672.645 1084.23 667.621 1085.26 665.955 1085.6C665.405 1085.72 664.874 1085.98 664.443 1086.36C663.654 1087.01 662.692 1088.19 663.069 1089.84H677.411L682.028 1077.52L683.367 1089.84H684.979V1070.68H684.052L684.057 1070.68Z" fill="black"/>
<path d="M778.795 1070.68L772.928 1070.72H771.862C771.862 1070.72 769.184 1080.36 768.38 1082.09C767.384 1084.23 762.36 1085.26 760.693 1085.6C760.143 1085.72 759.612 1085.98 759.181 1086.36C758.392 1087.01 757.43 1088.19 757.807 1089.84H772.149L776.766 1077.52L778.106 1089.84H779.717V1070.68H778.79L778.795 1070.68Z" fill="black"/>
<path d="M627.553 572.499L702.711 557.417L692.168 596.67L632.245 601.759L532.324 562.069L536.083 549.676L627.553 572.499Z" fill="url(#paint20_linear_881_16879)"/>
<path d="M733.253 497.697C735.723 514.44 724.138 529.992 707.43 532.457C700.492 533.479 693.767 532.11 688.069 528.921C680.055 524.448 674.114 516.438 672.666 506.634C672.313 504.258 672.239 501.937 672.432 499.646C672.566 498.53 672.71 497.474 672.854 496.423C672.894 496.249 672.909 496.115 672.948 495.942C673.93 491.305 675.924 487.015 678.78 483.365C683.482 477.344 690.375 473.069 698.484 471.869C715.192 469.404 730.774 480.95 733.244 497.692L733.253 497.697Z" fill="black"/>
<path d="M721.483 542.698L701.76 579.486L689.084 540.367L685.34 528.723L684.402 525.871L697.773 506.822L721.483 542.698Z" fill="url(#paint21_linear_881_16879)"/>
<path d="M693.638 520.004C695.612 527.82 695.468 534.277 689.08 540.362L685.336 528.718L693.638 520.004Z" fill="#FFA9A7"/>
<path d="M695.774 513.711C695.149 514.435 694.876 515.506 694.891 516.538C694.851 521.904 691.885 526.402 688.067 528.926C686.46 529.997 684.734 530.716 682.983 531.009C678.575 531.793 674.166 529.878 672.172 524.051C671.939 523.387 671.022 515.333 671.126 515.387L671.116 515.323C670.511 515.278 669.569 515.219 668.939 515.214C668.403 515.194 667.977 514.792 667.907 514.301L667.887 514.172C667.823 513.751 667.957 513.294 668.18 512.997L671.84 506.436L672.147 502.662C672.232 501.65 672.316 500.638 672.435 499.656C672.569 498.54 672.713 497.484 672.856 496.433C672.896 496.259 672.911 496.125 672.951 495.952C673.933 491.315 675.926 487.025 678.783 483.375C683.965 495.49 687.948 505.121 687.948 505.121L690.586 505.196C690.695 503.45 691.082 501.327 691.568 500.355C692.322 498.912 693.577 497.96 694.955 497.826C696.334 497.687 697.544 498.441 698.461 499.706C702.027 504.472 698.7 510.353 695.769 513.716L695.774 513.711Z" fill="url(#paint22_linear_881_16879)"/>
<path d="M732.735 527.432C737.161 526.888 740.308 522.86 739.765 518.434C739.222 514.008 735.193 510.861 730.768 511.404C726.342 511.948 723.194 515.976 723.738 520.402C724.281 524.828 728.31 527.975 732.735 527.432Z" fill="black"/>
<path d="M779.73 1068.43H765.824L700.52 710.675H762.873L763.3 711.781C765.759 717.99 766.865 724.63 766.597 731.246C766.508 733.751 766.216 736.26 765.695 738.72C765.695 738.809 765.67 738.923 765.65 739.012L779.73 1068.43V1068.43Z" fill="url(#paint23_linear_881_16879)"/>
<path d="M765.722 573.594L724.678 541.205L693.499 565.174L687.9 581.038L680.531 608.404C679.752 611.285 679.569 614.325 680.005 617.281C680.813 622.756 683.179 630.765 690.072 633.081L693.524 710.67H762.865L758.709 684.847L765.727 573.594H765.722Z" fill="white"/>
<path d="M689.345 664.578C689.345 664.578 689.31 664.578 689.295 664.578C688.596 664.553 688.05 663.963 688.075 663.264L691.963 561.162C691.988 560.462 692.588 559.927 693.277 559.942C693.977 559.966 694.522 560.557 694.497 561.256L690.609 663.358C690.584 664.043 690.019 664.578 689.345 664.578Z" fill="#A77D69"/>
<path d="M689.074 556.068L696.578 572.419L724.761 542.465L718.379 534.585L689.074 556.068Z" fill="white"/>
<path d="M766.603 731.246C766.514 733.751 766.221 736.26 765.7 738.72L741.062 731.246H766.603Z" fill="#2A1968"/>
<path d="M772.564 731.246H707.146L705.782 710.665L696.726 574.601C696.726 574.601 695.214 567.058 699.94 561.305L724.682 541.21L765.73 573.595L761.941 650.142L760.226 684.802C760.226 684.802 770.685 696.625 772.569 731.246H772.564Z" fill="url(#paint24_linear_881_16879)"/>
<path d="M772.404 732.094H707.144C706.678 732.094 706.301 731.717 706.301 731.251C706.301 730.785 706.678 730.408 707.144 730.408H772.404C772.87 730.408 773.247 730.785 773.247 731.251C773.247 731.717 772.87 732.094 772.404 732.094Z" fill="#2A1968"/>
<path d="M761.936 650.141L760.22 684.802L737.789 608.29L761.936 650.141Z" fill="#2A1968"/>
<path d="M765.723 573.594L804.976 741.294L792.518 744.587L729.887 590.58L765.723 573.594Z" fill="url(#paint25_linear_881_16879)"/>
<path d="M681.047 661.31H697.68C698.717 661.31 699.555 662.148 699.555 663.185V690.203C699.555 691.239 698.717 692.078 697.68 692.078H681.047C680.01 692.078 679.172 691.239 679.172 690.203V663.185C679.172 662.148 680.01 661.31 681.047 661.31Z" fill="#483193"/>
<path d="M693.09 666.339H685.641C684.512 666.339 683.598 667.253 683.598 668.382V675.831C683.598 676.959 684.512 677.874 685.641 677.874H693.09C694.218 677.874 695.133 676.959 695.133 675.831V668.382C695.133 667.253 694.218 666.339 693.09 666.339Z" fill="white"/>
<path d="M689.859 664.578C689.74 664.578 689.621 664.563 689.507 664.528C688.832 664.335 688.451 663.631 688.644 662.956L724.182 540.804C724.376 540.129 725.08 539.747 725.754 539.941C726.429 540.134 726.811 540.838 726.617 541.513L691.079 663.666C690.92 664.221 690.409 664.578 689.864 664.578H689.859Z" fill="#C0966A"/>
<path d="M762.521 673.411C762.799 674.12 763.597 674.472 764.311 674.194L775.078 669.989C775.787 669.711 776.139 668.913 775.861 668.198C775.584 667.489 774.785 667.137 774.071 667.415L763.304 671.62C762.595 671.898 762.243 672.697 762.521 673.411Z" fill="#2A1968"/>
<path d="M760.512 897.314C760.512 898.078 761.132 898.693 761.895 898.693L773.456 898.673C774.219 898.673 774.834 898.053 774.834 897.289C774.834 896.525 774.214 895.91 773.451 895.91L761.89 895.93C761.127 895.93 760.512 896.55 760.512 897.314Z" fill="#2A1968"/>
<path d="M739.75 796.858H856.477V880.407C856.477 883.914 853.631 886.76 850.125 886.76H746.103C742.597 886.76 739.75 883.914 739.75 880.407V796.858Z" fill="#7751C7"/>
<path d="M856.237 770.048H740.005C736.497 770.048 733.652 772.892 733.652 776.401V816.036C733.652 819.544 736.497 822.388 740.005 822.388H856.237C859.745 822.388 862.59 819.544 862.59 816.036V776.401C862.59 772.892 859.745 770.048 856.237 770.048Z" fill="#623E91"/>
<path d="M763.337 838.03C763.337 840.674 761.195 842.816 758.551 842.816C755.908 842.816 753.766 840.674 753.766 838.03V808.989H763.342V838.03H763.337Z" fill="#483193"/>
<path d="M842.482 838.03C842.482 840.674 840.339 842.816 837.696 842.816C835.053 842.816 832.91 840.674 832.91 838.03V808.989H842.487V838.03H842.482Z" fill="#483193"/>
<path d="M784.81 774.427V764.399C784.81 762.361 786.466 760.705 788.504 760.705H792.04V755.125H788.504C783.381 755.125 779.23 759.276 779.23 764.399V780.006H792.04V774.427H784.81Z" fill="#483193"/>
<path d="M754.119 887.609H746.134C742.152 887.609 738.914 884.37 738.914 880.388V823.128C735.432 822.592 732.809 819.611 732.809 816.016V776.421C732.809 772.438 736.047 769.2 740.029 769.2H770.197C770.663 769.2 771.04 769.577 771.04 770.043C771.04 770.509 770.663 770.886 770.197 770.886H740.029C736.979 770.886 734.5 773.366 734.5 776.416V816.011C734.5 818.972 736.826 821.387 739.796 821.511L740.605 821.545V880.383C740.605 883.433 743.084 885.912 746.134 885.912H754.119C754.585 885.912 754.962 886.289 754.962 886.756C754.962 887.222 754.585 887.599 754.119 887.599V887.609Z" fill="#2A1968"/>
<path d="M825.951 823.207H739.753C739.287 823.207 738.91 822.83 738.91 822.364C738.91 821.898 739.287 821.521 739.753 821.521H825.951C826.417 821.521 826.794 821.898 826.794 822.364C826.794 822.83 826.417 823.207 825.951 823.207Z" fill="#2A1968"/>
<path d="M503.924 193.701V318.527C503.924 320.471 504.732 322.356 506.135 323.7C507.475 324.984 509.23 325.688 511.085 325.688C511.189 325.688 511.298 325.688 511.402 325.683C514.358 325.554 517.13 324.181 519.025 321.919C523.801 316.161 530.823 312.858 538.297 312.858C552.093 312.858 563.321 324.086 563.321 337.888C563.321 344.578 560.718 350.862 555.992 355.593C551.265 360.319 544.982 362.923 538.297 362.923C530.833 362.923 523.81 359.62 519.025 353.862C517.036 351.462 514.085 350.083 510.936 350.083C508.169 350.083 503.929 353.222 503.929 357.091V482.08C488.054 481.897 472.487 479.144 457.628 473.892C442.775 468.641 428.929 461.003 416.481 451.194L415.568 450.475L414.572 451.065L392.364 464.217L406.071 444.112L406.875 442.931L405.843 441.94C391.952 428.614 381.027 412.957 373.37 395.411C365.44 377.235 361.418 357.879 361.418 337.888C361.418 317.897 365.231 299.538 372.75 281.759C380.01 264.589 390.41 249.166 403.651 235.925C416.893 222.683 432.316 212.284 449.485 205.023C466.749 197.723 485.053 193.914 503.924 193.701ZM505.615 192C425.041 192 359.727 257.319 359.727 337.888C359.727 379.274 376.99 416.607 404.668 443.155L386.68 469.538L415.425 452.513C440.251 472.072 471.554 483.776 505.61 483.776V357.086C505.61 354.15 509.071 351.769 510.926 351.769C513.46 351.769 515.98 352.845 517.715 354.938C522.615 360.84 530.01 364.609 538.287 364.609C553.041 364.609 565.007 352.647 565.003 337.883C565.003 323.129 553.041 311.167 538.287 311.167C530.01 311.167 522.615 314.927 517.715 320.838C516.064 322.817 513.718 323.883 511.323 323.992C511.244 323.992 511.159 323.997 511.08 323.997C509.676 323.997 508.323 323.452 507.301 322.48C506.22 321.448 505.61 320.02 505.61 318.527V192H505.615Z" fill="white"/>
<path d="M606.58 443.189C634.263 416.637 651.501 379.279 651.501 337.888C651.501 257.314 586.182 192 505.613 192V318.532C505.613 320.025 506.223 321.448 507.304 322.48C508.381 323.511 509.834 324.062 511.326 323.992C513.722 323.888 516.068 322.817 517.719 320.838C522.619 314.927 530.013 311.167 538.29 311.167C553.044 311.167 565.006 323.129 565.006 337.883C565.006 352.647 553.044 364.609 538.29 364.609C530.013 364.609 522.619 360.84 517.719 354.938C515.983 352.845 513.464 351.769 510.93 351.769C509.075 351.769 505.613 354.15 505.613 357.086V483.776C539.674 483.776 571.012 472.102 595.838 452.538L624.548 469.538L606.585 443.184L606.58 443.189Z" fill="white"/>
</g>
<defs>
<linearGradient id="paint0_linear_881_16879" x1="154.715" y1="1038.12" x2="188.301" y2="1067.51" gradientUnits="userSpaceOnUse">
<stop stop-color="#C5D8FF"/>
<stop offset="1" stop-color="#6498FF"/>
</linearGradient>
<linearGradient id="paint1_linear_881_16879" x1="165.369" y1="1038.12" x2="193.875" y2="1053.69" gradientUnits="userSpaceOnUse">
<stop stop-color="#C5D8FF"/>
<stop offset="1" stop-color="#6498FF"/>
</linearGradient>
<linearGradient id="paint2_linear_881_16879" x1="154.049" y1="1037.57" x2="154.483" y2="1042.85" gradientUnits="userSpaceOnUse">
<stop stop-color="#C5D8FF"/>
<stop offset="1" stop-color="#6498FF"/>
</linearGradient>
<linearGradient id="paint3_linear_881_16879" x1="154.049" y1="1085.97" x2="154.483" y2="1091.25" gradientUnits="userSpaceOnUse">
<stop stop-color="#C5D8FF"/>
<stop offset="1" stop-color="#6498FF"/>
</linearGradient>
<linearGradient id="paint4_linear_881_16879" x1="149.197" y1="1085.97" x2="151.855" y2="1088.64" gradientUnits="userSpaceOnUse">
<stop stop-color="#C5D8FF"/>
<stop offset="1" stop-color="#6498FF"/>
</linearGradient>
<linearGradient id="paint5_linear_881_16879" x1="149.197" y1="1037.57" x2="151.855" y2="1040.24" gradientUnits="userSpaceOnUse">
<stop stop-color="#C5D8FF"/>
<stop offset="1" stop-color="#6498FF"/>
</linearGradient>
<linearGradient id="paint6_linear_881_16879" x1="4885.19" y1="133.953" x2="4826.01" y2="162.273" gradientUnits="userSpaceOnUse">
<stop stop-color="#FF928E"/>
<stop offset="1" stop-color="#FEB3B1"/>
</linearGradient>
<linearGradient id="paint7_linear_881_16879" x1="255.189" y1="684.252" x2="483.623" y2="801.297" gradientUnits="userSpaceOnUse">
<stop stop-color="#CCA0E0"/>
<stop offset="0.15" stop-color="#A76DC2"/>
<stop offset="0.73" stop-color="#815BB4"/>
<stop offset="1" stop-color="#623E91"/>
</linearGradient>
<linearGradient id="paint8_linear_881_16879" x1="231.532" y1="684.247" x2="446.302" y2="783.802" gradientUnits="userSpaceOnUse">
<stop stop-color="#CCA0E0"/>
<stop offset="0.15" stop-color="#A76DC2"/>
<stop offset="0.73" stop-color="#815BB4"/>
<stop offset="1" stop-color="#623E91"/>
</linearGradient>
<linearGradient id="paint9_linear_881_16879" x1="235.801" y1="699.339" x2="238.88" y2="719.846" gradientUnits="userSpaceOnUse">
<stop stop-color="#CCA0E0"/>
<stop offset="0.15" stop-color="#A76DC2"/>
<stop offset="0.73" stop-color="#815BB4"/>
<stop offset="1" stop-color="#623E91"/>
</linearGradient>
<linearGradient id="paint10_linear_881_16879" x1="4043.86" y1="-780.686" x2="3983.1" y2="-772.619" gradientUnits="userSpaceOnUse">
<stop stop-color="#FF928E"/>
<stop offset="1" stop-color="#FEB3B1"/>
</linearGradient>
<linearGradient id="paint11_linear_881_16879" x1="4072.76" y1="-621.154" x2="4012.21" y2="-611.886" gradientUnits="userSpaceOnUse">
<stop stop-color="#FF928E"/>
<stop offset="1" stop-color="#FEB3B1"/>
</linearGradient>
<linearGradient id="paint12_linear_881_16879" x1="2102.15" y1="2.35239" x2="2071.3" y2="5.84638" gradientUnits="userSpaceOnUse">
<stop stop-color="#FF928E"/>
<stop offset="1" stop-color="#FEB3B1"/>
</linearGradient>
<linearGradient id="paint13_linear_881_16879" x1="391.226" y1="718.889" x2="391.854" y2="727.172" gradientUnits="userSpaceOnUse">
<stop stop-color="#C5D8FF"/>
<stop offset="1" stop-color="#6498FF"/>
</linearGradient>
<linearGradient id="paint14_linear_881_16879" x1="447.465" y1="631.329" x2="508.023" y2="717.084" gradientUnits="userSpaceOnUse">
<stop stop-color="#C5D8FF"/>
<stop offset="1" stop-color="#6498FF"/>
</linearGradient>
<linearGradient id="paint15_linear_881_16879" x1="585.929" y1="711.552" x2="588.906" y2="729.466" gradientUnits="userSpaceOnUse">
<stop stop-color="#C5D8FF"/>
<stop offset="1" stop-color="#6498FF"/>
</linearGradient>
<linearGradient id="paint16_linear_881_16879" x1="622.658" y1="704.397" x2="622.251" y2="698.084" gradientUnits="userSpaceOnUse">
<stop stop-color="#C5D8FF"/>
<stop offset="1" stop-color="#6498FF"/>
</linearGradient>
<linearGradient id="paint17_linear_881_16879" x1="4610.95" y1="173.786" x2="4556.25" y2="200.261" gradientUnits="userSpaceOnUse">
<stop stop-color="#FF928E"/>
<stop offset="1" stop-color="#FEB3B1"/>
</linearGradient>
<linearGradient id="paint18_linear_881_16879" x1="3233.92" y1="115.651" x2="3194.84" y2="122.453" gradientUnits="userSpaceOnUse">
<stop stop-color="#FF928E"/>
<stop offset="1" stop-color="#FEB3B1"/>
</linearGradient>
<linearGradient id="paint19_linear_881_16879" x1="683.766" y1="695.466" x2="893.054" y2="793.099" gradientUnits="userSpaceOnUse">
<stop stop-color="#CCA0E0"/>
<stop offset="0.15" stop-color="#A76DC2"/>
<stop offset="0.73" stop-color="#815BB4"/>
<stop offset="1" stop-color="#623E91"/>
</linearGradient>
<linearGradient id="paint20_linear_881_16879" x1="553.058" y1="547.462" x2="564.434" y2="625.327" gradientUnits="userSpaceOnUse">
<stop stop-color="#CCA0E0"/>
<stop offset="0.15" stop-color="#A76DC2"/>
<stop offset="0.73" stop-color="#815BB4"/>
<stop offset="1" stop-color="#623E91"/>
</linearGradient>
<linearGradient id="paint21_linear_881_16879" x1="5246.65" y1="-1046.23" x2="5172.79" y2="-1036.63" gradientUnits="userSpaceOnUse">
<stop stop-color="#FF928E"/>
<stop offset="1" stop-color="#FEB3B1"/>
</linearGradient>
<linearGradient id="paint22_linear_881_16879" x1="4621.77" y1="-538.285" x2="4558.53" y2="-527.462" gradientUnits="userSpaceOnUse">
<stop stop-color="#FF928E"/>
<stop offset="1" stop-color="#FEB3B1"/>
</linearGradient>
<linearGradient id="paint23_linear_881_16879" x1="710.158" y1="695.466" x2="918.497" y2="791.973" gradientUnits="userSpaceOnUse">
<stop stop-color="#CCA0E0"/>
<stop offset="0.15" stop-color="#A76DC2"/>
<stop offset="0.73" stop-color="#815BB4"/>
<stop offset="1" stop-color="#623E91"/>
</linearGradient>
<linearGradient id="paint24_linear_881_16879" x1="705.753" y1="533.132" x2="848.588" y2="652.757" gradientUnits="userSpaceOnUse">
<stop stop-color="#CCA0E0"/>
<stop offset="0.15" stop-color="#A76DC2"/>
<stop offset="0.73" stop-color="#815BB4"/>
<stop offset="1" stop-color="#623E91"/>
</linearGradient>
<linearGradient id="paint25_linear_881_16879" x1="739.024" y1="566.325" x2="869.104" y2="685.835" gradientUnits="userSpaceOnUse">
<stop stop-color="#CCA0E0"/>
<stop offset="0.15" stop-color="#A76DC2"/>
<stop offset="0.73" stop-color="#815BB4"/>
<stop offset="1" stop-color="#623E91"/>
</linearGradient>
<clipPath id="clip0_881_16879">
<rect width="1342" height="1109" fill="white" transform="translate(0 -19)"/>
</clipPath>
</defs>
</svg>
