<svg width="298" height="249" viewBox="0 0 298 249" fill="none" xmlns="http://www.w3.org/2000/svg">
<path d="M285.174 225.592L298.001 215.437L282.39 207.139C278.023 210.605 270.218 211.124 264.896 208.285C259.601 205.446 258.81 200.369 263.176 196.902L247.593 188.63L232.173 180.441C227.806 183.908 219.973 184.399 214.679 181.588C209.384 178.748 208.62 173.671 212.986 170.231L197.375 161.933L184.548 172.115C179.254 169.276 171.175 169.576 166.754 172.989C165.58 173.889 164.816 174.872 164.352 175.909C164.789 174.845 165.58 173.808 166.727 172.879C171.093 169.413 178.926 168.894 184.221 171.706L197.048 161.551L181.437 153.252C177.043 156.528 169.401 156.992 164.216 154.235C159.03 151.478 158.239 146.537 162.305 143.07L146.667 134.771L133.84 144.926L146.34 134.989L130.128 126.363C125.761 129.83 118.365 130.376 113.098 127.482C108.568 124.971 107.176 119.812 111.542 116.345L95.9314 108.183L83.1861 118.283L82.5857 117.901C82.0126 117.601 81.3848 117.355 80.7571 117.109C81.6578 117.382 82.5038 117.71 83.2953 118.119L96.1225 107.964L80.5115 99.6384C76.1175 102.914 68.4758 103.378 63.2903 100.621C58.1049 97.864 57.3134 92.923 61.3799 89.4561L45.7689 81.1575L32.9417 91.3397C27.6471 88.528 19.8143 89.0467 15.4476 92.5135C11.0809 95.9804 11.8451 101.058 17.1397 103.87L4.3125 114.052L19.9235 122.35C15.5568 125.817 16.2936 130.895 21.6156 133.734C26.9102 136.546 34.7703 136.027 39.137 132.56L54.7207 140.859L67.4933 130.731H67.5205L54.5023 141.077L69.4583 149.048C65.228 152.515 66.0195 157.538 71.2868 160.322C76.5542 163.107 84.2505 162.615 88.6445 159.258L104.883 167.884L117.956 157.51C112.661 154.699 111.924 149.594 116.264 146.127C116.837 145.69 117.437 145.281 118.092 144.953C117.437 145.281 116.864 145.69 116.318 146.1C111.952 149.567 112.716 154.644 118.011 157.456L105.183 167.638L120.794 175.937C116.428 179.404 117.165 184.508 122.486 187.32C127.781 190.159 135.641 189.613 140.008 186.174L155.592 194.445L168.255 184.399C168.419 184.508 168.555 184.618 168.719 184.699L155.864 194.882L171.475 203.18C167.109 206.647 167.846 211.725 173.168 214.536C178.462 217.375 186.322 216.829 190.689 213.39L206.791 222.043L206.846 221.989L221.693 229.878C217.326 233.345 218.09 238.45 223.385 241.261C228.679 244.1 236.512 243.554 240.879 240.087L256.49 248.386L269.317 238.204C274.639 241.043 282.472 240.524 286.811 237.057C291.178 233.591 290.414 228.486 285.119 225.674L285.174 225.592ZM164.161 176.455C164.079 176.728 163.97 177.001 163.943 177.302C163.97 177.029 164.079 176.728 164.161 176.455ZM163.943 178.776C163.943 178.776 163.943 178.667 163.943 178.639C163.943 178.694 163.943 178.748 163.943 178.776Z" fill="#3A3A3A"/>
<path d="M57.0924 82.3314V92.459L50.2148 91.5035L51.7978 82.3314H57.0924Z" fill="#8A8B8C"/>
<path d="M107.53 108.483V118.611L100.652 117.628L102.235 108.483H107.53Z" fill="#8A8B8C"/>
<path d="M158.022 135.89V146.018L151.145 145.063L152.727 135.89H158.022Z" fill="#8A8B8C"/>
<path d="M208.862 163.352V173.507L201.984 172.524L203.567 163.352H208.862Z" fill="#8A8B8C"/>
<mask id="mask0_701_19559" style="mask-type:luminance" maskUnits="userSpaceOnUse" x="8" y="90" width="5" height="12">
<path d="M8.33594 95.4891V90.5208C8.33594 92.8412 9.86427 95.1342 12.8391 96.7175V101.686C9.89156 100.102 8.33594 97.8094 8.33594 95.4891Z" fill="white"/>
</mask>
<g mask="url(#mask0_701_19559)">
<path d="M12.8547 96.7175V101.686C9.90721 100.102 8.35156 97.8094 8.35156 95.4891V90.5208C8.35156 92.8412 9.87991 95.1342 12.8547 96.7175Z" fill="#6D6E6E"/>
</g>
<path d="M91.8663 100.812L91.8936 105.78L79.0664 115.963L79.0391 110.994L91.8663 100.812Z" fill="#9A9C9D"/>
<path d="M15.611 115.198L15.6383 120.167L0.0272977 111.868L0 106.9L15.611 115.198Z" fill="#707172"/>
<mask id="mask1_701_19559" style="mask-type:luminance" maskUnits="userSpaceOnUse" x="58" y="109" width="22" height="14">
<path d="M58.735 122.296V117.328C58.7077 115.499 59.6356 113.67 61.546 112.168C65.9127 108.701 73.7455 108.183 79.0401 110.995V115.963C73.7728 113.151 65.94 113.67 61.5733 117.137C59.6629 118.665 58.735 120.494 58.735 122.296Z" fill="white"/>
</mask>
<g mask="url(#mask1_701_19559)">
<path d="M79.0351 110.995V115.963C78.4074 115.608 77.6978 115.308 76.9609 115.062V110.094C77.6705 110.339 78.3528 110.64 79.0351 110.995Z" fill="#6D6E6E"/>
<path d="M76.9577 110.094V115.062C76.4118 114.871 75.8387 114.707 75.2383 114.571V109.602C75.8114 109.739 76.4118 109.903 76.9577 110.094Z" fill="#717272"/>
<path d="M75.1886 109.602V114.571C74.7246 114.461 74.206 114.379 73.6875 114.298V109.329C74.1788 109.411 74.6973 109.493 75.1886 109.602Z" fill="#757677"/>
<path d="M73.6575 109.329V114.298C73.1935 114.243 72.7295 114.188 72.2383 114.161V109.193C72.7022 109.193 73.1935 109.247 73.6575 109.329Z" fill="#797A7B"/>
<path d="M72.2121 109.193V114.161C71.7482 114.161 71.2842 114.134 70.793 114.161V109.193C71.2569 109.193 71.7209 109.193 72.2121 109.193Z" fill="#7D7F7F"/>
<path d="M70.7628 109.193V114.161C70.2716 114.161 69.7803 114.216 69.2891 114.243V109.275C69.753 109.22 70.2716 109.193 70.7628 109.193Z" fill="#828383"/>
<path d="M69.2626 109.275V114.243C68.744 114.298 68.1982 114.379 67.6523 114.489V109.52C68.1709 109.411 68.7167 109.329 69.2626 109.275Z" fill="#868788"/>
<path d="M67.6251 109.52V114.489C66.9701 114.625 66.2878 114.789 65.6328 115.007V110.039C66.2605 109.821 66.9428 109.657 67.6251 109.52Z" fill="#8A8B8C"/>
<path d="M65.6077 110.039V115.007C64.1066 115.499 62.7147 116.209 61.5684 117.137C61.2137 117.437 60.8861 117.71 60.5859 118.038V113.069C60.8589 112.769 61.1864 112.469 61.5412 112.168C62.6874 111.24 64.0793 110.53 65.6077 110.039Z" fill="#8E8F90"/>
<path d="M60.5568 113.069V118.038C60.202 118.447 59.8745 118.856 59.6016 119.293V114.325C59.8472 113.888 60.1747 113.479 60.5568 113.069Z" fill="#8A8B8C"/>
<path d="M59.5733 114.325V119.293C59.3822 119.621 59.2185 119.976 59.082 120.331V115.362C59.1912 115.007 59.355 114.68 59.5733 114.325Z" fill="#868788"/>
<path d="M59.0542 115.335V120.303C58.9723 120.631 58.8632 120.931 58.8086 121.259V116.29C58.8359 115.963 58.945 115.635 59.0542 115.335Z" fill="#828383"/>
<path d="M58.785 116.29V121.259C58.7577 121.559 58.7304 121.886 58.7031 122.187V117.218C58.7031 116.891 58.7031 116.591 58.785 116.29Z" fill="#7D7F7F"/>
</g>
<mask id="mask2_701_19559" style="mask-type:luminance" maskUnits="userSpaceOnUse" x="12" y="120" width="6" height="12">
<path d="M12.8047 125.353V120.385C12.8047 122.705 14.333 124.998 17.3078 126.582V131.55C14.3603 129.967 12.8047 127.674 12.8047 125.353Z" fill="white"/>
</mask>
<g mask="url(#mask2_701_19559)">
<path d="M17.3078 126.582V131.55C14.3603 129.967 12.8047 127.674 12.8047 125.353V120.385C12.8047 122.705 14.333 124.998 17.3078 126.582Z" fill="#6D6E6E"/>
</g>
<mask id="mask3_701_19559" style="mask-type:luminance" maskUnits="userSpaceOnUse" x="17" y="125" width="18" height="9">
<path d="M34.8262 125.408V130.376C30.4867 133.843 22.6267 134.362 17.332 131.523V126.554C22.5994 129.366 30.4594 128.847 34.8262 125.381V125.408Z" fill="white"/>
</mask>
<g mask="url(#mask3_701_19559)">
<path d="M34.8205 125.408V130.376C33.7015 131.277 32.3096 131.987 30.7812 132.505V127.537C32.2823 127.046 33.6742 126.336 34.8205 125.408Z" fill="#8E8F90"/>
<path d="M30.7618 127.537V132.505C30.1341 132.724 29.4518 132.887 28.7695 133.024V128.056C29.4245 127.919 30.1068 127.755 30.7618 127.537Z" fill="#8A8B8C"/>
<path d="M28.743 128.056V133.024C28.2245 133.133 27.6787 133.215 27.1328 133.27V128.301C27.6514 128.247 28.2245 128.165 28.743 128.056Z" fill="#868788"/>
<path d="M27.1027 128.301V133.27C26.6387 133.324 26.1202 133.352 25.6289 133.352V128.383C26.1202 128.383 26.6114 128.329 27.1027 128.301Z" fill="#828383"/>
<path d="M25.6067 128.411V133.379C25.1427 133.379 24.6515 133.379 24.1875 133.379V128.411C24.6515 128.411 25.1427 128.438 25.6067 128.411Z" fill="#7D7F7F"/>
<path d="M24.1262 128.383V133.352C23.6622 133.352 23.171 133.297 22.707 133.215V128.247C23.171 128.301 23.6349 128.356 24.1262 128.383Z" fill="#797A7B"/>
<path d="M22.6807 128.247V133.215C22.1895 133.161 21.6709 133.051 21.1797 132.942V127.974C21.6436 128.083 22.1622 128.165 22.6807 128.247Z" fill="#757677"/>
<path d="M21.1569 127.974V132.942C20.5838 132.806 19.9833 132.642 19.4375 132.451V127.482C19.9833 127.674 20.5565 127.837 21.1569 127.974Z" fill="#717272"/>
<path d="M19.3789 127.483V132.451C18.6693 132.205 17.987 131.905 17.3047 131.55V126.582C17.9324 126.937 18.642 127.237 19.3789 127.483Z" fill="#6D6E6E"/>
</g>
<path d="M50.404 133.706L50.4313 138.675L34.8476 130.376L34.8203 125.408L50.404 133.706Z" fill="#707172"/>
<path d="M17.3031 126.582C11.9811 123.77 11.2443 118.665 15.611 115.198L0 106.9L12.8272 96.7175C7.53256 93.9058 6.7684 88.8283 11.1351 85.3614C15.5018 81.8946 23.3346 81.3759 28.6292 84.1876L41.4564 74.0054L57.0947 82.304C53.0555 85.7709 53.8196 90.7119 59.0051 93.469C64.1906 96.2261 71.8323 95.762 76.2263 92.4862L91.8373 100.812L79.0101 110.967C73.7154 108.155 65.8827 108.674 61.516 112.141C57.1493 115.608 57.9134 120.685 63.208 123.497L50.3809 133.679L34.7972 125.381C30.4305 128.847 22.5704 129.366 17.2758 126.554L17.3031 126.582Z" fill="#E5DFDF"/>
<path d="M63.2413 123.524L63.2685 128.493L50.4414 138.675L50.4141 133.706L63.2413 123.524Z" fill="#9A9C9D"/>
<path d="M142.054 127.81L142.082 132.778L129.5 142.77L129.473 137.801L142.054 127.81Z" fill="#AAABAB"/>
<path d="M65.1708 141.869L65.1981 146.837L50.2421 138.866L50.2148 133.898L65.1708 141.869Z" fill="#7C7C7D"/>
<mask id="mask4_701_19559" style="mask-type:luminance" maskUnits="userSpaceOnUse" x="109" y="135" width="21" height="15">
<path d="M109.176 149.103V144.134C109.149 142.305 110.077 140.476 111.987 138.948C116.354 135.481 124.16 134.962 129.482 137.801V142.77C124.187 139.958 116.381 140.476 112.015 143.916C110.104 145.445 109.149 147.274 109.176 149.103Z" fill="white"/>
</mask>
<g mask="url(#mask4_701_19559)">
<path d="M129.488 137.801V142.769C128.833 142.415 128.151 142.114 127.414 141.869V136.9C128.124 137.146 128.833 137.446 129.488 137.801Z" fill="#787879"/>
<path d="M127.387 136.9V141.869C126.841 141.677 126.241 141.514 125.641 141.377V136.409C126.214 136.545 126.814 136.709 127.387 136.9Z" fill="#7C7D7D"/>
<path d="M125.642 136.409V141.377C125.178 141.268 124.659 141.186 124.141 141.104V136.136C124.632 136.191 125.15 136.3 125.642 136.409Z" fill="#818182"/>
<path d="M124.111 136.136V141.104C123.647 141.05 123.183 140.995 122.691 140.968V135.999C123.155 135.999 123.619 136.054 124.111 136.136Z" fill="#858687"/>
<path d="M122.665 135.999V140.968C122.201 140.968 121.737 140.94 121.246 140.968V135.999C121.71 135.999 122.174 135.999 122.665 135.999Z" fill="#8A8B8B"/>
<path d="M121.216 135.972V140.94C120.752 140.94 120.233 140.995 119.742 141.022V136.054C120.206 135.999 120.697 135.972 121.216 135.972Z" fill="#8F8F90"/>
<path d="M119.716 136.081V141.05C119.197 141.104 118.651 141.186 118.105 141.295V136.327C118.624 136.218 119.17 136.136 119.716 136.081Z" fill="#939494"/>
<path d="M118.078 136.327V141.295C117.423 141.432 116.741 141.595 116.113 141.814V136.846C116.741 136.627 117.396 136.463 118.078 136.327Z" fill="#989899"/>
<path d="M116.088 136.846V141.814C114.587 142.305 113.195 143.015 112.049 143.943C111.694 144.244 111.367 144.544 111.066 144.844V139.876C111.339 139.576 111.667 139.275 112.022 138.975C113.168 138.074 114.56 137.364 116.088 136.846Z" fill="#9C9D9E"/>
<path d="M111.037 139.849V144.817C110.682 145.226 110.355 145.636 110.082 146.072V141.104C110.328 140.667 110.655 140.258 111.037 139.849Z" fill="#989899"/>
<path d="M110.058 141.104V146.072C109.867 146.4 109.703 146.755 109.566 147.11V142.142C109.676 141.787 109.839 141.459 110.058 141.104Z" fill="#939494"/>
<path d="M109.539 142.142V147.11C109.429 147.41 109.348 147.738 109.293 148.065V143.097C109.32 142.769 109.429 142.442 109.539 142.142Z" fill="#8F8F90"/>
<path d="M109.266 143.097V148.065C109.238 148.393 109.184 148.693 109.184 149.021V144.052C109.184 143.752 109.184 143.425 109.266 143.124" fill="#8A8B8B"/>
</g>
<mask id="mask5_701_19559" style="mask-type:luminance" maskUnits="userSpaceOnUse" x="62" y="146" width="6" height="13">
<path d="M62.5 151.914V146.946C62.5 149.267 64.0284 151.56 67.0032 153.143V158.111C64.0556 156.528 62.5273 154.235 62.5 151.914Z" fill="white"/>
</mask>
<g mask="url(#mask5_701_19559)">
<path d="M67.0032 153.143V158.111C64.0556 156.528 62.5273 154.235 62.5 151.914V146.946C62.5 149.267 64.0284 151.56 67.0032 153.143Z" fill="#787879"/>
</g>
<mask id="mask6_701_19559" style="mask-type:luminance" maskUnits="userSpaceOnUse" x="66" y="152" width="19" height="8">
<path d="M84.3498 152.078V157.046C79.9831 160.404 72.2595 160.895 66.9922 158.111V153.143C72.2322 155.927 79.9285 155.436 84.3498 152.078Z" fill="white"/>
</mask>
<g mask="url(#mask6_701_19559)">
<path d="M84.3519 152.078V157.046C83.2329 157.92 81.8956 158.602 80.4219 159.066V154.098C81.8683 153.634 83.2329 152.952 84.3519 152.078Z" fill="#9C9D9E"/>
<path d="M80.3907 154.098V159.066C79.763 159.285 79.108 159.449 78.3984 159.585V154.617C79.0534 154.48 79.7357 154.317 80.3907 154.098Z" fill="#989899"/>
<path d="M78.372 154.617V159.585C77.8534 159.694 77.3076 159.776 76.7617 159.831V154.862C77.2803 154.808 77.8261 154.726 78.372 154.617Z" fill="#939494"/>
<path d="M76.7394 154.862V159.831C76.2754 159.885 75.7842 159.913 75.2656 159.913V154.944C75.7296 154.944 76.2481 154.89 76.7394 154.835" fill="#8F8F90"/>
<path d="M75.2317 154.944V159.913C74.7677 159.913 74.3038 159.913 73.8125 159.913V154.944C74.2765 154.944 74.7404 154.972 75.2317 154.944Z" fill="#8A8B8B"/>
<path d="M73.7864 154.944V159.913C73.3224 159.913 72.8311 159.831 72.3672 159.776V154.808C72.8311 154.863 73.2951 154.917 73.7864 154.944Z" fill="#858687"/>
<path d="M72.3409 154.808V159.776C71.8497 159.722 71.3311 159.612 70.8398 159.503V154.535C71.3038 154.644 71.8224 154.726 72.3409 154.808Z" fill="#818182"/>
<path d="M70.8131 154.535V159.503C70.24 159.367 69.6669 159.203 69.0938 159.012V154.044C69.6396 154.235 70.2127 154.398 70.8131 154.535Z" fill="#7C7D7D"/>
<path d="M69.0664 154.044V159.012C68.3568 158.766 67.6745 158.466 66.9922 158.111V153.143C67.6199 153.498 68.3295 153.798 69.0664 154.044Z" fill="#787879"/>
</g>
<path d="M100.594 160.704L100.621 165.673L84.3828 157.046L84.3555 152.078L100.594 160.704Z" fill="#7C7C7D"/>
<path d="M66.9994 153.143C61.7593 150.358 60.9678 145.336 65.1708 141.869L50.2148 133.898L63.2331 123.579L62.5508 123.279C57.2561 120.467 56.492 115.362 60.8314 111.895C65.1981 108.428 73.0309 107.937 78.3528 110.749L78.9532 111.131L91.6985 101.031L107.31 109.193C102.943 112.66 104.307 117.846 108.865 120.33C114.133 123.224 121.501 122.678 125.895 119.211L142.107 127.837L129.525 137.829C124.23 134.99 116.398 135.508 112.031 138.975C107.664 142.442 108.401 147.547 113.723 150.358L100.65 160.732L84.4116 152.105C80.0176 155.49 72.294 155.982 67.0539 153.17L66.9994 153.143Z" fill="url(#paint0_linear_701_19559)"/>
<path d="M113.671 150.331L113.698 155.299L100.625 165.673L100.598 160.704L113.671 150.331Z" fill="#AAABAB"/>
<path d="M192.577 154.398L192.605 159.339L179.777 169.522L179.75 164.553L192.577 154.398Z" fill="#9A9C9D"/>
<path d="M116.322 168.757L116.349 173.726L100.738 165.427L100.711 160.459L116.322 168.757Z" fill="#707172"/>
<mask id="mask7_701_19559" style="mask-type:luminance" maskUnits="userSpaceOnUse" x="159" y="162" width="21" height="14">
<path d="M159.445 175.855V170.887C159.418 169.058 160.346 167.229 162.256 165.727C166.623 162.26 174.456 161.742 179.75 164.553V169.522C174.456 166.71 166.623 167.229 162.256 170.696C160.346 172.224 159.418 174.053 159.418 175.855H159.445Z" fill="white"/>
</mask>
<g mask="url(#mask7_701_19559)">
<path d="M179.75 164.553V169.522C179.122 169.167 178.413 168.867 177.676 168.621V163.653C178.385 163.898 179.068 164.199 179.75 164.553Z" fill="#6D6E6E"/>
<path d="M177.649 163.653V168.621C177.103 168.43 176.53 168.266 175.93 168.129V163.161C176.503 163.298 177.076 163.461 177.649 163.653Z" fill="#717272"/>
<path d="M175.903 163.161V168.129C175.412 168.02 174.921 167.938 174.402 167.856V162.888C174.894 162.943 175.412 163.052 175.903 163.161Z" fill="#757677"/>
<path d="M174.372 162.888V167.856C173.936 167.802 173.444 167.747 172.953 167.72V162.752C173.417 162.752 173.881 162.806 174.372 162.888Z" fill="#797A7B"/>
<path d="M172.927 162.779V167.747C172.463 167.747 171.999 167.72 171.508 167.747V162.779C171.972 162.779 172.436 162.779 172.927 162.779Z" fill="#7D7F7F"/>
<path d="M171.478 162.752V167.72C171.014 167.72 170.495 167.775 170.004 167.802V162.834C170.468 162.779 170.986 162.752 171.478 162.752Z" fill="#828383"/>
<path d="M169.977 162.834V167.802C169.432 167.856 168.886 167.938 168.367 168.048V163.079C168.886 162.97 169.432 162.888 169.977 162.834Z" fill="#868788"/>
<path d="M168.34 163.079V168.048C167.658 168.184 167.003 168.348 166.348 168.566V163.598C166.975 163.38 167.63 163.216 168.34 163.079Z" fill="#8A8B8C"/>
<path d="M166.322 163.598V168.566C164.821 169.058 163.402 169.767 162.256 170.696C161.901 170.969 161.574 171.269 161.273 171.596V166.628C161.546 166.301 161.874 166.028 162.229 165.727C163.375 164.826 164.794 164.089 166.322 163.598Z" fill="#8E8F90"/>
<path d="M161.244 166.628V171.596C160.89 172.006 160.562 172.415 160.316 172.852V167.884C160.562 167.447 160.89 167.038 161.244 166.628Z" fill="#8A8B8C"/>
<path d="M160.288 167.884V172.852C160.097 173.18 159.933 173.535 159.797 173.862V168.894C159.906 168.539 160.07 168.211 160.288 167.857" fill="#868788"/>
<path d="M159.769 168.921V173.889C159.66 174.217 159.578 174.517 159.523 174.845V169.876C159.578 169.549 159.66 169.249 159.769 168.921Z" fill="#828383"/>
<path d="M159.5 169.877V174.845C159.473 175.145 159.445 175.473 159.445 175.773V170.805C159.445 170.477 159.445 170.177 159.5 169.877Z" fill="#7D7F7F"/>
<path d="M159.418 170.805V175.773C159.418 175.773 159.445 175.828 159.445 175.855V170.887C159.445 170.887 159.418 170.832 159.418 170.805Z" fill="#797A7B"/>
</g>
<mask id="mask8_701_19559" style="mask-type:luminance" maskUnits="userSpaceOnUse" x="113" y="173" width="6" height="13">
<path d="M113.516 178.912V173.944C113.516 176.264 115.044 178.557 118.019 180.141V185.109C115.071 183.526 113.543 181.233 113.516 178.912Z" fill="white"/>
</mask>
<g mask="url(#mask8_701_19559)">
<path d="M118.019 180.141V185.109C115.071 183.526 113.543 181.233 113.516 178.912V173.944C113.516 176.264 115.044 178.557 118.019 180.141Z" fill="#6D6E6E"/>
</g>
<mask id="mask9_701_19559" style="mask-type:luminance" maskUnits="userSpaceOnUse" x="118" y="178" width="18" height="9">
<path d="M135.537 178.994V183.962C131.198 187.429 123.338 187.948 118.043 185.109V180.141C123.31 182.98 131.17 182.434 135.537 178.994Z" fill="white"/>
</mask>
<g mask="url(#mask9_701_19559)">
<path d="M135.527 178.994V183.962C134.409 184.863 133.017 185.573 131.488 186.064V181.096C132.989 180.605 134.381 179.895 135.527 178.994Z" fill="#8E8F90"/>
<path d="M131.469 181.096V186.064C130.841 186.283 130.159 186.447 129.477 186.583V181.615C130.132 181.478 130.814 181.315 131.469 181.096Z" fill="#8A8B8C"/>
<path d="M129.45 181.615V186.583C128.932 186.692 128.386 186.774 127.84 186.829V181.86C128.358 181.806 128.932 181.724 129.45 181.615Z" fill="#868788"/>
<path d="M127.81 181.86V186.829C127.346 186.883 126.827 186.911 126.336 186.911V181.942C126.827 181.942 127.318 181.915 127.81 181.86Z" fill="#828383"/>
<path d="M126.282 181.942V186.911C125.819 186.911 125.327 186.911 124.863 186.883V181.915C125.327 181.942 125.791 181.942 126.282 181.915" fill="#7D7F7F"/>
<path d="M124.833 181.942V186.911C124.369 186.911 123.878 186.856 123.414 186.802V181.833C123.878 181.888 124.342 181.942 124.833 181.97" fill="#797A7B"/>
<path d="M123.388 181.806V186.774C122.897 186.692 122.378 186.61 121.887 186.501V181.533C122.378 181.642 122.869 181.724 123.388 181.806Z" fill="#757677"/>
<path d="M121.86 181.533V186.501C121.287 186.365 120.686 186.201 120.113 186.01V181.042C120.659 181.233 121.26 181.396 121.86 181.533Z" fill="#717272"/>
<path d="M120.086 181.042V186.01C119.376 185.764 118.694 185.464 118.012 185.109V180.141C118.639 180.496 119.349 180.796 120.086 181.042Z" fill="#6D6E6E"/>
</g>
<path d="M151.115 187.265L151.142 192.234L135.559 183.935L135.531 178.994L151.115 187.265Z" fill="#707172"/>
<path d="M118.205 180.141C112.911 177.329 112.147 172.224 116.513 168.757L100.902 160.459L113.73 150.276C108.435 147.465 107.671 142.387 112.037 138.92C116.404 135.454 124.237 134.935 129.532 137.747L142.359 127.592L157.997 135.89C153.931 139.357 154.722 144.271 159.907 147.055C165.093 149.812 172.735 149.348 177.129 146.073L192.74 154.371L179.912 164.526C174.618 161.714 166.785 162.233 162.418 165.7C158.052 169.167 158.816 174.244 164.11 177.056L151.283 187.238L135.7 178.967C131.333 182.434 123.473 182.952 118.178 180.113L118.205 180.141Z" fill="#E5DFDF"/>
<path d="M163.952 177.083L163.979 182.052L151.152 192.234L151.125 187.266L163.952 177.083Z" fill="#9A9C9D"/>
<path d="M243.472 181.615L243.499 186.583L230.672 196.738L230.645 191.797L243.472 181.615Z" fill="url(#paint1_linear_701_19559)"/>
<path d="M167.216 196.001L167.244 200.969L151.633 192.643L151.605 187.702L167.216 196.001Z" fill="url(#paint2_linear_701_19559)"/>
<mask id="mask10_701_19559" style="mask-type:luminance" maskUnits="userSpaceOnUse" x="210" y="189" width="21" height="15">
<path d="M210.342 203.071V198.103C210.287 196.301 211.243 194.472 213.153 192.944C217.52 189.477 225.353 188.958 230.647 191.77V196.738C225.353 193.899 217.52 194.445 213.18 197.912C211.27 199.44 210.342 201.269 210.342 203.071Z" fill="white"/>
</mask>
<g mask="url(#mask10_701_19559)">
<path d="M230.641 191.797V196.765C230.013 196.41 229.303 196.11 228.566 195.864V190.896C229.276 191.142 229.958 191.442 230.641 191.797Z" fill="url(#paint3_linear_701_19559)"/>
<path d="M228.563 190.896V195.864C228.017 195.673 227.444 195.51 226.844 195.373V190.405C227.417 190.541 227.99 190.705 228.563 190.896Z" fill="url(#paint4_linear_701_19559)"/>
<path d="M226.794 190.377V195.346C226.33 195.237 225.812 195.155 225.293 195.073V190.104C225.784 190.159 226.275 190.268 226.794 190.377Z" fill="url(#paint5_linear_701_19559)"/>
<path d="M225.263 190.132V195.1C224.799 195.045 224.335 194.991 223.844 194.964V189.995C224.28 190.023 224.772 190.077 225.263 190.132Z" fill="url(#paint6_linear_701_19559)"/>
<path d="M223.818 189.995V194.964C223.354 194.936 222.89 194.936 222.398 194.936V189.968C222.862 189.968 223.326 189.968 223.818 189.968" fill="url(#paint7_linear_701_19559)"/>
<path d="M222.368 189.968V194.936C221.904 194.936 221.386 194.991 220.895 195.045V190.077C221.358 190.023 221.877 189.995 222.368 189.968Z" fill="url(#paint8_linear_701_19559)"/>
<path d="M220.868 190.077V195.045C220.349 195.1 219.804 195.182 219.258 195.291V190.323C219.776 190.214 220.322 190.132 220.868 190.077Z" fill="url(#paint9_linear_701_19559)"/>
<path d="M219.231 190.323V195.291C218.576 195.428 217.893 195.591 217.238 195.81V190.842C217.866 190.65 218.548 190.459 219.231 190.323Z" fill="url(#paint10_linear_701_19559)"/>
<path d="M217.213 190.814V195.783C215.712 196.274 214.32 196.984 213.147 197.912C212.792 198.212 212.464 198.485 212.164 198.813V193.844C212.437 193.544 212.765 193.244 213.119 192.944C214.266 192.015 215.685 191.333 217.213 190.814Z" fill="url(#paint11_linear_701_19559)"/>
<path d="M212.162 193.844V198.813C211.807 199.222 211.48 199.659 211.207 200.068V195.1C211.453 194.663 211.78 194.254 212.162 193.844Z" fill="url(#paint12_linear_701_19559)"/>
<path d="M211.183 195.1V200.068C211.019 200.423 210.828 200.751 210.719 201.106V196.137C210.828 195.81 210.992 195.455 211.183 195.127" fill="url(#paint13_linear_701_19559)"/>
<path d="M210.66 196.137V201.106C210.551 201.433 210.469 201.734 210.414 202.061V197.093C210.441 196.765 210.523 196.465 210.66 196.137Z" fill="url(#paint14_linear_701_19559)"/>
<path d="M210.39 197.093V202.061C210.363 202.389 210.309 202.689 210.309 202.989V198.021C210.309 197.693 210.309 197.393 210.39 197.093Z" fill="url(#paint15_linear_701_19559)"/>
</g>
<mask id="mask11_701_19559" style="mask-type:luminance" maskUnits="userSpaceOnUse" x="164" y="201" width="5" height="12">
<path d="M164.402 206.129V201.16C164.402 203.481 165.931 205.774 168.906 207.357V212.325C165.958 210.742 164.43 208.449 164.402 206.129Z" fill="white"/>
</mask>
<g mask="url(#mask11_701_19559)">
<path d="M168.906 207.357V212.325C165.958 210.742 164.43 208.449 164.402 206.129V201.16C164.402 203.481 165.931 205.774 168.906 207.357Z" fill="url(#paint16_linear_701_19559)"/>
</g>
<mask id="mask12_701_19559" style="mask-type:luminance" maskUnits="userSpaceOnUse" x="168" y="206" width="19" height="9">
<path d="M186.432 206.21V211.179C182.092 214.646 174.232 215.164 168.938 212.325V207.357C174.205 210.196 182.065 209.65 186.432 206.21Z" fill="white"/>
</mask>
<g mask="url(#mask12_701_19559)">
<path d="M186.426 206.21V211.179C185.307 212.107 183.915 212.789 182.387 213.308V208.34C183.888 207.848 185.28 207.139 186.426 206.21Z" fill="url(#paint17_linear_701_19559)"/>
<path d="M182.367 208.34V213.308C181.74 213.499 181.057 213.69 180.375 213.827V208.858C181.03 208.722 181.712 208.558 182.367 208.34Z" fill="url(#paint18_linear_701_19559)"/>
<path d="M180.348 208.831V213.799C179.83 213.909 179.284 213.99 178.738 214.045V209.077C179.284 209.022 179.83 208.94 180.348 208.831Z" fill="url(#paint19_linear_701_19559)"/>
<path d="M178.708 209.104V214.072C178.244 214.127 177.726 214.154 177.234 214.154V209.213C177.698 209.213 178.217 209.159 178.708 209.104Z" fill="url(#paint20_linear_701_19559)"/>
<path d="M177.212 209.186V214.127C176.748 214.127 176.257 214.127 175.793 214.127V209.159C176.257 209.186 176.748 209.186 177.212 209.186Z" fill="url(#paint21_linear_701_19559)"/>
<path d="M175.732 209.159V214.127C175.268 214.1 174.776 214.072 174.312 213.99V209.022C174.776 209.077 175.268 209.131 175.732 209.159Z" fill="url(#paint22_linear_701_19559)"/>
<path d="M174.286 209.022V213.99C173.795 213.936 173.276 213.854 172.785 213.717V208.749C173.249 208.858 173.768 208.94 174.286 209.022Z" fill="url(#paint23_linear_701_19559)"/>
<path d="M172.758 208.776V213.745C172.185 213.608 171.585 213.444 171.012 213.253V208.285C171.558 208.476 172.158 208.667 172.758 208.776Z" fill="url(#paint24_linear_701_19559)"/>
<path d="M170.984 208.258V213.226C170.275 212.98 169.565 212.68 168.91 212.325V207.357C169.538 207.712 170.247 208.012 170.984 208.258Z" fill="url(#paint25_linear_701_19559)"/>
</g>
<path d="M202.013 214.509L202.041 219.45L186.457 211.179L186.43 206.21L202.013 214.509Z" fill="url(#paint26_linear_701_19559)"/>
<path d="M168.909 207.357C163.614 204.545 162.85 199.44 167.216 196.001L151.605 187.702L164.46 177.52C159.165 174.681 157.719 169.522 162.468 165.864C166.889 162.451 174.967 162.178 180.262 164.99L193.089 154.808L208.7 163.107C204.333 166.573 205.098 171.651 210.392 174.463C215.687 177.274 223.547 176.783 227.886 173.316L243.47 181.587L230.67 191.77C225.376 188.931 217.515 189.477 213.176 192.943C208.809 196.41 210.119 201.843 215.414 204.654L202.587 214.837L186.485 206.183C182.118 209.65 174.258 210.169 168.963 207.33L168.909 207.357Z" fill="url(#paint27_linear_701_19559)"/>
<path d="M293.718 208.34L293.745 213.281L280.918 223.463L280.891 218.495L293.718 208.34Z" fill="#9A9C9D"/>
<path d="M217.463 222.699L217.49 227.667L201.879 219.368V214.427L217.463 222.699Z" fill="#707172"/>
<mask id="mask13_701_19559" style="mask-type:luminance" maskUnits="userSpaceOnUse" x="214" y="227" width="6" height="13">
<path d="M214.621 232.826V227.858C214.621 230.178 216.149 232.471 219.124 234.055V239.023C216.177 237.44 214.621 235.119 214.621 232.799V232.826Z" fill="white"/>
</mask>
<g mask="url(#mask13_701_19559)">
<path d="M219.155 234.082V239.05C216.208 237.467 214.652 235.147 214.652 232.826V227.858C214.652 230.178 216.181 232.471 219.155 234.055" fill="#6D6E6E"/>
</g>
<mask id="mask14_701_19559" style="mask-type:luminance" maskUnits="userSpaceOnUse" x="265" y="224" width="21" height="14">
<path d="M285.446 224.719V229.687C285.473 231.516 284.545 233.345 282.635 234.874C278.268 238.34 270.435 238.832 265.141 236.02V231.052C270.435 233.891 278.268 233.372 282.607 229.905C284.518 228.377 285.446 226.548 285.446 224.746V224.719Z" fill="white"/>
</mask>
<g mask="url(#mask14_701_19559)">
<path d="M285.445 224.828V229.769C285.445 230.096 285.445 230.397 285.363 230.724V225.756C285.391 225.456 285.445 225.128 285.445 224.828Z" fill="#7D7F7F"/>
<path d="M285.335 225.729V230.697C285.281 231.024 285.199 231.325 285.09 231.652V226.684C285.199 226.356 285.281 226.056 285.335 225.729Z" fill="#828383"/>
<path d="M285.065 226.711V231.68C284.956 232.034 284.793 232.362 284.574 232.717V227.749C284.765 227.394 284.929 227.066 285.065 226.711Z" fill="#868788"/>
<path d="M284.545 227.721V232.69C284.299 233.126 283.972 233.536 283.59 233.945V228.977C283.945 228.568 284.272 228.158 284.545 227.721Z" fill="#8A8B8C"/>
<path d="M283.584 229.004V233.973C283.311 234.3 282.984 234.573 282.629 234.873C281.483 235.774 280.091 236.484 278.59 236.975V232.007C280.064 231.516 281.483 230.806 282.602 229.905C282.957 229.605 283.284 229.332 283.584 229.004Z" fill="#8E8F90"/>
<path d="M278.543 232.007V236.975C277.915 237.194 277.233 237.358 276.578 237.494V232.526C277.233 232.389 277.915 232.226 278.543 232.007Z" fill="#8A8B8C"/>
<path d="M276.552 232.526V237.494C276.033 237.603 275.487 237.685 274.941 237.74V232.772C275.487 232.717 276.033 232.635 276.552 232.526Z" fill="#868788"/>
<path d="M274.911 232.744V237.713C274.447 237.767 273.956 237.794 273.438 237.822V232.853C273.929 232.853 274.42 232.799 274.911 232.772" fill="#828383"/>
<path d="M273.415 232.854V237.822C272.951 237.822 272.487 237.822 271.996 237.822V232.854C272.46 232.881 272.924 232.881 273.415 232.854Z" fill="#7D7F7F"/>
<path d="M271.966 232.826V237.794C271.502 237.767 271.038 237.713 270.547 237.658V232.69C271.011 232.744 271.502 232.799 271.966 232.826Z" fill="#797A7B"/>
<path d="M270.489 232.69V237.658C269.998 237.603 269.48 237.494 268.988 237.385V232.417C269.452 232.526 269.971 232.608 270.489 232.69Z" fill="#757677"/>
<path d="M268.962 232.444V237.412C268.388 237.276 267.788 237.112 267.215 236.921V231.953C267.761 232.144 268.361 232.307 268.962 232.444Z" fill="#717272"/>
<path d="M267.187 231.953V236.921C266.478 236.675 265.768 236.375 265.113 236.02V231.052C265.741 231.407 266.451 231.707 267.187 231.953Z" fill="#6D6E6E"/>
</g>
<mask id="mask15_701_19559" style="mask-type:luminance" maskUnits="userSpaceOnUse" x="219" y="232" width="18" height="9">
<path d="M236.654 232.935V237.904C232.315 241.371 224.482 241.889 219.188 239.078V234.109C224.482 236.948 232.315 236.402 236.654 232.935Z" fill="white"/>
</mask>
<g mask="url(#mask15_701_19559)">
<path d="M236.652 232.935V237.904C235.534 238.805 234.142 239.514 232.613 240.033V235.065C234.114 234.573 235.506 233.864 236.652 232.935Z" fill="#8E8F90"/>
<path d="M232.582 235.037V240.006C231.954 240.197 231.299 240.388 230.59 240.524V235.556C231.245 235.42 231.927 235.256 232.582 235.037Z" fill="#8A8B8C"/>
<path d="M230.563 235.556V240.524C230.045 240.634 229.499 240.715 228.926 240.77V235.802C229.472 235.747 230.017 235.665 230.563 235.556Z" fill="#868788"/>
<path d="M228.927 235.802V240.77C228.463 240.825 227.944 240.852 227.453 240.879V235.911C227.944 235.911 228.436 235.856 228.927 235.829" fill="#828383"/>
<path d="M227.427 235.884V240.852C226.963 240.852 226.499 240.852 226.008 240.825V235.856C226.444 235.884 226.936 235.884 227.427 235.856" fill="#7D7F7F"/>
<path d="M225.978 235.884V240.852C225.514 240.852 225.023 240.797 224.559 240.715V235.747C225.023 235.802 225.486 235.856 225.978 235.884Z" fill="#797A7B"/>
<path d="M224.532 235.747V240.715C224.041 240.661 223.523 240.579 223.031 240.442V235.474C223.495 235.583 224.014 235.665 224.532 235.747Z" fill="#757677"/>
<path d="M223.008 235.474V240.442C222.435 240.306 221.862 240.142 221.289 239.951V234.983C221.835 235.174 222.408 235.338 223.008 235.474Z" fill="#717272"/>
<path d="M221.23 234.983V239.951C220.548 239.705 219.839 239.405 219.156 239.05V234.082C219.784 234.437 220.494 234.737 221.23 234.983Z" fill="#6D6E6E"/>
</g>
<path d="M252.259 241.207L252.287 246.175L236.676 237.876L236.648 232.935L252.259 241.207Z" fill="#707172"/>
<path d="M219.155 234.082C213.86 231.243 213.096 226.165 217.463 222.699L201.879 214.427L214.706 204.245C208.866 201.515 208.074 196.137 212.468 192.671C216.835 189.204 225.213 188.903 230.535 191.715L243.363 181.533L258.946 189.804C254.58 193.271 255.344 198.349 260.666 201.188C265.988 204.027 273.793 203.508 278.16 200.041L293.771 208.34L280.944 218.495C286.238 221.334 287.002 226.438 282.636 229.878C278.269 233.345 270.436 233.864 265.142 231.025L252.314 241.207L236.703 232.908C232.337 236.375 224.504 236.894 219.209 234.082H219.155Z" fill="#E5DFDF"/>
<path d="M265.089 231.025L265.116 235.993L252.289 246.175L252.262 241.207L265.089 231.025Z" fill="#9A9C9D"/>
<path d="M148.417 61.8577H148.117C148.117 61.8577 143.886 57.6265 142.631 57.4627C141.376 57.2989 139.902 57.026 138.728 57.4627C137.527 57.8995 133.461 59.046 133.461 59.046C133.461 59.046 135.481 59.7285 136.572 59.5374C137.664 59.3736 137.773 59.7831 138.865 59.5374C139.956 59.2917 141.649 60.4109 141.649 60.4109C141.649 60.4109 140.966 61.1753 140.42 61.7485C139.875 62.3491 139.192 64.1781 138.837 64.8332C138.51 65.4884 139.274 66.4711 141.185 66.9079C143.095 67.3446 146.67 67.5084 146.67 67.5084L148.444 61.8304L148.417 61.8577Z" fill="#EAA871"/>
<path d="M148.446 60.9022L146.808 60.4108L144.488 67.208L146.917 68.1908C146.917 68.1908 149.046 66.7713 149.101 66.4983C149.155 66.2253 148.418 60.9295 148.418 60.9295L148.446 60.9022Z" fill="#E5E5E5"/>
<path d="M194.54 56.0978L172.652 67.7268L148.117 60.4928L145.715 67.8906L171.478 77.8271L196.56 65.3246L194.54 56.0978Z" fill="url(#paint28_linear_701_19559)"/>
<path d="M127.727 57.2989C127.727 57.2989 129.42 57.8449 131.084 57.2989C132.749 56.753 134.332 56.3708 135.424 56.5892C136.515 56.8075 137.471 58.036 137.471 58.036C137.471 58.036 135.942 58.1179 135.942 58.773C135.942 59.4282 136.952 59.7012 138.972 59.3463C140.991 58.9914 141.646 57.6811 141.81 58.6365C141.946 59.5647 142.247 60.7658 141.81 60.7931C141.373 60.8204 140.582 61.8304 140.582 62.1307C140.582 62.431 140.5 62.8677 140.009 63.4683C139.518 64.0689 139.217 65.0789 138.781 65.3792C138.344 65.6795 136.406 66.0889 133.868 65.816C131.33 65.5157 129.529 65.1608 128.573 64.6694C127.618 64.1508 126.117 63.2226 126.117 63.2226L127.755 57.3262L127.727 57.2989Z" fill="#F9C697"/>
<path d="M126.717 56.5619L128.545 56.9987L126.608 64.6695L123.633 63.7686L126.717 56.5619Z" fill="#E5E5E5"/>
<path d="M121.29 73.0499C121.29 73.0499 123.965 75.2883 123.801 75.7797C123.637 76.2711 123.364 77.4995 122.518 77.7452C121.672 77.9908 120.826 78.9463 119.271 78.646C117.715 78.3184 116.159 78.8371 116.105 78.0454C116.05 77.2538 115.695 76.5987 115.641 75.5886C115.586 74.5786 115.368 73.7051 116.569 73.2956C117.769 72.9134 121.317 73.0499 121.317 73.0499H121.29Z" fill="#EAB692"/>
<path d="M121.503 71.7123L121.94 73.4048L115.608 75.5886L114.871 73.0226L120.302 71.3574L121.503 71.7123Z" fill="#E5E5E5"/>
<path d="M105.922 86.0984L124.59 87.9275L132.177 87.3269L131.604 93.0322L131.085 114.325L106.277 101.768L105.922 86.0984Z" fill="#56422D"/>
<path d="M132.178 87.3269H132.287C132.287 87.3269 133.815 90.357 133.651 96.0624C133.488 101.768 133.133 113.096 133.133 113.096L131.222 114.379L131.086 114.325L131.604 93.005L132.205 87.2996L132.178 87.3269Z" fill="#44301D"/>
<path d="M132.423 87.2996L106.769 75.3157C106.769 75.3157 104.885 77.1993 105.049 79.9291C105.24 82.6589 105.24 89.3469 105.24 89.3469L131.932 102.341C131.932 102.341 131.768 92.0768 131.932 89.8383C132.095 87.6272 132.45 87.2723 132.45 87.2723L132.423 87.2996Z" fill="#38200D"/>
<path d="M120.227 93.9332V95.107L118.152 94.1243L118.207 92.9505L120.227 93.9332Z" fill="#44301D"/>
<path d="M117.552 93.824L115.615 92.8959L114.223 92.2134L114.305 91.0669L117.607 92.6502L117.552 93.824Z" fill="#44301D"/>
<path d="M111.465 90.3025L112.475 90.166L113.703 90.7666L113.621 91.9404L112.093 91.2034L111.465 90.3025Z" fill="#44301D"/>
<path d="M117.555 93.8786V93.824L118.155 94.1243L118.128 94.8886L113.598 92.5683L113.625 91.9404L115.617 92.8958L117.555 93.8786Z" fill="#84814D"/>
<path d="M117.602 92.5955L114.3 91.0122V91.0668L113.699 90.7666L113.754 90.0568L118.23 92.2134L118.202 92.9504L117.602 92.6501V92.5955Z" fill="#84814D"/>
<path d="M117.609 92.6501L118.21 92.9504L118.155 94.1242L117.555 93.8239L117.609 92.6501Z" fill="#44301D"/>
<path d="M114.303 91.0668L114.222 92.2133L115.613 92.8958L113.621 91.9404L113.703 90.7665L114.303 91.0668Z" fill="#84814D"/>
<path d="M115.555 92.1861L113.918 91.2579L114.218 91.5855L115.828 92.459L115.555 92.1861Z" fill="#A09C6A"/>
<path d="M121.454 77.0355L123.801 78.6188V82.9865C123.801 83.3687 123.665 84.0238 123.665 84.0238L122.245 84.1603C122.245 84.1603 121.727 81.4578 121.863 80.83C122 80.2021 120.28 79.1375 120.28 79.1375L116.214 77.3904C116.214 77.3904 115.204 77.1447 115.068 77.7726C114.931 78.4277 115.068 80.0929 115.068 80.0929L114.058 80.4751C114.058 80.4751 113.676 76.626 113.676 75.9709C113.676 75.3157 115.723 75.5887 116.76 75.8344C117.77 76.1074 121.454 77.0901 121.454 77.0901V77.0355Z" fill="#44301D"/>
<path d="M114.167 77.6087C114.304 76.3257 119.298 77.7452 119.298 77.7452C119.298 77.7452 122.109 79.2739 122.355 80.0655C122.573 80.6661 122.519 83.0957 122.491 84.133H122.219C122.219 84.133 121.7 81.4577 121.836 80.8299C121.973 80.202 120.254 79.1374 120.254 79.1374L116.187 77.3903C116.187 77.3903 115.177 77.1446 115.041 77.7725C114.904 78.4277 115.041 80.0928 115.041 80.0928L114.031 80.475C114.031 80.475 113.949 79.8472 113.895 79.0828C114.004 78.5641 114.113 78.0455 114.167 77.6633V77.6087Z" fill="#38200D"/>
<path d="M102.562 23.8586C102.562 23.8586 110.259 20.5009 113.288 34.2865C114.898 41.5751 116.29 50.6108 116.29 50.6108L121.967 71.5759L114.544 73.9781L108.676 51.7574L107.639 30.6286L102.59 23.8586H102.562Z" fill="url(#paint29_linear_701_19559)"/>
<path d="M110.285 131.823C110.285 131.823 109.303 123.606 110.613 114.379L110.831 110.94C111.131 108.674 111.95 102.204 111.95 99.5565C111.95 96.3626 111.213 75.0973 111.213 75.0973L81.847 78.8098C81.847 78.8098 79.6364 86.7263 80.6189 91.6673C81.4377 95.7893 82.2564 108.237 82.5021 112.25C82.5566 115.662 82.9933 134.88 82.9933 137.392C82.9933 138.238 82.8568 139.193 82.6931 140.149C83.0479 140.886 84.085 142.66 85.6133 143.67C87.5783 144.953 90.8806 144.407 91.8632 144.025C92.8457 143.643 90.5532 141.432 90.5532 141.432C90.5532 141.432 89.5706 132.205 90.8806 121.886L91.3446 113.315C91.7267 110.421 92.3271 106.081 92.9549 103.487C93.6099 100.73 95.4111 97.5637 96.7211 95.7074C97.4307 94.3971 98.1949 92.9776 98.7953 92.1314C100.105 90.3297 104.063 105.453 104.063 107.937C104.063 110.421 103.244 119.948 103.408 123.251C103.571 126.527 104.39 130.158 104.39 130.158C104.39 130.158 104.063 131.359 104.063 132.642C104.472 133.051 104.827 133.461 105.345 133.788C107.31 134.935 110.613 134.444 111.595 134.089C112.578 133.761 110.285 131.796 110.285 131.796V131.823Z" fill="#151515"/>
<path d="M119.343 139.248C119.343 139.248 119.725 139.657 118.279 141.213C117.051 142.578 112.848 141.596 110.392 140.586C107.881 139.576 103.35 137.119 101.986 136.627C100.621 136.136 102.095 133.161 102.095 133.161L104.087 134.143C104.087 134.143 112.22 137.337 113.339 137.61C114.431 137.856 119.343 139.221 119.343 139.221V139.248Z" fill="#262626"/>
<path d="M115.22 141.022C112.409 140.531 108.97 139.221 107.66 138.238C106.323 137.255 102.856 136.6 102.038 135.453C101.465 134.662 102.01 132.669 102.392 130.704C102.775 131.359 103.784 132.942 105.34 133.843C107.305 134.989 110.607 134.498 111.59 134.143C112.572 133.816 110.28 131.85 110.28 131.85L119.341 139.275C119.341 139.275 118.031 141.568 115.22 141.077V141.022Z" fill="black"/>
<path d="M99.5894 149.785C99.5894 149.785 99.9715 150.222 98.525 151.996C97.2969 153.525 93.094 152.406 90.6104 151.314C88.1268 150.195 83.5964 147.437 82.2318 146.892C80.8672 146.346 82.3409 143.015 82.3409 143.015L84.3333 144.134C84.3333 144.134 92.4662 147.738 93.5852 148.011C94.7042 148.284 99.5894 149.812 99.5894 149.812V149.785Z" fill="#262626"/>
<path d="M95.4931 151.805C92.6821 151.232 89.2433 149.785 87.9333 148.666C86.596 147.547 83.1299 146.81 82.3111 145.527C81.738 144.653 82.2839 142.415 82.6659 140.203C83.0207 140.941 84.0578 142.715 85.5862 143.725C87.5512 145.008 90.8535 144.462 91.836 144.08C92.8185 143.698 90.526 141.487 90.526 141.487L99.5596 149.785C99.5596 149.785 98.2496 152.378 95.4658 151.805H95.4931Z" fill="black"/>
<path d="M103.382 123.279C103.218 119.975 104.037 110.421 104.037 107.964C104.037 105.507 100.079 90.3569 98.7695 92.1586C98.1691 92.9775 97.3776 94.4244 96.6953 95.7347C97.3776 94.7793 97.9235 94.1241 98.1145 94.1241C98.6058 94.1241 101.308 104.334 102.072 107.2C102.126 108.456 102.727 125.817 102.727 128.192C102.727 128.957 102.563 129.803 102.399 130.676C102.645 131.113 103.273 131.905 104.037 132.669C104.037 131.386 104.364 130.185 104.364 130.185C104.364 130.185 103.546 126.554 103.382 123.279Z" fill="#222222"/>
<path d="M84.6076 80.7208C84.089 76.1074 87.3095 68.4093 87.6916 63.0042C88.0736 57.6265 85.8903 50.1741 85.8903 49.7919C85.8903 49.7919 85.6174 41.4387 85.6174 41.0565C85.6174 40.7289 82.6153 35.8971 81.6055 34.2865C81.8238 33.1946 82.0967 32.3757 82.3696 32.0754C84.9351 29.3183 102.538 23.8586 102.538 23.8586C102.538 23.8586 104.94 23.8586 106.823 25.7422C108.706 27.6258 110.426 31.393 110.944 37.0437C111.463 42.6944 112.5 80.6661 111.627 82.2221C110.781 83.7508 105.65 85.3068 105.65 85.3068L104.121 77.7726L102.402 85.9893C102.402 85.9893 102.566 84.7882 100.191 86.3169C98.581 87.3542 93.2591 87.8456 88.9197 87.2996C87.1457 85.7982 84.9078 83.4506 84.6076 80.7208Z" fill="url(#paint30_linear_701_19559)"/>
<path d="M80.1568 74.3329C79.9931 73.5685 79.8566 43.0765 81.6033 34.3138C82.6131 35.9244 85.6152 40.7561 85.6152 41.0837C85.6152 41.4659 87.4983 44.2503 87.4983 44.2503C87.3346 46.8982 88.0715 57.6264 87.6894 63.0314C87.3073 68.4365 87.4437 75.3429 87.935 79.9836C88.2352 82.7134 87.1435 85.8527 88.9175 87.3268C86.8706 87.0812 85.0148 86.6171 83.9231 85.8254C80.4843 83.4232 80.3206 75.2064 80.1568 74.3602V74.3329Z" fill="#3865BF"/>
<path d="M102.431 52.2214L105.378 39.0091L103.577 37.5896L105.378 35.4057C105.378 35.4057 103.713 29.5093 102.676 27.8441C101.639 26.1789 98.8281 25.9059 98.8281 25.9059L102.403 52.2214H102.431Z" fill="#3865BF"/>
<path d="M92.7744 28.1172C97.0047 28.3629 100.089 25.7968 100.089 25.7968C100.089 25.7968 100.225 27.8442 100.744 28.745C101.262 29.6459 102.545 34.1228 99.9795 35.788C98.151 36.9891 94.2482 35.4058 92.1194 33.0581C90.8094 30.6013 90.1544 27.9261 92.8017 28.0899L92.7744 28.1172Z" fill="#FBCBA7"/>
<path d="M91.0779 23.3673C90.996 22.6575 91.46 22.4119 92.115 22.4392C94.735 23.4492 100.057 25.8241 100.057 25.8241C100.057 25.8241 96.9729 28.3902 92.7427 28.1445C90.1227 27.9807 90.7504 30.6559 92.0604 33.1128C91.1871 32.1846 90.6139 31.1473 90.5593 30.0554C90.4229 26.3428 91.46 26.5885 91.0779 23.3673Z" fill="#E2AC88"/>
<path d="M88.788 17.2252C88.0239 14.1405 90.0707 13.6218 90.0707 13.6218L91.6264 18.7539L92.1449 12.3388C92.1449 12.3388 90.3437 11.5744 97.0302 13.6218C101.861 15.0959 105.327 11.902 106.883 10.0184C107.128 11.165 107.292 12.3661 107.292 13.6218C107.292 21.1288 102.707 27.2163 97.0302 27.2163C94.2191 27.2163 91.681 25.7149 89.7978 23.2853C90.5893 21.7567 89.4157 19.6547 88.8153 17.2252H88.788Z" fill="#FBCBA7"/>
<path d="M96.9998 0.027304C100.411 0.027304 103.386 2.29305 105.215 5.67803C105.952 5.40504 107.289 4.17662 107.616 3.60336L107.998 2.94821L107.098 6.79724L109.39 6.14209L108.49 8.08026C108.49 8.08026 107.835 8.95381 106.798 9.96384C106.798 9.96384 106.798 9.96384 106.798 9.99114C105.269 11.8747 101.776 15.0959 96.9452 13.5945C90.286 11.5471 92.06 12.3115 92.06 12.3115L91.5415 18.7266L89.9858 13.5945C89.9858 13.5945 87.9389 14.1132 88.7031 17.1979C89.3035 19.6274 90.4771 21.7294 89.6856 23.2581C87.8024 20.7739 86.6289 17.3889 86.6289 13.5945C86.6289 6.0602 91.2412 0 96.8906 0L96.9998 0.027304Z" fill="black"/>
<path d="M103.658 18.4263L105.378 23.067L102.621 22.8213L103.658 18.4263Z" fill="#E2AC88"/>
<path d="M102.427 31.8297L102.045 49.9283L94.8672 33.3856C94.8672 33.3856 97.187 33.9043 98.7154 33.9043C100.244 33.9043 100.899 33.3856 100.899 33.3856L102.427 31.8569V31.8297Z" fill="#101010"/>
<path d="M101.558 37.3439L102.841 46.4615L102.459 51.2114C102.459 51.2114 100.276 49.5462 100.276 49.164C100.276 48.7818 99.7571 44.6598 99.7571 44.6598L99.375 38.4905L101.558 37.3439Z" fill="url(#paint31_linear_701_19559)"/>
<path d="M89.4923 28.3628C89.4923 28.3628 88.9737 30.7923 89.8744 33.4949C90.775 36.1974 91.1571 38.7634 91.1571 38.7634H94.1046L93.5861 41.5751L101.937 54.9239C101.937 54.9239 103.084 52.1122 101.801 49.164C100.518 46.2158 96.0151 34.5322 96.0151 34.5322L89.465 28.3628H89.4923Z" fill="#3865BF"/>
<path d="M101.937 35.16L101.555 37.3439L99.372 38.4904L97.8164 35.6787V34.3957L99.4812 33.877L100.9 33.3583L101.937 35.16Z" fill="url(#paint32_linear_701_19559)"/>
<path d="M98.6116 40.0464L99.5122 33.877L90.9153 27.8441L91.0244 26.1789C91.0244 26.1789 89.4961 27.4619 89.4961 28.3627C89.4961 29.2636 89.8782 32.8396 91.2974 34.2592C92.7165 35.6787 98.6116 40.0464 98.6116 40.0464Z" fill="#FAFEFF"/>
<path d="M99.4805 33.8771C99.4805 33.8771 101.527 31.6932 100.9 29.5093L100.272 27.3255C100.272 27.3255 102.182 29.8915 102.455 31.8297C102.728 33.7406 102.837 36.8253 102.837 36.8253L99.5077 33.8771H99.4805Z" fill="#FAFEFF"/>
<path d="M101.938 54.4599C101.938 54.924 102.156 55.2788 102.456 55.2788C102.756 55.2788 102.975 54.8967 102.975 54.4599C102.975 54.0231 102.756 53.6136 102.456 53.6136C102.156 53.6136 101.938 53.9685 101.938 54.4599Z" fill="#011219"/>
<path d="M102.703 62.0215C102.703 62.4856 102.949 62.8678 103.222 62.8678C103.522 62.8678 103.74 62.5129 103.74 62.0215C103.74 61.5302 103.522 61.1753 103.222 61.1753C102.949 61.1753 102.703 61.5575 102.703 62.0215Z" fill="#011219"/>
<path d="M103.082 69.2828C103.082 69.7468 103.328 70.1017 103.601 70.1017C103.874 70.1017 104.119 69.7195 104.119 69.2828C104.119 68.846 103.901 68.4365 103.601 68.4365C103.3 68.4365 103.082 68.8187 103.082 69.2828Z" fill="#011219"/>
<path d="M103.602 77.7452C103.602 78.2093 103.82 78.5641 104.12 78.5641C104.42 78.5641 104.639 78.2093 104.639 77.7452C104.639 77.2811 104.42 76.9263 104.12 76.9263C103.82 76.9263 103.602 77.2811 103.602 77.7452Z" fill="#011219"/>
<path d="M85.508 31.5567C88.7011 33.9862 91.7306 36.2519 94.7054 38.545C98.7173 41.6024 102.374 45.315 102.374 45.315L127.701 56.4799C127.701 56.4799 126.419 58.9367 124.89 61.5847C123.88 63.2771 124.235 64.3691 121.779 63.7139C119.323 63.0588 99.9181 54.3779 99.9181 54.3779C99.9181 54.3779 88.8649 46.7344 82.0692 41.657C75.2735 36.5795 82.3148 29.1817 85.508 31.584V31.5567Z" fill="url(#paint33_linear_701_19559)"/>
<path d="M195.383 137.801L214.05 139.63L221.638 139.03L221.037 144.735L220.546 166.055L195.738 153.443L195.383 137.801Z" fill="#231F20"/>
<path d="M221.639 139.03H221.748C221.748 139.03 223.276 142.06 223.112 147.765C222.949 153.47 222.621 164.799 222.621 164.799L220.711 166.082H220.547L221.065 144.735L221.666 139.03H221.639Z" fill="#050505"/>
<path d="M221.856 139.002L196.202 127.018C196.202 127.018 194.319 128.902 194.51 131.632C194.673 134.362 194.673 141.05 194.673 141.05L221.365 154.071C221.365 154.071 221.201 143.78 221.365 141.568C221.529 139.357 221.883 139.002 221.883 139.002H221.856Z" fill="#58595B"/>
<path d="M209.652 145.608V146.81L207.605 145.827L207.633 144.653L209.652 145.608Z" fill="#44301D"/>
<path d="M207.009 145.554L205.044 144.598L203.68 143.889L203.762 142.769L207.064 144.353L207.009 145.554Z" fill="#44301D"/>
<path d="M200.895 142.005L201.932 141.896L203.16 142.469L203.078 143.643L201.522 142.906L200.895 142.005Z" fill="#44301D"/>
<path d="M207.008 145.581V145.554L207.609 145.827L207.581 146.564L203.051 144.271L203.078 143.643L205.043 144.598L207.008 145.581Z" fill="#84814D"/>
<path d="M207.059 144.298L203.757 142.715V142.769L203.156 142.469L203.184 141.759L207.659 143.916L207.632 144.653L207.059 144.353V144.298Z" fill="#84814D"/>
<path d="M207.059 144.353L207.632 144.653L207.604 145.827L207.004 145.554L207.059 144.353Z" fill="#44301D"/>
<path d="M203.76 142.77L203.679 143.889L205.043 144.598L203.078 143.643L203.16 142.469L203.76 142.77Z" fill="#84814D"/>
<path d="M205.016 143.889L203.379 142.96L203.652 143.288L205.262 144.162L205.016 143.889Z" fill="#A09C6A"/>
<path d="M211.27 128.847L213.618 130.431V134.798C213.618 135.153 213.508 135.836 213.508 135.836L212.089 135.945C212.089 135.945 211.571 133.27 211.707 132.614C211.844 131.987 210.151 130.922 210.151 130.922L206.085 129.148C206.085 129.148 205.048 128.902 204.939 129.53C204.802 130.158 204.939 131.85 204.939 131.85L203.902 132.232C203.902 132.232 203.52 128.383 203.52 127.755C203.52 127.128 205.566 127.373 206.576 127.619C207.586 127.865 211.298 128.875 211.298 128.875L211.27 128.847Z" fill="#58595B"/>
<path d="M203.98 129.421C204.116 128.138 209.111 129.557 209.111 129.557C209.111 129.557 211.949 131.086 212.195 131.877C212.386 132.478 212.359 134.908 212.331 135.972H212.058C212.058 135.972 211.54 133.297 211.676 132.642C211.813 132.014 210.121 130.949 210.121 130.949L206.054 129.175C206.054 129.175 205.017 128.929 204.908 129.557C204.771 130.185 204.908 131.877 204.908 131.877L203.871 132.26C203.871 132.26 203.816 131.632 203.734 130.867C203.871 130.349 203.953 129.83 204.007 129.448L203.98 129.421Z" fill="#231F20"/>
<path d="M190.42 54.1597L190.283 55.4154L180.104 57.1352L179.066 57.2444C179.066 57.2444 180.104 56.207 179.858 54.0232L179.64 51.8394L189.137 53.7775L190.393 54.1324L190.42 54.1597Z" fill="#FBCBA7"/>
<path d="M175.517 42.0119L174.152 46.7072L175.735 47.7445L175.517 42.0119Z" fill="#E2AC88"/>
<path d="M175.082 43.486C175.082 41.7935 175.355 40.1829 175.846 38.7361C175.983 39.091 176.201 39.4185 176.665 39.5004C178.057 39.7188 178.057 41.7935 178.057 41.7935L177.62 43.6224L177.156 46.598C177.156 46.598 178.302 43.1584 178.985 42.9127C179.667 42.6943 180.595 44.2776 179.913 46.1339C179.34 47.6353 179.995 52.4671 180.267 54.1869C179.34 53.559 178.193 53.9139 177.484 53.013C175.819 50.8292 175.109 46.7617 175.109 43.5133L175.082 43.486Z" fill="#FBCBA7"/>
<path d="M201.197 165.536C201.197 165.536 201.224 167.038 200.296 167.665C199.396 168.266 196.557 168.703 195.657 168.266C194.729 167.856 192.709 166.846 191.481 166.546C190.28 166.246 184.412 164.608 184.194 163.707C184.003 162.806 184.385 161.387 184.385 161.387L187.606 160.977L201.17 165.509L201.197 165.536Z" fill="#414042"/>
<path d="M193.906 160.076L186.729 160.268C186.729 160.268 184.709 160.568 184.409 161.387C184.109 162.206 183.699 163.107 186.046 163.898C188.366 164.717 194.343 166.628 195.134 167.038C195.953 167.447 199.283 167.338 200.593 166.355C201.93 165.345 201.521 163.816 200.893 162.424C200.293 161.005 193.906 160.076 193.906 160.076Z" fill="black"/>
<path d="M192.82 159.885C192.82 159.885 191.729 161.087 191.565 161.36C191.401 161.633 190.419 161.824 190.746 161.278C191.074 160.732 191.92 159.776 191.92 159.776L192.82 159.858V159.885Z" fill="#414042"/>
<path d="M191.099 159.885C191.099 159.885 189.98 161.087 189.844 161.36C189.653 161.633 188.697 161.824 189.025 161.278C189.352 160.732 190.198 159.776 190.198 159.776L191.099 159.858V159.885Z" fill="#414042"/>
<path d="M181.138 179.813C181.138 179.813 181.192 181.506 180.101 182.243C179.064 182.925 175.871 183.389 174.833 182.925C173.824 182.461 171.504 181.342 170.139 180.987C168.775 180.632 162.115 178.803 161.897 177.766C161.679 176.728 162.115 175.145 162.115 175.145L165.773 174.681L181.111 179.841L181.138 179.813Z" fill="#414042"/>
<path d="M172.897 173.617L164.764 173.862C164.764 173.862 162.444 174.19 162.116 175.118C161.761 176.046 161.325 177.056 163.945 177.984C166.592 178.912 173.306 181.069 174.234 181.533C175.162 181.997 178.928 181.861 180.429 180.741C181.93 179.568 181.466 177.875 180.784 176.264C180.102 174.654 172.897 173.617 172.897 173.617Z" fill="black"/>
<path d="M171.61 173.425C171.61 173.425 170.382 174.79 170.218 175.091C170.027 175.418 168.908 175.609 169.29 175.009C169.672 174.381 170.627 173.289 170.627 173.289L171.637 173.398L171.61 173.425Z" fill="#414042"/>
<path d="M169.674 173.425C169.674 173.425 168.446 174.79 168.255 175.091C168.064 175.418 166.972 175.609 167.354 175.009C167.709 174.381 168.664 173.289 168.664 173.289L169.701 173.398L169.674 173.425Z" fill="#414042"/>
<path d="M192.105 56.4253L191.559 54.842L177.804 57.4626L175.594 59.3462L192.597 56.3434" fill="#E6E7E8"/>
<path d="M170.711 110.503C170.711 110.503 177.589 108.374 180.318 108.074C183.074 107.746 200.159 108.974 200.159 108.974C200.623 109.766 201.851 120.303 201.251 123.333C200.623 126.391 200.459 144.571 200.459 145.772C200.459 146.973 201.251 158.466 201.251 158.466L201.387 162.288C201.387 162.288 199.04 163.298 197.048 163.653C196.529 159.476 195.274 149.157 194.673 146.837C193.909 143.971 192.681 130.676 191.617 128.383C190.689 126.309 187.168 122.978 185.339 125.135C184.248 125.817 183.129 127.155 182.61 129.448C181.71 133.57 181.846 140.749 181.846 141.978C181.846 143.206 180.754 147.465 180.754 148.229C180.754 148.994 180.618 165.482 181.082 169.767C181.519 174.026 181.328 176.701 181.328 176.701C181.328 176.701 177.78 177.629 175.269 176.92C172.348 176.128 170.793 174.408 171.748 171.433C172.458 169.221 172.212 148.966 172.212 146.373C172.212 143.78 170.684 117.983 170.52 115.826C170.383 113.67 170.684 110.449 170.684 110.449L170.711 110.503Z" fill="#533011"/>
<path d="M191.617 128.383C192.709 130.676 193.909 143.971 194.674 146.837C195.274 149.157 196.53 159.476 197.048 163.653C196.229 163.816 195.492 163.844 194.974 163.653C193.145 163.052 192.081 160.759 192.081 160.759C192.081 160.759 192.982 151.45 192.081 147.929C191.18 144.435 190.853 137.856 190.553 135.099C190.252 132.369 188.424 125.79 187.496 124.862C187.087 124.452 186.213 124.589 185.34 125.135C187.168 122.951 190.689 126.309 191.617 128.383Z" fill="#5F3917"/>
<path d="M193.503 56.2069C193.503 56.2069 192.575 55.3061 191.784 55.5245C190.992 55.7429 176.091 58.3908 176.091 58.3908L172.625 61.7212C172.625 61.7212 175.627 59.6465 176.855 59.4282C178.111 59.1825 193.476 56.2069 193.476 56.2069H193.503Z" fill="url(#paint34_linear_701_19559)"/>
<path d="M199.563 102.259C199.563 102.259 200.463 107.746 200.163 108.974C199.863 110.203 188.1 114.325 183.651 114.325C179.203 114.325 171.288 111.568 171.288 111.568C171.288 111.568 170.224 110.039 170.824 106.681C171.452 103.324 171.588 101.031 171.588 101.031L199.535 102.259H199.563Z" fill="#E6E7E8"/>
<path d="M169.62 106.19C169.62 106.19 169.921 75.0427 170.385 68.5184C170.603 65.5429 171.695 63.4409 172.814 61.9668C174.178 60.1925 175.597 59.3735 175.597 59.3735L192.573 56.3707C192.573 56.3707 192.9 56.3707 194.511 56.125C195.193 56.0431 196.394 57.2443 197.595 59.1005C199.205 61.5301 200.87 65.0515 201.607 68.1635C202.043 70.0744 202.18 75.6159 202.18 82.0037C202.18 91.0394 201.907 98.3826 201.77 103.351C201.716 105.043 201.688 106.135 201.688 106.135L194.374 111.404L193.883 108.729L193.228 111.759C193.228 111.759 183.376 114.052 177.535 113.26C177.453 113.26 177.399 113.206 177.289 113.206C171.64 112.305 169.293 107.992 169.293 107.992L169.62 106.272V106.19Z" fill="url(#paint35_linear_701_19559)"/>
<path d="M175.737 37.2075L176.064 36.4158C175.846 35.6788 175.682 34.5596 175.737 32.7852C175.901 29.4275 177.265 27.7623 177.265 27.7623L177.729 30.8197L179.23 28.5267C179.23 28.5267 179.094 30.656 179.558 30.656C180.022 30.656 181.386 29.291 181.386 29.291L182.287 30.3557C182.287 30.3557 185.644 30.9835 186.708 30.9835C187.773 30.9835 191.075 33.0855 192.03 34.8599C192.03 34.8599 192.03 34.869 192.03 34.8872C192.03 34.8872 192.167 35.0237 192.194 35.1055C193.886 37.344 194.923 40.2649 194.923 43.5407C194.923 46.8165 193.777 50.0649 191.921 52.2761C191.43 53.6137 191.02 54.651 191.02 54.651L187.854 55.197C186.899 55.5519 185.944 55.7976 184.934 55.7976C184.825 55.7976 184.743 55.7703 184.661 55.7703L181.85 56.2616L180.24 54.8967C180.24 54.8967 180.185 54.6237 180.158 54.2416C179.885 52.5218 179.23 47.69 179.803 46.1886C180.486 44.3596 179.585 42.749 178.875 42.9674C178.166 43.2131 177.047 46.6527 177.047 46.6527L177.511 43.6772L177.947 41.8482C177.947 41.8482 177.947 39.7735 176.556 39.5552C176.092 39.4733 175.873 39.1457 175.737 38.7908C175.491 38.1084 175.628 37.2621 175.628 37.2621L175.737 37.2075Z" fill="black"/>
<path d="M115.991 76.5987C115.991 76.5987 115.855 79.1647 116.783 79.1374C117.711 79.1374 117.793 78.5369 117.602 77.6088C117.411 76.6806 117.274 75.8617 117.056 75.7525C116.838 75.6433 115.991 76.5714 115.991 76.5714V76.5987Z" fill="#F9C697"/>
<path d="M117.846 75.8616C117.846 75.8616 117.164 78.919 117.846 79.192C118.529 79.4923 119.429 80.5842 119.647 78.646C119.866 76.6806 120.111 75.5068 119.238 75.2065C118.365 74.9062 117.846 75.8889 117.846 75.8889V75.8616Z" fill="#F9C697"/>
<path d="M120.137 76.2438C119.973 76.5168 119.264 78.0728 119.4 79.0556C119.537 80.0383 120.383 80.7207 120.929 79.0556C121.447 77.3904 122.211 76.8444 121.665 76.2438C121.12 75.6433 120.137 76.2438 120.137 76.2438Z" fill="#F9C697"/>
<path d="M122.546 76.1892C122.546 76.1892 121.946 76.5168 121.291 78.1001C120.636 79.6833 120.063 80.2566 120.609 80.475C121.182 80.6934 122.082 80.6388 122.847 79.1647C123.611 77.6906 123.775 77.4722 123.502 76.9808C123.229 76.4895 122.519 76.1619 122.519 76.1619L122.546 76.1892Z" fill="#F9C697"/>
<path d="M170.413 96.0077C170.413 96.0077 180.538 86.7263 181.111 77.9636C181.684 69.1736 183.022 60.602 181.411 59.6192C179.801 58.6092 176.089 58.4181 176.089 58.4181C176.089 58.4181 172.733 70.4839 171.477 73.2956C170.222 76.1073 170.413 96.035 170.413 96.035V96.0077Z" fill="url(#paint36_linear_701_19559)"/>
<path d="M121.723 73.4595C121.723 73.4595 125.516 74.9062 125.08 76.2166C124.643 77.4996 123.196 78.1547 123.251 78.0182C123.333 77.8818 122.732 76.2166 122.35 75.9709C121.968 75.7525 121.723 73.4321 121.723 73.4321V73.4595Z" fill="#F9C697"/>
<path d="M182.339 61.9941C183.458 64.7786 179.992 76.6259 178.409 81.2393C176.853 85.8527 173.96 88.8283 171.777 87.4906C169.566 86.153 168.147 91.831 168.038 84.324C167.929 76.8443 171.04 63.7685 171.668 62.9496C172.296 62.1306 175.134 57.681 178.191 58.4454C180.21 58.9549 181.593 60.1379 182.339 61.9941Z" fill="url(#paint37_linear_701_19559)"/>
<path d="M150.817 100.949C150.817 100.949 148.934 101.386 148.388 101.522C147.842 101.631 146.45 102.204 146.232 102.477C146.014 102.723 144.977 104.061 144.977 104.061L145.659 106.9L145.986 108.374C145.986 108.374 148.47 110.667 148.797 110.831C149.125 110.967 152.236 108.592 152.236 108.592L153.737 105.289L150.817 100.976V100.949Z" fill="#FBCBA7"/>
<path d="M155.291 104.852L153.981 106.135L150.078 100.894L151.77 99.3381L155.291 104.852Z" fill="#E6E7E8"/>
<path d="M175.597 83.5052C175.597 83.5052 179.309 83.4779 171.913 90.4662C164.544 97.4818 155.183 105.753 155.183 105.753L150.625 100.048L169.647 81.3486L175.597 83.5052Z" fill="#AB8169"/>
<path d="M148.116 104.088L145.96 104.852L145.551 104.197L146.315 103.378L146.943 103.133L148.116 104.088Z" fill="#E2AC88"/>
<path d="M148.276 106.408L145.711 107.828L145.984 108.374L148.276 106.408Z" fill="#E2AC88"/>
<path d="M149.565 108.019L146.973 109.247L147.546 109.766L149.565 108.019Z" fill="#E2AC88"/>
<path d="M150.297 108.838L148.195 110.312L148.796 110.803L150.297 108.838Z" fill="#E2AC88"/>
<path d="M137.691 66.28C137.691 66.28 136.49 66.9351 136.326 66.4438C136.135 65.9251 136.381 65.5702 137.281 64.6148C138.182 63.6866 138.864 63.0861 139.083 63.4955C139.301 63.905 137.691 66.28 137.691 66.28Z" fill="#EAA871"/>
<path d="M135.804 66.7714C135.804 66.7714 134.603 66.2254 134.658 65.5703C134.713 64.9424 136.05 63.5229 136.705 63.1407C137.333 62.7586 138.288 62.7313 137.687 63.6867C137.087 64.6421 135.804 66.7441 135.804 66.7441V66.7714Z" fill="#EAA871"/>
<path d="M134.773 66.1435C134.473 66.1435 133.217 66.4165 133.436 65.2154C133.654 64.0143 133.954 62.977 134.636 62.3491C135.346 61.7212 135.864 61.3937 135.864 62.3491C135.864 63.3045 134.746 65.8433 134.746 65.8433V66.1435H134.773Z" fill="#EAA871"/>
<path d="M132.478 66.3346C132.123 65.9797 131.086 65.3791 131.632 64.1507C132.178 62.9223 132.424 61.9395 133.406 61.5301C134.389 61.1206 134.935 61.6666 134.361 62.7585C133.788 63.8504 133.379 65.2972 133.461 65.6248C133.543 65.9524 132.478 66.3072 132.478 66.3072V66.3346Z" fill="#EAA871"/>
<defs>
<linearGradient id="paint0_linear_701_19559" x1="96.1608" y1="101.031" x2="96.1608" y2="160.732" gradientUnits="userSpaceOnUse">
<stop stop-color="#C0966A"/>
<stop offset="1" stop-color="#A77D69"/>
</linearGradient>
<linearGradient id="paint1_linear_701_19559" x1="237.072" y1="181.615" x2="237.072" y2="196.738" gradientUnits="userSpaceOnUse">
<stop stop-color="#C0966A"/>
<stop offset="1" stop-color="#A77D69"/>
</linearGradient>
<linearGradient id="paint2_linear_701_19559" x1="159.425" y1="187.702" x2="159.425" y2="200.969" gradientUnits="userSpaceOnUse">
<stop stop-color="#C0966A"/>
<stop offset="1" stop-color="#A77D69"/>
</linearGradient>
<linearGradient id="paint3_linear_701_19559" x1="229.604" y1="190.896" x2="229.604" y2="196.765" gradientUnits="userSpaceOnUse">
<stop stop-color="#C0966A"/>
<stop offset="1" stop-color="#A77D69"/>
</linearGradient>
<linearGradient id="paint4_linear_701_19559" x1="227.703" y1="190.405" x2="227.703" y2="195.864" gradientUnits="userSpaceOnUse">
<stop stop-color="#C0966A"/>
<stop offset="1" stop-color="#A77D69"/>
</linearGradient>
<linearGradient id="paint5_linear_701_19559" x1="226.044" y1="190.104" x2="226.044" y2="195.346" gradientUnits="userSpaceOnUse">
<stop stop-color="#C0966A"/>
<stop offset="1" stop-color="#A77D69"/>
</linearGradient>
<linearGradient id="paint6_linear_701_19559" x1="224.553" y1="189.995" x2="224.553" y2="195.1" gradientUnits="userSpaceOnUse">
<stop stop-color="#C0966A"/>
<stop offset="1" stop-color="#A77D69"/>
</linearGradient>
<linearGradient id="paint7_linear_701_19559" x1="223.108" y1="189.968" x2="223.108" y2="194.964" gradientUnits="userSpaceOnUse">
<stop stop-color="#C0966A"/>
<stop offset="1" stop-color="#A77D69"/>
</linearGradient>
<linearGradient id="paint8_linear_701_19559" x1="221.631" y1="189.968" x2="221.631" y2="195.045" gradientUnits="userSpaceOnUse">
<stop stop-color="#C0966A"/>
<stop offset="1" stop-color="#A77D69"/>
</linearGradient>
<linearGradient id="paint9_linear_701_19559" x1="220.063" y1="190.077" x2="220.063" y2="195.291" gradientUnits="userSpaceOnUse">
<stop stop-color="#C0966A"/>
<stop offset="1" stop-color="#A77D69"/>
</linearGradient>
<linearGradient id="paint10_linear_701_19559" x1="218.234" y1="190.323" x2="218.234" y2="195.81" gradientUnits="userSpaceOnUse">
<stop stop-color="#C0966A"/>
<stop offset="1" stop-color="#A77D69"/>
</linearGradient>
<linearGradient id="paint11_linear_701_19559" x1="214.689" y1="190.814" x2="214.689" y2="198.813" gradientUnits="userSpaceOnUse">
<stop stop-color="#C0966A"/>
<stop offset="1" stop-color="#A77D69"/>
</linearGradient>
<linearGradient id="paint12_linear_701_19559" x1="211.685" y1="193.844" x2="211.685" y2="200.068" gradientUnits="userSpaceOnUse">
<stop stop-color="#C0966A"/>
<stop offset="1" stop-color="#A77D69"/>
</linearGradient>
<linearGradient id="paint13_linear_701_19559" x1="210.951" y1="195.1" x2="210.951" y2="201.106" gradientUnits="userSpaceOnUse">
<stop stop-color="#C0966A"/>
<stop offset="1" stop-color="#A77D69"/>
</linearGradient>
<linearGradient id="paint14_linear_701_19559" x1="210.537" y1="196.137" x2="210.537" y2="202.061" gradientUnits="userSpaceOnUse">
<stop stop-color="#C0966A"/>
<stop offset="1" stop-color="#A77D69"/>
</linearGradient>
<linearGradient id="paint15_linear_701_19559" x1="210.35" y1="197.093" x2="210.35" y2="202.989" gradientUnits="userSpaceOnUse">
<stop stop-color="#C0966A"/>
<stop offset="1" stop-color="#A77D69"/>
</linearGradient>
<linearGradient id="paint16_linear_701_19559" x1="166.654" y1="201.16" x2="166.654" y2="212.325" gradientUnits="userSpaceOnUse">
<stop stop-color="#C0966A"/>
<stop offset="1" stop-color="#A77D69"/>
</linearGradient>
<linearGradient id="paint17_linear_701_19559" x1="184.406" y1="206.21" x2="184.406" y2="213.308" gradientUnits="userSpaceOnUse">
<stop stop-color="#C0966A"/>
<stop offset="1" stop-color="#A77D69"/>
</linearGradient>
<linearGradient id="paint18_linear_701_19559" x1="181.371" y1="208.34" x2="181.371" y2="213.827" gradientUnits="userSpaceOnUse">
<stop stop-color="#C0966A"/>
<stop offset="1" stop-color="#A77D69"/>
</linearGradient>
<linearGradient id="paint19_linear_701_19559" x1="179.543" y1="208.831" x2="179.543" y2="214.045" gradientUnits="userSpaceOnUse">
<stop stop-color="#C0966A"/>
<stop offset="1" stop-color="#A77D69"/>
</linearGradient>
<linearGradient id="paint20_linear_701_19559" x1="177.971" y1="209.104" x2="177.971" y2="214.154" gradientUnits="userSpaceOnUse">
<stop stop-color="#C0966A"/>
<stop offset="1" stop-color="#A77D69"/>
</linearGradient>
<linearGradient id="paint21_linear_701_19559" x1="176.503" y1="209.159" x2="176.503" y2="214.127" gradientUnits="userSpaceOnUse">
<stop stop-color="#C0966A"/>
<stop offset="1" stop-color="#A77D69"/>
</linearGradient>
<linearGradient id="paint22_linear_701_19559" x1="175.022" y1="209.022" x2="175.022" y2="214.127" gradientUnits="userSpaceOnUse">
<stop stop-color="#C0966A"/>
<stop offset="1" stop-color="#A77D69"/>
</linearGradient>
<linearGradient id="paint23_linear_701_19559" x1="173.536" y1="208.749" x2="173.536" y2="213.99" gradientUnits="userSpaceOnUse">
<stop stop-color="#C0966A"/>
<stop offset="1" stop-color="#A77D69"/>
</linearGradient>
<linearGradient id="paint24_linear_701_19559" x1="171.885" y1="208.285" x2="171.885" y2="213.745" gradientUnits="userSpaceOnUse">
<stop stop-color="#C0966A"/>
<stop offset="1" stop-color="#A77D69"/>
</linearGradient>
<linearGradient id="paint25_linear_701_19559" x1="169.947" y1="207.357" x2="169.947" y2="213.226" gradientUnits="userSpaceOnUse">
<stop stop-color="#C0966A"/>
<stop offset="1" stop-color="#A77D69"/>
</linearGradient>
<linearGradient id="paint26_linear_701_19559" x1="194.235" y1="206.21" x2="194.235" y2="219.45" gradientUnits="userSpaceOnUse">
<stop stop-color="#C0966A"/>
<stop offset="1" stop-color="#A77D69"/>
</linearGradient>
<linearGradient id="paint27_linear_701_19559" x1="197.538" y1="154.808" x2="197.538" y2="214.837" gradientUnits="userSpaceOnUse">
<stop stop-color="#C0966A"/>
<stop offset="1" stop-color="#A77D69"/>
</linearGradient>
<linearGradient id="paint28_linear_701_19559" x1="171.137" y1="56.0978" x2="171.137" y2="77.8271" gradientUnits="userSpaceOnUse">
<stop stop-color="#C0966A"/>
<stop offset="1" stop-color="#A77D69"/>
</linearGradient>
<linearGradient id="paint29_linear_701_19559" x1="108.822" y1="21.9767" x2="132.781" y2="31.2145" gradientUnits="userSpaceOnUse">
<stop stop-color="#C5D8FF"/>
<stop offset="1" stop-color="#6498FF"/>
</linearGradient>
<linearGradient id="paint30_linear_701_19559" x1="91.3979" y1="21.9394" x2="126.44" y2="38.6991" gradientUnits="userSpaceOnUse">
<stop stop-color="#C5D8FF"/>
<stop offset="1" stop-color="#6498FF"/>
</linearGradient>
<linearGradient id="paint31_linear_701_19559" x1="101.108" y1="37.3439" x2="101.108" y2="51.2114" gradientUnits="userSpaceOnUse">
<stop stop-color="#A77D69"/>
<stop offset="1" stop-color="#5F3917"/>
</linearGradient>
<linearGradient id="paint32_linear_701_19559" x1="99.8769" y1="33.3583" x2="99.8769" y2="38.4904" gradientUnits="userSpaceOnUse">
<stop stop-color="#A77D69"/>
<stop offset="1" stop-color="#5F3917"/>
</linearGradient>
<linearGradient id="paint33_linear_701_19559" x1="94.8519" y1="30.1286" x2="116.342" y2="62.0054" gradientUnits="userSpaceOnUse">
<stop stop-color="#C5D8FF"/>
<stop offset="1" stop-color="#6498FF"/>
</linearGradient>
<linearGradient id="paint34_linear_701_19559" x1="183.064" y1="55.4904" x2="183.064" y2="61.7212" gradientUnits="userSpaceOnUse">
<stop stop-color="#C0966A"/>
<stop offset="1" stop-color="#A77D69"/>
</linearGradient>
<linearGradient id="paint35_linear_701_19559" x1="185.736" y1="56.1211" x2="185.736" y2="113.426" gradientUnits="userSpaceOnUse">
<stop stop-color="#C0966A"/>
<stop offset="1" stop-color="#A77D69"/>
</linearGradient>
<linearGradient id="paint36_linear_701_19559" x1="176.29" y1="58.4181" x2="176.29" y2="96.035" gradientUnits="userSpaceOnUse">
<stop stop-color="#C0966A"/>
<stop offset="1" stop-color="#A77D69"/>
</linearGradient>
<linearGradient id="paint37_linear_701_19559" x1="175.296" y1="58.3575" x2="175.296" y2="88.302" gradientUnits="userSpaceOnUse">
<stop stop-color="#C0966A"/>
<stop offset="1" stop-color="#A77D69"/>
</linearGradient>
</defs>
</svg>
