<svg width="454" height="421" viewBox="0 0 454 421" fill="none" xmlns="http://www.w3.org/2000/svg">
<g filter="url(#filter0_d_882_16880)">
<path d="M154.261 285.933H151.23L151.555 281.704L152.151 273.93H153.339L153.936 281.704L154.261 285.933Z" fill="#24173A"/>
<g style="mix-blend-mode:multiply" opacity="0.36">
<path d="M153.935 281.704C153.545 281.745 153.148 281.766 152.745 281.766C152.343 281.766 151.945 281.745 151.555 281.704L152.152 273.93H153.34L153.938 281.704H153.935Z" fill="#4859C4"/>
</g>
<path d="M152.746 286.089C153.582 286.089 154.261 286.019 154.261 285.933C154.261 285.846 153.582 285.776 152.746 285.776C151.909 285.776 151.23 285.846 151.23 285.933C151.23 286.019 151.909 286.089 152.746 286.089Z" fill="#24173A"/>
</g>
<rect x="32.5" y="39.5" width="420" height="380" stroke="#623E91" stroke-width="3"/>
<rect width="423" height="383" fill="#F3F3F3"/>
<path d="M225.812 165.235L76.521 249.163C72.493 251.427 70 255.689 70 260.31V304.213C70 311.275 75.7251 317 82.7874 317H353.593C360.379 317 365.984 311.698 366.36 304.922L369.543 247.637C369.813 242.781 367.305 238.193 363.072 235.798L238.375 165.252C234.479 163.048 229.714 163.041 225.812 165.235Z" fill="#C0966A"/>
<g style="mix-blend-mode:multiply" opacity="0.36" filter="url(#filter1_d_882_16880)">
<path d="M319.153 316.257C326.085 316.257 331.704 315.353 331.704 314.238C331.704 313.122 326.085 312.218 319.153 312.218C312.221 312.218 306.602 313.122 306.602 314.238C306.602 315.353 312.221 316.257 319.153 316.257Z" fill="#385E96"/>
</g>
<g filter="url(#filter2_d_882_16880)">
<path d="M306.698 301.932H303.668L303.992 297.703L304.589 289.929H305.776L306.374 297.703L306.698 301.932Z" fill="#24173A"/>
<g style="mix-blend-mode:multiply" opacity="0.36">
<path d="M306.372 297.703C305.982 297.745 305.586 297.766 305.183 297.766C304.78 297.766 304.382 297.745 303.992 297.703L304.59 289.929H305.777L306.375 297.703H306.372Z" fill="#4859C4"/>
</g>
<path d="M316.404 285.053C316.404 291.039 311.554 296.252 305.178 296.252C297.692 296.252 292.304 289.06 294.409 281.878L294.858 280.347L302.917 252.848C303.577 250.59 306.778 250.59 307.44 252.848L315.496 280.348L315.946 281.878C316.259 282.945 316.406 284.011 316.406 285.053H316.404Z" fill="#4859C4"/>
<g style="mix-blend-mode:multiply" opacity="0.36">
<path d="M315.498 280.348C313.807 284.278 309.913 287.154 305.179 287.154C300.445 287.154 296.55 284.277 294.859 280.347L302.918 252.848C303.578 250.59 306.779 250.59 307.441 252.848L315.498 280.348Z" fill="#4859C4"/>
</g>
<path d="M315.948 268.243L307.442 239.213C306.78 236.955 303.581 236.955 302.919 239.213L294.413 268.243C292.308 275.427 297.694 282.619 305.18 282.619C312.667 282.619 318.053 275.427 315.948 268.243Z" fill="#4859C4"/>
<path d="M305.183 302.089C306.02 302.089 306.698 302.019 306.698 301.933C306.698 301.846 306.02 301.776 305.183 301.776C304.346 301.776 303.668 301.846 303.668 301.933C303.668 302.019 304.346 302.089 305.183 302.089Z" fill="#24173A"/>
</g>
<g style="mix-blend-mode:multiply" opacity="0.36" filter="url(#filter3_d_882_16880)">
<path d="M125.399 316.257C132.41 316.257 138.094 315.353 138.094 314.238C138.094 313.122 132.41 312.218 125.399 312.218C118.387 312.218 112.703 313.122 112.703 314.238C112.703 315.353 118.387 316.257 125.399 316.257Z" fill="#385E96"/>
</g>
<path d="M144.967 285.053C144.967 291.039 140.116 296.252 133.741 296.252C126.254 296.252 120.867 289.06 122.971 281.877L123.421 280.346L131.479 252.848C132.139 250.59 135.34 250.59 136.002 252.848L144.059 280.348L144.508 281.877C144.821 282.945 144.968 284.011 144.968 285.053H144.967Z" fill="#4859C4"/>
<g style="mix-blend-mode:multiply" opacity="0.36">
<path d="M144.06 280.348C142.371 284.278 138.476 287.153 133.742 287.153C129.008 287.153 125.113 284.276 123.422 280.346L131.48 252.848C132.14 250.59 135.342 250.59 136.003 252.848L144.06 280.348Z" fill="#4859C4"/>
</g>
<path d="M144.511 268.243L136.005 239.213C135.343 236.955 132.143 236.955 131.481 239.213L122.975 268.243C120.871 275.427 126.257 282.619 133.743 282.619C141.229 282.619 146.615 275.427 144.511 268.243Z" fill="#4859C4"/>
<g filter="url(#filter4_d_882_16880)">
<path d="M255.628 128.915C261.693 122.85 261.693 113.016 255.628 106.951C249.564 100.886 239.73 100.886 233.665 106.951C227.6 113.016 227.6 122.85 233.665 128.915C239.73 134.98 249.564 134.98 255.628 128.915Z" fill="#D3E3FF"/>
<path d="M251.59 114.08L241.789 110.528L248.206 99.1213L253.971 101.21L251.59 114.08Z" fill="#D3E3FF"/>
<path d="M237.706 121.785L247.505 125.336L241.089 136.744L235.324 134.656L237.706 121.785Z" fill="#D3E3FF"/>
<path d="M248.492 124.873L252.044 115.073L263.45 121.49L261.361 127.255L248.492 124.873Z" fill="#D3E3FF"/>
<path d="M240.79 110.993L237.239 120.792L225.832 114.377L227.921 108.612L240.79 110.993Z" fill="#D3E3FF"/>
<path d="M246.829 110.301L237.388 114.719L233.859 102.116L239.412 99.5161L246.829 110.301Z" fill="#D3E3FF"/>
<path d="M242.461 125.564L251.902 121.145L255.431 133.749L249.879 136.348L242.461 125.564Z" fill="#D3E3FF"/>
<path d="M252.282 120.115L247.863 110.675L260.467 107.146L263.066 112.699L252.282 120.115Z" fill="#D3E3FF"/>
<path d="M237.018 115.75L241.437 125.191L228.833 128.72L226.234 123.167L237.018 115.75Z" fill="#D3E3FF"/>
<path d="M246.854 122.652C249.461 121.432 250.585 118.33 249.365 115.722C248.145 113.115 245.042 111.991 242.435 113.211C239.828 114.431 238.704 117.534 239.924 120.141C241.144 122.748 244.247 123.872 246.854 122.652Z" fill="#6BA7FF"/>
</g>
<g filter="url(#filter5_d_882_16880)">
<path d="M267.949 105.684C273.227 104.24 276.335 98.791 274.891 93.5131C273.448 88.2352 267.998 85.1271 262.721 86.5709C257.443 88.0148 254.335 93.4639 255.778 98.7418C257.222 104.02 262.671 107.128 267.949 105.684Z" fill="#D3E3FF"/>
<path d="M268.696 92.3398L262.047 92.2711L263.501 84.0496L267.412 84.0895L268.696 92.3398Z" fill="#D3E3FF"/>
<path d="M261.969 99.9075L268.618 99.9762L267.163 108.198L263.252 108.158L261.969 99.9075Z" fill="#D3E3FF"/>
<path d="M269.133 99.4867L269.202 92.8379L277.423 94.2923L277.381 98.2033L269.133 99.4867Z" fill="#D3E3FF"/>
<path d="M261.56 92.7598L261.491 99.4086L253.27 97.9541L253.311 94.0432L261.56 92.7598Z" fill="#D3E3FF"/>
<path d="M265.043 91.0697L260.293 95.7222L255.508 88.8816L258.302 86.1438L265.043 91.0697Z" fill="#D3E3FF"/>
<path d="M265.637 101.179L270.387 96.5266L275.172 103.369L272.378 106.105L265.637 101.179Z" fill="#D3E3FF"/>
<path d="M270.387 95.8278L265.734 91.0777L272.577 86.2925L275.313 89.0863L270.387 95.8278Z" fill="#D3E3FF"/>
<path d="M260.281 96.4221L264.934 101.172L258.092 105.957L255.355 103.162L260.281 96.4221Z" fill="#D3E3FF"/>
<path d="M271.789 97.3952C272.492 93.828 270.17 90.3663 266.603 89.6632C263.036 88.9601 259.574 91.2819 258.871 94.8491C258.168 98.4163 260.489 101.878 264.057 102.581C267.624 103.284 271.086 100.962 271.789 97.3952Z" fill="#6BA7FF"/>
</g>
<g filter="url(#filter6_d_882_16880)">
<path d="M225.766 100.754L226.553 91.2432L225.678 86.5811H217.297H208.917L208.043 91.2432L208.829 100.754L213.941 105.404L217.108 106.356L213.653 105.926L210.837 103.673L210.594 108.586L214.9 113.111L220.199 113.162L223.402 108.586L223.017 103.227L225.766 100.754Z" fill="#D8AF93"/>
<path d="M206.931 79.8159L223.826 80.2443L225.544 81.6491L227.093 81.8937L228.066 88.2468L226.067 97.1028L226.028 90.8216L225.314 91.3426L224.398 87.494L216.472 88.9852L209.107 87.7993L209.05 90.8216H208.562L208.526 97.1028L206.645 87.454L207.332 81.4046L206.931 79.8159Z" fill="#040A19"/>
<path d="M224.67 108.685L223.401 108.586L219.934 112.27L215.221 112.472L210.592 108.586L209.87 108.685L197.926 114.676L198.268 162.384L237.109 161.887L232.046 112.045L224.67 108.685Z" fill="#C1D0F7"/>
<path d="M219.793 112.267L220.653 114.017L218.807 115.817L217.698 116.055L218.881 116.159L221.336 152.513L217.306 158.793L212.766 152.545L215.753 115.887L214.236 113.798L215.222 112.472L219.793 112.267Z" fill="black"/>
<path d="M219.237 161.887H199.129L200.825 189.952L202.933 277.151H211.057L217.68 210.554L215.434 183.23L219.237 161.887Z" fill="#061435"/>
<path d="M217.145 161.887H236.567L235.557 189.952L233.449 277.151H225.378L215.43 183.23L200.82 161.887H217.145Z" fill="#061435"/>
<path d="M209.877 108.685L195.836 111.916L197.437 161.89L196.645 181.012C196.645 181.012 203.182 191.663 210.303 171.59C211.36 168.614 211.486 158.308 211.486 158.308L209.875 108.684L209.877 108.685Z" fill="url(#paint0_linear_882_16880)"/>
<path d="M209.871 108.685L204.082 114.065L208.37 117.261L206.483 122.764L211.482 158.308L209.871 108.685Z" fill="#12275B"/>
<path d="M224.672 108.686L238.281 111.916L240.498 116.177L245.814 139.406L237.111 161.89L238.837 181.012C238.837 181.012 231.367 191.663 224.245 171.59C223.189 168.614 223.062 158.309 223.062 158.309L224.674 108.684L224.672 108.686Z" fill="url(#paint1_linear_882_16880)"/>
<path d="M224.67 108.685L230.459 114.065L226.172 117.261L228.058 122.764L223.059 158.308L224.67 108.685Z" fill="#12275B"/>
<path d="M195.829 111.915L179.99 132.924L164.642 122.42L160.723 127.21L179.971 144.029L196.386 131.179L195.829 111.915Z" fill="url(#paint2_linear_882_16880)"/>
<path d="M151.881 118.727L150.38 116.646C150.315 116.555 150.34 116.429 150.435 116.369L150.508 116.323C150.903 116.075 151.417 116.147 151.729 116.492L153.046 117.952L155.794 119.962L151.881 118.727Z" fill="#D8AF93"/>
<g style="mix-blend-mode:multiply" opacity="0.45">
<path d="M152.469 117.555L153.318 118.443L155.798 119.961L155.17 120.362L153.251 118.631L150.922 117.389L151.545 117.263C151.882 117.194 152.232 117.305 152.471 117.554L152.469 117.555Z" fill="#D8AF93"/>
</g>
<path d="M152.304 119.668L150.343 118.014C150.256 117.942 150.25 117.813 150.328 117.731L150.387 117.669C150.71 117.333 151.226 117.277 151.613 117.536L153.245 118.631L152.304 119.667V119.668Z" fill="#D8AF93"/>
<g style="mix-blend-mode:multiply" opacity="0.45">
<path d="M151.027 117.524L151.93 119.355L152.301 119.669L151.334 117.41L151.027 117.524Z" fill="#D8AF93"/>
</g>
<path d="M162.434 120.792L160.662 119.74C160.528 119.667 160.379 119.621 160.227 119.603L158.728 119.422C158.605 119.408 158.479 119.418 158.359 119.451L157.357 119.737L156.697 119.151C156.492 118.97 156.206 118.913 155.949 119L155.838 119.039C155.594 119.124 155.48 119.403 155.597 119.635L155.648 119.737L158.642 121.439L162.438 120.792H162.434Z" fill="#D8AF93"/>
<g style="mix-blend-mode:multiply" opacity="0.45">
<path d="M162.44 120.792L160.668 119.74C160.533 119.667 160.385 119.621 160.233 119.603L158.734 119.422C158.611 119.408 158.484 119.418 158.365 119.451L157.362 119.737L157.036 119.446L156.979 119.43C156.578 119.312 156.143 119.386 155.803 119.63L155.652 119.737L158.646 121.439L162.442 120.792H162.44Z" fill="#D8AF93"/>
</g>
<path d="M164.644 122.42L162.442 120.792L158.897 119.961H155.796L153.248 118.631L152.556 117.699C152.235 117.266 151.623 117.178 151.192 117.501C151.132 117.546 151.115 117.627 151.153 117.691L152.306 119.667L154.354 121.898L158.12 123.558L161.221 123.891L162.515 125.016L164.641 122.417L164.644 122.42Z" fill="#D8AF93"/>
<path d="M233.448 277.15L236.401 281.958V283.762H225.987L225.699 282.204L226.884 277.15H233.448Z" fill="#020711"/>
<path d="M202.934 277.15L199.98 281.958V283.762H210.395L210.681 282.204L209.497 277.15H202.934Z" fill="#020711"/>
</g>
<g filter="url(#filter7_d_882_16880)">
<path d="M243.538 298.639C243.538 298.149 232.271 297.385 218.371 297.385C204.47 297.385 193.203 298.149 193.203 298.639V300.065C193.203 300.555 204.47 301.599 218.371 301.599C232.271 301.599 243.538 300.555 243.538 300.065V298.639Z" fill="#164A7D"/>
<path d="M240.01 294.131H196.72C196.72 294.131 194.534 295.746 194.215 298.817C194.215 299.307 205.027 300.071 218.366 300.071C231.704 300.071 242.516 299.307 242.516 298.817C242.195 295.746 240.012 294.131 240.012 294.131H240.01Z" fill="#1C5AA1"/>
<g style="mix-blend-mode:multiply" opacity="0.36">
<path d="M240.011 294.131H196.721C196.721 294.131 196.449 294.333 196.082 294.729C198.776 295.102 207.723 295.91 218.367 295.91C229.011 295.91 237.929 295.106 240.656 294.734C240.288 294.335 240.013 294.131 240.013 294.131H240.011Z" fill="#1C5AA1"/>
</g>
<path d="M237.753 289.442H199.009C199.009 289.442 197.053 291.057 196.766 294.125C196.766 294.615 206.444 295.378 218.381 295.378C230.318 295.378 239.996 294.615 239.996 294.125C239.709 291.055 237.753 289.442 237.753 289.442Z" fill="#1C5AA1"/>
<path d="M237.756 289.443C237.756 289.932 229.082 290.327 218.384 290.327C207.686 290.327 199.012 289.93 199.012 289.443C199.012 288.955 207.686 288.558 218.384 288.558C229.082 288.558 237.756 288.953 237.756 289.443Z" fill="#456EAF"/>
</g>
<g filter="url(#filter8_d_882_16880)">
<path d="M165.352 182.061L200.878 288.764C200.878 289.197 208.554 289.547 218.022 289.547C227.491 289.547 235.167 289.196 235.167 288.764L270.693 182.061H165.352Z" fill="url(#paint3_linear_882_16880)"/>
</g>
<g filter="url(#filter9_d_882_16880)">
<path d="M163.484 97.0183H152.285V105.932H163.484V97.0183Z" fill="#071935"/>
<path d="M164.079 97.0183H151.689C151.343 97.0183 151.062 97.2988 151.062 97.6448V98.8355C151.062 99.1816 151.343 99.4621 151.689 99.4621H164.079C164.425 99.4621 164.705 99.1816 164.705 98.8355V97.6448C164.705 97.2988 164.425 97.0183 164.079 97.0183Z" fill="#0B1E44"/>
<path d="M164.079 100.253H151.689C151.343 100.253 151.062 100.534 151.062 100.88V102.071C151.062 102.417 151.343 102.697 151.689 102.697H164.079C164.425 102.697 164.705 102.417 164.705 102.071V100.88C164.705 100.534 164.425 100.253 164.079 100.253Z" fill="#0B1E44"/>
<path d="M164.079 103.488H151.689C151.343 103.488 151.062 103.769 151.062 104.115V105.305C151.062 105.651 151.343 105.932 151.689 105.932H164.079C164.425 105.932 164.705 105.651 164.705 105.305V104.115C164.705 103.769 164.425 103.488 164.079 103.488Z" fill="#0B1E44"/>
<path d="M162.349 105.932C162.349 108.398 160.35 110.397 157.884 110.397C155.417 110.397 153.418 108.398 153.418 105.932H162.349Z" fill="#071935"/>
<path d="M168.297 81.4143C168.297 75.6622 163.635 71 157.883 71C152.131 71 147.469 75.6622 147.469 81.4143C147.469 83.3754 148.012 85.2102 148.954 86.7765L150.381 89.4408C151.629 91.7711 152.283 94.3747 152.283 97.0182H163.482V96.8568C163.482 94.0023 164.244 91.1989 165.689 88.736L166.811 86.8229H166.784C167.744 85.247 168.297 83.3946 168.297 81.4143Z" fill="#FFF734"/>
</g>
<g filter="url(#filter10_d_882_16880)">
<path d="M213.431 300.049L213.081 300.686L212.281 301.6L212.133 302.089L216.21 302.078V301.443L215.964 300.452L215.863 299.784L213.431 300.049Z" fill="#020711"/>
<path d="M226.989 299.784L228.982 300.937L230.508 301.394L230.793 302.089L226.782 302.082L225.653 301.764L225.569 302.081L224.492 302.078V301.595L224.574 300.086L226.989 299.784Z" fill="#020711"/>
<path d="M223.31 236.953H218.145L218.511 241.04L218.56 242.306L218.295 243.398L219.851 244.305L220.93 244.259L222.046 243.398L221.816 242.424L221.247 242.325L222.442 240.957L223.31 236.953Z" fill="#D8AF93"/>
<path d="M213.752 268.265L213.16 300.077L215.855 299.784L219.922 276.33L219.007 270.343L224.247 300.128L226.985 299.784L226.51 268.664L218.286 264.811L213.752 268.265Z" fill="#080E32"/>
<path d="M214.094 261.864L212.917 244.61L218.004 243.38H222.313L226.567 243.212L227.141 247.948L226.345 261.873L227.333 268.445L223.956 270.117L219.087 269.607L218.362 265.03L218.589 269.607L213.602 270.298L212.074 269.371L214.094 261.864Z" fill="#08153F"/>
<path d="M212.915 244.61L208.602 257.006L213.587 264.493L214.37 261.742L212.369 256.941L213.54 253.754L212.915 244.61Z" fill="#08153F"/>
<path d="M222.008 234.417L218.211 234.83L217.568 235.621L216.864 235.346L216.609 237.158L217.504 240.396L218.328 242.306L222.106 242.333L223.311 240.208L223.888 237.272L223.862 235.977L222.008 234.417Z" fill="#050D21"/>
<path d="M227.14 247.948L232.884 244.44L234.364 234.719L232.539 233.108L229.8 242.13L226.566 243.212L227.14 247.948Z" fill="#08153F"/>
<path d="M232.605 233.165L232.799 232.5L232.669 231.645L232.874 230.715L233.427 230.191L233.938 228.518L234.285 228.647L234.054 230.127L234.421 230.234L234.622 230.507L235.068 230.817L235.273 231.535L234.984 232.417L234.263 233.247L233.911 234.319L232.605 233.165Z" fill="#D8AF93"/>
</g>
<g filter="url(#filter11_d_882_16880)">
<path d="M175.83 237.948L169.523 238.182L170.142 243.321L170.254 244.914L169.96 246.073L171.959 247.157L173.318 247.056L174.691 245.928L174.333 244.686L175.512 242.415L175.83 239.443V237.948Z" fill="#D8AF93"/>
<path d="M180.396 267.851L178.624 300.39L180.928 301.426L179.989 301.454L177.61 300.844L175.779 288.811L176.242 287.081L174.529 276.75L171.481 287.318L171.419 288.759L168.144 300.678L165.887 301.752L165.484 301.577L167.041 300.519L167.808 288.831L168.456 286.929L169.598 265.775L180.396 267.851Z" fill="#D8AF93"/>
<path d="M177.522 300.3L178.402 301.023L179.938 301.454L180.876 301.425L181.218 301.595L181.565 302.089H179.411L177.902 301.472L177.723 302.089H177.426L177.522 300.3Z" fill="#080E32"/>
<path d="M171.993 262.693L179.731 264.133L180.394 267.851L180.181 280.576L167.435 281.131L167.04 268.951L166.773 268.001L167.98 264.592L171.993 262.693Z" fill="#080E32"/>
<path d="M167.606 261.653L165.059 250.354L165.417 248.157L168.399 246.111L173.131 245.975L178.879 248.157L178.187 255.367L179.31 261.699L180.909 267.764L176.018 269.148L171.695 268.928L172.115 265.402L171.092 268.928L168.757 269.041L166.086 268.495L167.606 261.653Z" fill="#08153F"/>
<path d="M178.88 248.157L181.858 256.696L181.569 258.538L180.303 259.178L179.198 258.84L177.383 253.859L178.88 248.157Z" fill="#08153F"/>
<path d="M176.09 239.109L174.948 240.567L174.994 241.494L175.694 250.354L167.621 250.799L167.698 239.143L169.09 235.983L171.898 234.797L175.226 235.639L176.263 237.089L176.09 239.109Z" fill="#050D21"/>
<path d="M168.244 300.329L168.075 302.089H167.859L167.651 301.303L166.831 302.089H165.227L165.489 301.45L165.617 301.517L166.432 300.935L166.908 300.348L167.196 300.24L168.244 300.329Z" fill="#080E32"/>
</g>
<g filter="url(#filter12_d_882_16880)">
<path d="M251.941 235.063L258.609 235.31L257.788 240.348L257.67 242.033L257.609 242.856L255.867 244.019L254.43 243.914L253.372 243.044L253.359 241.791L252.277 239.786L251.941 236.643V235.063Z" fill="#D8AF93"/>
<path d="M248.811 265.895L250.686 300.293L248.25 301.386L249.243 301.416L251.757 300.771L253.694 288.05L253.203 286.223L255.014 275.302L258.236 286.473L258.303 287.997L261.763 300.596L264.148 301.731L264.575 301.547L262.928 300.429L262.118 288.074L261.434 286.062L260.226 263.7L248.811 265.895Z" fill="#D8AF93"/>
<path d="M251.844 300.197L250.914 300.961L249.29 301.416L248.298 301.386L247.936 301.565L247.57 302.088H249.848L251.443 301.435L251.632 302.088H251.946L251.844 300.197Z" fill="#080E32"/>
<path d="M255.833 260.443L247.655 261.964L246.953 265.895L248.59 279.306L262.258 279.309L261.071 267.057L261.352 266.054L260.077 262.449L255.833 260.443Z" fill="#080E32"/>
<path d="M260.473 259.343L263.785 254.748L262.786 245.076L259.634 242.913L254.061 242.753L248.557 245.076L249.289 252.699L248.101 259.391L246.41 265.804L251.581 267.266L256.152 267.033L255.707 263.306L256.788 267.033L259.257 267.154L262.08 266.576L260.473 259.343Z" fill="#08153F"/>
<path d="M248.558 245.076L245.617 254.688L247.752 260.718L251.561 257.22L250.142 251.106L248.558 245.076Z" fill="#08153F"/>
<path d="M261.672 300.229L261.851 302.088H262.079L262.3 301.257L263.166 302.088H264.864L264.586 301.412L264.451 301.482L263.588 300.867L263.085 300.247L262.781 300.133L261.672 300.229Z" fill="#080E32"/>
<path d="M257.672 242.033H254.213L252.664 239.626L252.501 238.01L252 237.161L251.777 236.423L251.944 235.064C251.944 235.064 253.205 232.667 256.117 232.942C259.171 233.231 259.775 236.834 259.743 237.673C259.641 240.398 257.67 242.033 257.67 242.033H257.672Z" fill="#050D21"/>
<path d="M259.356 238.982C260.515 238.982 261.455 238.042 261.455 236.883C261.455 235.724 260.515 234.785 259.356 234.785C258.197 234.785 257.258 235.724 257.258 236.883C257.258 238.042 258.197 238.982 259.356 238.982Z" fill="#050D21"/>
</g>
<g filter="url(#filter13_d_882_16880)">
<path d="M180.898 299.888L180.521 300.575L179.658 301.561L179.496 302.089L183.898 302.078V301.393L183.631 300.323L183.524 299.602L180.898 299.888Z" fill="#030D1E"/>
<path d="M192.013 299.602L194.165 300.845L195.812 301.338L196.119 302.089L191.791 302.082L190.572 301.739L190.482 302.079L189.32 302.078V301.555L189.408 299.928L192.013 299.602Z" fill="#030D1E"/>
<path d="M182.142 265.914L180.898 299.888L183.898 299.565L187.258 279.37L187.307 272.312L188.693 300.018L192.011 299.602L194.186 266.36L186.424 262.063L182.142 265.914Z" fill="#051328"/>
<path d="M189.896 236.241L184.914 237.391L185.462 241.946L185.561 243.36L185.301 244.386L187.073 245.347L188.278 245.259L189.225 244.258L188.953 243.319L188.234 243.333L189.404 242.957L189.853 242.497L190.255 240.737L190.623 240.614L190.271 239.321L190.371 238.687L189.896 236.241Z" fill="#D8AF93"/>
<path d="M189.684 234.797L187.767 234.453L184.227 235.295L183.861 235.88L183.183 236.246L183.121 237.899L183.906 241.43L185.805 243.44L188.319 243.22L188.896 241.257L188.947 239.862L189.212 239.301L190.299 237.929L190.622 236.024L189.684 234.797Z" fill="#050D21"/>
<path d="M185.298 244.386L180.153 246.09L179.094 255.671L181.862 262.298L182.063 263.915L181.542 268.435L186.353 269.145L186.551 265.859L187.277 269.201L191.05 269.378L195.134 268.328L195.404 263.202L194.233 260.375L192.5 257.695L191.687 253.499L192.685 257.607L194.344 259.528L195.332 252.024L193.548 246.248L189.222 244.258L185.298 244.386Z" fill="#0B1E44"/>
</g>
<g filter="url(#filter14_d_882_16880)">
<path d="M279.111 299.921L279.482 300.597L280.331 301.569L280.491 302.088L276.156 302.077V301.403L276.418 300.35L276.525 299.64L279.111 299.921Z" fill="#020711"/>
<path d="M268.169 299.64L266.049 300.864L264.427 301.35L264.125 302.088L268.386 302.082L269.586 301.743L269.674 302.079L270.82 302.077V301.564L270.734 299.961L268.169 299.64Z" fill="#020711"/>
<path d="M277.892 265.103L279.116 299.921L276.052 299.593L272.774 278.578L272.696 273.762L271.019 299.996L268.175 299.64L266.031 265.558L273.676 261.157L277.892 265.103Z" fill="#050D1C"/>
<path d="M270.031 235.492L275.548 236.74L275.007 241.235L274.909 242.63L275.166 243.643L273.418 244.591L272.229 244.503L271.027 243.515L271.342 242.43L270.671 241.473L270.185 239.655L270.031 237.843V235.492Z" fill="#D8AF93"/>
<path d="M277.572 259.854L280.496 246.108L275.17 243.635L271.031 243.515L265.076 246.108L267.615 255.573L266.13 261.315L264.352 264.176L265.208 267.077L266.859 268.049L273.302 267.457L272.754 264.366L273.826 267.457L277.288 267.929L279.583 267.077L277.572 259.854Z" fill="#0A1B52"/>
<path d="M265.072 246.107L264.059 255.05L264.815 261.412L265.991 261.157L267.612 255.572L268.676 248.054L265.072 246.107Z" fill="#0A1B52"/>
<path d="M269.602 233.981L276.001 234.515L276.396 235.071L277.083 235.393L277.24 237.017L276.668 240.539L274.911 242.63L271.574 242.556L271.061 240.397L271.217 239.115L270.516 238.708L269.891 237.315L269.854 235.492L269.602 233.981Z" fill="#050D21"/>
<path d="M280.489 246.107L281.358 255.214L277.983 260.928L277.676 259.816L278.545 255.243L280.489 246.107Z" fill="#0A1B52"/>
<path d="M264.984 261.376L265.067 262.148L264.918 263.257L266.066 261.412L265.99 261.157L264.984 261.376Z" fill="#D8AF93"/>
</g>
<path d="M234 125L238 137.5L235.6 147" stroke="#C0C7FF" stroke-width="0.25"/>
<defs>
<filter id="filter0_d_882_16880" x="144.786" y="268.516" width="15.9202" height="25.0484" filterUnits="userSpaceOnUse" color-interpolation-filters="sRGB">
<feFlood flood-opacity="0" result="BackgroundImageFix"/>
<feColorMatrix in="SourceAlpha" type="matrix" values="0 0 0 0 0 0 0 0 0 0 0 0 0 0 0 0 0 0 127 0" result="hardAlpha"/>
<feOffset dy="1.03111"/>
<feGaussianBlur stdDeviation="3.22223"/>
<feComposite in2="hardAlpha" operator="out"/>
<feColorMatrix type="matrix" values="0 0 0 0 0 0 0 0 0 0 0 0 0 0 0 0 0 0 0.25 0"/>
<feBlend mode="normal" in2="BackgroundImageFix" result="effect1_dropShadow_882_16880"/>
<feBlend mode="normal" in="SourceGraphic" in2="effect1_dropShadow_882_16880" result="shape"/>
</filter>
<filter id="filter1_d_882_16880" x="300.157" y="306.804" width="37.9905" height="16.9285" filterUnits="userSpaceOnUse" color-interpolation-filters="sRGB">
<feFlood flood-opacity="0" result="BackgroundImageFix"/>
<feColorMatrix in="SourceAlpha" type="matrix" values="0 0 0 0 0 0 0 0 0 0 0 0 0 0 0 0 0 0 127 0" result="hardAlpha"/>
<feOffset dy="1.03111"/>
<feGaussianBlur stdDeviation="3.22223"/>
<feComposite in2="hardAlpha" operator="out"/>
<feColorMatrix type="matrix" values="0 0 0 0 0 0 0 0 0 0 0 0 0 0 0 0 0 0 0.25 0"/>
<feBlend mode="normal" in2="BackgroundImageFix" result="effect1_dropShadow_882_16880"/>
<feBlend mode="normal" in="SourceGraphic" in2="effect1_dropShadow_882_16880" result="shape"/>
</filter>
<filter id="filter2_d_882_16880" x="287.505" y="232.106" width="35.346" height="77.4585" filterUnits="userSpaceOnUse" color-interpolation-filters="sRGB">
<feFlood flood-opacity="0" result="BackgroundImageFix"/>
<feColorMatrix in="SourceAlpha" type="matrix" values="0 0 0 0 0 0 0 0 0 0 0 0 0 0 0 0 0 0 127 0" result="hardAlpha"/>
<feOffset dy="1.03111"/>
<feGaussianBlur stdDeviation="3.22223"/>
<feComposite in2="hardAlpha" operator="out"/>
<feColorMatrix type="matrix" values="0 0 0 0 0 0 0 0 0 0 0 0 0 0 0 0 0 0 0.25 0"/>
<feBlend mode="normal" in2="BackgroundImageFix" result="effect1_dropShadow_882_16880"/>
<feBlend mode="normal" in="SourceGraphic" in2="effect1_dropShadow_882_16880" result="shape"/>
</filter>
<filter id="filter3_d_882_16880" x="106.259" y="306.804" width="38.2796" height="16.9285" filterUnits="userSpaceOnUse" color-interpolation-filters="sRGB">
<feFlood flood-opacity="0" result="BackgroundImageFix"/>
<feColorMatrix in="SourceAlpha" type="matrix" values="0 0 0 0 0 0 0 0 0 0 0 0 0 0 0 0 0 0 127 0" result="hardAlpha"/>
<feOffset dy="1.03111"/>
<feGaussianBlur stdDeviation="3.22223"/>
<feComposite in2="hardAlpha" operator="out"/>
<feColorMatrix type="matrix" values="0 0 0 0 0 0 0 0 0 0 0 0 0 0 0 0 0 0 0.25 0"/>
<feBlend mode="normal" in2="BackgroundImageFix" result="effect1_dropShadow_882_16880"/>
<feBlend mode="normal" in="SourceGraphic" in2="effect1_dropShadow_882_16880" result="shape"/>
</filter>
<filter id="filter4_d_882_16880" x="219.388" y="93.708" width="50.5061" height="50.512" filterUnits="userSpaceOnUse" color-interpolation-filters="sRGB">
<feFlood flood-opacity="0" result="BackgroundImageFix"/>
<feColorMatrix in="SourceAlpha" type="matrix" values="0 0 0 0 0 0 0 0 0 0 0 0 0 0 0 0 0 0 127 0" result="hardAlpha"/>
<feOffset dy="1.03111"/>
<feGaussianBlur stdDeviation="3.22223"/>
<feComposite in2="hardAlpha" operator="out"/>
<feColorMatrix type="matrix" values="0 0 0 0 0 0 0 0 0 0 0 0 0 0 0 0 0 0 0.25 0"/>
<feBlend mode="normal" in2="BackgroundImageFix" result="effect1_dropShadow_882_16880"/>
<feBlend mode="normal" in="SourceGraphic" in2="effect1_dropShadow_882_16880" result="shape"/>
</filter>
<filter id="filter5_d_882_16880" x="246.825" y="78.6362" width="37.0413" height="37.0371" filterUnits="userSpaceOnUse" color-interpolation-filters="sRGB">
<feFlood flood-opacity="0" result="BackgroundImageFix"/>
<feColorMatrix in="SourceAlpha" type="matrix" values="0 0 0 0 0 0 0 0 0 0 0 0 0 0 0 0 0 0 127 0" result="hardAlpha"/>
<feOffset dy="1.03111"/>
<feGaussianBlur stdDeviation="3.22223"/>
<feComposite in2="hardAlpha" operator="out"/>
<feColorMatrix type="matrix" values="0 0 0 0 0 0 0 0 0 0 0 0 0 0 0 0 0 0 0.25 0"/>
<feBlend mode="normal" in2="BackgroundImageFix" result="effect1_dropShadow_882_16880"/>
<feBlend mode="normal" in="SourceGraphic" in2="effect1_dropShadow_882_16880" result="shape"/>
</filter>
<filter id="filter6_d_882_16880" x="143.829" y="74.4026" width="108.428" height="216.835" filterUnits="userSpaceOnUse" color-interpolation-filters="sRGB">
<feFlood flood-opacity="0" result="BackgroundImageFix"/>
<feColorMatrix in="SourceAlpha" type="matrix" values="0 0 0 0 0 0 0 0 0 0 0 0 0 0 0 0 0 0 127 0" result="hardAlpha"/>
<feOffset dy="1.03111"/>
<feGaussianBlur stdDeviation="3.22223"/>
<feComposite in2="hardAlpha" operator="out"/>
<feColorMatrix type="matrix" values="0 0 0 0 0 0 0 0 0 0 0 0 0 0 0 0 0 0 0.25 0"/>
<feBlend mode="normal" in2="BackgroundImageFix" result="effect1_dropShadow_882_16880"/>
<feBlend mode="normal" in="SourceGraphic" in2="effect1_dropShadow_882_16880" result="shape"/>
</filter>
<filter id="filter7_d_882_16880" x="186.759" y="283.144" width="63.2249" height="25.9299" filterUnits="userSpaceOnUse" color-interpolation-filters="sRGB">
<feFlood flood-opacity="0" result="BackgroundImageFix"/>
<feColorMatrix in="SourceAlpha" type="matrix" values="0 0 0 0 0 0 0 0 0 0 0 0 0 0 0 0 0 0 127 0" result="hardAlpha"/>
<feOffset dy="1.03111"/>
<feGaussianBlur stdDeviation="3.22223"/>
<feComposite in2="hardAlpha" operator="out"/>
<feColorMatrix type="matrix" values="0 0 0 0 0 0 0 0 0 0 0 0 0 0 0 0 0 0 0.25 0"/>
<feBlend mode="normal" in2="BackgroundImageFix" result="effect1_dropShadow_882_16880"/>
<feBlend mode="normal" in="SourceGraphic" in2="effect1_dropShadow_882_16880" result="shape"/>
</filter>
<filter id="filter8_d_882_16880" x="158.907" y="176.647" width="118.233" height="120.376" filterUnits="userSpaceOnUse" color-interpolation-filters="sRGB">
<feFlood flood-opacity="0" result="BackgroundImageFix"/>
<feColorMatrix in="SourceAlpha" type="matrix" values="0 0 0 0 0 0 0 0 0 0 0 0 0 0 0 0 0 0 127 0" result="hardAlpha"/>
<feOffset dy="1.03111"/>
<feGaussianBlur stdDeviation="3.22223"/>
<feComposite in2="hardAlpha" operator="out"/>
<feColorMatrix type="matrix" values="0 0 0 0 0 0 0 0 0 0 0 0 0 0 0 0 0 0 0.25 0"/>
<feBlend mode="normal" in2="BackgroundImageFix" result="effect1_dropShadow_882_16880"/>
<feBlend mode="normal" in="SourceGraphic" in2="effect1_dropShadow_882_16880" result="shape"/>
</filter>
<filter id="filter9_d_882_16880" x="141.024" y="65.5867" width="33.7171" height="52.2864" filterUnits="userSpaceOnUse" color-interpolation-filters="sRGB">
<feFlood flood-opacity="0" result="BackgroundImageFix"/>
<feColorMatrix in="SourceAlpha" type="matrix" values="0 0 0 0 0 0 0 0 0 0 0 0 0 0 0 0 0 0 127 0" result="hardAlpha"/>
<feOffset dy="1.03111"/>
<feGaussianBlur stdDeviation="3.22223"/>
<feComposite in2="hardAlpha" operator="out"/>
<feColorMatrix type="matrix" values="0 0 0 0 0 0 0 0 0 0 0 0 0 0 0 0 0 0 0.25 0"/>
<feBlend mode="normal" in2="BackgroundImageFix" result="effect1_dropShadow_882_16880"/>
<feBlend mode="normal" in="SourceGraphic" in2="effect1_dropShadow_882_16880" result="shape"/>
</filter>
<filter id="filter10_d_882_16880" x="202.157" y="223.104" width="39.5608" height="86.4602" filterUnits="userSpaceOnUse" color-interpolation-filters="sRGB">
<feFlood flood-opacity="0" result="BackgroundImageFix"/>
<feColorMatrix in="SourceAlpha" type="matrix" values="0 0 0 0 0 0 0 0 0 0 0 0 0 0 0 0 0 0 127 0" result="hardAlpha"/>
<feOffset dy="1.03111"/>
<feGaussianBlur stdDeviation="3.22223"/>
<feComposite in2="hardAlpha" operator="out"/>
<feColorMatrix type="matrix" values="0 0 0 0 0 0 0 0 0 0 0 0 0 0 0 0 0 0 0.25 0"/>
<feBlend mode="normal" in2="BackgroundImageFix" result="effect1_dropShadow_882_16880"/>
<feBlend mode="normal" in="SourceGraphic" in2="effect1_dropShadow_882_16880" result="shape"/>
</filter>
<filter id="filter11_d_882_16880" x="158.614" y="229.384" width="29.6897" height="80.1809" filterUnits="userSpaceOnUse" color-interpolation-filters="sRGB">
<feFlood flood-opacity="0" result="BackgroundImageFix"/>
<feColorMatrix in="SourceAlpha" type="matrix" values="0 0 0 0 0 0 0 0 0 0 0 0 0 0 0 0 0 0 127 0" result="hardAlpha"/>
<feOffset dy="1.03111"/>
<feGaussianBlur stdDeviation="3.22223"/>
<feComposite in2="hardAlpha" operator="out"/>
<feColorMatrix type="matrix" values="0 0 0 0 0 0 0 0 0 0 0 0 0 0 0 0 0 0 0.25 0"/>
<feBlend mode="normal" in2="BackgroundImageFix" result="effect1_dropShadow_882_16880"/>
<feBlend mode="normal" in="SourceGraphic" in2="effect1_dropShadow_882_16880" result="shape"/>
</filter>
<filter id="filter12_d_882_16880" x="239.173" y="227.507" width="32.135" height="82.0567" filterUnits="userSpaceOnUse" color-interpolation-filters="sRGB">
<feFlood flood-opacity="0" result="BackgroundImageFix"/>
<feColorMatrix in="SourceAlpha" type="matrix" values="0 0 0 0 0 0 0 0 0 0 0 0 0 0 0 0 0 0 127 0" result="hardAlpha"/>
<feOffset dy="1.03111"/>
<feGaussianBlur stdDeviation="3.22223"/>
<feComposite in2="hardAlpha" operator="out"/>
<feColorMatrix type="matrix" values="0 0 0 0 0 0 0 0 0 0 0 0 0 0 0 0 0 0 0.25 0"/>
<feBlend mode="normal" in2="BackgroundImageFix" result="effect1_dropShadow_882_16880"/>
<feBlend mode="normal" in="SourceGraphic" in2="effect1_dropShadow_882_16880" result="shape"/>
</filter>
<filter id="filter13_d_882_16880" x="172.649" y="229.04" width="29.9163" height="80.5244" filterUnits="userSpaceOnUse" color-interpolation-filters="sRGB">
<feFlood flood-opacity="0" result="BackgroundImageFix"/>
<feColorMatrix in="SourceAlpha" type="matrix" values="0 0 0 0 0 0 0 0 0 0 0 0 0 0 0 0 0 0 127 0" result="hardAlpha"/>
<feOffset dy="1.03111"/>
<feGaussianBlur stdDeviation="3.22223"/>
<feComposite in2="hardAlpha" operator="out"/>
<feColorMatrix type="matrix" values="0 0 0 0 0 0 0 0 0 0 0 0 0 0 0 0 0 0 0.25 0"/>
<feBlend mode="normal" in2="BackgroundImageFix" result="effect1_dropShadow_882_16880"/>
<feBlend mode="normal" in="SourceGraphic" in2="effect1_dropShadow_882_16880" result="shape"/>
</filter>
<filter id="filter14_d_882_16880" x="257.614" y="228.568" width="30.1897" height="80.9959" filterUnits="userSpaceOnUse" color-interpolation-filters="sRGB">
<feFlood flood-opacity="0" result="BackgroundImageFix"/>
<feColorMatrix in="SourceAlpha" type="matrix" values="0 0 0 0 0 0 0 0 0 0 0 0 0 0 0 0 0 0 127 0" result="hardAlpha"/>
<feOffset dy="1.03111"/>
<feGaussianBlur stdDeviation="3.22223"/>
<feComposite in2="hardAlpha" operator="out"/>
<feColorMatrix type="matrix" values="0 0 0 0 0 0 0 0 0 0 0 0 0 0 0 0 0 0 0.25 0"/>
<feBlend mode="normal" in2="BackgroundImageFix" result="effect1_dropShadow_882_16880"/>
<feBlend mode="normal" in="SourceGraphic" in2="effect1_dropShadow_882_16880" result="shape"/>
</filter>
<linearGradient id="paint0_linear_882_16880" x1="203.661" y1="108.684" x2="203.661" y2="183.835" gradientUnits="userSpaceOnUse">
<stop stop-color="#6499FF"/>
<stop offset="1" stop-color="#966CFF"/>
</linearGradient>
<linearGradient id="paint1_linear_882_16880" x1="234.438" y1="108.684" x2="234.438" y2="183.835" gradientUnits="userSpaceOnUse">
<stop stop-color="#6499FF"/>
<stop offset="1" stop-color="#966CFF"/>
</linearGradient>
<linearGradient id="paint2_linear_882_16880" x1="178.555" y1="111.915" x2="178.555" y2="144.029" gradientUnits="userSpaceOnUse">
<stop stop-color="#6499FF"/>
<stop offset="1" stop-color="#966CFF"/>
</linearGradient>
<linearGradient id="paint3_linear_882_16880" x1="218.023" y1="182.061" x2="218.023" y2="289.547" gradientUnits="userSpaceOnUse">
<stop stop-color="#7CB8E5" stop-opacity="0"/>
<stop offset="1" stop-color="#7CB8E5"/>
</linearGradient>
</defs>
</svg>
