<svg width="559" height="559" viewBox="0 0 559 559" fill="none" xmlns="http://www.w3.org/2000/svg">
<path d="M194.162 504.073H113.309L104.555 489.74H181.764L194.162 504.073Z" fill="#A77D69"/>
<path d="M187.967 486.453H118.45L111.004 474.557H176.742L187.967 486.453Z" fill="#3F1871"/>
<path d="M187.966 486.453H118.449V500.886H187.966V486.453Z" fill="#623E91"/>
<path d="M111.004 474.557L118.45 486.453V500.897L111.004 489.74V474.557Z" fill="#1B0933"/>
<path d="M291.674 504.073H210.82L202.066 489.74H279.275L291.674 504.073Z" fill="#A77D69"/>
<path d="M285.346 387.432H215.829L208.383 375.536H274.121L285.346 387.432Z" fill="#3F1871"/>
<path d="M285.345 387.432H215.828V500.897H285.345V387.432Z" fill="#623E91"/>
<path d="M208.383 375.536L215.829 387.432V500.897L208.383 489.74V375.536Z" fill="#1B0933"/>
<path d="M389.175 504.073H308.321L299.578 489.74H376.776L389.175 504.073Z" fill="#A77D69"/>
<path d="M382.725 361.516H313.208L305.762 349.621H371.5L382.725 361.516Z" fill="#3F1871"/>
<path d="M382.724 361.516H313.207V500.897H382.724V361.516Z" fill="#623E91"/>
<path d="M305.762 349.621L313.208 361.516V500.897L305.762 489.74V349.621Z" fill="#1B0933"/>
<path d="M486.686 504.073H405.832L397.078 489.74H474.287L486.686 504.073Z" fill="#A77D69"/>
<path d="M480.1 329.284H410.583L403.137 317.389H468.875L480.1 329.284Z" fill="#3F1871"/>
<path d="M480.099 329.284H410.582V500.897H480.099V329.284Z" fill="#623E91"/>
<path d="M403.137 317.389L410.583 329.284V500.897L403.137 489.74V317.389Z" fill="#1B0933"/>
<g style="mix-blend-mode:multiply">
<path d="M151.814 477.822C145.106 477.621 124.456 478.828 125.105 480.516C125.753 482.204 133.434 485.905 142.579 484.631C154.732 482.931 166.225 485.134 167.868 486.464C169.512 487.795 172.922 495.039 174.576 494.939C176.231 494.838 177.494 486.475 177.494 486.475C177.494 486.475 174.677 478.504 151.825 477.822H151.814Z" fill="#A6C6D7"/>
</g>
<path d="M139.199 298.763C139.199 298.763 137.712 306.533 137.131 308.568C136.549 310.603 135.878 313.767 141.882 312.056C147.886 310.346 150.457 305.046 150.457 305.046C150.457 305.046 150.603 291.675 151.05 289.965C151.486 288.254 139.199 298.763 139.199 298.763Z" fill="#FFD8A3"/>
<path d="M127.741 281.758C127.741 281.758 126.724 297.041 137.334 303.571C140.419 305.471 149.475 299.423 150.157 296.494C151.13 292.324 154.819 285.034 154.853 281.021C154.875 278.237 152.415 275.308 152.415 275.308C152.415 275.308 130.626 269.527 127.73 281.758H127.741Z" fill="#FFE1BD"/>
<path d="M150.893 270.422C150.703 270.489 148.769 264.429 140.921 264.586C133.061 264.743 126.633 273.675 123.268 274.413C119.902 275.151 122.083 282.876 127.717 283.48C130.825 283.816 133.81 279.243 139.244 277.734C144.543 276.258 148.702 276.459 148.702 276.459C148.702 276.459 146.891 278.058 149.015 280.495C151.139 282.932 150.547 284.565 150.547 284.565C150.547 284.565 152.537 281.524 153.208 283.514C153.632 284.799 151.877 288.97 151.061 288.947C151.061 288.947 151.273 292.782 151.061 293.565C151.061 293.565 155.131 286.51 155.589 282.016C156.036 277.521 156.763 268.376 150.905 270.422H150.893Z" fill="black"/>
<path d="M153.208 303.906C153.208 303.906 162.119 305.203 169.33 310.726C169.33 310.726 167.452 326.601 164.411 336.887C160.419 350.37 157.568 353.534 156.026 365.262C156.026 365.262 131.877 368.113 126.387 365.508C126.387 365.508 128.377 319.659 125.348 312.626C125.348 312.626 131.687 307.495 135.041 306.332C136.237 305.918 136.673 313.364 140.374 312.626C147.037 311.307 153.197 303.895 153.197 303.895L153.208 303.906Z" fill="#EBFFFD"/>
<path d="M138.037 304.599L139.524 311.419L134.27 316.517V306.645L138.037 304.599Z" fill="#D1F0FF"/>
<path d="M139.523 311.419L150.513 301.156L153.208 303.906L146.433 315.701L139.523 311.419Z" fill="#D1F0FF"/>
<path d="M139.525 311.419L142.98 313.554C142.98 313.554 140.822 314.717 140.375 315.243C145.093 331.588 130.313 342.019 139.179 356.586L137.658 362.355L131.587 361.595C131.587 361.595 127.138 350.951 133.499 338.687C140.531 325.137 138.485 316.998 138.362 315.287L136.764 314.102L139.525 311.43V311.419Z" fill="#623E91"/>
<path d="M105.269 322.375C105.269 322.375 104.665 316.126 102.575 315.813C98.3485 315.175 97.2529 312.705 95.6094 312.649C93.966 312.582 94.8492 314.426 96.2467 316.137C97.5547 317.736 92.1325 317.724 86.6878 314.236C84.463 312.816 81.1761 313.666 82.5065 314.929C85.6592 317.937 87.135 319.636 89.1586 320.508C91.8194 321.637 96.3026 321.492 97.9572 322.029C99.5672 322.554 99.5671 325.483 99.5671 325.483C99.5671 325.483 103.748 322.89 105.269 322.387V322.375Z" fill="#FFE1BD"/>
<path d="M125.347 312.638C125.347 312.638 119.534 328.714 113.676 336.194C110.858 339.794 107.392 333.298 105.112 321.559C105.112 321.559 99.5664 324.265 99.5664 325.461C99.5664 334.584 105.268 349.878 111.384 349.867C117.779 349.867 127.069 329.016 127.069 329.016C127.069 329.016 127.528 318.138 125.347 312.626V312.638Z" fill="#E4F0F4"/>
<path d="M126.388 368.896C126.388 368.896 119.926 421.453 135.969 471.383C135.969 471.383 143.84 473.462 143.381 471.383C134.941 433.091 135.734 394.889 141.034 384.346L142.722 369.097L126.377 368.907L126.388 368.896Z" fill="black"/>
<path d="M137.756 369.085C136.47 415.93 149.517 446.093 163.313 475.038C163.313 475.038 170.781 476.358 170.01 474.412C154.146 434.444 156.024 369.085 156.024 369.085H137.756Z" fill="black"/>
<path d="M135.979 471.371C135.889 470.544 143.391 471.93 143.391 471.93C143.391 471.93 145.392 476.615 144.252 477.945C143.111 479.276 133.228 485.167 127.057 482.026C120.886 478.895 130.098 479.745 131.708 478.705C133.318 477.666 136.247 473.92 135.979 471.382V471.371Z" fill="#433C44"/>
<path d="M163.313 475.105C163.313 475.105 162.62 480.539 163.503 482.182C164.387 483.826 175.477 493.709 180.039 492.882C181.928 492.535 179.759 487.806 178.451 485.917C175.343 481.411 170.01 474.558 170.01 474.558L163.313 475.094V475.105Z" fill="#433C44"/>
<path d="M126.385 365.43C126.385 365.43 125.625 369.421 126.385 369.712C127.145 369.991 156.023 369.712 156.023 369.712V365.262C156.023 365.262 129.672 366.369 126.385 365.43Z" fill="black"/>
<path d="M133.162 365.553C133.162 365.72 132.569 370.092 133.419 370.092C134.269 370.092 140.161 370.08 140.161 370.08C140.161 370.08 140.641 365.452 139.959 365.463C139.277 365.474 133.151 365.553 133.151 365.553H133.162Z" fill="#B1B2B9"/>
<path d="M167.241 374.385C167.241 374.385 152.416 377.929 151.086 382.49C149.755 387.052 154.44 395.794 154.44 395.794L157.29 394.207C157.29 394.207 153.858 384.424 156.899 383.575C159.94 382.725 168.079 378.611 169.32 380.59C170.583 382.613 171.791 388.192 171.791 388.192L174.429 386.94C174.429 386.94 172.898 374.385 167.229 374.385H167.241Z" fill="#9F6542"/>
<path d="M184.177 381.484H178.207C178.207 381.484 141.85 398.411 139.692 399.037C137.534 399.674 140.765 437.921 141.526 437.418C142.286 436.903 149.486 439.24 150.861 440.503C152.236 441.767 184.177 381.473 184.177 381.473V381.484Z" fill="#9F6542"/>
<path d="M142.734 401.239C142.734 401.239 182.546 381.484 184.179 381.484C185.811 381.484 194.42 418.982 194.42 418.982C194.42 418.982 152.126 440.134 150.862 440.515C149.599 440.895 142.734 401.25 142.734 401.25V401.239Z" fill="#AA8251"/>
<path d="M155.043 417.294L159.191 415.158L160.689 419.407L156.832 421.732L155.043 417.294Z" fill="#FFD8A3"/>
<path d="M177 405.924L181.159 403.777L182.657 408.037L178.8 410.351L177 405.924Z" fill="#FFD8A3"/>
<path d="M142.734 401.239C142.734 401.239 182.546 381.484 184.179 381.484C184.972 381.484 187.41 390.328 189.702 399.417L146.457 421.732C144.534 411.637 142.734 401.25 142.734 401.25V401.239Z" fill="#9F724C"/>
<path d="M165.25 307.875C177.346 313.431 199.74 338.284 167.631 376.475L163.45 370.829C163.45 370.829 187.677 340.878 165.809 324.678C161.303 321.336 159.57 305.27 165.261 307.875H165.25Z" fill="#EBFFFD"/>
<path d="M163.439 370.829C163.439 370.829 157.547 371.344 155.971 373.624C154.383 375.905 154.462 379.013 154.462 379.013C154.462 379.013 156.541 377.023 157.939 377.403C159.336 377.783 161.27 382.054 156.91 383.575C154.819 384.301 159.794 388.326 161.65 384.771C161.65 384.771 163.383 387.555 164.904 384.134C164.904 384.134 165.787 386.917 167.307 383.876C167.307 383.876 168.325 386.157 169.331 382.993C170.348 379.829 167.62 376.475 167.62 376.475L163.439 370.829Z" fill="#FFE1BD"/>
<path d="M106.041 280.372C105.035 272.233 98.148 269.281 92.6921 269.281C87.2363 269.281 80.3494 272.233 79.3432 280.372C78.1246 290.21 84.4189 293.251 85.7158 297.466C85.9618 298.271 86.6885 298.83 87.527 298.83H97.8573C98.6958 298.83 99.4225 298.271 99.6684 297.466C100.965 293.251 107.26 290.21 106.041 280.372Z" fill="#FACA51"/>
<path d="M98.0032 301.961H87.3262C86.4989 301.961 85.8281 302.631 85.8281 303.459V303.582C85.8281 304.409 86.4989 305.08 87.3262 305.08H98.0032C98.8305 305.08 99.5013 304.409 99.5013 303.582V303.459C99.5013 302.631 98.8305 301.961 98.0032 301.961Z" fill="#C8C8C8"/>
<path d="M98.0032 298.83H87.3262C86.4989 298.83 85.8281 299.501 85.8281 300.328V300.451C85.8281 301.279 86.4989 301.95 87.3262 301.95H98.0032C98.8305 301.95 99.5013 301.279 99.5013 300.451V300.328C99.5013 299.501 98.8305 298.83 98.0032 298.83Z" fill="#C8C8C8"/>
<path d="M85.8276 300.563V300.228C85.8276 299.456 86.4537 298.842 87.2139 298.842H98.1032C98.4833 298.842 98.8411 298.998 99.0871 299.244L85.8164 300.563H85.8276Z" fill="#9B9E99"/>
<path d="M85.8276 303.694V303.358C85.8276 302.587 86.4537 301.972 87.2139 301.972H98.1032C98.4833 301.972 98.8411 302.128 99.0871 302.374L85.8164 303.694H85.8276Z" fill="#9B9E99"/>
<path d="M98.0032 305.08H87.3262C86.4989 305.08 85.8281 305.751 85.8281 306.578V306.701C85.8281 307.528 86.4989 308.199 87.3262 308.199H98.0032C98.8305 308.199 99.5013 307.528 99.5013 306.701V306.578C99.5013 305.751 98.8305 305.08 98.0032 305.08Z" fill="#C8C8C8"/>
<path d="M92.6603 310.558C93.957 310.558 95.0081 309.507 95.0081 308.21C95.0081 306.914 93.957 305.863 92.6603 305.863C91.3636 305.863 90.3125 306.914 90.3125 308.21C90.3125 309.507 91.3636 310.558 92.6603 310.558Z" fill="#C8C8C8"/>
<path d="M85.8276 306.813V306.477C85.8276 305.706 86.4537 305.08 87.2139 305.08H98.1032C98.4833 305.08 98.8411 305.236 99.0871 305.482L85.8164 306.802L85.8276 306.813Z" fill="#9B9E99"/>
<path d="M92.6801 294.683C99.4351 294.683 104.911 289.207 104.911 282.452C104.911 275.697 99.4351 270.221 92.6801 270.221C85.9252 270.221 80.4492 275.697 80.4492 282.452C80.4492 289.207 85.9252 294.683 92.6801 294.683Z" fill="#FAE67F"/>
<path d="M92.6826 288.612C98.0668 288.612 102.432 284.632 102.432 279.724C102.432 274.815 98.0668 270.835 92.6826 270.835C87.2984 270.835 82.9336 274.815 82.9336 279.724C82.9336 284.632 87.2984 288.612 92.6826 288.612Z" fill="url(#paint0_linear_702_36662)"/>
<path d="M96.3588 298.83H95.4644V294.593C95.4644 294.056 95.5985 293.52 95.8668 293.05L97.3873 290.289C97.5327 290.032 97.5215 289.719 97.3761 289.461C97.2196 289.204 96.9513 289.048 96.6606 289.048H96.4482C96.3811 289.048 96.3029 289.048 96.2022 289.037C96.124 289.953 95.7998 290.702 95.4085 291.116C95.1066 291.44 94.76 291.608 94.4134 291.574C93.9998 291.53 93.6532 291.328 93.4631 290.982C93.1948 290.523 93.2172 289.875 93.5414 289.171C93.8433 288.5 94.6035 288.254 95.3078 288.176C95.2967 288.053 95.2743 287.93 95.2519 287.807C95.1066 287.035 94.8159 286.733 94.6818 286.733C94.5252 286.767 94.0892 287.069 93.8321 288.153C93.7091 288.679 93.2172 289.059 92.6694 289.059C92.1215 289.059 91.6296 288.679 91.5066 288.153C91.2495 287.08 90.8358 286.733 90.6681 286.733C90.5228 286.733 90.2433 287.035 90.098 287.807C90.0756 287.93 90.0532 288.053 90.0421 288.176C90.7464 288.254 91.5066 288.5 91.8085 289.171C92.1215 289.875 92.1551 290.512 91.8868 290.982C91.6855 291.328 91.3501 291.541 90.9365 291.574C90.5899 291.608 90.2321 291.44 89.9414 291.116C89.5613 290.691 89.2259 289.942 89.1477 289.037C89.047 289.037 88.9688 289.037 88.9017 289.037H88.6893C88.3874 289.037 88.1191 289.193 87.9738 289.45C87.8172 289.707 87.8172 290.02 87.9626 290.278L89.4831 293.039C89.7402 293.509 89.8744 294.045 89.8744 294.582V298.819H88.98V294.582C88.98 294.191 88.8793 293.81 88.6893 293.464L87.1688 290.702C86.8669 290.166 86.8781 289.517 87.1912 288.992C87.5042 288.455 88.0632 288.142 88.6781 288.142H88.857C88.9352 288.142 89.0359 288.142 89.1365 288.131C89.1477 287.963 89.1812 287.796 89.2036 287.628C89.5054 286.029 90.3104 285.839 90.6346 285.828H90.657C91.4172 285.828 92.0545 286.61 92.3675 287.941C92.4234 288.198 92.8818 288.198 92.9489 287.941C93.2619 286.622 93.8992 285.828 94.6594 285.828H94.6818C95.006 285.828 95.8109 286.029 96.1128 287.628C96.1463 287.796 96.1687 287.963 96.1799 288.131C96.2805 288.131 96.3811 288.131 96.4594 288.131H96.6383C97.2532 288.131 97.8122 288.455 98.1252 288.981C98.4382 289.517 98.4494 290.155 98.1476 290.691L96.6271 293.453C96.437 293.788 96.3364 294.179 96.3364 294.571V298.808L96.3588 298.83ZM95.2855 289.081C94.8606 289.137 94.4582 289.271 94.3352 289.54C94.1451 289.964 94.1004 290.333 94.2234 290.535C94.2457 290.568 94.3016 290.669 94.4917 290.691C94.5364 290.691 94.6147 290.658 94.7488 290.523C95.006 290.244 95.2184 289.719 95.2967 289.081H95.2855ZM90.0197 289.081C90.098 289.719 90.3104 290.233 90.5675 290.523C90.6905 290.658 90.7799 290.691 90.8247 290.691C91.0147 290.669 91.0706 290.568 91.093 290.535C91.2048 290.333 91.1601 289.964 90.9812 289.54C90.8582 289.271 90.4557 289.137 90.0309 289.081H90.0197Z" fill="#FA8C51"/>
<path d="M85.3789 293.285C85.3789 291.049 88.6546 289.238 92.6906 289.238C96.7266 289.238 100.002 291.049 100.002 293.285C100.002 295.521 96.7266 297.332 92.6906 297.332C88.6546 297.332 85.3789 295.521 85.3789 293.285Z" fill="url(#paint1_linear_702_36662)"/>
<path d="M92.7151 258.951H92.648C92.2405 258.951 91.9102 259.282 91.9102 259.689V264.34C91.9102 264.747 92.2405 265.078 92.648 265.078H92.7151C93.1226 265.078 93.453 264.747 93.453 264.34V259.689C93.453 259.282 93.1226 258.951 92.7151 258.951Z" fill="#FAE67F"/>
<path d="M83.3589 267.571L83.303 267.605C82.9453 267.806 82.4981 267.683 82.2857 267.336L79.9602 263.311C79.759 262.954 79.882 262.506 80.2285 262.294L80.2844 262.261C80.6422 262.059 81.0894 262.182 81.3018 262.529L83.6273 266.554C83.8285 266.911 83.7055 267.359 83.3589 267.571Z" fill="#FAE67F"/>
<path d="M102.022 300.014L102.08 299.98C102.438 299.774 102.887 299.902 103.088 300.251L105.406 304.27C105.613 304.628 105.485 305.076 105.136 305.278L105.078 305.311C104.72 305.518 104.271 305.389 104.07 305.041L101.752 301.022C101.545 300.663 101.673 300.215 102.022 300.014Z" fill="#FAE67F"/>
<path d="M71.1494 271.413L71.1829 271.355C71.3893 270.996 71.8417 270.883 72.1905 271.084L76.2211 273.404C76.5796 273.61 76.6933 274.063 76.4924 274.412L76.459 274.47C76.2526 274.828 75.8001 274.942 75.4513 274.741L71.4304 272.426C71.0719 272.22 70.9583 271.767 71.1591 271.419L71.1494 271.413Z" fill="#FAE67F"/>
<path d="M108.873 293.182L108.906 293.124C109.113 292.765 109.565 292.652 109.914 292.853L113.933 295.172C114.291 295.378 114.404 295.831 114.203 296.179L114.17 296.238C113.963 296.596 113.511 296.709 113.162 296.508L109.143 294.19C108.785 293.983 108.672 293.53 108.873 293.182Z" fill="#FAE67F"/>
<path d="M67.8398 283.771V283.838C67.8398 284.245 68.1702 284.576 68.5777 284.576H73.2286C73.6361 284.576 73.9665 284.245 73.9665 283.838V283.771C73.9665 283.363 73.6361 283.033 73.2286 283.033H68.5777C68.1702 283.033 67.8398 283.363 67.8398 283.771Z" fill="#FAE67F"/>
<path d="M111.398 283.771V283.838C111.398 284.245 111.729 284.576 112.136 284.576H116.787C117.195 284.576 117.525 284.245 117.525 283.838V283.771C117.525 283.363 117.195 283.033 116.787 283.033H112.136C111.729 283.033 111.398 283.363 111.398 283.771Z" fill="#FAE67F"/>
<path d="M71.18 296.247L71.1465 296.189C70.9398 295.831 71.0683 295.382 71.417 295.181L75.4359 292.863C75.7942 292.656 76.2426 292.785 76.4437 293.133L76.4772 293.191C76.684 293.55 76.5554 293.998 76.2068 294.199L72.1782 296.523C71.8199 296.73 71.3715 296.602 71.1703 296.253L71.18 296.247Z" fill="#FAE67F"/>
<path d="M108.899 274.466L108.866 274.408C108.659 274.049 108.788 273.601 109.137 273.4L113.158 271.085C113.517 270.879 113.965 271.008 114.166 271.356L114.199 271.415C114.406 271.773 114.277 272.221 113.928 272.422L109.897 274.743C109.539 274.949 109.09 274.82 108.89 274.471L108.899 274.466Z" fill="#FAE67F"/>
<path d="M83.3026 299.993L83.3585 300.027C83.7163 300.228 83.8393 300.686 83.6269 301.044L81.3014 305.069C81.1002 305.427 80.6418 305.549 80.284 305.337L80.2281 305.304C79.8704 305.102 79.7474 304.644 79.9598 304.286L82.2853 300.261C82.4865 299.904 82.9449 299.781 83.3026 299.993Z" fill="#FAE67F"/>
<path d="M102.08 267.602L102.021 267.569C101.663 267.362 101.55 266.909 101.751 266.561L104.07 262.542C104.276 262.184 104.729 262.07 105.077 262.271L105.135 262.305C105.494 262.512 105.607 262.964 105.406 263.313L103.087 267.332C102.881 267.69 102.428 267.803 102.08 267.602Z" fill="#FAE67F"/>
<g style="mix-blend-mode:multiply">
<path d="M339.49 352.975C332.782 352.774 312.132 353.981 312.781 355.669C313.429 357.357 321.11 361.058 330.255 359.783C342.408 358.084 353.901 360.287 355.544 361.617C357.188 362.947 360.597 370.192 362.241 370.091C363.896 369.991 365.159 361.628 365.159 361.628C365.159 361.628 362.342 353.657 339.49 352.975Z" fill="#A6C6D7"/>
</g>
<path d="M325.293 176.297C325.293 176.297 325.997 184.191 325.997 186.326C325.997 188.461 326.21 191.692 331.99 188.171C337.781 184.649 338.933 178.757 338.933 178.757C338.933 178.757 335.187 165.922 335.143 164.145C335.098 162.367 325.293 176.297 325.293 176.297Z" fill="#FBDABD"/>
<path d="M321.704 152.696C321.704 152.696 315.711 166.783 323.56 176.454C325.852 179.271 336.394 176.543 338.004 174.005C340.296 170.383 346.188 164.726 347.541 160.947C348.48 158.331 347.127 154.742 347.127 154.742C347.127 154.742 328.457 142.098 321.704 152.685V152.696Z" fill="#FFE1CD"/>
<path d="M333.69 140.89C319.022 136.888 318.262 152.629 321.112 154.306C331.241 160.276 335.736 148.537 341.382 152.853C343.864 154.753 339.66 155.391 340.856 158.398C342.064 161.406 341.382 163.943 341.382 163.943C341.382 163.943 345.194 160.645 345.161 162.747C345.138 164.1 342.108 167.454 341.337 167.163C341.337 167.163 340.264 170.853 339.817 171.523C339.817 171.523 346.189 166.291 347.9 162.11C352.83 150.002 344.378 143.808 333.69 140.89Z" fill="black"/>
<path d="M340.868 178.667C340.868 178.667 349.779 179.964 356.99 185.487C356.99 185.487 355.112 201.363 352.071 211.648C348.079 225.132 345.229 228.295 343.686 240.023C343.686 240.023 319.537 242.874 314.048 240.269C314.048 240.269 316.038 194.42 313.008 187.388C313.008 187.388 319.347 182.256 322.701 181.093C323.897 180.68 324.333 188.126 328.034 187.388C334.697 186.069 340.857 178.656 340.857 178.656L340.868 178.667Z" fill="#EBFFFD"/>
<path d="M325.552 179.361L327.184 186.18L321.93 191.267L322.086 181.093L325.552 179.361Z" fill="#D1F0FF"/>
<path d="M327.184 186.18L338.174 175.917L340.868 178.668L334.093 190.451L327.184 186.18Z" fill="#D1F0FF"/>
<path d="M327.186 186.18L330.585 188.282C330.585 188.282 328.483 189.479 328.047 190.004C332.765 206.349 317.985 216.78 326.85 231.348L325.33 237.116L319.259 236.356C319.259 236.356 314.81 225.713 321.171 213.448C328.203 199.898 326.157 191.759 326.034 190.049L324.559 188.741L327.186 186.192V186.18Z" fill="#623E91"/>
<path d="M313.007 187.388C313.007 187.388 306.612 204.158 300.753 211.637C297.936 215.237 298.562 201.117 301.346 190.831C301.346 190.831 295.734 191.2 295.32 192.329C291.955 201.363 291.038 222.147 297.142 222.147C303.537 222.147 315.064 207.042 315.064 207.042C315.064 207.042 315.366 193.526 312.996 187.399L313.007 187.388Z" fill="#E4F0F4"/>
<path d="M314.048 243.646C314.048 243.646 307.586 296.203 323.629 346.133C323.629 346.133 331.5 348.212 331.042 346.133C322.601 307.841 323.395 269.639 328.694 259.097L330.382 243.847L314.037 243.657L314.048 243.646Z" fill="black"/>
<path d="M325.416 243.847C324.13 290.691 337.177 320.855 350.973 349.8C350.973 349.8 358.442 351.119 357.67 349.174C341.806 309.205 343.695 243.847 343.695 243.847H325.427H325.416Z" fill="black"/>
<path d="M323.639 346.133C323.549 345.305 331.051 346.692 331.051 346.692C331.051 346.692 333.052 351.376 331.912 352.707C330.772 354.037 320.888 359.929 314.717 356.787C308.546 353.657 317.758 354.507 319.368 353.467C320.978 352.427 323.907 348.682 323.639 346.144V346.133Z" fill="#433C44"/>
<path d="M350.973 349.856C350.973 349.856 350.28 355.289 351.164 356.933C352.047 358.576 363.137 368.459 367.699 367.632C369.588 367.285 367.419 362.556 366.111 360.667C363.003 356.161 357.67 349.308 357.67 349.308L350.973 349.845V349.856Z" fill="#433C44"/>
<path d="M314.045 240.191C314.045 240.191 313.285 244.182 314.045 244.473C314.805 244.753 343.683 244.473 343.683 244.473V240.023C343.683 240.023 317.332 241.13 314.045 240.191Z" fill="black"/>
<path d="M320.822 240.314C320.822 240.482 320.23 244.853 321.079 244.853C321.929 244.853 327.821 244.842 327.821 244.842C327.821 244.842 328.302 240.213 327.62 240.225C326.938 240.236 320.811 240.314 320.811 240.314H320.822Z" fill="#B1B2B9"/>
<path d="M352.898 182.625C364.995 188.182 387.388 213.035 355.279 251.226L351.098 245.58C351.098 245.58 375.325 215.628 353.457 199.429C348.951 196.086 347.219 180.02 352.909 182.625H352.898Z" fill="#EBFFFD"/>
<path d="M356.901 248.833C356.901 248.833 353.223 244.831 350.461 245.065C347.689 245.3 344.189 248.676 344.189 248.676C344.189 248.676 343.004 252.478 348.326 248.788C349.511 247.961 346.861 254.311 342.926 251.93C341.037 250.79 341.115 257.184 345.028 256.346C345.028 256.346 343.988 259.454 347.588 258.448C347.588 258.448 346.012 260.907 349.321 260.136C349.321 260.136 348.214 262.372 351.3 261.131C354.386 259.89 355.235 255.653 355.235 255.653L356.923 248.833H356.901Z" fill="#FFE1CD"/>
<path d="M300.72 192.207C300.72 192.207 305.282 182.2 303.527 176.823C302.219 172.832 303.169 169.925 301.514 170.294C299.39 170.775 298.786 176.074 299.099 176.823C299.412 177.572 293.33 175.794 292.906 178.109C292.481 180.423 293.196 180.445 293.196 180.445C293.196 180.445 290.647 181.641 292.559 183.24C292.559 183.24 290.055 184.738 292.157 186.74C292.157 186.74 290.681 189.289 293.409 190.451C293.409 190.451 295.723 190.697 295.298 192.061C294.873 193.425 300.709 192.207 300.709 192.207H300.72Z" fill="#FBDABD"/>
<path d="M305.325 157.906C305.325 157.906 310.099 158.476 310.77 158.532C313.688 158.756 311.631 167.912 310.356 169.355C309.082 170.786 302.754 169.343 302.754 169.343C302.754 169.343 302.754 160.142 305.325 157.906Z" fill="#5F3917"/>
<path d="M300.629 169.902C300.629 169.902 302.16 184.325 300.114 187.746C299.019 189.579 292.568 189.456 292.568 189.456C292.568 189.456 295.832 177.706 295.027 176.789C294.223 175.872 291.707 173.67 291.707 173.67L300.64 169.914L300.629 169.902Z" fill="#C0966A"/>
<path d="M295.721 171.971C295.721 171.971 298.068 173.86 298.292 176.063C298.393 177.113 297.711 189.087 295.978 189.277C294.211 189.479 292.568 189.445 292.568 189.445C292.568 189.445 295.832 177.695 295.027 176.778C294.223 175.861 291.707 173.659 291.707 173.659L295.732 171.959L295.721 171.971Z" fill="#5F3917"/>
<path d="M278.716 134.16C275.809 130.638 264.159 134.618 259.352 147.229C253.919 161.461 259.967 182.122 270.342 179.908C281.142 177.605 296.984 172.06 302.764 169.332C302.764 169.332 307.091 161.428 305.335 157.895C305.335 157.895 293.753 152.394 278.727 134.16H278.716Z" fill="#E3FFFF"/>
<path d="M279.457 139.303C277.053 135.423 264.163 134.618 259.344 147.229C253.911 161.461 259.959 182.122 270.334 179.908C281.134 177.605 296.976 172.06 302.756 169.332C302.756 169.332 303.539 167.901 304.299 166C294.874 164.815 291.252 158.353 279.457 139.303Z" fill="#B4E7FF"/>
<path d="M278.146 133.545C275.541 129.8 264.159 134.618 259.352 147.229C253.919 161.461 259.967 182.122 270.342 179.908C281.142 177.605 290.376 151.142 278.157 133.534L278.146 133.545Z" fill="#C0966A"/>
<path d="M266.151 150.717C270.444 143.283 276.817 139.057 281.133 138.453C280.037 136.116 278.908 133.511 276.403 132.315C272.692 130.549 262.127 135.859 257.308 148.47C252.478 161.126 258.761 177.616 267.057 179.841C261.724 173.726 260.852 159.885 266.151 150.729V150.717Z" fill="#5F3917"/>
<path d="M276.29 152.998C273.45 155.379 273.048 161.741 275.44 163.418C276.726 164.323 280.192 164.29 282.372 164.144C283.356 161.115 283.948 157.727 283.959 154.239C280.382 153.4 277.553 151.947 276.301 152.998H276.29Z" fill="#5F3917"/>
<path d="M279.892 158.443C279.736 161.528 278.003 163.843 276.124 163.753C274.257 163.664 273.206 160.925 273.363 157.839C273.52 154.753 275.711 152.54 277.578 152.629C279.445 152.719 280.049 155.357 279.892 158.443Z" fill="#CEB77B"/>
<path d="M297.366 188.573C299.055 188.785 300.407 186.281 297.914 185.465C300.43 185.387 300.676 182.122 298.63 181.988C300.687 181.753 301.872 179.808 298.753 178.791C297.981 178.545 293.33 175.783 292.906 178.109C292.481 180.423 293.196 180.445 293.196 180.445C293.196 180.445 290.647 181.641 292.559 183.24C292.559 183.24 290.055 184.738 292.157 186.739C292.157 186.739 290.681 189.289 293.409 190.451C293.409 190.451 295.622 191.111 297.713 190.708C298.809 190.496 298.607 189.166 297.355 188.573H297.366Z" fill="#FFE1CD"/>
<path d="M264.299 121.643L264.211 121.661C263.691 121.768 263.357 122.277 263.465 122.797L264.693 128.731C264.801 129.251 265.31 129.585 265.83 129.477L265.917 129.459C266.437 129.352 266.772 128.843 266.664 128.323L265.435 122.389C265.327 121.869 264.819 121.535 264.299 121.643Z" fill="#050505"/>
<path d="M249.253 129.214L249.32 129.155C249.72 128.797 250.327 128.84 250.677 129.232L254.71 133.755C255.067 134.156 255.024 134.763 254.632 135.113L254.565 135.172C254.165 135.529 253.557 135.487 253.208 135.095L249.175 130.572C248.818 130.171 248.861 129.564 249.253 129.214Z" fill="#050505"/>
<path d="M240.047 143.214L240.075 143.13C240.244 142.62 240.791 142.354 241.29 142.519L247.032 144.419C247.542 144.588 247.808 145.135 247.643 145.634L247.615 145.719C247.446 146.228 246.899 146.495 246.4 146.329L240.647 144.426C240.138 144.257 239.871 143.71 240.036 143.211L240.047 143.214Z" fill="#050505"/>
<path d="M239.122 159.971L239.104 159.883C238.996 159.358 239.337 158.854 239.852 158.748L245.776 157.53C246.302 157.422 246.806 157.763 246.912 158.278L246.93 158.365C247.038 158.891 246.697 159.395 246.182 159.501L240.246 160.721C239.721 160.829 239.217 160.488 239.111 159.973L239.122 159.971Z" fill="#050505"/>
<path d="M246.674 174.925L246.614 174.858C246.258 174.457 246.301 173.85 246.694 173.5L251.212 169.48C251.613 169.123 252.221 169.167 252.57 169.559L252.629 169.626C252.986 170.027 252.943 170.634 252.55 170.983L248.023 175.011C247.622 175.368 247.015 175.325 246.666 174.932L246.674 174.925Z" fill="#050505"/>
<path d="M447.065 103.515C444.102 96.6398 437.316 92.9392 431.916 95.2646C426.505 97.5901 424.526 105.058 427.478 111.934C430.44 118.81 437.227 122.51 442.627 120.185C448.038 117.859 450.017 110.391 447.065 103.515ZM441.509 117.591C437.484 119.324 432.319 116.317 429.982 110.872C427.645 105.427 429.009 99.6137 433.034 97.8808C437.059 96.1479 442.224 99.1553 444.561 104.6C446.897 110.045 445.533 115.858 441.509 117.591Z" fill="#FACA51"/>
<path d="M459.699 120.196C465.11 122.521 471.896 118.832 474.847 111.945C477.81 105.069 475.82 97.6012 470.409 95.2758C464.998 92.9503 458.212 96.6397 455.26 103.527C452.297 110.402 454.287 117.871 459.699 120.196ZM457.776 104.6C460.112 99.1552 465.277 96.1478 469.302 97.8807C473.327 99.6136 474.691 105.427 472.354 110.872C470.018 116.317 464.852 119.324 460.828 117.591C456.803 115.858 455.439 110.045 457.776 104.6Z" fill="#FAE67F"/>
<path d="M453.416 129.498V129.409C453.416 127.43 454.601 125.674 456.378 124.814C468.665 118.832 468.665 91.8437 468.665 90.6363C468.665 89.2723 460.828 88.1655 451.169 88.1655C441.509 88.1655 433.672 89.2723 433.672 90.6363C433.672 91.8437 433.672 118.832 445.959 124.814C447.736 125.686 448.921 127.43 448.921 129.409V129.498C448.921 131.779 447.39 133.758 445.187 134.372C443.432 134.864 442.336 135.569 442.336 136.351C442.336 137.838 446.283 139.046 451.157 139.046C456.032 139.046 459.978 137.838 459.978 136.351C459.978 135.569 458.883 134.864 457.128 134.372C454.936 133.758 453.393 131.779 453.393 129.498H453.416Z" fill="#FAF8AE"/>
<path d="M453.416 129.498V129.409C453.416 127.43 454.601 125.674 456.378 124.814C445.366 114.573 447.49 88.2102 445.791 88.2885C438.759 88.6127 433.672 89.5407 433.672 90.6363C433.672 91.8437 433.672 118.832 445.959 124.814C447.736 125.686 448.921 127.43 448.921 129.409V129.498C448.921 131.779 447.39 133.758 445.187 134.372C443.432 134.864 442.336 135.569 442.336 136.351C442.336 137.838 446.283 139.046 451.157 139.046C456.032 139.046 459.978 137.838 459.978 136.351C459.978 135.569 458.883 134.864 457.128 134.372C454.936 133.758 453.393 131.779 453.393 129.498H453.416Z" fill="#FAE67F"/>
<path d="M459.465 135.435C459.174 135.189 458.76 134.954 458.246 134.741C458.615 135.021 459.018 135.256 459.465 135.435Z" fill="#FACA51"/>
<path d="M445.064 137.659C445.064 136.832 446.16 136.083 447.915 135.569C450.106 134.92 451.649 132.83 451.649 130.415V130.314C451.649 128.223 450.464 126.368 448.687 125.451C436.433 119.134 436.4 90.7257 436.4 89.2947C434.678 89.6748 433.672 90.1332 433.672 90.6139C433.672 91.8214 433.672 118.81 445.959 124.791C447.736 125.663 448.921 127.407 448.921 129.386V129.476C448.921 131.756 447.39 133.735 445.187 134.35C443.432 134.842 442.336 135.546 442.336 136.329C442.336 137.112 443.499 137.849 445.344 138.353C445.165 138.129 445.064 137.894 445.064 137.659Z" fill="#FACA51"/>
<path d="M462.629 92.6261C462.629 92.6261 465.938 92.4137 466.363 93.2634C466.788 94.1131 465.178 114.941 458.246 120.889C458.246 120.889 463.132 110.961 462.64 92.6261H462.629Z" fill="white"/>
<path d="M490.134 109.942L490.111 110.028C489.972 110.546 489.441 110.844 488.934 110.708L483.08 109.141C482.562 109.002 482.264 108.471 482.4 107.963L482.423 107.877C482.562 107.359 483.093 107.061 483.601 107.197L489.443 108.761C489.962 108.9 490.259 109.431 490.123 109.939L490.134 109.942Z" fill="#FAF8AE"/>
<path d="M490.186 93.2688L490.163 93.1824C490.025 92.6695 489.498 92.3651 488.985 92.5025L483.132 94.0708C482.619 94.2083 482.315 94.7355 482.452 95.2484L482.476 95.3348C482.613 95.8477 483.14 96.1521 483.653 96.0147L489.506 94.4463C490.019 94.3089 490.323 93.7817 490.186 93.2688Z" fill="#FAF8AE"/>
<path d="M452.587 78.0475L452.501 78.0707C451.983 78.2101 451.459 77.8993 451.323 77.3919L449.752 71.5509C449.613 71.0327 449.924 70.5092 450.431 70.3728L450.507 70.3525C451.025 70.2131 451.548 70.5239 451.685 71.0313L453.258 76.883C453.397 77.4013 453.087 77.9247 452.579 78.0612L452.587 78.0475Z" fill="#FAF8AE"/>
<path d="M465.153 77.9931L465.239 78.0163C465.752 78.1537 466.279 77.8493 466.417 77.3364L467.985 71.4833C468.123 70.9704 467.818 70.4432 467.305 70.3058L467.219 70.2826C466.706 70.1452 466.179 70.4496 466.041 70.9625L464.473 76.8156C464.336 77.3285 464.64 77.8557 465.153 77.9931Z" fill="#FAF8AE"/>
<path d="M476.081 84.3155L476.144 84.3787C476.52 84.7542 477.129 84.7542 477.504 84.3787L481.789 80.094C482.164 79.7185 482.164 79.1097 481.789 78.7342L481.726 78.671C481.35 78.2955 480.741 78.2955 480.366 78.671L476.081 82.9557C475.706 83.3312 475.706 83.94 476.081 84.3155Z" fill="#FAF8AE"/>
<g style="mix-blend-mode:multiply">
<path d="M410.585 320.329C410.585 320.329 426.819 319.513 433.661 319.122C440.503 318.731 470.566 319.122 470.756 321.458C470.946 323.795 468.419 325.74 464.73 325.539C461.04 325.349 429.524 323.393 423.017 329.765C423.017 329.765 425.745 341.001 414.755 358.487C412.788 361.617 414.364 361.796 411.837 365.888C411.133 367.028 406.583 371.444 405.811 370.08C405.04 368.716 405.923 363.585 408.729 359.381C413.693 351.946 413.089 346.513 411.211 339.917C409.456 333.79 405.543 337.502 405.543 337.502L406.873 330.212L410.596 320.329H410.585Z" fill="#A6C6D7"/>
</g>
<path d="M444.529 228.273C444.529 228.273 461.579 226.786 467.705 237.396C474.737 249.56 456.056 282.295 447.693 297.12L442.494 294.582C442.494 294.582 457.856 262.73 453.261 250.689C450.79 244.216 429.57 252.78 429.57 252.78L434.948 235.328L444.518 228.273H444.529Z" fill="#C0966A"/>
<path d="M433.382 148.291C440.347 152.182 440.537 171.188 435.026 168.997C432.175 167.868 422.47 176.812 419.631 175.213C415.651 172.966 414.812 168.695 412.979 169.097C409.088 169.947 405.89 162.389 409.177 161.596C412.475 160.802 401.139 130.269 433.371 148.291H433.382Z" fill="#FFD6AD"/>
<path d="M419.64 175.213C419.64 175.213 416.666 181.351 416.789 181.731C416.912 182.111 422.737 191.614 426.035 190.473C429.333 189.333 432.62 175.146 434.397 173.122C436.175 171.099 437.561 168.181 437.561 168.181C437.561 168.181 425.152 162.121 419.64 175.224V175.213Z" fill="#FFC592"/>
<path d="M412.867 182.994L401.027 193.883C401.027 193.883 417.305 227.121 417.048 243.836C417.048 243.836 440.828 234.064 444.529 228.273C444.529 228.273 441.968 184.481 440.828 184.481L428.195 182.916L412.867 182.994Z" fill="#EBFFFD"/>
<path d="M440.828 184.481C440.828 184.481 469.046 195.974 471.897 145.63L477.599 144.68C477.599 144.68 477.935 204.907 442.55 198.836L440.839 184.481H440.828Z" fill="#E4F0F4"/>
<path d="M401.013 193.883L407.397 208.272C407.397 208.272 371.945 258.862 371.945 182.916L377.077 178.667C377.077 178.667 381.828 240.057 401.013 193.883Z" fill="#E4F0F4"/>
<path d="M371.947 182.916C371.947 182.916 365.44 178.667 365.105 176.018C364.411 170.495 364.769 169.69 371.052 166.761C374.854 164.983 376.598 166.66 376.877 169.433C376.877 169.433 384.479 165.687 377.067 178.656L371.936 182.905L371.947 182.916Z" fill="#FFD6AD"/>
<path d="M471.886 145.63C471.886 145.63 467.962 145.373 467.828 143.35C467.705 141.326 469.125 140.868 469.851 140.689C469.371 140.007 467.068 141.192 468.331 136.765C469.46 132.818 479.343 128.514 478.739 138.967C478.661 140.264 477.99 142.936 477.577 144.68L471.875 145.63H471.886Z" fill="#FFD6AD"/>
<path d="M417.046 243.836C416.923 244.417 417.683 294.459 402.602 333.466C402.602 333.466 406.783 335.624 408.929 333.466C408.929 333.466 442.436 270.891 437.55 233.405L417.035 243.836H417.046Z" fill="#C0966A"/>
<path d="M402.601 333.477C402.601 333.477 399.683 336.775 397.972 340.375C396.24 344.031 395.692 353.88 398.163 354.26C400.633 354.641 407.598 344.735 408.929 341.124C410.181 337.714 408.929 333.466 408.929 333.466H402.601V333.477Z" fill="#0E0E0E"/>
<path d="M442.505 294.582C442.505 294.582 438.826 296.739 438.961 298.003C439.084 299.266 445.043 311.81 447.189 312.19C449.347 312.57 456.692 314.471 456.815 312.57C456.938 310.67 451.874 308.21 450.487 306.242C449.09 304.263 447.703 297.119 447.703 297.119L442.505 294.582Z" fill="#0E0E0E"/>
<path d="M416.645 239.319L417.047 244.842C417.047 244.842 442.124 233.025 444.527 228.273V223.779C444.527 223.779 428.149 234.981 416.645 239.319Z" fill="#0E0E0E"/>
<path d="M431.973 231.359C431.973 231.359 433.773 235.943 434.958 235.339C436.143 234.735 439.173 233.058 439.709 232.421C440.246 231.784 438.703 227.714 437.831 227.86C436.959 228.005 432.588 231.18 431.973 231.359Z" fill="#B1B2B9"/>
<path d="M412.71 156.263C413.94 159.393 410.809 160.254 411.48 162.244C411.48 162.244 410.452 160.355 409.2 161.584C407.947 162.814 407.511 169.69 413.526 169.109C413.526 169.109 416.411 172.418 416.97 172.999C416.97 172.999 417.842 174.028 415.751 174.218C413.66 174.408 410.161 171.177 407.824 167.476C405.488 163.776 400.926 155.883 407.008 152.842C407.008 152.842 401.687 149.611 406.349 146.48C410.999 143.35 418.255 139.929 419.083 134.037C419.083 134.037 422.414 135.244 422.213 138.978C422.213 138.978 431.369 138.665 430.229 130.683C430.229 130.683 438.458 133.791 433.907 143.54C433.907 143.54 436.468 145.91 440.839 144.68C435.327 153.803 417.942 143.45 414.052 152.048C414.052 152.048 411.536 153.255 412.721 156.274L412.71 156.263Z" fill="black"/>
<path d="M417.417 180.009L428.195 182.916L420.391 190.563L412.867 182.994L417.417 180.009Z" fill="#D1F0FF"/>
<path d="M432.026 178.667L438.913 185.621L428.191 182.916L432.026 178.667Z" fill="#D1F0FF"/>
<path d="M428.194 182.916L431.023 184.034L429.614 186.158C429.614 186.158 426.875 197.819 435.17 200.345C451.381 205.287 458.861 213.515 459.487 219.094L458.727 223.779L452.645 223.018C452.645 223.018 448.083 209.211 435.673 204.147C423.264 199.082 427.691 186.538 427.691 186.538L425.41 185.655L428.194 182.927V182.916Z" fill="#623E91"/>
<g style="mix-blend-mode:multiply">
<path d="M218.557 377.649C218.557 377.649 215.136 383.194 223.152 387.432C231.169 391.669 246.921 386.616 254.311 406.058C261.701 425.5 251.002 453.505 252.366 456.815C253.73 460.124 261.31 472.377 264.418 470.231C267.526 468.095 260.136 459.062 260.919 455.607C261.701 452.153 272.49 397.505 263.009 391.479C263.009 391.479 282.149 401.094 279.779 432.118C279.779 432.118 280.797 436.78 285.347 437.373V411.01C285.347 411.01 280.752 388.36 277.252 386.224C273.753 384.089 218.557 377.649 218.557 377.649Z" fill="#A6C6D7"/>
</g>
<path d="M231.304 286.141C231.304 286.141 232.79 293.911 233.372 295.946C233.953 297.981 234.624 301.145 228.62 299.434C222.617 297.723 220.045 292.424 220.045 292.424C220.045 292.424 219.9 279.053 219.453 277.342C219.017 275.632 231.304 286.141 231.304 286.141Z" fill="#FFD8A3"/>
<path d="M242.764 269.147C242.764 269.147 243.781 284.43 233.172 290.96C230.086 292.86 221.03 286.812 220.348 283.883C219.375 279.712 215.686 272.423 215.652 268.409C215.63 265.626 218.09 262.696 218.09 262.696C218.09 262.696 239.88 256.916 242.775 269.147H242.764Z" fill="#FFE1BD"/>
<path d="M217.497 258.906C219.566 257.352 221.366 253.752 229.214 253.898C237.074 254.054 244.665 263.244 244.698 266.442C244.732 269.762 243.513 271.831 242.775 270.847C240.517 267.828 236.682 266.609 231.249 265.1C225.949 263.624 221.791 263.826 221.791 263.826C221.791 263.826 223.602 265.424 221.477 267.862C219.353 270.299 219.946 271.931 219.946 271.931C219.946 271.931 217.956 268.89 217.285 270.88C216.86 272.166 218.615 276.336 219.432 276.314C219.432 276.314 219.655 283.379 219.868 284.173C219.868 284.173 215.183 279.433 214.389 274.994C213.45 269.796 213.83 261.657 217.497 258.906Z" fill="black"/>
<path d="M317.636 314.415C321.336 316.685 322.164 325.584 312.828 326.78C312.828 326.78 303.929 316.774 300.631 315.008C298.809 314.024 304.745 305.751 309.094 308.59C313.779 311.654 315.4 313.04 317.636 314.415Z" fill="#C6D9DE"/>
<path d="M286.645 311.553C283.537 313.107 270.803 322.979 270.277 344.87C270.277 344.87 285.873 371.523 292.19 372.618C292.19 372.618 304.287 323.169 315.981 318.485C309.821 314.616 293.621 308.065 286.645 311.553Z" fill="#E4F0F4"/>
<path d="M285.571 307.808C282.463 309.362 269.729 319.234 269.203 341.124C269.203 341.124 284.799 367.777 291.116 368.873C291.116 368.873 303.213 319.424 314.907 314.739C308.747 310.871 292.547 304.32 285.571 307.808Z" fill="#B1B2B9"/>
<path d="M291.261 297.679C287.997 298.875 272.166 314.807 269.203 336.496C269.203 336.496 282.977 362.266 289.126 364.066C289.126 364.066 304.431 306.6 317.635 314.426C311.944 309.899 298.595 294.996 291.261 297.69V297.679Z" fill="#E4F0F4"/>
<path d="M300.709 315.857C297.109 312.19 293.163 308.937 288.903 306.075C288.087 305.527 287.327 306.846 288.132 307.383C292.291 310.167 296.125 313.353 299.636 316.931C300.318 317.624 301.402 316.551 300.709 315.857Z" fill="#B1B2B9"/>
<path d="M295.197 322.241C293.811 320.341 292.413 318.44 290.58 316.942C288.567 315.298 286.443 313.912 284.587 312.079C283.894 311.397 282.809 312.47 283.514 313.152C285.068 314.683 286.734 315.958 288.489 317.244C290.691 318.854 292.29 320.81 293.889 323.001C294.459 323.784 295.778 323.024 295.197 322.23V322.241Z" fill="#B1B2B9"/>
<path d="M293.194 330.459C292.199 327.798 290.265 326.054 288.174 324.198C285.771 322.063 283.814 319.491 281.254 317.523C280.483 316.931 279.722 318.25 280.483 318.831C282.741 320.564 284.429 322.867 286.531 324.768C288.532 326.579 290.735 328.234 291.718 330.85C292.054 331.756 293.53 331.364 293.183 330.448L293.194 330.459Z" fill="#B1B2B9"/>
<path d="M289.974 336.854C285.893 332.37 282.025 327.362 277.374 323.449C276.625 322.823 275.552 323.896 276.301 324.522C280.952 328.424 284.82 333.433 288.901 337.927C289.56 338.654 290.634 337.569 289.974 336.854Z" fill="#B1B2B9"/>
<path d="M285.168 344.065C282.071 340.174 278.114 336.261 276.191 331.633C275.822 330.738 274.346 331.129 274.726 332.035C276.761 336.943 280.819 341.035 284.095 345.138C284.699 345.898 285.772 344.825 285.168 344.065Z" fill="#B1B2B9"/>
<path d="M217.295 291.284C217.295 291.284 208.384 292.581 201.173 298.103C201.173 298.103 200.715 315.768 203.756 326.053C207.747 339.548 209.77 340.621 214.22 350.761C214.22 350.761 238.626 355.502 244.115 352.897C244.115 352.897 242.125 307.047 245.155 300.015C245.155 300.015 238.816 294.884 235.462 293.71C234.266 293.296 233.83 300.742 230.129 300.015C223.466 298.696 217.306 291.284 217.306 291.284H217.295Z" fill="#EBFFFD"/>
<path d="M232.534 291.832L230.969 298.797L236.235 303.895L235.709 293.721L232.534 291.832Z" fill="#D1F0FF"/>
<path d="M230.966 298.797L219.976 288.545L217.293 291.284L224.068 303.079L230.966 298.797Z" fill="#D1F0FF"/>
<path d="M230.966 298.797L227.434 300.988C227.434 300.988 229.681 302.106 230.117 302.631C225.399 318.977 240.112 326.814 231.246 341.381L232.766 347.139L238.837 346.379C238.837 346.379 243.354 338.318 236.992 326.053C229.96 312.503 232.006 304.364 232.129 302.654L233.728 301.469L230.966 298.797Z" fill="#623E91"/>
<path d="M270.086 321.459C270.086 321.459 271.919 314.583 273.809 313.543C277.152 311.721 278.717 309.507 280.237 310.2C281.009 310.547 280.718 311.374 279.198 313.163C277.778 314.84 277.006 319.636 275.285 319.636C273.675 319.636 273.664 323.247 273.664 323.247C273.664 323.247 271.551 322.141 270.086 321.447V321.459Z" fill="#FFE1BD"/>
<path d="M245.154 300.015C245.154 300.015 251.46 314.896 257.284 323.259C260.079 327.283 264.551 329.553 270.097 321.459C270.097 321.459 273.965 321.951 273.674 323.259C272.21 329.978 265.815 337.211 259.744 337.2C253.394 337.2 243.511 318.608 243.511 318.608C243.511 318.608 242.292 305.583 245.165 300.015H245.154Z" fill="#E4F0F4"/>
<path d="M244.599 351.454C248.4 366.749 252.034 365.441 261.626 368.37C277.792 373.311 281.918 387.711 288.447 416.992C288.447 416.992 284.12 422.023 283.606 419.965C271.565 372.473 260.452 385.419 241.278 378.141C223.267 371.31 226.219 353.143 226.219 353.143L244.61 351.454H244.599Z" fill="black"/>
<path d="M234.425 351.902C238.461 370.662 243.559 368.113 255.567 374.195C270.302 381.652 281.269 415.639 268.781 447.323C268.781 447.323 265.17 449.883 263.583 447.983C269.396 427.054 258.943 392.82 240.563 387.174C229.338 383.72 228.332 385.956 220.786 380.165C213.496 374.575 214.704 354.607 214.704 354.607L234.425 351.913V351.902Z" fill="black"/>
<path d="M288.446 416.992C288.121 416.209 283.75 420.189 283.75 420.189C283.75 420.189 284.275 425.321 285.941 425.947C287.607 426.562 299.268 426.919 303.192 421.106C307.116 415.292 299.38 420.58 297.434 420.446C295.489 420.312 289.452 419.384 288.446 417.003V416.992Z" fill="#433C44"/>
<path d="M263.582 447.971C263.582 447.971 262.352 453.662 263.504 455.194C264.656 456.725 277.714 465.177 282.454 463.735C284.422 463.131 281.94 458.112 279.883 456.938C274.114 453.651 268.781 447.312 268.781 447.312L263.582 447.971Z" fill="#433C44"/>
<path d="M244.05 347.15C244.05 347.15 245.325 351.074 244.598 351.454C243.871 351.835 214.781 355.233 214.781 355.233L214.211 350.761C214.211 350.761 240.853 348.514 244.05 347.15Z" fill="black"/>
<path d="M237.251 348.134C237.274 348.302 238.425 352.628 237.565 352.74C236.704 352.852 230.778 353.59 230.778 353.59C230.778 353.59 229.705 348.995 230.387 348.928C231.08 348.861 237.24 348.145 237.24 348.145L237.251 348.134Z" fill="#B1B2B9"/>
<path d="M263.569 303.481L257.633 318.541C257.633 318.541 259.656 322.946 262.697 321.749C262.697 321.749 265.582 312.112 268.008 306.075C269.159 303.224 264.71 301.894 263.569 303.481Z" fill="#535054"/>
<path d="M266.499 300.082C266.499 300.082 265.347 302.408 264.855 303.548C264.486 304.409 266.856 305.583 267.304 304.443C267.583 303.738 268.545 302.184 268.869 301.245C269.07 300.664 266.789 299.781 266.499 300.082Z" fill="#B1B2B9"/>
<path d="M266.375 284.285C262.149 288.724 260.986 295.767 263.792 300.015C266.599 304.264 272.3 304.107 276.526 299.669C280.752 295.23 281.915 288.187 279.109 283.939C276.303 279.69 270.601 279.847 266.375 284.285Z" fill="#45769F"/>
<path d="M266.297 286.644C263.402 290.725 263.234 296.292 265.928 299.087C268.623 301.871 273.151 300.831 276.046 296.751C278.942 292.67 279.11 287.102 276.415 284.307C273.721 281.524 269.193 282.563 266.297 286.644Z" fill="#B1B2B9"/>
<path d="M276.045 296.751C277.935 294.09 278.65 290.792 278.181 288.053C277.868 287.08 277.364 286.208 276.694 285.515C273.999 282.731 269.471 283.771 266.576 287.852C264.686 290.512 263.971 293.811 264.44 296.55C264.753 297.522 265.257 298.394 265.927 299.087C268.622 301.871 273.15 300.832 276.045 296.751Z" fill="#59D2FF"/>
<path d="M275.262 294.001C272.635 297.712 268.632 298.864 265.949 296.863C266.061 296.997 266.162 297.131 266.285 297.254C268.621 299.68 272.568 298.775 275.083 295.219C276.112 293.766 276.738 292.111 276.973 290.479C276.604 291.698 276.034 292.905 275.262 293.99V294.001Z" fill="white"/>
<path d="M201.173 319.267C211.593 329.441 233.663 347.653 261.545 316.741L255.71 312.828C255.71 312.828 244.641 325.372 230.174 322.632C220.537 320.81 212.745 304.51 204.08 297.936C199.139 294.179 193.347 311.62 201.173 319.267Z" fill="#E4F0F4"/>
<path d="M255.711 312.828C255.711 312.828 255.946 306.925 258.159 305.236C260.362 303.548 263.481 303.716 263.481 303.716C263.481 303.716 262.766 305.404 262.363 306.567C261.893 307.931 266.824 310.133 268.143 305.706C268.769 303.582 273.018 308.367 269.563 310.39C269.563 310.39 272.425 311.989 269.082 313.666C269.082 313.666 271.911 314.426 268.937 316.081C268.937 316.081 271.262 316.987 268.143 318.149C265.024 319.312 261.547 316.752 261.547 316.752L255.711 312.839V312.828Z" fill="#FFE1BD"/>
<defs>
<linearGradient id="paint0_linear_702_36662" x1="92.6826" y1="288.612" x2="92.6826" y2="270.847" gradientUnits="userSpaceOnUse">
<stop stop-color="white" stop-opacity="0"/>
<stop offset="1" stop-color="white"/>
</linearGradient>
<linearGradient id="paint1_linear_702_36662" x1="92.6906" y1="289.227" x2="92.6906" y2="297.332" gradientUnits="userSpaceOnUse">
<stop stop-color="white" stop-opacity="0"/>
<stop offset="1" stop-color="white" stop-opacity="0.5"/>
</linearGradient>
</defs>
</svg>
