<svg width="563" height="556" viewBox="0 0 563 556" fill="none" xmlns="http://www.w3.org/2000/svg">
<rect width="563" height="556" fill="#603C93"/>
<path d="M422.429 260.729L21.226 28.9183C11.7926 23.468 0 30.2801 0 41.1837V504.803C0 515.706 11.7926 522.518 21.226 517.068L422.429 285.257C431.862 279.807 431.862 266.18 422.429 260.726V260.729Z" fill="url(#paint0_linear_459_11527)"/>
<path d="M33.7678 210.886C35.4465 214.921 37.6719 218.64 40.3311 221.971L36.427 230.162L44.3095 236.08L52.192 241.997L58.9603 235.952C62.9001 237.578 67.0894 238.672 71.4303 239.157L74.4549 247.706L84.2093 246.311L93.9636 244.917L94.4777 235.863C98.5095 234.183 102.226 231.955 105.554 229.294L113.74 233.201L119.652 225.313L125.565 217.424L119.525 210.654C121.15 206.711 122.243 202.516 122.728 198.174L131.27 195.147L129.876 185.386L128.483 175.624L119.435 175.11C117.757 171.075 115.531 167.355 112.872 164.025L116.776 155.833L108.894 149.916L101.011 143.999L94.2429 150.044C90.3032 148.417 86.1138 147.323 81.7729 146.838L78.7483 138.29L68.9939 139.684L59.2396 141.079L58.7256 150.133C54.6937 151.813 50.9768 154.04 47.6491 156.701L39.4635 152.794L33.5509 160.683L27.6382 168.571L33.6786 175.344C32.0534 179.287 30.96 183.48 30.4757 187.824L21.9336 190.851L23.3271 200.613L24.7206 210.374L33.7678 210.889V210.886ZM71.7244 158.791C90.6003 156.095 108.089 169.222 110.783 188.112C113.478 207.002 100.361 224.504 81.4847 227.201C62.6089 229.898 45.1206 216.77 42.4257 197.88C39.7309 178.99 52.8486 161.488 71.7244 158.791Z" fill="white"/>
<path d="M31.9097 114.928C32.6793 116.777 33.6984 118.484 34.9195 120.009L33.1309 123.765L36.7438 126.476L40.3568 129.188L43.4587 126.417C45.2651 127.163 47.1845 127.663 49.1752 127.886L50.5627 131.805L55.0343 131.165L59.506 130.526L59.7407 126.375C61.5887 125.605 63.2942 124.585 64.8184 123.363L68.571 125.153L71.2807 121.537L73.9904 117.922L71.2213 114.817C71.967 113.01 72.4692 111.086 72.689 109.097L76.605 107.708L75.9662 103.233L75.3274 98.758L71.1797 98.5231C70.4101 96.6737 69.391 94.9669 68.1699 93.4416L69.9585 89.6861L66.3456 86.9744L62.7326 84.2626L59.6307 87.0338C57.8243 86.2905 55.9019 85.788 53.9142 85.565L52.5267 81.646L48.0551 82.2853L43.5834 82.9246L43.3487 87.0755C41.5007 87.8456 39.7952 88.8655 38.271 90.0875L34.5184 88.2975L31.8087 91.9132L29.099 95.5289L31.8681 98.6332C31.1224 100.441 30.6232 102.365 30.4004 104.354L26.4844 105.743L27.1232 110.218L27.762 114.693L31.9097 114.928ZM49.3089 91.045C57.9639 89.808 65.9801 95.8262 67.2161 104.488C68.4521 113.149 62.4385 121.172 53.7835 122.409C45.1285 123.646 37.1122 117.627 35.8762 108.966C34.6402 100.304 40.6539 92.2819 49.3089 91.045Z" fill="white"/>
<path d="M335.896 230.24C335.896 230.24 360.028 222.393 361.989 223.267C363.95 224.144 364.215 225.527 361.983 226.359C359.752 227.189 338.844 234.643 338.844 234.643C338.844 234.643 368.666 230.344 370.436 230.683C371.473 230.882 372.139 233.522 370.98 234.081C369.818 234.64 340.416 240.674 340.416 240.674C340.416 240.674 368.261 236.71 369.643 237.465C370.852 238.125 370.879 240.739 368.826 241.182C366.773 241.625 341.057 246.834 341.057 246.834C341.057 246.834 361.437 245.285 362.215 246.668C362.691 247.512 363.368 249.76 358.106 249.989C352.844 250.215 340.419 252.124 340.419 252.124L335.899 230.246L335.896 230.24Z" fill="#EEA886"/>
<path d="M309.303 243.766C309.303 243.766 317.111 240.659 317.673 235.729C318.148 231.536 321.627 226.336 322.694 224.733C324.123 222.589 326.253 214.4 328.758 216.149C331.26 217.894 325.852 229.794 325.184 232.503C324.512 235.214 335.173 229.437 337.838 229.957C340.503 230.481 347.765 249.186 340.054 252.282C332.341 255.374 322.403 253.409 321.137 254.232C319.871 255.056 315.599 256.712 315.599 256.712L309.303 243.766Z" fill="#EEA886"/>
<path d="M215.166 383.972C215.341 386.231 215.529 388.384 215.704 390.308H103.955C103.997 388.423 104.05 386.285 104.089 383.972C104.466 365.325 105.016 334.762 104.775 323.219C104.466 306.74 100.999 263.92 100.312 261.443C100.312 261.443 75.7944 225.792 50.076 296.164C44.7665 310.665 93.4432 347.003 87.3939 348.118C81.3594 349.221 81.6001 360.722 81.6001 360.722C81.6001 360.722 35.7609 320.766 36.6998 308.997C37.2227 302.458 73.1174 207.454 78.6022 203.527C82.3399 200.836 105.809 191.419 117.976 186.804C123.609 184.651 127.897 183.159 128.785 183.105C131.569 182.93 165.901 186.227 165.901 186.227C165.901 186.227 170.821 187.91 175.863 190.223C184.453 194.166 197.841 200.339 207.441 204.915C210.546 206.396 214.432 208.385 217.659 210.095C217.27 221.771 216.571 234.296 215.588 247.682C215.588 247.682 213.799 276.917 213.639 306.446C212.094 313.133 212.361 328.669 212.361 328.669C211.93 343.399 213.57 358.522 214.001 366.97C214.269 372.256 214.714 378.444 215.172 383.975L215.166 383.972Z" fill="#DBD8E3"/>
<path d="M219.994 383.972C218.381 373.52 216.848 362.634 215.585 352.221V352.141C215.383 350.446 215.181 348.763 214.979 347.095C214.979 347.015 214.964 346.92 214.952 346.84C214.147 339.79 213.487 333.049 213.003 326.876C212.641 322.139 212.962 317.528 213.621 312.993C215.529 281.418 216.485 248.122 216.485 248.122C217.493 234.48 218.072 221.754 218.461 209.875C218.461 209.875 175.35 189.495 171.439 188.323C171.439 188.323 179.613 207.535 185.743 250.489C188.108 266.982 192.478 294.748 195.649 323.094C196.899 334.274 198.955 345.588 200.919 356.242C202.773 366.292 204.55 375.762 205.504 383.969C205.572 384.465 205.626 384.965 205.679 385.461C205.828 386.874 206.003 388.503 206.202 390.305H220.99C220.654 388.221 220.318 386.095 219.994 383.969V383.972Z" fill="#323657"/>
<path d="M144.055 333.739C142.091 352.786 139.943 368.207 138.208 383.972C137.979 386.071 137.75 388.182 137.536 390.308H92.193C92.7843 388.209 93.3636 386.098 93.9133 383.972C98.7801 365.608 102.663 346.869 102.663 335.502C102.663 335.502 93.227 267.592 90.0686 256.653C90.0686 256.653 61.5306 277.773 54.8632 292.396C48.8942 305.473 92.6238 345.415 92.1128 346.759C89.1416 354.63 77.7561 369.009 77.7561 369.009C77.7561 369.009 10.0461 296.229 10.9464 287.255C11.5911 280.731 68.3613 208.192 73.8312 204.264C77.0044 201.989 100.447 193.676 111.954 189.129C114.064 188.297 120.921 185.713 122.802 184.999C125.235 187.717 142.388 206.188 148.33 276.384C149.338 288.222 146.179 313.273 144.055 333.736V333.739Z" fill="#323657"/>
<path d="M131.951 186.759C131.951 186.759 131.716 174.964 127.173 151.102C125.958 144.715 164.229 167.911 164.229 167.911C164.229 167.911 164.11 170.147 164.033 173.171C163.992 174.768 163.968 176.578 163.977 178.395C163.983 179.037 163.986 179.674 164.003 180.304C164.039 181.993 164.116 183.608 164.259 184.984C164.402 186.4 165.239 188.9 165.537 189.587C167.114 193.23 144.839 195.995 131.951 186.765V186.759Z" fill="#EEA987"/>
<path d="M155.839 199.117L162.182 207.648C162.182 207.648 158.465 212.628 151.863 208.95L155.836 199.117H155.839Z" fill="#D44040"/>
<path d="M160.486 207.996C160.486 207.996 184.547 300.704 179.588 372.866L171.492 387.144L163.915 372.188C163.915 372.188 161.838 243.106 155.242 207.77L160.486 207.996Z" fill="#D44040"/>
<path d="M162.631 191.166L155.839 199.12C155.839 199.12 144.938 197.006 141.738 191.309C138.538 185.609 162.634 191.169 162.634 191.169L162.631 191.166Z" fill="#EEA987"/>
<path d="M164.192 184.205C164.192 184.205 163.401 190.268 155.84 199.117L164.094 210.214L168.559 187.194L164.189 184.205H164.192Z" fill="#C4C1CC"/>
<path d="M131.323 178.437C131.323 178.437 144.815 194.755 155.838 199.117L150.71 211.805L125.057 184.202L131.323 178.434V178.437Z" fill="#C4C1CC"/>
<path d="M329.582 257.007C329.582 257.007 271.43 320.23 257.71 316.853C251.366 315.292 241.757 304.331 233.815 294.029C231.198 290.636 228.631 287.074 226.188 283.55C226.182 283.544 226.182 283.535 226.182 283.535C216.44 269.459 208.807 255.969 208.807 255.969C208.807 255.969 180.013 222.2 203.12 207.145C203.12 207.145 212.857 206.161 218.398 210.249C223.511 214.026 235.955 237.798 237.975 242.205C239.995 246.605 255.707 277.678 257.175 278.597C258.639 279.515 274.072 270.247 282.323 264.69C295.651 255.71 312.4 240.061 312.4 240.061L329.588 257.007H329.582Z" fill="#323657"/>
<path d="M184.382 109.189C184.382 109.189 192.79 124.79 188.621 127.214C185.178 129.218 192.656 144.528 193.634 147.029C194.611 149.529 187.397 151.346 185.864 152.958C184.331 154.566 179.788 174.375 173.846 174.973C167.903 175.57 141.127 166.252 133.836 158.664C126.545 151.075 120.564 116.81 125.428 102.353C130.294 87.8991 169.541 81.9344 184.379 109.186L184.382 109.189Z" fill="#EEA886"/>
<path d="M186.06 112.57C186.06 112.57 194.644 95.7222 179.054 83.2249C163.465 70.7276 134.719 92.6625 131.477 93.4981C128.238 94.3336 109.853 95.5973 119.135 127.901C127.106 155.637 128.218 156.805 128.218 156.805C128.218 156.805 134.166 140.737 137.538 138.287C142.803 134.463 154.343 135.382 154.343 135.382C154.343 135.382 148.843 120.77 157.439 118.701C166.035 116.631 177.364 109.34 186.06 112.573V112.57Z" fill="#16202E"/>
<path d="M145.188 127.012C144.431 125.007 141.979 116.393 134.593 121.451C127.207 126.509 139.195 142.747 140.482 142.955C141.768 143.166 151.567 143.877 145.188 127.012Z" fill="#EEA886"/>
<path d="M163.978 178.392C163.984 179.034 163.987 179.671 164.004 180.301C142.113 172.948 137.873 161.881 137.873 161.881C144.701 166.713 164.034 173.168 164.034 173.168C163.993 174.765 163.969 176.575 163.978 178.392Z" fill="#A77860"/>
<path d="M84.2092 346.524C84.2092 346.524 86.2801 348.261 88.4758 348.243C92.267 348.21 96.5811 344.089 100.542 347.833C104.502 351.576 96.1622 367.505 93.1584 369.369C90.1545 371.237 83.3267 367.882 76.0206 359.045C68.7145 350.208 84.2062 346.524 84.2062 346.524H84.2092Z" fill="#EEA886"/>
<path d="M99.0258 346.768C99.0258 346.768 106.691 349.403 114.862 353.393C122.029 356.893 130.44 362.239 129.581 364.056C128.28 366.815 121.886 361.641 114.544 358.653C107.788 355.903 108.655 357.591 108.655 357.591C108.655 357.591 108.436 357.098 115.213 361.543C122.501 366.324 130.128 371.766 129.457 373.267C128.622 375.129 128.36 375.289 125.431 373.99C126.955 375.102 126.866 375.682 126.462 376.369C124.37 379.928 112.562 374.59 107.874 372.47C111.466 374.121 113.923 375.723 111.237 377.073C108.165 378.616 91.8148 370.309 85.6704 367.903C78.9704 365.281 99.0288 346.765 99.0288 346.765L99.0258 346.768Z" fill="#EEA886"/>
<path d="M92.1144 346.768C92.1144 346.768 90.4476 356.53 77.7607 369.015C77.7607 369.015 48.6759 336.905 43.4883 330.896L66.2445 317.682L92.1144 346.768Z" fill="#323657"/>
<path d="M426.79 383.972H26.6387V390.308H426.79V383.972Z" fill="white"/>
<path d="M221.539 128.284H237.334C240.204 128.284 242.534 130.615 242.534 133.488V149.294C242.534 152.167 240.204 154.498 237.334 154.498H221.539C218.669 154.498 216.34 152.167 216.34 149.294V133.488C216.34 130.615 218.669 128.284 221.539 128.284Z" fill="#4CA1F4"/>
<g opacity="0.69">
<path opacity="0.72" d="M255.036 93.5635H340.264C341.755 93.5635 342.968 94.7767 342.968 96.2693V98.996C342.968 100.489 341.755 101.702 340.264 101.702H255.036C253.544 101.702 252.332 100.489 252.332 98.996V96.2664C252.332 94.7737 253.544 93.5605 255.036 93.5605V93.5635Z" fill="#D9D9D9"/>
<path opacity="0.72" d="M255.036 106.727H352.9C354.392 106.727 355.604 107.94 355.604 109.433V112.162C355.604 113.655 354.392 114.868 352.9 114.868H255.036C253.544 114.868 252.332 113.655 252.332 112.162V109.436C252.332 107.943 253.544 106.73 255.036 106.73V106.727Z" fill="#D9D9D9"/>
</g>
<path d="M221.539 91.1104H237.334C240.204 91.1104 242.534 93.4416 242.534 96.3139V112.121C242.534 114.993 240.204 117.324 237.334 117.324H221.539C218.669 117.324 216.34 114.993 216.34 112.121V96.3139C216.34 93.4416 218.669 91.1104 221.539 91.1104Z" fill="#4CA1F4"/>
<g opacity="0.69">
<path opacity="0.72" d="M318.112 130.74H254.674C253.38 130.74 252.33 131.791 252.33 133.086V136.535C252.33 137.831 253.38 138.881 254.674 138.881H318.112C319.406 138.881 320.456 137.831 320.456 136.535V133.086C320.456 131.791 319.406 130.74 318.112 130.74Z" fill="#D9D9D9"/>
<path opacity="0.72" d="M254.768 143.904H333.689C335.035 143.904 336.125 144.995 336.125 146.342V149.607C336.125 150.953 335.035 152.045 333.689 152.045H254.768C253.422 152.045 252.332 150.953 252.332 149.607V146.342C252.332 144.995 253.422 143.904 254.768 143.904Z" fill="#D9D9D9"/>
</g>
<g opacity="0.69">
<path opacity="0.72" d="M348.346 167.914H255.156C253.595 167.914 252.33 169.18 252.33 170.742V173.227C252.33 174.789 253.595 176.055 255.156 176.055H348.346C349.907 176.055 351.172 174.789 351.172 173.227V170.742C351.172 169.18 349.907 167.914 348.346 167.914Z" fill="#D9D9D9"/>
<path opacity="0.72" d="M254.864 181.077H340.434C341.834 181.077 342.969 182.213 342.969 183.614V186.682C342.969 188.083 341.834 189.218 340.434 189.218H254.864C253.465 189.218 252.33 188.083 252.33 186.682V183.611C252.33 182.21 253.465 181.074 254.864 181.074V181.077Z" fill="#D9D9D9"/>
</g>
<path d="M221.539 165.461H237.334C240.204 165.461 242.534 167.792 242.534 170.664V186.471C242.534 189.343 240.204 191.674 237.334 191.674H221.539C218.669 191.674 216.34 189.343 216.34 186.471V170.664C216.34 167.792 218.669 165.461 221.539 165.461Z" fill="#4CA1F4"/>
<path d="M228.541 147.727L221.274 141.406C220.677 140.888 220.614 139.985 221.131 139.387C221.648 138.789 222.551 138.727 223.149 139.244L228.289 143.713L235.595 135.53C236.121 134.942 237.024 134.891 237.612 135.417C238.201 135.944 238.251 136.848 237.725 137.436L228.541 147.724V147.727Z" fill="white"/>
<path d="M228.541 184.904L221.274 178.583C220.677 178.065 220.614 177.161 221.131 176.564C221.648 175.966 222.551 175.903 223.149 176.421L228.289 180.89L235.595 172.707C236.121 172.118 237.024 172.068 237.612 172.594C238.201 173.12 238.251 174.024 237.725 174.613L228.541 184.901V184.904Z" fill="white"/>
<path d="M228.948 107.414L228.903 106.837C228.77 105.639 229.168 104.33 230.276 103.001C231.274 101.827 231.827 100.961 231.827 99.9623C231.827 98.8324 231.117 98.0771 229.72 98.0563C228.921 98.0563 228.036 98.3239 227.483 98.7432L226.951 97.3457C227.682 96.8134 228.945 96.4596 230.121 96.4596C232.671 96.4596 233.823 98.0355 233.823 99.7185C233.823 101.226 232.983 102.314 231.919 103.578C230.944 104.732 230.588 105.707 230.656 106.837L230.677 107.414H228.948ZM228.461 110.518C228.461 109.697 229.013 109.12 229.792 109.12C230.57 109.12 231.099 109.697 231.099 110.518C231.099 111.294 230.588 111.892 229.771 111.892C228.995 111.892 228.463 111.294 228.463 110.518H228.461Z" fill="white"/>
<path d="M406.825 313.603H422.619C425.489 313.603 427.819 315.934 427.819 318.806V334.613C427.819 337.485 425.489 339.816 422.619 339.816H406.825C403.954 339.816 401.625 337.485 401.625 334.613V318.806C401.625 315.934 403.954 313.603 406.825 313.603Z" fill="#4CA1F4"/>
<g opacity="0.69">
<path opacity="0.72" d="M440.321 278.885H525.549C527.04 278.885 528.253 280.098 528.253 281.591V284.32C528.253 285.813 527.04 287.026 525.549 287.026H440.321C438.829 287.026 437.617 285.813 437.617 284.32V281.594C437.617 280.101 438.829 278.888 440.321 278.888V278.885Z" fill="#D9D9D9"/>
<path opacity="0.72" d="M440.321 292.048H538.185C539.677 292.048 540.889 293.261 540.889 294.754V297.484C540.889 298.976 539.677 300.19 538.185 300.19H440.321C438.829 300.19 437.617 298.976 437.617 297.484V294.754C437.617 293.261 438.829 292.048 440.321 292.048Z" fill="#D9D9D9"/>
</g>
<path d="M422.619 276.429H406.825C403.953 276.429 401.625 278.759 401.625 281.632V297.439C401.625 300.313 403.953 302.643 406.825 302.643H422.619C425.491 302.643 427.819 300.313 427.819 297.439V281.632C427.819 278.759 425.491 276.429 422.619 276.429Z" fill="#4CA1F4"/>
<g opacity="0.69">
<path opacity="0.72" d="M439.961 316.059H503.396C504.691 316.059 505.74 317.111 505.74 318.405V321.854C505.74 323.15 504.688 324.2 503.396 324.2H439.961C438.666 324.2 437.617 323.147 437.617 321.854V318.405C437.617 317.108 438.669 316.059 439.961 316.059Z" fill="#D9D9D9"/>
<path opacity="0.72" d="M518.974 329.222H440.054C438.708 329.222 437.617 330.314 437.617 331.66V334.925C437.617 336.272 438.708 337.363 440.054 337.363H518.974C520.319 337.363 521.41 336.272 521.41 334.925V331.66C521.41 330.314 520.319 329.222 518.974 329.222Z" fill="#D9D9D9"/>
</g>
<path d="M413.828 333.046L406.561 326.724C405.964 326.207 405.901 325.303 406.418 324.705C406.935 324.108 407.839 324.045 408.436 324.563L413.576 329.032L420.882 320.849C421.408 320.26 422.311 320.21 422.899 320.736C423.488 321.262 423.538 322.166 423.012 322.755L413.828 333.043V333.046Z" fill="white"/>
<path d="M318.915 448.593C320.125 453.841 319.917 466.035 319.917 466.035C320.246 477.602 318.957 489.478 318.627 496.111C318.618 496.316 318.603 496.522 318.597 496.73C318.511 498.297 318.41 499.956 318.294 501.636H404.749C404.72 500.042 404.687 498.401 404.66 496.73C404.488 486.938 404.33 476.213 404.318 468.557C424.077 463.335 445.413 456.52 445.012 451.537C444.602 446.408 429.211 370.892 424.906 367.808C421.97 365.7 403.546 358.311 393.991 354.68C389.573 352.995 386.203 351.82 385.514 351.781C383.327 351.645 356.376 354.228 356.376 354.228C356.376 354.228 352.507 355.555 348.562 357.368C341.82 360.464 331.311 365.304 323.767 368.899C321.331 370.056 318.285 371.626 315.754 372.97C316.06 382.134 316.604 391.961 317.382 402.466C317.382 402.466 318.782 425.415 318.915 448.593ZM404.574 457.329C405.638 442.952 409.97 418.255 410.451 416.507C410.463 416.507 412.483 418.434 412.495 418.434C412.495 418.425 413.161 418.526 413.17 418.517C413.179 418.49 413.782 418.749 413.782 418.749C413.782 418.749 426.864 437.035 427.006 446.868C427.078 451.558 416.857 454.915 404.571 457.332L404.574 457.329Z" fill="#DBD8E3"/>
<path d="M315.083 501.636H326.409C326.668 500.039 326.947 498.401 327.241 496.73C329.16 485.907 331.686 473.677 333.032 461.673C335.522 439.423 338.947 417.625 340.798 404.676C345.612 370.96 352.033 355.876 352.033 355.876C348.966 356.792 315.125 372.798 315.125 372.798C315.428 382.116 315.879 392.116 316.67 402.814C316.67 402.814 317.415 428.954 318.919 453.743C319.43 457.293 319.688 460.924 319.403 464.638C319.026 469.487 318.5 474.78 317.87 480.302C317.861 480.376 317.858 480.447 317.846 480.51C317.695 481.821 317.534 483.138 317.38 484.473C317.38 484.497 317.371 484.509 317.371 484.53C316.887 488.538 316.349 492.629 315.778 496.727C315.552 498.365 315.321 500.001 315.08 501.633L315.083 501.636Z" fill="#323657"/>
<path d="M347.479 464.34C350.052 470.418 358.921 485.422 358.921 485.422C358.921 485.422 365.339 483.846 374.781 481.402C375.402 486.763 376.029 491.806 376.629 496.73C376.828 498.377 377.03 500.009 377.22 501.636H410.902C410.5 499.986 410.12 498.347 409.761 496.73C407.702 487.601 406.258 479.109 406.05 472.913C428.634 466.457 450.772 459.226 450.43 455.765C449.919 450.645 432.957 371.477 428.654 368.394C426.173 366.61 407.764 360.08 398.732 356.518C397.083 355.864 391.446 353.747 389.967 353.182C388.05 355.317 374.843 369.904 370.179 425.011C369.599 431.865 370.8 444.374 372.134 456.91C358.46 460.561 347.045 463.305 347.485 464.343L347.479 464.34ZM409.065 444.674C410.426 433.696 411.968 422.65 413.082 418.784C413.082 418.784 416.891 426.477 416.594 437.758C416.538 440.035 413.638 442.37 409.065 444.674Z" fill="#323657"/>
<path d="M386.931 352.644C386.931 352.644 383.502 346.162 384.45 327.759C384.712 322.663 357.692 339.849 357.692 339.849C357.692 339.849 357.784 341.606 357.843 343.976C357.876 344.963 357.891 346.046 357.891 347.158C357.891 347.464 357.888 347.77 357.888 348.079C357.882 348.582 357.879 349.081 357.87 349.578C357.858 350.197 357.835 350.8 357.805 351.383C357.775 352.046 357.731 352.673 357.668 353.247C357.555 354.359 356.905 356.322 356.667 356.86C355.428 359.72 376.817 359.884 386.934 352.644H386.931Z" fill="#EEA987"/>
<path d="M364.277 364.35L359.297 371.046C359.297 371.046 362.215 374.956 367.396 372.069L364.277 364.35Z" fill="#E8734D"/>
<path d="M360.627 371.317C360.627 371.317 342.381 415.912 346.276 472.559L352.031 483.01L358.52 474.111C358.52 474.111 359.569 398.88 364.748 371.141L360.63 371.32L360.627 371.317Z" fill="#E8734D"/>
<path d="M358.945 358.106L364.279 364.347C364.279 364.347 372.836 362.688 375.349 358.216C377.863 353.744 358.948 358.106 358.948 358.106H358.945Z" fill="#EEA987"/>
<path d="M357.723 352.644C357.723 352.644 358.344 357.401 364.277 364.35L357.797 373.062L354.291 354.99L357.72 352.644H357.723Z" fill="#C4C1CC"/>
<path d="M385.302 346.92C385.302 346.92 372.93 360.928 364.275 364.35L368.298 374.311L388.045 352.51L385.299 346.92H385.302Z" fill="#C4C1CC"/>
<path d="M258.098 473.635C258.098 473.635 274.523 457.695 285.294 455.042C290.273 453.817 296.834 446.937 303.064 438.849C305.12 436.185 307.135 433.39 309.051 430.625C309.057 430.619 309.057 430.613 309.057 430.613C316.705 419.564 322.698 408.972 322.698 408.972C322.698 408.972 345.299 382.464 327.163 370.648C327.163 370.648 319.388 370.478 315.127 372.798C310.742 375.179 301.391 394.712 299.805 398.17C298.221 401.625 281.045 433.75 279.892 434.472C278.742 435.195 276.826 437.835 269.953 441.54C261.539 446.075 248.32 459.345 248.32 459.345L258.098 473.638V473.635Z" fill="#323657"/>
<path d="M336.939 492.085C336.939 492.085 339.233 491.993 340.217 491.464C340.217 491.464 341.934 490.361 343.2 489.653C343.604 489.43 343.957 489.243 344.201 489.148C345.214 488.746 347.558 488.166 349.718 486.516C351.878 484.869 358.92 478.277 358.92 478.277L354.368 471.277L352.268 464.346C352.268 464.346 335.852 465.979 333.662 467.281C333.448 467.409 333.243 467.543 333.059 467.685C331.312 468.967 330.551 470.656 329.711 471.435C329.405 471.723 326.543 474.786 326.704 476.029C326.924 477.753 327.776 478.859 328.843 479.383C328.843 479.383 329.422 482.74 331.158 484.241C331.158 484.241 331.591 487.357 334.28 488.609C334.28 488.609 335.077 491.72 336.939 492.091V492.085Z" fill="#EFAA88"/>
<path d="M363.075 280.282C363.075 280.282 333.405 273.125 339.654 310.718C345.905 348.311 353.021 351.362 371.095 343.866C389.168 336.37 387.911 312.327 388.99 300.561C390.065 288.795 372.565 280.833 363.075 280.282Z" fill="#EEA886"/>
<path d="M378.663 306.318C379.103 303.017 385.654 301.899 386.109 306.865C386.563 311.833 382.938 320.483 380.472 319.591C378.006 318.699 378.057 310.87 378.663 306.315V306.318Z" fill="#EEA886"/>
<path d="M387.26 319.778C387.26 319.778 386.666 307.953 382.358 307.522C378.053 307.091 377.319 311.836 377.319 311.836L372.951 312.595C372.951 312.595 374.478 302.262 370.2 300.389C365.921 298.515 342.223 305.678 338.812 302.589C335.402 299.5 337.336 278.522 343.629 275.739C349.922 272.956 367.276 266.771 379.797 275.522C379.797 275.522 389.67 274.541 391.016 282.524C392.362 290.508 390.027 313.897 387.257 319.778H387.26Z" fill="#16202E"/>
<path d="M346.665 464.34L358.915 485.419C358.915 485.419 391.369 477.052 398.94 474.914L381.63 454.296C381.63 454.296 356.107 460.13 346.662 464.343L346.665 464.34Z" fill="#323657"/>
<path d="M357.801 351.386H357.807C373.72 349.762 379.888 337.503 379.888 337.503C369.879 347.431 357.89 347.161 357.89 347.161C357.89 347.467 357.887 347.773 357.887 348.082C357.881 348.585 357.878 349.084 357.869 349.581C357.857 350.2 357.833 350.803 357.804 351.386H357.801Z" fill="#A77860"/>
<path d="M334.595 418.193L343.25 498.722H229.333L220.678 418.193H334.595Z" fill="#FFC955"/>
<path d="M352.316 491.476H333.289V498.722H352.316V491.476Z" fill="#FFC955"/>
<path d="M431.977 498.552H122.357V503.459H431.977V498.552Z" fill="url(#paint1_linear_459_11527)"/>
<path d="M288.292 457.162C289.207 461.646 287.119 465.86 283.624 466.573C280.13 467.287 276.556 464.233 275.641 459.749C274.726 455.265 276.814 451.052 280.309 450.338C283.803 449.625 287.377 452.679 288.292 457.162Z" fill="#CFA345"/>
<path d="M46.8081 309.927H149.322C154.246 309.927 158.242 313.927 158.242 318.854V417.455C158.242 422.382 154.246 426.382 149.322 426.382H46.8081C41.8849 426.382 37.8887 422.382 37.8887 417.455V318.854C37.8887 313.927 41.8849 309.927 46.8081 309.927Z" fill="#E0E0E0"/>
<path d="M49.0439 412.957L48.209 412.074L69.7856 391.697L91.6207 396.433L112.481 372.628L130.674 373.657L144.84 354.098L145.824 354.811L131.268 374.909L113.004 373.877L92.0634 397.774L70.154 393.023L49.0439 412.957Z" fill="#377B93"/>
<path d="M95.0107 396.418C95.388 398.17 94.2768 399.897 92.5298 400.275C90.7797 400.653 89.0535 399.541 88.6762 397.792C88.2959 396.041 89.4071 394.313 91.1571 393.936C92.9071 393.555 94.6334 394.667 95.0107 396.418Z" fill="#E6E6E6"/>
<path d="M92.6591 400.87C90.5853 401.319 88.5322 399.995 88.0835 397.92C87.6349 395.845 88.9571 393.79 91.0309 393.341C93.1048 392.892 95.1579 394.215 95.6065 396.291C96.0552 398.366 94.733 400.421 92.6591 400.87ZM91.2864 394.527C89.8662 394.834 88.963 396.24 89.269 397.661C89.5751 399.083 90.9804 399.987 92.4006 399.68C93.8209 399.374 94.7241 397.968 94.4181 396.546C94.112 395.125 92.7067 394.221 91.2864 394.527Z" fill="#377B93"/>
<path d="M115.903 372.771C116.284 374.522 115.169 376.25 113.422 376.627C111.672 377.008 109.946 375.896 109.569 374.145C109.188 372.393 110.3 370.666 112.05 370.288C113.8 369.907 115.526 371.019 115.903 372.771Z" fill="#E6E6E6"/>
<path d="M113.552 377.222C111.478 377.671 109.425 376.348 108.976 374.272C108.527 372.197 109.85 370.142 111.924 369.693C113.997 369.244 116.05 370.568 116.499 372.643C116.948 374.718 115.626 376.773 113.552 377.222ZM112.179 370.88C110.759 371.186 109.856 372.592 110.162 374.014C110.468 375.435 111.873 376.339 113.293 376.033C114.713 375.726 115.617 374.32 115.311 372.899C115.005 371.477 113.599 370.573 112.179 370.88Z" fill="#377B93"/>
<path d="M133.963 373.493C134.343 375.245 133.232 376.972 131.482 377.35C129.732 377.73 128.006 376.618 127.628 374.867C127.251 373.116 128.362 371.388 130.109 371.011C131.859 370.63 133.585 371.742 133.963 373.493Z" fill="#E6E6E6"/>
<path d="M131.61 377.948C129.536 378.397 127.483 377.073 127.035 374.998C126.586 372.922 127.908 370.868 129.982 370.419C132.056 369.97 134.109 371.293 134.558 373.368C135.006 375.444 133.684 377.499 131.61 377.948ZM130.238 371.605C128.817 371.911 127.914 373.318 128.22 374.739C128.526 376.161 129.932 377.064 131.352 376.758C132.772 376.452 133.675 375.045 133.369 373.624C133.063 372.203 131.658 371.299 130.238 371.605Z" fill="#377B93"/>
<path d="M73.119 391.973C73.4993 393.724 72.3881 395.452 70.6381 395.83C68.8881 396.207 67.1619 395.095 66.7845 393.347C66.4072 391.596 67.5184 389.868 69.2654 389.49C71.0155 389.11 72.7417 390.222 73.119 391.973Z" fill="#E6E6E6"/>
<path d="M70.7646 396.424C68.6907 396.873 66.6377 395.55 66.189 393.475C65.7404 391.399 67.0625 389.345 69.1364 388.896C71.2103 388.447 73.2633 389.77 73.712 391.845C74.1606 393.921 72.8385 395.975 70.7646 396.424ZM69.3919 390.082C67.9717 390.388 67.0685 391.795 67.3745 393.216C67.6805 394.637 69.0859 395.541 70.5061 395.235C71.9263 394.929 72.8296 393.522 72.5235 392.101C72.2175 390.68 70.8121 389.776 69.3919 390.082Z" fill="#377B93"/>
<path d="M79.9802 404.72H66.7109V407.277H79.9802V404.72Z" fill="white"/>
<path d="M89.2106 378.474H75.9414V381.031H89.2106V378.474Z" fill="white"/>
<path d="M116.736 396.763H103.467V399.32H116.736V396.763Z" fill="white"/>
<path d="M128.64 360.847H115.371V363.405H128.64V360.847Z" fill="white"/>
<path d="M147.914 382.25H134.645V384.807H147.914V382.25Z" fill="white"/>
<path d="M94.0046 318.83H46.7422V323.471H94.0046V318.83Z" fill="#4E8C63"/>
<path d="M94.0046 331.318H46.7422V335.96H94.0046V331.318Z" fill="white"/>
<path d="M94.0046 343.807H46.7422V348.448H94.0046V343.807Z" fill="white"/>
<path d="M111.541 318.83H103.652V323.471H111.541V318.83Z" fill="#4E8C63"/>
<path d="M111.541 331.318H103.652V335.96H111.541V331.318Z" fill="white"/>
<path d="M111.541 343.807H103.652V348.448H111.541V343.807Z" fill="white"/>
<path d="M236.405 380.847C236.405 380.847 230.201 366.782 237.397 367.945C237.397 367.945 239.849 369.973 242.362 374.1C244.267 377.228 248.227 385.506 248.079 388.307C247.933 391.105 245.943 393.195 243.794 397.691C243.794 397.691 239.329 406.037 239.139 407.042L234.417 404.589C234.417 404.589 238.42 396.609 241.239 389.594L236.405 380.847Z" fill="#DBD8E3"/>
<path d="M275.526 406.831L180.473 390.639L177.722 406.811L272.775 423.003L275.526 406.831Z" fill="#E8734D"/>
<path d="M180.146 392.58L175.07 391.716L172.982 403.992L178.058 404.857L180.146 392.58Z" fill="#2D3038"/>
<path d="M200.495 500.007H199.325C199.325 500.007 199.714 495.582 198.632 495.537C197.551 495.493 194.862 499.138 193.258 499.7C191.653 500.265 183.42 500.741 183.375 499.222C183.331 497.705 186.54 497.096 187.535 496.661C188.53 496.227 193.385 491.5 194.253 490.938C195.12 490.373 196.6 486.454 196.6 486.454L201.197 486.249C201.197 486.249 201.455 489.912 201.734 491.853C201.838 492.57 201.913 493.224 201.924 493.67C201.969 495.317 200.495 500.004 200.495 500.004V500.007Z" fill="#EEA886"/>
<path d="M230.108 499.129H229.134V495.011C228.323 495.08 225.589 497.666 224.745 498.416C223.901 499.162 222.743 499.129 219.18 499.355C215.621 499.581 215.285 497.449 215.85 496.724C216.414 495.998 218.232 495.68 219.18 495.228C220.128 494.773 223.866 490.554 224.864 489.558C225.859 488.559 226.469 485.701 226.469 485.701L230.628 486.064C230.628 486.064 230.601 488.681 231.077 490.872C231.077 490.872 231.08 490.884 231.08 490.89C231.121 491.077 231.166 491.262 231.214 491.44C231.832 493.721 230.108 499.132 230.108 499.132V499.129Z" fill="#EEA886"/>
<path d="M214.724 405.791C214.724 405.791 213.153 409.51 213.013 410.453C212.873 411.393 209.192 420.298 208.128 426.301C207.489 429.896 205.731 441.145 205.588 442.575C205.344 445.022 204.191 450.428 204.016 452.928C203.918 454.326 197.037 475.782 195.373 486.986C195.373 486.986 199.331 487.572 202.302 486.787C202.302 486.787 208.342 475.208 211.694 458.786C213.714 448.896 215.5 443.621 217.066 439.548C218.631 435.474 227.491 423.937 228.418 422.641C229.342 421.345 235.139 414.182 229.651 406.421C224.164 398.66 214.727 405.791 214.727 405.791H214.724Z" fill="#323657"/>
<path d="M234.538 438.751C234.036 442.093 234.565 446.482 235.614 458.697C236.662 470.912 233.777 485.701 233.777 485.701C230.156 486.941 225.981 485.701 225.981 485.701C226.076 484.842 225.981 455.929 225.981 453.354C225.981 450.779 225.241 447.853 225.051 444.894C224.92 442.878 223.984 439.164 222.93 435.37C222.615 434.234 222.288 433.093 221.97 431.987C221.792 431.365 221.616 430.756 221.447 430.167C219.961 425.014 217.965 405.116 217.965 405.116C217.965 405.116 229.032 396.195 234.419 404.592C239.806 412.989 237.04 419.097 236.85 420.146C236.659 421.196 235.037 435.415 234.535 438.754L234.538 438.751Z" fill="#323657"/>
<path d="M229.946 420.806C229.86 420.997 224.346 433.244 222.928 435.37C222.613 434.234 222.287 433.093 221.969 431.987C221.969 431.987 229.762 421.077 229.946 420.809V420.806Z" fill="#131521"/>
<path d="M230.108 499.129H229.134V495.011C228.323 495.08 225.589 497.666 224.745 498.416C223.901 499.162 222.743 499.129 219.18 499.355C215.621 499.581 215.285 497.449 215.85 496.724C216.414 495.998 218.232 495.68 219.18 495.228C222.989 495.43 227.636 490.075 229.865 490.084C231.05 490.09 231.038 490.747 231.074 490.872C231.074 490.872 231.077 490.884 231.077 490.89C231.118 491.077 231.163 491.262 231.211 491.44C231.829 493.721 230.105 499.132 230.105 499.132L230.108 499.129Z" fill="#C6C9CC"/>
<path d="M200.495 500.007H199.325C199.325 500.007 199.714 495.582 198.632 495.537C197.551 495.493 194.862 499.138 193.258 499.7C191.653 500.265 183.42 500.741 183.375 499.222C183.331 497.705 186.54 497.096 187.535 496.661C190.931 496.653 196.455 492.912 198.169 492.154C199.88 491.396 201.734 491.85 201.734 491.85C201.838 492.567 201.913 493.221 201.924 493.667C201.969 495.314 200.495 500.001 200.495 500.001V500.007Z" fill="#C6C9CC"/>
<path d="M224.494 359.081C224.494 359.081 226.259 363.755 224.886 367.371C224.886 367.371 231.36 366.949 231.607 366.194C231.854 365.438 231.346 358.433 232.237 356.361C233.128 354.288 224.494 359.081 224.494 359.081Z" fill="#EEA886"/>
<path d="M223.87 365.789C223.87 365.789 220.043 367.151 218.314 367.529C216.585 367.906 212.969 369.622 213.263 376.077C213.557 382.533 214.636 388.132 215.028 390.906C215.42 393.68 215.176 400.739 214.538 404.17C214.538 404.17 223.71 406.489 234.501 404.17C234.501 404.17 232.588 398.321 232.638 396.808C232.689 395.294 239.014 382.839 239.308 380.87C239.602 378.902 240.877 370.229 237.983 368.314C235.089 366.399 232.736 366.649 231.509 365.792C230.282 364.936 225.659 365.177 223.87 365.792V365.789Z" fill="#DBD8E3"/>
<path d="M238.63 414.313C222.96 418.472 210.49 414.327 210.49 414.327C211.628 411.987 212.463 409.656 213.069 407.393C213.497 405.797 213.812 404.236 214.035 402.74C215.309 394.194 213.649 387.653 213.649 387.653C215.458 372.756 237.982 368.308 239.786 373.03C241.589 377.751 236.289 398.048 236.022 399.787C235.754 401.527 238.63 414.31 238.63 414.31V414.313Z" fill="#DBD8E3"/>
<path d="M230.139 340.322C227.536 339.43 220.5 338.475 218.697 349.284C216.893 360.092 220.821 360.277 224.853 359.97C228.885 359.664 235.193 352.367 235.677 350.149C236.161 347.931 237.564 342.87 230.139 340.322Z" fill="#EEA886"/>
<path d="M220.148 344.473C220.148 344.473 222.297 349.073 225.116 350.678C225.116 350.678 226.881 355.567 230.705 357.544C230.705 357.544 240.855 350.815 234.966 342.822C229.077 334.827 220.811 341.193 220.148 344.476V344.473Z" fill="#16202E"/>
<path d="M224.867 349.085C225.096 348.523 226.617 347.607 227.298 349.15C227.978 350.693 225.53 353.411 224.858 353.265C224.187 353.12 224 351.219 224.864 349.085H224.867Z" fill="#EEA886"/>
<path d="M234.623 344.057C234.846 343.712 241.566 340.595 242.963 347.101C244.362 353.607 237.549 361.172 236.358 364.424C235.164 367.677 236.896 375.301 236.896 375.301C236.896 375.301 232.799 371.424 231.56 367.368C230.199 362.911 229.741 351.677 234.623 344.057Z" fill="#16202E"/>
<path d="M234.962 343.836C234.962 343.836 232.906 345.466 232.639 348.035C232.639 348.035 232.252 346.031 233.081 344.806C233.91 343.581 234.959 343.836 234.959 343.836H234.962Z" fill="#E54242"/>
<path d="M213.072 407.393C213.5 405.797 213.815 404.239 214.038 402.743L214.228 401.31C214.228 401.31 215.072 400.546 215.419 399.493C215.77 398.443 218.364 385.527 218.364 385.527C218.364 385.527 221.109 397.655 213.075 407.393H213.072Z" fill="#1D3B54"/>
<path d="M201.536 408.143C201.536 408.143 199.515 410.15 198.862 410.352C198.208 410.554 196.948 409.442 192.307 409.097C191.9 409.067 191.184 409.433 191.354 409.971C191.523 410.509 193.54 411.975 194.405 412.198C195.27 412.421 199.346 414.045 201.334 413.248C203.321 412.451 204.673 409.921 204.673 409.921L201.533 408.14L201.536 408.143Z" fill="#EEA886"/>
<path d="M217.233 367.882C217.233 367.882 211.867 370.011 211.549 377.475C211.231 384.938 210.94 388.836 210.649 389.987C210.357 391.138 209.802 395.77 208.45 398.556C207.14 401.259 198.541 409.814 198.541 409.814L202.704 413.73C202.704 413.73 214.692 401.693 215.42 399.49C216.148 397.29 219.146 381.974 219.384 379.39C219.577 377.308 222.319 368.034 217.236 367.88L217.233 367.882Z" fill="#DBD8E3"/>
<path d="M166.661 387.748C166.652 388.004 166.634 388.259 166.616 388.515H176.43C176.448 388.259 176.457 388.004 176.466 387.748H166.661ZM57.2061 385.036C57.2061 385.337 57.2061 385.625 57.215 385.925C57.2328 387.168 57.2863 388.399 57.3903 389.624C57.6458 393.112 58.2103 396.52 59.0542 399.823C61.7401 410.394 67.2486 419.834 74.73 427.286C75.0212 427.586 75.3094 427.868 75.6006 428.148C76.7712 429.275 77.9954 430.36 79.2611 431.38C89.5235 439.738 102.611 444.743 116.87 444.743C117.108 444.743 117.346 444.743 117.583 444.734C128.401 444.612 138.53 441.6 147.235 436.438C151.187 434.095 154.839 431.312 158.14 428.148C165.015 421.55 170.321 413.322 173.426 404.084C173.893 402.683 174.315 401.265 174.686 399.82C175.337 397.248 175.83 394.605 176.139 391.92V391.911C176.201 391.34 176.261 390.766 176.305 390.183C176.359 389.627 176.403 389.074 176.427 388.509C176.445 388.253 176.454 387.998 176.463 387.742C176.49 387.177 176.507 386.624 176.516 386.059C176.525 385.714 176.525 385.372 176.525 385.027C176.525 355.141 154.583 330.382 125.935 326.014C125.38 325.925 124.827 325.847 124.262 325.776C123.647 325.705 123.029 325.636 122.414 325.583C121.859 325.529 121.297 325.485 120.742 325.452C119.455 325.363 118.163 325.327 116.87 325.327C115.771 325.327 114.677 325.354 113.596 325.416C111.739 325.514 109.909 325.708 108.096 325.972C90.8011 328.517 75.9185 338.496 66.8 352.563C64.9787 355.364 63.3861 358.332 62.0461 361.442C61.957 361.635 61.8797 361.838 61.7995 362.034C61.7104 362.218 61.6421 362.411 61.5707 362.599C61.1132 363.699 60.7002 364.817 60.3199 365.947C59.3335 368.87 58.5669 371.9 58.0499 375.01C57.9013 375.828 57.7855 376.657 57.6726 377.493C57.6636 377.632 57.6458 377.775 57.628 377.924C57.6191 377.933 57.6191 377.942 57.6191 377.959C57.6102 378.031 57.6013 378.099 57.6013 378.171C57.5834 378.251 57.5745 378.328 57.5656 378.417V378.48C57.5567 378.516 57.5478 378.56 57.5478 378.605C57.5389 378.667 57.5299 378.73 57.5299 378.789C57.5121 378.938 57.4943 379.089 57.4854 379.238C57.3963 380.154 57.3279 381.079 57.2833 382.003C57.2744 382.128 57.2655 382.259 57.2655 382.381C57.2566 382.583 57.2477 382.785 57.2388 382.988C57.212 383.665 57.2031 384.343 57.2031 385.03L57.2061 385.036ZM70.5764 403.611L70.3476 403.028C70.1812 402.597 70.0207 402.166 69.8633 401.726L69.5038 400.67C69.4146 400.406 69.3285 400.141 69.2482 399.877C69.2393 399.859 69.2393 399.841 69.2304 399.823C69.2126 399.77 69.1947 399.725 69.1858 399.674C69.0462 399.234 68.9214 398.785 68.7996 398.336L68.66 397.816C68.5292 397.34 68.4133 396.856 68.3004 396.371C68.2915 396.326 68.2737 396.273 68.2648 396.222C68.1667 395.773 68.0717 395.324 67.9825 394.875C67.9379 394.691 67.9023 394.507 67.8666 394.319C67.7597 393.754 67.6646 393.183 67.5755 392.609C67.418 391.604 67.3021 390.594 67.207 389.571C67.1714 389.226 67.1447 388.875 67.1179 388.521C67.1179 388.521 67.1268 388.521 67.1179 388.512C67.1179 388.399 67.109 388.292 67.1001 388.179C67.0733 387.703 67.0466 387.228 67.0288 386.752V386.612C67.0199 386.505 67.0199 386.392 67.0199 386.279C67.0109 385.866 67.002 385.45 67.002 385.036C67.002 384.65 67.002 384.26 67.0199 383.883C67.0466 382.333 67.1506 380.808 67.3378 379.303C67.3467 379.146 67.3645 378.985 67.3913 378.828C67.3913 378.819 67.3913 378.81 67.4002 378.801C67.3913 378.792 67.4002 378.792 67.4002 378.792C67.3913 378.783 67.3913 378.774 67.4002 378.765C67.4002 378.73 67.4002 378.694 67.4091 378.667V378.649C67.4091 378.631 67.4091 378.623 67.418 378.614C68.3688 371.171 70.9656 364.246 74.8192 358.204C79.3264 351.148 85.557 345.299 92.9136 341.267C94.8597 340.194 96.8831 339.251 98.9688 338.449C99.6284 338.193 100.306 337.946 100.983 337.726C104.76 336.45 108.747 335.621 112.874 335.303C114.193 335.19 115.524 335.136 116.87 335.136C117.274 335.136 117.672 335.136 118.076 335.154C118.543 335.163 119 335.181 119.467 335.199C119.803 335.217 120.135 335.243 120.471 335.27C120.569 335.27 120.655 335.279 120.745 335.288C121.3 335.324 121.862 335.377 122.417 335.437C122.557 335.454 122.7 335.472 122.839 335.49C123.059 335.517 123.288 335.544 123.508 335.579C123.763 335.606 124.01 335.642 124.265 335.686C124.83 335.767 125.383 335.862 125.938 335.96C125.992 335.969 126.045 335.978 126.087 335.987C126.518 336.067 126.948 336.153 127.379 336.251C127.406 336.26 127.433 336.26 127.459 336.269C127.635 336.305 127.819 336.349 127.997 336.391C128.401 336.48 128.799 336.575 129.195 336.682C129.37 336.718 129.545 336.763 129.714 336.813C130.172 336.935 130.63 337.06 131.087 337.2C131.527 337.325 131.958 337.464 132.389 337.604C132.591 337.667 132.793 337.735 132.986 337.806C133.847 338.098 134.703 338.413 135.538 338.758C135.767 338.847 135.996 338.942 136.224 339.04C136.578 339.189 136.92 339.341 137.273 339.498C137.555 339.623 137.838 339.745 138.108 339.885C138.521 340.069 138.925 340.271 139.332 340.474C139.79 340.702 140.238 340.94 140.678 341.187C141.189 341.461 141.682 341.743 142.176 342.032C143.198 342.629 144.181 343.266 145.15 343.935C145.563 344.217 145.967 344.505 146.374 344.815C146.885 345.175 147.378 345.555 147.862 345.942C148.293 346.284 148.724 346.637 149.146 346.997C149.586 347.366 150.008 347.738 150.432 348.124C160.448 357.25 166.732 370.41 166.732 385.03C166.732 385.375 166.732 385.717 166.723 386.062C166.714 386.627 166.697 387.18 166.661 387.745C166.652 388.001 166.634 388.256 166.616 388.512C166.572 389.077 166.527 389.63 166.468 390.186C166.31 391.771 166.073 393.332 165.764 394.872C165.428 396.555 165.006 398.211 164.504 399.823C164.109 401.111 163.66 402.377 163.158 403.611C159.812 411.969 154.268 419.21 147.235 424.618C145.563 425.906 143.813 427.086 141.988 428.151C134.807 432.352 126.479 434.808 117.583 434.933C117.346 434.942 117.108 434.942 116.87 434.942C107.707 434.942 99.1174 432.468 91.743 428.151C83.7505 423.483 77.1753 416.647 72.8196 408.446C72.5997 408.024 72.3799 407.601 72.1689 407.176L71.7827 406.365C71.6252 406.046 71.4826 405.731 71.334 405.404L71.1943 405.086C71.0725 404.804 70.9478 404.521 70.8319 404.233L70.5764 403.608V403.611Z" fill="#323657"/>
<path opacity="0.1" d="M152.003 420.198C171.407 400.78 171.407 369.296 152.003 349.877C132.599 330.459 101.139 330.459 81.7355 349.877C62.3316 369.296 62.3315 400.78 81.7355 420.198C101.139 439.617 132.599 439.617 152.003 420.198Z" fill="#B8B8B8"/>
<path opacity="0.3" d="M150.425 348.127C150.425 348.127 85.7134 340.099 72.8185 408.449C69.1075 401.467 67.0039 393.499 67.0039 385.039C67.0039 357.479 89.3293 335.136 116.869 335.136C129.794 335.136 141.568 340.057 150.428 348.127H150.425Z" fill="#869AC2"/>
<path d="M74.7292 463.983H47.2637V465.616H74.7292V463.983Z" fill="url(#paint2_linear_459_11527)"/>
<path d="M50.9449 544.064H53.3516L53.3516 469.862H50.9449L50.9449 544.064Z" fill="#706865"/>
<path d="M89.5194 463.52H70.4297V465.851H89.5194V463.52Z" fill="#CCBDB7"/>
<path d="M83.5902 443.639H76.3613V465.613H83.5902V443.639Z" fill="#FFAB55"/>
<path d="M143.189 465.643H37.4121V469.862H143.189V465.643Z" fill="#B59074"/>
<path d="M17.1093 440.104C17.1093 440.104 15.9535 456.339 19.1238 458.283C21.1085 459.5 29.0267 463.606 28.7919 464.376C28.5572 465.146 24.3203 471.227 24.3203 471.227C24.3203 471.227 9.11091 461.203 8.62067 458.046C8.14231 454.959 9.36941 434.273 11.4581 433.319C13.0239 432.605 13.8499 433.194 15.8228 434.663C18.5919 436.72 17.1063 440.104 17.1063 440.104H17.1093Z" fill="#FFC955"/>
<path d="M44.8273 444.739L46.1673 444.243C46.1673 444.243 44.4945 440.315 43.7666 440.41C42.9258 440.52 41.877 440.797 41.877 440.797L44.8273 444.736V444.739Z" fill="#EAD8CF"/>
<path d="M45.1324 445.417C44.96 445.29 42.283 440.149 42.283 440.149L36.5605 440.928L39.6535 447.017L45.1324 445.417Z" fill="#DA9B5B"/>
<path d="M35.8231 533.933C35.8231 533.933 35.3507 537.219 35.2913 537.712C35.2318 538.206 30.0293 537.421 30.0293 537.421L29.6074 533.511C29.6074 533.511 35.1724 533.469 35.8231 533.933Z" fill="#424773"/>
<path d="M35.3464 537.293C35.3464 537.293 36.9954 539.273 38.588 540.136C40.1835 540.998 42.6882 541.34 43.6301 542.232C44.3105 542.877 46.108 545.651 39.4882 545.595C32.8685 545.538 29.6745 545.987 28.9673 544.923C28.2572 543.858 29.9954 537.067 29.9954 537.067C29.9954 537.067 31.5641 537.632 35.3494 537.29L35.3464 537.293Z" fill="#292C47"/>
<path d="M69.1493 533.963C69.1493 533.963 68.6769 537.249 68.6174 537.742C68.558 538.236 63.3555 537.451 63.3555 537.451L62.9336 533.541C62.9336 533.541 68.4986 533.499 69.1493 533.963Z" fill="#424773"/>
<path d="M68.6728 537.323C68.6728 537.323 70.3218 539.303 71.9144 540.165C73.5099 541.028 79.375 541.738 80.3168 542.63C80.9972 543.276 82.1293 545.871 72.8146 545.628C66.1949 545.455 63.0009 546.02 62.2937 544.956C61.5836 543.891 63.3188 537.1 63.3188 537.1C63.3188 537.1 64.7955 537.704 68.6728 537.323Z" fill="#292C47"/>
<path d="M19.0424 477.185C19.0424 477.185 37.9538 480.388 42.2264 481.06C46.4989 481.732 69.6592 487.497 72.5561 489.258C74.8617 490.655 71.3468 524.255 70.5268 537.073H61.4053L60.7427 498.621C49.7969 498.894 41.9828 496.058 34.0111 497.271C26.0395 498.481 19.393 500.206 14.3271 493.405C14.3271 493.405 14.1399 478.672 19.0424 477.188V477.185Z" fill="#292C47"/>
<path d="M37.6856 537.103L28.7959 536.553L27.9283 498.621C23.216 498.74 21.5997 498.439 17.7877 497.976L10.6094 481.28C16.8993 482.538 37.0558 487.625 39.7417 489.258C42.0473 490.658 38.5057 524.284 37.6856 537.106V537.103Z" fill="#292C47"/>
<path d="M27.7498 406.24C27.7498 406.24 34.6816 404.322 37.3289 409.71C39.9732 415.094 38.7758 425.305 35.2817 426.266C31.7876 427.226 26.7634 426.12 25.3135 422.769C23.8635 419.418 22.7048 414.654 23.0524 411.568C23.4 408.485 25.9107 406.977 27.7528 406.24H27.7498Z" fill="#EEA886"/>
<path d="M33.4684 425.192C33.4684 425.192 33.3912 429.29 33.8428 430.161C34.2944 431.035 24.1895 430.815 24.1895 430.815C24.1895 430.815 25.782 425.897 24.8788 421.704C23.9844 417.556 33.4684 425.189 33.4684 425.189V425.192Z" fill="#EEA886"/>
<path d="M24.3307 420.155C24.3307 420.155 24.8715 421.255 27.4861 421.077C30.1007 420.899 33.5502 417.741 34.6615 417.458C35.7727 417.176 35.838 416.542 35.838 416.542L36.4263 417.589L37.5643 417.762C37.5643 417.762 36.7918 414.598 38.4764 413.483C40.1611 412.368 37.7188 403.394 29.1886 405.559C29.1886 405.559 22.6787 406.751 22.5926 410.39C22.5064 414.027 23.068 418.228 24.3307 420.155Z" fill="#3A3F47"/>
<path d="M34.3728 430.057C34.3728 430.057 34.3431 428.389 33.5884 428.228C32.8337 428.068 25.6435 427.077 24.7165 427.443L24.3184 429.646C24.3184 429.646 26.107 430.747 34.3698 430.057H34.3728Z" fill="#E2D2CA"/>
<path d="M36.4532 415.799C36.2601 414.431 34.7062 412.861 33.8148 414.99C32.9265 417.119 34.415 420.224 35.4133 420.057C36.4117 419.891 36.7147 417.655 36.4532 415.799Z" fill="#EEA886"/>
<path d="M64.4785 449.768C64.4785 449.768 64.4726 449.768 64.4668 449.768C64.5164 449.791 64.5252 449.791 64.4785 449.768Z" fill="#323657"/>
<path d="M25.728 407.218C25.728 407.218 17.275 406.819 24.2513 420.024L25.728 407.218Z" fill="#3A3F47"/>
<path d="M6.89453 541.602L7.52145 543.371L34.0926 535.134L32.818 531.549L6.89453 541.602Z" fill="#918783"/>
<path d="M35.0031 504.963H31.9844V533.871H35.0031V504.963Z" fill="#918783"/>
<path d="M42.4 503.429H24.5879V505.133H42.4V503.429Z" fill="#5E5854"/>
<path d="M60.325 541.602L59.6981 543.371L33.127 535.134L34.2946 531.323L60.325 541.602Z" fill="#918783"/>
<path d="M41.6067 543.184V545.241L33.127 535.134L34.2946 531.323L41.6067 543.184Z" fill="#918783"/>
<path d="M62.8096 544.064C62.8096 545.437 61.6984 546.549 60.3257 546.549C58.953 546.549 57.8418 545.437 57.8418 544.064C57.8418 542.69 58.953 541.578 60.3257 541.578C61.6984 541.578 62.8096 542.69 62.8096 544.064Z" fill="#BFB2AC"/>
<path d="M41.8174 544.064C41.8174 545.437 40.7062 546.549 39.3335 546.549C37.9608 546.549 36.8496 545.437 36.8496 544.064C36.8496 542.69 37.9608 541.578 39.3335 541.578C40.7062 541.578 41.8174 542.69 41.8174 544.064Z" fill="#BFB2AC"/>
<path d="M9.37404 544.064C9.37404 545.437 8.26283 546.549 6.89015 546.549C5.51747 546.549 4.40625 545.437 4.40625 544.064C4.40625 542.69 5.51747 541.578 6.89015 541.578C8.26283 541.578 9.37404 542.69 9.37404 544.064Z" fill="#BFB2AC"/>
<path d="M15.6949 496.977H51.5242C53.2801 496.977 54.7063 498.404 54.7063 500.161V500.244C54.7063 502.002 53.2801 503.429 51.5242 503.429H15.6919C13.9359 503.429 12.5098 502.002 12.5098 500.244V500.164C12.5098 498.407 13.9359 496.98 15.6919 496.98L15.6949 496.977Z" fill="#E2D2CA"/>
<path d="M129.655 469.862H127.248V544.064H129.655V469.862Z" fill="#706865"/>
<path d="M51.9359 410.153H108.011C109.764 410.153 111.187 411.577 111.187 413.331V451.046C111.187 452.8 109.764 454.225 108.011 454.225H51.9359C50.183 454.225 48.7598 452.8 48.7598 451.046V413.331C48.7598 411.577 50.183 410.153 51.9359 410.153Z" fill="url(#paint3_linear_459_11527)"/>
<path d="M108.744 412.537H51.207V447.32H108.744V412.537Z" fill="#F5F7FF"/>
<path d="M108.744 412.537H51.207V415.306H108.744V412.537Z" fill="#CECFD6"/>
<path d="M64.4275 417.387H53.8947C53.3089 417.387 52.834 417.862 52.834 418.448V418.9C52.834 419.487 53.3089 419.962 53.8947 419.962H64.4275C65.0133 419.962 65.4882 419.487 65.4882 418.9V418.448C65.4882 417.862 65.0133 417.387 64.4275 417.387Z" fill="#CECFD6"/>
<path d="M55.0267 421.687H63.2955C64.5047 421.687 65.4882 422.671 65.4882 423.881V443.693C65.4882 444.903 64.5047 445.887 63.2955 445.887H55.0267C53.8174 445.887 52.834 444.903 52.834 443.693V423.881C52.834 422.671 53.8174 421.687 55.0267 421.687Z" fill="#CECFD6"/>
<path d="M92.8971 465.699V464.914C92.8971 464.914 91.7948 460.035 84.0014 460.035C76.208 460.035 76.3655 465.696 76.3655 465.696H92.8941L92.8971 465.699Z" fill="#2E436E"/>
<path d="M76.273 460.76C76.273 460.76 77.9666 460.629 78.5875 460.255C79.2085 459.88 82.9195 457.382 83.7901 457.784C84.6606 458.182 90.4633 459.96 90.2613 460.811C90.0592 461.661 89.5244 461.578 89.1144 461.426C88.7044 461.278 84.4942 460.392 84.1199 460.54C84.1199 460.54 88.2587 462.051 88.2736 463.154C88.2914 464.257 87.4089 464.525 87.0167 464.941C86.6245 465.357 86.1521 466.392 85.0885 466.472C84.0248 466.552 78.8193 464.739 77.7497 464.658C76.68 464.575 74.6953 464.724 74.5616 464.551C74.4279 464.376 76.276 460.763 76.276 460.763L76.273 460.76Z" fill="#EEA886"/>
<path d="M45.4555 432.367C40.0569 431.419 34.376 430.054 34.376 430.054L24.3216 429.643C24.3216 429.643 15.0961 431.677 11.4624 433.319C11.1177 433.473 11.1148 441.555 10.1699 443.675L13.1827 450.035C13.1827 450.035 14.9238 462.634 15.2833 468.238C15.4497 470.81 14.8139 493.099 14.8139 493.099C14.8139 493.099 15.7171 493.545 22.5775 494.303C29.4379 495.062 46.5816 494.03 46.6886 493.218C46.7985 492.406 43.3698 463.02 43.2182 461.498C42.9865 459.161 43.8927 448.37 43.8927 448.37C45.1851 450.106 48.4802 457.956 51.9148 461.688C53.9352 463.885 63.9421 465.232 65.8259 465.295C69.932 465.432 77.4194 466.249 77.6392 465.851C77.8145 465.61 78.2929 459.199 77.8234 459.042C77.4134 458.905 63.5054 458.102 59.9429 456.211C58.6386 455.518 54.7434 447.017 54.7434 447.017C54.7434 447.017 48.4297 433.708 45.4525 432.367H45.4555Z" fill="#FFC955"/>
<path d="M8.76599 452.122H25.6422C29.0145 452.122 31.7539 454.864 31.7539 458.239V486.341C31.7539 489.715 29.0145 492.457 25.6422 492.457H8.76599C5.39372 492.457 2.6543 489.715 2.6543 486.341V458.239C2.6543 454.864 5.39372 452.122 8.76599 452.122Z" fill="#E2D2CA"/>
<path d="M26.5967 501.823C22.3064 501.823 18.8271 500.381 16.2541 497.539C10.4366 491.11 11.4824 479.814 11.53 479.335C11.6191 478.443 12.4124 477.795 13.3008 477.884C14.1891 477.973 14.8398 478.764 14.7537 479.656C14.7418 479.784 13.8148 490.028 18.6608 495.374C20.6217 497.536 23.2185 498.588 26.5967 498.588C27.4911 498.588 28.216 499.314 28.216 500.209C28.216 501.104 27.4911 501.829 26.5967 501.829V501.823Z" fill="#E2D2CA"/>
<path d="M68.0449 429.929C68.0449 432.855 69.0967 435.534 70.8408 437.609C71.2479 438.094 71.6965 438.549 72.1749 438.962C72.3115 439.081 72.4512 439.197 72.5938 439.307C72.7542 439.435 72.9176 439.557 73.084 439.676C74.6558 440.791 76.5068 441.534 78.5124 441.778C78.8659 441.823 79.2225 441.849 79.5849 441.861C79.7157 441.864 79.8464 441.867 79.9771 441.867C80.3634 441.867 80.7437 441.849 81.121 441.814C81.5429 441.775 81.9559 441.713 82.363 441.629C84.1695 441.264 85.8303 440.487 87.2416 439.402C87.6665 439.075 88.0706 438.721 88.445 438.341C88.5193 438.266 88.5906 438.192 88.6619 438.115C88.9293 437.832 89.1818 437.535 89.4195 437.229C90.9823 435.21 91.9094 432.676 91.9094 429.929C91.9094 423.334 86.5672 417.988 79.9771 417.988C73.3871 417.988 68.0449 423.334 68.0449 429.929Z" fill="#EEF0F7"/>
<path d="M72.2061 436.518L73.0856 439.679C74.6573 440.794 76.5084 441.537 78.5139 441.781C78.8675 441.826 79.224 441.852 79.5865 441.864C79.7172 441.867 79.848 441.87 79.9787 441.87C80.3649 441.87 80.7452 441.852 81.1226 441.817C81.5445 441.778 81.9575 441.716 82.3645 441.632C84.171 441.267 85.8319 440.49 87.2432 439.405C87.4125 438.362 87.5938 437.205 87.7513 436.123C86.8748 435.795 84.0819 434.847 82.32 434.249C82.2962 434.24 82.2695 434.231 82.2457 434.225C82.2071 434.214 82.1684 434.199 82.1298 434.187C82.0258 434.151 81.9248 434.118 81.8297 434.086C81.7317 434.053 81.6425 434.023 81.5564 433.994C81.1969 433.872 80.9413 433.785 80.8492 433.756C80.8255 433.747 80.8136 433.744 80.8136 433.744H80.7928L78.4248 433.922L78.0266 433.952L77.9018 433.961C77.9018 433.961 77.884 433.964 77.8483 433.976C77.7057 434.011 77.2898 434.121 76.7401 434.288C75.3377 434.716 73.0618 435.534 72.2031 436.521L72.2061 436.518Z" fill="#D9C7C1"/>
<path d="M79.3593 423.997C79.3593 423.997 76.5189 424.476 77.0002 428.927C77.4816 433.378 79.9892 432.986 80.1586 432.98C80.3279 432.974 82.6811 433.033 82.8059 427.592C82.8059 427.592 82.8416 423.569 79.3623 423.997H79.3593Z" fill="#EEA987"/>
<path d="M78.1141 431.689C78.1141 431.689 78.2122 433.521 78.0399 433.919C77.8675 434.318 80.3217 435.578 81.8459 434.142C81.8459 434.142 81.5369 432.141 81.632 431.433C81.7271 430.726 78.1141 431.689 78.1141 431.689Z" fill="#EEA987"/>
<path d="M76.9362 427.672C76.9362 427.672 76.6212 427.342 76.5113 427.681C76.4013 428.02 77.0134 429.519 76.9778 429.587C76.9778 429.587 77.0372 429.718 77.1115 429.643C77.1857 429.572 76.9391 427.672 76.9391 427.672H76.9362Z" fill="#EEA987"/>
<path d="M82.7687 427.55C82.7687 427.55 83.0688 427.208 83.1936 427.541C83.3184 427.874 82.8638 429.373 82.8073 429.465C82.8073 429.465 82.7093 429.62 82.6321 429.548C82.5548 429.48 82.7687 427.55 82.7687 427.55Z" fill="#EEA987"/>
<path d="M76.7576 427.291C76.8557 427.901 76.9478 428.353 76.9478 428.353L77.3608 428.894C77.3608 428.894 77.337 427.699 77.3994 427.511C77.4232 427.44 77.4529 427.315 77.4796 427.178C77.5271 426.952 77.5747 426.7 77.6103 426.614C77.6638 426.477 80.0437 425.781 82.1651 426.759C82.1651 426.759 82.1473 426.944 82.1473 427.149C82.1473 427.387 82.174 427.654 82.284 427.696C82.486 427.77 82.4028 429.093 82.4028 429.093L82.7326 428.71C82.7326 428.71 82.8277 428.017 82.9228 427.223C82.9228 427.223 82.9228 427.223 82.9228 427.217C82.9436 427.033 82.9644 426.842 82.9852 426.652C83.0327 425.852 82.9525 424.401 81.9126 423.548C81.2114 423.248 80.0883 422.992 78.2224 423.563C78.2224 423.563 77.7946 423.593 77.6727 423.709C76.508 424.99 76.7517 427.291 76.7517 427.291H76.7576Z" fill="#E8734D"/>
<path d="M81.4337 432.385C81.4337 432.385 80.9791 433.015 79.9273 432.991C78.8725 432.968 78.418 432.418 78.418 432.418C78.418 432.418 78.9171 433.461 79.9333 433.449C80.9494 433.438 81.4337 432.385 81.4337 432.385Z" fill="#C78D71"/>
<path d="M82.1311 434.184C82.1311 434.184 81.3705 435.51 79.9265 435.635C79.0114 435.715 78.2181 434.553 77.8438 433.982C77.8438 433.982 79.8968 433.102 82.1311 434.184Z" fill="#EEA987"/>
<path d="M78.1082 433.562C78.1082 433.562 78.6905 434.324 79.9265 435.138L79.157 436.325L77.8438 433.982L78.1082 433.562Z" fill="#EDDAD3"/>
<path d="M81.7847 433.738C81.7847 433.738 81.0449 434.666 79.9277 435.135L80.7716 436.357L82.2482 434.22L81.7847 433.738Z" fill="#EDDAD3"/>
<path d="M79.9272 435.138L79.2676 436.143C79.2676 436.143 79.9599 436.536 80.6046 436.12L79.9272 435.141V435.138Z" fill="#5073AB"/>
<path d="M71.4414 436.331C71.4414 436.331 71.4473 436.354 71.4592 436.396C71.5305 436.655 71.8098 437.645 72.1723 438.962C72.309 439.081 72.4486 439.197 72.5912 439.307C72.7517 439.435 72.9151 439.557 73.0815 439.676C74.6532 440.791 76.5043 441.534 78.5098 441.778C78.3316 437.645 77.8413 433.979 77.8413 433.979C77.4551 434.08 77.0866 434.181 76.742 434.282C73.7144 435.15 72.1783 435.914 71.6553 436.206C71.6524 436.206 71.6464 436.209 71.6434 436.212C71.5068 436.289 71.4444 436.331 71.4444 436.331H71.4414Z" fill="#323657"/>
<path d="M82.363 441.629C84.1694 441.264 85.8303 440.487 87.2416 439.402C87.6665 439.075 88.0706 438.721 88.4449 438.341C88.5192 438.266 88.5905 438.192 88.6618 438.115C88.8698 437.226 89.0095 436.649 89.0184 436.61C89.0184 436.61 87.5417 435.638 82.3184 434.243C82.3184 434.365 82.3154 437.719 82.36 441.629H82.363Z" fill="#323657"/>
<path d="M79.5481 436.253C79.5956 437.342 79.6015 439.453 79.5837 441.864C79.7144 441.867 79.8452 441.87 79.9759 441.87C80.3622 441.87 80.7425 441.852 81.1198 441.817C80.891 438.843 80.5018 436.985 80.3265 436.25C80.27 436.01 80.2344 435.891 80.2344 435.891L79.5332 436.007C79.5391 436.081 79.5421 436.164 79.5451 436.256L79.5481 436.253Z" fill="#5073AB"/>
<path d="M70.8418 437.609C71.2488 438.094 71.6975 438.549 72.1758 438.962C72.3125 439.081 72.4522 439.197 72.5948 439.307L71.6559 436.206C71.6559 436.206 71.6499 436.206 71.644 436.212C71.5875 436.25 71.5252 436.31 71.4628 436.396C71.2785 436.637 71.0676 437.059 70.8418 437.609Z" fill="#323657"/>
<path d="M88.4453 438.341C88.5196 438.266 88.5909 438.192 88.6622 438.115C88.9296 437.832 89.1822 437.535 89.4198 437.229C89.2861 436.908 89.1495 436.69 89.0187 436.61L88.4453 438.341Z" fill="#323657"/>
<path d="M414.235 292.732L414.19 292.155C414.057 290.957 414.458 289.649 415.563 288.32C416.561 287.145 417.114 286.28 417.114 285.281C417.114 284.151 416.404 283.396 415.007 283.375C414.211 283.375 413.323 283.642 412.77 284.062L412.238 282.664C412.969 282.132 414.232 281.778 415.408 281.778C417.958 281.778 419.111 283.354 419.111 285.037C419.111 286.545 418.27 287.633 417.206 288.897C416.232 290.05 415.878 291.025 415.943 292.155L415.964 292.732H414.235ZM413.748 295.836C413.748 295.016 414.3 294.439 415.076 294.439C415.851 294.439 416.383 295.016 416.383 295.836C416.383 296.613 415.875 297.21 415.055 297.21C414.279 297.21 413.748 296.613 413.748 295.836Z" fill="white"/>
<defs>
<linearGradient id="paint0_linear_459_11527" x1="0" y1="272.995" x2="429.503" y2="272.995" gradientUnits="userSpaceOnUse">
<stop stop-color="#9A5CFF"/>
<stop offset="0.99" stop-color="#4059BF"/>
</linearGradient>
<linearGradient id="paint1_linear_459_11527" x1="-34.9214" y1="501.009" x2="445.635" y2="501.009" gradientUnits="userSpaceOnUse">
<stop stop-color="#9A5CFF"/>
<stop offset="0.99" stop-color="#4059BF"/>
</linearGradient>
<linearGradient id="paint2_linear_459_11527" x1="47.2637" y1="464.798" x2="74.7292" y2="464.798" gradientUnits="userSpaceOnUse">
<stop stop-color="#FF9F55"/>
<stop offset="1" stop-color="#FFD255"/>
</linearGradient>
<linearGradient id="paint3_linear_459_11527" x1="48.7627" y1="432.189" x2="111.187" y2="432.189" gradientUnits="userSpaceOnUse">
<stop stop-color="#FF9F55"/>
<stop offset="1" stop-color="#FFD255"/>
</linearGradient>
</defs>
</svg>
