<svg width="80" height="80" viewBox="0 0 80 80" fill="none" xmlns="http://www.w3.org/2000/svg">
<g clip-path="url(#clip0_334_28157)">
<path d="M28.2834 22.2797L26.9304 22.77C24.8423 23.5272 23.2845 25.3537 22.8646 27.5383L22.4056 29.9439C22.1765 31.1355 22.4884 32.3558 23.2616 33.2916C24.0352 34.2283 25.1759 34.7655 26.3906 34.7655H38.1182C39.3235 34.7655 40.4584 34.2353 41.2318 33.3109C42.0046 32.3873 42.3262 31.1781 42.114 29.9933L41.6859 27.6003C41.2891 25.3814 39.7262 23.5252 37.6065 22.7559L36.1721 22.2361V20.122C36.1721 20.0627 36.1663 20.0048 36.1577 19.9478C37.2041 18.8825 37.8035 17.4298 37.8035 15.9436V12.7937C37.8035 9.71906 35.302 7.21765 32.2271 7.21765C29.1523 7.21765 26.6502 9.71906 26.6502 12.7937V16.0417C26.6502 17.5695 27.2802 18.9644 28.2932 19.9773C28.2873 20.0248 28.2834 20.0728 28.2834 20.1219V22.2797ZM39.3784 28.0128L39.8065 30.4061C39.8962 30.9062 39.7604 31.4167 39.434 31.8067C39.1071 32.1973 38.6274 32.4216 38.1179 32.4216H26.3902C25.877 32.4216 25.3951 32.1947 25.0682 31.7989C24.742 31.4039 24.6102 30.8891 24.7071 30.3848L25.1662 27.9792C25.4307 26.6023 26.4129 25.4506 27.7287 24.9736L28.6149 24.6525C28.6371 24.6753 28.6595 24.6983 28.6835 24.7194C29.6934 25.6023 30.9601 26.0439 32.2276 26.0437C33.4935 26.0437 34.7599 25.6031 35.7699 24.7219C35.8063 24.6902 35.8398 24.6559 35.8716 24.6203L36.8065 24.9592C38.1431 25.4439 39.1284 26.6139 39.3784 28.0128ZM28.994 12.7937C28.994 11.0116 30.4441 9.5614 32.2266 9.5614C33.731 9.5614 34.9951 10.5958 35.354 11.9895C35.2034 12.0631 35.0488 12.1327 34.8906 12.1959C33.4496 12.7728 32.2857 12.6962 31.9531 12.4631C31.4231 12.0916 30.6924 12.2197 30.3207 12.7497C29.9491 13.2797 30.0774 14.0103 30.6073 14.382C31.1796 14.7834 31.9565 14.9841 32.8431 14.9841C33.6485 14.9841 34.5446 14.8167 35.4595 14.4856V15.9433C35.4595 16.8391 35.089 17.7162 34.4429 18.3498C34.1438 18.6433 33.8012 18.8706 33.4332 19.0275C33.4074 19.0373 33.3821 19.048 33.3573 19.0595C32.9793 19.2091 32.5756 19.2842 32.1629 19.2734C30.4154 19.2398 28.994 17.79 28.994 16.0416V12.7937ZM32.1179 21.617C32.1537 21.6177 32.1891 21.618 32.2249 21.618C32.7748 21.618 33.3135 21.5353 33.8282 21.3767V23.2516C32.8515 23.8537 31.6029 23.8534 30.6274 23.2506V21.3801C31.1015 21.5237 31.601 21.607 32.1179 21.617Z" fill="black"/>
<path d="M13.791 54.8287H50.2863C50.9337 54.8287 51.4582 54.3042 51.4582 53.6569C51.4582 53.0095 50.9337 52.485 50.2863 52.485H13.791C13.1437 52.485 12.6191 53.0095 12.6191 53.6569C12.6191 54.3042 13.1437 54.8287 13.791 54.8287Z" fill="black"/>
<path d="M13.791 61.1476H50.2863C50.9337 61.1476 51.4582 60.6231 51.4582 59.9758C51.4582 59.3284 50.9337 58.8039 50.2863 58.8039H13.791C13.1437 58.8039 12.6191 59.3284 12.6191 59.9758C12.6191 60.6231 13.1437 61.1476 13.791 61.1476Z" fill="black"/>
<path d="M13.791 67.4662H50.2863C50.9337 67.4662 51.4582 66.9417 51.4582 66.2944C51.4582 65.647 50.9337 65.1225 50.2863 65.1225H13.791C13.1437 65.1225 12.6191 65.647 12.6191 66.2944C12.6191 66.9417 13.1437 67.4662 13.791 67.4662Z" fill="black"/>
<path d="M13.791 73.7852H50.2863C50.9337 73.7852 51.4582 73.2606 51.4582 72.6133C51.4582 71.9659 50.9337 71.4414 50.2863 71.4414H13.791C13.1437 71.4414 12.6191 71.9659 12.6191 72.6133C12.6191 73.2606 13.1437 73.7852 13.791 73.7852Z" fill="black"/>
<path d="M12.6191 41.0194C12.6191 41.6667 13.1437 42.1913 13.791 42.1913H50.2863C50.9337 42.1913 51.4582 41.6667 51.4582 41.0194C51.4582 40.372 50.9337 39.8475 50.2863 39.8475H13.791C13.1437 39.8475 12.6191 40.3722 12.6191 41.0194Z" fill="black"/>
<path d="M13.791 48.51H50.2863C50.9337 48.51 51.4582 47.9855 51.4582 47.3381C51.4582 46.6908 50.9337 46.1663 50.2863 46.1663H13.791C13.1437 46.1663 12.6191 46.6908 12.6191 47.3381C12.6191 47.9855 13.1437 48.51 13.791 48.51Z" fill="black"/>
<path d="M9.46336 54.8331C10.113 54.8331 10.6398 54.3066 10.6398 53.6569C10.6398 53.0073 10.113 52.4806 9.46336 52.4806C8.81367 52.4806 8.28711 53.0072 8.28711 53.6569C8.28711 54.3066 8.81383 54.8331 9.46336 54.8331Z" fill="black"/>
<path d="M9.46336 42.1956C10.113 42.1956 10.6398 41.6691 10.6398 41.0194C10.6398 40.3697 10.113 39.8431 9.46336 39.8431C8.81367 39.8431 8.28711 40.3697 8.28711 41.0194C8.28711 41.6691 8.81383 42.1956 9.46336 42.1956Z" fill="black"/>
<path d="M9.46336 48.5144C10.113 48.5144 10.6398 47.9878 10.6398 47.3381C10.6398 46.6884 10.113 46.1619 9.46336 46.1619C8.81367 46.1619 8.28711 46.6884 8.28711 47.3381C8.28711 47.9878 8.81383 48.5144 9.46336 48.5144Z" fill="black"/>
<path d="M9.46336 61.1519C10.113 61.1519 10.6398 60.6253 10.6398 59.9756C10.6398 59.3259 10.113 58.7994 9.46336 58.7994C8.81367 58.7994 8.28711 59.3259 8.28711 59.9756C8.28711 60.6253 8.81383 61.1519 9.46336 61.1519Z" fill="black"/>
<path d="M9.46336 67.4708C10.113 67.4708 10.6398 66.9442 10.6398 66.2945C10.6398 65.6449 10.113 65.1183 9.46336 65.1183C8.81367 65.1183 8.28711 65.6449 8.28711 66.2945C8.28711 66.9441 8.81383 67.4708 9.46336 67.4708Z" fill="black"/>
<path d="M9.46336 73.7895C10.113 73.7895 10.6398 73.263 10.6398 72.6133C10.6398 71.9637 10.113 71.437 9.46336 71.437C8.81367 71.437 8.28711 71.9636 8.28711 72.6133C8.28711 73.2628 8.81383 73.7895 9.46336 73.7895Z" fill="black"/>
<path d="M75.8791 18.4564C75.4063 17.858 74.9595 17.2925 74.7434 16.7716C74.5102 16.2092 74.4184 15.4662 74.3212 14.6794C74.1507 13.3009 73.9576 11.7386 72.8673 10.6484C71.777 9.55828 70.2145 9.36516 68.836 9.19469C68.049 9.0975 67.3057 9.00562 66.7434 8.7725C66.2223 8.55641 65.657 8.10984 65.0584 7.63688C64.2348 6.98609 63.329 6.27156 62.258 5.94734V5.59281C62.2582 2.50906 59.749 0 56.6648 0H7.84539C4.76117 0 2.25195 2.50906 2.25195 5.59297V10.1163C2.25195 10.7636 2.77648 11.2881 3.42383 11.2881C4.07117 11.2881 4.5957 10.7636 4.5957 10.1163V5.59297C4.5957 3.80125 6.05352 2.34375 7.84539 2.34375H56.6648C58.4566 2.34375 59.9145 3.80125 59.9145 5.59297V5.94766C58.8438 6.27203 57.9384 6.98625 57.1148 7.63703C56.5162 8.10984 55.9509 8.55656 55.4299 8.77266C54.8676 9.00562 54.1243 9.0975 53.3373 9.19484C51.9588 9.36516 50.3965 9.55828 49.306 10.6484C48.2155 11.7388 48.0224 13.3011 47.852 14.6795C47.7548 15.4662 47.6629 16.2094 47.4298 16.7717C47.2137 17.2927 46.767 17.8581 46.294 18.4566C45.4184 19.5645 44.4262 20.8203 44.4262 22.428C44.4262 24.0356 45.4185 25.2914 46.294 26.3994C46.7668 26.9978 47.2137 27.5633 47.4298 28.0842C47.6629 28.6466 47.7548 29.3895 47.852 30.1766C48.0224 31.5548 48.2155 33.1172 49.3059 34.2073C50.3962 35.2977 51.9587 35.4906 53.3371 35.6611C53.748 35.7119 54.1463 35.7617 54.514 35.8305V53.5441C54.514 54.2383 54.9015 54.8583 55.5254 55.162C56.1491 55.4662 56.8762 55.3891 57.4232 54.9608L59.9143 53.0103V74.4072C59.9143 76.1989 58.4565 77.6564 56.6646 77.6564H7.84539C6.05352 77.6564 4.5957 76.1989 4.5957 74.4072V15.2767C4.5957 14.6294 4.07117 14.1048 3.42383 14.1048C2.77648 14.1048 2.25195 14.6294 2.25195 15.2767V74.407C2.25195 77.4909 4.76117 80 7.84539 80H56.6648C59.749 80 62.2582 77.4909 62.2582 74.407V53.0102L64.7493 54.9605C65.0744 55.2152 65.4635 55.3458 65.857 55.3458C66.1251 55.3458 66.3951 55.285 66.6482 55.1617C67.2723 54.858 67.6601 54.238 67.6601 53.5439V40.4663C67.6601 39.8189 67.1355 39.2944 66.4882 39.2944C65.8409 39.2944 65.3163 39.8189 65.3163 40.4663V52.428L62.2012 49.9891C61.8863 49.7398 61.4904 49.6025 61.0862 49.6025C60.682 49.6025 60.286 49.7398 59.9762 49.985L56.8576 52.4267V37.0166C56.9426 37.0831 57.028 37.1505 57.1146 37.2188C58.2227 38.0944 59.4787 39.0864 61.0865 39.0864C62.6941 39.0864 63.9501 38.0942 65.0582 37.2189C65.6568 36.7461 66.2223 36.2992 66.7432 36.0831C67.3055 35.8502 68.0488 35.7583 68.8359 35.6609C70.2143 35.4906 71.7766 35.2975 72.8673 34.2073C73.9574 33.117 74.1506 31.5547 74.321 30.1764C74.4184 29.3895 74.5102 28.6464 74.7434 28.0841C74.9595 27.5631 75.4062 26.9977 75.8791 26.3992C76.7548 25.2913 77.747 24.0355 77.747 22.4278C77.747 20.8202 76.7546 19.5644 75.8791 18.4564ZM74.0402 24.9461C73.489 25.6437 72.919 26.365 72.5785 27.1863C72.2234 28.0425 72.1073 28.9811 71.9951 29.8887C71.859 30.9897 71.7305 32.0295 71.2102 32.5498C70.6898 33.0702 69.6498 33.1986 68.5487 33.3347C67.6409 33.4469 66.7024 33.5628 65.8459 33.918C65.0246 34.2584 64.3034 34.8283 63.6057 35.3795C62.7184 36.0803 61.8804 36.7425 61.0868 36.7425C60.2932 36.7425 59.4552 36.0805 58.5679 35.3795C57.8702 34.8284 57.149 34.2584 56.3277 33.918C56.2712 33.8945 56.0749 33.8198 56.0326 33.8067C55.258 33.5373 54.4295 33.4341 53.6248 33.3347C52.5237 33.1986 51.4837 33.07 50.9632 32.5497C50.4431 32.0295 50.3145 30.9897 50.1784 29.8889C50.0662 28.9811 49.9502 28.0428 49.5951 27.1863C49.2544 26.365 48.6846 25.6437 48.1334 24.9461C47.4326 24.0589 46.7704 23.2211 46.7704 22.4278C46.7704 21.6345 47.4324 20.7967 48.1334 19.9095C48.6846 19.2119 49.2546 18.4906 49.5951 17.6694C49.9502 16.8131 50.0663 15.8745 50.1784 14.9669C50.3145 13.8659 50.443 12.8261 50.9634 12.3058C51.4838 11.7855 52.5238 11.657 53.6249 11.5209C54.5327 11.4088 55.4712 11.2928 56.3277 10.9377C57.149 10.5972 57.8702 10.0273 58.5679 9.47609C59.4534 8.77656 60.2899 8.11594 61.0821 8.11344C61.0835 8.11344 61.0851 8.11359 61.0865 8.11359C61.0881 8.11359 61.0896 8.11344 61.0912 8.11344C61.8835 8.11578 62.7201 8.77656 63.6057 9.47609C64.3034 10.0272 65.0246 10.5972 65.8459 10.9377C66.7023 11.2928 67.641 11.4089 68.5488 11.5209C69.6499 11.657 70.6899 11.7856 71.2102 12.3059C71.7305 12.8263 71.8591 13.8659 71.9952 14.9669C72.1074 15.8745 72.2234 16.813 72.5785 17.6694C72.9191 18.4906 73.489 19.2119 74.0402 19.9095C74.741 20.7967 75.4032 21.6345 75.4032 22.4278C75.4032 23.2211 74.7412 24.0591 74.0402 24.9461Z" fill="black"/>
<path d="M68.6111 18.7038L64.6233 17.5755L62.3175 14.1317C62.0421 13.7205 61.5824 13.4752 61.0875 13.4752C60.5927 13.4752 60.1328 13.7206 59.8575 14.1317L57.5518 17.5755L53.5636 18.7039C53.0874 18.8388 52.7118 19.2005 52.5589 19.6711C52.4061 20.1417 52.4977 20.655 52.8036 21.0434L55.3666 24.3002L55.2075 28.4403C55.1883 28.935 55.4158 29.4041 55.8163 29.6952C56.0733 29.8819 56.3778 29.9784 56.6858 29.9784C56.858 29.9784 57.0311 29.9483 57.1974 29.887L61.0872 28.4561L64.9768 29.8869C65.4413 30.0581 65.9574 29.9862 66.3578 29.6955C66.7583 29.4047 66.9861 28.9358 66.9671 28.4409L66.808 24.3L69.3711 21.0433C69.6771 20.6544 69.7685 20.1414 69.6155 19.6708C69.4632 19.2002 69.0875 18.8386 68.6111 18.7038ZM64.7694 23.1011C64.5528 23.3767 64.4408 23.7214 64.4541 24.0728L64.5757 27.2422L61.5986 26.147C61.2688 26.0256 60.9055 26.0258 60.5763 26.1469L57.5989 27.2422L57.7207 24.0717C57.7338 23.7216 57.6216 23.3769 57.4046 23.1003L55.443 20.6078L58.496 19.7442C58.8336 19.6484 59.1272 19.435 59.3224 19.1434L61.0872 16.5075L62.8519 19.1431C63.0472 19.4348 63.3408 19.6483 63.6791 19.7444L66.7314 20.6078L64.7694 23.1011Z" fill="black"/>
</g>
<defs>
<clipPath id="clip0_334_28157">
<rect width="80" height="80" fill="white"/>
</clipPath>
</defs>
</svg>
