<svg width="80" height="80" viewBox="0 0 80 80" fill="none" xmlns="http://www.w3.org/2000/svg">
<path d="M24.5818 7.66937L24.0531 7.53722C23.8688 7.49118 23.6765 7.48774 23.4906 7.52716C23.3048 7.56658 23.1304 7.64783 22.9807 7.76474C22.831 7.88165 22.7099 8.03114 22.6266 8.20186C22.5433 8.37258 22.5 8.56004 22.5 8.74999V20.8528C22.5 26.4348 24.0988 31.9 27.1073 36.6019C30.1157 41.3039 34.4079 45.0457 39.4762 47.3849C39.6404 47.4607 39.8191 47.5 40 47.5C40.1809 47.5 40.3596 47.4607 40.5238 47.3849C45.5921 45.0457 49.8843 41.3039 52.8927 36.6019C55.9012 31.9 57.5 26.4348 57.5 20.8528V8.74999C57.5 8.56003 57.4567 8.37258 57.3734 8.20186C57.2901 8.03114 57.169 7.88165 57.0193 7.76474C56.8696 7.64783 56.6952 7.56658 56.5094 7.52716C56.3235 7.48773 56.1312 7.49118 55.9469 7.53722L55.4181 7.66952C52.8079 8.31247 50.0698 8.21109 47.5143 7.37687C44.9589 6.54265 42.6883 5.00898 40.9602 2.94983C40.8429 2.80904 40.6961 2.69577 40.5302 2.61803C40.3643 2.54029 40.1832 2.5 40 2.5C39.8168 2.5 39.6358 2.54029 39.4698 2.61803C39.3039 2.69577 39.1571 2.80904 39.0398 2.94983C37.3117 5.00901 35.0411 6.5427 32.4856 7.3769C29.9301 8.21109 27.192 8.31241 24.5818 7.66937ZM40 5.60805C41.881 7.51148 44.1899 8.93741 46.7342 9.76684C49.4001 10.6384 52.242 10.8277 55 10.3174V20.8528C54.9905 25.8566 53.5804 30.7579 50.9295 35.0018C48.2785 39.2457 44.4925 42.6628 40 44.8663C35.5075 42.6628 31.7215 39.2457 29.0705 35.0018C26.4196 30.7579 25.0095 25.8566 25 20.8528V10.3174C27.758 10.8275 30.5999 10.6382 33.2658 9.76684C35.8101 8.93741 38.119 7.51148 40 5.60805Z" fill="black"/>
<path d="M30 13.75H27.5V16.25H30V13.75Z" fill="black"/>
<path d="M30 18.75H27.5V22.6889C27.5022 26.5946 28.636 30.4161 30.7642 33.691C32.8925 36.9659 35.9241 39.554 39.4923 41.1423C39.6522 41.2133 39.8251 41.25 40 41.25C40.1749 41.25 40.3478 41.2133 40.5077 41.1423C44.0759 39.554 47.1075 36.9659 49.2358 33.691C51.364 30.4161 52.4978 26.5946 52.5 22.6889V13.75C52.5 13.56 52.4567 13.3726 52.3734 13.2018C52.2901 13.0311 52.169 12.8816 52.0193 12.7647C51.8695 12.6478 51.6951 12.5666 51.5093 12.5272C51.3235 12.4878 51.1311 12.4913 50.9468 12.5374C49.5213 12.8979 48.0383 12.9721 46.5839 12.7557C45.1295 12.5392 43.7325 12.0364 42.4737 11.2764L40.6431 10.1781L39.3569 12.3219L41.1874 13.4203C43.8307 15.0167 46.9389 15.6651 50 15.2588V22.6889C49.998 26.0159 49.0589 29.2751 47.2903 32.0931C45.5217 34.9111 42.9951 37.1739 40 38.6224C37.0049 37.1739 34.4783 34.9111 32.7097 32.0931C30.9411 29.2751 30.002 26.0159 30 22.6889V18.75Z" fill="black"/>
<path d="M40 36.25C40.7417 36.25 41.4667 36.0301 42.0834 35.618C42.7001 35.206 43.1807 34.6203 43.4645 33.9351C43.7484 33.2498 43.8226 32.4958 43.6779 31.7684C43.5333 31.041 43.1761 30.3728 42.6516 29.8484C42.1272 29.3239 41.459 28.9668 40.7316 28.8221C40.0042 28.6774 39.2502 28.7516 38.5649 29.0355C37.8797 29.3193 37.294 29.7999 36.882 30.4166C36.4699 31.0333 36.25 31.7583 36.25 32.5C36.2511 33.4942 36.6466 34.4474 37.3496 35.1504C38.0526 35.8534 39.0058 36.2489 40 36.25ZM40 31.25C40.2472 31.25 40.4889 31.3233 40.6945 31.4607C40.9 31.598 41.0602 31.7932 41.1548 32.0216C41.2495 32.2501 41.2742 32.5014 41.226 32.7439C41.1778 32.9863 41.0587 33.2091 40.8839 33.3839C40.7091 33.5587 40.4863 33.6778 40.2439 33.726C40.0014 33.7742 39.7501 33.7495 39.5216 33.6549C39.2932 33.5602 39.098 33.4 38.9607 33.1945C38.8233 32.9889 38.75 32.7472 38.75 32.5C38.7504 32.1686 38.8822 31.8509 39.1165 31.6165C39.3509 31.3822 39.6686 31.2504 40 31.25Z" fill="black"/>
<path d="M37.5126 26.4268C37.5551 26.7247 37.7037 26.9972 37.931 27.1943C38.1583 27.3915 38.4491 27.5 38.75 27.5H41.25C41.5509 27.5 41.8416 27.3915 42.0689 27.1943C42.2962 26.9972 42.4448 26.7247 42.4874 26.4268L43.7374 17.6769C43.7627 17.4996 43.7496 17.3189 43.6991 17.1471C43.6485 16.9753 43.5616 16.8164 43.4443 16.6811C43.3269 16.5458 43.1819 16.4373 43.019 16.3629C42.8561 16.2885 42.6791 16.25 42.5 16.25H37.5C37.3209 16.25 37.1439 16.2885 36.981 16.3629C36.818 16.4373 36.673 16.5458 36.5557 16.6811C36.4383 16.8164 36.3514 16.9753 36.3009 17.1471C36.2503 17.3189 36.2372 17.4996 36.2626 17.6769L37.5126 26.4268ZM41.0587 18.75L40.1658 25H39.8341L38.9412 18.75H41.0587Z" fill="black"/>
<path d="M76.25 5C76.25 4.66848 76.1183 4.35054 75.8839 4.11612C75.6495 3.8817 75.3315 3.75 75 3.75H65C64.6685 3.75 64.3505 3.8817 64.1161 4.11612C63.8817 4.35054 63.75 4.66848 63.75 5V13.75H60V16.25H63.75V75H56.25V38.75H53.75V75H46.25V47.5H43.75V75H36.25V48.75H33.75V75H26.25V47.5H31.25V45H25C24.6685 45 24.3505 45.1317 24.1161 45.3661C23.8817 45.6005 23.75 45.9185 23.75 46.25V56.25H15C14.6685 56.25 14.3505 56.3817 14.1161 56.6161C13.8817 56.8505 13.75 57.1685 13.75 57.5V63.75H5C4.66848 63.75 4.35054 63.8817 4.11612 64.1161C3.8817 64.3505 3.75 64.6685 3.75 65V75H2.5V77.5H77.5V75H76.25V5ZM6.25 66.25H13.75V75H6.25V66.25ZM16.25 58.75H23.75V75H16.25V58.75ZM66.25 75V6.25H73.75V75H66.25Z" fill="black"/>
</svg>
