<svg width="80" height="80" viewBox="0 0 80 80" fill="none" xmlns="http://www.w3.org/2000/svg">
<g clip-path="url(#clip0_334_28216)">
<path d="M79.6175 27.8946L63.4466 11.7237V18.7762H58.2361C55.1071 18.7762 52.0486 19.3024 49.1176 20.3458V16.1709H56.1701L39.9992 0L23.8283 16.1709H30.8807V35.9775C27.9498 34.9341 24.8912 34.4078 21.7623 34.4078H16.5518V27.3553L0.380859 43.5262L16.5518 59.6971V52.6447H21.7623C25.5347 52.6447 28.8473 54.9126 30.2255 58.3619C28.1218 60.7406 26.9728 63.7679 26.9728 66.9737C26.9728 74.1564 32.8165 80 39.9992 80C47.1819 80 53.0255 74.1564 53.0255 66.9737C53.0255 63.4865 51.6083 60.1361 49.1176 57.6898V46.1315C49.1176 41.1046 53.2092 37.0131 58.2361 37.0131H63.4466V44.0655L79.6175 27.8946ZM58.2361 34.4078C51.7711 34.4078 46.5124 39.6665 46.5124 46.1315V58.8348L46.9448 59.223C49.1528 61.203 50.4203 64.0284 50.4203 66.9737C50.4203 72.7196 45.7451 77.3947 39.9992 77.3947C34.2533 77.3947 29.5781 72.7196 29.5781 66.9737C29.5781 64.1847 30.6645 61.5664 32.638 59.5981L33.1955 59.0419L32.9624 58.2903C31.4344 53.3559 26.9338 50.0394 21.7623 50.0394H13.9465V53.408L4.06471 43.5262L13.9465 33.6444V37.0131H21.7623C25.1856 37.0131 28.5165 37.71 31.6623 39.0869L33.486 39.8854V13.5656H30.1174L39.9992 3.68385L49.881 13.5656H46.5124V24.2538L48.336 23.4552C51.4819 22.0784 54.8128 21.3814 58.2361 21.3814H66.0519V18.0128L75.9337 27.8946L66.0519 37.7764V34.4078H58.2361Z" fill="black"/>
<path d="M39.9995 60.4605C36.4081 60.4605 33.4863 63.3823 33.4863 66.9737C33.4863 70.565 36.4081 73.4868 39.9995 73.4868C43.5909 73.4868 46.5127 70.565 46.5127 66.9737C46.5127 63.3823 43.5909 60.4605 39.9995 60.4605ZM39.9995 70.8816C37.8449 70.8816 36.0916 69.1282 36.0916 66.9737C36.0916 64.8191 37.8449 63.0657 39.9995 63.0657C42.1541 63.0657 43.9074 64.8191 43.9074 66.9737C43.9074 69.1282 42.1541 70.8816 39.9995 70.8816Z" fill="black"/>
<path d="M41.3025 55.2499H38.6973V57.8552H41.3025V55.2499Z" fill="black"/>
<path d="M41.3025 50.0394H38.6973V52.6447H41.3025V50.0394Z" fill="black"/>
<path d="M41.3025 44.8289H38.6973V47.4341H41.3025V44.8289Z" fill="black"/>
<path d="M41.3025 39.6183H38.6973V42.2236H41.3025V39.6183Z" fill="black"/>
<path d="M41.3025 34.4078H38.6973V37.0131H41.3025V34.4078Z" fill="black"/>
<path d="M41.3025 29.1973H38.6973V31.8025H41.3025V29.1973Z" fill="black"/>
<path d="M41.3025 23.9867H38.6973V26.592H41.3025V23.9867Z" fill="black"/>
<path d="M41.3025 18.7762H38.6973V21.3814H41.3025V18.7762Z" fill="black"/>
<path d="M41.3025 13.5656H38.6973V16.1709H41.3025V13.5656Z" fill="black"/>
<path d="M41.3025 8.3551H38.6973V10.9604H41.3025V8.3551Z" fill="black"/>
</g>
<defs>
<clipPath id="clip0_334_28216">
<rect width="80" height="80" fill="white"/>
</clipPath>
</defs>
</svg>
