<svg width="78" height="78" viewBox="0 0 78 78" fill="none" xmlns="http://www.w3.org/2000/svg">
<path d="M59.1225 15.6855H62.7423V29.5853C62.7423 29.9053 62.8694 30.2122 63.0957 30.4384C63.3219 30.6647 63.6288 30.7918 63.9488 30.7918C64.2689 30.7918 64.5758 30.6647 64.802 30.4384C65.0283 30.2122 65.1554 29.9053 65.1554 29.5853V14.4789C65.1554 14.1589 65.0283 13.852 64.802 13.6257C64.5758 13.3995 64.2689 13.2723 63.9488 13.2723H61.3185L67.5686 3.4508L73.8187 13.2723H71.1883C70.8683 13.2723 70.5614 13.3995 70.3351 13.6257C70.1089 13.852 69.9817 14.1589 69.9817 14.4789V33.8445C69.9817 34.1645 70.1089 34.4714 70.3351 34.6977C70.5614 34.9239 70.8683 35.0511 71.1883 35.0511C71.5083 35.0511 71.8152 34.9239 72.0415 34.6977C72.2678 34.4714 72.3949 34.1645 72.3949 33.8445V15.6855H76.0146C76.231 15.6851 76.4434 15.6266 76.6294 15.5159C76.8154 15.4053 76.9682 15.2467 77.0719 15.0567C77.1755 14.8667 77.2261 14.6523 77.2184 14.436C77.2107 14.2198 77.145 14.0095 77.0281 13.8274L68.5821 0.555018C68.4727 0.385678 68.3227 0.246444 68.1456 0.150034C67.9686 0.0536246 67.7702 0.00311279 67.5686 0.00311279C67.367 0.00311279 67.1686 0.0536246 66.9916 0.150034C66.8145 0.246444 66.6644 0.385678 66.5551 0.555018L58.109 13.8274C57.9921 14.0095 57.9264 14.2198 57.9187 14.436C57.911 14.6523 57.9617 14.8667 58.0653 15.0567C58.1689 15.2467 58.3218 15.4053 58.5078 15.5159C58.6938 15.6266 58.9061 15.6851 59.1225 15.6855Z" fill="black"/>
<path d="M28.9585 17.1817C28.6385 17.1817 28.3316 17.3088 28.1054 17.5351C27.8791 17.7613 27.752 18.0682 27.752 18.3882V28.9579C27.752 29.2779 27.8791 29.5848 28.1054 29.811C28.3316 30.0373 28.6385 30.1644 28.9585 30.1644H36.6565C36.9765 30.1644 37.2834 30.0373 37.5097 29.811C37.736 29.5848 37.8631 29.2779 37.8631 28.9579C37.8631 28.6379 37.736 28.331 37.5097 28.1047C37.2834 27.8784 36.9765 27.7513 36.6565 27.7513H30.1651V18.3882C30.1651 18.0682 30.038 17.7613 29.8117 17.5351C29.5854 17.3088 29.2785 17.1817 28.9585 17.1817Z" fill="black"/>
<path d="M28.9584 44.9329C25.7988 44.9329 22.7102 43.996 20.0831 42.2407C17.456 40.4853 15.4084 37.9903 14.1993 35.0713C12.9902 32.1522 12.6738 28.9401 13.2902 25.8413C13.9066 22.7424 15.4281 19.8959 17.6623 17.6618C19.8964 15.4276 22.7429 13.9061 25.8418 13.2897C28.9406 12.6733 32.1527 12.9897 35.0718 14.1988C37.9908 15.4079 40.4858 17.4555 42.2412 20.0826C43.9965 22.7097 44.9335 25.7983 44.9335 28.9579V29.0423C44.9335 29.3623 45.0606 29.6692 45.2869 29.8955C45.5131 30.1218 45.82 30.2489 46.14 30.2489C46.46 30.2489 46.7669 30.1218 46.9932 29.8955C47.2195 29.6692 47.3466 29.3623 47.3466 29.0423C47.3633 25.3983 46.2969 21.8315 44.2828 18.7947C42.2688 15.7579 39.3978 13.3879 36.0343 11.9857C32.6709 10.5835 28.9667 10.2122 25.3919 10.919C21.817 11.6258 18.5328 13.3789 15.9561 15.9556C13.3794 18.5323 11.6264 21.8165 10.9195 25.3913C10.2127 28.9662 10.584 32.6704 11.9862 36.0338C13.3884 39.3973 15.7584 42.2682 18.7952 44.2823C21.8321 46.2964 25.3988 47.3628 29.0428 47.3461C29.3628 47.3461 29.6697 47.219 29.896 46.9927C30.1223 46.7664 30.2494 46.4595 30.2494 46.1395C30.2498 45.9737 30.216 45.8096 30.1502 45.6574C30.0843 45.5052 29.9878 45.3682 29.8667 45.255C29.7455 45.1418 29.6024 45.0548 29.4461 44.9994C29.2898 44.9439 29.1238 44.9213 28.9584 44.9329Z" fill="black"/>
<path d="M27.8599 55.5026H25.8087L23.6127 50.0126C23.546 49.8435 23.4419 49.6915 23.3081 49.5683C23.1744 49.445 23.0146 49.3535 22.8405 49.3008C21.4701 48.8918 20.1442 48.3461 18.8829 47.6719C18.7209 47.5947 18.5436 47.5546 18.3641 47.5546C18.1846 47.5546 18.0073 47.5947 17.8453 47.6719L12.4157 50.0006L7.96341 45.5L10.3042 40.0463C10.3832 39.8826 10.4243 39.7032 10.4243 39.5215C10.4243 39.3397 10.3832 39.1603 10.3042 38.9966C9.62155 37.7447 9.06771 36.4268 8.65116 35.0631C8.5968 34.8913 8.50464 34.7339 8.38146 34.6023C8.25827 34.4708 8.10717 34.3685 7.93928 34.303L2.41316 32.107V25.8087L7.90308 23.6127C8.07227 23.546 8.22418 23.4419 8.34745 23.3081C8.47073 23.1744 8.56218 23.0146 8.61496 22.8405C9.02396 21.4701 9.56967 20.1442 10.2438 18.8829C10.321 18.7209 10.3611 18.5436 10.3611 18.3641C10.3611 18.1846 10.321 18.0073 10.2438 17.8453L7.96341 12.4157L12.4157 7.96341L17.8694 10.3042C18.0331 10.3832 18.2125 10.4243 18.3943 10.4243C18.576 10.4243 18.7555 10.3832 18.9191 10.3042C20.171 9.62155 21.4889 9.06771 22.8526 8.65116C23.0244 8.5968 23.1819 8.50465 23.3134 8.38146C23.445 8.25827 23.5472 8.10718 23.6127 7.93928L25.8087 2.41316H32.107L34.303 7.89102C34.3685 8.05891 34.4708 8.21 34.6023 8.33319C34.7338 8.45638 34.8913 8.54854 35.0631 8.6029C36.4291 9.01886 37.7506 9.56849 39.0087 10.2438C39.1707 10.321 39.348 10.3611 39.5275 10.3611C39.707 10.3611 39.8842 10.321 40.0463 10.2438L45.5 7.96341L49.9523 12.4157L47.6115 17.8694C47.5325 18.0331 47.4914 18.2125 47.4914 18.3943C47.4914 18.576 47.5325 18.7555 47.6115 18.9191C48.2836 20.1703 48.8331 21.4836 49.2525 22.8405C49.3053 23.0146 49.3967 23.1744 49.52 23.3081C49.6433 23.4419 49.7952 23.546 49.9644 23.6127L55.5026 25.8087V27.8599C55.5026 28.1799 55.6297 28.4868 55.856 28.7131C56.0822 28.9393 56.3891 29.0665 56.7091 29.0665C57.0291 29.0665 57.336 28.9393 57.5623 28.7131C57.7886 28.4868 57.9157 28.1799 57.9157 27.8599V24.9882C57.916 24.7466 57.8436 24.5104 57.7081 24.3103C57.5726 24.1103 57.3801 23.9555 57.1556 23.8661L51.4364 21.5857C51.0573 20.4562 50.5976 19.3554 50.0609 18.2917L52.4741 12.6208C52.5717 12.398 52.5998 12.1509 52.5546 11.9119C52.5094 11.6729 52.393 11.4532 52.2207 11.2815L46.6342 5.67091C46.4635 5.50106 46.2459 5.38617 46.0094 5.34101C45.7729 5.29586 45.5282 5.32251 45.307 5.41753L39.624 7.83069C38.5601 7.2944 37.4594 6.83473 36.33 6.45519L34.0496 0.760144C33.9602 0.535642 33.8054 0.343159 33.6054 0.207629C33.4053 0.0720994 33.1692 -0.000233368 32.9275 5.65638e-07H24.9882C24.7466 -0.000233368 24.5104 0.0720994 24.3103 0.207629C24.1103 0.343159 23.9555 0.535642 23.8661 0.760144L21.5857 6.46726C20.4545 6.84658 19.3534 7.31041 18.2917 7.85482L12.6208 5.44167C12.398 5.34398 12.1509 5.3159 11.9119 5.36112C11.6729 5.40634 11.4532 5.52273 11.2815 5.69505L5.67091 11.2815C5.50106 11.4522 5.38617 11.6698 5.34101 11.9063C5.29586 12.1429 5.32251 12.3875 5.41753 12.6087L7.83069 18.2676C7.29696 19.3394 6.8413 20.4483 6.46726 21.5857L0.760144 23.8661C0.535642 23.9555 0.343159 24.1103 0.207629 24.3103C0.0720994 24.5104 -0.000233368 24.7466 5.65638e-07 24.9882V32.9275C-0.000233368 33.1692 0.0720994 33.4053 0.207629 33.6054C0.343159 33.8054 0.535642 33.9602 0.760144 34.0496L6.46726 36.3301C6.84658 37.4613 7.31041 38.5623 7.85482 39.624L5.44167 45.2949C5.34398 45.5177 5.3159 45.7648 5.36112 46.0038C5.40633 46.2428 5.52273 46.4625 5.69505 46.6342L11.2815 52.2448C11.4522 52.4147 11.6698 52.5296 11.9063 52.5747C12.1428 52.6199 12.3875 52.5932 12.6087 52.4982L18.2676 50.085C19.3394 50.6188 20.4483 51.0744 21.5857 51.4485L23.8661 57.1676C23.9555 57.3921 24.1103 57.5846 24.3103 57.7202C24.5104 57.8557 24.7466 57.928 24.9882 57.9278H27.8599C28.1799 57.9278 28.4868 57.8007 28.7131 57.5744C28.9393 57.3481 29.0665 57.0412 29.0665 56.7212C29.0665 56.4012 28.9393 56.0943 28.7131 55.868C28.4868 55.6418 28.1799 55.5146 27.8599 55.5146V55.5026Z" fill="black"/>
<path d="M54.2961 31.371C49.7619 31.371 45.3296 32.7155 41.5596 35.2346C37.7896 37.7536 34.8513 41.334 33.1162 45.523C31.381 49.712 30.927 54.3214 31.8116 58.7684C32.6962 63.2154 34.8796 67.3003 38.0857 70.5064C41.2918 73.7125 45.3766 75.8959 49.8236 76.7804C54.2706 77.665 58.8801 77.211 63.0691 75.4759C67.2581 73.7407 70.8385 70.8024 73.3575 67.0324C75.8765 63.2624 77.221 58.8301 77.221 54.296C77.221 48.2159 74.8057 42.3848 70.5065 38.0856C66.2072 33.7863 60.3762 31.371 54.2961 31.371ZM54.2961 74.8078C50.2392 74.8078 46.2735 73.6048 42.9003 71.3509C39.5272 69.0971 36.8981 65.8936 35.3456 62.1455C33.7931 58.3975 33.3869 54.2732 34.1784 50.2943C34.9698 46.3154 36.9234 42.6606 39.792 39.7919C42.6607 36.9233 46.3155 34.9697 50.2944 34.1783C54.2733 33.3868 58.3976 33.793 62.1456 35.3455C65.8937 36.898 69.0972 39.5271 71.351 42.9002C73.6049 46.2734 74.8079 50.2391 74.8079 54.296C74.8079 59.736 72.6468 64.9533 68.8001 68.8C64.9534 72.6467 59.7361 74.8078 54.2961 74.8078Z" fill="black"/>
<path d="M54.2964 37.4039C50.9554 37.4039 47.6895 38.3946 44.9116 40.2507C42.1338 42.1069 39.9687 44.745 38.6901 47.8317C37.4116 50.9183 37.0771 54.3147 37.7289 57.5915C38.3807 60.8682 39.9895 63.8781 42.3519 66.2405C44.7143 68.6029 47.7242 70.2117 51.0009 70.8635C54.2776 71.5153 57.6741 71.1808 60.7607 69.9022C63.8473 68.6237 66.4855 66.4586 68.3416 63.6807C70.1978 60.9028 71.1885 57.6369 71.1885 54.296C71.1885 52.0777 70.7515 49.8811 69.9026 47.8317C69.0537 45.7822 67.8095 43.9201 66.2409 42.3515C64.6723 40.7829 62.8101 39.5386 60.7607 38.6897C58.7113 37.8408 56.5147 37.4039 54.2964 37.4039ZM54.2964 68.7749C51.4327 68.7749 48.6334 67.9257 46.2523 66.3348C43.8713 64.7438 42.0155 62.4825 40.9196 59.8368C39.8237 57.1912 39.537 54.2799 40.0957 51.4713C40.6543 48.6626 42.0333 46.0827 44.0582 44.0578C46.0832 42.0329 48.6631 40.6539 51.4717 40.0953C54.2803 39.5366 57.1916 39.8233 59.8372 40.9192C62.4829 42.0151 64.7442 43.8709 66.3352 46.2519C67.9261 48.633 68.7753 51.4323 68.7753 54.296C68.7753 58.136 67.2499 61.8188 64.5345 64.5341C61.8192 67.2495 58.1364 68.7749 54.2964 68.7749Z" fill="black"/>
<path d="M54.2966 47.6236C56.2874 47.6236 57.9163 48.8302 57.9163 50.3626C57.9163 50.6826 58.0434 50.9895 58.2697 51.2157C58.496 51.442 58.8029 51.5691 59.1229 51.5691C59.4429 51.5691 59.7498 51.442 59.976 51.2157C60.2023 50.9895 60.3294 50.6826 60.3294 50.3626C60.2439 49.0894 59.7138 47.8868 58.8316 46.9649C57.9494 46.0431 56.7713 45.4605 55.5031 45.3191V43.4368C55.5031 43.1168 55.376 42.8099 55.1497 42.5836C54.9235 42.3573 54.6166 42.2302 54.2966 42.2302C53.9766 42.2302 53.6697 42.3573 53.4434 42.5836C53.2171 42.8099 53.09 43.1168 53.09 43.4368V45.3191C51.8219 45.4605 50.6437 46.0431 49.7615 46.9649C48.8794 47.8868 48.3492 49.0894 48.2637 50.3626C48.2637 53.198 50.9664 55.5026 54.2966 55.5026C56.2874 55.5026 57.9163 56.7092 57.9163 58.2294C57.9163 59.7497 56.2874 60.9684 54.2966 60.9684C52.3057 60.9684 50.6768 59.7618 50.6768 58.2294C50.6768 57.9094 50.5497 57.6025 50.3234 57.3763C50.0972 57.15 49.7903 57.0229 49.4702 57.0229C49.1502 57.0229 48.8433 57.15 48.6171 57.3763C48.3908 57.6025 48.2637 57.9094 48.2637 58.2294C48.3492 59.5026 48.8794 60.7052 49.7615 61.6271C50.6437 62.549 51.8219 63.1315 53.09 63.2729V65.1552C53.09 65.4752 53.2171 65.7821 53.4434 66.0084C53.6697 66.2347 53.9766 66.3618 54.2966 66.3618C54.6166 66.3618 54.9235 66.2347 55.1497 66.0084C55.376 65.7821 55.5031 65.4752 55.5031 65.1552V63.2729C56.7713 63.1315 57.9494 62.549 58.8316 61.6271C59.7138 60.7052 60.2439 59.5026 60.3294 58.2294C60.3294 55.394 57.6267 53.0894 54.2966 53.0894C52.3057 53.0894 50.6768 51.8828 50.6768 50.3626C50.6768 48.8423 52.3057 47.6236 54.2966 47.6236Z" fill="black"/>
</svg>
