<svg width="77" height="77" viewBox="0 0 77 77" fill="none" xmlns="http://www.w3.org/2000/svg">
<g clip-path="url(#clip0_325_14248)">
<path d="M72.7089 4.36284H4.2911C1.925 4.36284 0 6.28784 0 8.65393V58.999C0 61.3649 1.925 63.29 4.2911 63.29H14.8393V71.4339C14.8393 72.0983 15.378 72.637 16.0425 72.637H22.9896C23.654 72.637 24.1927 72.0983 24.1927 71.4339V63.29H27.7393V71.4341C27.7393 72.0985 28.2779 72.6372 28.9424 72.6372H35.8895C36.5539 72.6372 37.0926 72.0985 37.0926 71.4341V63.29H40.639V71.4339C40.639 72.0983 41.1777 72.637 41.8421 72.637H48.7893C49.4537 72.637 49.9924 72.0983 49.9924 71.4339V63.29H53.5385V71.4339C53.5385 72.0983 54.0772 72.637 54.7416 72.637H61.6887C62.3532 72.637 62.8919 72.0983 62.8919 71.4339V63.29H72.7089C75.075 63.29 77 61.3649 77 58.999V8.65393C77 6.28784 75.075 4.36284 72.7089 4.36284ZM4.2911 6.76909H72.7089C73.7483 6.76909 74.5938 7.61459 74.5938 8.65393V16.107H2.40625V8.65393C2.40625 7.61459 3.25175 6.76909 4.2911 6.76909ZM21.7865 70.2308H17.2456V59.3093H21.7865V70.2308ZM34.6864 70.2309H30.1455V52.3265H34.6864V70.2309ZM47.5862 70.2308H43.0453V45.0349H47.5862V70.2308ZM60.4855 70.2308H55.9446V38.4755H60.4855V70.2308ZM72.7089 60.8837H62.8919V37.2724C62.8919 36.6079 62.3532 36.0692 61.6887 36.0692H54.7416C54.0772 36.0692 53.5385 36.6079 53.5385 37.2724V60.8837H49.9924V43.8318C49.9924 43.1674 49.4537 42.6287 48.7893 42.6287H41.8421C41.1777 42.6287 40.639 43.1674 40.639 43.8318V60.8837H37.0926V51.1233C37.0926 50.4589 36.5539 49.9202 35.8895 49.9202H28.9424C28.2779 49.9202 27.7393 50.4589 27.7393 51.1233V60.8837H24.1927V58.1061C24.1927 57.4417 23.654 56.903 22.9896 56.903H16.0425C15.378 56.903 14.8393 57.4417 14.8393 58.1061V60.8837H4.2911C3.25175 60.8837 2.40625 60.0382 2.40625 58.999V18.5132H74.5938V58.999C74.5938 60.0382 73.7481 60.8837 72.7089 60.8837ZM9.30226 11.438C9.30226 10.444 10.1129 9.63328 11.1069 9.63328C12.1009 9.63328 12.9116 10.444 12.9116 11.438C12.9116 12.4319 12.1009 13.2427 11.1069 13.2427C10.1129 13.2427 9.30226 12.4319 9.30226 11.438ZM16.2299 11.438C16.2299 10.444 17.0405 9.63328 18.0345 9.63328C19.0285 9.63328 19.8392 10.444 19.8392 11.438C19.8392 12.4319 19.0286 13.2427 18.0345 13.2427C17.0405 13.2427 16.2299 12.4319 16.2299 11.438ZM23.1574 11.438C23.1574 10.444 23.9681 9.63328 24.9621 9.63328C25.9562 9.63328 26.7668 10.444 26.7668 11.438C26.7668 12.4319 25.9561 13.2427 24.9621 13.2427C23.9682 13.2427 23.1574 12.4319 23.1574 11.438ZM62.5771 23.2668C62.8204 23.5331 62.9313 23.8947 62.8794 24.2516L62.0776 29.7575C61.9904 30.3562 61.4762 30.7875 60.8887 30.7875C60.8309 30.7875 60.7726 30.7835 60.7137 30.7747C60.0562 30.6791 59.6009 30.0685 59.6965 29.411L60.017 27.2096C47.5063 38.2171 32.6148 46.775 15.7069 52.6632C15.576 52.7089 15.4426 52.7304 15.3113 52.7304C14.8136 52.7304 14.348 52.4193 14.1751 51.9227C13.9566 51.2952 14.288 50.6095 14.9156 50.3908C31.4966 44.6164 46.0965 36.236 58.3588 25.4638L56.198 25.5812C55.534 25.6157 54.9673 25.1083 54.9314 24.445C54.8954 23.7814 55.4041 23.2143 56.0676 23.1784L61.6235 22.8768C61.9835 22.8571 62.3338 23.0005 62.5771 23.2668ZM14.6386 45.5249C14.8174 45.9893 15.2637 46.2958 15.7614 46.2958H17.9402C18.438 46.2958 18.8843 45.9893 19.0631 45.5249L19.5363 44.2952C20.4343 44.0577 21.291 43.7026 22.0954 43.2343L23.3006 43.7697C23.7554 43.9718 24.2876 43.873 24.6397 43.521L26.1803 41.9804C26.5322 41.6283 26.6312 41.0961 26.4292 40.6413L25.8937 39.4353C26.3617 38.631 26.7167 37.7747 26.9542 36.8771L28.1843 36.4037C28.6488 36.2251 28.9552 35.7787 28.9552 35.2809V33.102C28.9552 32.6042 28.6487 32.158 28.1843 31.9792L26.9547 31.5059C26.717 30.6078 26.362 29.7513 25.8938 28.9469L26.429 27.7417C26.6312 27.2869 26.5322 26.7547 26.1803 26.4026L24.6395 24.862C24.2876 24.5101 23.7553 24.4116 23.3005 24.6132L22.0946 25.1489C21.2903 24.6808 20.4342 24.3257 19.5365 24.0881L19.0631 22.858C18.8843 22.3936 18.4379 22.0871 17.9402 22.0871H15.7615C15.2639 22.0871 14.8175 22.3935 14.6387 22.858L14.1651 24.0881C13.2675 24.3257 12.4111 24.6806 11.6068 25.1489L10.401 24.6132C9.94608 24.411 9.41385 24.5101 9.06194 24.862L7.52134 26.4026C7.16942 26.7547 7.07046 27.2869 7.27244 27.7417L7.80798 28.9473C7.33981 29.7518 6.98474 30.6081 6.74728 31.5058L5.51738 31.9792C5.05282 32.1579 4.74648 32.6042 4.74648 33.102V35.2809C4.74648 35.7787 5.05297 36.2249 5.51738 36.4037L6.74697 36.877C6.98459 37.7751 7.33966 38.6318 7.80783 39.436L7.27244 40.6413C7.07031 41.0961 7.16927 41.6283 7.52119 41.9804L9.06194 43.521C9.414 43.8729 9.94623 43.9714 10.401 43.7697L11.6068 43.234C12.4111 43.7022 13.2675 44.0572 14.165 44.2947L14.6386 45.5249ZM11.214 40.7757L10.1793 41.2353L9.80682 40.8629L10.2661 39.8287C10.4341 39.4508 10.3961 39.013 10.1655 38.6697C9.5686 37.7808 9.1615 36.7991 8.95591 35.7518C8.8762 35.3459 8.59347 35.0093 8.20742 34.8609L7.15258 34.4548V33.9281L8.20772 33.5219C8.59377 33.3733 8.87636 33.0368 8.95621 32.631C9.1618 31.5843 9.5686 30.6028 10.1657 29.7136C10.3962 29.3704 10.4343 28.9328 10.2664 28.5547L9.80682 27.52L10.1793 27.1476L11.214 27.6072C11.592 27.7749 12.0296 27.737 12.3729 27.5065C13.2622 26.9094 14.2436 26.5024 15.2904 26.2969C15.6961 26.2172 16.0325 25.9346 16.1811 25.5485L16.5873 24.4932H17.114L17.5202 25.5485C17.6688 25.9344 18.0052 26.217 18.411 26.2969C19.4575 26.5024 20.4391 26.9094 21.3282 27.5065C21.6717 27.737 22.1095 27.7751 22.4873 27.6072L23.522 27.1476L23.8945 27.52L23.4352 28.5542C23.2674 28.9323 23.3054 29.3699 23.536 29.7133C24.133 30.6022 24.54 31.5838 24.7456 32.631C24.8253 33.0369 25.108 33.3735 25.4941 33.5221L26.5489 33.9281V34.4548L25.4936 34.861C25.1076 35.0094 24.825 35.3462 24.7451 35.7519C24.5395 36.7985 24.1327 37.7799 23.5357 38.6692C23.3051 39.0125 23.2672 39.4502 23.4351 39.8281L23.8947 40.8629L23.5223 41.2353L22.4881 40.776C22.1103 40.6083 21.6725 40.6462 21.329 40.8768C20.4399 41.4738 19.4583 41.8808 18.4113 42.0862C18.0054 42.1659 17.6688 42.4487 17.5202 42.8347L17.1142 43.8897H16.5875L16.1811 42.8343C16.0325 42.4484 15.696 42.1656 15.2902 42.0859C14.2438 41.8805 13.2623 41.4735 12.3731 40.8765C12.0296 40.6459 11.592 40.6079 11.214 40.7757ZM22.8667 34.1915C22.8667 30.8743 20.168 28.1755 16.8508 28.1755C13.5337 28.1755 10.835 30.8743 10.835 34.1915C10.835 37.5086 13.5338 40.2074 16.8508 40.2074C20.168 40.2074 22.8667 37.5085 22.8667 34.1915ZM13.2411 34.1915C13.2411 32.2012 14.8604 30.5818 16.8507 30.5818C18.8411 30.5818 20.4603 32.2012 20.4603 34.1915C20.4603 36.1817 18.8409 37.8011 16.8507 37.8011C14.8604 37.8011 13.2411 36.1817 13.2411 34.1915Z" fill="black"/>
</g>
<defs>
<clipPath id="clip0_325_14248">
<rect width="77" height="77" fill="white"/>
</clipPath>
</defs>
</svg>
