<svg width="77" height="77" viewBox="0 0 77 77" fill="none" xmlns="http://www.w3.org/2000/svg">
<g clip-path="url(#clip0_325_14250)">
<path d="M37.1251 52.306H39.8762C43.1947 52.306 45.8949 49.6062 45.8949 46.2875V45.2002C45.8949 44.2437 46.2366 43.3082 46.8571 42.5662C48.47 40.6377 49.3695 38.1895 49.3898 35.6727C49.4376 29.7034 44.6229 24.7788 38.6565 24.6952C35.7194 24.6564 32.9463 25.7672 30.855 27.8293C28.7633 29.892 27.6113 32.6458 27.6113 35.5835C27.6113 38.1313 28.5096 40.6096 30.1405 42.5618C30.7635 43.3075 31.1066 44.2444 31.1066 45.2002V46.2873C31.1066 49.6062 33.8066 52.306 37.1251 52.306ZM39.8762 50.0501H37.1251C35.064 50.0501 33.3855 48.3843 33.3634 46.3283H43.6378C43.6158 48.3843 41.9373 50.0501 39.8762 50.0501ZM29.8671 35.5835C29.8671 33.2544 30.7804 31.071 32.4389 29.4357C34.0673 27.8298 36.2152 26.9502 38.5 26.9502C38.5413 26.9502 38.5834 26.9505 38.6248 26.9511C43.3548 27.0172 47.172 30.9217 47.1339 35.6547C47.118 37.6502 46.405 39.5907 45.1267 41.1191C44.4128 41.9728 43.938 42.9939 43.7416 44.0724H39.6287V38.7944C41.7188 38.2861 43.2757 36.3996 43.2757 34.1553C43.2757 33.5323 42.7708 33.0273 42.1477 33.0273C41.5246 33.0273 41.0198 33.5323 41.0198 34.1553C41.0198 35.5443 39.8897 36.6743 38.5007 36.6743C37.1117 36.6743 35.9817 35.5443 35.9817 34.1553C35.9817 33.5323 35.4768 33.0273 34.8537 33.0273C34.2307 33.0273 33.7258 33.5323 33.7258 34.1553C33.7258 36.3996 35.2826 38.2861 37.3728 38.7944V44.0724H33.2596C33.0627 42.9942 32.587 41.9719 31.8718 41.1155C30.579 39.5683 29.8671 37.6037 29.8671 35.5835Z" fill="black"/>
<path d="M49.092 58.4457C49.3088 59.2545 49.9211 59.8667 50.7299 60.0833L59.6314 62.4676C59.8344 62.5219 60.039 62.5485 60.2412 62.5485C60.8445 62.5485 61.425 62.3115 61.8683 61.8681C62.4603 61.276 62.6843 60.4399 62.4678 59.6311C62.4676 59.6311 62.4676 59.6311 62.4676 59.6311L60.0832 50.7299C59.8666 49.9212 59.2544 49.3088 58.4456 49.0921C57.6366 48.8753 56.8005 49.0995 56.2082 49.6914L55.3232 50.5765L53.2377 48.491C51.9292 47.1825 49.7999 47.1825 48.4912 48.491C47.1825 49.7996 47.1827 51.9288 48.4912 53.2374L50.5768 55.323L49.691 56.2085C49.0993 56.8007 48.8753 57.637 49.092 58.4457ZM50.0867 51.6423C49.6575 51.2132 49.6575 50.5151 50.0867 50.0862C50.3012 49.8718 50.583 49.7645 50.8647 49.7645C51.1464 49.7645 51.4282 49.8718 51.6427 50.0862L54.5258 52.9694C54.7374 53.181 55.0242 53.2998 55.3235 53.2998C55.6228 53.2998 55.9094 53.181 56.1211 52.9694L57.8037 51.2868C57.8153 51.2752 57.8279 51.2621 57.8619 51.2711C57.8955 51.2802 57.9003 51.2979 57.9045 51.3137L60.2891 60.215C60.2931 60.2307 60.2981 60.2486 60.2734 60.2731C60.2492 60.2974 60.2312 60.2931 60.2154 60.2887L51.3136 57.9043C51.298 57.9001 51.2799 57.8953 51.2711 57.8617C51.262 57.8282 51.2751 57.8151 51.2865 57.8038L52.9697 56.1208C53.1813 55.9092 53.3001 55.6224 53.3001 55.3231C53.3001 55.024 53.1813 54.7371 52.9699 54.5256L50.0867 51.6423Z" fill="black"/>
<path d="M27.9081 18.5538C27.6911 17.745 27.0789 17.1329 26.2708 16.9168L17.3704 14.5334C16.5633 14.3161 15.7261 14.5393 15.1332 15.131C14.5404 15.7231 14.3154 16.5594 14.532 17.3684L15.2448 20.0318C15.4059 20.6334 16.0241 20.9906 16.6261 20.8298C17.2279 20.6687 17.5852 20.0503 17.4241 19.4486L16.7113 16.7853C16.7074 16.7706 16.7024 16.7522 16.7272 16.7274C16.7517 16.7031 16.769 16.7079 16.7856 16.7121L25.6876 19.0959C25.703 19.1 25.7203 19.1047 25.7291 19.1382C25.7385 19.1723 25.7248 19.186 25.7138 19.197L24.0309 20.8799C23.8193 21.0913 23.7005 21.3783 23.7005 21.6774C23.7005 21.9765 23.8193 22.2635 24.0308 22.4749L26.9138 25.3579C27.1219 25.566 27.2365 25.8425 27.2365 26.1362C27.2365 26.4296 27.1221 26.7054 26.9138 26.9134C26.7056 27.1215 26.4292 27.2361 26.1355 27.2361C25.8421 27.2361 25.5663 27.1217 25.3583 26.9134L22.4753 24.0304C22.2637 23.8188 21.9769 23.7 21.6776 23.7C21.3783 23.7 21.0917 23.8188 20.8799 24.0304L19.1972 25.7133C19.1864 25.7243 19.1723 25.7379 19.1386 25.7288C19.105 25.7197 19.1004 25.7024 19.0963 25.6868L18.7279 24.3107C18.5668 23.7089 17.9478 23.3515 17.3465 23.5129C16.7447 23.674 16.3875 24.2925 16.5485 24.8942L16.917 26.2699C17.1331 27.0784 17.7452 27.6906 18.5542 27.9076C19.3639 28.1248 20.2002 27.9009 20.7924 27.3085L21.6776 26.4233L23.7625 28.508C24.3961 29.1426 25.2387 29.4921 26.1355 29.4921C27.0318 29.4921 27.8746 29.1428 28.5082 28.5093C29.1429 27.8759 29.4924 27.0331 29.4924 26.1363C29.4924 25.24 29.1432 24.3971 28.509 23.7629L26.4235 21.6774L27.309 20.792C27.9012 20.1998 28.1252 19.363 27.9081 18.5538Z" fill="black"/>
<path d="M28.5087 48.4916C27.2002 47.1831 25.0708 47.1831 23.7621 48.4916L21.6768 50.5771L20.7911 49.6916C20.199 49.0997 19.3632 48.8753 18.5541 49.0921C17.7453 49.3089 17.133 49.9212 16.9165 50.73L14.532 59.6317C14.3156 60.4405 14.5397 61.2766 15.1316 61.8687C15.575 62.3121 16.1555 62.5491 16.7586 62.5491C16.9607 62.5491 17.1655 62.5225 17.3684 62.468L26.2697 60.0834C27.0785 59.8667 27.6908 59.2546 27.9075 58.4458C28.1242 57.6372 27.9002 56.8009 27.3082 56.2088L26.423 55.3236L28.5086 53.2381C29.8173 51.9293 29.8173 49.8002 28.5087 48.4916ZM26.9134 51.6428L24.0304 54.5258C23.8188 54.7372 23.7 55.0241 23.7 55.3233C23.7 55.6224 23.8188 55.9093 24.0304 56.1208L25.713 57.8035C25.7244 57.8149 25.7375 57.828 25.7286 57.8616C25.7197 57.8951 25.7018 57.8999 25.6862 57.9041L16.7849 60.2889C16.7692 60.2931 16.7515 60.2979 16.7268 60.2734C16.7022 60.2487 16.707 60.231 16.7112 60.2152L19.0956 51.3136C19.0997 51.2979 19.1047 51.28 19.138 51.271C19.1459 51.2689 19.1525 51.268 19.1583 51.268C19.1774 51.268 19.1871 51.2776 19.1961 51.2866L20.8793 52.9697C21.3196 53.4102 22.0338 53.41 22.4743 52.9697L25.3573 50.0867C25.7862 49.6579 26.4845 49.6576 26.9134 50.0867C27.3426 50.5157 27.3426 51.2139 26.9134 51.6428Z" fill="black"/>
<path d="M48.4912 28.5086C49.1455 29.1629 50.0049 29.49 50.8643 29.49C51.7238 29.49 52.5835 29.1629 53.2377 28.5086L55.323 26.4231L56.2086 27.3086C56.8009 27.9007 57.6369 28.1251 58.4457 27.9081C59.2545 27.6914 59.8667 27.079 60.0833 26.2702L62.4677 17.3686C62.6841 16.5597 62.4601 15.7236 61.8681 15.1315C61.2762 14.5396 60.4396 14.3155 59.6314 14.5322L50.73 16.9168C49.9212 17.1335 49.309 17.7456 49.0923 18.5544C48.8756 19.363 49.0995 20.1994 49.6916 20.7914L50.5768 21.6766L48.4912 23.7621C47.1826 25.071 47.1826 27.2 48.4912 28.5086ZM50.0865 25.3575L52.9695 22.4745C53.1811 22.263 53.2999 21.9761 53.2999 21.6769C53.2999 21.3778 53.1811 21.0909 52.9695 20.8794L51.2869 19.1967C51.2755 19.1853 51.2624 19.1722 51.2713 19.1386C51.2802 19.1051 51.2981 19.1003 51.3137 19.0961L60.215 16.7115H60.2152C60.2213 16.7098 60.2278 16.708 60.235 16.708C60.2459 16.708 60.2582 16.7121 60.2731 16.727C60.2977 16.7516 60.2929 16.7694 60.2887 16.7852L57.9043 25.6868C57.9002 25.7024 57.8953 25.7203 57.8619 25.7294C57.8286 25.7381 57.8154 25.7253 57.8038 25.7137L56.1206 24.0307C55.6803 23.5902 54.9661 23.5904 54.5256 24.0307L51.6426 26.9137C51.214 27.3426 50.5157 27.3429 50.0865 26.9137C49.6573 26.4845 49.6573 25.7864 50.0865 25.3575Z" fill="black"/>
<path d="M70.6175 62.0646V14.9357C73.1325 14.554 75.3174 12.9134 76.3631 10.5402C76.6142 9.97005 76.3557 9.30442 75.7857 9.05312C75.2156 8.80181 74.55 9.06049 74.2987 9.63047C73.4601 11.5332 71.5748 12.7631 69.4946 12.7651C69.4929 12.7651 69.4913 12.7648 69.4894 12.7648C69.4875 12.7648 69.4855 12.7651 69.4836 12.7651C66.5908 12.7619 64.2381 10.4092 64.2349 7.51642C64.2349 7.51446 64.2352 7.51266 64.2352 7.51055C64.2352 7.50845 64.2349 7.50664 64.2349 7.50469C64.2384 4.60995 66.5941 2.25587 69.4896 2.25587C71.5719 2.25587 73.4595 3.48638 74.2988 5.39063C74.5501 5.96062 75.2158 6.21929 75.7859 5.96799C76.3559 5.71683 76.6144 5.05105 76.3632 4.48092C75.1636 1.75883 72.4655 0 69.4896 0C65.7316 0 62.6098 2.77442 62.064 6.38262H14.9355C14.3898 2.77472 11.2679 0.000451175 7.51025 0.000451175C3.36922 0.000451175 0 3.36952 0 7.51055C0 11.2684 2.77442 14.3902 6.38231 14.936V62.0646C2.77457 62.6102 0 65.7321 0 69.4899C0 73.6309 3.36907 77 7.51025 77C11.2679 77 14.3898 74.2257 14.9355 70.6178H53.3466C53.9696 70.6178 54.4745 70.1128 54.4745 69.4899C54.4745 68.867 53.9696 68.362 53.3466 68.362H14.9355C14.4454 65.1222 11.8781 62.5547 8.63834 62.0646V14.9358C11.8781 14.4457 14.4454 11.8782 14.9355 8.63849H62.064C62.5541 11.8785 65.1216 14.4462 68.3617 14.9361V62.0646C65.1219 62.5547 62.5546 65.1222 62.0645 68.362H58.5954C57.9723 68.362 57.4674 68.867 57.4674 69.4899C57.4674 70.1128 57.9723 70.6178 58.5954 70.6178H62.0645C62.6102 74.2257 65.7321 77 69.4897 77C73.6308 77 77 73.6309 77 69.4899C77 65.7321 74.2254 62.6102 70.6175 62.0646ZM12.7645 69.4899C12.7645 72.387 10.4074 74.7441 7.5101 74.7441C4.61281 74.7441 2.25587 72.387 2.25587 69.4899C2.25587 66.5929 4.61251 64.2361 7.50935 64.2355H7.5104H7.5113C10.4081 64.2361 12.7645 66.5931 12.7645 69.4899ZM7.5113 12.7648C7.511 12.7648 7.5107 12.7648 7.5104 12.7648C7.5101 12.7648 7.5098 12.7648 7.50935 12.7648C4.61251 12.7643 2.25587 10.4075 2.25587 7.51055C2.25587 4.61341 4.61296 2.25632 7.51025 2.25632C10.4075 2.25632 12.7645 4.61341 12.7645 7.51055C12.7645 10.4074 10.4081 12.7643 7.5113 12.7648ZM69.4897 74.7441C66.5925 74.7441 64.2354 72.387 64.2354 69.4899C64.2354 66.5931 66.5919 64.2361 69.4885 64.2355H69.4894H69.4905C72.3873 64.236 74.744 66.5929 74.744 69.4899C74.7441 72.387 72.387 74.7441 69.4897 74.7441Z" fill="black"/>
</g>
<defs>
<clipPath id="clip0_325_14250">
<rect width="77" height="77" fill="white"/>
</clipPath>
</defs>
</svg>
