<svg width="104" height="100" viewBox="0 0 104 100" fill="none" xmlns="http://www.w3.org/2000/svg">
<g clip-path="url(#clip0_278_8393)">
<path d="M45.4839 81.25H8.44058C6.30561 81.2475 4.25881 80.4236 2.74916 78.959C1.2395 77.4944 0.390253 75.5087 0.387695 73.4375L0.387695 7.8125C0.390253 5.74126 1.2395 3.75556 2.74916 2.29097C4.25881 0.826378 6.30561 0.00248103 8.44058 0L11.6617 0V3.125H8.44058C7.15913 3.125 5.93016 3.61886 5.02403 4.49794C4.11791 5.37701 3.60885 6.5693 3.60885 7.8125V73.4375C3.60885 74.6807 4.11791 75.873 5.02403 76.7521C5.93016 77.6311 7.15913 78.125 8.44058 78.125H45.4839V81.25Z" fill="url(#paint0_linear_278_8393)"/>
<path d="M14.8828 0H18.1056V3.125H14.8828V0Z" fill="url(#paint1_linear_278_8393)"/>
<path d="M95.4117 81.25V78.125C96.6932 78.125 97.9221 77.6311 98.8283 76.7521C99.7344 75.873 100.243 74.6807 100.243 73.4375V7.8125C100.243 6.5693 99.7344 5.37701 98.8283 4.49794C97.9221 3.61886 96.6932 3.125 95.4117 3.125H21.3252V0H95.4117C97.5467 0.00248103 99.5935 0.826378 101.103 2.29097C102.613 3.75556 103.462 5.74126 103.465 7.8125V73.4375C103.462 75.5087 102.613 77.4944 101.103 78.959C99.5935 80.4236 97.5467 81.2475 95.4117 81.25Z" fill="url(#paint2_linear_278_8393)"/>
<path d="M31.0381 85.5908L32.6517 79.3419L35.7762 80.1013L34.1626 86.3502L31.0381 85.5908Z" fill="url(#paint3_linear_278_8393)"/>
<path d="M45.4839 93.75H29.3782C28.951 93.75 28.5413 93.5854 28.2393 93.2924C27.9373 92.9993 27.7676 92.6019 27.7676 92.1875V89.0625C27.7676 87.8193 28.2766 86.627 29.1828 85.7479C30.0889 84.8689 31.3179 84.375 32.5993 84.375H45.4839V87.5H32.5993C32.1722 87.5 31.7625 87.6646 31.4605 87.9576C31.1584 88.2507 30.9887 88.6481 30.9887 89.0625V90.625H45.4839V93.75Z" fill="url(#paint4_linear_278_8393)"/>
<path d="M1.99805 65.625H45.4836V68.75H1.99805V65.625Z" fill="url(#paint5_linear_278_8393)"/>
<path d="M6.83008 71.875H10.0512V75H6.83008V71.875Z" fill="url(#paint6_linear_278_8393)"/>
<path d="M13.2725 71.875H22.9359V75H13.2725V71.875Z" fill="url(#paint7_linear_278_8393)"/>
<path d="M88.9695 100H56.758C54.623 99.9975 52.5762 99.1736 51.0665 97.709C49.5569 96.2444 48.7076 94.2587 48.7051 92.1875V29.6875C48.7076 27.6163 49.5569 25.6306 51.0665 24.166C52.5762 22.7014 54.623 21.8775 56.758 21.875H88.9695C91.1045 21.8775 93.1513 22.7014 94.6609 24.166C96.1706 25.6306 97.0198 27.6163 97.0224 29.6875V92.1875C97.0198 94.2587 96.1706 96.2444 94.6609 97.709C93.1513 99.1736 91.1045 99.9975 88.9695 100ZM56.758 25C55.4765 25 54.2475 25.4939 53.3414 26.3729C52.4353 27.252 51.9262 28.4443 51.9262 29.6875V92.1875C51.9262 93.4307 52.4353 94.623 53.3414 95.5021C54.2475 96.3811 55.4765 96.875 56.758 96.875H88.9695C90.251 96.875 91.4799 96.3811 92.386 95.5021C93.2922 94.623 93.8012 93.4307 93.8012 92.1875V29.6875C93.8012 28.4443 93.2922 27.252 92.386 26.3729C91.4799 25.4939 90.251 25 88.9695 25H56.758Z" fill="url(#paint8_linear_278_8393)"/>
<path d="M80.9164 37.5H64.8106C61.7924 37.5 60.5281 34.95 60.1287 32.8125H50.3154V29.6875H61.5895C62.0166 29.6875 62.4263 29.8521 62.7283 30.1451C63.0304 30.4382 63.2 30.8356 63.2 31.25C63.2 31.2766 63.2902 34.375 64.8106 34.375H80.9164C82.4368 34.375 82.527 31.2766 82.527 31.25C82.527 30.8356 82.6967 30.4382 82.9987 30.1451C83.3007 29.8521 83.7104 29.6875 84.1375 29.6875H95.4116V32.8125H85.5983C85.1989 34.95 83.9346 37.5 80.9164 37.5Z" fill="url(#paint9_linear_278_8393)"/>
<path d="M66.4209 28.125H79.3055V31.25H66.4209V28.125Z" fill="url(#paint10_linear_278_8393)"/>
<path d="M66.4209 92.1875H79.3055V95.3125H66.4209V92.1875Z" fill="url(#paint11_linear_278_8393)"/>
<path d="M50.3154 87.5H95.4116V90.625H50.3154V87.5Z" fill="url(#paint12_linear_278_8393)"/>
<path d="M29.3782 43.75H22.9358C22.5087 43.75 22.099 43.5854 21.797 43.2924C21.495 42.9993 21.3253 42.6019 21.3253 42.1875V39.8969C20.4259 39.622 19.5534 39.2707 18.7177 38.8469L17.046 40.4688C16.7439 40.7617 16.3344 40.9262 15.9073 40.9262C15.4802 40.9262 15.0706 40.7617 14.7686 40.4688L10.2123 36.0484C9.91035 35.7554 9.74074 35.3581 9.74074 34.9438C9.74074 34.5294 9.91035 34.1321 10.2123 33.8391L11.8825 32.2172C11.4462 31.4065 11.0845 30.5599 10.8018 29.6875H8.44066C8.0135 29.6875 7.60385 29.5229 7.30181 29.2299C6.99976 28.9368 6.83008 28.5394 6.83008 28.125V21.875C6.83008 21.4606 6.99976 21.0632 7.30181 20.7701C7.60385 20.4771 8.0135 20.3125 8.44066 20.3125H10.8018C11.085 19.44 11.4472 18.5935 11.8841 17.7828L10.2123 16.1609C9.91035 15.8679 9.74074 15.4706 9.74074 15.0562C9.74074 14.6419 9.91035 14.2446 10.2123 13.9516L14.7686 9.53125C15.0706 9.23833 15.4802 9.07377 15.9073 9.07377C16.3344 9.07377 16.7439 9.23833 17.046 9.53125L18.7177 11.1516C19.5534 10.7283 20.426 10.3774 21.3253 10.1031V7.8125C21.3253 7.3981 21.495 7.00067 21.797 6.70765C22.099 6.41462 22.5087 6.25 22.9358 6.25H29.3782C29.8053 6.25 30.215 6.41462 30.517 6.70765C30.819 7.00067 30.9887 7.3981 30.9887 7.8125V10.1031C31.8881 10.378 32.7606 10.7293 33.5963 11.1531L35.268 9.53125C35.5701 9.23833 35.9796 9.07377 36.4067 9.07377C36.8338 9.07377 37.2434 9.23833 37.5454 9.53125L42.1017 13.9516C42.4036 14.2446 42.5733 14.6419 42.5733 15.0562C42.5733 15.4706 42.4036 15.8679 42.1017 16.1609L40.4315 17.7828C40.8678 18.5935 41.2295 19.44 41.5122 20.3125H43.8733C44.3005 20.3125 44.7102 20.4771 45.0122 20.7701C45.3142 21.0632 45.4839 21.4606 45.4839 21.875V28.125C45.4839 28.5394 45.3142 28.9368 45.0122 29.2299C44.7102 29.5229 44.3005 29.6875 43.8733 29.6875H41.5122C41.229 30.56 40.8668 31.4065 40.4299 32.2172L42.1017 33.8391C42.4036 34.1321 42.5733 34.5294 42.5733 34.9438C42.5733 35.3581 42.4036 35.7554 42.1017 36.0484L37.5454 40.4688C37.2434 40.7617 36.8338 40.9262 36.4067 40.9262C35.9796 40.9262 35.5701 40.7617 35.268 40.4688L33.5963 38.8484C32.7606 39.2717 31.888 39.6226 30.9887 39.8969V42.1875C30.9887 42.6019 30.819 42.9993 30.517 43.2924C30.215 43.5854 29.8053 43.75 29.3782 43.75ZM24.5464 40.625H27.7676V38.7031C27.7672 38.3488 27.8911 38.0048 28.1187 37.7277C28.3464 37.4506 28.6644 37.2568 29.0206 37.1781C30.4325 36.8665 31.7795 36.3239 33.0036 35.5734C33.3127 35.3842 33.6789 35.3027 34.0422 35.3422C34.4054 35.3816 34.744 35.5398 35.0023 35.7906L36.4067 37.1531L38.6841 34.9438L37.2796 33.5813C37.0211 33.3306 36.8581 33.0022 36.8174 32.6498C36.7767 32.2974 36.8608 31.9421 37.0558 31.6422C37.8293 30.4546 38.3886 29.1479 38.7098 27.7781C38.7909 27.4326 38.9907 27.1241 39.2763 26.9032C39.5619 26.6823 39.9165 26.5622 40.2818 26.5625H42.2628V23.4375H40.2818C39.9165 23.4378 39.5619 23.3177 39.2763 23.0968C38.9907 22.8759 38.7909 22.5674 38.7098 22.2219C38.3886 20.8521 37.8293 19.5454 37.0558 18.3578C36.8608 18.0579 36.7767 17.7026 36.8174 17.3502C36.8581 16.9978 37.0211 16.6694 37.2796 16.4188L38.6841 15.0562L36.4067 12.8469L35.0023 14.2094C34.744 14.4602 34.4054 14.6184 34.0422 14.6578C33.6789 14.6973 33.3127 14.6158 33.0036 14.4266C31.7795 13.6761 30.4325 13.1335 29.0206 12.8219C28.6644 12.7432 28.3464 12.5494 28.1187 12.2723C27.8911 11.9952 27.7672 11.6512 27.7676 11.2969V9.375H24.5464V11.2969C24.5468 11.6512 24.4229 11.9952 24.1953 12.2723C23.9676 12.5494 23.6496 12.7432 23.2934 12.8219C21.8815 13.1335 20.5345 13.6761 19.3104 14.4266C19.0013 14.6158 18.6351 14.6973 18.2718 14.6578C17.9086 14.6184 17.57 14.4602 17.3117 14.2094L15.9073 12.8469L13.6299 15.0562L15.0344 16.4188C15.2929 16.6694 15.4559 16.9978 15.4966 17.3502C15.5373 17.7026 15.4532 18.0579 15.2582 18.3578C14.4847 19.5454 13.9254 20.8521 13.6042 22.2219C13.5231 22.5674 13.3233 22.8759 13.0377 23.0968C12.7521 23.3177 12.3975 23.4378 12.0322 23.4375H10.0512V26.5625H12.0322C12.3975 26.5622 12.7521 26.6823 13.0377 26.9032C13.3233 27.1241 13.5231 27.4326 13.6042 27.7781C13.9254 29.1479 14.4847 30.4546 15.2582 31.6422C15.4532 31.9421 15.5373 32.2974 15.4966 32.6498C15.4559 33.0022 15.2929 33.3306 15.0344 33.5813L13.6299 34.9438L15.9073 37.1531L17.3117 35.7906C17.57 35.5398 17.9086 35.3816 18.2718 35.3422C18.6351 35.3027 19.0013 35.3842 19.3104 35.5734C20.5345 36.3239 21.8815 36.8665 23.2934 37.1781C23.6496 37.2568 23.9676 37.4506 24.1953 37.7277C24.4229 38.0048 24.5468 38.3488 24.5464 38.7031V40.625Z" fill="url(#paint13_linear_278_8393)"/>
<path d="M26.1574 32.8125C24.5647 32.8125 23.0077 32.3543 21.6834 31.4959C20.3591 30.6374 19.327 29.4173 18.7175 27.9897C18.108 26.5622 17.9485 24.9913 18.2592 23.4759C18.57 21.9604 19.3369 20.5683 20.4631 19.4757C21.5893 18.3831 23.0242 17.6391 24.5863 17.3376C26.1484 17.0362 27.7676 17.1909 29.2391 17.7822C30.7106 18.3735 31.9682 19.3749 32.8531 20.6596C33.738 21.9444 34.2103 23.4548 34.2103 25C34.2077 27.0712 33.3585 29.0569 31.8488 30.5215C30.3392 31.9861 28.2924 32.81 26.1574 32.8125ZM26.1574 20.3125C25.2018 20.3125 24.2676 20.5874 23.473 21.1025C22.6784 21.6176 22.0591 22.3496 21.6934 23.2062C21.3277 24.0627 21.2321 25.0052 21.4185 25.9145C21.6049 26.8238 22.0651 27.659 22.7408 28.3146C23.4166 28.9701 24.2775 29.4166 25.2148 29.5974C26.152 29.7783 27.1235 29.6855 28.0064 29.3307C28.8893 28.9759 29.6439 28.3751 30.1748 27.6042C30.7057 26.8334 30.9891 25.9271 30.9891 25C30.9891 23.7568 30.4801 22.5645 29.5739 21.6854C28.6678 20.8064 27.4388 20.3125 26.1574 20.3125Z" fill="url(#paint14_linear_278_8393)"/>
<path d="M27.7671 64.0625H24.5459V57.8125C24.5459 57.3981 24.7156 57.0007 25.0176 56.7076C25.3197 56.4146 25.7293 56.25 26.1565 56.25H28.5176C28.8009 55.3775 29.163 54.531 29.5999 53.7203L27.9281 52.0984C27.6262 51.8054 27.4566 51.4081 27.4566 50.9938C27.4566 50.5794 27.6262 50.1821 27.9281 49.8891L32.4844 45.4688C32.7865 45.1758 33.196 45.0113 33.6231 45.0113C34.0502 45.0113 34.4598 45.1758 34.7618 45.4688L36.4336 47.0891C37.2692 46.6658 38.1418 46.3149 39.0411 46.0406V43.75C39.0411 43.3356 39.2108 42.9382 39.5128 42.6451C39.8149 42.3521 40.2245 42.1875 40.6517 42.1875H47.094V45.3125H42.2622V47.2344C42.2626 47.5887 42.1388 47.9327 41.9111 48.2098C41.6834 48.4869 41.3654 48.6807 41.0092 48.7594C39.5973 49.071 38.2504 49.6136 37.0263 50.3641C36.7171 50.5533 36.3509 50.6348 35.9877 50.5953C35.6244 50.5559 35.2859 50.3977 35.0275 50.1469L33.6231 48.7844L31.3458 50.9938L32.7502 52.3562C33.0087 52.6069 33.1718 52.9353 33.2124 53.2877C33.2531 53.6401 33.1691 53.9954 32.974 54.2953C32.2005 55.4829 31.6412 56.7896 31.32 58.1594C31.2389 58.5049 31.0391 58.8134 30.7535 59.0343C30.4679 59.2552 30.1133 59.3753 29.7481 59.375H27.7671V64.0625Z" fill="url(#paint15_linear_278_8393)"/>
<path d="M39.0415 60.9375H35.8203C35.8229 58.8663 36.6721 56.8806 38.1818 55.416C39.6914 53.9514 41.7382 53.1275 43.8732 53.125V56.25C42.5917 56.25 41.3628 56.7439 40.4566 57.6229C39.5505 58.502 39.0415 59.6943 39.0415 60.9375Z" fill="url(#paint16_linear_278_8393)"/>
<path d="M72.8638 78.125C69.3599 78.125 65.9346 77.117 63.0211 75.2284C60.1077 73.3398 57.837 70.6555 56.496 67.5149C55.1551 64.3743 54.8043 60.9184 55.4879 57.5844C56.1715 54.2503 57.8588 51.1878 60.3365 48.7841C62.8141 46.3804 65.9709 44.7434 69.4075 44.0803C72.8442 43.4171 76.4063 43.7574 79.6436 45.0583C82.8808 46.3592 85.6477 48.5622 87.5944 51.3886C89.5411 54.2151 90.5802 57.5381 90.5802 60.9375C90.5746 65.4943 88.7063 69.8629 85.385 73.085C82.0638 76.3071 77.5608 78.1196 72.8638 78.125ZM72.8638 46.875C69.9969 46.875 67.1944 47.6998 64.8107 49.245C62.427 50.7902 60.5691 52.9864 59.472 55.556C58.3749 58.1256 58.0878 60.9531 58.6471 63.681C59.2064 66.4088 60.587 68.9145 62.6142 70.8812C64.6414 72.8479 67.2242 74.1872 70.0359 74.7298C72.8477 75.2724 75.7622 74.9939 78.4109 73.9296C81.0595 72.8652 83.3234 71.0628 84.9161 68.7502C86.5089 66.4376 87.359 63.7188 87.359 60.9375C87.3543 57.2093 85.8256 53.6351 83.1083 50.9988C80.3909 48.3626 76.7067 46.8796 72.8638 46.875Z" fill="url(#paint17_linear_278_8393)"/>
<path d="M69.6426 71.875C69.2155 71.8749 68.8059 71.7103 68.5039 71.4172L60.451 63.6047C60.1491 63.3117 59.9795 62.9144 59.9795 62.5C59.9795 62.0857 60.1491 61.6884 60.451 61.3953L65.2828 56.7078C65.5848 56.4149 65.9944 56.2504 66.4215 56.2504C66.8485 56.2504 67.2581 56.4149 67.5601 56.7078L69.6426 58.7282L78.1674 50.4578C78.4694 50.1649 78.879 50.0004 79.3061 50.0004C79.7331 50.0004 80.1427 50.1649 80.4447 50.4578L85.2765 55.1453C85.5784 55.4384 85.748 55.8357 85.748 56.25C85.748 56.6644 85.5784 57.0617 85.2765 57.3547L70.7813 71.4172C70.4793 71.7103 70.0697 71.8749 69.6426 71.875ZM63.8671 62.5L69.6426 68.1032L81.8604 56.25L79.3061 53.7719L70.7813 62.0422C70.4793 62.3351 70.0697 62.4997 69.6426 62.4997C69.2155 62.4997 68.806 62.3351 68.5039 62.0422L66.4215 60.0219L63.8671 62.5Z" fill="url(#paint18_linear_278_8393)"/>
<path d="M92.1904 6.25H95.4116V9.375H92.1904V6.25Z" fill="url(#paint19_linear_278_8393)"/>
<path d="M68.0322 6.25H88.9697V9.375H68.0322V6.25Z" fill="url(#paint20_linear_278_8393)"/>
</g>
<defs>
<linearGradient id="paint0_linear_278_8393" x1="22.9358" y1="0" x2="22.9358" y2="81.25" gradientUnits="userSpaceOnUse">
<stop offset="0.583333" stop-color="#603C93"/>
<stop offset="1" stop-color="#AE806C"/>
</linearGradient>
<linearGradient id="paint1_linear_278_8393" x1="16.4942" y1="0" x2="16.4942" y2="3.125" gradientUnits="userSpaceOnUse">
<stop offset="0.583333" stop-color="#603C93"/>
<stop offset="1" stop-color="#AE806C"/>
</linearGradient>
<linearGradient id="paint2_linear_278_8393" x1="62.3949" y1="0" x2="62.3949" y2="81.25" gradientUnits="userSpaceOnUse">
<stop offset="0.583333" stop-color="#603C93"/>
<stop offset="1" stop-color="#AE806C"/>
</linearGradient>
<linearGradient id="paint3_linear_278_8393" x1="31.8449" y1="82.4664" x2="34.9579" y2="83.2702" gradientUnits="userSpaceOnUse">
<stop offset="0.583333" stop-color="#603C93"/>
<stop offset="1" stop-color="#AE806C"/>
</linearGradient>
<linearGradient id="paint4_linear_278_8393" x1="36.6258" y1="84.375" x2="36.6258" y2="93.75" gradientUnits="userSpaceOnUse">
<stop offset="0.583333" stop-color="#603C93"/>
<stop offset="1" stop-color="#AE806C"/>
</linearGradient>
<linearGradient id="paint5_linear_278_8393" x1="23.7408" y1="65.625" x2="23.7408" y2="68.75" gradientUnits="userSpaceOnUse">
<stop offset="0.583333" stop-color="#603C93"/>
<stop offset="1" stop-color="#AE806C"/>
</linearGradient>
<linearGradient id="paint6_linear_278_8393" x1="8.44065" y1="71.875" x2="8.44065" y2="75" gradientUnits="userSpaceOnUse">
<stop offset="0.583333" stop-color="#603C93"/>
<stop offset="1" stop-color="#AE806C"/>
</linearGradient>
<linearGradient id="paint7_linear_278_8393" x1="18.1042" y1="71.875" x2="18.1042" y2="75" gradientUnits="userSpaceOnUse">
<stop offset="0.583333" stop-color="#603C93"/>
<stop offset="1" stop-color="#AE806C"/>
</linearGradient>
<linearGradient id="paint8_linear_278_8393" x1="72.8637" y1="21.875" x2="72.8637" y2="100" gradientUnits="userSpaceOnUse">
<stop offset="0.583333" stop-color="#603C93"/>
<stop offset="1" stop-color="#AE806C"/>
</linearGradient>
<linearGradient id="paint9_linear_278_8393" x1="72.8635" y1="29.6875" x2="72.8635" y2="37.5" gradientUnits="userSpaceOnUse">
<stop offset="0.583333" stop-color="#603C93"/>
<stop offset="1" stop-color="#AE806C"/>
</linearGradient>
<linearGradient id="paint10_linear_278_8393" x1="72.8632" y1="28.125" x2="72.8632" y2="31.25" gradientUnits="userSpaceOnUse">
<stop offset="0.583333" stop-color="#603C93"/>
<stop offset="1" stop-color="#AE806C"/>
</linearGradient>
<linearGradient id="paint11_linear_278_8393" x1="72.8632" y1="92.1875" x2="72.8632" y2="95.3125" gradientUnits="userSpaceOnUse">
<stop offset="0.583333" stop-color="#603C93"/>
<stop offset="1" stop-color="#AE806C"/>
</linearGradient>
<linearGradient id="paint12_linear_278_8393" x1="72.8635" y1="87.5" x2="72.8635" y2="90.625" gradientUnits="userSpaceOnUse">
<stop offset="0.583333" stop-color="#603C93"/>
<stop offset="1" stop-color="#AE806C"/>
</linearGradient>
<linearGradient id="paint13_linear_278_8393" x1="26.157" y1="6.25" x2="26.157" y2="43.75" gradientUnits="userSpaceOnUse">
<stop offset="0.583333" stop-color="#603C93"/>
<stop offset="1" stop-color="#AE806C"/>
</linearGradient>
<linearGradient id="paint14_linear_278_8393" x1="26.1574" y1="17.1875" x2="26.1574" y2="32.8125" gradientUnits="userSpaceOnUse">
<stop offset="0.583333" stop-color="#603C93"/>
<stop offset="1" stop-color="#AE806C"/>
</linearGradient>
<linearGradient id="paint15_linear_278_8393" x1="35.8199" y1="42.1875" x2="35.8199" y2="64.0625" gradientUnits="userSpaceOnUse">
<stop offset="0.583333" stop-color="#603C93"/>
<stop offset="1" stop-color="#AE806C"/>
</linearGradient>
<linearGradient id="paint16_linear_278_8393" x1="39.8468" y1="53.125" x2="39.8468" y2="60.9375" gradientUnits="userSpaceOnUse">
<stop offset="0.583333" stop-color="#603C93"/>
<stop offset="1" stop-color="#AE806C"/>
</linearGradient>
<linearGradient id="paint17_linear_278_8393" x1="72.8638" y1="43.75" x2="72.8638" y2="78.125" gradientUnits="userSpaceOnUse">
<stop offset="0.583333" stop-color="#603C93"/>
<stop offset="1" stop-color="#AE806C"/>
</linearGradient>
<linearGradient id="paint18_linear_278_8393" x1="72.8638" y1="50.0004" x2="72.8638" y2="71.875" gradientUnits="userSpaceOnUse">
<stop offset="0.583333" stop-color="#603C93"/>
<stop offset="1" stop-color="#AE806C"/>
</linearGradient>
<linearGradient id="paint19_linear_278_8393" x1="93.801" y1="6.25" x2="93.801" y2="9.375" gradientUnits="userSpaceOnUse">
<stop offset="0.583333" stop-color="#603C93"/>
<stop offset="1" stop-color="#AE806C"/>
</linearGradient>
<linearGradient id="paint20_linear_278_8393" x1="78.501" y1="6.25" x2="78.501" y2="9.375" gradientUnits="userSpaceOnUse">
<stop offset="0.583333" stop-color="#603C93"/>
<stop offset="1" stop-color="#AE806C"/>
</linearGradient>
<clipPath id="clip0_278_8393">
<rect width="103.077" height="100" fill="white" transform="translate(0.387695)"/>
</clipPath>
</defs>
</svg>
