<svg width="101" height="100" viewBox="0 0 101 100" fill="none" xmlns="http://www.w3.org/2000/svg">
<path d="M23.7359 52.1875H19.5342C16.8537 52.1875 14.6729 50.0205 14.6729 47.3571C14.6729 46.5479 14.0172 45.8922 13.208 45.8922C12.3988 45.8922 11.7432 46.5479 11.7432 47.3571C11.7432 51.636 15.2383 55.1172 19.5344 55.1172H23.7359C24.5451 55.1172 25.2008 54.4616 25.2008 53.6524C25.2008 52.8432 24.5451 52.1875 23.7359 52.1875Z" fill="url(#paint0_linear_278_8446)"/>
<path d="M37.5002 63.0289H24.9861C20.8529 63.0289 17.4902 66.378 17.4902 70.4949C17.4902 71.3041 18.1459 71.9598 18.9551 71.9598C19.7643 71.9598 20.4199 71.3039 20.4199 70.4949C20.4199 67.9936 22.4682 65.9586 24.9861 65.9586H37.5002C38.3094 65.9586 38.965 65.303 38.965 64.4938C38.965 63.6846 38.3094 63.0289 37.5002 63.0289Z" fill="url(#paint1_linear_278_8446)"/>
<path d="M49.4363 63.0289H43.3604C42.5512 63.0289 41.8955 63.6846 41.8955 64.4938C41.8955 65.303 42.5512 65.9586 43.3604 65.9586H49.4363C50.2455 65.9586 50.9012 65.303 50.9012 64.4938C50.9012 63.6846 50.2453 63.0289 49.4363 63.0289Z" fill="url(#paint2_linear_278_8446)"/>
<path d="M39.1361 34.5658C38.327 34.5658 37.6713 35.2217 37.6713 36.0306C37.6713 40.2193 34.2436 43.6269 30.0303 43.6269C29.2211 43.6269 28.5654 44.2826 28.5654 45.0918C28.5654 45.901 29.2211 46.5566 30.0303 46.5566C35.859 46.5566 40.601 41.8347 40.601 36.0306C40.601 35.2217 39.9453 34.5658 39.1361 34.5658Z" fill="url(#paint3_linear_278_8446)"/>
<path d="M36.4362 12.4211C32.9369 12.1965 29.9029 14.8494 29.676 18.3369C29.6235 19.1444 30.2354 19.8412 31.0426 19.894C31.075 19.8961 31.1072 19.8971 31.1393 19.8971C31.9049 19.8971 32.549 19.3022 32.5996 18.5274C32.7215 16.6508 34.3582 15.2256 36.2479 15.3447C37.0559 15.3988 37.7518 14.7846 37.8037 13.9772C37.8559 13.1697 37.2436 12.4733 36.4362 12.4211Z" fill="url(#paint4_linear_278_8446)"/>
<path d="M31.5098 69.5515C30.7006 69.5515 30.0449 70.2072 30.0449 71.0164C30.0449 71.8255 30.7006 72.4812 31.5098 72.4812C33.9287 72.4812 35.8967 74.4361 35.8967 76.8388C35.8967 79.2421 33.9287 81.197 31.5098 81.197C30.7006 81.197 30.0449 81.8527 30.0449 82.6619C30.0449 83.471 30.7006 84.1267 31.5098 84.1267C35.5441 84.1267 38.8264 80.8576 38.8264 76.8388C38.8264 72.8207 35.5441 69.5515 31.5098 69.5515Z" fill="url(#paint5_linear_278_8446)"/>
<path d="M46.501 35.0573C45.6918 35.0573 45.0361 35.7129 45.0361 36.5221C45.0361 37.3313 45.6918 37.9869 46.501 37.9869C48.4441 37.9869 50.0252 39.5567 50.0252 41.4864C50.0252 43.4162 48.4441 44.9862 46.501 44.9862C45.6918 44.9862 45.0361 45.6418 45.0361 46.451C45.0361 47.2602 45.6918 47.9158 46.501 47.9158C50.0598 47.9158 52.9549 45.0315 52.9549 41.4864C52.9549 37.9414 50.0598 35.0573 46.501 35.0573Z" fill="url(#paint6_linear_278_8446)"/>
<path d="M20.6963 25.7435C19.8871 25.7435 19.2314 26.3992 19.2314 27.2084C19.2314 28.0176 19.8871 28.6732 20.6963 28.6732C24.035 28.6732 26.751 31.3724 26.751 34.6904C26.751 38.0086 24.035 40.708 20.6963 40.708C19.8871 40.708 19.2314 41.3636 19.2314 42.1728C19.2314 42.982 19.8871 43.6377 20.6963 43.6377C25.6502 43.6377 29.6807 39.624 29.6807 34.6904C29.6807 29.757 25.6502 25.7435 20.6963 25.7435Z" fill="url(#paint7_linear_278_8446)"/>
<path d="M89.5598 25.6771C86.8064 25.6771 84.5664 27.9094 84.5664 30.6531C84.5664 33.397 86.8064 35.6293 89.5598 35.6293C92.3131 35.6293 94.5531 33.397 94.5531 30.6531C94.5531 27.9094 92.3131 25.6771 89.5598 25.6771ZM89.56 32.6998C88.4221 32.6998 87.4963 31.7818 87.4963 30.6533C87.4961 29.525 88.4219 28.607 89.56 28.607C90.6978 28.607 91.6236 29.525 91.6236 30.6533C91.6236 31.7816 90.6978 32.6998 89.56 32.6998Z" fill="url(#paint8_linear_278_8446)"/>
<path d="M94.4543 63.1676C91.7008 63.1676 89.4609 65.3998 89.4609 68.1438C89.4609 70.8877 91.701 73.1197 94.4543 73.1197C97.2076 73.1197 99.4475 70.8875 99.4475 68.1438C99.4475 65.4 97.2076 63.1676 94.4543 63.1676ZM94.4543 70.1901C93.3164 70.1901 92.3906 69.2721 92.3906 68.1438C92.3906 67.0155 93.3164 66.0973 94.4543 66.0973C95.5922 66.0973 96.5178 67.0153 96.5178 68.1438C96.518 69.2721 95.5922 70.1901 94.4543 70.1901Z" fill="url(#paint9_linear_278_8446)"/>
<path d="M91.3814 45.6115C90.5365 45.6117 89.7404 45.8226 89.0419 46.1935L86.1865 43.3521C85.6126 42.7814 84.6855 42.7839 84.115 43.3572C83.5443 43.9306 83.5466 44.858 84.1201 45.4287L86.9683 48.2628C86.5986 48.9574 86.388 49.7482 86.388 50.5875C86.388 53.3314 88.6281 55.5636 91.3814 55.5636C94.1349 55.5636 96.3748 53.3314 96.3748 50.5875C96.3748 47.8437 94.1347 45.6115 91.3814 45.6115ZM91.3816 52.6341C90.2437 52.6341 89.3179 51.7162 89.3179 50.5877C89.3179 49.4595 90.2437 48.5414 91.3816 48.5414C92.5195 48.5414 93.4453 49.4593 93.4453 50.5877C93.4453 51.716 92.5195 52.6341 91.3816 52.6341Z" fill="url(#paint10_linear_278_8446)"/>
<path d="M88.0803 78.4583C85.3268 78.4583 83.0869 80.6905 83.0869 83.4344C83.0869 86.1784 85.3269 88.4106 88.0803 88.4106C90.8338 88.4106 93.0736 86.1784 93.0736 83.4344C93.0736 80.6905 90.8338 78.4583 88.0803 78.4583ZM88.0803 85.4807C86.9424 85.4807 86.0166 84.5627 86.0166 83.4342C86.0166 82.3059 86.9424 81.3877 88.0803 81.3877C89.2182 81.3877 90.1439 82.3057 90.1439 83.4342C90.1441 84.5627 89.2184 85.4807 88.0803 85.4807Z" fill="url(#paint11_linear_278_8446)"/>
<path d="M70.941 27.5283C71.8721 27.5283 72.983 27.0697 73.643 26.4131L79.3019 20.7818C79.8707 21.0066 80.4894 21.1316 81.1373 21.1316C83.8908 21.1316 86.1307 18.8994 86.1307 16.1555C86.1307 13.4117 83.8906 11.1797 81.1373 11.1797C78.384 11.1797 76.1441 13.4119 76.1441 16.1555C76.1441 17.1857 76.46 18.1441 77.0006 18.9391L71.5769 24.3359C71.4623 24.4459 71.0994 24.5959 70.941 24.5986H58.85V14.902H62.251C62.8801 16.933 64.7812 18.4133 67.0232 18.4133C69.7767 18.4133 72.0166 16.1811 72.0166 13.4371C72.0166 10.6934 69.7766 8.46113 67.0232 8.46113C64.7812 8.46113 62.8801 9.94121 62.251 11.9723H58.85V11.7504C58.85 5.27109 53.556 0 47.0486 0C42.3967 0 38.2236 2.71133 36.3193 6.85703C36.0266 6.83633 35.7346 6.82578 35.4449 6.82578C28.6816 6.82578 23.1611 12.2254 23.0043 18.9227C22.4203 18.8395 21.8297 18.7975 21.2365 18.7975C14.3748 18.7975 8.79258 24.3557 8.79258 31.1875C8.79258 32.6871 9.05566 34.1381 9.57598 35.5184C4.4541 38.5574 1.32812 43.9863 1.32812 50C1.32812 53.2289 2.24785 56.3676 3.98769 59.0764C5.4209 61.3076 7.35176 63.1648 9.62285 64.509C9.07715 65.9232 8.79258 67.4377 8.79258 68.9584C8.79258 71.9744 9.89375 74.8809 11.8932 77.1424C12.4289 77.7484 13.3547 77.8055 13.9609 77.2695C14.5672 76.7336 14.624 75.808 14.0881 75.2018C12.5623 73.4762 11.7223 71.2588 11.7223 68.9582C11.7223 67.4105 12.0881 65.9344 12.8084 64.5703C13.6682 62.9373 15.0039 61.5584 16.6936 60.6436C17.4051 60.2582 17.6693 59.3693 17.284 58.658C16.8988 57.9463 16.0096 57.6816 15.2984 58.0676C13.5486 59.0154 12.0898 60.3445 10.999 61.918C6.81035 59.3982 4.25781 54.943 4.25781 50C4.25781 44.7148 7.18516 39.977 11.9113 37.5789C11.9113 37.5789 14.6461 36.0574 18.2766 36.0574C19.0857 36.0574 19.7414 35.4018 19.7414 34.5926C19.7414 33.7834 19.0857 33.1277 18.2766 33.1277C16.1484 33.1277 14.1113 33.5213 12.2332 34.2375C11.8965 33.2609 11.7227 32.2404 11.7227 31.1877C11.7227 25.9711 15.9906 21.7273 21.2369 21.7273C22.223 21.7273 23.1986 21.8783 24.1365 22.1762C24.6172 22.3287 25.1424 22.2234 25.5269 21.8973C25.9117 21.5711 26.1016 21.0703 26.0295 20.5711C25.9641 20.1164 25.9309 19.6605 25.9309 19.216C25.9309 13.9996 30.199 9.75566 35.4453 9.75566C35.9605 9.75566 36.4871 9.7998 37.0111 9.88594C41.5146 10.6309 44.9596 14.5299 44.9596 19.216C44.9596 20.0252 45.6152 20.6809 46.4244 20.6809C47.2336 20.6809 47.8892 20.0252 47.8892 19.216C47.8892 13.7273 44.2848 9.06387 39.3094 7.4416C40.856 4.69121 43.7955 2.92969 47.0486 2.92969C51.9404 2.92969 55.9203 6.88672 55.9203 11.7504V11.9131H53.1029C52.2937 11.9131 51.6381 12.5688 51.6381 13.3779C51.6381 14.1871 52.2937 14.8428 53.1029 14.8428H55.9203V24.5984H44.0726C41.392 24.5984 39.2111 22.4316 39.2111 19.7684C39.2111 18.9592 38.5555 18.3035 37.7463 18.3035C36.9371 18.3035 36.2814 18.9592 36.2814 19.7684C36.2814 24.0471 39.7766 27.5281 44.0726 27.5281H55.9203V52.1875H32.159C31.3498 52.1875 30.6941 52.8432 30.6941 53.6523C30.6941 54.4615 31.3498 55.1172 32.159 55.1172H55.9203V75.2297H51.3937C47.2605 75.2297 43.898 78.5787 43.898 82.6955C43.898 83.5047 44.5537 84.1604 45.3629 84.1604C46.1721 84.1604 46.8277 83.5047 46.8277 82.6955C46.8277 80.1943 48.876 78.1594 51.3937 78.1594H55.9203V88.2496C55.9203 88.4797 55.9086 88.707 55.8912 88.9326H53.1029C52.2937 88.9326 51.6381 89.5883 51.6381 90.3975C51.6381 91.2066 52.2937 91.8623 53.1029 91.8623H55.1389C53.748 94.9291 50.6461 97.0703 47.0486 97.0703C43.8174 97.0703 40.8887 95.327 39.3342 92.6029C41.1035 92.025 42.7318 91.0535 44.1037 89.7301C44.6859 89.1684 44.7025 88.241 44.1408 87.659C43.5791 87.0764 42.6518 87.06 42.0697 87.6217C40.6709 88.9713 38.9223 89.8426 37.034 90.1574C36.5016 90.2465 35.967 90.2918 35.4449 90.2918C30.1986 90.2918 25.9305 86.0479 25.9305 80.8312C25.9305 80.6978 25.9385 80.5594 25.9449 80.4223C27.1273 79.941 28.2381 79.2824 29.2287 78.4555C29.8498 77.9371 29.9328 77.0133 29.4143 76.3922C28.8957 75.7711 27.9871 75.7068 27.351 76.2066C24.4115 78.5156 21.5686 78.4797 20.4312 78.3854C19.6227 78.3168 18.9172 78.9178 18.85 79.7238C18.783 80.5301 19.3824 81.2379 20.1887 81.3051C21.1252 81.3824 22.0793 81.3553 23.007 81.223C23.2152 87.8746 28.7148 93.2215 35.4451 93.2215C35.7416 93.2215 36.0406 93.2104 36.3406 93.1885C38.2551 97.3068 42.4197 100 47.0486 100C53.5559 100 58.85 94.7289 58.85 88.2496V85.0125H66.6152C66.7742 85.0152 67.1371 85.165 67.2514 85.2748L70.7437 88.75C70.2713 89.51 69.9977 90.4051 69.9977 91.3629C69.9977 94.1068 72.2377 96.3391 74.991 96.3391C77.7445 96.3391 79.9844 94.1068 79.9844 91.3629C79.9844 88.6189 77.7443 86.3867 74.991 86.3867C74.267 86.3867 73.5793 86.5424 72.9574 86.8197L69.3178 83.198C68.6578 82.5414 67.5469 82.0828 66.6158 82.0828H58.85V74.2523H71.5844C72.2135 76.2834 74.1146 77.7637 76.3568 77.7637C79.1103 77.7637 81.3502 75.5314 81.3502 72.7875C81.3502 70.0436 79.1101 67.8113 76.3568 67.8113C74.1148 67.8113 72.2135 69.2914 71.5844 71.3227H58.85V61.5102H74.0887C74.7178 63.5412 76.6189 65.0215 78.8611 65.0215C81.6146 65.0215 83.8545 62.7893 83.8545 60.0453C83.8545 57.3014 81.6144 55.0691 78.8611 55.0691C76.6189 55.0691 74.7178 56.5492 74.0887 58.5805H58.85V47.9186H62.4785C63.1078 49.9494 65.009 51.4297 67.251 51.4297C70.0045 51.4297 72.2443 49.1975 72.2443 46.4537C72.2443 43.7098 70.0043 41.4775 67.251 41.4775C65.009 41.4775 63.1076 42.9576 62.4785 44.9889H58.85V36.5355H74.8105C74.9693 36.5385 75.3324 36.6881 75.4467 36.7979L78.4557 39.7924C78.7414 40.0768 79.115 40.2189 79.4889 40.2189C79.8648 40.2189 80.241 40.075 80.5271 39.7873C81.0978 39.2139 81.0955 38.2863 80.5221 37.7156L77.5131 34.7211C76.8531 34.0645 75.7422 33.6059 74.8111 33.6059H58.85V27.5283H70.941ZM81.1373 14.1092C82.2752 14.1092 83.201 15.0271 83.201 16.1553C83.201 17.2836 82.2752 18.2018 81.1373 18.2018C79.9994 18.2018 79.0738 17.2838 79.0738 16.1553C79.0738 15.0271 79.9994 14.1092 81.1373 14.1092ZM67.0232 11.3908C68.1611 11.3908 69.0869 12.3088 69.0869 13.4371C69.0869 14.5654 68.1611 15.4836 67.0232 15.4836C65.8853 15.4836 64.9598 14.5656 64.9598 13.4371C64.9596 12.3088 65.8853 11.3908 67.0232 11.3908ZM74.991 89.3162C76.1289 89.3162 77.0547 90.2344 77.0547 91.3627C77.0547 92.491 76.1289 93.4092 74.991 93.4092C73.8531 93.4092 72.9273 92.4912 72.9273 91.3627C72.9273 90.2344 73.8531 89.3162 74.991 89.3162ZM76.3568 70.741C77.4947 70.741 78.4205 71.659 78.4205 72.7875C78.4205 73.9158 77.4947 74.834 76.3568 74.834C75.2189 74.834 74.2932 73.916 74.2932 72.7875C74.2932 71.6592 75.2189 70.741 76.3568 70.741ZM78.8609 57.9988C79.9988 57.9988 80.9246 58.9168 80.9246 60.0453C80.9246 61.1736 79.9988 62.0918 78.8609 62.0918C77.723 62.0918 76.7973 61.1738 76.7973 60.0453C76.7973 58.9168 77.723 57.9988 78.8609 57.9988ZM67.251 44.4072C68.3889 44.4072 69.3146 45.3252 69.3146 46.4537C69.3146 47.5818 68.3889 48.5 67.251 48.5C66.1131 48.5 65.1873 47.582 65.1873 46.4537C65.1873 45.3252 66.1131 44.4072 67.251 44.4072Z" fill="url(#paint12_linear_278_8446)"/>
<defs>
<linearGradient id="paint0_linear_278_8446" x1="18.472" y1="45.8922" x2="18.472" y2="55.1172" gradientUnits="userSpaceOnUse">
<stop offset="0.583333" stop-color="#603C93"/>
<stop offset="1" stop-color="#AE806C"/>
</linearGradient>
<linearGradient id="paint1_linear_278_8446" x1="28.2276" y1="63.0289" x2="28.2276" y2="71.9598" gradientUnits="userSpaceOnUse">
<stop offset="0.583333" stop-color="#603C93"/>
<stop offset="1" stop-color="#AE806C"/>
</linearGradient>
<linearGradient id="paint2_linear_278_8446" x1="46.3983" y1="63.0289" x2="46.3983" y2="65.9586" gradientUnits="userSpaceOnUse">
<stop offset="0.583333" stop-color="#603C93"/>
<stop offset="1" stop-color="#AE806C"/>
</linearGradient>
<linearGradient id="paint3_linear_278_8446" x1="34.5832" y1="34.5658" x2="34.5832" y2="46.5566" gradientUnits="userSpaceOnUse">
<stop offset="0.583333" stop-color="#603C93"/>
<stop offset="1" stop-color="#AE806C"/>
</linearGradient>
<linearGradient id="paint4_linear_278_8446" x1="33.7398" y1="12.4078" x2="33.7398" y2="19.8971" gradientUnits="userSpaceOnUse">
<stop offset="0.583333" stop-color="#603C93"/>
<stop offset="1" stop-color="#AE806C"/>
</linearGradient>
<linearGradient id="paint5_linear_278_8446" x1="34.4356" y1="69.5515" x2="34.4356" y2="84.1267" gradientUnits="userSpaceOnUse">
<stop offset="0.583333" stop-color="#603C93"/>
<stop offset="1" stop-color="#AE806C"/>
</linearGradient>
<linearGradient id="paint6_linear_278_8446" x1="48.9955" y1="35.0573" x2="48.9955" y2="47.9158" gradientUnits="userSpaceOnUse">
<stop offset="0.583333" stop-color="#603C93"/>
<stop offset="1" stop-color="#AE806C"/>
</linearGradient>
<linearGradient id="paint7_linear_278_8446" x1="24.4561" y1="25.7435" x2="24.4561" y2="43.6377" gradientUnits="userSpaceOnUse">
<stop offset="0.583333" stop-color="#603C93"/>
<stop offset="1" stop-color="#AE806C"/>
</linearGradient>
<linearGradient id="paint8_linear_278_8446" x1="89.5598" y1="25.6771" x2="89.5598" y2="35.6293" gradientUnits="userSpaceOnUse">
<stop offset="0.583333" stop-color="#603C93"/>
<stop offset="1" stop-color="#AE806C"/>
</linearGradient>
<linearGradient id="paint9_linear_278_8446" x1="94.4542" y1="63.1676" x2="94.4542" y2="73.1197" gradientUnits="userSpaceOnUse">
<stop offset="0.583333" stop-color="#603C93"/>
<stop offset="1" stop-color="#AE806C"/>
</linearGradient>
<linearGradient id="paint10_linear_278_8446" x1="90.0316" y1="42.9257" x2="90.0316" y2="55.5636" gradientUnits="userSpaceOnUse">
<stop offset="0.583333" stop-color="#603C93"/>
<stop offset="1" stop-color="#AE806C"/>
</linearGradient>
<linearGradient id="paint11_linear_278_8446" x1="88.0803" y1="78.4583" x2="88.0803" y2="88.4106" gradientUnits="userSpaceOnUse">
<stop offset="0.583333" stop-color="#603C93"/>
<stop offset="1" stop-color="#AE806C"/>
</linearGradient>
<linearGradient id="paint12_linear_278_8446" x1="43.7294" y1="0" x2="43.7294" y2="100" gradientUnits="userSpaceOnUse">
<stop offset="0.583333" stop-color="#603C93"/>
<stop offset="1" stop-color="#AE806C"/>
</linearGradient>
</defs>
</svg>
