<svg width="101" height="100" viewBox="0 0 101 100" fill="none" xmlns="http://www.w3.org/2000/svg">
<g clip-path="url(#clip0_278_8509)">
<path d="M95.9933 42.4803C94.0837 42.4803 92.4556 43.7049 91.8506 45.41H83.4934V43.701C83.4934 42.8923 82.838 42.2362 82.0285 42.2362C81.2198 42.2362 80.5637 42.8923 80.5637 43.701V50.8421C80.5637 58.1472 78.1147 65.0259 73.6675 70.21C67.4565 77.448 59.6257 82.9518 50.388 86.572C42.1292 83.3356 34.9737 78.5787 29.1174 72.4317C28.5589 71.8458 27.6319 71.8229 27.046 72.3814C26.4608 72.9391 26.4379 73.866 26.9956 74.452C29.0174 76.5737 31.1872 78.5344 33.4936 80.3357V91.4632C31.7892 92.0674 30.5639 93.6955 30.5639 95.6059C30.5639 98.029 32.5353 100 34.9584 100C37.3815 100 39.3529 98.029 39.3529 95.6059C39.3529 93.6963 38.1284 92.0674 36.4232 91.4632V82.4819C40.4439 85.2483 44.8354 87.5638 49.5717 89.3987C49.8357 89.5001 50.1119 89.5512 50.3888 89.5512C50.665 89.5512 50.9412 89.5001 51.2036 89.3987C61.002 85.6038 69.3081 79.7902 75.8915 72.1174C78.9371 68.5674 81.1313 64.3057 82.3581 59.6678H87.3096C87.9146 61.3729 89.5427 62.5975 91.4523 62.5975C93.8754 62.5975 95.8468 60.626 95.8468 58.2029C95.8468 55.7799 93.8754 53.8084 91.4523 53.8084C89.5427 53.8084 87.9146 55.0337 87.3096 56.7381H82.9952C83.3248 54.8155 83.4934 52.8425 83.4934 50.8421V48.3397H91.8506C92.4556 50.0449 94.0837 51.2694 95.9933 51.2694C98.4164 51.2694 100.388 49.2979 100.388 46.8749C100.388 44.4518 98.4164 42.4803 95.9933 42.4803ZM34.9584 97.07C34.1505 97.07 33.4936 96.4131 33.4936 95.6051C33.4936 94.7972 34.1505 94.1403 34.9584 94.1403C35.7664 94.1403 36.4232 94.7972 36.4232 95.6051C36.4232 96.4131 35.7664 97.07 34.9584 97.07ZM91.4523 56.7381C92.2603 56.7381 92.9172 57.395 92.9172 58.2029C92.9172 59.0109 92.2603 59.6678 91.4523 59.6678C90.6444 59.6678 89.9875 59.0109 89.9875 58.2029C89.9875 57.395 90.6444 56.7381 91.4523 56.7381ZM95.9933 48.3397C95.1854 48.3397 94.5285 47.6828 94.5285 46.8749C94.5285 46.0669 95.1854 45.41 95.9933 45.41C96.8013 45.41 97.4582 46.0669 97.4582 46.8749C97.4582 47.6828 96.8013 48.3397 95.9933 48.3397Z" fill="url(#paint0_linear_278_8509)"/>
<path d="M20.2118 50.8421V24.1942C25.5852 22.924 31.1676 20.5566 36.8149 17.1516C45.1866 12.1047 55.5884 12.1047 63.9601 17.1516C66.4733 18.666 68.9726 19.9744 71.4468 21.0731C71.4743 21.086 71.5018 21.099 71.5308 21.1097C74.5886 22.4624 77.6076 23.4954 80.5632 24.1942V37.4342C80.5632 38.2437 81.2185 38.8991 82.028 38.8991C82.8375 38.8991 83.4928 38.2437 83.4928 37.4342V23.6564C83.4928 22.6089 82.7711 21.688 81.7762 21.4667C79.0861 20.8686 76.3304 19.9699 73.5319 18.7843V8.53726C75.2371 7.93225 76.4616 6.30414 76.4616 4.39451C76.4616 1.97143 74.4902 0 72.0671 0C69.644 0 67.6726 1.97143 67.6726 4.39451C67.6726 6.30414 68.8979 7.93225 70.6023 8.53726V17.4468C68.9047 16.6145 67.1935 15.6799 65.473 14.643C56.1683 9.03317 44.6067 9.03393 35.3027 14.643C29.7241 18.0053 24.2386 20.3017 18.9988 21.4667C18.0039 21.688 17.2822 22.6089 17.2822 23.6564V32.5194H8.92495C8.31995 30.8142 6.69184 29.5897 4.78221 29.5897C2.35912 29.5897 0.387695 31.5612 0.387695 33.9842C0.387695 36.4073 2.35912 38.3788 4.78221 38.3788C6.69184 38.3788 8.31995 37.1542 8.92495 35.4491H17.2822V43.8475H13.466C12.8609 42.1423 11.2328 40.9178 9.32321 40.9178C6.90012 40.9178 4.92869 42.8892 4.92869 45.3123C4.92869 47.7354 6.90012 49.7068 9.32321 49.7068C11.2328 49.7068 12.8609 48.4823 13.466 46.7772H17.2822V50.8421C17.2822 57.8626 19.31 64.4475 23.1453 69.8842C23.4307 70.2886 23.8839 70.5045 24.3439 70.5045C24.6353 70.5045 24.9306 70.4175 25.1869 70.2367C25.8476 69.7698 26.0056 68.8558 25.5394 68.1951C22.0543 63.2551 20.2118 57.2546 20.2118 50.8421ZM72.0671 2.92968C72.8751 2.92968 73.5319 3.58656 73.5319 4.39451C73.5319 5.20246 72.8751 5.85935 72.0671 5.85935C71.2592 5.85935 70.6023 5.20246 70.6023 4.39451C70.6023 3.58656 71.2592 2.92968 72.0671 2.92968ZM4.78221 35.4491C3.97426 35.4491 3.31737 34.7922 3.31737 33.9842C3.31737 33.1763 3.97426 32.5194 4.78221 32.5194C5.59016 32.5194 6.24705 33.1763 6.24705 33.9842C6.24705 34.7922 5.59016 35.4491 4.78221 35.4491ZM9.32321 46.7772C8.51526 46.7772 7.85837 46.1203 7.85837 45.3123C7.85837 44.5044 8.51526 43.8475 9.32321 43.8475C10.1312 43.8475 10.788 44.5044 10.788 45.3123C10.788 46.1203 10.1312 46.7772 9.32321 46.7772Z" fill="url(#paint1_linear_278_8509)"/>
<path d="M34.2728 25.2249C34.9976 24.8663 35.2952 23.9874 34.9366 23.2626C34.578 22.5378 33.6991 22.2403 32.9736 22.5989C30.2018 23.9699 27.4186 25.1074 24.7026 25.9802C23.7687 26.2801 23.1416 27.1391 23.1416 28.118V50.842C23.1416 57.4483 25.3396 63.6487 29.3305 68.3011C34.7939 74.6685 41.6047 79.6368 49.5743 83.07C49.8322 83.1814 50.1099 83.2371 50.3876 83.2371C50.6653 83.2371 50.943 83.1814 51.2016 83.07C59.1705 79.6375 65.9805 74.6693 71.4431 68.3026C75.4348 63.6487 77.6336 57.4483 77.6336 50.842V28.118C77.6336 27.1391 77.0064 26.2801 76.0726 25.9802C71.6094 24.5467 67.0257 22.4204 62.4481 19.6608C58.8104 17.4674 54.6402 16.3085 50.3876 16.3085C46.1357 16.3085 41.9655 17.4674 38.3271 19.6608L38.0158 19.8477C37.3208 20.262 37.0934 21.1615 37.5077 21.8565C37.922 22.5516 38.8207 22.7789 39.5157 22.3647C39.6241 22.2998 39.7324 22.235 39.84 22.1701C43.0214 20.2521 46.669 19.2381 50.3876 19.2381C54.1069 19.2381 57.7545 20.2521 60.9359 22.1701C65.5464 24.9495 70.1759 27.1162 74.7039 28.6154V50.8413C74.7039 56.7487 72.7561 62.2723 69.2199 66.3945C64.1288 72.3278 57.7942 76.981 50.3876 80.2288C42.9802 76.9802 36.6456 72.3271 31.5545 66.3937C28.0183 62.2716 26.0713 56.7487 26.0713 50.8413V28.6154C28.7744 27.7205 31.5309 26.5806 34.2728 25.2249Z" fill="url(#paint2_linear_278_8509)"/>
<path d="M50.3877 34.2772C46.3494 34.2772 43.0635 37.5624 43.0635 41.6014V44.0428H42.5752C40.6907 44.0428 39.1572 45.5763 39.1572 47.4608V59.1795C39.1572 61.0639 40.6907 62.5974 42.5752 62.5974H58.2001C60.0846 62.5974 61.6181 61.0639 61.6181 59.1795V47.4608C61.6181 45.5763 60.0846 44.0428 58.2001 44.0428H57.7118V41.6014C57.7118 37.5624 54.4266 34.2772 50.3877 34.2772ZM45.9931 41.6014C45.9931 39.1783 47.9646 37.2069 50.3877 37.2069C52.8107 37.2069 54.7822 39.1783 54.7822 41.6014V44.0428H45.9931V41.6014ZM58.6884 47.4608V59.1795C58.6884 59.4488 58.4694 59.6677 58.2001 59.6677H42.5752C42.3059 59.6677 42.0869 59.4488 42.0869 59.1795V47.4608C42.0869 47.1914 42.3059 46.9725 42.5752 46.9725H58.2001C58.4694 46.9725 58.6884 47.1914 58.6884 47.4608Z" fill="url(#paint3_linear_278_8509)"/>
<path d="M50.3877 47.4607C47.9646 47.4607 45.9932 49.4321 45.9932 51.8552C45.9932 53.7648 47.2184 55.3929 48.9228 55.998V57.7146C48.9228 58.5233 49.579 59.1794 50.3877 59.1794C51.1972 59.1794 51.8525 58.5233 51.8525 57.7146V55.998C53.5577 55.3929 54.7822 53.7648 54.7822 51.8552C54.7822 49.4321 52.8108 47.4607 50.3877 47.4607ZM50.3877 53.32C49.5797 53.32 48.9228 52.6632 48.9228 51.8552C48.9228 51.0473 49.5797 50.3904 50.3877 50.3904C51.1956 50.3904 51.8525 51.0473 51.8525 51.8552C51.8525 52.6632 51.1956 53.32 50.3877 53.32Z" fill="url(#paint4_linear_278_8509)"/>
</g>
<defs>
<linearGradient id="paint0_linear_278_8509" x1="63.4898" y1="42.2362" x2="63.4898" y2="100" gradientUnits="userSpaceOnUse">
<stop offset="0.583333" stop-color="#603C93"/>
<stop offset="1" stop-color="#AE806C"/>
</linearGradient>
<linearGradient id="paint1_linear_278_8509" x1="41.9403" y1="0" x2="41.9403" y2="70.5045" gradientUnits="userSpaceOnUse">
<stop offset="0.583333" stop-color="#603C93"/>
<stop offset="1" stop-color="#AE806C"/>
</linearGradient>
<linearGradient id="paint2_linear_278_8509" x1="50.3876" y1="16.3085" x2="50.3876" y2="83.2371" gradientUnits="userSpaceOnUse">
<stop offset="0.583333" stop-color="#603C93"/>
<stop offset="1" stop-color="#AE806C"/>
</linearGradient>
<linearGradient id="paint3_linear_278_8509" x1="50.3877" y1="34.2772" x2="50.3877" y2="62.5974" gradientUnits="userSpaceOnUse">
<stop offset="0.583333" stop-color="#603C93"/>
<stop offset="1" stop-color="#AE806C"/>
</linearGradient>
<linearGradient id="paint4_linear_278_8509" x1="50.3877" y1="47.4607" x2="50.3877" y2="59.1794" gradientUnits="userSpaceOnUse">
<stop offset="0.583333" stop-color="#603C93"/>
<stop offset="1" stop-color="#AE806C"/>
</linearGradient>
<clipPath id="clip0_278_8509">
<rect width="100" height="100" fill="white" transform="translate(0.387695)"/>
</clipPath>
</defs>
</svg>
