<svg width="100" height="100" viewBox="0 0 100 100" fill="none" xmlns="http://www.w3.org/2000/svg">
<g clip-path="url(#clip0_278_8488)">
<path d="M41.6881 67.4049C41.116 66.8332 40.1885 66.8328 39.6166 67.4049L33.6332 73.3883C33.3584 73.6631 33.2041 74.0355 33.2041 74.4242C33.2041 74.8129 33.3584 75.1851 33.6332 75.4601L39.6166 81.4437C39.9025 81.7297 40.2775 81.8726 40.6523 81.8726C41.0271 81.8726 41.4021 81.7297 41.6881 81.4437C42.2602 80.8715 42.2602 79.9441 41.6881 79.372L36.7404 74.4244L41.6881 69.4769C42.2603 68.9045 42.2603 67.9771 41.6881 67.4049Z" fill="url(#paint0_linear_278_8488)"/>
<path d="M58.312 81.4436C58.5979 81.7295 58.973 81.8725 59.3478 81.8725C59.7226 81.8725 60.0976 81.7295 60.3835 81.4436L66.3669 75.46C66.6417 75.1852 66.796 74.8127 66.796 74.4241C66.796 74.0354 66.6417 73.6631 66.3669 73.3881L60.3835 67.4047C59.8114 66.8329 58.8839 66.8329 58.312 67.4047C57.7399 67.977 57.7399 68.9043 58.312 69.4764L63.2597 74.4239L58.312 79.3715C57.7397 79.944 57.7397 80.8715 58.312 81.4436Z" fill="url(#paint1_linear_278_8488)"/>
<path d="M51.3123 66.4749L45.9312 81.3788C45.6564 82.1398 46.0506 82.9792 46.8115 83.2542C46.9758 83.3136 47.1437 83.3415 47.3088 83.3415C47.9086 83.3415 48.4713 82.9704 48.6867 82.3738L54.0678 67.4699C54.3426 66.7089 53.9484 65.8695 53.1875 65.5945C52.4267 65.3199 51.5869 65.714 51.3123 66.4749Z" fill="url(#paint2_linear_278_8488)"/>
<path d="M88.5346 76.4124H72.5049C71.6959 76.4124 71.04 77.068 71.04 77.8772C71.04 78.6864 71.6959 79.342 72.5049 79.342H88.5346C89.3436 79.342 89.9994 78.6864 89.9994 77.8772C89.9994 77.068 89.3436 76.4124 88.5346 76.4124Z" fill="url(#paint3_linear_278_8488)"/>
<path d="M88.5346 69.5062H72.5049C71.6959 69.5062 71.04 70.1619 71.04 70.9711C71.04 71.7802 71.6959 72.4359 72.5049 72.4359H88.5346C89.3436 72.4359 89.9994 71.7802 89.9994 70.9711C89.9994 70.1619 89.3436 69.5062 88.5346 69.5062Z" fill="url(#paint4_linear_278_8488)"/>
<path d="M96.582 86.6816H96.0807L96.0918 63.1629C96.0922 62.3537 95.4367 61.6977 94.6275 61.6973C94.6273 61.6973 94.6271 61.6973 94.627 61.6973C93.8182 61.6973 93.1625 62.3525 93.1621 63.1613L93.151 86.6816H6.82324L6.82539 82.2121C7.51289 82.3598 8.22559 82.4262 8.93398 82.3998C11.3559 82.3137 13.6529 81.1937 15.2158 79.3422H27.2467C28.0557 79.3422 28.7115 78.6865 28.7115 77.8773C28.7115 77.0682 28.0557 76.4125 27.2467 76.4125H17.7508L21.1916 72.4361H27.2467C28.0557 72.4361 28.7115 71.7805 28.7115 70.9713C28.7115 70.1621 28.0557 69.5064 27.2467 69.5064H23.7268L25.4945 67.4635C25.7369 67.5371 25.9881 67.5748 26.2393 67.5748C26.8916 67.5748 27.5443 67.3266 28.041 66.8301L30.8857 63.9854C31.742 63.1289 31.8582 61.8103 31.2381 60.8262L34.1996 57.4037C38.9553 60.425 44.426 62.018 50.1074 62.018C66.2656 62.018 79.4525 49.0566 79.8195 32.9852L91.7129 32.9906C92.1039 32.9906 92.4717 33.1432 92.7482 33.4201C93.0244 33.6965 93.1762 34.0637 93.1758 34.4549L93.166 56.3258C93.1656 57.1348 93.8211 57.7908 94.6303 57.7912H94.6309C95.4397 57.7912 96.0953 57.1359 96.0957 56.327L96.1055 34.457C96.1068 33.2838 95.6508 32.1803 94.8211 31.3496C93.991 30.5186 92.8871 30.0607 91.7135 30.0607L79.7439 30.0553C78.5941 14.7102 65.7414 2.57617 50.1074 2.57617C34.483 2.57617 21.6359 14.6953 20.4727 30.0273L8.31484 30.0217C8.31426 30.0217 8.31348 30.0217 8.3127 30.0217C7.13965 30.0217 6.03672 30.4783 5.20684 31.3074C4.37656 32.1371 3.91895 33.2402 3.91836 34.4141L3.90312 66.4629L2.98086 67.2609C1.17617 68.8227 0.0917969 71.0863 0.00585938 73.4713C-0.0800781 75.8562 0.838476 78.1922 2.52598 79.8799C2.94551 80.2994 3.40586 80.6703 3.89629 80.9912L3.89355 86.6816H3.41797C2.50527 86.6816 1.64688 87.0373 1.00137 87.683C0.355664 88.3285 0 89.1867 0 90.0996C0 94.1383 3.28555 97.4238 7.32422 97.4238H20.7266C21.5355 97.4238 22.1914 96.7682 22.1914 95.959C22.1914 95.1498 21.5355 94.4941 20.7266 94.4941H7.32422C4.90098 94.4941 2.92969 92.5227 2.92969 90.0996C2.92969 89.9242 3.01934 89.8082 3.07305 89.7545C3.12637 89.701 3.24238 89.6113 3.41797 89.6113H96.582C96.8512 89.6113 97.0703 89.8303 97.0703 90.0996C97.0703 91.2742 96.6133 92.3772 95.7824 93.2064C94.9521 94.0367 93.8488 94.4941 92.6758 94.4941H27.5625C26.7535 94.4941 26.0977 95.1498 26.0977 95.959C26.0977 96.7682 26.7535 97.4238 27.5625 97.4238H92.6758C94.6314 97.4238 96.4705 96.6617 97.8531 95.2791C99.2375 93.8971 100 92.0576 100 90.0996C100 88.2148 98.4666 86.6816 96.582 86.6816ZM26.2395 64.4883L17.9172 56.1662L20.2221 53.8613L28.5443 62.1836L26.2395 64.4883ZM26.7025 50.6086C28.1904 52.5094 29.8957 54.2148 31.7967 55.7029L29.2035 58.6998L23.7057 53.202L26.7025 50.6086ZM6.84805 34.4156C6.84824 34.0242 7.00078 33.6564 7.27754 33.3799C7.5543 33.1035 7.92168 32.9514 8.3127 32.9514H8.31348L20.3945 32.957C20.4246 34.3307 20.5477 35.6986 20.7629 37.0322C20.8918 37.8311 21.6434 38.3746 22.4424 38.2451C23.241 38.1162 23.7842 37.3643 23.6553 36.5656C23.4305 35.1723 23.3166 33.7363 23.3166 32.2971C23.3166 17.5244 35.335 5.50605 50.1076 5.50605C64.8803 5.50605 76.8986 17.5244 76.8986 32.2971C76.8986 47.0697 64.8803 59.0881 50.1076 59.0881C39.5531 59.2074 29.5031 52.5129 25.4537 42.7979C25.1369 42.0533 24.2768 41.7066 23.5324 42.0232C22.7879 42.3398 22.4412 43.2 22.7578 43.9445C23.3852 45.4193 24.1387 46.8475 25.0018 48.2064L21.5799 51.1674C20.5959 50.5473 19.2771 50.6637 18.4207 51.5197L15.5762 54.3643C14.8881 55.0523 14.6775 56.0391 14.9426 56.9109L6.83398 63.9268L6.84805 34.4156ZM2.9334 73.5768C2.99102 71.9789 3.68867 70.5227 4.89785 69.4766L16.7922 59.1844L23.2213 65.6135L12.9289 77.5078C11.8826 78.7168 10.4264 79.4145 8.82832 79.4721C7.22813 79.5309 5.72773 78.9391 4.59727 77.808C3.4668 76.6775 2.87578 75.1748 2.9334 73.5768Z" fill="url(#paint5_linear_278_8488)"/>
<path d="M50.1074 55.9687C62.0297 55.9687 72.1283 47.0588 73.5982 35.2434C73.698 34.4406 73.1281 33.7088 72.3254 33.609C71.5221 33.5088 70.7908 34.0791 70.691 34.8818C69.4033 45.2332 60.5543 53.0393 50.1074 53.0393C38.6713 53.0393 29.3672 43.7344 29.3672 32.2973C29.3672 20.8609 38.6713 11.557 50.1074 11.557C60.108 11.557 68.6848 18.6799 70.5012 28.4936C70.6482 29.2891 71.4137 29.8139 72.208 29.6674C73.0035 29.5201 73.5291 28.7559 73.3818 27.9604C71.3084 16.7576 61.5201 8.62695 50.1074 8.62695C37.0559 8.62695 26.4375 19.2453 26.4375 32.2969C26.4375 45.3494 37.0559 55.9687 50.1074 55.9687Z" fill="url(#paint6_linear_278_8488)"/>
<path d="M63.0881 21.3853C62.1315 20.6396 60.9417 20.3119 59.7377 20.4605C58.534 20.6102 57.4604 21.2193 56.7149 22.1762L48.0368 33.3133L44.2958 29.1006C42.6331 27.2283 39.7573 27.0582 37.885 28.7207C36.0127 30.3834 35.8422 33.2592 37.5049 35.1314L44.8694 43.424C45.7305 44.3937 46.968 44.9498 48.2647 44.9498C49.6649 44.951 50.987 44.3057 51.8469 43.1998L63.8792 27.7582C65.4178 25.7832 65.0629 22.924 63.0881 21.3853ZM61.5678 25.9578L49.5358 41.3992C49.2293 41.7934 48.7588 42.0219 48.2645 42.0203C47.8045 42.0203 47.3653 41.823 47.0598 41.4789L39.6952 33.1861C39.1051 32.5219 39.1657 31.5014 39.8299 30.9115C40.1364 30.6393 40.5184 30.5057 40.8991 30.5057C41.3438 30.5057 41.787 30.6885 42.1047 31.0465L47.0147 36.5754C47.3038 36.9008 47.7256 37.0809 48.1571 37.0668C48.592 37.0529 48.9981 36.8463 49.2655 36.5029L59.0256 23.9771C59.2903 23.6377 59.6713 23.4213 60.0985 23.3684C60.5258 23.3168 60.9477 23.4318 61.2872 23.6967C61.9879 24.2422 62.1139 25.2568 61.5678 25.9578Z" fill="url(#paint7_linear_278_8488)"/>
</g>
<defs>
<linearGradient id="paint0_linear_278_8488" x1="37.6607" y1="66.976" x2="37.6607" y2="81.8726" gradientUnits="userSpaceOnUse">
<stop offset="0.583333" stop-color="#603C93"/>
<stop offset="1" stop-color="#AE806C"/>
</linearGradient>
<linearGradient id="paint1_linear_278_8488" x1="62.3394" y1="66.9758" x2="62.3394" y2="81.8725" gradientUnits="userSpaceOnUse">
<stop offset="0.583333" stop-color="#603C93"/>
<stop offset="1" stop-color="#AE806C"/>
</linearGradient>
<linearGradient id="paint2_linear_278_8488" x1="49.9995" y1="65.5071" x2="49.9995" y2="83.3415" gradientUnits="userSpaceOnUse">
<stop offset="0.583333" stop-color="#603C93"/>
<stop offset="1" stop-color="#AE806C"/>
</linearGradient>
<linearGradient id="paint3_linear_278_8488" x1="80.5197" y1="76.4124" x2="80.5197" y2="79.342" gradientUnits="userSpaceOnUse">
<stop offset="0.583333" stop-color="#603C93"/>
<stop offset="1" stop-color="#AE806C"/>
</linearGradient>
<linearGradient id="paint4_linear_278_8488" x1="80.5197" y1="69.5062" x2="80.5197" y2="72.4359" gradientUnits="userSpaceOnUse">
<stop offset="0.583333" stop-color="#603C93"/>
<stop offset="1" stop-color="#AE806C"/>
</linearGradient>
<linearGradient id="paint5_linear_278_8488" x1="50" y1="2.57617" x2="50" y2="97.4238" gradientUnits="userSpaceOnUse">
<stop offset="0.583333" stop-color="#603C93"/>
<stop offset="1" stop-color="#AE806C"/>
</linearGradient>
<linearGradient id="paint6_linear_278_8488" x1="50.0235" y1="8.62695" x2="50.0235" y2="55.9687" gradientUnits="userSpaceOnUse">
<stop offset="0.583333" stop-color="#603C93"/>
<stop offset="1" stop-color="#AE806C"/>
</linearGradient>
<linearGradient id="paint7_linear_278_8488" x1="50.5987" y1="20.4255" x2="50.5987" y2="44.9498" gradientUnits="userSpaceOnUse">
<stop offset="0.583333" stop-color="#603C93"/>
<stop offset="1" stop-color="#AE806C"/>
</linearGradient>
<clipPath id="clip0_278_8488">
<rect width="100" height="100" fill="white"/>
</clipPath>
</defs>
</svg>
