<svg width="100" height="100" viewBox="0 0 100 100" fill="none" xmlns="http://www.w3.org/2000/svg">
<path d="M34.375 31.25H53.125V34.375H34.375V31.25Z" fill="url(#paint0_linear_278_8530)"/>
<path d="M56.25 31.25H59.375V34.375H56.25V31.25Z" fill="url(#paint1_linear_278_8530)"/>
<path d="M62.5 31.25H65.625V34.375H62.5V31.25Z" fill="url(#paint2_linear_278_8530)"/>
<path d="M34.375 43.75H53.125V46.875H34.375V43.75Z" fill="url(#paint3_linear_278_8530)"/>
<path d="M56.25 43.75H59.375V46.875H56.25V43.75Z" fill="url(#paint4_linear_278_8530)"/>
<path d="M62.5 43.75H65.625V46.875H62.5V43.75Z" fill="url(#paint5_linear_278_8530)"/>
<path d="M34.375 56.25H53.125V59.375H34.375V56.25Z" fill="url(#paint6_linear_278_8530)"/>
<path d="M56.25 56.25H59.375V59.375H56.25V56.25Z" fill="url(#paint7_linear_278_8530)"/>
<path d="M62.5 56.25H65.625V59.375H62.5V56.25Z" fill="url(#paint8_linear_278_8530)"/>
<path d="M90.625 67.1875C89.2398 67.1893 87.8943 67.6504 86.7991 68.4986C85.7039 69.3468 84.921 70.5343 84.5729 71.875H67.1875V65.625C68.4303 65.6236 69.6217 65.1293 70.5005 64.2505C71.3792 63.3717 71.8736 62.1803 71.875 60.9375V56.25H81.25C83.4087 56.2485 85.5436 55.7996 87.5201 54.9318C89.4967 54.064 91.2719 52.796 92.734 51.2079C94.1961 49.6198 95.3132 47.7459 96.015 45.7045C96.7167 43.6631 96.9878 41.4984 96.8113 39.347C96.6347 37.1956 96.0143 35.1041 94.9891 33.2044C93.9639 31.3047 92.5562 29.6381 90.8548 28.3096C89.1533 26.9811 87.1951 26.0195 85.1035 25.4856C83.0119 24.9516 80.8324 24.8569 78.7023 25.2073C77.1739 19.4412 73.9441 14.2692 69.4339 10.3651C64.9237 6.46095 59.3422 4.00577 53.4166 3.31942C47.491 2.63307 41.4961 3.74737 36.2129 6.51713C30.9297 9.28688 26.6032 13.5837 23.7971 18.8477C23.1584 18.7827 22.5169 18.7501 21.875 18.75C16.9022 18.75 12.1331 20.7255 8.61675 24.2418C5.10044 27.7581 3.125 32.5272 3.125 37.5C3.125 42.4728 5.10044 47.242 8.61675 50.7583C12.1331 54.2746 16.9022 56.25 21.875 56.25H28.125V60.9375C28.1264 62.1803 28.6208 63.3717 29.4995 64.2505C30.3783 65.1293 31.5697 65.6236 32.8125 65.625V71.875H15.4271C15.0468 70.4021 14.1424 69.1185 12.8834 68.2647C11.6244 67.4109 10.0972 67.0457 8.58809 67.2373C7.079 67.429 5.69163 68.1645 4.68602 69.3059C3.68041 70.4473 3.12561 71.9163 3.12561 73.4375C3.12561 74.9587 3.68041 76.4277 4.68602 77.5691C5.69163 78.7106 7.079 79.446 8.58809 79.6377C10.0972 79.8294 11.6244 79.4641 12.8834 78.6103C14.1424 77.7566 15.0468 76.4729 15.4271 75H34.375C34.7894 75 35.1868 74.8354 35.4799 74.5424C35.7729 74.2494 35.9375 73.8519 35.9375 73.4375V65.625H39.0625V78.125H26.5625C26.1481 78.125 25.7507 78.2896 25.4576 78.5827C25.1646 78.8757 25 79.2731 25 79.6875V84.5729C23.5271 84.9532 22.2435 85.8576 21.3897 87.1166C20.5359 88.3757 20.1706 89.9029 20.3623 91.4119C20.554 92.921 21.2895 94.3084 22.4309 95.314C23.5723 96.3196 25.0413 96.8744 26.5625 96.8744C28.0837 96.8744 29.5527 96.3196 30.6941 95.314C31.8355 94.3084 32.571 92.921 32.7627 91.4119C32.9544 89.9029 32.5891 88.3757 31.7353 87.1166C30.8815 85.8576 29.5979 84.9532 28.125 84.5729V81.25H40.625C41.0394 81.25 41.4368 81.0854 41.7299 80.7924C42.0229 80.4994 42.1875 80.1019 42.1875 79.6875V65.625H48.4375V81.4479C46.9646 81.8282 45.681 82.7326 44.8272 83.9916C43.9734 85.2507 43.6081 86.7779 43.7998 88.2869C43.9915 89.796 44.727 91.1834 45.8684 92.189C47.0098 93.1946 48.4788 93.7494 50 93.7494C51.5212 93.7494 52.9902 93.1946 54.1316 92.189C55.273 91.1834 56.0085 89.796 56.2002 88.2869C56.3919 86.7779 56.0266 85.2507 55.1728 83.9916C54.319 82.7326 53.0354 81.8282 51.5625 81.4479V65.625H57.8125V79.6875C57.8125 80.1019 57.9771 80.4994 58.2701 80.7924C58.5632 81.0854 58.9606 81.25 59.375 81.25H71.875V84.5729C70.4021 84.9532 69.1185 85.8576 68.2647 87.1166C67.4109 88.3757 67.0456 89.9029 67.2373 91.4119C67.429 92.921 68.1645 94.3084 69.3059 95.314C70.4473 96.3196 71.9163 96.8744 73.4375 96.8744C74.9587 96.8744 76.4277 96.3196 77.5691 95.314C78.7105 94.3084 79.446 92.921 79.6377 91.4119C79.8294 89.9029 79.4641 88.3757 78.6103 87.1166C77.7565 85.8576 76.4729 84.9532 75 84.5729V79.6875C75 79.2731 74.8354 78.8757 74.5424 78.5827C74.2493 78.2896 73.8519 78.125 73.4375 78.125H60.9375V65.625H64.0625V73.4375C64.0625 73.8519 64.2271 74.2494 64.5201 74.5424C64.8132 74.8354 65.2106 75 65.625 75H84.5729C84.8651 76.1318 85.4689 77.159 86.3156 77.9649C87.1624 78.7708 88.2181 79.323 89.363 79.5589C90.5079 79.7948 91.696 79.7049 92.7924 79.2995C93.8887 78.894 94.8494 78.1892 95.5653 77.2651C96.2811 76.341 96.7235 75.2347 96.8421 74.0718C96.9607 72.9089 96.7509 71.736 96.2363 70.6864C95.7218 69.6368 94.9232 68.7526 93.9313 68.1341C92.9394 67.5156 91.7939 67.1876 90.625 67.1875ZM9.375 76.5625C8.75693 76.5625 8.15275 76.3793 7.63884 76.0359C7.12494 75.6925 6.7244 75.2044 6.48788 74.6334C6.25135 74.0624 6.18947 73.4341 6.31005 72.8279C6.43062 72.2217 6.72825 71.6649 7.16529 71.2278C7.60233 70.7908 8.15915 70.4932 8.76534 70.3726C9.37153 70.252 9.99987 70.3139 10.5709 70.5504C11.1419 70.7869 11.63 71.1875 11.9733 71.7014C12.3167 72.2153 12.5 72.8195 12.5 73.4375C12.499 74.266 12.1695 75.0603 11.5836 75.6462C10.9978 76.232 10.2035 76.5615 9.375 76.5625ZM29.6875 90.625C29.6875 91.2431 29.5042 91.8473 29.1608 92.3612C28.8175 92.8751 28.3294 93.2756 27.7584 93.5122C27.1874 93.7487 26.559 93.8106 25.9528 93.69C25.3467 93.5694 24.7898 93.2718 24.3528 92.8347C23.9158 92.3977 23.6181 91.8409 23.4975 91.2347C23.377 90.6285 23.4389 90.0002 23.6754 89.4291C23.9119 88.8581 24.3124 88.3701 24.8263 88.0267C25.3402 87.6833 25.9444 87.5 26.5625 87.5C27.391 87.501 28.1853 87.8306 28.7711 88.4164C29.357 89.0022 29.6865 89.7965 29.6875 90.625ZM53.125 87.5C53.125 88.1181 52.9417 88.7223 52.5983 89.2362C52.255 89.7501 51.7669 90.1506 51.1959 90.3872C50.6249 90.6237 49.9965 90.6856 49.3903 90.565C48.7842 90.4444 48.2273 90.1468 47.7903 89.7097C47.3533 89.2727 47.0556 88.7159 46.935 88.1097C46.8145 87.5035 46.8764 86.8752 47.1129 86.3041C47.3494 85.7331 47.7499 85.2451 48.2638 84.9017C48.7777 84.5583 49.3819 84.375 50 84.375C50.8285 84.376 51.6228 84.7056 52.2086 85.2914C52.7945 85.8772 53.124 86.6715 53.125 87.5ZM76.5625 90.625C76.5625 91.2431 76.3792 91.8473 76.0358 92.3612C75.6925 92.8751 75.2044 93.2756 74.6334 93.5122C74.0624 93.7487 73.434 93.8106 72.8278 93.69C72.2216 93.5694 71.6648 93.2718 71.2278 92.8347C70.7907 92.3977 70.4931 91.8409 70.3725 91.2347C70.252 90.6285 70.3139 90.0002 70.5504 89.4291C70.7869 88.8581 71.1874 88.3701 71.7013 88.0267C72.2152 87.6833 72.8194 87.5 73.4375 87.5C74.266 87.501 75.0603 87.8306 75.6461 88.4164C76.232 89.0022 76.5615 89.7965 76.5625 90.625ZM31.25 35.9375V29.6875C31.2505 29.2733 31.4152 28.8761 31.7082 28.5832C32.0011 28.2903 32.3982 28.1255 32.8125 28.125H67.1875C67.6018 28.1255 67.9989 28.2903 68.2918 28.5832C68.5848 28.8761 68.7495 29.2733 68.75 29.6875V35.9375C68.7495 36.3518 68.5848 36.7489 68.2918 37.0419C67.9989 37.3348 67.6018 37.4996 67.1875 37.5H32.8125C32.3982 37.4996 32.0011 37.3348 31.7082 37.0419C31.4152 36.7489 31.2505 36.3518 31.25 35.9375ZM31.25 48.4375V42.1875C31.2505 41.7733 31.4152 41.3761 31.7082 41.0832C32.0011 40.7903 32.3982 40.6255 32.8125 40.625H67.1875C67.6018 40.6255 67.9989 40.7903 68.2918 41.0832C68.5848 41.3761 68.7495 41.7733 68.75 42.1875V48.4375C68.7495 48.8518 68.5848 49.2489 68.2918 49.5419C67.9989 49.8348 67.6018 49.9996 67.1875 50H32.8125C32.3982 49.9996 32.0011 49.8348 31.7082 49.5419C31.4152 49.2489 31.2505 48.8518 31.25 48.4375ZM6.25 37.5C6.2547 33.3575 7.90242 29.3859 10.8317 26.4567C13.7609 23.5274 17.7324 21.8797 21.875 21.875C22.7321 21.8748 23.5878 21.9443 24.4336 22.0828C24.766 22.1379 25.1073 22.084 25.4065 21.9291C25.7057 21.7742 25.9468 21.5267 26.0938 21.2235C28.5133 16.2354 32.4325 12.1291 37.3024 9.47984C42.1723 6.83055 47.749 5.77095 53.2512 6.44948C58.7534 7.128 63.9056 9.51066 67.986 13.2637C72.0664 17.0167 74.8706 21.9521 76.0059 27.3785C76.0493 27.5877 76.1352 27.7857 76.2582 27.9604C76.3812 28.1351 76.5387 28.2826 76.721 28.394C76.9033 28.5054 77.1065 28.5782 77.3181 28.608C77.5296 28.6377 77.745 28.6238 77.951 28.567C79.6697 28.0974 81.4689 28.0007 83.2281 28.2833C84.9873 28.5658 86.6657 29.2212 88.1509 30.2055C89.6361 31.1898 90.8937 32.4802 91.8394 33.9902C92.7851 35.5002 93.3971 37.1949 93.6343 38.9608C93.8715 40.7266 93.7285 42.5228 93.2148 44.2289C92.7011 45.9349 91.8287 47.5115 90.6559 48.8528C89.4831 50.1941 88.0372 51.2692 86.4149 52.0061C84.7927 52.7429 83.0317 53.1244 81.25 53.125H71.6062C71.4015 52.5486 71.086 52.0178 70.6775 51.5625C71.4492 50.7047 71.8758 49.5914 71.875 48.4375V42.1875C71.8758 41.0337 71.4492 39.9204 70.6775 39.0625C71.4492 38.2047 71.8758 37.0914 71.875 35.9375V29.6875C71.8736 28.4448 71.3792 27.2533 70.5005 26.3746C69.6217 25.4958 68.4303 25.0015 67.1875 25H32.8125C31.5697 25.0015 30.3783 25.4958 29.4995 26.3746C28.6208 27.2533 28.1264 28.4448 28.125 29.6875V35.9375C28.1242 37.0914 28.5508 38.2047 29.3225 39.0625C28.5508 39.9204 28.1242 41.0337 28.125 42.1875V48.4375C28.1242 49.5914 28.5508 50.7047 29.3225 51.5625C28.914 52.0178 28.5985 52.5486 28.3938 53.125H21.875C17.7324 53.1203 13.7609 51.4726 10.8317 48.5434C7.90242 45.6141 6.2547 41.6426 6.25 37.5ZM31.25 60.9375V54.6875C31.2505 54.2733 31.4152 53.8761 31.7082 53.5832C32.0011 53.2903 32.3982 53.1255 32.8125 53.125H67.1875C67.6018 53.1255 67.9989 53.2903 68.2918 53.5832C68.5848 53.8761 68.7495 54.2733 68.75 54.6875V60.9375C68.7495 61.3518 68.5848 61.7489 68.2918 62.0419C67.9989 62.3348 67.6018 62.4996 67.1875 62.5H32.8125C32.3982 62.4996 32.0011 62.3348 31.7082 62.0419C31.4152 61.7489 31.2505 61.3518 31.25 60.9375ZM90.625 76.5625C90.0069 76.5625 89.4027 76.3793 88.8888 76.0359C88.3749 75.6925 87.9744 75.2044 87.7379 74.6334C87.5014 74.0624 87.4395 73.4341 87.56 72.8279C87.6806 72.2217 87.9782 71.6649 88.4153 71.2278C88.8523 70.7908 89.4091 70.4932 90.0153 70.3726C90.6215 70.252 91.2499 70.3139 91.8209 70.5504C92.3919 70.7869 92.88 71.1875 93.2233 71.7014C93.5667 72.2153 93.75 72.8195 93.75 73.4375C93.749 74.266 93.4195 75.0603 92.8336 75.6462C92.2478 76.232 91.4535 76.5615 90.625 76.5625Z" fill="url(#paint9_linear_278_8530)"/>
<defs>
<linearGradient id="paint0_linear_278_8530" x1="43.75" y1="31.25" x2="43.75" y2="34.375" gradientUnits="userSpaceOnUse">
<stop offset="0.583333" stop-color="#603C93"/>
<stop offset="1" stop-color="#AE806C"/>
</linearGradient>
<linearGradient id="paint1_linear_278_8530" x1="57.8125" y1="31.25" x2="57.8125" y2="34.375" gradientUnits="userSpaceOnUse">
<stop offset="0.583333" stop-color="#603C93"/>
<stop offset="1" stop-color="#AE806C"/>
</linearGradient>
<linearGradient id="paint2_linear_278_8530" x1="64.0625" y1="31.25" x2="64.0625" y2="34.375" gradientUnits="userSpaceOnUse">
<stop offset="0.583333" stop-color="#603C93"/>
<stop offset="1" stop-color="#AE806C"/>
</linearGradient>
<linearGradient id="paint3_linear_278_8530" x1="43.75" y1="43.75" x2="43.75" y2="46.875" gradientUnits="userSpaceOnUse">
<stop offset="0.583333" stop-color="#603C93"/>
<stop offset="1" stop-color="#AE806C"/>
</linearGradient>
<linearGradient id="paint4_linear_278_8530" x1="57.8125" y1="43.75" x2="57.8125" y2="46.875" gradientUnits="userSpaceOnUse">
<stop offset="0.583333" stop-color="#603C93"/>
<stop offset="1" stop-color="#AE806C"/>
</linearGradient>
<linearGradient id="paint5_linear_278_8530" x1="64.0625" y1="43.75" x2="64.0625" y2="46.875" gradientUnits="userSpaceOnUse">
<stop offset="0.583333" stop-color="#603C93"/>
<stop offset="1" stop-color="#AE806C"/>
</linearGradient>
<linearGradient id="paint6_linear_278_8530" x1="43.75" y1="56.25" x2="43.75" y2="59.375" gradientUnits="userSpaceOnUse">
<stop offset="0.583333" stop-color="#603C93"/>
<stop offset="1" stop-color="#AE806C"/>
</linearGradient>
<linearGradient id="paint7_linear_278_8530" x1="57.8125" y1="56.25" x2="57.8125" y2="59.375" gradientUnits="userSpaceOnUse">
<stop offset="0.583333" stop-color="#603C93"/>
<stop offset="1" stop-color="#AE806C"/>
</linearGradient>
<linearGradient id="paint8_linear_278_8530" x1="64.0625" y1="56.25" x2="64.0625" y2="59.375" gradientUnits="userSpaceOnUse">
<stop offset="0.583333" stop-color="#603C93"/>
<stop offset="1" stop-color="#AE806C"/>
</linearGradient>
<linearGradient id="paint9_linear_278_8530" x1="49.9997" y1="3.12219" x2="49.9997" y2="96.8744" gradientUnits="userSpaceOnUse">
<stop offset="0.583333" stop-color="#603C93"/>
<stop offset="1" stop-color="#AE806C"/>
</linearGradient>
</defs>
</svg>
