<svg width="101" height="100" viewBox="0 0 101 100" fill="none" xmlns="http://www.w3.org/2000/svg">
<path d="M95.7002 51.5625H53.5127V9.375C53.5127 9.16981 53.4723 8.96662 53.3938 8.77705C53.3152 8.58748 53.2002 8.41523 53.0551 8.27013C52.91 8.12504 52.7377 8.00995 52.5481 7.93143C52.3586 7.85291 52.1554 7.81249 51.9502 7.8125H8.2002C6.95743 7.81392 5.76597 8.30824 4.8872 9.18701C4.00843 10.0658 3.51412 11.2572 3.5127 12.5V67.1875C3.51412 68.4303 4.00843 69.6217 4.8872 70.5005C5.76597 71.3793 6.95743 71.8736 8.2002 71.875H41.0127V84.375H36.3252C36.12 84.375 35.9168 84.4154 35.7272 84.4939C35.5377 84.5724 35.3654 84.6875 35.2203 84.8326C35.0752 84.9777 34.9601 85.15 34.8816 85.3396C34.8031 85.5291 34.7627 85.7323 34.7627 85.9375V92.1875C34.7627 92.3927 34.8031 92.5959 34.8816 92.7854C34.9601 92.975 35.0752 93.1473 35.2203 93.2924C35.3654 93.4375 35.5377 93.5526 35.7272 93.6311C35.9168 93.7096 36.12 93.75 36.3252 93.75H64.4502C64.6554 93.75 64.8586 93.7096 65.0481 93.6311C65.2377 93.5526 65.41 93.4375 65.5551 93.2924C65.7002 93.1473 65.8152 92.975 65.8938 92.7854C65.9723 92.5959 66.0127 92.3927 66.0127 92.1875V85.9375C66.0127 85.7323 65.9723 85.5291 65.8938 85.3396C65.8152 85.15 65.7002 84.9777 65.5551 84.8326C65.41 84.6875 65.2377 84.5724 65.0481 84.4939C64.8586 84.4154 64.6554 84.375 64.4502 84.375H59.7627V71.875H92.5752C93.818 71.8736 95.0094 71.3793 95.8882 70.5005C96.767 69.6217 97.2613 68.4303 97.2627 67.1875V53.125C97.2627 52.9198 97.2223 52.7166 97.1438 52.5271C97.0652 52.3375 96.9502 52.1652 96.8051 52.0201C96.66 51.875 96.4877 51.7599 96.2981 51.6814C96.1086 51.6029 95.9054 51.5625 95.7002 51.5625ZM8.2002 10.9375H50.3877V17.1875H6.6377V12.5C6.63817 12.0857 6.80294 11.6886 7.09586 11.3957C7.38879 11.1027 7.78594 10.938 8.2002 10.9375ZM62.8877 90.625H37.8877V87.5H62.8877V90.625ZM56.6377 84.375H44.1377V71.875H48.8252V76.5625C48.8252 76.9769 48.9898 77.3743 49.2828 77.6674C49.5759 77.9604 49.9733 78.125 50.3877 78.125C50.8021 78.125 51.1995 77.9604 51.4925 77.6674C51.7856 77.3743 51.9502 76.9769 51.9502 76.5625V71.875H56.6377V84.375ZM94.1377 67.1875C94.1372 67.6018 93.9725 67.9989 93.6795 68.2918C93.3866 68.5848 92.9894 68.7495 92.5752 68.75H8.2002C7.78594 68.7495 7.38879 68.5848 7.09586 68.2918C6.80294 67.9989 6.63817 67.6018 6.6377 67.1875V20.3125H50.3877V53.125C50.3877 53.3302 50.4281 53.5334 50.5066 53.7229C50.5851 53.9125 50.7002 54.0848 50.8453 54.2299C50.9904 54.375 51.1627 54.4901 51.3522 54.5686C51.5418 54.6471 51.745 54.6875 51.9502 54.6875H94.1377V67.1875Z" fill="url(#paint0_linear_278_8417)"/>
<path d="M9.7627 15.625C10.6256 15.625 11.3252 14.9254 11.3252 14.0625C11.3252 13.1996 10.6256 12.5 9.7627 12.5C8.89975 12.5 8.2002 13.1996 8.2002 14.0625C8.2002 14.9254 8.89975 15.625 9.7627 15.625Z" fill="url(#paint1_linear_278_8417)"/>
<path d="M14.4502 15.625C15.3131 15.625 16.0127 14.9254 16.0127 14.0625C16.0127 13.1996 15.3131 12.5 14.4502 12.5C13.5873 12.5 12.8877 13.1996 12.8877 14.0625C12.8877 14.9254 13.5873 15.625 14.4502 15.625Z" fill="url(#paint2_linear_278_8417)"/>
<path d="M19.1377 15.625C20.0006 15.625 20.7002 14.9254 20.7002 14.0625C20.7002 13.1996 20.0006 12.5 19.1377 12.5C18.2748 12.5 17.5752 13.1996 17.5752 14.0625C17.5752 14.9254 18.2748 15.625 19.1377 15.625Z" fill="url(#paint3_linear_278_8417)"/>
<path d="M47.2627 25C47.2627 24.7948 47.2223 24.5916 47.1438 24.4021C47.0653 24.2125 46.9502 24.0402 46.8051 23.8951C46.66 23.75 46.4877 23.6349 46.2981 23.5564C46.1086 23.4779 45.9054 23.4375 45.7002 23.4375H39.4502C39.245 23.4375 39.0418 23.4779 38.8522 23.5564C38.6627 23.6349 38.4904 23.75 38.3453 23.8951C38.2002 24.0402 38.0851 24.2125 38.0066 24.4021C37.9281 24.5916 37.8877 24.7948 37.8877 25V31.25H33.2002C32.995 31.25 32.7918 31.2904 32.6022 31.3689C32.4127 31.4474 32.2404 31.5625 32.0953 31.7076C31.9502 31.8527 31.8351 32.025 31.7566 32.2145C31.6781 32.4041 31.6377 32.6073 31.6377 32.8125V37.5H26.9502C26.745 37.5 26.5418 37.5404 26.3522 37.6189C26.1627 37.6974 25.9904 37.8125 25.8453 37.9576C25.7002 38.1027 25.5851 38.275 25.5066 38.4645C25.4281 38.6541 25.3877 38.8573 25.3877 39.0625V45.3125H20.7002C20.495 45.3125 20.2918 45.3529 20.1022 45.4314C19.9127 45.5099 19.7404 45.625 19.5953 45.7701C19.4502 45.9152 19.3351 46.0875 19.2566 46.2771C19.1781 46.4666 19.1377 46.6698 19.1377 46.875V51.5625H14.4502C14.245 51.5625 14.0418 51.6029 13.8522 51.6814C13.6627 51.76 13.4904 51.875 13.3453 52.0201C13.2002 52.1652 13.0851 52.3375 13.0066 52.5271C12.9281 52.7166 12.8877 52.9198 12.8877 53.125V57.8125H9.7627V60.9375H53.5127V57.8125H47.2627V25ZM16.0127 54.6875H19.1377V57.8125H16.0127V54.6875ZM22.2627 48.4375H25.3877V57.8125H22.2627V48.4375ZM28.5127 40.625H31.6377V57.8125H28.5127V40.625ZM34.7627 34.375H37.8877V57.8125H34.7627V34.375ZM41.0127 57.8125V26.5625H44.1377V57.8125H41.0127Z" fill="url(#paint4_linear_278_8417)"/>
<path d="M59.7627 57.8125H56.6377V60.9375H59.7627V57.8125Z" fill="url(#paint5_linear_278_8417)"/>
<path d="M67.5752 42.1875C68.4346 42.1876 69.2775 41.9515 70.0117 41.5049C70.746 41.0583 71.3433 40.4185 71.7385 39.6553C72.1336 38.8921 72.3114 38.035 72.2523 37.1777C72.1932 36.3203 71.8995 35.4957 71.4034 34.794C70.9073 34.0922 70.2278 33.5404 69.4392 33.1988C68.6506 32.8571 67.7833 32.7389 66.9321 32.8569C66.0808 32.975 65.2784 33.3248 64.6125 33.8681C63.9466 34.4114 63.4429 35.1273 63.1565 35.9375H56.6377V39.0625H63.1565C63.4805 39.9757 64.0791 40.7663 64.8702 41.3258C65.6614 41.8853 66.6062 42.1863 67.5752 42.1875ZM67.5752 35.9375C67.8842 35.9375 68.1863 36.0291 68.4433 36.2008C68.7002 36.3725 68.9005 36.6165 69.0188 36.9021C69.137 37.1876 69.168 37.5017 69.1077 37.8048C69.0474 38.1079 68.8986 38.3863 68.6801 38.6049C68.4615 38.8234 68.1831 38.9722 67.88 39.0325C67.5769 39.0928 67.2628 39.0618 66.9773 38.9436C66.6917 38.8253 66.4477 38.625 66.276 38.3681C66.1043 38.1111 66.0127 37.809 66.0127 37.5C66.0132 37.0857 66.1779 36.6886 66.4709 36.3957C66.7638 36.1027 67.1609 35.938 67.5752 35.9375Z" fill="url(#paint6_linear_278_8417)"/>
<path d="M92.5752 7.8125C91.6062 7.81371 90.6614 8.11471 89.8702 8.67421C89.0791 9.23371 88.4805 10.0243 88.1565 10.9375H84.7627C84.5373 10.9375 84.3146 10.9863 84.1098 11.0804C83.905 11.1746 83.723 11.312 83.5763 11.4831L75.2994 21.1395L70.2425 16.0827C70.0974 15.9376 69.9252 15.8225 69.7356 15.7439C69.5461 15.6654 69.3429 15.625 69.1377 15.625H56.6377V18.75H68.4905L74.2829 24.5423C74.4279 24.6874 74.6002 24.8025 74.7898 24.8811C74.9793 24.9596 75.1825 25 75.3877 25H83.469C83.8376 26.0425 84.5628 26.9212 85.5166 27.4807C86.4704 28.0402 87.5912 28.2445 88.681 28.0575C89.7709 27.8705 90.7595 27.3043 91.4723 26.4588C92.185 25.6134 92.5759 24.5433 92.5759 23.4375C92.5759 22.3317 92.185 21.2616 91.4723 20.4162C90.7595 19.5707 89.7709 19.0045 88.681 18.8175C87.5912 18.6305 86.4704 18.8348 85.5166 19.3943C84.5628 19.9538 83.8376 20.8325 83.469 21.875H78.785L85.4814 14.0625H88.1565C88.443 14.8726 88.9467 15.5884 89.6125 16.1316C90.2784 16.6748 91.0807 17.0245 91.9319 17.1425C92.7831 17.2605 93.6503 17.1423 94.4388 16.8007C95.2273 16.459 95.9067 15.9073 96.4028 15.2056C96.8988 14.5039 97.1925 13.6794 97.2516 12.8221C97.3107 11.9649 97.133 11.1078 96.7379 10.3447C96.3429 9.58161 95.7456 8.9418 95.0114 8.49521C94.2773 8.04862 93.4345 7.81245 92.5752 7.8125ZM87.8877 21.875C88.1967 21.875 88.4988 21.9666 88.7558 22.1383C89.0127 22.31 89.213 22.554 89.3313 22.8396C89.4495 23.1251 89.4805 23.4392 89.4202 23.7423C89.3599 24.0454 89.2111 24.3238 88.9925 24.5424C88.774 24.7609 88.4956 24.9097 88.1925 24.97C87.8894 25.0303 87.5753 24.9993 87.2898 24.8811C87.0042 24.7628 86.7602 24.5625 86.5885 24.3056C86.4168 24.0486 86.3252 23.7465 86.3252 23.4375C86.3257 23.0232 86.4904 22.6261 86.7834 22.3332C87.0763 22.0402 87.4734 21.8755 87.8877 21.875ZM92.5752 14.0625C92.2662 14.0625 91.9641 13.9709 91.7071 13.7992C91.4502 13.6275 91.2499 13.3835 91.1316 13.0979C91.0134 12.8124 90.9824 12.4983 91.0427 12.1952C91.103 11.8921 91.2518 11.6137 91.4703 11.3951C91.6889 11.1766 91.9673 11.0278 92.2704 10.9675C92.5735 10.9072 92.8876 10.9382 93.1731 11.0564C93.4586 11.1747 93.7027 11.375 93.8744 11.6319C94.0461 11.8889 94.1377 12.191 94.1377 12.5C94.1372 12.9143 93.9725 13.3114 93.6795 13.6043C93.3866 13.8973 92.9895 14.062 92.5752 14.0625Z" fill="url(#paint7_linear_278_8417)"/>
<path d="M73.8252 15.625C74.6846 15.6251 75.5275 15.389 76.2617 14.9424C76.996 14.4958 77.5933 13.856 77.9885 13.0928C78.3836 12.3296 78.5614 11.4725 78.5023 10.6152C78.4432 9.7578 78.1495 8.93319 77.6534 8.23145C77.1573 7.52972 76.4778 6.97788 75.6892 6.63626C74.9006 6.29464 74.0333 6.17639 73.1821 6.29443C72.3308 6.41246 71.5284 6.76225 70.8625 7.30555C70.1966 7.84885 69.6929 8.56475 69.4065 9.375H56.6377V12.5H69.4065C69.7305 13.4132 70.3291 14.2038 71.1202 14.7633C71.9114 15.3228 72.8562 15.6238 73.8252 15.625ZM73.8252 9.375C74.1342 9.375 74.4363 9.46664 74.6933 9.63833C74.9502 9.81002 75.1505 10.0541 75.2688 10.3396C75.387 10.6251 75.418 10.9392 75.3577 11.2423C75.2974 11.5454 75.1486 11.8238 74.93 12.0424C74.7115 12.2609 74.4331 12.4097 74.13 12.47C73.8269 12.5303 73.5128 12.4993 73.2273 12.3811C72.9417 12.2628 72.6977 12.0625 72.526 11.8056C72.3543 11.5486 72.2627 11.2465 72.2627 10.9375C72.2632 10.5232 72.4279 10.1261 72.7209 9.83317C73.0138 9.54025 73.4109 9.37548 73.8252 9.375Z" fill="url(#paint8_linear_278_8417)"/>
<path d="M71.1583 29.2303C70.6814 30.2284 70.5728 31.363 70.8516 32.4336C71.1304 33.5041 71.7787 34.4416 72.6818 35.0803C73.585 35.7191 74.685 36.0179 75.7872 35.9241C76.8895 35.8303 77.923 35.3498 78.7053 34.5676C79.4875 33.7853 79.968 32.7518 80.0618 31.6495C80.1556 30.5473 79.8568 29.4473 79.218 28.5441C78.5793 27.641 77.6418 26.9927 76.5713 26.7139C75.5007 26.4351 74.3661 26.5437 73.368 27.0206L70.2425 23.8952C70.0974 23.7501 69.9252 23.635 69.7356 23.5564C69.5461 23.4779 69.3429 23.4375 69.1377 23.4375H56.6377V26.5625H68.4905L71.1583 29.2303ZM76.9502 31.25C76.9502 31.559 76.8586 31.8611 76.6869 32.1181C76.5152 32.375 76.2711 32.5753 75.9856 32.6936C75.7001 32.8118 75.386 32.8428 75.0829 32.7825C74.7798 32.7222 74.5014 32.5734 74.2828 32.3549C74.0643 32.1363 73.9155 31.8579 73.8552 31.5548C73.7949 31.2517 73.8259 30.9376 73.9441 30.6521C74.0624 30.3665 74.2627 30.1225 74.5196 29.9508C74.7766 29.7791 75.0787 29.6875 75.3877 29.6875C75.802 29.688 76.1991 29.8527 76.492 30.1457C76.7849 30.4386 76.9497 30.8357 76.9502 31.25Z" fill="url(#paint9_linear_278_8417)"/>
<path d="M81.2953 46.2885L86.1078 40.273C87.1312 40.6936 88.2703 40.739 89.3239 40.4011C90.3775 40.0631 91.2778 39.3636 91.8656 38.4262C92.4534 37.4887 92.6909 36.3737 92.5361 35.2781C92.3814 34.1825 91.8443 33.1769 91.0199 32.4389C90.1954 31.7009 89.1367 31.2781 88.0307 31.2452C86.9247 31.2123 85.8427 31.5714 84.9758 32.2591C84.109 32.9467 83.5131 33.9187 83.2935 35.0031C83.0739 36.0876 83.2447 37.2148 83.7757 38.1855L79.3242 43.7499H56.6377V46.8749H80.0752C80.3095 46.875 80.5409 46.8222 80.7521 46.7207C80.9633 46.6192 81.1489 46.4715 81.2953 46.2885ZM87.8877 34.3749C88.1967 34.3749 88.4988 34.4666 88.7558 34.6383C89.0127 34.81 89.213 35.054 89.3313 35.3395C89.4495 35.625 89.4805 35.9392 89.4202 36.2423C89.3599 36.5454 89.2111 36.8238 88.9925 37.0423C88.774 37.2608 88.4956 37.4096 88.1925 37.4699C87.8894 37.5302 87.5753 37.4993 87.2898 37.381C87.0042 37.2627 86.7602 37.0625 86.5885 36.8055C86.4168 36.5486 86.3252 36.2465 86.3252 35.9374C86.3257 35.5232 86.4904 35.126 86.7834 34.8331C87.0763 34.5402 87.4734 34.3754 87.8877 34.3749Z" fill="url(#paint10_linear_278_8417)"/>
<defs>
<linearGradient id="paint0_linear_278_8417" x1="50.3877" y1="7.8125" x2="50.3877" y2="93.75" gradientUnits="userSpaceOnUse">
<stop offset="0.583333" stop-color="#603C93"/>
<stop offset="1" stop-color="#AE806C"/>
</linearGradient>
<linearGradient id="paint1_linear_278_8417" x1="9.7627" y1="12.5" x2="9.7627" y2="15.625" gradientUnits="userSpaceOnUse">
<stop offset="0.583333" stop-color="#603C93"/>
<stop offset="1" stop-color="#AE806C"/>
</linearGradient>
<linearGradient id="paint2_linear_278_8417" x1="14.4502" y1="12.5" x2="14.4502" y2="15.625" gradientUnits="userSpaceOnUse">
<stop offset="0.583333" stop-color="#603C93"/>
<stop offset="1" stop-color="#AE806C"/>
</linearGradient>
<linearGradient id="paint3_linear_278_8417" x1="19.1377" y1="12.5" x2="19.1377" y2="15.625" gradientUnits="userSpaceOnUse">
<stop offset="0.583333" stop-color="#603C93"/>
<stop offset="1" stop-color="#AE806C"/>
</linearGradient>
<linearGradient id="paint4_linear_278_8417" x1="31.6377" y1="23.4375" x2="31.6377" y2="60.9375" gradientUnits="userSpaceOnUse">
<stop offset="0.583333" stop-color="#603C93"/>
<stop offset="1" stop-color="#AE806C"/>
</linearGradient>
<linearGradient id="paint5_linear_278_8417" x1="58.2002" y1="57.8125" x2="58.2002" y2="60.9375" gradientUnits="userSpaceOnUse">
<stop offset="0.583333" stop-color="#603C93"/>
<stop offset="1" stop-color="#AE806C"/>
</linearGradient>
<linearGradient id="paint6_linear_278_8417" x1="64.4505" y1="32.8125" x2="64.4505" y2="42.1875" gradientUnits="userSpaceOnUse">
<stop offset="0.583333" stop-color="#603C93"/>
<stop offset="1" stop-color="#AE806C"/>
</linearGradient>
<linearGradient id="paint7_linear_278_8417" x1="76.9502" y1="7.8125" x2="76.9502" y2="28.125" gradientUnits="userSpaceOnUse">
<stop offset="0.583333" stop-color="#603C93"/>
<stop offset="1" stop-color="#AE806C"/>
</linearGradient>
<linearGradient id="paint8_linear_278_8417" x1="67.5755" y1="6.25" x2="67.5755" y2="15.625" gradientUnits="userSpaceOnUse">
<stop offset="0.583333" stop-color="#603C93"/>
<stop offset="1" stop-color="#AE806C"/>
</linearGradient>
<linearGradient id="paint9_linear_278_8417" x1="68.3582" y1="23.4375" x2="68.3582" y2="35.941" gradientUnits="userSpaceOnUse">
<stop offset="0.583333" stop-color="#603C93"/>
<stop offset="1" stop-color="#AE806C"/>
</linearGradient>
<linearGradient id="paint10_linear_278_8417" x1="74.61" y1="31.2432" x2="74.61" y2="46.8749" gradientUnits="userSpaceOnUse">
<stop offset="0.583333" stop-color="#603C93"/>
<stop offset="1" stop-color="#AE806C"/>
</linearGradient>
</defs>
</svg>
