<svg width="100" height="100" viewBox="0 0 100 100" fill="none" xmlns="http://www.w3.org/2000/svg">
<path d="M50 14.0625C49.5856 14.0625 49.1882 13.8979 48.8951 13.6049C48.6021 13.3118 48.4375 12.9144 48.4375 12.5V6.25C48.4375 5.8356 48.6021 5.43817 48.8951 5.14515C49.1882 4.85212 49.5856 4.6875 50 4.6875C50.4144 4.6875 50.8118 4.85212 51.1049 5.14515C51.3979 5.43817 51.5625 5.8356 51.5625 6.25V12.5C51.5625 12.9144 51.3979 13.3118 51.1049 13.6049C50.8118 13.8979 50.4144 14.0625 50 14.0625Z" fill="url(#paint0_linear_278_8518)"/>
<path d="M34.3749 18.25C34.1004 18.2502 33.8306 18.1782 33.5928 18.041C33.355 17.9039 33.1575 17.7065 33.0202 17.4687L29.8952 12.0562C29.791 11.8785 29.723 11.6818 29.6951 11.4777C29.6672 11.2735 29.6799 11.0658 29.7326 10.8666C29.7852 10.6674 29.8768 10.4806 30.002 10.3169C30.1271 10.1532 30.2834 10.0159 30.4619 9.91284C30.6404 9.8098 30.8374 9.74309 31.0418 9.71653C31.2461 9.68996 31.4537 9.70409 31.6526 9.75808C31.8514 9.81207 32.0376 9.90486 32.2005 10.0311C32.3633 10.1574 32.4996 10.3146 32.6015 10.4937L35.7265 15.9062C35.8635 16.1436 35.9357 16.4129 35.9358 16.6871C35.9359 16.9612 35.8638 17.2305 35.7269 17.468C35.5899 17.7055 35.3929 17.9028 35.1556 18.04C34.9183 18.1773 34.649 18.2497 34.3749 18.25Z" fill="url(#paint1_linear_278_8518)"/>
<path d="M22.9363 29.6874C22.662 29.688 22.3924 29.6158 22.1551 29.4781L16.741 26.3531C16.3851 26.1444 16.1261 25.8034 16.0207 25.4045C15.9152 25.0056 15.9718 24.5812 16.1781 24.2239C16.3844 23.8665 16.7237 23.6053 17.1219 23.4972C17.5201 23.3891 17.9448 23.4429 18.3035 23.6468L23.7176 26.7718C24.0154 26.9438 24.2482 27.2093 24.3798 27.527C24.5115 27.8448 24.5346 28.1971 24.4455 28.5294C24.3565 28.8616 24.1604 29.1552 23.8875 29.3645C23.6146 29.5739 23.2803 29.6874 22.9363 29.6874Z" fill="url(#paint2_linear_278_8518)"/>
<path d="M18.75 45.3125H12.5C12.0856 45.3125 11.6882 45.1479 11.3951 44.8549C11.1021 44.5618 10.9375 44.1644 10.9375 43.75C10.9375 43.3356 11.1021 42.9382 11.3951 42.6451C11.6882 42.3521 12.0856 42.1875 12.5 42.1875H18.75C19.1644 42.1875 19.5618 42.3521 19.8549 42.6451C20.1479 42.9382 20.3125 43.3356 20.3125 43.75C20.3125 44.1644 20.1479 44.5618 19.8549 44.8549C19.5618 45.1479 19.1644 45.3125 18.75 45.3125Z" fill="url(#paint3_linear_278_8518)"/>
<path d="M17.5253 64.0626C17.1814 64.0625 16.847 63.949 16.5742 63.7397C16.3013 63.5303 16.1052 63.2367 16.0161 62.9045C15.9271 62.5722 15.9502 62.2199 16.0818 61.9022C16.2134 61.5844 16.4462 61.3189 16.7441 61.1469L22.1581 58.0219C22.3359 57.9177 22.5325 57.8497 22.7367 57.8218C22.9409 57.7939 23.1485 57.8066 23.3477 57.8593C23.547 57.9119 23.7338 58.0035 23.8975 58.1287C24.0612 58.2538 24.1985 58.4102 24.3015 58.5886C24.4045 58.7671 24.4713 58.9641 24.4978 59.1685C24.5244 59.3728 24.5103 59.5804 24.4563 59.7793C24.4023 59.9781 24.3095 60.1643 24.1832 60.3272C24.057 60.4901 23.8998 60.6263 23.7206 60.7282L18.3066 63.8532C18.0693 63.9909 17.7997 64.0631 17.5253 64.0626Z" fill="url(#paint4_linear_278_8518)"/>
<path d="M82.4748 64.0626C82.2004 64.0631 81.9308 63.9909 81.6935 63.8532L76.2795 60.7282C76.1003 60.6263 75.9431 60.4901 75.8169 60.3272C75.6906 60.1643 75.5978 59.9781 75.5438 59.7793C75.4899 59.5804 75.4757 59.3728 75.5023 59.1685C75.5289 58.9641 75.5956 58.7671 75.6986 58.5886C75.8016 58.4102 75.939 58.2538 76.1026 58.1287C76.2663 58.0035 76.4532 57.9119 76.6524 57.8593C76.8516 57.8066 77.0593 57.7939 77.2634 57.8218C77.4676 57.8497 77.6642 57.9177 77.842 58.0219L83.256 61.1469C83.5539 61.3189 83.7867 61.5844 83.9183 61.9022C84.0499 62.2199 84.073 62.5722 83.984 62.9045C83.895 63.2367 83.6988 63.5303 83.4259 63.7397C83.1531 63.949 82.8187 64.0625 82.4748 64.0626Z" fill="url(#paint5_linear_278_8518)"/>
<path d="M87.5 45.3125H81.25C80.8356 45.3125 80.4382 45.1479 80.1451 44.8549C79.8521 44.5618 79.6875 44.1644 79.6875 43.75C79.6875 43.3356 79.8521 42.9382 80.1451 42.6451C80.4382 42.3521 80.8356 42.1875 81.25 42.1875H87.5C87.9144 42.1875 88.3118 42.3521 88.6049 42.6451C88.8979 42.9382 89.0625 43.3356 89.0625 43.75C89.0625 44.1644 88.8979 44.5618 88.6049 44.8549C88.3118 45.1479 87.9144 45.3125 87.5 45.3125Z" fill="url(#paint6_linear_278_8518)"/>
<path d="M74.9996 42.1875H67.1871C67.1871 40.5299 66.5286 38.9402 65.3565 37.7681C64.1844 36.596 62.5947 35.9375 60.9371 35.9375C59.2795 35.9375 57.6897 36.596 56.5176 37.7681C55.3455 38.9402 54.6871 40.5299 54.6871 42.1875H51.5621V37.2125C51.5618 36.9627 51.5017 36.7166 51.3867 36.4948C51.2718 36.2731 51.1053 36.0821 50.9013 35.9379C50.6973 35.7938 50.4617 35.7006 50.2143 35.6663C49.9668 35.6319 49.7148 35.6574 49.4792 35.7406C49.0066 35.9168 48.4983 35.976 47.9978 35.9131C47.4973 35.8502 47.0195 35.667 46.6051 35.3793C46.1908 35.0916 45.8523 34.7078 45.6185 34.2609C45.3847 33.8139 45.2626 33.3169 45.2626 32.8125C45.2626 32.3081 45.3847 31.8111 45.6185 31.3641C45.8523 30.9172 46.1908 30.5334 46.6051 30.2457C47.0195 29.958 47.4973 29.7748 47.9978 29.7119C48.4983 29.649 49.0066 29.7082 49.4792 29.8844C49.7148 29.9676 49.9668 29.9931 50.2143 29.9587C50.4617 29.9244 50.6973 29.8313 50.9013 29.6871C51.1053 29.5429 51.2718 29.3519 51.3867 29.1302C51.5017 28.9084 51.5618 28.6623 51.5621 28.4125V18.75C51.5621 18.3356 51.3974 17.9382 51.1044 17.6451C50.8114 17.3521 50.414 17.1875 49.9996 17.1875C43.9307 17.193 38.0468 19.2764 33.3268 23.0912C28.6068 26.906 25.3354 32.222 24.057 38.1546C22.7786 44.0873 23.5703 50.2788 26.3003 55.6989C29.0303 61.1191 33.5341 65.4409 39.0621 67.9453V70.3125H37.4996C36.2564 70.3125 35.0641 70.8064 34.185 71.6854C33.3059 72.5645 32.8121 73.7568 32.8121 75V78.125C32.8121 79.3682 33.3059 80.5605 34.185 81.4396C35.0641 82.3186 36.2564 82.8125 37.4996 82.8125H39.0621V87.5C39.0645 89.5712 39.8884 91.5569 41.353 93.0215C42.8176 94.4861 44.8033 95.31 46.8746 95.3125H53.1246C55.1958 95.31 57.1815 94.4861 58.6461 93.0215C60.1107 91.5569 60.9346 89.5712 60.9371 87.5V82.8125H62.4996C63.7428 82.8125 64.935 82.3186 65.8141 81.4396C66.6932 80.5605 67.1871 79.3682 67.1871 78.125V75C67.1871 73.7568 66.6932 72.5645 65.8141 71.6854C64.935 70.8064 63.7428 70.3125 62.4996 70.3125H60.9371V67.9453C65.6012 65.8539 69.5594 62.4555 72.3324 58.1614C75.1055 53.8673 76.5746 48.8616 76.5621 43.75C76.5621 43.3356 76.3974 42.9382 76.1044 42.6451C75.8114 42.3521 75.414 42.1875 74.9996 42.1875ZM48.4371 20.3641V26.5625C46.7795 26.5625 45.1897 27.221 44.0176 28.3931C42.8455 29.5652 42.1871 31.1549 42.1871 32.8125C42.1871 34.4701 42.8455 36.0598 44.0176 37.2319C45.1897 38.404 46.7795 39.0625 48.4371 39.0625V42.1875H43.4621C43.2121 42.1876 42.9658 42.2478 42.7438 42.3628C42.5219 42.4779 42.3308 42.6445 42.1866 42.8487C42.0424 43.0529 41.9493 43.2887 41.9151 43.5364C41.8809 43.784 41.9067 44.0362 41.9902 44.2719C42.1664 44.7445 42.2256 45.2528 42.1626 45.7533C42.0997 46.2538 41.9166 46.7316 41.6289 47.146C41.3411 47.5603 40.9574 47.8988 40.5104 48.1326C40.0634 48.3664 39.5665 48.4885 39.0621 48.4885C38.5576 48.4885 38.0607 48.3664 37.6137 48.1326C37.1667 47.8988 36.783 47.5603 36.4952 47.146C36.2075 46.7316 36.0244 46.2538 35.9615 45.7533C35.8985 45.2528 35.9577 44.7445 36.1339 44.2719C36.2174 44.0362 36.2432 43.784 36.209 43.5364C36.1748 43.2887 36.0817 43.0529 35.9375 42.8487C35.7933 42.6445 35.6022 42.4779 35.3803 42.3628C35.1583 42.2478 34.912 42.1876 34.6621 42.1875H26.6136C26.9993 36.5266 29.4224 31.1971 33.4345 27.185C37.4466 23.1729 42.7762 20.7498 48.4371 20.3641ZM41.2105 65.4688C37.1244 63.8281 33.586 61.0647 31.0041 57.4979C28.4222 53.9311 26.9022 49.7066 26.6199 45.3125H32.8121C32.8121 46.9701 33.4705 48.5598 34.6426 49.7319C35.8147 50.904 37.4045 51.5625 39.0621 51.5625C40.7197 51.5625 42.3094 50.904 43.4815 49.7319C44.6536 48.5598 45.3121 46.9701 45.3121 45.3125H48.4371V50.2875C48.4373 50.5373 48.4974 50.7834 48.6124 51.0052C48.7273 51.227 48.8938 51.4179 49.0978 51.5621C49.3018 51.7063 49.5374 51.7994 49.7848 51.8337C50.0323 51.8681 50.2843 51.8426 50.5199 51.7594C50.9925 51.5832 51.5008 51.524 52.0013 51.5869C52.5018 51.6498 52.9796 51.833 53.394 52.1207C53.8083 52.4084 54.1468 52.7922 54.3806 53.2391C54.6144 53.6861 54.7365 54.1831 54.7365 54.6875C54.7365 55.1919 54.6144 55.6889 54.3806 56.1359C54.1468 56.5828 53.8083 56.9666 53.394 57.2543C52.9796 57.542 52.5018 57.7252 52.0013 57.7881C51.5008 57.851 50.9925 57.7918 50.5199 57.6156C50.2843 57.5324 50.0323 57.5069 49.7848 57.5413C49.5374 57.5756 49.3018 57.6687 49.0978 57.8129C48.8938 57.9571 48.7273 58.148 48.6124 58.3698C48.4974 58.5916 48.4373 58.8377 48.4371 59.0875V70.3125H42.1871V66.9156C42.1867 66.6047 42.0936 66.3008 41.9197 66.0431C41.7457 65.7853 41.4988 65.5854 41.2105 65.4688ZM57.8121 87.5C57.8121 88.7432 57.3182 89.9355 56.4391 90.8146C55.56 91.6936 54.3678 92.1875 53.1246 92.1875H46.8746C45.6314 92.1875 44.4391 91.6936 43.56 90.8146C42.6809 89.9355 42.1871 88.7432 42.1871 87.5V82.8125H45.3121V87.5C45.3121 87.9144 45.4767 88.3118 45.7697 88.6049C46.0627 88.8979 46.4602 89.0625 46.8746 89.0625C47.289 89.0625 47.6864 88.8979 47.9794 88.6049C48.2724 88.3118 48.4371 87.9144 48.4371 87.5V82.8125H51.5621V87.5C51.5621 87.9144 51.7267 88.3118 52.0197 88.6049C52.3127 88.8979 52.7102 89.0625 53.1246 89.0625C53.539 89.0625 53.9364 88.8979 54.2294 88.6049C54.5224 88.3118 54.6871 87.9144 54.6871 87.5V82.8125H57.8121V87.5ZM62.4996 73.4375C62.914 73.4375 63.3114 73.6021 63.6044 73.8951C63.8974 74.1882 64.0621 74.5856 64.0621 75V78.125C64.0621 78.5394 63.8974 78.9368 63.6044 79.2299C63.3114 79.5229 62.914 79.6875 62.4996 79.6875H37.4996C37.0852 79.6875 36.6877 79.5229 36.3947 79.2299C36.1017 78.9368 35.9371 78.5394 35.9371 78.125V75C35.9371 74.5856 36.1017 74.1882 36.3947 73.8951C36.6877 73.6021 37.0852 73.4375 37.4996 73.4375H62.4996ZM58.7886 65.4688C58.5001 65.5855 58.253 65.7857 58.079 66.0437C57.905 66.3018 57.8121 66.6059 57.8121 66.9172V70.3125H51.5621V60.9375C53.2197 60.9375 54.8094 60.279 55.9815 59.1069C57.1536 57.9348 57.8121 56.3451 57.8121 54.6875C57.8121 53.0299 57.1536 51.4402 55.9815 50.2681C54.8094 49.096 53.2197 48.4375 51.5621 48.4375V45.3125H56.5371C56.787 45.3124 57.0333 45.2522 57.2553 45.1372C57.4772 45.0221 57.6683 44.8555 57.8125 44.6513C57.9567 44.4471 58.0498 44.2113 58.084 43.9636C58.1182 43.716 58.0924 43.4638 58.0089 43.2281C57.8327 42.7555 57.7735 42.2472 57.8365 41.7467C57.8994 41.2462 58.0825 40.7684 58.3702 40.354C58.658 39.9397 59.0417 39.6012 59.4887 39.3674C59.9357 39.1336 60.4326 39.0115 60.9371 39.0115C61.4415 39.0115 61.9384 39.1336 62.3854 39.3674C62.8324 39.6012 63.2162 39.9397 63.5039 40.354C63.7916 40.7684 63.9747 41.2462 64.0377 41.7467C64.1006 42.2472 64.0414 42.7555 63.8652 43.2281C63.7817 43.4638 63.7559 43.716 63.7901 43.9636C63.8243 44.2113 63.9174 44.4471 64.0616 44.6513C64.2058 44.8555 64.3969 45.0221 64.6188 45.1372C64.8408 45.2522 65.0871 45.3124 65.3371 45.3125H73.3855C73.1019 49.7071 71.5807 53.9318 68.9977 57.4985C66.4148 61.0652 62.8754 63.8284 58.7886 65.4688Z" fill="url(#paint7_linear_278_8518)"/>
<path d="M62.5 4.6875C62.0856 4.6875 61.6882 4.85212 61.3951 5.14515C61.1021 5.43817 60.9375 5.8356 60.9375 6.25V14.0625C59.2799 14.0625 57.6902 14.721 56.5181 15.8931C55.346 17.0652 54.6875 18.6549 54.6875 20.3125C54.6875 21.9701 55.346 23.5598 56.5181 24.7319C57.6902 25.904 59.2799 26.5625 60.9375 26.5625V31.25C60.9375 31.6644 61.1021 32.0618 61.3951 32.3549C61.6882 32.6479 62.0856 32.8125 62.5 32.8125H69.0375C69.2875 32.8124 69.5338 32.7522 69.7557 32.6372C69.9777 32.5221 70.1688 32.3555 70.313 32.1513C70.4572 31.9471 70.5503 31.7113 70.5844 31.4636C70.6186 31.216 70.5929 30.9638 70.5094 30.7281C70.3332 30.2555 70.274 29.7472 70.3369 29.2467C70.3998 28.7462 70.583 28.2684 70.8707 27.854C71.1584 27.4397 71.5422 27.1012 71.9891 26.8674C72.4361 26.6336 72.9331 26.5115 73.4375 26.5115C73.9419 26.5115 74.4389 26.6336 74.8859 26.8674C75.3328 27.1012 75.7166 27.4397 76.0043 27.854C76.292 28.2684 76.4752 28.7462 76.5381 29.2467C76.601 29.7472 76.5418 30.2555 76.3656 30.7281C76.2821 30.9638 76.2564 31.216 76.2906 31.4636C76.3247 31.7113 76.4178 31.9471 76.562 32.1513C76.7062 32.3555 76.8973 32.5221 77.1193 32.6372C77.3412 32.7522 77.5875 32.8124 77.8375 32.8125H87.5C87.9144 32.8125 88.3118 32.6479 88.6049 32.3549C88.8979 32.0618 89.0625 31.6644 89.0625 31.25C89.0546 24.2076 86.2536 17.4559 81.2738 12.4762C76.2941 7.49642 69.5424 4.69536 62.5 4.6875ZM79.6875 29.6875C79.6875 28.0299 79.029 26.4402 77.8569 25.2681C76.6848 24.096 75.0951 23.4375 73.4375 23.4375C71.7799 23.4375 70.1902 24.096 69.0181 25.2681C67.846 26.4402 67.1875 28.0299 67.1875 29.6875H64.0625V24.7125C64.0623 24.4627 64.0021 24.2166 63.8872 23.9948C63.7722 23.7731 63.6057 23.5821 63.4017 23.4379C63.1977 23.2937 62.9622 23.2006 62.7147 23.1663C62.4673 23.1319 62.2152 23.1574 61.9797 23.2406C61.507 23.4168 60.9987 23.476 60.4982 23.4131C59.9977 23.3502 59.5199 23.167 59.1056 22.8793C58.6913 22.5916 58.3527 22.2078 58.1189 21.7609C57.8851 21.3139 57.763 20.8169 57.763 20.3125C57.763 19.8081 57.8851 19.3111 58.1189 18.8641C58.3527 18.4172 58.6913 18.0334 59.1056 17.7457C59.5199 17.458 59.9977 17.2748 60.4982 17.2119C60.9987 17.149 61.507 17.2082 61.9797 17.3844C62.2152 17.4676 62.4673 17.4931 62.7147 17.4587C62.9622 17.4244 63.1977 17.3313 63.4017 17.1871C63.6057 17.0429 63.7722 16.8519 63.8872 16.6302C64.0021 16.4084 64.0623 16.1623 64.0625 15.9125V7.86406C69.7234 8.24977 75.0529 10.6729 79.065 14.685C83.0771 18.6971 85.5002 24.0266 85.8859 29.6875H79.6875Z" fill="url(#paint8_linear_278_8518)"/>
<defs>
<linearGradient id="paint0_linear_278_8518" x1="50" y1="4.6875" x2="50" y2="14.0625" gradientUnits="userSpaceOnUse">
<stop offset="0.583333" stop-color="#603C93"/>
<stop offset="1" stop-color="#AE806C"/>
</linearGradient>
<linearGradient id="paint1_linear_278_8518" x1="32.8082" y1="9.70349" x2="32.8082" y2="18.25" gradientUnits="userSpaceOnUse">
<stop offset="0.583333" stop-color="#603C93"/>
<stop offset="1" stop-color="#AE806C"/>
</linearGradient>
<linearGradient id="paint2_linear_278_8518" x1="20.2338" y1="23.4426" x2="20.2338" y2="29.6875" gradientUnits="userSpaceOnUse">
<stop offset="0.583333" stop-color="#603C93"/>
<stop offset="1" stop-color="#AE806C"/>
</linearGradient>
<linearGradient id="paint3_linear_278_8518" x1="15.625" y1="42.1875" x2="15.625" y2="45.3125" gradientUnits="userSpaceOnUse">
<stop offset="0.583333" stop-color="#603C93"/>
<stop offset="1" stop-color="#AE806C"/>
</linearGradient>
<linearGradient id="paint4_linear_278_8518" x1="20.2369" y1="57.8074" x2="20.2369" y2="64.0626" gradientUnits="userSpaceOnUse">
<stop offset="0.583333" stop-color="#603C93"/>
<stop offset="1" stop-color="#AE806C"/>
</linearGradient>
<linearGradient id="paint5_linear_278_8518" x1="79.7632" y1="57.8074" x2="79.7632" y2="64.0626" gradientUnits="userSpaceOnUse">
<stop offset="0.583333" stop-color="#603C93"/>
<stop offset="1" stop-color="#AE806C"/>
</linearGradient>
<linearGradient id="paint6_linear_278_8518" x1="84.375" y1="42.1875" x2="84.375" y2="45.3125" gradientUnits="userSpaceOnUse">
<stop offset="0.583333" stop-color="#603C93"/>
<stop offset="1" stop-color="#AE806C"/>
</linearGradient>
<linearGradient id="paint7_linear_278_8518" x1="50.0115" y1="17.1875" x2="50.0115" y2="95.3125" gradientUnits="userSpaceOnUse">
<stop offset="0.583333" stop-color="#603C93"/>
<stop offset="1" stop-color="#AE806C"/>
</linearGradient>
<linearGradient id="paint8_linear_278_8518" x1="71.875" y1="4.6875" x2="71.875" y2="32.8125" gradientUnits="userSpaceOnUse">
<stop offset="0.583333" stop-color="#603C93"/>
<stop offset="1" stop-color="#AE806C"/>
</linearGradient>
</defs>
</svg>
