<svg width="101" height="100" viewBox="0 0 101 100" fill="none" xmlns="http://www.w3.org/2000/svg">
<g clip-path="url(#clip0_278_8500)">
<path d="M100.061 60.5725V39.4275H88.5356C87.6563 36.2291 86.3821 33.1603 84.7356 30.2766L92.8917 22.1205L77.94 7.16882L69.7839 15.3249C66.9003 13.6786 63.8311 12.4042 60.633 11.525V0H39.4881V11.525C36.2898 12.4042 33.2208 13.6786 30.3372 15.3249L22.1811 7.16882L16.1888 13.1609L18.2693 15.241L22.1811 11.3291L29.8814 19.0294L30.8693 18.4267C34.1112 16.4485 37.6233 14.9903 41.3075 14.0921L42.4301 13.8183V2.9419H57.6911V13.8185L58.8138 14.0923C62.498 14.9905 66.0098 16.4487 69.252 18.4269L70.2399 19.0296L77.9402 11.3292L88.7315 22.1205L81.0312 29.8208L81.6339 30.8087C83.6118 34.0505 85.0702 37.5623 85.9687 41.2468L86.2423 42.3694H97.1189V57.6306H86.2423L85.9687 58.7532C85.0704 62.4375 83.612 65.9493 81.6339 69.1915L81.0312 70.1794L88.7315 77.8797L77.9402 88.6709L70.2399 80.9706L69.252 81.5733C66.01 83.5515 62.498 85.0097 58.8138 85.9081L57.6911 86.1817V97.0583H42.4301V86.1817L41.3075 85.9081C37.6233 85.0098 34.1114 83.5515 30.8693 81.5733L29.8814 80.9706L22.1811 88.6709L11.3898 77.8797L19.0901 70.1794L18.4874 69.1915C16.5093 65.9495 15.0511 62.4375 14.1526 58.7532L13.879 57.6306H3.00244V42.3694H13.879L14.1526 41.2468C15.0509 37.5623 16.5095 34.0505 18.4874 30.8087L19.0901 29.8208L11.3898 22.1205L16.2027 17.3078L14.1222 15.2277L7.22917 22.1207L15.3853 30.2768C13.7388 33.1605 12.4646 36.2293 11.5853 39.4277H0.0605469V60.5727H11.5855C12.4648 63.7709 13.7392 66.8399 15.3855 69.7236L7.22936 77.8797L22.1811 92.8314L30.3372 84.6753C33.2208 86.3215 36.29 87.596 39.4881 88.4752V100H60.6328V88.4752C63.8311 87.596 66.9001 86.3215 69.7837 84.6753L77.9398 92.8314L92.8915 77.8797L84.7354 69.7236C86.3817 66.8399 87.6561 63.7707 88.5354 60.5727H100.061V60.5725Z" fill="url(#paint0_linear_278_8500)"/>
<path d="M75.802 50C74.5079 15.8974 25.6077 15.9056 24.3184 50.0002C24.3401 74.3656 55.4915 85.042 70.4012 65.7778L68.0779 63.9733C54.8706 81.0376 27.2779 71.5808 27.2603 49.9996C27.2601 37.4281 37.4883 27.2001 50.06 27.2001C67.4868 26.9793 78.7541 46.8269 69.6561 61.6617L72.1828 63.1688C74.5507 59.1994 75.802 54.6457 75.802 50Z" fill="url(#paint1_linear_278_8500)"/>
<path d="M58.3965 58.1139H61.3384V51.7843C62.3112 51.7792 63.5375 51.7735 64.195 51.7735C72.0632 51.4836 72.0596 40.6653 64.195 40.377H58.3969L58.3965 58.1139ZM64.195 43.3189C65.8187 43.3189 67.1906 44.5811 67.1906 46.0752C67.1906 47.5693 65.8187 48.8316 64.195 48.8316C63.5436 48.8316 62.3357 48.8371 61.3651 48.8422C61.36 47.8857 61.3511 44.3156 61.3482 43.3189H64.195Z" fill="url(#paint2_linear_278_8500)"/>
<path d="M55.5114 46.0752C55.5114 42.9331 52.8478 40.377 49.5741 40.377H43.7756L43.7754 58.1139H46.7173V51.9957L52.6079 58.1219L54.7285 56.083L50.5151 51.7013C53.3432 51.2669 55.5114 48.9098 55.5114 46.0752ZM49.5676 48.8314L46.7475 48.8437L46.7277 43.3187H49.5741C51.1978 43.3187 52.5695 44.5809 52.5695 46.075C52.5695 47.5691 51.1978 48.8314 49.5676 48.8314Z" fill="url(#paint3_linear_278_8500)"/>
<path d="M40.9208 43.3189V40.377H31.7227V58.1393H40.9208V55.1974H34.6646V50.8827H40.351V47.9408H34.6646V43.3189H40.9208Z" fill="url(#paint4_linear_278_8500)"/>
</g>
<defs>
<linearGradient id="paint0_linear_278_8500" x1="50.0605" y1="0" x2="50.0605" y2="100" gradientUnits="userSpaceOnUse">
<stop offset="0.583333" stop-color="#603C93"/>
<stop offset="1" stop-color="#AE806C"/>
</linearGradient>
<linearGradient id="paint1_linear_278_8500" x1="50.0602" y1="24.4261" x2="50.0602" y2="75.7015" gradientUnits="userSpaceOnUse">
<stop offset="0.583333" stop-color="#603C93"/>
<stop offset="1" stop-color="#AE806C"/>
</linearGradient>
<linearGradient id="paint2_linear_278_8500" x1="64.2456" y1="40.377" x2="64.2456" y2="58.1139" gradientUnits="userSpaceOnUse">
<stop offset="0.583333" stop-color="#603C93"/>
<stop offset="1" stop-color="#AE806C"/>
</linearGradient>
<linearGradient id="paint3_linear_278_8500" x1="49.6434" y1="40.377" x2="49.6434" y2="58.1219" gradientUnits="userSpaceOnUse">
<stop offset="0.583333" stop-color="#603C93"/>
<stop offset="1" stop-color="#AE806C"/>
</linearGradient>
<linearGradient id="paint4_linear_278_8500" x1="36.3217" y1="40.377" x2="36.3217" y2="58.1393" gradientUnits="userSpaceOnUse">
<stop offset="0.583333" stop-color="#603C93"/>
<stop offset="1" stop-color="#AE806C"/>
</linearGradient>
<clipPath id="clip0_278_8500">
<rect width="100" height="100" fill="white" transform="translate(0.0605469)"/>
</clipPath>
</defs>
</svg>
