<svg width="970" height="1120" viewBox="0 0 970 1120" fill="none" xmlns="http://www.w3.org/2000/svg">
<path d="M431 0H980V1120H431L346 565L431 0Z" fill="#B68B60"/>
<path d="M431 0H980V1120H431L346 565L431 0Z" fill="#B68B60"/>
<path d="M431 0H980V1120H431L346 565L431 0Z" fill="#B68B60"/>
<path d="M0.5 0H549.5L352 596L549.5 1120H0.5V0Z" fill="#B68B60"/>
<path d="M0.5 0H549.5L352 596L549.5 1120H0.5V0Z" fill="#603C93"/>
<path d="M904.055 391.312C889.853 425.338 860.747 449.575 826.378 460.217C809.07 429.981 805.385 393.3 819.583 359.28C833.781 325.26 862.891 301.017 897.261 290.375C914.568 320.611 918.253 357.297 904.055 391.312Z" fill="#603C93"/>
<g style="mix-blend-mode:screen">
<path d="M864.736 417.847C860.839 418.495 856.961 419.236 853.074 419.928L844.352 421.592L851.099 404.865L862.095 402.651C866.079 401.802 870.073 400.997 874.047 400.103C878.026 399.239 881.996 398.331 885.965 397.409C889.925 396.461 893.89 395.524 897.826 394.478C893.764 394.999 889.727 395.632 885.69 396.255C881.658 396.903 877.63 397.561 873.612 398.268C869.585 398.94 865.581 399.706 861.568 400.427L852.176 402.219L859.221 384.745L870.155 382.541C874.013 381.716 877.876 380.936 881.725 380.067C885.579 379.228 889.418 378.344 893.257 377.451C897.092 376.528 900.926 375.615 904.736 374.594C900.801 375.09 896.894 375.699 892.982 376.292C889.075 376.916 885.173 377.549 881.286 378.231C877.389 378.879 873.511 379.62 869.623 380.313L860.293 382.094L867.677 363.781L877.712 361.754C881.151 361.008 884.604 360.311 888.037 359.525C891.475 358.769 894.899 357.964 898.328 357.155C901.747 356.315 905.166 355.481 908.561 354.543C905.041 354.96 901.549 355.486 898.053 356.001C894.561 356.546 891.075 357.096 887.602 357.694C884.121 358.264 880.658 358.922 877.186 359.535L868.754 361.14L876.524 341.865L876.592 341.85L884.719 340.196C887.419 339.597 890.123 339.047 892.813 338.404C895.508 337.796 898.193 337.138 900.873 336.47C903.548 335.778 906.224 335.091 908.875 334.296C906.098 334.566 903.35 334.944 900.598 335.317C897.85 335.714 895.107 336.122 892.374 336.573C889.636 336.996 886.917 337.511 884.188 337.972L877.601 339.214L886.241 317.789L886.337 317.769C889.269 317.185 892.195 316.586 895.102 315.919C898.014 315.256 900.917 314.554 903.785 313.734C900.796 314.063 897.831 314.51 894.88 315.001C892.166 315.443 889.467 315.948 886.772 316.464L897.29 290.375L886.178 316.115C884.652 314.039 883.116 311.972 881.527 309.935C879.76 307.658 877.954 305.4 876.041 303.206C877.514 305.67 879.093 308.07 880.706 310.451C882.295 312.807 883.947 315.119 885.608 317.431L876.413 338.728L872.608 333.589C870.985 331.469 869.396 329.329 867.735 327.233C866.098 325.122 864.422 323.036 862.732 320.96C861.023 318.893 859.318 316.827 857.521 314.819C858.854 317.121 860.284 319.36 861.704 321.608C863.147 323.841 864.601 326.064 866.098 328.263C867.566 330.477 869.111 332.647 870.618 334.841L875.254 341.344L875.274 341.369L867.016 360.507L862.095 353.831C860.042 351.122 858.029 348.393 855.933 345.708C853.866 343.008 851.76 340.333 849.645 337.663C847.506 335.008 845.376 332.347 843.15 329.751C844.912 332.642 846.767 335.474 848.621 338.311C850.495 341.133 852.374 343.951 854.3 346.739C856.198 349.546 858.169 352.305 860.11 355.083L865.881 363.143L858.043 381.304L852.576 373.878C850.287 370.839 848.027 367.776 845.7 364.763C843.396 361.729 841.049 358.725 838.692 355.726C836.317 352.742 833.941 349.753 831.478 346.822C833.482 350.042 835.578 353.203 837.669 356.369C839.784 359.52 841.904 362.667 844.067 365.788C846.207 368.925 848.414 372.012 850.592 375.124L856.908 383.935L849.437 401.242L843.927 393.752C841.566 390.61 839.233 387.449 836.828 384.333C834.452 381.201 832.028 378.094 829.599 374.997C827.151 371.909 824.702 368.822 822.162 365.788C824.239 369.111 826.407 372.376 828.571 375.64C830.758 378.894 832.951 382.138 835.191 385.358C837.403 388.593 839.687 391.788 841.938 394.999L848.303 403.868L841.155 420.424L836.046 413.484C833.757 410.445 831.497 407.383 829.169 404.369C826.866 401.335 824.519 398.331 822.162 395.332C819.786 392.348 817.41 389.359 814.947 386.428C816.951 389.648 819.047 392.809 821.138 395.975C823.254 399.127 825.374 402.273 827.537 405.395C829.676 408.531 831.883 411.618 834.061 414.73L840.025 423.045L834.124 436.72L831.111 432.646C829.454 430.482 827.832 428.292 826.137 426.152C824.466 423.993 822.756 421.862 821.032 419.737C819.289 417.626 817.55 415.511 815.72 413.454C817.087 415.8 818.55 418.093 820.004 420.38C821.481 422.658 822.969 424.93 824.499 427.178C826.001 429.441 827.581 431.655 829.121 433.893L832.994 439.322L825.036 457.763L826.402 460.222L829.169 459.333L836.664 440.75L843.497 439.361C846.255 438.752 849.022 438.188 851.765 437.535C854.518 436.912 857.261 436.244 859.999 435.567C862.732 434.86 865.465 434.163 868.175 433.358C865.34 433.638 862.529 434.03 859.719 434.413C856.913 434.821 854.112 435.238 851.321 435.704C848.52 436.136 845.743 436.661 842.957 437.142L837.717 438.129L843.314 424.253L853.634 422.172C857.488 421.347 861.356 420.567 865.205 419.698C869.058 418.858 872.898 417.975 876.742 417.082C880.576 416.159 884.41 415.246 888.221 414.225C884.285 414.721 880.378 415.329 876.466 415.923C872.56 416.547 868.658 417.18 864.77 417.862L864.736 417.847Z" fill="#603C93"/>
</g>
<path d="M925.024 437.324C903.148 457.39 873.704 465.881 845.029 463.005C842.633 436.023 852.359 408.585 874.236 388.515C896.107 368.449 925.555 359.957 954.231 362.834C956.626 389.815 946.896 417.258 925.024 437.324Z" fill="#603C93"/>
<g style="mix-blend-mode:screen">
<path d="M887.355 444.343C884.288 443.617 881.212 442.964 878.141 442.272L871.216 440.799L881.797 430.86L890.566 432.632C893.758 433.24 896.946 433.883 900.148 434.458C903.344 435.057 906.546 435.616 909.753 436.171C912.964 436.701 916.171 437.241 919.397 437.692C916.258 436.824 913.099 436.043 909.941 435.258C906.778 434.492 903.615 433.731 900.447 433.01C897.279 432.264 894.101 431.586 890.929 430.875L883.468 429.289L894.522 418.908L903.243 420.67C906.334 421.254 909.42 421.882 912.52 422.432C915.615 423.006 918.716 423.546 921.821 424.081C924.931 424.592 928.036 425.107 931.161 425.539C928.123 424.695 925.066 423.934 922.009 423.163C918.948 422.417 915.886 421.681 912.819 420.979C909.753 420.253 906.677 419.6 903.605 418.908L896.197 417.332L907.782 406.45L915.794 408.065C918.556 408.585 921.309 409.14 924.081 409.621C926.843 410.132 929.615 410.603 932.392 411.064C935.169 411.506 937.946 411.957 940.742 412.321C938.032 411.545 935.304 410.853 932.58 410.151C929.852 409.474 927.119 408.806 924.38 408.173C921.647 407.515 918.899 406.931 916.156 406.308L909.463 404.879L921.657 393.428L921.71 393.438L928.2 394.734C930.369 395.131 932.532 395.563 934.71 395.922C936.883 396.309 939.061 396.658 941.244 396.997C943.431 397.316 945.614 397.644 947.816 397.885C945.701 397.232 943.567 396.663 941.432 396.084C939.293 395.529 937.154 394.984 935.009 394.474C932.865 393.939 930.711 393.477 928.562 392.977L923.337 391.852L936.893 379.125L936.97 379.14C939.307 379.616 941.645 380.082 943.992 380.489C946.339 380.907 948.695 381.29 951.066 381.579C948.773 380.902 946.459 380.318 944.141 379.763C942.012 379.253 939.872 378.786 937.733 378.335L954.234 362.839L937.414 377.908C937.004 375.954 936.584 374.001 936.11 372.057C935.589 369.882 935.038 367.708 934.386 365.553C934.628 367.772 934.966 369.976 935.338 372.175C935.7 374.349 936.12 376.514 936.55 378.678L922.632 391.146L921.599 386.296C921.135 384.279 920.696 382.257 920.193 380.249C919.715 378.236 919.194 376.229 918.667 374.221C918.122 372.219 917.576 370.211 916.943 368.223C917.137 370.28 917.422 372.327 917.697 374.374C917.996 376.415 918.3 378.457 918.648 380.489C918.972 382.526 919.363 384.554 919.72 386.591L920.903 392.672V392.697L908.405 403.898L907.073 397.605C906.493 395.033 905.947 392.456 905.329 389.894C904.735 387.327 904.103 384.765 903.465 382.202C902.804 379.645 902.147 377.083 901.403 374.54C901.712 377.152 902.108 379.753 902.499 382.355C902.91 384.951 903.33 387.548 903.789 390.135C904.223 392.726 904.726 395.308 905.199 397.9L906.681 405.449L894.816 416.081L893.343 409.081C892.701 406.2 892.088 403.314 891.412 400.437C890.755 397.556 890.059 394.685 889.359 391.813C888.635 388.947 887.915 386.075 887.109 383.219C887.481 386.139 887.939 389.05 888.393 391.96C888.867 394.866 889.349 397.772 889.876 400.673C890.373 403.574 890.943 406.47 891.479 409.366L893.107 417.617L881.797 427.748L880.314 420.69C879.652 417.715 879.02 414.731 878.324 411.761C877.648 408.787 876.934 405.822 876.214 402.852C875.47 399.888 874.732 396.923 873.906 393.973C874.297 396.992 874.775 399.996 875.248 403C875.741 406.004 876.243 409.003 876.789 411.997C877.305 414.996 877.895 417.98 878.45 420.974L880.092 429.279L869.275 438.969L867.898 432.426C867.256 429.544 866.643 426.658 865.967 423.782C865.31 420.901 864.614 418.029 863.914 415.158C863.19 412.291 862.47 409.42 861.664 406.563C862.036 409.484 862.494 412.394 862.948 415.305C863.422 418.211 863.904 421.117 864.431 424.017C864.928 426.918 865.498 429.814 866.034 432.71L867.57 440.5L858.636 448.506L857.815 444.662C857.342 442.601 856.897 440.539 856.385 438.483C855.898 436.426 855.366 434.374 854.835 432.323C854.28 430.276 853.725 428.229 853.087 426.192C853.29 428.293 853.585 430.384 853.869 432.47C854.179 434.556 854.492 436.642 854.85 438.718C855.183 440.799 855.579 442.871 855.951 444.947L856.941 450.027L844.892 460.821L845.061 463L847.379 463.206L859.138 452.167L864.595 453.257C866.812 453.66 869.023 454.106 871.245 454.474C873.466 454.872 875.693 455.23 877.919 455.579C880.15 455.908 882.386 456.246 884.631 456.497C882.468 455.834 880.285 455.255 878.107 454.666C875.924 454.101 873.737 453.547 871.544 453.026C869.357 452.481 867.15 452.01 864.957 451.5L860.799 450.606L869.579 442.36L877.813 444.024C880.903 444.608 883.989 445.237 887.089 445.786C890.185 446.361 893.285 446.901 896.39 447.436C899.5 447.946 902.606 448.461 905.73 448.893C902.693 448.049 899.636 447.288 896.579 446.518C893.517 445.772 890.455 445.035 887.389 444.333L887.355 444.343Z" fill="#603C93"/>
</g>
<path d="M152.7 563.117C166.903 597.143 196.008 621.38 230.378 632.022C247.686 601.786 251.37 565.105 237.172 531.085C222.975 497.064 193.864 472.822 159.495 462.18C142.187 492.416 138.503 529.102 152.7 563.117Z" fill="#A77D69"/>
<g style="mix-blend-mode:screen">
<path d="M192.018 589.657C195.915 590.305 199.793 591.046 203.68 591.738L212.402 593.402L205.655 576.674L194.659 574.461C190.675 573.612 186.681 572.807 182.707 571.913C178.728 571.049 174.758 570.141 170.789 569.218C166.829 568.271 162.864 567.334 158.928 566.288C162.989 566.808 167.027 567.442 171.064 568.065C175.096 568.713 179.124 569.371 183.142 570.077C187.169 570.75 191.173 571.516 195.186 572.237L204.578 574.029L197.533 556.555L186.599 554.351C182.746 553.526 178.877 552.746 175.029 551.877C171.175 551.038 167.336 550.154 163.492 549.261C159.657 548.338 155.823 547.425 152.013 546.404C155.948 546.9 159.855 547.509 163.767 548.102C167.674 548.726 171.576 549.359 175.463 550.041C179.36 550.689 183.238 551.43 187.126 552.122L196.456 553.904L189.072 535.591L179.037 533.564C175.598 532.818 172.146 532.121 168.712 531.335C165.274 530.579 161.85 529.774 158.421 528.964C155.002 528.125 151.583 527.291 148.188 526.353C151.708 526.77 155.2 527.296 158.696 527.811C162.188 528.351 165.674 528.906 169.147 529.504C172.628 530.074 176.091 530.731 179.563 531.345L187.995 532.95L180.225 513.675L180.157 513.66L172.03 512.006C169.33 511.407 166.626 510.857 163.936 510.214C161.241 509.606 158.556 508.948 155.876 508.28C153.201 507.588 150.525 506.901 147.874 506.106C150.651 506.376 153.399 506.754 156.151 507.127C158.899 507.524 161.642 507.932 164.375 508.383C167.114 508.805 169.832 509.321 172.561 509.782L179.148 511.024L170.508 489.599L170.412 489.579C167.481 488.995 164.554 488.396 161.647 487.729C158.735 487.066 155.833 486.364 152.964 485.544C155.953 485.873 158.918 486.32 161.869 486.811C164.583 487.253 167.283 487.758 169.977 488.274L159.459 462.185L170.571 487.925C172.097 485.849 173.633 483.782 175.222 481.745C176.989 479.468 178.795 477.21 180.708 475.016C179.235 477.48 177.656 479.88 176.043 482.261C174.454 484.617 172.802 486.929 171.141 489.24L180.336 510.538L184.141 505.399C185.764 503.279 187.353 501.139 189.014 499.043C190.651 496.932 192.327 494.846 194.017 492.77C195.726 490.703 197.431 488.637 199.228 486.629C197.895 488.931 196.465 491.169 195.046 493.418C193.602 495.651 192.148 497.874 190.651 500.073C189.183 502.287 187.638 504.457 186.131 506.651L181.495 513.154L181.476 513.179L189.733 532.317L194.654 525.641C196.707 522.932 198.721 520.203 200.812 517.518C202.878 514.818 204.984 512.143 207.099 509.473C209.239 506.818 211.368 504.157 213.594 501.561C211.832 504.452 209.977 507.284 208.123 510.121C206.249 512.943 204.371 515.761 202.444 518.549C200.546 521.356 198.576 524.115 196.634 526.898L190.863 534.958L198.701 553.119L204.168 545.692C206.457 542.654 208.717 539.591 211.045 536.577C213.348 533.544 215.695 530.54 218.052 527.541C220.428 524.557 222.804 521.567 225.267 518.637C223.262 521.857 221.167 525.018 219.076 528.184C216.96 531.335 214.84 534.482 212.677 537.603C210.538 540.74 208.331 543.827 206.153 546.939L199.836 555.75L207.307 573.057L212.817 565.567C215.178 562.425 217.511 559.264 219.916 556.147C222.292 553.016 224.716 549.909 227.145 546.812C229.594 543.724 232.042 540.637 234.582 537.603C232.505 540.926 230.337 544.19 228.174 547.455C225.986 550.709 223.794 553.953 221.553 557.173C219.341 560.408 217.057 563.603 214.807 566.813L208.442 575.683L215.589 592.239L220.698 585.299C222.987 582.26 225.247 579.197 227.575 576.184C229.878 573.15 232.225 570.146 234.582 567.147C236.958 564.163 239.334 561.174 241.797 558.243C239.793 561.463 237.697 564.624 235.606 567.79C233.491 570.941 231.371 574.088 229.207 577.209C227.068 580.346 224.861 583.433 222.683 586.545L216.719 594.86L222.62 608.535L225.634 604.461C227.29 602.296 228.913 600.107 230.608 597.967C232.279 595.807 233.988 593.677 235.712 591.552C237.455 589.441 239.194 587.326 241.024 585.269C239.658 587.615 238.194 589.908 236.741 592.195C235.263 594.472 233.776 596.745 232.245 598.993C230.743 601.256 229.164 603.47 227.623 605.708L223.75 611.137L231.709 629.578L230.342 632.037L227.575 631.148L220.08 612.565L213.247 611.176C210.489 610.567 207.722 610.003 204.979 609.35C202.227 608.727 199.484 608.059 196.745 607.382C194.012 606.675 191.279 605.978 188.57 605.173C191.404 605.453 194.215 605.845 197.026 606.228C199.831 606.635 202.632 607.053 205.423 607.519C208.224 607.951 211.001 608.476 213.788 608.957L219.027 609.944L213.43 596.068L203.11 593.986C199.257 593.162 195.388 592.381 191.54 591.513C187.686 590.673 183.847 589.79 180.007 588.896C176.173 587.974 172.339 587.061 168.529 586.04C172.464 586.535 176.371 587.144 180.283 587.738C184.19 588.361 188.092 588.995 191.979 589.677L192.018 589.657Z" fill="#A77D69"/>
</g>
<path d="M156.532 630.451C178.409 650.517 207.852 659.009 236.528 656.132C238.923 629.151 229.197 601.712 207.321 581.642C185.45 561.576 156.001 553.084 127.326 555.961C124.93 582.942 134.661 610.386 156.532 630.451Z" fill="#A77D69"/>
<g style="mix-blend-mode:screen">
<path d="M194.201 637.465C197.268 636.739 200.344 636.086 203.415 635.394L210.34 633.922L199.759 623.982L190.99 625.754C187.798 626.363 184.61 627.005 181.409 627.58C178.212 628.179 175.01 628.738 171.803 629.293C168.592 629.823 165.385 630.363 162.159 630.814C165.298 629.946 168.457 629.165 171.615 628.38C174.778 627.614 177.941 626.853 181.109 626.132C184.277 625.386 187.455 624.708 190.627 623.997L198.089 622.411L187.035 612.03L178.313 613.792C175.222 614.376 172.136 615.004 169.036 615.554C165.941 616.128 162.84 616.668 159.735 617.203C156.625 617.714 153.52 618.229 150.396 618.661C153.433 617.817 156.49 617.056 159.547 616.286C162.609 615.539 165.67 614.803 168.737 614.101C171.803 613.375 174.879 612.722 177.951 612.03L185.359 610.454L173.774 599.572L165.762 601.187C163 601.707 160.247 602.262 157.475 602.743C154.713 603.254 151.941 603.725 149.164 604.186C146.387 604.628 143.611 605.08 140.814 605.443C143.524 604.667 146.252 603.975 148.976 603.273C151.704 602.596 154.438 601.928 157.176 601.295C159.909 600.637 162.657 600.053 165.4 599.43L172.093 598.002L159.899 586.55L159.846 586.56L153.356 587.856C151.187 588.253 149.024 588.685 146.846 589.044C144.673 589.431 142.495 589.78 140.312 590.119C138.125 590.438 135.942 590.767 133.74 591.007C135.855 590.354 137.989 589.785 140.124 589.206C142.263 588.651 144.402 588.106 146.547 587.596C148.691 587.061 150.845 586.599 152.994 586.099L158.219 584.975L144.663 572.247L144.586 572.262C142.249 572.738 139.911 573.204 137.564 573.612C135.217 574.029 132.861 574.412 130.49 574.701C132.783 574.024 135.097 573.44 137.415 572.885C139.544 572.375 141.684 571.908 143.823 571.457L127.322 555.961L144.142 571.03C144.552 569.076 144.972 567.123 145.446 565.179C145.967 563.004 146.518 560.83 147.17 558.675C146.928 560.894 146.59 563.098 146.218 565.297C145.856 567.471 145.436 569.636 145.006 571.8L158.924 584.268L159.957 579.418C160.421 577.401 160.86 575.379 161.363 573.371C161.841 571.359 162.362 569.351 162.889 567.343C163.434 565.341 163.98 563.333 164.613 561.345C164.419 563.402 164.135 565.449 163.859 567.496C163.56 569.538 163.256 571.579 162.908 573.612C162.584 575.649 162.193 577.676 161.836 579.713L160.653 585.794V585.819L173.151 597.02L174.483 590.727C175.063 588.155 175.609 585.578 176.227 583.016C176.821 580.449 177.453 577.882 178.091 575.325C178.752 572.767 179.409 570.205 180.153 567.663C179.844 570.274 179.448 572.875 179.057 575.477C178.646 578.073 178.226 580.67 177.767 583.257C177.333 585.848 176.83 588.43 176.357 591.022L174.875 598.571L186.74 609.203L188.213 602.203C188.855 599.322 189.468 596.436 190.145 593.559C190.801 590.678 191.497 587.807 192.197 584.935C192.921 582.069 193.641 579.197 194.447 576.341C194.075 579.261 193.617 582.172 193.163 585.083C192.69 587.988 192.207 590.894 191.68 593.795C191.183 596.696 190.613 599.592 190.077 602.488L188.449 610.739L199.759 620.87L201.242 613.812C201.904 610.837 202.536 607.853 203.232 604.883C203.908 601.909 204.622 598.944 205.342 595.974C206.086 593.01 206.825 590.045 207.65 587.095C207.259 590.114 206.781 593.118 206.308 596.122C205.815 599.126 205.313 602.125 204.767 605.119C204.251 608.118 203.661 611.102 203.106 614.096L201.464 622.401L212.282 632.091L213.658 625.548C214.3 622.666 214.913 619.78 215.589 616.904C216.246 614.023 216.942 611.151 217.642 608.28C218.366 605.413 219.086 602.542 219.892 599.685C219.52 602.606 219.062 605.516 218.608 608.427C218.134 611.333 217.652 614.239 217.125 617.14C216.628 620.04 216.058 622.936 215.522 625.832L213.986 633.622L222.92 641.628L223.741 637.784C224.214 635.723 224.659 633.661 225.171 631.605C225.658 629.548 226.19 627.496 226.721 625.445C227.276 623.398 227.831 621.351 228.469 619.314C228.266 621.415 227.976 623.506 227.687 625.592C227.378 627.678 227.064 629.764 226.706 631.84C226.378 633.922 225.977 635.993 225.605 638.069L224.615 643.149L236.664 653.943L236.495 656.122L234.177 656.329L222.418 645.289L216.961 646.379C214.744 646.782 212.533 647.228 210.311 647.596C208.09 647.994 205.864 648.352 203.637 648.701C201.406 649.03 199.17 649.368 196.925 649.619C199.088 648.956 201.271 648.377 203.449 647.788C205.632 647.223 207.819 646.669 210.012 646.148C212.199 645.604 214.406 645.132 216.599 644.622L220.757 643.729L211.977 635.482L203.743 637.146C200.653 637.73 197.567 638.359 194.467 638.908C191.371 639.483 188.271 640.023 185.166 640.558C182.056 641.068 178.95 641.584 175.826 642.016C178.864 641.171 181.92 640.41 184.977 639.64C188.039 638.894 191.101 638.157 194.167 637.456L194.201 637.465Z" fill="#A77D69"/>
</g>
<path d="M197.072 477.892H373.936C378.974 477.892 383.059 482.043 383.059 487.164V845.529C383.059 850.65 378.974 854.801 373.936 854.801H197.072C192.034 854.801 187.95 850.65 187.95 845.529V487.164C187.95 482.043 192.034 477.892 197.072 477.892Z" fill="#050E16"/>
<path d="M194.711 837.656L194.711 495.032C194.711 492.622 196.633 490.669 199.004 490.669H372.005C374.376 490.669 376.298 492.622 376.298 495.032V837.656C376.298 840.066 374.376 842.02 372.005 842.02H199.004C196.633 842.02 194.711 840.066 194.711 837.656Z" fill="white"/>
<g style="mix-blend-mode:screen" opacity="0.63">
<path d="M280.154 829.177C275.32 826.17 273.8 819.749 276.759 814.836C279.717 809.923 286.035 808.378 290.868 811.385C295.702 814.392 297.223 820.813 294.264 825.726C291.305 830.64 284.988 832.185 280.154 829.177Z" fill="#80A6DD"/>
</g>
<g style="mix-blend-mode:screen" opacity="0.63">
<path d="M285.504 828.958C280.765 828.958 276.923 825.053 276.923 820.236C276.923 815.419 280.765 811.514 285.504 811.514C290.244 811.514 294.086 815.419 294.086 820.236C294.086 825.053 290.244 828.958 285.504 828.958Z" fill="#80A6DD"/>
</g>
<path d="M318.437 490.674H252.581V497.624C252.581 501.894 255.99 505.36 260.192 505.36H310.831C315.032 505.36 318.441 501.894 318.441 497.624V490.674H318.437Z" fill="#050E16"/>
<path d="M312.713 631.183H258.317L243.188 641.152V651.121C243.188 685.632 259.322 717.522 285.51 734.78C311.699 717.522 327.833 685.637 327.833 651.121V641.152L312.704 631.183H312.713Z" fill="#5F3917"/>
<path d="M285.517 730.622C273.922 722.553 264.244 711.244 257.444 697.805C250.321 683.722 246.555 667.682 246.555 651.425V643.674L259.222 635.33H311.816L324.483 643.674V651.425C324.483 667.687 320.716 683.722 313.593 697.805C306.794 711.244 297.116 722.548 285.521 730.622H285.517Z" fill="#F7EBCA"/>
<path d="M291.747 694.213C302.289 689.905 307.399 677.727 303.161 667.013C298.923 656.298 286.942 651.103 276.4 655.411C265.858 659.718 260.748 671.896 264.986 682.611C269.224 693.326 281.205 698.52 291.747 694.213Z" fill="#AFEDAB"/>
<path d="M307.54 662.047L281.94 688.061L268.723 674.627L273.368 669.905L281.94 678.618L302.894 657.325L307.54 662.047Z" fill="#268535"/>
<path d="M266.973 581.514L265.287 582.108C265.089 581.465 264.828 580.989 264.505 580.684C264.181 580.38 263.742 580.223 263.182 580.223C262.665 580.223 262.264 580.38 261.979 580.689C261.699 580.999 261.554 581.357 261.554 581.764C261.554 582.211 261.714 582.564 262.032 582.829C262.351 583.095 262.984 583.409 263.93 583.777C264.742 584.091 265.365 584.39 265.799 584.675C266.234 584.96 266.591 585.338 266.862 585.814C267.132 586.29 267.267 586.845 267.267 587.468C267.267 588.484 266.915 589.353 266.205 590.069C265.5 590.786 264.505 591.144 263.23 591.144C261.028 591.144 259.666 590.015 259.145 587.753L260.907 587.247C261.216 588.739 262.018 589.485 263.317 589.485C263.95 589.485 264.432 589.318 264.761 588.985C265.089 588.651 265.253 588.239 265.253 587.748C265.253 587.384 265.142 587.051 264.911 586.746C264.684 586.437 264.119 586.108 263.216 585.76C262.259 585.392 261.574 585.082 261.149 584.827C260.729 584.572 260.366 584.199 260.072 583.698C259.772 583.202 259.627 582.638 259.627 582C259.627 581.038 259.961 580.223 260.617 579.565C261.279 578.908 262.158 578.579 263.249 578.579C265.191 578.579 266.427 579.556 266.963 581.509L266.973 581.514Z" fill="#0B0C0C"/>
<path d="M267.307 578.804H269.451L271.643 583.86L273.869 578.804H275.758L272.445 585.799V590.923H270.47V585.799L267.297 578.804H267.307Z" fill="#0B0C0C"/>
<path d="M283.434 581.514L281.748 582.108C281.55 581.465 281.289 580.989 280.966 580.684C280.642 580.38 280.203 580.223 279.643 580.223C279.126 580.223 278.725 580.38 278.44 580.689C278.16 580.999 278.015 581.357 278.015 581.764C278.015 582.211 278.175 582.564 278.493 582.829C278.812 583.095 279.445 583.409 280.391 583.777C281.203 584.091 281.825 584.39 282.26 584.675C282.695 584.96 283.052 585.338 283.323 585.814C283.593 586.29 283.728 586.845 283.728 587.468C283.728 588.484 283.376 589.353 282.666 590.069C281.961 590.786 280.966 591.144 279.691 591.144C277.489 591.144 276.127 590.015 275.605 587.753L277.368 587.247C277.677 588.739 278.479 589.485 279.778 589.485C280.411 589.485 280.893 589.318 281.222 588.985C281.55 588.651 281.714 588.239 281.714 587.748C281.714 587.384 281.603 587.051 281.376 586.746C281.149 586.437 280.584 586.108 279.681 585.76C278.725 585.392 278.039 585.082 277.614 584.827C277.194 584.572 276.832 584.199 276.538 583.698C276.238 583.202 276.093 582.638 276.093 582C276.093 581.038 276.426 580.223 277.083 579.565C277.745 578.908 278.624 578.579 279.715 578.579C281.656 578.579 282.893 579.556 283.429 581.509L283.434 581.514Z" fill="#0B0C0C"/>
<path d="M284.281 578.804H291.568V580.508H288.903V590.923H286.928V580.508H284.281V578.804Z" fill="#0B0C0C"/>
<path d="M292.423 578.804H299.251V580.41H294.393V583.87H298.203V585.485H294.393V589.274H299.329V590.918H292.418V578.8L292.423 578.804Z" fill="#0B0C0C"/>
<path d="M300.61 578.804H303.537L305.918 587.541L308.356 578.804H311.162V590.923H309.308V580.581L306.473 590.923H305.039L302.257 580.571V590.923H300.605V578.804H300.61Z" fill="#0B0C0C"/>
<path d="M247.845 600.622H250.795C251.737 600.622 252.505 600.711 253.094 600.892C253.683 601.074 254.176 601.472 254.577 602.09C254.977 602.709 255.18 603.455 255.18 604.323C255.18 605.123 255.016 605.811 254.692 606.385C254.364 606.959 253.929 607.372 253.379 607.627C252.828 607.882 251.983 608.01 250.839 608.01H249.815V612.741H247.84V600.622H247.845ZM249.82 602.178V606.405H250.8C251.674 606.405 252.278 606.238 252.611 605.909C252.944 605.58 253.113 605.04 253.113 604.294C253.113 603.739 253.002 603.288 252.78 602.939C252.558 602.596 252.317 602.38 252.051 602.301C251.785 602.223 251.37 602.178 250.795 602.178H249.815H249.82Z" fill="#0B0C0C"/>
<path d="M256.688 600.622H260.276C261.575 600.622 262.531 600.922 263.149 601.521C263.767 602.119 264.076 602.978 264.076 604.098C264.076 605.59 263.468 606.645 262.251 607.268L264.516 612.746H262.376L260.522 607.686H258.663V612.746H256.688V600.627V600.622ZM258.663 602.178V606.13H260.174C260.85 606.13 261.348 605.938 261.662 605.56C261.98 605.182 262.14 604.687 262.14 604.078C262.14 602.812 261.488 602.178 260.189 602.178H258.663Z" fill="#0B0C0C"/>
<path d="M274.146 606.68C274.146 608.751 273.784 610.317 273.055 611.377C272.325 612.437 271.268 612.967 269.882 612.967C268.496 612.967 267.424 612.437 266.685 611.382C265.946 610.326 265.574 608.756 265.574 606.68C265.574 604.603 265.941 603.057 266.675 601.997C267.409 600.932 268.477 600.402 269.872 600.402C271.268 600.402 272.311 600.932 273.045 601.987C273.779 603.042 274.146 604.608 274.146 606.68ZM272.074 606.68C272.074 605.241 271.91 604.108 271.582 603.278C271.253 602.453 270.679 602.036 269.858 602.036C269.037 602.036 268.462 602.448 268.138 603.283C267.815 604.112 267.651 605.246 267.651 606.68C267.651 608.113 267.81 609.217 268.129 610.057C268.448 610.896 269.032 611.318 269.887 611.318C270.683 611.318 271.248 610.911 271.582 610.096C271.915 609.281 272.079 608.142 272.079 606.68H272.074Z" fill="#0B0C0C"/>
<path d="M274.672 600.622H281.959V602.326H279.293V612.741H277.318V602.326H274.672V600.622Z" fill="#0B0C0C"/>
<path d="M282.809 600.622H289.642V602.228H284.784V605.688H288.594V607.303H284.784V611.092H289.719V612.736H282.809V600.618V600.622Z" fill="#0B0C0C"/>
<path d="M297.033 608.667L298.848 608.923C298.477 611.617 297.178 612.962 294.946 612.962C293.498 612.962 292.421 612.398 291.711 611.264C291.001 610.135 290.648 608.623 290.648 606.729C290.648 604.687 291.025 603.121 291.774 602.031C292.522 600.942 293.604 600.397 295.019 600.397C297.206 600.397 298.491 601.776 298.868 604.535L297.033 604.809C296.835 602.974 296.168 602.056 295.029 602.056C293.507 602.056 292.744 603.651 292.744 606.842C292.744 609.811 293.507 611.298 295.029 611.298C295.637 611.298 296.096 611.073 296.395 610.621C296.695 610.169 296.907 609.517 297.037 608.663L297.033 608.667Z" fill="#0B0C0C"/>
<path d="M299.055 600.622H306.342V602.326H303.676V612.741H301.701V602.326H299.055V600.622Z" fill="#0B0C0C"/>
<path d="M307.191 600.622H314.025V602.228H309.167V605.688H312.977V607.303H309.167V611.092H314.102V612.736H307.191V600.618V600.622Z" fill="#0B0C0C"/>
<path d="M315.426 600.622H318.111C319.41 600.622 320.448 600.858 321.23 601.324C322.008 601.791 322.597 602.488 322.998 603.41C323.399 604.333 323.597 605.359 323.597 606.483C323.597 607.666 323.418 608.721 323.061 609.649C322.703 610.577 322.153 611.323 321.419 611.892C320.68 612.462 319.632 612.746 318.265 612.746H315.431V600.627L315.426 600.622ZM317.401 602.228V611.131H318.222C319.371 611.131 320.207 610.729 320.728 609.919C321.245 609.109 321.506 608.034 321.506 606.684C321.506 603.715 320.409 602.228 318.222 602.228H317.401Z" fill="#0B0C0C"/>
<g style="mix-blend-mode:multiply" opacity="0.36">
<path d="M174.039 850.874C183.142 850.874 191.076 851.498 195.297 852.42C213.822 851.498 248.717 850.874 288.717 850.874C328.717 850.874 366.694 851.552 384.499 852.543C389.816 851.552 400.619 850.874 413.093 850.874C430.831 850.874 445.207 852.244 445.207 853.937C445.207 855.631 430.831 857 413.093 857C400.624 857 389.821 856.323 384.499 855.331C366.689 856.323 330.485 857 288.717 857C246.95 857 213.822 856.377 195.297 855.454C191.081 856.377 183.142 857 174.039 857C160.522 857 149.56 855.631 149.56 853.937C149.56 852.244 160.517 850.874 174.039 850.874Z" fill="#385E96"/>
</g>
<path d="M559.655 769.188C540.575 769.188 525.107 753.467 525.107 734.073C525.107 714.68 540.575 698.958 559.655 698.958C578.735 698.958 594.203 714.68 594.203 734.073C594.203 753.467 578.735 769.188 559.655 769.188Z" fill="white"/>
<path d="M559.654 755.769C566.231 755.769 571.562 750.35 571.562 743.665V733.362H547.75V743.665C547.75 750.35 553.081 755.769 559.659 755.769H559.654Z" fill="#634BDB"/>
<path d="M558.816 731.894H547.758C547.758 725.499 552.635 720.266 558.816 719.824V731.894Z" fill="#634BDB"/>
<path d="M560.508 719.824C566.689 720.266 571.566 725.499 571.566 731.894H560.508V719.824Z" fill="#634BDB"/>
<path d="M556.675 721.405C556.815 721.405 556.96 721.375 557.1 721.317C557.64 721.076 557.892 720.438 557.66 719.883L554.753 713.036C554.516 712.486 553.888 712.231 553.342 712.467C552.802 712.707 552.55 713.345 552.782 713.9L555.689 720.747C555.863 721.159 556.259 721.405 556.675 721.405Z" fill="#634BDB"/>
<path d="M562.64 721.405C563.055 721.405 563.451 721.159 563.625 720.747L566.532 713.9C566.769 713.35 566.518 712.707 565.972 712.467C565.426 712.226 564.798 712.481 564.562 713.036L561.655 719.883C561.418 720.433 561.669 721.076 562.215 721.317C562.355 721.375 562.495 721.405 562.64 721.405Z" fill="#634BDB"/>
<path d="M549.048 736.901C549.492 736.901 549.907 736.616 550.062 736.169C550.255 735.6 549.96 734.982 549.4 734.785L543.823 732.822H537.801C537.207 732.822 536.728 733.308 536.728 733.912C536.728 734.515 537.207 735.001 537.801 735.001H543.46L548.695 736.847C548.811 736.886 548.932 736.906 549.048 736.906V736.901Z" fill="#634BDB"/>
<path d="M539.174 753.884C539.454 753.884 539.73 753.776 539.942 753.555L544.834 748.47H549.045C549.639 748.47 550.117 747.984 550.117 747.38C550.117 746.777 549.639 746.291 549.045 746.291H543.931L538.406 752.029C537.991 752.461 538.001 753.148 538.421 753.57C538.629 753.776 538.899 753.879 539.169 753.879L539.174 753.884Z" fill="#634BDB"/>
<path d="M536.455 744.376C536.586 744.376 536.716 744.352 536.842 744.303L542.946 741.903H549.045C549.639 741.903 550.117 741.417 550.117 740.813C550.117 740.209 549.639 739.723 549.045 739.723H542.545L536.069 742.271C535.519 742.487 535.243 743.12 535.456 743.679C535.62 744.111 536.026 744.376 536.455 744.376Z" fill="#634BDB"/>
<path d="M570.267 736.901C570.383 736.901 570.503 736.881 570.619 736.842L575.854 734.996H581.514C582.108 734.996 582.586 734.51 582.586 733.907C582.586 733.303 582.108 732.817 581.514 732.817H575.492L569.914 734.78C569.354 734.977 569.059 735.595 569.253 736.165C569.407 736.616 569.822 736.896 570.267 736.896V736.901Z" fill="#634BDB"/>
<path d="M580.132 753.884C580.403 753.884 580.673 753.781 580.881 753.575C581.306 753.153 581.311 752.466 580.895 752.034L575.371 746.296H570.257C569.663 746.296 569.184 746.782 569.184 747.385C569.184 747.989 569.663 748.475 570.257 748.475H574.468L579.36 753.56C579.567 753.776 579.847 753.889 580.127 753.889L580.132 753.884Z" fill="#634BDB"/>
<path d="M582.854 744.376C583.284 744.376 583.69 744.111 583.854 743.679C584.066 743.12 583.791 742.487 583.241 742.271L576.765 739.723H570.265C569.671 739.723 569.193 740.209 569.193 740.813C569.193 741.417 569.671 741.903 570.265 741.903H576.364L582.468 744.303C582.594 744.352 582.724 744.376 582.854 744.376Z" fill="#634BDB"/>
<path d="M595.659 596.377C576.579 596.377 561.111 580.655 561.111 561.262C561.111 541.868 576.579 526.147 595.659 526.147C614.739 526.147 630.207 541.868 630.207 561.262C630.207 580.655 614.739 596.377 595.659 596.377Z" fill="white"/>
<path d="M584.642 537.707H606.664C608.146 537.707 609.344 538.929 609.344 540.431V557.257C609.344 558.764 608.141 559.981 606.664 559.981H603.196V565.537H600.236V563.682C600.236 563.471 600.067 563.304 599.864 563.304H598.845C598.637 563.304 598.473 563.476 598.473 563.682V565.537H596.537V563.682C596.537 563.471 596.368 563.304 596.165 563.304H595.146C594.938 563.304 594.774 563.476 594.774 563.682V565.537H592.838V563.682C592.838 563.471 592.669 563.304 592.466 563.304H591.447C591.239 563.304 591.075 563.476 591.075 563.682V565.537H588.115V559.981H584.647C583.165 559.981 581.967 558.759 581.967 557.257V540.431C581.967 538.924 583.17 537.707 584.647 537.707H584.642ZM598.517 549.83C598.517 550.508 599.058 551.057 599.724 551.057H604.819C605.485 551.057 606.026 550.508 606.026 549.83V544.652C606.026 543.975 605.485 543.425 604.819 543.425H599.724C599.058 543.425 598.517 543.975 598.517 544.652V549.83ZM594.011 557.846H597.305C597.546 557.846 597.701 557.591 597.594 557.375L595.948 554.027C595.827 553.787 595.489 553.787 595.373 554.027L593.726 557.375C593.62 557.591 593.774 557.846 594.016 557.846H594.011ZM585.294 549.83C585.294 550.508 585.835 551.057 586.502 551.057H591.596C592.263 551.057 592.804 550.508 592.804 549.83V544.652C592.804 543.975 592.263 543.425 591.596 543.425H586.502C585.835 543.425 585.294 543.975 585.294 544.652V549.83Z" fill="#634BDB"/>
<path d="M613.712 564.306L614.973 567.825L577.603 581.65L576.342 578.131L613.712 564.306Z" fill="#634BDB"/>
<path d="M618.931 561.144L620.973 566.845L615.364 568.92L613.322 563.219L618.931 561.144Z" fill="#634BDB"/>
<path d="M575.951 577.045L577.992 582.746L572.383 584.821L570.342 579.12L575.951 577.045Z" fill="#634BDB"/>
<path d="M614.971 578.134L613.711 581.653L576.341 567.828L577.601 564.309L614.971 578.134Z" fill="#634BDB"/>
<path d="M577.995 563.22L575.953 568.921L570.344 566.846L572.386 561.145L577.995 563.22Z" fill="#634BDB"/>
<path d="M620.971 579.121L618.93 584.822L613.321 582.747L615.362 577.046L620.971 579.121Z" fill="#634BDB"/>
<path d="M696.206 854.801C677.126 854.801 661.658 839.08 661.658 819.686C661.658 800.293 677.126 784.571 696.206 784.571C715.286 784.571 730.754 800.293 730.754 819.686C730.754 839.08 715.286 854.801 696.206 854.801Z" fill="white"/>
<path d="M693.218 807.037C693.358 807.037 693.503 807.008 693.643 806.949C694.183 806.708 694.435 806.07 694.203 805.515L691.296 798.668C691.059 798.119 690.431 797.863 689.885 798.099C689.345 798.339 689.093 798.977 689.325 799.532L692.232 806.379C692.406 806.792 692.802 807.037 693.218 807.037Z" fill="#634BDB"/>
<path d="M699.187 807.037C699.602 807.037 699.998 806.792 700.172 806.379L703.079 799.532C703.316 798.982 703.064 798.339 702.519 798.099C701.973 797.858 701.345 798.114 701.109 798.668L698.201 805.515C697.965 806.065 698.216 806.708 698.762 806.949C698.902 807.008 699.042 807.037 699.187 807.037Z" fill="#634BDB"/>
<path d="M687.97 822.533C688.414 822.533 688.829 822.248 688.984 821.802C689.177 821.232 688.882 820.614 688.322 820.417L682.744 818.454H676.722C676.128 818.454 675.65 818.94 675.65 819.544C675.65 820.148 676.128 820.633 676.722 820.633H682.382L687.617 822.479C687.733 822.518 687.854 822.538 687.97 822.538V822.533Z" fill="#634BDB"/>
<path d="M678.1 839.516C678.38 839.516 678.655 839.408 678.868 839.187L683.76 834.102H687.971C688.565 834.102 689.043 833.616 689.043 833.013C689.043 832.409 688.565 831.923 687.971 831.923H682.857L677.332 837.661C676.917 838.093 676.927 838.78 677.347 839.202C677.554 839.408 677.825 839.511 678.095 839.511L678.1 839.516Z" fill="#634BDB"/>
<path d="M675.381 830.009C675.512 830.009 675.642 829.984 675.768 829.935L681.872 827.535H687.971C688.565 827.535 689.043 827.049 689.043 826.445C689.043 825.841 688.565 825.355 687.971 825.355H681.471L674.995 827.903C674.444 828.119 674.169 828.752 674.382 829.312C674.546 829.744 674.951 830.009 675.381 830.009Z" fill="#634BDB"/>
<path d="M704.431 822.533C704.547 822.533 704.667 822.513 704.783 822.474L710.018 820.629H715.678C716.272 820.629 716.75 820.143 716.75 819.539C716.75 818.935 716.272 818.449 715.678 818.449H709.656L704.078 820.413C703.518 820.609 703.223 821.227 703.417 821.797C703.571 822.248 703.986 822.528 704.431 822.528V822.533Z" fill="#634BDB"/>
<path d="M714.304 839.516C714.575 839.516 714.845 839.413 715.053 839.207C715.478 838.785 715.482 838.098 715.067 837.666L709.543 831.928H704.428C703.834 831.928 703.356 832.414 703.356 833.018C703.356 833.621 703.834 834.107 704.428 834.107H708.639L713.531 839.192C713.739 839.408 714.019 839.521 714.299 839.521L714.304 839.516Z" fill="#634BDB"/>
<path d="M717.018 830.009C717.448 830.009 717.854 829.744 718.018 829.312C718.231 828.752 717.955 828.119 717.405 827.903L710.929 825.355H704.429C703.835 825.355 703.357 825.841 703.357 826.445C703.357 827.049 703.835 827.535 704.429 827.535H710.528L716.632 829.935C716.758 829.984 716.888 830.009 717.018 830.009Z" fill="#634BDB"/>
<path d="M706.191 815.607C706.191 810.002 701.72 805.457 696.205 805.457C690.69 805.457 686.218 810.002 686.218 815.607V817.527H706.191V815.607Z" fill="#634BDB"/>
<path d="M697.021 818.994H706.191V831.25C706.191 836.576 702.154 840.94 697.021 841.362V818.994Z" fill="#634BDB"/>
<path d="M695.391 818.994V841.362C690.257 840.94 686.22 836.576 686.22 831.25V818.994H695.391Z" fill="#634BDB"/>
<path d="M472.917 656.677C453.837 656.677 438.369 640.956 438.369 621.562C438.369 602.169 453.837 586.447 472.917 586.447C491.997 586.447 507.465 602.169 507.465 621.562C507.465 640.956 491.997 656.677 472.917 656.677Z" fill="white"/>
<path d="M472.918 598.601C481.905 598.601 489.188 606.002 489.188 615.137V644.524H485.991C485.754 644.524 485.566 644.332 485.566 644.092V642.762C485.566 641.756 484.803 640.877 483.813 640.843C482.789 640.813 481.944 641.648 481.944 642.683V644.092C481.944 644.332 481.755 644.524 481.519 644.524H478.747C478.51 644.524 478.322 644.332 478.322 644.092V642.683C478.322 641.667 477.511 640.843 476.511 640.843C475.511 640.843 474.7 641.667 474.7 642.683V644.092C474.7 644.332 474.512 644.524 474.275 644.524H471.503C471.266 644.524 471.078 644.332 471.078 644.092V642.762C471.078 641.756 470.315 640.877 469.325 640.843C468.301 640.813 467.456 641.648 467.456 642.683V644.092C467.456 644.332 467.268 644.524 467.031 644.524H464.259C464.023 644.524 463.834 644.332 463.834 644.092V642.683C463.834 641.667 463.023 640.843 462.023 640.843C461.024 640.843 460.212 641.667 460.212 642.683V644.092C460.212 644.332 460.024 644.524 459.787 644.524H456.648V615.137C456.648 606.002 463.931 598.601 472.918 598.601ZM476.579 617.832C476.579 620.527 478.727 622.711 481.379 622.711C484.03 622.711 486.179 620.527 486.179 617.832C486.179 615.137 484.03 612.953 481.379 612.953C478.727 612.953 476.579 615.137 476.579 617.832ZM459.662 617.832C459.662 620.527 461.811 622.711 464.462 622.711C467.113 622.711 469.262 620.527 469.262 617.832C469.262 615.137 467.113 612.953 464.462 612.953C461.811 612.953 459.662 615.137 459.662 617.832Z" fill="#634BDB"/>
<path d="M638.882 717.566C619.801 717.566 604.334 701.845 604.334 682.451C604.334 663.058 619.801 647.336 638.882 647.336C657.962 647.336 673.43 663.058 673.43 682.451C673.43 701.845 657.962 717.566 638.882 717.566Z" fill="white"/>
<path d="M638.883 659.49C647.87 659.49 655.152 666.892 655.152 676.026V705.413H651.955C651.719 705.413 651.53 705.222 651.53 704.981V703.651C651.53 702.645 650.767 701.766 649.777 701.732C648.754 701.702 647.909 702.537 647.909 703.572V704.981C647.909 705.222 647.72 705.413 647.484 705.413H644.712C644.475 705.413 644.287 705.222 644.287 704.981V703.572C644.287 702.556 643.475 701.732 642.476 701.732C641.476 701.732 640.665 702.556 640.665 703.572V704.981C640.665 705.222 640.476 705.413 640.24 705.413H637.468C637.231 705.413 637.043 705.222 637.043 704.981V703.651C637.043 702.645 636.28 701.766 635.29 701.732C634.266 701.702 633.421 702.537 633.421 703.572V704.981C633.421 705.222 633.233 705.413 632.996 705.413H630.224C629.987 705.413 629.799 705.222 629.799 704.981V703.572C629.799 702.556 628.988 701.732 627.988 701.732C626.989 701.732 626.177 702.556 626.177 703.572V704.981C626.177 705.222 625.989 705.413 625.752 705.413H622.613V676.026C622.613 666.892 629.896 659.49 638.883 659.49ZM642.543 678.721C642.543 681.416 644.692 683.6 647.344 683.6C649.995 683.6 652.144 681.416 652.144 678.721C652.144 676.026 649.995 673.842 647.344 673.842C644.692 673.842 642.543 676.026 642.543 678.721ZM625.627 678.721C625.627 681.416 627.776 683.6 630.427 683.6C633.078 683.6 635.227 681.416 635.227 678.721C635.227 676.026 633.078 673.842 630.427 673.842C627.776 673.842 625.627 676.026 625.627 678.721Z" fill="#634BDB"/>
<path d="M488.432 854.801C469.352 854.801 453.885 839.08 453.885 819.686C453.885 800.293 469.352 784.571 488.432 784.571C507.513 784.571 522.98 800.293 522.98 819.686C522.98 839.08 507.513 854.801 488.432 854.801Z" fill="white"/>
<path d="M488.434 796.725C497.421 796.725 504.703 804.127 504.703 813.261V842.648H501.506C501.27 842.648 501.081 842.456 501.081 842.216V840.886C501.081 839.88 500.318 839.001 499.328 838.967C498.304 838.937 497.459 839.772 497.459 840.807V842.216C497.459 842.456 497.271 842.648 497.034 842.648H494.262C494.026 842.648 493.837 842.456 493.837 842.216V840.807C493.837 839.791 493.026 838.967 492.027 838.967C491.027 838.967 490.216 839.791 490.216 840.807V842.216C490.216 842.456 490.027 842.648 489.791 842.648H487.019C486.782 842.648 486.594 842.456 486.594 842.216V840.886C486.594 839.88 485.831 839.001 484.841 838.967C483.817 838.937 482.972 839.772 482.972 840.807V842.216C482.972 842.456 482.783 842.648 482.547 842.648H479.775C479.538 842.648 479.35 842.456 479.35 842.216V840.807C479.35 839.791 478.539 838.967 477.539 838.967C476.539 838.967 475.728 839.791 475.728 840.807V842.216C475.728 842.456 475.54 842.648 475.303 842.648H472.164V813.261C472.164 804.127 479.446 796.725 488.434 796.725ZM492.094 815.956C492.094 818.651 494.243 820.835 496.894 820.835C499.546 820.835 501.695 818.651 501.695 815.956C501.695 813.261 499.546 811.077 496.894 811.077C494.243 811.077 492.094 813.261 492.094 815.956ZM475.177 815.956C475.177 818.651 477.326 820.835 479.978 820.835C482.629 820.835 484.778 818.651 484.778 815.956C484.778 813.261 482.629 811.077 479.978 811.077C477.326 811.077 475.177 813.261 475.177 815.956Z" fill="#634BDB"/>
<path d="M364.147 746.965C362.836 738.67 368.388 730.866 376.549 729.533C384.709 728.2 392.388 733.843 393.7 742.138C395.011 750.432 389.459 758.237 381.298 759.57C373.138 760.903 365.459 755.259 364.147 746.965Z" fill="#0C214D"/>
<path d="M378.936 753.933C381.785 753.933 384.094 751.587 384.094 748.691V744.229H373.779V748.691C373.779 751.587 376.087 753.933 378.936 753.933Z" fill="#B54545"/>
<path d="M378.574 743.586H373.784C373.784 740.818 375.899 738.55 378.574 738.358V743.586Z" fill="#B54545"/>
<path d="M379.307 738.358C381.982 738.55 384.098 740.818 384.098 743.586H379.307V738.358Z" fill="#B54545"/>
<path d="M377.646 739.046C377.709 739.046 377.772 739.031 377.83 739.006C378.066 738.903 378.172 738.623 378.071 738.388L376.811 735.423C376.709 735.183 376.434 735.075 376.202 735.178C375.965 735.281 375.859 735.561 375.961 735.796L377.221 738.761C377.298 738.938 377.467 739.046 377.646 739.046Z" fill="#B54545"/>
<path d="M380.229 739.046C380.408 739.046 380.582 738.938 380.654 738.761L381.915 735.796C382.016 735.556 381.91 735.281 381.673 735.178C381.437 735.075 381.166 735.183 381.065 735.423L379.804 738.388C379.703 738.628 379.809 738.903 380.046 739.006C380.104 739.031 380.167 739.046 380.229 739.046Z" fill="#B54545"/>
<path d="M374.344 745.755C374.537 745.755 374.716 745.633 374.783 745.436C374.866 745.191 374.74 744.921 374.499 744.838L372.084 743.988H369.476C369.22 743.988 369.013 744.199 369.013 744.46C369.013 744.72 369.22 744.931 369.476 744.931H371.929L374.199 745.731C374.247 745.751 374.301 745.755 374.349 745.755H374.344Z" fill="#B54545"/>
<path d="M370.07 753.113C370.191 753.113 370.312 753.064 370.403 752.971L372.523 750.767H374.349C374.605 750.767 374.812 750.556 374.812 750.296C374.812 750.036 374.605 749.824 374.349 749.824H372.132L369.742 752.308C369.563 752.495 369.568 752.794 369.751 752.976C369.843 753.064 369.959 753.108 370.075 753.108L370.07 753.113Z" fill="#B54545"/>
<path d="M368.892 748.995C368.95 748.995 369.003 748.985 369.061 748.961L371.707 747.92H374.349C374.605 747.92 374.812 747.709 374.812 747.449C374.812 747.189 374.605 746.978 374.349 746.978H371.533L368.728 748.082C368.486 748.175 368.37 748.45 368.462 748.691C368.535 748.877 368.708 748.99 368.897 748.99L368.892 748.995Z" fill="#B54545"/>
<path d="M383.539 745.755C383.587 745.755 383.64 745.746 383.688 745.731L385.958 744.931H388.411C388.667 744.931 388.875 744.72 388.875 744.46C388.875 744.199 388.667 743.988 388.411 743.988H385.804L383.389 744.838C383.148 744.921 383.017 745.191 383.104 745.436C383.172 745.633 383.35 745.755 383.544 745.755H383.539Z" fill="#B54545"/>
<path d="M387.814 753.113C387.93 753.113 388.046 753.069 388.137 752.981C388.321 752.799 388.326 752.5 388.142 752.313L385.752 749.829H383.535C383.279 749.829 383.071 750.041 383.071 750.301C383.071 750.561 383.279 750.772 383.535 750.772H385.36L387.481 752.976C387.572 753.069 387.693 753.118 387.814 753.118V753.113Z" fill="#B54545"/>
<path d="M388.991 748.995C389.179 748.995 389.353 748.882 389.426 748.696C389.517 748.45 389.402 748.18 389.16 748.087L386.354 746.983H383.539C383.283 746.983 383.075 747.194 383.075 747.454C383.075 747.714 383.283 747.925 383.539 747.925H386.18L388.827 748.966C388.88 748.985 388.938 749 388.996 749L388.991 748.995Z" fill="#B54545"/>
<path d="M632.075 775.016C624.399 771.901 620.662 763.05 623.727 755.249C626.793 747.447 635.5 743.648 643.176 746.764C650.852 749.879 654.589 758.73 651.524 766.532C648.458 774.333 639.751 778.132 632.075 775.016Z" fill="white"/>
<path d="M637.608 770.268C640.457 770.268 642.766 767.922 642.766 765.026V760.564H632.45V765.026C632.45 767.922 634.759 770.268 637.608 770.268Z" fill="#634BDB"/>
<path d="M637.242 759.926H632.452C632.452 757.158 634.567 754.89 637.242 754.699V759.926Z" fill="#634BDB"/>
<path d="M637.975 754.699C640.65 754.89 642.766 757.158 642.766 759.926H637.975V754.699Z" fill="#634BDB"/>
<path d="M636.318 755.381C636.381 755.381 636.443 755.366 636.501 755.342C636.738 755.239 636.844 754.959 636.743 754.723L635.482 751.759C635.381 751.518 635.106 751.41 634.874 751.513C634.637 751.616 634.531 751.896 634.633 752.132L635.893 755.096C635.97 755.273 636.139 755.381 636.318 755.381Z" fill="#634BDB"/>
<path d="M638.901 755.381C639.08 755.381 639.254 755.273 639.326 755.096L640.587 752.132C640.688 751.891 640.582 751.616 640.345 751.513C640.109 751.41 639.838 751.518 639.737 751.759L638.476 754.723C638.375 754.964 638.481 755.239 638.718 755.342C638.776 755.366 638.838 755.381 638.901 755.381Z" fill="#634BDB"/>
<path d="M633.016 762.096C633.209 762.096 633.388 761.973 633.455 761.777C633.537 761.531 633.412 761.261 633.17 761.178L630.756 760.329H628.148C627.892 760.329 627.684 760.54 627.684 760.8C627.684 761.06 627.892 761.271 628.148 761.271H630.601L632.871 762.071C632.919 762.091 632.972 762.096 633.021 762.096H633.016Z" fill="#634BDB"/>
<path d="M628.738 769.453C628.859 769.453 628.98 769.404 629.071 769.311L631.191 767.107H633.017C633.273 767.107 633.48 766.896 633.48 766.636C633.48 766.376 633.273 766.165 633.017 766.165H630.8L628.41 768.648C628.231 768.835 628.236 769.134 628.415 769.316C628.506 769.404 628.622 769.449 628.738 769.449V769.453Z" fill="#634BDB"/>
<path d="M627.56 765.335C627.618 765.335 627.671 765.326 627.729 765.301L630.375 764.26H633.017C633.273 764.26 633.48 764.049 633.48 763.789C633.48 763.529 633.273 763.318 633.017 763.318H630.201L627.396 764.422C627.159 764.516 627.038 764.791 627.13 765.031C627.203 765.218 627.376 765.33 627.565 765.33L627.56 765.335Z" fill="#634BDB"/>
<path d="M642.207 762.096C642.255 762.096 642.308 762.086 642.356 762.071L644.626 761.271H647.079C647.335 761.271 647.543 761.06 647.543 760.8C647.543 760.54 647.335 760.329 647.079 760.329H644.472L642.057 761.178C641.816 761.261 641.685 761.531 641.772 761.777C641.84 761.973 642.018 762.096 642.212 762.096H642.207Z" fill="#634BDB"/>
<path d="M646.477 769.454C646.593 769.454 646.714 769.409 646.801 769.321C646.984 769.139 646.989 768.84 646.81 768.653L644.42 766.17H642.203C641.947 766.17 641.74 766.381 641.74 766.641C641.74 766.901 641.947 767.112 642.203 767.112H644.029L646.149 769.316C646.241 769.409 646.361 769.458 646.482 769.458L646.477 769.454Z" fill="#634BDB"/>
<path d="M647.663 765.335C647.851 765.335 648.025 765.222 648.098 765.036C648.189 764.79 648.073 764.521 647.832 764.427L645.026 763.323H642.211C641.955 763.323 641.747 763.534 641.747 763.794C641.747 764.054 641.955 764.265 642.211 764.265H644.852L647.499 765.306C647.552 765.326 647.61 765.34 647.668 765.34L647.663 765.335Z" fill="#634BDB"/>
<path d="M681.234 580.753C672.968 580.753 666.268 573.943 666.268 565.542C666.268 557.141 672.968 550.331 681.234 550.331C689.499 550.331 696.199 557.141 696.199 565.542C696.199 573.943 689.499 580.753 681.234 580.753Z" fill="white"/>
<path d="M676.466 555.333H686.008C686.65 555.333 687.172 555.863 687.172 556.515V563.804C687.172 564.457 686.65 564.987 686.008 564.987H684.506V567.397H683.222V566.592C683.222 566.504 683.149 566.43 683.062 566.43H682.618C682.531 566.43 682.459 566.504 682.459 566.592V567.397H681.618V566.592C681.618 566.504 681.546 566.43 681.459 566.43H681.019C680.933 566.43 680.86 566.504 680.86 566.592V567.397H680.02V566.592C680.02 566.504 679.947 566.43 679.86 566.43H679.421C679.334 566.43 679.262 566.504 679.262 566.592V567.397H677.977V564.987H676.475C675.833 564.987 675.311 564.457 675.311 563.804V556.515C675.311 555.863 675.833 555.333 676.475 555.333H676.466ZM682.478 560.585C682.478 560.879 682.71 561.115 682.999 561.115H685.206C685.496 561.115 685.728 560.879 685.728 560.585V558.341C685.728 558.047 685.496 557.811 685.206 557.811H682.999C682.71 557.811 682.478 558.047 682.478 558.341V560.585ZM680.527 564.055H681.952C682.053 564.055 682.121 563.942 682.077 563.849L681.362 562.401C681.309 562.298 681.164 562.298 681.111 562.401L680.397 563.849C680.348 563.942 680.416 564.055 680.522 564.055H680.527ZM676.75 560.585C676.75 560.879 676.982 561.115 677.272 561.115H679.479C679.769 561.115 680.001 560.879 680.001 560.585V558.341C680.001 558.047 679.769 557.811 679.479 557.811H677.272C676.982 557.811 676.75 558.047 676.75 558.341V560.585Z" fill="#634BDB"/>
<path d="M689.06 566.866L689.605 568.388L673.414 574.378L672.869 572.856L689.06 566.866Z" fill="#634BDB"/>
<path d="M691.314 565.485L692.199 567.958L689.767 568.857L688.882 566.385L691.314 565.485Z" fill="#634BDB"/>
<path d="M672.697 572.379L673.582 574.851L671.15 575.751L670.264 573.279L672.697 572.379Z" fill="#634BDB"/>
<path d="M689.596 572.856L689.051 574.378L672.859 568.388L673.404 566.866L689.596 572.856Z" fill="#634BDB"/>
<path d="M673.581 566.385L672.695 568.858L670.263 567.958L671.148 565.486L673.581 566.385Z" fill="#634BDB"/>
<path d="M692.202 573.275L691.316 575.747L688.884 574.847L689.769 572.375L692.202 573.275Z" fill="#634BDB"/>
<path d="M485.573 766.68C477.308 766.68 470.608 759.87 470.608 751.469C470.608 743.068 477.308 736.258 485.573 736.258C493.839 736.258 500.539 743.068 500.539 751.469C500.539 759.87 493.839 766.68 485.573 766.68Z" fill="white"/>
<path d="M480.805 741.264H490.348C490.99 741.264 491.512 741.794 491.512 742.447V749.736C491.512 750.389 490.99 750.919 490.348 750.919H488.846V753.329H487.561V752.524C487.561 752.436 487.489 752.362 487.402 752.362H486.963C486.876 752.362 486.803 752.436 486.803 752.524V753.329H485.963V752.524C485.963 752.436 485.891 752.362 485.804 752.362H485.364C485.277 752.362 485.205 752.436 485.205 752.524V753.329H484.365V752.524C484.365 752.436 484.292 752.362 484.205 752.362H483.766C483.679 752.362 483.606 752.436 483.606 752.524V753.329H482.322V750.919H480.82C480.178 750.919 479.656 750.389 479.656 749.736V742.447C479.656 741.794 480.178 741.264 480.82 741.264H480.805ZM486.818 746.516C486.818 746.811 487.05 747.046 487.339 747.046H489.546C489.836 747.046 490.068 746.811 490.068 746.516V744.273C490.068 743.979 489.836 743.743 489.546 743.743H487.339C487.05 743.743 486.818 743.979 486.818 744.273V746.516ZM484.867 749.986H486.291C486.393 749.986 486.46 749.874 486.417 749.78L485.702 748.332C485.649 748.229 485.504 748.229 485.451 748.332L484.736 749.78C484.688 749.874 484.756 749.986 484.862 749.986H484.867ZM481.09 746.516C481.09 746.811 481.322 747.046 481.612 747.046H483.819C484.109 747.046 484.34 746.811 484.34 746.516V744.273C484.34 743.979 484.109 743.743 483.819 743.743H481.612C481.322 743.743 481.09 743.979 481.09 744.273V746.516Z" fill="#634BDB"/>
<path d="M493.396 752.789L493.941 754.311L477.75 760.301L477.205 758.779L493.396 752.789Z" fill="#634BDB"/>
<path d="M495.662 751.421L496.547 753.893L494.115 754.793L493.229 752.321L495.662 751.421Z" fill="#634BDB"/>
<path d="M477.044 758.291L477.93 760.764L475.497 761.663L474.612 759.191L477.044 758.291Z" fill="#634BDB"/>
<path d="M493.943 758.781L493.398 760.303L477.207 754.313L477.752 752.791L493.943 758.781Z" fill="#634BDB"/>
<path d="M477.928 752.317L477.043 754.789L474.611 753.889L475.496 751.417L477.928 752.317Z" fill="#634BDB"/>
<path d="M496.545 759.205L495.66 761.677L493.228 760.777L494.113 758.305L496.545 759.205Z" fill="#634BDB"/>
<path d="M632.286 507.183C630.973 498.888 636.524 491.083 644.685 489.748C652.845 488.414 660.525 494.056 661.838 502.35C663.151 510.644 657.6 518.45 649.439 519.784C641.279 521.119 633.599 515.477 632.286 507.183Z" fill="white"/>
<path d="M645.798 499.249C645.861 499.249 645.924 499.234 645.982 499.21C646.219 499.107 646.325 498.827 646.223 498.591L644.963 495.627C644.862 495.386 644.586 495.278 644.354 495.381C644.118 495.484 644.012 495.764 644.113 496L645.373 498.964C645.451 499.141 645.62 499.249 645.798 499.249Z" fill="#634BDB"/>
<path d="M648.382 499.249C648.56 499.249 648.734 499.141 648.807 498.964L650.067 496C650.169 495.759 650.062 495.484 649.826 495.381C649.589 495.278 649.319 495.386 649.217 495.627L647.957 498.591C647.855 498.832 647.962 499.107 648.198 499.21C648.256 499.234 648.319 499.249 648.382 499.249Z" fill="#634BDB"/>
<path d="M643.516 505.964C643.709 505.964 643.888 505.841 643.955 505.645C644.037 505.399 643.912 505.129 643.67 505.046L641.256 504.197H638.648C638.392 504.197 638.184 504.408 638.184 504.668C638.184 504.928 638.392 505.139 638.648 505.139H641.101L643.371 505.939C643.419 505.959 643.472 505.964 643.521 505.964H643.516Z" fill="#634BDB"/>
<path d="M639.246 513.322C639.367 513.322 639.487 513.273 639.579 513.179L641.699 510.975H643.525C643.781 510.975 643.988 510.764 643.988 510.504C643.988 510.244 643.781 510.033 643.525 510.033H641.308L638.918 512.517C638.739 512.703 638.744 513.003 638.922 513.184C639.014 513.273 639.13 513.317 639.246 513.317V513.322Z" fill="#634BDB"/>
<path d="M638.068 509.204C638.126 509.204 638.179 509.194 638.237 509.174L640.883 508.133H643.525C643.781 508.133 643.988 507.922 643.988 507.662C643.988 507.402 643.781 507.191 643.525 507.191H640.709L637.904 508.295C637.667 508.389 637.546 508.664 637.638 508.904C637.71 509.091 637.884 509.204 638.073 509.204H638.068Z" fill="#634BDB"/>
<path d="M650.652 505.964C650.7 505.964 650.753 505.954 650.802 505.939L653.071 505.139H655.525C655.781 505.139 655.988 504.928 655.988 504.668C655.988 504.408 655.781 504.197 655.525 504.197H652.917L650.502 505.046C650.261 505.129 650.13 505.399 650.217 505.645C650.285 505.841 650.464 505.964 650.657 505.964H650.652Z" fill="#634BDB"/>
<path d="M654.926 513.322C655.042 513.322 655.158 513.277 655.25 513.189C655.433 513.007 655.438 512.708 655.26 512.522L652.869 510.038H650.653C650.397 510.038 650.189 510.249 650.189 510.509C650.189 510.769 650.397 510.98 650.653 510.98H652.478L654.598 513.184C654.69 513.277 654.81 513.326 654.931 513.326L654.926 513.322Z" fill="#634BDB"/>
<path d="M656.104 509.204C656.293 509.204 656.467 509.091 656.539 508.904C656.631 508.664 656.515 508.389 656.273 508.295L653.468 507.191H650.652C650.396 507.191 650.189 507.402 650.189 507.662C650.189 507.922 650.396 508.133 650.652 508.133H653.294L655.94 509.174C655.993 509.194 656.051 509.204 656.109 509.204H656.104Z" fill="#634BDB"/>
<path d="M651.414 502.965C651.414 500.535 649.478 498.567 647.087 498.567C644.697 498.567 642.76 500.535 642.76 502.965V503.794H651.414V502.965Z" fill="#634BDB"/>
<path d="M647.444 504.432H651.418V509.743C651.418 512.05 649.67 513.94 647.444 514.127V504.437V504.432Z" fill="#634BDB"/>
<path d="M646.734 504.432V514.122C644.508 513.94 642.76 512.045 642.76 509.738V504.427H646.734V504.432Z" fill="#634BDB"/>
<path d="M567.181 650.857C559.521 647.702 555.828 638.833 558.932 631.047C562.036 623.261 570.763 619.507 578.423 622.662C586.083 625.817 589.776 634.687 586.672 642.473C583.568 650.259 574.842 654.013 567.181 650.857Z" fill="white"/>
<path d="M572.817 626.829C576.709 626.829 579.867 630.039 579.867 633.995V646.728H578.481C578.38 646.728 578.298 646.644 578.298 646.541V645.967C578.298 645.53 577.964 645.147 577.54 645.137C577.095 645.123 576.733 645.486 576.733 645.932V646.541C576.733 646.644 576.651 646.728 576.55 646.728H575.347C575.246 646.728 575.164 646.644 575.164 646.541V645.932C575.164 645.491 574.811 645.137 574.381 645.137C573.947 645.137 573.599 645.496 573.599 645.932V646.541C573.599 646.644 573.517 646.728 573.415 646.728H572.213C572.112 646.728 572.029 646.644 572.029 646.541V645.967C572.029 645.53 571.696 645.147 571.271 645.137C570.827 645.123 570.465 645.486 570.465 645.932V646.541C570.465 646.644 570.383 646.728 570.281 646.728H569.079C568.977 646.728 568.895 646.644 568.895 646.541V645.932C568.895 645.491 568.543 645.137 568.113 645.137C567.678 645.137 567.331 645.496 567.331 645.932V646.541C567.331 646.644 567.249 646.728 567.147 646.728H565.785V633.995C565.785 630.039 568.944 626.829 572.836 626.829H572.817ZM574.401 635.158C574.401 636.327 575.333 637.274 576.482 637.274C577.631 637.274 578.563 636.327 578.563 635.158C578.563 633.99 577.631 633.043 576.482 633.043C575.333 633.043 574.401 633.99 574.401 635.158ZM567.07 635.158C567.07 636.327 568.002 637.274 569.151 637.274C570.301 637.274 571.233 636.327 571.233 635.158C571.233 633.99 570.301 633.043 569.151 633.043C568.002 633.043 567.07 633.99 567.07 635.158Z" fill="#634BDB"/>
<path d="M583.638 821.114C575.978 817.959 572.285 809.09 575.389 801.304C578.493 793.518 587.22 789.764 594.88 792.919C602.54 796.074 606.233 804.944 603.129 812.73C600.025 820.516 591.299 824.27 583.638 821.114Z" fill="white"/>
<path d="M589.274 797.093C593.166 797.093 596.324 800.303 596.324 804.259V816.992H594.938C594.837 816.992 594.755 816.908 594.755 816.805V816.231C594.755 815.794 594.422 815.411 593.997 815.401C593.552 815.387 593.19 815.75 593.19 816.196V816.805C593.19 816.908 593.108 816.992 593.007 816.992H591.804C591.703 816.992 591.621 816.908 591.621 816.805V816.196C591.621 815.755 591.268 815.401 590.838 815.401C590.404 815.401 590.056 815.76 590.056 816.196V816.805C590.056 816.908 589.974 816.992 589.872 816.992H588.67C588.569 816.992 588.486 816.908 588.486 816.805V816.231C588.486 815.794 588.153 815.411 587.728 815.401C587.284 815.387 586.922 815.75 586.922 816.196V816.805C586.922 816.908 586.84 816.992 586.738 816.992H585.536C585.434 816.992 585.352 816.908 585.352 816.805V816.196C585.352 815.755 585 815.401 584.57 815.401C584.135 815.401 583.788 815.76 583.788 816.196V816.805C583.788 816.908 583.706 816.992 583.604 816.992H582.242V804.259C582.242 800.303 585.401 797.093 589.293 797.093H589.274ZM590.858 805.422C590.858 806.591 591.79 807.538 592.939 807.538C594.088 807.538 595.02 806.591 595.02 805.422C595.02 804.254 594.088 803.307 592.939 803.307C591.79 803.307 590.858 804.254 590.858 805.422ZM583.527 805.422C583.527 806.591 584.459 807.538 585.608 807.538C586.758 807.538 587.69 806.591 587.69 805.422C587.69 804.254 586.758 803.307 585.608 803.307C584.459 803.307 583.527 804.254 583.527 805.422Z" fill="#634BDB"/>
<path d="M686.02 448.211C684.246 440.006 689.353 431.893 697.426 430.09C705.498 428.287 713.48 433.478 715.254 441.683C717.027 449.888 711.921 458.001 703.848 459.804C695.775 461.607 687.793 456.416 686.02 448.211Z" fill="white"/>
<path d="M700.649 434.982C704.541 434.982 707.699 438.193 707.699 442.149V454.881H706.313C706.212 454.881 706.13 454.798 706.13 454.695V454.12C706.13 453.684 705.797 453.301 705.372 453.291C704.927 453.276 704.565 453.639 704.565 454.086V454.695C704.565 454.798 704.483 454.881 704.382 454.881H703.179C703.078 454.881 702.996 454.798 702.996 454.695V454.086C702.996 453.644 702.643 453.291 702.213 453.291C701.779 453.291 701.431 453.649 701.431 454.086V454.695C701.431 454.798 701.349 454.881 701.247 454.881H700.045C699.944 454.881 699.861 454.798 699.861 454.695V454.12C699.861 453.684 699.528 453.301 699.103 453.291C698.659 453.276 698.297 453.639 698.297 454.086V454.695C698.297 454.798 698.215 454.881 698.113 454.881H696.911C696.809 454.881 696.727 454.798 696.727 454.695V454.086C696.727 453.644 696.375 453.291 695.945 453.291C695.51 453.291 695.163 453.649 695.163 454.086V454.695C695.163 454.798 695.081 454.881 694.979 454.881H693.617V442.149C693.617 438.193 696.776 434.982 700.668 434.982H700.649ZM702.233 443.312C702.233 444.48 703.165 445.428 704.314 445.428C705.463 445.428 706.395 444.48 706.395 443.312C706.395 442.144 705.463 441.196 704.314 441.196C703.165 441.196 702.233 442.144 702.233 443.312ZM694.902 443.312C694.902 444.48 695.834 445.428 696.983 445.428C698.133 445.428 699.065 444.48 699.065 443.312C699.065 442.144 698.133 441.196 696.983 441.196C695.834 441.196 694.902 442.144 694.902 443.312Z" fill="#634BDB"/>
<path d="M927.291 412.998V512.045H941.199V412.615L927.291 412.998Z" fill="#C1D0F7"/>
<path d="M941.197 410.318V515.128L1049.66 515.025V410.49L941.197 410.318Z" fill="#08153F"/>
<path d="M832.376 453.797L854.199 453.296L850.36 421.862L816.266 431.341L799.383 471.501L799.04 499.278C799.016 501.183 800.513 502.749 802.387 502.778C808.805 502.881 814.383 498.316 815.648 491.921L818.69 476.567L832.376 453.797Z" fill="#CCA285"/>
<path d="M847.153 451.637L868.977 451.136L865.137 419.703L831.043 429.181L814.16 469.342L813.822 497.118C813.798 499.023 815.295 500.589 817.169 500.618C823.587 500.721 829.165 496.156 830.43 489.761L833.472 474.407L847.158 451.637H847.153Z" fill="#CCA285"/>
<path d="M853.232 456.217L872.008 455.785L868.705 428.739L839.372 436.897L824.846 471.447L824.551 495.347C824.532 496.986 825.817 498.331 827.43 498.355C832.949 498.444 837.75 494.517 838.836 489.015L841.454 475.806L853.232 456.217Z" fill="#CCA285"/>
<path d="M824.12 446.63L845.943 446.13L852.356 463.55L858.417 493.344L882.713 489.417L909.862 481.461L927.281 481.142V415.31L912.625 415.408L852.752 410.401L842.104 414.696L808.01 424.174L791.127 464.335L790.784 492.112C790.76 494.016 792.257 495.582 794.131 495.612C800.549 495.715 806.122 491.15 807.392 484.754L810.434 469.401L824.12 446.63Z" fill="#D8AF93"/>
<g style="mix-blend-mode:screen" opacity="0.27">
<path d="M790.81 490.139L790.993 474.986L794.716 475.914C796.001 476.233 796.87 477.445 796.779 478.785L796.479 483.144C796.271 486.197 794.311 488.838 791.486 489.888L790.81 490.139Z" fill="#D694C8"/>
</g>
<path d="M693.112 460.465L797.91 353.947L878.584 435.944L773.785 542.463L693.112 460.465Z" fill="#061435"/>
<path d="M777.797 538.379L874.555 440.033L805.212 351.485L690.679 467.894L777.797 538.379Z" fill="#C1D0F7"/>
<path d="M773.775 542.463L878.578 435.945L813.524 350.641L689.849 476.341L773.775 542.463Z" fill="#473263"/>
<path d="M749.141 379.198L785.944 341.791L797.906 353.949L754.632 397.934L749.141 379.198Z" fill="#473263"/>
<path d="M852.362 463.555L837.715 467.501L812.434 470.809L803.413 472.738C798.762 473.73 795.454 477.927 795.508 482.752C795.566 487.945 799.477 492.244 804.567 492.716L809.87 493.202L836.71 492.092L858.427 493.354L882.723 489.427V448.319L852.366 463.56L852.362 463.555Z" fill="#D8AF93"/>
<g style="mix-blend-mode:screen" opacity="0.27">
<path d="M809.351 474.883L803.228 476.209C801.586 476.562 800.258 477.794 799.76 479.424L799.645 479.807C798.809 482.541 799.253 485.51 800.847 487.871L801.05 488.175C801.914 489.457 803.344 490.217 804.875 490.217H811.066C812.707 490.217 813.982 488.76 813.784 487.105L812.635 477.284C812.447 475.659 810.921 474.55 809.346 474.888L809.351 474.883Z" fill="#D694C8"/>
</g>
<path d="M319.274 750.757L326.895 767.088L326.518 773.248L323.606 773.861L321.863 770.357L318.815 750.507L319.274 750.757Z" fill="#08153F"/>
<path d="M315.587 748.755L319.276 750.752L320.928 764.304C320.928 764.304 324.4 781.95 324.391 782.333C324.381 782.716 324.352 795.885 324.352 795.885H319.924L315.592 748.755H315.587Z" fill="#08153F"/>
<path d="M315.58 748.754L319.27 758.64L323.602 785.347H309.524L305.193 766.881L310.973 748.082L315.58 748.754Z" fill="#C1D0F7"/>
<path d="M315.584 748.754L317.023 749.54L316.936 751.12L316.304 751.233L316.936 751.297L319.273 770.033L318.385 773.861L315.565 751.223L314.618 748.661L315.584 748.754Z" fill="#AA3333"/>
<path d="M318.422 733.686L318.311 736.911L319.34 741.068L318.572 741.019L316.974 745.181C316.935 745.279 316.843 745.343 316.742 745.343H312.444L314.994 745.824L315.588 748.759H313.091L310.937 748.539L307.653 747.002L307.59 744.735L307.421 738.648L308.382 734.55L315.423 732.571L318.422 733.691V733.686Z" fill="#D8AF93"/>
<path d="M306.492 785.548L300.87 851.714L299.325 854.031V854.801H304.845L304.077 851.827L317.261 801.53L313.272 820.864L315.58 851.994L315.45 854.801H317.019L317.14 854.463L317.792 854.801H325.605L325.364 853.8L319.482 851.93L323.601 785.347L306.492 785.548Z" fill="#061435"/>
<path d="M319.664 728.458L318.848 733.622L311.198 735.202L310.638 734.854L311.203 740.042L309.866 739.34L310.209 742.329L307.635 744.877L304.64 735.418L306.355 732.213L307.485 732.36L308.031 731.261L319.664 728.458Z" fill="#030B19"/>
<path d="M307.63 746.418L299.329 753.481L305.298 781.921L303.661 796.911H310.803C310.803 796.911 320.114 797.417 322.103 788.562L322.258 777.061L305.312 767.264L321.533 775.795L320.051 759.632L310.972 748.077L307.63 746.413V746.418Z" fill="#08153F"/>
<path d="M324.339 769.488L324.711 768.04L323.644 765.963L321.611 765.836L324.339 769.488Z" fill="#D8AF93"/>
<path d="M325.262 769.124L325.131 773.542L321.534 775.8L304.728 766.955L307.853 755.214L322.905 767.726L325.262 769.124Z" fill="#08153F"/>
<path d="M319.582 767.088L318.737 766.744L319.983 764.938L318.312 766.572L317.434 766.214L318.602 764.157L316.951 766.013L315.869 765.571L317.4 763.274L315.516 765.168L314.98 764.255L316.221 762.15C316.366 761.904 316.685 761.845 316.907 762.022L320.93 765.271C321.084 765.399 321.099 765.63 320.954 765.772C320.49 766.219 319.587 767.093 319.587 767.093L319.582 767.088Z" fill="#D8AF93"/>
<path d="M267.613 810.375L264.527 850.924L268.473 853.132L266.213 853.01L262.002 851.218L260.335 823.544L260.809 820.447L258.655 810.763L267.613 810.375Z" fill="#D8AF93"/>
<path d="M249.41 851.218L249.241 854.801H248.831L248.454 854.06L247.522 854.801H243.577L243.852 854.232L245.117 852.597L246.976 851.361L248.415 851.218H249.41Z" fill="#061435"/>
<path d="M250.295 811.151L246.978 851.36L245.119 852.597L244.703 853.132L245.162 854.04L247.282 853.545L249.407 851.262L255.463 823.731L255.612 820.83L258.969 810.763L250.295 811.151Z" fill="#D8AF93"/>
<path d="M263.035 851.365L266.217 853.01L268.477 853.132L269.916 853.864L270.129 854.801H266.695L262.972 853.368L262.31 854.801H261.992L262.006 851.218L263.035 851.365Z" fill="#061435"/>
<path d="M264.506 754.635L266.761 766.42L264.882 754.429L264.675 752.711L267.558 750.114L274.246 769.527L269.967 774.17L266.809 773.179L264.506 754.635Z" fill="#0E1C3D"/>
<path d="M260.954 752.711L264.509 754.635L266.098 767.681C266.098 767.681 269.439 784.665 269.43 785.038C269.42 785.406 269.391 798.084 269.391 798.084H265.127L260.954 752.711Z" fill="#0E1C3D"/>
<path d="M263.69 738.201L263.584 741.308L264.574 745.309L263.835 745.26L262.295 749.265C262.261 749.358 262.169 749.422 262.073 749.422H257.934L259.967 749.805L260.141 752.593L262.449 757.786L263.13 760L253.317 751.022L253.259 748.838L253.1 742.977L254.027 739.031L260.803 737.126L263.69 738.206V738.201Z" fill="#D8AF93"/>
<path d="M260.958 752.711L264.507 762.228L268.68 787.939H255.129L250.957 770.16L256.52 752.063L258.234 752.313L263.131 760L262.45 757.781L260.142 752.593L260.958 752.711Z" fill="#C1D0F7"/>
<path d="M268.68 787.939L268.245 818.508L246.103 819.5L251.159 788.14L268.68 787.939Z" fill="#0C1933"/>
<path d="M253.301 750.458L246.96 758.93L251.055 784.64L246.96 799.071H256.353C256.353 799.071 265.316 799.557 267.233 791.031L267.383 779.957L251.07 770.528L266.683 778.745L265.253 763.185L256.517 752.063L253.301 750.463V750.458Z" fill="#0E1C3D"/>
<path d="M270.24 774.17L270.598 772.776L269.569 770.779L267.613 770.651L270.24 774.17Z" fill="#D8AF93"/>
<path d="M270.238 773.468L270.146 776.571L266.684 778.745L250.501 770.234L253.51 758.93L267.998 770.97L269.297 771.741C269.895 772.099 270.258 772.757 270.233 773.464L270.238 773.468Z" fill="#0E1C3D"/>
<path d="M267.227 750.413L265.72 748.47C265.667 748.401 265.589 748.352 265.503 748.332L260.374 747.267V747.65L263.185 748.642L262.499 748.725L262.069 749.417H261.084L261.852 751.356C261.905 751.488 262.006 751.587 262.141 751.636L263.798 752.225L265 752.416L267.227 750.413Z" fill="#D8AF93"/>
<path d="M256.195 739.33C256.195 739.33 259.141 747.974 253.298 748.98C249.058 745.181 249.019 738.864 252.11 736.061C254.321 734.054 262.864 731.315 264.096 738.147C264.902 742.55 256.195 739.335 256.195 739.335V739.33Z" fill="#030B19"/>
<path d="M246.962 735.595C246.962 737.583 248.55 739.198 250.506 739.198C252.462 739.198 254.051 737.583 254.051 735.595C254.051 733.607 252.462 731.992 250.506 731.992C248.55 731.992 246.962 733.607 246.962 735.595Z" fill="#030B19"/>
<path d="M348.81 745.515L353.982 748.784L358.395 760.785L357.782 773.454C357.782 773.454 359.192 780.792 359.187 780.964C359.178 781.356 359.149 794.771 359.149 794.771H354.634L348.805 745.515H348.81Z" fill="#081736"/>
<path d="M349.622 746.025L352.259 748.808L352.684 749.952L352.442 750.845L353.225 751.375L354.572 754.213L355.63 761.899L355.953 767.578L353.988 754.35L349.612 746.609L349.622 746.025Z" fill="#163061"/>
<path d="M353.031 730.863L352.93 734.152L353.992 738.383L353.21 738.334L351.592 742.58C351.553 742.678 351.462 742.746 351.355 742.746L346.975 742.766L349.574 743.242L349.612 746.614L345.536 746.065L342.103 744.474L342.03 742.162L341.842 735.958L342.808 731.776L349.974 729.734L353.031 730.863Z" fill="#D8AF93"/>
<path d="M351.94 726.107L353.075 727.702L353.277 731.221L347.106 732.208L345.106 732.08L345.44 734.873L344.266 735.777L344.691 739.698L342.035 742.344L338.997 732.679L340.731 729.405L341.88 729.553L342.436 728.429L351.94 726.107Z" fill="#030B19"/>
<path d="M349.609 746.609L353.985 754.35L358.398 784.031H344.056L339.642 765.212L342.095 744.469L345.533 746.06L349.609 746.609Z" fill="#C1D0F7"/>
<path d="M349.914 747.851L351.382 748.651L351.295 750.261L350.653 750.374L351.295 750.438L354.516 757.968L354.902 770.145L353.999 774.048L352.777 757.747L349.899 750.364L348.808 747.689L349.914 747.851Z" fill="#AA3333"/>
<path d="M340.966 784.233L335.243 851.655L333.799 853.785L333.669 854.801H339.29L338.508 851.768L351.691 800.882L347.041 824.094L350.228 851.944L350.093 854.801H351.696L351.822 854.453L352.483 854.801H360.398L360.104 853.662L354.203 851.876L358.399 784.031L340.966 784.233Z" fill="#050E1E"/>
<path d="M342.094 744.469L335.203 748.435L339.747 780.541L338.081 795.816H345.358C345.358 795.816 354.843 796.332 356.871 787.305L353.983 760.014L347.869 748.617L342.094 744.469Z" fill="#081736"/>
<path d="M335.21 748.435L327.624 768.501L344.057 784.031L345.27 776.762L335.983 767.598L343.164 758.655L335.21 748.435Z" fill="#081736"/>
<path d="M342.098 744.469L345.469 748.435L346.179 750.659L348.637 752.028L347.512 753.535L352.693 761.32L354.707 767.323L353.987 760.014L347.874 748.617L342.098 744.469Z" fill="#163061"/>
<path d="M403.422 576.984H375.901L369.179 579.32C369.179 579.32 376.698 603.857 338.508 614.008L339.102 653.805C339.102 722.843 384.347 791.178 426.796 854.806H437.111C437.111 854.806 442.07 732.198 442.07 701.913C442.07 667.186 403.418 576.988 403.418 576.988L403.422 576.984Z" fill="#5F3917"/>
<path d="M422.889 576.984H375.905C375.905 576.984 385.955 606.159 347.766 616.31V653.805C347.766 722.843 395.299 801.436 437.12 854.806C437.12 854.806 462.522 813.997 450.618 683.875C445.402 626.839 422.889 576.984 422.889 576.984Z" fill="#93693F"/>
<g style="mix-blend-mode:screen">
<path d="M361.503 622.372V659.872C361.503 723.27 401.6 794.736 440.543 847.316C445.42 834.686 453.789 804.843 453.789 748.631C453.789 730.048 452.881 708.564 450.616 683.87C446.473 638.668 431.483 597.972 425.437 583.045H389.653C389.653 583.045 399.697 612.231 361.503 622.377V622.372Z" fill="#ECDDB8"/>
</g>
<path d="M403.132 688.503C403.132 713.58 423.129 733.892 447.787 733.892C449.762 733.892 451.699 733.759 453.602 733.509C453.399 725.444 453.022 716.894 452.476 707.842C452.158 702.841 451.786 697.692 451.351 692.386C451.119 689.583 450.873 686.756 450.617 683.865C449.318 669.67 446.937 655.926 444.107 643.287C431.035 644.357 419.551 651.175 412.104 661.237C409.695 664.462 407.72 668.025 406.232 671.854C404.228 677.003 403.132 682.618 403.132 688.498V688.503Z" fill="#AFEDAB"/>
<path d="M451.247 691.402L448.892 693.796L429.365 711.999L423.942 706.487C421.043 702.119 403.97 684.11 421.044 682.145L429.365 695.399L449.677 674.643L450.855 683.421L451.247 691.402Z" fill="#3D7C38"/>
<path d="M172.889 854.458H179.5L178.79 845.082L177.486 827.859H174.903L173.599 845.082L172.889 854.458Z" fill="#5F3917"/>
<g style="mix-blend-mode:multiply" opacity="0.36">
<path d="M173.598 845.082C174.448 845.171 175.312 845.22 176.191 845.22C177.07 845.22 177.939 845.171 178.789 845.082L177.485 827.859H174.897L173.593 845.082H173.598Z" fill="#A77D69"/>
</g>
<path d="M151.719 817.055C151.719 830.318 162.295 841.872 176.194 841.872C192.516 841.872 204.261 825.939 199.668 810.021L198.688 806.63L181.124 745.701C179.685 740.695 172.707 740.695 171.263 745.701L153.699 806.635L152.719 810.026C152.038 812.392 151.719 814.753 151.719 817.065V817.055Z" fill="#A77D69"/>
<g style="mix-blend-mode:multiply" opacity="0.36">
<path d="M153.699 806.63C157.383 815.337 165.873 821.708 176.193 821.708C186.513 821.708 195.003 815.332 198.688 806.625L181.124 745.696C179.685 740.69 172.706 740.69 171.263 745.696L153.699 806.63Z" fill="#A77D69"/>
</g>
<path d="M152.724 779.805L171.268 715.48C172.712 710.473 179.686 710.473 181.13 715.48L199.674 779.805C204.261 795.723 192.522 811.661 176.199 811.661C159.881 811.661 148.137 795.728 152.724 779.805Z" fill="#A77D69"/>
<path d="M176.197 854.801C174.373 854.801 172.894 854.647 172.894 854.458C172.894 854.268 174.373 854.114 176.197 854.114C178.021 854.114 179.5 854.268 179.5 854.458C179.5 854.647 178.021 854.801 176.197 854.801Z" fill="#5F3917"/>
</svg>
