<svg width="120" height="120" viewBox="0 0 120 120" fill="none" xmlns="http://www.w3.org/2000/svg">
<path d="M96.2196 80.1828L92.3959 79.618L90.6863 76.0959C89.7999 74.2704 87.2355 74.2704 86.3483 76.0959L84.6387 79.618L80.815 80.1828C78.8325 80.4749 78.0398 82.9532 79.4747 84.3759L82.2418 87.117L81.5887 90.987C81.2492 92.9938 83.3236 94.5264 85.0971 93.5788L88.5173 91.7514L91.9374 93.5788C93.7101 94.5264 95.7854 92.9947 95.4467 90.9879L94.7937 87.117L97.5599 84.3759C98.9948 82.9541 98.203 80.4749 96.2196 80.1828ZM91.9869 84.9866C91.4168 85.5524 91.1565 86.3663 91.2916 87.1628L91.6807 89.4699L89.6432 88.3805C88.9388 88.0042 88.0966 88.0042 87.3922 88.3805L85.3539 89.4699L85.743 87.1628C85.8781 86.3654 85.6169 85.5515 85.0476 84.9875L83.3983 83.3542L85.6781 83.0173C86.4663 82.901 87.1463 82.3975 87.4985 81.6724L88.5173 79.574L89.5369 81.6733C89.8891 82.3984 90.5701 82.901 91.3573 83.0173L93.6362 83.3542L91.9869 84.9866Z" fill="#623E91"/>
<path d="M112.429 109.796L104.144 95.1325C105.402 93.2035 106.318 91.0492 106.817 88.7796C107.026 87.8321 106.439 86.8927 105.507 86.6803C104.575 86.4688 103.65 87.0649 103.441 88.0124C101.884 95.0959 95.5633 100.153 88.5177 100.153C80.0579 100.153 73.2203 93.1568 73.2203 84.6048C73.2203 76.0318 80.0831 69.0573 88.5177 69.0573C95.4633 69.0573 101.549 73.8272 103.311 80.6397C103.554 81.579 104.5 82.1393 105.424 81.893C106.347 81.6459 106.899 80.6845 106.657 79.7461C106.222 78.0652 105.571 76.4896 104.743 75.0403C104.743 72.5418 104.743 20.4996 104.743 18.0011C104.743 15.4532 102.704 13.3804 100.197 13.3804C97.7458 13.3804 80.9019 13.3804 78.7491 13.3804C74.1499 5.10041 65.6036 0 56.1917 0C46.7798 0 38.2345 5.10041 33.6343 13.3804C31.4834 13.3804 14.68 13.3804 12.1867 13.3804C9.67991 13.3804 7.64062 15.4532 7.64062 18.0011V85.2704C7.64062 87.8183 9.67991 89.8911 12.1867 89.8911H70.501C71.036 91.7734 71.8476 93.5376 72.8915 95.1325L64.6065 109.796C63.6742 111.446 64.9839 113.475 66.8403 113.265L73.3527 112.535L76.0135 118.619C76.7729 120.355 79.1544 120.484 80.0876 118.833L88.5177 103.913L96.9478 118.833C97.88 120.483 100.261 120.358 101.022 118.619L103.684 112.535L110.194 113.265C112.057 113.472 113.359 111.444 112.429 109.796ZM56.1917 3.51563C63.6697 3.51563 70.519 7.23084 74.6777 13.3804H37.7057C41.8654 7.23084 48.7137 3.51563 56.1917 3.51563ZM11.0995 18.0011C11.0995 17.4014 11.5976 16.8961 12.1867 16.8961H31.051V17.4289C31.051 20.8795 33.8136 23.6865 37.2085 23.6865H52.1564C53.1112 23.6865 53.8858 22.9001 53.8858 21.9287C53.8858 20.9583 53.1112 20.1709 52.1564 20.1709H37.2085C35.7205 20.1709 34.5108 18.9404 34.5108 17.4289V16.8961H77.8727V17.4289C77.8727 18.9404 76.663 20.1709 75.1749 20.1709H60.228C59.2723 20.1709 58.4976 20.9583 58.4976 21.9287C58.4976 22.9001 59.2723 23.6865 60.228 23.6865H75.1749C78.5698 23.6865 81.3324 20.8795 81.3324 17.4289V16.8961H100.197C100.786 16.8961 101.284 17.4024 101.284 18.0011V29.1614C101.284 42.1482 91.7523 53.0026 79.2679 54.6479V51.4737C79.2679 49.7104 77.8556 48.2749 76.1207 48.2749H71.9151C70.1794 48.2749 68.7679 49.7104 68.7679 51.4737V54.8648H43.6155V51.4737C43.6155 49.7104 42.204 48.2749 40.4683 48.2749H36.2636C34.5279 48.2749 33.1155 49.7104 33.1155 51.4737V54.6479C20.6303 53.0036 11.0995 42.1491 11.0995 29.1614V18.0011ZM75.8091 51.7905V61.4548H72.2268V51.7905H75.8091ZM40.1566 56.6272V61.4548H36.5744V51.7905H40.1566V56.6226V56.6272ZM69.7615 84.6048C69.7615 85.1349 69.7885 85.7776 69.8425 86.3755H12.1867C11.5976 86.3755 11.0995 85.8692 11.0995 85.2704V43.0234C15.451 51.1661 23.5343 57.0731 33.1155 58.1873V61.7716C33.1155 63.5349 34.5279 64.9704 36.2627 64.9704H40.4683C42.204 64.9704 43.6155 63.5349 43.6155 61.7716V58.3805H68.767V61.7716C68.767 63.5349 70.1794 64.9704 71.9151 64.9704H76.1198C77.8556 64.9704 79.267 63.5349 79.267 61.7716V58.1873C88.8555 57.0731 96.937 51.1569 101.283 43.0234V70.6266C97.8107 67.3334 93.2502 65.5408 88.5177 65.5408C78.1753 65.5408 69.7615 74.0927 69.7615 84.6048ZM78.2375 115.048L76.1658 110.312C75.7559 109.375 74.8101 108.834 73.8247 108.945L68.7553 109.514L75.2281 98.0585C77.8547 100.743 81.2135 102.573 84.8715 103.308L78.2375 115.048ZM103.211 108.945C102.219 108.834 101.277 109.384 100.871 110.312L98.7988 115.048L92.1648 103.308C95.82 102.576 99.1726 100.751 101.808 98.0576L108.28 109.514L103.211 108.945Z" fill="#623E91"/>
</svg>
