<svg width="100" height="100" viewBox="0 0 100 100" fill="none" xmlns="http://www.w3.org/2000/svg">
<path d="M98.2725 46.3536C98.2349 45.5836 97.5877 44.951 96.8255 44.951H80.114L82.8256 38.6651C82.978 38.3119 82.9866 37.8956 82.8489 37.5364L81.4605 33.9141C82.2334 33.6257 82.9827 33.2736 83.6998 32.8588L87.1806 35.0468C87.8241 35.4116 88.4368 35.3242 89.0186 34.7851L92.3841 31.0275C92.8601 30.4962 92.8905 29.6937 92.4562 29.1266L89.9568 25.8647C90.2632 25.1697 90.5165 24.4532 90.715 23.7212L94.7063 22.7846C95.3922 22.6238 95.8657 21.9861 95.8301 21.2716L95.5787 16.2151C95.5433 15.5006 95.0088 14.915 94.3106 14.825L90.2467 14.3022C89.9768 13.5944 89.6536 12.9076 89.2798 12.2475L91.4428 8.74616C91.8187 8.13755 91.7091 7.34214 91.1827 6.86245L87.4616 3.46882C86.941 2.99406 86.1616 2.96394 85.6069 3.39678L82.361 5.93024C81.6676 5.61866 80.953 5.3612 80.2227 5.16042L79.2993 1.14106C79.1394 0.445638 78.5109 -0.0377887 77.8117 0.00236565L72.8002 0.259629C72.0986 0.29565 71.523 0.836946 71.433 1.54496L70.913 5.63854C70.2064 5.91332 69.5208 6.24242 68.862 6.62369L65.3812 4.43568C64.7865 4.06209 64.014 4.17172 63.5432 4.69747L60.1777 8.45505C59.7016 8.9863 59.6712 9.7888 60.1058 10.3559L62.6049 13.6176C62.3668 14.1581 62.1638 14.7124 61.9905 15.276L55.1875 12.2443C54.3434 11.9605 53.7056 12.2136 53.2742 13.0035L47.4997 26.3901V3.45741C47.4997 1.5487 44.5949 1.5487 44.5949 3.45741V9.92363C34.6401 10.3514 25.4589 15.6974 19.9472 24.3142C18.9576 25.8612 21.3076 27.6039 22.3826 25.9236C27.3584 18.1444 35.6255 13.3043 44.5949 12.8783V75.3799H35.6392C34.4174 75.3799 33.4236 74.3634 33.4236 73.1139V68.0523C33.4236 67.5092 33.1302 67.0101 32.6598 66.7524C23.4167 61.693 17.7364 51.9077 17.8356 41.2151C17.8615 38.4206 18.2885 35.6566 19.1048 33C19.6645 31.1781 16.8917 30.2976 16.332 32.1199C15.4309 35.0526 14.9596 38.1033 14.9311 41.1873C14.8246 52.6819 20.7753 63.2263 30.5189 68.92V73.1139C30.5189 75.4771 32.0689 77.4774 34.187 78.1173V85.1108C34.187 89.6268 37.8018 93.3009 42.2448 93.3009H44.5951V98.5235C44.5951 100.432 47.4999 100.432 47.4999 98.5235V63.1895L62.2992 69.7847L61.9663 71.7129C61.4777 71.8815 61.0007 72.0809 60.538 72.3101L57.9301 70.4631C57.3528 70.0541 56.5698 70.1246 56.0723 70.6311L53.2037 73.5493C52.7062 74.0554 52.6374 74.8512 53.0402 75.4378L54.8598 78.0868C54.6348 78.5574 54.439 79.0422 54.2734 79.5392L51.1678 80.0962C50.4714 80.2212 49.965 80.8375 49.9677 81.556L49.9843 85.6964C49.9872 86.4072 50.488 87.015 51.1759 87.1427L54.3004 87.7224C54.471 88.2259 54.6726 88.7174 54.9038 89.1942L53.1098 91.825C52.7097 92.4118 52.78 93.2058 53.2771 93.7103L56.1692 96.6473C56.6659 97.1518 57.4469 97.2228 58.0242 96.8154L60.6111 94.9898C61.0803 95.2244 61.564 95.4287 62.0594 95.6017L62.6326 98.7771C62.7589 99.4762 63.3573 99.9846 64.0566 99.9868L68.1302 99.9998H68.1348C68.8397 99.9998 69.4434 99.4851 69.5654 98.7788L70.1107 95.6216C70.5995 95.4529 71.0763 95.2535 71.5389 95.0244L74.1467 96.8713C74.7242 97.2805 75.5071 97.2101 76.0044 96.7034L78.8731 93.7851C79.3706 93.2791 79.4393 92.4833 79.0365 91.8967L77.2169 89.2477C77.442 88.7771 77.6377 88.2923 77.8033 87.7952L80.909 87.2382C81.6052 87.1132 82.1118 86.4969 82.1091 85.7785L82.0926 81.6381C82.0897 80.9273 81.5889 80.3195 80.9011 80.1917L77.9641 79.6469C82.1209 79.628 86.3426 79.6274 90.4474 79.6274C90.928 79.7191 91.3719 79.5731 91.779 79.189L97.8836 72.5913C98.1369 72.3173 98.2781 71.9557 98.2781 71.5798V46.4272C98.2779 46.4025 98.2736 46.3784 98.2725 46.3536ZM93.4655 47.9035L90.1561 51.4802H69.3179L72.6275 47.9035H93.4655ZM77.075 22.4713C76.9381 22.1138 76.6509 21.8091 76.3048 21.6552L70.7922 19.1985C71.0554 16.508 73.245 14.3353 76.005 14.1936C79.0464 14.0434 81.6373 16.3997 81.7896 19.4585C81.9143 21.9662 80.346 24.2211 78.0456 25.0039L77.075 22.4713ZM75.6373 26.8548L77.2061 30.948L78.8655 35.2779L73.1015 32.6901L75.6373 26.8548ZM65.4527 12.5289L63.1495 9.52307L64.8793 7.59173L68.093 9.61184C68.5727 9.9132 69.1808 9.90532 69.6529 9.59118C70.5896 8.96721 71.605 8.48004 72.6703 8.14306C73.2123 7.97162 73.6062 7.49469 73.679 6.92249L74.1587 3.14621L76.7464 3.01335L77.5981 6.72113C77.7272 7.28309 78.1666 7.71711 78.723 7.83226C79.8158 8.05803 80.8741 8.43891 81.8686 8.96386C82.3692 9.22802 82.9753 9.17349 83.4225 8.8245L86.4193 6.48532L88.3319 8.22947L86.3386 11.4564C86.0349 11.9479 86.0428 12.5748 86.3587 13.0582C86.9753 14.0021 87.4565 15.0242 87.789 16.0966C87.9595 16.6465 88.4293 17.0451 88.992 17.1176L92.7389 17.5996L92.8675 20.1866L89.1874 21.0501C88.6348 21.1796 88.207 21.6247 88.0919 22.189C87.8677 23.2901 87.4902 24.3564 86.9703 25.3582C86.704 25.8716 86.7582 26.4959 87.1089 26.954L89.4123 29.96L87.6823 31.8914L84.4686 29.8713C83.9889 29.5699 83.3808 29.5778 82.9089 29.8917C82.1236 30.4147 81.2833 30.8399 80.4055 31.1625L79.0999 27.7559C82.5439 26.518 84.879 23.1037 84.6902 19.3095C84.4572 14.6246 80.4955 11.0064 75.858 11.245C71.9683 11.4448 68.8213 14.2957 68.0452 17.9746L64.668 16.4696C64.893 15.6604 65.2021 14.8748 65.5911 14.1249C65.8578 13.6113 65.8036 12.987 65.4527 12.5289ZM42.2444 90.3486C39.4031 90.3486 37.0914 87.999 37.0914 85.111V78.3324H44.5947V90.3486H42.2444ZM47.4997 33.743L55.3513 15.5413L73.8045 23.7649L69.8574 32.8474C69.5756 33.7046 69.8229 34.3534 70.5991 34.7943L79.5834 38.828L76.9421 44.9512H71.9994C71.5988 44.9512 71.2159 45.1193 70.9415 45.4159L64.8368 52.0136C64.5374 52.337 64.3802 53.1997 64.4174 53.6649V67.3364L64.0363 67.3352L47.4997 59.9659V33.743ZM79.1992 84.5469L76.4144 85.0464C75.852 85.1474 75.4 85.5738 75.2593 86.1361C75.0416 87.0059 74.7066 87.8364 74.2635 88.6044C73.9767 89.1018 74.0009 89.7234 74.3256 90.196L75.9582 92.573L74.809 93.742L72.4689 92.0847C72.0035 91.755 71.3917 91.7312 70.9028 92.0231C70.1479 92.474 69.331 92.8151 68.4755 93.0374C67.9222 93.1808 67.5031 93.6406 67.4043 94.2125L66.9154 97.0435L65.2716 97.0382L64.7563 94.1837C64.6544 93.6198 64.2406 93.1667 63.6948 93.0218C62.8356 92.7937 62.0143 92.4463 61.2534 91.9894C60.7648 91.6959 60.1527 91.7188 59.6862 92.0479L57.3634 93.6869L56.1879 92.4935L57.7986 90.1313C58.1218 89.6571 58.1439 89.0349 57.8545 88.5383C57.4043 87.7649 57.0617 86.9304 56.8365 86.0574C56.6934 85.5029 56.2474 85.0827 55.6924 84.9795L52.8836 84.4583L52.8768 82.7878L55.6614 82.2882C56.2238 82.1872 56.6758 81.7609 56.8165 81.1985C57.0342 80.3287 57.3692 79.4983 57.8123 78.7302C58.0991 78.2328 58.0749 77.6112 57.7504 77.1386L56.1176 74.7616L57.2668 73.5926L59.6068 75.25C60.0719 75.5799 60.6837 75.6037 61.1727 75.3116C61.9283 74.8606 62.745 74.5193 63.6003 74.2973C64.1536 74.1538 64.5727 73.694 64.6715 73.1222L65.1603 70.2911L66.804 70.2964L67.3193 73.1509C67.4212 73.7149 67.835 74.168 68.3808 74.3128C69.2402 74.541 70.0615 74.8884 70.8222 75.3452C71.311 75.6389 71.9233 75.6161 72.3895 75.2868L74.712 73.6477L75.8875 74.8411L74.2768 77.2034C73.9534 77.6775 73.9315 78.2997 74.2207 78.7963C74.6709 79.5697 75.0135 80.4043 75.2387 81.2773C75.3818 81.8317 75.8278 82.252 76.3829 82.3551L79.1918 82.8763L79.1992 84.5469ZM92.1773 74.4491C92.1767 72.9954 92.1732 69.4042 92.1732 69.4042C92.1732 67.4955 89.2684 67.4955 89.2684 69.4042V76.6751C85.6015 76.6753 81.8577 76.678 78.1591 76.6944L78.9668 75.5096C79.3669 74.9228 79.2966 74.1288 78.7997 73.6243L75.9074 70.6873C75.4105 70.1829 74.6295 70.1118 74.0524 70.5192L71.4657 72.3449C70.9965 72.1103 70.5127 71.906 70.0174 71.7329L69.4441 68.5576C69.2611 67.5439 68.2082 67.2162 67.3424 67.3455C67.3186 65.7058 67.4934 57.1323 67.3424 54.5012H89.2686V61.6965C89.2686 63.6052 92.1734 63.6052 92.1734 61.6965C92.1734 61.6965 92.1779 56.146 92.1779 53.6054L95.3732 50.1522V70.9954L92.1773 74.4491Z" fill="#623E91"/>
<path d="M66.0351 76.9615C66.0279 76.9613 66.0208 76.9613 66.0136 76.9613C64.2604 76.9613 62.6151 77.6533 61.3788 78.9109C60.1375 80.1738 59.4577 81.8552 59.4649 83.6454C59.4721 85.4317 60.1626 87.1126 61.4094 88.3787C62.6562 89.6447 64.3104 90.3451 66.0678 90.3508H66.0893C67.8425 90.3508 69.488 89.6587 70.7243 88.4011C71.9656 87.1382 72.6454 85.4569 72.6382 83.6667C72.6311 81.8806 71.9405 80.1996 70.6939 78.9336C69.4467 77.6675 67.7923 76.9672 66.0351 76.9615ZM68.669 86.3143C67.9788 87.0164 67.0574 87.4091 66.0767 87.3982C65.0914 87.3951 64.1628 87.0014 63.4624 86.2901C62.7617 85.5785 62.3736 84.6351 62.3696 83.6336C62.3655 82.636 62.7435 81.7001 63.4337 80.9978C64.1237 80.2957 65.0488 79.9073 66.0258 79.9138C67.0111 79.9171 67.9397 80.3106 68.6404 81.0222C69.341 81.7335 69.7291 82.677 69.733 83.6785C69.737 84.6762 69.3592 85.612 68.669 86.3143Z" fill="#623E91"/>
<path d="M20.4481 16.9922C21.6674 16.9922 22.3374 15.3486 21.4753 14.4721L16.5227 9.43745C15.195 8.08756 13.1407 10.1754 14.4686 11.5249L19.421 16.5597C19.7047 16.8481 20.0765 16.9922 20.4481 16.9922Z" fill="#623E91"/>
<path d="M10.0294 40.2502H3.02561C1.14772 40.2502 1.14772 43.2027 3.02561 43.2027H10.0296C11.9075 43.2027 11.9075 40.2502 10.0294 40.2502Z" fill="#623E91"/>
<path d="M19.8663 66.7068L14.9139 71.7414C13.586 73.0911 15.6403 75.1789 16.968 73.8288L21.9204 68.7942C23.2483 67.4445 21.194 65.3569 19.8663 66.7068Z" fill="#623E91"/>
</svg>
