<svg width="100" height="100" viewBox="0 0 100 100" fill="none" xmlns="http://www.w3.org/2000/svg">
<g clip-path="url(#clip0_557_104563)">
<path d="M61.6002 100C53.2393 100 46.4375 93.1357 46.4375 84.6981C46.4375 76.2605 53.2393 69.3961 61.6002 69.3961C69.9611 69.3961 76.7629 76.2605 76.7629 84.6981C76.7629 93.1357 69.9611 100 61.6002 100ZM61.6002 72.8154C55.0942 72.8154 49.8011 78.1459 49.8011 84.6981C49.8011 91.2502 55.0942 96.5808 61.6002 96.5808C68.1063 96.5808 73.3993 91.2502 73.3993 84.6981C73.3993 78.1459 68.1065 72.8154 61.6002 72.8154Z" fill="#623E91"/>
<path d="M58.6036 89.7927L55.0268 85.8716C54.3951 85.1791 54.4353 84.097 55.1166 83.4549C55.7984 82.8126 56.8625 82.8534 57.4943 83.5462L59.8351 86.1122L65.7483 79.6066C66.3786 78.9128 67.4432 78.8699 68.1258 79.5111C68.8082 80.1519 68.8504 81.234 68.2197 81.9278L61.0729 89.7906C60.7551 90.1406 59.9001 90.8673 58.6036 89.7927Z" fill="#623E91"/>
<path d="M95.1264 16.0823L83.4482 18.3938C82.1789 18.6451 81.656 20.2628 82.5316 21.2303L85.9844 25.0451L77.8886 32.0058C78.029 30.1111 78.1591 28.2045 78.2853 26.2885C78.2073 25.0547 77.5604 24.4534 76.3445 24.485C70.9705 25.3461 65.6808 25.9573 60.34 24.4282L75.7235 11.2013L78.9475 14.7632C79.8708 15.7829 81.5015 15.2947 81.8169 14.0241L84.7794 2.10512C84.8904 0.703629 84.2542 0.00170569 82.8709 -0.000431061L70.9516 2.02243C69.6566 2.24209 69.1016 3.88504 69.9904 4.86709L73.4432 8.68183L56.6869 23.0891C51.1889 20.625 46.5528 16.5045 41.5463 12.053C40.6897 11.4306 39.8881 11.4966 39.1413 12.2513C30.3882 23.0237 18.5561 27.2588 4.92171 24.4972C3.67256 24.4229 3.0032 25.0199 2.91406 26.2887C3.96309 42.2184 5.22801 55.9829 10.0981 68.4363C15.684 82.7199 25.4506 92.4566 39.9564 98.203C40.7622 98.5216 41.8177 98.4929 42.1352 97.6652C42.4726 96.785 42.0441 95.7936 41.1784 95.4506C10.8713 83.4447 8.16213 54.4261 6.41536 28.2355C12.9786 29.2449 19.2069 28.7175 24.9593 26.662C30.8545 24.5551 36.1126 20.8921 40.6112 15.7622C45.2192 19.825 49.2725 23.1474 53.8838 25.4998L38.0362 39.1256L30.3941 39.319C29.9925 39.3291 29.6076 39.485 29.3095 39.7585L21.8356 46.6075C20.8614 47.5002 21.2615 49.1874 22.5293 49.5303L27.671 50.9209L28.7285 55.8857C29.0024 57.1701 30.6182 57.7058 31.5703 56.7252L37.9439 50.1618C38.1594 49.94 38.311 49.6628 38.3824 49.3598L40.1775 41.7643L57.3246 27.0212C63.0028 29.1376 68.8817 29.166 74.785 28.1979C74.6255 30.5474 74.4588 32.8517 74.2738 35.1141L50.5772 55.4887L42.9353 55.6821C42.5337 55.6921 42.1488 55.8481 41.8507 56.1216L34.3768 62.9705C33.4024 63.8635 33.8029 65.5504 35.0705 65.8934L40.2122 67.284L41.2699 72.2489C41.5434 73.5336 43.1598 74.0688 44.1115 73.0883L50.4849 66.5248C50.7004 66.303 50.8519 66.0259 50.9234 65.7229L52.7185 58.1274L73.8348 40.007C73.0534 47.8729 71.8814 55.7496 69.5363 63.2951C69.2565 64.1955 69.7476 65.138 70.6333 65.4224C71.5198 65.7075 72.4639 65.1985 72.7435 64.2985C75.0545 55.1769 76.6844 46.222 77.503 36.8186L88.2647 27.5652L91.4885 31.1267C92.424 32.1603 94.0791 31.6421 94.3675 30.3466L97.0889 18.1387C97.1656 16.7331 96.5114 16.0474 95.1264 16.0823ZM80.8862 3.80448L79.3167 10.1199L74.5706 4.87628L80.8862 3.80448ZM35.2202 48.0981L31.3599 52.0735L30.7426 49.1754C30.6089 48.5481 30.141 48.0496 29.5309 47.8846L26.3935 47.0361L31.1004 42.7226L36.5232 42.5855L35.2202 48.0981ZM47.7612 64.4609L43.9008 68.4363L43.2834 65.538C43.1499 64.9107 42.682 64.4124 42.0719 64.2472L38.9347 63.3987L43.6416 59.0853L49.0642 58.9481L47.7612 64.4609ZM91.7944 26.4126L87.0462 21.1664L93.2371 19.941L91.7944 26.4126Z" fill="#623E91"/>
</g>
<defs>
<clipPath id="clip0_557_104563">
<rect width="98.3854" height="100" fill="white" transform="translate(0.8125)"/>
</clipPath>
</defs>
</svg>
