<svg width="119" height="120" viewBox="0 0 119 120" fill="none" xmlns="http://www.w3.org/2000/svg">
<g clip-path="url(#clip0_557_104393)">
<path d="M75.9671 86.3237C75.9671 84.9357 75.0378 83.8102 73.8917 83.8102C72.7457 83.8102 71.8164 84.9357 71.8164 86.3237V104.741C71.8164 106.129 72.7457 107.254 73.8917 107.254C75.0378 107.254 75.9671 106.129 75.9671 104.741V86.3237Z" fill="#623E91"/>
<path d="M85.3372 84.5996L96.4557 91.124C99.8328 93.1055 99.8399 98.0678 96.4557 100.053C92.9892 102.087 88.4749 105.122 85.0071 106.772C81.6618 108.571 77.2821 105.927 77.5678 102.131C77.5378 99.525 77.5226 97.3406 77.5226 95.5886C77.5226 93.5977 77.342 90.4325 77.5803 88.6041C77.829 84.7654 82.3312 82.4202 85.3372 84.5996ZM94.3967 94.7659L83.2703 88.2368C82.6218 87.9359 81.82 87.9495 81.7113 88.8253C81.7329 91.0413 81.6732 93.3528 81.6732 95.5887C81.6732 98.1811 81.683 100.351 81.7021 102.083C81.777 102.824 82.2672 103.442 83.0274 103.074C86.7262 100.801 90.6355 98.6185 94.3967 96.4114C94.9983 96.0593 94.997 95.1178 94.3967 94.7659Z" fill="#623E91"/>
<path d="M34.6613 -0.000274658H69.9442C71.0903 -0.000274658 72.0195 0.944244 72.0195 2.10911V18.7588C72.0195 19.9237 71.0903 20.8682 69.9442 20.8682H34.6613C33.5152 20.8682 32.5859 19.9237 32.5859 18.7588V2.10911C32.5859 0.944244 33.5152 -0.000274658 34.6613 -0.000274658ZM67.8689 4.21849H36.7366V16.6494H67.8689V4.21849Z" fill="#623E91"/>
<path d="M36.9464 42.7402C35.8004 42.7402 34.8711 43.6847 34.8711 44.8496C34.8711 46.0144 35.8004 46.9589 36.9464 46.9589H67.6629C68.809 46.9589 69.7382 46.0144 69.7382 44.8496C69.7382 43.6847 68.809 42.7402 67.6629 42.7402H36.9464Z" fill="#623E91"/>
<path d="M36.9464 52.7999C35.8004 52.7999 34.8711 53.7444 34.8711 54.9093C34.8711 56.0742 35.8004 57.0187 36.9464 57.0187H67.6629C68.809 57.0187 69.7382 56.0742 69.7382 54.9093C69.7382 53.7444 68.809 52.7999 67.6629 52.7999H36.9464Z" fill="#623E91"/>
<path d="M36.9464 62.8596C35.8004 62.8596 34.8711 63.8041 34.8711 64.969C34.8711 66.1339 35.8004 67.0784 36.9464 67.0784H67.6629C68.809 67.0784 69.7382 66.1339 69.7382 64.969C69.7382 63.8041 68.809 62.8596 67.6629 62.8596H36.9464Z" fill="#623E91"/>
<path d="M36.9464 72.9193C35.8004 72.9193 34.8711 73.8638 34.8711 75.0286C34.8711 76.1935 35.8004 77.138 36.9464 77.138H67.6629C68.809 77.138 69.7382 76.1935 69.7382 75.0286C69.7382 73.8638 68.809 72.9193 67.6629 72.9193H36.9464Z" fill="#623E91"/>
<path fill-rule="evenodd" clip-rule="evenodd" d="M72.0194 12.5437H88.7397V73.176C85.9903 72.5019 83.1162 72.363 80.3155 72.7621V28.4432C80.3155 27.2784 79.3863 26.3338 78.2402 26.3338H26.3644C25.2184 26.3338 24.2891 27.2784 24.2891 28.4432V91.2898C24.2891 92.4547 25.2184 93.3992 26.3644 93.3992H60.7306C60.4106 96.1436 60.5509 98.9431 61.1536 101.639H15.8655V12.5438H32.5858H34.6611C35.8072 12.5438 36.7364 11.5993 36.7364 10.4344C36.7364 9.26956 35.8072 8.32505 34.6611 8.32505H32.5858H13.7902C12.6441 8.32505 11.7148 9.26956 11.7148 10.4344V103.748C11.7148 104.913 12.6441 105.857 13.7902 105.857H62.5138C63.6636 108.548 65.2817 110.977 67.2614 113.033C71.4061 117.338 77.1328 120 83.4579 120C89.7831 120 95.51 117.338 99.6547 113.033C103.793 108.736 106.352 102.808 106.352 96.2702C106.352 89.7319 103.793 83.8043 99.6547 79.507C97.7134 77.4909 95.4251 75.8346 92.8903 74.644V10.4343C92.8903 9.26947 91.9611 8.32495 90.815 8.32495H72.0194H69.9441C68.798 8.32495 67.8688 9.26947 67.8688 10.4343C67.8688 11.5992 68.798 12.5437 69.9441 12.5437L72.0194 12.5437ZM28.4397 30.5526H76.1649V73.7714C69.1725 76.2085 63.7713 82.0151 61.6057 89.1804H28.4397V30.5526ZM83.4579 76.7586C88.4632 76.7586 93.2013 78.819 96.704 82.4567C100.101 85.984 102.202 90.8677 102.202 96.2702C102.202 101.673 100.101 106.556 96.704 110.084C93.3143 113.604 88.6307 115.782 83.4579 115.782C78.2851 115.782 73.6018 113.604 70.2121 110.084C66.3725 106.096 64.5602 100.721 64.7552 95.4337C65.1384 85.0357 73.1966 76.7586 83.4579 76.7586Z" fill="#623E91"/>
</g>
<defs>
<clipPath id="clip0_557_104393">
<rect width="118.062" height="120" fill="white" transform="translate(0.00390625)"/>
</clipPath>
</defs>
</svg>
