<svg width="119" height="120" viewBox="0 0 119 120" fill="none" xmlns="http://www.w3.org/2000/svg">
<g clip-path="url(#clip0_557_104346)">
<path fill-rule="evenodd" clip-rule="evenodd" d="M94.4945 93.2162C88.7539 93.2162 84.0508 88.5061 84.0508 82.5307C84.0508 76.6257 88.7539 71.8453 94.4945 71.8453C100.235 71.8453 105.077 76.6257 105.077 82.5307C105.077 88.5061 100.373 93.2162 94.4945 93.2162ZM94.4945 75.3603C90.6213 75.3603 87.4398 78.5237 87.4398 82.601C87.4398 86.7487 90.6213 89.9121 94.4945 89.9121C98.4368 89.9121 101.688 86.7487 101.688 82.601C101.688 78.5237 98.4368 75.3603 94.4945 75.3603Z" fill="#623E91"/>
<path fill-rule="evenodd" clip-rule="evenodd" d="M98.6427 107.276H90.4123C89.444 107.276 88.6832 106.503 88.6832 105.518V101.441C87.5074 101.019 86.4699 100.527 85.4325 100.035L82.6659 102.917C81.9743 103.55 80.9368 103.55 80.2452 102.917L74.3663 97.0826C74.0896 96.7311 73.8821 96.239 73.8821 95.8875C73.8821 95.4657 74.0896 94.9736 74.3663 94.6924L77.202 91.8805C76.5795 90.826 76.2337 89.6309 75.8187 88.5765H71.8072C70.8389 88.5765 70.0781 87.8032 70.0781 86.819V78.4534C70.0781 77.4692 70.8389 76.696 71.8072 76.696H75.957C76.2337 75.6415 76.7178 74.4464 77.2712 73.3919L74.3663 70.4394C74.0896 70.1582 73.8821 69.6661 73.8821 69.3146C73.8821 68.8928 74.0896 68.4007 74.3663 68.1195L80.2452 62.2847C80.9368 61.5817 81.9743 61.5817 82.6659 62.2847L85.5016 65.0264C86.5391 64.3937 87.6457 63.9016 88.7523 63.6204V59.6134C88.7523 58.6995 89.5131 57.9262 90.4814 57.9262H98.7119C99.6802 57.9262 100.441 58.6995 100.441 59.6134V63.761C101.617 64.1125 102.654 64.6046 103.692 65.0967L106.527 62.2847C107.15 61.5817 108.187 61.5817 108.879 62.2847L114.62 68.1195C114.896 68.4007 115.104 68.8928 115.104 69.3146C115.104 69.6661 114.896 70.1582 114.62 70.4394L111.853 73.2513C112.406 74.3761 112.89 75.5009 113.305 76.6257H117.248C118.216 76.6257 118.977 77.3989 118.977 78.3831V86.7487C118.977 87.7329 118.216 88.5062 117.248 88.5062H113.305C112.89 89.6309 112.406 90.826 111.991 91.8102L114.758 94.6221C115.035 94.9033 115.242 95.3954 115.242 95.8172C115.242 96.1687 115.035 96.6608 114.758 96.942L109.017 102.777C108.326 103.48 107.288 103.48 106.597 102.777L103.83 99.9649C102.862 100.527 101.686 100.949 100.579 101.301V105.448C100.372 106.503 99.611 107.276 98.6427 107.276ZM92.1414 103.902H96.9828V100.246C96.9828 99.4728 97.467 98.7698 98.2278 98.6292C100.164 98.1371 101.686 97.4341 103.069 96.5905C103.692 96.0984 104.591 96.1687 105.144 96.7311L107.772 99.2619L111.161 95.8172L108.602 93.2162C108.049 92.6538 107.911 91.8102 108.395 91.1072C109.363 89.6309 110.055 88.0141 110.401 86.3269C110.608 85.5536 111.3 84.9912 112.061 84.9912H115.588V80H112.061C111.3 80 110.608 79.4376 110.401 78.6643C110.055 76.9772 109.363 75.4306 108.395 73.884C108.049 73.181 108.118 72.3374 108.602 71.7047L111.161 69.1037L107.772 65.5888L105.144 68.1195C104.591 68.6819 103.692 68.8225 103.138 68.4007C101.686 67.5571 100.095 66.8541 98.3661 66.362C97.6053 66.1511 97.1211 65.5185 97.1211 64.7452V61.0896H92.2105V64.7452C92.2105 65.5185 91.7264 66.1511 90.9656 66.362C89.2365 66.7838 87.7149 67.4165 86.1933 68.4007C85.5016 68.8225 84.6717 68.6819 84.1875 68.1195L81.5593 65.5185L78.1011 68.9631L80.591 71.5641C81.2135 72.1265 81.2827 72.8998 80.9368 73.6028C79.9685 75.2197 79.2769 76.9069 79.0002 78.4534C78.7928 79.2267 78.1011 79.7891 77.3403 79.7891H73.7438V84.7803H77.3403C78.1011 84.7803 78.7928 85.3427 79.0002 86.116C79.3461 87.8032 80.0377 89.42 80.9368 90.8963C81.2827 91.5993 81.2135 92.4429 80.591 92.935L78.1011 95.4657L81.5593 98.9807L84.1875 96.3796C84.7408 95.8172 85.5708 95.6766 86.1933 96.0984C87.7149 97.0826 89.2365 97.7153 90.9656 98.1371C91.7264 98.348 92.2105 98.9807 92.2105 99.754V103.902H92.1414Z" fill="#623E91"/>
<path fill-rule="evenodd" clip-rule="evenodd" d="M46.7712 88.9982C45.8029 88.9982 45.0421 88.1547 45.0421 87.2408C45.0421 74.0949 48.2236 69.8067 50.9902 66.0105C53.1343 63.1283 54.725 60.8787 54.725 55.0439C54.725 44.5694 46.2871 35.993 35.9817 35.993C25.6071 35.993 17.1691 44.5694 17.1691 55.0439C17.1691 60.8787 18.8291 63.1283 20.904 66.0105C23.6705 69.8067 26.852 74.0949 26.852 87.2408C26.852 88.1547 26.0912 88.9982 25.123 88.9982C24.1547 88.9982 23.3939 88.1547 23.3939 87.2408C23.3939 75.2197 20.6965 71.5641 18.1374 68.0492C16.0625 65.0967 13.7109 62.0738 13.7109 55.0439C13.7109 42.6713 23.6014 32.5483 35.8433 32.5483C48.1545 32.5483 57.9757 42.601 57.9757 55.0439C57.9757 62.0738 55.8317 65.0967 53.6184 68.0492C50.9902 71.5641 48.362 75.2197 48.362 87.2408C48.5003 88.1547 47.7395 88.9982 46.7712 88.9982Z" fill="#623E91"/>
<path fill-rule="evenodd" clip-rule="evenodd" d="M23.0494 59.9648C22.0811 59.9648 21.3203 59.1916 21.3203 58.2074C21.3203 48.3655 29.1358 40.3515 38.8187 40.3515C39.787 40.3515 40.5478 41.1248 40.5478 42.109C40.5478 43.0931 39.787 43.8664 38.8187 43.8664C31.0032 43.8664 24.6402 50.2636 24.6402 58.2777C24.6402 59.1916 23.8794 59.9648 23.0494 59.9648Z" fill="#623E91"/>
<path fill-rule="evenodd" clip-rule="evenodd" d="M52.3745 33.6731C52.0979 33.6731 51.752 33.5325 51.4754 33.4622C50.7146 32.9701 50.4379 31.9859 50.8529 31.1424L53.6886 26.0105C54.1728 25.2373 55.1411 24.9561 55.971 25.3779C56.7318 25.8699 57.0777 26.8541 56.6627 27.6977L53.7578 32.7592C53.4811 33.3216 52.9278 33.6731 52.3745 33.6731Z" fill="#623E91"/>
<path fill-rule="evenodd" clip-rule="evenodd" d="M64.4067 45.9051C63.8534 45.9051 63.3 45.6239 63.0234 45.0615C62.5392 44.2882 62.8159 43.1634 63.6459 42.6713L68.6256 39.7891C69.3865 39.297 70.4931 39.5782 70.9772 40.4921C71.3922 41.2654 71.1155 42.3199 70.2856 42.8119L65.3058 45.6942C65.0291 45.8348 64.6833 45.9051 64.4067 45.9051Z" fill="#623E91"/>
<path fill-rule="evenodd" clip-rule="evenodd" d="M19.5889 33.6731C19.0356 33.6731 18.4131 33.3216 18.1364 32.7592L15.3007 27.6977C14.8166 26.9244 15.0932 25.8699 15.9232 25.3779C16.684 24.8858 17.7906 25.167 18.2056 26.0105L21.1105 31.1424C21.5946 31.9156 21.318 32.9701 20.4188 33.4622C20.1422 33.6731 19.8655 33.6731 19.5889 33.6731Z" fill="#623E91"/>
<path fill-rule="evenodd" clip-rule="evenodd" d="M7.62401 45.9051C7.34735 45.9051 7.00153 45.8348 6.72488 45.6942L1.74509 42.812C0.984289 42.3199 0.707634 41.3357 1.05345 40.4921C1.5376 39.6485 2.50589 39.3673 3.40502 39.7891L8.38481 42.6714C9.14561 43.1634 9.42227 44.1476 9.00728 45.0615C8.73063 45.5536 8.17732 45.9051 7.62401 45.9051Z" fill="#623E91"/>
<path fill-rule="evenodd" clip-rule="evenodd" d="M50.1591 95.1142C49.1908 95.1142 48.43 94.341 48.43 93.3568C48.43 92.3726 49.1908 91.5993 50.1591 91.5993C50.8507 91.5993 51.404 91.0369 51.404 90.2636C51.404 89.42 50.8507 88.9982 50.1591 88.9982H21.8019C21.0411 88.9982 20.557 89.5606 20.557 90.2636C20.557 91.0369 21.1103 91.5993 21.8019 91.5993C22.7702 91.5993 23.531 92.3726 23.531 93.3568C23.531 94.341 22.7702 95.1142 21.8019 95.1142C19.1737 95.1142 17.168 92.935 17.168 90.3339C17.168 87.7329 19.312 85.6239 21.8019 85.6239H50.1591C52.7181 85.6239 54.7239 87.8032 54.7239 90.3339C54.8622 92.935 52.7181 95.1142 50.1591 95.1142Z" fill="#623E91"/>
<path fill-rule="evenodd" clip-rule="evenodd" d="M50.1591 101.23H21.8019C19.1737 101.23 17.168 99.1213 17.168 96.4499C17.168 93.8488 19.312 91.8102 21.8019 91.8102H50.1591C52.7181 91.8102 54.7239 93.9191 54.7239 96.4499C54.8622 98.9807 52.7181 101.23 50.1591 101.23ZM21.8019 95.1142C21.0411 95.1142 20.557 95.6766 20.557 96.3796C20.557 97.1529 21.1103 97.7153 21.8019 97.7153H50.1591C50.8507 97.7153 51.404 97.1529 51.404 96.3796C51.404 95.6063 50.8507 95.1142 50.1591 95.1142H21.8019Z" fill="#623E91"/>
<path fill-rule="evenodd" clip-rule="evenodd" d="M38.1946 107.276H33.8373C29.6183 107.276 26.1602 103.761 26.1602 99.4728C26.1602 98.4886 26.9901 97.7153 27.8892 97.7153C28.8575 97.7153 29.6183 98.4886 29.6183 99.4728C29.6183 101.933 31.5549 103.902 33.9757 103.902H38.2638C40.6845 103.902 42.552 101.933 42.552 99.4728C42.552 98.4886 43.3128 97.7153 44.2811 97.7153C45.2493 97.7153 46.0101 98.4886 46.0101 99.4728C45.8027 103.761 42.4136 107.276 38.1946 107.276Z" fill="#623E91"/>
<path fill-rule="evenodd" clip-rule="evenodd" d="M35.983 88.9982C35.0147 88.9982 34.2539 88.1547 34.2539 87.2408V69.877C34.2539 69.3146 34.5306 68.6819 35.0839 68.4007L41.7928 64.5343C42.5536 64.0422 43.6602 64.3234 44.1443 65.0967C44.5593 65.8699 44.2826 66.9244 43.5218 67.4165L37.7121 70.8612V87.3111C37.7121 88.1547 36.9513 88.9982 35.983 88.9982Z" fill="#623E91"/>
<path fill-rule="evenodd" clip-rule="evenodd" d="M35.9797 71.5641C35.703 71.5641 35.3572 71.4235 35.0805 71.3533L28.51 67.4165C27.7492 66.9244 27.4034 65.8699 27.8875 65.0967C28.3716 64.3234 29.4783 64.0422 30.2391 64.5343L36.8096 68.4007C37.5704 68.8928 37.8471 69.9473 37.4321 70.7206C37.0863 71.2127 36.533 71.5641 35.9797 71.5641Z" fill="#623E91"/>
<path fill-rule="evenodd" clip-rule="evenodd" d="M94.4932 48.9982C93.5249 48.9982 92.7641 48.225 92.7641 47.3111V21.3005C92.7641 18.4183 90.4817 16.0984 87.7152 16.0984H42.7587C39.923 16.0984 37.5715 18.4183 37.5715 21.3005V34.4464C37.5715 35.3603 36.8107 36.2039 35.8424 36.2039C34.9432 36.2039 34.1133 35.3603 34.1133 34.4464V21.3005C34.1133 16.5202 37.9865 12.7241 42.6896 12.7241H87.646C92.28 12.7241 96.084 16.5202 96.084 21.3005V47.3814C96.2223 48.225 95.4615 48.9982 94.4932 48.9982Z" fill="#623E91"/>
<path fill-rule="evenodd" clip-rule="evenodd" d="M94.4926 48.9982C94.1467 48.9982 93.6626 48.8576 93.3859 48.5765L85.1554 40.1406C84.4638 39.5079 84.4638 38.3831 85.1554 37.7504C85.7779 37.0475 86.8845 37.0475 87.507 37.7504L94.4926 44.8506L101.478 37.7504C102.17 37.0475 103.207 37.0475 103.899 37.7504C104.59 38.3831 104.59 39.5079 103.899 40.1406L95.6683 48.5765C95.3917 48.8576 94.9767 48.9982 94.4926 48.9982Z" fill="#623E91"/>
</g>
<defs>
<clipPath id="clip0_557_104346">
<rect width="118.062" height="120" fill="white" transform="translate(0.914062)"/>
</clipPath>
</defs>
</svg>
