<svg width="85" height="80" viewBox="0 0 85 80" fill="none" xmlns="http://www.w3.org/2000/svg">
<path d="M18.9476 53.345C18.9476 55.8144 20.9228 57.8227 23.3515 57.8227H57.9552C60.3839 57.8227 62.3591 55.8144 62.3591 53.345V28.081C62.3591 26.3274 60.9557 24.9005 59.231 24.9005H49.9929V22.7094C49.9929 20.6102 48.3129 18.9012 46.2474 18.9012H35.0593C32.9947 18.9012 31.3138 20.6093 31.3138 22.7094V24.9014H22.0757C20.351 24.9014 18.9476 26.3283 18.9476 28.0819V53.345ZM57.9552 55.1469H23.3515C22.3747 55.1469 21.5794 54.3383 21.5794 53.345V42.244C22.4417 42.7942 23.4596 43.1142 24.551 43.1142H35.0397V45.8506C35.0397 47.0626 36.0092 48.0483 37.2012 48.0483H44.1046C45.2966 48.0483 46.266 47.0626 46.266 45.8506V43.1142H56.7548C57.8462 43.1142 58.8641 42.7942 59.7264 42.244V53.345C59.7274 54.3392 58.9321 55.1469 57.9552 55.1469ZM43.6343 43.1152V45.3725H37.6715V43.1152H43.6343ZM33.9464 22.7094C33.9464 22.0855 34.4456 21.5779 35.0593 21.5779H46.2474C46.8611 21.5779 47.3603 22.0855 47.3603 22.7094V24.9014H33.9464V22.7094ZM21.5794 28.0819C21.5794 27.8083 21.8066 27.5772 22.0757 27.5772H59.2301C59.4992 27.5772 59.7264 27.8083 59.7264 28.0819V37.4179C59.7264 39.0844 58.3938 40.4393 56.7548 40.4393H24.551C22.912 40.4393 21.5794 39.0844 21.5794 37.4179V28.0819ZM31.0866 38.1981H50.2211C50.9475 38.1981 51.537 37.5988 51.537 36.8602V31.1563C51.537 30.4178 50.9475 29.8184 50.2211 29.8184H31.0866C30.3602 29.8184 29.7707 30.4178 29.7707 31.1563V36.8602C29.7707 37.5988 30.3592 38.1981 31.0866 38.1981ZM32.4024 32.4943H48.9043V35.5223H32.4024V32.4943ZM83.7044 71.0191L76.9547 65.7157C76.341 65.2328 75.5298 65.1485 74.8361 65.4941C74.1385 65.8426 73.7046 66.5499 73.7055 67.3377V68.5563H63.9199C67.766 65.4856 71.0198 61.6717 73.4476 57.3445C76.6772 51.5895 78.3832 45.025 78.3832 38.3619C78.3832 28.115 74.458 18.4817 67.332 11.2354C60.206 3.99006 50.7314 0 40.6534 0C30.5753 0 21.1007 3.99006 13.9738 11.2364C6.84781 18.4817 2.92256 28.116 2.92256 38.3629C2.92256 40.4356 3.08646 42.5111 3.41147 44.5478L1.95219 45.0619C1.21929 45.3204 0.705239 45.968 0.60932 46.752C0.514332 47.5313 0.858897 48.2831 1.50798 48.7149L5.04303 51.0659C7.42705 57.9761 11.6838 64.0123 17.3831 68.5582H1.91029C1.18391 68.5582 0.59442 69.1575 0.59442 69.8961V75.3879C0.59442 76.1264 1.18391 76.7258 1.91029 76.7258L73.7055 76.7229V77.9453C73.7055 78.734 74.1385 79.4404 74.837 79.7888C75.1201 79.9299 75.4228 80 75.7235 80C76.1594 80 76.5924 79.8542 76.9556 79.5682L83.7054 74.2649C84.2036 73.8738 84.4895 73.282 84.4895 72.642C84.4876 72.0019 84.2017 71.4101 83.7044 71.0191ZM5.33452 46.7019C5.95287 46.4841 6.31979 45.8364 6.19593 45.1831C5.77034 42.9495 5.55522 40.6552 5.55522 38.3629C5.55522 18.6853 21.3 2.67582 40.6543 2.67582C60.0086 2.67582 75.7533 18.6843 75.7533 38.3629C75.7533 50.7127 69.6322 61.9709 59.3632 68.5582H53.4237C64.9182 63.5133 72.9838 51.8783 72.9838 38.3629C72.9838 20.2372 58.4804 5.49177 40.6543 5.49177C22.8282 5.49177 8.32385 20.2372 8.32385 38.3629C8.32385 40.1988 8.47378 42.0414 8.77085 43.8395C8.83511 44.2277 9.0642 44.5676 9.39759 44.7693C9.73098 44.9701 10.1342 45.0127 10.5002 44.8829L11.4864 44.5354L9.42087 50.7809L3.99816 47.1734L5.33452 46.7019ZM13.8918 42.0717C13.3396 41.515 12.5415 41.3303 11.8086 41.5888L11.1493 41.8208C11.0208 40.6751 10.9565 39.518 10.9565 38.3619C10.9565 21.7124 24.2791 8.16665 40.6543 8.16665C57.0295 8.16665 70.3521 21.7124 70.3521 38.3619C70.3521 55.0115 57.0286 68.5572 40.6506 68.5572C28.2583 68.5553 17.1317 60.6775 12.8181 48.9061L14.3807 44.1794C14.6275 43.4314 14.4403 42.6237 13.8918 42.0717ZM3.22615 71.233H21.1957C22.9856 72.3314 24.8537 73.2726 26.7851 74.049H3.22615V71.233ZM76.3372 76.6699V75.3869C76.3372 74.6493 75.7496 74.0499 75.0242 74.049L38.3746 73.9723C25.4813 73.1324 14.3044 65.2868 8.90309 53.6054C9.37431 53.8288 9.90978 53.861 10.4108 53.6849C10.91 53.5088 11.3095 53.149 11.5441 52.6794C16.8914 63.9063 28.182 71.233 40.6496 71.234H75.0204C75.7468 71.234 76.3363 70.6346 76.3363 69.8961V68.6131L81.4638 72.642L76.3372 76.6699Z" fill="#603C93"/>
</svg>
