<svg width="80" height="80" viewBox="0 0 80 80" fill="none" xmlns="http://www.w3.org/2000/svg">
<path d="M79.569 22.625C79.569 10.125 69.5816 0 57.2515 0C46.0311 0 36.7835 8.375 35.1806 19.25H7.93102C5.9582 19.25 4.35528 20.875 4.35528 22.875V69.25H1.88926C1.51936 69.25 1.27276 69.375 1.02615 69.625C0.779551 70 0.65625 70.375 0.65625 70.625C1.02615 75.875 5.34169 80 10.5203 80H61.9369C67.1155 80 71.4311 75.875 71.801 70.625C71.801 70.25 71.6777 70 71.4311 69.625C71.1845 69.375 70.8146 69.25 70.568 69.25H68.2253V42.25C75.0068 38.375 79.569 31 79.569 22.625ZM62.9233 41.875C64.4029 40 65.5126 37.5 66.3757 34.5H73.1573C70.6913 38 67.1155 40.625 62.9233 41.875ZM76.9796 21.375H67.9786C67.8553 18.5 67.6087 15.75 66.9922 13.125H74.6369C76.1165 15.625 76.8563 18.5 76.9796 21.375ZM56.0184 34.625V42.5C53.9223 41.625 51.9495 38.875 50.5932 34.625H56.0184ZM49.8534 32.125C49.3602 29.75 48.9903 27 48.867 23.875H56.0184V32.125H49.8534ZM58.4845 42.5V34.625H63.9097C62.5534 38.875 60.5806 41.625 58.4845 42.5ZM58.4845 32.125V23.875H65.6359C65.5126 26.875 65.266 29.625 64.6495 32.125H58.4845ZM67.9786 23.875H76.9796C76.8563 26.875 75.9932 29.625 74.7602 32.125H67.1155C67.6087 29.625 67.9786 26.875 67.9786 23.875ZM65.5126 21.375H58.3612V13.125H64.5262C65.1427 15.625 65.5126 18.375 65.5126 21.375ZM58.4845 10.75V2.75C60.5806 3.625 62.5534 6.375 63.9097 10.625H58.4845V10.75ZM56.0184 2.75V10.625H50.5932C51.9495 6.375 53.9223 3.625 56.0184 2.75ZM56.0184 13.25V21.5H48.867C48.9903 18.5 49.2369 15.75 49.8534 13.25H56.0184ZM46.401 21.375H37.4C37.5233 18.375 38.3864 15.625 39.6194 13.125H47.2641C46.8942 15.75 46.5243 18.5 46.401 21.375ZM46.401 23.875C46.5243 26.75 46.7709 29.5 47.3874 32.125H39.7427C38.3864 29.625 37.6466 26.875 37.5233 23.875H46.401ZM48.0039 34.625C48.867 37.625 50.1 40.125 51.4563 42C47.2641 40.75 43.6883 38.125 41.2223 34.625H48.0039ZM73.1573 10.75H66.3757C65.5126 7.75 64.2796 5.25 62.9233 3.375C67.1155 4.625 70.6913 7.25 73.1573 10.75ZM51.4563 3.375C49.9767 5.25 48.867 7.75 48.0039 10.75H41.2223C43.8116 7.25 47.3874 4.625 51.4563 3.375ZM62.0602 77.5H10.5203C7.06791 77.5 4.10868 75.125 3.24557 71.875C15.8223 71.875 55.7718 71.875 69.2117 71.875C68.4719 75.125 65.5126 77.5 62.0602 77.5ZM65.8825 69.375H6.698V23C6.698 22.375 7.19121 21.875 7.80771 21.875H34.8107C34.8107 22.125 34.8107 22.375 34.8107 22.75C34.8107 35.25 44.798 45.375 57.1282 45.375C60.2107 45.375 63.0466 44.75 65.7592 43.625V69.375H65.8825Z" fill="#603C93"/>
<path d="M20.2619 35.875H13.8502C13.1104 35.875 12.6172 36.375 12.6172 37.125V62.125C12.6172 62.875 13.1104 63.375 13.8502 63.375H20.2619C21.0017 63.375 21.4949 62.875 21.4949 62.125V37.125C21.4949 36.375 20.8784 35.875 20.2619 35.875ZM19.0288 60.875H15.0832V38.375H19.0288V60.875Z" fill="#603C93"/>
<path d="M32.965 42.25H26.5533C25.8135 42.25 25.3203 42.75 25.3203 43.5V62.125C25.3203 62.875 25.8135 63.375 26.5533 63.375H32.965C33.7048 63.375 34.198 62.875 34.198 62.125V43.5C34.198 42.875 33.5815 42.25 32.965 42.25ZM31.732 60.875H27.7863V44.75H31.732V60.875Z" fill="#603C93"/>
<path d="M45.6603 48.75H39.2486C38.5088 48.75 38.0156 49.25 38.0156 50V62.125C38.0156 62.875 38.5088 63.375 39.2486 63.375H45.6603C46.4001 63.375 46.8933 62.875 46.8933 62.125V50C46.8933 49.25 46.2768 48.75 45.6603 48.75ZM44.4273 60.875H40.4816V51.25H44.4273V60.875Z" fill="#603C93"/>
</svg>
