<svg width="87" height="80" viewBox="0 0 87 80" fill="none" xmlns="http://www.w3.org/2000/svg">
<path d="M57.7507 20.8429C56.4524 20.137 57.513 18.1679 58.7931 18.8552C67.9179 23.8152 74.2267 33.0663 75.4519 43.5992C75.6165 45.0853 73.4221 45.3454 73.2393 43.8779C72.1055 34.0508 66.2356 25.4685 57.7507 20.8429ZM62.2126 71.1854C62.6881 70.7953 63.4012 70.8882 63.7669 71.3712C64.151 71.8542 64.0595 72.5601 63.6024 72.9502C51.954 82.3499 35.4597 82.3499 23.8296 72.9502C23.3542 72.5601 23.2628 71.8542 23.6468 71.3712C24.0308 70.8882 24.7257 70.7953 25.2011 71.1854C36.0266 79.9164 51.3871 79.9164 62.2126 71.1854ZM14.1562 43.8779C13.9916 45.3454 11.779 45.0853 11.9435 43.5992C13.187 33.0477 19.4958 23.8152 28.6024 18.8552C29.8824 18.1493 30.943 20.137 29.6447 20.8429C21.1781 25.4685 15.3265 34.0508 14.1562 43.8779ZM74.885 53.9464L76.4576 57.0858L79.8955 57.6431C80.8098 57.7917 81.1389 58.9249 80.5172 59.5565L78.0486 62.0643L78.5971 65.5567C78.7252 66.467 77.7925 67.1357 76.988 66.727L73.8976 65.1294L70.8072 66.727C70.0209 67.1357 69.0334 66.4855 69.2163 65.4638L69.7466 62.0457L67.2779 59.5379C66.6379 58.8877 66.9853 57.7546 67.9179 57.6245L71.3192 57.0672L72.8918 53.9278C73.3124 53.129 74.4644 53.1476 74.885 53.9464ZM74.7387 58.6462L73.8976 56.9558L73.0564 58.6462C72.9101 58.962 72.5992 59.185 72.2518 59.2407L70.4049 59.5379C72.3981 61.5628 72.1786 60.894 71.7398 63.7176C74.245 62.4359 73.5684 62.4173 76.0736 63.7176C75.6348 60.9126 75.4153 61.5628 77.4085 59.5379L75.6348 59.2593C75.269 59.2221 74.9216 58.9992 74.7387 58.6462ZM73.8976 47.2402C80.9012 47.2402 86.57 52.999 86.57 60.1138C86.57 67.2286 80.9012 72.9873 73.8976 72.9873C66.8939 72.9873 61.2251 67.2286 61.2251 60.1138C61.2251 52.999 66.8939 47.2402 73.8976 47.2402ZM81.2669 52.5903C77.1891 48.4477 70.5877 48.4477 66.5099 52.5903C62.432 56.7328 62.432 63.439 66.5099 67.5816C70.5877 71.7241 77.1891 71.7241 81.2669 67.5816C85.3448 63.4576 85.3448 56.7328 81.2669 52.5903ZM14.5219 53.9464L16.0945 57.0858L19.5324 57.6431C20.4467 57.7917 20.7575 58.9249 20.1358 59.5565L17.6672 62.0643L18.2157 65.5567C18.362 66.467 17.4111 67.1357 16.6066 66.727L13.5162 65.1294L10.4258 66.7456C9.63947 67.1543 8.65201 66.5041 8.83487 65.4824L9.36517 62.0643L6.89652 59.5565C6.2565 58.9063 6.60394 57.7731 7.53654 57.6431L10.9378 57.0858L12.5287 53.9464C12.9493 53.129 14.1013 53.1476 14.5219 53.9464ZM14.3756 58.6462L13.5345 56.9558L12.6933 58.6462C12.5287 58.962 12.2361 59.185 11.8887 59.2407L10.0418 59.5379C12.035 61.5628 11.8155 60.894 11.3767 63.7176C13.8819 62.4359 13.187 62.4173 15.7105 63.7176C15.2717 60.9126 15.0522 61.5628 17.0454 59.5379L15.2717 59.2593C14.9059 59.2221 14.5585 58.9992 14.3756 58.6462ZM13.5162 47.2402C20.5198 47.2402 26.1886 52.999 26.1886 60.1138C26.1886 67.2286 20.5198 72.9873 13.5162 72.9873C6.51251 72.9873 0.84375 67.2286 0.84375 60.1138C0.84375 52.999 6.53079 47.2402 13.5162 47.2402ZM20.9038 52.5903C16.826 48.4477 10.2246 48.4477 6.14678 52.5903C2.06893 56.7328 2.06893 63.439 6.14678 67.5816C10.2246 71.7241 16.826 71.7241 20.9038 67.5816C24.9817 63.4576 24.9817 56.7328 20.9038 52.5903ZM43.7069 28.6822C51.314 28.6822 54.5324 38.6021 48.3882 43.1905H50.5094C54.2764 43.1905 57.3485 46.3114 57.3485 50.1382V61.7857C57.3485 62.4173 56.8547 62.9188 56.233 62.9188H31.1807C30.559 62.9188 30.0653 62.4173 30.0653 61.7857V50.1382C30.0653 46.3114 33.1374 43.1905 36.9044 43.1905H39.0256C35.1306 40.274 34.6734 34.5153 38.1113 31.0229C39.5376 29.5739 41.5308 28.6822 43.7069 28.6822ZM47.7299 32.6205C44.164 28.998 38.0198 31.5802 38.0198 36.7073C38.0198 41.8344 44.164 44.4352 47.7299 40.7941C49.9608 38.5464 49.9608 34.8868 47.7299 32.6205ZM50.5094 45.4569H36.9044C34.3808 45.4569 32.2962 47.5746 32.2962 50.1567V60.6711H55.1358V50.1567C55.1358 47.5746 53.0512 45.4569 50.5094 45.4569ZM44.6943 6.70614L46.2669 9.84558L49.7048 10.4029C50.6191 10.5515 50.9482 11.6661 50.3265 12.3163L47.8579 14.8241L48.4064 18.3165C48.5527 19.2268 47.6018 19.8955 46.7972 19.4868L43.7069 17.8892L40.6165 19.4868C39.8302 19.8955 38.8427 19.2453 39.0256 18.2236L39.5559 14.8055L37.0872 12.2977C36.4472 11.6475 36.7946 10.5143 37.7272 10.3843L41.1285 9.82701L42.7011 6.68756C43.14 5.88877 44.292 5.90735 44.6943 6.70614ZM44.548 11.406L43.7069 9.71555L42.8657 11.406C42.7011 11.7218 42.4085 11.9447 42.0428 12.0005L40.2142 12.2977C42.1891 14.3225 41.9879 13.6538 41.5491 16.4774C44.0543 15.1956 43.3777 15.1771 45.8829 16.4774C45.4441 13.6724 45.2246 14.3225 47.2178 12.2791L45.4441 12.0005C45.0783 11.9819 44.7309 11.759 44.548 11.406ZM43.7069 0C50.7105 0 56.3793 5.75874 56.3793 12.8736C56.3793 19.9884 50.7105 25.7471 43.7069 25.7471C36.7032 25.7471 31.0344 19.9884 31.0344 12.8736C31.0344 5.75874 36.7032 0 43.7069 0ZM51.0945 5.36863C47.0167 1.22605 40.4153 1.22605 36.3375 5.36863C32.2596 9.5112 32.2596 16.2173 36.3375 20.3599C40.4153 24.5025 47.0167 24.5025 51.0945 20.3599C55.1724 16.2173 55.1724 9.5112 51.0945 5.36863Z" fill="#603C93"/>
</svg>
