<svg width="934" height="1101" viewBox="0 0 934 1101" fill="none" xmlns="http://www.w3.org/2000/svg">
<path d="M441.5 0H950V1101H441.5V0Z" fill="#B68B60"/>
<g style="mix-blend-mode:multiply" opacity="0.7">
<path d="M329.622 557.342C318.396 550.754 300.014 550.754 288.788 557.342L108.67 663.002C97.4435 669.591 97.4435 680.373 108.67 686.961L503.371 919.338C514.597 925.927 532.979 925.927 544.205 919.338L724.309 813.678C735.549 807.09 735.549 796.308 724.309 789.719L329.608 557.342H329.622Z" fill="#CCDFEB"/>
</g>
<path d="M329.622 487.265C318.396 480.676 300.014 480.676 288.788 487.265L108.67 592.925C97.4435 599.513 97.4435 610.296 108.67 616.884L503.371 849.261C514.597 855.849 532.979 855.849 544.205 849.261L724.309 743.601C735.549 737.012 735.549 726.23 724.309 719.642L329.608 487.265H329.622Z" fill="white"/>
<path d="M724.324 743.601L544.22 849.261C532.993 855.849 514.612 855.849 503.386 849.261L108.685 616.884C103.229 613.677 100.443 609.497 100.286 605.274H100.258V633.659C100.258 637.998 103.072 642.337 108.685 645.646L503.386 878.023C514.612 884.612 532.993 884.612 544.22 878.023L724.324 772.363C729.937 769.069 732.751 764.73 732.751 760.391V731.643C732.751 735.982 729.937 740.321 724.324 743.601Z" fill="#D0DAE1"/>
<path d="M490.656 841.773L711.594 712.154L339.188 492.91L118.25 622.514L490.656 841.773Z" fill="#623E91"/>
<g style="mix-blend-mode:multiply" opacity="0.2">
<path d="M316.473 865.921C319.744 867.836 319.787 870.985 316.531 872.901L201.027 939.611C197.77 941.527 192.414 941.527 189.129 939.611L80.6098 875.252C77.3391 873.336 77.3105 870.172 80.567 868.257L196.071 801.546C199.327 799.631 204.669 799.631 207.94 801.546L316.459 865.906L316.473 865.921Z" fill="#438BE3"/>
</g>
<path d="M194.511 953.543C191.754 953.543 189.155 952.904 187.184 951.758L60.6393 876.703C58.5397 875.469 57.3828 873.786 57.3828 871.943C57.3828 870.114 58.5254 868.431 60.5964 867.212L195.296 789.429C197.239 788.283 199.809 787.659 202.566 787.659C205.322 787.659 207.936 788.297 209.907 789.458L336.451 864.513C338.551 865.746 339.722 867.444 339.722 869.287C339.722 871.101 338.594 872.785 336.523 874.004L201.823 951.801C199.881 952.948 197.281 953.572 194.525 953.572L194.511 953.543ZM202.552 789.197C200.066 789.197 197.753 789.748 196.039 790.764L61.3391 868.547C59.768 869.476 58.8825 870.68 58.8968 871.943C58.8968 873.205 59.7823 874.424 61.3962 875.368L187.94 950.423C189.669 951.438 191.997 951.99 194.496 951.99C196.996 951.99 199.309 951.438 201.038 950.423L335.737 872.625C337.308 871.696 338.18 870.492 338.18 869.258C338.18 867.996 337.294 866.777 335.666 865.819L209.122 790.764C207.379 789.748 205.051 789.182 202.552 789.182V789.197Z" fill="#0080FF"/>
<path d="M316.53 839.959L201.026 906.669C197.769 908.585 192.413 908.585 189.128 906.669L80.6088 842.31C78.9663 841.337 78.1379 840.06 78.1379 838.783L78.1094 851.06C78.1094 852.337 78.9235 853.614 80.5803 854.587L189.1 918.946C192.371 920.862 197.741 920.862 200.997 918.946L316.501 852.236C318.115 851.292 318.915 850.03 318.915 848.782L318.943 836.49C318.943 837.738 318.129 839.001 316.53 839.944V839.959Z" fill="#C7DEEB"/>
<path d="M316.473 832.964C319.744 834.88 319.787 838.029 316.531 839.959L201.027 906.669C197.77 908.585 192.414 908.585 189.129 906.669L80.6098 842.31C77.3391 840.38 77.3105 837.231 80.567 835.315L196.071 768.605C199.327 766.689 204.669 766.689 207.94 768.605L316.459 832.964H316.473Z" fill="white"/>
<g filter="url(#filter0_d_732_16740)">
<path d="M732.712 731.091C732.497 726.927 729.712 722.805 724.328 719.642L386.329 520.656L385.572 521.106L342.324 495.74L138.125 615.534L490.678 822.356L616.251 748.694L659.499 774.061L732.697 731.12L732.712 731.091Z" fill="url(#paint0_linear_732_16740)"/>
</g>
<path d="M342.316 428.666L694.869 635.488L490.67 755.268L138.117 548.461L342.316 428.666Z" fill="white"/>
<g filter="url(#filter1_d_732_16740)">
<path d="M366.254 442.699L162.041 562.494L138.117 548.461L342.316 428.666L366.254 442.699Z" fill="url(#paint1_linear_732_16740)"/>
</g>
<g filter="url(#filter2_d_732_16740)">
<path d="M518.546 541.466L328.944 652.699L177.891 564.075L367.479 452.857L518.546 541.466Z" fill="url(#paint2_linear_732_16740)"/>
</g>
<path d="M473.301 659.04L406.529 698.208L339.758 659.04L406.529 619.873L473.301 659.04Z" fill="#E84A5A"/>
<path d="M552.371 705.42L485.6 744.587L418.828 705.42L485.6 666.253L552.371 705.42Z" fill="#1ED6FE"/>
<path d="M594.065 588.194L481.646 654.135L414.875 614.968L527.294 549.012L594.065 588.194Z" fill="#D0DAE1"/>
<path d="M673.128 634.574L560.709 700.53L493.938 661.362L606.371 595.406L673.128 634.574Z" fill="#D0DAE1"/>
<g style="mix-blend-mode:multiply" opacity="0.3">
<path d="M306.938 567.225L560.34 715.883L694.868 636.968L441.466 488.31L306.938 567.225Z" fill="#0080FF"/>
</g>
<path d="M511.144 392.561L863.697 599.383L659.498 719.163L306.945 512.356L511.144 392.561Z" fill="white"/>
<path d="M535.082 406.608L330.883 526.388L306.945 512.356L511.144 392.561L535.082 406.608Z" fill="#9EA8AF"/>
<path d="M672.938 497.989L487.606 606.711L352.992 527.738L538.324 419.016L672.938 497.989Z" fill="#D0DAE1"/>
<path d="M556.39 607.146C565.788 612.661 565.788 621.586 556.39 627.1C546.992 632.615 531.767 632.615 522.369 627.1C512.971 621.586 512.971 612.661 522.369 607.146C531.767 601.632 546.992 601.632 556.39 607.146Z" fill="#B68B60"/>
<path d="M722.498 527.071L581.1 610.02L551.492 592.635L692.876 509.7L722.498 527.071Z" fill="#D0DAE1"/>
<path d="M606.632 636.62C616.03 642.134 616.03 651.059 606.632 656.574C597.234 662.088 582.009 662.088 572.611 656.574C563.213 651.059 563.213 642.134 572.611 636.62C582.009 631.105 597.234 631.105 606.632 636.62Z" fill="#B68B60"/>
<path d="M772.74 556.544L631.357 639.493L601.734 622.123L743.133 539.173L772.74 556.544Z" fill="#D0DAE1"/>
<path d="M656.898 666.108C666.296 671.622 666.296 680.547 656.898 686.062C647.5 691.576 632.275 691.576 622.877 686.062C613.479 680.547 613.479 671.622 622.877 666.108C632.275 660.594 647.5 660.594 656.898 666.108Z" fill="#B68B60"/>
<path d="M822.998 586.032L681.614 668.981L651.992 651.611L793.39 568.661L822.998 586.032Z" fill="#D0DAE1"/>
<g style="mix-blend-mode:multiply" opacity="0.2">
<path d="M513.674 394.041L376.789 474.349L428.235 504.519L565.12 424.226L513.674 394.041Z" fill="#0080FF"/>
</g>
<g style="mix-blend-mode:multiply" opacity="0.2">
<path d="M580.815 433.441L443.93 513.734L495.376 543.919L632.261 463.611L580.815 433.441Z" fill="#0080FF"/>
</g>
<g style="mix-blend-mode:multiply" opacity="0.2">
<path d="M647.971 472.826L511.086 553.119L562.532 583.304L699.417 503.01L647.971 472.826Z" fill="#0080FF"/>
</g>
<g filter="url(#filter3_d_732_16740)">
<path d="M648.129 353.132L699.575 383.317L495.376 503.111L443.93 472.927L648.129 353.132Z" fill="url(#paint3_linear_732_16740)"/>
</g>
<g filter="url(#filter4_d_732_16740)">
<path d="M546.822 472.927L495.376 503.112L443.93 472.927L495.376 442.743L546.822 472.927Z" fill="url(#paint4_linear_732_16740)"/>
</g>
<path d="M715.285 392.532L766.731 422.702L562.532 542.496L511.086 512.312L715.285 392.532Z" fill="#5F3917"/>
<path d="M613.978 512.312L562.532 542.497L511.086 512.312L562.532 482.142L613.978 512.312Z" fill="#C0966A"/>
<path d="M580.988 313.747L632.434 343.917L428.235 463.712L376.789 433.528L580.988 313.747Z" fill="#ECDDB8"/>
<path d="M479.681 433.528L428.235 463.712L376.789 433.528L428.235 403.358L479.681 433.528Z" fill="#C0966A"/>
<path d="M440.598 434.964L424.087 444.658C421.787 446.008 418.045 446.008 415.76 444.658L406.662 439.318C404.363 437.968 404.363 435.777 406.662 434.427L423.173 424.734C425.472 423.384 429.2 423.384 431.5 424.734L432.028 425.038L437.184 419.001L450.396 426.751L440.112 429.769L440.598 430.059C442.897 431.409 442.897 433.6 440.598 434.95V434.964ZM408.919 435.748C407.862 436.372 407.862 437.373 408.919 437.983L418.017 443.323C419.074 443.947 420.788 443.947 421.83 443.323L438.341 433.629C439.398 433.005 439.398 432.004 438.341 431.395L434.728 429.276L445.011 426.257L438.055 422.18L432.899 428.216L429.243 426.069C428.186 425.445 426.472 425.445 425.43 426.069L408.919 435.763V435.748Z" fill="white"/>
<path d="M499.119 489.485L498.162 487.656C498.091 487.54 497.262 486.423 492.878 483.303C486.693 484.072 481.037 483.245 477.238 481.01C470.154 476.86 471.896 469.081 481.123 463.668C490.335 458.256 503.604 457.24 510.674 461.39C517.758 465.54 516.015 473.319 506.789 478.732C506.203 479.08 505.575 479.414 504.932 479.733C503.69 485.552 501.119 487.787 501.004 487.889L499.133 489.47L499.119 489.485ZM483.38 465.004C475.41 469.676 473.667 476.265 479.495 479.689C482.68 481.561 487.636 482.171 493.092 481.358L494.063 481.213L494.706 481.663C497.062 483.303 498.576 484.493 499.533 485.335C500.29 484.13 501.247 482.142 501.833 479.153L501.904 478.775L502.404 478.528C503.161 478.166 503.875 477.788 504.532 477.411C512.502 472.738 514.244 466.15 508.417 462.725C502.59 459.3 491.349 460.331 483.38 465.004Z" fill="white"/>
<path d="M580.975 520.265L575.147 523.675L571.634 522.311C570.334 522.746 568.949 523.08 567.492 523.312L566.649 525.735H558.408L557.565 523.312C556.123 523.08 554.723 522.746 553.423 522.311L549.91 523.675L544.083 520.25L546.396 518.189C545.654 517.42 545.082 516.608 544.682 515.766L540.555 515.272V510.44L544.682 509.947C545.082 509.09 545.654 508.292 546.396 507.523L544.083 505.463L549.91 502.052L553.423 503.416C554.723 502.981 556.108 502.647 557.565 502.415L558.408 499.992H566.649L567.492 502.415C568.934 502.647 570.32 502.981 571.634 503.416L575.147 502.052L580.975 505.463L578.661 507.523C579.404 508.292 579.975 509.105 580.375 509.947L584.502 510.44V515.272L580.375 515.766C579.975 516.622 579.404 517.42 578.661 518.189L580.975 520.25V520.265ZM574.733 521.28L576.875 520.018L574.862 518.233L575.419 517.725C576.404 516.825 577.104 515.838 577.49 514.779L577.704 514.184L581.289 513.749V511.964L577.704 511.528L577.49 510.933C577.104 509.889 576.404 508.887 575.419 507.988L574.862 507.48L576.875 505.695L574.733 504.432L571.677 505.608L570.805 505.274C569.263 504.693 567.592 504.287 565.792 504.055L564.778 503.924L564.035 501.82H561.007L560.265 503.924L559.251 504.055C557.465 504.287 555.78 504.693 554.237 505.274L553.366 505.608L550.31 504.432L548.167 505.695L550.181 507.48L549.624 507.988C548.639 508.887 547.939 509.874 547.553 510.933L547.325 511.528L543.74 511.964V513.749L547.325 514.184L547.553 514.779C547.939 515.824 548.639 516.825 549.624 517.725L550.181 518.233L548.167 520.018L550.31 521.28L553.366 520.105L554.237 520.439C555.766 521.019 557.451 521.425 559.251 521.658L560.265 521.788L561.007 523.892H564.035L564.778 521.788L565.792 521.658C567.577 521.425 569.263 521.019 570.805 520.439L571.677 520.105L574.733 521.28ZM570.591 517.594C566.149 520.206 558.922 520.206 554.466 517.594C550.024 514.982 550.024 510.745 554.466 508.133C558.908 505.521 566.149 505.521 570.591 508.133C575.033 510.745 575.033 514.982 570.591 517.594ZM556.723 509.468C553.523 511.34 553.523 514.402 556.723 516.274C559.922 518.146 565.135 518.146 568.32 516.274C571.519 514.402 571.519 511.34 568.32 509.468C565.121 507.596 559.922 507.596 556.723 509.468Z" fill="white"/>
<path d="M317.74 268.79C311.199 250.81 293.474 245.557 272.635 257.776C252.44 269.617 235.186 294.432 228.174 319.306C220.218 317.042 210.377 318.725 199.708 324.98C174.942 339.506 154.589 373.536 152.147 403.256C152.061 403.314 151.99 403.343 151.904 403.401C125.496 418.9 104.086 456.572 104.086 487.541C104.086 518.509 125.496 531.076 151.904 515.592L315.398 419.684C350.604 399.033 379.155 348.793 379.155 307.493C379.155 266.192 351.861 250.215 317.74 268.79Z" fill="#ECDDB8"/>
<path d="M104.072 487.555C104.072 456.572 125.482 418.9 151.891 403.416C151.976 403.372 152.062 403.329 152.134 403.271C154.576 373.551 174.943 339.521 199.695 324.994C210.364 318.74 220.205 317.071 228.16 319.32C235.173 294.447 252.426 269.632 272.622 257.79C293.46 245.571 311.185 250.825 317.727 268.805C334.237 259.822 349.148 259.14 360.146 265.394L334.98 250.926C325.625 245.397 313.37 244.976 299.673 250.52L280.635 239.563C272.008 234.629 260.139 235.399 247.056 243.09C226.86 254.931 209.607 279.747 202.594 304.62C194.639 302.356 184.798 304.039 174.129 310.294C149.363 324.82 129.01 358.85 126.568 388.57C126.482 388.614 126.396 388.657 126.31 388.701C99.9019 404.199 78.4922 441.872 78.4922 472.855C78.4922 488.136 83.7054 498.932 92.1464 504.099L117.698 518.784C109.271 513.618 104.072 502.822 104.072 487.555Z" fill="white"/>
<path opacity="0.3" d="M759.677 482.955C773.074 490.82 776.873 517.246 789.071 524.386C801.839 531.874 809.181 503.822 824.649 512.892C846.301 525.59 855.585 567.935 862.798 572.173L728.227 493.229C742.152 501.399 746.266 475.089 759.677 482.94V482.955Z" fill="white"/>
<path opacity="0.3" d="M729.746 484.232C737.787 488.948 744.742 499.745 755.269 505.927C774.207 517.028 773.208 484.086 795.103 496.929C816.998 509.772 815.999 541.393 830.167 549.709C844.321 558.009 843.335 548.069 854.862 554.817C866.388 561.579 873.301 578.34 881.856 583.362L708.336 481.576C716.263 486.234 719.348 478.137 729.731 484.232H729.746Z" fill="white"/>
<path opacity="0.3" d="M778.055 484.972C789.738 491.821 791.537 529.058 803.635 536.155C818.789 545.05 817.96 501.791 824.916 504.722C833.986 508.524 836.585 556.834 846.197 562.464L750.789 506.507C769.142 517.275 766.371 478.137 778.04 484.986L778.055 484.972Z" fill="white"/>
<path opacity="0.5" d="M864.733 489.587L834.383 471.781V469.647L864.733 487.453V489.587Z" fill="white"/>
<path opacity="0.5" d="M874.917 500.311L834.383 476.54V474.422L874.917 498.192V500.311Z" fill="white"/>
<path opacity="0.5" d="M853.593 492.344L834.383 481.083V478.949L853.593 490.211V492.344Z" fill="white"/>
<path d="M789.403 426.272C787.004 424.864 785.047 426.011 785.047 428.826V447.386C785.047 450.216 787.004 453.641 789.403 455.049C791.803 456.456 793.759 455.31 793.759 452.495V433.934C793.759 431.104 791.803 427.679 789.403 426.272Z" fill="white"/>
<path d="M792.27 433.063C792.27 434.935 790.985 435.69 789.385 434.747C787.8 433.818 786.5 431.54 786.5 429.667C786.5 427.795 787.785 427.041 789.385 427.97C790.985 428.913 792.27 431.177 792.27 433.049V433.063Z" fill="#A0D1F9"/>
<path d="M799.45 419.988C797.05 418.58 795.094 419.727 795.094 422.542V453.278C795.094 456.108 797.05 459.533 799.45 460.94C801.864 462.348 803.806 461.202 803.806 458.386V427.65C803.806 424.82 801.849 421.396 799.45 419.988Z" fill="white"/>
<path d="M802.317 426.78C802.317 428.652 801.032 429.406 799.432 428.478C797.832 427.549 796.547 425.27 796.547 423.398C796.547 421.526 797.832 420.772 799.432 421.701C801.032 422.629 802.317 424.908 802.317 426.78Z" fill="#A0D1F9"/>
<path d="M809.481 415.446C807.082 414.038 805.125 415.185 805.125 418V459.17C805.125 461.985 807.067 465.424 809.481 466.832C811.881 468.24 813.837 467.093 813.837 464.278V423.108C813.837 420.278 811.881 416.854 809.481 415.446Z" fill="white"/>
<path d="M812.372 422.237C812.372 424.109 811.072 424.864 809.487 423.935C807.901 423.007 806.602 420.728 806.602 418.856C806.602 416.984 807.887 416.23 809.487 417.158C811.086 418.087 812.372 420.365 812.372 422.237Z" fill="#A0D1F9"/>
<path d="M819.52 442.191C817.121 440.784 815.164 441.93 815.164 444.745V465.047C815.164 467.877 817.106 471.302 819.52 472.709C821.934 474.117 823.876 472.971 823.876 470.155V449.853C823.876 447.038 821.92 443.599 819.52 442.191Z" fill="white"/>
<path d="M822.419 448.997C822.419 450.869 821.119 451.624 819.534 450.68C817.948 449.752 816.648 447.473 816.648 445.601C816.648 443.729 817.934 442.975 819.534 443.903C821.133 444.832 822.419 447.111 822.419 448.983V448.997Z" fill="#A0D1F9"/>
<path opacity="0.5" d="M824.48 397.509L789.773 377.135V374.711L824.48 395.071V397.509Z" fill="white"/>
<path opacity="0.5" d="M836.121 409.786L789.773 382.591V380.153L836.121 407.349V409.786Z" fill="white"/>
<path opacity="0.5" d="M811.726 400.658L789.773 387.786V385.349L811.726 398.22V400.658Z" fill="white"/>
<path opacity="0.5" d="M754.547 375.974C747.735 371.548 742.321 361.767 742.321 353.655C742.321 350.172 743.336 347.575 745.007 345.993L734.152 328.535C730.281 331.786 727.953 337.503 727.953 345.224C727.953 362.681 739.851 383.84 754.647 392.895L754.547 375.96V375.974Z" fill="white"/>
<path d="M746.051 345.195C748.394 343.772 751.65 343.961 755.264 346.08C759.02 348.286 762.405 352.16 764.776 356.557L775.931 352.45C770.917 342.713 763.519 334.064 755.264 329.217C747.337 324.573 740.21 324.356 735.211 327.751L746.051 345.195Z" fill="white"/>
<path opacity="0.5" d="M765.775 358.603C767.289 361.985 768.189 365.555 768.189 368.849C768.189 376.874 762.876 380.313 756.148 376.903L756.248 393.838C770.874 401.805 782.557 394.564 782.557 377.266C782.557 369.937 780.457 361.956 776.93 354.497L765.775 358.589V358.603Z" fill="white"/>
<path opacity="0.5" d="M601.279 253.466C601.279 255.163 600.108 255.86 598.651 255.004C597.195 254.162 596.023 252.087 596.023 250.389C596.023 248.691 597.195 247.995 598.651 248.851C600.094 249.707 601.279 251.768 601.279 253.466Z" fill="white"/>
<path opacity="0.5" d="M601.279 261.476C601.279 263.174 600.108 263.871 598.651 263.014C597.195 262.158 596.023 260.097 596.023 258.4C596.023 256.702 597.195 256.005 598.651 256.861C600.094 257.718 601.279 259.778 601.279 261.476Z" fill="white"/>
<path opacity="0.5" d="M601.279 269.487C601.279 271.184 600.108 271.881 598.651 271.025C597.209 270.169 596.023 268.108 596.023 266.41C596.023 264.712 597.195 264.016 598.651 264.872C600.094 265.728 601.279 267.789 601.279 269.487Z" fill="white"/>
<path opacity="0.5" d="M601.279 277.497C601.279 279.195 600.108 279.892 598.651 279.035C597.195 278.179 596.023 276.118 596.023 274.421C596.023 272.723 597.195 272.026 598.651 272.882C600.108 273.739 601.279 275.799 601.279 277.497Z" fill="white"/>
<path opacity="0.5" d="M601.279 285.508C601.279 287.206 600.108 287.902 598.651 287.046C597.195 286.19 596.023 284.129 596.023 282.431C596.023 280.733 597.195 280.037 598.651 280.893C600.094 281.749 601.279 283.81 601.279 285.508Z" fill="white"/>
<path opacity="0.5" d="M601.279 293.518C601.279 295.216 600.108 295.912 598.651 295.056C597.209 294.215 596.023 292.139 596.023 290.441C596.023 288.744 597.195 288.047 598.651 288.903C600.094 289.745 601.279 291.82 601.279 293.518Z" fill="white"/>
<path d="M659.738 287.728C659.738 286.045 658.567 283.998 657.139 283.157L607.849 254.249C606.407 253.408 605.25 254.09 605.25 255.773C605.25 257.456 606.407 259.503 607.849 260.344L657.139 289.252C658.581 290.093 659.738 289.411 659.738 287.728Z" fill="white"/>
<path d="M638.085 283.07C638.085 281.386 636.913 279.34 635.485 278.498L607.834 262.289C606.391 261.447 605.234 262.129 605.234 263.812C605.234 265.496 606.391 267.542 607.834 268.384L635.485 284.608C636.913 285.449 638.085 284.767 638.085 283.084V283.07Z" fill="white"/>
<path d="M644.055 294.607C644.055 292.923 642.898 290.877 641.455 290.035L607.834 270.314C606.391 269.472 605.234 270.154 605.234 271.838C605.234 273.521 606.391 275.567 607.834 276.409L641.455 296.13C642.898 296.972 644.055 296.29 644.055 294.607Z" fill="white"/>
<path d="M631.102 295.042C631.102 293.358 629.945 291.312 628.502 290.471L607.849 278.353C606.407 277.512 605.25 278.194 605.25 279.877C605.25 281.56 606.407 283.607 607.849 284.448L628.502 296.566C629.945 297.407 631.102 296.725 631.102 295.042Z" fill="white"/>
<path d="M653.253 316.084C653.253 314.401 652.096 312.354 650.653 311.513L607.834 286.393C606.391 285.551 605.234 286.233 605.234 287.917C605.234 289.6 606.391 291.646 607.834 292.488L650.653 317.608C652.096 318.449 653.253 317.767 653.253 316.084Z" fill="white"/>
<path d="M645.37 319.48C645.37 317.796 644.199 315.75 642.771 314.908L607.849 294.432C606.407 293.591 605.25 294.273 605.25 295.956C605.25 297.639 606.407 299.686 607.849 300.527L642.771 321.018C644.199 321.86 645.37 321.178 645.37 319.494V319.48Z" fill="white"/>
<path opacity="0.5" d="M703.113 332.947L668.406 312.587V310.149L703.113 330.509V332.947Z" fill="white"/>
<path opacity="0.5" d="M714.753 345.224L668.406 318.028V315.605L714.753 342.786V345.224Z" fill="white"/>
<path opacity="0.5" d="M690.359 336.096L668.406 323.224V320.786L690.359 333.672V336.096Z" fill="white"/>
<path opacity="0.5" d="M560.121 233.817L525.414 254.177V251.739L560.121 231.379V233.817Z" fill="white"/>
<path opacity="0.5" d="M571.761 232.438L525.414 259.633V257.195L571.761 230V232.438Z" fill="white"/>
<path opacity="0.5" d="M547.366 251.942L525.414 264.814V262.376L547.366 249.504V251.942Z" fill="white"/>
<path opacity="0.5" d="M464.18 268.935C464.18 268.935 472.392 254.641 483.404 248.183C494.416 241.726 499.815 256.905 518.182 246.137V271.634L464.18 303.313V268.95V268.935Z" fill="white"/>
<path d="M518.181 242.03C507.726 248.154 501.484 245.978 495.985 244.062C491.758 242.596 488.116 241.319 483.417 244.077C472.647 250.389 464.478 264.466 464.406 264.611L463.992 264.35C464.078 264.204 472.419 249.838 483.431 243.365C488.344 240.492 492.072 241.784 496.371 243.278C501.798 245.165 507.954 247.313 518.195 241.305V242.001L518.181 242.03Z" fill="white"/>
<path opacity="0.5" d="M399.031 350.303L406.387 339.056L418.513 347.879L429.81 330.9L440.694 336.154L453.02 323.775V360.33L399.031 392.009V350.303Z" fill="white"/>
<path opacity="0.5" d="M495.019 324.921L460.312 345.282V342.844L495.019 322.484V324.921Z" fill="white"/>
<path opacity="0.5" d="M506.66 323.543L460.312 350.724V348.3L506.66 321.105V323.543Z" fill="white"/>
<path opacity="0.5" d="M482.265 343.032L460.312 355.919V353.481L482.265 340.609V343.032Z" fill="white"/>
<path d="M399.031 377.585L408.801 360.301L418.327 365.032L430.453 345.818L443.25 351.638L453.02 341.189V360.33L399.031 392.009V377.585Z" fill="white"/>
<path opacity="0.5" d="M796.656 687.469C790.643 691.591 785.258 678.573 782.673 680.01C780.102 681.447 778.417 686.062 773.675 688.717C768.933 691.373 763.691 689.298 763.691 689.298L763.234 733.399L817.908 701.328V664.25C804.54 668.154 802.654 683.333 796.656 687.455V687.469Z" fill="white"/>
<path opacity="0.5" d="M858.418 666.805L823.711 687.165V684.727L858.418 664.367V666.805Z" fill="white"/>
<path opacity="0.5" d="M870.058 665.44L823.711 692.621V690.183L870.058 663.002V665.44Z" fill="white"/>
<path opacity="0.5" d="M845.663 684.93L823.711 697.801V695.378L845.663 682.492V684.93Z" fill="white"/>
<path d="M802.136 679.488C800.294 682.825 798.708 685.713 796.623 687.135C793.124 689.53 789.753 685.728 787.053 682.666C785.182 680.547 783.84 679.009 782.683 679.662C781.469 680.344 780.541 681.548 779.427 682.956C777.984 684.799 776.341 686.889 773.699 688.369C769.129 690.938 763.958 688.935 763.901 688.92L763.516 689.69C763.716 689.762 768.2 691.503 772.685 689.573V727.884L772.828 727.797V689.515C773.114 689.385 773.399 689.24 773.685 689.08C776.484 687.513 778.284 685.22 779.726 683.391C780.769 682.071 781.669 680.939 782.669 680.373C783.011 680.184 783.454 680.344 783.954 680.721V721.267L784.097 721.18V680.837C784.825 681.418 785.668 682.376 786.554 683.362C789.253 686.424 792.595 690.226 796.309 688.035C796.423 687.963 796.551 687.89 796.666 687.803C796.851 687.672 797.023 687.542 797.194 687.397V713.474L797.337 713.387V687.266C799.294 685.583 800.822 682.84 802.536 679.705C804.293 676.527 806.164 673.117 808.806 670.273V706.654L808.949 706.567V670.113C811.205 667.719 814.019 665.745 817.79 664.642L817.933 663.873C809.292 666.398 805.292 673.654 802.093 679.473L802.136 679.488Z" fill="white"/>
<g style="mix-blend-mode:multiply" opacity="0.2">
<path d="M153.91 807.409C129.186 821.906 129.186 845.415 153.91 859.927C178.633 874.424 218.71 874.424 243.433 859.927C268.157 845.43 268.157 821.906 243.433 807.409C218.71 792.912 178.633 792.912 153.91 807.409Z" fill="#438BE3"/>
</g>
<path d="M273.205 651.219C273.205 662.93 263.864 672.406 252.353 672.406C240.841 672.406 231.5 662.915 231.5 651.219C231.5 639.522 240.841 630.031 252.353 630.031C263.864 630.031 273.205 639.522 273.205 651.219Z" fill="url(#paint5_radial_732_16740)"/>
<path d="M262.17 665.992C267.04 663.133 270.968 656.196 270.968 650.493C270.968 648.403 270.44 646.763 269.511 645.661C267.983 645.037 265.998 645.269 263.812 646.546C258.942 649.405 255 656.341 255 662.044C255 664.134 255.543 665.774 256.457 666.877C257.999 667.501 259.985 667.269 262.156 665.992H262.17Z" fill="#0A208F"/>
<path d="M269.524 645.661C270.439 646.749 270.981 648.389 270.981 650.493C270.981 656.196 267.039 663.133 262.183 665.991C260.012 667.269 258.027 667.501 256.484 666.877C258.055 668.749 260.769 669.024 263.84 667.211C268.71 664.352 272.638 657.415 272.638 651.712C272.638 648.563 271.424 646.444 269.524 645.661Z" fill="white"/>
<path d="M139.981 704.68C140.067 708.032 140.481 712.487 140.91 715.825C141.433 719.927 142.228 724.909 143.295 730.772C143.295 730.772 144.666 737.868 146.98 745.879C148.879 752.438 149.779 754.847 151.95 760.637C154.792 768.242 159.291 777.036 162.376 781.825C165.947 787.354 170.003 793.231 176.802 798.905C180.215 801.764 185.729 805.493 192.57 807.046C204.039 809.658 213.265 804.84 216.693 802.649C220.735 800.066 222.435 798.542 225.334 795.828C228.119 793.231 231.619 788.718 231.633 788.689C236.118 782.463 236.803 781.505 240.26 775.178C243.13 769.91 244.973 765.426 246.915 760.681C249.658 753.976 253.471 742.019 255.785 730.409C258.084 718.887 259.256 708.221 259.27 698.701C259.284 690.473 258.384 682.97 256.57 676.368C254.071 667.225 249.943 661.566 248.586 659.708C246.73 657.154 242.545 652.234 235.418 647.953C230.005 644.688 223.792 642.25 216.979 640.698C203.053 637.52 191.47 639.116 187.671 639.638C181.258 640.523 175.745 642.439 173.66 643.165C171.831 643.803 168.075 645.283 163.462 648.07C160.305 650.13 158.72 651.175 155.963 653.7C152.764 656.632 150.65 659.505 150.079 660.318C145.151 667.341 143.152 673.784 141.981 678.631C141.624 680.083 141.209 682.027 140.995 683.507C140.567 686.564 140.229 689.699 139.981 692.911C139.753 695.915 139.781 697.439 139.981 704.709V704.68Z" fill="url(#paint6_radial_732_16740)"/>
<path d="M166.541 647.3C184.095 636.562 213.16 636.271 231.456 646.633C249.752 656.994 250.352 674.104 232.799 684.828C215.245 695.567 186.194 695.857 167.898 685.495C149.602 675.134 149.002 658.025 166.556 647.3H166.541Z" fill="white"/>
<g style="mix-blend-mode:multiply" opacity="0.2">
<path d="M227.377 657.952C211.423 648.911 186.072 649.173 170.761 658.533C165.205 661.928 161.748 666.079 160.363 670.403C158.035 663.162 161.448 655.398 170.761 649.709C186.072 640.349 211.423 640.088 227.377 649.129C237.532 654.89 241.417 663.017 238.96 670.592C237.461 665.934 233.619 661.507 227.377 657.967V657.952Z" fill="#438BE3"/>
</g>
<path d="M170.756 658.533C186.067 649.172 211.418 648.911 227.372 657.952C233.614 661.478 237.456 665.919 238.955 670.577C237.556 674.902 234.114 679.038 228.543 682.448C213.232 691.808 187.881 692.069 171.927 683.028C165.685 679.502 161.843 675.047 160.344 670.403C161.743 666.079 165.186 661.943 170.742 658.533H170.756Z" fill="#0A208F"/>
<path d="M107.469 788.964V788.152C107.469 788.035 107.469 787.919 107.469 787.803C107.469 787.528 107.469 787.266 107.469 787.005C107.469 786.875 107.469 786.758 107.469 786.628C107.469 786.396 107.483 786.149 107.497 785.917C107.497 785.772 107.497 785.641 107.497 785.51C107.497 785.293 107.511 785.09 107.526 784.886C107.526 784.727 107.54 784.582 107.554 784.422C107.554 784.248 107.568 784.088 107.568 783.914C107.568 783.725 107.597 783.551 107.597 783.377C107.597 783.247 107.611 783.13 107.626 783C107.626 782.797 107.654 782.608 107.668 782.405C107.668 782.318 107.668 782.245 107.683 782.158C107.697 781.941 107.711 781.723 107.726 781.505C107.726 781.476 107.726 781.433 107.726 781.389C107.868 779.444 108.04 778.153 108.068 777.877C108.068 777.805 108.097 777.718 108.097 777.645C108.325 775.831 108.654 773.553 108.968 771.811C108.968 771.797 108.968 771.782 108.968 771.753C108.968 771.753 108.968 771.753 108.968 771.739C109.24 770.273 109.354 769.751 109.682 768.372C109.811 767.792 109.954 767.24 110.068 766.747C110.282 765.905 110.482 765.179 110.682 764.512C110.711 764.41 110.754 764.309 110.782 764.207C111.325 762.495 111.853 761.305 112.482 760.115C112.482 760.1 112.496 760.086 112.51 760.057V760.042C112.51 760.028 112.525 760.013 112.539 759.984C112.839 759.418 113.167 758.867 113.524 758.33C113.639 758.156 113.767 757.982 113.896 757.807C114.139 757.459 114.367 757.125 114.638 756.792C114.853 756.53 115.067 756.269 115.281 756.022C115.467 755.805 115.652 755.573 115.852 755.355C116.095 755.079 116.367 754.818 116.624 754.571C116.752 754.441 116.867 754.296 117.009 754.179C117.109 754.092 117.252 753.947 117.409 753.802C117.452 753.759 117.495 753.73 117.538 753.686C117.838 753.425 118.209 753.12 118.652 752.757C118.78 752.656 118.895 752.554 119.023 752.467C119.337 752.22 119.694 751.959 120.066 751.698C120.194 751.611 120.323 751.524 120.451 751.451C120.751 751.248 121.051 751.059 121.38 750.871C121.466 750.813 121.551 750.755 121.651 750.711C121.965 750.537 122.308 750.348 122.651 750.189C122.651 750.189 122.68 750.174 122.694 750.16C122.737 750.131 122.779 750.102 122.837 750.087C122.851 750.087 122.879 750.073 122.908 750.073C123.108 749.986 123.351 749.899 123.608 749.84C123.651 749.84 123.694 749.826 123.736 749.826C124.022 749.768 124.351 749.71 124.708 749.681C128.835 749.347 136.005 751.263 140.719 753.976C141.147 754.223 141.533 754.47 141.89 754.716C142.004 754.789 142.104 754.862 142.204 754.949C142.432 755.108 142.661 755.282 142.861 755.442C142.961 755.529 143.061 755.602 143.161 755.689C143.332 755.848 143.489 755.993 143.632 756.139C143.704 756.211 143.775 756.284 143.846 756.371C144.004 756.545 144.132 756.719 144.232 756.879C144.261 756.908 144.289 756.951 144.303 756.98C144.303 756.98 144.303 756.995 144.318 757.009C144.318 757.009 144.318 757.024 144.318 757.038C144.489 757.343 144.661 757.648 144.818 757.967C144.903 758.141 144.989 758.344 145.075 758.533C145.16 758.736 145.246 758.925 145.332 759.142C145.403 759.317 145.475 759.505 145.546 759.694C145.646 759.97 145.76 760.245 145.846 760.536C145.903 760.681 145.946 760.826 146.003 760.971C146.532 762.596 146.917 764.338 147.089 765.978C147.146 766.558 147.189 767.109 147.203 767.661C147.203 767.908 147.203 768.154 147.203 768.416C147.203 768.778 147.203 769.127 147.203 769.475C147.203 769.62 147.203 769.751 147.203 769.881C147.203 769.968 147.203 770.055 147.174 770.157C147.174 770.404 147.131 770.636 147.117 770.883C147.103 771.057 147.089 771.231 147.06 771.405C146.874 773.059 146.532 774.409 146.203 775.439C145.36 778.153 143.975 781.679 142.761 784.204C142.632 784.48 142.49 784.77 142.332 785.09C142.247 785.278 142.147 785.467 142.047 785.656C141.847 786.062 141.633 786.497 141.404 786.962C141.276 787.208 141.147 787.469 141.018 787.716C140.776 788.195 140.504 788.703 140.219 789.24C140.133 789.414 140.047 789.574 139.947 789.748C139.49 790.59 138.862 791.707 138.362 792.505C138.319 792.563 138.276 792.636 138.248 792.694C137.762 793.506 137.262 794.348 136.691 795.219C136.248 795.915 135.791 796.583 135.334 797.25C135.22 797.41 135.105 797.584 135.005 797.729C134.634 798.295 133.891 799.311 133.149 800.312C132.492 801.212 131.82 802.083 131.378 802.605C131.292 802.721 131.178 802.837 131.078 802.954C130.549 803.592 130.035 804.231 129.507 804.84C128.935 805.479 128.407 806.045 127.907 806.581C127.864 806.625 127.821 806.669 127.793 806.712C127.607 806.915 127.379 807.133 127.164 807.351C126.993 807.51 126.836 807.67 126.664 807.83C126.464 808.033 126.264 808.221 126.079 808.395C126.036 808.424 126.007 808.468 125.979 808.497C125.865 808.613 125.636 808.816 125.336 809.078C124.265 810.021 123.608 810.5 123.536 810.558C123.165 810.833 122.822 811.095 122.522 811.283C122.38 811.37 122.237 811.457 122.094 811.559C121.351 812.067 120.88 812.328 120.052 812.691C119.923 812.749 119.823 812.778 119.709 812.836C119.566 812.894 119.423 812.967 119.266 813.01C118.866 813.155 118.495 813.271 118.18 813.344C118.166 813.344 118.152 813.344 118.138 813.358C118.109 813.358 118.095 813.358 118.066 813.358C117.609 813.46 117.252 813.504 117.052 813.518H117.038C117.038 813.518 117.009 813.518 116.995 813.518C116.652 813.547 116.081 813.562 115.395 813.402C115.138 813.344 114.91 813.286 114.753 813.228C114.681 813.199 114.61 813.17 114.538 813.141C114.21 813.01 113.881 812.822 113.539 812.575C113.167 812.299 112.867 812.038 112.682 811.849C112.096 811.225 111.796 810.862 111.453 810.326C111.282 810.064 111.125 809.803 110.968 809.542C110.925 809.469 110.896 809.397 110.868 809.324C110.811 809.208 110.754 809.107 110.668 808.976C110.339 808.381 109.911 807.365 109.511 806.103C109.454 805.943 109.411 805.783 109.368 805.624C109.254 805.261 109.14 804.869 109.04 804.477C108.954 804.158 108.868 803.824 108.783 803.49C108.654 802.954 108.54 802.431 108.425 801.88C108.425 801.851 108.425 801.807 108.411 801.793C108.411 801.778 108.411 801.764 108.411 801.749C108.397 801.677 108.383 801.589 108.368 801.502C108.325 801.27 108.283 801.023 108.24 800.762C108.24 800.762 108.24 800.748 108.24 800.733C108.183 800.428 108.14 800.109 108.083 799.761C108.068 799.63 108.054 799.514 108.026 799.384C107.997 799.166 107.954 798.934 107.926 798.687C107.897 798.368 107.84 798.005 107.797 797.657C107.797 797.599 107.797 797.555 107.797 797.497C107.583 795.698 107.44 793.564 107.383 790.909C107.383 790.807 107.383 790.706 107.383 790.604V790.517C107.383 790.357 107.383 790.198 107.383 790.038C107.383 789.806 107.383 789.559 107.383 789.327V788.95L107.469 788.964Z" fill="url(#paint7_radial_732_16740)"/>
<g style="mix-blend-mode:multiply" opacity="0.2">
<path d="M139.9 757.561C135.187 754.847 128.017 752.917 123.889 753.265C123.632 753.28 123.432 753.323 123.218 753.367C122.347 752.554 121.932 751.814 121.99 751.205H121.961C121.961 751.205 121.99 751.088 122.004 751.03C122.004 751.001 122.004 750.987 122.018 750.958C122.075 750.813 122.161 750.668 122.275 750.537C122.304 750.523 122.318 750.493 122.332 750.479C122.461 750.348 122.647 750.247 122.846 750.145C122.846 750.145 122.861 750.131 122.875 750.116C123.332 749.913 123.932 749.768 124.732 749.695C128.859 749.362 136.029 751.277 140.743 753.991C142.599 755.065 143.799 756.11 144.313 756.98C144.313 756.98 144.313 756.98 144.313 756.995C144.342 757.053 144.37 757.111 144.385 757.169C144.442 757.285 144.499 757.387 144.528 757.488C144.542 757.561 144.542 757.619 144.556 757.677C144.57 757.764 144.585 757.865 144.585 757.953C144.585 758.011 144.556 758.069 144.556 758.127C144.542 758.199 144.528 758.286 144.485 758.359C144.485 758.373 144.485 758.388 144.47 758.417C144.213 758.896 143.542 759.244 142.485 759.418C141.842 758.823 141 758.199 139.871 757.546L139.9 757.561Z" fill="#438BE3"/>
</g>
<path d="M123.227 753.352C123.441 753.323 123.641 753.28 123.898 753.251C128.026 752.917 135.195 754.833 139.909 757.546C141.037 758.185 141.88 758.823 142.522 759.418C142.308 759.447 142.094 759.491 141.851 759.52C137.723 759.854 130.554 757.938 125.84 755.21C124.712 754.557 123.855 753.933 123.227 753.338V753.352Z" fill="#0A208F"/>
<path d="M202.708 621.048C217.948 620.642 232.945 616.942 244.342 609.976C254.826 603.562 260.482 595.464 261.396 587.207C262.681 592.33 263.353 597.685 263.353 603.199C263.353 619.191 257.654 633.804 248.213 645.109C246.828 646.168 245.356 647.184 243.757 648.171C232.488 655.064 217.648 658.721 202.58 659.127C193.767 658.648 189.14 655.021 188.04 647.678C187.983 645.66 187.969 643.527 187.969 641.249C187.969 639.522 187.997 637.766 188.04 635.981C189.168 627.071 193.967 622.18 202.723 621.048H202.708Z" fill="#0A208F"/>
<g style="mix-blend-mode:multiply" opacity="0.3">
<path d="M188.026 635.981C189.154 627.071 193.953 622.18 202.708 621.048C217.948 620.642 232.945 616.942 244.342 609.976C254.826 603.562 260.482 595.464 261.396 587.207C261.639 588.165 261.839 589.137 262.039 590.109C260.553 597.873 254.469 605.869 244.657 611.877C233.259 618.843 218.262 622.543 203.023 622.95C194.267 624.081 189.468 628.957 188.34 637.882C188.297 639.667 188.283 641.438 188.283 643.15C188.283 645.283 188.297 647.286 188.34 649.172C188.226 648.693 188.126 648.186 188.04 647.663C187.983 645.646 187.969 643.513 187.969 641.234C187.969 639.507 187.997 637.752 188.04 635.967L188.026 635.981Z" fill="black"/>
</g>
<path d="M199.548 536.416C227.213 536.416 250.865 553.786 260.563 578.369C263.934 589.442 258.578 601.269 244.338 609.976C232.941 616.942 217.944 620.642 202.704 621.049C193.949 622.18 189.136 627.056 188.022 635.981C187.979 637.766 187.964 639.522 187.95 641.249C187.95 643.527 187.964 645.675 188.022 647.678C189.136 655.021 193.749 658.649 202.561 659.127C217.63 658.736 232.469 655.064 243.738 648.171C249.48 644.659 253.736 640.625 256.578 636.358C245.238 656.443 223.957 669.982 199.533 669.982C163.241 669.982 133.805 640.088 133.805 603.199C133.805 566.31 163.241 536.416 199.533 536.416H199.548Z" fill="white"/>
<path d="M199.548 536.416C227.213 536.416 250.865 553.786 260.563 578.369C263.934 589.442 258.578 601.269 244.338 609.976C232.941 616.942 217.944 620.642 202.704 621.049C193.949 622.18 189.136 627.056 188.022 635.981C187.979 637.766 187.964 639.522 187.95 641.249C187.95 643.527 187.964 645.675 188.022 647.678C189.136 655.021 193.749 658.649 202.561 659.127C217.63 658.736 232.469 655.064 243.738 648.171C249.48 644.659 253.736 640.625 256.578 636.358C245.238 656.443 223.957 669.982 199.533 669.982C163.241 669.982 133.805 640.088 133.805 603.199C133.805 566.31 163.241 536.416 199.533 536.416H199.548Z" fill="url(#paint8_radial_732_16740)"/>
<path d="M203.42 657.488C217.059 657.009 230.557 653.744 240.969 648.011C247.396 644.471 251.938 640.291 254.609 635.851H254.651C254.78 635.618 254.894 635.372 255.037 635.139C255.066 635.081 255.094 635.038 255.123 634.98C256.551 632.411 257.822 629.741 258.908 626.969C258.908 630.147 258.136 633.311 256.594 636.358C253.752 640.639 249.495 644.659 243.754 648.171C232.485 655.064 217.645 658.721 202.577 659.127C194.279 658.692 189.694 655.427 188.266 648.926C193.522 657.967 200.092 657.589 203.42 657.473V657.488Z" fill="white"/>
<g style="mix-blend-mode:multiply" opacity="0.2">
<path d="M135.053 603.199C137.124 611.297 143.594 619.089 154.42 625.228C162.704 629.915 172.531 633.079 182.885 634.719C182.828 636.707 182.785 638.666 182.785 640.581C182.785 642.482 182.8 644.311 182.857 646.038C172.502 644.398 162.676 641.249 154.392 636.562C142.251 629.683 135.581 620.715 134.453 611.572C134.324 610.295 134.225 608.801 134.139 607.306C134.053 605.884 133.982 604.476 133.953 603.243H135.067L135.053 603.199Z" fill="#438BE3"/>
</g>
<g style="mix-blend-mode:color-dodge" opacity="0.3">
<path d="M216.43 636.881C216.43 643.324 220.743 648.548 226.07 648.548C231.398 648.548 235.697 643.324 235.697 636.881C235.697 630.438 231.384 625.213 226.07 625.213C220.757 625.213 216.43 630.438 216.43 636.881Z" fill="#1ED6FE"/>
</g>
<g style="mix-blend-mode:color-dodge" opacity="0.3">
<path d="M219.891 636.881C219.891 641.002 222.647 644.355 226.061 644.355C229.474 644.355 232.231 641.002 232.231 636.881C232.231 632.76 229.474 629.407 226.061 629.407C222.647 629.407 219.891 632.76 219.891 636.881Z" fill="#1ED6FE"/>
</g>
<g style="mix-blend-mode:color-dodge">
<path d="M221.961 636.881C221.961 639.624 223.803 641.858 226.074 641.858C228.345 641.858 230.188 639.624 230.188 636.881C230.188 634.138 228.345 631.903 226.074 631.903C223.803 631.903 221.961 634.138 221.961 636.881Z" fill="#1ED6FE"/>
</g>
<g style="mix-blend-mode:color-dodge" opacity="0.3">
<path d="M252.109 620.105C252.109 626.548 254.552 631.773 257.537 631.773C260.522 631.773 262.978 626.548 262.978 620.105C262.978 613.662 260.55 608.438 257.537 608.438C254.523 608.438 252.109 613.662 252.109 620.105Z" fill="#1ED6FE"/>
</g>
<g style="mix-blend-mode:color-dodge" opacity="0.3">
<path d="M254.062 620.105C254.062 624.226 255.619 627.579 257.533 627.579C259.447 627.579 261.018 624.241 261.018 620.105C261.018 615.969 259.476 612.632 257.533 612.632C255.591 612.632 254.062 615.984 254.062 620.105Z" fill="#1ED6FE"/>
</g>
<g style="mix-blend-mode:color-dodge">
<path d="M255.227 620.105C255.227 622.848 256.269 625.083 257.54 625.083C258.812 625.083 259.854 622.848 259.854 620.105C259.854 617.362 258.812 615.128 257.54 615.128C256.269 615.128 255.227 617.362 255.227 620.105Z" fill="#1ED6FE"/>
</g>
<g style="mix-blend-mode:multiply" opacity="0.2">
<path d="M141.695 694.304C141.695 704.172 148.508 716.159 156.921 721.078C165.319 726.012 172.146 722.007 172.146 712.154C172.146 702.3 165.333 690.299 156.921 685.379C148.508 680.445 141.71 684.451 141.695 694.304Z" fill="#438BE3"/>
</g>
<path d="M133.883 757.909C136.554 757.909 138.553 758.17 139.324 755.442L147.251 727.057C148.18 723.749 146.28 720.309 143.024 719.366C139.767 718.423 136.382 720.353 135.454 723.661L127.527 752.047C126.599 755.355 129.198 756.357 132.197 757.677C132.726 757.909 133.326 757.924 133.869 757.924L133.883 757.909Z" fill="#0A208F"/>
<path d="M123.875 710.76C123.875 722.326 133.102 731.701 144.485 731.701C155.868 731.701 165.095 722.326 165.095 710.76C165.095 699.194 155.868 689.82 144.485 689.82C133.102 689.82 123.875 699.194 123.875 710.76Z" fill="url(#paint9_radial_732_16740)"/>
<path d="M294.49 682.491C296.589 682.491 298.646 681.389 299.774 679.415C301.488 676.44 300.517 672.638 297.589 670.897L265.867 651.988C262.954 650.246 259.197 651.248 257.483 654.208C255.769 657.183 256.755 660.985 259.669 662.726L291.39 681.635C292.362 682.216 293.433 682.491 294.49 682.491Z" fill="#0A208F"/>
<path d="M281.946 679.197C282.345 673.494 286.702 666.572 291.658 663.728C291.929 663.568 292.186 663.438 292.458 663.307C293.6 662.77 295.514 662.044 298.128 661.653C299.485 661.449 301.413 661.246 304.341 661.507C306.083 661.667 310.597 662.349 315.038 665.339C316.024 666.006 319.023 668.023 322.237 670.897C323.38 671.912 326.864 675.032 330.478 679.139C338.733 688.528 342.147 695.146 343.447 697.642C342.518 695.784 340.404 695.363 337.819 696.844C334.149 698.948 330.935 704.056 330.635 708.279C330.421 711.196 331.678 712.923 333.677 713.01C330.107 712.85 322.494 712.052 311.696 708.584C310.411 708.177 306.469 706.9 300.899 704.332C297.042 702.547 294.143 700.689 292.9 699.891C288.473 697.061 285.945 693.013 285.059 691.402C282.474 686.685 281.931 682.535 281.946 679.879C281.946 679.662 281.946 679.43 281.974 679.183L281.946 679.197Z" fill="url(#paint10_radial_732_16740)"/>
<path d="M337.807 696.858C339.092 696.118 340.264 695.857 341.235 696.016C341.763 696.829 342.02 697.975 341.92 699.412C341.62 703.635 338.407 708.743 334.736 710.847C333.436 711.587 332.265 711.834 331.308 711.689C330.78 710.876 330.523 709.745 330.623 708.293C330.908 704.07 334.136 698.962 337.807 696.858Z" fill="#0A208F"/>
<path d="M334.757 710.847C338.428 708.758 341.642 703.635 341.941 699.412C342.041 697.961 341.784 696.815 341.256 696.016C343.041 696.292 344.127 697.975 343.941 700.704C343.641 704.927 340.428 710.035 336.757 712.139C334.343 713.518 332.344 713.242 331.344 711.689C332.315 711.834 333.486 711.587 334.772 710.847H334.757Z" fill="white"/>
<g style="mix-blend-mode:multiply" opacity="0.2">
<path d="M431.449 948.333C434.034 949.842 434.063 952.324 431.492 953.833L390.572 977.995C388.016 979.504 383.788 979.504 381.203 977.995L340.026 953.847C337.441 952.338 337.427 949.842 339.997 948.333L380.917 924.171C383.474 922.662 387.687 922.662 390.272 924.171L431.449 948.318V948.333Z" fill="#438BE3"/>
</g>
<path d="M385.938 985.802C383.652 985.802 381.51 985.28 379.882 984.322L330.064 955.095C328.307 954.065 327.336 952.643 327.336 951.076C327.336 949.523 328.293 948.115 330.035 947.085L379.539 917.858C381.153 916.915 383.281 916.392 385.552 916.392C387.823 916.392 389.98 916.915 391.622 917.873L441.44 947.099C443.211 948.13 444.182 949.566 444.182 951.119C444.182 952.657 443.225 954.065 441.497 955.095L391.994 984.322C390.38 985.28 388.237 985.802 385.952 985.802H385.938ZM385.538 917.931C383.538 917.931 381.667 918.381 380.296 919.193L330.792 948.42C329.55 949.16 328.85 950.103 328.85 951.076C328.85 952.062 329.55 953.006 330.821 953.76L380.639 982.987C382.038 983.8 383.91 984.264 385.938 984.264C387.966 984.264 389.823 983.814 391.208 982.987L440.712 953.76C441.954 953.02 442.64 952.091 442.64 951.119C442.64 950.132 441.94 949.189 440.655 948.434L390.837 919.208C389.437 918.38 387.552 917.931 385.538 917.931Z" fill="#0080FF"/>
<path d="M431.492 927.886L390.572 952.048C388.015 953.557 383.788 953.557 381.203 952.048L340.026 927.886C338.726 927.117 338.083 926.115 338.083 925.114L338.055 934.793C338.055 935.795 338.697 936.811 339.997 937.565L381.174 961.713C383.759 963.222 387.973 963.222 390.543 961.713L431.463 937.551C432.734 936.796 433.363 935.809 433.363 934.822L433.391 925.143C433.391 926.13 432.749 927.117 431.492 927.871V927.886Z" fill="#C7DEEB"/>
<path d="M431.465 922.386C434.05 923.895 434.079 926.377 431.508 927.886L390.588 952.048C388.031 953.557 383.804 953.557 381.218 952.048L340.042 927.886C337.456 926.362 337.442 923.881 340.013 922.371L380.933 898.209C383.489 896.7 387.703 896.7 390.288 898.209L431.465 922.371V922.386Z" fill="white"/>
<g style="mix-blend-mode:multiply" opacity="0.2">
<path d="M732.957 904.377C735.542 905.886 735.571 908.368 733 909.877L692.08 934.039C689.524 935.548 685.296 935.548 682.711 934.039L641.534 909.877C638.949 908.368 638.934 905.871 641.505 904.362L682.425 880.2C684.982 878.691 689.195 878.691 691.78 880.2L732.957 904.362V904.377Z" fill="#438BE3"/>
</g>
<path d="M687.438 941.831C685.152 941.831 683.01 941.309 681.382 940.351L631.564 911.125C629.807 910.094 628.836 908.672 628.836 907.105C628.836 905.552 629.793 904.144 631.535 903.114L681.039 873.887C682.653 872.944 684.781 872.407 687.052 872.407C689.323 872.407 691.48 872.93 693.122 873.887L742.94 903.114C744.711 904.144 745.682 905.581 745.682 907.134C745.682 908.672 744.725 910.08 742.997 911.11L693.494 940.337C691.88 941.294 689.737 941.817 687.452 941.817L687.438 941.831ZM687.038 873.96C685.038 873.96 683.167 874.41 681.796 875.222L632.292 904.449C631.05 905.189 630.35 906.132 630.35 907.105C630.35 908.092 631.05 909.035 632.321 909.789L682.139 939.016C683.538 939.843 685.41 940.293 687.438 940.293C689.466 940.293 691.323 939.843 692.708 939.016L742.212 909.789C743.454 909.064 744.14 908.121 744.14 907.163C744.14 906.176 743.44 905.233 742.155 904.478L692.337 875.251C690.937 874.424 689.052 873.974 687.038 873.974V873.96Z" fill="#0080FF"/>
<path d="M732.992 883.93L692.072 908.092C689.515 909.601 685.288 909.601 682.703 908.092L641.526 883.93C640.226 883.16 639.583 882.159 639.583 881.158L639.555 890.837C639.555 891.838 640.197 892.854 641.497 893.609L682.674 917.771C685.259 919.295 689.473 919.295 692.043 917.771L732.963 893.609C734.234 892.854 734.863 891.868 734.863 890.881L734.891 881.201C734.891 882.188 734.249 883.175 732.992 883.93Z" fill="#C7DEEB"/>
<path d="M732.965 878.415C735.55 879.924 735.579 882.406 733.008 883.915L692.088 908.077C689.531 909.586 685.304 909.586 682.718 908.077L641.542 883.915C638.956 882.406 638.942 879.91 641.513 878.401L682.433 854.238C684.989 852.729 689.203 852.729 691.788 854.238L732.965 878.401V878.415Z" fill="white"/>
<defs>
<filter id="filter0_d_732_16740" x="134.125" y="491.74" width="606.586" height="338.616" filterUnits="userSpaceOnUse" color-interpolation-filters="sRGB">
<feFlood flood-opacity="0" result="BackgroundImageFix"/>
<feColorMatrix in="SourceAlpha" type="matrix" values="0 0 0 0 0 0 0 0 0 0 0 0 0 0 0 0 0 0 127 0" result="hardAlpha"/>
<feOffset dx="2" dy="2"/>
<feGaussianBlur stdDeviation="3"/>
<feColorMatrix type="matrix" values="0 0 0 0 0 0 0 0 0 0 0 0 0 0 0 0 0 0 0.27 0"/>
<feBlend mode="normal" in2="BackgroundImageFix" result="effect1_dropShadow_732_16740"/>
<feBlend mode="normal" in="SourceGraphic" in2="effect1_dropShadow_732_16740" result="shape"/>
</filter>
<filter id="filter1_d_732_16740" x="134.117" y="424.666" width="240.141" height="145.828" filterUnits="userSpaceOnUse" color-interpolation-filters="sRGB">
<feFlood flood-opacity="0" result="BackgroundImageFix"/>
<feColorMatrix in="SourceAlpha" type="matrix" values="0 0 0 0 0 0 0 0 0 0 0 0 0 0 0 0 0 0 127 0" result="hardAlpha"/>
<feOffset dx="2" dy="2"/>
<feGaussianBlur stdDeviation="3"/>
<feColorMatrix type="matrix" values="0 0 0 0 0 0 0 0 0 0 0 0 0 0 0 0 0 0 0.27 0"/>
<feBlend mode="normal" in2="BackgroundImageFix" result="effect1_dropShadow_732_16740"/>
<feBlend mode="normal" in="SourceGraphic" in2="effect1_dropShadow_732_16740" result="shape"/>
</filter>
<filter id="filter2_d_732_16740" x="173.891" y="448.857" width="352.656" height="211.842" filterUnits="userSpaceOnUse" color-interpolation-filters="sRGB">
<feFlood flood-opacity="0" result="BackgroundImageFix"/>
<feColorMatrix in="SourceAlpha" type="matrix" values="0 0 0 0 0 0 0 0 0 0 0 0 0 0 0 0 0 0 127 0" result="hardAlpha"/>
<feOffset dx="2" dy="2"/>
<feGaussianBlur stdDeviation="3"/>
<feColorMatrix type="matrix" values="0 0 0 0 0 0 0 0 0 0 0 0 0 0 0 0 0 0 0.27 0"/>
<feBlend mode="normal" in2="BackgroundImageFix" result="effect1_dropShadow_732_16740"/>
<feBlend mode="normal" in="SourceGraphic" in2="effect1_dropShadow_732_16740" result="shape"/>
</filter>
<filter id="filter3_d_732_16740" x="439.93" y="349.132" width="267.648" height="161.979" filterUnits="userSpaceOnUse" color-interpolation-filters="sRGB">
<feFlood flood-opacity="0" result="BackgroundImageFix"/>
<feColorMatrix in="SourceAlpha" type="matrix" values="0 0 0 0 0 0 0 0 0 0 0 0 0 0 0 0 0 0 127 0" result="hardAlpha"/>
<feOffset dx="2" dy="2"/>
<feGaussianBlur stdDeviation="3"/>
<feColorMatrix type="matrix" values="0 0 0 0 0 0 0 0 0 0 0 0 0 0 0 0 0 0 0.27 0"/>
<feBlend mode="normal" in2="BackgroundImageFix" result="effect1_dropShadow_732_16740"/>
<feBlend mode="normal" in="SourceGraphic" in2="effect1_dropShadow_732_16740" result="shape"/>
</filter>
<filter id="filter4_d_732_16740" x="439.93" y="438.743" width="114.891" height="72.369" filterUnits="userSpaceOnUse" color-interpolation-filters="sRGB">
<feFlood flood-opacity="0" result="BackgroundImageFix"/>
<feColorMatrix in="SourceAlpha" type="matrix" values="0 0 0 0 0 0 0 0 0 0 0 0 0 0 0 0 0 0 127 0" result="hardAlpha"/>
<feOffset dx="2" dy="2"/>
<feGaussianBlur stdDeviation="3"/>
<feColorMatrix type="matrix" values="0 0 0 0 0 0 0 0 0 0 0 0 0 0 0 0 0 0 0.27 0"/>
<feBlend mode="normal" in2="BackgroundImageFix" result="effect1_dropShadow_732_16740"/>
<feBlend mode="normal" in="SourceGraphic" in2="effect1_dropShadow_732_16740" result="shape"/>
</filter>
<linearGradient id="paint0_linear_732_16740" x1="414.948" y1="497.522" x2="427.273" y2="821.654" gradientUnits="userSpaceOnUse">
<stop stop-color="#B867C7"/>
<stop offset="1" stop-color="#603C93"/>
</linearGradient>
<linearGradient id="paint1_linear_732_16740" x1="244.331" y1="429.396" x2="249.723" y2="562.179" gradientUnits="userSpaceOnUse">
<stop stop-color="#B867C7"/>
<stop offset="1" stop-color="#603C93"/>
</linearGradient>
<linearGradient id="paint2_linear_732_16740" x1="336.49" y1="453.948" x2="344.542" y2="652.229" gradientUnits="userSpaceOnUse">
<stop stop-color="#B867C7"/>
<stop offset="1" stop-color="#603C93"/>
</linearGradient>
<linearGradient id="paint3_linear_732_16740" x1="562.951" y1="353.951" x2="568.994" y2="502.759" gradientUnits="userSpaceOnUse">
<stop stop-color="#B867C7"/>
<stop offset="1" stop-color="#603C93"/>
</linearGradient>
<linearGradient id="paint4_linear_732_16740" x1="491.833" y1="443.072" x2="494.266" y2="502.97" gradientUnits="userSpaceOnUse">
<stop stop-color="#B867C7"/>
<stop offset="1" stop-color="#603C93"/>
</linearGradient>
<radialGradient id="paint5_radial_732_16740" cx="0" cy="0" r="1" gradientUnits="userSpaceOnUse" gradientTransform="translate(258.58 644.325) scale(61.6868 62.6764)">
<stop offset="0.23" stop-color="white"/>
<stop offset="1" stop-color="#438BE3"/>
</radialGradient>
<radialGradient id="paint6_radial_732_16740" cx="0" cy="0" r="1" gradientUnits="userSpaceOnUse" gradientTransform="translate(170.146 693.97) rotate(180) scale(176.648 179.482)">
<stop offset="0.29" stop-color="white"/>
<stop offset="1" stop-color="#438BE3"/>
</radialGradient>
<radialGradient id="paint7_radial_732_16740" cx="0" cy="0" r="1" gradientUnits="userSpaceOnUse" gradientTransform="translate(122.837 771.448) rotate(180) scale(68.2568 69.3518)">
<stop offset="0.1" stop-color="white"/>
<stop offset="1" stop-color="#438BE3"/>
</radialGradient>
<radialGradient id="paint8_radial_732_16740" cx="0" cy="0" r="1" gradientUnits="userSpaceOnUse" gradientTransform="translate(185.751 589.587) rotate(180) scale(136.085 138.268)">
<stop offset="0.42" stop-color="white"/>
<stop offset="1" stop-color="#438BE3"/>
</radialGradient>
<radialGradient id="paint9_radial_732_16740" cx="0" cy="0" r="1" gradientUnits="userSpaceOnUse" gradientTransform="translate(138.315 703.954) rotate(180) scale(59.4444 60.398)">
<stop offset="0.23" stop-color="white"/>
<stop offset="1" stop-color="#438BE3"/>
</radialGradient>
<radialGradient id="paint10_radial_732_16740" cx="0" cy="0" r="1" gradientUnits="userSpaceOnUse" gradientTransform="translate(304.841 680.561) rotate(180) scale(73.4414 74.6196)">
<stop offset="0.14" stop-color="white"/>
<stop offset="1" stop-color="#438BE3"/>
</radialGradient>
</defs>
</svg>
