<svg width="80" height="80" viewBox="0 0 80 80" fill="none" xmlns="http://www.w3.org/2000/svg">
<path d="M75.4724 37.4125L69.4386 35.4187C68.7161 32.5125 67.5846 29.7406 66.0689 27.1609L68.9513 21.4062C69.1926 20.9234 69.1019 20.3391 68.7253 19.9562L62.5977 13.7297C62.2211 13.3469 61.6446 13.2547 61.1711 13.5L58.4179 14.9234C58.3979 14.8859 58.3779 14.8469 58.3564 14.8094C58.0628 14.2937 57.6984 13.8359 57.2788 13.4453V7.41875C57.2788 4.52656 54.9636 2.175 52.1197 2.175C50.9575 2.175 49.8845 2.56719 49.0205 3.22969C48.2427 1.33438 46.401 0 44.2596 0C42.1167 0 40.275 1.33438 39.4971 3.22813C38.6332 2.56719 37.5602 2.17344 36.398 2.17344C34.4103 2.17344 32.6824 3.32344 31.8215 5.00156C30.9284 4.25 29.7847 3.79844 28.5379 3.79844C25.6924 3.79844 23.3788 6.15156 23.3788 9.04219V15.9328L18.6763 13.4969C18.2028 13.2516 17.6264 13.3438 17.2497 13.7266L11.1222 19.9531C10.7455 20.3359 10.6548 20.9219 10.8962 21.4047L13.7817 27.1578C12.2644 29.7375 11.1345 32.5094 10.412 35.4156L4.37355 37.4094C3.86779 37.5766 3.52344 38.0563 3.52344 38.5969V47.4016C3.52344 47.9422 3.86625 48.4219 4.37201 48.5891L10.412 50.5844C11.1345 53.4922 12.2644 56.2641 13.7817 58.8453L10.8962 64.5953C10.6533 65.0781 10.7455 65.6641 11.1222 66.0469L17.2497 72.275C17.6264 72.6578 18.2028 72.75 18.6763 72.5047L24.3381 69.575C26.8792 71.1188 29.6063 72.2672 32.4626 72.9969L34.4241 79.1328C34.5886 79.6469 35.0606 79.9969 35.5925 79.9969H44.2596C44.7915 79.9969 45.2635 79.6484 45.4279 79.1328L47.3895 72.9969C50.2458 72.2672 52.9729 71.1188 55.514 69.575L61.1727 72.5047C61.6462 72.75 62.2226 72.6578 62.5993 72.275L68.7268 66.0469C69.1035 65.6641 69.1942 65.0797 68.9528 64.5969L66.0704 58.8453C67.5877 56.2625 68.7176 53.4922 69.4371 50.5875L75.4739 48.5938C75.9797 48.4266 76.3225 47.9469 76.3225 47.4062V38.6016C76.3225 38.0594 75.9797 37.5797 75.4724 37.4125ZM52.5348 38.0828C52.5348 36.9062 52.7192 35.8375 53.1035 34.8281C54.5855 37.2844 55.3633 40.0781 55.3633 43.0031C55.3633 46.3672 54.3164 49.4875 52.5348 52.0453V38.0828ZM52.773 30.5078L52.215 31.3078C50.7761 33.3453 50.0751 35.5609 50.0751 38.0828V54.8156C47.3588 57.2313 43.8061 58.6969 39.9214 58.6969C36.0398 58.6969 32.4887 57.2328 29.7724 54.8203V37.4141C29.7724 35.375 29.3219 33.5938 28.3565 31.8078L26.9453 29.2C26.1767 27.7734 25.8323 26.4141 25.8323 24.7906V21.2344C26.6194 21.7281 27.5433 22.0125 28.5333 22.0125C30.521 22.0125 32.2489 20.8625 33.1098 19.1844C34.0029 19.9359 35.1467 20.3875 36.3934 20.3875C38.0168 20.3875 39.5002 19.6234 40.4626 18.3625C41.0775 18.9812 41.8538 19.45 42.7469 19.6938L47.7215 21.0484L46.7162 24.8563H46.6731C41.8799 24.8563 37.9799 28.8203 37.9799 33.6922C37.9799 34.3813 38.5302 34.9406 39.2081 34.9406C39.8861 34.9406 40.4364 34.3813 40.4364 33.6922C40.4364 30.1969 43.2343 27.3547 46.6716 27.3547H47.657C48.2135 27.3547 48.6993 26.975 48.8438 26.4297L50.4118 20.4906C50.4963 20.1703 50.4517 19.8297 50.2888 19.5422C50.1258 19.2547 49.8568 19.0453 49.5432 18.9594L43.3803 17.2812C41.9414 16.8906 41.0851 15.3813 41.4695 13.9188C41.8569 12.4563 43.3419 11.5844 44.7808 11.975L54.3287 14.5797C55.1312 14.7984 55.8045 15.3234 56.2242 16.0594C56.6423 16.7953 56.7546 17.65 56.5409 18.4656L54.1443 27.5531C53.8553 28.6719 53.4448 29.5547 52.773 30.5078ZM24.4841 43.0031C24.4841 40.0125 25.3296 37.0906 26.8915 34.5922C27.1821 35.4828 27.3158 36.3953 27.3158 37.4141V52.0531C25.5326 49.4922 24.4841 46.3703 24.4841 43.0031ZM52.1197 4.67344C53.6093 4.67344 54.8207 5.90469 54.8207 7.41875V12.125L49.4172 10.6516V7.41875C49.4187 5.90469 50.6301 4.67344 52.1197 4.67344ZM41.5571 5.24531C41.5571 3.73125 42.7685 2.5 44.2596 2.5C45.7492 2.5 46.9606 3.73125 46.9606 5.24531V9.98125L45.4218 9.56094C44.0675 9.19375 42.6931 9.4125 41.5571 10.0625V5.24531ZM33.6955 7.41875C33.6955 5.90469 34.9068 4.67344 36.3965 4.67344C37.8861 4.67344 39.0975 5.90469 39.0975 7.41875V12.9734C39.0975 13.0531 39.1051 13.1297 39.119 13.2047C39.1128 13.2266 39.1051 13.2484 39.099 13.2703C38.8669 14.15 38.8715 15.0391 39.0713 15.8672C39.0037 15.9563 38.9468 16.0531 38.9038 16.1625C38.4856 17.2109 37.5018 17.8891 36.3949 17.8891C34.9053 17.8891 33.6939 16.6578 33.6939 15.1437V7.41875H33.6955ZM25.8354 9.04531C25.8354 7.53125 27.0468 6.3 28.5364 6.3C30.026 6.3 31.2374 7.53125 31.2374 9.04531V16.7703C31.2374 18.2844 30.026 19.5172 28.5364 19.5172C27.0468 19.5172 25.8354 18.2859 25.8354 16.7703V9.04531ZM73.8644 46.4984L68.0197 48.4312C67.6077 48.5672 67.2972 48.9141 67.2003 49.3422C66.5055 52.4547 65.3018 55.4094 63.62 58.1266C63.3894 58.4984 63.3694 58.9672 63.5662 59.3594L66.3548 64.9234L61.4909 69.8688L56.0167 67.0344C55.6308 66.8344 55.1712 66.8562 54.8038 67.0891C52.1304 68.7984 49.2235 70.0219 46.1612 70.7281C45.7385 70.825 45.3987 71.1406 45.265 71.5594L43.3665 77.5H36.4856L34.5871 71.5594C34.4534 71.1406 34.1121 70.825 33.6909 70.7281C30.6302 70.0219 27.7216 68.7984 25.0483 67.0891C24.6825 66.8547 24.2213 66.8344 23.837 67.0328L18.3566 69.8688L13.4926 64.925L16.2859 59.3594C16.4826 58.9672 16.4611 58.5 16.2321 58.1266C14.5518 55.4125 13.3466 52.4547 12.6471 49.3375C12.5503 48.9078 12.2398 48.5625 11.8278 48.4266L5.98461 46.4984V39.5078L11.8293 37.5781C12.2398 37.4422 12.5503 37.0969 12.6471 36.6687C13.3466 33.5531 14.5534 30.5969 16.2321 27.8828C16.4627 27.5109 16.4826 27.0422 16.2874 26.6516L13.4942 21.0812L18.3581 16.1375L23.3804 18.7391V24.7906C23.3804 26.8281 23.8308 28.6109 24.7962 30.4016L25.6694 32.0141C23.3174 35.1609 22.0307 39.0312 22.0307 43.0031C22.0307 48.1891 24.1782 52.8766 27.6156 56.1922C27.6755 56.2641 27.7432 56.3266 27.8169 56.3828C31.0068 59.3672 35.2604 61.1922 39.9276 61.1922C44.5855 61.1922 48.833 59.3734 52.0198 56.4C52.1105 56.3344 52.1919 56.2578 52.2626 56.1703C55.6877 52.8547 57.8245 48.1766 57.8245 43.0016C57.8245 39.1547 56.6654 35.5031 54.4702 32.4L54.7792 31.9578C55.6201 30.7656 56.1596 29.6047 56.527 28.1969L58.9237 19.1125C59.0743 18.5375 59.1343 17.9516 59.1066 17.3734L61.494 16.1375L66.3594 21.0828L63.5708 26.6531C63.3741 27.0453 63.3956 27.5125 63.6262 27.8844C65.3049 30.5984 66.5116 33.5547 67.2111 36.6703C67.3079 37.0984 67.6185 37.4437 68.0289 37.5797L73.869 39.5094V46.4984H73.8644Z" fill="#603C93"/>
</svg>
