<svg width="70" height="80" viewBox="0 0 70 80" fill="none" xmlns="http://www.w3.org/2000/svg">
<path fill-rule="evenodd" clip-rule="evenodd" d="M34.5927 15.7305C34.6848 15.6081 34.7457 15.4645 34.7702 15.3124C34.7947 15.1603 34.7819 15.0045 34.7329 14.8586C34.684 14.7128 34.6005 14.5814 34.4897 14.4763C34.379 14.3711 34.2444 14.2954 34.098 14.2557L30.3528 13.2352C30.2109 13.197 30.0622 13.1937 29.9189 13.2255C29.7756 13.2574 29.6418 13.3235 29.5285 13.4184L26.4493 15.9963L26.2361 15.7678L26.3794 15.6647C26.5794 15.5215 26.7154 15.3033 26.7572 15.0581C26.7991 14.813 26.7435 14.561 26.6027 14.3575C26.4619 14.1541 26.2474 14.0158 26.0063 13.9732C25.7653 13.9306 25.5175 13.9872 25.3174 14.1304L24.9556 14.3891L24.6252 14.0335L24.4504 12.0067L31.2679 5.20377L31.3011 5.16644C35.139 5.8678 37.734 7.5381 40.0484 13.2317C40.0947 13.3455 40.1625 13.4489 40.2481 13.5361C40.3337 13.6232 40.4353 13.6924 40.5471 13.7396C40.6589 13.7868 40.7788 13.8112 40.8999 13.8113C41.021 13.8114 41.1409 13.7872 41.2528 13.7402C41.3648 13.6931 41.4665 13.6241 41.5522 13.5371C41.6378 13.4501 41.7058 13.3467 41.7523 13.233C41.7987 13.1192 41.8226 12.9973 41.8227 12.8742C41.8228 12.751 41.7991 12.629 41.7528 12.5152C39.4322 6.80829 36.6187 4.24284 31.5441 3.30947V1.88096C34.0373 1.99284 36.4398 2.86477 38.4395 4.38345C40.4392 5.90213 41.9435 7.99735 42.7571 10.3969L42.7632 10.4156C44.2224 14.4923 44.1254 18.9774 42.4914 22.985C41.9177 23.7042 41.5335 24.5601 41.375 25.4721C41.2164 26.384 41.2887 27.322 41.585 28.1977H26.7876C26.9196 26.2867 27.2695 24.3978 27.8303 22.569C30.3948 20.6282 32.6721 18.3231 34.5927 15.7242V15.7305ZM46.5827 32.5685H23.2285V30.0724H46.5827V32.5685ZM49.8516 36.9394H19.9596V34.4433H49.8516V36.9394ZM26.5149 21.2196C26.3664 21.3289 26.2529 21.4805 26.1889 21.6552C25.4947 23.7718 25.0725 25.9709 24.9329 28.1977H22.302C22.0575 28.1977 21.8229 28.2965 21.65 28.4724C21.4771 28.6482 21.3799 28.8868 21.3799 29.1355V32.5685H19.0358C18.9144 32.5685 18.7943 32.5929 18.6823 32.6402C18.5702 32.6875 18.4685 32.7568 18.3828 32.8442C18.2971 32.9315 18.2293 33.0352 18.1831 33.1493C18.1369 33.2634 18.1133 33.3857 18.1136 33.509V37.879C18.1136 38.1277 18.2108 38.3663 18.3837 38.5421C18.5567 38.718 18.7912 38.8168 19.0358 38.8168H50.7755C51.0199 38.8166 51.2543 38.7177 51.4272 38.5419C51.6001 38.3661 51.6973 38.1277 51.6976 37.879V33.509C51.6973 33.2604 51.6001 33.022 51.4272 32.8462C51.2543 32.6703 51.0199 32.5714 50.7755 32.5712H48.4261V29.1355C48.4262 29.0124 48.4024 28.8905 48.3562 28.7767C48.3099 28.6629 48.2421 28.5595 48.1565 28.4724C48.071 28.3853 47.9694 28.3162 47.8576 28.2691C47.7457 28.222 47.6259 28.1977 47.5048 28.1977H43.5979C43.2913 27.6522 43.1321 27.0339 43.1364 26.4056C43.1422 25.5546 43.4438 24.7331 43.9877 24.0864C44.0493 24.013 44.0997 23.9306 44.1372 23.8419C46.002 19.372 46.1313 14.3493 44.499 9.7862C43.5186 6.85466 41.6372 4.32148 39.1327 2.56073C36.6282 0.799985 33.6334 -0.0949826 30.5905 0.00798669C30.3514 0.0162881 30.1249 0.118747 29.9587 0.29373C29.7925 0.468714 29.6997 0.702528 29.6999 0.945806V4.14595L22.8492 10.9818C22.7521 11.079 22.6772 11.1968 22.6301 11.3268C22.583 11.4568 22.5646 11.5958 22.5765 11.7338L22.8168 14.5269C22.8344 14.7376 22.9219 14.9361 23.0651 15.0895L25.702 17.9226C25.8627 18.0947 26.0815 18.1985 26.3144 18.213C26.5474 18.2275 26.777 18.1517 26.9571 18.0008L30.3335 15.1758L32.2651 15.702C30.5927 17.7883 28.6616 19.6457 26.5201 21.2276L26.5149 21.2196ZM20.6029 43.5717L9.81469 59.2435C9.69597 59.4151 9.51527 59.5318 9.31214 59.5681C9.10901 59.6044 8.9 59.5574 8.73088 59.4373L2.26914 54.8353C2.10106 54.7141 1.98676 54.5304 1.95109 54.324C1.91541 54.1176 1.96123 53.9053 2.0786 53.733L12.8668 38.0639C12.9252 37.9786 12.9996 37.9059 13.0857 37.85C13.1719 37.794 13.268 37.756 13.3687 37.738C13.4693 37.72 13.5724 37.7224 13.6722 37.745C13.7719 37.7677 13.8662 37.8102 13.9497 37.8701L20.4115 42.4703C20.5802 42.5908 20.6951 42.7743 20.731 42.9808C20.7669 43.1872 20.7208 43.3997 20.6029 43.5717ZM27.6293 48.7879C25.2944 48.2622 23.0177 47.4983 20.8336 46.5078L12.4779 58.6435C13.9768 59.7573 15.7223 60.9716 17.6828 62.2641L18.3453 61.3005C18.7407 60.7254 19.2902 60.2777 19.9284 60.0108C20.5666 59.7438 21.2667 59.6687 21.9456 59.7944C22.6245 59.9201 23.2537 60.2414 23.7584 60.7199C24.2631 61.1985 24.6222 61.8144 24.793 62.4943C25.3697 62.2562 25.9971 62.1741 26.6142 62.2558C27.2313 62.3375 27.8171 62.5803 28.3146 62.9606C28.8121 63.3409 29.2043 63.8457 29.453 64.4259C29.7017 65.0061 29.7985 65.6419 29.7339 66.2714C30.6131 66.2221 31.4794 66.5026 32.1687 67.0597C32.858 67.6167 33.3225 68.4117 33.4739 69.2937C33.5317 69.6285 33.5443 69.9698 33.5115 70.308C34.1549 70.2724 34.7958 70.4129 35.3676 70.7149C35.9394 71.0168 36.4212 71.4691 36.7627 72.0247C37.1043 72.5803 37.2931 73.2189 37.3096 73.8739C37.3261 74.5289 37.1696 75.1765 36.8565 75.7491L37.4683 76.1865C37.8528 76.4571 38.3268 76.5622 38.7872 76.4789C39.2475 76.3957 39.6568 76.1308 39.9261 75.742C40.1932 75.3515 40.2972 74.8692 40.2153 74.4008C40.1334 73.9324 39.8722 73.5162 39.489 73.2433C39.3069 73.0944 39.1871 72.8807 39.1542 72.6454C39.1213 72.4101 39.1775 72.1709 39.3116 71.9763C39.4458 71.7816 39.6476 71.6462 39.8763 71.5974C40.105 71.5486 40.3434 71.59 40.5431 71.7134L40.579 71.7401C40.5842 71.744 40.5898 71.7476 40.5956 71.7507L41.4408 72.3526C41.8242 72.6219 42.2968 72.7262 42.7555 72.6425C43.2142 72.5588 43.6217 72.2939 43.8891 71.9058C44.1565 71.5176 44.2621 71.0376 44.1828 70.5706C44.1035 70.1036 43.8458 69.6874 43.4659 69.4129L42.0552 68.4013C41.956 68.3306 41.8715 68.2407 41.8065 68.1368C41.7415 68.0329 41.6972 67.917 41.6762 67.7957C41.6553 67.6744 41.658 67.5501 41.6842 67.4299C41.7105 67.3096 41.7598 67.1958 41.8293 67.095C41.8988 66.9941 41.9871 66.9082 42.0893 66.842C42.1914 66.7759 42.3054 66.7309 42.4247 66.7095C42.5439 66.6882 42.6662 66.691 42.7844 66.7177C42.9026 66.7444 43.0145 66.7945 43.1137 66.8652L44.5314 67.8759L45.3722 68.4742C45.5609 68.6218 45.777 68.729 46.0076 68.7894C46.2382 68.8498 46.4784 68.8621 46.7137 68.8256C46.9491 68.789 47.1747 68.7044 47.3771 68.5768C47.5794 68.4492 47.7542 68.2812 47.891 68.083C48.0279 67.8849 48.1238 67.6606 48.1731 67.4237C48.2224 67.1868 48.224 66.9422 48.1779 66.7047C48.1318 66.4671 48.0388 66.2415 47.9047 66.0415C47.7705 65.8414 47.5979 65.6711 47.3973 65.5407L44.2254 63.281C44.1234 63.2116 44.0361 63.1222 43.9685 63.018C43.9009 62.9138 43.8544 62.7969 43.8318 62.6742C43.8092 62.5515 43.8109 62.4254 43.8369 62.3034C43.8628 62.1814 43.9124 62.0659 43.9828 61.9636C44.0532 61.8614 44.143 61.7744 44.2469 61.7079C44.3507 61.6414 44.4666 61.5967 44.5877 61.5763C44.7088 61.5559 44.8327 61.5604 44.9521 61.5893C45.0715 61.6183 45.184 61.6712 45.283 61.745L48.4531 63.9993L49.4067 64.6775C49.79 64.9504 50.2642 65.0573 50.725 64.9746C51.1857 64.8919 51.5953 64.6265 51.8636 64.2366C52.132 63.8468 52.237 63.3645 52.1557 62.8959C52.0744 62.4273 51.8134 62.0107 51.4301 61.7379C50.6548 61.1867 49.6908 60.5378 48.6699 59.8507C45.318 57.5946 41.2126 54.8282 39.1176 52.4459C37.4185 53.1173 35.57 53.2979 33.7764 52.9677C33.2065 54.3117 31.8535 55.4567 29.6684 56.4585C28.1581 57.2194 25.9974 56.7394 23.0747 54.99C22.9627 54.923 22.8659 54.8327 22.7906 54.725C22.7153 54.6173 22.6632 54.4947 22.6378 54.3651C22.6124 54.2355 22.6142 54.1019 22.6431 53.9731C22.672 53.8442 22.7273 53.723 22.8055 53.6175C24.3316 51.9247 25.9417 50.3122 27.6293 48.7862V48.7879ZM30.996 48.1426C33.793 47.1914 35.652 46.5176 36.6633 46.0847C38.6518 45.8037 40.672 45.8523 42.6452 46.2287C42.6539 46.2292 42.6627 46.2292 42.6714 46.2287C44.7963 46.4913 46.9341 46.6307 49.0746 46.6465L57.4714 58.8435C56.3978 60.0119 55.0775 60.9173 53.61 61.4916C53.3437 60.9778 52.9607 60.5359 52.4929 60.2027C51.6984 59.6382 50.7239 58.9822 49.696 58.2879C46.3563 56.0398 41.7816 52.9597 40.0965 50.7018C39.9588 50.5176 39.7591 50.3916 39.5356 50.3481C39.3122 50.3046 39.0808 50.3467 38.886 50.4662C37.5854 51.2663 35.7071 51.4441 33.3026 50.9916C33.182 50.969 33.0581 50.9712 32.9383 50.9979C32.8185 51.0247 32.7051 51.0755 32.6048 51.1473C32.5046 51.2192 32.4194 51.3106 32.3543 51.4164C32.2892 51.5222 32.2455 51.64 32.2258 51.7632C32.0134 53.0832 30.3029 54.1206 28.9045 54.7571L28.8652 54.7758C28.4211 55.0033 27.3601 55.1562 25.0299 53.9437C25.8681 53.0886 27.5751 51.4103 31.0039 48.1426H30.996ZM49.3989 42.4703L55.8615 37.8701C55.9451 37.8105 56.0394 37.7681 56.1391 37.7456C56.2388 37.723 56.3419 37.7207 56.4424 37.7387C56.543 37.7567 56.6391 37.7947 56.7252 37.8505C56.8114 37.9063 56.8858 37.9788 56.9444 38.0639L67.7326 53.733C67.85 53.9053 67.8958 54.1176 67.8601 54.324C67.8245 54.5304 67.7102 54.7141 67.5421 54.8353L61.0803 59.4373C60.9107 59.5553 60.7024 59.601 60.5 59.5648C60.2977 59.5286 60.1173 59.4133 59.9974 59.2435L50.3096 45.1718L50.3009 45.1584L49.2083 43.5717C49.0908 43.3997 49.0448 43.1874 49.0805 42.9811C49.1162 42.7748 49.2306 42.5912 49.3989 42.4703ZM33.5194 77.3625C33.2511 77.7524 32.8415 78.0178 32.3807 78.1005C31.92 78.1832 31.4458 78.0763 31.0625 77.8035C30.6792 77.5306 30.4182 77.114 30.3369 76.6454C30.2556 76.1768 30.3606 75.6945 30.629 75.3047L32.2564 72.9401C32.3871 72.7416 32.5555 72.5717 32.7516 72.4402C32.9477 72.3088 33.1677 72.2185 33.3986 72.1746C33.6295 72.1307 33.8666 72.1342 34.0962 72.1847C34.3258 72.2353 34.5431 72.332 34.7354 72.4691C34.9278 72.6062 35.0913 72.781 35.2164 72.9832C35.3414 73.1854 35.4255 73.411 35.4638 73.6467C35.502 73.8824 35.4936 74.1235 35.439 74.3558C35.3845 74.5882 35.2848 74.8071 35.146 74.9998L33.5194 77.3625ZM27.3566 75.8683C27.0133 75.9303 26.6597 75.8872 26.3406 75.7446C26.0214 75.602 25.7511 75.3662 25.5639 75.0671C25.3766 74.7681 25.2809 74.4192 25.2889 74.0647C25.2968 73.7103 25.4081 73.3662 25.6085 73.0761L28.4841 68.8982C28.7527 68.5086 29.1626 68.2435 29.6234 68.1612C30.0843 68.079 30.5584 68.1862 30.9414 68.4595C31.3245 68.7327 31.5851 69.1496 31.666 69.6182C31.7469 70.0869 31.6414 70.5691 31.3728 70.9587L30.7496 71.8636L29.1221 74.2264L28.4989 75.1313C28.3667 75.324 28.1981 75.4881 28.0031 75.6142C27.8081 75.7402 27.5904 75.8257 27.3627 75.8656L27.3566 75.8683ZM21.0146 73.3473C20.6325 73.0735 20.3723 72.6573 20.2904 72.1893C20.2086 71.7214 20.3118 71.2395 20.5776 70.8485L24.6969 64.8633C24.8292 64.6706 24.9977 64.5065 25.1927 64.3805C25.3878 64.2545 25.6054 64.169 25.8331 64.1291C25.9367 64.1107 26.0417 64.1015 26.1469 64.1015C26.5063 64.1008 26.8571 64.2132 27.1512 64.4233C27.534 64.6964 27.7945 65.1129 27.8756 65.5812C27.9568 66.0496 27.8518 66.5315 27.5838 66.9212L26.9615 67.8261L24.0955 71.9996L23.4732 72.9037C23.2049 73.2934 22.7956 73.559 22.3351 73.6423C21.8745 73.7256 21.4003 73.6198 21.0163 73.3481L21.0146 73.3473ZM17.0596 69.5658C16.6758 69.2933 16.4142 68.877 16.3323 68.4084C16.2503 67.9398 16.3547 67.4573 16.6225 67.067L19.8512 62.3761C20.1195 61.9863 20.5291 61.7208 20.9899 61.6381C21.4507 61.5555 21.9248 61.6623 22.3081 61.9352C22.6914 62.2081 22.9524 62.6247 23.0337 63.0933C23.115 63.5619 23.01 64.0441 22.7417 64.434L19.5121 69.1248C19.2439 69.5147 18.8346 69.7805 18.374 69.8638C17.9134 69.9472 17.4391 69.8412 17.0552 69.5693L17.0596 69.5658ZM11.3565 36.9892L0.567398 52.6583C0.16887 53.2377 0.0128533 53.9542 0.133648 54.6505C0.254442 55.3468 0.64216 55.9658 1.21156 56.3714L7.67418 60.9769C8.24362 61.3821 8.9479 61.5407 9.63229 61.418C10.3167 61.2954 10.9252 60.9014 11.3241 60.3227L11.4194 60.1831C12.9263 61.3023 14.6708 62.5166 16.6243 63.8055L15.1166 65.9958C14.7377 66.5451 14.5143 67.1895 14.4706 67.859C14.427 68.5285 14.5647 69.1973 14.869 69.7927C15.1732 70.388 15.6322 70.887 16.196 71.2354C16.7598 71.5838 17.4067 71.7682 18.0665 71.7685C18.1862 71.7685 18.3051 71.7605 18.4239 71.7499C18.4154 72.0073 18.433 72.265 18.4764 72.5188C18.6217 73.3663 19.0561 74.1345 19.7031 74.6886C20.3502 75.2426 21.1686 75.547 22.0145 75.5482C22.2283 75.5481 22.4418 75.5294 22.6525 75.4922C22.9817 75.4325 23.3011 75.3266 23.6017 75.1776C23.8253 75.9278 24.2801 76.585 24.8992 77.0521C25.5182 77.5192 26.2685 77.7714 27.0393 77.7715C27.2532 77.7713 27.4666 77.7525 27.6773 77.7155C28.0071 77.6552 28.3273 77.5496 28.6292 77.4017C28.8505 78.1527 29.3041 78.8112 29.9225 79.2793C30.541 79.7474 31.2914 80.0001 32.0624 80C32.2762 79.9998 32.4897 79.9811 32.7004 79.944C33.1674 79.8622 33.6138 79.6869 34.0137 79.4283C34.4135 79.1696 34.7589 78.8328 35.0297 78.4373L35.8164 77.2968L36.4159 77.7235C36.9693 78.1186 37.6208 78.3475 38.296 78.384C38.9712 78.4205 39.6429 78.2631 40.2343 77.9298C40.8257 77.5965 41.313 77.1008 41.6406 76.4992C41.9682 75.8976 42.1227 75.2145 42.0867 74.5278C42.208 74.5414 42.33 74.5488 42.452 74.55C42.9454 74.5525 43.4339 74.4517 43.8874 74.2541C44.3408 74.0564 44.7495 73.766 45.0879 73.401C45.4263 73.0359 45.6874 72.604 45.8548 72.132C46.0221 71.66 46.0923 71.1581 46.0609 70.6574C46.1684 70.6671 46.2742 70.6734 46.3826 70.6734C46.8695 70.6748 47.3517 70.5757 47.8 70.3822C48.2482 70.1886 48.6532 69.9046 48.9904 69.5473C49.3276 69.1899 49.5901 68.7667 49.7618 68.3033C49.9336 67.8398 50.0111 67.3458 49.9897 66.851C50.1315 66.8686 50.2742 66.8778 50.4171 66.8785C51.3535 66.8804 52.2539 66.5115 52.9275 65.85C53.6011 65.1885 53.9951 64.2862 54.026 63.3344C55.731 62.712 57.2777 61.7097 58.5526 60.4009C58.9629 60.947 59.5646 61.3108 60.2323 61.4167C60.8999 61.5225 61.582 61.3621 62.1362 60.9689L68.5988 56.3678C69.168 55.9621 69.5556 55.343 69.6762 54.6467C69.7968 53.9505 69.6407 53.234 69.2421 52.6548L58.4547 36.9874C58.0556 36.4086 57.4469 36.0146 56.7623 35.8921C56.0777 35.7696 55.3733 35.9286 54.8039 36.334L48.3421 40.9343C48.06 41.1351 47.8195 41.3905 47.6343 41.686C47.4493 41.9814 47.3232 42.311 47.2634 42.6559C47.2036 43.0009 47.2111 43.3545 47.2857 43.6965C47.3603 44.0385 47.5004 44.3622 47.698 44.6491L47.7705 44.7531C46.3397 44.706 44.707 44.5753 42.8908 44.3709C40.6748 43.9433 38.4025 43.9109 36.1756 44.2748C36.1224 44.2873 36.0704 44.3042 36.02 44.3255C35.0664 44.7389 33.1147 45.4473 30.2217 46.4287C30.0952 46.4707 29.9794 46.5405 29.8825 46.6332L29.2707 47.2145C26.7398 46.7428 24.2697 45.9806 21.9078 44.9424L22.1106 44.6491C22.5085 44.0693 22.6642 43.3526 22.5434 42.6563C22.4227 41.9599 22.0354 41.3407 21.4664 40.9343L15.0047 36.334C14.4353 35.9296 13.7313 35.7714 13.0474 35.8942C12.3634 36.017 11.7553 36.4108 11.3565 36.9892Z" fill="#603C93"/>
</svg>
