<svg width="80" height="80" viewBox="0 0 80 80" fill="none" xmlns="http://www.w3.org/2000/svg">
<path d="M40.2078 0C37.2511 0 34.3609 0.889846 31.9026 2.55701C29.4442 4.22418 27.5282 6.59379 26.3967 9.36618C25.2653 12.1386 24.9692 15.1892 25.546 18.1324C26.1229 21.0756 27.5466 23.779 29.6372 25.9009C31.7279 28.0228 34.3915 29.4679 37.2914 30.0533C40.1912 30.6387 43.1969 30.3383 45.9285 29.1899C48.66 28.0415 50.9947 26.0968 52.6374 23.6018C54.28 21.1067 55.1567 18.1732 55.1567 15.1724C55.1519 11.1499 53.5754 7.2936 50.773 4.44927C47.9705 1.60495 44.171 0.00486689 40.2078 0ZM43.6596 27.2644V16.5977H43.9314L44.7377 23.2552C44.8052 23.5578 44.9851 23.8222 45.24 23.9935C45.4948 24.1648 45.805 24.2297 46.1058 24.1747C46.2545 24.1771 46.4023 24.1498 46.5406 24.0943C46.6789 24.0388 46.8051 23.9561 46.9119 23.8511C47.0188 23.7461 47.1042 23.6207 47.1633 23.4822C47.2224 23.3436 47.254 23.1946 47.2564 23.0437L46.2326 13.9402C46.1383 13.2791 45.8108 12.6751 45.311 12.2405C44.8111 11.8059 44.1728 11.5701 43.5146 11.577H37.0005C36.371 11.5619 35.7558 11.7691 35.26 12.1632C34.7643 12.5573 34.4188 13.1139 34.2825 13.7379C34.2547 13.8119 34.2365 13.8891 34.2282 13.9678L33.2044 23.0713C33.2068 23.2222 33.2384 23.3712 33.2975 23.5098C33.3566 23.6483 33.442 23.7737 33.5489 23.8787C33.6557 23.9837 33.7819 24.0664 33.9202 24.1219C34.0585 24.1774 34.2063 24.2047 34.355 24.2023C34.6558 24.2573 34.966 24.1924 35.2208 24.0211C35.4757 23.8498 35.6556 23.5853 35.7231 23.2828L36.4932 16.5977H36.765V27.2644C33.893 26.4204 31.4177 24.5527 29.7941 22.0045C28.1705 19.4563 27.5078 16.3989 27.9277 13.3944C28.3476 10.3898 29.8219 7.64013 32.0797 5.65072C34.3375 3.66132 37.2269 2.56593 40.2168 2.56593C43.2067 2.56593 46.0961 3.66132 48.3539 5.65072C50.6117 7.64013 52.086 10.3898 52.506 13.3944C52.9259 16.3989 52.2631 19.4563 50.6395 22.0045C49.0159 24.5527 46.5406 26.4204 43.6687 27.2644H43.6596ZM43.0798 7.95402C43.0816 8.52872 42.9154 9.09105 42.6023 9.56991C42.2892 10.0488 41.8432 10.4226 41.3208 10.6442C40.7983 10.8658 40.2229 10.9252 39.6672 10.8149C39.1115 10.7046 38.6005 10.4295 38.1988 10.0244C37.7972 9.61928 37.5229 9.10241 37.4107 8.53911C37.2984 7.9758 37.3533 7.39138 37.5684 6.85973C37.7834 6.32808 38.1489 5.87309 38.6187 5.55229C39.0885 5.23149 39.6415 5.05929 40.2078 5.05747C40.5833 5.05505 40.9556 5.12788 41.3034 5.27178C41.6511 5.41569 41.9675 5.62784 42.2343 5.89608C42.5011 6.16431 42.7131 6.48336 42.8582 6.83493C43.0033 7.1865 43.0786 7.56367 43.0798 7.94483V7.95402ZM64.6697 24.8276C61.7131 24.8276 58.8228 25.7174 56.3645 27.3846C53.9061 29.0518 51.9901 31.4214 50.8586 34.1938C49.7272 36.9662 49.4312 40.0168 50.008 42.96C50.5848 45.9031 52.0085 48.6066 54.0992 50.7285C56.1898 52.8504 58.8535 54.2954 61.7533 54.8809C64.6531 55.4663 67.6588 55.1658 70.3904 54.0175C73.122 52.8691 75.4567 50.9244 77.0993 48.4293C78.7419 45.9342 79.6186 43.0008 79.6186 40C79.6138 35.9775 78.0373 32.1212 75.2349 29.2769C72.4324 26.4325 68.6329 24.8325 64.6697 24.8276ZM68.1215 52.092V41.4253H68.3933L69.1997 48.0828C69.2671 48.3853 69.4471 48.6498 69.7019 48.8211C69.9568 48.9924 70.2669 49.0573 70.5677 49.0023C70.7164 49.0047 70.8642 48.9774 71.0025 48.9219C71.1408 48.8664 71.267 48.7837 71.3739 48.6787C71.4807 48.5737 71.5661 48.4483 71.6252 48.3097C71.6843 48.1712 71.716 48.0222 71.7183 47.8713L70.6946 38.7678C70.6002 38.1067 70.2728 37.5027 69.7729 37.0681C69.273 36.6335 68.6347 36.3977 67.9766 36.4046H61.4624C60.8329 36.3895 60.2177 36.5966 59.722 36.9908C59.2262 37.3849 58.8807 37.9415 58.7445 38.5655C58.7167 38.6395 58.6984 38.7167 58.6901 38.7954L57.6663 47.8988C57.6687 48.0498 57.7003 48.1988 57.7594 48.3373C57.8185 48.4759 57.9039 48.6012 58.0108 48.7063C58.1176 48.8113 58.2438 48.8939 58.3821 48.9495C58.5205 49.005 58.6682 49.0323 58.8169 49.0299C59.1178 49.0849 59.4279 49.02 59.6827 48.8487C59.9376 48.6774 60.1175 48.4129 60.185 48.1103L60.9551 41.4253H61.2269V52.092C58.3549 51.248 55.8796 49.3803 54.256 46.8321C52.6324 44.2839 51.9697 41.2265 52.3896 38.222C52.8095 35.2174 54.2839 32.4677 56.5416 30.4783C58.7994 28.4889 61.6888 27.3935 64.6787 27.3935C67.6686 27.3935 70.5581 28.4889 72.8158 30.4783C75.0736 32.4677 76.548 35.2174 76.9679 38.222C77.3878 41.2265 76.725 44.2839 75.1014 46.8321C73.4778 49.3803 71.0025 51.248 68.1306 52.092H68.1215ZM67.5417 32.7816C67.5435 33.3563 67.3773 33.9186 67.0642 34.3975C66.7511 34.8763 66.3052 35.2502 65.7827 35.4718C65.2603 35.6934 64.6848 35.7528 64.1291 35.6425C63.5734 35.5321 63.0624 35.257 62.6608 34.852C62.2591 34.4469 61.9848 33.93 61.8726 33.3667C61.7604 32.8034 61.8152 32.219 62.0303 31.6873C62.2453 31.1557 62.6108 30.7007 63.0806 30.3799C63.5505 30.0591 64.1034 29.8869 64.6697 29.8851C65.0452 29.8826 65.4175 29.9555 65.7653 30.0994C66.113 30.2433 66.4294 30.4554 66.6962 30.7237C66.963 30.9919 67.175 31.3109 67.3201 31.6625C67.4652 32.0141 67.5405 32.3913 67.5417 32.7724V32.7816ZM40.2078 49.6552C37.2511 49.6552 34.3609 50.545 31.9026 52.2122C29.4442 53.8793 27.5282 56.249 26.3967 59.0214C25.2653 61.7937 24.9692 64.8444 25.546 67.7876C26.1229 70.7307 27.5466 73.4342 29.6372 75.5561C31.7279 77.678 34.3915 79.123 37.2914 79.7085C40.1912 80.2939 43.1969 79.9934 45.9285 78.8451C48.66 77.6967 50.9947 75.752 52.6374 73.2569C54.28 70.7618 55.1567 67.8284 55.1567 64.8276C55.1519 60.8051 53.5754 56.9488 50.773 54.1044C47.9705 51.2601 44.171 49.66 40.2078 49.6552ZM43.6596 76.9195V66.2529H43.9314L44.7377 72.9103C44.8052 73.2129 44.9851 73.4774 45.24 73.6487C45.4948 73.82 45.805 73.8849 46.1058 73.8299C46.2545 73.8323 46.4023 73.805 46.5406 73.7495C46.6789 73.6939 46.8051 73.6113 46.9119 73.5063C47.0188 73.4012 47.1042 73.2759 47.1633 73.1373C47.2224 72.9988 47.254 72.8498 47.2564 72.6988L46.2326 63.5954C46.1383 62.9342 45.8108 62.3303 45.311 61.8957C44.8111 61.461 44.1728 61.2253 43.5146 61.2322H37.0005C36.371 61.217 35.7558 61.4242 35.26 61.8184C34.7643 62.2125 34.4188 62.7691 34.2825 63.3931C34.2547 63.467 34.2365 63.5443 34.2282 63.623L33.2044 72.7264C33.2068 72.8774 33.2384 73.0264 33.2975 73.1649C33.3566 73.3035 33.442 73.4288 33.5489 73.5339C33.6557 73.6389 33.7819 73.7215 33.9202 73.777C34.0585 73.8326 34.2063 73.8599 34.355 73.8575C34.6558 73.9125 34.966 73.8476 35.2208 73.6763C35.4757 73.505 35.6556 73.2405 35.7231 72.9379L36.4932 66.2529H36.765V76.9195C33.893 76.0756 31.4177 74.2079 29.7941 71.6597C28.1705 69.1115 27.5078 66.0541 27.9277 63.0495C28.3476 60.045 29.8219 57.2953 32.0797 55.3059C34.3375 53.3165 37.2269 52.2211 40.2168 52.2211C43.2067 52.2211 46.0961 53.3165 48.3539 55.3059C50.6117 57.2953 52.086 60.045 52.506 63.0495C52.9259 66.0541 52.2631 69.1115 50.6395 71.6597C49.0159 74.2079 46.5406 76.0756 43.6687 76.9195H43.6596ZM43.0798 57.6092C43.0816 58.1839 42.9154 58.7462 42.6023 59.2251C42.2892 59.7039 41.8432 60.0778 41.3208 60.2994C40.7983 60.521 40.2229 60.5804 39.6672 60.4701C39.1115 60.3597 38.6005 60.0846 38.1988 59.6795C37.7972 59.2745 37.5229 58.7576 37.4107 58.1943C37.2984 57.631 37.3533 57.0465 37.5684 56.5149C37.7834 55.9832 38.1489 55.5283 38.6187 55.2075C39.0885 54.8867 39.6415 54.7145 40.2078 54.7126C40.5833 54.7102 40.9556 54.783 41.3034 54.927C41.6511 55.0709 41.9675 55.283 42.2343 55.5513C42.5011 55.8195 42.7131 56.1385 42.8582 56.4901C43.0033 56.8417 43.0786 57.2188 43.0798 57.6V57.6092ZM15.7458 24.8276C12.7892 24.8276 9.89898 25.7174 7.44064 27.3846C4.9823 29.0518 3.06625 31.4214 1.9348 34.1938C0.803352 36.9662 0.507313 40.0168 1.08412 42.96C1.66093 45.9031 3.08468 48.6066 5.17533 50.7285C7.26598 52.8504 9.92962 54.2954 12.8294 54.8809C15.7292 55.4663 18.735 55.1658 21.4665 54.0175C24.1981 52.8691 26.5328 50.9244 28.1754 48.4293C29.818 45.9342 30.6948 43.0008 30.6948 40C30.69 35.9775 29.1135 32.1212 26.311 29.2769C23.5086 26.4325 19.7091 24.8325 15.7458 24.8276ZM18.6269 31.0345H12.8648C13.7708 28.7172 14.8398 27.3563 15.7458 27.3563C16.6518 27.3563 17.7571 28.7172 18.6269 31.0345ZM20.158 28.2759C21.7565 28.89 23.2147 29.8287 24.4434 31.0345H21.3087C21.0116 30.0684 20.6264 29.1325 20.158 28.2391V28.2759ZM11.4786 38.7126C11.538 36.9956 11.7503 35.2875 12.1128 33.6092H19.3608C19.7233 35.2875 19.9355 36.9956 19.995 38.7126H11.4786ZM20.0131 41.2874C19.9534 43.0201 19.7381 44.7437 19.3698 46.4368H12.1218C11.7593 44.7585 11.5471 43.0504 11.4876 41.3333L20.0131 41.2874ZM10.183 31.0345H7.04826C8.27701 29.8287 9.7352 28.89 11.3336 28.2759C10.8673 29.1575 10.4821 30.081 10.183 31.0345ZM9.53069 33.6092C9.19883 35.2914 9.00189 36.9981 8.9418 38.7126H3.39709C3.58355 36.908 4.15554 35.1664 5.07319 33.6092H9.53069ZM8.9418 41.2874C8.99944 43.0173 9.19639 44.7395 9.53069 46.4368H5.07319C4.1493 44.8658 3.57709 43.1078 3.39709 41.2874H8.9418ZM10.183 48.9655C10.4821 49.919 10.8673 50.8425 11.3336 51.7241C9.7352 51.1099 8.27701 50.1713 7.04826 48.9655H10.183ZM12.901 48.9655H18.6631C17.7571 51.2828 16.6881 52.6437 15.7821 52.6437C14.8761 52.6437 13.7345 51.2828 12.8648 48.9655H12.901ZM21.3449 48.9655H24.4434C23.2147 50.1713 21.7565 51.1099 20.158 51.7241C20.6244 50.8425 21.0095 49.919 21.3087 48.9655H21.3449ZM21.9972 46.3908C22.3291 44.7086 22.526 43.0019 22.5861 41.2874H28.1308C27.9397 43.1107 27.3551 44.8688 26.4185 46.4368L21.9972 46.3908ZM22.5861 38.7126C22.526 36.9981 22.3291 35.2914 21.9972 33.6092H26.4547C27.3724 35.1664 27.9443 36.908 28.1308 38.7126H22.5861Z" fill="#603C93"/>
</svg>
