<svg width="31" height="28" viewBox="0 0 31 28" fill="none" xmlns="http://www.w3.org/2000/svg">
<path d="M30.9185 4.466C30.8317 4.26089 30.6857 4.08589 30.4989 3.96305C30.312 3.84022 30.0928 3.77504 29.8687 3.77573H25.5558C25.0382 2.87912 24.3198 2.11283 23.4561 1.53621C22.5923 0.959593 21.6065 0.588115 20.575 0.450549C19.5435 0.312984 18.4939 0.413021 17.5075 0.742916C16.5212 1.07281 15.6246 1.62371 14.8871 2.35294C14.2414 2.97808 13.728 3.72506 13.3772 4.54999C13.0264 5.37492 12.8451 6.26115 12.8442 7.15662V8.01593C7.06999 6.5227 2.34569 1.90216 2.30312 1.84581C2.15472 1.70084 1.96902 1.59919 1.76634 1.55198C1.56366 1.50478 1.35181 1.51383 1.15397 1.57816C0.956751 1.64048 0.780146 1.75452 0.642802 1.90826C0.505459 2.06199 0.412477 2.24969 0.373676 2.45155C-0.860603 9.2415 1.19653 13.7916 3.14016 16.4118C4.11503 17.7367 5.29822 18.8973 6.64438 19.849C4.47375 22.2861 1.12559 23.5539 1.09722 23.568C0.93711 23.627 0.792464 23.721 0.674057 23.8432C0.555651 23.9654 0.466536 24.1125 0.413354 24.2737C0.360172 24.4348 0.344293 24.6058 0.3669 24.7738C0.389507 24.9419 0.450017 25.1027 0.543922 25.2444C0.657419 25.4134 1.08303 25.9628 2.11869 26.484C3.40972 27.1179 5.11217 27.4419 7.1693 27.4419C17.1712 27.4419 25.5416 19.7927 26.3928 9.94585L30.6774 5.70566C30.8313 5.54271 30.9357 5.33982 30.9784 5.12044C31.021 4.90106 31.0003 4.67416 30.9185 4.466ZM24.4918 8.64984C24.2941 8.84455 24.1775 9.10613 24.1655 9.38237C23.5838 18.2431 16.1214 25.188 7.1693 25.188C5.66547 25.188 4.61562 24.9908 3.87789 24.7513C5.50941 23.8779 7.77935 22.3565 9.25481 20.173C9.34046 20.0409 9.39732 19.8924 9.42176 19.7371C9.44619 19.5819 9.43765 19.4233 9.39668 19.2715C9.35538 19.1181 9.28232 18.975 9.18216 18.8513C9.08201 18.7276 8.95696 18.626 8.81501 18.553C8.80082 18.5389 6.70113 17.4542 4.89937 14.989C2.85642 12.1998 1.99101 8.8048 2.3315 4.88861C4.57306 6.71992 8.85757 9.70637 13.7947 10.5234C13.9577 10.5494 14.1245 10.5402 14.2836 10.4965C14.4427 10.4527 14.5905 10.3754 14.7168 10.2699C14.8404 10.1625 14.9396 10.0305 15.0081 9.8824C15.0765 9.7343 15.1127 9.57349 15.1141 9.41054V7.15662C15.1162 6.12263 15.4762 5.12079 16.1338 4.31906C16.7915 3.51732 17.7067 2.96444 18.726 2.75309C19.7454 2.54174 20.8069 2.68478 21.7327 3.15822C22.6584 3.63166 23.3921 4.40673 23.8108 5.35348C23.9013 5.55486 24.0486 5.7259 24.2349 5.8459C24.4212 5.96591 24.6386 6.02973 24.8606 6.02966H27.1306L24.4918 8.64984Z" fill="white"/>
</svg>
