<svg width="506" height="460" viewBox="0 0 506 460" fill="none" xmlns="http://www.w3.org/2000/svg">
<path d="M349.835 55.0912C338.903 55.0912 330.043 63.9509 330.043 74.8831C330.043 77.1738 330.455 79.3675 331.17 81.4037L356.368 56.2062C354.319 55.4911 352.138 55.079 349.847 55.079L349.835 55.0912Z" fill="#6CBDFF"/>
<path d="M356.356 56.2183L331.158 81.4158C331.994 83.8156 333.279 86.0093 334.928 87.8879L362.828 59.9876C360.949 58.3514 358.755 57.0667 356.356 56.2183Z" fill="#A1CCFF"/>
<path d="M344.975 94.0448C346.526 94.4327 348.15 94.6751 349.835 94.6751C360.767 94.6751 369.627 85.8154 369.627 74.8831C369.627 73.1985 369.396 71.5865 368.996 70.023L344.975 94.0448Z" fill="#A1CCFF"/>
<path d="M362.828 59.9755L334.928 87.8758C337.534 90.8573 341.012 93.0389 344.975 94.0448L368.997 70.023C367.991 66.0598 365.809 62.5813 362.828 59.9755Z" fill="#6CBDFF"/>
<path d="M353.991 114.964L341.18 111.025L340.877 108.177L311.729 129.435L311.813 157.76H330.127L330.102 154.596C330.066 153.021 330.902 151.554 332.284 150.779C334.49 149.542 337.823 147.639 339.92 146.246C341.713 145.046 343.095 144.634 343.713 142.392L353.991 114.964Z" fill="#EFAB95"/>
<path d="M311.293 156.329C311.293 162.353 313.353 160.705 318.456 160.705C327.873 160.911 329.8 150.875 329.8 144.852V141.131C329.8 133.035 321.68 122.781 316.589 122.781C311.499 122.781 311.366 127.666 311.366 133.689L311.293 156.329Z" fill="#F9C9B7"/>
<path d="M302.978 348.941H340.586V155.772H302.978V348.941Z" fill="#603C93"/>
<path d="M327.399 348.941H340.586V155.772H327.399V348.941Z" fill="#4A287A"/>
<path d="M343 98.9534L336.863 96.3824L333.772 103.76L339.91 106.331L343 98.9534Z" fill="#B6C6CC"/>
<path d="M359.774 51.6248C346.951 46.2556 332.153 52.3157 326.771 65.1386C321.402 77.9616 327.462 92.7601 340.285 98.1414C353.108 103.511 367.907 97.4505 373.288 84.6276C378.657 71.8046 372.597 57.0061 359.774 51.6248ZM343.461 90.5542C334.819 86.9304 330.735 76.9556 334.346 68.314C337.97 59.6725 347.945 55.588 356.587 59.1998C365.228 62.8237 369.313 72.7985 365.689 81.44C362.065 90.0816 352.09 94.166 343.449 90.5542H343.461Z" fill="#1F418C"/>
<path d="M332.75 98.9814L344.041 103.711L330.45 136.152C329.832 137.627 328.135 138.322 326.659 137.704L320.712 135.213C319.237 134.595 318.542 132.898 319.16 131.422L332.75 98.9814Z" fill="#1F418C"/>
<path d="M335.412 108.455C334.794 110.189 335.363 111.982 336.684 112.455L351.349 117.352C352.671 117.824 354.246 116.806 354.864 115.061C355.495 113.328 354.925 111.534 353.592 111.061L338.926 106.165C337.605 105.692 336.03 106.722 335.412 108.455Z" fill="#F9C9B7"/>
<path d="M327.642 123.606C327.024 125.339 327.594 127.132 328.915 127.605L346.065 133.277C347.386 133.75 348.961 132.72 349.579 130.987C350.21 129.253 349.64 127.46 348.319 126.987L331.169 121.315C329.848 120.842 328.272 121.872 327.654 123.606H327.642Z" fill="#F9C9B7"/>
<path d="M351.252 118.733L338.877 114.637C338.999 116.661 337.35 119.836 335.738 120.636L348.998 125.023C350.319 125.496 351.894 124.466 352.512 122.733C353.143 121 352.573 119.206 351.252 118.733Z" fill="#F9C9B7"/>
<path d="M334.102 113.061C333.508 112.843 332.853 112.952 332.271 113.279H334.756L334.102 113.061Z" fill="#F9C9B7"/>
<path d="M338.865 114.637L334.757 113.279H332.272C331.557 113.679 330.927 114.394 330.587 115.352C329.969 117.085 330.539 118.879 331.86 119.351L335.751 120.636C337.363 119.836 339.011 116.661 338.89 114.637H338.865Z" fill="#EFAB95"/>
<path d="M332.187 133.992C331.569 135.725 332.139 137.519 333.46 137.992L343.168 141.325C344.489 141.798 346.064 140.779 346.683 139.034C347.301 137.301 346.743 135.507 345.422 135.035L335.714 131.702C334.393 131.229 332.817 132.259 332.199 133.992H332.187Z" fill="#F9C9B7"/>
<path d="M311.293 155.651L311.026 125.787C311.014 125.096 311.196 124.405 311.559 123.812L317.777 112.879C318.443 111.788 319.631 111.122 320.904 111.122H334.539C336.381 112.637 333.484 118.685 331.266 118.685C329.048 118.685 324.77 118.903 324.77 118.903L323.279 125.799L311.293 155.651Z" fill="#F9C9B7"/>
<path d="M74.8182 225.365V199.901C74.8182 199.319 75.3394 198.883 76.0302 198.859V182.981H73.5578H69.1582L69.3521 196.301L69.2552 226.189C69.2552 227.983 71.1822 229.486 73.485 229.486H76.0302V226.407C75.3394 226.383 74.8182 225.947 74.8182 225.365Z" fill="#603C93"/>
<path d="M82.8044 182.981H78.5987H76.0293V198.859C76.0293 198.859 76.0535 198.859 76.0778 198.859C76.4414 198.859 76.708 198.931 76.9747 199.162C77.2413 199.392 77.3383 199.61 77.3383 199.913V225.377C77.3383 225.971 76.7929 226.419 76.0778 226.419C76.0657 226.419 76.0535 226.419 76.0293 226.419V229.498H78.6715C80.9743 229.498 82.9013 227.995 82.9013 226.201V195.501L82.8044 182.993V182.981Z" fill="#4A287A"/>
<path d="M76.0298 155.578V146.04L72.2969 150.185L73.5574 155.723V155.578H76.0298Z" fill="#C3C7CB"/>
<path d="M78.5987 155.578V155.651H78.6836L79.8592 150.039L76.0778 145.991L76.0293 146.04V155.578H78.5987Z" fill="#EDEDED"/>
<path d="M76.0293 182.981H78.5987V155.651L76.0293 155.687V182.981Z" fill="#E8E8E8"/>
<path d="M76.0311 155.687L73.5586 155.723V182.981H76.0311V155.687Z" fill="#C3C7CB"/>
<path d="M76.0293 155.578V155.687L78.5987 155.651V155.578H76.0293Z" fill="#EDEDED"/>
<path d="M76.0311 155.578H73.5586V155.723L76.0311 155.687V155.578Z" fill="#EDEDED"/>
<path d="M76.0778 226.419C76.7929 226.419 77.3383 225.971 77.3383 225.377V199.913C77.3383 199.61 77.2534 199.392 76.9747 199.162C76.708 198.931 76.4293 198.859 76.0778 198.859C76.0657 198.859 76.0535 198.859 76.0293 198.859V226.395C76.0293 226.395 76.0535 226.395 76.0778 226.395V226.419Z" fill="#C64A4A"/>
<path d="M74.8184 199.901V225.365C74.8184 225.947 75.3395 226.383 76.0304 226.407V198.871C75.3395 198.895 74.8184 199.331 74.8184 199.913V199.901Z" fill="#BC342E"/>
<path d="M60.5417 229.558C60.5417 227.486 62.2385 225.777 64.3232 225.777H60.3599C58.2874 225.777 56.5785 224.08 56.5785 221.996C56.5785 219.911 58.2753 218.214 60.3599 218.214H56.3967C54.3242 218.214 52.6152 216.517 52.6152 214.433C52.6152 212.348 54.312 210.651 56.3967 210.651H60.3599C58.2874 210.651 56.5785 208.954 56.5785 206.87C56.5785 204.785 58.2753 203.088 60.3599 203.088H65.317V197.768C65.317 196.362 66.4563 195.21 67.8743 195.21H84.6848C86.0301 195.21 87.2663 195.998 87.8238 197.222L89.254 200.325C89.8236 201.549 91.0478 202.337 92.3931 202.337H99.6772V227.462H91.4598C90.6357 227.462 89.86 227.789 89.2782 228.371L85.521 232.213C84.8423 232.904 83.9091 233.304 82.9395 233.304H64.311C62.2385 233.304 60.5296 231.607 60.5296 229.522L60.5417 229.558Z" fill="#F9C9B7"/>
<path d="M230.403 263.119C230.403 225.583 199.873 195.053 162.338 195.053H94.1504V210.033H155.999C188.82 210.033 215.423 236.637 215.423 269.458V348.94H230.403V263.119Z" fill="#BF8347"/>
<path d="M155.999 210.021H94.1504V232.492H162.338C179.221 232.492 192.965 246.223 192.965 263.119V348.94H215.435V269.458C215.435 236.637 188.832 210.033 156.011 210.033L155.999 210.021Z" fill="#D9924C"/>
<path d="M396.398 237.436V236.843C396.398 234.782 398.083 232.346 400.144 232.346L418.287 234.249L434.37 233.098C436.431 233.098 438.115 234.782 438.115 236.843V237.436C438.115 239.497 436.431 241.182 434.37 241.182H400.144C398.083 241.182 396.398 239.497 396.398 237.436Z" fill="#EFAB95"/>
<path d="M398.35 201.767L413.1 212.542C415.5 214.299 416.155 217.596 414.603 220.129C412.943 222.832 409.416 223.656 406.725 221.983L394.933 214.627C393.915 213.996 392.606 214.724 392.618 215.923V219.632L409.052 235.012C409.052 235.012 419.342 236.479 420.785 236.867H438.601C440.964 236.867 442.879 238.782 442.879 241.145C442.879 243.496 440.976 245.411 438.625 245.424L422.809 245.508C421.633 246.042 403.95 245.908 403.95 245.908L365.76 227.437V199.368L393.115 199.319C394.787 199.537 397.138 200.652 398.375 201.804L398.35 201.767Z" fill="#F9C9B7"/>
<path d="M338.926 210.991H368.778V196.313H334.926C297.706 196.313 267.418 226.601 267.418 263.822V348.941H282.095V267.821C282.095 236.431 307.547 210.979 338.938 210.979L338.926 210.991Z" fill="#BF8347"/>
<path d="M304.554 263.822C304.554 247.072 318.177 233.449 334.927 233.449H368.778V210.991H338.927C307.536 210.991 282.084 236.443 282.084 267.833V348.953H304.542V263.834L304.554 263.822Z" fill="#C3C7CB"/>
<path d="M304.554 263.822C304.554 247.072 318.177 233.449 334.927 233.449H368.778V210.991H338.927C307.536 210.991 282.084 236.443 282.084 267.833V348.953H304.542V263.834L304.554 263.822Z" fill="#D9924C"/>
<path d="M435.693 194.483H440.153C441.05 194.483 441.789 193.744 441.789 192.847V187.163C441.789 186.266 441.05 185.527 440.153 185.527H436.662C436.08 185.527 435.584 185.163 435.39 184.618C435.268 184.29 435.135 183.975 434.99 183.66C434.747 183.139 434.832 182.521 435.244 182.109L437.704 179.636C438.347 178.994 438.347 177.964 437.704 177.321L433.681 173.31C433.038 172.667 432.008 172.667 431.366 173.31L428.881 175.794C428.493 176.182 427.899 176.303 427.39 176.085C427.039 175.928 426.651 175.782 426.324 175.649C425.803 175.443 425.475 174.946 425.475 174.388V170.861C425.475 169.964 424.748 169.225 423.839 169.225H418.155C417.258 169.225 416.519 169.952 416.519 170.861V174.352C416.519 174.934 416.143 175.418 415.61 175.625C415.27 175.758 414.931 175.891 414.604 176.049C414.083 176.291 413.464 176.206 413.052 175.794L410.58 173.334C409.938 172.704 408.907 172.704 408.265 173.334L404.253 177.37C403.623 178.012 403.623 179.042 404.253 179.685L406.75 182.169C407.138 182.557 407.259 183.151 407.041 183.66C406.895 184.012 406.738 184.399 406.605 184.727C406.399 185.248 405.902 185.587 405.356 185.587H401.829C400.932 185.587 400.193 186.326 400.205 187.235V192.92C400.217 193.817 400.957 194.556 401.854 194.544H405.344C405.926 194.544 406.423 194.907 406.629 195.441C406.75 195.768 406.883 196.083 407.029 196.398C407.271 196.919 407.186 197.537 406.774 197.95L404.314 200.422C403.672 201.064 403.684 202.095 404.314 202.737L408.338 206.749C408.98 207.391 410.01 207.379 410.653 206.749L413.137 204.264C413.525 203.876 414.119 203.755 414.628 203.973C414.979 204.119 415.367 204.276 415.695 204.41C416.216 204.616 416.555 205.112 416.555 205.658V209.185C416.555 210.082 417.294 210.821 418.191 210.821H423.876C424.772 210.821 425.512 210.082 425.512 209.173V205.682C425.512 205.1 425.875 204.603 426.421 204.41C426.748 204.288 427.063 204.155 427.378 204.01C427.899 203.767 428.518 203.852 428.93 204.264L431.402 206.724C432.044 207.367 433.075 207.355 433.717 206.724L437.729 202.701C438.371 202.058 438.359 201.028 437.729 200.386L435.244 197.901C434.856 197.513 434.735 196.919 434.953 196.41C435.317 195.562 435.693 194.544 435.705 194.483H435.693ZM413.077 188.569C414.022 183.539 419.221 180.703 423.9 182.509C427.451 183.878 429.62 187.72 428.917 191.465C427.972 196.495 422.773 199.331 418.094 197.525C414.543 196.156 412.374 192.314 413.077 188.569Z" fill="#C3C7CB"/>
<path d="M435.693 194.483H440.153C441.05 194.483 441.789 193.744 441.789 192.847V187.163C441.789 186.266 441.05 185.527 440.153 185.527H436.662C436.08 185.527 435.584 185.163 435.39 184.618C435.268 184.29 435.135 183.975 434.99 183.66C434.747 183.139 434.832 182.521 435.244 182.109L437.704 179.636C438.347 178.994 438.347 177.964 437.704 177.321L433.681 173.31C433.038 172.667 432.008 172.667 431.366 173.31L428.881 175.794C428.493 176.182 427.899 176.303 427.39 176.085C427.039 175.928 426.651 175.782 426.324 175.649C425.803 175.443 425.475 174.946 425.475 174.388V170.861C425.475 169.964 424.748 169.225 423.839 169.225H418.155C417.258 169.225 416.519 169.952 416.519 170.861V174.352C416.519 174.934 416.143 175.418 415.61 175.625C415.27 175.758 414.931 175.891 414.604 176.049C414.083 176.291 413.464 176.206 413.052 175.794L410.58 173.334C409.938 172.704 408.907 172.704 408.265 173.334L404.253 177.37C403.623 178.012 403.623 179.042 404.253 179.685L406.75 182.169C407.138 182.557 407.259 183.151 407.041 183.66C406.895 184.012 406.738 184.399 406.605 184.727C406.399 185.248 405.902 185.587 405.356 185.587H401.829C400.932 185.587 400.193 186.326 400.205 187.235V192.92C400.217 193.817 400.957 194.556 401.854 194.544H405.344C405.926 194.544 406.423 194.907 406.629 195.441C406.75 195.768 406.883 196.083 407.029 196.398C407.271 196.919 407.186 197.537 406.774 197.95L404.314 200.422C403.672 201.064 403.684 202.095 404.314 202.737L408.338 206.749C408.98 207.391 410.01 207.379 410.653 206.749L413.137 204.264C413.525 203.876 414.119 203.755 414.628 203.973C414.979 204.119 415.367 204.276 415.695 204.41C416.216 204.616 416.555 205.112 416.555 205.658V209.185C416.555 210.082 417.294 210.821 418.191 210.821H423.876C424.772 210.821 425.512 210.082 425.512 209.173V205.682C425.512 205.1 425.875 204.603 426.421 204.41C426.748 204.288 427.063 204.155 427.378 204.01C427.899 203.767 428.518 203.852 428.93 204.264L431.402 206.724C432.044 207.367 433.075 207.355 433.717 206.724L437.729 202.701C438.371 202.058 438.359 201.028 437.729 200.386L435.244 197.901C434.856 197.513 434.735 196.919 434.953 196.41C435.317 195.562 435.693 194.544 435.705 194.483H435.693ZM413.077 188.569C414.022 183.539 419.221 180.703 423.9 182.509C427.451 183.878 429.62 187.72 428.917 191.465C427.972 196.495 422.773 199.331 418.094 197.525C414.543 196.156 412.374 192.314 413.077 188.569Z" fill="#C3C7CB"/>
<path d="M430.443 186.557L439.8 177.2L436.067 173.467L426.734 182.8C428.383 183.599 429.68 184.945 430.455 186.545L430.443 186.557Z" fill="#CDCDCD"/>
<path d="M415.306 188.569C416.251 183.539 421.45 180.703 426.129 182.509C426.335 182.594 426.529 182.703 426.723 182.8L436.055 173.467L435.897 173.31C435.255 172.667 434.225 172.667 433.583 173.31L431.098 175.794C430.71 176.182 430.116 176.303 429.607 176.085C429.256 175.928 428.868 175.782 428.541 175.649C428.019 175.443 427.692 174.946 427.692 174.388V170.861C427.692 169.964 426.965 169.225 426.056 169.225H420.372C419.475 169.225 418.736 169.952 418.736 170.861V174.352C418.736 174.934 418.36 175.418 417.827 175.625C417.487 175.758 417.148 175.891 416.821 176.049C416.299 176.291 415.681 176.206 415.269 175.794L412.797 173.334C412.154 172.704 411.124 172.704 410.482 173.334L406.47 177.37C405.84 178.012 405.84 179.042 406.47 179.685L408.967 182.169C409.355 182.557 409.476 183.151 409.258 183.66C409.112 184.012 408.955 184.399 408.821 184.727C408.615 185.248 408.118 185.587 407.573 185.587H404.046C403.149 185.587 402.41 186.326 402.422 187.235V192.92C402.434 193.817 403.173 194.556 404.07 194.544H407.561C408.143 194.544 408.64 194.907 408.846 195.441C408.967 195.768 409.1 196.083 409.246 196.398C409.488 196.919 409.403 197.537 408.991 197.95L406.531 200.422C405.888 201.064 405.9 202.095 406.531 202.737L406.652 202.858L415.996 193.514C415.257 192.011 414.954 190.278 415.281 188.569H415.306Z" fill="#C0C0C0"/>
<path d="M416.02 193.514L406.676 202.858L410.421 206.579L419.765 197.234C418.117 196.435 416.82 195.101 416.032 193.502L416.02 193.514Z" fill="#CDCDCD"/>
<path d="M443.679 186.242L419.451 210.469C419.718 210.676 420.045 210.821 420.409 210.809H426.093C426.99 210.809 427.729 210.07 427.729 209.161V205.67C427.729 205.088 428.093 204.591 428.638 204.397C428.965 204.276 429.281 204.143 429.596 203.997C430.117 203.755 430.735 203.84 431.147 204.252L433.619 206.712C434.262 207.355 435.292 207.343 435.934 206.712L439.946 202.688C440.588 202.046 440.576 201.016 439.946 200.374L437.462 197.889C437.074 197.501 436.952 196.907 437.171 196.398C437.534 195.55 437.91 194.532 437.922 194.471H442.382C443.279 194.471 444.018 193.732 444.018 192.835V187.151C444.018 186.799 443.885 186.496 443.691 186.229L443.679 186.242Z" fill="#CDCDCD"/>
<path d="M442.369 185.539H438.878C438.296 185.539 437.799 185.175 437.605 184.63C437.484 184.302 437.351 183.987 437.206 183.672C436.963 183.151 437.048 182.533 437.46 182.121L439.92 179.648C440.563 179.006 440.563 177.976 439.92 177.333L439.799 177.212L430.443 186.569C431.17 188.072 431.461 189.781 431.146 191.477C430.2 196.507 425.001 199.343 420.322 197.537C420.128 197.465 419.947 197.344 419.753 197.259L410.408 206.603L410.566 206.761C411.208 207.403 412.238 207.391 412.881 206.761L415.365 204.276C415.753 203.888 416.347 203.767 416.856 203.985C417.208 204.131 417.595 204.288 417.923 204.422C418.444 204.628 418.783 205.125 418.783 205.67V209.197C418.783 209.73 419.062 210.191 419.462 210.482L443.69 186.254C443.399 185.842 442.926 185.551 442.381 185.551L442.369 185.539Z" fill="#C0C0C0"/>
<path d="M236.235 18.8523L232.793 14.78C232.429 14.3437 231.775 14.2952 231.351 14.6588L230.042 15.7617C229.605 16.1253 229.557 16.7798 229.92 17.204L233.363 21.2763L236.247 18.8523H236.235Z" fill="#6CBDFF"/>
<path d="M225.374 32.3176L227.18 29.021L216.938 23.3973C216.441 23.1186 215.811 23.3125 215.544 23.8094L214.72 25.3123C214.454 25.8092 214.635 26.4273 215.132 26.7061L225.374 32.3298V32.3176Z" fill="#6CBDFF"/>
<path d="M221.617 45.4072L222.187 41.6864L216.915 40.8743C216.357 40.7895 215.824 41.1773 215.739 41.7348L215.473 43.4195C215.388 43.977 215.776 44.5103 216.333 44.5952L221.605 45.4072H221.617Z" fill="#6CBDFF"/>
<path d="M222.575 58.9816L221.836 55.285L210.382 57.5636C209.825 57.6727 209.461 58.2181 209.57 58.7756L209.909 60.4603C210.019 61.0178 210.564 61.3814 211.121 61.2723L222.575 58.9938V58.9816Z" fill="#6CBDFF"/>
<path d="M228.113 71.4167L226.162 68.1928L221.629 70.9441C221.144 71.2349 220.986 71.8652 221.289 72.35L222.174 73.8165C222.465 74.3013 223.095 74.4588 223.58 74.1558L228.113 71.4046V71.4167Z" fill="#6CBDFF"/>
<path d="M229.629 91.1239L237.58 81.2097L234.647 78.8585L227.338 87.9727C226.987 88.4211 227.059 89.0635 227.496 89.415L229.629 91.1239Z" fill="#6CBDFF"/>
<path d="M294.192 88.9786L295.477 87.8515C295.901 87.4758 295.949 86.8334 295.574 86.3971L287.853 77.6222L285.029 80.1068L292.75 88.8817C293.125 89.3059 293.768 89.3543 294.204 88.9786H294.192Z" fill="#6CBDFF"/>
<path d="M295.36 67.514L294.515 68.9994C294.234 69.494 294.407 70.1229 294.901 70.4042L298.905 72.6812C299.399 72.9625 300.028 72.7897 300.31 72.2951L301.154 70.8096C301.436 70.3151 301.263 69.6861 300.768 69.4048L296.765 67.1278C296.27 66.8465 295.641 67.0194 295.36 67.514Z" fill="#6CBDFF"/>
<path d="M311.705 58.1211L311.959 56.4243C312.044 55.8668 311.656 55.3457 311.099 55.2608L299.548 53.5034L298.979 57.2243L310.529 58.9817C311.086 59.0665 311.608 58.6787 311.692 58.1211H311.705Z" fill="#6CBDFF"/>
<path d="M304.8 38.6554L298.574 39.9086L299.318 43.6038L305.544 42.3507L304.8 38.6554Z" fill="#6CBDFF"/>
<path d="M305.27 23.2155L304.373 21.749C304.082 21.2642 303.44 21.1066 302.967 21.4096L292.992 27.4939L294.956 30.7057L304.93 24.6214C305.415 24.3306 305.573 23.6882 305.27 23.2155Z" fill="#6CBDFF"/>
<path d="M286.423 20.1249L289.877 16.0647C290.241 15.6284 290.193 14.986 289.756 14.6224L288.447 13.5074C288.011 13.1438 287.369 13.1923 287.005 13.6286L283.551 17.6888L286.423 20.1249Z" fill="#6CBDFF"/>
<path d="M274.825 12.9984L278.546 1.92067C278.728 1.38739 278.437 0.805635 277.903 0.623835L276.279 0.0784384C275.746 -0.103362 275.164 0.187517 274.983 0.720797L271.262 11.7985L274.837 12.9984H274.825Z" fill="#6CBDFF"/>
<path d="M261.48 10.4047L261.565 5.0234C261.565 4.45376 261.116 3.99321 260.559 3.98109L258.85 3.95685C258.28 3.95685 257.82 4.40529 257.808 4.96281L257.723 10.3441L261.492 10.4047H261.48Z" fill="#6CBDFF"/>
<path d="M248.014 12.3923L243.736 1.52068C243.53 0.987405 242.936 0.73289 242.403 0.93893L240.815 1.56917C240.282 1.77521 240.027 2.36908 240.233 2.90236L244.512 13.774L248.014 12.3923Z" fill="#6CBDFF"/>
<path d="M241.446 124.49H260.523L260.45 121.097C260.45 121.097 266.959 117.57 270.316 115.328C272.801 113.667 274.473 113.534 274.473 107.983V94.675L240.828 98.8201L241.434 124.49H241.446Z" fill="#EFAB95"/>
<path d="M231.932 126.405C231.932 132.429 233.992 130.781 239.095 130.781C248.512 130.987 250.439 120.951 250.439 114.928V111.207C250.439 103.111 242.318 92.8571 237.228 92.8571C232.138 92.8571 232.004 97.7414 232.004 103.765L231.932 126.405Z" fill="#F9C9B7"/>
<path d="M268.194 124.442H226.949V348.941H268.194V124.442Z" fill="#603C93"/>
<path d="M268.194 124.442H253.262V348.941H268.194V124.442Z" fill="#4A287A"/>
<path d="M239.216 46.898C239.18 57.6726 244.331 67.2353 252.306 73.2711C253.421 74.1195 254.063 75.4285 254.063 76.8344L254.003 94.2387L242.816 94.2023L242.876 75.489C242.876 74.0952 242.234 72.7742 241.119 71.9258C233.144 65.89 228.005 56.3273 228.029 45.5526C228.09 26.6576 244.04 11.5318 263.189 12.7802C265.662 12.9377 268.062 13.4104 270.352 14.1012C253.045 15.0345 239.265 29.3361 239.216 46.8858V46.898Z" fill="#FFF1B6"/>
<path d="M293.927 45.0679C294.12 56.1334 288.86 65.9506 280.667 72.0591C279.552 72.8954 278.91 74.2043 278.898 75.5981L278.837 94.3114L254.003 94.2266L254.064 76.8223C254.064 75.4284 253.422 74.1074 252.306 73.259C244.332 67.2232 239.193 57.6605 239.217 46.8859C239.277 29.3361 253.046 15.0345 270.353 14.1013C283.77 18.1372 293.66 30.5723 293.914 45.0557L293.927 45.0679Z" fill="#FFF734"/>
<path d="M249.822 59.3452C243.629 57.1757 242.283 53.0913 242.005 51.8066C241.58 49.8553 242.077 48.0251 243.289 47.0434C244.283 46.2435 245.604 46.1223 246.925 46.7041C248.852 47.5646 250.586 51.9641 252.016 57.3091C255.773 58.3029 258.27 57.4302 259.882 56.194C259.409 55.5395 259.009 54.8608 258.706 54.1578C257.312 50.9945 257.664 47.8191 259.445 46.6556C261.045 45.4315 262.972 46.0496 263.869 46.6192C265.736 47.8433 266.051 51.0309 264.645 54.1821C264.33 54.8851 263.93 55.5638 263.457 56.2183C265.057 57.4666 267.566 58.3514 271.323 57.3818C272.789 52.049 274.547 47.6615 276.486 46.8131C277.807 46.2314 279.14 46.3647 280.122 47.1646C281.322 48.1463 281.807 49.9764 281.37 51.9278C281.092 53.2004 279.71 57.2848 273.504 59.4058C271.432 67.6353 269.626 78.1676 269.469 80.4825H266.887C266.887 80.3007 268.305 69.5018 270.596 60.1573C266.729 60.8117 263.76 59.8058 261.651 58.0726C259.53 59.7815 256.549 60.7754 252.694 60.0966C254.925 69.4533 256.27 80.2643 256.27 80.434L253.688 80.4704C253.555 78.1312 251.81 67.5747 249.786 59.321L249.822 59.3452ZM277.553 49.1765C276.595 49.6007 275.468 52.4489 274.377 56.291C277.88 54.5699 278.704 52.1944 278.874 51.3824C279.116 50.2673 278.862 49.4553 278.51 49.1644C278.401 49.0796 278.268 49.0311 278.11 49.0311C277.953 49.0311 277.759 49.0796 277.553 49.1765ZM244.926 49.0553C244.574 49.3341 244.307 50.1461 244.55 51.2612C244.719 52.0732 245.519 54.4608 249.022 56.194C247.943 52.352 246.84 49.4916 245.895 49.0553C245.677 48.9584 245.495 48.9099 245.338 48.9099C245.18 48.9099 245.047 48.9584 244.938 49.0432L244.926 49.0553ZM260.96 48.7644C260.391 49.128 260.16 51.0066 261.094 53.1155C261.215 53.3943 261.409 53.7942 261.7 54.2427C261.991 53.7942 262.197 53.4064 262.318 53.1155C263.263 51.0188 263.045 49.1402 262.5 48.7766C262.5 48.7766 262.1 48.5342 261.639 48.5342C261.409 48.5342 261.178 48.5826 260.96 48.7523V48.7644Z" fill="#EAB344"/>
<path d="M281.164 95.79L269.153 105.765L251.324 105.704L240.465 95.6446L240.513 81.0521C240.513 80.4219 241.034 79.9128 241.665 79.9128L280.073 80.034C280.703 80.034 281.212 80.5552 281.212 81.1854L281.164 95.7779V95.79Z" fill="white"/>
<path d="M263.359 111.195L256.705 111.17C253.433 111.17 250.803 108.504 250.803 105.232L269.286 105.292C269.286 108.565 266.619 111.195 263.347 111.195H263.359Z" fill="#1F418C"/>
<path d="M240.489 85.457L281.188 85.5849L281.196 82.7852L240.498 82.6573L240.489 85.457Z" fill="#B6C6CC"/>
<path d="M240.467 90.5354L281.166 90.6633L281.175 87.8636L240.476 87.7357L240.467 90.5354Z" fill="#B6C6CC"/>
<path d="M240.448 95.6137L281.146 95.7416L281.155 92.9419L240.457 92.814L240.448 95.6137Z" fill="#B6C6CC"/>
<path d="M231.932 122.527L230.357 91.7541C230.333 90.6149 230.636 89.4877 231.229 88.5181L234.526 83.1126C235.617 81.3188 237.568 80.228 239.665 80.228H251.979C253.821 81.743 250.924 87.7909 248.706 87.7909C246.489 87.7909 242.21 88.0091 242.21 88.0091L240.719 94.9053L231.945 122.539L231.932 122.527Z" fill="#F9C9B7"/>
<path d="M264.838 72.9439C264.777 75.077 266.038 76.8465 267.662 76.895L285.563 77.0283C287.187 77.0768 288.557 75.38 288.617 73.2469C288.678 71.1138 287.418 69.3443 285.793 69.2958L267.892 69.1625C266.268 69.114 264.899 70.8108 264.838 72.9439Z" fill="#F9C9B7"/>
<path d="M257.979 82.5672C257.918 84.7003 259.179 86.4698 260.803 86.5183L286.727 86.5789C288.351 86.6274 289.721 84.9306 289.782 82.7975C289.842 80.6643 288.582 78.8948 286.958 78.8463L261.033 78.7857C259.409 78.7373 258.039 80.4341 257.979 82.5672Z" fill="#F9C9B7"/>
<path d="M260.197 92.0571C260.137 94.1902 261.397 95.9597 263.021 96.0082L283.928 96.1173C285.552 96.1658 286.922 94.469 286.983 92.3359C287.043 90.2027 285.783 88.4332 284.159 88.3847L263.252 88.2757C261.628 88.2272 260.258 89.924 260.197 92.0571Z" fill="#F9C9B7"/>
<path d="M266.402 101.208C266.342 103.341 267.602 105.11 269.226 105.159L281.104 105.353C282.728 105.401 284.098 103.704 284.158 101.571C284.219 99.4382 282.958 97.6687 281.334 97.6202L269.457 97.4263C267.833 97.3778 266.463 99.0746 266.402 101.208Z" fill="#F9C9B7"/>
<path d="M178.457 137.362H158.277L158.362 133.774C158.362 133.774 151.478 130.041 147.927 127.678C145.297 125.932 143.527 125.775 143.527 119.909V85.5729L179.1 88.2878L178.457 137.374V137.362Z" fill="#EFAB95"/>
<path d="M157.113 79.5129V89.221C157.113 90.9905 158.543 92.4207 160.313 92.4207C163.804 92.4207 166.64 95.2568 166.64 98.7473V124.611C166.64 127.641 168.821 130.393 171.827 130.696C175.293 131.047 178.202 128.332 178.202 124.939V98.7473C178.202 95.2568 181.038 92.4207 184.529 92.4207C186.298 92.4207 187.728 90.9905 187.728 89.221V79.5129H157.125H157.113ZM172.421 126.551C171.306 126.551 170.409 125.654 170.409 124.539C170.409 123.424 171.306 122.527 172.421 122.527C173.536 122.527 174.433 123.424 174.433 124.539C174.433 125.654 173.536 126.551 172.421 126.551Z" fill="#BF8347"/>
<path d="M187.716 49.7219H157.113V71.7803H187.716V49.7219Z" fill="#166BC1"/>
<path d="M187.583 49.7219H175.402V71.7803H187.583V49.7219Z" fill="#1F418C"/>
<path d="M187.716 70.4592H157.113V79.5007H187.716V70.4592Z" fill="#9E9E9E"/>
<path d="M187.716 70.9804H157.113V72.35H187.716V70.9804Z" fill="#C5C5C5"/>
<path d="M187.716 74.2043H157.113V75.5739H187.716V74.2043Z" fill="#C5C5C5"/>
<path d="M187.716 77.4282H157.113V78.7978H187.716V77.4282Z" fill="#C5C5C5"/>
<path d="M172.408 79.5129V122.539C173.511 122.539 174.42 123.436 174.42 124.551C174.42 125.666 173.523 126.563 172.408 126.563V130.696C175.596 130.696 178.189 128.138 178.189 124.951V98.7594C178.189 95.2689 181.026 92.4328 184.516 92.4328C186.286 92.4328 187.716 91.0026 187.716 89.2331V79.525H172.408V79.5129Z" fill="#EAB344"/>
<path d="M188.528 139.374C188.528 145.749 186.347 143.991 180.953 143.991C171.003 144.209 168.967 133.592 168.967 127.229V123.29C168.967 114.721 177.548 103.886 182.929 103.886C188.31 103.886 188.456 109.049 188.456 115.424L188.528 139.374Z" fill="#F9C9B7"/>
<path d="M193.159 137.362H151.672V348.516H193.159V137.362Z" fill="#603C93"/>
<path d="M193.159 137.362H176.615V348.516H193.159V137.362Z" fill="#4A287A"/>
<path d="M160.653 84.4942C160.726 86.7485 159.381 88.6271 157.66 88.6756L138.74 88.8211C137.031 88.8695 135.577 87.0879 135.516 84.8215C135.444 82.5671 136.789 80.6885 138.51 80.6401L157.429 80.4946C159.15 80.4461 160.593 82.2399 160.653 84.4942Z" fill="#F9C9B7"/>
<path d="M160.362 90.6874L137.261 90.748C135.54 90.7965 134.207 92.6629 134.268 94.9294C134.328 97.1837 135.783 98.9775 137.492 98.929L164.907 98.8563C165.464 98.8441 165.986 98.6139 166.434 98.2624C165.61 98.2381 164.81 98.226 164.18 98.226C162.01 98.226 159.259 92.8084 160.362 90.6995V90.6874Z" fill="#F9C9B7"/>
<path d="M167.9 94.675C167.827 92.4207 166.385 90.6269 164.664 90.6754H160.349C159.246 92.7964 161.998 98.214 164.167 98.214C164.797 98.214 165.597 98.2262 166.421 98.2504C167.33 97.5232 167.936 96.19 167.888 94.675H167.9Z" fill="#EFAB95"/>
<path d="M165.55 104.71C165.611 106.965 164.277 108.843 162.556 108.892L140.449 109.013C138.74 109.061 137.286 107.28 137.225 105.013C137.153 102.759 138.498 100.88 140.219 100.832L162.326 100.711C164.047 100.662 165.489 102.444 165.562 104.71H165.55Z" fill="#F9C9B7"/>
<path d="M158.992 114.382C159.052 116.636 157.719 118.515 155.998 118.563L143.442 118.77C141.733 118.818 140.278 117.036 140.218 114.77C140.145 112.516 141.49 110.637 143.211 110.589L155.768 110.382C157.489 110.334 158.931 112.116 158.992 114.382Z" fill="#F9C9B7"/>
<path d="M188.529 136.61V101.777C188.529 100.99 188.311 100.226 187.911 99.5472L183.487 92.2752C182.712 91.0026 181.33 90.2148 179.827 90.2148H165.647C163.708 91.8147 166.762 98.2019 169.113 98.2019C171.464 98.2019 175.985 98.4322 175.985 98.4322L177.561 105.728L188.541 136.598L188.529 136.61Z" fill="#F9C9B7"/>
<path d="M403.998 329.088C403.101 324.531 399.114 321.246 394.472 321.246H273.235C263.552 321.246 254.413 325.258 247.868 332.154C241.323 325.258 232.185 321.246 222.501 321.246H101.265C96.6228 321.246 92.6353 324.531 91.7384 329.088L81.3516 369.06H226.767C226.84 368.623 226.937 368.187 227.034 367.763C232.112 346.226 263.636 346.226 268.727 367.763C268.824 368.187 268.921 368.623 268.993 369.06H414.409L404.022 329.088H403.998Z" fill="white"/>
<path d="M423.74 368.054C422.977 366.914 421.668 366.175 420.201 366.175C421.68 366.175 422.977 366.927 423.74 368.054Z" fill="#1F418C"/>
<path d="M420.201 374.708C421.68 374.708 422.977 373.956 423.74 372.829C422.977 373.968 421.668 374.708 420.201 374.708Z" fill="#1F418C"/>
<path d="M71.9824 372.829C72.746 373.968 74.0549 374.708 75.5215 374.708C74.0428 374.708 72.746 373.956 71.9824 372.829Z" fill="#1F418C"/>
<path d="M75.5215 366.163C74.0428 366.163 72.746 366.914 71.9824 368.042C72.746 366.902 74.0549 366.163 75.5215 366.163Z" fill="#1F418C"/>
<path d="M423.741 368.054C422.977 366.914 421.668 366.175 420.202 366.175H267.623C267.611 366.078 267.587 365.981 267.562 365.872C263.442 344.408 232.257 344.408 228.136 365.872C228.112 365.969 228.1 366.066 228.075 366.175H75.4967C74.0181 366.175 72.7212 366.927 71.9577 368.054C71.4971 368.732 71.2305 369.557 71.2305 370.441C71.2305 371.326 71.4971 372.15 71.9577 372.829C72.7212 373.968 74.0302 374.708 75.4967 374.708H232.511C234.572 374.708 236.232 373.035 236.244 370.975C236.244 370.441 236.268 369.92 236.317 369.399C237.602 355.8 258.085 355.8 259.369 369.399C259.418 369.92 259.442 370.441 259.442 370.975C259.442 373.035 261.102 374.708 263.163 374.708H420.177C421.656 374.708 422.953 373.956 423.716 372.829C424.177 372.15 424.444 371.326 424.444 370.441C424.444 369.557 424.177 368.732 423.716 368.054H423.741Z" fill="#1F418C"/>
<path d="M393.09 341.705H272.472C271.441 341.705 270.617 340.869 270.617 339.85V336.142C270.617 335.112 271.453 334.287 272.472 334.287H392.12C392.969 334.287 393.708 334.857 393.914 335.681L394.884 339.39C395.187 340.566 394.302 341.717 393.09 341.717V341.705Z" fill="#EFEFEF"/>
<path d="M97.1917 345.341H215.568C216.452 345.341 217.168 346.177 217.168 347.195V351.607C217.168 352.637 216.452 353.461 215.568 353.461H96.2099C95.1676 353.461 94.4041 352.31 94.6707 351.134L95.6524 346.723C95.8342 345.91 96.4645 345.329 97.1917 345.329V345.341Z" fill="#EFEFEF"/>
<path d="M100.076 332.421H223.215C224.1 332.421 224.815 333.245 224.815 334.275C224.815 335.305 224.1 336.13 223.215 336.13H98.0156L98.5368 333.803C98.7186 332.991 99.3488 332.409 100.076 332.409V332.421Z" fill="#EFEFEF"/>
<path d="M398.191 352.092H286.954C285.924 352.092 285.1 351.255 285.1 350.237C285.1 349.207 285.936 348.383 286.954 348.383H395.792C396.64 348.383 397.379 348.953 397.585 349.777L398.191 352.104V352.092Z" fill="#EFEFEF"/>
<path d="M6.7765 57.3818L3.60106 60.2784C2.9587 60.8602 2.91022 61.8662 3.5041 62.5085L7.2007 66.5566C7.78246 67.199 8.78842 67.2474 9.43078 66.6536L11.9154 64.3871C12.3275 64.0114 12.9213 63.9508 13.4183 64.2053C13.7213 64.3629 14.0243 64.4962 14.3273 64.6295C14.8363 64.8477 15.1757 65.3446 15.1514 65.9021L14.9939 69.2594C14.9575 70.132 15.6241 70.8592 16.4967 70.9077L21.975 71.1622C22.8476 71.1986 23.5748 70.532 23.6233 69.6593L23.7809 66.2778C23.8051 65.7446 24.1566 65.284 24.6535 65.1143C25.005 64.9931 25.3807 64.8477 25.6958 64.7265C26.1927 64.5326 26.7624 64.6659 27.1139 65.0658L29.4045 67.5747C29.9863 68.217 30.9923 68.2655 31.6346 67.6716L35.6827 63.975C36.3251 63.3933 36.3735 62.3873 35.7797 61.745L33.5132 59.2604C33.1375 58.8483 33.0769 58.2544 33.3314 57.7575C33.489 57.4424 33.6344 57.1272 33.7799 56.8C33.998 56.291 34.4949 55.9516 35.0525 55.9758L38.4097 56.1213C39.2823 56.1576 40.0095 55.4789 40.0459 54.6184L40.2762 49.1402C40.3125 48.2675 39.6338 47.5403 38.7733 47.504L35.3918 47.3585C34.8585 47.3343 34.398 46.9949 34.2162 46.4859C34.095 46.1344 33.9495 45.7587 33.8283 45.4436C33.6344 44.9466 33.7677 44.377 34.1677 44.0255L36.6765 41.7348C37.3189 41.1531 37.3553 40.1471 36.7735 39.5048L33.0769 35.4688C32.4951 34.8264 31.4892 34.7901 30.8468 35.3718L28.3622 37.6383C27.9501 38.014 27.3563 38.0746 26.8593 37.8201C26.5563 37.6625 26.2533 37.5292 25.9503 37.3959C25.4413 37.1777 25.1019 36.6808 25.1262 36.1233L25.2716 32.766C25.308 31.8934 24.6414 31.1662 23.7687 31.1177L18.2905 30.8753C17.4179 30.839 16.6907 31.5056 16.6422 32.3782L16.4967 35.7597C16.4725 36.293 16.1331 36.7535 15.6241 36.9353C15.2726 37.0565 14.8969 37.202 14.5818 37.3232C14.0849 37.5171 13.5152 37.3838 13.1637 36.9838L10.8731 34.475C10.2913 33.8326 9.28534 33.7841 8.64297 34.378L4.5949 38.0746C3.95254 38.6564 3.90406 39.6623 4.49794 40.3047L6.76438 42.7893C7.1401 43.2014 7.2007 43.7952 6.94618 44.2922C6.78862 44.5952 6.6553 44.8982 6.52198 45.2012C6.30382 45.7102 5.8069 46.0496 5.24938 46.0253L1.89214 45.8799C1.0195 45.8435 0.292296 46.5101 0.243816 47.3828L0.00141924 52.861C-0.0349408 53.7336 0.631657 54.4608 1.5043 54.5093L4.88578 54.6669C5.41906 54.6911 5.87962 55.0426 6.06142 55.5395C6.3523 56.3758 6.75226 57.3454 6.7765 57.3939V57.3818ZM26.726 46.898C29.3197 51.0915 27.4532 56.497 22.9446 58.2544C19.5267 59.5876 15.4787 58.2544 13.5516 55.1274C10.9579 50.9339 12.8244 45.5284 17.333 43.771C20.7509 42.4378 24.7989 43.771 26.726 46.898Z" fill="#7BB1EC"/>
<path d="M44.5538 112.128L41.9601 112.491C41.439 112.564 41.0632 113.049 41.136 113.582L41.5965 116.891C41.6692 117.412 42.154 117.788 42.6873 117.715L44.7235 117.436C45.0628 117.388 45.378 117.57 45.5476 117.861C45.6446 118.042 45.7537 118.212 45.8628 118.394C46.0446 118.685 46.0446 119.048 45.8385 119.315L44.6023 120.951C44.2872 121.375 44.372 121.981 44.7841 122.296L47.4505 124.308C47.8747 124.624 48.4807 124.539 48.7958 124.127L50.0442 122.478C50.2381 122.224 50.5774 122.103 50.8926 122.187C51.1107 122.248 51.341 122.309 51.547 122.357C51.8622 122.43 52.1046 122.696 52.1409 123.024L52.4197 125.072C52.4924 125.593 52.9772 125.969 53.4984 125.896L56.8071 125.436C57.3283 125.363 57.704 124.878 57.6313 124.357L57.3525 122.321C57.304 121.981 57.4858 121.666 57.7767 121.509C57.9706 121.412 58.1524 121.303 58.3342 121.181C58.6251 121 58.9887 121 59.2554 121.206L60.8916 122.442C61.3158 122.757 61.9218 122.672 62.2369 122.248L64.2488 119.569C64.5639 119.145 64.4791 118.539 64.0549 118.224L62.4066 116.976C62.152 116.782 62.0308 116.443 62.1157 116.127C62.1763 115.909 62.2369 115.679 62.2854 115.473C62.3581 115.158 62.6247 114.915 62.952 114.867L65.0002 114.576C65.5214 114.503 65.8971 114.019 65.8123 113.485L65.3396 110.176C65.2669 109.655 64.7821 109.28 64.2488 109.364L62.2126 109.655C61.8733 109.704 61.5582 109.522 61.3885 109.231C61.2915 109.049 61.1824 108.88 61.0734 108.698C60.8916 108.407 60.8916 108.043 61.0976 107.777L62.3338 106.141C62.649 105.716 62.5641 105.11 62.1399 104.795L59.4735 102.783C59.0493 102.468 58.4433 102.553 58.1282 102.977L56.8798 104.626C56.6859 104.88 56.3466 105.001 56.0314 104.916C55.8133 104.856 55.583 104.795 55.377 104.747C55.0618 104.674 54.8194 104.407 54.771 104.08L54.4801 102.032C54.4074 101.511 53.9226 101.135 53.3893 101.208L50.0805 101.668C49.5594 101.741 49.1836 102.226 49.2564 102.759L49.5472 104.795C49.5957 105.135 49.4139 105.45 49.123 105.619C48.9412 105.716 48.7716 105.825 48.5898 105.934C48.2989 106.116 47.9353 106.116 47.6686 105.91L46.0324 104.674C45.6082 104.359 45.0022 104.444 44.6871 104.868L42.6752 107.534C42.3601 107.959 42.4449 108.565 42.8691 108.88L44.5174 110.128C44.772 110.322 44.8932 110.661 44.8083 110.976C44.6629 111.498 44.5296 112.116 44.5296 112.152L44.5538 112.128ZM58.213 113.74C58.0676 116.746 55.2679 118.818 52.3954 118.151C50.2138 117.642 48.6382 115.57 48.7473 113.34C48.8928 110.334 51.6925 108.262 54.5649 108.928C56.7465 109.437 58.3221 111.51 58.213 113.74Z" fill="#7BB1EC"/>
<path d="M148.907 7.90794L147.041 8.17458C146.665 8.22306 146.399 8.57454 146.447 8.95026L146.774 11.3379C146.823 11.7136 147.174 11.9803 147.562 11.9318L149.029 11.7257C149.271 11.6894 149.501 11.8227 149.623 12.0287C149.695 12.1621 149.768 12.2833 149.853 12.4045C149.986 12.6105 149.986 12.8771 149.841 13.0711L148.944 14.2467C148.714 14.5497 148.774 14.986 149.077 15.2163L151.004 16.6707C151.307 16.901 151.744 16.8404 151.974 16.5374L152.871 15.3496C153.016 15.1678 153.246 15.083 153.477 15.1436C153.634 15.1921 153.804 15.2284 153.949 15.2648C154.18 15.3133 154.349 15.5072 154.386 15.7375L154.592 17.2161C154.64 17.5918 154.992 17.8585 155.367 17.81L157.755 17.4827C158.131 17.4343 158.397 17.0828 158.349 16.7071L158.143 15.2405C158.107 14.9981 158.24 14.7679 158.458 14.6467C158.591 14.5739 158.725 14.4891 158.858 14.4164C159.064 14.2831 159.331 14.2831 159.525 14.4285L160.712 15.3133C161.015 15.5435 161.452 15.4829 161.682 15.1799L163.124 13.2529C163.354 12.9499 163.294 12.5135 162.991 12.2833L161.803 11.3864C161.621 11.2409 161.536 11.0107 161.597 10.7804C161.646 10.6228 161.682 10.4531 161.718 10.3077C161.767 10.0774 161.961 9.90773 162.191 9.87137L163.67 9.66533C164.045 9.61685 164.312 9.26537 164.263 8.87753L163.924 6.4899C163.876 6.11418 163.524 5.84753 163.136 5.89601L161.67 6.10206C161.427 6.13842 161.197 6.0051 161.076 5.79906C161.003 5.66574 160.93 5.54453 160.846 5.42333C160.712 5.21729 160.712 4.95066 160.858 4.75674L161.743 3.56897C161.973 3.26597 161.912 2.82965 161.609 2.59937L159.682 1.14497C159.379 0.914694 158.943 0.975295 158.713 1.2783L157.816 2.46606C157.67 2.64786 157.44 2.7327 157.21 2.6721C157.052 2.62362 156.882 2.58726 156.737 2.5509C156.507 2.50242 156.337 2.30849 156.301 2.07821L156.095 0.599578C156.046 0.223858 155.695 -0.0427888 155.307 0.00569124L152.919 0.345059C152.543 0.393539 152.277 0.745012 152.325 1.13285L152.531 2.59937C152.568 2.84177 152.434 3.07206 152.228 3.19326C152.095 3.26598 151.974 3.33869 151.853 3.42353C151.647 3.55685 151.38 3.55686 151.186 3.41142L150.01 2.51453C149.707 2.28425 149.271 2.34485 149.041 2.64785L147.586 4.57494C147.356 4.87794 147.417 5.31425 147.72 5.54453L148.907 6.44142C149.089 6.58686 149.174 6.81714 149.113 7.04742C149.017 7.42314 148.907 7.87157 148.907 7.89581V7.90794ZM158.749 9.07146C158.64 11.2409 156.628 12.7317 154.555 12.2469C152.98 11.8833 151.853 10.3925 151.925 8.78058C152.034 6.6111 154.046 5.12033 156.119 5.60513C157.694 5.96873 158.822 7.4595 158.749 9.07146Z" fill="#7BB1EC"/>
<path d="M79.205 74.2891H76.0417C75.6538 74.2891 75.3508 73.974 75.3508 73.5983V70.435C75.3508 70.0471 75.0357 69.7441 74.66 69.7441H73.4116C73.0238 69.7441 72.7208 70.0593 72.7208 70.435V73.5983C72.7208 73.9861 72.4057 74.2891 72.0299 74.2891H68.8666C68.4788 74.2891 68.1758 74.6043 68.1758 74.98V76.2283C68.1758 76.6162 68.4909 76.9192 68.8666 76.9192H72.0299C72.4178 76.9192 72.7208 77.2343 72.7208 77.61V80.7733C72.7208 81.1612 73.0359 81.4642 73.4116 81.4642H74.66C75.0478 81.4642 75.3508 81.1491 75.3508 80.7733V77.61C75.3508 77.2222 75.6659 76.9192 76.0417 76.9192H79.205C79.5928 76.9192 79.8958 76.6041 79.8958 76.2283V74.98C79.8958 74.5921 79.5807 74.2891 79.205 74.2891Z" fill="#7BB1EC"/>
<path d="M110.45 25.8819H104.838C104.16 25.8819 103.614 25.3365 103.614 24.6578V19.0462C103.614 18.3675 103.069 17.8221 102.39 17.8221H100.184C99.5056 17.8221 98.9602 18.3675 98.9602 19.0462V24.6578C98.9602 25.3365 98.4148 25.8819 97.7361 25.8819H92.1245C91.4458 25.8819 90.9004 26.4273 90.9004 27.106V29.3118C90.9004 29.9906 91.4458 30.536 92.1245 30.536H97.7361C98.4148 30.536 98.9602 31.0814 98.9602 31.7601V37.3716C98.9602 38.0504 99.5056 38.5958 100.184 38.5958H102.39C103.069 38.5958 103.614 38.0504 103.614 37.3716V31.7601C103.614 31.0814 104.16 30.536 104.838 30.536H110.45C111.129 30.536 111.674 29.9906 111.674 29.3118V27.106C111.674 26.4273 111.129 25.8819 110.45 25.8819Z" fill="#7BB1EC"/>
<path d="M99.8698 138.44H96.2095C95.7732 138.44 95.4096 138.077 95.4096 137.64V133.98C95.4096 133.544 95.046 133.18 94.6097 133.18H93.1674C92.7311 133.18 92.3675 133.544 92.3675 133.98V137.64C92.3675 138.077 92.0039 138.44 91.5676 138.44H87.9073C87.471 138.44 87.1074 138.804 87.1074 139.24V140.683C87.1074 141.119 87.471 141.482 87.9073 141.482H91.5676C92.0039 141.482 92.3675 141.846 92.3675 142.282V145.943C92.3675 146.379 92.7311 146.743 93.1674 146.743H94.6097C95.046 146.743 95.4096 146.379 95.4096 145.943V142.282C95.4096 141.846 95.7732 141.482 96.2095 141.482H99.8698C100.306 141.482 100.67 141.119 100.67 140.683V139.24C100.67 138.804 100.306 138.44 99.8698 138.44Z" fill="#7BB1EC"/>
<path d="M498.509 402.026L501.684 399.129C502.327 398.548 502.375 397.542 501.781 396.899L498.085 392.851C497.503 392.209 496.497 392.16 495.855 392.754L493.37 395.021C492.958 395.396 492.364 395.457 491.867 395.203C491.564 395.045 491.261 394.912 490.958 394.778C490.449 394.56 490.11 394.063 490.134 393.506L490.292 390.148C490.328 389.276 489.661 388.549 488.789 388.5L483.31 388.246C482.438 388.209 481.711 388.876 481.662 389.749L481.505 393.13C481.48 393.663 481.129 394.124 480.632 394.306C480.28 394.427 479.905 394.572 479.59 394.693C479.093 394.887 478.523 394.754 478.172 394.354L475.881 391.845C475.299 391.203 474.293 391.154 473.651 391.748L469.603 395.445C468.96 396.027 468.912 397.033 469.506 397.675L471.772 400.16C472.148 400.572 472.208 401.166 471.954 401.662C471.796 401.978 471.651 402.293 471.506 402.62C471.287 403.129 470.79 403.468 470.233 403.444L466.876 403.299C466.003 403.262 465.276 403.941 465.239 404.802L465.009 410.28C464.973 411.152 465.652 411.88 466.512 411.916L469.894 412.061C470.427 412.086 470.887 412.425 471.069 412.934C471.19 413.286 471.336 413.661 471.457 413.976C471.651 414.473 471.518 415.043 471.118 415.394L468.609 417.685C467.966 418.267 467.93 419.273 468.512 419.915L472.208 423.951C472.79 424.594 473.796 424.642 474.439 424.048L476.923 421.77C477.335 421.394 477.929 421.333 478.426 421.588C478.729 421.733 479.032 421.879 479.335 422.012C479.844 422.23 480.183 422.727 480.159 423.285L480.014 426.642C479.977 427.514 480.644 428.242 481.517 428.29L486.995 428.533C487.868 428.569 488.595 427.902 488.643 427.03L488.789 423.648C488.813 423.115 489.152 422.654 489.661 422.473C490.013 422.351 490.388 422.206 490.704 422.085C491.201 421.891 491.77 422.024 492.122 422.424L494.412 424.933C494.994 425.575 496 425.624 496.642 425.03L500.69 421.333C501.333 420.751 501.381 419.746 500.787 419.103L498.521 416.619C498.145 416.206 498.085 415.613 498.339 415.116C498.497 414.813 498.63 414.51 498.763 414.207C498.982 413.698 499.478 413.358 500.036 413.383L503.393 413.528C504.266 413.564 504.993 412.898 505.042 412.025L505.284 406.547C505.32 405.674 504.654 404.947 503.781 404.899L500.4 404.741C499.866 404.717 499.406 404.365 499.224 403.868C498.933 403.032 498.533 402.062 498.509 402.014V402.026ZM478.559 412.51C475.966 408.316 477.832 402.911 482.341 401.153C485.759 399.82 489.807 401.153 491.734 404.28C494.327 408.474 492.461 413.879 487.952 415.637C484.535 416.97 480.486 415.637 478.559 412.51Z" fill="#7BB1EC"/>
<path d="M460.729 347.28L463.323 346.916C463.844 346.844 464.22 346.359 464.147 345.826L463.687 342.517C463.614 341.996 463.129 341.62 462.596 341.693L460.56 341.971C460.22 342.02 459.905 341.838 459.736 341.547C459.639 341.365 459.53 341.196 459.42 341.014C459.239 340.723 459.239 340.36 459.445 340.093L460.681 338.457C460.996 338.032 460.923 337.426 460.499 337.111L457.833 335.099C457.409 334.784 456.803 334.869 456.487 335.281L455.239 336.93C455.045 337.184 454.706 337.305 454.391 337.22C454.173 337.16 453.942 337.099 453.736 337.051C453.421 336.978 453.179 336.711 453.142 336.384L452.864 334.336C452.791 333.815 452.306 333.439 451.785 333.512L448.476 333.972C447.955 334.045 447.579 334.53 447.652 335.051L447.931 337.087C447.979 337.426 447.797 337.742 447.507 337.899C447.313 337.996 447.131 338.105 446.949 338.226C446.658 338.408 446.295 338.408 446.028 338.202L444.392 336.966C443.967 336.651 443.361 336.736 443.046 337.16L441.034 339.838C440.719 340.263 440.804 340.869 441.228 341.184L442.877 342.432C443.131 342.626 443.252 342.965 443.168 343.28C443.107 343.499 443.046 343.729 442.998 343.935C442.925 344.25 442.659 344.492 442.331 344.541L440.283 344.832C439.762 344.905 439.386 345.389 439.471 345.923L439.944 349.231C440.016 349.752 440.501 350.128 441.034 350.043L443.071 349.753C443.41 349.704 443.725 349.886 443.895 350.177C443.992 350.358 444.101 350.528 444.21 350.71C444.392 351.001 444.392 351.364 444.186 351.631L442.949 353.267C442.634 353.692 442.719 354.298 443.143 354.613L445.81 356.625C446.234 356.94 446.84 356.855 447.155 356.431L448.403 354.782C448.597 354.528 448.937 354.407 449.252 354.491C449.47 354.552 449.7 354.613 449.906 354.661C450.221 354.734 450.464 355 450.512 355.328L450.803 357.376C450.876 357.897 451.361 358.273 451.894 358.2L455.203 357.74C455.724 357.667 456.1 357.182 456.027 356.649L455.736 354.613C455.688 354.273 455.869 353.958 456.16 353.788C456.342 353.692 456.512 353.582 456.693 353.473C456.984 353.292 457.348 353.292 457.615 353.498L459.251 354.734C459.675 355.049 460.281 354.964 460.596 354.54L462.608 351.874C462.923 351.449 462.838 350.843 462.414 350.528L460.766 349.28C460.511 349.086 460.39 348.747 460.475 348.431C460.62 347.91 460.754 347.292 460.754 347.256L460.729 347.28ZM447.07 345.668C447.216 342.662 450.015 340.59 452.888 341.256C455.069 341.765 456.645 343.838 456.536 346.068C456.39 349.074 453.591 351.146 450.718 350.48C448.537 349.971 446.961 347.898 447.07 345.668Z" fill="#7BB1EC"/>
<path d="M356.377 451.5L358.243 451.233C358.619 451.185 358.886 450.833 358.837 450.445L358.51 448.058C358.462 447.682 358.11 447.415 357.734 447.464L356.268 447.67C356.025 447.706 355.795 447.573 355.674 447.367C355.601 447.234 355.529 447.112 355.444 446.991C355.31 446.785 355.31 446.519 355.456 446.325L356.353 445.149C356.583 444.846 356.522 444.41 356.219 444.179L354.292 442.725C353.989 442.495 353.553 442.555 353.323 442.858L352.426 444.046C352.28 444.228 352.05 444.313 351.82 444.252C351.662 444.204 351.493 444.167 351.347 444.131C351.117 444.07 350.947 443.889 350.911 443.658L350.705 442.18C350.656 441.804 350.305 441.537 349.929 441.586L347.541 441.913C347.166 441.961 346.899 442.313 346.948 442.689L347.154 444.155C347.19 444.398 347.057 444.628 346.839 444.749C346.705 444.822 346.572 444.907 346.439 444.979C346.233 445.113 345.966 445.113 345.772 444.967L344.584 444.082C344.281 443.852 343.845 443.913 343.615 444.216L342.172 446.143C341.942 446.446 342.003 446.882 342.306 447.112L343.493 448.009C343.675 448.155 343.76 448.385 343.699 448.615C343.651 448.773 343.615 448.943 343.578 449.088C343.53 449.318 343.336 449.488 343.106 449.524L341.627 449.73C341.251 449.779 340.985 450.13 341.033 450.518L341.372 452.906C341.421 453.282 341.772 453.548 342.16 453.5L343.627 453.294C343.869 453.257 344.099 453.391 344.221 453.597C344.293 453.73 344.366 453.851 344.451 453.972C344.584 454.178 344.584 454.445 344.439 454.639L343.554 455.827C343.324 456.13 343.384 456.566 343.687 456.796L345.614 458.251C345.917 458.481 346.354 458.42 346.584 458.117L347.481 456.93C347.626 456.748 347.857 456.663 348.087 456.724C348.244 456.772 348.414 456.808 348.56 456.845C348.79 456.893 348.96 457.087 348.996 457.318L349.202 458.796C349.25 459.172 349.602 459.439 349.99 459.39L352.377 459.051C352.753 459.002 353.02 458.651 352.971 458.263L352.765 456.796C352.729 456.554 352.862 456.324 353.068 456.202C353.202 456.13 353.323 456.057 353.444 455.972C353.65 455.839 353.917 455.839 354.111 455.984L355.286 456.881C355.589 457.111 356.025 457.051 356.256 456.748L357.71 454.821C357.94 454.518 357.88 454.081 357.577 453.851L356.389 452.954C356.207 452.809 356.122 452.579 356.183 452.348C356.28 451.973 356.389 451.524 356.389 451.5H356.377ZM346.536 450.336C346.645 448.167 348.657 446.676 350.729 447.161C352.305 447.525 353.432 449.015 353.359 450.627C353.25 452.797 351.238 454.288 349.166 453.803C347.59 453.439 346.463 451.948 346.536 450.336Z" fill="#7BB1EC"/>
<path d="M432.503 396.257H435.667C436.054 396.257 436.358 396.572 436.358 396.948V400.111C436.358 400.499 436.673 400.802 437.048 400.802H438.297C438.685 400.802 438.988 400.487 438.988 400.111V396.948C438.988 396.56 439.303 396.257 439.678 396.257H442.842C443.23 396.257 443.533 395.942 443.533 395.566V394.318C443.533 393.93 443.217 393.627 442.842 393.627H439.678C439.291 393.627 438.988 393.312 438.988 392.936V389.773C438.988 389.385 438.672 389.082 438.297 389.082H437.048C436.661 389.082 436.358 389.397 436.358 389.773V392.936C436.358 393.324 436.042 393.627 435.667 393.627H432.503C432.116 393.627 431.812 393.942 431.812 394.318V395.566C431.812 395.954 432.128 396.257 432.503 396.257Z" fill="#7BB1EC"/>
<path d="M401.257 449.391H406.869C407.548 449.391 408.093 449.937 408.093 450.615V456.227C408.093 456.905 408.638 457.451 409.317 457.451H411.523C412.202 457.451 412.747 456.905 412.747 456.227V450.615C412.747 449.937 413.292 449.391 413.971 449.391H419.583C420.261 449.391 420.807 448.846 420.807 448.167V445.961C420.807 445.282 420.261 444.737 419.583 444.737H413.971C413.292 444.737 412.747 444.192 412.747 443.513V437.901C412.747 437.223 412.202 436.677 411.523 436.677H409.317C408.638 436.677 408.093 437.223 408.093 437.901V443.513C408.093 444.192 407.548 444.737 406.869 444.737H401.257C400.579 444.737 400.033 445.282 400.033 445.961V448.167C400.033 448.846 400.579 449.391 401.257 449.391Z" fill="#7BB1EC"/>
<path d="M411.839 302.327H415.499C415.936 302.327 416.299 302.691 416.299 303.127V306.787C416.299 307.223 416.663 307.587 417.099 307.587H418.541C418.978 307.587 419.341 307.223 419.341 306.787V303.127C419.341 302.691 419.705 302.327 420.141 302.327H423.801C424.238 302.327 424.601 301.963 424.601 301.527V300.085C424.601 299.648 424.238 299.285 423.801 299.285H420.141C419.705 299.285 419.341 298.921 419.341 298.485V294.825C419.341 294.388 418.978 294.025 418.541 294.025H417.099C416.663 294.025 416.299 294.388 416.299 294.825V298.485C416.299 298.921 415.936 299.285 415.499 299.285H411.839C411.403 299.285 411.039 299.648 411.039 300.085V301.527C411.039 301.963 411.403 302.327 411.839 302.327Z" fill="#7BB1EC"/>
</svg>
