<svg width="563" height="556" viewBox="0 0 563 556" fill="none" xmlns="http://www.w3.org/2000/svg">
<g clip-path="url(#clip0_459_11533)">
<rect width="563" height="556" fill="#603C93"/>
<g filter="url(#filter0_d_459_11533)">
<path d="M60.3418 268.019C60.5015 270.469 60.7012 272.931 60.9541 275.354C61.0606 276.579 61.207 277.79 61.3535 279.015C63.7096 299.222 68.981 318.271 77.4738 334.897C78.1793 336.308 78.9247 337.679 79.6968 339.037C85.7536 349.912 93.2613 359.656 102.353 367.856C103.165 368.602 103.99 369.32 104.816 370.013C112.789 376.775 121.908 382.406 132.224 386.652C133.436 387.158 134.647 387.637 135.885 388.103H135.898C159.633 396.915 189.411 398.686 225.924 390.792C225.951 390.792 225.991 390.779 226.018 390.779C227.282 390.512 228.533 390.26 229.771 390.06C263.623 384.016 288.808 397.514 315.538 411.225C316.51 411.718 317.468 412.21 318.453 412.703C350.68 429.129 385.69 444.877 441.226 426.613C526.912 398.42 509.634 302.19 477.593 233.582C477.087 232.478 476.568 231.399 476.049 230.308C469.193 216.011 461.739 203.006 454.524 192.223C448.747 183.571 444.141 174.519 440.334 165.281C439.828 164.069 439.349 162.858 438.87 161.633C419.794 112.687 421.445 59.7998 387.514 39.127C386.648 38.5812 385.756 38.062 384.838 37.5828C380.046 35.0137 374.588 33.0702 368.332 31.7923C351.652 28.3978 337.462 31.4329 325.109 38.4081C323.964 39.0737 322.833 39.7393 321.728 40.4714C295.73 57.1375 277.919 91.2817 261.28 118.357C260.681 119.369 260.069 120.341 259.47 121.313C246.225 142.531 233.605 158.638 218.004 157.121C214.849 156.801 211.654 156.588 208.446 156.442C207.328 156.389 206.223 156.362 205.118 156.335C177.364 155.643 148.132 161.127 123.239 172.709C122.201 173.174 121.176 173.667 120.177 174.173C97.4545 185.368 78.6718 201.781 68.4752 223.372C68.0226 224.318 67.5966 225.276 67.1706 226.234C61.8859 238.548 59.3567 252.485 60.3551 268.006L60.3418 268.019Z" fill="url(#paint0_linear_459_11533)"/>
<path d="M139.464 124.667C142.819 126.304 146.134 127.622 149.435 128.661C150.593 129.02 151.751 129.353 152.896 129.632C210.415 144.302 257.924 72.4724 261.904 38.488C265.924 4.07758 221.504 14.434 178.88 34.5345C177.549 35.1601 176.218 35.7857 174.9 36.438C173.529 37.1169 172.144 37.7958 170.773 38.488C124.902 61.5569 76.0747 93.7443 139.464 124.667Z" fill="url(#paint1_linear_459_11533)"/>
<path opacity="0.62" d="M225.937 390.792C225.937 390.792 226.003 390.779 226.03 390.779C227.294 390.512 228.546 390.26 229.784 390.06C238.556 368.894 251.308 347.569 268.707 339.849C280.567 334.577 293.573 336.215 307.363 344.734C347.791 369.72 379.046 383.79 400.079 371.211C420.179 359.19 428.073 322.703 424.252 259.62C421.83 219.632 427.234 188.017 440.359 165.281C439.854 164.069 439.374 162.858 438.895 161.633C424.532 185.075 418.582 217.981 421.124 259.806C424.865 321.585 417.463 357.14 398.468 368.495C377.649 380.968 343.158 363.144 309.027 342.045C294.305 332.94 280.314 331.223 267.455 336.947C248.46 345.386 234.962 368.455 225.95 390.779L225.937 390.792Z" fill="white"/>
<path opacity="0.62" d="M315.552 411.212C316.524 411.704 317.483 412.197 318.468 412.69C320.518 405.768 323.925 399.085 329.516 394.652C337.61 388.236 349.124 387.438 363.74 392.256C396.087 402.972 420.767 401.96 437.114 389.288C455.404 375.124 463.204 346.198 460.289 303.362C458.173 272.066 466.519 249.503 477.607 233.569C477.102 232.464 476.582 231.386 476.063 230.294C464.109 246.774 454.898 270.429 457.148 303.575C459.996 345.293 452.582 373.301 435.183 386.799C419.729 398.792 396.008 399.631 364.739 389.261C349.044 384.07 336.545 385.068 327.559 392.19C321.503 396.995 317.789 403.984 315.566 411.199L315.552 411.212Z" fill="white"/>
<path opacity="0.62" d="M169.218 276.885C174.529 317.112 168.472 348.408 151.207 369.919C145.297 377.294 138.641 382.685 132.225 386.652C133.436 387.158 134.647 387.637 135.885 388.103H135.899C141.902 384.123 148.039 378.878 153.603 371.943C171.467 349.739 177.764 317.632 172.319 276.486C165.264 223.066 143.034 191.118 123.226 172.735C122.188 173.201 121.163 173.694 120.164 174.199C139.772 192.037 162.149 223.532 169.218 276.898V276.885Z" fill="white"/>
<path opacity="0.62" d="M123.558 290.556C128.098 321.093 124.317 344.095 112.257 358.897C109.115 362.745 105.681 365.673 102.353 367.856C103.165 368.602 103.99 369.32 104.816 370.013C108.144 367.723 111.551 364.741 114.693 360.881C127.339 345.36 131.359 321.545 126.673 290.09C121.895 258.116 101.847 235.206 68.4619 223.399C68.0093 224.344 67.5833 225.303 67.1573 226.261C99.9437 237.682 118.913 259.287 123.558 290.556Z" fill="white"/>
<path opacity="0.62" d="M60.9536 275.341C61.0601 276.565 61.2065 277.777 61.3529 279.001C67.9954 282.303 72.9207 287.042 76.1021 293.152C82.5716 305.611 80.8011 321.865 77.4732 334.883C77.4732 334.883 77.4732 334.888 77.4732 334.897C78.1787 336.294 78.9242 337.666 79.6963 339.023C83.7164 325.046 86.4586 306.264 78.9109 291.701C75.1171 284.406 69.1136 278.935 60.9669 275.327L60.9536 275.341Z" fill="white"/>
<path opacity="0.62" d="M205.117 156.349C206.795 163.83 209.217 172.296 212.678 180.682C225.431 211.605 246.556 227.845 273.885 227.845C274.976 227.845 276.041 227.832 277.146 227.779C314.352 226.061 335.744 168.063 356.417 111.981C366.56 84.4928 376.384 57.8563 387.539 39.1403C386.674 38.5945 385.782 38.0753 384.863 37.5961C373.482 56.645 363.631 83.3613 353.475 110.89C333.148 166.026 312.116 223.026 276.986 224.637C232.473 226.687 215.088 184.742 208.459 156.468C207.34 156.415 206.235 156.389 205.131 156.362L205.117 156.349Z" fill="white"/>
<path opacity="0.62" d="M259.468 121.326C262.157 121.818 265.126 122.125 268.28 122.125C274.856 122.125 282.231 120.74 289.526 116.574C308.748 105.592 320.675 79.3545 325.107 38.4214C323.963 39.087 322.831 39.7526 321.726 40.4847C317.227 78.9685 305.912 103.595 287.968 113.845C278.583 119.209 268.879 119.542 261.278 118.371C260.679 119.382 260.067 120.354 259.468 121.326Z" fill="white"/>
<path opacity="0.62" d="M149.424 128.661C150.582 129.02 151.74 129.353 152.885 129.632C161.191 120.953 170.176 103.502 172.333 68.3458C173.145 54.9411 175.554 43.7993 178.855 34.5344C177.524 35.1601 176.193 35.7857 174.875 36.438C171.987 45.3967 169.937 55.8862 169.178 68.1595C166.982 104.221 157.57 120.913 149.41 128.661H149.424Z" fill="white"/>
<path d="M60.3418 268.019C60.5015 270.469 60.7012 272.931 60.9541 275.354C61.0606 276.579 61.207 277.79 61.3535 279.015C63.7096 299.222 68.981 318.271 77.4738 334.897C78.1793 336.308 78.9247 337.679 79.6968 339.037C85.7536 349.912 93.2613 359.656 102.353 367.856C103.165 368.602 103.99 369.32 104.816 370.013C112.789 376.775 121.908 382.406 132.224 386.652C133.436 387.158 134.647 387.637 135.885 388.103H135.898C159.633 396.915 189.411 398.686 225.924 390.792C225.951 390.792 225.991 390.779 226.018 390.779C227.282 390.512 228.533 390.26 229.771 390.06C263.623 384.016 288.808 397.514 315.538 411.225C316.51 411.718 317.468 412.21 318.453 412.703C350.68 429.129 385.69 444.877 441.226 426.613C526.912 398.42 509.634 302.19 477.593 233.582C477.087 232.478 476.568 231.399 476.049 230.308C469.193 216.011 461.739 203.006 454.524 192.223C448.747 183.571 444.141 174.519 440.334 165.281C439.828 164.069 439.349 162.858 438.87 161.633C419.794 112.687 421.445 59.7998 387.514 39.127C386.648 38.5812 385.756 38.062 384.838 37.5828C380.046 35.0137 374.588 33.0702 368.332 31.7923C351.652 28.3978 337.462 31.4329 325.109 38.4081C323.964 39.0737 322.833 39.7393 321.728 40.4714C295.73 57.1375 277.919 91.2817 261.28 118.357C260.681 119.369 260.069 120.341 259.47 121.313C246.225 142.531 233.605 158.638 218.004 157.121C214.849 156.801 211.654 156.588 208.446 156.442C207.328 156.389 206.223 156.362 205.118 156.335C177.364 155.643 148.132 161.127 123.239 172.709C122.201 173.174 121.176 173.667 120.177 174.173C97.4545 185.368 78.6718 201.781 68.4752 223.372C68.0226 224.318 67.5966 225.276 67.1706 226.234C61.8859 238.548 59.3567 252.485 60.3551 268.006L60.3418 268.019Z" fill="url(#paint2_linear_459_11533)"/>
<path d="M139.464 124.667C142.819 126.304 146.134 127.622 149.435 128.661C150.593 129.02 151.751 129.353 152.896 129.632C210.415 144.302 257.924 72.4724 261.904 38.488C265.924 4.07758 221.504 14.434 178.88 34.5345C177.549 35.1601 176.218 35.7857 174.9 36.438C173.529 37.1169 172.144 37.7958 170.773 38.488C124.902 61.5569 76.0747 93.7443 139.464 124.667Z" fill="url(#paint3_linear_459_11533)"/>
<path opacity="0.62" d="M225.937 390.792C225.937 390.792 226.003 390.779 226.03 390.779C227.294 390.512 228.546 390.26 229.784 390.06C238.556 368.894 251.308 347.569 268.707 339.849C280.567 334.577 293.573 336.215 307.363 344.734C347.791 369.72 379.046 383.79 400.079 371.211C420.179 359.19 428.073 322.703 424.252 259.62C421.83 219.632 427.234 188.017 440.359 165.281C439.854 164.069 439.374 162.858 438.895 161.633C424.532 185.075 418.582 217.981 421.124 259.806C424.865 321.585 417.463 357.14 398.468 368.495C377.649 380.968 343.158 363.144 309.027 342.045C294.305 332.94 280.314 331.223 267.455 336.947C248.46 345.386 234.962 368.455 225.95 390.779L225.937 390.792Z" fill="white"/>
<path opacity="0.62" d="M315.552 411.212C316.524 411.704 317.483 412.197 318.468 412.69C320.518 405.768 323.925 399.085 329.516 394.652C337.61 388.236 349.124 387.438 363.74 392.256C396.087 402.972 420.767 401.96 437.114 389.288C455.404 375.124 463.204 346.198 460.289 303.362C458.173 272.066 466.519 249.503 477.607 233.569C477.102 232.464 476.582 231.386 476.063 230.294C464.109 246.774 454.898 270.429 457.148 303.575C459.996 345.293 452.582 373.301 435.183 386.799C419.729 398.792 396.008 399.631 364.739 389.261C349.044 384.07 336.545 385.068 327.559 392.19C321.503 396.995 317.789 403.984 315.566 411.199L315.552 411.212Z" fill="white"/>
<path opacity="0.62" d="M169.218 276.885C174.529 317.112 168.472 348.408 151.207 369.919C145.297 377.294 138.641 382.685 132.225 386.652C133.436 387.158 134.647 387.637 135.885 388.103H135.899C141.902 384.123 148.039 378.878 153.603 371.943C171.467 349.739 177.764 317.632 172.319 276.486C165.264 223.066 143.034 191.118 123.226 172.735C122.188 173.201 121.163 173.694 120.164 174.199C139.772 192.037 162.149 223.532 169.218 276.898V276.885Z" fill="white"/>
<path opacity="0.62" d="M123.558 290.556C128.098 321.093 124.317 344.095 112.257 358.897C109.115 362.745 105.681 365.673 102.353 367.856C103.165 368.602 103.99 369.32 104.816 370.013C108.144 367.723 111.551 364.741 114.693 360.881C127.339 345.36 131.359 321.545 126.673 290.09C121.895 258.116 101.847 235.206 68.4619 223.399C68.0093 224.344 67.5833 225.303 67.1573 226.261C99.9437 237.682 118.913 259.287 123.558 290.556Z" fill="white"/>
<path opacity="0.62" d="M60.9536 275.341C61.0601 276.565 61.2065 277.777 61.3529 279.001C67.9954 282.303 72.9207 287.042 76.1021 293.152C82.5716 305.611 80.8011 321.865 77.4732 334.883C77.4732 334.883 77.4732 334.888 77.4732 334.897C78.1787 336.294 78.9242 337.666 79.6963 339.023C83.7164 325.046 86.4586 306.264 78.9109 291.701C75.1171 284.406 69.1136 278.935 60.9669 275.327L60.9536 275.341Z" fill="white"/>
<path opacity="0.62" d="M205.117 156.349C206.795 163.83 209.217 172.296 212.678 180.682C225.431 211.605 246.556 227.845 273.885 227.845C274.976 227.845 276.041 227.832 277.146 227.779C314.352 226.061 335.744 168.063 356.417 111.981C366.56 84.4928 376.384 57.8563 387.539 39.1403C386.674 38.5945 385.782 38.0753 384.863 37.5961C373.482 56.645 363.631 83.3613 353.475 110.89C333.148 166.026 312.116 223.026 276.986 224.637C232.473 226.687 215.088 184.742 208.459 156.468C207.34 156.415 206.235 156.389 205.131 156.362L205.117 156.349Z" fill="white"/>
<path opacity="0.62" d="M259.468 121.326C262.157 121.818 265.126 122.125 268.28 122.125C274.856 122.125 282.231 120.74 289.526 116.574C308.748 105.592 320.675 79.3545 325.107 38.4214C323.963 39.087 322.831 39.7526 321.726 40.4847C317.227 78.9685 305.912 103.595 287.968 113.845C278.583 119.209 268.879 119.542 261.278 118.371C260.679 119.382 260.067 120.354 259.468 121.326Z" fill="white"/>
<path opacity="0.62" d="M149.424 128.661C150.582 129.02 151.74 129.353 152.885 129.632C161.191 120.953 170.176 103.502 172.333 68.3458C173.145 54.9411 175.554 43.7993 178.855 34.5344C177.524 35.1601 176.193 35.7857 174.875 36.438C171.987 45.3967 169.937 55.8862 169.178 68.1595C166.982 104.221 157.57 120.913 149.41 128.661H149.424Z" fill="white"/>
<path d="M284.8 549C214.12 549 156.822 543.231 156.822 536.114C156.822 528.998 214.12 523.229 284.8 523.229C355.48 523.229 412.777 528.998 412.777 536.114C412.777 543.231 355.48 549 284.8 549Z" fill="#E4EBF7"/>
<path d="M437.699 230.055C437.699 230.055 435.462 231.586 431.455 233.902C418.33 241.543 386.156 257.849 350.907 257.65C349.789 257.65 348.671 257.623 347.553 257.57C346.288 257.517 345.037 257.463 343.772 257.37C340.391 257.117 337.01 256.705 333.602 256.132L329.183 222.228L340.883 222.8L344.092 222.96L345.995 223.053L377.011 224.584L423.854 209.675L430.55 207.532C430.55 207.532 438.936 213.402 437.685 230.068L437.699 230.055Z" fill="url(#paint4_linear_459_11533)"/>
<path d="M437.699 230.055C437.699 230.055 435.462 231.586 431.455 233.902C430.989 224.704 427.036 215.612 423.854 209.648L430.55 207.505C430.55 207.505 438.936 213.375 437.685 230.042L437.699 230.055Z" fill="#FAFCFF" stroke="#0C6BF4" stroke-width="1.18" stroke-miterlimit="10"/>
<path opacity="0.47" d="M347.567 257.583C346.303 257.53 345.051 257.477 343.787 257.383C340.406 257.131 337.024 256.718 333.617 256.145L329.197 222.241L340.898 222.813L344.106 222.973C344.971 226.354 345.73 229.988 346.329 233.928C347.62 242.341 347.927 250.262 347.567 257.596V257.583Z" fill="#3150BC"/>
<path d="M406.211 195.664L448.129 202.371L439.172 258.353L397.255 251.646L406.211 195.664Z" fill="#BAC1CC"/>
<path d="M401.45 198.639H443.9V255.333H401.45V198.639Z" fill="#EDF1F9"/>
<path d="M429.896 210.607C429.896 212.936 431.787 214.826 434.116 214.826C436.446 214.826 438.336 212.936 438.336 210.607C438.336 208.277 436.446 206.387 434.116 206.387C431.787 206.387 429.896 208.277 429.896 210.607Z" fill="#F4D242"/>
<path d="M413.311 224.011H437.098C437.791 224.011 438.35 223.452 438.35 222.76C438.35 222.068 437.791 221.509 437.098 221.509H413.311C412.618 221.509 412.059 222.068 412.059 222.76C412.059 223.452 412.618 224.011 413.311 224.011Z" fill="#BAC1CC"/>
<path d="M407.76 230.561H437.098C437.791 230.561 438.35 230.002 438.35 229.309C438.35 228.617 437.791 228.058 437.098 228.058H407.76C407.067 228.058 406.508 228.617 406.508 229.309C406.508 230.002 407.067 230.561 407.76 230.561Z" fill="#BAC1CC"/>
<path d="M407.76 236.644H437.098C437.791 236.644 438.35 236.085 438.35 235.393C438.35 234.701 437.791 234.141 437.098 234.141H407.76C407.067 234.141 406.508 234.701 406.508 235.393C406.508 236.085 407.067 236.644 407.76 236.644Z" fill="#BAC1CC"/>
<path d="M407.76 242.355H437.098C437.791 242.355 438.35 241.796 438.35 241.103C438.35 240.411 437.791 239.852 437.098 239.852H407.76C407.067 239.852 406.508 240.411 406.508 241.103C406.508 241.796 407.067 242.355 407.76 242.355Z" fill="#BAC1CC"/>
<path d="M445.285 220.005C445.285 220.005 436.18 219.02 435.914 221.509C435.648 223.998 441.412 224.65 441.412 224.65C441.412 224.65 433.026 225.103 432.759 226.98C432.493 228.857 441.412 230.547 441.412 230.547C441.412 230.547 434.264 230.494 434.104 232.318C433.944 234.141 441.279 235.379 441.279 235.379C441.279 235.379 435.648 235.659 435.515 237.23C435.382 238.801 444.686 241.689 446.523 239.852C448.36 238.015 445.871 234.607 447.961 232.584C450.064 230.561 450.064 227.273 448.88 225.835C447.695 224.397 451.635 220.058 445.272 220.005H445.285Z" fill="#FEB19E"/>
<path d="M393.769 382.459L418.275 374.099L415.413 365.7C414.322 362.478 410.808 360.761 407.586 361.853L394.754 366.232C391.532 367.337 389.815 370.838 390.907 374.059L393.769 382.459ZM414.149 372.076L395.805 378.332L393.995 373.008C393.476 371.49 394.288 369.826 395.805 369.307L408.638 364.928C410.155 364.408 411.819 365.22 412.338 366.738L414.149 372.063V372.076Z" fill="#593131"/>
<path d="M444.492 370.097L374.634 393.933L385.738 426.475C387.436 431.451 392.859 434.115 397.836 432.417L449.653 414.737C454.629 413.039 457.294 407.615 455.596 402.639L444.492 370.097Z" fill="#593131"/>
<path d="M379.287 398.792L412.552 394.852C413.724 394.719 414.855 394.333 415.867 393.72L444.607 376.509C446.057 375.643 446.71 373.873 446.164 372.262L443.408 364.169C442.77 362.292 440.733 361.293 438.843 361.932L374.947 383.737C373.07 384.376 372.072 386.412 372.711 388.303L375.466 396.396C376.012 397.993 377.609 399.005 379.287 398.806V398.792Z" fill="#754343"/>
<path d="M389.858 352.694C389.858 352.694 385.279 365.3 387.835 367.164C390.39 369.028 395.103 362.052 396.58 364.701C398.058 367.35 393.239 372.369 399.828 372.755C406.417 373.154 412.315 368.136 411.622 361.16C410.93 354.185 405.299 349.846 405.313 347.742L403.955 343.376L388.82 348.488L389.858 352.681V352.694Z" fill="#FEB19E"/>
<path d="M406.512 347.37L388.222 353.213L384.375 345.147L384.308 345L366.151 307.049L346.982 302.35L338.756 300.34L337.425 300.007L327.654 297.611L319.654 295.641L329.744 262.335C329.744 262.335 333.178 262.868 338.516 264.319C340.42 264.838 342.576 265.464 344.906 266.236C345.505 266.435 346.13 266.648 346.756 266.861C348.047 267.301 349.378 267.806 350.763 268.339C360.933 272.266 373.046 278.522 382.87 288.186C397.513 302.59 403.224 325.326 405.327 337.998C405.354 338.171 405.394 338.344 405.407 338.517C406.285 343.895 406.512 347.343 406.512 347.343V347.37Z" fill="url(#paint5_linear_459_11533)"/>
<path opacity="0.47" d="M344.904 266.262C345.503 266.462 346.128 266.675 346.754 266.888C344.957 280.958 340.937 292.3 337.409 300.02L327.638 297.624L319.638 295.654L329.728 262.349C329.728 262.349 333.163 262.881 338.501 264.332C340.404 264.851 342.561 265.477 344.89 266.249L344.904 266.262Z" fill="#3150BC"/>
<path d="M405.417 338.544C406.295 343.922 406.521 347.37 406.521 347.37L388.231 353.213L384.384 345.147L384.318 345C394.275 343.363 401.49 340.461 405.417 338.531V338.544Z" fill="#9EB2EF"/>
<path d="M114.738 184.723L131.487 188.2C133.185 188.553 134.277 190.216 133.924 191.915L126.449 227.914C126.096 229.612 124.433 230.704 122.735 230.351L105.986 226.873C104.288 226.521 103.196 224.858 103.549 223.159L111.024 187.16C111.377 185.461 113.04 184.37 114.738 184.723Z" fill="#23406D"/>
<path d="M128.931 190.837L116.028 188.158C114.842 187.912 113.693 188.665 113.446 189.851L107.327 219.32L124.506 222.887L130.625 193.418C130.871 192.232 130.117 191.083 128.931 190.837Z" fill="#A8AFBA"/>
<path d="M140.837 225.09L136.617 223.625C136.617 223.625 133.103 225.476 127.486 222.88L130.893 206.48C130.893 206.48 125.023 202.393 125.116 199.944C125.209 197.481 136.711 198.08 141.33 209.275L146.441 211.432L140.837 225.09Z" fill="#FEB19E"/>
<path d="M139.586 230.055C139.586 230.055 141.822 231.586 145.829 233.902C158.954 241.543 191.128 257.849 226.377 257.65C227.495 257.65 228.613 257.623 229.732 257.57C230.983 257.517 232.247 257.463 233.512 257.37C236.893 257.117 240.274 256.705 243.682 256.132L248.102 222.228L236.401 222.8L233.193 222.96L231.289 223.053L200.273 224.584L153.43 209.675L146.734 207.532C146.734 207.532 138.348 213.402 139.599 230.068L139.586 230.055Z" fill="url(#paint6_linear_459_11533)"/>
<path opacity="0.47" d="M229.718 257.583C230.969 257.53 232.234 257.477 233.498 257.383C236.88 257.13 240.261 256.718 243.668 256.145L248.088 222.241L236.387 222.813L233.179 222.973C232.314 226.354 231.555 229.988 230.956 233.928C229.665 242.341 229.359 250.262 229.718 257.596V257.583Z" fill="#3150BC"/>
<path d="M146.722 207.518L153.418 209.661C150.237 215.625 146.296 224.717 145.817 233.915C141.81 231.586 139.574 230.068 139.574 230.068C138.336 213.402 146.709 207.532 146.709 207.532L146.722 207.518Z" fill="#9EB2EF"/>
<path d="M166.073 360.828C165.634 361.866 166.113 363.051 167.152 363.49L188.543 372.608L190.141 368.868L168.749 359.749C167.711 359.31 166.526 359.789 166.087 360.828H166.073Z" fill="#A1A7AF"/>
<path d="M215.378 381.833C212.197 389.301 203.571 392.762 196.117 389.594C188.662 386.412 185.201 377.8 188.382 370.332C191.564 362.878 200.177 359.417 207.631 362.585C215.086 365.766 218.547 374.379 215.378 381.833ZM191.032 371.45C188.476 377.454 191.271 384.376 197.261 386.918C203.252 389.461 210.174 386.692 212.729 380.688C215.285 374.698 212.49 367.763 206.5 365.22C200.509 362.665 193.574 365.46 191.032 371.45Z" fill="#BAC1CC"/>
<path d="M187.691 350.471L186.227 354.891C186.227 354.891 185.841 359.736 186.054 362.159C186.267 364.582 188.064 368.668 185.695 369.254C183.339 369.84 183.844 375.004 178.733 373.833C173.634 372.675 165.9 368.016 166.1 363.863C166.286 359.723 172.37 352.228 172.37 352.228L173.262 348.301L187.678 350.471H187.691Z" fill="#FEB19E"/>
<path d="M170.773 347.37L189.063 353.213L192.91 345.147L192.977 345L211.134 307.049L230.302 302.35L238.529 300.34L239.86 300.007L249.631 297.611L257.631 295.641L247.541 262.335C247.541 262.335 244.106 262.868 238.768 264.319C236.865 264.838 234.708 265.464 232.379 266.236C231.78 266.435 231.154 266.648 230.528 266.861C229.237 267.301 227.906 267.806 226.522 268.339C216.352 272.266 204.238 278.522 194.414 288.186C179.771 302.59 174.061 325.326 171.958 337.998C171.931 338.171 171.891 338.344 171.878 338.517C170.999 343.895 170.773 347.343 170.773 347.343V347.37Z" fill="url(#paint7_linear_459_11533)"/>
<path opacity="0.47" d="M232.379 266.262C231.78 266.462 231.155 266.675 230.529 266.888C232.326 280.958 236.346 292.299 239.874 300.02L249.644 297.624L257.645 295.654L247.554 262.348C247.554 262.348 244.12 262.881 238.782 264.332C236.879 264.851 234.722 265.477 232.392 266.249L232.379 266.262Z" fill="#3150BC"/>
<path d="M192.979 345.013L192.912 345.16L189.065 353.227L170.775 347.383C170.775 347.383 171.001 343.935 171.88 338.557C175.807 340.474 183.035 343.389 192.979 345.027V345.013Z" fill="#9EB2EF"/>
<path d="M350.881 105.432C350.881 105.432 358.961 101.878 359.64 98.9091C360.306 95.9406 361.45 89.1118 363.767 88.6592C366.083 88.2066 364.738 99.202 364.738 99.202C364.738 99.202 365.351 88.7524 368.479 87.6475C371.594 86.556 368.998 100.573 369.317 100.107C369.637 99.6279 371.128 89.4845 372.792 89.6842C374.456 89.8839 375.028 100.054 372.672 105.032C370.316 110.011 369.557 114.444 369.557 114.444L354.928 115.415L350.894 105.432H350.881Z" fill="#F49D8C"/>
<path d="M353.916 115.362C353.916 115.362 346.794 111.103 344.784 101.132C343.439 94.4498 349.683 100.147 351.732 104.886C351.732 104.886 362.395 104.247 364.219 114.643L353.916 115.349V115.362Z" fill="#FEB19E"/>
<path d="M368.865 177.687C361.85 192.263 350.242 203.538 341.151 210.753C340.951 210.913 340.751 211.046 340.565 211.206C340.485 211.272 340.418 211.312 340.339 211.379C333.11 217.009 327.613 219.991 327.613 219.991L306.82 192.077L313.689 187.511L316.711 185.501L318.468 184.343L346.715 165.6L350.948 123.575L351.84 114.71L371.035 114.004C371.035 114.004 372.047 117.532 373.085 123.203C375.401 135.849 377.744 159.157 368.839 177.674L368.865 177.687Z" fill="url(#paint8_linear_459_11533)"/>
<path opacity="0.47" d="M327.637 220.005L306.844 192.09L313.713 187.524L316.735 185.514L318.492 184.356C324.496 187.724 333.787 195.258 340.35 211.392C333.121 217.023 327.624 220.005 327.624 220.005H327.637Z" fill="#3150BC"/>
<path d="M373.125 123.216C364.592 122.431 356.645 122.937 350.988 123.602L351.88 114.723L371.075 114.018C371.075 114.018 372.1 117.545 373.125 123.216Z" fill="#9EB2EF"/>
<path d="M345.944 56.9776C345.944 50.4949 351.202 45.2368 357.685 45.2368C364.168 45.2368 369.452 50.5348 369.426 57.0176C369.426 60.239 368.108 63.1542 366.005 65.2707C364.367 66.9214 363.156 68.9447 362.557 71.1944L361.612 74.6953H353.918L353.026 71.3807C352.4 69.0911 351.162 67.0145 349.472 65.3506C347.302 63.2207 345.957 60.2523 345.957 56.9776H345.944Z" fill="#F4D242"/>
<path d="M360.364 59.6266C361.202 59.6266 361.895 60.3188 361.895 61.1574C361.895 61.996 361.202 62.6882 360.364 62.6882C360.044 62.6882 359.738 62.5818 359.485 62.4087V74.682H358.833V61.1574C358.833 60.3188 359.512 59.6266 360.364 59.6266ZM360.364 62.036C360.843 62.036 361.242 61.6366 361.242 61.1574C361.242 60.6782 360.843 60.2789 360.364 60.2789C359.884 60.2789 359.485 60.6782 359.485 61.1574C359.485 61.6366 359.884 62.036 360.364 62.036Z" fill="white"/>
<path d="M355.811 60.9577C356.65 60.9577 357.342 61.6499 357.342 62.4885L357.422 74.6819H356.77L356.69 63.7398C356.437 63.9129 356.144 64.0194 355.811 64.0194C354.973 64.0194 354.28 63.3272 354.28 62.4885C354.28 61.6499 354.973 60.9577 355.811 60.9577ZM355.811 63.3671C356.29 63.3671 356.69 62.9677 356.69 62.4885C356.69 62.0093 356.29 61.61 355.811 61.61C355.332 61.61 354.933 62.0093 354.933 62.4885C354.933 62.9677 355.332 63.3671 355.811 63.3671Z" fill="white"/>
<path d="M357.737 79.0881C359.947 79.0881 361.744 77.291 361.744 75.0813V74.1495H353.731V75.0813C353.731 77.291 355.528 79.0881 357.737 79.0881Z" fill="#383838"/>
<path d="M353.704 76.0131H361.784C361.957 76.0131 362.09 75.88 362.09 75.7069C362.09 75.5339 361.957 75.4008 361.784 75.4008H353.704C353.53 75.4008 353.397 75.5339 353.397 75.7069C353.397 75.88 353.53 76.0131 353.704 76.0131Z" fill="#838689"/>
<path d="M353.653 77.3177H361.733C361.906 77.3177 362.039 77.1845 362.039 77.0115C362.039 76.8384 361.906 76.7053 361.733 76.7053H353.653C353.48 76.7053 353.347 76.8384 353.347 77.0115C353.347 77.1845 353.48 77.3177 353.653 77.3177Z" fill="#838689"/>
<path d="M371.941 56.4584H375.016C375.349 56.4584 375.615 56.1922 375.615 55.8594C375.615 55.5266 375.349 55.2604 375.016 55.2604H371.941C371.608 55.2604 371.342 55.5266 371.342 55.8594C371.342 56.1922 371.608 56.4584 371.941 56.4584Z" fill="#F4D242"/>
<path d="M370.996 50.9342L373.725 49.5098C374.018 49.3634 374.124 49.004 373.978 48.7112C373.831 48.4183 373.472 48.3118 373.179 48.4582L370.45 49.8826C370.157 50.029 370.051 50.3884 370.197 50.6813C370.344 50.9741 370.703 51.0806 370.996 50.9342Z" fill="#F4D242"/>
<path d="M370.795 60.7048L373.524 62.1292C373.816 62.2756 373.923 62.635 373.777 62.9279C373.63 63.2207 373.271 63.3272 372.978 63.1808L370.249 61.7564C369.956 61.61 369.85 61.2506 369.996 60.9577C370.142 60.6649 370.502 60.5584 370.795 60.7048Z" fill="#F4D242"/>
<path d="M367.669 46.3683L369.852 44.1852C370.078 43.9589 370.078 43.5728 369.852 43.3465C369.625 43.1202 369.239 43.1202 369.013 43.3465L366.83 45.5296C366.604 45.7559 366.604 46.142 366.83 46.3683C367.056 46.5946 367.442 46.5946 367.669 46.3683Z" fill="#F4D242"/>
<path d="M363.901 43.4664L364.965 40.5777C365.072 40.2716 364.926 39.9255 364.619 39.819C364.313 39.7125 363.967 39.8589 363.861 40.1651L362.796 43.0537C362.689 43.3599 362.836 43.706 363.142 43.8124C363.448 43.9189 363.794 43.7725 363.901 43.4664Z" fill="#F4D242"/>
<path d="M343.321 56.0591H340.246C339.913 56.0591 339.647 55.7929 339.647 55.4601C339.647 55.1273 339.913 54.8611 340.246 54.8611H343.321C343.654 54.8611 343.92 55.1273 343.92 55.4601C343.92 55.7929 343.654 56.0591 343.321 56.0591Z" fill="#F4D242"/>
<path d="M344.267 50.5482L341.538 49.1239C341.245 48.9774 341.139 48.618 341.285 48.3252C341.431 48.0323 341.791 47.9258 342.084 48.0723L344.813 49.4966C345.105 49.643 345.212 50.0024 345.066 50.2953C344.919 50.5881 344.56 50.6946 344.267 50.5482Z" fill="#F4D242"/>
<path d="M344.452 60.3188L341.724 61.7432C341.431 61.8896 341.324 62.249 341.471 62.5419C341.617 62.8347 341.976 62.9412 342.269 62.7948L344.998 61.3704C345.291 61.224 345.398 60.8646 345.251 60.5718C345.105 60.2789 344.745 60.1724 344.452 60.3188Z" fill="#F4D242"/>
<path d="M347.58 45.9689L345.396 43.7858C345.17 43.5595 345.17 43.1735 345.396 42.9472C345.623 42.7209 346.009 42.7209 346.235 42.9472L348.418 45.1303C348.644 45.3566 348.644 45.7426 348.418 45.9689C348.192 46.1952 347.806 46.1952 347.58 45.9689Z" fill="#F4D242"/>
<path d="M351.361 43.0804L350.296 40.1917C350.189 39.8856 350.336 39.5395 350.642 39.433C350.948 39.3265 351.294 39.4729 351.401 39.7791L352.465 42.6677C352.572 42.9739 352.426 43.32 352.119 43.4265C351.813 43.533 351.467 43.3865 351.361 43.0804Z" fill="#F4D242"/>
<path d="M358.283 42.1619V39.0869C358.283 38.7541 358.017 38.4879 357.684 38.4879C357.351 38.4879 357.085 38.7541 357.085 39.0869V42.1619C357.085 42.4946 357.351 42.7609 357.684 42.7609C358.017 42.7609 358.283 42.4946 358.283 42.1619Z" fill="#F4D242"/>
<path d="M226.031 105.032C226.031 105.032 217.951 101.478 217.272 98.5098C216.607 95.5413 215.462 88.7124 213.146 88.2599C210.829 87.8073 212.174 98.8026 212.174 98.8026C212.174 98.8026 211.548 88.353 208.433 87.2482C205.318 86.1566 207.914 100.174 207.595 99.7078C207.275 99.2286 205.784 89.0852 204.12 89.2848C202.456 89.4845 201.884 99.6546 204.24 104.633C206.596 109.612 207.355 114.044 207.355 114.044L221.985 115.016L226.018 105.032H226.031Z" fill="#F49D8C"/>
<path d="M222.983 114.963C222.983 114.963 230.105 110.703 232.115 100.733C233.459 94.0504 227.216 99.7478 225.166 104.487C225.166 104.487 214.504 103.848 212.68 114.244L222.983 114.95V114.963Z" fill="#FEB19E"/>
<path d="M208.422 177.687C215.437 192.263 227.044 203.538 236.136 210.753C236.336 210.913 236.536 211.046 236.722 211.206C236.802 211.272 236.868 211.312 236.948 211.379C244.176 217.009 249.674 219.991 249.674 219.991L270.467 192.077L263.598 187.511L260.576 185.501L258.819 184.343L230.572 165.6L226.339 123.575L225.447 114.71L206.252 114.004C206.252 114.004 205.24 117.532 204.202 123.203C201.886 135.849 199.543 159.157 208.448 177.674L208.422 177.687Z" fill="url(#paint9_linear_459_11533)"/>
<path opacity="0.47" d="M249.647 220.004L270.439 192.09L263.571 187.524L260.549 185.514L258.792 184.356C252.788 187.724 243.497 195.258 236.934 211.392C244.162 217.023 249.66 220.004 249.66 220.004H249.647Z" fill="#3150BC"/>
<path d="M225.419 114.723L226.311 123.602C220.653 122.923 212.706 122.417 204.173 123.216C205.212 117.545 206.223 114.018 206.223 114.018L225.419 114.723Z" fill="#9EB2EF"/>
<path d="M222.488 73.6305C215.489 73.6305 209.815 67.9568 209.815 60.9579C209.815 53.959 215.489 48.2853 222.488 48.2853C229.486 48.2853 235.16 53.959 235.16 60.9579C235.16 67.9568 229.486 73.6305 222.488 73.6305Z" fill="#EFA245"/>
<path d="M222.489 46.7144C230.357 46.7144 236.746 53.0907 236.746 60.9711C236.746 68.8516 230.37 75.2278 222.489 75.2278C214.609 75.2278 208.233 68.8516 208.233 60.9711C208.233 53.0907 214.609 46.7144 222.489 46.7144ZM222.489 72.8051C223.714 72.8051 224.899 72.6187 226.004 72.2726C229.704 71.1145 232.646 68.186 233.791 64.4854C234.137 63.3672 234.323 62.1958 234.323 60.9711C234.323 60.5584 234.297 60.1591 234.257 59.7598C233.764 54.9942 230.436 51.0407 225.99 49.6563C224.872 49.3102 223.701 49.1238 222.476 49.1238C215.94 49.1238 210.629 54.4351 210.629 60.9711C210.629 67.5071 215.94 72.8184 222.476 72.8184L222.489 72.8051Z" fill="#F4D242"/>
<path d="M221.543 60.066V56.6316C219.919 56.9111 219.919 57.9228 219.919 58.2822H218.016C218.016 56.2722 219.32 54.981 221.543 54.7014V53.3303H223.447V54.7014C225.683 54.981 226.975 56.2722 226.975 58.2822C226.975 60.2923 225.67 61.5835 223.447 61.863V65.2974C225.071 65.0179 225.071 64.0062 225.071 63.6468H226.975C226.975 65.6568 225.67 66.9481 223.447 67.2276V68.5987H221.543V67.2276C219.307 66.9481 218.016 65.6568 218.016 63.6468C218.016 61.6367 219.32 60.3455 221.543 60.066ZM225.071 58.2822C225.071 57.9228 225.071 56.9111 223.447 56.6316V59.9329C225.071 59.6533 225.071 58.6416 225.071 58.2822ZM221.543 65.2974V61.9962C219.919 62.2757 219.919 63.2874 219.919 63.6468C219.919 64.0062 219.919 65.0179 221.543 65.2974Z" fill="#F4D242"/>
<path d="M289.158 514.403H319.043C319.043 514.403 327.576 409.042 324.541 317.046H286.802L281.265 396.769C281.265 396.769 288.373 473.91 289.158 514.403Z" fill="#1B3151"/>
<path d="M296.067 514.457C299.422 467.36 289.811 369.374 289.717 368.389L288.147 368.548C288.24 369.533 297.837 467.387 294.496 514.35L296.067 514.457Z" fill="#23406D"/>
<path d="M289.946 532.347C289.933 534.011 290.04 535.302 290.346 535.901C291.797 538.777 340.544 538.124 343.419 537.991C345.935 537.885 345.562 529.845 333.728 525.226C332.011 524.547 330.054 523.948 327.818 523.455C316.024 520.833 316.423 514.417 316.423 514.417L291.916 514.483C291.916 514.483 290.026 526.091 289.946 532.361V532.347Z" fill="url(#paint10_linear_459_11533)"/>
<path d="M289.946 532.347C289.933 534.011 290.04 535.302 290.346 535.901C291.797 538.777 340.544 538.124 343.419 537.991C345.935 537.885 345.562 529.845 333.728 525.226C330.853 525.771 327.751 528.021 326.513 534.663C326.513 534.663 301.168 534.943 289.946 532.347Z" fill="#9EB2EF"/>
<path d="M235.087 535.822C238.788 537.459 251.447 537.965 258.942 537.113C261.431 536.847 263.348 536.407 264.173 535.822C267.528 533.465 263.987 514.47 263.987 514.47H245.896C245.896 514.47 246.296 521.485 241.557 523.655C240.013 524.36 238.269 525.665 236.791 527.196C236.698 527.289 236.605 527.382 236.525 527.475C235.473 528.567 234.928 529.419 234.928 529.419C233.104 532.028 232.532 534.703 235.087 535.822Z" fill="url(#paint11_linear_459_11533)"/>
<path d="M235.088 535.822C238.789 537.459 251.448 537.965 258.942 537.113C259.728 527.768 252.06 523.242 245.724 523.242C241.637 523.242 238.602 525.425 236.805 527.196C236.712 527.289 236.619 527.382 236.539 527.475C235.487 528.567 234.942 529.419 234.942 529.419C233.118 532.028 232.545 534.703 235.101 535.822H235.088Z" fill="#9EB2EF"/>
<path d="M295.295 320.826L269.497 514.417H241.569L247.48 346.544C247.48 346.544 245.177 332.194 245.643 317.059L295.295 320.826Z" fill="#23406D"/>
<path d="M248.505 514.43L250.076 514.377C248.239 460.278 257.583 348.115 257.677 346.997C256.119 329.945 258.542 320.84 258.568 320.747L257.051 320.334C256.944 320.707 254.522 329.772 256.106 347.01C256.013 347.995 246.654 460.238 248.491 514.443L248.505 514.43Z" fill="#38659B"/>
<path d="M332.463 273.81C332.463 273.81 338.107 289.531 352.257 281.278C366.408 273.024 350.061 236.644 350.061 236.644L332.463 273.81Z" fill="url(#paint12_linear_459_11533)"/>
<path d="M344.003 228.883C344.003 228.883 345.374 224.264 338.692 222.893C332.009 221.522 329.161 225.742 327.39 229.775L344.003 228.897V228.883Z" fill="#FEB19E"/>
<path d="M244.552 260.152C249.651 272.825 249.291 275.5 249.291 275.5L245.644 317.046C245.644 317.046 305.253 337.093 324.542 317.046L326.432 283.514L327.39 266.449L327.577 265.53L335.098 229.349L327.39 229.762C328.721 226.727 330.692 223.545 334.445 222.773C332.023 216.703 326.405 204.19 319.696 199.278C310.684 192.702 292.115 184.742 264.972 192.503C237.857 200.277 239.481 247.466 244.566 260.139L244.552 260.152Z" fill="url(#paint13_linear_459_11533)"/>
<path d="M249.29 275.5C249.29 275.5 250.102 297.664 270.283 303.681C290.463 309.698 306.583 285.591 309.991 283.66C312.827 282.076 323.01 283.115 326.418 283.514L327.376 266.449L327.562 265.53L310.55 262.335L284.806 286.629L249.277 275.474L249.29 275.5Z" fill="#3150BC"/>
<path d="M267.14 235.539C267.14 235.539 288.745 242.222 318.51 235.539V264.958C318.51 264.958 286.016 271.84 261.896 264.958L267.14 235.539Z" fill="#A9D0FF"/>
<path opacity="0.47" d="M261.897 217.236C261.897 217.236 276.74 274.396 301.3 256.159L308.182 263.813L273.918 285.098L261.897 217.249V217.236Z" fill="#3150BC"/>
<path d="M281.452 183.77C281.452 183.77 273.811 172.376 277.059 159.41C280.307 146.445 287.576 149.387 287.576 149.387C287.576 149.387 282.264 140.934 291.316 136.807C300.368 132.681 306.718 136.022 300.315 138.378C300.315 138.378 313.52 138.378 321.187 146.631C328.855 154.884 334.352 146.431 336.522 148.202C338.679 149.972 334.659 155.683 331.211 156.255C331.211 156.255 339.464 154.485 340.05 156.255C340.636 158.026 335.377 169.221 323.384 169.021C323.384 169.021 324.915 176.276 312.734 183.757C300.541 191.238 281.452 183.757 281.452 183.757V183.77Z" fill="url(#paint14_linear_459_11533)"/>
<path d="M277.059 193.994C277.059 193.994 277.511 195.711 278.483 198.067C280.759 203.525 285.884 212.523 294.95 212.177C298.051 212.071 299.076 209.462 299.382 206.134C299.835 201.595 299.023 195.724 300.447 193.009L291.635 181.667L285.791 174.133L284.806 172.855C284.806 172.855 282.463 183.185 277.059 193.994Z" fill="#FEB19E"/>
<path d="M278.497 198.067C280.773 203.525 285.898 212.523 294.963 212.177C298.065 212.071 299.09 209.462 299.396 206.134C299.849 201.595 299.037 195.724 300.461 193.009L291.649 181.667L284.94 179.338C284.94 179.338 285.126 192.742 295.709 201.155C295.709 201.155 290.304 203.072 283.103 195.817C281.598 194.3 280.041 195.658 278.497 198.067Z" fill="#FF856A"/>
<path d="M280.68 185.82L279.722 188.203C279.722 188.203 282.77 200.783 293.393 204.51L292.394 216.504C292.394 216.504 276.793 208.943 273.944 192.529C273.944 192.529 277.033 185.607 280.707 185.834L280.68 185.82Z" fill="#23406D"/>
<path d="M297.614 203.977L298.905 216.344C298.905 216.344 308.223 209.648 305.122 195.831C305.122 195.831 301.594 198 298.945 197.508C298.945 197.508 300.25 199.944 297.601 203.977H297.614Z" fill="#23406D"/>
<path d="M319.682 168.049C316.9 179.897 313.612 191.265 303.801 196.603C301.272 197.974 298.25 197.907 295.801 196.39C291.048 193.461 283.807 186.739 284.792 173.294C284.792 173.294 281.544 174.479 281.012 168.049C280.492 161.633 282.689 160.515 285.072 161.034C287.454 161.553 287.228 170.139 287.228 170.139C287.228 170.139 295.614 168.342 297.478 157.134C297.478 157.134 301.019 162.152 304.067 163.43C307.116 164.708 305.931 159.011 305.931 159.011C305.931 159.011 308.127 167.171 319.655 168.049H319.682Z" fill="#FEB19E"/>
<path d="M319.921 226.664L345.402 228.473C347.462 228.619 349.014 230.408 348.868 232.469L346.03 272.449C345.884 274.51 344.095 276.062 342.034 275.916L316.553 274.107C314.493 273.961 312.941 272.172 313.087 270.111L315.925 230.13C316.071 228.07 317.86 226.518 319.921 226.664Z" fill="#BAC1CC"/>
<path d="M321.38 226.675L346.861 228.483C348.921 228.63 350.473 230.419 350.327 232.479L347.489 272.46C347.343 274.52 345.554 276.072 343.493 275.926L318.012 274.118C315.952 273.971 314.4 272.182 314.546 270.122L317.384 230.141C317.53 228.08 319.319 226.528 321.38 226.675Z" fill="#E1E7F4"/>
<path d="M330.17 251.247C329.971 254.042 331.368 256.412 333.272 256.545C335.189 256.678 336.893 254.521 337.092 251.739C337.292 248.944 335.894 246.574 333.991 246.441C332.074 246.308 330.37 248.465 330.17 251.247Z" fill="#F8FBFF"/>
<path d="M305.704 254.295C305.704 254.295 307.341 244.019 314.982 243.632V247.772C314.982 247.772 319.974 248.957 323.022 245.509C326.071 242.075 329.319 239.453 328.52 248.97C327.735 258.488 321.052 263.107 313.877 262.615L311.122 264.971L303.255 256.984L305.677 254.295H305.704Z" fill="#FEB19E"/>
<path d="M266.875 296.613C285.311 303.721 302.03 283.833 309.685 272.665C312.48 268.592 314.051 265.676 314.051 265.676L302.789 254.934L296.48 260.059L277.058 275.9C277.058 275.9 273.69 260.445 270.801 242.355C267.926 224.264 263.187 212.856 253.257 214.32C233.596 217.196 241.716 286.908 266.875 296.613Z" fill="url(#paint15_linear_459_11533)"/>
<path d="M296.479 260.059C298.423 263.161 302.429 268.219 309.671 272.652C312.466 268.578 314.037 265.663 314.037 265.663L302.776 254.921L296.466 260.046L296.479 260.059Z" fill="#9EB2EF"/>
</g>
</g>
<defs>
<filter id="filter0_d_459_11533" x="35.1406" y="-5" width="493.713" height="583" filterUnits="userSpaceOnUse" color-interpolation-filters="sRGB">
<feFlood flood-opacity="0" result="BackgroundImageFix"/>
<feColorMatrix in="SourceAlpha" type="matrix" values="0 0 0 0 0 0 0 0 0 0 0 0 0 0 0 0 0 0 127 0" result="hardAlpha"/>
<feOffset dy="4"/>
<feGaussianBlur stdDeviation="12.5"/>
<feComposite in2="hardAlpha" operator="out"/>
<feColorMatrix type="matrix" values="0 0 0 0 0 0 0 0 0 0 0 0 0 0 0 0 0 0 0.25 0"/>
<feBlend mode="normal" in2="BackgroundImageFix" result="effect1_dropShadow_459_11533"/>
<feBlend mode="normal" in="SourceGraphic" in2="effect1_dropShadow_459_11533" result="shape"/>
</filter>
<linearGradient id="paint0_linear_459_11533" x1="281.997" y1="30.3985" x2="281.997" y2="434.791" gradientUnits="userSpaceOnUse">
<stop stop-color="#995CFE"/>
<stop offset="1" stop-color="#995CFE" stop-opacity="0"/>
</linearGradient>
<linearGradient id="paint1_linear_459_11533" x1="185.677" y1="16" x2="185.677" y2="131.582" gradientUnits="userSpaceOnUse">
<stop stop-color="#995CFE"/>
<stop offset="1" stop-color="#995CFE" stop-opacity="0"/>
</linearGradient>
<linearGradient id="paint2_linear_459_11533" x1="281.997" y1="30.3985" x2="281.997" y2="434.791" gradientUnits="userSpaceOnUse">
<stop stop-color="#995CFE"/>
<stop offset="1" stop-color="#995CFE" stop-opacity="0"/>
</linearGradient>
<linearGradient id="paint3_linear_459_11533" x1="185.677" y1="16" x2="185.677" y2="131.582" gradientUnits="userSpaceOnUse">
<stop stop-color="#995CFE"/>
<stop offset="1" stop-color="#995CFE" stop-opacity="0"/>
</linearGradient>
<linearGradient id="paint4_linear_459_11533" x1="387.061" y1="257.53" x2="383.401" y2="222.414" gradientUnits="userSpaceOnUse">
<stop stop-color="#3855E1"/>
<stop offset="1" stop-color="#5C7EF7"/>
</linearGradient>
<linearGradient id="paint5_linear_459_11533" x1="359.003" y1="315.515" x2="384.162" y2="286.163" gradientUnits="userSpaceOnUse">
<stop stop-color="#3855E1"/>
<stop offset="1" stop-color="#5C7EF7"/>
</linearGradient>
<linearGradient id="paint6_linear_459_11533" x1="189.93" y1="256.838" x2="193.604" y2="224.863" gradientUnits="userSpaceOnUse">
<stop stop-color="#3855E1"/>
<stop offset="1" stop-color="#5C7EF7"/>
</linearGradient>
<linearGradient id="paint7_linear_459_11533" x1="217.59" y1="314.623" x2="194.707" y2="288.16" gradientUnits="userSpaceOnUse">
<stop stop-color="#3855E1"/>
<stop offset="1" stop-color="#5C7EF7"/>
</linearGradient>
<linearGradient id="paint8_linear_459_11533" x1="369.624" y1="181.201" x2="348.658" y2="166.519" gradientUnits="userSpaceOnUse">
<stop stop-color="#3855E1"/>
<stop offset="1" stop-color="#5C7EF7"/>
</linearGradient>
<linearGradient id="paint9_linear_459_11533" x1="208.395" y1="178.885" x2="229.108" y2="166.306" gradientUnits="userSpaceOnUse">
<stop stop-color="#3855E1"/>
<stop offset="1" stop-color="#5C7EF7"/>
</linearGradient>
<linearGradient id="paint10_linear_459_11533" x1="311.378" y1="541.466" x2="320.616" y2="520.234" gradientUnits="userSpaceOnUse">
<stop stop-color="#3855E1"/>
<stop offset="1" stop-color="#5C7EF7"/>
</linearGradient>
<linearGradient id="paint11_linear_459_11533" x1="265.624" y1="525.998" x2="233.37" y2="525.998" gradientUnits="userSpaceOnUse">
<stop stop-color="#3855E1"/>
<stop offset="1" stop-color="#5C7EF7"/>
</linearGradient>
<linearGradient id="paint12_linear_459_11533" x1="335.871" y1="265.57" x2="351.991" y2="258.688" gradientUnits="userSpaceOnUse">
<stop stop-color="#3855E1"/>
<stop offset="1" stop-color="#5C7EF7"/>
</linearGradient>
<linearGradient id="paint13_linear_459_11533" x1="281.133" y1="315.222" x2="291.609" y2="194.127" gradientUnits="userSpaceOnUse">
<stop stop-color="#3855E1"/>
<stop offset="1" stop-color="#5C7EF7"/>
</linearGradient>
<linearGradient id="paint14_linear_459_11533" x1="304.149" y1="175.93" x2="311.749" y2="145.526" gradientUnits="userSpaceOnUse">
<stop stop-color="#1F3A65"/>
<stop offset="1" stop-color="#294A7A"/>
</linearGradient>
<linearGradient id="paint15_linear_459_11533" x1="272.678" y1="314.49" x2="283.168" y2="193.395" gradientUnits="userSpaceOnUse">
<stop stop-color="#3855E1"/>
<stop offset="1" stop-color="#5C7EF7"/>
</linearGradient>
<clipPath id="clip0_459_11533">
<rect width="563" height="556" fill="white"/>
</clipPath>
</defs>
</svg>
