<svg width="80" height="80" viewBox="0 0 80 80" fill="none" xmlns="http://www.w3.org/2000/svg">
<g clip-path="url(#clip0_386_62192)">
<path fill-rule="evenodd" clip-rule="evenodd" d="M74.9805 80H59.041C58.5235 80 58.1035 79.5795 58.1035 79.0625V22.3412C58.1035 21.8237 58.524 21.4037 59.041 21.4037H74.9805C75.498 21.4037 75.918 21.8237 75.918 22.3412V79.0625C75.9189 79.58 75.498 80 74.9805 80ZM59.9785 78.125H74.0429V23.2787H59.9785V78.125Z" fill="black"/>
<path fill-rule="evenodd" clip-rule="evenodd" d="M59.043 80H43.1035C42.586 80 42.166 79.5795 42.166 79.0625V39.3536C42.166 38.8361 42.5865 38.4161 43.1035 38.4161H59.043C60.2772 38.4161 60.2767 40.2911 59.043 40.2911H44.041V78.1245H59.043C60.2772 78.1245 60.2762 80 59.043 80Z" fill="black"/>
<path fill-rule="evenodd" clip-rule="evenodd" d="M43.1035 80H27.1641C26.6466 80 26.2266 79.5795 26.2266 79.0625V52.136C26.2266 51.6185 26.6466 51.1985 27.1641 51.1985H43.1035C44.3377 51.1985 44.3373 53.0735 43.1035 53.0735H28.1016V78.125H43.1035C44.3377 78.125 44.3377 80 43.1035 80Z" fill="black"/>
<path fill-rule="evenodd" clip-rule="evenodd" d="M27.1626 80H11.2227C10.7052 80 10.2852 79.5795 10.2852 79.0625V64.2673C10.2852 63.7498 10.7052 63.3298 11.2227 63.3298H27.1621C28.3959 63.3298 28.3959 65.2048 27.1621 65.2048H12.1602V78.1241H27.1621C28.3963 78.1241 28.3959 79.9995 27.1626 79.9995V80Z" fill="black"/>
<path fill-rule="evenodd" clip-rule="evenodd" d="M4.39332 44.5253C3.23456 44.5253 3.123 42.7947 4.2841 42.6569C4.46879 42.6349 23.1485 40.0492 56.1224 8.14036C57.0088 7.28114 58.3134 8.6288 57.4256 9.48708C23.914 41.9046 5.15316 44.5253 4.39332 44.5253Z" fill="black"/>
<path fill-rule="evenodd" clip-rule="evenodd" d="M51.9463 28.1888C51.3318 28.1888 50.8771 27.6029 51.0412 27.0034L55.6771 10.0861L38.7599 14.7221C37.5716 15.0502 37.0733 13.2404 38.2644 12.9141L56.7675 7.84315C57.4635 7.65283 58.1104 8.29924 57.9192 8.99487L52.8482 27.4988C52.7352 27.9151 52.357 28.1884 51.9454 28.1884L51.9463 28.1888Z" fill="black"/>
<path fill-rule="evenodd" clip-rule="evenodd" d="M67.0117 23.2787C66.4942 23.2787 66.0742 22.8587 66.0742 22.3412L66.0747 0.937493C66.0747 -0.296262 67.9497 -0.296262 67.9497 0.937493L67.9488 22.3412C67.9497 22.8587 67.5292 23.2787 67.0117 23.2787Z" fill="black"/>
<path fill-rule="evenodd" clip-rule="evenodd" d="M67.1785 12.8635C66.1847 12.8635 65.8749 11.5027 66.7786 11.0771L73.861 7.74847L66.4191 1.66313C65.4666 0.884536 66.654 -0.566251 67.6051 0.211877L76.1987 7.23847C76.7312 7.67394 76.6281 8.52003 76.0046 8.81254C74.9396 9.31222 67.6716 12.8635 67.178 12.8635H67.1785Z" fill="black"/>
</g>
<defs>
<clipPath id="clip0_386_62192">
<rect width="80" height="80" fill="white"/>
</clipPath>
</defs>
</svg>
