<svg width="70" height="70" viewBox="0 0 70 70" fill="none" xmlns="http://www.w3.org/2000/svg">
<g clip-path="url(#clip0_386_62171)">
<path d="M69.6468 23.2577C69.5079 23.1294 69.338 23.0394 69.1538 22.9966C68.9697 22.9539 68.7775 22.9597 68.5963 23.0136L51.1487 28.1678C50.9668 28.2214 50.8019 28.3215 50.6704 28.4581C50.5388 28.5947 50.4451 28.7632 50.3983 28.947C50.3516 29.1307 50.3534 29.3235 50.4037 29.5064C50.454 29.6893 50.5509 29.8559 50.6851 29.99L53.6053 32.9102L38.2811 48.235L29.0232 38.9761C28.5119 38.4677 27.9053 38.0652 27.2383 37.7916C26.5712 37.5179 25.8567 37.3785 25.1357 37.3813C24.4147 37.384 23.7014 37.529 23.0364 37.8077C22.3715 38.0865 21.7681 38.4937 21.2607 39.006L0.29201 61.5998C0.194315 61.7051 0.118311 61.8286 0.0683381 61.9632C0.0183655 62.0979 -0.00459701 62.241 0.000761513 62.3846C0.0115835 62.6744 0.137106 62.9481 0.349717 63.1454C0.562327 63.3427 0.844608 63.4475 1.13446 63.4367C1.42432 63.4258 1.698 63.3003 1.89531 63.0877L22.8357 40.5238C23.4516 39.9094 24.2861 39.5643 25.156 39.5642C26.026 39.5641 26.8605 39.909 27.4766 40.5232L37.5078 50.555C37.7168 50.7525 37.9935 50.8626 38.2811 50.8626C38.5687 50.8626 38.8454 50.7525 39.0544 50.555L55.9253 33.6835C56.0268 33.582 56.1074 33.4614 56.1624 33.3288C56.2174 33.1961 56.2457 33.0538 56.2457 32.9102C56.2457 32.7666 56.2174 32.6244 56.1624 32.4917C56.1074 32.359 56.0268 32.2384 55.9253 32.1369L53.5327 29.7443L67.4652 25.6283L64.3724 40.5841L62.1128 38.3245C62.0113 38.2229 61.8907 38.1423 61.758 38.0873C61.6253 38.0324 61.4831 38.0041 61.3395 38.0041C61.1959 38.0041 61.0536 38.0324 60.921 38.0873C60.7883 38.1423 60.6677 38.2229 60.5662 38.3245L40.6016 58.2887C39.9856 58.903 39.1512 59.2481 38.2812 59.2482C37.4112 59.2483 36.5767 58.9034 35.9606 58.2892L25.9294 48.2575C25.8237 48.1517 25.6975 48.0688 25.5585 48.0137C25.4195 47.9587 25.2707 47.9328 25.1213 47.9375C24.9719 47.9423 24.8251 47.9776 24.6898 48.0414C24.5546 48.1051 24.4339 48.1959 24.3352 48.3082L6.83522 68.1837C6.74033 68.2915 6.6676 68.4169 6.62118 68.5528C6.57477 68.6887 6.55557 68.8324 6.5647 68.9758C6.58313 69.2652 6.71579 69.5355 6.9335 69.7271C7.1512 69.9188 7.43612 70.0161 7.72557 69.9977C8.01502 69.9792 8.2853 69.8466 8.47694 69.6289L25.2068 50.6281L34.414 59.8364C35.4409 60.8598 36.8315 61.4344 38.2812 61.4343C39.731 61.4342 41.1215 60.8594 42.1482 59.8358L61.3395 40.6444L64.2598 43.5647C64.3993 43.7042 64.574 43.8034 64.7654 43.8517C64.9567 43.9 65.1576 43.8957 65.3466 43.8392C65.5357 43.7826 65.706 43.676 65.8394 43.5305C65.9728 43.3851 66.0643 43.2062 66.1044 43.013L69.9773 24.2841C70.0154 24.099 70.005 23.9073 69.9471 23.7274C69.8892 23.5475 69.7857 23.3857 69.6468 23.2577Z" fill="black"/>
<path d="M18.5938 61.25C18.3037 61.25 18.0255 61.3652 17.8204 61.5704C17.6152 61.7755 17.5 62.0537 17.5 62.3438V68.9062C17.5 69.1963 17.6152 69.4745 17.8204 69.6796C18.0255 69.8848 18.3037 70 18.5938 70C18.8838 70 19.162 69.8848 19.3671 69.6796C19.5723 69.4745 19.6875 69.1963 19.6875 68.9062V62.3438C19.6875 62.0537 19.5723 61.7755 19.3671 61.5704C19.162 61.3652 18.8838 61.25 18.5938 61.25Z" fill="black"/>
<path d="M5.46875 53.5938C5.75883 53.5938 6.03703 53.4785 6.24215 53.2734C6.44727 53.0683 6.5625 52.7901 6.5625 52.5V37.1875H17.5V38.2812C17.5 38.5713 17.6152 38.8495 17.8204 39.0546C18.0255 39.2598 18.3037 39.375 18.5938 39.375C18.8838 39.375 19.162 39.2598 19.3671 39.0546C19.5723 38.8495 19.6875 38.5713 19.6875 38.2812V36.0938C19.6875 35.8037 19.5723 35.5255 19.3671 35.3204C19.162 35.1152 18.8838 35 18.5938 35H5.46875C5.17867 35 4.90047 35.1152 4.69535 35.3204C4.49023 35.5255 4.375 35.8037 4.375 36.0938V52.5C4.375 52.7901 4.49023 53.0683 4.69535 53.2734C4.90047 53.4785 5.17867 53.5938 5.46875 53.5938Z" fill="black"/>
<path d="M51.4062 52.5C51.1162 52.5 50.838 52.6152 50.6329 52.8204C50.4277 53.0255 50.3125 53.3037 50.3125 53.5938V68.9062C50.3125 69.1963 50.4277 69.4745 50.6329 69.6796C50.838 69.8848 51.1162 70 51.4062 70C51.6963 70 51.9745 69.8848 52.1796 69.6796C52.3848 69.4745 52.5 69.1963 52.5 68.9062V53.5938C52.5 53.3037 52.3848 53.0255 52.1796 52.8204C51.9745 52.6152 51.6963 52.5 51.4062 52.5Z" fill="black"/>
<path d="M51.4062 26.25C51.6963 26.25 51.9745 26.1348 52.1796 25.9296C52.3848 25.7245 52.5 25.4463 52.5 25.1562V2.1875H63.4375V20.7812C63.4375 21.0713 63.5527 21.3495 63.7579 21.5546C63.963 21.7598 64.2412 21.875 64.5312 21.875C64.8213 21.875 65.0995 21.7598 65.3046 21.5546C65.5098 21.3495 65.625 21.0713 65.625 20.7812V1.09375C65.625 0.803669 65.5098 0.52547 65.3046 0.320352C65.0995 0.115234 64.8213 0 64.5312 0L51.4062 0C51.1162 0 50.838 0.115234 50.6329 0.320352C50.4277 0.52547 50.3125 0.803669 50.3125 1.09375V25.1562C50.3125 25.4463 50.4277 25.7245 50.6329 25.9296C50.838 26.1348 51.1162 26.25 51.4062 26.25Z" fill="black"/>
<path d="M64.5312 45.9375C64.2412 45.9375 63.963 46.0527 63.7579 46.2579C63.5527 46.463 63.4375 46.7412 63.4375 47.0312V68.9062C63.4375 69.1963 63.5527 69.4745 63.7579 69.6796C63.963 69.8848 64.2412 70 64.5312 70C64.8213 70 65.0995 69.8848 65.3046 69.6796C65.5098 69.4745 65.625 69.1963 65.625 68.9062V47.0312C65.625 46.7412 65.5098 46.463 65.3046 46.2579C65.0995 46.0527 64.8213 45.9375 64.5312 45.9375Z" fill="black"/>
<path d="M41.5625 62.3438C41.2724 62.3438 40.9942 62.459 40.7891 62.6641C40.584 62.8692 40.4688 63.1474 40.4688 63.4375V68.9062C40.4688 69.1963 40.584 69.4745 40.7891 69.6796C40.9942 69.8848 41.2724 70 41.5625 70C41.8526 70 42.1308 69.8848 42.3359 69.6796C42.541 69.4745 42.6562 69.1963 42.6562 68.9062V63.4375C42.6562 63.1474 42.541 62.8692 42.3359 62.6641C42.1308 62.459 41.8526 62.3438 41.5625 62.3438Z" fill="black"/>
<path d="M28.4375 36.0938C28.7276 36.0938 29.0058 35.9785 29.2109 35.7734C29.416 35.5683 29.5312 35.2901 29.5312 35V24.0625H40.4688V41.5625C40.4688 41.8526 40.584 42.1308 40.7891 42.3359C40.9942 42.541 41.2724 42.6562 41.5625 42.6562C41.8526 42.6562 42.1308 42.541 42.3359 42.3359C42.541 42.1308 42.6562 41.8526 42.6562 41.5625V22.9688C42.6562 22.6787 42.541 22.4005 42.3359 22.1954C42.1308 21.9902 41.8526 21.875 41.5625 21.875H28.4375C28.1474 21.875 27.8692 21.9902 27.6641 22.1954C27.459 22.4005 27.3438 22.6787 27.3438 22.9688V35C27.3438 35.2901 27.459 35.5683 27.6641 35.7734C27.8692 35.9785 28.1474 36.0938 28.4375 36.0938Z" fill="black"/>
<path d="M28.4375 55.7812C28.1474 55.7812 27.8692 55.8965 27.6641 56.1016C27.459 56.3067 27.3438 56.5849 27.3438 56.875V68.9062C27.3438 69.1963 27.459 69.4745 27.6641 69.6796C27.8692 69.8848 28.1474 70 28.4375 70C28.7276 70 29.0058 69.8848 29.2109 69.6796C29.416 69.4745 29.5312 69.1963 29.5312 68.9062V56.875C29.5312 56.5849 29.416 56.3067 29.2109 56.1016C29.0058 55.8965 28.7276 55.7812 28.4375 55.7812Z" fill="black"/>
</g>
<defs>
<clipPath id="clip0_386_62171">
<rect width="70" height="70" fill="white"/>
</clipPath>
</defs>
</svg>
