<svg width="80" height="80" viewBox="0 0 80 80" fill="none" xmlns="http://www.w3.org/2000/svg">
<path d="M57.5788 21.6578C57.5788 20.8609 56.7025 20.1878 55.6653 20.1878H53.6984C51.3509 20.1878 49.4411 18.477 49.4411 16.3742C49.4411 14.328 51.2495 12.6536 53.51 12.5648V10.5623C53.51 9.91499 54.0345 9.39046 54.6819 9.39046C55.3292 9.39046 55.8537 9.91499 55.8537 10.5623V12.5606H58.7506C59.398 12.5606 59.9225 13.0851 59.9225 13.7325C59.9225 14.3798 59.398 14.9044 58.7506 14.9044H53.6984C52.6611 14.9044 51.7848 15.5775 51.7848 16.3742C51.7848 17.1709 52.6611 17.8441 53.6984 17.8441H55.6653C58.0127 17.8441 59.9225 19.5548 59.9225 21.6578C59.9225 23.7041 58.1141 25.3784 55.8537 25.4672V27.4697C55.8537 28.117 55.3292 28.6416 54.6819 28.6416C54.0345 28.6416 53.51 28.117 53.51 27.4697V25.4714H50.613C49.9656 25.4714 49.4411 24.9469 49.4411 24.2995C49.4411 23.6522 49.9656 23.1276 50.613 23.1276H55.6653C56.7025 23.1278 57.5788 22.4547 57.5788 21.6578ZM66.7986 19.0159C66.7986 25.6972 61.3631 31.1326 54.6819 31.1326C52.1502 31.1326 49.7256 30.3605 47.6703 28.8992C47.1423 28.5245 46.4111 28.648 46.0361 29.1755C45.6613 29.703 45.7848 30.4347 46.3123 30.8097C48.7667 32.5542 51.6608 33.4764 54.6819 33.4764C62.6553 33.4764 69.1423 26.9894 69.1423 19.0159C69.1423 15.995 68.2202 13.1011 66.4755 10.6466C66.1006 10.1191 65.3689 9.99546 64.8413 10.3703C64.3138 10.7453 64.1902 11.477 64.565 12.0045C66.0261 14.06 66.7986 16.4845 66.7986 19.0159ZM43.8448 27.8792C44.0797 27.8792 44.3169 27.8087 44.5228 27.6623C45.0503 27.2873 45.1739 26.5556 44.7991 26.0281C43.3375 23.9725 42.5652 21.5476 42.5652 19.0159C42.5652 12.3348 48.0006 6.89937 54.6819 6.89937C57.1495 6.89937 59.5234 7.63624 61.5472 9.03046C62.0803 9.39765 62.81 9.26312 63.177 8.73031C63.5444 8.19734 63.4098 7.46765 62.8769 7.10046C60.4605 5.43562 57.6266 4.55562 54.682 4.55562C46.7086 4.55562 40.2216 11.0425 40.2216 19.0159C40.2216 22.037 41.1439 24.9314 42.8888 27.3861C43.1172 27.7076 43.4783 27.8792 43.8448 27.8792ZM76.3281 74.2725C76.3281 74.9198 75.8036 75.4444 75.1562 75.4444H4.84375C4.19641 75.4444 3.67188 74.9198 3.67188 74.2725C3.67188 73.6251 4.19641 73.1006 4.84375 73.1006H12.0883V38.1519C12.0883 37.5045 12.6128 36.98 13.2602 36.98H24.6573C25.3047 36.98 25.8292 37.5045 25.8292 38.1519V73.1006H33.1294V46.0423C33.1294 45.395 33.6539 44.8705 34.3013 44.8705H45.6986C46.3459 44.8705 46.8705 45.395 46.8705 46.0423V73.1006H54.1706V53.9328C54.1706 53.2855 54.6952 52.7609 55.3425 52.7609H66.7397C67.387 52.7609 67.9116 53.2855 67.9116 53.9328V73.1006H75.1562C75.8036 73.1006 76.3281 73.6251 76.3281 74.2725ZM23.4856 73.1006V39.3237H14.432V73.1006H23.4856ZM44.5269 73.1006V47.2142H35.4733V73.1006H44.5269ZM65.568 73.1006V55.1047H56.5145V73.1006H65.568ZM36.6502 36.0514C41.7706 38.6176 47.2658 40.4994 52.9833 41.6442C57.4053 42.5298 61.967 42.9734 66.6208 42.9734C68.4108 42.9734 70.2145 42.9076 72.0289 42.7762L68.6241 46.1809C68.1664 46.6387 68.1664 47.3806 68.6241 47.8383C68.853 48.067 69.153 48.1814 69.4528 48.1814C69.7527 48.1814 70.0527 48.067 70.2816 47.8383L75.985 42.1348C76.2047 41.915 76.3281 41.617 76.3281 41.3061C76.3281 40.9952 76.2047 40.6973 75.9848 40.4773L70.2816 34.7741C69.8239 34.3166 69.082 34.3164 68.6242 34.7742C68.1666 35.2319 68.1666 35.9737 68.6244 36.4314L72.5753 40.3822C57.0355 41.6536 45.1561 37.6762 37.7964 34.0037C29.4081 29.8183 24.9078 25.1125 24.8448 25.0461C24.4014 24.5748 23.6603 24.552 23.1888 24.9953C22.717 25.4386 22.6942 26.1801 23.1375 26.6519C23.328 26.8547 27.9061 31.6689 36.6502 36.0514Z" fill="black"/>
</svg>
