<svg width="100" height="100" viewBox="0 0 100 100" fill="none" xmlns="http://www.w3.org/2000/svg">
<g clip-path="url(#clip0_139_3718)">
<path d="M29.6352 77.4635C30.2991 77.9284 31.2118 77.7661 31.6755 77.1043C35.8997 71.0754 36.2079 64.5848 36.1444 62.0743C36.1239 61.2653 35.447 60.6323 34.6429 60.6467C33.8339 60.6672 33.195 61.3395 33.2153 62.1483C33.2716 64.369 33.0003 70.1079 29.2759 75.4233C28.8118 76.0858 28.9727 76.9993 29.6352 77.4635Z" fill="#6E3572"/>
<path d="M85.3463 96.4046C85.1408 93.4378 84.509 90.1903 83.4686 86.7524C83.234 85.978 82.4162 85.5407 81.642 85.7747C80.8676 86.0091 80.4301 86.8269 80.6643 87.6013C81.6414 90.829 82.2332 93.8589 82.4234 96.6069C82.4406 96.8534 82.2518 97.0704 81.999 97.0704H66.4848C68.1008 93.2095 68.8814 90.4911 68.9186 90.3612C69.1398 89.5835 68.6889 88.7735 67.9111 88.5517C67.1322 88.3306 66.3228 88.781 66.1008 89.5587C66.0912 89.5917 65.1719 92.7849 63.2975 97.0702H56.2336C60.5629 90.4454 62.8383 84.4798 62.9424 84.2048C63.2281 83.4481 62.8463 82.6034 62.0896 82.3175C61.3332 82.0312 60.4877 82.413 60.2018 83.1696C60.1752 83.2394 57.5461 90.1167 52.6982 97.0702H41.1863C44.0871 94.5702 46.8436 91.9046 49.4117 89.1145C49.9596 88.5192 49.9211 87.5927 49.326 87.0446C48.7307 86.497 47.8039 86.5352 47.2561 87.1304C43.9873 90.6817 40.4025 94.0239 36.6006 97.0702H31.3C31.0896 97.0702 30.9088 96.9142 30.8795 96.7075C30.4178 93.4429 29.243 87.2118 26.5635 82.1614C25.7457 80.6202 26.0951 79.447 26.3344 78.1684C26.7314 76.0476 26.1664 73.8808 24.784 72.2235L21.9812 68.8642C20.6539 67.2731 20.6709 64.9776 22.0217 63.4063C26.4008 58.3124 23.3471 61.9698 33.5295 49.5597C33.5641 49.5235 33.6395 49.5294 33.6648 49.5937C35.7621 54.9136 40.0811 64.6505 45.4408 70.0876C48.9088 73.6087 52.5398 73.4589 57.3373 73.9142C56.0412 76.0231 54.1748 78.8112 51.6744 81.9636C51.1717 82.5974 51.2779 83.5188 51.9117 84.0216C52.1811 84.2353 52.5021 84.3388 52.8211 84.3388C53.2529 84.3388 53.6805 84.1487 53.9697 83.7843C57.0693 79.8765 59.2377 76.4944 60.5713 74.221L68.8811 75.0095C72.9199 75.3925 76.4535 77.761 78.3336 81.345C78.7096 82.0612 79.5941 82.3376 80.3113 81.9616C81.0277 81.5858 81.3037 80.7003 80.9279 79.9839C78.5859 75.5198 74.1857 72.5696 69.1576 72.0927L64.5566 71.6562C63.7047 69.9364 62.7467 67.5161 62.2705 64.6507C63.5699 63.4116 64.3311 61.6739 64.3311 59.8087V59.0784C65.8475 57.7888 66.9549 56.2218 67.5783 54.5243C69.0723 52.8872 70.0436 51.0288 70.4414 49.055L77.151 44.9911C78.7844 44.0021 78.1863 41.4896 76.2811 41.344L68.6189 40.7595C68.49 40.5751 68.3553 40.3937 68.2154 40.2151L73.2695 33.1919C74.5856 31.364 72.5416 28.9927 70.5379 30.0265L60.6893 35.1163C60.1973 34.9526 59.6932 34.8081 59.1783 34.6829L56.8055 23.6118C56.2625 21.0786 52.6268 21.0694 52.0818 23.6118L49.7088 34.6829C49.1939 34.8079 48.6896 34.9526 48.198 35.1163L38.3494 30.0263C36.3479 28.9915 34.3014 31.3628 35.6176 33.1917L40.6717 40.2149C40.5318 40.3937 40.3973 40.5751 40.2684 40.7593L32.6064 41.3438C32.0838 41.3837 31.617 41.6253 31.2861 41.9966L29.7826 37.2866V36.2099C31.3375 35.7128 32.2363 34.0669 31.792 32.4825C31.792 32.4823 31.7918 32.4823 31.7918 32.4823L30.9637 29.531C30.7664 28.829 30.3371 28.2536 29.7826 27.8632V24.3382H31.4371C33.8158 24.3382 35.751 22.403 35.751 20.0243V17.8249C35.751 16.361 34.56 15.17 33.0959 15.17H32.6947C34.549 9.66084 32.2182 3.85264 27.2283 0.602246C25.9949 -0.200684 24.401 -0.200879 23.168 0.602441C18.2412 3.81182 15.8248 9.59658 17.7018 15.1702H17.3006C15.8365 15.1702 14.6455 16.3612 14.6455 17.8251V20.0249C14.6455 22.4036 16.5807 24.3388 18.9594 24.3388H20.6139V29.2665L19.9791 29.4446C18.3551 29.9005 17.4096 31.5833 17.8654 33.2075L18.6934 36.1585C18.9137 36.9435 19.4264 37.5954 20.1373 37.9948C20.2912 38.0813 20.4508 38.1522 20.6139 38.2103C20.6139 41.5083 20.4043 37.8308 21.9775 58.964L19.8004 61.4966C17.5123 64.1583 17.4838 68.0462 19.732 70.7413L22.5346 74.1005C23.3551 75.0843 23.6906 76.3706 23.4549 77.6298C23.2178 78.8972 22.6334 81.0044 23.9756 83.5345C26.5377 88.3638 27.6287 94.6427 27.9789 97.1183C28.2115 98.7612 29.6395 100 31.3002 100H81.999C83.9383 100 85.4809 98.3505 85.3463 96.4046ZM73.0713 44.0376L70.5525 45.563C70.4717 44.9716 70.3395 44.3884 70.157 43.8153L73.0713 44.0376ZM48.5838 68.9349C48.8641 68.0589 49.0986 67.1778 49.2865 66.2964C52.8564 67.9314 54.4115 68.1896 55.9799 67.6814C57.1887 67.2886 58.427 66.8267 59.601 66.2966C60.008 68.2069 60.59 69.9091 61.191 71.337C52.9824 70.5581 51.1568 70.7935 48.5838 68.9349ZM61.402 59.8089C61.402 61.0464 60.81 62.1771 59.8477 62.8616C59.2682 63.2769 57.4365 64.1138 55.2754 64.829C55.0301 64.9101 54.5074 65.12 53.8127 64.8946C52.6246 64.5093 50.0215 63.5548 49.0277 62.8538C48.0656 62.1601 47.4857 61.0343 47.4857 59.8087L47.4883 52.1335C50.0195 51.6104 52.5301 50.3866 54.4438 48.5313C56.9105 50.9228 59.8502 51.8138 61.3994 52.1335L61.4002 52.1292C61.4008 52.1294 61.4014 52.1294 61.402 52.1296V59.8089ZM64.3316 54.6124V52.1296C64.3316 51.7845 64.2701 51.4505 64.1566 51.139C63.8164 50.2046 63.0086 49.4743 61.9918 49.2645H61.9916C60.735 49.0052 58.335 48.2786 56.3812 46.3278C55.3131 45.261 53.5746 45.2614 52.5062 46.3278C50.5527 48.2786 48.1527 49.0052 46.8959 49.2645C45.5402 49.5444 44.5561 50.7495 44.5561 52.1296V54.6122C41.4631 49.2163 46.6127 43.0124 54.4439 43.0124C62.2213 43.0124 67.4508 49.1712 64.3316 54.6124ZM68.9891 34.1251L66.1459 38.0761C65.5168 37.5558 64.8334 37.0782 64.1057 36.6489L68.9891 34.1251ZM54.4439 26.572L56.076 34.1872C55.5391 34.1444 54.9947 34.122 54.4439 34.122C53.893 34.122 53.3484 34.1442 52.8115 34.1872L54.4439 26.572ZM66.5496 42.9241C67.5697 44.6124 67.9064 46.4173 67.6232 48.1769C65.7971 43.0405 60.0283 40.0829 54.4438 40.0829C48.0191 40.0829 42.8721 43.6513 41.2643 48.1772C39.4693 37.0274 60.3016 32.5392 66.5496 42.9241ZM39.8986 34.1251L44.782 36.6489C44.0541 37.078 43.3707 37.5558 42.7418 38.0761L39.8986 34.1251ZM38.7307 43.8153C38.548 44.3886 38.416 44.9716 38.3352 45.563L35.8164 44.0376L38.7307 43.8153ZM38.4455 49.0552C38.8436 51.0292 39.8148 52.8878 41.309 54.5251C41.9326 56.2226 43.0398 57.7894 44.5561 59.0786V59.8087C44.5561 61.6737 45.317 63.4114 46.616 64.6505C46.5098 65.2899 46.375 65.9314 46.2127 66.5726C41.6227 61.0747 37.8742 52.2813 36.391 48.5192C36.1779 47.9786 35.8246 47.5263 35.3775 47.1968L38.4455 49.0552ZM34.9205 46.9202C34.2701 46.6017 33.5143 46.5171 32.7918 46.7136L32.3635 45.3714L34.9205 46.9202ZM23.5461 40.605C23.5455 40.6005 23.5441 40.596 23.5436 40.5915V37.9669L26.8527 37.0382V40.5937C26.8527 40.6337 26.8203 40.6661 26.7805 40.6661H23.6158C23.5732 40.6663 23.5494 40.6304 23.5461 40.605ZM30.3771 48.7833L24.675 55.7331L23.7713 43.5958H26.7805C27.4342 43.5958 28.0508 43.3804 28.5391 43.0253L30.3771 48.7833ZM24.7668 3.05752C25.0289 2.88662 25.3678 2.88682 25.6295 3.05732C29.7027 5.71064 31.1473 10.0204 30.0441 13.8427C29.5414 12.0556 28.3592 10.454 26.6723 9.35537C25.7771 8.77217 24.6197 8.77217 23.7242 9.35537C22.0373 10.454 20.8551 12.0556 20.3523 13.8427C19.2463 10.0138 20.7008 5.70596 24.7668 3.05752ZM27.342 15.1702H23.0543C23.2385 13.8856 23.9957 12.7204 25.1982 11.894C26.4008 12.7204 27.1578 13.8854 27.342 15.1702ZM18.9594 21.4089C18.1961 21.4089 17.5752 20.788 17.5752 20.0247V18.0999H32.8211V20.0247C32.8211 20.788 32.2002 21.4089 31.4369 21.4089C30.1059 21.4089 20.2893 21.4089 18.9594 21.4089ZM26.8527 24.3386V27.5157L23.5436 28.4442V24.3386H26.8527ZM21.6648 35.4513C21.6002 35.47 21.5322 35.4317 21.5143 35.3669L20.6863 32.4159C20.6678 32.3501 20.7053 32.2837 20.7707 32.2653L27.9926 30.239C28.0465 30.2229 28.1236 30.2532 28.1432 30.3233L28.9711 33.2743C28.9895 33.3392 28.9514 33.4067 28.8867 33.4249C28.1074 33.6435 22.4465 35.2317 21.6648 35.4513Z" fill="#6E3572"/>
</g>
<defs>
<clipPath id="clip0_139_3718">
<rect width="100" height="100" fill="white"/>
</clipPath>
</defs>
</svg>
