<svg width="86" height="80" viewBox="0 0 86 80" fill="none" xmlns="http://www.w3.org/2000/svg">
<path d="M78.9231 0H39.2173C37.4628 0.00213493 35.7808 0.711102 34.5402 1.97139C33.2996 3.23167 32.6017 4.94038 32.5996 6.72269V19.5711C31.9378 19.5267 31.2761 19.4958 30.6143 19.4958C24.8937 19.4945 19.2938 21.1671 14.4842 24.3135C9.67458 27.46 5.85888 31.9471 3.49337 37.2385C1.12785 42.5298 0.312645 48.4012 1.14522 54.1508C1.9778 59.9003 4.42292 65.2846 8.1882 69.6597C11.9535 74.0348 16.8796 77.2156 22.3774 78.8217C27.8752 80.4278 33.712 80.3913 39.1899 78.7164C44.6678 77.0416 49.5549 73.7994 53.2668 69.3774C56.9787 64.9555 59.3583 59.541 60.1211 53.7815H78.9231C80.6776 53.7794 82.3596 53.0704 83.6002 51.8101C84.8408 50.5498 85.5387 48.8411 85.5408 47.0588V6.72269C85.5387 4.94038 84.8408 3.23167 83.6002 1.97139C82.3596 0.711102 80.6776 0.00213493 78.9231 0ZM35.2467 22.6165C35.3473 22.6339 35.4505 22.6447 35.5498 22.6649L35.2467 22.9728V22.6165ZM56.6402 42.0168C56.914 42.9761 57.1349 43.9502 57.302 44.9345L51.2402 51.0924H47.7064L56.6402 42.0168ZM37.232 50.5331C36.4884 50.1008 35.9025 49.4357 35.5617 48.6373L51.6161 32.3281C52.1455 32.9896 52.655 33.6726 53.1262 34.3866L37.232 50.5331ZM35.2467 37.76V34.1701L43.6789 25.604C44.4306 26.0262 45.1608 26.482 45.8693 26.9714L35.2467 37.76ZM30.6143 77.3109C23.4184 77.3109 16.5171 74.407 11.4288 69.2379C6.34053 64.0688 3.48196 57.0581 3.48196 49.7479C3.48196 42.4377 6.34053 35.427 11.4288 30.2579C16.5171 25.0888 23.4184 22.1849 30.6143 22.1849C31.284 22.1849 31.9378 22.2387 32.5996 22.2871V47.0588C32.6017 48.8411 33.2996 50.5498 34.5402 51.8101C35.7808 53.0704 37.4628 53.7794 39.2173 53.7815H57.4224C56.4675 60.3145 53.2365 66.2825 48.3169 70.6004C43.3973 74.9184 37.1157 77.2995 30.6143 77.3109ZM57.6792 51.0924H54.9858L57.6778 48.3576C57.7003 48.8215 57.7467 49.2787 57.7467 49.7479C57.7467 50.2171 57.7017 50.6434 57.6792 51.0924ZM82.8937 47.0588C82.8899 47.7727 82.6975 48.4725 82.3365 49.085L80.9177 50.5264C80.3147 50.8931 79.6259 51.0886 78.9231 51.0924H60.3606C60.3792 50.6461 60.3937 50.1983 60.3937 49.7479C60.3845 42.5427 57.848 35.5767 53.2393 30.0999C48.6306 24.6232 42.2515 20.9942 35.2467 19.8642V6.72269C35.2467 5.65291 35.665 4.62694 36.4096 3.87049C37.1543 3.11404 38.1642 2.68908 39.2173 2.68908H78.9231C79.9762 2.68908 80.9861 3.11404 81.7308 3.87049C82.4754 4.62694 82.8937 5.65291 82.8937 6.72269V47.0588Z" fill="#603C93"/>
</svg>
