<svg width="75" height="80" viewBox="0 0 75 80" fill="none" xmlns="http://www.w3.org/2000/svg">
<path d="M49.6986 16.7713C49.6986 18.7878 48.0872 20.4275 46.1074 20.4275H44.9072V22.5749C44.9072 23.055 44.5249 23.4442 44.0533 23.4442C43.5818 23.4442 43.1995 23.055 43.1995 22.5749V20.4275H39.8349C39.3634 20.4275 38.9811 20.0383 38.9811 19.5582C38.9811 19.0782 39.3634 18.6889 39.8349 18.6889H46.1074C47.1459 18.6889 47.991 17.8285 47.991 16.7713C47.991 15.7141 47.1459 14.8537 46.1074 14.8537H41.9992C40.0186 14.8537 38.4081 13.2131 38.4081 11.1966C38.4081 9.18014 40.0195 7.54041 41.9992 7.54041H43.1995V5.39301C43.1995 4.91294 43.5818 4.52371 44.0533 4.52371C44.5249 4.52371 44.9072 4.91294 44.9072 5.39301V7.54041H48.2718C48.7433 7.54041 49.1256 7.92964 49.1256 8.40971C49.1256 8.88978 48.7433 9.279 48.2718 9.279H41.9992C40.9608 9.279 40.1157 10.1394 40.1157 11.1966C40.1157 12.2538 40.9608 13.1142 41.9992 13.1142H46.1074C48.0872 13.1151 49.6986 14.7557 49.6986 16.7713ZM28.5234 43.0826V47.0701C28.5234 47.6268 28.3309 48.1372 28.0107 48.5389C28.3309 48.9405 28.5234 49.4518 28.5234 50.0076V53.9951C28.5234 54.5518 28.3309 55.0621 28.0107 55.4647C28.3309 55.8664 28.5234 56.3776 28.5234 56.9343V60.9218C28.5234 61.4785 28.3309 61.9889 28.0107 62.3915C28.3309 62.7931 28.5234 63.3044 28.5234 63.8611V67.8486C28.5234 69.1383 27.4928 70.1875 26.226 70.1875H2.92231C1.65555 70.1875 0.625 69.1383 0.625 67.8486V63.8611C0.625 63.3044 0.817463 62.794 1.13765 62.3915C0.817463 61.9898 0.625 61.4785 0.625 60.9218V56.9343C0.625 56.3776 0.817463 55.8673 1.13765 55.4647C0.817463 55.063 0.625 54.5518 0.625 53.9951V50.0076C0.625 49.4509 0.817463 48.9405 1.13678 48.5389C0.817463 48.1372 0.625 47.6259 0.625 47.0701V43.0826C0.625 41.7929 1.65555 40.7437 2.92231 40.7437H26.2269C27.4928 40.7437 28.5234 41.7929 28.5234 43.0826ZM2.33354 47.0701C2.33354 47.4006 2.59687 47.6687 2.92143 47.6696H26.2269C26.5454 47.6687 26.8157 47.3943 26.8157 47.0701V43.0826C26.8157 42.7522 26.5515 42.4832 26.2269 42.4832H2.92231C2.59774 42.4832 2.33354 42.7522 2.33354 43.0826V47.0701ZM26.2269 49.409H2.92231C2.59862 49.4099 2.33354 49.678 2.33354 50.0085V53.996C2.33354 54.3264 2.59774 54.5954 2.92231 54.5954H26.2269C26.5462 54.5954 26.8157 54.3211 26.8157 53.996V50.0085C26.8157 49.6834 26.5454 49.4099 26.2269 49.409ZM26.2269 56.3349H2.92231C2.59774 56.3349 2.33354 56.6039 2.33354 56.9343V60.9218C2.33354 61.2523 2.59774 61.5213 2.92231 61.5213H26.2269C26.5462 61.5213 26.8157 61.2469 26.8157 60.9218V56.9343C26.8157 56.6039 26.5515 56.3349 26.2269 56.3349ZM26.8157 63.8602C26.8157 63.5351 26.5462 63.2607 26.2269 63.2607H2.92231C2.59774 63.2607 2.33354 63.5297 2.33354 63.8602V67.8477C2.33354 68.1781 2.59774 68.4471 2.92231 68.4471H26.2269C26.5462 68.4471 26.8157 68.1728 26.8157 67.8477V63.8602ZM74.6952 62.1358C74.6952 71.9866 66.8234 80 57.1487 80C50.2139 80 44.2064 75.8833 41.3597 69.9239H32.4015C31.1347 69.9239 30.1042 68.8746 30.1042 67.585V63.5974C30.1042 63.0407 30.2966 62.5304 30.6168 62.1278C30.2966 61.7261 30.1042 61.2149 30.1042 60.6582V56.6707C30.1042 56.114 30.2966 55.6037 30.6168 55.2011C30.2966 54.7994 30.1042 54.2881 30.1042 53.7315V49.7457C30.1042 49.189 30.2966 48.6787 30.6168 48.2761C30.2966 47.8744 30.1042 47.3632 30.1042 46.8065V42.819C30.1042 42.2623 30.2966 41.7519 30.6168 41.3494C30.2966 40.9477 30.1042 40.4364 30.1042 39.8798V35.8922C30.1042 35.3356 30.2966 34.8252 30.6168 34.4226C30.2966 34.0209 30.1042 33.5097 30.1042 32.953V28.9655C30.1042 27.6758 31.1347 26.6266 32.4015 26.6266H37.3766C33.0576 24.2147 30.1234 19.5413 30.1234 14.183C30.1234 6.36295 36.3723 0 44.0542 0C51.7361 0 57.9842 6.36206 57.9842 14.183C57.9842 19.5422 55.0491 24.2147 50.7309 26.6266H55.7061C56.9728 26.6266 58.0034 27.6758 58.0034 28.9655V32.953C58.0034 33.5097 57.8109 34.02 57.4907 34.4226C57.8109 34.8243 58.0034 35.3356 58.0034 35.8922V39.8798C58.0034 40.4364 57.8109 40.9468 57.4907 41.3494C57.8109 41.7511 58.0034 42.2623 58.0034 42.819V44.2913C67.2827 44.7482 74.6952 52.5772 74.6952 62.1358ZM40.6424 56.0721H32.4006C32.0813 56.0721 31.8118 56.3465 31.8118 56.6716V60.6591C31.8118 60.9895 32.076 61.2585 32.4006 61.2585H39.6223C39.7089 59.4469 40.0624 57.7047 40.6424 56.0721ZM45.1154 49.1463H32.4006C32.0813 49.1463 31.8118 49.4206 31.8118 49.7457V53.7332C31.8118 54.0583 32.0813 54.3327 32.4006 54.3327H41.3659C42.3019 52.3785 43.5774 50.623 45.1154 49.1463ZM56.294 44.293V42.8208C56.294 42.4903 56.0298 42.2213 55.7052 42.2213H32.4006C32.0813 42.2213 31.8118 42.4957 31.8118 42.8208V46.8083C31.8118 47.1334 32.0813 47.4077 32.4006 47.4077H47.2299C49.8334 45.5845 52.9416 44.4569 56.294 44.293ZM32.4006 40.481H55.7052C56.0298 40.481 56.294 40.212 56.294 39.8815V35.894C56.294 35.5636 56.0298 35.2946 55.7052 35.2946H32.4006C32.0813 35.2946 31.8118 35.5689 31.8118 35.894V39.8815C31.8118 40.2066 32.0813 40.481 32.4006 40.481ZM44.0533 26.6293C50.793 26.6293 56.2756 21.0474 56.2756 14.1857C56.2756 7.32398 50.7922 1.74215 44.0533 1.74215C37.3136 1.74215 31.8311 7.32398 31.8311 14.1857C31.8311 21.0474 37.3136 26.6293 44.0533 26.6293ZM31.8118 32.9557C31.8118 33.2808 32.0813 33.5551 32.4006 33.5551H55.7052C56.0298 33.5551 56.294 33.2861 56.294 32.9557V28.9682C56.294 28.6377 56.0298 28.3687 55.7052 28.3687H32.4006C32.076 28.3687 31.8118 28.6377 31.8118 28.9682V32.9557ZM40.638 68.1853C40.0589 66.5527 39.7072 64.8105 39.6223 62.998H32.4015C32.0822 62.998 31.8127 63.2723 31.8127 63.5974V67.585C31.8127 67.91 32.0822 68.1844 32.4015 68.1844L40.638 68.1853ZM72.9866 62.1358C72.9866 53.2443 65.8812 46.0102 57.1478 46.0102C48.4144 46.0102 41.309 53.2443 41.309 62.1358C41.309 71.0274 48.4144 78.2614 57.1478 78.2614C65.8812 78.2614 72.9866 71.0274 72.9866 62.1358ZM45.0944 61.2665H43.4173C42.9458 61.2665 42.5635 61.6558 42.5635 62.1358C42.5635 62.6159 42.9458 63.0051 43.4173 63.0051H45.0944C45.5659 63.0051 45.9482 62.6159 45.9482 62.1358C45.9482 61.6558 45.5659 61.2665 45.0944 61.2665ZM57.1478 47.2866C56.6763 47.2866 56.294 47.6758 56.294 48.1559V49.8633C56.294 50.3434 56.6763 50.7326 57.1478 50.7326C57.6193 50.7326 58.0016 50.3434 58.0016 49.8633V48.1559C58.0025 47.6758 57.6202 47.2866 57.1478 47.2866ZM70.8792 61.2665H69.2021C68.7306 61.2665 68.3483 61.6558 68.3483 62.1358C68.3483 62.6159 68.7306 63.0051 69.2021 63.0051H70.8792C71.3507 63.0051 71.733 62.6159 71.733 62.1358C71.733 61.6558 71.3507 61.2665 70.8792 61.2665ZM57.1478 52.8755C56.6763 52.8755 56.294 53.2648 56.294 53.7448V61.2656L49.5403 61.2594H49.5394C49.0679 61.2594 48.6856 61.6477 48.6856 62.1278C48.6856 62.6079 49.067 62.998 49.5385 62.998L57.1469 63.0051C57.3735 63.0051 57.5914 62.9134 57.7514 62.7504C57.9115 62.5874 58.0016 62.3656 58.0016 62.1349V53.7448C58.0025 53.2648 57.6202 52.8755 57.1478 52.8755ZM57.1478 73.5382C56.6763 73.5382 56.294 73.9274 56.294 74.4075V76.1149C56.294 76.595 56.6763 76.9842 57.1478 76.9842C57.6193 76.9842 58.0016 76.595 58.0016 76.1149V74.4084C58.0025 73.9274 57.6202 73.5382 57.1478 73.5382Z" fill="#603C93"/>
</svg>
