<svg width="88" height="80" viewBox="0 0 88 80" fill="none" xmlns="http://www.w3.org/2000/svg">
<path d="M34.9188 13.6168H38.852V31.0504C38.852 31.5161 39.2304 31.9008 39.6884 31.9008C40.1465 31.9008 40.5249 31.5161 40.5249 31.0504V12.7664C40.5249 12.3007 40.1465 11.916 39.6884 11.916H36.6415L44.1494 2.21716L51.6574 11.916H48.6104C48.1523 11.916 47.7739 12.3007 47.7739 12.7664V31.0504C47.7739 31.5161 48.1523 31.9008 48.6104 31.9008C49.0684 31.9008 49.4468 31.5161 49.4468 31.0504V13.6168H53.38C53.6987 13.6168 53.9874 13.4346 54.1368 13.141C54.2762 12.8474 54.2364 12.5032 54.0372 12.2399L44.8365 0.364464C44.7867 0.293596 44.7269 0.232853 44.6672 0.172108C44.5875 0.111364 44.4979 0.0607439 44.4083 0.0303718C44.4083 0.0303718 44.3585 0.0202483 44.3386 0.0101243H44.3286C44.3286 0.0101243 44.2888 0 44.2689 0H44.249C44.249 0 44.2191 0 44.1992 0H44.1295C44.1295 0 44.0996 0 44.0797 0H44.0598C44.0598 0 44.02 2.31947e-07 44 0.0101243H43.9901C43.9901 0.0101243 43.9403 0.0202478 43.9204 0.0303718C43.8308 0.0607439 43.7411 0.111364 43.6615 0.172108C43.5918 0.222729 43.532 0.293596 43.4922 0.364464L34.2915 12.2399C34.0923 12.493 34.0525 12.8474 34.1919 13.141C34.3313 13.4346 34.6201 13.6168 34.9487 13.6168H34.9188Z" fill="#603C93"/>
<path d="M60.0204 21.797H63.9536V39.2306C63.9536 39.6963 64.332 40.081 64.79 40.081C65.2481 40.081 65.6264 39.6963 65.6264 39.2306V20.9466C65.6264 20.4809 65.2481 20.0962 64.79 20.0962H61.743L69.251 10.3974L76.7589 20.0962H73.7119C73.2539 20.0962 72.8755 20.4809 72.8755 20.9466V39.2306C72.8755 39.6963 73.2539 40.081 73.7119 40.081C74.17 40.081 74.5484 39.6963 74.5484 39.2306V21.797H78.4816C78.8002 21.797 79.089 21.6148 79.2383 21.3212C79.3777 21.0276 79.3379 20.6834 79.1388 20.4202L69.938 8.5447C69.8882 8.47383 69.8285 8.41309 69.7688 8.35235C69.6891 8.2916 69.5995 8.24098 69.5099 8.21061C69.5099 8.21061 69.4601 8.20049 69.4402 8.19036H69.4302C69.4302 8.19036 69.3904 8.18024 69.3705 8.18024H69.3505C69.3505 8.18024 69.3207 8.18024 69.3008 8.18024H69.2311C69.2311 8.18024 69.2012 8.18024 69.1813 8.18024H69.1613C69.1613 8.18024 69.1215 8.18024 69.1016 8.19036H69.0916C69.0916 8.19036 69.0419 8.20049 69.0219 8.21061C68.9323 8.24098 68.8427 8.2916 68.763 8.35235C68.6933 8.40297 68.6336 8.47383 68.5938 8.5447L59.393 20.4202C59.1939 20.6733 59.1541 21.0276 59.2935 21.3212C59.4329 21.6148 59.7216 21.797 60.0502 21.797H60.0204Z" fill="#603C93"/>
<path d="M9.80728 21.797H13.7405V39.2306C13.7405 39.6963 14.1189 40.081 14.5769 40.081C15.035 40.081 15.4134 39.6963 15.4134 39.2306V20.9466C15.4134 20.4809 15.035 20.0962 14.5769 20.0962H11.5299L19.0379 10.3974L26.5458 20.0962H23.4989C23.0408 20.0962 22.6624 20.4809 22.6624 20.9466V39.2306C22.6624 39.6963 23.0408 40.081 23.4989 40.081C23.9569 40.081 24.3353 39.6963 24.3353 39.2306V21.797H28.2685C28.5871 21.797 28.8759 21.6148 29.0253 21.3212C29.1647 21.0276 29.1248 20.6834 28.9257 20.4202L19.725 8.5447C19.6752 8.47383 19.6154 8.41309 19.5557 8.35235C19.476 8.2916 19.3864 8.24098 19.2968 8.21061C19.2968 8.21061 19.247 8.20049 19.2271 8.19036C19.2271 8.19036 19.1873 8.18024 19.1673 8.18024H19.1474C19.1474 8.18024 19.1175 8.18024 19.0976 8.18024H19.0279C19.0279 8.18024 18.9981 8.18024 18.9781 8.18024H18.9582C18.9582 8.18024 18.9184 8.18024 18.8985 8.19036H18.8885C18.8885 8.19036 18.8387 8.20049 18.8188 8.21061C18.7292 8.24098 18.6396 8.2916 18.5599 8.35235C18.4902 8.40297 18.4305 8.47383 18.3907 8.5447L9.18992 20.4202C8.99077 20.6733 8.95094 21.0276 9.09034 21.3212C9.22975 21.6148 9.51852 21.797 9.84711 21.797H9.80728Z" fill="#603C93"/>
<path d="M58.9149 64.976C59.5622 64.3179 59.6518 63.2954 59.124 62.5361L56.5052 58.7497L60.996 57.96C61.8922 57.7981 62.5494 57.0084 62.5494 56.0871V50.9947C62.5494 50.0633 61.8922 49.2736 60.996 49.1218L56.5152 48.3321L59.1439 44.5356C59.6717 43.7763 59.5821 42.7538 58.9348 42.0957L55.3999 38.5017C54.7527 37.8436 53.747 37.7525 53.0002 38.2891L49.2761 40.9517L48.4994 36.3857C48.3401 35.4746 47.5634 34.8064 46.6572 34.8064H41.6486C40.7325 34.8064 39.9558 35.4746 39.8065 36.3857L39.0298 40.9416L35.2957 38.2688C34.5489 37.7322 33.5432 37.8234 32.896 38.4814L29.361 42.0754C28.7138 42.7335 28.6242 43.756 29.1519 44.5153L31.7708 48.3017L27.2799 49.0914C26.3838 49.2534 25.7266 50.043 25.7266 50.9643V56.0567C25.7266 56.9881 26.3838 57.7778 27.2799 57.9297L31.7608 58.7193L29.132 62.5158C28.6043 63.2751 28.6939 64.2977 29.3411 64.9557L32.876 68.5498C33.5233 69.2078 34.529 69.2989 35.2758 68.7624L38.9999 66.0998L39.7766 70.6657C39.9359 71.5769 40.7126 72.245 41.6187 72.245H46.6274C47.5434 72.245 48.3201 71.5769 48.4695 70.6657L49.2462 66.1099L52.9802 68.7826C53.7271 69.3192 54.7328 69.2281 55.38 68.57L58.9149 64.976ZM53.9362 67.3956L49.6146 64.2977C49.3756 64.1256 49.0669 64.0952 48.7981 64.2167C48.6189 64.2977 48.4396 64.3685 48.2504 64.4394C47.9716 64.5508 47.7725 64.7938 47.7227 65.0873L46.8166 70.3721C46.7966 70.4733 46.717 70.5442 46.6174 70.5442H41.6088C41.5092 70.5442 41.4295 70.4733 41.4096 70.3721L40.5035 65.0772C40.4537 64.7836 40.2546 64.5406 39.9758 64.4293C39.7965 64.3584 39.6073 64.2774 39.4281 64.1964C39.3186 64.1458 39.209 64.1256 39.0895 64.1256C38.9203 64.1256 38.751 64.1762 38.6116 64.2774L34.3 67.3653C34.2203 67.426 34.1108 67.4159 34.0411 67.345L30.5062 63.751C30.4365 63.6801 30.4265 63.5687 30.4862 63.4878L33.5034 59.1344C33.6727 58.8914 33.7025 58.5675 33.583 58.2941C33.4934 58.1018 33.4138 57.8993 33.3341 57.6867C33.2246 57.4133 32.9856 57.2109 32.6968 57.1602L27.5587 56.2491C27.4592 56.2288 27.3895 56.1478 27.3895 56.0466V50.9542C27.3895 50.853 27.4592 50.772 27.5587 50.7517L32.6371 49.8507C32.9258 49.8001 33.1748 49.5976 33.2743 49.3141C33.354 49.0813 33.4536 48.8585 33.5432 48.6358C33.6627 48.3625 33.6328 48.0486 33.4635 47.8056L30.5062 43.5333C30.4464 43.4523 30.4564 43.3409 30.5261 43.2701L34.061 39.676C34.1307 39.6052 34.2402 39.5951 34.3199 39.6558L38.4921 42.6424C38.7311 42.8145 39.0497 42.8449 39.3186 42.7234C39.5476 42.612 39.7965 42.5108 40.0355 42.4197C40.3143 42.3184 40.5135 42.0653 40.5632 41.7717L41.4395 36.6793C41.4594 36.5781 41.5391 36.5072 41.6387 36.5072H46.6473C46.7468 36.5072 46.8265 36.5781 46.8464 36.6793L47.7227 41.7818C47.7725 42.0754 47.9716 42.3285 48.2504 42.4298C48.4894 42.5209 48.7384 42.6221 48.9674 42.7335C49.2362 42.855 49.5549 42.8347 49.7938 42.6525L53.9561 39.676C54.0357 39.6153 54.1453 39.6254 54.215 39.6963L57.7499 43.2903C57.8196 43.3612 57.8296 43.4726 57.7698 43.5536L54.8025 47.836C54.6332 48.079 54.6033 48.3928 54.7228 48.6662C54.8224 48.8889 54.912 49.1218 54.9917 49.3445C55.0912 49.628 55.3402 49.8304 55.6289 49.8912L60.6973 50.7922C60.7969 50.8125 60.8666 50.8935 60.8666 50.9947V56.0871C60.8666 56.1883 60.7969 56.2693 60.6973 56.2896L55.5493 57.2007C55.2605 57.2514 55.0215 57.4538 54.912 57.7272C54.8323 57.9297 54.7527 58.1321 54.6631 58.3346C54.5436 58.608 54.5734 58.9319 54.7427 59.1749L57.7499 63.5181C57.8096 63.5991 57.7997 63.7105 57.73 63.7813L54.1951 67.3754C54.1254 67.4462 54.0158 67.4564 53.9362 67.3956Z" fill="#603C93"/>
<path d="M44.126 46.3376C40.1829 46.3376 36.9766 49.5976 36.9766 53.6067C36.9766 57.6158 40.1829 60.8757 44.126 60.8757C48.0692 60.8757 51.2755 57.6158 51.2755 53.6067C51.2755 49.5976 48.0692 46.3376 44.126 46.3376ZM44.126 59.185C41.099 59.185 38.6494 56.6844 38.6494 53.6168C38.6494 50.5492 41.1089 48.0486 44.126 48.0486C47.1432 48.0486 49.6027 50.5492 49.6027 53.6168C49.6027 56.6844 47.1432 59.185 44.126 59.185Z" fill="#603C93"/>
<path d="M19.0245 54.0825C15.0813 54.0825 11.875 57.3424 11.875 61.3515C11.875 65.3606 15.0813 68.6206 19.0245 68.6206C22.9677 68.6206 26.174 65.3606 26.174 61.3515C26.174 57.3424 22.9677 54.0825 19.0245 54.0825ZM19.0245 66.9298C15.9974 66.9298 13.5479 64.4292 13.5479 61.3616C13.5479 58.2941 16.0074 55.7934 19.0245 55.7934C22.0416 55.7934 24.5011 58.2941 24.5011 61.3616C24.5011 64.4292 22.0416 66.9298 19.0245 66.9298Z" fill="#603C93"/>
<path d="M32.6227 71.516L29.0878 75.1101C29.0181 75.1809 28.9086 75.191 28.8289 75.1303L24.5074 72.0324C24.2684 71.8602 23.9597 71.8299 23.6909 71.9514C23.5116 72.0324 23.3324 72.1032 23.1432 72.1741C22.8644 72.2855 22.6652 72.5284 22.6155 72.822L21.7093 78.1068C21.6894 78.208 21.6097 78.2789 21.5102 78.2789H16.5015C16.402 78.2789 16.3223 78.208 16.3024 78.1068L15.3963 72.8119C15.3465 72.5183 15.1473 72.2753 14.8685 72.164C14.6893 72.0931 14.5001 72.0121 14.3209 71.9311C14.052 71.8096 13.7433 71.84 13.5043 72.0121L9.19274 75.0999C9.11308 75.1607 9.00355 75.1506 8.93385 75.0797L5.39893 71.4857C5.32923 71.4148 5.31927 71.3034 5.37902 71.2224L8.39614 66.8691C8.56542 66.6261 8.59529 66.3022 8.4758 66.0288C8.38618 65.8365 8.30652 65.634 8.22686 65.4214C8.11733 65.148 7.87835 64.9455 7.58958 64.8949L2.45151 63.9838C2.35194 63.9635 2.28224 63.8825 2.28224 63.7813V58.6889C2.28224 58.5877 2.35194 58.5067 2.45151 58.4864L7.52984 57.5854C7.81861 57.5348 8.06754 57.3323 8.16712 57.0488C8.24678 56.8159 8.34635 56.5932 8.43597 56.3705C8.55546 56.0971 8.52559 55.7833 8.35631 55.5403L5.39893 51.268C5.33919 51.187 5.34915 51.0756 5.41885 51.0048L8.95376 47.4107C9.02347 47.3399 9.133 47.3297 9.21266 47.3905L13.3848 50.3771C13.6238 50.5492 13.9425 50.5796 14.2113 50.4581C14.4403 50.3467 14.6893 50.2455 14.9283 50.1543C15.2071 50.0531 15.4062 49.8 15.456 49.5064L16.3323 44.414C16.3522 44.3128 16.4318 44.2419 16.5314 44.2419H21.54C21.6396 44.2419 21.7193 44.3128 21.7392 44.414L22.6155 49.5165C22.6951 49.9822 23.1233 50.286 23.5813 50.205C24.0394 50.124 24.3381 49.6886 24.2584 49.2229L23.3822 44.1204C23.2229 43.2093 22.4462 42.5411 21.54 42.5411H16.5314C15.6153 42.5411 14.8386 43.2093 14.6893 44.1204L13.9126 48.6762L10.1785 46.0035C9.43172 45.4669 8.42601 45.558 7.77878 46.2161L4.24386 49.8101C3.59663 50.4682 3.50701 51.4907 4.03476 52.25L6.65358 56.0364L2.16275 56.8261C1.26657 56.9881 0.609375 57.7777 0.609375 58.699V63.7914C0.609375 64.7228 1.26657 65.5125 2.16275 65.6643L6.64362 66.454L4.01484 70.2505C3.48709 71.0098 3.57671 72.0324 4.22395 72.6904L7.75886 76.2844C8.4061 76.9425 9.41181 77.0336 10.1586 76.497L13.8827 73.8344L14.6594 78.4004C14.8187 79.3115 15.5954 79.9797 16.5015 79.9797H21.5102C22.4263 79.9797 23.2029 79.3115 23.3523 78.4004L24.129 73.8446L27.8631 76.5173C28.6099 77.0539 29.6156 76.9628 30.2628 76.3047L33.7977 72.7107C34.1263 72.3766 34.1263 71.84 33.7977 71.5059C33.4691 71.1718 32.9414 71.1718 32.6128 71.5059L32.6227 71.516Z" fill="#603C93"/>
<path d="M69.2276 68.6206C73.1708 68.6206 76.3771 65.3606 76.3771 61.3515C76.3771 57.3424 73.1708 54.0825 69.2276 54.0825C65.2844 54.0825 62.0781 57.3424 62.0781 61.3515C62.0781 65.3606 65.2844 68.6206 69.2276 68.6206ZM69.2276 55.7732C72.2547 55.7732 74.7042 58.2738 74.7042 61.3414C74.7042 64.409 72.2447 66.9096 69.2276 66.9096C66.2105 66.9096 63.751 64.409 63.751 61.3414C63.751 58.2738 66.2105 55.7732 69.2276 55.7732Z" fill="#603C93"/>
<path d="M86.0945 56.8362L81.6037 56.0465L84.2225 52.2601C84.7502 51.5008 84.6606 50.4783 84.0134 49.8203L80.4785 46.2262C79.8312 45.5682 78.8255 45.4771 78.0787 46.0136L74.3447 48.6864L73.568 44.1306C73.4087 43.2194 72.632 42.5512 71.7258 42.5512H66.7172C65.8011 42.5512 65.0244 43.2194 64.8751 44.1306L63.9988 49.2331C63.9192 49.6988 64.2278 50.1341 64.6759 50.2151C65.134 50.2961 65.5621 49.9822 65.6418 49.5267L66.5181 44.4242C66.538 44.3229 66.6176 44.252 66.7172 44.252H71.7258C71.8254 44.252 71.9051 44.3229 71.925 44.4242L72.8013 49.5165C72.851 49.8101 73.0502 50.0632 73.329 50.1645C73.5779 50.2556 73.8169 50.3568 74.0459 50.4682C74.3148 50.5897 74.6334 50.5593 74.8724 50.3872L79.0446 47.4006C79.1243 47.3399 79.2338 47.35 79.3035 47.4209L82.8384 51.0149C82.9081 51.0858 82.9181 51.1971 82.8583 51.2781L79.9009 55.5505C79.7317 55.7934 79.7018 56.1073 79.8213 56.3806C79.9209 56.6034 80.0105 56.8362 80.0901 57.0589C80.1897 57.3424 80.4387 57.5449 80.7274 57.5955L85.8057 58.4965C85.9053 58.5168 85.975 58.5978 85.975 58.699V63.7914C85.975 63.8927 85.9053 63.9736 85.8057 63.9939L80.6677 64.9051C80.3789 64.9557 80.1399 65.1581 80.0304 65.4315C79.9507 65.634 79.8711 65.8466 79.7815 66.0389C79.662 66.3123 79.6918 66.6363 79.8611 66.8792L82.8782 71.2326C82.938 71.3136 82.928 71.4249 82.8583 71.4958L79.3234 75.0898C79.2537 75.1607 79.1442 75.1708 79.0645 75.1101L74.7529 72.0222C74.5139 71.8501 74.2053 71.8198 73.9364 71.9412C73.7572 72.0222 73.5779 72.1032 73.3887 72.1741C73.1099 72.2855 72.9108 72.5284 72.861 72.822L71.9549 78.1169C71.9349 78.2181 71.8553 78.289 71.7557 78.289H66.7471C66.6475 78.289 66.5679 78.2181 66.5479 78.1169L65.6418 72.8322C65.592 72.5386 65.3929 72.2855 65.1141 72.1842C64.9348 72.1134 64.7456 72.0324 64.5664 71.9615C64.2975 71.84 63.9889 71.8704 63.7499 72.0425L59.4283 75.1404C59.3487 75.2012 59.2391 75.1911 59.1694 75.1202L55.6345 71.5262C55.3059 71.1921 54.7782 71.1921 54.4496 71.5262C54.121 71.8603 54.121 72.3968 54.4496 72.7309L57.9845 76.325C58.6317 76.983 59.6374 77.0741 60.3842 76.5376L64.1183 73.8648L64.895 78.4206C65.0543 79.3318 65.831 80 66.7371 80H71.7458C72.6618 80 73.4385 79.3318 73.5879 78.4206L74.3646 73.8547L78.0887 76.5173C78.8355 77.0539 79.8412 76.9628 80.4884 76.3047L84.0234 72.7107C84.6706 72.0526 84.7602 71.0301 84.2325 70.2708L81.6037 66.4743L86.0846 65.6846C86.9807 65.5226 87.6379 64.7329 87.6379 63.8117V58.7193C87.6379 57.7879 86.9807 56.9982 86.0846 56.8463L86.0945 56.8362Z" fill="#603C93"/>
</svg>
