<svg width="563" height="556" viewBox="0 0 563 556" fill="none" xmlns="http://www.w3.org/2000/svg">
<rect width="563" height="556" fill="#603C93"/>
<path d="M524.197 266.993H517.63C512.185 266.993 507.771 271.403 507.771 276.843V412.249C507.771 417.689 512.185 422.1 517.63 422.1H524.197C529.642 422.1 534.056 417.689 534.056 412.249V276.843C534.056 271.403 529.642 266.993 524.197 266.993Z" fill="url(#paint0_linear_459_11539)"/>
<path d="M472.568 289.882H464.49C459.462 289.882 455.387 293.954 455.387 298.977V413.004C455.387 418.028 459.462 422.1 464.49 422.1H472.568C477.595 422.1 481.671 418.028 481.671 413.004V298.977C481.671 293.954 477.595 289.882 472.568 289.882Z" fill="url(#paint1_linear_459_11539)"/>
<path d="M422.337 309.18H412.881C408.234 309.18 404.467 312.944 404.467 317.588V413.692C404.467 418.336 408.234 422.1 412.881 422.1H422.337C426.984 422.1 430.751 418.336 430.751 413.692V317.588C430.751 312.944 426.984 309.18 422.337 309.18Z" fill="url(#paint2_linear_459_11539)"/>
<path d="M370.487 327.522H359.587C355.338 327.522 351.895 330.963 351.895 335.208V414.414C351.895 418.659 355.338 422.1 359.587 422.1H370.487C374.735 422.1 378.179 418.659 378.179 414.414V335.208C378.179 330.963 374.735 327.522 370.487 327.522Z" fill="url(#paint3_linear_459_11539)"/>
<path d="M552.949 437.689H316.408V203.796C316.408 201.53 318.239 199.684 320.523 199.684C322.807 199.684 324.638 201.513 324.638 203.796V429.483H552.966C555.234 429.483 557.081 431.312 557.081 433.595C557.081 435.877 555.25 437.706 552.966 437.706L552.949 437.689Z" fill="url(#paint4_linear_459_11539)"/>
<path d="M504.478 218.68L479.016 224.218L488.035 232.525C481.418 242.04 472.197 249.776 462.053 255.599C451.321 261.74 439.481 265.785 427.372 268.05C415.246 270.366 402.868 270.97 390.49 270.45C378.095 269.896 365.717 268.335 353.238 265.751L353.154 292.013C365.902 289.513 378.8 287.667 391.598 285.284C404.396 282.935 417.127 280.065 429.454 276.021C441.782 272.01 453.706 266.792 464.69 260.029C475.036 253.702 484.508 246 492.855 236.955L502.865 246.184L504.511 218.697L504.478 218.68Z" fill="url(#paint5_linear_459_11539)"/>
<path d="M148.929 339.655C78.323 339.655 20.8672 282.247 20.8672 211.699C20.8672 141.152 78.323 83.7443 148.929 83.7443C219.536 83.7443 276.991 141.152 276.991 211.699C276.991 282.247 219.536 339.655 148.929 339.655ZM148.929 96.4978C85.3433 96.4978 33.6314 148.183 33.6314 211.699C33.6314 275.216 85.3601 326.901 148.929 326.901C212.498 326.901 264.227 275.216 264.227 211.699C264.227 148.183 212.498 96.4978 148.929 96.4978Z" fill="url(#paint6_linear_459_11539)"/>
<path d="M148.93 304.112C97.9232 304.112 56.4395 262.663 56.4395 211.699C56.4395 160.735 97.9232 119.286 148.93 119.286C199.936 119.286 241.42 160.735 241.42 211.699C241.42 262.663 199.936 304.112 148.93 304.112ZM148.93 132.04C104.96 132.04 69.2037 167.783 69.2037 211.699C69.2037 255.615 104.977 291.359 148.93 291.359C192.882 291.359 228.656 255.615 228.656 211.699C228.656 167.783 192.882 132.04 148.93 132.04Z" fill="url(#paint7_linear_459_11539)"/>
<path d="M148.931 269.309C136.838 269.309 125.25 265.6 115.441 258.602C111.797 256.001 108.455 252.964 105.499 249.591C96.3287 239.103 91.2734 225.645 91.2734 211.716C91.2734 179.95 117.138 154.107 148.931 154.107C180.724 154.107 206.588 179.95 206.588 211.716C206.588 243.483 180.724 269.326 148.931 269.326V269.309ZM148.931 166.844C124.175 166.844 104.038 186.964 104.038 211.7C104.038 222.557 107.968 233.028 115.106 241.201C117.406 243.835 120.01 246.201 122.865 248.232C130.507 253.686 139.509 256.572 148.931 256.572C173.687 256.572 193.824 236.452 193.824 211.716C193.824 186.981 173.687 166.861 148.931 166.861V166.844Z" fill="url(#paint8_linear_459_11539)"/>
<path d="M148.931 230.964C159.58 230.964 168.212 222.339 168.212 211.7C168.212 201.06 159.58 192.435 148.931 192.435C138.283 192.435 129.65 201.06 129.65 211.7C129.65 222.339 138.283 230.964 148.931 230.964Z" fill="url(#paint9_linear_459_11539)"/>
<path d="M133.63 226.836C131.06 224.252 122.864 228.245 120.278 230.813L81.2963 269.661L44.5488 306.294L33.1449 305.019L12 327.455L30.4913 330.542L33.5312 349.471L55.0624 327.472L53.8364 315.691L90.8694 278.79L129.616 240.177C132.202 237.609 136.199 229.42 133.63 226.836Z" fill="white"/>
<g opacity="0.4" filter="url(#filter0_d_459_11539)">
<path d="M412.022 481.085L230.938 506.978C230.501 507.045 230.064 507.012 229.661 506.877L65.3389 455.444C62.383 454.521 62.7189 450.225 65.7923 449.788L246.876 423.895C247.313 423.828 247.75 423.862 248.153 423.996L412.475 475.43C415.431 476.353 415.095 480.649 412.022 481.085Z" fill="#8F8F8F"/>
</g>
<g opacity="0.4" filter="url(#filter1_d_459_11539)">
<path d="M412.022 500.031L230.938 525.924C230.501 525.991 230.064 525.957 229.661 525.823L65.3389 474.389C62.383 473.466 62.7189 469.17 65.7923 468.734L246.876 442.841C247.313 442.774 247.75 442.807 248.153 442.942L412.475 494.375C415.431 495.298 415.095 499.594 412.022 500.031Z" fill="#8F8F8F"/>
</g>
<g opacity="0.4" filter="url(#filter2_d_459_11539)">
<path d="M412.022 518.96L230.938 544.853C230.501 544.92 230.064 544.886 229.661 544.752L65.3389 493.318C62.383 492.395 62.7189 488.099 65.7923 487.663L246.876 461.77C247.313 461.703 247.75 461.736 248.153 461.871L412.475 513.304C415.431 514.227 415.095 518.523 412.022 518.96Z" fill="#8F8F8F"/>
</g>
<path d="M201.547 30.8337L218.476 21L243.686 35.5491L226.773 45.3828L201.547 30.8337Z" fill="url(#paint10_linear_459_11539)"/>
<path d="M226.772 45.3829L243.684 35.5492L243.617 64.4964L226.688 74.3301L226.772 45.3829Z" fill="url(#paint11_linear_459_11539)"/>
<path d="M201.547 30.8336V59.7809L226.689 74.33L226.773 45.3827L201.547 30.8336Z" fill="url(#paint12_linear_459_11539)"/>
<path d="M378.181 84.7343L360.244 74.3301L333.523 89.7351L351.461 100.156L378.181 84.7343Z" fill="url(#paint13_linear_459_11539)"/>
<path d="M351.461 100.156L333.523 89.7352L333.607 120.411L351.545 130.832L351.461 100.156Z" fill="url(#paint14_linear_459_11539)"/>
<path d="M378.18 84.7344V115.41L351.543 130.832L351.459 100.156L378.18 84.7344Z" fill="url(#paint15_linear_459_11539)"/>
<path d="M85.6796 382.966L72.4451 375.281L52.7109 386.658L65.9622 394.344L85.6796 382.966Z" fill="url(#paint16_linear_459_11539)"/>
<path d="M65.9622 394.344L52.7109 386.658L52.7781 409.296L66.0126 416.981L65.9622 394.344Z" fill="url(#paint17_linear_459_11539)"/>
<path d="M85.6783 382.966V405.621L66.0113 416.981L65.9609 394.344L85.6783 382.966Z" fill="url(#paint18_linear_459_11539)"/>
<path d="M371.766 200.356L387.553 191.176L411.083 204.752L395.295 213.931L371.766 200.356Z" fill="url(#paint19_linear_459_11539)"/>
<path d="M395.297 213.931L411.084 204.752L411.017 231.77L395.213 240.949L395.297 213.931Z" fill="url(#paint20_linear_459_11539)"/>
<path d="M371.766 200.356V227.373L395.212 240.949L395.295 213.932L371.766 200.356Z" fill="url(#paint21_linear_459_11539)"/>
<path d="M350.422 462.152C352.388 460.587 352.201 457.085 350.005 454.331C347.808 451.577 344.434 450.613 342.468 452.178C340.502 453.743 340.689 457.245 342.886 459.999C345.082 462.753 348.456 463.717 350.422 462.152Z" fill="#F7FFFE"/>
<path d="M351.578 456.266C350.705 457.004 349.832 457.759 348.824 458.296C346.909 459.32 344.474 459.639 343.114 461.334C342.408 462.206 342.106 463.331 341.804 464.405C340.83 468.046 339.637 471.637 338.126 475.094C336.732 478.282 334.85 481.404 332.768 484.189C332.314 484.81 331.895 485.481 331.811 486.237C331.727 486.992 332.096 487.848 332.801 488.133C333.608 488.452 334.481 487.965 335.186 487.462C338.411 485.23 341.367 482.612 344.037 479.742C345.381 478.299 346.657 476.772 347.85 475.195C349.042 473.617 349.865 472.073 351.41 470.882C352.351 470.16 353.443 469.724 354.349 468.952C355.256 468.18 356.214 467.308 356.919 466.267C357.759 465.042 358.246 463.532 357.927 462.089C357.608 460.629 356.516 459.521 355.391 458.615C354.988 458.296 351.897 455.964 351.562 456.249L351.578 456.266Z" fill="#460AB9"/>
<path d="M261.613 468.551C264.125 468.445 266.041 465.507 265.893 461.989C265.744 458.47 263.588 455.703 261.077 455.809C258.565 455.914 256.649 458.852 256.798 462.371C256.946 465.89 259.102 468.657 261.613 468.551Z" fill="#F7FFFE"/>
<path d="M265.956 464.556C264.814 464.64 263.672 464.723 262.547 464.556C260.38 464.254 258.247 463.079 256.148 463.633C255.056 463.918 254.149 464.64 253.276 465.344C250.337 467.71 247.246 469.909 243.988 471.822C240.982 473.584 237.623 474.977 234.297 476C233.558 476.218 232.819 476.52 232.316 477.091C231.812 477.662 231.593 478.551 231.997 479.205C232.467 479.927 233.458 480.061 234.314 480.078C238.244 480.179 242.174 479.81 246.02 479.071C247.969 478.702 249.9 478.215 251.798 477.645C253.696 477.074 255.274 476.319 257.206 476.252C258.398 476.218 259.524 476.52 260.716 476.42C261.908 476.319 263.202 476.185 264.377 475.765C265.771 475.279 267.065 474.339 267.669 472.98C268.274 471.604 268.055 470.077 267.669 468.684C267.535 468.197 266.426 464.488 265.973 464.522L265.956 464.556Z" fill="#460AB9"/>
<path d="M258.671 154.224C261.991 154.224 264.683 151.535 264.683 148.217C264.683 144.899 261.991 142.209 258.671 142.209C255.35 142.209 252.658 144.899 252.658 148.217C252.658 151.535 255.35 154.224 258.671 154.224Z" fill="#F2F7F6"/>
<path d="M259.352 153.915C260.04 152.313 259.298 150.458 257.695 149.772C256.092 149.085 254.236 149.827 253.549 151.428L251.298 156.672C250.611 158.273 251.353 160.128 252.956 160.814C254.558 161.501 256.415 160.76 257.102 159.158L259.352 153.915Z" fill="#F2F7F6"/>
<path d="M305.747 169.881C309.068 169.881 311.76 167.191 311.76 163.873C311.76 160.556 309.068 157.866 305.747 157.866C302.426 157.866 299.734 160.556 299.734 163.873C299.734 167.191 302.426 169.881 305.747 169.881Z" fill="#F2F7F6"/>
<path d="M311.209 165.344C309.996 164.092 307.997 164.058 306.744 165.27C305.491 166.481 305.458 168.479 306.67 169.731L310.64 173.832C311.853 175.084 313.852 175.117 315.105 173.906C316.358 172.694 316.391 170.697 315.179 169.445L311.209 165.344Z" fill="#F2F7F6"/>
<path d="M281.094 304.129C281.094 314.063 282.051 324.803 282.723 334.721C283.68 349.102 284.789 363.433 286.871 377.697C287.694 383.302 288.719 388.89 289.575 394.495C289.894 396.592 290.213 398.707 291.02 400.67C292.363 403.926 294.916 406.074 297.015 408.759C299.803 412.316 302.172 416.26 304.943 419.884C314.533 432.453 324.492 444.553 335.762 455.645C337.542 457.407 339.792 458.934 342.295 458.917C345.906 458.883 348.778 455.443 349.315 451.886C349.836 448.328 348.543 444.737 346.947 441.515C344.697 436.968 342.782 432.269 340.111 427.973C337.055 423.039 333.629 418.341 330.303 413.592C325.701 407.013 320.831 400.687 315.893 394.327C314.566 392.632 313.223 390.887 312.601 388.823C311.19 384.242 313.643 379.459 314.785 375.079C316.095 370.078 317.22 365.027 318.194 359.943C321.032 344.739 321.637 306.529 317.673 304.33C314.549 302.602 289.71 304.079 281.127 304.146" fill="#975CFD"/>
<path d="M260.301 300.974C257.782 312.755 253.348 330.593 251.265 342.457C249.166 354.405 248.847 366.202 248.696 378.284C248.696 390.182 248.662 401.946 249.317 413.843C250.006 426.11 251.047 438.344 252.239 450.577C252.475 452.993 252.978 454.89 253.868 457.138C255.128 459.689 257.463 461.904 260.284 462.223C263.71 462.626 266.952 460.176 268.547 457.122C270.143 454.068 270.428 450.527 270.647 447.087C271.705 430.104 271.604 413.105 272.225 396.106C272.427 391.374 273.972 386.876 275.786 382.547C278.154 376.942 280.942 371.387 282.588 365.514C284.939 357.174 285.006 349.153 284.687 340.594C284.435 333.983 284.2 327.371 283.948 320.776C283.764 316.01 283.73 304.062 283.73 304.062C282.135 304.163 260.267 300.941 260.267 300.941L260.301 300.974Z" fill="#975CFD"/>
<path d="M239.507 186.461C238.969 190.136 237.609 193.727 237.743 197.452C237.861 200.439 238.415 203.426 239.473 206.229C243.386 216.566 249.366 226.383 255.697 235.445C257.36 237.811 260.064 241.553 261.844 243.835C262.13 244.204 276.002 227.071 275.28 226.198C271.014 220.996 264.313 215.525 259.728 210.575C255.16 205.625 251.163 199.768 250.256 193.089C248.979 183.574 253.396 173.086 257.158 164.562C257.998 162.665 258.922 160.652 258.653 158.588C258.435 156.977 257.461 155.5 256.083 154.661C254.706 153.822 252.926 153.654 251.398 154.224C248.492 155.298 247.081 158.52 246.09 161.44C244.814 165.182 243.672 168.958 242.58 172.767C241.489 176.577 240.128 179.967 239.272 183.675C238.953 185.034 238.65 186.394 238.331 187.753C238.13 188.609 237.928 189.481 237.827 190.354C237.71 191.277 237.71 192.217 237.693 193.156C237.693 194.734 237.659 196.311 237.643 197.872" fill="#370AA5"/>
<path d="M311.689 177.701C311.102 177.097 310.564 176.476 310.111 175.754C309.153 174.211 308.666 172.264 309.288 170.552C309.926 168.807 311.656 167.582 313.486 167.297C318.575 166.508 322.237 171.979 325.344 175.184C334.598 184.732 347.295 196.294 345.397 210.944C344.574 216.432 342.055 221.567 338.847 226.097C335.958 230.175 332.515 233.783 329.072 237.374C325.848 240.73 322.002 245.513 318.391 248.567C317.786 249.087 312.781 238.549 310.799 235.562C309.825 234.102 305.425 229.084 305.878 228.749C311.27 224.738 320.96 219.016 326.704 215.492C328.115 214.619 329.559 213.713 330.5 212.354C333.842 207.554 329.274 201.597 326.805 197.469C324.42 193.492 321.75 189.683 318.895 186.024C317.417 184.128 315.787 182.349 314.309 180.453C313.537 179.463 312.58 178.607 311.689 177.701Z" fill="#370AA5"/>
<path d="M273.38 226.484C284.045 218.429 299.328 223.178 308.549 230.964C312.546 234.337 315.838 238.667 317.584 243.6C319.23 248.248 319.466 253.316 318.911 258.216C318.475 262.042 317.551 265.801 316.493 269.493C315.468 273.017 315.166 276.524 315.166 280.216C315.166 284.646 315.653 289.077 316.476 293.423C316.879 295.537 317.332 297.669 317.904 299.749C318.34 301.344 319.398 302.72 319.13 304.448C318.928 305.723 318.223 306.865 317.316 307.787C315.519 309.583 312.983 310.506 310.463 310.808C305.341 311.412 299.882 310.456 294.794 309.868C291.031 309.432 287.269 308.929 283.491 308.61C279.796 308.291 276.151 308.509 272.456 308.375C267.468 308.207 261.338 305.707 259.339 300.74C256.82 294.463 257.962 285.771 258.584 279.226C258.953 275.417 259.625 271.541 259.86 267.731C260.095 263.922 259.726 260.079 260.129 256.236C261.271 245.547 264.311 233.599 273.128 226.668C273.212 226.601 273.296 226.534 273.38 226.467V226.484Z" fill="#460AB9"/>
<path d="M288.194 224.285C287.791 224.788 287.472 225.124 286.884 225.376C285.305 226.064 283.206 227.658 284.449 229.621C285.003 230.494 286.044 230.897 287.035 231.115C288.984 231.534 291.049 231.383 292.93 230.746C294.627 230.158 297.012 229.034 297.448 227.104C297.818 225.46 296.642 224.117 295.584 223.026C294.392 221.818 293.014 220.795 291.52 220.006C290.949 219.704 290.294 219.435 289.672 219.62C288.984 219.821 288.547 220.526 288.446 221.231C288.295 222.338 288.967 223.312 288.194 224.302V224.285Z" fill="#F2F7F6"/>
<path d="M278.12 205.155C278.322 204.232 278.574 203.326 278.927 202.453C282.202 193.962 292.984 191.679 298.829 199.113C301.902 203.023 302.49 208.544 300.928 213.277C299.685 217.036 297.132 220.409 293.639 222.288C290.498 223.983 286.434 224.352 283.075 223.127C279.011 221.65 277.936 218.294 277.684 214.267C277.499 211.229 277.482 208.125 278.12 205.155Z" fill="#F7FFFE"/>
<path d="M289.926 189.901C286.668 188.189 282.839 186.746 279.077 187.367C276.221 187.837 273.45 189.733 272.644 192.602C271.939 195.086 273.081 198.107 275.449 199.147C277.531 200.07 279.933 199.416 282.066 198.627C284.199 197.838 286.433 196.915 288.667 197.318C291.354 197.805 293.47 200.456 293.352 203.175C293.319 204.014 293.1 204.836 293.084 205.675C293.067 206.514 293.302 207.42 293.974 207.924C294.914 208.645 296.258 208.276 297.4 207.924C298.542 207.571 299.97 207.387 300.742 208.276C301.431 209.065 301.179 210.323 300.541 211.162C299.902 212.001 298.979 212.522 298.156 213.159C296.678 214.334 295.552 215.945 294.948 217.724C294.679 218.529 294.528 219.502 295.065 220.174C295.653 220.929 296.795 220.946 297.702 220.694C300.877 219.821 302.976 216.717 303.883 213.562C304.924 209.937 304.756 205.977 303.412 202.453C301.733 198.056 298.273 194.901 294.41 192.401C292.983 191.461 291.488 190.639 289.943 189.884" fill="#191C3F"/>
<path d="M190.159 461.513C190.432 458.002 189.034 455.03 187.037 454.875C185.039 454.72 183.199 457.441 182.926 460.952C182.653 464.463 184.051 467.435 186.048 467.59C188.046 467.745 189.887 465.025 190.159 461.513Z" fill="#F7FFFE"/>
<path d="M182.065 463.431C183.207 463.565 184.349 463.683 185.474 463.566C187.64 463.347 189.824 462.24 191.906 462.877C192.981 463.213 193.855 463.951 194.711 464.69C197.566 467.157 200.573 469.472 203.764 471.486C206.72 473.349 210.011 474.876 213.303 476C214.025 476.252 214.764 476.571 215.251 477.158C215.738 477.745 215.923 478.652 215.487 479.289C215 479.994 214.009 480.095 213.135 480.078C209.205 480.028 205.292 479.541 201.48 478.652C199.548 478.215 197.633 477.662 195.769 477.024C193.905 476.386 192.343 475.564 190.412 475.446C189.219 475.379 188.077 475.631 186.885 475.497C185.692 475.363 184.416 475.178 183.257 474.725C181.88 474.188 180.62 473.198 180.066 471.839C179.512 470.446 179.78 468.919 180.217 467.543C180.368 467.056 181.611 463.398 182.065 463.448V463.431Z" fill="#191C3F"/>
<path d="M138.305 456.383C139.201 452.977 138.358 449.803 136.42 449.294C134.482 448.784 132.185 451.132 131.288 454.538C130.391 457.944 131.235 461.118 133.172 461.628C135.11 462.137 137.408 459.789 138.305 456.383Z" fill="#F7FFFE"/>
<path d="M130.035 456.87C131.127 457.205 132.236 457.524 133.378 457.608C135.544 457.776 137.895 457.071 139.827 458.078C140.818 458.598 141.557 459.488 142.262 460.36C144.63 463.297 147.166 466.116 149.954 468.667C152.524 471.033 155.497 473.114 158.537 474.826C159.208 475.195 159.863 475.648 160.25 476.319C160.636 476.99 160.653 477.913 160.098 478.45C159.494 479.054 158.486 478.97 157.646 478.803C153.8 478.064 150.038 476.873 146.427 475.312C144.613 474.524 142.816 473.651 141.087 472.694C139.357 471.738 137.979 470.647 136.098 470.177C134.94 469.892 133.781 469.942 132.622 469.59C131.463 469.238 130.254 468.835 129.179 468.18C127.919 467.408 126.861 466.217 126.559 464.757C126.257 463.297 126.794 461.837 127.483 460.562C127.718 460.109 129.599 456.719 130.035 456.853V456.87Z" fill="#191C3F"/>
<path d="M214.446 138.903C217.767 138.903 220.459 136.214 220.459 132.896C220.459 129.578 217.767 126.888 214.446 126.888C211.126 126.888 208.434 129.578 208.434 132.896C208.434 136.214 211.126 138.903 214.446 138.903Z" fill="#F2F7F6"/>
<path d="M212.11 143.71C212.201 145.45 213.688 146.786 215.429 146.694C217.17 146.603 218.508 145.118 218.416 143.378L218.115 137.68C218.023 135.94 216.537 134.604 214.795 134.696C213.054 134.788 211.717 136.273 211.809 138.012L212.11 143.71Z" fill="#F2F7F6"/>
<path d="M76.6591 153.839C79.9798 153.839 82.6717 151.149 82.6717 147.831C82.6717 144.513 79.9798 141.823 76.6591 141.823C73.3384 141.823 70.6465 144.513 70.6465 147.831C70.6465 151.149 73.3384 153.839 76.6591 153.839Z" fill="#F2F7F6"/>
<path d="M79.5086 158.491C80.3861 159.996 82.3191 160.506 83.826 159.63C85.333 158.753 85.8434 156.821 84.9659 155.316L82.0927 150.385C81.2152 148.879 79.2823 148.369 77.7753 149.246C76.2683 150.123 75.758 152.054 76.6354 153.56L79.5086 158.491Z" fill="#F2F7F6"/>
<path d="M201.043 282.482C205.209 302.451 202.874 322.823 202.068 343.061C200.556 380.869 200.64 419.18 192.075 456.249C191.504 458.733 190.412 461.586 187.926 462.156C185.911 462.609 183.862 461.2 182.888 459.37C181.931 457.541 181.796 455.41 181.696 453.363C181.696 420.204 178.236 386.994 175.851 353.952C175.011 342.424 174.155 330.878 173.315 319.35C172.895 313.711 172.492 308.09 172.089 302.451C171.803 298.524 170.124 292.634 171.988 288.926C173.365 286.174 176.64 285.049 179.647 284.345C186.852 282.666 193.67 282.129 201.06 282.465L201.043 282.482Z" fill="#4CA1F4"/>
<path d="M161.892 391.911C158.701 402.835 155.174 413.558 150.824 424.164C146.777 434.031 143.905 444.435 139.236 454.051C138.598 455.377 137.288 456.434 135.826 456.568C134.584 456.685 132.854 455.981 132.383 454.84C131.913 453.698 131.997 452.457 132.064 451.215C132.803 438.394 134.029 423.191 137.17 410.722C140.697 396.744 142.796 382.43 144.19 368.099C144.896 360.916 145.416 353.717 145.836 346.518C146.239 339.806 146.894 333.077 145.786 326.415C144.224 317.101 145.618 306.529 146.223 296.964C146.39 294.38 146.659 291.711 147.902 289.429C150.052 285.452 153.898 285.385 157.912 285.351C163.639 285.301 169.366 285.435 175.076 285.754C176.571 286.979 177.125 288.909 177.327 290.822C178.402 300.706 173.733 339.722 172.221 349.472C170.642 359.691 167.821 370.079 166.108 380.298C165.554 383.621 163.622 386.44 162.598 389.578C162.346 390.35 162.111 391.139 161.875 391.911H161.892Z" fill="#4CA1F4"/>
<path d="M153.679 206.951C140.394 206.665 127.328 202.269 117.805 192.787C112.817 187.837 107.006 183.105 102.824 177.533C97.6846 170.687 92.6125 163.823 87.5068 156.96C85.8273 154.711 83.2409 152.177 80.6545 153.268C79.2269 153.872 78.4207 155.466 78.32 157.01C78.2192 158.554 78.7063 160.064 79.2437 161.524C83.6608 173.791 91.0674 184.9 100.523 193.878C103.848 197.033 107.426 199.936 110.986 202.822C117.553 208.142 123.851 213.797 129.696 219.906C135.541 226.014 136.565 238.13 139.286 246.134C143.821 259.509 147.885 270.987 146.894 285.066C146.323 293.255 155.543 293.776 163.034 294.547C170.575 295.319 178.234 295.051 185.707 293.759C190.393 292.953 196.507 292.165 199.614 288.557C202.855 284.781 202.217 278.622 201.024 273.773C199.446 267.345 195.566 261.841 193.651 255.515C191.434 248.198 189.604 240.815 188.395 233.28C187.605 228.363 186.245 224.738 189.033 220.208C191.283 216.549 194.844 213.898 197.716 210.76C202.805 205.205 207.188 198.98 210.749 192.351C217.769 179.262 221.649 164.444 221.598 149.576C221.598 145.918 220.927 141.555 217.618 139.961C214.276 138.333 210.111 140.833 208.582 144.223C206.869 148.032 207.625 152.614 206.936 156.641C205.979 162.212 207.054 166.441 204.703 171.895C202.368 177.332 198.875 182.232 194.877 186.545C187.185 194.851 176.94 204.4 165.419 206.212C161.556 206.816 157.609 207.102 153.696 207.018L153.679 206.951Z" fill="#1B3151"/>
<path d="M161.136 203.812C161.908 204.165 162.479 204.349 163.319 204.282C165.57 204.131 168.962 204.702 168.71 207.722C168.593 209.048 167.635 210.172 166.611 211.028C164.596 212.69 162.127 213.763 159.54 214.166C157.206 214.519 153.78 214.653 152.083 212.673C150.656 210.995 151.21 208.729 151.781 206.816C152.419 204.685 153.393 202.671 154.67 200.842C155.157 200.154 155.745 199.449 156.584 199.281C157.491 199.097 158.432 199.651 158.969 200.406C159.826 201.597 159.624 203.141 161.119 203.812H161.136Z" fill="#F2F7F6"/>
<path d="M167.686 170.871C168.828 168.455 171.7 167.196 174.253 167.951C175.362 168.287 176.352 168.975 177.041 169.898C177.746 170.821 177.931 172.012 178.637 172.902C179.611 174.11 181.223 174.983 180.971 176.778C180.854 177.6 180.366 178.339 179.745 178.893C178.536 180 177.579 180.185 177.108 181.88C176.638 183.575 176.974 185.387 176.218 186.981C175.765 187.921 174.723 188.642 173.716 188.374C172.893 188.156 172.372 187.367 172.003 186.595C171.499 185.538 171.163 184.397 170.676 183.34C169.265 180.302 165.436 178.557 162.614 180.973C162.513 181.057 160.783 180.789 160.464 180.772C159.557 180.755 158.684 180.705 157.777 180.839C156.685 181.007 155.594 181.443 154.838 182.249C153.881 183.256 153.545 184.749 153.646 186.125C153.847 188.995 155.627 191.512 155.728 194.415C155.795 196.395 158.382 203.343 153.528 204.517C151.496 205.004 149.178 202.688 147.969 201.48C146.054 199.584 144.509 197.318 143.451 194.835C141.704 190.774 140.243 183.994 143.787 180.554C143.653 179.044 144.778 177.651 145.886 176.745C147.247 175.62 149.094 175.167 150.287 173.858C151.328 172.734 152 171.459 153.41 170.704C154.519 170.116 155.812 169.932 157.072 169.999C158.852 170.083 160.716 170.519 162.429 171.022C163.874 171.442 166.158 170.905 167.669 170.838L167.686 170.871Z" fill="#191C3F"/>
<path d="M172.138 186.713C171.651 185.051 171.382 183.021 170.156 181.712C168.93 180.403 167.016 179.648 165.219 179.782C163.69 179.899 162.212 180.336 160.684 180.504C158.501 180.738 156.116 180.302 154.671 182.349C154 183.306 153.714 184.514 153.68 185.689C153.647 186.729 153.798 187.786 154.1 188.777C154.268 189.297 154.47 189.8 154.722 190.287C154.974 190.774 155.377 191.126 155.679 191.562C155.914 191.898 156.082 192.267 156.216 192.653C156.536 193.677 155.914 194.7 156.116 195.741C156.317 196.781 158.165 199.147 159.189 199.416C160.986 199.869 162.363 197.301 163.136 196.831C165.42 195.439 167.973 194.6 170.593 195.187C171.046 195.288 171.517 195.422 171.97 195.355C172.944 195.237 173.65 194.264 173.767 193.291C173.885 192.317 173.566 191.344 173.196 190.421C172.827 189.498 172.424 187.635 172.138 186.696V186.713Z" fill="#F7FFFE"/>
<path d="M155.157 181.729C154.015 181.46 153.058 182.92 152.739 184.028C152.42 185.135 152.739 186.343 153.192 187.417C154.569 190.572 157.257 193.173 157.794 196.563C157.962 197.604 158.113 198.929 159.121 199.215C159.944 199.449 160.733 198.761 161.321 198.141C163.437 195.892 166.04 193.425 169.097 193.828C170.508 194.012 171.852 194.331 173.027 195.103C173.951 195.691 173.85 197.453 173.665 198.526C173.296 200.775 172.725 202.99 171.986 205.155C171.65 206.128 171.18 207.185 170.206 207.504C169.685 207.672 169.131 207.588 168.593 207.504C166.729 207.185 164.898 206.749 163.084 206.212C161.304 205.675 159.49 205.004 158.164 203.712C157.223 202.789 156.568 201.614 156.031 200.406C154.15 196.177 153.394 191.361 150.606 187.652C150.186 187.099 149.732 186.578 149.464 185.958C149.178 185.32 149.111 184.615 149.145 183.927C149.245 182.333 150.152 180.688 151.681 180.202C153.209 179.732 155.342 180.135 155.14 181.712L155.157 181.729Z" fill="#191C3F"/>
<path d="M151.948 188.542C151.696 187.82 151.36 187.031 150.638 186.796C150.101 186.612 149.479 186.83 149.059 187.233C148.64 187.635 148.404 188.172 148.27 188.743C147.598 191.361 148.707 196.244 151.327 195.59C153.057 195.153 153.393 192.854 152.805 191.176" fill="#F7FFFE"/>
<path d="M168.598 197.788C170.023 197.691 171.154 197.253 171.124 196.809C171.094 196.365 169.914 196.084 168.489 196.18C167.064 196.277 165.933 196.715 165.963 197.159C165.993 197.603 167.173 197.884 168.598 197.788Z" fill="#F7FFFE"/>
<path opacity="0.15" d="M401.082 177.018L50.082 179.388L230.333 492.018L401.082 177.018Z" fill="url(#paint22_linear_459_11539)"/>
<defs>
<filter id="filter0_d_459_11539" x="59.2949" y="419.862" width="359.225" height="91.1499" filterUnits="userSpaceOnUse" color-interpolation-filters="sRGB">
<feFlood flood-opacity="0" result="BackgroundImageFix"/>
<feColorMatrix in="SourceAlpha" type="matrix" values="0 0 0 0 0 0 0 0 0 0 0 0 0 0 0 0 0 0 127 0" result="hardAlpha"/>
<feOffset/>
<feGaussianBlur stdDeviation="2"/>
<feColorMatrix type="matrix" values="0 0 0 0 0.784314 0 0 0 0 0.317647 0 0 0 0 0.780392 0 0 0 0.2 0"/>
<feBlend mode="normal" in2="BackgroundImageFix" result="effect1_dropShadow_459_11539"/>
<feBlend mode="normal" in="SourceGraphic" in2="effect1_dropShadow_459_11539" result="shape"/>
</filter>
<filter id="filter1_d_459_11539" x="59.2949" y="438.807" width="359.225" height="91.1499" filterUnits="userSpaceOnUse" color-interpolation-filters="sRGB">
<feFlood flood-opacity="0" result="BackgroundImageFix"/>
<feColorMatrix in="SourceAlpha" type="matrix" values="0 0 0 0 0 0 0 0 0 0 0 0 0 0 0 0 0 0 127 0" result="hardAlpha"/>
<feOffset/>
<feGaussianBlur stdDeviation="2"/>
<feColorMatrix type="matrix" values="0 0 0 0 0.784314 0 0 0 0 0.317647 0 0 0 0 0.780392 0 0 0 0.2 0"/>
<feBlend mode="normal" in2="BackgroundImageFix" result="effect1_dropShadow_459_11539"/>
<feBlend mode="normal" in="SourceGraphic" in2="effect1_dropShadow_459_11539" result="shape"/>
</filter>
<filter id="filter2_d_459_11539" x="59.2949" y="457.736" width="359.225" height="91.1499" filterUnits="userSpaceOnUse" color-interpolation-filters="sRGB">
<feFlood flood-opacity="0" result="BackgroundImageFix"/>
<feColorMatrix in="SourceAlpha" type="matrix" values="0 0 0 0 0 0 0 0 0 0 0 0 0 0 0 0 0 0 127 0" result="hardAlpha"/>
<feOffset/>
<feGaussianBlur stdDeviation="2"/>
<feColorMatrix type="matrix" values="0 0 0 0 0.784314 0 0 0 0 0.317647 0 0 0 0 0.780392 0 0 0 0.2 0"/>
<feBlend mode="normal" in2="BackgroundImageFix" result="effect1_dropShadow_459_11539"/>
<feBlend mode="normal" in="SourceGraphic" in2="effect1_dropShadow_459_11539" result="shape"/>
</filter>
<linearGradient id="paint0_linear_459_11539" x1="507.771" y1="344.538" x2="534.056" y2="344.538" gradientUnits="userSpaceOnUse">
<stop offset="0.11" stop-color="white"/>
<stop offset="1" stop-color="#BC96E9"/>
</linearGradient>
<linearGradient id="paint1_linear_459_11539" x1="455.387" y1="355.983" x2="481.671" y2="355.983" gradientUnits="userSpaceOnUse">
<stop offset="0.11" stop-color="white"/>
<stop offset="1" stop-color="#BC96E9"/>
</linearGradient>
<linearGradient id="paint2_linear_459_11539" x1="404.467" y1="365.648" x2="430.751" y2="365.648" gradientUnits="userSpaceOnUse">
<stop offset="0.11" stop-color="white"/>
<stop offset="1" stop-color="#BC96E9"/>
</linearGradient>
<linearGradient id="paint3_linear_459_11539" x1="351.895" y1="374.811" x2="378.179" y2="374.811" gradientUnits="userSpaceOnUse">
<stop offset="0.11" stop-color="white"/>
<stop offset="1" stop-color="#BC96E9"/>
</linearGradient>
<linearGradient id="paint4_linear_459_11539" x1="316.408" y1="318.695" x2="557.064" y2="318.695" gradientUnits="userSpaceOnUse">
<stop offset="0.11" stop-color="white"/>
<stop offset="1" stop-color="#BC96E9"/>
</linearGradient>
<linearGradient id="paint5_linear_459_11539" x1="353.138" y1="255.347" x2="504.477" y2="255.347" gradientUnits="userSpaceOnUse">
<stop offset="0.11" stop-color="white"/>
<stop offset="1" stop-color="#BC96E9"/>
</linearGradient>
<linearGradient id="paint6_linear_459_11539" x1="20.8672" y1="211.699" x2="276.991" y2="211.699" gradientUnits="userSpaceOnUse">
<stop offset="0.11" stop-color="white"/>
<stop offset="1" stop-color="#BED3FF"/>
</linearGradient>
<linearGradient id="paint7_linear_459_11539" x1="56.4395" y1="211.699" x2="241.42" y2="211.699" gradientUnits="userSpaceOnUse">
<stop offset="0.11" stop-color="white"/>
<stop offset="1" stop-color="#BED3FF"/>
</linearGradient>
<linearGradient id="paint8_linear_459_11539" x1="91.2734" y1="211.7" x2="206.588" y2="211.7" gradientUnits="userSpaceOnUse">
<stop offset="0.11" stop-color="white"/>
<stop offset="1" stop-color="#BC96E9"/>
</linearGradient>
<linearGradient id="paint9_linear_459_11539" x1="129.65" y1="211.7" x2="168.212" y2="211.7" gradientUnits="userSpaceOnUse">
<stop offset="0.11" stop-color="#8950D2"/>
<stop offset="1" stop-color="#BC96E9"/>
</linearGradient>
<linearGradient id="paint10_linear_459_11539" x1="201.547" y1="33.1864" x2="243.686" y2="33.1864" gradientUnits="userSpaceOnUse">
<stop stop-color="#1B6FC9"/>
<stop offset="1" stop-color="#2A335F"/>
</linearGradient>
<linearGradient id="paint11_linear_459_11539" x1="226.688" y1="54.9316" x2="243.684" y2="54.9316" gradientUnits="userSpaceOnUse">
<stop stop-color="#1B6FC9"/>
<stop offset="1" stop-color="#2A335F"/>
</linearGradient>
<linearGradient id="paint12_linear_459_11539" x1="201.547" y1="52.5728" x2="226.773" y2="52.5728" gradientUnits="userSpaceOnUse">
<stop stop-color="#1B6FC9"/>
<stop offset="1" stop-color="#2A335F"/>
</linearGradient>
<linearGradient id="paint13_linear_459_11539" x1="333.523" y1="87.2347" x2="378.181" y2="87.2347" gradientUnits="userSpaceOnUse">
<stop stop-color="#FFE26D"/>
<stop offset="1" stop-color="#FFBA6F"/>
</linearGradient>
<linearGradient id="paint14_linear_459_11539" x1="351.545" y1="110.292" x2="333.523" y2="110.292" gradientUnits="userSpaceOnUse">
<stop stop-color="#FFBA6F"/>
<stop offset="1" stop-color="#FFE26D"/>
</linearGradient>
<linearGradient id="paint15_linear_459_11539" x1="378.18" y1="107.791" x2="351.459" y2="107.791" gradientUnits="userSpaceOnUse">
<stop stop-color="#FFBA6F"/>
<stop offset="1" stop-color="#FFE26D"/>
</linearGradient>
<linearGradient id="paint16_linear_459_11539" x1="52.7109" y1="384.812" x2="85.6796" y2="384.812" gradientUnits="userSpaceOnUse">
<stop stop-color="#FFE26D"/>
<stop offset="1" stop-color="#FFBA6F"/>
</linearGradient>
<linearGradient id="paint17_linear_459_11539" x1="66.0294" y1="401.828" x2="52.7109" y2="401.828" gradientUnits="userSpaceOnUse">
<stop stop-color="#FFBA6F"/>
<stop offset="1" stop-color="#FFE26D"/>
</linearGradient>
<linearGradient id="paint18_linear_459_11539" x1="85.6783" y1="399.982" x2="65.9609" y2="399.982" gradientUnits="userSpaceOnUse">
<stop stop-color="#FFBA6F"/>
<stop offset="1" stop-color="#FFE26D"/>
</linearGradient>
<linearGradient id="paint19_linear_459_11539" x1="371.766" y1="202.549" x2="411.083" y2="202.549" gradientUnits="userSpaceOnUse">
<stop stop-color="#1B6FC9"/>
<stop offset="1" stop-color="#2A335F"/>
</linearGradient>
<linearGradient id="paint20_linear_459_11539" x1="395.213" y1="222.843" x2="411.084" y2="222.843" gradientUnits="userSpaceOnUse">
<stop stop-color="#1B6FC9"/>
<stop offset="1" stop-color="#2A335F"/>
</linearGradient>
<linearGradient id="paint21_linear_459_11539" x1="371.766" y1="220.644" x2="395.295" y2="220.644" gradientUnits="userSpaceOnUse">
<stop stop-color="#1B6FC9"/>
<stop offset="1" stop-color="#2A335F"/>
</linearGradient>
<linearGradient id="paint22_linear_459_11539" x1="225.632" y1="184.179" x2="227.77" y2="446.631" gradientUnits="userSpaceOnUse">
<stop stop-color="white" stop-opacity="0"/>
<stop offset="1" stop-color="#F8F7FE"/>
</linearGradient>
</defs>
</svg>
