<svg width="80" height="80" viewBox="0 0 80 80" fill="none" xmlns="http://www.w3.org/2000/svg">
<g clip-path="url(#clip0_386_62413)">
<path d="M23.2711 35.5942C22.6581 35.5942 22.0773 35.8905 21.7179 36.3869L14.845 45.8697C14.4196 46.4564 14.3601 47.222 14.6897 47.8675C15.019 48.513 15.6739 48.9139 16.3986 48.9139H18.7487V53.9289C18.7487 55.1486 19.7411 56.141 20.9607 56.141H25.5818C26.8017 56.141 27.7939 55.1486 27.7939 53.9289V48.9139H30.144C30.8689 48.9139 31.5236 48.5128 31.8531 47.8674C32.1823 47.2219 32.1228 46.4563 31.6975 45.8696L24.8248 36.3871C24.465 35.8906 23.8842 35.5942 23.2711 35.5942ZM29.7997 47.245C29.7993 47.2447 29.799 47.2444 29.7987 47.2439L29.7997 47.245ZM27.4396 46.5702C26.3426 46.5702 25.4501 47.4627 25.4501 48.5596V53.7972H21.0923V48.5596C21.0923 47.4625 20.1998 46.5702 19.1029 46.5702H17.2318L23.2712 38.2375L29.3104 46.5702H27.4396Z" fill="black"/>
<path d="M56.1489 6.40219L57.3726 4.02047C58.3709 2.0775 56.8142 -0.206247 54.64 0.0150025L46.7384 0.817659C44.7509 1.01938 43.6314 3.20266 44.6236 4.93406L48.5723 11.8252C49.6603 13.7241 52.4206 13.6592 53.4198 11.7142L55.0778 8.48719C67.1581 14.2767 74.9279 26.5744 74.9279 40C74.9279 40.6472 75.4525 41.1719 76.0998 41.1719C76.7472 41.1719 77.2717 40.6472 77.2717 40C77.2717 25.4513 68.8781 12.5278 56.1489 6.40219ZM55.2879 2.94938L51.3351 10.6431C51.1839 10.9373 50.7703 10.947 50.6056 10.6598L46.657 3.76891C46.507 3.5075 46.675 3.17985 46.9751 3.14938L54.8767 2.34672C54.8934 2.345 54.9097 2.34422 54.9253 2.34422C55.2151 2.34407 55.4364 2.66031 55.2879 2.94938Z" fill="black"/>
<path d="M3.90039 38.8281C3.25305 38.8281 2.72852 39.3528 2.72852 40C2.72852 54.5414 11.1162 67.4692 23.8512 73.5978L22.6274 75.9795C21.628 77.9245 23.188 80.2061 25.3602 79.985L33.2616 79.1822C35.2491 78.9805 36.3688 76.7972 35.3765 75.0658L31.4279 68.1747C30.3415 66.2786 27.5788 66.3417 26.5802 68.2856L24.9223 71.5127C12.8421 65.7233 5.07227 53.4255 5.07227 40C5.07227 39.3527 4.54773 38.8281 3.90039 38.8281ZM24.7123 77.0505L28.6651 69.3567C28.8162 69.063 29.231 69.0545 29.3945 69.34L33.3434 76.2311C33.4932 76.4925 33.3251 76.82 33.0251 76.8505L25.1237 77.6533C24.7929 77.6862 24.5616 77.3437 24.7123 77.0505Z" fill="black"/>
<path d="M0.0148492 25.3601L0.817662 33.2616C1.01985 35.2491 3.20297 36.3689 4.93407 35.3766L11.8252 31.4278C13.7211 30.3416 13.6583 27.5789 11.7144 26.5802L8.48719 24.9222C14.2766 12.8417 26.5745 5.07187 40 5.07187C40.6474 5.07187 41.1719 4.54718 41.1719 3.89999C41.1719 3.25281 40.6474 2.72812 40 2.72812C25.4544 2.72812 12.5292 11.1191 6.40219 23.8508L4.02063 22.6272C2.07797 21.6289 -0.205932 23.185 0.0148492 25.3601C0.0148492 25.36 0.0148492 25.36 0.0148492 25.3601ZM2.94938 24.7119L10.643 28.6647C10.937 28.8156 10.947 29.2295 10.6597 29.3941L3.76844 33.3428C3.50657 33.493 3.17969 33.3241 3.14922 33.0245L2.34641 25.123V25.1231C2.31313 24.7945 2.65501 24.5606 2.94938 24.7119Z" fill="black"/>
<path d="M75.0661 44.6233L68.175 48.572C66.2791 49.6583 66.3419 52.4209 68.2858 53.4197L71.513 55.0777C65.7234 67.158 53.4255 74.9278 40 74.9278C39.3527 74.9278 38.8281 75.4525 38.8281 76.0997C38.8281 76.7469 39.3527 77.2716 40 77.2716C54.5456 77.2716 67.4708 68.8806 73.5978 56.1489L75.9795 57.3727C77.9242 58.3716 80.2056 56.8128 79.9852 54.6397L79.1823 46.7383C78.9803 44.7509 76.7972 43.6309 75.0661 44.6233ZM76.8506 46.9752L77.6534 54.8767C77.687 55.2055 77.3452 55.4391 77.0508 55.288L69.3572 51.3352C69.0631 51.1842 69.0531 50.7703 69.3405 50.6058L76.2317 46.657C76.4942 46.5059 76.8203 46.6777 76.8506 46.9752Z" fill="black"/>
<path d="M57.9712 30.2617V37.2656C57.9712 37.9128 58.4958 38.4375 59.1431 38.4375C59.7904 38.4375 60.315 37.9128 60.315 37.2656V30.6161H62.6651C63.39 30.6161 64.0447 30.215 64.3742 29.5695C64.7034 28.9239 64.644 28.1584 64.2186 27.5717L57.3459 18.0892C56.9862 17.5928 56.4054 17.2964 55.7925 17.2964C55.1795 17.2964 54.5987 17.5927 54.2394 18.0891L47.3664 27.5719C46.9411 28.1586 46.8817 28.9242 47.2111 29.5697C47.5404 30.2152 48.1953 30.6161 48.92 30.6161H51.2701V53.9291C51.2701 55.1488 52.2625 56.1411 53.4822 56.1411H58.1033C59.3231 56.1411 60.3153 55.1488 60.3153 53.9291V42.7344C60.3153 42.0872 59.7908 41.5625 59.1434 41.5625C58.4961 41.5625 57.9715 42.0872 57.9715 42.7344V53.7974H53.6137V30.2617C53.6137 29.1647 52.7212 28.2724 51.6244 28.2724H49.7533L55.7925 19.9397L61.8318 28.2724H59.9609C58.8637 28.2722 57.9712 29.1647 57.9712 30.2617Z" fill="black"/>
<path d="M39.5308 26.4453C38.9178 26.4453 38.337 26.7416 37.9776 27.238L31.1047 36.7208C30.6794 37.3075 30.62 38.0731 30.9493 38.7186C31.2787 39.3641 31.9336 39.765 32.6583 39.765H35.0084V53.9289C35.0084 55.1486 36.0008 56.1409 37.2204 56.1409H41.8415C43.0614 56.1409 44.0536 55.1486 44.0536 53.9289V49.0816C44.0536 48.4344 43.529 47.9097 42.8817 47.9097C42.2344 47.9097 41.7098 48.4344 41.7098 49.0816V53.7973H37.352V39.4108C37.352 38.3138 36.4595 37.4214 35.3626 37.4214H33.4915L39.5308 29.0887L45.5701 37.4214H43.6992C42.6022 37.4214 41.7097 38.3139 41.7097 39.4108V43.613C41.7097 44.2602 42.2342 44.7848 42.8815 44.7848C43.5289 44.7848 44.0534 44.2602 44.0534 43.613V39.7652H46.4036C47.1284 39.7652 47.7831 39.3641 48.1126 38.7186C48.4419 38.073 48.3825 37.3075 47.957 36.7208L41.0843 27.2383C40.7247 26.7417 40.1439 26.4453 39.5308 26.4453Z" fill="black"/>
</g>
<defs>
<clipPath id="clip0_386_62413">
<rect width="80" height="80" fill="white"/>
</clipPath>
</defs>
</svg>
