<svg width="88" height="88" viewBox="0 0 88 88" fill="none" xmlns="http://www.w3.org/2000/svg">
<path d="M75.2698 72.9543H72.3744V55.5817C72.3744 54.3045 71.3353 53.2654 70.058 53.2654H58.4763C57.1991 53.2654 56.16 54.3045 56.16 55.5817V72.9543H52.1064V55.0027C52.1064 54.363 51.5878 53.8445 50.9482 53.8445C50.3085 53.8445 49.79 54.363 49.79 55.0027V72.9543H38.2083V47.4745C38.2083 46.8349 37.6898 46.3164 37.0501 46.3164C36.4105 46.3164 35.8919 46.8349 35.8919 47.4745V72.9543H31.8383V17.362C31.8383 16.0848 30.7992 15.0457 29.522 15.0457H17.9403C16.6631 15.0457 15.6239 16.0848 15.6239 17.362V72.9543H12.7285C12.0888 72.9543 11.5703 73.4729 11.5703 74.1125C11.5703 74.7521 12.0888 75.2707 12.7285 75.2707H75.2698C75.9094 75.2707 76.428 74.7521 76.428 74.1125C76.428 73.4729 75.9095 72.9543 75.2698 72.9543ZM29.522 72.9543H17.9403V17.3621H29.522V72.9543ZM70.058 72.9543H58.4764L58.4772 55.5817H70.058V72.9543Z" fill="black"/>
<path d="M40.5011 46.3404C42.3803 48.2196 44.5718 49.6747 47.0149 50.6654C49.3741 51.6221 51.8666 52.1072 54.4233 52.1072C56.9799 52.1072 59.4725 51.6221 61.8317 50.6654C64.2748 49.6747 66.4664 48.2196 68.3455 46.3404C68.4487 46.2372 68.5504 46.1329 68.6511 46.0278L68.6513 46.0276C68.6513 46.0276 68.6513 46.0275 68.6514 46.0275C70.383 44.2194 71.7342 42.1354 72.6705 39.8267C73.6272 37.4675 74.1122 34.9749 74.1122 32.4183C74.1122 29.8616 73.6272 27.3691 72.6705 25.0099C71.6797 22.5668 70.2246 20.3752 68.3455 18.4961C66.4664 16.617 64.2748 15.1619 61.8317 14.1711C59.4725 13.2145 56.98 12.7294 54.4233 12.7294C51.8667 12.7294 49.3741 13.2144 47.0149 14.1711C44.5718 15.1619 42.3803 16.617 40.5012 18.4961C38.622 20.3752 37.1669 22.5668 36.1762 25.0099C35.2195 27.3691 34.7344 29.8616 34.7344 32.4183C34.7344 34.9749 35.2195 37.4675 36.1762 39.8267C37.1669 42.2698 38.622 44.4613 40.5011 46.3404ZM71.7959 32.4183C71.7959 36.5405 70.3698 40.4434 67.7511 43.5639L56.1386 32.4563L68.2332 21.8736C70.5442 24.8874 71.7959 28.5566 71.7959 32.4183ZM55.5815 15.0924C59.6358 15.3609 63.6133 17.0407 66.7057 20.1322L55.5815 29.8659V15.0924ZM53.6183 33.2507C53.6196 33.2521 53.621 33.2534 53.6224 33.2548L66.149 45.2369C62.9392 48.1793 58.8051 49.7909 54.4233 49.7909C49.7829 49.7909 45.4203 47.9838 42.139 44.7025C38.8578 41.4213 37.0507 37.0587 37.0507 32.4183C37.0507 27.7779 38.8578 23.4152 42.1391 20.134C45.2318 17.0413 49.21 15.361 53.2652 15.0924V32.4183L53.2657 32.4289C53.2834 32.7357 53.4081 33.0265 53.6183 33.2507Z" fill="black"/>
</svg>
